<?xml version="1.0" encoding="utf-8"?>
<svg xmlns="http://www.w3.org/2000/svg" xmlns:xlink="http://www.w3.org/1999/xlink" width="600" height="400" viewBox="0 0 2400 1600">
<defs>
  <clipPath id="clip070">
    <rect x="0" y="0" width="2400" height="1600"/>
  </clipPath>
</defs>
<path clip-path="url(#clip070)" d="M0 1600 L2400 1600 L2400 0 L0 0  Z" fill="#ffffff" fill-rule="evenodd" fill-opacity="1"/>
<defs>
  <clipPath id="clip071">
    <rect x="480" y="0" width="1681" height="1600"/>
  </clipPath>
</defs>
<path clip-path="url(#clip070)" d="M156.598 1486.45 L2352.76 1486.45 L2352.76 47.2441 L156.598 47.2441  Z" fill="#ffffff" fill-rule="evenodd" fill-opacity="1"/>
<defs>
  <clipPath id="clip072">
    <rect x="156" y="47" width="2197" height="1440"/>
  </clipPath>
</defs>
<polyline clip-path="url(#clip072)" style="stroke:#000000; stroke-linecap:round; stroke-linejoin:round; stroke-width:2; stroke-opacity:0.1; fill:none" points="208.342,1486.45 208.342,47.2441 "/>
<polyline clip-path="url(#clip072)" style="stroke:#000000; stroke-linecap:round; stroke-linejoin:round; stroke-width:2; stroke-opacity:0.1; fill:none" points="728.907,1486.45 728.907,47.2441 "/>
<polyline clip-path="url(#clip072)" style="stroke:#000000; stroke-linecap:round; stroke-linejoin:round; stroke-width:2; stroke-opacity:0.1; fill:none" points="1249.47,1486.45 1249.47,47.2441 "/>
<polyline clip-path="url(#clip072)" style="stroke:#000000; stroke-linecap:round; stroke-linejoin:round; stroke-width:2; stroke-opacity:0.1; fill:none" points="1770.04,1486.45 1770.04,47.2441 "/>
<polyline clip-path="url(#clip072)" style="stroke:#000000; stroke-linecap:round; stroke-linejoin:round; stroke-width:2; stroke-opacity:0.1; fill:none" points="2290.6,1486.45 2290.6,47.2441 "/>
<polyline clip-path="url(#clip070)" style="stroke:#000000; stroke-linecap:round; stroke-linejoin:round; stroke-width:4; stroke-opacity:1; fill:none" points="156.598,1486.45 2352.76,1486.45 "/>
<polyline clip-path="url(#clip070)" style="stroke:#000000; stroke-linecap:round; stroke-linejoin:round; stroke-width:4; stroke-opacity:1; fill:none" points="208.342,1486.45 208.342,1467.55 "/>
<polyline clip-path="url(#clip070)" style="stroke:#000000; stroke-linecap:round; stroke-linejoin:round; stroke-width:4; stroke-opacity:1; fill:none" points="728.907,1486.45 728.907,1467.55 "/>
<polyline clip-path="url(#clip070)" style="stroke:#000000; stroke-linecap:round; stroke-linejoin:round; stroke-width:4; stroke-opacity:1; fill:none" points="1249.47,1486.45 1249.47,1467.55 "/>
<polyline clip-path="url(#clip070)" style="stroke:#000000; stroke-linecap:round; stroke-linejoin:round; stroke-width:4; stroke-opacity:1; fill:none" points="1770.04,1486.45 1770.04,1467.55 "/>
<polyline clip-path="url(#clip070)" style="stroke:#000000; stroke-linecap:round; stroke-linejoin:round; stroke-width:4; stroke-opacity:1; fill:none" points="2290.6,1486.45 2290.6,1467.55 "/>
<path clip-path="url(#clip070)" d="M208.342 1517.37 Q204.731 1517.37 202.903 1520.93 Q201.097 1524.47 201.097 1531.6 Q201.097 1538.71 202.903 1542.27 Q204.731 1545.82 208.342 1545.82 Q211.977 1545.82 213.782 1542.27 Q215.611 1538.71 215.611 1531.6 Q215.611 1524.47 213.782 1520.93 Q211.977 1517.37 208.342 1517.37 M208.342 1513.66 Q214.153 1513.66 217.208 1518.27 Q220.287 1522.85 220.287 1531.6 Q220.287 1540.33 217.208 1544.94 Q214.153 1549.52 208.342 1549.52 Q202.532 1549.52 199.454 1544.94 Q196.398 1540.33 196.398 1531.6 Q196.398 1522.85 199.454 1518.27 Q202.532 1513.66 208.342 1513.66 Z" fill="#000000" fill-rule="nonzero" fill-opacity="1" /><path clip-path="url(#clip070)" d="M703.606 1514.29 L721.962 1514.29 L721.962 1518.22 L707.888 1518.22 L707.888 1526.7 Q708.907 1526.35 709.926 1526.19 Q710.944 1526 711.963 1526 Q717.75 1526 721.129 1529.17 Q724.509 1532.34 724.509 1537.76 Q724.509 1543.34 721.037 1546.44 Q717.564 1549.52 711.245 1549.52 Q709.069 1549.52 706.801 1549.15 Q704.555 1548.78 702.148 1548.04 L702.148 1543.34 Q704.231 1544.47 706.453 1545.03 Q708.676 1545.58 711.152 1545.58 Q715.157 1545.58 717.495 1543.48 Q719.833 1541.37 719.833 1537.76 Q719.833 1534.15 717.495 1532.04 Q715.157 1529.94 711.152 1529.94 Q709.277 1529.94 707.402 1530.35 Q705.551 1530.77 703.606 1531.65 L703.606 1514.29 Z" fill="#000000" fill-rule="nonzero" fill-opacity="1" /><path clip-path="url(#clip070)" d="M743.722 1517.37 Q740.111 1517.37 738.282 1520.93 Q736.476 1524.47 736.476 1531.6 Q736.476 1538.71 738.282 1542.27 Q740.111 1545.82 743.722 1545.82 Q747.356 1545.82 749.161 1542.27 Q750.99 1538.71 750.99 1531.6 Q750.99 1524.47 749.161 1520.93 Q747.356 1517.37 743.722 1517.37 M743.722 1513.66 Q749.532 1513.66 752.587 1518.27 Q755.666 1522.85 755.666 1531.6 Q755.666 1540.33 752.587 1544.94 Q749.532 1549.52 743.722 1549.52 Q737.911 1549.52 734.833 1544.94 Q731.777 1540.33 731.777 1531.6 Q731.777 1522.85 734.833 1518.27 Q737.911 1513.66 743.722 1513.66 Z" fill="#000000" fill-rule="nonzero" fill-opacity="1" /><path clip-path="url(#clip070)" d="M1209.08 1544.91 L1216.72 1544.91 L1216.72 1518.55 L1208.41 1520.21 L1208.41 1515.95 L1216.67 1514.29 L1221.35 1514.29 L1221.35 1544.91 L1228.99 1544.91 L1228.99 1548.85 L1209.08 1548.85 L1209.08 1544.91 Z" fill="#000000" fill-rule="nonzero" fill-opacity="1" /><path clip-path="url(#clip070)" d="M1248.43 1517.37 Q1244.82 1517.37 1242.99 1520.93 Q1241.18 1524.47 1241.18 1531.6 Q1241.18 1538.71 1242.99 1542.27 Q1244.82 1545.82 1248.43 1545.82 Q1252.06 1545.82 1253.87 1542.27 Q1255.7 1538.71 1255.7 1531.6 Q1255.7 1524.47 1253.87 1520.93 Q1252.06 1517.37 1248.43 1517.37 M1248.43 1513.66 Q1254.24 1513.66 1257.3 1518.27 Q1260.37 1522.85 1260.37 1531.6 Q1260.37 1540.33 1257.3 1544.94 Q1254.24 1549.52 1248.43 1549.52 Q1242.62 1549.52 1239.54 1544.94 Q1236.49 1540.33 1236.49 1531.6 Q1236.49 1522.85 1239.54 1518.27 Q1242.62 1513.66 1248.43 1513.66 Z" fill="#000000" fill-rule="nonzero" fill-opacity="1" /><path clip-path="url(#clip070)" d="M1278.59 1517.37 Q1274.98 1517.37 1273.15 1520.93 Q1271.35 1524.47 1271.35 1531.6 Q1271.35 1538.71 1273.15 1542.27 Q1274.98 1545.82 1278.59 1545.82 Q1282.23 1545.82 1284.03 1542.27 Q1285.86 1538.71 1285.86 1531.6 Q1285.86 1524.47 1284.03 1520.93 Q1282.23 1517.37 1278.59 1517.37 M1278.59 1513.66 Q1284.4 1513.66 1287.46 1518.27 Q1290.54 1522.85 1290.54 1531.6 Q1290.54 1540.33 1287.46 1544.94 Q1284.4 1549.52 1278.59 1549.52 Q1272.78 1549.52 1269.7 1544.94 Q1266.65 1540.33 1266.65 1531.6 Q1266.65 1522.85 1269.7 1518.27 Q1272.78 1513.66 1278.59 1513.66 Z" fill="#000000" fill-rule="nonzero" fill-opacity="1" /><path clip-path="url(#clip070)" d="M1729.64 1544.91 L1737.28 1544.91 L1737.28 1518.55 L1728.97 1520.21 L1728.97 1515.95 L1737.24 1514.29 L1741.91 1514.29 L1741.91 1544.91 L1749.55 1544.91 L1749.55 1548.85 L1729.64 1548.85 L1729.64 1544.91 Z" fill="#000000" fill-rule="nonzero" fill-opacity="1" /><path clip-path="url(#clip070)" d="M1759.04 1514.29 L1777.4 1514.29 L1777.4 1518.22 L1763.32 1518.22 L1763.32 1526.7 Q1764.34 1526.35 1765.36 1526.19 Q1766.38 1526 1767.4 1526 Q1773.18 1526 1776.56 1529.17 Q1779.94 1532.34 1779.94 1537.76 Q1779.94 1543.34 1776.47 1546.44 Q1773 1549.52 1766.68 1549.52 Q1764.5 1549.52 1762.24 1549.15 Q1759.99 1548.78 1757.58 1548.04 L1757.58 1543.34 Q1759.67 1544.47 1761.89 1545.03 Q1764.11 1545.58 1766.59 1545.58 Q1770.59 1545.58 1772.93 1543.48 Q1775.27 1541.37 1775.27 1537.76 Q1775.27 1534.15 1772.93 1532.04 Q1770.59 1529.94 1766.59 1529.94 Q1764.71 1529.94 1762.84 1530.35 Q1760.99 1530.77 1759.04 1531.65 L1759.04 1514.29 Z" fill="#000000" fill-rule="nonzero" fill-opacity="1" /><path clip-path="url(#clip070)" d="M1799.16 1517.37 Q1795.55 1517.37 1793.72 1520.93 Q1791.91 1524.47 1791.91 1531.6 Q1791.91 1538.71 1793.72 1542.27 Q1795.55 1545.82 1799.16 1545.82 Q1802.79 1545.82 1804.6 1542.27 Q1806.42 1538.71 1806.42 1531.6 Q1806.42 1524.47 1804.6 1520.93 Q1802.79 1517.37 1799.16 1517.37 M1799.16 1513.66 Q1804.97 1513.66 1808.02 1518.27 Q1811.1 1522.85 1811.1 1531.6 Q1811.1 1540.33 1808.02 1544.94 Q1804.97 1549.52 1799.16 1549.52 Q1793.35 1549.52 1790.27 1544.94 Q1787.21 1540.33 1787.21 1531.6 Q1787.21 1522.85 1790.27 1518.27 Q1793.35 1513.66 1799.16 1513.66 Z" fill="#000000" fill-rule="nonzero" fill-opacity="1" /><path clip-path="url(#clip070)" d="M2254.29 1544.91 L2270.61 1544.91 L2270.61 1548.85 L2248.67 1548.85 L2248.67 1544.91 Q2251.33 1542.16 2255.91 1537.53 Q2260.52 1532.88 2261.7 1531.53 Q2263.95 1529.01 2264.83 1527.27 Q2265.73 1525.51 2265.73 1523.82 Q2265.73 1521.07 2263.78 1519.33 Q2261.86 1517.6 2258.76 1517.6 Q2256.56 1517.6 2254.11 1518.36 Q2251.68 1519.13 2248.9 1520.68 L2248.9 1515.95 Q2251.72 1514.82 2254.18 1514.24 Q2256.63 1513.66 2258.67 1513.66 Q2264.04 1513.66 2267.23 1516.35 Q2270.43 1519.03 2270.43 1523.52 Q2270.43 1525.65 2269.62 1527.57 Q2268.83 1529.47 2266.72 1532.07 Q2266.14 1532.74 2263.04 1535.95 Q2259.94 1539.15 2254.29 1544.91 Z" fill="#000000" fill-rule="nonzero" fill-opacity="1" /><path clip-path="url(#clip070)" d="M2290.43 1517.37 Q2286.82 1517.37 2284.99 1520.93 Q2283.18 1524.47 2283.18 1531.6 Q2283.18 1538.71 2284.99 1542.27 Q2286.82 1545.82 2290.43 1545.82 Q2294.06 1545.82 2295.87 1542.27 Q2297.7 1538.71 2297.7 1531.6 Q2297.7 1524.47 2295.87 1520.93 Q2294.06 1517.37 2290.43 1517.37 M2290.43 1513.66 Q2296.24 1513.66 2299.29 1518.27 Q2302.37 1522.85 2302.37 1531.6 Q2302.37 1540.33 2299.29 1544.94 Q2296.24 1549.52 2290.43 1549.52 Q2284.62 1549.52 2281.54 1544.94 Q2278.48 1540.33 2278.48 1531.6 Q2278.48 1522.85 2281.54 1518.27 Q2284.62 1513.66 2290.43 1513.66 Z" fill="#000000" fill-rule="nonzero" fill-opacity="1" /><path clip-path="url(#clip070)" d="M2320.59 1517.37 Q2316.98 1517.37 2315.15 1520.93 Q2313.34 1524.47 2313.34 1531.6 Q2313.34 1538.71 2315.15 1542.27 Q2316.98 1545.82 2320.59 1545.82 Q2324.22 1545.82 2326.03 1542.27 Q2327.86 1538.71 2327.86 1531.6 Q2327.86 1524.47 2326.03 1520.93 Q2324.22 1517.37 2320.59 1517.37 M2320.59 1513.66 Q2326.4 1513.66 2329.45 1518.27 Q2332.53 1522.85 2332.53 1531.6 Q2332.53 1540.33 2329.45 1544.94 Q2326.4 1549.52 2320.59 1549.52 Q2314.78 1549.52 2311.7 1544.94 Q2308.64 1540.33 2308.64 1531.6 Q2308.64 1522.85 2311.7 1518.27 Q2314.78 1513.66 2320.59 1513.66 Z" fill="#000000" fill-rule="nonzero" fill-opacity="1" /><polyline clip-path="url(#clip072)" style="stroke:#000000; stroke-linecap:round; stroke-linejoin:round; stroke-width:2; stroke-opacity:0.1; fill:none" points="156.598,1305.73 2352.76,1305.73 "/>
<polyline clip-path="url(#clip072)" style="stroke:#000000; stroke-linecap:round; stroke-linejoin:round; stroke-width:2; stroke-opacity:0.1; fill:none" points="156.598,1041.9 2352.76,1041.9 "/>
<polyline clip-path="url(#clip072)" style="stroke:#000000; stroke-linecap:round; stroke-linejoin:round; stroke-width:2; stroke-opacity:0.1; fill:none" points="156.598,778.068 2352.76,778.068 "/>
<polyline clip-path="url(#clip072)" style="stroke:#000000; stroke-linecap:round; stroke-linejoin:round; stroke-width:2; stroke-opacity:0.1; fill:none" points="156.598,514.239 2352.76,514.239 "/>
<polyline clip-path="url(#clip072)" style="stroke:#000000; stroke-linecap:round; stroke-linejoin:round; stroke-width:2; stroke-opacity:0.1; fill:none" points="156.598,250.411 2352.76,250.411 "/>
<polyline clip-path="url(#clip070)" style="stroke:#000000; stroke-linecap:round; stroke-linejoin:round; stroke-width:4; stroke-opacity:1; fill:none" points="156.598,1486.45 156.598,47.2441 "/>
<polyline clip-path="url(#clip070)" style="stroke:#000000; stroke-linecap:round; stroke-linejoin:round; stroke-width:4; stroke-opacity:1; fill:none" points="156.598,1305.73 175.496,1305.73 "/>
<polyline clip-path="url(#clip070)" style="stroke:#000000; stroke-linecap:round; stroke-linejoin:round; stroke-width:4; stroke-opacity:1; fill:none" points="156.598,1041.9 175.496,1041.9 "/>
<polyline clip-path="url(#clip070)" style="stroke:#000000; stroke-linecap:round; stroke-linejoin:round; stroke-width:4; stroke-opacity:1; fill:none" points="156.598,778.068 175.496,778.068 "/>
<polyline clip-path="url(#clip070)" style="stroke:#000000; stroke-linecap:round; stroke-linejoin:round; stroke-width:4; stroke-opacity:1; fill:none" points="156.598,514.239 175.496,514.239 "/>
<polyline clip-path="url(#clip070)" style="stroke:#000000; stroke-linecap:round; stroke-linejoin:round; stroke-width:4; stroke-opacity:1; fill:none" points="156.598,250.411 175.496,250.411 "/>
<path clip-path="url(#clip070)" d="M63.4226 1291.52 Q59.8115 1291.52 57.9828 1295.09 Q56.1773 1298.63 56.1773 1305.76 Q56.1773 1312.87 57.9828 1316.43 Q59.8115 1319.97 63.4226 1319.97 Q67.0569 1319.97 68.8624 1316.43 Q70.6911 1312.87 70.6911 1305.76 Q70.6911 1298.63 68.8624 1295.09 Q67.0569 1291.52 63.4226 1291.52 M63.4226 1287.82 Q69.2328 1287.82 72.2883 1292.43 Q75.367 1297.01 75.367 1305.76 Q75.367 1314.49 72.2883 1319.09 Q69.2328 1323.68 63.4226 1323.68 Q57.6125 1323.68 54.5338 1319.09 Q51.4782 1314.49 51.4782 1305.76 Q51.4782 1297.01 54.5338 1292.43 Q57.6125 1287.82 63.4226 1287.82 Z" fill="#000000" fill-rule="nonzero" fill-opacity="1" /><path clip-path="url(#clip070)" d="M83.5845 1317.13 L88.4688 1317.13 L88.4688 1323.01 L83.5845 1323.01 L83.5845 1317.13 Z" fill="#000000" fill-rule="nonzero" fill-opacity="1" /><path clip-path="url(#clip070)" d="M108.654 1291.52 Q105.043 1291.52 103.214 1295.09 Q101.409 1298.63 101.409 1305.76 Q101.409 1312.87 103.214 1316.43 Q105.043 1319.97 108.654 1319.97 Q112.288 1319.97 114.094 1316.43 Q115.922 1312.87 115.922 1305.76 Q115.922 1298.63 114.094 1295.09 Q112.288 1291.52 108.654 1291.52 M108.654 1287.82 Q114.464 1287.82 117.52 1292.43 Q120.598 1297.01 120.598 1305.76 Q120.598 1314.49 117.52 1319.09 Q114.464 1323.68 108.654 1323.68 Q102.844 1323.68 99.765 1319.09 Q96.7095 1314.49 96.7095 1305.76 Q96.7095 1297.01 99.765 1292.43 Q102.844 1287.82 108.654 1287.82 Z" fill="#000000" fill-rule="nonzero" fill-opacity="1" /><path clip-path="url(#clip070)" d="M65.0198 1027.7 Q61.4087 1027.7 59.58 1031.26 Q57.7745 1034.8 57.7745 1041.93 Q57.7745 1049.04 59.58 1052.6 Q61.4087 1056.14 65.0198 1056.14 Q68.6541 1056.14 70.4596 1052.6 Q72.2883 1049.04 72.2883 1041.93 Q72.2883 1034.8 70.4596 1031.26 Q68.6541 1027.7 65.0198 1027.7 M65.0198 1023.99 Q70.83 1023.99 73.8855 1028.6 Q76.9642 1033.18 76.9642 1041.93 Q76.9642 1050.66 73.8855 1055.26 Q70.83 1059.85 65.0198 1059.85 Q59.2097 1059.85 56.131 1055.26 Q53.0754 1050.66 53.0754 1041.93 Q53.0754 1033.18 56.131 1028.6 Q59.2097 1023.99 65.0198 1023.99 Z" fill="#000000" fill-rule="nonzero" fill-opacity="1" /><path clip-path="url(#clip070)" d="M85.1818 1053.3 L90.066 1053.3 L90.066 1059.18 L85.1818 1059.18 L85.1818 1053.3 Z" fill="#000000" fill-rule="nonzero" fill-opacity="1" /><path clip-path="url(#clip070)" d="M104.279 1055.24 L120.598 1055.24 L120.598 1059.18 L98.6539 1059.18 L98.6539 1055.24 Q101.316 1052.49 105.899 1047.86 Q110.506 1043.2 111.686 1041.86 Q113.932 1039.34 114.811 1037.6 Q115.714 1035.84 115.714 1034.15 Q115.714 1031.4 113.77 1029.66 Q111.848 1027.93 108.746 1027.93 Q106.547 1027.93 104.094 1028.69 Q101.663 1029.45 98.8854 1031.01 L98.8854 1026.28 Q101.709 1025.15 104.163 1024.57 Q106.617 1023.99 108.654 1023.99 Q114.024 1023.99 117.219 1026.68 Q120.413 1029.36 120.413 1033.85 Q120.413 1035.98 119.603 1037.9 Q118.816 1039.8 116.709 1042.39 Q116.131 1043.07 113.029 1046.28 Q109.927 1049.48 104.279 1055.24 Z" fill="#000000" fill-rule="nonzero" fill-opacity="1" /><path clip-path="url(#clip070)" d="M62.9365 763.867 Q59.3254 763.867 57.4967 767.432 Q55.6912 770.973 55.6912 778.103 Q55.6912 785.209 57.4967 788.774 Q59.3254 792.316 62.9365 792.316 Q66.5707 792.316 68.3763 788.774 Q70.205 785.209 70.205 778.103 Q70.205 770.973 68.3763 767.432 Q66.5707 763.867 62.9365 763.867 M62.9365 760.163 Q68.7467 760.163 71.8022 764.77 Q74.8809 769.353 74.8809 778.103 Q74.8809 786.83 71.8022 791.436 Q68.7467 796.019 62.9365 796.019 Q57.1264 796.019 54.0477 791.436 Q50.9921 786.83 50.9921 778.103 Q50.9921 769.353 54.0477 764.77 Q57.1264 760.163 62.9365 760.163 Z" fill="#000000" fill-rule="nonzero" fill-opacity="1" /><path clip-path="url(#clip070)" d="M83.0984 789.469 L87.9827 789.469 L87.9827 795.348 L83.0984 795.348 L83.0984 789.469 Z" fill="#000000" fill-rule="nonzero" fill-opacity="1" /><path clip-path="url(#clip070)" d="M111.015 764.862 L99.2095 783.311 L111.015 783.311 L111.015 764.862 M109.788 760.788 L115.668 760.788 L115.668 783.311 L120.598 783.311 L120.598 787.2 L115.668 787.2 L115.668 795.348 L111.015 795.348 L111.015 787.2 L95.4132 787.2 L95.4132 782.686 L109.788 760.788 Z" fill="#000000" fill-rule="nonzero" fill-opacity="1" /><path clip-path="url(#clip070)" d="M63.2606 500.038 Q59.6495 500.038 57.8208 503.603 Q56.0152 507.145 56.0152 514.274 Q56.0152 521.381 57.8208 524.945 Q59.6495 528.487 63.2606 528.487 Q66.8948 528.487 68.7004 524.945 Q70.5291 521.381 70.5291 514.274 Q70.5291 507.145 68.7004 503.603 Q66.8948 500.038 63.2606 500.038 M63.2606 496.334 Q69.0707 496.334 72.1263 500.941 Q75.205 505.524 75.205 514.274 Q75.205 523.001 72.1263 527.607 Q69.0707 532.191 63.2606 532.191 Q57.4504 532.191 54.3717 527.607 Q51.3162 523.001 51.3162 514.274 Q51.3162 505.524 54.3717 500.941 Q57.4504 496.334 63.2606 496.334 Z" fill="#000000" fill-rule="nonzero" fill-opacity="1" /><path clip-path="url(#clip070)" d="M83.4225 525.64 L88.3067 525.64 L88.3067 531.519 L83.4225 531.519 L83.4225 525.64 Z" fill="#000000" fill-rule="nonzero" fill-opacity="1" /><path clip-path="url(#clip070)" d="M109.071 512.376 Q105.922 512.376 104.071 514.529 Q102.242 516.682 102.242 520.431 Q102.242 524.158 104.071 526.334 Q105.922 528.487 109.071 528.487 Q112.219 528.487 114.047 526.334 Q115.899 524.158 115.899 520.431 Q115.899 516.682 114.047 514.529 Q112.219 512.376 109.071 512.376 M118.353 497.723 L118.353 501.983 Q116.594 501.149 114.788 500.709 Q113.006 500.27 111.246 500.27 Q106.617 500.27 104.163 503.395 Q101.733 506.52 101.385 512.839 Q102.751 510.825 104.811 509.76 Q106.871 508.672 109.348 508.672 Q114.557 508.672 117.566 511.844 Q120.598 514.992 120.598 520.431 Q120.598 525.756 117.45 528.973 Q114.302 532.191 109.071 532.191 Q103.075 532.191 99.9039 527.607 Q96.7326 523.001 96.7326 514.274 Q96.7326 506.08 100.621 501.219 Q104.51 496.334 111.061 496.334 Q112.82 496.334 114.603 496.682 Q116.408 497.029 118.353 497.723 Z" fill="#000000" fill-rule="nonzero" fill-opacity="1" /><path clip-path="url(#clip070)" d="M63.5152 236.209 Q59.9041 236.209 58.0754 239.774 Q56.2699 243.316 56.2699 250.445 Q56.2699 257.552 58.0754 261.117 Q59.9041 264.658 63.5152 264.658 Q67.1494 264.658 68.955 261.117 Q70.7837 257.552 70.7837 250.445 Q70.7837 243.316 68.955 239.774 Q67.1494 236.209 63.5152 236.209 M63.5152 232.506 Q69.3254 232.506 72.3809 237.112 Q75.4596 241.695 75.4596 250.445 Q75.4596 259.172 72.3809 263.779 Q69.3254 268.362 63.5152 268.362 Q57.7051 268.362 54.6264 263.779 Q51.5708 259.172 51.5708 250.445 Q51.5708 241.695 54.6264 237.112 Q57.7051 232.506 63.5152 232.506 Z" fill="#000000" fill-rule="nonzero" fill-opacity="1" /><path clip-path="url(#clip070)" d="M83.6771 261.811 L88.5614 261.811 L88.5614 267.691 L83.6771 267.691 L83.6771 261.811 Z" fill="#000000" fill-rule="nonzero" fill-opacity="1" /><path clip-path="url(#clip070)" d="M108.746 251.279 Q105.413 251.279 103.492 253.061 Q101.594 254.843 101.594 257.968 Q101.594 261.093 103.492 262.876 Q105.413 264.658 108.746 264.658 Q112.08 264.658 114.001 262.876 Q115.922 261.07 115.922 257.968 Q115.922 254.843 114.001 253.061 Q112.103 251.279 108.746 251.279 M104.071 249.288 Q101.061 248.547 99.3715 246.487 Q97.7048 244.427 97.7048 241.464 Q97.7048 237.32 100.645 234.913 Q103.608 232.506 108.746 232.506 Q113.908 232.506 116.848 234.913 Q119.788 237.32 119.788 241.464 Q119.788 244.427 118.098 246.487 Q116.432 248.547 113.445 249.288 Q116.825 250.075 118.7 252.367 Q120.598 254.658 120.598 257.968 Q120.598 262.992 117.52 265.677 Q114.464 268.362 108.746 268.362 Q103.029 268.362 99.9502 265.677 Q96.8947 262.992 96.8947 257.968 Q96.8947 254.658 98.7928 252.367 Q100.691 250.075 104.071 249.288 M102.358 241.904 Q102.358 244.589 104.024 246.094 Q105.714 247.598 108.746 247.598 Q111.756 247.598 113.445 246.094 Q115.158 244.589 115.158 241.904 Q115.158 239.219 113.445 237.714 Q111.756 236.209 108.746 236.209 Q105.714 236.209 104.024 237.714 Q102.358 239.219 102.358 241.904 Z" fill="#000000" fill-rule="nonzero" fill-opacity="1" /><polyline clip-path="url(#clip072)" style="stroke:#009af9; stroke-linecap:round; stroke-linejoin:round; stroke-width:4; stroke-opacity:1; fill:none" points="218.754,1305.25 229.165,1304.89 239.576,1304.37 249.988,1303.67 260.399,1302.76 270.81,1301.62 281.221,1300.21 291.633,1298.52 302.044,1296.51 312.455,1294.15 322.867,1291.43 333.278,1288.31 343.689,1284.77 354.1,1280.76 364.512,1276.22 374.923,1271.11 385.334,1265.36 395.746,1258.93 406.157,1251.76 416.568,1243.8 426.979,1234.99 437.391,1225.28 447.802,1214.61 458.213,1202.93 468.625,1190.19 479.036,1176.34 489.447,1161.31 499.858,1145.05 510.27,1127.52 520.681,1108.68 531.092,1088.49 541.504,1067 551.915,1044.27 562.326,1020.37 572.738,995.329 583.149,969.216 593.56,942.079 603.971,913.972 614.383,884.946 624.794,855.057 635.205,824.356 645.617,792.895 656.028,760.739 666.439,727.929 676.85,694.503 687.262,660.544 697.673,626.181 708.084,591.568 718.496,556.866 728.907,522.241 739.318,487.856 749.729,453.876 760.141,420.466 770.552,387.79 780.963,356.013 791.375,325.3 801.786,295.814 812.197,267.722 822.609,241.186 833.02,216.373 843.431,193.445 853.842,172.565 864.254,153.881 874.665,137.508 885.076,123.49 895.488,111.802 905.899,102.418 916.31,95.3486 926.721,90.5907 937.133,88.1327 947.544,87.9763 957.955,90.1128 968.367,94.5405 978.778,101.251 989.189,110.249 999.6,121.514 1010.01,135.049 1020.42,150.881 1030.83,168.989 1041.25,189.279 1051.66,211.612 1062.07,235.835 1072.48,261.788 1082.89,289.31 1093.3,318.24 1103.71,348.418 1114.12,379.682 1124.54,411.873 1134.95,444.829 1145.36,478.389 1155.77,512.394 1166.18,546.681 1176.59,581.091 1187,615.463 1197.41,649.638 1207.83,683.466 1218.24,716.816 1228.65,749.603 1239.06,781.784 1249.47,813.321 1259.88,844.151 1270.29,874.217 1280.71,903.47 1291.12,931.849 1301.53,959.303 1311.94,985.772 1322.35,1011.21 1332.76,1035.54 1343.17,1058.73 1353.58,1080.73 1364,1101.44 1374.41,1120.82 1384.82,1138.87 1395.23,1155.63 1405.64,1171.13 1416.05,1185.43 1426.46,1198.59 1436.87,1210.67 1447.29,1221.71 1457.7,1231.77 1468.11,1240.91 1478.52,1249.17 1488.93,1256.62 1499.34,1263.31 1509.75,1269.29 1520.16,1274.62 1530.58,1279.35 1540.99,1283.54 1551.4,1287.24 1561.81,1290.49 1572.22,1293.34 1582.63,1295.81 1593.04,1297.93 1603.46,1299.72 1613.87,1301.22 1624.28,1302.44 1634.69,1303.42 1645.1,1304.18 1655.51,1304.75 1665.92,1305.16 1676.33,1305.43 1686.75,1305.6 1697.16,1305.68 1707.57,1305.71 1717.98,1305.72 1728.39,1305.73 1738.8,1305.73 1749.21,1305.73 1759.62,1305.73 1770.04,1305.73 1780.45,1305.73 1790.86,1305.73 1801.27,1305.73 1811.68,1305.73 1822.09,1305.73 1832.5,1305.73 1842.91,1305.73 1853.33,1305.73 1863.74,1305.73 1874.15,1305.73 1884.56,1305.73 1894.97,1305.73 1905.38,1305.73 1915.79,1305.73 1926.21,1305.73 1936.62,1305.73 1947.03,1305.73 1957.44,1305.73 1967.85,1305.73 1978.26,1305.73 1988.67,1305.73 1999.08,1305.73 2009.5,1305.73 2019.91,1305.73 2030.32,1305.73 2040.73,1305.73 2051.14,1305.73 2061.55,1305.73 2071.96,1305.73 2082.37,1305.73 2092.79,1305.73 2103.2,1305.73 2113.61,1305.73 2124.02,1305.73 2134.43,1305.73 2144.84,1305.73 2155.25,1305.73 2165.67,1305.73 2176.08,1305.73 2186.49,1305.73 2196.9,1305.73 2207.31,1305.73 2217.72,1305.73 2228.13,1305.73 2238.54,1305.73 2248.96,1305.72 2259.37,1305.72 2269.78,1305.69 2280.19,1305.63 2290.6,1305.49 "/>
<polyline clip-path="url(#clip072)" style="stroke:#e26f46; stroke-linecap:round; stroke-linejoin:round; stroke-width:4; stroke-opacity:1; fill:none" points="218.754,1039.1 229.165,1030.01 239.576,1020.89 249.988,1011.76 260.399,1002.64 270.81,993.535 281.221,984.459 291.633,975.425 302.044,966.444 312.455,957.528 322.867,948.685 333.278,939.927 343.689,931.261 354.1,922.695 364.512,914.237 374.923,905.892 385.334,897.667 395.746,889.567 406.157,881.595 416.568,873.756 426.979,866.052 437.391,858.486 447.802,851.059 458.213,843.773 468.625,836.628 479.036,829.624 489.447,822.761 499.858,816.038 510.27,809.457 520.681,803.016 531.092,796.715 541.504,790.556 551.915,784.537 562.326,778.66 572.738,772.924 583.149,767.328 593.56,761.874 603.971,756.562 614.383,751.391 624.794,746.363 635.205,741.478 645.617,736.736 656.028,732.14 666.439,727.689 676.85,723.386 687.262,719.231 697.673,715.227 708.084,711.374 718.496,707.675 728.907,704.131 739.318,700.745 749.729,697.519 760.141,694.454 770.552,691.554 780.963,688.82 791.375,686.254 801.786,683.859 812.197,681.636 822.609,679.587 833.02,677.714 843.431,676.017 853.842,674.498 864.254,673.157 874.665,671.994 885.076,671.008 895.488,670.199 905.899,669.567 916.31,669.108 926.721,668.823 937.133,668.71 947.544,668.766 957.955,668.99 968.367,669.38 978.778,669.933 989.189,670.646 999.6,671.519 1010.01,672.549 1020.42,673.734 1030.83,675.072 1041.25,676.562 1051.66,678.203 1062.07,679.994 1072.48,681.933 1082.89,684.019 1093.3,686.253 1103.71,688.634 1114.12,691.161 1124.54,693.835 1134.95,696.657 1145.36,699.626 1155.77,702.743 1166.18,706.009 1176.59,709.426 1187,712.993 1197.41,716.711 1207.83,720.581 1218.24,724.604 1228.65,728.78 1239.06,733.11 1249.47,737.594 1259.88,742.233 1270.29,747.025 1280.71,751.972 1291.12,757.074 1301.53,762.329 1311.94,767.739 1322.35,773.302 1332.76,779.018 1343.17,784.888 1353.58,790.91 1364,797.085 1374.41,803.411 1384.82,809.888 1395.23,816.517 1405.64,823.296 1416.05,830.227 1426.46,837.308 1436.87,844.54 1447.29,851.921 1457.7,859.449 1468.11,867.124 1478.52,874.941 1488.93,882.897 1499.34,890.988 1509.75,899.209 1520.16,907.555 1530.58,916.019 1540.99,924.595 1551.4,933.274 1561.81,942.048 1572.22,950.909 1582.63,959.846 1593.04,968.849 1603.46,977.906 1613.87,987.007 1624.28,996.138 1634.69,1005.29 1645.1,1014.44 1655.51,1023.58 1665.92,1032.7 1676.33,1041.78 1686.75,1050.81 1697.16,1059.76 1707.57,1068.63 1717.98,1077.39 1728.39,1086.04 1738.8,1094.54 1749.21,1102.89 1759.62,1111.06 1770.04,1119.03 1780.45,1126.79 1790.86,1134.32 1801.27,1141.59 1811.68,1148.59 1822.09,1155.3 1832.5,1161.7 1842.91,1167.78 1853.33,1173.51 1863.74,1178.89 1874.15,1183.9 1884.56,1188.51 1894.97,1192.73 1905.38,1196.53 1915.79,1199.91 1926.21,1202.86 1936.62,1205.36 1947.03,1207.42 1957.44,1209.02 1967.85,1210.16 1978.26,1210.84 1988.67,1211.05 1999.08,1210.8 2009.5,1210.07 2019.91,1208.88 2030.32,1207.23 2040.73,1205.12 2051.14,1202.55 2061.55,1199.53 2071.96,1196.07 2082.37,1192.18 2092.79,1187.87 2103.2,1183.15 2113.61,1178.04 2124.02,1172.55 2134.43,1166.69 2144.84,1160.48 2155.25,1153.95 2165.67,1147.11 2176.08,1139.97 2186.49,1132.57 2196.9,1124.91 2207.31,1117.02 2217.72,1108.93 2228.13,1100.65 2238.54,1092.2 2248.96,1083.61 2259.37,1074.89 2269.78,1066.06 2280.19,1057.14 2290.6,1048.15 "/>
<polyline clip-path="url(#clip072)" style="stroke:#3da44d; stroke-linecap:round; stroke-linejoin:round; stroke-width:4; stroke-opacity:1; fill:none" points="218.754,1388.76 229.165,1417.24 239.576,1373.6 249.988,1367.17 260.399,1358.61 270.81,1387.81 281.221,1366.88 291.633,1355.6 302.044,1331.24 312.455,1323.91 322.867,1307.79 333.278,1298.41 343.689,1291.64 354.1,1265.57 364.512,1219.53 374.923,1225.93 385.334,1188.3 395.746,1191.08 406.157,1203.15 416.568,1152.23 426.979,1118.11 437.391,1118 447.802,1076.03 458.213,1083.44 468.625,1025.47 479.036,1035.52 489.447,990.577 499.858,964.858 510.27,977.349 520.681,957.014 531.092,906.586 541.504,896.718 551.915,873.389 562.326,826.589 572.738,822.085 583.149,756.638 593.56,770.973 603.971,726.566 614.383,691.879 624.794,675.54 635.205,652.801 645.617,620.889 656.028,605.403 666.439,575.675 676.85,572.272 687.262,530.065 697.673,515.054 708.084,507.376 718.496,472.335 728.907,442.223 739.318,429.571 749.729,397.342 760.141,394.29 770.552,378.579 780.963,343.17 791.375,330.329 801.786,315.042 812.197,341.209 822.609,285.876 833.02,271.789 843.431,272.801 853.842,254.128 864.254,231.614 874.665,267.982 885.076,217.389 895.488,224.931 905.899,228.887 916.31,219.183 926.721,239.799 937.133,228.046 947.544,218.89 957.955,215.399 968.367,211.461 978.778,242.816 989.189,233.908 999.6,228.247 1010.01,251.479 1020.42,261.805 1030.83,240.259 1041.25,255.641 1051.66,278.143 1062.07,258.659 1072.48,318.127 1082.89,306.578 1093.3,327.968 1103.71,349.386 1114.12,391.791 1124.54,371.604 1134.95,399.141 1145.36,413.075 1155.77,422.987 1166.18,421.569 1176.59,470.996 1187,477.889 1197.41,498.966 1207.83,568.224 1218.24,582.606 1228.65,610.674 1239.06,658.238 1249.47,636.263 1259.88,642.96 1270.29,675.613 1280.71,735.819 1291.12,752.959 1301.53,784.986 1311.94,804.393 1322.35,816.236 1332.76,860.288 1343.17,868.853 1353.58,901.344 1364,925.562 1374.41,952.718 1384.82,985.231 1395.23,988.239 1405.64,1037.31 1416.05,1055.03 1426.46,1072.51 1436.87,1075.91 1447.29,1124.72 1457.7,1124.47 1468.11,1139.34 1478.52,1197.07 1488.93,1186.77 1499.34,1208.41 1509.75,1230.6 1520.16,1254.01 1530.58,1264.86 1540.99,1274.5 1551.4,1322.69 1561.81,1295.43 1572.22,1328.53 1582.63,1331.82 1593.04,1344 1603.46,1342.42 1613.87,1343.55 1624.28,1357.97 1634.69,1383.72 1645.1,1370.98 1655.51,1366.57 1665.92,1375.36 1676.33,1410.97 1686.75,1389.48 1697.16,1431.15 1707.57,1406.42 1717.98,1428.11 1728.39,1400.36 1738.8,1436.32 1749.21,1418.63 1759.62,1413.25 1770.04,1428.6 1780.45,1424.23 1790.86,1418.48 1801.27,1403.15 1811.68,1411.26 1822.09,1445.72 1832.5,1406.18 1842.91,1415.3 1853.33,1414.39 1863.74,1399.07 1874.15,1412.34 1884.56,1434.55 1894.97,1392.51 1905.38,1400.5 1915.79,1388.08 1926.21,1394.89 1936.62,1405.92 1947.03,1416.87 1957.44,1402.32 1967.85,1407.98 1978.26,1393.95 1988.67,1415.96 1999.08,1387.72 2009.5,1394.7 2019.91,1396.83 2030.32,1401.89 2040.73,1380.64 2051.14,1386.09 2061.55,1404.36 2071.96,1403.02 2082.37,1402.14 2092.79,1405.17 2103.2,1422.08 2113.61,1415.05 2124.02,1404.44 2134.43,1398.4 2144.84,1413.78 2155.25,1413.32 2165.67,1406.67 2176.08,1438.12 2186.49,1444.55 2196.9,1413.76 2207.31,1411.89 2217.72,1412.28 2228.13,1438.88 2238.54,1425.47 2248.96,1411.46 2259.37,1406.96 2269.78,1412 2280.19,1413.7 2290.6,1394.19 "/>
<path clip-path="url(#clip070)" d="M1671.16 302.578 L2279.55 302.578 L2279.55 95.2176 L1671.16 95.2176  Z" fill="#ffffff" fill-rule="evenodd" fill-opacity="1"/>
<polyline clip-path="url(#clip070)" style="stroke:#000000; stroke-linecap:round; stroke-linejoin:round; stroke-width:4; stroke-opacity:1; fill:none" points="1671.16,302.578 2279.55,302.578 2279.55,95.2176 1671.16,95.2176 1671.16,302.578 "/>
<polyline clip-path="url(#clip070)" style="stroke:#009af9; stroke-linecap:round; stroke-linejoin:round; stroke-width:4; stroke-opacity:1; fill:none" points="1695.57,147.058 1841.98,147.058 "/>
<path clip-path="url(#clip070)" d="M1866.38 129.778 L1871.05 129.778 L1871.05 164.338 L1866.38 164.338 L1866.38 129.778 Z" fill="#000000" fill-rule="nonzero" fill-opacity="1" /><path clip-path="url(#clip070)" d="M1900.36 143.389 Q1901.96 140.518 1904.18 139.153 Q1906.4 137.787 1909.41 137.787 Q1913.46 137.787 1915.66 140.634 Q1917.86 143.458 1917.86 148.689 L1917.86 164.338 L1913.58 164.338 L1913.58 148.828 Q1913.58 145.102 1912.26 143.296 Q1910.94 141.49 1908.23 141.49 Q1904.92 141.49 1903 143.69 Q1901.08 145.889 1901.08 149.685 L1901.08 164.338 L1896.79 164.338 L1896.79 148.828 Q1896.79 145.078 1895.47 143.296 Q1894.16 141.49 1891.4 141.49 Q1888.14 141.49 1886.22 143.713 Q1884.29 145.912 1884.29 149.685 L1884.29 164.338 L1880.01 164.338 L1880.01 138.412 L1884.29 138.412 L1884.29 142.44 Q1885.75 140.055 1887.79 138.921 Q1889.83 137.787 1892.63 137.787 Q1895.45 137.787 1897.42 139.222 Q1899.41 140.657 1900.36 143.389 Z" fill="#000000" fill-rule="nonzero" fill-opacity="1" /><path clip-path="url(#clip070)" d="M1930.47 160.449 L1930.47 174.199 L1926.19 174.199 L1926.19 138.412 L1930.47 138.412 L1930.47 142.347 Q1931.82 140.032 1933.85 138.921 Q1935.91 137.787 1938.76 137.787 Q1943.48 137.787 1946.42 141.537 Q1949.39 145.287 1949.39 151.398 Q1949.39 157.509 1946.42 161.259 Q1943.48 165.009 1938.76 165.009 Q1935.91 165.009 1933.85 163.898 Q1931.82 162.763 1930.47 160.449 M1944.97 151.398 Q1944.97 146.699 1943.02 144.037 Q1941.1 141.352 1937.72 141.352 Q1934.34 141.352 1932.4 144.037 Q1930.47 146.699 1930.47 151.398 Q1930.47 156.097 1932.4 158.782 Q1934.34 161.444 1937.72 161.444 Q1941.1 161.444 1943.02 158.782 Q1944.97 156.097 1944.97 151.398 Z" fill="#000000" fill-rule="nonzero" fill-opacity="1" /><path clip-path="url(#clip070)" d="M1956.45 128.319 L1960.71 128.319 L1960.71 164.338 L1956.45 164.338 L1956.45 128.319 Z" fill="#000000" fill-rule="nonzero" fill-opacity="1" /><path clip-path="url(#clip070)" d="M1969.62 138.412 L1973.88 138.412 L1973.88 164.338 L1969.62 164.338 L1969.62 138.412 M1969.62 128.319 L1973.88 128.319 L1973.88 133.713 L1969.62 133.713 L1969.62 128.319 Z" fill="#000000" fill-rule="nonzero" fill-opacity="1" /><path clip-path="url(#clip070)" d="M2001.45 139.407 L2001.45 143.389 Q1999.64 142.393 1997.81 141.907 Q1996.01 141.398 1994.15 141.398 Q1990.01 141.398 1987.72 144.037 Q1985.43 146.652 1985.43 151.398 Q1985.43 156.143 1987.72 158.782 Q1990.01 161.398 1994.15 161.398 Q1996.01 161.398 1997.81 160.912 Q1999.64 160.402 2001.45 159.407 L2001.45 163.342 Q1999.66 164.176 1997.74 164.592 Q1995.84 165.009 1993.69 165.009 Q1987.84 165.009 1984.39 161.328 Q1980.94 157.648 1980.94 151.398 Q1980.94 145.055 1984.41 141.421 Q1987.9 137.787 1993.97 137.787 Q1995.94 137.787 1997.81 138.203 Q1999.69 138.597 2001.45 139.407 Z" fill="#000000" fill-rule="nonzero" fill-opacity="1" /><path clip-path="url(#clip070)" d="M2008.85 138.412 L2013.11 138.412 L2013.11 164.338 L2008.85 164.338 L2008.85 138.412 M2008.85 128.319 L2013.11 128.319 L2013.11 133.713 L2008.85 133.713 L2008.85 128.319 Z" fill="#000000" fill-rule="nonzero" fill-opacity="1" /><path clip-path="url(#clip070)" d="M2026.24 131.051 L2026.24 138.412 L2035.01 138.412 L2035.01 141.722 L2026.24 141.722 L2026.24 155.796 Q2026.24 158.967 2027.09 159.87 Q2027.97 160.773 2030.64 160.773 L2035.01 160.773 L2035.01 164.338 L2030.64 164.338 Q2025.71 164.338 2023.83 162.509 Q2021.96 160.657 2021.96 155.796 L2021.96 141.722 L2018.83 141.722 L2018.83 138.412 L2021.96 138.412 L2021.96 131.051 L2026.24 131.051 Z" fill="#000000" fill-rule="nonzero" fill-opacity="1" /><path clip-path="url(#clip070)" d="M2055.87 129.778 L2062.84 129.778 L2071.65 153.296 L2080.52 129.778 L2087.49 129.778 L2087.49 164.338 L2082.93 164.338 L2082.93 133.99 L2074.02 157.694 L2069.32 157.694 L2060.4 133.99 L2060.4 164.338 L2055.87 164.338 L2055.87 129.778 Z" fill="#000000" fill-rule="nonzero" fill-opacity="1" /><path clip-path="url(#clip070)" d="M2096.58 138.412 L2100.84 138.412 L2100.84 164.338 L2096.58 164.338 L2096.58 138.412 M2096.58 128.319 L2100.84 128.319 L2100.84 133.713 L2096.58 133.713 L2096.58 128.319 Z" fill="#000000" fill-rule="nonzero" fill-opacity="1" /><path clip-path="url(#clip070)" d="M2126.82 142.347 L2126.82 128.319 L2131.08 128.319 L2131.08 164.338 L2126.82 164.338 L2126.82 160.449 Q2125.47 162.763 2123.41 163.898 Q2121.38 165.009 2118.51 165.009 Q2113.81 165.009 2110.84 161.259 Q2107.9 157.509 2107.9 151.398 Q2107.9 145.287 2110.84 141.537 Q2113.81 137.787 2118.51 137.787 Q2121.38 137.787 2123.41 138.921 Q2125.47 140.032 2126.82 142.347 M2112.3 151.398 Q2112.3 156.097 2114.22 158.782 Q2116.17 161.444 2119.55 161.444 Q2122.93 161.444 2124.87 158.782 Q2126.82 156.097 2126.82 151.398 Q2126.82 146.699 2124.87 144.037 Q2122.93 141.352 2119.55 141.352 Q2116.17 141.352 2114.22 144.037 Q2112.3 146.699 2112.3 151.398 Z" fill="#000000" fill-rule="nonzero" fill-opacity="1" /><path clip-path="url(#clip070)" d="M2143.97 160.449 L2143.97 174.199 L2139.69 174.199 L2139.69 138.412 L2143.97 138.412 L2143.97 142.347 Q2145.31 140.032 2147.35 138.921 Q2149.41 137.787 2152.26 137.787 Q2156.98 137.787 2159.92 141.537 Q2162.88 145.287 2162.88 151.398 Q2162.88 157.509 2159.92 161.259 Q2156.98 165.009 2152.26 165.009 Q2149.41 165.009 2147.35 163.898 Q2145.31 162.763 2143.97 160.449 M2158.46 151.398 Q2158.46 146.699 2156.52 144.037 Q2154.59 141.352 2151.21 141.352 Q2147.83 141.352 2145.89 144.037 Q2143.97 146.699 2143.97 151.398 Q2143.97 156.097 2145.89 158.782 Q2147.83 161.444 2151.21 161.444 Q2154.59 161.444 2156.52 158.782 Q2158.46 156.097 2158.46 151.398 Z" fill="#000000" fill-rule="nonzero" fill-opacity="1" /><path clip-path="url(#clip070)" d="M2179.99 141.398 Q2176.56 141.398 2174.57 144.083 Q2172.58 146.745 2172.58 151.398 Q2172.58 156.051 2174.55 158.736 Q2176.54 161.398 2179.99 161.398 Q2183.39 161.398 2185.38 158.713 Q2187.37 156.027 2187.37 151.398 Q2187.37 146.791 2185.38 144.106 Q2183.39 141.398 2179.99 141.398 M2179.99 137.787 Q2185.54 137.787 2188.71 141.398 Q2191.89 145.009 2191.89 151.398 Q2191.89 157.764 2188.71 161.398 Q2185.54 165.009 2179.99 165.009 Q2174.41 165.009 2171.24 161.398 Q2168.09 157.764 2168.09 151.398 Q2168.09 145.009 2171.24 141.398 Q2174.41 137.787 2179.99 137.787 Z" fill="#000000" fill-rule="nonzero" fill-opacity="1" /><path clip-path="url(#clip070)" d="M2198.95 138.412 L2203.2 138.412 L2203.2 164.338 L2198.95 164.338 L2198.95 138.412 M2198.95 128.319 L2203.2 128.319 L2203.2 133.713 L2198.95 133.713 L2198.95 128.319 Z" fill="#000000" fill-rule="nonzero" fill-opacity="1" /><path clip-path="url(#clip070)" d="M2233.67 148.689 L2233.67 164.338 L2229.41 164.338 L2229.41 148.828 Q2229.41 145.148 2227.97 143.319 Q2226.54 141.49 2223.67 141.49 Q2220.22 141.49 2218.23 143.69 Q2216.24 145.889 2216.24 149.685 L2216.24 164.338 L2211.95 164.338 L2211.95 138.412 L2216.24 138.412 L2216.24 142.44 Q2217.76 140.102 2219.83 138.944 Q2221.91 137.787 2224.62 137.787 Q2229.08 137.787 2231.38 140.565 Q2233.67 143.319 2233.67 148.689 Z" fill="#000000" fill-rule="nonzero" fill-opacity="1" /><path clip-path="url(#clip070)" d="M2246.38 131.051 L2246.38 138.412 L2255.15 138.412 L2255.15 141.722 L2246.38 141.722 L2246.38 155.796 Q2246.38 158.967 2247.23 159.87 Q2248.11 160.773 2250.77 160.773 L2255.15 160.773 L2255.15 164.338 L2250.77 164.338 Q2245.84 164.338 2243.97 162.509 Q2242.09 160.657 2242.09 155.796 L2242.09 141.722 L2238.97 141.722 L2238.97 138.412 L2242.09 138.412 L2242.09 131.051 L2246.38 131.051 Z" fill="#000000" fill-rule="nonzero" fill-opacity="1" /><polyline clip-path="url(#clip070)" style="stroke:#e26f46; stroke-linecap:round; stroke-linejoin:round; stroke-width:4; stroke-opacity:1; fill:none" points="1695.57,198.898 1841.98,198.898 "/>
<path clip-path="url(#clip070)" d="M1871.05 185.46 L1871.05 198.446 L1876.93 198.446 Q1880.2 198.446 1881.98 196.756 Q1883.76 195.067 1883.76 191.942 Q1883.76 188.84 1881.98 187.15 Q1880.2 185.46 1876.93 185.46 L1871.05 185.46 M1866.38 181.618 L1876.93 181.618 Q1882.74 181.618 1885.71 184.256 Q1888.69 186.872 1888.69 191.942 Q1888.69 197.057 1885.71 199.673 Q1882.74 202.289 1876.93 202.289 L1871.05 202.289 L1871.05 216.178 L1866.38 216.178 L1866.38 181.618 Z" fill="#000000" fill-rule="nonzero" fill-opacity="1" /><path clip-path="url(#clip070)" d="M1915.68 182.752 L1915.68 187.312 Q1913.02 186.039 1910.66 185.414 Q1908.3 184.789 1906.1 184.789 Q1902.28 184.789 1900.2 186.27 Q1898.14 187.752 1898.14 190.483 Q1898.14 192.775 1899.5 193.955 Q1900.89 195.113 1904.73 195.83 L1907.56 196.409 Q1912.79 197.405 1915.27 199.928 Q1917.77 202.428 1917.77 206.641 Q1917.77 211.664 1914.39 214.256 Q1911.03 216.849 1904.53 216.849 Q1902.07 216.849 1899.29 216.293 Q1896.54 215.738 1893.58 214.65 L1893.58 209.835 Q1896.42 211.432 1899.16 212.242 Q1901.89 213.053 1904.53 213.053 Q1908.53 213.053 1910.71 211.479 Q1912.88 209.904 1912.88 206.988 Q1912.88 204.442 1911.31 203.006 Q1909.76 201.571 1906.19 200.854 L1903.35 200.298 Q1898.11 199.256 1895.78 197.034 Q1893.44 194.812 1893.44 190.854 Q1893.44 186.27 1896.66 183.631 Q1899.9 180.993 1905.57 180.993 Q1908 180.993 1910.52 181.432 Q1913.04 181.872 1915.68 182.752 Z" fill="#000000" fill-rule="nonzero" fill-opacity="1" /><path clip-path="url(#clip070)" d="M1929.73 185.46 L1929.73 212.335 L1935.38 212.335 Q1942.53 212.335 1945.84 209.094 Q1949.18 205.854 1949.18 198.863 Q1949.18 191.918 1945.84 188.701 Q1942.53 185.46 1935.38 185.46 L1929.73 185.46 M1925.06 181.618 L1934.66 181.618 Q1944.71 181.618 1949.41 185.807 Q1954.11 189.974 1954.11 198.863 Q1954.11 207.798 1949.39 211.988 Q1944.66 216.178 1934.66 216.178 L1925.06 216.178 L1925.06 181.618 Z" fill="#000000" fill-rule="nonzero" fill-opacity="1" /><polyline clip-path="url(#clip070)" style="stroke:#3da44d; stroke-linecap:round; stroke-linejoin:round; stroke-width:4; stroke-opacity:1; fill:none" points="1695.57,250.738 1841.98,250.738 "/>
<path clip-path="url(#clip070)" d="M1888.62 234.592 L1888.62 239.152 Q1885.96 237.879 1883.6 237.254 Q1881.24 236.629 1879.04 236.629 Q1875.22 236.629 1873.14 238.11 Q1871.08 239.592 1871.08 242.323 Q1871.08 244.615 1872.44 245.795 Q1873.83 246.953 1877.67 247.67 L1880.5 248.249 Q1885.73 249.245 1888.21 251.768 Q1890.71 254.268 1890.71 258.481 Q1890.71 263.504 1887.33 266.096 Q1883.97 268.689 1877.47 268.689 Q1875.01 268.689 1872.23 268.133 Q1869.48 267.578 1866.52 266.49 L1866.52 261.675 Q1869.36 263.272 1872.1 264.082 Q1874.83 264.893 1877.47 264.893 Q1881.47 264.893 1883.65 263.319 Q1885.82 261.744 1885.82 258.828 Q1885.82 256.282 1884.25 254.846 Q1882.7 253.411 1879.13 252.694 L1876.29 252.138 Q1871.05 251.096 1868.72 248.874 Q1866.38 246.652 1866.38 242.694 Q1866.38 238.11 1869.6 235.471 Q1872.84 232.833 1878.51 232.833 Q1880.94 232.833 1883.46 233.272 Q1885.98 233.712 1888.62 234.592 Z" fill="#000000" fill-rule="nonzero" fill-opacity="1" /><path clip-path="url(#clip070)" d="M1910.43 238.064 L1904.09 255.263 L1916.79 255.263 L1910.43 238.064 M1907.79 233.458 L1913.09 233.458 L1926.26 268.018 L1921.4 268.018 L1918.25 259.152 L1902.67 259.152 L1899.53 268.018 L1894.6 268.018 L1907.79 233.458 Z" fill="#000000" fill-rule="nonzero" fill-opacity="1" /><path clip-path="url(#clip070)" d="M1931.31 233.458 L1953.16 233.458 L1953.16 237.393 L1935.98 237.393 L1935.98 247.624 L1952.44 247.624 L1952.44 251.559 L1935.98 251.559 L1935.98 264.082 L1953.58 264.082 L1953.58 268.018 L1931.31 268.018 L1931.31 233.458 Z" fill="#000000" fill-rule="nonzero" fill-opacity="1" /></svg>
