<?xml version="1.0" encoding="utf-8"?>
<svg xmlns="http://www.w3.org/2000/svg" xmlns:xlink="http://www.w3.org/1999/xlink" width="600" height="400" viewBox="0 0 2400 1600">
<defs>
  <clipPath id="clip250">
    <rect x="0" y="0" width="2400" height="1600"/>
  </clipPath>
</defs>
<path clip-path="url(#clip250)" d="M0 1600 L2400 1600 L2400 0 L0 0  Z" fill="#ffffff" fill-rule="evenodd" fill-opacity="1"/>
<defs>
  <clipPath id="clip251">
    <rect x="480" y="0" width="1681" height="1600"/>
  </clipPath>
</defs>
<path clip-path="url(#clip250)" d="M147.108 1486.45 L2352.76 1486.45 L2352.76 47.2441 L147.108 47.2441  Z" fill="#ffffff" fill-rule="evenodd" fill-opacity="1"/>
<defs>
  <clipPath id="clip252">
    <rect x="147" y="47" width="2207" height="1440"/>
  </clipPath>
</defs>
<polyline clip-path="url(#clip252)" style="stroke:#000000; stroke-linecap:round; stroke-linejoin:round; stroke-width:2; stroke-opacity:0.1; fill:none" points="199.075,1486.45 199.075,47.2441 "/>
<polyline clip-path="url(#clip252)" style="stroke:#000000; stroke-linecap:round; stroke-linejoin:round; stroke-width:2; stroke-opacity:0.1; fill:none" points="721.889,1486.45 721.889,47.2441 "/>
<polyline clip-path="url(#clip252)" style="stroke:#000000; stroke-linecap:round; stroke-linejoin:round; stroke-width:2; stroke-opacity:0.1; fill:none" points="1244.7,1486.45 1244.7,47.2441 "/>
<polyline clip-path="url(#clip252)" style="stroke:#000000; stroke-linecap:round; stroke-linejoin:round; stroke-width:2; stroke-opacity:0.1; fill:none" points="1767.52,1486.45 1767.52,47.2441 "/>
<polyline clip-path="url(#clip252)" style="stroke:#000000; stroke-linecap:round; stroke-linejoin:round; stroke-width:2; stroke-opacity:0.1; fill:none" points="2290.33,1486.45 2290.33,47.2441 "/>
<polyline clip-path="url(#clip250)" style="stroke:#000000; stroke-linecap:round; stroke-linejoin:round; stroke-width:4; stroke-opacity:1; fill:none" points="147.108,1486.45 2352.76,1486.45 "/>
<polyline clip-path="url(#clip250)" style="stroke:#000000; stroke-linecap:round; stroke-linejoin:round; stroke-width:4; stroke-opacity:1; fill:none" points="199.075,1486.45 199.075,1467.55 "/>
<polyline clip-path="url(#clip250)" style="stroke:#000000; stroke-linecap:round; stroke-linejoin:round; stroke-width:4; stroke-opacity:1; fill:none" points="721.889,1486.45 721.889,1467.55 "/>
<polyline clip-path="url(#clip250)" style="stroke:#000000; stroke-linecap:round; stroke-linejoin:round; stroke-width:4; stroke-opacity:1; fill:none" points="1244.7,1486.45 1244.7,1467.55 "/>
<polyline clip-path="url(#clip250)" style="stroke:#000000; stroke-linecap:round; stroke-linejoin:round; stroke-width:4; stroke-opacity:1; fill:none" points="1767.52,1486.45 1767.52,1467.55 "/>
<polyline clip-path="url(#clip250)" style="stroke:#000000; stroke-linecap:round; stroke-linejoin:round; stroke-width:4; stroke-opacity:1; fill:none" points="2290.33,1486.45 2290.33,1467.55 "/>
<path clip-path="url(#clip250)" d="M199.075 1517.37 Q195.464 1517.37 193.635 1520.93 Q191.83 1524.47 191.83 1531.6 Q191.83 1538.71 193.635 1542.27 Q195.464 1545.82 199.075 1545.82 Q202.71 1545.82 204.515 1542.27 Q206.344 1538.71 206.344 1531.6 Q206.344 1524.47 204.515 1520.93 Q202.71 1517.37 199.075 1517.37 M199.075 1513.66 Q204.885 1513.66 207.941 1518.27 Q211.02 1522.85 211.02 1531.6 Q211.02 1540.33 207.941 1544.94 Q204.885 1549.52 199.075 1549.52 Q193.265 1549.52 190.186 1544.94 Q187.131 1540.33 187.131 1531.6 Q187.131 1522.85 190.186 1518.27 Q193.265 1513.66 199.075 1513.66 Z" fill="#000000" fill-rule="nonzero" fill-opacity="1" /><path clip-path="url(#clip250)" d="M696.589 1514.29 L714.945 1514.29 L714.945 1518.22 L700.871 1518.22 L700.871 1526.7 Q701.89 1526.35 702.908 1526.19 Q703.927 1526 704.945 1526 Q710.732 1526 714.112 1529.17 Q717.491 1532.34 717.491 1537.76 Q717.491 1543.34 714.019 1546.44 Q710.547 1549.52 704.227 1549.52 Q702.052 1549.52 699.783 1549.15 Q697.538 1548.78 695.13 1548.04 L695.13 1543.34 Q697.214 1544.47 699.436 1545.03 Q701.658 1545.58 704.135 1545.58 Q708.14 1545.58 710.477 1543.48 Q712.815 1541.37 712.815 1537.76 Q712.815 1534.15 710.477 1532.04 Q708.14 1529.94 704.135 1529.94 Q702.26 1529.94 700.385 1530.35 Q698.533 1530.77 696.589 1531.65 L696.589 1514.29 Z" fill="#000000" fill-rule="nonzero" fill-opacity="1" /><path clip-path="url(#clip250)" d="M736.704 1517.37 Q733.093 1517.37 731.264 1520.93 Q729.459 1524.47 729.459 1531.6 Q729.459 1538.71 731.264 1542.27 Q733.093 1545.82 736.704 1545.82 Q740.338 1545.82 742.144 1542.27 Q743.973 1538.71 743.973 1531.6 Q743.973 1524.47 742.144 1520.93 Q740.338 1517.37 736.704 1517.37 M736.704 1513.66 Q742.514 1513.66 745.57 1518.27 Q748.649 1522.85 748.649 1531.6 Q748.649 1540.33 745.57 1544.94 Q742.514 1549.52 736.704 1549.52 Q730.894 1549.52 727.815 1544.94 Q724.76 1540.33 724.76 1531.6 Q724.76 1522.85 727.815 1518.27 Q730.894 1513.66 736.704 1513.66 Z" fill="#000000" fill-rule="nonzero" fill-opacity="1" /><path clip-path="url(#clip250)" d="M1204.31 1544.91 L1211.95 1544.91 L1211.95 1518.55 L1203.64 1520.21 L1203.64 1515.95 L1211.9 1514.29 L1216.58 1514.29 L1216.58 1544.91 L1224.22 1544.91 L1224.22 1548.85 L1204.31 1548.85 L1204.31 1544.91 Z" fill="#000000" fill-rule="nonzero" fill-opacity="1" /><path clip-path="url(#clip250)" d="M1243.66 1517.37 Q1240.05 1517.37 1238.22 1520.93 Q1236.42 1524.47 1236.42 1531.6 Q1236.42 1538.71 1238.22 1542.27 Q1240.05 1545.82 1243.66 1545.82 Q1247.3 1545.82 1249.1 1542.27 Q1250.93 1538.71 1250.93 1531.6 Q1250.93 1524.47 1249.1 1520.93 Q1247.3 1517.37 1243.66 1517.37 M1243.66 1513.66 Q1249.47 1513.66 1252.53 1518.27 Q1255.61 1522.85 1255.61 1531.6 Q1255.61 1540.33 1252.53 1544.94 Q1249.47 1549.52 1243.66 1549.52 Q1237.85 1549.52 1234.77 1544.94 Q1231.72 1540.33 1231.72 1531.6 Q1231.72 1522.85 1234.77 1518.27 Q1237.85 1513.66 1243.66 1513.66 Z" fill="#000000" fill-rule="nonzero" fill-opacity="1" /><path clip-path="url(#clip250)" d="M1273.82 1517.37 Q1270.21 1517.37 1268.38 1520.93 Q1266.58 1524.47 1266.58 1531.6 Q1266.58 1538.71 1268.38 1542.27 Q1270.21 1545.82 1273.82 1545.82 Q1277.46 1545.82 1279.26 1542.27 Q1281.09 1538.71 1281.09 1531.6 Q1281.09 1524.47 1279.26 1520.93 Q1277.46 1517.37 1273.82 1517.37 M1273.82 1513.66 Q1279.63 1513.66 1282.69 1518.27 Q1285.77 1522.85 1285.77 1531.6 Q1285.77 1540.33 1282.69 1544.94 Q1279.63 1549.52 1273.82 1549.52 Q1268.01 1549.52 1264.93 1544.94 Q1261.88 1540.33 1261.88 1531.6 Q1261.88 1522.85 1264.93 1518.27 Q1268.01 1513.66 1273.82 1513.66 Z" fill="#000000" fill-rule="nonzero" fill-opacity="1" /><path clip-path="url(#clip250)" d="M1727.12 1544.91 L1734.76 1544.91 L1734.76 1518.55 L1726.45 1520.21 L1726.45 1515.95 L1734.72 1514.29 L1739.39 1514.29 L1739.39 1544.91 L1747.03 1544.91 L1747.03 1548.85 L1727.12 1548.85 L1727.12 1544.91 Z" fill="#000000" fill-rule="nonzero" fill-opacity="1" /><path clip-path="url(#clip250)" d="M1756.52 1514.29 L1774.88 1514.29 L1774.88 1518.22 L1760.8 1518.22 L1760.8 1526.7 Q1761.82 1526.35 1762.84 1526.19 Q1763.86 1526 1764.88 1526 Q1770.67 1526 1774.05 1529.17 Q1777.43 1532.34 1777.43 1537.76 Q1777.43 1543.34 1773.95 1546.44 Q1770.48 1549.52 1764.16 1549.52 Q1761.99 1549.52 1759.72 1549.15 Q1757.47 1548.78 1755.06 1548.04 L1755.06 1543.34 Q1757.15 1544.47 1759.37 1545.03 Q1761.59 1545.58 1764.07 1545.58 Q1768.07 1545.58 1770.41 1543.48 Q1772.75 1541.37 1772.75 1537.76 Q1772.75 1534.15 1770.41 1532.04 Q1768.07 1529.94 1764.07 1529.94 Q1762.19 1529.94 1760.32 1530.35 Q1758.47 1530.77 1756.52 1531.65 L1756.52 1514.29 Z" fill="#000000" fill-rule="nonzero" fill-opacity="1" /><path clip-path="url(#clip250)" d="M1796.64 1517.37 Q1793.03 1517.37 1791.2 1520.93 Q1789.39 1524.47 1789.39 1531.6 Q1789.39 1538.71 1791.2 1542.27 Q1793.03 1545.82 1796.64 1545.82 Q1800.27 1545.82 1802.08 1542.27 Q1803.91 1538.71 1803.91 1531.6 Q1803.91 1524.47 1802.08 1520.93 Q1800.27 1517.37 1796.64 1517.37 M1796.64 1513.66 Q1802.45 1513.66 1805.5 1518.27 Q1808.58 1522.85 1808.58 1531.6 Q1808.58 1540.33 1805.5 1544.94 Q1802.45 1549.52 1796.64 1549.52 Q1790.83 1549.52 1787.75 1544.94 Q1784.69 1540.33 1784.69 1531.6 Q1784.69 1522.85 1787.75 1518.27 Q1790.83 1513.66 1796.64 1513.66 Z" fill="#000000" fill-rule="nonzero" fill-opacity="1" /><path clip-path="url(#clip250)" d="M2254.02 1544.91 L2270.34 1544.91 L2270.34 1548.85 L2248.4 1548.85 L2248.4 1544.91 Q2251.06 1542.16 2255.64 1537.53 Q2260.25 1532.88 2261.43 1531.53 Q2263.68 1529.01 2264.56 1527.27 Q2265.46 1525.51 2265.46 1523.82 Q2265.46 1521.07 2263.51 1519.33 Q2261.59 1517.6 2258.49 1517.6 Q2256.29 1517.6 2253.84 1518.36 Q2251.41 1519.13 2248.63 1520.68 L2248.63 1515.95 Q2251.45 1514.82 2253.91 1514.24 Q2256.36 1513.66 2258.4 1513.66 Q2263.77 1513.66 2266.96 1516.35 Q2270.16 1519.03 2270.16 1523.52 Q2270.16 1525.65 2269.35 1527.57 Q2268.56 1529.47 2266.45 1532.07 Q2265.88 1532.74 2262.77 1535.95 Q2259.67 1539.15 2254.02 1544.91 Z" fill="#000000" fill-rule="nonzero" fill-opacity="1" /><path clip-path="url(#clip250)" d="M2290.16 1517.37 Q2286.55 1517.37 2284.72 1520.93 Q2282.91 1524.47 2282.91 1531.6 Q2282.91 1538.71 2284.72 1542.27 Q2286.55 1545.82 2290.16 1545.82 Q2293.79 1545.82 2295.6 1542.27 Q2297.43 1538.71 2297.43 1531.6 Q2297.43 1524.47 2295.6 1520.93 Q2293.79 1517.37 2290.16 1517.37 M2290.16 1513.66 Q2295.97 1513.66 2299.02 1518.27 Q2302.1 1522.85 2302.1 1531.6 Q2302.1 1540.33 2299.02 1544.94 Q2295.97 1549.52 2290.16 1549.52 Q2284.35 1549.52 2281.27 1544.94 Q2278.21 1540.33 2278.21 1531.6 Q2278.21 1522.85 2281.27 1518.27 Q2284.35 1513.66 2290.16 1513.66 Z" fill="#000000" fill-rule="nonzero" fill-opacity="1" /><path clip-path="url(#clip250)" d="M2320.32 1517.37 Q2316.71 1517.37 2314.88 1520.93 Q2313.07 1524.47 2313.07 1531.6 Q2313.07 1538.71 2314.88 1542.27 Q2316.71 1545.82 2320.32 1545.82 Q2323.95 1545.82 2325.76 1542.27 Q2327.59 1538.71 2327.59 1531.6 Q2327.59 1524.47 2325.76 1520.93 Q2323.95 1517.37 2320.32 1517.37 M2320.32 1513.66 Q2326.13 1513.66 2329.19 1518.27 Q2332.26 1522.85 2332.26 1531.6 Q2332.26 1540.33 2329.19 1544.94 Q2326.13 1549.52 2320.32 1549.52 Q2314.51 1549.52 2311.43 1544.94 Q2308.38 1540.33 2308.38 1531.6 Q2308.38 1522.85 2311.43 1518.27 Q2314.51 1513.66 2320.32 1513.66 Z" fill="#000000" fill-rule="nonzero" fill-opacity="1" /><polyline clip-path="url(#clip252)" style="stroke:#000000; stroke-linecap:round; stroke-linejoin:round; stroke-width:2; stroke-opacity:0.1; fill:none" points="147.108,1253.13 2352.76,1253.13 "/>
<polyline clip-path="url(#clip252)" style="stroke:#000000; stroke-linecap:round; stroke-linejoin:round; stroke-width:2; stroke-opacity:0.1; fill:none" points="147.108,907.885 2352.76,907.885 "/>
<polyline clip-path="url(#clip252)" style="stroke:#000000; stroke-linecap:round; stroke-linejoin:round; stroke-width:2; stroke-opacity:0.1; fill:none" points="147.108,562.644 2352.76,562.644 "/>
<polyline clip-path="url(#clip252)" style="stroke:#000000; stroke-linecap:round; stroke-linejoin:round; stroke-width:2; stroke-opacity:0.1; fill:none" points="147.108,217.403 2352.76,217.403 "/>
<polyline clip-path="url(#clip250)" style="stroke:#000000; stroke-linecap:round; stroke-linejoin:round; stroke-width:4; stroke-opacity:1; fill:none" points="147.108,1486.45 147.108,47.2441 "/>
<polyline clip-path="url(#clip250)" style="stroke:#000000; stroke-linecap:round; stroke-linejoin:round; stroke-width:4; stroke-opacity:1; fill:none" points="147.108,1253.13 166.005,1253.13 "/>
<polyline clip-path="url(#clip250)" style="stroke:#000000; stroke-linecap:round; stroke-linejoin:round; stroke-width:4; stroke-opacity:1; fill:none" points="147.108,907.885 166.005,907.885 "/>
<polyline clip-path="url(#clip250)" style="stroke:#000000; stroke-linecap:round; stroke-linejoin:round; stroke-width:4; stroke-opacity:1; fill:none" points="147.108,562.644 166.005,562.644 "/>
<polyline clip-path="url(#clip250)" style="stroke:#000000; stroke-linecap:round; stroke-linejoin:round; stroke-width:4; stroke-opacity:1; fill:none" points="147.108,217.403 166.005,217.403 "/>
<path clip-path="url(#clip250)" d="M50.9921 1253.58 L80.6679 1253.58 L80.6679 1257.51 L50.9921 1257.51 L50.9921 1253.58 Z" fill="#000000" fill-rule="nonzero" fill-opacity="1" /><path clip-path="url(#clip250)" d="M94.7882 1266.47 L111.108 1266.47 L111.108 1270.41 L89.1632 1270.41 L89.1632 1266.47 Q91.8252 1263.72 96.4085 1259.09 Q101.015 1254.43 102.196 1253.09 Q104.441 1250.57 105.321 1248.83 Q106.223 1247.07 106.223 1245.38 Q106.223 1242.63 104.279 1240.89 Q102.358 1239.16 99.2558 1239.16 Q97.0567 1239.16 94.603 1239.92 Q92.1725 1240.68 89.3947 1242.24 L89.3947 1237.51 Q92.2188 1236.38 94.6724 1235.8 Q97.1261 1235.22 99.1632 1235.22 Q104.534 1235.22 107.728 1237.91 Q110.922 1240.59 110.922 1245.08 Q110.922 1247.21 110.112 1249.13 Q109.325 1251.03 107.219 1253.62 Q106.64 1254.3 103.538 1257.51 Q100.436 1260.71 94.7882 1266.47 Z" fill="#000000" fill-rule="nonzero" fill-opacity="1" /><path clip-path="url(#clip250)" d="M99.1632 893.684 Q95.5521 893.684 93.7234 897.249 Q91.9178 900.79 91.9178 907.92 Q91.9178 915.026 93.7234 918.591 Q95.5521 922.133 99.1632 922.133 Q102.797 922.133 104.603 918.591 Q106.432 915.026 106.432 907.92 Q106.432 900.79 104.603 897.249 Q102.797 893.684 99.1632 893.684 M99.1632 889.98 Q104.973 889.98 108.029 894.587 Q111.108 899.17 111.108 907.92 Q111.108 916.647 108.029 921.253 Q104.973 925.837 99.1632 925.837 Q93.353 925.837 90.2743 921.253 Q87.2188 916.647 87.2188 907.92 Q87.2188 899.17 90.2743 894.587 Q93.353 889.98 99.1632 889.98 Z" fill="#000000" fill-rule="nonzero" fill-opacity="1" /><path clip-path="url(#clip250)" d="M94.7882 575.989 L111.108 575.989 L111.108 579.924 L89.1632 579.924 L89.1632 575.989 Q91.8252 573.234 96.4085 568.605 Q101.015 563.952 102.196 562.609 Q104.441 560.086 105.321 558.35 Q106.223 556.591 106.223 554.901 Q106.223 552.146 104.279 550.41 Q102.358 548.674 99.2558 548.674 Q97.0567 548.674 94.603 549.438 Q92.1725 550.202 89.3947 551.753 L89.3947 547.031 Q92.2188 545.896 94.6724 545.318 Q97.1261 544.739 99.1632 544.739 Q104.534 544.739 107.728 547.424 Q110.922 550.109 110.922 554.6 Q110.922 556.73 110.112 558.651 Q109.325 560.549 107.219 563.142 Q106.64 563.813 103.538 567.03 Q100.436 570.225 94.7882 575.989 Z" fill="#000000" fill-rule="nonzero" fill-opacity="1" /><path clip-path="url(#clip250)" d="M101.524 204.197 L89.7188 222.646 L101.524 222.646 L101.524 204.197 M100.297 200.123 L106.177 200.123 L106.177 222.646 L111.108 222.646 L111.108 226.535 L106.177 226.535 L106.177 234.683 L101.524 234.683 L101.524 226.535 L85.9225 226.535 L85.9225 222.021 L100.297 200.123 Z" fill="#000000" fill-rule="nonzero" fill-opacity="1" /><polyline clip-path="url(#clip252)" style="stroke:#009af9; stroke-linecap:round; stroke-linejoin:round; stroke-width:4; stroke-opacity:1; fill:none" points="209.532,907.823 219.988,907.776 230.444,907.708 240.9,907.616 251.357,907.497 261.813,907.347 272.269,907.164 282.726,906.942 293.182,906.679 303.638,906.371 314.094,906.014 324.551,905.607 335.007,905.143 345.463,904.618 355.92,904.024 366.376,903.355 376.832,902.603 387.288,901.762 397.745,900.824 408.201,899.782 418.657,898.629 429.114,897.358 439.57,895.962 450.026,894.434 460.482,892.767 470.939,890.954 481.395,888.987 491.851,886.86 502.307,884.566 512.764,882.1 523.22,879.458 533.676,876.646 544.133,873.672 554.589,870.544 565.045,867.267 575.501,863.85 585.958,860.299 596.414,856.621 606.87,852.823 617.327,848.912 627.783,844.894 638.239,840.777 648.695,836.569 659.152,832.276 669.608,827.902 680.064,823.458 690.521,818.961 700.977,814.432 711.433,809.891 721.889,805.36 732.346,800.86 742.802,796.414 753.258,792.042 763.715,787.766 774.171,783.608 784.627,779.589 795.083,775.73 805.54,772.054 815.996,768.582 826.452,765.335 836.909,762.334 847.365,759.602 857.821,757.157 868.277,755.014 878.734,753.18 889.19,751.651 899.646,750.423 910.103,749.498 920.559,748.875 931.015,748.553 941.471,748.533 951.928,748.812 962.384,749.392 972.84,750.27 983.297,751.447 993.753,752.921 1004.21,754.693 1014.67,756.764 1025.12,759.134 1035.58,761.789 1046.03,764.712 1056.49,767.881 1066.95,771.278 1077.4,774.879 1087.86,778.665 1098.32,782.614 1108.77,786.705 1119.23,790.917 1129.68,795.23 1140.14,799.622 1150.6,804.071 1161.05,808.558 1171.51,813.061 1181.97,817.559 1192.42,822.031 1202.88,826.457 1213.33,830.822 1223.79,835.112 1234.25,839.323 1244.7,843.45 1255.16,847.484 1265.62,851.419 1276.07,855.247 1286.53,858.96 1296.98,862.553 1307.44,866.017 1317.9,869.345 1328.35,872.53 1338.81,875.564 1349.27,878.442 1359.72,881.153 1370.18,883.689 1380.64,886.051 1391.09,888.243 1401.55,890.272 1412,892.144 1422.46,893.866 1432.92,895.446 1443.37,896.891 1453.83,898.208 1464.29,899.403 1474.74,900.485 1485.2,901.46 1495.65,902.335 1506.11,903.118 1516.57,903.815 1527.02,904.434 1537.48,904.982 1547.94,905.466 1558.39,905.892 1568.85,906.265 1579.3,906.588 1589.76,906.865 1600.22,907.1 1610.67,907.295 1621.13,907.455 1631.59,907.583 1642.04,907.682 1652.5,907.757 1662.95,907.811 1673.41,907.847 1683.87,907.868 1694.32,907.879 1704.78,907.883 1715.24,907.885 1725.69,907.885 1736.15,907.885 1746.61,907.885 1757.06,907.885 1767.52,907.885 1777.97,907.885 1788.43,907.885 1798.89,907.885 1809.34,907.885 1819.8,907.885 1830.26,907.885 1840.71,907.885 1851.17,907.885 1861.62,907.885 1872.08,907.885 1882.54,907.885 1892.99,907.885 1903.45,907.885 1913.91,907.885 1924.36,907.885 1934.82,907.885 1945.27,907.885 1955.73,907.885 1966.19,907.885 1976.64,907.885 1987.1,907.885 1997.56,907.885 2008.01,907.885 2018.47,907.885 2028.92,907.885 2039.38,907.885 2049.84,907.885 2060.29,907.885 2070.75,907.885 2081.21,907.885 2091.66,907.885 2102.12,907.885 2112.58,907.885 2123.03,907.885 2133.49,907.885 2143.94,907.885 2154.4,907.885 2164.86,907.885 2175.31,907.885 2185.77,907.885 2196.23,907.885 2206.68,907.885 2217.14,907.885 2227.59,907.885 2238.05,907.885 2248.51,907.885 2258.96,907.884 2269.42,907.881 2279.88,907.873 2290.33,907.855 "/>
<polyline clip-path="url(#clip252)" style="stroke:#e26f46; stroke-linecap:round; stroke-linejoin:round; stroke-width:4; stroke-opacity:1; fill:none" points="209.532,872.995 219.988,871.805 230.444,870.612 240.9,869.418 251.357,868.224 261.813,867.033 272.269,865.845 282.726,864.663 293.182,863.487 303.638,862.321 314.094,861.164 324.551,860.017 335.007,858.883 345.463,857.763 355.92,856.656 366.376,855.564 376.832,854.487 387.288,853.427 397.745,852.384 408.201,851.358 418.657,850.35 429.114,849.36 439.57,848.388 450.026,847.435 460.482,846.5 470.939,845.583 481.395,844.685 491.851,843.806 502.307,842.944 512.764,842.102 523.22,841.277 533.676,840.471 544.133,839.683 554.589,838.914 565.045,838.164 575.501,837.432 585.958,836.718 596.414,836.023 606.87,835.346 617.327,834.688 627.783,834.049 638.239,833.428 648.695,832.827 659.152,832.244 669.608,831.681 680.064,831.138 690.521,830.614 700.977,830.109 711.433,829.625 721.889,829.162 732.346,828.719 742.802,828.296 753.258,827.895 763.715,827.516 774.171,827.158 784.627,826.822 795.083,826.509 805.54,826.218 815.996,825.95 826.452,825.705 836.909,825.483 847.365,825.284 857.821,825.108 868.277,824.956 878.734,824.827 889.19,824.721 899.646,824.639 910.103,824.579 920.559,824.541 931.015,824.527 941.471,824.534 951.928,824.563 962.384,824.614 972.84,824.687 983.297,824.78 993.753,824.894 1004.21,825.029 1014.67,825.184 1025.12,825.359 1035.58,825.554 1046.03,825.769 1056.49,826.003 1066.95,826.257 1077.4,826.53 1087.86,826.822 1098.32,827.134 1108.77,827.464 1119.23,827.814 1129.68,828.184 1140.14,828.572 1150.6,828.98 1161.05,829.407 1171.51,829.855 1181.97,830.321 1192.42,830.808 1202.88,831.314 1213.33,831.841 1223.79,832.387 1234.25,832.954 1244.7,833.541 1255.16,834.148 1265.62,834.775 1276.07,835.422 1286.53,836.09 1296.98,836.777 1307.44,837.485 1317.9,838.213 1328.35,838.961 1338.81,839.729 1349.27,840.517 1359.72,841.325 1370.18,842.153 1380.64,843.001 1391.09,843.868 1401.55,844.755 1412,845.662 1422.46,846.589 1432.92,847.535 1443.37,848.501 1453.83,849.486 1464.29,850.491 1474.74,851.514 1485.2,852.555 1495.65,853.613 1506.11,854.689 1516.57,855.781 1527.02,856.889 1537.48,858.011 1547.94,859.147 1558.39,860.295 1568.85,861.455 1579.3,862.624 1589.76,863.802 1600.22,864.987 1610.67,866.178 1621.13,867.373 1631.59,868.57 1642.04,869.768 1652.5,870.965 1662.95,872.158 1673.41,873.346 1683.87,874.527 1694.32,875.699 1704.78,876.859 1715.24,878.006 1725.69,879.137 1736.15,880.25 1746.61,881.342 1757.06,882.411 1767.52,883.455 1777.97,884.47 1788.43,885.455 1798.89,886.407 1809.34,887.323 1819.8,888.201 1830.26,889.039 1840.71,889.834 1851.17,890.584 1861.62,891.288 1872.08,891.943 1882.54,892.547 1892.99,893.099 1903.45,893.597 1913.91,894.039 1924.36,894.424 1934.82,894.752 1945.27,895.021 1955.73,895.231 1966.19,895.38 1976.64,895.469 1987.1,895.496 1997.56,895.463 2008.01,895.368 2018.47,895.213 2028.92,894.996 2039.38,894.72 2049.84,894.384 2060.29,893.989 2070.75,893.536 2081.21,893.027 2091.66,892.463 2102.12,891.846 2112.58,891.177 2123.03,890.458 2133.49,889.691 2143.94,888.879 2154.4,888.024 2164.86,887.129 2175.31,886.195 2185.77,885.226 2196.23,884.224 2206.68,883.192 2217.14,882.133 2227.59,881.049 2238.05,879.944 2248.51,878.819 2258.96,877.678 2269.42,876.523 2279.88,875.356 2290.33,874.179 "/>
<polyline clip-path="url(#clip252)" style="stroke:#3da44d; stroke-linecap:round; stroke-linejoin:round; stroke-width:4; stroke-opacity:1; fill:none" points="209.532,920.274 219.988,912.77 230.444,914.706 240.9,914.681 251.357,914.015 261.813,904.72 272.269,902.879 282.726,906.622 293.182,902.916 303.638,901.656 314.094,893.685 324.551,893.252 335.007,889.414 345.463,887.015 355.92,887.118 366.376,882.8 376.832,877.211 387.288,880.749 397.745,873.73 408.201,875.392 418.657,867.167 429.114,870.496 439.57,862.175 450.026,861.302 460.482,854.835 470.939,852.107 481.395,851.236 491.851,846.765 502.307,841.785 512.764,842.792 523.22,836.661 533.676,837.299 544.133,835.612 554.589,834.229 565.045,827.883 575.501,828.818 585.958,825.077 596.414,819.96 606.87,823.313 617.327,823.514 627.783,817.494 638.239,818.051 648.695,813.543 659.152,812.383 669.608,808.846 680.064,807.991 690.521,802.414 700.977,801.974 711.433,800.177 721.889,797.027 732.346,796.973 742.802,794.939 753.258,794.266 763.715,793.101 774.171,791.758 784.627,792.289 795.083,790.069 805.54,788.483 815.996,789.121 826.452,793.246 836.909,786.518 847.365,789.716 857.821,789.803 868.277,789.454 878.734,787.423 889.19,782.334 899.646,781.124 910.103,781.923 920.559,785.922 931.015,782.275 941.471,780.917 951.928,784.147 962.384,784.052 972.84,783.015 983.297,781.899 993.753,786.737 1004.21,786.604 1014.67,787.304 1025.12,786.075 1035.58,793.838 1046.03,786.926 1056.49,787.67 1066.95,788.937 1077.4,790.803 1087.86,793.084 1098.32,790.842 1108.77,793.418 1119.23,795.436 1129.68,795.714 1140.14,797.016 1150.6,801.523 1161.05,801.081 1171.51,798.22 1181.97,805.697 1192.42,810.056 1202.88,806.482 1213.33,804.202 1223.79,806.259 1234.25,811.134 1244.7,813.792 1255.16,819.339 1265.62,820.967 1276.07,821.849 1286.53,824.029 1296.98,824.279 1307.44,829.02 1317.9,832.65 1328.35,835.207 1338.81,835.794 1349.27,840.532 1359.72,841.39 1370.18,842.678 1380.64,848.238 1391.09,849.842 1401.55,855.192 1412,855.674 1422.46,855.875 1432.92,859.907 1443.37,863.248 1453.83,870.609 1464.29,865.143 1474.74,872.953 1485.2,876.728 1495.65,877.85 1506.11,880.462 1516.57,887.943 1527.02,885.103 1537.48,886.061 1547.94,889.941 1558.39,893.448 1568.85,896.646 1579.3,906.745 1589.76,903.747 1600.22,903.146 1610.67,906.76 1621.13,910.655 1631.59,917.11 1642.04,919.111 1652.5,918.106 1662.95,915.143 1673.41,922.813 1683.87,922.425 1694.32,926.97 1704.78,923.963 1715.24,923.152 1725.69,925.72 1736.15,922.969 1746.61,925.721 1757.06,928.969 1767.52,926.75 1777.97,928.667 1788.43,928.237 1798.89,932.649 1809.34,927.66 1819.8,929.413 1830.26,932.36 1840.71,932.212 1851.17,930.013 1861.62,929.61 1872.08,932.033 1882.54,930.357 1892.99,931.512 1903.45,930.621 1913.91,933.113 1924.36,930.04 1934.82,930.789 1945.27,930.3 1955.73,927.49 1966.19,929.11 1976.64,932.611 1987.1,927.845 1997.56,927.009 2008.01,931.234 2018.47,931.052 2028.92,929.204 2039.38,930.825 2049.84,932.032 2060.29,931.485 2070.75,926.718 2081.21,933.516 2091.66,930.674 2102.12,932.331 2112.58,929.134 2123.03,933.44 2133.49,929.088 2143.94,928.072 2154.4,931.138 2164.86,931.443 2175.31,929.39 2185.77,928.855 2196.23,932.061 2206.68,927.73 2217.14,931.612 2227.59,925.842 2238.05,928.312 2248.51,925.359 2258.96,922.36 2269.42,924.963 2279.88,924.17 2290.33,920.402 "/>
<polyline clip-path="url(#clip252)" style="stroke:#c271d2; stroke-linecap:round; stroke-linejoin:round; stroke-width:4; stroke-opacity:1; fill:none" points="209.532,929.242 219.988,877.016 230.444,837.642 240.9,805.346 251.357,765.122 261.813,739.583 272.269,640.732 282.726,642.714 293.182,624.017 303.638,560.621 314.094,497.942 324.551,511.324 335.007,435.894 345.463,426.64 355.92,360.903 366.376,308.452 376.832,302.31 387.288,289.639 397.745,243.578 408.201,245.568 418.657,188.346 429.114,153.198 439.57,167.266 450.026,152.765 460.482,171.355 470.939,139.204 481.395,114.041 491.851,119.415 502.307,110.392 512.764,118.687 523.22,122.624 533.676,133.012 544.133,176.329 554.589,169.098 565.045,216.303 575.501,235.403 585.958,271.487 596.414,270.969 606.87,313.77 617.327,355.336 627.783,363.921 638.239,417.313 648.695,438.771 659.152,490.186 669.608,504.127 680.064,600.353 690.521,681.152 700.977,686.985 711.433,735.198 721.889,781.689 732.346,839.184 742.802,912.566 753.258,919.929 763.715,959.052 774.171,1062.33 784.627,1051.11 795.083,1110.37 805.54,1141.89 815.996,1226.9 826.452,1216.93 836.909,1259.41 847.365,1291.9 857.821,1304.43 868.277,1360.31 878.734,1371.55 889.19,1416.96 899.646,1401.75 910.103,1445.72 920.559,1426.85 931.015,1402.92 941.471,1403.98 951.928,1416.53 962.384,1418.91 972.84,1428.73 983.297,1383.37 993.753,1362.53 1004.21,1330.19 1014.67,1330.15 1025.12,1283.21 1035.58,1277.59 1046.03,1272.97 1056.49,1179.99 1066.95,1198.11 1077.4,1143.76 1087.86,1075.24 1098.32,1018.42 1108.77,982.945 1119.23,968.299 1129.68,923.534 1140.14,832.435 1150.6,803.253 1161.05,763.569 1171.51,711.892 1181.97,661.827 1192.42,571.297 1202.88,569.598 1213.33,493.833 1223.79,449.71 1234.25,373.155 1244.7,380.409 1255.16,348.481 1265.62,294.066 1276.07,254.017 1286.53,228.957 1296.98,234.372 1307.44,224.121 1317.9,177.791 1328.35,114.981 1338.81,111.892 1349.27,159.275 1359.72,94.0993 1370.18,108.86 1380.64,101.777 1391.09,120.241 1401.55,87.9763 1412,120.476 1422.46,111.589 1432.92,146.172 1443.37,135.049 1453.83,180.005 1464.29,224.338 1474.74,238.204 1485.2,252.841 1495.65,324.591 1506.11,333.565 1516.57,383.975 1527.02,416.022 1537.48,443.879 1547.94,463.595 1558.39,516.891 1568.85,540.089 1579.3,587.51 1589.76,616.345 1600.22,656.87 1610.67,692.813 1621.13,702.379 1631.59,785.063 1642.04,772.079 1652.5,862.209 1662.95,905.421 1673.41,904.259 1683.87,935.456 1694.32,975.141 1704.78,1011.66 1715.24,1030.8 1725.69,1047.08 1736.15,1091.56 1746.61,1124.7 1757.06,1139.53 1767.52,1170.57 1777.97,1192.03 1788.43,1193.75 1798.89,1207.05 1809.34,1253.21 1819.8,1171.27 1830.26,1239.38 1840.71,1206.94 1851.17,1276.22 1861.62,1252.97 1872.08,1319.99 1882.54,1291.5 1892.99,1293.39 1903.45,1266.39 1913.91,1280.79 1924.36,1264.16 1934.82,1267.92 1945.27,1277.63 1955.73,1252.42 1966.19,1292.94 1976.64,1286.61 1987.1,1285.4 1997.56,1273.2 2008.01,1241.61 2018.47,1311.18 2028.92,1278.89 2039.38,1278.06 2049.84,1279.39 2060.29,1257.12 2070.75,1257.64 2081.21,1268.97 2091.66,1293.73 2102.12,1261.48 2112.58,1240.44 2123.03,1225.7 2133.49,1220.42 2143.94,1207.69 2154.4,1220.62 2164.86,1216.74 2175.31,1181.93 2185.77,1201.04 2196.23,1126.17 2206.68,1154.15 2217.14,1140.96 2227.59,1062.7 2238.05,1091.32 2248.51,1074.66 2258.96,1010.6 2269.42,1012.8 2279.88,984.243 2290.33,944.017 "/>
<path clip-path="url(#clip250)" d="M1441.36 354.418 L2279.23 354.418 L2279.23 95.2176 L1441.36 95.2176  Z" fill="#ffffff" fill-rule="evenodd" fill-opacity="1"/>
<polyline clip-path="url(#clip250)" style="stroke:#000000; stroke-linecap:round; stroke-linejoin:round; stroke-width:4; stroke-opacity:1; fill:none" points="1441.36,354.418 2279.23,354.418 2279.23,95.2176 1441.36,95.2176 1441.36,354.418 "/>
<polyline clip-path="url(#clip250)" style="stroke:#009af9; stroke-linecap:round; stroke-linejoin:round; stroke-width:4; stroke-opacity:1; fill:none" points="1465.87,147.058 1612.91,147.058 "/>
<path clip-path="url(#clip250)" d="M1637.42 129.778 L1642.09 129.778 L1642.09 164.338 L1637.42 164.338 L1637.42 129.778 Z" fill="#000000" fill-rule="nonzero" fill-opacity="1" /><path clip-path="url(#clip250)" d="M1671.4 143.389 Q1672.99 140.518 1675.22 139.153 Q1677.44 137.787 1680.45 137.787 Q1684.5 137.787 1686.7 140.634 Q1688.9 143.458 1688.9 148.689 L1688.9 164.338 L1684.61 164.338 L1684.61 148.828 Q1684.61 145.102 1683.29 143.296 Q1681.98 141.49 1679.27 141.49 Q1675.96 141.49 1674.04 143.69 Q1672.11 145.889 1672.11 149.685 L1672.11 164.338 L1667.83 164.338 L1667.83 148.828 Q1667.83 145.078 1666.51 143.296 Q1665.19 141.49 1662.44 141.49 Q1659.17 141.49 1657.25 143.713 Q1655.33 145.912 1655.33 149.685 L1655.33 164.338 L1651.05 164.338 L1651.05 138.412 L1655.33 138.412 L1655.33 142.44 Q1656.79 140.055 1658.83 138.921 Q1660.86 137.787 1663.67 137.787 Q1666.49 137.787 1668.46 139.222 Q1670.45 140.657 1671.4 143.389 Z" fill="#000000" fill-rule="nonzero" fill-opacity="1" /><path clip-path="url(#clip250)" d="M1701.51 160.449 L1701.51 174.199 L1697.23 174.199 L1697.23 138.412 L1701.51 138.412 L1701.51 142.347 Q1702.86 140.032 1704.89 138.921 Q1706.95 137.787 1709.8 137.787 Q1714.52 137.787 1717.46 141.537 Q1720.42 145.287 1720.42 151.398 Q1720.42 157.509 1717.46 161.259 Q1714.52 165.009 1709.8 165.009 Q1706.95 165.009 1704.89 163.898 Q1702.86 162.763 1701.51 160.449 M1716 151.398 Q1716 146.699 1714.06 144.037 Q1712.14 141.352 1708.76 141.352 Q1705.38 141.352 1703.43 144.037 Q1701.51 146.699 1701.51 151.398 Q1701.51 156.097 1703.43 158.782 Q1705.38 161.444 1708.76 161.444 Q1712.14 161.444 1714.06 158.782 Q1716 156.097 1716 151.398 Z" fill="#000000" fill-rule="nonzero" fill-opacity="1" /><path clip-path="url(#clip250)" d="M1727.48 128.319 L1731.74 128.319 L1731.74 164.338 L1727.48 164.338 L1727.48 128.319 Z" fill="#000000" fill-rule="nonzero" fill-opacity="1" /><path clip-path="url(#clip250)" d="M1740.66 138.412 L1744.92 138.412 L1744.92 164.338 L1740.66 164.338 L1740.66 138.412 M1740.66 128.319 L1744.92 128.319 L1744.92 133.713 L1740.66 133.713 L1740.66 128.319 Z" fill="#000000" fill-rule="nonzero" fill-opacity="1" /><path clip-path="url(#clip250)" d="M1772.48 139.407 L1772.48 143.389 Q1770.68 142.393 1768.85 141.907 Q1767.04 141.398 1765.19 141.398 Q1761.05 141.398 1758.76 144.037 Q1756.47 146.652 1756.47 151.398 Q1756.47 156.143 1758.76 158.782 Q1761.05 161.398 1765.19 161.398 Q1767.04 161.398 1768.85 160.912 Q1770.68 160.402 1772.48 159.407 L1772.48 163.342 Q1770.7 164.176 1768.78 164.592 Q1766.88 165.009 1764.73 165.009 Q1758.87 165.009 1755.42 161.328 Q1751.98 157.648 1751.98 151.398 Q1751.98 145.055 1755.45 141.421 Q1758.94 137.787 1765.01 137.787 Q1766.98 137.787 1768.85 138.203 Q1770.73 138.597 1772.48 139.407 Z" fill="#000000" fill-rule="nonzero" fill-opacity="1" /><path clip-path="url(#clip250)" d="M1779.89 138.412 L1784.15 138.412 L1784.15 164.338 L1779.89 164.338 L1779.89 138.412 M1779.89 128.319 L1784.15 128.319 L1784.15 133.713 L1779.89 133.713 L1779.89 128.319 Z" fill="#000000" fill-rule="nonzero" fill-opacity="1" /><path clip-path="url(#clip250)" d="M1797.28 131.051 L1797.28 138.412 L1806.05 138.412 L1806.05 141.722 L1797.28 141.722 L1797.28 155.796 Q1797.28 158.967 1798.13 159.87 Q1799.01 160.773 1801.67 160.773 L1806.05 160.773 L1806.05 164.338 L1801.67 164.338 Q1796.74 164.338 1794.87 162.509 Q1792.99 160.657 1792.99 155.796 L1792.99 141.722 L1789.87 141.722 L1789.87 138.412 L1792.99 138.412 L1792.99 131.051 L1797.28 131.051 Z" fill="#000000" fill-rule="nonzero" fill-opacity="1" /><path clip-path="url(#clip250)" d="M1826.91 129.778 L1833.87 129.778 L1842.69 153.296 L1851.56 129.778 L1858.53 129.778 L1858.53 164.338 L1853.97 164.338 L1853.97 133.99 L1845.05 157.694 L1840.35 157.694 L1831.44 133.99 L1831.44 164.338 L1826.91 164.338 L1826.91 129.778 Z" fill="#000000" fill-rule="nonzero" fill-opacity="1" /><path clip-path="url(#clip250)" d="M1867.62 138.412 L1871.88 138.412 L1871.88 164.338 L1867.62 164.338 L1867.62 138.412 M1867.62 128.319 L1871.88 128.319 L1871.88 133.713 L1867.62 133.713 L1867.62 128.319 Z" fill="#000000" fill-rule="nonzero" fill-opacity="1" /><path clip-path="url(#clip250)" d="M1897.85 142.347 L1897.85 128.319 L1902.11 128.319 L1902.11 164.338 L1897.85 164.338 L1897.85 160.449 Q1896.51 162.763 1894.45 163.898 Q1892.41 165.009 1889.54 165.009 Q1884.84 165.009 1881.88 161.259 Q1878.94 157.509 1878.94 151.398 Q1878.94 145.287 1881.88 141.537 Q1884.84 137.787 1889.54 137.787 Q1892.41 137.787 1894.45 138.921 Q1896.51 140.032 1897.85 142.347 M1883.34 151.398 Q1883.34 156.097 1885.26 158.782 Q1887.21 161.444 1890.59 161.444 Q1893.97 161.444 1895.91 158.782 Q1897.85 156.097 1897.85 151.398 Q1897.85 146.699 1895.91 144.037 Q1893.97 141.352 1890.59 141.352 Q1887.21 141.352 1885.26 144.037 Q1883.34 146.699 1883.34 151.398 Z" fill="#000000" fill-rule="nonzero" fill-opacity="1" /><path clip-path="url(#clip250)" d="M1915.01 160.449 L1915.01 174.199 L1910.72 174.199 L1910.72 138.412 L1915.01 138.412 L1915.01 142.347 Q1916.35 140.032 1918.39 138.921 Q1920.45 137.787 1923.29 137.787 Q1928.02 137.787 1930.96 141.537 Q1933.92 145.287 1933.92 151.398 Q1933.92 157.509 1930.96 161.259 Q1928.02 165.009 1923.29 165.009 Q1920.45 165.009 1918.39 163.898 Q1916.35 162.763 1915.01 160.449 M1929.5 151.398 Q1929.5 146.699 1927.55 144.037 Q1925.63 141.352 1922.25 141.352 Q1918.87 141.352 1916.93 144.037 Q1915.01 146.699 1915.01 151.398 Q1915.01 156.097 1916.93 158.782 Q1918.87 161.444 1922.25 161.444 Q1925.63 161.444 1927.55 158.782 Q1929.5 156.097 1929.5 151.398 Z" fill="#000000" fill-rule="nonzero" fill-opacity="1" /><path clip-path="url(#clip250)" d="M1951.03 141.398 Q1947.6 141.398 1945.61 144.083 Q1943.62 146.745 1943.62 151.398 Q1943.62 156.051 1945.59 158.736 Q1947.58 161.398 1951.03 161.398 Q1954.43 161.398 1956.42 158.713 Q1958.41 156.027 1958.41 151.398 Q1958.41 146.791 1956.42 144.106 Q1954.43 141.398 1951.03 141.398 M1951.03 137.787 Q1956.58 137.787 1959.75 141.398 Q1962.92 145.009 1962.92 151.398 Q1962.92 157.764 1959.75 161.398 Q1956.58 165.009 1951.03 165.009 Q1945.45 165.009 1942.28 161.398 Q1939.13 157.764 1939.13 151.398 Q1939.13 145.009 1942.28 141.398 Q1945.45 137.787 1951.03 137.787 Z" fill="#000000" fill-rule="nonzero" fill-opacity="1" /><path clip-path="url(#clip250)" d="M1969.98 138.412 L1974.24 138.412 L1974.24 164.338 L1969.98 164.338 L1969.98 138.412 M1969.98 128.319 L1974.24 128.319 L1974.24 133.713 L1969.98 133.713 L1969.98 128.319 Z" fill="#000000" fill-rule="nonzero" fill-opacity="1" /><path clip-path="url(#clip250)" d="M2004.71 148.689 L2004.71 164.338 L2000.45 164.338 L2000.45 148.828 Q2000.45 145.148 1999.01 143.319 Q1997.58 141.49 1994.71 141.49 Q1991.26 141.49 1989.27 143.69 Q1987.27 145.889 1987.27 149.685 L1987.27 164.338 L1982.99 164.338 L1982.99 138.412 L1987.27 138.412 L1987.27 142.44 Q1988.8 140.102 1990.86 138.944 Q1992.95 137.787 1995.65 137.787 Q2000.12 137.787 2002.41 140.565 Q2004.71 143.319 2004.71 148.689 Z" fill="#000000" fill-rule="nonzero" fill-opacity="1" /><path clip-path="url(#clip250)" d="M2017.41 131.051 L2017.41 138.412 L2026.19 138.412 L2026.19 141.722 L2017.41 141.722 L2017.41 155.796 Q2017.41 158.967 2018.27 159.87 Q2019.15 160.773 2021.81 160.773 L2026.19 160.773 L2026.19 164.338 L2021.81 164.338 Q2016.88 164.338 2015.01 162.509 Q2013.13 160.657 2013.13 155.796 L2013.13 141.722 L2010.01 141.722 L2010.01 138.412 L2013.13 138.412 L2013.13 131.051 L2017.41 131.051 Z" fill="#000000" fill-rule="nonzero" fill-opacity="1" /><polyline clip-path="url(#clip250)" style="stroke:#e26f46; stroke-linecap:round; stroke-linejoin:round; stroke-width:4; stroke-opacity:1; fill:none" points="1465.87,198.898 1612.91,198.898 "/>
<path clip-path="url(#clip250)" d="M1642.09 185.46 L1642.09 198.446 L1647.97 198.446 Q1651.23 198.446 1653.02 196.756 Q1654.8 195.067 1654.8 191.942 Q1654.8 188.84 1653.02 187.15 Q1651.23 185.46 1647.97 185.46 L1642.09 185.46 M1637.42 181.618 L1647.97 181.618 Q1653.78 181.618 1656.74 184.256 Q1659.73 186.872 1659.73 191.942 Q1659.73 197.057 1656.74 199.673 Q1653.78 202.289 1647.97 202.289 L1642.09 202.289 L1642.09 216.178 L1637.42 216.178 L1637.42 181.618 Z" fill="#000000" fill-rule="nonzero" fill-opacity="1" /><path clip-path="url(#clip250)" d="M1686.72 182.752 L1686.72 187.312 Q1684.06 186.039 1681.7 185.414 Q1679.34 184.789 1677.14 184.789 Q1673.32 184.789 1671.23 186.27 Q1669.17 187.752 1669.17 190.483 Q1669.17 192.775 1670.54 193.955 Q1671.93 195.113 1675.77 195.83 L1678.6 196.409 Q1683.83 197.405 1686.3 199.928 Q1688.8 202.428 1688.8 206.641 Q1688.8 211.664 1685.42 214.256 Q1682.07 216.849 1675.56 216.849 Q1673.11 216.849 1670.33 216.293 Q1667.58 215.738 1664.61 214.65 L1664.61 209.835 Q1667.46 211.432 1670.19 212.242 Q1672.92 213.053 1675.56 213.053 Q1679.57 213.053 1681.74 211.479 Q1683.92 209.904 1683.92 206.988 Q1683.92 204.442 1682.35 203.006 Q1680.79 201.571 1677.23 200.854 L1674.38 200.298 Q1669.15 199.256 1666.81 197.034 Q1664.48 194.812 1664.48 190.854 Q1664.48 186.27 1667.69 183.631 Q1670.93 180.993 1676.61 180.993 Q1679.04 180.993 1681.56 181.432 Q1684.08 181.872 1686.72 182.752 Z" fill="#000000" fill-rule="nonzero" fill-opacity="1" /><path clip-path="url(#clip250)" d="M1700.77 185.46 L1700.77 212.335 L1706.42 212.335 Q1713.57 212.335 1716.88 209.094 Q1720.22 205.854 1720.22 198.863 Q1720.22 191.918 1716.88 188.701 Q1713.57 185.46 1706.42 185.46 L1700.77 185.46 M1696.1 181.618 L1705.7 181.618 Q1715.75 181.618 1720.45 185.807 Q1725.15 189.974 1725.15 198.863 Q1725.15 207.798 1720.42 211.988 Q1715.7 216.178 1705.7 216.178 L1696.1 216.178 L1696.1 181.618 Z" fill="#000000" fill-rule="nonzero" fill-opacity="1" /><polyline clip-path="url(#clip250)" style="stroke:#3da44d; stroke-linecap:round; stroke-linejoin:round; stroke-width:4; stroke-opacity:1; fill:none" points="1465.87,250.738 1612.91,250.738 "/>
<path clip-path="url(#clip250)" d="M1659.66 234.592 L1659.66 239.152 Q1657 237.879 1654.64 237.254 Q1652.28 236.629 1650.08 236.629 Q1646.26 236.629 1644.17 238.11 Q1642.11 239.592 1642.11 242.323 Q1642.11 244.615 1643.48 245.795 Q1644.87 246.953 1648.71 247.67 L1651.54 248.249 Q1656.77 249.245 1659.24 251.768 Q1661.74 254.268 1661.74 258.481 Q1661.74 263.504 1658.36 266.096 Q1655.01 268.689 1648.5 268.689 Q1646.05 268.689 1643.27 268.133 Q1640.52 267.578 1637.55 266.49 L1637.55 261.675 Q1640.4 263.272 1643.13 264.082 Q1645.86 264.893 1648.5 264.893 Q1652.51 264.893 1654.68 263.319 Q1656.86 261.744 1656.86 258.828 Q1656.86 256.282 1655.29 254.846 Q1653.73 253.411 1650.17 252.694 L1647.32 252.138 Q1642.09 251.096 1639.75 248.874 Q1637.42 246.652 1637.42 242.694 Q1637.42 238.11 1640.63 235.471 Q1643.87 232.833 1649.55 232.833 Q1651.98 232.833 1654.5 233.272 Q1657.02 233.712 1659.66 234.592 Z" fill="#000000" fill-rule="nonzero" fill-opacity="1" /><path clip-path="url(#clip250)" d="M1681.47 238.064 L1675.12 255.263 L1687.83 255.263 L1681.47 238.064 M1678.83 233.458 L1684.13 233.458 L1697.3 268.018 L1692.44 268.018 L1689.29 259.152 L1673.71 259.152 L1670.56 268.018 L1665.63 268.018 L1678.83 233.458 Z" fill="#000000" fill-rule="nonzero" fill-opacity="1" /><path clip-path="url(#clip250)" d="M1702.35 233.458 L1724.2 233.458 L1724.2 237.393 L1707.02 237.393 L1707.02 247.624 L1723.48 247.624 L1723.48 251.559 L1707.02 251.559 L1707.02 264.082 L1724.61 264.082 L1724.61 268.018 L1702.35 268.018 L1702.35 233.458 Z" fill="#000000" fill-rule="nonzero" fill-opacity="1" /><polyline clip-path="url(#clip250)" style="stroke:#c271d2; stroke-linecap:round; stroke-linejoin:round; stroke-width:4; stroke-opacity:1; fill:none" points="1465.87,302.578 1612.91,302.578 "/>
<path clip-path="url(#clip250)" d="M1637.42 285.298 L1643.71 285.298 L1659.04 314.209 L1659.04 285.298 L1663.57 285.298 L1663.57 319.858 L1657.28 319.858 L1641.95 290.946 L1641.95 319.858 L1637.42 319.858 L1637.42 285.298 Z" fill="#000000" fill-rule="nonzero" fill-opacity="1" /><path clip-path="url(#clip250)" d="M1694.87 305.83 L1694.87 307.913 L1675.29 307.913 Q1675.56 312.311 1677.92 314.626 Q1680.31 316.918 1684.54 316.918 Q1687 316.918 1689.29 316.316 Q1691.61 315.714 1693.87 314.51 L1693.87 318.538 Q1691.58 319.51 1689.17 320.02 Q1686.77 320.529 1684.29 320.529 Q1678.09 320.529 1674.45 316.918 Q1670.84 313.307 1670.84 307.149 Q1670.84 300.784 1674.27 297.057 Q1677.72 293.307 1683.55 293.307 Q1688.78 293.307 1691.81 296.686 Q1694.87 300.043 1694.87 305.83 M1690.61 304.58 Q1690.56 301.085 1688.64 299.001 Q1686.74 296.918 1683.6 296.918 Q1680.03 296.918 1677.88 298.932 Q1675.75 300.946 1675.42 304.603 L1690.61 304.58 Z" fill="#000000" fill-rule="nonzero" fill-opacity="1" /><path clip-path="url(#clip250)" d="M1701.42 309.626 L1701.42 293.932 L1705.68 293.932 L1705.68 309.464 Q1705.68 313.145 1707.11 314.996 Q1708.55 316.825 1711.42 316.825 Q1714.87 316.825 1716.86 314.626 Q1718.87 312.427 1718.87 308.631 L1718.87 293.932 L1723.13 293.932 L1723.13 319.858 L1718.87 319.858 L1718.87 315.876 Q1717.32 318.237 1715.26 319.395 Q1713.23 320.529 1710.52 320.529 Q1706.05 320.529 1703.73 317.751 Q1701.42 314.973 1701.42 309.626 M1712.14 293.307 L1712.14 293.307 Z" fill="#000000" fill-rule="nonzero" fill-opacity="1" /><path clip-path="url(#clip250)" d="M1746.93 297.913 Q1746.21 297.497 1745.35 297.311 Q1744.52 297.103 1743.5 297.103 Q1739.89 297.103 1737.95 299.464 Q1736.03 301.802 1736.03 306.2 L1736.03 319.858 L1731.74 319.858 L1731.74 293.932 L1736.03 293.932 L1736.03 297.96 Q1737.37 295.598 1739.52 294.464 Q1741.67 293.307 1744.75 293.307 Q1745.19 293.307 1745.73 293.376 Q1746.26 293.423 1746.91 293.538 L1746.93 297.913 Z" fill="#000000" fill-rule="nonzero" fill-opacity="1" /><path clip-path="url(#clip250)" d="M1763.18 306.825 Q1758.02 306.825 1756.03 308.006 Q1754.04 309.186 1754.04 312.034 Q1754.04 314.302 1755.52 315.645 Q1757.02 316.964 1759.59 316.964 Q1763.13 316.964 1765.26 314.464 Q1767.41 311.941 1767.41 307.774 L1767.41 306.825 L1763.18 306.825 M1771.67 305.066 L1771.67 319.858 L1767.41 319.858 L1767.41 315.922 Q1765.96 318.283 1763.78 319.418 Q1761.6 320.529 1758.46 320.529 Q1754.48 320.529 1752.11 318.307 Q1749.78 316.061 1749.78 312.311 Q1749.78 307.936 1752.69 305.714 Q1755.63 303.492 1761.44 303.492 L1767.41 303.492 L1767.41 303.075 Q1767.41 300.135 1765.47 298.538 Q1763.55 296.918 1760.05 296.918 Q1757.83 296.918 1755.73 297.45 Q1753.62 297.983 1751.67 299.047 L1751.67 295.112 Q1754.01 294.21 1756.21 293.77 Q1758.41 293.307 1760.49 293.307 Q1766.12 293.307 1768.9 296.223 Q1771.67 299.14 1771.67 305.066 Z" fill="#000000" fill-rule="nonzero" fill-opacity="1" /><path clip-path="url(#clip250)" d="M1780.45 283.839 L1784.71 283.839 L1784.71 319.858 L1780.45 319.858 L1780.45 283.839 Z" fill="#000000" fill-rule="nonzero" fill-opacity="1" /><path clip-path="url(#clip250)" d="M1808.87 285.298 L1815.17 285.298 L1830.49 314.209 L1830.49 285.298 L1835.03 285.298 L1835.03 319.858 L1828.73 319.858 L1813.41 290.946 L1813.41 319.858 L1808.87 319.858 L1808.87 285.298 Z" fill="#000000" fill-rule="nonzero" fill-opacity="1" /><path clip-path="url(#clip250)" d="M1866.33 305.83 L1866.33 307.913 L1846.74 307.913 Q1847.02 312.311 1849.38 314.626 Q1851.77 316.918 1856 316.918 Q1858.46 316.918 1860.75 316.316 Q1863.06 315.714 1865.33 314.51 L1865.33 318.538 Q1863.04 319.51 1860.63 320.02 Q1858.22 320.529 1855.75 320.529 Q1849.54 320.529 1845.91 316.918 Q1842.3 313.307 1842.3 307.149 Q1842.3 300.784 1845.72 297.057 Q1849.17 293.307 1855.01 293.307 Q1860.24 293.307 1863.27 296.686 Q1866.33 300.043 1866.33 305.83 M1862.07 304.58 Q1862.02 301.085 1860.1 299.001 Q1858.2 296.918 1855.05 296.918 Q1851.49 296.918 1849.34 298.932 Q1847.21 300.946 1846.88 304.603 L1862.07 304.58 Z" fill="#000000" fill-rule="nonzero" fill-opacity="1" /><path clip-path="url(#clip250)" d="M1877.53 286.571 L1877.53 293.932 L1886.3 293.932 L1886.3 297.242 L1877.53 297.242 L1877.53 311.316 Q1877.53 314.487 1878.39 315.39 Q1879.27 316.293 1881.93 316.293 L1886.3 316.293 L1886.3 319.858 L1881.93 319.858 Q1877 319.858 1875.12 318.029 Q1873.25 316.177 1873.25 311.316 L1873.25 297.242 L1870.12 297.242 L1870.12 293.932 L1873.25 293.932 L1873.25 286.571 L1877.53 286.571 Z" fill="#000000" fill-rule="nonzero" fill-opacity="1" /><path clip-path="url(#clip250)" d="M1889.43 293.932 L1893.69 293.932 L1899.01 314.163 L1904.31 293.932 L1909.34 293.932 L1914.66 314.163 L1919.96 293.932 L1924.22 293.932 L1917.44 319.858 L1912.41 319.858 L1906.84 298.608 L1901.23 319.858 L1896.21 319.858 L1889.43 293.932 Z" fill="#000000" fill-rule="nonzero" fill-opacity="1" /><path clip-path="url(#clip250)" d="M1940.72 296.918 Q1937.3 296.918 1935.31 299.603 Q1933.32 302.265 1933.32 306.918 Q1933.32 311.571 1935.28 314.256 Q1937.28 316.918 1940.72 316.918 Q1944.13 316.918 1946.12 314.233 Q1948.11 311.547 1948.11 306.918 Q1948.11 302.311 1946.12 299.626 Q1944.13 296.918 1940.72 296.918 M1940.72 293.307 Q1946.28 293.307 1949.45 296.918 Q1952.62 300.529 1952.62 306.918 Q1952.62 313.284 1949.45 316.918 Q1946.28 320.529 1940.72 320.529 Q1935.15 320.529 1931.97 316.918 Q1928.83 313.284 1928.83 306.918 Q1928.83 300.529 1931.97 296.918 Q1935.15 293.307 1940.72 293.307 Z" fill="#000000" fill-rule="nonzero" fill-opacity="1" /><path clip-path="url(#clip250)" d="M1974.71 297.913 Q1973.99 297.497 1973.13 297.311 Q1972.3 297.103 1971.28 297.103 Q1967.67 297.103 1965.72 299.464 Q1963.8 301.802 1963.8 306.2 L1963.8 319.858 L1959.52 319.858 L1959.52 293.932 L1963.8 293.932 L1963.8 297.96 Q1965.15 295.598 1967.3 294.464 Q1969.45 293.307 1972.53 293.307 Q1972.97 293.307 1973.5 293.376 Q1974.03 293.423 1974.68 293.538 L1974.71 297.913 Z" fill="#000000" fill-rule="nonzero" fill-opacity="1" /><path clip-path="url(#clip250)" d="M1979.01 283.839 L1983.29 283.839 L1983.29 305.112 L1996 293.932 L2001.44 293.932 L1987.69 306.061 L2002.02 319.858 L1996.46 319.858 L1983.29 307.196 L1983.29 319.858 L1979.01 319.858 L1979.01 283.839 Z" fill="#000000" fill-rule="nonzero" fill-opacity="1" /><path clip-path="url(#clip250)" d="M2021.88 285.298 L2026.56 285.298 L2026.56 319.858 L2021.88 319.858 L2021.88 285.298 Z" fill="#000000" fill-rule="nonzero" fill-opacity="1" /><path clip-path="url(#clip250)" d="M2057.23 304.209 L2057.23 319.858 L2052.97 319.858 L2052.97 304.348 Q2052.97 300.668 2051.53 298.839 Q2050.1 297.01 2047.23 297.01 Q2043.78 297.01 2041.79 299.21 Q2039.8 301.409 2039.8 305.205 L2039.8 319.858 L2035.52 319.858 L2035.52 293.932 L2039.8 293.932 L2039.8 297.96 Q2041.33 295.622 2043.39 294.464 Q2045.47 293.307 2048.18 293.307 Q2052.64 293.307 2054.94 296.085 Q2057.23 298.839 2057.23 304.209 Z" fill="#000000" fill-rule="nonzero" fill-opacity="1" /><path clip-path="url(#clip250)" d="M2069.94 286.571 L2069.94 293.932 L2078.71 293.932 L2078.71 297.242 L2069.94 297.242 L2069.94 311.316 Q2069.94 314.487 2070.79 315.39 Q2071.67 316.293 2074.33 316.293 L2078.71 316.293 L2078.71 319.858 L2074.33 319.858 Q2069.4 319.858 2067.53 318.029 Q2065.65 316.177 2065.65 311.316 L2065.65 297.242 L2062.53 297.242 L2062.53 293.932 L2065.65 293.932 L2065.65 286.571 L2069.94 286.571 Z" fill="#000000" fill-rule="nonzero" fill-opacity="1" /><path clip-path="url(#clip250)" d="M2106.49 305.83 L2106.49 307.913 L2086.9 307.913 Q2087.18 312.311 2089.54 314.626 Q2091.93 316.918 2096.16 316.918 Q2098.62 316.918 2100.91 316.316 Q2103.22 315.714 2105.49 314.51 L2105.49 318.538 Q2103.2 319.51 2100.79 320.02 Q2098.39 320.529 2095.91 320.529 Q2089.7 320.529 2086.07 316.918 Q2082.46 313.307 2082.46 307.149 Q2082.46 300.784 2085.89 297.057 Q2089.33 293.307 2095.17 293.307 Q2100.4 293.307 2103.43 296.686 Q2106.49 300.043 2106.49 305.83 M2102.23 304.58 Q2102.18 301.085 2100.26 299.001 Q2098.36 296.918 2095.21 296.918 Q2091.65 296.918 2089.5 298.932 Q2087.37 300.946 2087.04 304.603 L2102.23 304.58 Z" fill="#000000" fill-rule="nonzero" fill-opacity="1" /><path clip-path="url(#clip250)" d="M2130.54 306.594 Q2130.54 301.964 2128.62 299.418 Q2126.72 296.872 2123.27 296.872 Q2119.84 296.872 2117.92 299.418 Q2116.02 301.964 2116.02 306.594 Q2116.02 311.2 2117.92 313.746 Q2119.84 316.293 2123.27 316.293 Q2126.72 316.293 2128.62 313.746 Q2130.54 311.2 2130.54 306.594 M2134.8 316.64 Q2134.8 323.26 2131.86 326.478 Q2128.92 329.719 2122.85 329.719 Q2120.61 329.719 2118.62 329.371 Q2116.63 329.047 2114.75 328.353 L2114.75 324.209 Q2116.63 325.228 2118.45 325.714 Q2120.28 326.2 2122.18 326.2 Q2126.37 326.2 2128.45 324.001 Q2130.54 321.825 2130.54 317.404 L2130.54 315.297 Q2129.22 317.589 2127.16 318.723 Q2125.1 319.858 2122.23 319.858 Q2117.46 319.858 2114.54 316.223 Q2111.63 312.589 2111.63 306.594 Q2111.63 300.575 2114.54 296.941 Q2117.46 293.307 2122.23 293.307 Q2125.1 293.307 2127.16 294.441 Q2129.22 295.575 2130.54 297.867 L2130.54 293.932 L2134.8 293.932 L2134.8 316.64 Z" fill="#000000" fill-rule="nonzero" fill-opacity="1" /><path clip-path="url(#clip250)" d="M2158.59 297.913 Q2157.88 297.497 2157.02 297.311 Q2156.19 297.103 2155.17 297.103 Q2151.56 297.103 2149.61 299.464 Q2147.69 301.802 2147.69 306.2 L2147.69 319.858 L2143.41 319.858 L2143.41 293.932 L2147.69 293.932 L2147.69 297.96 Q2149.03 295.598 2151.19 294.464 Q2153.34 293.307 2156.42 293.307 Q2156.86 293.307 2157.39 293.376 Q2157.92 293.423 2158.57 293.538 L2158.59 297.913 Z" fill="#000000" fill-rule="nonzero" fill-opacity="1" /><path clip-path="url(#clip250)" d="M2174.84 306.825 Q2169.68 306.825 2167.69 308.006 Q2165.7 309.186 2165.7 312.034 Q2165.7 314.302 2167.18 315.645 Q2168.69 316.964 2171.26 316.964 Q2174.8 316.964 2176.93 314.464 Q2179.08 311.941 2179.08 307.774 L2179.08 306.825 L2174.84 306.825 M2183.34 305.066 L2183.34 319.858 L2179.08 319.858 L2179.08 315.922 Q2177.62 318.283 2175.45 319.418 Q2173.27 320.529 2170.12 320.529 Q2166.14 320.529 2163.78 318.307 Q2161.44 316.061 2161.44 312.311 Q2161.44 307.936 2164.36 305.714 Q2167.3 303.492 2173.11 303.492 L2179.08 303.492 L2179.08 303.075 Q2179.08 300.135 2177.13 298.538 Q2175.21 296.918 2171.72 296.918 Q2169.5 296.918 2167.39 297.45 Q2165.28 297.983 2163.34 299.047 L2163.34 295.112 Q2165.68 294.21 2167.88 293.77 Q2170.07 293.307 2172.16 293.307 Q2177.78 293.307 2180.56 296.223 Q2183.34 299.14 2183.34 305.066 Z" fill="#000000" fill-rule="nonzero" fill-opacity="1" /><path clip-path="url(#clip250)" d="M2196.32 286.571 L2196.32 293.932 L2205.1 293.932 L2205.1 297.242 L2196.32 297.242 L2196.32 311.316 Q2196.32 314.487 2197.18 315.39 Q2198.06 316.293 2200.72 316.293 L2205.1 316.293 L2205.1 319.858 L2200.72 319.858 Q2195.79 319.858 2193.92 318.029 Q2192.04 316.177 2192.04 311.316 L2192.04 297.242 L2188.92 297.242 L2188.92 293.932 L2192.04 293.932 L2192.04 286.571 L2196.32 286.571 Z" fill="#000000" fill-rule="nonzero" fill-opacity="1" /><path clip-path="url(#clip250)" d="M2220.75 296.918 Q2217.32 296.918 2215.33 299.603 Q2213.34 302.265 2213.34 306.918 Q2213.34 311.571 2215.31 314.256 Q2217.3 316.918 2220.75 316.918 Q2224.15 316.918 2226.14 314.233 Q2228.13 311.547 2228.13 306.918 Q2228.13 302.311 2226.14 299.626 Q2224.15 296.918 2220.75 296.918 M2220.75 293.307 Q2226.3 293.307 2229.47 296.918 Q2232.64 300.529 2232.64 306.918 Q2232.64 313.284 2229.47 316.918 Q2226.3 320.529 2220.75 320.529 Q2215.17 320.529 2212 316.918 Q2208.85 313.284 2208.85 306.918 Q2208.85 300.529 2212 296.918 Q2215.17 293.307 2220.75 293.307 Z" fill="#000000" fill-rule="nonzero" fill-opacity="1" /><path clip-path="url(#clip250)" d="M2254.73 297.913 Q2254.01 297.497 2253.15 297.311 Q2252.32 297.103 2251.3 297.103 Q2247.69 297.103 2245.75 299.464 Q2243.82 301.802 2243.82 306.2 L2243.82 319.858 L2239.54 319.858 L2239.54 293.932 L2243.82 293.932 L2243.82 297.96 Q2245.17 295.598 2247.32 294.464 Q2249.47 293.307 2252.55 293.307 Q2252.99 293.307 2253.52 293.376 Q2254.06 293.423 2254.7 293.538 L2254.73 297.913 Z" fill="#000000" fill-rule="nonzero" fill-opacity="1" /></svg>
