<?xml version="1.0" encoding="utf-8"?>
<svg xmlns="http://www.w3.org/2000/svg" xmlns:xlink="http://www.w3.org/1999/xlink" width="600" height="400" viewBox="0 0 2400 1600">
<defs>
  <clipPath id="clip090">
    <rect x="0" y="0" width="2400" height="1600"/>
  </clipPath>
</defs>
<path clip-path="url(#clip090)" d="M0 1600 L2400 1600 L2400 0 L0 0  Z" fill="#ffffff" fill-rule="evenodd" fill-opacity="1"/>
<defs>
  <clipPath id="clip091">
    <rect x="480" y="0" width="1681" height="1600"/>
  </clipPath>
</defs>
<path clip-path="url(#clip090)" d="M147.108 1486.45 L2352.76 1486.45 L2352.76 47.2441 L147.108 47.2441  Z" fill="#ffffff" fill-rule="evenodd" fill-opacity="1"/>
<defs>
  <clipPath id="clip092">
    <rect x="147" y="47" width="2207" height="1440"/>
  </clipPath>
</defs>
<polyline clip-path="url(#clip092)" style="stroke:#000000; stroke-linecap:round; stroke-linejoin:round; stroke-width:2; stroke-opacity:0.1; fill:none" points="199.075,1486.45 199.075,47.2441 "/>
<polyline clip-path="url(#clip092)" style="stroke:#000000; stroke-linecap:round; stroke-linejoin:round; stroke-width:2; stroke-opacity:0.1; fill:none" points="721.889,1486.45 721.889,47.2441 "/>
<polyline clip-path="url(#clip092)" style="stroke:#000000; stroke-linecap:round; stroke-linejoin:round; stroke-width:2; stroke-opacity:0.1; fill:none" points="1244.7,1486.45 1244.7,47.2441 "/>
<polyline clip-path="url(#clip092)" style="stroke:#000000; stroke-linecap:round; stroke-linejoin:round; stroke-width:2; stroke-opacity:0.1; fill:none" points="1767.52,1486.45 1767.52,47.2441 "/>
<polyline clip-path="url(#clip092)" style="stroke:#000000; stroke-linecap:round; stroke-linejoin:round; stroke-width:2; stroke-opacity:0.1; fill:none" points="2290.33,1486.45 2290.33,47.2441 "/>
<polyline clip-path="url(#clip090)" style="stroke:#000000; stroke-linecap:round; stroke-linejoin:round; stroke-width:4; stroke-opacity:1; fill:none" points="147.108,1486.45 2352.76,1486.45 "/>
<polyline clip-path="url(#clip090)" style="stroke:#000000; stroke-linecap:round; stroke-linejoin:round; stroke-width:4; stroke-opacity:1; fill:none" points="199.075,1486.45 199.075,1467.55 "/>
<polyline clip-path="url(#clip090)" style="stroke:#000000; stroke-linecap:round; stroke-linejoin:round; stroke-width:4; stroke-opacity:1; fill:none" points="721.889,1486.45 721.889,1467.55 "/>
<polyline clip-path="url(#clip090)" style="stroke:#000000; stroke-linecap:round; stroke-linejoin:round; stroke-width:4; stroke-opacity:1; fill:none" points="1244.7,1486.45 1244.7,1467.55 "/>
<polyline clip-path="url(#clip090)" style="stroke:#000000; stroke-linecap:round; stroke-linejoin:round; stroke-width:4; stroke-opacity:1; fill:none" points="1767.52,1486.45 1767.52,1467.55 "/>
<polyline clip-path="url(#clip090)" style="stroke:#000000; stroke-linecap:round; stroke-linejoin:round; stroke-width:4; stroke-opacity:1; fill:none" points="2290.33,1486.45 2290.33,1467.55 "/>
<path clip-path="url(#clip090)" d="M199.075 1517.37 Q195.464 1517.37 193.635 1520.93 Q191.83 1524.47 191.83 1531.6 Q191.83 1538.71 193.635 1542.27 Q195.464 1545.82 199.075 1545.82 Q202.71 1545.82 204.515 1542.27 Q206.344 1538.71 206.344 1531.6 Q206.344 1524.47 204.515 1520.93 Q202.71 1517.37 199.075 1517.37 M199.075 1513.66 Q204.885 1513.66 207.941 1518.27 Q211.02 1522.85 211.02 1531.6 Q211.02 1540.33 207.941 1544.94 Q204.885 1549.52 199.075 1549.52 Q193.265 1549.52 190.186 1544.94 Q187.131 1540.33 187.131 1531.6 Q187.131 1522.85 190.186 1518.27 Q193.265 1513.66 199.075 1513.66 Z" fill="#000000" fill-rule="nonzero" fill-opacity="1" /><path clip-path="url(#clip090)" d="M696.589 1514.29 L714.945 1514.29 L714.945 1518.22 L700.871 1518.22 L700.871 1526.7 Q701.89 1526.35 702.908 1526.19 Q703.927 1526 704.945 1526 Q710.732 1526 714.112 1529.17 Q717.491 1532.34 717.491 1537.76 Q717.491 1543.34 714.019 1546.44 Q710.547 1549.52 704.227 1549.52 Q702.052 1549.52 699.783 1549.15 Q697.538 1548.78 695.13 1548.04 L695.13 1543.34 Q697.214 1544.47 699.436 1545.03 Q701.658 1545.58 704.135 1545.58 Q708.14 1545.58 710.477 1543.48 Q712.815 1541.37 712.815 1537.76 Q712.815 1534.15 710.477 1532.04 Q708.14 1529.94 704.135 1529.94 Q702.26 1529.94 700.385 1530.35 Q698.533 1530.77 696.589 1531.65 L696.589 1514.29 Z" fill="#000000" fill-rule="nonzero" fill-opacity="1" /><path clip-path="url(#clip090)" d="M736.704 1517.37 Q733.093 1517.37 731.264 1520.93 Q729.459 1524.47 729.459 1531.6 Q729.459 1538.71 731.264 1542.27 Q733.093 1545.82 736.704 1545.82 Q740.338 1545.82 742.144 1542.27 Q743.973 1538.71 743.973 1531.6 Q743.973 1524.47 742.144 1520.93 Q740.338 1517.37 736.704 1517.37 M736.704 1513.66 Q742.514 1513.66 745.57 1518.27 Q748.649 1522.85 748.649 1531.6 Q748.649 1540.33 745.57 1544.94 Q742.514 1549.52 736.704 1549.52 Q730.894 1549.52 727.815 1544.94 Q724.76 1540.33 724.76 1531.6 Q724.76 1522.85 727.815 1518.27 Q730.894 1513.66 736.704 1513.66 Z" fill="#000000" fill-rule="nonzero" fill-opacity="1" /><path clip-path="url(#clip090)" d="M1204.31 1544.91 L1211.95 1544.91 L1211.95 1518.55 L1203.64 1520.21 L1203.64 1515.95 L1211.9 1514.29 L1216.58 1514.29 L1216.58 1544.91 L1224.22 1544.91 L1224.22 1548.85 L1204.31 1548.85 L1204.31 1544.91 Z" fill="#000000" fill-rule="nonzero" fill-opacity="1" /><path clip-path="url(#clip090)" d="M1243.66 1517.37 Q1240.05 1517.37 1238.22 1520.93 Q1236.42 1524.47 1236.42 1531.6 Q1236.42 1538.71 1238.22 1542.27 Q1240.05 1545.82 1243.66 1545.82 Q1247.3 1545.82 1249.1 1542.27 Q1250.93 1538.71 1250.93 1531.6 Q1250.93 1524.47 1249.1 1520.93 Q1247.3 1517.37 1243.66 1517.37 M1243.66 1513.66 Q1249.47 1513.66 1252.53 1518.27 Q1255.61 1522.85 1255.61 1531.6 Q1255.61 1540.33 1252.53 1544.94 Q1249.47 1549.52 1243.66 1549.52 Q1237.85 1549.52 1234.77 1544.94 Q1231.72 1540.33 1231.72 1531.6 Q1231.72 1522.85 1234.77 1518.27 Q1237.85 1513.66 1243.66 1513.66 Z" fill="#000000" fill-rule="nonzero" fill-opacity="1" /><path clip-path="url(#clip090)" d="M1273.82 1517.37 Q1270.21 1517.37 1268.38 1520.93 Q1266.58 1524.47 1266.58 1531.6 Q1266.58 1538.71 1268.38 1542.27 Q1270.21 1545.82 1273.82 1545.82 Q1277.46 1545.82 1279.26 1542.27 Q1281.09 1538.71 1281.09 1531.6 Q1281.09 1524.47 1279.26 1520.93 Q1277.46 1517.37 1273.82 1517.37 M1273.82 1513.66 Q1279.63 1513.66 1282.69 1518.27 Q1285.77 1522.85 1285.77 1531.6 Q1285.77 1540.33 1282.69 1544.94 Q1279.63 1549.52 1273.82 1549.52 Q1268.01 1549.52 1264.93 1544.94 Q1261.88 1540.33 1261.88 1531.6 Q1261.88 1522.85 1264.93 1518.27 Q1268.01 1513.66 1273.82 1513.66 Z" fill="#000000" fill-rule="nonzero" fill-opacity="1" /><path clip-path="url(#clip090)" d="M1727.12 1544.91 L1734.76 1544.91 L1734.76 1518.55 L1726.45 1520.21 L1726.45 1515.95 L1734.72 1514.29 L1739.39 1514.29 L1739.39 1544.91 L1747.03 1544.91 L1747.03 1548.85 L1727.12 1548.85 L1727.12 1544.91 Z" fill="#000000" fill-rule="nonzero" fill-opacity="1" /><path clip-path="url(#clip090)" d="M1756.52 1514.29 L1774.88 1514.29 L1774.88 1518.22 L1760.8 1518.22 L1760.8 1526.7 Q1761.82 1526.35 1762.84 1526.19 Q1763.86 1526 1764.88 1526 Q1770.67 1526 1774.05 1529.17 Q1777.43 1532.34 1777.43 1537.76 Q1777.43 1543.34 1773.95 1546.44 Q1770.48 1549.52 1764.16 1549.52 Q1761.99 1549.52 1759.72 1549.15 Q1757.47 1548.78 1755.06 1548.04 L1755.06 1543.34 Q1757.15 1544.47 1759.37 1545.03 Q1761.59 1545.58 1764.07 1545.58 Q1768.07 1545.58 1770.41 1543.48 Q1772.75 1541.37 1772.75 1537.76 Q1772.75 1534.15 1770.41 1532.04 Q1768.07 1529.94 1764.07 1529.94 Q1762.19 1529.94 1760.32 1530.35 Q1758.47 1530.77 1756.52 1531.65 L1756.52 1514.29 Z" fill="#000000" fill-rule="nonzero" fill-opacity="1" /><path clip-path="url(#clip090)" d="M1796.64 1517.37 Q1793.03 1517.37 1791.2 1520.93 Q1789.39 1524.47 1789.39 1531.6 Q1789.39 1538.71 1791.2 1542.27 Q1793.03 1545.82 1796.64 1545.82 Q1800.27 1545.82 1802.08 1542.27 Q1803.91 1538.71 1803.91 1531.6 Q1803.91 1524.47 1802.08 1520.93 Q1800.27 1517.37 1796.64 1517.37 M1796.64 1513.66 Q1802.45 1513.66 1805.5 1518.27 Q1808.58 1522.85 1808.58 1531.6 Q1808.58 1540.33 1805.5 1544.94 Q1802.45 1549.52 1796.64 1549.52 Q1790.83 1549.52 1787.75 1544.94 Q1784.69 1540.33 1784.69 1531.6 Q1784.69 1522.85 1787.75 1518.27 Q1790.83 1513.66 1796.64 1513.66 Z" fill="#000000" fill-rule="nonzero" fill-opacity="1" /><path clip-path="url(#clip090)" d="M2254.02 1544.91 L2270.34 1544.91 L2270.34 1548.85 L2248.4 1548.85 L2248.4 1544.91 Q2251.06 1542.16 2255.64 1537.53 Q2260.25 1532.88 2261.43 1531.53 Q2263.68 1529.01 2264.56 1527.27 Q2265.46 1525.51 2265.46 1523.82 Q2265.46 1521.07 2263.51 1519.33 Q2261.59 1517.6 2258.49 1517.6 Q2256.29 1517.6 2253.84 1518.36 Q2251.41 1519.13 2248.63 1520.68 L2248.63 1515.95 Q2251.45 1514.82 2253.91 1514.24 Q2256.36 1513.66 2258.4 1513.66 Q2263.77 1513.66 2266.96 1516.35 Q2270.16 1519.03 2270.16 1523.52 Q2270.16 1525.65 2269.35 1527.57 Q2268.56 1529.47 2266.45 1532.07 Q2265.88 1532.74 2262.77 1535.95 Q2259.67 1539.15 2254.02 1544.91 Z" fill="#000000" fill-rule="nonzero" fill-opacity="1" /><path clip-path="url(#clip090)" d="M2290.16 1517.37 Q2286.55 1517.37 2284.72 1520.93 Q2282.91 1524.47 2282.91 1531.6 Q2282.91 1538.71 2284.72 1542.27 Q2286.55 1545.82 2290.16 1545.82 Q2293.79 1545.82 2295.6 1542.27 Q2297.43 1538.71 2297.43 1531.6 Q2297.43 1524.47 2295.6 1520.93 Q2293.79 1517.37 2290.16 1517.37 M2290.16 1513.66 Q2295.97 1513.66 2299.02 1518.27 Q2302.1 1522.85 2302.1 1531.6 Q2302.1 1540.33 2299.02 1544.94 Q2295.97 1549.52 2290.16 1549.52 Q2284.35 1549.52 2281.27 1544.94 Q2278.21 1540.33 2278.21 1531.6 Q2278.21 1522.85 2281.27 1518.27 Q2284.35 1513.66 2290.16 1513.66 Z" fill="#000000" fill-rule="nonzero" fill-opacity="1" /><path clip-path="url(#clip090)" d="M2320.32 1517.37 Q2316.71 1517.37 2314.88 1520.93 Q2313.07 1524.47 2313.07 1531.6 Q2313.07 1538.71 2314.88 1542.27 Q2316.71 1545.82 2320.32 1545.82 Q2323.95 1545.82 2325.76 1542.27 Q2327.59 1538.71 2327.59 1531.6 Q2327.59 1524.47 2325.76 1520.93 Q2323.95 1517.37 2320.32 1517.37 M2320.32 1513.66 Q2326.13 1513.66 2329.19 1518.27 Q2332.26 1522.85 2332.26 1531.6 Q2332.26 1540.33 2329.19 1544.94 Q2326.13 1549.52 2320.32 1549.52 Q2314.51 1549.52 2311.43 1544.94 Q2308.38 1540.33 2308.38 1531.6 Q2308.38 1522.85 2311.43 1518.27 Q2314.51 1513.66 2320.32 1513.66 Z" fill="#000000" fill-rule="nonzero" fill-opacity="1" /><polyline clip-path="url(#clip092)" style="stroke:#000000; stroke-linecap:round; stroke-linejoin:round; stroke-width:2; stroke-opacity:0.1; fill:none" points="147.108,1289.15 2352.76,1289.15 "/>
<polyline clip-path="url(#clip092)" style="stroke:#000000; stroke-linecap:round; stroke-linejoin:round; stroke-width:2; stroke-opacity:0.1; fill:none" points="147.108,944.791 2352.76,944.791 "/>
<polyline clip-path="url(#clip092)" style="stroke:#000000; stroke-linecap:round; stroke-linejoin:round; stroke-width:2; stroke-opacity:0.1; fill:none" points="147.108,600.428 2352.76,600.428 "/>
<polyline clip-path="url(#clip092)" style="stroke:#000000; stroke-linecap:round; stroke-linejoin:round; stroke-width:2; stroke-opacity:0.1; fill:none" points="147.108,256.064 2352.76,256.064 "/>
<polyline clip-path="url(#clip090)" style="stroke:#000000; stroke-linecap:round; stroke-linejoin:round; stroke-width:4; stroke-opacity:1; fill:none" points="147.108,1486.45 147.108,47.2441 "/>
<polyline clip-path="url(#clip090)" style="stroke:#000000; stroke-linecap:round; stroke-linejoin:round; stroke-width:4; stroke-opacity:1; fill:none" points="147.108,1289.15 166.005,1289.15 "/>
<polyline clip-path="url(#clip090)" style="stroke:#000000; stroke-linecap:round; stroke-linejoin:round; stroke-width:4; stroke-opacity:1; fill:none" points="147.108,944.791 166.005,944.791 "/>
<polyline clip-path="url(#clip090)" style="stroke:#000000; stroke-linecap:round; stroke-linejoin:round; stroke-width:4; stroke-opacity:1; fill:none" points="147.108,600.428 166.005,600.428 "/>
<polyline clip-path="url(#clip090)" style="stroke:#000000; stroke-linecap:round; stroke-linejoin:round; stroke-width:4; stroke-opacity:1; fill:none" points="147.108,256.064 166.005,256.064 "/>
<path clip-path="url(#clip090)" d="M50.9921 1289.61 L80.6679 1289.61 L80.6679 1293.54 L50.9921 1293.54 L50.9921 1289.61 Z" fill="#000000" fill-rule="nonzero" fill-opacity="1" /><path clip-path="url(#clip090)" d="M94.7882 1302.5 L111.108 1302.5 L111.108 1306.43 L89.1632 1306.43 L89.1632 1302.5 Q91.8252 1299.74 96.4085 1295.12 Q101.015 1290.46 102.196 1289.12 Q104.441 1286.6 105.321 1284.86 Q106.223 1283.1 106.223 1281.41 Q106.223 1278.66 104.279 1276.92 Q102.358 1275.18 99.2558 1275.18 Q97.0567 1275.18 94.603 1275.95 Q92.1725 1276.71 89.3947 1278.26 L89.3947 1273.54 Q92.2188 1272.41 94.6724 1271.83 Q97.1261 1271.25 99.1632 1271.25 Q104.534 1271.25 107.728 1273.93 Q110.922 1276.62 110.922 1281.11 Q110.922 1283.24 110.112 1285.16 Q109.325 1287.06 107.219 1289.65 Q106.64 1290.32 103.538 1293.54 Q100.436 1296.74 94.7882 1302.5 Z" fill="#000000" fill-rule="nonzero" fill-opacity="1" /><path clip-path="url(#clip090)" d="M99.1632 930.59 Q95.5521 930.59 93.7234 934.155 Q91.9178 937.696 91.9178 944.826 Q91.9178 951.932 93.7234 955.497 Q95.5521 959.039 99.1632 959.039 Q102.797 959.039 104.603 955.497 Q106.432 951.932 106.432 944.826 Q106.432 937.696 104.603 934.155 Q102.797 930.59 99.1632 930.59 M99.1632 926.886 Q104.973 926.886 108.029 931.493 Q111.108 936.076 111.108 944.826 Q111.108 953.553 108.029 958.159 Q104.973 962.742 99.1632 962.742 Q93.353 962.742 90.2743 958.159 Q87.2188 953.553 87.2188 944.826 Q87.2188 936.076 90.2743 931.493 Q93.353 926.886 99.1632 926.886 Z" fill="#000000" fill-rule="nonzero" fill-opacity="1" /><path clip-path="url(#clip090)" d="M94.7882 613.773 L111.108 613.773 L111.108 617.708 L89.1632 617.708 L89.1632 613.773 Q91.8252 611.018 96.4085 606.388 Q101.015 601.736 102.196 600.393 Q104.441 597.87 105.321 596.134 Q106.223 594.374 106.223 592.685 Q106.223 589.93 104.279 588.194 Q102.358 586.458 99.2558 586.458 Q97.0567 586.458 94.603 587.222 Q92.1725 587.986 89.3947 589.537 L89.3947 584.814 Q92.2188 583.68 94.6724 583.101 Q97.1261 582.523 99.1632 582.523 Q104.534 582.523 107.728 585.208 Q110.922 587.893 110.922 592.384 Q110.922 594.513 110.112 596.435 Q109.325 598.333 107.219 600.925 Q106.64 601.597 103.538 604.814 Q100.436 608.009 94.7882 613.773 Z" fill="#000000" fill-rule="nonzero" fill-opacity="1" /><path clip-path="url(#clip090)" d="M101.524 242.858 L89.7188 261.307 L101.524 261.307 L101.524 242.858 M100.297 238.784 L106.177 238.784 L106.177 261.307 L111.108 261.307 L111.108 265.196 L106.177 265.196 L106.177 273.344 L101.524 273.344 L101.524 265.196 L85.9225 265.196 L85.9225 260.682 L100.297 238.784 Z" fill="#000000" fill-rule="nonzero" fill-opacity="1" /><polyline clip-path="url(#clip092)" style="stroke:#009af9; stroke-linecap:round; stroke-linejoin:round; stroke-width:4; stroke-opacity:1; fill:none" points="209.532,944.729 219.988,944.682 230.444,944.614 240.9,944.523 251.357,944.404 261.813,944.255 272.269,944.071 282.726,943.85 293.182,943.588 303.638,943.28 314.094,942.925 324.551,942.518 335.007,942.056 345.463,941.532 355.92,940.94 366.376,940.273 376.832,939.523 387.288,938.683 397.745,937.747 408.201,936.708 418.657,935.558 429.114,934.29 439.57,932.898 450.026,931.374 460.482,929.711 470.939,927.902 481.395,925.941 491.851,923.819 502.307,921.531 512.764,919.071 523.22,916.437 533.676,913.631 544.133,910.665 554.589,907.544 565.045,904.276 575.501,900.868 585.958,897.326 596.414,893.657 606.87,889.869 617.327,885.967 627.783,881.96 638.239,877.854 648.695,873.657 659.152,869.374 669.608,865.011 680.064,860.579 690.521,856.093 700.977,851.575 711.433,847.046 721.889,842.526 732.346,838.038 742.802,833.603 753.258,829.242 763.715,824.977 774.171,820.83 784.627,816.821 795.083,812.972 805.54,809.305 815.996,805.842 826.452,802.603 836.909,799.61 847.365,796.885 857.821,794.446 868.277,792.309 878.734,790.479 889.19,788.954 899.646,787.729 910.103,786.806 920.559,786.185 931.015,785.864 941.471,785.844 951.928,786.123 962.384,786.701 972.84,787.577 983.297,788.751 993.753,790.221 1004.21,791.988 1014.67,794.055 1025.12,796.418 1035.58,799.066 1046.03,801.982 1056.49,805.143 1066.95,808.531 1077.4,812.123 1087.86,815.899 1098.32,819.838 1108.77,823.919 1119.23,828.121 1129.68,832.422 1140.14,836.803 1150.6,841.241 1161.05,845.717 1171.51,850.208 1181.97,854.694 1192.42,859.155 1202.88,863.57 1213.33,867.923 1223.79,872.203 1234.25,876.403 1244.7,880.52 1255.16,884.544 1265.62,888.468 1276.07,892.287 1286.53,895.991 1296.98,899.574 1307.44,903.029 1317.9,906.349 1328.35,909.525 1338.81,912.552 1349.27,915.423 1359.72,918.127 1370.18,920.657 1380.64,923.013 1391.09,925.199 1401.55,927.223 1412,929.09 1422.46,930.808 1432.92,932.384 1443.37,933.825 1453.83,935.138 1464.29,936.331 1474.74,937.41 1485.2,938.382 1495.65,939.255 1506.11,940.036 1516.57,940.731 1527.02,941.349 1537.48,941.896 1547.94,942.378 1558.39,942.803 1568.85,943.175 1579.3,943.497 1589.76,943.774 1600.22,944.007 1610.67,944.202 1621.13,944.362 1631.59,944.49 1642.04,944.589 1652.5,944.664 1662.95,944.717 1673.41,944.753 1683.87,944.774 1694.32,944.785 1704.78,944.789 1715.24,944.791 1725.69,944.791 1736.15,944.791 1746.61,944.791 1757.06,944.791 1767.52,944.791 1777.97,944.791 1788.43,944.791 1798.89,944.791 1809.34,944.791 1819.8,944.791 1830.26,944.791 1840.71,944.791 1851.17,944.791 1861.62,944.791 1872.08,944.791 1882.54,944.791 1892.99,944.791 1903.45,944.791 1913.91,944.791 1924.36,944.791 1934.82,944.791 1945.27,944.791 1955.73,944.791 1966.19,944.791 1976.64,944.791 1987.1,944.791 1997.56,944.791 2008.01,944.791 2018.47,944.791 2028.92,944.791 2039.38,944.791 2049.84,944.791 2060.29,944.791 2070.75,944.791 2081.21,944.791 2091.66,944.791 2102.12,944.791 2112.58,944.791 2123.03,944.791 2133.49,944.791 2143.94,944.791 2154.4,944.791 2164.86,944.791 2175.31,944.791 2185.77,944.791 2196.23,944.791 2206.68,944.791 2217.14,944.791 2227.59,944.791 2238.05,944.791 2248.51,944.791 2258.96,944.79 2269.42,944.787 2279.88,944.778 2290.33,944.76 "/>
<polyline clip-path="url(#clip092)" style="stroke:#e26f46; stroke-linecap:round; stroke-linejoin:round; stroke-width:4; stroke-opacity:1; fill:none" points="209.532,909.989 219.988,908.803 230.444,907.613 240.9,906.422 251.357,905.231 261.813,904.042 272.269,902.858 282.726,901.678 293.182,900.506 303.638,899.342 314.094,898.188 324.551,897.045 335.007,895.914 345.463,894.796 355.92,893.692 366.376,892.603 376.832,891.529 387.288,890.472 397.745,889.431 408.201,888.408 418.657,887.403 429.114,886.415 439.57,885.446 450.026,884.495 460.482,883.562 470.939,882.648 481.395,881.752 491.851,880.874 502.307,880.015 512.764,879.175 523.22,878.352 533.676,877.548 544.133,876.763 554.589,875.996 565.045,875.247 575.501,874.517 585.958,873.805 596.414,873.111 606.87,872.436 617.327,871.78 627.783,871.142 638.239,870.524 648.695,869.924 659.152,869.343 669.608,868.781 680.064,868.239 690.521,867.716 700.977,867.213 711.433,866.73 721.889,866.268 732.346,865.826 742.802,865.405 753.258,865.005 763.715,864.626 774.171,864.269 784.627,863.934 795.083,863.622 805.54,863.332 815.996,863.064 826.452,862.82 836.909,862.598 847.365,862.4 857.821,862.225 868.277,862.073 878.734,861.944 889.19,861.839 899.646,861.756 910.103,861.696 920.559,861.659 931.015,861.644 941.471,861.652 951.928,861.681 962.384,861.732 972.84,861.804 983.297,861.897 993.753,862.011 1004.21,862.145 1014.67,862.3 1025.12,862.475 1035.58,862.669 1046.03,862.883 1056.49,863.117 1066.95,863.37 1077.4,863.643 1087.86,863.934 1098.32,864.245 1108.77,864.575 1119.23,864.924 1129.68,865.292 1140.14,865.68 1150.6,866.087 1161.05,866.513 1171.51,866.959 1181.97,867.424 1192.42,867.91 1202.88,868.415 1213.33,868.94 1223.79,869.485 1234.25,870.05 1244.7,870.636 1255.16,871.241 1265.62,871.867 1276.07,872.512 1286.53,873.178 1296.98,873.864 1307.44,874.57 1317.9,875.296 1328.35,876.042 1338.81,876.809 1349.27,877.595 1359.72,878.401 1370.18,879.226 1380.64,880.072 1391.09,880.937 1401.55,881.822 1412,882.726 1422.46,883.651 1432.92,884.595 1443.37,885.558 1453.83,886.541 1464.29,887.542 1474.74,888.563 1485.2,889.601 1495.65,890.657 1506.11,891.73 1516.57,892.82 1527.02,893.925 1537.48,895.044 1547.94,896.177 1558.39,897.322 1568.85,898.479 1579.3,899.645 1589.76,900.82 1600.22,902.002 1610.67,903.19 1621.13,904.382 1631.59,905.576 1642.04,906.771 1652.5,907.964 1662.95,909.155 1673.41,910.34 1683.87,911.518 1694.32,912.687 1704.78,913.844 1715.24,914.988 1725.69,916.116 1736.15,917.226 1746.61,918.316 1757.06,919.382 1767.52,920.423 1777.97,921.436 1788.43,922.418 1798.89,923.367 1809.34,924.281 1819.8,925.157 1830.26,925.992 1840.71,926.786 1851.17,927.534 1861.62,928.236 1872.08,928.889 1882.54,929.492 1892.99,930.042 1903.45,930.539 1913.91,930.98 1924.36,931.364 1934.82,931.691 1945.27,931.96 1955.73,932.169 1966.19,932.318 1976.64,932.406 1987.1,932.434 1997.56,932.4 2008.01,932.306 2018.47,932.151 2028.92,931.935 2039.38,931.659 2049.84,931.324 2060.29,930.93 2070.75,930.479 2081.21,929.971 2091.66,929.408 2102.12,928.792 2112.58,928.125 2123.03,927.408 2133.49,926.643 2143.94,925.833 2154.4,924.981 2164.86,924.087 2175.31,923.156 2185.77,922.189 2196.23,921.19 2206.68,920.161 2217.14,919.104 2227.59,918.023 2238.05,916.921 2248.51,915.799 2258.96,914.661 2269.42,913.508 2279.88,912.344 2290.33,911.17 "/>
<polyline clip-path="url(#clip092)" style="stroke:#3da44d; stroke-linecap:round; stroke-linejoin:round; stroke-width:4; stroke-opacity:1; fill:none" points="209.532,957.149 219.988,949.663 230.444,951.595 240.9,951.569 251.357,950.905 261.813,941.634 272.269,939.798 282.726,943.531 293.182,939.834 303.638,938.577 314.094,930.627 324.551,930.195 335.007,926.367 345.463,923.974 355.92,924.076 366.376,919.77 376.832,914.195 387.288,917.724 397.745,910.723 408.201,912.381 418.657,904.176 429.114,907.497 439.57,899.197 450.026,898.326 460.482,891.876 470.939,889.154 481.395,888.286 491.851,883.826 502.307,878.859 512.764,879.863 523.22,873.748 533.676,874.384 544.133,872.701 554.589,871.322 565.045,864.993 575.501,865.925 585.958,862.193 596.414,857.089 606.87,860.434 617.327,860.634 627.783,854.63 638.239,855.185 648.695,850.689 659.152,849.531 669.608,846.003 680.064,845.151 690.521,839.588 700.977,839.149 711.433,837.357 721.889,834.215 732.346,834.161 742.802,832.132 753.258,831.46 763.715,830.299 774.171,828.959 784.627,829.488 795.083,827.274 805.54,825.692 815.996,826.329 826.452,830.444 836.909,823.732 847.365,826.923 857.821,827.009 868.277,826.661 878.734,824.635 889.19,819.559 899.646,818.352 910.103,819.149 920.559,823.138 931.015,819.5 941.471,818.146 951.928,821.368 962.384,821.273 972.84,820.239 983.297,819.126 993.753,823.951 1004.21,823.818 1014.67,824.516 1025.12,823.29 1035.58,831.034 1046.03,824.14 1056.49,824.881 1066.95,826.146 1077.4,828.006 1087.86,830.281 1098.32,828.045 1108.77,830.615 1119.23,832.628 1129.68,832.905 1140.14,834.204 1150.6,838.699 1161.05,838.258 1171.51,835.405 1181.97,842.863 1192.42,847.21 1202.88,843.645 1213.33,841.371 1223.79,843.423 1234.25,848.286 1244.7,850.938 1255.16,856.47 1265.62,858.093 1276.07,858.973 1286.53,861.148 1296.98,861.398 1307.44,866.127 1317.9,869.747 1328.35,872.297 1338.81,872.884 1349.27,877.609 1359.72,878.465 1370.18,879.75 1380.64,885.295 1391.09,886.896 1401.55,892.232 1412,892.712 1422.46,892.913 1432.92,896.934 1443.37,900.267 1453.83,907.61 1464.29,902.158 1474.74,909.948 1485.2,913.713 1495.65,914.832 1506.11,917.438 1516.57,924.899 1527.02,922.067 1537.48,923.022 1547.94,926.893 1558.39,930.391 1568.85,933.581 1579.3,943.653 1589.76,940.664 1600.22,940.064 1610.67,943.669 1621.13,947.554 1631.59,953.992 1642.04,955.988 1652.5,954.985 1662.95,952.031 1673.41,959.681 1683.87,959.294 1694.32,963.827 1704.78,960.828 1715.24,960.019 1725.69,962.581 1736.15,959.836 1746.61,962.582 1757.06,965.821 1767.52,963.607 1777.97,965.52 1788.43,965.091 1798.89,969.492 1809.34,964.515 1819.8,966.264 1830.26,969.203 1840.71,969.056 1851.17,966.862 1861.62,966.46 1872.08,968.877 1882.54,967.205 1892.99,968.358 1903.45,967.469 1913.91,969.955 1924.36,966.89 1934.82,967.637 1945.27,967.149 1955.73,964.346 1966.19,965.962 1976.64,969.454 1987.1,964.7 1997.56,963.866 2008.01,968.08 2018.47,967.899 2028.92,966.056 2039.38,967.673 2049.84,968.877 2060.29,968.331 2070.75,963.576 2081.21,970.356 2091.66,967.521 2102.12,969.175 2112.58,965.986 2123.03,970.28 2133.49,965.94 2143.94,964.927 2154.4,967.984 2164.86,968.289 2175.31,966.241 2185.77,965.707 2196.23,968.905 2206.68,964.586 2217.14,968.457 2227.59,962.702 2238.05,965.166 2248.51,962.22 2258.96,959.229 2269.42,961.826 2279.88,961.034 2290.33,957.277 "/>
<polyline clip-path="url(#clip092)" style="stroke:#c271d2; stroke-linecap:round; stroke-linejoin:round; stroke-width:4; stroke-opacity:1; fill:none" points="209.532,973.988 219.988,924.115 230.444,883.208 240.9,851.049 251.357,807.169 261.813,781.087 272.269,671.824 282.726,678.279 293.182,661.251 303.638,592.649 314.094,525.491 324.551,549.051 335.007,461.067 345.463,455.118 355.92,380.951 366.376,320.874 376.832,315.309 387.288,303.53 397.745,260.912 408.201,264.123 418.657,199.226 429.114,161.261 439.57,175.71 450.026,165.065 460.482,180.26 470.939,145.195 481.395,116.652 491.851,122.439 502.307,111.706 512.764,119.532 523.22,120.374 533.676,131.017 544.133,171.54 554.589,159.955 565.045,213.861 575.501,233.303 585.958,265.398 596.414,258.17 606.87,308.152 617.327,353.552 627.783,354.768 638.239,409.361 648.695,422.533 659.152,477.982 669.608,487.299 680.064,592.629 690.521,677.029 700.977,675.765 711.433,723.651 721.889,771.763 732.346,832.085 742.802,911.811 753.258,907.514 763.715,945 774.171,1057.54 784.627,1038.25 795.083,1100.42 805.54,1132.27 815.996,1224.92 826.452,1209.09 836.909,1255.26 847.365,1280.44 857.821,1298.25 868.277,1359.05 878.734,1365.23 889.19,1412.67 899.646,1400.13 910.103,1445.72 920.559,1424.13 931.015,1394.88 941.471,1396.46 951.928,1411.56 962.384,1414.68 972.84,1430.28 983.297,1374.11 993.753,1359.91 1004.21,1321.02 1014.67,1327.73 1025.12,1274.1 1035.58,1271.9 1046.03,1276.11 1056.49,1173.33 1066.95,1196.32 1077.4,1140.02 1087.86,1061.32 1098.32,1008.61 1108.77,970.463 1119.23,963.11 1129.68,917.78 1140.14,825.772 1150.6,796.549 1161.05,752.971 1171.51,701.991 1181.97,655.831 1192.42,558.698 1202.88,561.774 1213.33,479.219 1223.79,430.185 1234.25,350.663 1244.7,367.125 1255.16,340.639 1265.62,280.474 1276.07,240.724 1286.53,217.411 1296.98,223.033 1307.44,222.64 1317.9,176.3 1328.35,105.486 1338.81,104.029 1349.27,162.577 1359.72,89.8331 1370.18,108.496 1380.64,100.227 1391.09,118.482 1401.55,87.9763 1412,123.928 1422.46,110.035 1432.92,149.662 1443.37,136.874 1453.83,192.267 1464.29,234.329 1474.74,248.731 1485.2,266.528 1495.65,351.115 1506.11,352.624 1516.57,408.687 1527.02,443.278 1537.48,471.486 1547.94,490.511 1558.39,548.286 1568.85,566.996 1579.3,628.126 1589.76,652.733 1600.22,691.377 1610.67,730.449 1621.13,739.608 1631.59,829.11 1642.04,813.05 1652.5,906.763 1662.95,949.282 1673.41,949.66 1683.87,984.446 1694.32,1027.47 1704.78,1067.69 1715.24,1080.03 1725.69,1094.64 1736.15,1146.16 1746.61,1180.21 1757.06,1195.12 1767.52,1228.16 1777.97,1248.17 1788.43,1250.38 1798.89,1270.82 1809.34,1311.67 1819.8,1215.71 1830.26,1295.66 1840.71,1256.75 1851.17,1334.01 1861.62,1314.05 1872.08,1381.65 1882.54,1352.48 1892.99,1359.09 1903.45,1323.77 1913.91,1337.35 1924.36,1319.35 1934.82,1320.37 1945.27,1332.12 1955.73,1304.67 1966.19,1348.5 1976.64,1344.64 1987.1,1337.58 1997.56,1324.06 2008.01,1293.21 2018.47,1373.93 2028.92,1336.97 2039.38,1336.37 2049.84,1337.21 2060.29,1311.26 2070.75,1312.6 2081.21,1328.55 2091.66,1354.67 2102.12,1321.65 2112.58,1292.53 2123.03,1283.26 2133.49,1274.33 2143.94,1263.95 2154.4,1277.06 2164.86,1281.69 2175.31,1239.44 2185.77,1259.08 2196.23,1178.82 2206.68,1212.91 2217.14,1198.73 2227.59,1113.1 2238.05,1151.37 2248.51,1128.54 2258.96,1066.73 2269.42,1064.05 2279.88,1042.38 2290.33,996.504 "/>
<path clip-path="url(#clip090)" d="M1441.36 354.418 L2279.23 354.418 L2279.23 95.2176 L1441.36 95.2176  Z" fill="#ffffff" fill-rule="evenodd" fill-opacity="1"/>
<polyline clip-path="url(#clip090)" style="stroke:#000000; stroke-linecap:round; stroke-linejoin:round; stroke-width:4; stroke-opacity:1; fill:none" points="1441.36,354.418 2279.23,354.418 2279.23,95.2176 1441.36,95.2176 1441.36,354.418 "/>
<polyline clip-path="url(#clip090)" style="stroke:#009af9; stroke-linecap:round; stroke-linejoin:round; stroke-width:4; stroke-opacity:1; fill:none" points="1465.87,147.058 1612.91,147.058 "/>
<path clip-path="url(#clip090)" d="M1637.42 129.778 L1642.09 129.778 L1642.09 164.338 L1637.42 164.338 L1637.42 129.778 Z" fill="#000000" fill-rule="nonzero" fill-opacity="1" /><path clip-path="url(#clip090)" d="M1671.4 143.389 Q1672.99 140.518 1675.22 139.153 Q1677.44 137.787 1680.45 137.787 Q1684.5 137.787 1686.7 140.634 Q1688.9 143.458 1688.9 148.689 L1688.9 164.338 L1684.61 164.338 L1684.61 148.828 Q1684.61 145.102 1683.29 143.296 Q1681.98 141.49 1679.27 141.49 Q1675.96 141.49 1674.04 143.69 Q1672.11 145.889 1672.11 149.685 L1672.11 164.338 L1667.83 164.338 L1667.83 148.828 Q1667.83 145.078 1666.51 143.296 Q1665.19 141.49 1662.44 141.49 Q1659.17 141.49 1657.25 143.713 Q1655.33 145.912 1655.33 149.685 L1655.33 164.338 L1651.05 164.338 L1651.05 138.412 L1655.33 138.412 L1655.33 142.44 Q1656.79 140.055 1658.83 138.921 Q1660.86 137.787 1663.67 137.787 Q1666.49 137.787 1668.46 139.222 Q1670.45 140.657 1671.4 143.389 Z" fill="#000000" fill-rule="nonzero" fill-opacity="1" /><path clip-path="url(#clip090)" d="M1701.51 160.449 L1701.51 174.199 L1697.23 174.199 L1697.23 138.412 L1701.51 138.412 L1701.51 142.347 Q1702.86 140.032 1704.89 138.921 Q1706.95 137.787 1709.8 137.787 Q1714.52 137.787 1717.46 141.537 Q1720.42 145.287 1720.42 151.398 Q1720.42 157.509 1717.46 161.259 Q1714.52 165.009 1709.8 165.009 Q1706.95 165.009 1704.89 163.898 Q1702.86 162.763 1701.51 160.449 M1716 151.398 Q1716 146.699 1714.06 144.037 Q1712.14 141.352 1708.76 141.352 Q1705.38 141.352 1703.43 144.037 Q1701.51 146.699 1701.51 151.398 Q1701.51 156.097 1703.43 158.782 Q1705.38 161.444 1708.76 161.444 Q1712.14 161.444 1714.06 158.782 Q1716 156.097 1716 151.398 Z" fill="#000000" fill-rule="nonzero" fill-opacity="1" /><path clip-path="url(#clip090)" d="M1727.48 128.319 L1731.74 128.319 L1731.74 164.338 L1727.48 164.338 L1727.48 128.319 Z" fill="#000000" fill-rule="nonzero" fill-opacity="1" /><path clip-path="url(#clip090)" d="M1740.66 138.412 L1744.92 138.412 L1744.92 164.338 L1740.66 164.338 L1740.66 138.412 M1740.66 128.319 L1744.92 128.319 L1744.92 133.713 L1740.66 133.713 L1740.66 128.319 Z" fill="#000000" fill-rule="nonzero" fill-opacity="1" /><path clip-path="url(#clip090)" d="M1772.48 139.407 L1772.48 143.389 Q1770.68 142.393 1768.85 141.907 Q1767.04 141.398 1765.19 141.398 Q1761.05 141.398 1758.76 144.037 Q1756.47 146.652 1756.47 151.398 Q1756.47 156.143 1758.76 158.782 Q1761.05 161.398 1765.19 161.398 Q1767.04 161.398 1768.85 160.912 Q1770.68 160.402 1772.48 159.407 L1772.48 163.342 Q1770.7 164.176 1768.78 164.592 Q1766.88 165.009 1764.73 165.009 Q1758.87 165.009 1755.42 161.328 Q1751.98 157.648 1751.98 151.398 Q1751.98 145.055 1755.45 141.421 Q1758.94 137.787 1765.01 137.787 Q1766.98 137.787 1768.85 138.203 Q1770.73 138.597 1772.48 139.407 Z" fill="#000000" fill-rule="nonzero" fill-opacity="1" /><path clip-path="url(#clip090)" d="M1779.89 138.412 L1784.15 138.412 L1784.15 164.338 L1779.89 164.338 L1779.89 138.412 M1779.89 128.319 L1784.15 128.319 L1784.15 133.713 L1779.89 133.713 L1779.89 128.319 Z" fill="#000000" fill-rule="nonzero" fill-opacity="1" /><path clip-path="url(#clip090)" d="M1797.28 131.051 L1797.28 138.412 L1806.05 138.412 L1806.05 141.722 L1797.28 141.722 L1797.28 155.796 Q1797.28 158.967 1798.13 159.87 Q1799.01 160.773 1801.67 160.773 L1806.05 160.773 L1806.05 164.338 L1801.67 164.338 Q1796.74 164.338 1794.87 162.509 Q1792.99 160.657 1792.99 155.796 L1792.99 141.722 L1789.87 141.722 L1789.87 138.412 L1792.99 138.412 L1792.99 131.051 L1797.28 131.051 Z" fill="#000000" fill-rule="nonzero" fill-opacity="1" /><path clip-path="url(#clip090)" d="M1826.91 129.778 L1833.87 129.778 L1842.69 153.296 L1851.56 129.778 L1858.53 129.778 L1858.53 164.338 L1853.97 164.338 L1853.97 133.99 L1845.05 157.694 L1840.35 157.694 L1831.44 133.99 L1831.44 164.338 L1826.91 164.338 L1826.91 129.778 Z" fill="#000000" fill-rule="nonzero" fill-opacity="1" /><path clip-path="url(#clip090)" d="M1867.62 138.412 L1871.88 138.412 L1871.88 164.338 L1867.62 164.338 L1867.62 138.412 M1867.62 128.319 L1871.88 128.319 L1871.88 133.713 L1867.62 133.713 L1867.62 128.319 Z" fill="#000000" fill-rule="nonzero" fill-opacity="1" /><path clip-path="url(#clip090)" d="M1897.85 142.347 L1897.85 128.319 L1902.11 128.319 L1902.11 164.338 L1897.85 164.338 L1897.85 160.449 Q1896.51 162.763 1894.45 163.898 Q1892.41 165.009 1889.54 165.009 Q1884.84 165.009 1881.88 161.259 Q1878.94 157.509 1878.94 151.398 Q1878.94 145.287 1881.88 141.537 Q1884.84 137.787 1889.54 137.787 Q1892.41 137.787 1894.45 138.921 Q1896.51 140.032 1897.85 142.347 M1883.34 151.398 Q1883.34 156.097 1885.26 158.782 Q1887.21 161.444 1890.59 161.444 Q1893.97 161.444 1895.91 158.782 Q1897.85 156.097 1897.85 151.398 Q1897.85 146.699 1895.91 144.037 Q1893.97 141.352 1890.59 141.352 Q1887.21 141.352 1885.26 144.037 Q1883.34 146.699 1883.34 151.398 Z" fill="#000000" fill-rule="nonzero" fill-opacity="1" /><path clip-path="url(#clip090)" d="M1915.01 160.449 L1915.01 174.199 L1910.72 174.199 L1910.72 138.412 L1915.01 138.412 L1915.01 142.347 Q1916.35 140.032 1918.39 138.921 Q1920.45 137.787 1923.29 137.787 Q1928.02 137.787 1930.96 141.537 Q1933.92 145.287 1933.92 151.398 Q1933.92 157.509 1930.96 161.259 Q1928.02 165.009 1923.29 165.009 Q1920.45 165.009 1918.39 163.898 Q1916.35 162.763 1915.01 160.449 M1929.5 151.398 Q1929.5 146.699 1927.55 144.037 Q1925.63 141.352 1922.25 141.352 Q1918.87 141.352 1916.93 144.037 Q1915.01 146.699 1915.01 151.398 Q1915.01 156.097 1916.93 158.782 Q1918.87 161.444 1922.25 161.444 Q1925.63 161.444 1927.55 158.782 Q1929.5 156.097 1929.5 151.398 Z" fill="#000000" fill-rule="nonzero" fill-opacity="1" /><path clip-path="url(#clip090)" d="M1951.03 141.398 Q1947.6 141.398 1945.61 144.083 Q1943.62 146.745 1943.62 151.398 Q1943.62 156.051 1945.59 158.736 Q1947.58 161.398 1951.03 161.398 Q1954.43 161.398 1956.42 158.713 Q1958.41 156.027 1958.41 151.398 Q1958.41 146.791 1956.42 144.106 Q1954.43 141.398 1951.03 141.398 M1951.03 137.787 Q1956.58 137.787 1959.75 141.398 Q1962.92 145.009 1962.92 151.398 Q1962.92 157.764 1959.75 161.398 Q1956.58 165.009 1951.03 165.009 Q1945.45 165.009 1942.28 161.398 Q1939.13 157.764 1939.13 151.398 Q1939.13 145.009 1942.28 141.398 Q1945.45 137.787 1951.03 137.787 Z" fill="#000000" fill-rule="nonzero" fill-opacity="1" /><path clip-path="url(#clip090)" d="M1969.98 138.412 L1974.24 138.412 L1974.24 164.338 L1969.98 164.338 L1969.98 138.412 M1969.98 128.319 L1974.24 128.319 L1974.24 133.713 L1969.98 133.713 L1969.98 128.319 Z" fill="#000000" fill-rule="nonzero" fill-opacity="1" /><path clip-path="url(#clip090)" d="M2004.71 148.689 L2004.71 164.338 L2000.45 164.338 L2000.45 148.828 Q2000.45 145.148 1999.01 143.319 Q1997.58 141.49 1994.71 141.49 Q1991.26 141.49 1989.27 143.69 Q1987.27 145.889 1987.27 149.685 L1987.27 164.338 L1982.99 164.338 L1982.99 138.412 L1987.27 138.412 L1987.27 142.44 Q1988.8 140.102 1990.86 138.944 Q1992.95 137.787 1995.65 137.787 Q2000.12 137.787 2002.41 140.565 Q2004.71 143.319 2004.71 148.689 Z" fill="#000000" fill-rule="nonzero" fill-opacity="1" /><path clip-path="url(#clip090)" d="M2017.41 131.051 L2017.41 138.412 L2026.19 138.412 L2026.19 141.722 L2017.41 141.722 L2017.41 155.796 Q2017.41 158.967 2018.27 159.87 Q2019.15 160.773 2021.81 160.773 L2026.19 160.773 L2026.19 164.338 L2021.81 164.338 Q2016.88 164.338 2015.01 162.509 Q2013.13 160.657 2013.13 155.796 L2013.13 141.722 L2010.01 141.722 L2010.01 138.412 L2013.13 138.412 L2013.13 131.051 L2017.41 131.051 Z" fill="#000000" fill-rule="nonzero" fill-opacity="1" /><polyline clip-path="url(#clip090)" style="stroke:#e26f46; stroke-linecap:round; stroke-linejoin:round; stroke-width:4; stroke-opacity:1; fill:none" points="1465.87,198.898 1612.91,198.898 "/>
<path clip-path="url(#clip090)" d="M1642.09 185.46 L1642.09 198.446 L1647.97 198.446 Q1651.23 198.446 1653.02 196.756 Q1654.8 195.067 1654.8 191.942 Q1654.8 188.84 1653.02 187.15 Q1651.23 185.46 1647.97 185.46 L1642.09 185.46 M1637.42 181.618 L1647.97 181.618 Q1653.78 181.618 1656.74 184.256 Q1659.73 186.872 1659.73 191.942 Q1659.73 197.057 1656.74 199.673 Q1653.78 202.289 1647.97 202.289 L1642.09 202.289 L1642.09 216.178 L1637.42 216.178 L1637.42 181.618 Z" fill="#000000" fill-rule="nonzero" fill-opacity="1" /><path clip-path="url(#clip090)" d="M1686.72 182.752 L1686.72 187.312 Q1684.06 186.039 1681.7 185.414 Q1679.34 184.789 1677.14 184.789 Q1673.32 184.789 1671.23 186.27 Q1669.17 187.752 1669.17 190.483 Q1669.17 192.775 1670.54 193.955 Q1671.93 195.113 1675.77 195.83 L1678.6 196.409 Q1683.83 197.405 1686.3 199.928 Q1688.8 202.428 1688.8 206.641 Q1688.8 211.664 1685.42 214.256 Q1682.07 216.849 1675.56 216.849 Q1673.11 216.849 1670.33 216.293 Q1667.58 215.738 1664.61 214.65 L1664.61 209.835 Q1667.46 211.432 1670.19 212.242 Q1672.92 213.053 1675.56 213.053 Q1679.57 213.053 1681.74 211.479 Q1683.92 209.904 1683.92 206.988 Q1683.92 204.442 1682.35 203.006 Q1680.79 201.571 1677.23 200.854 L1674.38 200.298 Q1669.15 199.256 1666.81 197.034 Q1664.48 194.812 1664.48 190.854 Q1664.48 186.27 1667.69 183.631 Q1670.93 180.993 1676.61 180.993 Q1679.04 180.993 1681.56 181.432 Q1684.08 181.872 1686.72 182.752 Z" fill="#000000" fill-rule="nonzero" fill-opacity="1" /><path clip-path="url(#clip090)" d="M1700.77 185.46 L1700.77 212.335 L1706.42 212.335 Q1713.57 212.335 1716.88 209.094 Q1720.22 205.854 1720.22 198.863 Q1720.22 191.918 1716.88 188.701 Q1713.57 185.46 1706.42 185.46 L1700.77 185.46 M1696.1 181.618 L1705.7 181.618 Q1715.75 181.618 1720.45 185.807 Q1725.15 189.974 1725.15 198.863 Q1725.15 207.798 1720.42 211.988 Q1715.7 216.178 1705.7 216.178 L1696.1 216.178 L1696.1 181.618 Z" fill="#000000" fill-rule="nonzero" fill-opacity="1" /><polyline clip-path="url(#clip090)" style="stroke:#3da44d; stroke-linecap:round; stroke-linejoin:round; stroke-width:4; stroke-opacity:1; fill:none" points="1465.87,250.738 1612.91,250.738 "/>
<path clip-path="url(#clip090)" d="M1659.66 234.592 L1659.66 239.152 Q1657 237.879 1654.64 237.254 Q1652.28 236.629 1650.08 236.629 Q1646.26 236.629 1644.17 238.11 Q1642.11 239.592 1642.11 242.323 Q1642.11 244.615 1643.48 245.795 Q1644.87 246.953 1648.71 247.67 L1651.54 248.249 Q1656.77 249.245 1659.24 251.768 Q1661.74 254.268 1661.74 258.481 Q1661.74 263.504 1658.36 266.096 Q1655.01 268.689 1648.5 268.689 Q1646.05 268.689 1643.27 268.133 Q1640.52 267.578 1637.55 266.49 L1637.55 261.675 Q1640.4 263.272 1643.13 264.082 Q1645.86 264.893 1648.5 264.893 Q1652.51 264.893 1654.68 263.319 Q1656.86 261.744 1656.86 258.828 Q1656.86 256.282 1655.29 254.846 Q1653.73 253.411 1650.17 252.694 L1647.32 252.138 Q1642.09 251.096 1639.75 248.874 Q1637.42 246.652 1637.42 242.694 Q1637.42 238.11 1640.63 235.471 Q1643.87 232.833 1649.55 232.833 Q1651.98 232.833 1654.5 233.272 Q1657.02 233.712 1659.66 234.592 Z" fill="#000000" fill-rule="nonzero" fill-opacity="1" /><path clip-path="url(#clip090)" d="M1681.47 238.064 L1675.12 255.263 L1687.83 255.263 L1681.47 238.064 M1678.83 233.458 L1684.13 233.458 L1697.3 268.018 L1692.44 268.018 L1689.29 259.152 L1673.71 259.152 L1670.56 268.018 L1665.63 268.018 L1678.83 233.458 Z" fill="#000000" fill-rule="nonzero" fill-opacity="1" /><path clip-path="url(#clip090)" d="M1702.35 233.458 L1724.2 233.458 L1724.2 237.393 L1707.02 237.393 L1707.02 247.624 L1723.48 247.624 L1723.48 251.559 L1707.02 251.559 L1707.02 264.082 L1724.61 264.082 L1724.61 268.018 L1702.35 268.018 L1702.35 233.458 Z" fill="#000000" fill-rule="nonzero" fill-opacity="1" /><polyline clip-path="url(#clip090)" style="stroke:#c271d2; stroke-linecap:round; stroke-linejoin:round; stroke-width:4; stroke-opacity:1; fill:none" points="1465.87,302.578 1612.91,302.578 "/>
<path clip-path="url(#clip090)" d="M1637.42 285.298 L1643.71 285.298 L1659.04 314.209 L1659.04 285.298 L1663.57 285.298 L1663.57 319.858 L1657.28 319.858 L1641.95 290.946 L1641.95 319.858 L1637.42 319.858 L1637.42 285.298 Z" fill="#000000" fill-rule="nonzero" fill-opacity="1" /><path clip-path="url(#clip090)" d="M1694.87 305.83 L1694.87 307.913 L1675.29 307.913 Q1675.56 312.311 1677.92 314.626 Q1680.31 316.918 1684.54 316.918 Q1687 316.918 1689.29 316.316 Q1691.61 315.714 1693.87 314.51 L1693.87 318.538 Q1691.58 319.51 1689.17 320.02 Q1686.77 320.529 1684.29 320.529 Q1678.09 320.529 1674.45 316.918 Q1670.84 313.307 1670.84 307.149 Q1670.84 300.784 1674.27 297.057 Q1677.72 293.307 1683.55 293.307 Q1688.78 293.307 1691.81 296.686 Q1694.87 300.043 1694.87 305.83 M1690.61 304.58 Q1690.56 301.085 1688.64 299.001 Q1686.74 296.918 1683.6 296.918 Q1680.03 296.918 1677.88 298.932 Q1675.75 300.946 1675.42 304.603 L1690.61 304.58 Z" fill="#000000" fill-rule="nonzero" fill-opacity="1" /><path clip-path="url(#clip090)" d="M1701.42 309.626 L1701.42 293.932 L1705.68 293.932 L1705.68 309.464 Q1705.68 313.145 1707.11 314.996 Q1708.55 316.825 1711.42 316.825 Q1714.87 316.825 1716.86 314.626 Q1718.87 312.427 1718.87 308.631 L1718.87 293.932 L1723.13 293.932 L1723.13 319.858 L1718.87 319.858 L1718.87 315.876 Q1717.32 318.237 1715.26 319.395 Q1713.23 320.529 1710.52 320.529 Q1706.05 320.529 1703.73 317.751 Q1701.42 314.973 1701.42 309.626 M1712.14 293.307 L1712.14 293.307 Z" fill="#000000" fill-rule="nonzero" fill-opacity="1" /><path clip-path="url(#clip090)" d="M1746.93 297.913 Q1746.21 297.497 1745.35 297.311 Q1744.52 297.103 1743.5 297.103 Q1739.89 297.103 1737.95 299.464 Q1736.03 301.802 1736.03 306.2 L1736.03 319.858 L1731.74 319.858 L1731.74 293.932 L1736.03 293.932 L1736.03 297.96 Q1737.37 295.598 1739.52 294.464 Q1741.67 293.307 1744.75 293.307 Q1745.19 293.307 1745.73 293.376 Q1746.26 293.423 1746.91 293.538 L1746.93 297.913 Z" fill="#000000" fill-rule="nonzero" fill-opacity="1" /><path clip-path="url(#clip090)" d="M1763.18 306.825 Q1758.02 306.825 1756.03 308.006 Q1754.04 309.186 1754.04 312.034 Q1754.04 314.302 1755.52 315.645 Q1757.02 316.964 1759.59 316.964 Q1763.13 316.964 1765.26 314.464 Q1767.41 311.941 1767.41 307.774 L1767.41 306.825 L1763.18 306.825 M1771.67 305.066 L1771.67 319.858 L1767.41 319.858 L1767.41 315.922 Q1765.96 318.283 1763.78 319.418 Q1761.6 320.529 1758.46 320.529 Q1754.48 320.529 1752.11 318.307 Q1749.78 316.061 1749.78 312.311 Q1749.78 307.936 1752.69 305.714 Q1755.63 303.492 1761.44 303.492 L1767.41 303.492 L1767.41 303.075 Q1767.41 300.135 1765.47 298.538 Q1763.55 296.918 1760.05 296.918 Q1757.83 296.918 1755.73 297.45 Q1753.62 297.983 1751.67 299.047 L1751.67 295.112 Q1754.01 294.21 1756.21 293.77 Q1758.41 293.307 1760.49 293.307 Q1766.12 293.307 1768.9 296.223 Q1771.67 299.14 1771.67 305.066 Z" fill="#000000" fill-rule="nonzero" fill-opacity="1" /><path clip-path="url(#clip090)" d="M1780.45 283.839 L1784.71 283.839 L1784.71 319.858 L1780.45 319.858 L1780.45 283.839 Z" fill="#000000" fill-rule="nonzero" fill-opacity="1" /><path clip-path="url(#clip090)" d="M1808.87 285.298 L1815.17 285.298 L1830.49 314.209 L1830.49 285.298 L1835.03 285.298 L1835.03 319.858 L1828.73 319.858 L1813.41 290.946 L1813.41 319.858 L1808.87 319.858 L1808.87 285.298 Z" fill="#000000" fill-rule="nonzero" fill-opacity="1" /><path clip-path="url(#clip090)" d="M1866.33 305.83 L1866.33 307.913 L1846.74 307.913 Q1847.02 312.311 1849.38 314.626 Q1851.77 316.918 1856 316.918 Q1858.46 316.918 1860.75 316.316 Q1863.06 315.714 1865.33 314.51 L1865.33 318.538 Q1863.04 319.51 1860.63 320.02 Q1858.22 320.529 1855.75 320.529 Q1849.54 320.529 1845.91 316.918 Q1842.3 313.307 1842.3 307.149 Q1842.3 300.784 1845.72 297.057 Q1849.17 293.307 1855.01 293.307 Q1860.24 293.307 1863.27 296.686 Q1866.33 300.043 1866.33 305.83 M1862.07 304.58 Q1862.02 301.085 1860.1 299.001 Q1858.2 296.918 1855.05 296.918 Q1851.49 296.918 1849.34 298.932 Q1847.21 300.946 1846.88 304.603 L1862.07 304.58 Z" fill="#000000" fill-rule="nonzero" fill-opacity="1" /><path clip-path="url(#clip090)" d="M1877.53 286.571 L1877.53 293.932 L1886.3 293.932 L1886.3 297.242 L1877.53 297.242 L1877.53 311.316 Q1877.53 314.487 1878.39 315.39 Q1879.27 316.293 1881.93 316.293 L1886.3 316.293 L1886.3 319.858 L1881.93 319.858 Q1877 319.858 1875.12 318.029 Q1873.25 316.177 1873.25 311.316 L1873.25 297.242 L1870.12 297.242 L1870.12 293.932 L1873.25 293.932 L1873.25 286.571 L1877.53 286.571 Z" fill="#000000" fill-rule="nonzero" fill-opacity="1" /><path clip-path="url(#clip090)" d="M1889.43 293.932 L1893.69 293.932 L1899.01 314.163 L1904.31 293.932 L1909.34 293.932 L1914.66 314.163 L1919.96 293.932 L1924.22 293.932 L1917.44 319.858 L1912.41 319.858 L1906.84 298.608 L1901.23 319.858 L1896.21 319.858 L1889.43 293.932 Z" fill="#000000" fill-rule="nonzero" fill-opacity="1" /><path clip-path="url(#clip090)" d="M1940.72 296.918 Q1937.3 296.918 1935.31 299.603 Q1933.32 302.265 1933.32 306.918 Q1933.32 311.571 1935.28 314.256 Q1937.28 316.918 1940.72 316.918 Q1944.13 316.918 1946.12 314.233 Q1948.11 311.547 1948.11 306.918 Q1948.11 302.311 1946.12 299.626 Q1944.13 296.918 1940.72 296.918 M1940.72 293.307 Q1946.28 293.307 1949.45 296.918 Q1952.62 300.529 1952.62 306.918 Q1952.62 313.284 1949.45 316.918 Q1946.28 320.529 1940.72 320.529 Q1935.15 320.529 1931.97 316.918 Q1928.83 313.284 1928.83 306.918 Q1928.83 300.529 1931.97 296.918 Q1935.15 293.307 1940.72 293.307 Z" fill="#000000" fill-rule="nonzero" fill-opacity="1" /><path clip-path="url(#clip090)" d="M1974.71 297.913 Q1973.99 297.497 1973.13 297.311 Q1972.3 297.103 1971.28 297.103 Q1967.67 297.103 1965.72 299.464 Q1963.8 301.802 1963.8 306.2 L1963.8 319.858 L1959.52 319.858 L1959.52 293.932 L1963.8 293.932 L1963.8 297.96 Q1965.15 295.598 1967.3 294.464 Q1969.45 293.307 1972.53 293.307 Q1972.97 293.307 1973.5 293.376 Q1974.03 293.423 1974.68 293.538 L1974.71 297.913 Z" fill="#000000" fill-rule="nonzero" fill-opacity="1" /><path clip-path="url(#clip090)" d="M1979.01 283.839 L1983.29 283.839 L1983.29 305.112 L1996 293.932 L2001.44 293.932 L1987.69 306.061 L2002.02 319.858 L1996.46 319.858 L1983.29 307.196 L1983.29 319.858 L1979.01 319.858 L1979.01 283.839 Z" fill="#000000" fill-rule="nonzero" fill-opacity="1" /><path clip-path="url(#clip090)" d="M2021.88 285.298 L2026.56 285.298 L2026.56 319.858 L2021.88 319.858 L2021.88 285.298 Z" fill="#000000" fill-rule="nonzero" fill-opacity="1" /><path clip-path="url(#clip090)" d="M2057.23 304.209 L2057.23 319.858 L2052.97 319.858 L2052.97 304.348 Q2052.97 300.668 2051.53 298.839 Q2050.1 297.01 2047.23 297.01 Q2043.78 297.01 2041.79 299.21 Q2039.8 301.409 2039.8 305.205 L2039.8 319.858 L2035.52 319.858 L2035.52 293.932 L2039.8 293.932 L2039.8 297.96 Q2041.33 295.622 2043.39 294.464 Q2045.47 293.307 2048.18 293.307 Q2052.64 293.307 2054.94 296.085 Q2057.23 298.839 2057.23 304.209 Z" fill="#000000" fill-rule="nonzero" fill-opacity="1" /><path clip-path="url(#clip090)" d="M2069.94 286.571 L2069.94 293.932 L2078.71 293.932 L2078.71 297.242 L2069.94 297.242 L2069.94 311.316 Q2069.94 314.487 2070.79 315.39 Q2071.67 316.293 2074.33 316.293 L2078.71 316.293 L2078.71 319.858 L2074.33 319.858 Q2069.4 319.858 2067.53 318.029 Q2065.65 316.177 2065.65 311.316 L2065.65 297.242 L2062.53 297.242 L2062.53 293.932 L2065.65 293.932 L2065.65 286.571 L2069.94 286.571 Z" fill="#000000" fill-rule="nonzero" fill-opacity="1" /><path clip-path="url(#clip090)" d="M2106.49 305.83 L2106.49 307.913 L2086.9 307.913 Q2087.18 312.311 2089.54 314.626 Q2091.93 316.918 2096.16 316.918 Q2098.62 316.918 2100.91 316.316 Q2103.22 315.714 2105.49 314.51 L2105.49 318.538 Q2103.2 319.51 2100.79 320.02 Q2098.39 320.529 2095.91 320.529 Q2089.7 320.529 2086.07 316.918 Q2082.46 313.307 2082.46 307.149 Q2082.46 300.784 2085.89 297.057 Q2089.33 293.307 2095.17 293.307 Q2100.4 293.307 2103.43 296.686 Q2106.49 300.043 2106.49 305.83 M2102.23 304.58 Q2102.18 301.085 2100.26 299.001 Q2098.36 296.918 2095.21 296.918 Q2091.65 296.918 2089.5 298.932 Q2087.37 300.946 2087.04 304.603 L2102.23 304.58 Z" fill="#000000" fill-rule="nonzero" fill-opacity="1" /><path clip-path="url(#clip090)" d="M2130.54 306.594 Q2130.54 301.964 2128.62 299.418 Q2126.72 296.872 2123.27 296.872 Q2119.84 296.872 2117.92 299.418 Q2116.02 301.964 2116.02 306.594 Q2116.02 311.2 2117.92 313.746 Q2119.84 316.293 2123.27 316.293 Q2126.72 316.293 2128.62 313.746 Q2130.54 311.2 2130.54 306.594 M2134.8 316.64 Q2134.8 323.26 2131.86 326.478 Q2128.92 329.719 2122.85 329.719 Q2120.61 329.719 2118.62 329.371 Q2116.63 329.047 2114.75 328.353 L2114.75 324.209 Q2116.63 325.228 2118.45 325.714 Q2120.28 326.2 2122.18 326.2 Q2126.37 326.2 2128.45 324.001 Q2130.54 321.825 2130.54 317.404 L2130.54 315.297 Q2129.22 317.589 2127.16 318.723 Q2125.1 319.858 2122.23 319.858 Q2117.46 319.858 2114.54 316.223 Q2111.63 312.589 2111.63 306.594 Q2111.63 300.575 2114.54 296.941 Q2117.46 293.307 2122.23 293.307 Q2125.1 293.307 2127.16 294.441 Q2129.22 295.575 2130.54 297.867 L2130.54 293.932 L2134.8 293.932 L2134.8 316.64 Z" fill="#000000" fill-rule="nonzero" fill-opacity="1" /><path clip-path="url(#clip090)" d="M2158.59 297.913 Q2157.88 297.497 2157.02 297.311 Q2156.19 297.103 2155.17 297.103 Q2151.56 297.103 2149.61 299.464 Q2147.69 301.802 2147.69 306.2 L2147.69 319.858 L2143.41 319.858 L2143.41 293.932 L2147.69 293.932 L2147.69 297.96 Q2149.03 295.598 2151.19 294.464 Q2153.34 293.307 2156.42 293.307 Q2156.86 293.307 2157.39 293.376 Q2157.92 293.423 2158.57 293.538 L2158.59 297.913 Z" fill="#000000" fill-rule="nonzero" fill-opacity="1" /><path clip-path="url(#clip090)" d="M2174.84 306.825 Q2169.68 306.825 2167.69 308.006 Q2165.7 309.186 2165.7 312.034 Q2165.7 314.302 2167.18 315.645 Q2168.69 316.964 2171.26 316.964 Q2174.8 316.964 2176.93 314.464 Q2179.08 311.941 2179.08 307.774 L2179.08 306.825 L2174.84 306.825 M2183.34 305.066 L2183.34 319.858 L2179.08 319.858 L2179.08 315.922 Q2177.62 318.283 2175.45 319.418 Q2173.27 320.529 2170.12 320.529 Q2166.14 320.529 2163.78 318.307 Q2161.44 316.061 2161.44 312.311 Q2161.44 307.936 2164.36 305.714 Q2167.3 303.492 2173.11 303.492 L2179.08 303.492 L2179.08 303.075 Q2179.08 300.135 2177.13 298.538 Q2175.21 296.918 2171.72 296.918 Q2169.5 296.918 2167.39 297.45 Q2165.28 297.983 2163.34 299.047 L2163.34 295.112 Q2165.68 294.21 2167.88 293.77 Q2170.07 293.307 2172.16 293.307 Q2177.78 293.307 2180.56 296.223 Q2183.34 299.14 2183.34 305.066 Z" fill="#000000" fill-rule="nonzero" fill-opacity="1" /><path clip-path="url(#clip090)" d="M2196.32 286.571 L2196.32 293.932 L2205.1 293.932 L2205.1 297.242 L2196.32 297.242 L2196.32 311.316 Q2196.32 314.487 2197.18 315.39 Q2198.06 316.293 2200.72 316.293 L2205.1 316.293 L2205.1 319.858 L2200.72 319.858 Q2195.79 319.858 2193.92 318.029 Q2192.04 316.177 2192.04 311.316 L2192.04 297.242 L2188.92 297.242 L2188.92 293.932 L2192.04 293.932 L2192.04 286.571 L2196.32 286.571 Z" fill="#000000" fill-rule="nonzero" fill-opacity="1" /><path clip-path="url(#clip090)" d="M2220.75 296.918 Q2217.32 296.918 2215.33 299.603 Q2213.34 302.265 2213.34 306.918 Q2213.34 311.571 2215.31 314.256 Q2217.3 316.918 2220.75 316.918 Q2224.15 316.918 2226.14 314.233 Q2228.13 311.547 2228.13 306.918 Q2228.13 302.311 2226.14 299.626 Q2224.15 296.918 2220.75 296.918 M2220.75 293.307 Q2226.3 293.307 2229.47 296.918 Q2232.64 300.529 2232.64 306.918 Q2232.64 313.284 2229.47 316.918 Q2226.3 320.529 2220.75 320.529 Q2215.17 320.529 2212 316.918 Q2208.85 313.284 2208.85 306.918 Q2208.85 300.529 2212 296.918 Q2215.17 293.307 2220.75 293.307 Z" fill="#000000" fill-rule="nonzero" fill-opacity="1" /><path clip-path="url(#clip090)" d="M2254.73 297.913 Q2254.01 297.497 2253.15 297.311 Q2252.32 297.103 2251.3 297.103 Q2247.69 297.103 2245.75 299.464 Q2243.82 301.802 2243.82 306.2 L2243.82 319.858 L2239.54 319.858 L2239.54 293.932 L2243.82 293.932 L2243.82 297.96 Q2245.17 295.598 2247.32 294.464 Q2249.47 293.307 2252.55 293.307 Q2252.99 293.307 2253.52 293.376 Q2254.06 293.423 2254.7 293.538 L2254.73 297.913 Z" fill="#000000" fill-rule="nonzero" fill-opacity="1" /></svg>
