<?xml version="1.0" encoding="utf-8"?>
<svg xmlns="http://www.w3.org/2000/svg" xmlns:xlink="http://www.w3.org/1999/xlink" width="600" height="400" viewBox="0 0 2400 1600">
<defs>
  <clipPath id="clip170">
    <rect x="0" y="0" width="2400" height="1600"/>
  </clipPath>
</defs>
<path clip-path="url(#clip170)" d="M0 1600 L2400 1600 L2400 0 L0 0  Z" fill="#ffffff" fill-rule="evenodd" fill-opacity="1"/>
<defs>
  <clipPath id="clip171">
    <rect x="480" y="0" width="1681" height="1600"/>
  </clipPath>
</defs>
<path clip-path="url(#clip170)" d="M219.866 1423.18 L2352.76 1423.18 L2352.76 47.2441 L219.866 47.2441  Z" fill="#ffffff" fill-rule="evenodd" fill-opacity="1"/>
<defs>
  <clipPath id="clip172">
    <rect x="219" y="47" width="2134" height="1377"/>
  </clipPath>
</defs>
<polyline clip-path="url(#clip172)" style="stroke:#000000; stroke-linecap:round; stroke-linejoin:round; stroke-width:2; stroke-opacity:0.1; fill:none" points="567.683,1423.18 567.683,47.2441 "/>
<polyline clip-path="url(#clip172)" style="stroke:#000000; stroke-linecap:round; stroke-linejoin:round; stroke-width:2; stroke-opacity:0.1; fill:none" points="1142.59,1423.18 1142.59,47.2441 "/>
<polyline clip-path="url(#clip172)" style="stroke:#000000; stroke-linecap:round; stroke-linejoin:round; stroke-width:2; stroke-opacity:0.1; fill:none" points="1717.49,1423.18 1717.49,47.2441 "/>
<polyline clip-path="url(#clip172)" style="stroke:#000000; stroke-linecap:round; stroke-linejoin:round; stroke-width:2; stroke-opacity:0.1; fill:none" points="2292.39,1423.18 2292.39,47.2441 "/>
<polyline clip-path="url(#clip170)" style="stroke:#000000; stroke-linecap:round; stroke-linejoin:round; stroke-width:4; stroke-opacity:1; fill:none" points="219.866,1423.18 2352.76,1423.18 "/>
<polyline clip-path="url(#clip170)" style="stroke:#000000; stroke-linecap:round; stroke-linejoin:round; stroke-width:4; stroke-opacity:1; fill:none" points="567.683,1423.18 567.683,1404.28 "/>
<polyline clip-path="url(#clip170)" style="stroke:#000000; stroke-linecap:round; stroke-linejoin:round; stroke-width:4; stroke-opacity:1; fill:none" points="1142.59,1423.18 1142.59,1404.28 "/>
<polyline clip-path="url(#clip170)" style="stroke:#000000; stroke-linecap:round; stroke-linejoin:round; stroke-width:4; stroke-opacity:1; fill:none" points="1717.49,1423.18 1717.49,1404.28 "/>
<polyline clip-path="url(#clip170)" style="stroke:#000000; stroke-linecap:round; stroke-linejoin:round; stroke-width:4; stroke-opacity:1; fill:none" points="2292.39,1423.18 2292.39,1404.28 "/>
<path clip-path="url(#clip170)" d="M562.335 1481.64 L578.655 1481.64 L578.655 1485.58 L556.71 1485.58 L556.71 1481.64 Q559.372 1478.89 563.956 1474.26 Q568.562 1469.61 569.743 1468.27 Q571.988 1465.74 572.868 1464.01 Q573.77 1462.25 573.77 1460.56 Q573.77 1457.8 571.826 1456.07 Q569.905 1454.33 566.803 1454.33 Q564.604 1454.33 562.15 1455.09 Q559.72 1455.86 556.942 1457.41 L556.942 1452.69 Q559.766 1451.55 562.22 1450.97 Q564.673 1450.39 566.71 1450.39 Q572.081 1450.39 575.275 1453.08 Q578.469 1455.77 578.469 1460.26 Q578.469 1462.39 577.659 1464.31 Q576.872 1466.2 574.766 1468.8 Q574.187 1469.47 571.085 1472.69 Q567.983 1475.88 562.335 1481.64 Z" fill="#000000" fill-rule="nonzero" fill-opacity="1" /><path clip-path="url(#clip170)" d="M1145.59 1455.09 L1133.79 1473.54 L1145.59 1473.54 L1145.59 1455.09 M1144.37 1451.02 L1150.25 1451.02 L1150.25 1473.54 L1155.18 1473.54 L1155.18 1477.43 L1150.25 1477.43 L1150.25 1485.58 L1145.59 1485.58 L1145.59 1477.43 L1129.99 1477.43 L1129.99 1472.92 L1144.37 1451.02 Z" fill="#000000" fill-rule="nonzero" fill-opacity="1" /><path clip-path="url(#clip170)" d="M1717.89 1466.44 Q1714.75 1466.44 1712.89 1468.59 Q1711.06 1470.74 1711.06 1474.49 Q1711.06 1478.22 1712.89 1480.39 Q1714.75 1482.55 1717.89 1482.55 Q1721.04 1482.55 1722.87 1480.39 Q1724.72 1478.22 1724.72 1474.49 Q1724.72 1470.74 1722.87 1468.59 Q1721.04 1466.44 1717.89 1466.44 M1727.18 1451.78 L1727.18 1456.04 Q1725.42 1455.21 1723.61 1454.77 Q1721.83 1454.33 1720.07 1454.33 Q1715.44 1454.33 1712.99 1457.45 Q1710.56 1460.58 1710.21 1466.9 Q1711.57 1464.89 1713.63 1463.82 Q1715.69 1462.73 1718.17 1462.73 Q1723.38 1462.73 1726.39 1465.9 Q1729.42 1469.05 1729.42 1474.49 Q1729.42 1479.82 1726.27 1483.03 Q1723.12 1486.25 1717.89 1486.25 Q1711.9 1486.25 1708.73 1481.67 Q1705.56 1477.06 1705.56 1468.33 Q1705.56 1460.14 1709.44 1455.28 Q1713.33 1450.39 1719.88 1450.39 Q1721.64 1450.39 1723.43 1450.74 Q1725.23 1451.09 1727.18 1451.78 Z" fill="#000000" fill-rule="nonzero" fill-opacity="1" /><path clip-path="url(#clip170)" d="M2292.39 1469.17 Q2289.06 1469.17 2287.14 1470.95 Q2285.24 1472.73 2285.24 1475.86 Q2285.24 1478.98 2287.14 1480.77 Q2289.06 1482.55 2292.39 1482.55 Q2295.72 1482.55 2297.65 1480.77 Q2299.57 1478.96 2299.57 1475.86 Q2299.57 1472.73 2297.65 1470.95 Q2295.75 1469.17 2292.39 1469.17 M2287.72 1467.18 Q2284.71 1466.44 2283.02 1464.38 Q2281.35 1462.32 2281.35 1459.35 Q2281.35 1455.21 2284.29 1452.8 Q2287.25 1450.39 2292.39 1450.39 Q2297.55 1450.39 2300.49 1452.8 Q2303.43 1455.21 2303.43 1459.35 Q2303.43 1462.32 2301.74 1464.38 Q2300.08 1466.44 2297.09 1467.18 Q2300.47 1467.96 2302.34 1470.26 Q2304.24 1472.55 2304.24 1475.86 Q2304.24 1480.88 2301.16 1483.57 Q2298.11 1486.25 2292.39 1486.25 Q2286.67 1486.25 2283.59 1483.57 Q2280.54 1480.88 2280.54 1475.86 Q2280.54 1472.55 2282.44 1470.26 Q2284.34 1467.96 2287.72 1467.18 M2286 1459.79 Q2286 1462.48 2287.67 1463.98 Q2289.36 1465.49 2292.39 1465.49 Q2295.4 1465.49 2297.09 1463.98 Q2298.8 1462.48 2298.8 1459.79 Q2298.8 1457.11 2297.09 1455.6 Q2295.4 1454.1 2292.39 1454.1 Q2289.36 1454.1 2287.67 1455.6 Q2286 1457.11 2286 1459.79 Z" fill="#000000" fill-rule="nonzero" fill-opacity="1" /><path clip-path="url(#clip170)" d="M1224.66 1548.76 L1224.66 1551.62 L1197.73 1551.62 Q1198.11 1557.67 1201.36 1560.85 Q1204.64 1564 1210.46 1564 Q1213.84 1564 1216.99 1563.17 Q1220.17 1562.35 1223.29 1560.69 L1223.29 1566.23 Q1220.14 1567.57 1216.83 1568.27 Q1213.52 1568.97 1210.11 1568.97 Q1201.58 1568.97 1196.59 1564 Q1191.62 1559.04 1191.62 1550.57 Q1191.62 1541.82 1196.33 1536.69 Q1201.07 1531.54 1209.1 1531.54 Q1216.29 1531.54 1220.46 1536.18 Q1224.66 1540.8 1224.66 1548.76 M1218.8 1547.04 Q1218.74 1542.23 1216.1 1539.37 Q1213.49 1536.5 1209.16 1536.5 Q1204.26 1536.5 1201.3 1539.27 Q1198.37 1542.04 1197.92 1547.07 L1218.8 1547.04 Z" fill="#000000" fill-rule="nonzero" fill-opacity="1" /><path clip-path="url(#clip170)" d="M1239.94 1562.7 L1239.94 1581.6 L1234.05 1581.6 L1234.05 1532.4 L1239.94 1532.4 L1239.94 1537.81 Q1241.78 1534.62 1244.58 1533.1 Q1247.42 1531.54 1251.33 1531.54 Q1257.82 1531.54 1261.87 1536.69 Q1265.94 1541.85 1265.94 1550.25 Q1265.94 1558.65 1261.87 1563.81 Q1257.82 1568.97 1251.33 1568.97 Q1247.42 1568.97 1244.58 1567.44 Q1241.78 1565.88 1239.94 1562.7 M1259.86 1550.25 Q1259.86 1543.79 1257.19 1540.13 Q1254.55 1536.44 1249.9 1536.44 Q1245.25 1536.44 1242.58 1540.13 Q1239.94 1543.79 1239.94 1550.25 Q1239.94 1556.71 1242.58 1560.4 Q1245.25 1564.07 1249.9 1564.07 Q1254.55 1564.07 1257.19 1560.4 Q1259.86 1556.71 1259.86 1550.25 Z" fill="#000000" fill-rule="nonzero" fill-opacity="1" /><path clip-path="url(#clip170)" d="M1289.46 1536.5 Q1284.75 1536.5 1282.01 1540.19 Q1279.28 1543.85 1279.28 1550.25 Q1279.28 1556.65 1281.98 1560.34 Q1284.72 1564 1289.46 1564 Q1294.14 1564 1296.88 1560.31 Q1299.62 1556.62 1299.62 1550.25 Q1299.62 1543.92 1296.88 1540.23 Q1294.14 1536.5 1289.46 1536.5 M1289.46 1531.54 Q1297.1 1531.54 1301.46 1536.5 Q1305.82 1541.47 1305.82 1550.25 Q1305.82 1559 1301.46 1564 Q1297.1 1568.97 1289.46 1568.97 Q1281.79 1568.97 1277.43 1564 Q1273.1 1559 1273.1 1550.25 Q1273.1 1541.47 1277.43 1536.5 Q1281.79 1531.54 1289.46 1531.54 Z" fill="#000000" fill-rule="nonzero" fill-opacity="1" /><path clip-path="url(#clip170)" d="M1341.18 1533.76 L1341.18 1539.24 Q1338.7 1537.87 1336.19 1537.2 Q1333.7 1536.5 1331.16 1536.5 Q1325.46 1536.5 1322.31 1540.13 Q1319.16 1543.73 1319.16 1550.25 Q1319.16 1556.78 1322.31 1560.4 Q1325.46 1564 1331.16 1564 Q1333.7 1564 1336.19 1563.33 Q1338.7 1562.63 1341.18 1561.26 L1341.18 1566.68 Q1338.73 1567.82 1336.09 1568.39 Q1333.48 1568.97 1330.52 1568.97 Q1322.47 1568.97 1317.73 1563.91 Q1312.98 1558.85 1312.98 1550.25 Q1312.98 1541.53 1317.76 1536.53 Q1322.56 1531.54 1330.9 1531.54 Q1333.61 1531.54 1336.19 1532.11 Q1338.76 1532.65 1341.18 1533.76 Z" fill="#000000" fill-rule="nonzero" fill-opacity="1" /><path clip-path="url(#clip170)" d="M1381 1546.53 L1381 1568.04 L1375.14 1568.04 L1375.14 1546.72 Q1375.14 1541.66 1373.17 1539.14 Q1371.2 1536.63 1367.25 1536.63 Q1362.51 1536.63 1359.77 1539.65 Q1357.03 1542.68 1357.03 1547.9 L1357.03 1568.04 L1351.15 1568.04 L1351.15 1518.52 L1357.03 1518.52 L1357.03 1537.93 Q1359.13 1534.72 1361.97 1533.13 Q1364.83 1531.54 1368.56 1531.54 Q1374.7 1531.54 1377.85 1535.36 Q1381 1539.14 1381 1546.53 Z" fill="#000000" fill-rule="nonzero" fill-opacity="1" /><polyline clip-path="url(#clip172)" style="stroke:#000000; stroke-linecap:round; stroke-linejoin:round; stroke-width:2; stroke-opacity:0.1; fill:none" points="219.866,1405.16 2352.76,1405.16 "/>
<polyline clip-path="url(#clip172)" style="stroke:#000000; stroke-linecap:round; stroke-linejoin:round; stroke-width:2; stroke-opacity:0.1; fill:none" points="219.866,1177.57 2352.76,1177.57 "/>
<polyline clip-path="url(#clip172)" style="stroke:#000000; stroke-linecap:round; stroke-linejoin:round; stroke-width:2; stroke-opacity:0.1; fill:none" points="219.866,949.97 2352.76,949.97 "/>
<polyline clip-path="url(#clip172)" style="stroke:#000000; stroke-linecap:round; stroke-linejoin:round; stroke-width:2; stroke-opacity:0.1; fill:none" points="219.866,722.373 2352.76,722.373 "/>
<polyline clip-path="url(#clip172)" style="stroke:#000000; stroke-linecap:round; stroke-linejoin:round; stroke-width:2; stroke-opacity:0.1; fill:none" points="219.866,494.776 2352.76,494.776 "/>
<polyline clip-path="url(#clip172)" style="stroke:#000000; stroke-linecap:round; stroke-linejoin:round; stroke-width:2; stroke-opacity:0.1; fill:none" points="219.866,267.18 2352.76,267.18 "/>
<polyline clip-path="url(#clip170)" style="stroke:#000000; stroke-linecap:round; stroke-linejoin:round; stroke-width:4; stroke-opacity:1; fill:none" points="219.866,1423.18 219.866,47.2441 "/>
<polyline clip-path="url(#clip170)" style="stroke:#000000; stroke-linecap:round; stroke-linejoin:round; stroke-width:4; stroke-opacity:1; fill:none" points="219.866,1405.16 238.764,1405.16 "/>
<polyline clip-path="url(#clip170)" style="stroke:#000000; stroke-linecap:round; stroke-linejoin:round; stroke-width:4; stroke-opacity:1; fill:none" points="219.866,1177.57 238.764,1177.57 "/>
<polyline clip-path="url(#clip170)" style="stroke:#000000; stroke-linecap:round; stroke-linejoin:round; stroke-width:4; stroke-opacity:1; fill:none" points="219.866,949.97 238.764,949.97 "/>
<polyline clip-path="url(#clip170)" style="stroke:#000000; stroke-linecap:round; stroke-linejoin:round; stroke-width:4; stroke-opacity:1; fill:none" points="219.866,722.373 238.764,722.373 "/>
<polyline clip-path="url(#clip170)" style="stroke:#000000; stroke-linecap:round; stroke-linejoin:round; stroke-width:4; stroke-opacity:1; fill:none" points="219.866,494.776 238.764,494.776 "/>
<polyline clip-path="url(#clip170)" style="stroke:#000000; stroke-linecap:round; stroke-linejoin:round; stroke-width:4; stroke-opacity:1; fill:none" points="219.866,267.18 238.764,267.18 "/>
<path clip-path="url(#clip170)" d="M127.917 1390.96 Q124.306 1390.96 122.478 1394.53 Q120.672 1398.07 120.672 1405.2 Q120.672 1412.3 122.478 1415.87 Q124.306 1419.41 127.917 1419.41 Q131.552 1419.41 133.357 1415.87 Q135.186 1412.3 135.186 1405.2 Q135.186 1398.07 133.357 1394.53 Q131.552 1390.96 127.917 1390.96 M127.917 1387.26 Q133.728 1387.26 136.783 1391.87 Q139.862 1396.45 139.862 1405.2 Q139.862 1413.93 136.783 1418.53 Q133.728 1423.11 127.917 1423.11 Q122.107 1423.11 119.029 1418.53 Q115.973 1413.93 115.973 1405.2 Q115.973 1396.45 119.029 1391.87 Q122.107 1387.26 127.917 1387.26 Z" fill="#000000" fill-rule="nonzero" fill-opacity="1" /><path clip-path="url(#clip170)" d="M148.079 1416.56 L152.964 1416.56 L152.964 1422.44 L148.079 1422.44 L148.079 1416.56 Z" fill="#000000" fill-rule="nonzero" fill-opacity="1" /><path clip-path="url(#clip170)" d="M163.959 1418.51 L171.598 1418.51 L171.598 1392.14 L163.288 1393.81 L163.288 1389.55 L171.552 1387.88 L176.227 1387.88 L176.227 1418.51 L183.866 1418.51 L183.866 1422.44 L163.959 1422.44 L163.959 1418.51 Z" fill="#000000" fill-rule="nonzero" fill-opacity="1" /><path clip-path="url(#clip170)" d="M128.288 1163.37 Q124.677 1163.37 122.848 1166.93 Q121.043 1170.47 121.043 1177.6 Q121.043 1184.71 122.848 1188.27 Q124.677 1191.81 128.288 1191.81 Q131.922 1191.81 133.728 1188.27 Q135.556 1184.71 135.556 1177.6 Q135.556 1170.47 133.728 1166.93 Q131.922 1163.37 128.288 1163.37 M128.288 1159.66 Q134.098 1159.66 137.154 1164.27 Q140.232 1168.85 140.232 1177.6 Q140.232 1186.33 137.154 1190.93 Q134.098 1195.52 128.288 1195.52 Q122.478 1195.52 119.399 1190.93 Q116.343 1186.33 116.343 1177.6 Q116.343 1168.85 119.399 1164.27 Q122.478 1159.66 128.288 1159.66 Z" fill="#000000" fill-rule="nonzero" fill-opacity="1" /><path clip-path="url(#clip170)" d="M148.45 1188.97 L153.334 1188.97 L153.334 1194.85 L148.45 1194.85 L148.45 1188.97 Z" fill="#000000" fill-rule="nonzero" fill-opacity="1" /><path clip-path="url(#clip170)" d="M167.547 1190.91 L183.866 1190.91 L183.866 1194.85 L161.922 1194.85 L161.922 1190.91 Q164.584 1188.16 169.167 1183.53 Q173.774 1178.87 174.954 1177.53 Q177.2 1175.01 178.079 1173.27 Q178.982 1171.51 178.982 1169.82 Q178.982 1167.07 177.038 1165.33 Q175.116 1163.6 172.014 1163.6 Q169.815 1163.6 167.362 1164.36 Q164.931 1165.12 162.153 1166.68 L162.153 1161.95 Q164.977 1160.82 167.431 1160.24 Q169.885 1159.66 171.922 1159.66 Q177.292 1159.66 180.487 1162.35 Q183.681 1165.03 183.681 1169.52 Q183.681 1171.65 182.871 1173.57 Q182.084 1175.47 179.977 1178.06 Q179.399 1178.74 176.297 1181.95 Q173.195 1185.15 167.547 1190.91 Z" fill="#000000" fill-rule="nonzero" fill-opacity="1" /><path clip-path="url(#clip170)" d="M127.339 935.769 Q123.728 935.769 121.899 939.333 Q120.093 942.875 120.093 950.005 Q120.093 957.111 121.899 960.676 Q123.728 964.218 127.339 964.218 Q130.973 964.218 132.779 960.676 Q134.607 957.111 134.607 950.005 Q134.607 942.875 132.779 939.333 Q130.973 935.769 127.339 935.769 M127.339 932.065 Q133.149 932.065 136.204 936.671 Q139.283 941.255 139.283 950.005 Q139.283 958.732 136.204 963.338 Q133.149 967.921 127.339 967.921 Q121.529 967.921 118.45 963.338 Q115.394 958.732 115.394 950.005 Q115.394 941.255 118.45 936.671 Q121.529 932.065 127.339 932.065 Z" fill="#000000" fill-rule="nonzero" fill-opacity="1" /><path clip-path="url(#clip170)" d="M147.501 961.37 L152.385 961.37 L152.385 967.25 L147.501 967.25 L147.501 961.37 Z" fill="#000000" fill-rule="nonzero" fill-opacity="1" /><path clip-path="url(#clip170)" d="M176.737 948.616 Q180.093 949.333 181.968 951.602 Q183.866 953.87 183.866 957.204 Q183.866 962.319 180.348 965.12 Q176.829 967.921 170.348 967.921 Q168.172 967.921 165.857 967.481 Q163.565 967.065 161.112 966.208 L161.112 961.694 Q163.056 962.829 165.371 963.407 Q167.686 963.986 170.209 963.986 Q174.607 963.986 176.899 962.25 Q179.214 960.514 179.214 957.204 Q179.214 954.148 177.061 952.435 Q174.931 950.699 171.112 950.699 L167.084 950.699 L167.084 946.857 L171.297 946.857 Q174.746 946.857 176.575 945.491 Q178.403 944.102 178.403 941.509 Q178.403 938.847 176.505 937.435 Q174.63 936 171.112 936 Q169.19 936 166.991 936.417 Q164.792 936.833 162.153 937.713 L162.153 933.546 Q164.815 932.806 167.13 932.435 Q169.468 932.065 171.528 932.065 Q176.852 932.065 179.954 934.496 Q183.056 936.903 183.056 941.023 Q183.056 943.894 181.413 945.884 Q179.769 947.852 176.737 948.616 Z" fill="#000000" fill-rule="nonzero" fill-opacity="1" /><path clip-path="url(#clip170)" d="M126.205 708.172 Q122.593 708.172 120.765 711.737 Q118.959 715.278 118.959 722.408 Q118.959 729.514 120.765 733.079 Q122.593 736.621 126.205 736.621 Q129.839 736.621 131.644 733.079 Q133.473 729.514 133.473 722.408 Q133.473 715.278 131.644 711.737 Q129.839 708.172 126.205 708.172 M126.205 704.468 Q132.015 704.468 135.07 709.075 Q138.149 713.658 138.149 722.408 Q138.149 731.135 135.07 735.741 Q132.015 740.324 126.205 740.324 Q120.394 740.324 117.316 735.741 Q114.26 731.135 114.26 722.408 Q114.26 713.658 117.316 709.075 Q120.394 704.468 126.205 704.468 Z" fill="#000000" fill-rule="nonzero" fill-opacity="1" /><path clip-path="url(#clip170)" d="M146.366 733.774 L151.251 733.774 L151.251 739.653 L146.366 739.653 L146.366 733.774 Z" fill="#000000" fill-rule="nonzero" fill-opacity="1" /><path clip-path="url(#clip170)" d="M174.283 709.167 L162.477 727.616 L174.283 727.616 L174.283 709.167 M173.056 705.093 L178.936 705.093 L178.936 727.616 L183.866 727.616 L183.866 731.505 L178.936 731.505 L178.936 739.653 L174.283 739.653 L174.283 731.505 L158.681 731.505 L158.681 726.991 L173.056 705.093 Z" fill="#000000" fill-rule="nonzero" fill-opacity="1" /><path clip-path="url(#clip170)" d="M127.686 480.575 Q124.075 480.575 122.246 484.14 Q120.441 487.682 120.441 494.811 Q120.441 501.918 122.246 505.482 Q124.075 509.024 127.686 509.024 Q131.32 509.024 133.126 505.482 Q134.954 501.918 134.954 494.811 Q134.954 487.682 133.126 484.14 Q131.32 480.575 127.686 480.575 M127.686 476.871 Q133.496 476.871 136.552 481.478 Q139.63 486.061 139.63 494.811 Q139.63 503.538 136.552 508.144 Q133.496 512.728 127.686 512.728 Q121.876 512.728 118.797 508.144 Q115.742 503.538 115.742 494.811 Q115.742 486.061 118.797 481.478 Q121.876 476.871 127.686 476.871 Z" fill="#000000" fill-rule="nonzero" fill-opacity="1" /><path clip-path="url(#clip170)" d="M147.848 506.177 L152.732 506.177 L152.732 512.056 L147.848 512.056 L147.848 506.177 Z" fill="#000000" fill-rule="nonzero" fill-opacity="1" /><path clip-path="url(#clip170)" d="M162.964 477.496 L181.32 477.496 L181.32 481.432 L167.246 481.432 L167.246 489.904 Q168.264 489.556 169.283 489.394 Q170.302 489.209 171.32 489.209 Q177.107 489.209 180.487 492.381 Q183.866 495.552 183.866 500.968 Q183.866 506.547 180.394 509.649 Q176.922 512.728 170.602 512.728 Q168.427 512.728 166.158 512.357 Q163.913 511.987 161.505 511.246 L161.505 506.547 Q163.589 507.681 165.811 508.237 Q168.033 508.792 170.51 508.792 Q174.514 508.792 176.852 506.686 Q179.19 504.58 179.19 500.968 Q179.19 497.357 176.852 495.251 Q174.514 493.144 170.51 493.144 Q168.635 493.144 166.76 493.561 Q164.908 493.978 162.964 494.857 L162.964 477.496 Z" fill="#000000" fill-rule="nonzero" fill-opacity="1" /><path clip-path="url(#clip170)" d="M126.529 252.978 Q122.918 252.978 121.089 256.543 Q119.283 260.085 119.283 267.214 Q119.283 274.321 121.089 277.886 Q122.918 281.427 126.529 281.427 Q130.163 281.427 131.968 277.886 Q133.797 274.321 133.797 267.214 Q133.797 260.085 131.968 256.543 Q130.163 252.978 126.529 252.978 M126.529 249.275 Q132.339 249.275 135.394 253.881 Q138.473 258.464 138.473 267.214 Q138.473 275.941 135.394 280.548 Q132.339 285.131 126.529 285.131 Q120.718 285.131 117.64 280.548 Q114.584 275.941 114.584 267.214 Q114.584 258.464 117.64 253.881 Q120.718 249.275 126.529 249.275 Z" fill="#000000" fill-rule="nonzero" fill-opacity="1" /><path clip-path="url(#clip170)" d="M146.691 278.58 L151.575 278.58 L151.575 284.46 L146.691 284.46 L146.691 278.58 Z" fill="#000000" fill-rule="nonzero" fill-opacity="1" /><path clip-path="url(#clip170)" d="M172.339 265.316 Q169.19 265.316 167.339 267.469 Q165.51 269.622 165.51 273.372 Q165.51 277.098 167.339 279.274 Q169.19 281.427 172.339 281.427 Q175.487 281.427 177.315 279.274 Q179.167 277.098 179.167 273.372 Q179.167 269.622 177.315 267.469 Q175.487 265.316 172.339 265.316 M181.621 250.663 L181.621 254.923 Q179.862 254.089 178.056 253.65 Q176.274 253.21 174.514 253.21 Q169.885 253.21 167.431 256.335 Q165.001 259.46 164.653 265.779 Q166.019 263.765 168.079 262.7 Q170.139 261.612 172.616 261.612 Q177.825 261.612 180.834 264.784 Q183.866 267.932 183.866 273.372 Q183.866 278.696 180.718 281.913 Q177.57 285.131 172.339 285.131 Q166.343 285.131 163.172 280.548 Q160.001 275.941 160.001 267.214 Q160.001 259.02 163.89 254.159 Q167.778 249.275 174.329 249.275 Q176.089 249.275 177.871 249.622 Q179.676 249.969 181.621 250.663 Z" fill="#000000" fill-rule="nonzero" fill-opacity="1" /><path clip-path="url(#clip170)" d="M18.2347 939.678 L28.3562 939.678 L28.3562 927.615 L32.9077 927.615 L32.9077 939.678 L52.2594 939.678 Q56.6199 939.678 57.8613 938.501 Q59.1026 937.291 59.1026 933.631 L59.1026 927.615 L64.0042 927.615 L64.0042 933.631 Q64.0042 940.411 61.4897 942.989 Q58.9434 945.567 52.2594 945.567 L32.9077 945.567 L32.9077 949.864 L28.3562 949.864 L28.3562 945.567 L18.2347 945.567 L18.2347 939.678 Z" fill="#000000" fill-rule="nonzero" fill-opacity="1" /><path clip-path="url(#clip170)" d="M33.8307 899.256 Q33.2578 900.243 33.0032 901.421 Q32.7167 902.566 32.7167 903.967 Q32.7167 908.932 35.9632 911.606 Q39.1779 914.247 45.2253 914.247 L64.0042 914.247 L64.0042 920.136 L28.3562 920.136 L28.3562 914.247 L33.8944 914.247 Q30.6479 912.401 29.0883 909.441 Q27.4968 906.481 27.4968 902.248 Q27.4968 901.643 27.5923 900.911 Q27.656 900.179 27.8151 899.288 L33.8307 899.256 Z" fill="#000000" fill-rule="nonzero" fill-opacity="1" /><path clip-path="url(#clip170)" d="M46.0847 876.913 Q46.0847 884.01 47.7079 886.748 Q49.3312 889.485 53.2461 889.485 Q56.3653 889.485 58.2114 887.448 Q60.0256 885.379 60.0256 881.846 Q60.0256 876.976 56.5881 874.048 Q53.1188 871.088 47.3897 871.088 L46.0847 871.088 L46.0847 876.913 M43.6657 865.232 L64.0042 865.232 L64.0042 871.088 L58.5933 871.088 Q61.8398 873.093 63.3994 876.085 Q64.9272 879.077 64.9272 883.406 Q64.9272 888.88 61.8716 892.127 Q58.7843 895.341 53.6281 895.341 Q47.6125 895.341 44.5569 891.331 Q41.5014 887.289 41.5014 879.3 L41.5014 871.088 L40.9285 871.088 Q36.8862 871.088 34.6901 873.762 Q32.4621 876.403 32.4621 881.209 Q32.4621 884.265 33.1941 887.161 Q33.9262 890.058 35.3903 892.731 L29.9795 892.731 Q28.7381 889.517 28.1334 886.493 Q27.4968 883.469 27.4968 880.605 Q27.4968 872.87 31.5072 869.051 Q35.5176 865.232 43.6657 865.232 Z" fill="#000000" fill-rule="nonzero" fill-opacity="1" /><path clip-path="url(#clip170)" d="M28.3562 853.169 L28.3562 847.312 L64.0042 847.312 L64.0042 853.169 L28.3562 853.169 M14.479 853.169 L14.479 847.312 L21.895 847.312 L21.895 853.169 L14.479 853.169 Z" fill="#000000" fill-rule="nonzero" fill-opacity="1" /><path clip-path="url(#clip170)" d="M42.4881 805.426 L64.0042 805.426 L64.0042 811.282 L42.679 811.282 Q37.6183 811.282 35.1038 813.256 Q32.5894 815.229 32.5894 819.176 Q32.5894 823.918 35.6131 826.655 Q38.6368 829.393 43.8567 829.393 L64.0042 829.393 L64.0042 835.281 L28.3562 835.281 L28.3562 829.393 L33.8944 829.393 Q30.6797 827.292 29.0883 824.459 Q27.4968 821.595 27.4968 817.871 Q27.4968 811.728 31.3163 808.577 Q35.1038 805.426 42.4881 805.426 Z" fill="#000000" fill-rule="nonzero" fill-opacity="1" /><path clip-path="url(#clip170)" d="M28.3562 793.745 L28.3562 787.888 L64.0042 787.888 L64.0042 793.745 L28.3562 793.745 M14.479 793.745 L14.479 787.888 L21.895 787.888 L21.895 793.745 L14.479 793.745 Z" fill="#000000" fill-rule="nonzero" fill-opacity="1" /><path clip-path="url(#clip170)" d="M42.4881 746.002 L64.0042 746.002 L64.0042 751.858 L42.679 751.858 Q37.6183 751.858 35.1038 753.832 Q32.5894 755.805 32.5894 759.752 Q32.5894 764.494 35.6131 767.231 Q38.6368 769.969 43.8567 769.969 L64.0042 769.969 L64.0042 775.857 L28.3562 775.857 L28.3562 769.969 L33.8944 769.969 Q30.6797 767.868 29.0883 765.035 Q27.4968 762.171 27.4968 758.447 Q27.4968 752.304 31.3163 749.153 Q35.1038 746.002 42.4881 746.002 Z" fill="#000000" fill-rule="nonzero" fill-opacity="1" /><path clip-path="url(#clip170)" d="M45.7664 710.863 Q39.4007 710.863 35.8996 713.505 Q32.3984 716.115 32.3984 720.857 Q32.3984 725.568 35.8996 728.21 Q39.4007 730.82 45.7664 730.82 Q52.1003 730.82 55.6014 728.21 Q59.1026 725.568 59.1026 720.857 Q59.1026 716.115 55.6014 713.505 Q52.1003 710.863 45.7664 710.863 M59.58 705.007 Q68.683 705.007 73.1071 709.049 Q77.5631 713.091 77.5631 721.43 Q77.5631 724.518 77.0857 727.255 Q76.6401 729.992 75.6852 732.57 L69.9879 732.57 Q71.3884 729.992 72.0568 727.478 Q72.7252 724.963 72.7252 722.353 Q72.7252 716.592 69.7015 713.728 Q66.7096 710.863 60.6303 710.863 L57.7339 710.863 Q60.885 712.677 62.4446 715.51 Q64.0042 718.343 64.0042 722.29 Q64.0042 728.846 59.0071 732.857 Q54.01 736.867 45.7664 736.867 Q37.491 736.867 32.4939 732.857 Q27.4968 728.846 27.4968 722.29 Q27.4968 718.343 29.0564 715.51 Q30.616 712.677 33.7671 710.863 L28.3562 710.863 L28.3562 705.007 L59.58 705.007 Z" fill="#000000" fill-rule="nonzero" fill-opacity="1" /><path clip-path="url(#clip170)" d="M44.7161 641.732 L47.5806 641.732 L47.5806 668.659 Q53.6281 668.277 56.8109 665.03 Q59.9619 661.752 59.9619 655.927 Q59.9619 652.553 59.1344 649.402 Q58.3069 646.219 56.6518 643.1 L62.1899 643.1 Q63.5267 646.251 64.227 649.561 Q64.9272 652.872 64.9272 656.277 Q64.9272 664.807 59.9619 669.804 Q54.9967 674.77 46.5303 674.77 Q37.7774 674.77 32.6531 670.059 Q27.4968 665.317 27.4968 657.296 Q27.4968 650.102 32.1438 645.933 Q36.7589 641.732 44.7161 641.732 M42.9973 647.588 Q38.1912 647.652 35.3266 650.293 Q32.4621 652.903 32.4621 657.232 Q32.4621 662.134 35.2312 665.094 Q38.0002 668.022 43.0292 668.468 L42.9973 647.588 Z" fill="#000000" fill-rule="nonzero" fill-opacity="1" /><path clip-path="url(#clip170)" d="M33.8307 611.463 Q33.2578 612.449 33.0032 613.627 Q32.7167 614.773 32.7167 616.173 Q32.7167 621.139 35.9632 623.812 Q39.1779 626.454 45.2253 626.454 L64.0042 626.454 L64.0042 632.342 L28.3562 632.342 L28.3562 626.454 L33.8944 626.454 Q30.6479 624.608 29.0883 621.648 Q27.4968 618.688 27.4968 614.455 Q27.4968 613.85 27.5923 613.118 Q27.656 612.386 27.8151 611.494 L33.8307 611.463 Z" fill="#000000" fill-rule="nonzero" fill-opacity="1" /><path clip-path="url(#clip170)" d="M33.8307 585.809 Q33.2578 586.796 33.0032 587.973 Q32.7167 589.119 32.7167 590.519 Q32.7167 595.485 35.9632 598.158 Q39.1779 600.8 45.2253 600.8 L64.0042 600.8 L64.0042 606.688 L28.3562 606.688 L28.3562 600.8 L33.8944 600.8 Q30.6479 598.954 29.0883 595.994 Q27.4968 593.034 27.4968 588.801 Q27.4968 588.196 27.5923 587.464 Q27.656 586.732 27.8151 585.841 L33.8307 585.809 Z" fill="#000000" fill-rule="nonzero" fill-opacity="1" /><path clip-path="url(#clip170)" d="M32.4621 567.285 Q32.4621 571.995 36.1542 574.733 Q39.8145 577.47 46.212 577.47 Q52.6095 577.47 56.3017 574.764 Q59.9619 572.027 59.9619 567.285 Q59.9619 562.606 56.2698 559.869 Q52.5777 557.131 46.212 557.131 Q39.8781 557.131 36.186 559.869 Q32.4621 562.606 32.4621 567.285 M27.4968 567.285 Q27.4968 559.646 32.4621 555.285 Q37.4273 550.925 46.212 550.925 Q54.9649 550.925 59.9619 555.285 Q64.9272 559.646 64.9272 567.285 Q64.9272 574.955 59.9619 579.316 Q54.9649 583.644 46.212 583.644 Q37.4273 583.644 32.4621 579.316 Q27.4968 574.955 27.4968 567.285 Z" fill="#000000" fill-rule="nonzero" fill-opacity="1" /><path clip-path="url(#clip170)" d="M33.8307 520.56 Q33.2578 521.547 33.0032 522.725 Q32.7167 523.871 32.7167 525.271 Q32.7167 530.236 35.9632 532.91 Q39.1779 535.552 45.2253 535.552 L64.0042 535.552 L64.0042 541.44 L28.3562 541.44 L28.3562 535.552 L33.8944 535.552 Q30.6479 533.706 29.0883 530.745 Q27.4968 527.785 27.4968 523.552 Q27.4968 522.947 27.5923 522.215 Q27.656 521.483 27.8151 520.592 L33.8307 520.56 Z" fill="#000000" fill-rule="nonzero" fill-opacity="1" /><polyline clip-path="url(#clip172)" style="stroke:#e26f46; stroke-linecap:round; stroke-linejoin:round; stroke-width:4; stroke-opacity:1; fill:none" points="-1913.02,248.125 4485.65,248.125 "/>
<polyline clip-path="url(#clip172)" style="stroke:#3da44d; stroke-linecap:round; stroke-linejoin:round; stroke-width:4; stroke-opacity:1; fill:none" points="280.231,86.1857 567.683,809.136 855.134,1103.76 1142.59,1347.99 1430.04,1376.6 1717.49,1378.8 2004.94,1384.24 2292.39,1373.2 "/>
<path clip-path="url(#clip170)" d="M290.963 1377.32 L724.621 1377.32 L724.621 1221.8 L290.963 1221.8  Z" fill="#ffffff" fill-rule="evenodd" fill-opacity="1"/>
<polyline clip-path="url(#clip170)" style="stroke:#000000; stroke-linecap:round; stroke-linejoin:round; stroke-width:4; stroke-opacity:1; fill:none" points="290.963,1377.32 724.621,1377.32 724.621,1221.8 290.963,1221.8 290.963,1377.32 "/>
<polyline clip-path="url(#clip170)" style="stroke:#e26f46; stroke-linecap:round; stroke-linejoin:round; stroke-width:4; stroke-opacity:1; fill:none" points="314.661,1273.64 456.854,1273.64 "/>
<path clip-path="url(#clip170)" d="M485.229 1260.2 L485.229 1273.18 L491.108 1273.18 Q494.372 1273.18 496.155 1271.49 Q497.937 1269.8 497.937 1266.68 Q497.937 1263.58 496.155 1261.89 Q494.372 1260.2 491.108 1260.2 L485.229 1260.2 M480.553 1256.36 L491.108 1256.36 Q496.918 1256.36 499.881 1258.99 Q502.867 1261.61 502.867 1266.68 Q502.867 1271.8 499.881 1274.41 Q496.918 1277.03 491.108 1277.03 L485.229 1277.03 L485.229 1290.92 L480.553 1290.92 L480.553 1256.36 Z" fill="#000000" fill-rule="nonzero" fill-opacity="1" /><path clip-path="url(#clip170)" d="M529.858 1257.49 L529.858 1262.05 Q527.196 1260.78 524.835 1260.15 Q522.474 1259.53 520.275 1259.53 Q516.455 1259.53 514.372 1261.01 Q512.312 1262.49 512.312 1265.22 Q512.312 1267.51 513.678 1268.69 Q515.066 1269.85 518.909 1270.57 L521.733 1271.15 Q526.965 1272.14 529.441 1274.67 Q531.941 1277.17 531.941 1281.38 Q531.941 1286.4 528.562 1288.99 Q525.205 1291.59 518.701 1291.59 Q516.247 1291.59 513.469 1291.03 Q510.715 1290.48 507.752 1289.39 L507.752 1284.57 Q510.599 1286.17 513.33 1286.98 Q516.062 1287.79 518.701 1287.79 Q522.705 1287.79 524.881 1286.22 Q527.057 1284.64 527.057 1281.73 Q527.057 1279.18 525.483 1277.74 Q523.932 1276.31 520.367 1275.59 L517.52 1275.04 Q512.289 1273.99 509.951 1271.77 Q507.613 1269.55 507.613 1265.59 Q507.613 1261.01 510.83 1258.37 Q514.071 1255.73 519.742 1255.73 Q522.173 1255.73 524.696 1256.17 Q527.219 1256.61 529.858 1257.49 Z" fill="#000000" fill-rule="nonzero" fill-opacity="1" /><path clip-path="url(#clip170)" d="M543.909 1260.2 L543.909 1287.07 L549.557 1287.07 Q556.71 1287.07 560.02 1283.83 Q563.353 1280.59 563.353 1273.6 Q563.353 1266.66 560.02 1263.44 Q556.71 1260.2 549.557 1260.2 L543.909 1260.2 M539.233 1256.36 L548.839 1256.36 Q558.886 1256.36 563.585 1260.55 Q568.284 1264.71 568.284 1273.6 Q568.284 1282.54 563.562 1286.73 Q558.839 1290.92 548.839 1290.92 L539.233 1290.92 L539.233 1256.36 Z" fill="#000000" fill-rule="nonzero" fill-opacity="1" /><path clip-path="url(#clip170)" d="M612.797 1276.89 L612.797 1278.97 L593.214 1278.97 Q593.492 1283.37 595.853 1285.68 Q598.237 1287.98 602.473 1287.98 Q604.927 1287.98 607.219 1287.37 Q609.534 1286.77 611.802 1285.57 L611.802 1289.6 Q609.51 1290.57 607.103 1291.08 Q604.696 1291.59 602.219 1291.59 Q596.015 1291.59 592.381 1287.98 Q588.77 1284.36 588.77 1278.21 Q588.77 1271.84 592.196 1268.11 Q595.645 1264.36 601.478 1264.36 Q606.71 1264.36 609.742 1267.74 Q612.797 1271.1 612.797 1276.89 M608.538 1275.64 Q608.492 1272.14 606.571 1270.06 Q604.672 1267.98 601.524 1267.98 Q597.96 1267.98 595.807 1269.99 Q593.677 1272 593.353 1275.66 L608.538 1275.64 Z" fill="#000000" fill-rule="nonzero" fill-opacity="1" /><path clip-path="url(#clip170)" d="M634.811 1268.97 Q634.094 1268.55 633.237 1268.37 Q632.404 1268.16 631.385 1268.16 Q627.774 1268.16 625.83 1270.52 Q623.908 1272.86 623.908 1277.26 L623.908 1290.92 L619.626 1290.92 L619.626 1264.99 L623.908 1264.99 L623.908 1269.02 Q625.251 1266.66 627.404 1265.52 Q629.557 1264.36 632.635 1264.36 Q633.075 1264.36 633.608 1264.43 Q634.14 1264.48 634.788 1264.6 L634.811 1268.97 Z" fill="#000000" fill-rule="nonzero" fill-opacity="1" /><path clip-path="url(#clip170)" d="M653.469 1268.97 Q652.751 1268.55 651.894 1268.37 Q651.061 1268.16 650.043 1268.16 Q646.432 1268.16 644.487 1270.52 Q642.566 1272.86 642.566 1277.26 L642.566 1290.92 L638.283 1290.92 L638.283 1264.99 L642.566 1264.99 L642.566 1269.02 Q643.908 1266.66 646.061 1265.52 Q648.214 1264.36 651.293 1264.36 Q651.732 1264.36 652.265 1264.43 Q652.797 1264.48 653.445 1264.6 L653.469 1268.97 Z" fill="#000000" fill-rule="nonzero" fill-opacity="1" /><path clip-path="url(#clip170)" d="M666.941 1267.98 Q663.515 1267.98 661.524 1270.66 Q659.533 1273.32 659.533 1277.98 Q659.533 1282.63 661.501 1285.31 Q663.492 1287.98 666.941 1287.98 Q670.343 1287.98 672.334 1285.29 Q674.325 1282.61 674.325 1277.98 Q674.325 1273.37 672.334 1270.68 Q670.343 1267.98 666.941 1267.98 M666.941 1264.36 Q672.496 1264.36 675.667 1267.98 Q678.839 1271.59 678.839 1277.98 Q678.839 1284.34 675.667 1287.98 Q672.496 1291.59 666.941 1291.59 Q661.362 1291.59 658.191 1287.98 Q655.043 1284.34 655.043 1277.98 Q655.043 1271.59 658.191 1267.98 Q661.362 1264.36 666.941 1264.36 Z" fill="#000000" fill-rule="nonzero" fill-opacity="1" /><path clip-path="url(#clip170)" d="M700.922 1268.97 Q700.204 1268.55 699.348 1268.37 Q698.515 1268.16 697.496 1268.16 Q693.885 1268.16 691.941 1270.52 Q690.019 1272.86 690.019 1277.26 L690.019 1290.92 L685.737 1290.92 L685.737 1264.99 L690.019 1264.99 L690.019 1269.02 Q691.362 1266.66 693.515 1265.52 Q695.667 1264.36 698.746 1264.36 Q699.186 1264.36 699.718 1264.43 Q700.251 1264.48 700.899 1264.6 L700.922 1268.97 Z" fill="#000000" fill-rule="nonzero" fill-opacity="1" /><polyline clip-path="url(#clip170)" style="stroke:#3da44d; stroke-linecap:round; stroke-linejoin:round; stroke-width:4; stroke-opacity:1; fill:none" points="314.661,1325.48 456.854,1325.48 "/>
<path clip-path="url(#clip170)" d="M502.798 1309.33 L502.798 1313.89 Q500.136 1312.62 497.775 1311.99 Q495.414 1311.37 493.215 1311.37 Q489.395 1311.37 487.312 1312.85 Q485.252 1314.33 485.252 1317.06 Q485.252 1319.35 486.618 1320.53 Q488.006 1321.69 491.849 1322.41 L494.673 1322.99 Q499.905 1323.98 502.381 1326.51 Q504.881 1329.01 504.881 1333.22 Q504.881 1338.24 501.502 1340.83 Q498.145 1343.43 491.641 1343.43 Q489.187 1343.43 486.409 1342.87 Q483.655 1342.32 480.692 1341.23 L480.692 1336.41 Q483.539 1338.01 486.27 1338.82 Q489.002 1339.63 491.641 1339.63 Q495.645 1339.63 497.821 1338.06 Q499.997 1336.48 499.997 1333.57 Q499.997 1331.02 498.423 1329.58 Q496.872 1328.15 493.307 1327.43 L490.46 1326.88 Q485.229 1325.83 482.891 1323.61 Q480.553 1321.39 480.553 1317.43 Q480.553 1312.85 483.77 1310.21 Q487.011 1307.57 492.682 1307.57 Q495.113 1307.57 497.636 1308.01 Q500.159 1308.45 502.798 1309.33 Z" fill="#000000" fill-rule="nonzero" fill-opacity="1" /><path clip-path="url(#clip170)" d="M524.603 1312.8 L518.261 1330 L530.969 1330 L524.603 1312.8 M521.965 1308.2 L527.265 1308.2 L540.437 1342.76 L535.576 1342.76 L532.427 1333.89 L516.849 1333.89 L513.701 1342.76 L508.77 1342.76 L521.965 1308.2 Z" fill="#000000" fill-rule="nonzero" fill-opacity="1" /><path clip-path="url(#clip170)" d="M545.483 1308.2 L567.335 1308.2 L567.335 1312.13 L550.159 1312.13 L550.159 1322.36 L566.617 1322.36 L566.617 1326.3 L550.159 1326.3 L550.159 1338.82 L567.751 1338.82 L567.751 1342.76 L545.483 1342.76 L545.483 1308.2 Z" fill="#000000" fill-rule="nonzero" fill-opacity="1" /><path clip-path="url(#clip170)" d="M612.497 1328.73 L612.497 1330.81 L592.913 1330.81 Q593.191 1335.21 595.552 1337.52 Q597.936 1339.82 602.172 1339.82 Q604.626 1339.82 606.918 1339.21 Q609.233 1338.61 611.501 1337.41 L611.501 1341.44 Q609.209 1342.41 606.802 1342.92 Q604.395 1343.43 601.918 1343.43 Q595.714 1343.43 592.08 1339.82 Q588.469 1336.2 588.469 1330.05 Q588.469 1323.68 591.895 1319.95 Q595.344 1316.2 601.177 1316.2 Q606.409 1316.2 609.441 1319.58 Q612.497 1322.94 612.497 1328.73 M608.237 1327.48 Q608.191 1323.98 606.27 1321.9 Q604.372 1319.82 601.223 1319.82 Q597.659 1319.82 595.506 1321.83 Q593.376 1323.84 593.052 1327.5 L608.237 1327.48 Z" fill="#000000" fill-rule="nonzero" fill-opacity="1" /><path clip-path="url(#clip170)" d="M634.51 1320.81 Q633.793 1320.39 632.936 1320.21 Q632.103 1320 631.084 1320 Q627.473 1320 625.529 1322.36 Q623.608 1324.7 623.608 1329.1 L623.608 1342.76 L619.325 1342.76 L619.325 1316.83 L623.608 1316.83 L623.608 1320.86 Q624.95 1318.5 627.103 1317.36 Q629.256 1316.2 632.334 1316.2 Q632.774 1316.2 633.307 1316.27 Q633.839 1316.32 634.487 1316.44 L634.51 1320.81 Z" fill="#000000" fill-rule="nonzero" fill-opacity="1" /><path clip-path="url(#clip170)" d="M653.168 1320.81 Q652.45 1320.39 651.594 1320.21 Q650.76 1320 649.742 1320 Q646.131 1320 644.186 1322.36 Q642.265 1324.7 642.265 1329.1 L642.265 1342.76 L637.982 1342.76 L637.982 1316.83 L642.265 1316.83 L642.265 1320.86 Q643.607 1318.5 645.76 1317.36 Q647.913 1316.2 650.992 1316.2 Q651.431 1316.2 651.964 1316.27 Q652.496 1316.32 653.144 1316.44 L653.168 1320.81 Z" fill="#000000" fill-rule="nonzero" fill-opacity="1" /><path clip-path="url(#clip170)" d="M666.64 1319.82 Q663.214 1319.82 661.223 1322.5 Q659.232 1325.16 659.232 1329.82 Q659.232 1334.47 661.2 1337.15 Q663.191 1339.82 666.64 1339.82 Q670.043 1339.82 672.033 1337.13 Q674.024 1334.45 674.024 1329.82 Q674.024 1325.21 672.033 1322.52 Q670.043 1319.82 666.64 1319.82 M666.64 1316.2 Q672.195 1316.2 675.367 1319.82 Q678.538 1323.43 678.538 1329.82 Q678.538 1336.18 675.367 1339.82 Q672.195 1343.43 666.64 1343.43 Q661.061 1343.43 657.89 1339.82 Q654.742 1336.18 654.742 1329.82 Q654.742 1323.43 657.89 1319.82 Q661.061 1316.2 666.64 1316.2 Z" fill="#000000" fill-rule="nonzero" fill-opacity="1" /><path clip-path="url(#clip170)" d="M700.621 1320.81 Q699.903 1320.39 699.047 1320.21 Q698.214 1320 697.195 1320 Q693.584 1320 691.64 1322.36 Q689.718 1324.7 689.718 1329.1 L689.718 1342.76 L685.436 1342.76 L685.436 1316.83 L689.718 1316.83 L689.718 1320.86 Q691.061 1318.5 693.214 1317.36 Q695.366 1316.2 698.445 1316.2 Q698.885 1316.2 699.417 1316.27 Q699.95 1316.32 700.598 1316.44 L700.621 1320.81 Z" fill="#000000" fill-rule="nonzero" fill-opacity="1" /></svg>
