<?xml version="1.0" encoding="utf-8"?>
<svg xmlns="http://www.w3.org/2000/svg" xmlns:xlink="http://www.w3.org/1999/xlink" width="600" height="400" viewBox="0 0 2400 1600">
<defs>
  <clipPath id="clip110">
    <rect x="0" y="0" width="2400" height="1600"/>
  </clipPath>
</defs>
<path clip-path="url(#clip110)" d="M0 1600 L2400 1600 L2400 0 L0 0  Z" fill="#ffffff" fill-rule="evenodd" fill-opacity="1"/>
<defs>
  <clipPath id="clip111">
    <rect x="480" y="0" width="1681" height="1600"/>
  </clipPath>
</defs>
<path clip-path="url(#clip110)" d="M156.598 1486.45 L2352.76 1486.45 L2352.76 47.2441 L156.598 47.2441  Z" fill="#ffffff" fill-rule="evenodd" fill-opacity="1"/>
<defs>
  <clipPath id="clip112">
    <rect x="156" y="47" width="2197" height="1440"/>
  </clipPath>
</defs>
<polyline clip-path="url(#clip112)" style="stroke:#000000; stroke-linecap:round; stroke-linejoin:round; stroke-width:2; stroke-opacity:0.1; fill:none" points="208.342,1486.45 208.342,47.2441 "/>
<polyline clip-path="url(#clip112)" style="stroke:#000000; stroke-linecap:round; stroke-linejoin:round; stroke-width:2; stroke-opacity:0.1; fill:none" points="728.907,1486.45 728.907,47.2441 "/>
<polyline clip-path="url(#clip112)" style="stroke:#000000; stroke-linecap:round; stroke-linejoin:round; stroke-width:2; stroke-opacity:0.1; fill:none" points="1249.47,1486.45 1249.47,47.2441 "/>
<polyline clip-path="url(#clip112)" style="stroke:#000000; stroke-linecap:round; stroke-linejoin:round; stroke-width:2; stroke-opacity:0.1; fill:none" points="1770.04,1486.45 1770.04,47.2441 "/>
<polyline clip-path="url(#clip112)" style="stroke:#000000; stroke-linecap:round; stroke-linejoin:round; stroke-width:2; stroke-opacity:0.1; fill:none" points="2290.6,1486.45 2290.6,47.2441 "/>
<polyline clip-path="url(#clip110)" style="stroke:#000000; stroke-linecap:round; stroke-linejoin:round; stroke-width:4; stroke-opacity:1; fill:none" points="156.598,1486.45 2352.76,1486.45 "/>
<polyline clip-path="url(#clip110)" style="stroke:#000000; stroke-linecap:round; stroke-linejoin:round; stroke-width:4; stroke-opacity:1; fill:none" points="208.342,1486.45 208.342,1467.55 "/>
<polyline clip-path="url(#clip110)" style="stroke:#000000; stroke-linecap:round; stroke-linejoin:round; stroke-width:4; stroke-opacity:1; fill:none" points="728.907,1486.45 728.907,1467.55 "/>
<polyline clip-path="url(#clip110)" style="stroke:#000000; stroke-linecap:round; stroke-linejoin:round; stroke-width:4; stroke-opacity:1; fill:none" points="1249.47,1486.45 1249.47,1467.55 "/>
<polyline clip-path="url(#clip110)" style="stroke:#000000; stroke-linecap:round; stroke-linejoin:round; stroke-width:4; stroke-opacity:1; fill:none" points="1770.04,1486.45 1770.04,1467.55 "/>
<polyline clip-path="url(#clip110)" style="stroke:#000000; stroke-linecap:round; stroke-linejoin:round; stroke-width:4; stroke-opacity:1; fill:none" points="2290.6,1486.45 2290.6,1467.55 "/>
<path clip-path="url(#clip110)" d="M208.342 1517.37 Q204.731 1517.37 202.903 1520.93 Q201.097 1524.47 201.097 1531.6 Q201.097 1538.71 202.903 1542.27 Q204.731 1545.82 208.342 1545.82 Q211.977 1545.82 213.782 1542.27 Q215.611 1538.71 215.611 1531.6 Q215.611 1524.47 213.782 1520.93 Q211.977 1517.37 208.342 1517.37 M208.342 1513.66 Q214.153 1513.66 217.208 1518.27 Q220.287 1522.85 220.287 1531.6 Q220.287 1540.33 217.208 1544.94 Q214.153 1549.52 208.342 1549.52 Q202.532 1549.52 199.454 1544.94 Q196.398 1540.33 196.398 1531.6 Q196.398 1522.85 199.454 1518.27 Q202.532 1513.66 208.342 1513.66 Z" fill="#000000" fill-rule="nonzero" fill-opacity="1" /><path clip-path="url(#clip110)" d="M703.606 1514.29 L721.962 1514.29 L721.962 1518.22 L707.888 1518.22 L707.888 1526.7 Q708.907 1526.35 709.926 1526.19 Q710.944 1526 711.963 1526 Q717.75 1526 721.129 1529.17 Q724.509 1532.34 724.509 1537.76 Q724.509 1543.34 721.037 1546.44 Q717.564 1549.52 711.245 1549.52 Q709.069 1549.52 706.801 1549.15 Q704.555 1548.78 702.148 1548.04 L702.148 1543.34 Q704.231 1544.47 706.453 1545.03 Q708.676 1545.58 711.152 1545.58 Q715.157 1545.58 717.495 1543.48 Q719.833 1541.37 719.833 1537.76 Q719.833 1534.15 717.495 1532.04 Q715.157 1529.94 711.152 1529.94 Q709.277 1529.94 707.402 1530.35 Q705.551 1530.77 703.606 1531.65 L703.606 1514.29 Z" fill="#000000" fill-rule="nonzero" fill-opacity="1" /><path clip-path="url(#clip110)" d="M743.722 1517.37 Q740.111 1517.37 738.282 1520.93 Q736.476 1524.47 736.476 1531.6 Q736.476 1538.71 738.282 1542.27 Q740.111 1545.82 743.722 1545.82 Q747.356 1545.82 749.161 1542.27 Q750.99 1538.71 750.99 1531.6 Q750.99 1524.47 749.161 1520.93 Q747.356 1517.37 743.722 1517.37 M743.722 1513.66 Q749.532 1513.66 752.587 1518.27 Q755.666 1522.85 755.666 1531.6 Q755.666 1540.33 752.587 1544.94 Q749.532 1549.52 743.722 1549.52 Q737.911 1549.52 734.833 1544.94 Q731.777 1540.33 731.777 1531.6 Q731.777 1522.85 734.833 1518.27 Q737.911 1513.66 743.722 1513.66 Z" fill="#000000" fill-rule="nonzero" fill-opacity="1" /><path clip-path="url(#clip110)" d="M1209.08 1544.91 L1216.72 1544.91 L1216.72 1518.55 L1208.41 1520.21 L1208.41 1515.95 L1216.67 1514.29 L1221.35 1514.29 L1221.35 1544.91 L1228.99 1544.91 L1228.99 1548.85 L1209.08 1548.85 L1209.08 1544.91 Z" fill="#000000" fill-rule="nonzero" fill-opacity="1" /><path clip-path="url(#clip110)" d="M1248.43 1517.37 Q1244.82 1517.37 1242.99 1520.93 Q1241.18 1524.47 1241.18 1531.6 Q1241.18 1538.71 1242.99 1542.27 Q1244.82 1545.82 1248.43 1545.82 Q1252.06 1545.82 1253.87 1542.27 Q1255.7 1538.71 1255.7 1531.6 Q1255.7 1524.47 1253.87 1520.93 Q1252.06 1517.37 1248.43 1517.37 M1248.43 1513.66 Q1254.24 1513.66 1257.3 1518.27 Q1260.37 1522.85 1260.37 1531.6 Q1260.37 1540.33 1257.3 1544.94 Q1254.24 1549.52 1248.43 1549.52 Q1242.62 1549.52 1239.54 1544.94 Q1236.49 1540.33 1236.49 1531.6 Q1236.49 1522.85 1239.54 1518.27 Q1242.62 1513.66 1248.43 1513.66 Z" fill="#000000" fill-rule="nonzero" fill-opacity="1" /><path clip-path="url(#clip110)" d="M1278.59 1517.37 Q1274.98 1517.37 1273.15 1520.93 Q1271.35 1524.47 1271.35 1531.6 Q1271.35 1538.71 1273.15 1542.27 Q1274.98 1545.82 1278.59 1545.82 Q1282.23 1545.82 1284.03 1542.27 Q1285.86 1538.71 1285.86 1531.6 Q1285.86 1524.47 1284.03 1520.93 Q1282.23 1517.37 1278.59 1517.37 M1278.59 1513.66 Q1284.4 1513.66 1287.46 1518.27 Q1290.54 1522.85 1290.54 1531.6 Q1290.54 1540.33 1287.46 1544.94 Q1284.4 1549.52 1278.59 1549.52 Q1272.78 1549.52 1269.7 1544.94 Q1266.65 1540.33 1266.65 1531.6 Q1266.65 1522.85 1269.7 1518.27 Q1272.78 1513.66 1278.59 1513.66 Z" fill="#000000" fill-rule="nonzero" fill-opacity="1" /><path clip-path="url(#clip110)" d="M1729.64 1544.91 L1737.28 1544.91 L1737.28 1518.55 L1728.97 1520.21 L1728.97 1515.95 L1737.24 1514.29 L1741.91 1514.29 L1741.91 1544.91 L1749.55 1544.91 L1749.55 1548.85 L1729.64 1548.85 L1729.64 1544.91 Z" fill="#000000" fill-rule="nonzero" fill-opacity="1" /><path clip-path="url(#clip110)" d="M1759.04 1514.29 L1777.4 1514.29 L1777.4 1518.22 L1763.32 1518.22 L1763.32 1526.7 Q1764.34 1526.35 1765.36 1526.19 Q1766.38 1526 1767.4 1526 Q1773.18 1526 1776.56 1529.17 Q1779.94 1532.34 1779.94 1537.76 Q1779.94 1543.34 1776.47 1546.44 Q1773 1549.52 1766.68 1549.52 Q1764.5 1549.52 1762.24 1549.15 Q1759.99 1548.78 1757.58 1548.04 L1757.58 1543.34 Q1759.67 1544.47 1761.89 1545.03 Q1764.11 1545.58 1766.59 1545.58 Q1770.59 1545.58 1772.93 1543.48 Q1775.27 1541.37 1775.27 1537.76 Q1775.27 1534.15 1772.93 1532.04 Q1770.59 1529.94 1766.59 1529.94 Q1764.71 1529.94 1762.84 1530.35 Q1760.99 1530.77 1759.04 1531.65 L1759.04 1514.29 Z" fill="#000000" fill-rule="nonzero" fill-opacity="1" /><path clip-path="url(#clip110)" d="M1799.16 1517.37 Q1795.55 1517.37 1793.72 1520.93 Q1791.91 1524.47 1791.91 1531.6 Q1791.91 1538.71 1793.72 1542.27 Q1795.55 1545.82 1799.16 1545.82 Q1802.79 1545.82 1804.6 1542.27 Q1806.42 1538.71 1806.42 1531.6 Q1806.42 1524.47 1804.6 1520.93 Q1802.79 1517.37 1799.16 1517.37 M1799.16 1513.66 Q1804.97 1513.66 1808.02 1518.27 Q1811.1 1522.85 1811.1 1531.6 Q1811.1 1540.33 1808.02 1544.94 Q1804.97 1549.52 1799.16 1549.52 Q1793.35 1549.52 1790.27 1544.94 Q1787.21 1540.33 1787.21 1531.6 Q1787.21 1522.85 1790.27 1518.27 Q1793.35 1513.66 1799.16 1513.66 Z" fill="#000000" fill-rule="nonzero" fill-opacity="1" /><path clip-path="url(#clip110)" d="M2254.29 1544.91 L2270.61 1544.91 L2270.61 1548.85 L2248.67 1548.85 L2248.67 1544.91 Q2251.33 1542.16 2255.91 1537.53 Q2260.52 1532.88 2261.7 1531.53 Q2263.95 1529.01 2264.83 1527.27 Q2265.73 1525.51 2265.73 1523.82 Q2265.73 1521.07 2263.78 1519.33 Q2261.86 1517.6 2258.76 1517.6 Q2256.56 1517.6 2254.11 1518.36 Q2251.68 1519.13 2248.9 1520.68 L2248.9 1515.95 Q2251.72 1514.82 2254.18 1514.24 Q2256.63 1513.66 2258.67 1513.66 Q2264.04 1513.66 2267.23 1516.35 Q2270.43 1519.03 2270.43 1523.52 Q2270.43 1525.65 2269.62 1527.57 Q2268.83 1529.47 2266.72 1532.07 Q2266.14 1532.74 2263.04 1535.95 Q2259.94 1539.15 2254.29 1544.91 Z" fill="#000000" fill-rule="nonzero" fill-opacity="1" /><path clip-path="url(#clip110)" d="M2290.43 1517.37 Q2286.82 1517.37 2284.99 1520.93 Q2283.18 1524.47 2283.18 1531.6 Q2283.18 1538.71 2284.99 1542.27 Q2286.82 1545.82 2290.43 1545.82 Q2294.06 1545.82 2295.87 1542.27 Q2297.7 1538.71 2297.7 1531.6 Q2297.7 1524.47 2295.87 1520.93 Q2294.06 1517.37 2290.43 1517.37 M2290.43 1513.66 Q2296.24 1513.66 2299.29 1518.27 Q2302.37 1522.85 2302.37 1531.6 Q2302.37 1540.33 2299.29 1544.94 Q2296.24 1549.52 2290.43 1549.52 Q2284.62 1549.52 2281.54 1544.94 Q2278.48 1540.33 2278.48 1531.6 Q2278.48 1522.85 2281.54 1518.27 Q2284.62 1513.66 2290.43 1513.66 Z" fill="#000000" fill-rule="nonzero" fill-opacity="1" /><path clip-path="url(#clip110)" d="M2320.59 1517.37 Q2316.98 1517.37 2315.15 1520.93 Q2313.34 1524.47 2313.34 1531.6 Q2313.34 1538.71 2315.15 1542.27 Q2316.98 1545.82 2320.59 1545.82 Q2324.22 1545.82 2326.03 1542.27 Q2327.86 1538.71 2327.86 1531.6 Q2327.86 1524.47 2326.03 1520.93 Q2324.22 1517.37 2320.59 1517.37 M2320.59 1513.66 Q2326.4 1513.66 2329.45 1518.27 Q2332.53 1522.85 2332.53 1531.6 Q2332.53 1540.33 2329.45 1544.94 Q2326.4 1549.52 2320.59 1549.52 Q2314.78 1549.52 2311.7 1544.94 Q2308.64 1540.33 2308.64 1531.6 Q2308.64 1522.85 2311.7 1518.27 Q2314.78 1513.66 2320.59 1513.66 Z" fill="#000000" fill-rule="nonzero" fill-opacity="1" /><polyline clip-path="url(#clip112)" style="stroke:#000000; stroke-linecap:round; stroke-linejoin:round; stroke-width:2; stroke-opacity:0.1; fill:none" points="156.598,1257.59 2352.76,1257.59 "/>
<polyline clip-path="url(#clip112)" style="stroke:#000000; stroke-linecap:round; stroke-linejoin:round; stroke-width:2; stroke-opacity:0.1; fill:none" points="156.598,1004.19 2352.76,1004.19 "/>
<polyline clip-path="url(#clip112)" style="stroke:#000000; stroke-linecap:round; stroke-linejoin:round; stroke-width:2; stroke-opacity:0.1; fill:none" points="156.598,750.791 2352.76,750.791 "/>
<polyline clip-path="url(#clip112)" style="stroke:#000000; stroke-linecap:round; stroke-linejoin:round; stroke-width:2; stroke-opacity:0.1; fill:none" points="156.598,497.391 2352.76,497.391 "/>
<polyline clip-path="url(#clip112)" style="stroke:#000000; stroke-linecap:round; stroke-linejoin:round; stroke-width:2; stroke-opacity:0.1; fill:none" points="156.598,243.99 2352.76,243.99 "/>
<polyline clip-path="url(#clip110)" style="stroke:#000000; stroke-linecap:round; stroke-linejoin:round; stroke-width:4; stroke-opacity:1; fill:none" points="156.598,1486.45 156.598,47.2441 "/>
<polyline clip-path="url(#clip110)" style="stroke:#000000; stroke-linecap:round; stroke-linejoin:round; stroke-width:4; stroke-opacity:1; fill:none" points="156.598,1257.59 175.496,1257.59 "/>
<polyline clip-path="url(#clip110)" style="stroke:#000000; stroke-linecap:round; stroke-linejoin:round; stroke-width:4; stroke-opacity:1; fill:none" points="156.598,1004.19 175.496,1004.19 "/>
<polyline clip-path="url(#clip110)" style="stroke:#000000; stroke-linecap:round; stroke-linejoin:round; stroke-width:4; stroke-opacity:1; fill:none" points="156.598,750.791 175.496,750.791 "/>
<polyline clip-path="url(#clip110)" style="stroke:#000000; stroke-linecap:round; stroke-linejoin:round; stroke-width:4; stroke-opacity:1; fill:none" points="156.598,497.391 175.496,497.391 "/>
<polyline clip-path="url(#clip110)" style="stroke:#000000; stroke-linecap:round; stroke-linejoin:round; stroke-width:4; stroke-opacity:1; fill:none" points="156.598,243.99 175.496,243.99 "/>
<path clip-path="url(#clip110)" d="M63.4226 1243.39 Q59.8115 1243.39 57.9828 1246.96 Q56.1773 1250.5 56.1773 1257.63 Q56.1773 1264.73 57.9828 1268.3 Q59.8115 1271.84 63.4226 1271.84 Q67.0569 1271.84 68.8624 1268.3 Q70.6911 1264.73 70.6911 1257.63 Q70.6911 1250.5 68.8624 1246.96 Q67.0569 1243.39 63.4226 1243.39 M63.4226 1239.69 Q69.2328 1239.69 72.2883 1244.29 Q75.367 1248.88 75.367 1257.63 Q75.367 1266.35 72.2883 1270.96 Q69.2328 1275.54 63.4226 1275.54 Q57.6125 1275.54 54.5338 1270.96 Q51.4782 1266.35 51.4782 1257.63 Q51.4782 1248.88 54.5338 1244.29 Q57.6125 1239.69 63.4226 1239.69 Z" fill="#000000" fill-rule="nonzero" fill-opacity="1" /><path clip-path="url(#clip110)" d="M83.5845 1268.99 L88.4688 1268.99 L88.4688 1274.87 L83.5845 1274.87 L83.5845 1268.99 Z" fill="#000000" fill-rule="nonzero" fill-opacity="1" /><path clip-path="url(#clip110)" d="M108.654 1243.39 Q105.043 1243.39 103.214 1246.96 Q101.409 1250.5 101.409 1257.63 Q101.409 1264.73 103.214 1268.3 Q105.043 1271.84 108.654 1271.84 Q112.288 1271.84 114.094 1268.3 Q115.922 1264.73 115.922 1257.63 Q115.922 1250.5 114.094 1246.96 Q112.288 1243.39 108.654 1243.39 M108.654 1239.69 Q114.464 1239.69 117.52 1244.29 Q120.598 1248.88 120.598 1257.63 Q120.598 1266.35 117.52 1270.96 Q114.464 1275.54 108.654 1275.54 Q102.844 1275.54 99.765 1270.96 Q96.7095 1266.35 96.7095 1257.63 Q96.7095 1248.88 99.765 1244.29 Q102.844 1239.69 108.654 1239.69 Z" fill="#000000" fill-rule="nonzero" fill-opacity="1" /><path clip-path="url(#clip110)" d="M65.0198 989.991 Q61.4087 989.991 59.58 993.556 Q57.7745 997.097 57.7745 1004.23 Q57.7745 1011.33 59.58 1014.9 Q61.4087 1018.44 65.0198 1018.44 Q68.6541 1018.44 70.4596 1014.9 Q72.2883 1011.33 72.2883 1004.23 Q72.2883 997.097 70.4596 993.556 Q68.6541 989.991 65.0198 989.991 M65.0198 986.287 Q70.83 986.287 73.8855 990.894 Q76.9642 995.477 76.9642 1004.23 Q76.9642 1012.95 73.8855 1017.56 Q70.83 1022.14 65.0198 1022.14 Q59.2097 1022.14 56.131 1017.56 Q53.0754 1012.95 53.0754 1004.23 Q53.0754 995.477 56.131 990.894 Q59.2097 986.287 65.0198 986.287 Z" fill="#000000" fill-rule="nonzero" fill-opacity="1" /><path clip-path="url(#clip110)" d="M85.1818 1015.59 L90.066 1015.59 L90.066 1021.47 L85.1818 1021.47 L85.1818 1015.59 Z" fill="#000000" fill-rule="nonzero" fill-opacity="1" /><path clip-path="url(#clip110)" d="M104.279 1017.54 L120.598 1017.54 L120.598 1021.47 L98.6539 1021.47 L98.6539 1017.54 Q101.316 1014.78 105.899 1010.15 Q110.506 1005.5 111.686 1004.16 Q113.932 1001.63 114.811 999.898 Q115.714 998.139 115.714 996.449 Q115.714 993.694 113.77 991.958 Q111.848 990.222 108.746 990.222 Q106.547 990.222 104.094 990.986 Q101.663 991.75 98.8854 993.301 L98.8854 988.579 Q101.709 987.444 104.163 986.866 Q106.617 986.287 108.654 986.287 Q114.024 986.287 117.219 988.972 Q120.413 991.657 120.413 996.148 Q120.413 998.278 119.603 1000.2 Q118.816 1002.1 116.709 1004.69 Q116.131 1005.36 113.029 1008.58 Q109.927 1011.77 104.279 1017.54 Z" fill="#000000" fill-rule="nonzero" fill-opacity="1" /><path clip-path="url(#clip110)" d="M62.9365 736.59 Q59.3254 736.59 57.4967 740.155 Q55.6912 743.697 55.6912 750.826 Q55.6912 757.933 57.4967 761.497 Q59.3254 765.039 62.9365 765.039 Q66.5707 765.039 68.3763 761.497 Q70.205 757.933 70.205 750.826 Q70.205 743.697 68.3763 740.155 Q66.5707 736.59 62.9365 736.59 M62.9365 732.886 Q68.7467 732.886 71.8022 737.493 Q74.8809 742.076 74.8809 750.826 Q74.8809 759.553 71.8022 764.159 Q68.7467 768.743 62.9365 768.743 Q57.1264 768.743 54.0477 764.159 Q50.9921 759.553 50.9921 750.826 Q50.9921 742.076 54.0477 737.493 Q57.1264 732.886 62.9365 732.886 Z" fill="#000000" fill-rule="nonzero" fill-opacity="1" /><path clip-path="url(#clip110)" d="M83.0984 762.192 L87.9827 762.192 L87.9827 768.071 L83.0984 768.071 L83.0984 762.192 Z" fill="#000000" fill-rule="nonzero" fill-opacity="1" /><path clip-path="url(#clip110)" d="M111.015 737.586 L99.2095 756.034 L111.015 756.034 L111.015 737.586 M109.788 733.511 L115.668 733.511 L115.668 756.034 L120.598 756.034 L120.598 759.923 L115.668 759.923 L115.668 768.071 L111.015 768.071 L111.015 759.923 L95.4132 759.923 L95.4132 755.409 L109.788 733.511 Z" fill="#000000" fill-rule="nonzero" fill-opacity="1" /><path clip-path="url(#clip110)" d="M63.2606 483.19 Q59.6495 483.19 57.8208 486.754 Q56.0152 490.296 56.0152 497.426 Q56.0152 504.532 57.8208 508.097 Q59.6495 511.638 63.2606 511.638 Q66.8948 511.638 68.7004 508.097 Q70.5291 504.532 70.5291 497.426 Q70.5291 490.296 68.7004 486.754 Q66.8948 483.19 63.2606 483.19 M63.2606 479.486 Q69.0707 479.486 72.1263 484.092 Q75.205 488.676 75.205 497.426 Q75.205 506.152 72.1263 510.759 Q69.0707 515.342 63.2606 515.342 Q57.4504 515.342 54.3717 510.759 Q51.3162 506.152 51.3162 497.426 Q51.3162 488.676 54.3717 484.092 Q57.4504 479.486 63.2606 479.486 Z" fill="#000000" fill-rule="nonzero" fill-opacity="1" /><path clip-path="url(#clip110)" d="M83.4225 508.791 L88.3067 508.791 L88.3067 514.671 L83.4225 514.671 L83.4225 508.791 Z" fill="#000000" fill-rule="nonzero" fill-opacity="1" /><path clip-path="url(#clip110)" d="M109.071 495.527 Q105.922 495.527 104.071 497.68 Q102.242 499.833 102.242 503.583 Q102.242 507.31 104.071 509.486 Q105.922 511.638 109.071 511.638 Q112.219 511.638 114.047 509.486 Q115.899 507.31 115.899 503.583 Q115.899 499.833 114.047 497.68 Q112.219 495.527 109.071 495.527 M118.353 480.875 L118.353 485.134 Q116.594 484.301 114.788 483.861 Q113.006 483.421 111.246 483.421 Q106.617 483.421 104.163 486.546 Q101.733 489.671 101.385 495.99 Q102.751 493.977 104.811 492.912 Q106.871 491.824 109.348 491.824 Q114.557 491.824 117.566 494.995 Q120.598 498.143 120.598 503.583 Q120.598 508.907 117.45 512.125 Q114.302 515.342 109.071 515.342 Q103.075 515.342 99.9039 510.759 Q96.7326 506.152 96.7326 497.426 Q96.7326 489.231 100.621 484.37 Q104.51 479.486 111.061 479.486 Q112.82 479.486 114.603 479.833 Q116.408 480.18 118.353 480.875 Z" fill="#000000" fill-rule="nonzero" fill-opacity="1" /><path clip-path="url(#clip110)" d="M63.5152 229.789 Q59.9041 229.789 58.0754 233.354 Q56.2699 236.895 56.2699 244.025 Q56.2699 251.131 58.0754 254.696 Q59.9041 258.238 63.5152 258.238 Q67.1494 258.238 68.955 254.696 Q70.7837 251.131 70.7837 244.025 Q70.7837 236.895 68.955 233.354 Q67.1494 229.789 63.5152 229.789 M63.5152 226.085 Q69.3254 226.085 72.3809 230.692 Q75.4596 235.275 75.4596 244.025 Q75.4596 252.752 72.3809 257.358 Q69.3254 261.942 63.5152 261.942 Q57.7051 261.942 54.6264 257.358 Q51.5708 252.752 51.5708 244.025 Q51.5708 235.275 54.6264 230.692 Q57.7051 226.085 63.5152 226.085 Z" fill="#000000" fill-rule="nonzero" fill-opacity="1" /><path clip-path="url(#clip110)" d="M83.6771 255.391 L88.5614 255.391 L88.5614 261.27 L83.6771 261.27 L83.6771 255.391 Z" fill="#000000" fill-rule="nonzero" fill-opacity="1" /><path clip-path="url(#clip110)" d="M108.746 244.858 Q105.413 244.858 103.492 246.641 Q101.594 248.423 101.594 251.548 Q101.594 254.673 103.492 256.455 Q105.413 258.238 108.746 258.238 Q112.08 258.238 114.001 256.455 Q115.922 254.65 115.922 251.548 Q115.922 248.423 114.001 246.641 Q112.103 244.858 108.746 244.858 M104.071 242.868 Q101.061 242.127 99.3715 240.067 Q97.7048 238.006 97.7048 235.044 Q97.7048 230.9 100.645 228.493 Q103.608 226.085 108.746 226.085 Q113.908 226.085 116.848 228.493 Q119.788 230.9 119.788 235.044 Q119.788 238.006 118.098 240.067 Q116.432 242.127 113.445 242.868 Q116.825 243.655 118.7 245.946 Q120.598 248.238 120.598 251.548 Q120.598 256.571 117.52 259.256 Q114.464 261.942 108.746 261.942 Q103.029 261.942 99.9502 259.256 Q96.8947 256.571 96.8947 251.548 Q96.8947 248.238 98.7928 245.946 Q100.691 243.655 104.071 242.868 M102.358 235.483 Q102.358 238.169 104.024 239.673 Q105.714 241.178 108.746 241.178 Q111.756 241.178 113.445 239.673 Q115.158 238.169 115.158 235.483 Q115.158 232.798 113.445 231.294 Q111.756 229.789 108.746 229.789 Q105.714 229.789 104.024 231.294 Q102.358 232.798 102.358 235.483 Z" fill="#000000" fill-rule="nonzero" fill-opacity="1" /><polyline clip-path="url(#clip112)" style="stroke:#009af9; stroke-linecap:round; stroke-linejoin:round; stroke-width:4; stroke-opacity:1; fill:none" points="218.754,1257.14 229.165,1256.79 239.576,1256.29 249.988,1255.62 260.399,1254.74 270.81,1253.65 281.221,1252.3 291.633,1250.67 302.044,1248.74 312.455,1246.48 322.867,1243.86 333.278,1240.87 343.689,1237.47 354.1,1233.61 364.512,1229.26 374.923,1224.34 385.334,1218.83 395.746,1212.65 406.157,1205.76 416.568,1198.11 426.979,1189.65 437.391,1180.32 447.802,1170.08 458.213,1158.86 468.625,1146.63 479.036,1133.32 489.447,1118.88 499.858,1103.27 510.27,1086.44 520.681,1068.33 531.092,1048.95 541.504,1028.3 551.915,1006.47 562.326,983.512 572.738,959.465 583.149,934.384 593.56,908.32 603.971,881.323 614.383,853.445 624.794,824.737 635.205,795.25 645.617,765.032 656.028,734.147 666.439,702.634 676.85,670.529 687.262,637.912 697.673,604.908 708.084,571.663 718.496,538.333 728.907,505.076 739.318,472.05 749.729,439.414 760.141,407.324 770.552,375.94 780.963,345.419 791.375,315.919 801.786,287.599 812.197,260.617 822.609,235.131 833.02,211.298 843.431,189.277 853.842,169.221 864.254,151.276 874.665,135.55 885.076,122.086 895.488,110.86 905.899,101.847 916.31,95.0572 926.721,90.4873 937.133,88.1265 947.544,87.9763 957.955,90.0284 968.367,94.281 978.778,100.726 989.189,109.368 999.6,120.188 1010.01,133.189 1020.42,148.395 1030.83,165.787 1041.25,185.274 1051.66,206.725 1062.07,229.991 1072.48,254.918 1082.89,281.352 1093.3,309.139 1103.71,338.123 1114.12,368.152 1124.54,399.071 1134.95,430.724 1145.36,462.958 1155.77,495.618 1166.18,528.55 1176.59,561.6 1187,594.613 1197.41,627.438 1207.83,659.928 1218.24,691.96 1228.65,723.451 1239.06,754.36 1249.47,784.651 1259.88,814.263 1270.29,843.14 1280.71,871.237 1291.12,898.494 1301.53,924.863 1311.94,950.286 1322.35,974.715 1332.76,998.09 1343.17,1020.36 1353.58,1041.49 1364,1061.38 1374.41,1080 1384.82,1097.34 1395.23,1113.43 1405.64,1128.31 1416.05,1142.05 1426.46,1154.7 1436.87,1166.29 1447.29,1176.9 1457.7,1186.56 1468.11,1195.34 1478.52,1203.28 1488.93,1210.43 1499.34,1216.86 1509.75,1222.6 1520.16,1227.72 1530.58,1232.26 1540.99,1236.29 1551.4,1239.84 1561.81,1242.96 1572.22,1245.7 1582.63,1248.07 1593.04,1250.11 1603.46,1251.83 1613.87,1253.26 1624.28,1254.43 1634.69,1255.37 1645.1,1256.1 1655.51,1256.65 1665.92,1257.05 1676.33,1257.31 1686.75,1257.47 1697.16,1257.55 1707.57,1257.58 1717.98,1257.59 1728.39,1257.59 1738.8,1257.59 1749.21,1257.59 1759.62,1257.59 1770.04,1257.59 1780.45,1257.59 1790.86,1257.59 1801.27,1257.59 1811.68,1257.59 1822.09,1257.59 1832.5,1257.59 1842.91,1257.59 1853.33,1257.59 1863.74,1257.59 1874.15,1257.59 1884.56,1257.59 1894.97,1257.59 1905.38,1257.59 1915.79,1257.59 1926.21,1257.59 1936.62,1257.59 1947.03,1257.59 1957.44,1257.59 1967.85,1257.59 1978.26,1257.59 1988.67,1257.59 1999.08,1257.59 2009.5,1257.59 2019.91,1257.59 2030.32,1257.59 2040.73,1257.59 2051.14,1257.59 2061.55,1257.59 2071.96,1257.59 2082.37,1257.59 2092.79,1257.59 2103.2,1257.59 2113.61,1257.59 2124.02,1257.59 2134.43,1257.59 2144.84,1257.59 2155.25,1257.59 2165.67,1257.59 2176.08,1257.59 2186.49,1257.59 2196.9,1257.59 2207.31,1257.59 2217.72,1257.59 2228.13,1257.59 2238.54,1257.59 2248.96,1257.59 2259.37,1257.58 2269.78,1257.56 2280.19,1257.5 2290.6,1257.37 "/>
<polyline clip-path="url(#clip112)" style="stroke:#e26f46; stroke-linecap:round; stroke-linejoin:round; stroke-width:4; stroke-opacity:1; fill:none" points="218.754,1001.5 229.165,992.771 239.576,984.015 249.988,975.25 260.399,966.488 270.81,957.742 281.221,949.025 291.633,940.348 302.044,931.722 312.455,923.158 322.867,914.665 333.278,906.253 343.689,897.929 354.1,889.702 364.512,881.578 374.923,873.563 385.334,865.663 395.746,857.883 406.157,850.226 416.568,842.697 426.979,835.298 437.391,828.031 447.802,820.898 458.213,813.899 468.625,807.036 479.036,800.309 489.447,793.717 499.858,787.261 510.27,780.939 520.681,774.753 531.092,768.701 541.504,762.785 551.915,757.005 562.326,751.36 572.738,745.85 583.149,740.476 593.56,735.238 603.971,730.135 614.383,725.169 624.794,720.339 635.205,715.647 645.617,711.093 656.028,706.679 666.439,702.404 676.85,698.271 687.262,694.28 697.673,690.434 708.084,686.733 718.496,683.18 728.907,679.777 739.318,676.524 749.729,673.426 760.141,670.482 770.552,667.697 780.963,665.071 791.375,662.606 801.786,660.306 812.197,658.171 822.609,656.203 833.02,654.404 843.431,652.774 853.842,651.315 864.254,650.027 874.665,648.91 885.076,647.963 895.488,647.186 905.899,646.579 916.31,646.138 926.721,645.865 937.133,645.756 947.544,645.81 957.955,646.025 968.367,646.399 978.778,646.93 989.189,647.616 999.6,648.454 1010.01,649.443 1020.42,650.581 1030.83,651.866 1041.25,653.298 1051.66,654.874 1062.07,656.593 1072.48,658.456 1082.89,660.46 1093.3,662.606 1103.71,664.892 1114.12,667.319 1124.54,669.888 1134.95,672.598 1145.36,675.449 1155.77,678.444 1166.18,681.581 1176.59,684.862 1187,688.288 1197.41,691.859 1207.83,695.577 1218.24,699.441 1228.65,703.452 1239.06,707.611 1249.47,711.918 1259.88,716.373 1270.29,720.976 1280.71,725.727 1291.12,730.627 1301.53,735.675 1311.94,740.87 1322.35,746.213 1332.76,751.704 1343.17,757.341 1353.58,763.126 1364,769.056 1374.41,775.133 1384.82,781.354 1395.23,787.72 1405.64,794.232 1416.05,800.888 1426.46,807.69 1436.87,814.636 1447.29,821.725 1457.7,828.956 1468.11,836.327 1478.52,843.835 1488.93,851.477 1499.34,859.248 1509.75,867.145 1520.16,875.16 1530.58,883.29 1540.99,891.526 1551.4,899.863 1561.81,908.29 1572.22,916.801 1582.63,925.384 1593.04,934.031 1603.46,942.731 1613.87,951.471 1624.28,960.242 1634.69,969.029 1645.1,977.82 1655.51,986.602 1665.92,995.361 1676.33,1004.08 1686.75,1012.75 1697.16,1021.35 1707.57,1029.87 1717.98,1038.29 1728.39,1046.59 1738.8,1054.75 1749.21,1062.77 1759.62,1070.62 1770.04,1078.28 1780.45,1085.73 1790.86,1092.96 1801.27,1099.95 1811.68,1106.67 1822.09,1113.11 1832.5,1119.26 1842.91,1125.1 1853.33,1130.61 1863.74,1135.77 1874.15,1140.58 1884.56,1145.01 1894.97,1149.06 1905.38,1152.72 1915.79,1155.96 1926.21,1158.79 1936.62,1161.2 1947.03,1163.17 1957.44,1164.71 1967.85,1165.81 1978.26,1166.46 1988.67,1166.66 1999.08,1166.42 2009.5,1165.72 2019.91,1164.58 2030.32,1162.99 2040.73,1160.96 2051.14,1158.49 2061.55,1155.6 2071.96,1152.27 2082.37,1148.54 2092.79,1144.4 2103.2,1139.87 2113.61,1134.95 2124.02,1129.68 2134.43,1124.05 2144.84,1118.09 2155.25,1111.82 2165.67,1105.24 2176.08,1098.39 2186.49,1091.28 2196.9,1083.92 2207.31,1076.35 2217.72,1068.57 2228.13,1060.62 2238.54,1052.51 2248.96,1044.25 2259.37,1035.88 2269.78,1027.4 2280.19,1018.83 2290.6,1010.19 "/>
<polyline clip-path="url(#clip112)" style="stroke:#3da44d; stroke-linecap:round; stroke-linejoin:round; stroke-width:4; stroke-opacity:1; fill:none" points="218.754,1348.53 229.165,1293.44 239.576,1307.66 249.988,1307.47 260.399,1302.58 270.81,1234.36 281.221,1220.85 291.633,1248.32 302.044,1221.12 312.455,1211.87 322.867,1153.37 333.278,1150.19 343.689,1122.02 354.1,1104.41 364.512,1105.16 374.923,1073.47 385.334,1032.45 395.746,1058.42 406.157,1006.9 416.568,1019.1 426.979,958.729 437.391,983.164 447.802,922.091 458.213,915.682 468.625,868.213 479.036,848.189 489.447,841.8 499.858,808.983 510.27,772.431 520.681,779.82 531.092,734.818 541.504,739.501 551.915,727.118 562.326,716.972 572.738,670.393 583.149,677.255 593.56,649.795 603.971,612.235 614.383,636.848 624.794,638.32 635.205,594.141 645.617,598.223 656.028,565.137 666.439,556.621 676.85,530.661 687.262,524.389 697.673,483.451 708.084,480.226 718.496,467.034 728.907,443.915 739.318,443.517 749.729,428.586 760.141,423.646 770.552,415.099 780.963,405.242 791.375,409.135 801.786,392.842 812.197,381.203 822.609,385.888 833.02,416.165 843.431,366.777 853.842,390.255 864.254,390.889 874.665,388.332 885.076,373.423 895.488,336.068 905.899,327.189 916.31,333.053 926.721,362.407 937.133,335.636 947.544,325.671 957.955,349.378 968.367,348.679 978.778,341.071 989.189,332.881 999.6,368.391 1010.01,367.408 1020.42,372.548 1030.83,363.527 1041.25,420.505 1051.66,369.777 1062.07,375.234 1072.48,384.537 1082.89,398.228 1093.3,414.971 1103.71,398.516 1114.12,417.422 1124.54,432.237 1134.95,434.276 1145.36,443.834 1155.77,476.914 1166.18,473.668 1176.59,452.674 1187,507.551 1197.41,539.543 1207.83,513.31 1218.24,496.577 1228.65,511.672 1239.06,547.454 1249.47,566.969 1259.88,607.68 1270.29,619.626 1280.71,626.1 1291.12,642.104 1301.53,643.942 1311.94,678.74 1322.35,705.382 1332.76,724.145 1343.17,728.46 1353.58,763.232 1364,769.529 1374.41,778.984 1384.82,819.793 1395.23,831.567 1405.64,870.833 1416.05,874.369 1426.46,875.847 1436.87,905.438 1447.29,929.963 1457.7,983.992 1468.11,943.876 1478.52,1001.2 1488.93,1028.91 1499.34,1037.14 1509.75,1056.31 1520.16,1111.22 1530.58,1090.38 1540.99,1097.4 1551.4,1125.89 1561.81,1151.63 1572.22,1175.1 1582.63,1249.22 1593.04,1227.22 1603.46,1222.81 1613.87,1249.33 1624.28,1277.93 1634.69,1325.3 1645.1,1339.99 1655.51,1332.61 1665.92,1310.87 1676.33,1367.16 1686.75,1364.31 1697.16,1397.67 1707.57,1375.6 1717.98,1369.65 1728.39,1388.5 1738.8,1368.3 1749.21,1388.51 1759.62,1412.35 1770.04,1396.05 1780.45,1410.13 1790.86,1406.97 1801.27,1439.36 1811.68,1402.73 1822.09,1415.6 1832.5,1437.23 1842.91,1436.15 1853.33,1420 1863.74,1417.05 1874.15,1434.83 1884.56,1422.53 1894.97,1431.01 1905.38,1424.47 1915.79,1442.76 1926.21,1420.21 1936.62,1425.7 1947.03,1422.12 1957.44,1401.49 1967.85,1413.38 1978.26,1439.07 1988.67,1404.1 1999.08,1397.96 2009.5,1428.97 2019.91,1427.64 2030.32,1414.07 2040.73,1425.97 2051.14,1434.83 2061.55,1430.81 2071.96,1395.82 2082.37,1445.72 2092.79,1424.85 2103.2,1437.02 2113.61,1413.55 2124.02,1445.16 2134.43,1413.22 2144.84,1405.76 2155.25,1428.26 2165.67,1430.5 2176.08,1415.43 2186.49,1411.51 2196.9,1435.04 2207.31,1403.25 2217.72,1431.74 2228.13,1389.39 2238.54,1407.52 2248.96,1385.85 2259.37,1363.84 2269.78,1382.94 2280.19,1377.12 2290.6,1349.47 "/>
<path clip-path="url(#clip110)" d="M1671.16 302.578 L2279.55 302.578 L2279.55 95.2176 L1671.16 95.2176  Z" fill="#ffffff" fill-rule="evenodd" fill-opacity="1"/>
<polyline clip-path="url(#clip110)" style="stroke:#000000; stroke-linecap:round; stroke-linejoin:round; stroke-width:4; stroke-opacity:1; fill:none" points="1671.16,302.578 2279.55,302.578 2279.55,95.2176 1671.16,95.2176 1671.16,302.578 "/>
<polyline clip-path="url(#clip110)" style="stroke:#009af9; stroke-linecap:round; stroke-linejoin:round; stroke-width:4; stroke-opacity:1; fill:none" points="1695.57,147.058 1841.98,147.058 "/>
<path clip-path="url(#clip110)" d="M1866.38 129.778 L1871.05 129.778 L1871.05 164.338 L1866.38 164.338 L1866.38 129.778 Z" fill="#000000" fill-rule="nonzero" fill-opacity="1" /><path clip-path="url(#clip110)" d="M1900.36 143.389 Q1901.96 140.518 1904.18 139.153 Q1906.4 137.787 1909.41 137.787 Q1913.46 137.787 1915.66 140.634 Q1917.86 143.458 1917.86 148.689 L1917.86 164.338 L1913.58 164.338 L1913.58 148.828 Q1913.58 145.102 1912.26 143.296 Q1910.94 141.49 1908.23 141.49 Q1904.92 141.49 1903 143.69 Q1901.08 145.889 1901.08 149.685 L1901.08 164.338 L1896.79 164.338 L1896.79 148.828 Q1896.79 145.078 1895.47 143.296 Q1894.16 141.49 1891.4 141.49 Q1888.14 141.49 1886.22 143.713 Q1884.29 145.912 1884.29 149.685 L1884.29 164.338 L1880.01 164.338 L1880.01 138.412 L1884.29 138.412 L1884.29 142.44 Q1885.75 140.055 1887.79 138.921 Q1889.83 137.787 1892.63 137.787 Q1895.45 137.787 1897.42 139.222 Q1899.41 140.657 1900.36 143.389 Z" fill="#000000" fill-rule="nonzero" fill-opacity="1" /><path clip-path="url(#clip110)" d="M1930.47 160.449 L1930.47 174.199 L1926.19 174.199 L1926.19 138.412 L1930.47 138.412 L1930.47 142.347 Q1931.82 140.032 1933.85 138.921 Q1935.91 137.787 1938.76 137.787 Q1943.48 137.787 1946.42 141.537 Q1949.39 145.287 1949.39 151.398 Q1949.39 157.509 1946.42 161.259 Q1943.48 165.009 1938.76 165.009 Q1935.91 165.009 1933.85 163.898 Q1931.82 162.763 1930.47 160.449 M1944.97 151.398 Q1944.97 146.699 1943.02 144.037 Q1941.1 141.352 1937.72 141.352 Q1934.34 141.352 1932.4 144.037 Q1930.47 146.699 1930.47 151.398 Q1930.47 156.097 1932.4 158.782 Q1934.34 161.444 1937.72 161.444 Q1941.1 161.444 1943.02 158.782 Q1944.97 156.097 1944.97 151.398 Z" fill="#000000" fill-rule="nonzero" fill-opacity="1" /><path clip-path="url(#clip110)" d="M1956.45 128.319 L1960.71 128.319 L1960.71 164.338 L1956.45 164.338 L1956.45 128.319 Z" fill="#000000" fill-rule="nonzero" fill-opacity="1" /><path clip-path="url(#clip110)" d="M1969.62 138.412 L1973.88 138.412 L1973.88 164.338 L1969.62 164.338 L1969.62 138.412 M1969.62 128.319 L1973.88 128.319 L1973.88 133.713 L1969.62 133.713 L1969.62 128.319 Z" fill="#000000" fill-rule="nonzero" fill-opacity="1" /><path clip-path="url(#clip110)" d="M2001.45 139.407 L2001.45 143.389 Q1999.64 142.393 1997.81 141.907 Q1996.01 141.398 1994.15 141.398 Q1990.01 141.398 1987.72 144.037 Q1985.43 146.652 1985.43 151.398 Q1985.43 156.143 1987.72 158.782 Q1990.01 161.398 1994.15 161.398 Q1996.01 161.398 1997.81 160.912 Q1999.64 160.402 2001.45 159.407 L2001.45 163.342 Q1999.66 164.176 1997.74 164.592 Q1995.84 165.009 1993.69 165.009 Q1987.84 165.009 1984.39 161.328 Q1980.94 157.648 1980.94 151.398 Q1980.94 145.055 1984.41 141.421 Q1987.9 137.787 1993.97 137.787 Q1995.94 137.787 1997.81 138.203 Q1999.69 138.597 2001.45 139.407 Z" fill="#000000" fill-rule="nonzero" fill-opacity="1" /><path clip-path="url(#clip110)" d="M2008.85 138.412 L2013.11 138.412 L2013.11 164.338 L2008.85 164.338 L2008.85 138.412 M2008.85 128.319 L2013.11 128.319 L2013.11 133.713 L2008.85 133.713 L2008.85 128.319 Z" fill="#000000" fill-rule="nonzero" fill-opacity="1" /><path clip-path="url(#clip110)" d="M2026.24 131.051 L2026.24 138.412 L2035.01 138.412 L2035.01 141.722 L2026.24 141.722 L2026.24 155.796 Q2026.24 158.967 2027.09 159.87 Q2027.97 160.773 2030.64 160.773 L2035.01 160.773 L2035.01 164.338 L2030.64 164.338 Q2025.71 164.338 2023.83 162.509 Q2021.96 160.657 2021.96 155.796 L2021.96 141.722 L2018.83 141.722 L2018.83 138.412 L2021.96 138.412 L2021.96 131.051 L2026.24 131.051 Z" fill="#000000" fill-rule="nonzero" fill-opacity="1" /><path clip-path="url(#clip110)" d="M2055.87 129.778 L2062.84 129.778 L2071.65 153.296 L2080.52 129.778 L2087.49 129.778 L2087.49 164.338 L2082.93 164.338 L2082.93 133.99 L2074.02 157.694 L2069.32 157.694 L2060.4 133.99 L2060.4 164.338 L2055.87 164.338 L2055.87 129.778 Z" fill="#000000" fill-rule="nonzero" fill-opacity="1" /><path clip-path="url(#clip110)" d="M2096.58 138.412 L2100.84 138.412 L2100.84 164.338 L2096.58 164.338 L2096.58 138.412 M2096.58 128.319 L2100.84 128.319 L2100.84 133.713 L2096.58 133.713 L2096.58 128.319 Z" fill="#000000" fill-rule="nonzero" fill-opacity="1" /><path clip-path="url(#clip110)" d="M2126.82 142.347 L2126.82 128.319 L2131.08 128.319 L2131.08 164.338 L2126.82 164.338 L2126.82 160.449 Q2125.47 162.763 2123.41 163.898 Q2121.38 165.009 2118.51 165.009 Q2113.81 165.009 2110.84 161.259 Q2107.9 157.509 2107.9 151.398 Q2107.9 145.287 2110.84 141.537 Q2113.81 137.787 2118.51 137.787 Q2121.38 137.787 2123.41 138.921 Q2125.47 140.032 2126.82 142.347 M2112.3 151.398 Q2112.3 156.097 2114.22 158.782 Q2116.17 161.444 2119.55 161.444 Q2122.93 161.444 2124.87 158.782 Q2126.82 156.097 2126.82 151.398 Q2126.82 146.699 2124.87 144.037 Q2122.93 141.352 2119.55 141.352 Q2116.17 141.352 2114.22 144.037 Q2112.3 146.699 2112.3 151.398 Z" fill="#000000" fill-rule="nonzero" fill-opacity="1" /><path clip-path="url(#clip110)" d="M2143.97 160.449 L2143.97 174.199 L2139.69 174.199 L2139.69 138.412 L2143.97 138.412 L2143.97 142.347 Q2145.31 140.032 2147.35 138.921 Q2149.41 137.787 2152.26 137.787 Q2156.98 137.787 2159.92 141.537 Q2162.88 145.287 2162.88 151.398 Q2162.88 157.509 2159.92 161.259 Q2156.98 165.009 2152.26 165.009 Q2149.41 165.009 2147.35 163.898 Q2145.31 162.763 2143.97 160.449 M2158.46 151.398 Q2158.46 146.699 2156.52 144.037 Q2154.59 141.352 2151.21 141.352 Q2147.83 141.352 2145.89 144.037 Q2143.97 146.699 2143.97 151.398 Q2143.97 156.097 2145.89 158.782 Q2147.83 161.444 2151.21 161.444 Q2154.59 161.444 2156.52 158.782 Q2158.46 156.097 2158.46 151.398 Z" fill="#000000" fill-rule="nonzero" fill-opacity="1" /><path clip-path="url(#clip110)" d="M2179.99 141.398 Q2176.56 141.398 2174.57 144.083 Q2172.58 146.745 2172.58 151.398 Q2172.58 156.051 2174.55 158.736 Q2176.54 161.398 2179.99 161.398 Q2183.39 161.398 2185.38 158.713 Q2187.37 156.027 2187.37 151.398 Q2187.37 146.791 2185.38 144.106 Q2183.39 141.398 2179.99 141.398 M2179.99 137.787 Q2185.54 137.787 2188.71 141.398 Q2191.89 145.009 2191.89 151.398 Q2191.89 157.764 2188.71 161.398 Q2185.54 165.009 2179.99 165.009 Q2174.41 165.009 2171.24 161.398 Q2168.09 157.764 2168.09 151.398 Q2168.09 145.009 2171.24 141.398 Q2174.41 137.787 2179.99 137.787 Z" fill="#000000" fill-rule="nonzero" fill-opacity="1" /><path clip-path="url(#clip110)" d="M2198.95 138.412 L2203.2 138.412 L2203.2 164.338 L2198.95 164.338 L2198.95 138.412 M2198.95 128.319 L2203.2 128.319 L2203.2 133.713 L2198.95 133.713 L2198.95 128.319 Z" fill="#000000" fill-rule="nonzero" fill-opacity="1" /><path clip-path="url(#clip110)" d="M2233.67 148.689 L2233.67 164.338 L2229.41 164.338 L2229.41 148.828 Q2229.41 145.148 2227.97 143.319 Q2226.54 141.49 2223.67 141.49 Q2220.22 141.49 2218.23 143.69 Q2216.24 145.889 2216.24 149.685 L2216.24 164.338 L2211.95 164.338 L2211.95 138.412 L2216.24 138.412 L2216.24 142.44 Q2217.76 140.102 2219.83 138.944 Q2221.91 137.787 2224.62 137.787 Q2229.08 137.787 2231.38 140.565 Q2233.67 143.319 2233.67 148.689 Z" fill="#000000" fill-rule="nonzero" fill-opacity="1" /><path clip-path="url(#clip110)" d="M2246.38 131.051 L2246.38 138.412 L2255.15 138.412 L2255.15 141.722 L2246.38 141.722 L2246.38 155.796 Q2246.38 158.967 2247.23 159.87 Q2248.11 160.773 2250.77 160.773 L2255.15 160.773 L2255.15 164.338 L2250.77 164.338 Q2245.84 164.338 2243.97 162.509 Q2242.09 160.657 2242.09 155.796 L2242.09 141.722 L2238.97 141.722 L2238.97 138.412 L2242.09 138.412 L2242.09 131.051 L2246.38 131.051 Z" fill="#000000" fill-rule="nonzero" fill-opacity="1" /><polyline clip-path="url(#clip110)" style="stroke:#e26f46; stroke-linecap:round; stroke-linejoin:round; stroke-width:4; stroke-opacity:1; fill:none" points="1695.57,198.898 1841.98,198.898 "/>
<path clip-path="url(#clip110)" d="M1871.05 185.46 L1871.05 198.446 L1876.93 198.446 Q1880.2 198.446 1881.98 196.756 Q1883.76 195.067 1883.76 191.942 Q1883.76 188.84 1881.98 187.15 Q1880.2 185.46 1876.93 185.46 L1871.05 185.46 M1866.38 181.618 L1876.93 181.618 Q1882.74 181.618 1885.71 184.256 Q1888.69 186.872 1888.69 191.942 Q1888.69 197.057 1885.71 199.673 Q1882.74 202.289 1876.93 202.289 L1871.05 202.289 L1871.05 216.178 L1866.38 216.178 L1866.38 181.618 Z" fill="#000000" fill-rule="nonzero" fill-opacity="1" /><path clip-path="url(#clip110)" d="M1915.68 182.752 L1915.68 187.312 Q1913.02 186.039 1910.66 185.414 Q1908.3 184.789 1906.1 184.789 Q1902.28 184.789 1900.2 186.27 Q1898.14 187.752 1898.14 190.483 Q1898.14 192.775 1899.5 193.955 Q1900.89 195.113 1904.73 195.83 L1907.56 196.409 Q1912.79 197.405 1915.27 199.928 Q1917.77 202.428 1917.77 206.641 Q1917.77 211.664 1914.39 214.256 Q1911.03 216.849 1904.53 216.849 Q1902.07 216.849 1899.29 216.293 Q1896.54 215.738 1893.58 214.65 L1893.58 209.835 Q1896.42 211.432 1899.16 212.242 Q1901.89 213.053 1904.53 213.053 Q1908.53 213.053 1910.71 211.479 Q1912.88 209.904 1912.88 206.988 Q1912.88 204.442 1911.31 203.006 Q1909.76 201.571 1906.19 200.854 L1903.35 200.298 Q1898.11 199.256 1895.78 197.034 Q1893.44 194.812 1893.44 190.854 Q1893.44 186.27 1896.66 183.631 Q1899.9 180.993 1905.57 180.993 Q1908 180.993 1910.52 181.432 Q1913.04 181.872 1915.68 182.752 Z" fill="#000000" fill-rule="nonzero" fill-opacity="1" /><path clip-path="url(#clip110)" d="M1929.73 185.46 L1929.73 212.335 L1935.38 212.335 Q1942.53 212.335 1945.84 209.094 Q1949.18 205.854 1949.18 198.863 Q1949.18 191.918 1945.84 188.701 Q1942.53 185.46 1935.38 185.46 L1929.73 185.46 M1925.06 181.618 L1934.66 181.618 Q1944.71 181.618 1949.41 185.807 Q1954.11 189.974 1954.11 198.863 Q1954.11 207.798 1949.39 211.988 Q1944.66 216.178 1934.66 216.178 L1925.06 216.178 L1925.06 181.618 Z" fill="#000000" fill-rule="nonzero" fill-opacity="1" /><polyline clip-path="url(#clip110)" style="stroke:#3da44d; stroke-linecap:round; stroke-linejoin:round; stroke-width:4; stroke-opacity:1; fill:none" points="1695.57,250.738 1841.98,250.738 "/>
<path clip-path="url(#clip110)" d="M1888.62 234.592 L1888.62 239.152 Q1885.96 237.879 1883.6 237.254 Q1881.24 236.629 1879.04 236.629 Q1875.22 236.629 1873.14 238.11 Q1871.08 239.592 1871.08 242.323 Q1871.08 244.615 1872.44 245.795 Q1873.83 246.953 1877.67 247.67 L1880.5 248.249 Q1885.73 249.245 1888.21 251.768 Q1890.71 254.268 1890.71 258.481 Q1890.71 263.504 1887.33 266.096 Q1883.97 268.689 1877.47 268.689 Q1875.01 268.689 1872.23 268.133 Q1869.48 267.578 1866.52 266.49 L1866.52 261.675 Q1869.36 263.272 1872.1 264.082 Q1874.83 264.893 1877.47 264.893 Q1881.47 264.893 1883.65 263.319 Q1885.82 261.744 1885.82 258.828 Q1885.82 256.282 1884.25 254.846 Q1882.7 253.411 1879.13 252.694 L1876.29 252.138 Q1871.05 251.096 1868.72 248.874 Q1866.38 246.652 1866.38 242.694 Q1866.38 238.11 1869.6 235.471 Q1872.84 232.833 1878.51 232.833 Q1880.94 232.833 1883.46 233.272 Q1885.98 233.712 1888.62 234.592 Z" fill="#000000" fill-rule="nonzero" fill-opacity="1" /><path clip-path="url(#clip110)" d="M1910.43 238.064 L1904.09 255.263 L1916.79 255.263 L1910.43 238.064 M1907.79 233.458 L1913.09 233.458 L1926.26 268.018 L1921.4 268.018 L1918.25 259.152 L1902.67 259.152 L1899.53 268.018 L1894.6 268.018 L1907.79 233.458 Z" fill="#000000" fill-rule="nonzero" fill-opacity="1" /><path clip-path="url(#clip110)" d="M1931.31 233.458 L1953.16 233.458 L1953.16 237.393 L1935.98 237.393 L1935.98 247.624 L1952.44 247.624 L1952.44 251.559 L1935.98 251.559 L1935.98 264.082 L1953.58 264.082 L1953.58 268.018 L1931.31 268.018 L1931.31 233.458 Z" fill="#000000" fill-rule="nonzero" fill-opacity="1" /></svg>
