<?xml version="1.0" encoding="utf-8"?>
<svg xmlns="http://www.w3.org/2000/svg" xmlns:xlink="http://www.w3.org/1999/xlink" width="600" height="400" viewBox="0 0 2400 1600">
<defs>
  <clipPath id="clip890">
    <rect x="0" y="0" width="2400" height="1600"/>
  </clipPath>
</defs>
<path clip-path="url(#clip890)" d="M0 1600 L2400 1600 L2400 0 L0 0  Z" fill="#ffffff" fill-rule="evenodd" fill-opacity="1"/>
<defs>
  <clipPath id="clip891">
    <rect x="480" y="0" width="1681" height="1600"/>
  </clipPath>
</defs>
<path clip-path="url(#clip890)" d="M112.177 1423.18 L2352.76 1423.18 L2352.76 47.2441 L112.177 47.2441  Z" fill="#ffffff" fill-rule="evenodd" fill-opacity="1"/>
<defs>
  <clipPath id="clip892">
    <rect x="112" y="47" width="2242" height="1377"/>
  </clipPath>
</defs>
<polyline clip-path="url(#clip892)" style="stroke:#000000; stroke-linecap:round; stroke-linejoin:round; stroke-width:2; stroke-opacity:0.1; fill:none" points="121.391,1423.18 121.391,47.2441 "/>
<polyline clip-path="url(#clip892)" style="stroke:#000000; stroke-linecap:round; stroke-linejoin:round; stroke-width:2; stroke-opacity:0.1; fill:none" points="663.379,1423.18 663.379,47.2441 "/>
<polyline clip-path="url(#clip892)" style="stroke:#000000; stroke-linecap:round; stroke-linejoin:round; stroke-width:2; stroke-opacity:0.1; fill:none" points="1205.37,1423.18 1205.37,47.2441 "/>
<polyline clip-path="url(#clip892)" style="stroke:#000000; stroke-linecap:round; stroke-linejoin:round; stroke-width:2; stroke-opacity:0.1; fill:none" points="1747.36,1423.18 1747.36,47.2441 "/>
<polyline clip-path="url(#clip892)" style="stroke:#000000; stroke-linecap:round; stroke-linejoin:round; stroke-width:2; stroke-opacity:0.1; fill:none" points="2289.34,1423.18 2289.34,47.2441 "/>
<polyline clip-path="url(#clip890)" style="stroke:#000000; stroke-linecap:round; stroke-linejoin:round; stroke-width:4; stroke-opacity:1; fill:none" points="112.177,1423.18 2352.76,1423.18 "/>
<polyline clip-path="url(#clip890)" style="stroke:#000000; stroke-linecap:round; stroke-linejoin:round; stroke-width:4; stroke-opacity:1; fill:none" points="121.391,1423.18 121.391,1404.28 "/>
<polyline clip-path="url(#clip890)" style="stroke:#000000; stroke-linecap:round; stroke-linejoin:round; stroke-width:4; stroke-opacity:1; fill:none" points="663.379,1423.18 663.379,1404.28 "/>
<polyline clip-path="url(#clip890)" style="stroke:#000000; stroke-linecap:round; stroke-linejoin:round; stroke-width:4; stroke-opacity:1; fill:none" points="1205.37,1423.18 1205.37,1404.28 "/>
<polyline clip-path="url(#clip890)" style="stroke:#000000; stroke-linecap:round; stroke-linejoin:round; stroke-width:4; stroke-opacity:1; fill:none" points="1747.36,1423.18 1747.36,1404.28 "/>
<polyline clip-path="url(#clip890)" style="stroke:#000000; stroke-linecap:round; stroke-linejoin:round; stroke-width:4; stroke-opacity:1; fill:none" points="2289.34,1423.18 2289.34,1404.28 "/>
<path clip-path="url(#clip890)" d="M121.391 1454.1 Q117.78 1454.1 115.951 1457.66 Q114.146 1461.2 114.146 1468.33 Q114.146 1475.44 115.951 1479.01 Q117.78 1482.55 121.391 1482.55 Q125.025 1482.55 126.831 1479.01 Q128.659 1475.44 128.659 1468.33 Q128.659 1461.2 126.831 1457.66 Q125.025 1454.1 121.391 1454.1 M121.391 1450.39 Q127.201 1450.39 130.257 1455 Q133.335 1459.58 133.335 1468.33 Q133.335 1477.06 130.257 1481.67 Q127.201 1486.25 121.391 1486.25 Q115.581 1486.25 112.502 1481.67 Q109.447 1477.06 109.447 1468.33 Q109.447 1459.58 112.502 1455 Q115.581 1450.39 121.391 1450.39 Z" fill="#000000" fill-rule="nonzero" fill-opacity="1" /><path clip-path="url(#clip890)" d="M638.067 1481.64 L645.706 1481.64 L645.706 1455.28 L637.395 1456.95 L637.395 1452.69 L645.659 1451.02 L650.335 1451.02 L650.335 1481.64 L657.974 1481.64 L657.974 1485.58 L638.067 1485.58 L638.067 1481.64 Z" fill="#000000" fill-rule="nonzero" fill-opacity="1" /><path clip-path="url(#clip890)" d="M677.418 1454.1 Q673.807 1454.1 671.979 1457.66 Q670.173 1461.2 670.173 1468.33 Q670.173 1475.44 671.979 1479.01 Q673.807 1482.55 677.418 1482.55 Q681.053 1482.55 682.858 1479.01 Q684.687 1475.44 684.687 1468.33 Q684.687 1461.2 682.858 1457.66 Q681.053 1454.1 677.418 1454.1 M677.418 1450.39 Q683.228 1450.39 686.284 1455 Q689.363 1459.58 689.363 1468.33 Q689.363 1477.06 686.284 1481.67 Q683.228 1486.25 677.418 1486.25 Q671.608 1486.25 668.529 1481.67 Q665.474 1477.06 665.474 1468.33 Q665.474 1459.58 668.529 1455 Q671.608 1450.39 677.418 1450.39 Z" fill="#000000" fill-rule="nonzero" fill-opacity="1" /><path clip-path="url(#clip890)" d="M1184.14 1481.64 L1200.46 1481.64 L1200.46 1485.58 L1178.52 1485.58 L1178.52 1481.64 Q1181.18 1478.89 1185.76 1474.26 Q1190.37 1469.61 1191.55 1468.27 Q1193.79 1465.74 1194.67 1464.01 Q1195.58 1462.25 1195.58 1460.56 Q1195.58 1457.8 1193.63 1456.07 Q1191.71 1454.33 1188.61 1454.33 Q1186.41 1454.33 1183.96 1455.09 Q1181.52 1455.86 1178.75 1457.41 L1178.75 1452.69 Q1181.57 1451.55 1184.02 1450.97 Q1186.48 1450.39 1188.52 1450.39 Q1193.89 1450.39 1197.08 1453.08 Q1200.27 1455.77 1200.27 1460.26 Q1200.27 1462.39 1199.46 1464.31 Q1198.68 1466.2 1196.57 1468.8 Q1195.99 1469.47 1192.89 1472.69 Q1189.79 1475.88 1184.14 1481.64 Z" fill="#000000" fill-rule="nonzero" fill-opacity="1" /><path clip-path="url(#clip890)" d="M1220.27 1454.1 Q1216.66 1454.1 1214.83 1457.66 Q1213.03 1461.2 1213.03 1468.33 Q1213.03 1475.44 1214.83 1479.01 Q1216.66 1482.55 1220.27 1482.55 Q1223.91 1482.55 1225.71 1479.01 Q1227.54 1475.44 1227.54 1468.33 Q1227.54 1461.2 1225.71 1457.66 Q1223.91 1454.1 1220.27 1454.1 M1220.27 1450.39 Q1226.08 1450.39 1229.14 1455 Q1232.22 1459.58 1232.22 1468.33 Q1232.22 1477.06 1229.14 1481.67 Q1226.08 1486.25 1220.27 1486.25 Q1214.46 1486.25 1211.39 1481.67 Q1208.33 1477.06 1208.33 1468.33 Q1208.33 1459.58 1211.39 1455 Q1214.46 1450.39 1220.27 1450.39 Z" fill="#000000" fill-rule="nonzero" fill-opacity="1" /><path clip-path="url(#clip890)" d="M1736.2 1466.95 Q1739.55 1467.66 1741.43 1469.93 Q1743.33 1472.2 1743.33 1475.53 Q1743.33 1480.65 1739.81 1483.45 Q1736.29 1486.25 1729.81 1486.25 Q1727.63 1486.25 1725.32 1485.81 Q1723.03 1485.39 1720.57 1484.54 L1720.57 1480.02 Q1722.52 1481.16 1724.83 1481.74 Q1727.15 1482.32 1729.67 1482.32 Q1734.07 1482.32 1736.36 1480.58 Q1738.67 1478.84 1738.67 1475.53 Q1738.67 1472.48 1736.52 1470.77 Q1734.39 1469.03 1730.57 1469.03 L1726.55 1469.03 L1726.55 1465.19 L1730.76 1465.19 Q1734.21 1465.19 1736.04 1463.82 Q1737.86 1462.43 1737.86 1459.84 Q1737.86 1457.18 1735.97 1455.77 Q1734.09 1454.33 1730.57 1454.33 Q1728.65 1454.33 1726.45 1454.75 Q1724.25 1455.16 1721.61 1456.04 L1721.61 1451.88 Q1724.28 1451.14 1726.59 1450.77 Q1728.93 1450.39 1730.99 1450.39 Q1736.31 1450.39 1739.42 1452.83 Q1742.52 1455.23 1742.52 1459.35 Q1742.52 1462.22 1740.87 1464.21 Q1739.23 1466.18 1736.2 1466.95 Z" fill="#000000" fill-rule="nonzero" fill-opacity="1" /><path clip-path="url(#clip890)" d="M1762.19 1454.1 Q1758.58 1454.1 1756.75 1457.66 Q1754.95 1461.2 1754.95 1468.33 Q1754.95 1475.44 1756.75 1479.01 Q1758.58 1482.55 1762.19 1482.55 Q1765.83 1482.55 1767.63 1479.01 Q1769.46 1475.44 1769.46 1468.33 Q1769.46 1461.2 1767.63 1457.66 Q1765.83 1454.1 1762.19 1454.1 M1762.19 1450.39 Q1768 1450.39 1771.06 1455 Q1774.14 1459.58 1774.14 1468.33 Q1774.14 1477.06 1771.06 1481.67 Q1768 1486.25 1762.19 1486.25 Q1756.38 1486.25 1753.3 1481.67 Q1750.25 1477.06 1750.25 1468.33 Q1750.25 1459.58 1753.3 1455 Q1756.38 1450.39 1762.19 1450.39 Z" fill="#000000" fill-rule="nonzero" fill-opacity="1" /><path clip-path="url(#clip890)" d="M2277.51 1455.09 L2265.71 1473.54 L2277.51 1473.54 L2277.51 1455.09 M2276.29 1451.02 L2282.17 1451.02 L2282.17 1473.54 L2287.1 1473.54 L2287.1 1477.43 L2282.17 1477.43 L2282.17 1485.58 L2277.51 1485.58 L2277.51 1477.43 L2261.91 1477.43 L2261.91 1472.92 L2276.29 1451.02 Z" fill="#000000" fill-rule="nonzero" fill-opacity="1" /><path clip-path="url(#clip890)" d="M2304.83 1454.1 Q2301.22 1454.1 2299.39 1457.66 Q2297.58 1461.2 2297.58 1468.33 Q2297.58 1475.44 2299.39 1479.01 Q2301.22 1482.55 2304.83 1482.55 Q2308.46 1482.55 2310.27 1479.01 Q2312.1 1475.44 2312.1 1468.33 Q2312.1 1461.2 2310.27 1457.66 Q2308.46 1454.1 2304.83 1454.1 M2304.83 1450.39 Q2310.64 1450.39 2313.7 1455 Q2316.77 1459.58 2316.77 1468.33 Q2316.77 1477.06 2313.7 1481.67 Q2310.64 1486.25 2304.83 1486.25 Q2299.02 1486.25 2295.94 1481.67 Q2292.88 1477.06 2292.88 1468.33 Q2292.88 1459.58 2295.94 1455 Q2299.02 1450.39 2304.83 1450.39 Z" fill="#000000" fill-rule="nonzero" fill-opacity="1" /><path clip-path="url(#clip890)" d="M1038.19 1522.27 L1038.19 1532.4 L1050.25 1532.4 L1050.25 1536.95 L1038.19 1536.95 L1038.19 1556.3 Q1038.19 1560.66 1039.36 1561.9 Q1040.57 1563.14 1044.23 1563.14 L1050.25 1563.14 L1050.25 1568.04 L1044.23 1568.04 Q1037.45 1568.04 1034.88 1565.53 Q1032.3 1562.98 1032.3 1556.3 L1032.3 1536.95 L1028 1536.95 L1028 1532.4 L1032.3 1532.4 L1032.3 1522.27 L1038.19 1522.27 Z" fill="#000000" fill-rule="nonzero" fill-opacity="1" /><path clip-path="url(#clip890)" d="M1078.61 1537.87 Q1077.62 1537.3 1076.44 1537.04 Q1075.3 1536.76 1073.9 1536.76 Q1068.93 1536.76 1066.26 1540 Q1063.62 1543.22 1063.62 1549.27 L1063.62 1568.04 L1057.73 1568.04 L1057.73 1532.4 L1063.62 1532.4 L1063.62 1537.93 Q1065.46 1534.69 1068.42 1533.13 Q1071.38 1531.54 1075.62 1531.54 Q1076.22 1531.54 1076.95 1531.63 Q1077.68 1531.7 1078.58 1531.85 L1078.61 1537.87 Z" fill="#000000" fill-rule="nonzero" fill-opacity="1" /><path clip-path="url(#clip890)" d="M1100.95 1550.12 Q1093.85 1550.12 1091.12 1551.75 Q1088.38 1553.37 1088.38 1557.29 Q1088.38 1560.4 1090.42 1562.25 Q1092.48 1564.07 1096.02 1564.07 Q1100.89 1564.07 1103.82 1560.63 Q1106.78 1557.16 1106.78 1551.43 L1106.78 1550.12 L1100.95 1550.12 M1112.63 1547.71 L1112.63 1568.04 L1106.78 1568.04 L1106.78 1562.63 Q1104.77 1565.88 1101.78 1567.44 Q1098.79 1568.97 1094.46 1568.97 Q1088.98 1568.97 1085.74 1565.91 Q1082.52 1562.82 1082.52 1557.67 Q1082.52 1551.65 1086.53 1548.6 Q1090.57 1545.54 1098.56 1545.54 L1106.78 1545.54 L1106.78 1544.97 Q1106.78 1540.93 1104.1 1538.73 Q1101.46 1536.5 1096.65 1536.5 Q1093.6 1536.5 1090.7 1537.23 Q1087.81 1537.97 1085.13 1539.43 L1085.13 1534.02 Q1088.35 1532.78 1091.37 1532.17 Q1094.39 1531.54 1097.26 1531.54 Q1104.99 1531.54 1108.81 1535.55 Q1112.63 1539.56 1112.63 1547.71 Z" fill="#000000" fill-rule="nonzero" fill-opacity="1" /><path clip-path="url(#clip890)" d="M1124.7 1532.4 L1130.55 1532.4 L1130.55 1568.04 L1124.7 1568.04 L1124.7 1532.4 M1124.7 1518.52 L1130.55 1518.52 L1130.55 1525.93 L1124.7 1525.93 L1124.7 1518.52 Z" fill="#000000" fill-rule="nonzero" fill-opacity="1" /><path clip-path="url(#clip890)" d="M1172.44 1546.53 L1172.44 1568.04 L1166.58 1568.04 L1166.58 1546.72 Q1166.58 1541.66 1164.61 1539.14 Q1162.63 1536.63 1158.69 1536.63 Q1153.95 1536.63 1151.21 1539.65 Q1148.47 1542.68 1148.47 1547.9 L1148.47 1568.04 L1142.58 1568.04 L1142.58 1532.4 L1148.47 1532.4 L1148.47 1537.93 Q1150.57 1534.72 1153.4 1533.13 Q1156.27 1531.54 1159.99 1531.54 Q1166.14 1531.54 1169.29 1535.36 Q1172.44 1539.14 1172.44 1546.53 Z" fill="#000000" fill-rule="nonzero" fill-opacity="1" /><path clip-path="url(#clip890)" d="M1184.12 1532.4 L1189.98 1532.4 L1189.98 1568.04 L1184.12 1568.04 L1184.12 1532.4 M1184.12 1518.52 L1189.98 1518.52 L1189.98 1525.93 L1184.12 1525.93 L1184.12 1518.52 Z" fill="#000000" fill-rule="nonzero" fill-opacity="1" /><path clip-path="url(#clip890)" d="M1231.86 1546.53 L1231.86 1568.04 L1226.01 1568.04 L1226.01 1546.72 Q1226.01 1541.66 1224.03 1539.14 Q1222.06 1536.63 1218.11 1536.63 Q1213.37 1536.63 1210.63 1539.65 Q1207.89 1542.68 1207.89 1547.9 L1207.89 1568.04 L1202.01 1568.04 L1202.01 1532.4 L1207.89 1532.4 L1207.89 1537.93 Q1210 1534.72 1212.83 1533.13 Q1215.69 1531.54 1219.42 1531.54 Q1225.56 1531.54 1228.71 1535.36 Q1231.86 1539.14 1231.86 1546.53 Z" fill="#000000" fill-rule="nonzero" fill-opacity="1" /><path clip-path="url(#clip890)" d="M1267 1549.81 Q1267 1543.44 1264.36 1539.94 Q1261.75 1536.44 1257.01 1536.44 Q1252.3 1536.44 1249.65 1539.94 Q1247.04 1543.44 1247.04 1549.81 Q1247.04 1556.14 1249.65 1559.64 Q1252.3 1563.14 1257.01 1563.14 Q1261.75 1563.14 1264.36 1559.64 Q1267 1556.14 1267 1549.81 M1272.86 1563.62 Q1272.86 1572.72 1268.81 1577.15 Q1264.77 1581.6 1256.43 1581.6 Q1253.35 1581.6 1250.61 1581.13 Q1247.87 1580.68 1245.29 1579.72 L1245.29 1574.03 Q1247.87 1575.43 1250.39 1576.1 Q1252.9 1576.76 1255.51 1576.76 Q1261.27 1576.76 1264.14 1573.74 Q1267 1570.75 1267 1564.67 L1267 1561.77 Q1265.19 1564.92 1262.35 1566.48 Q1259.52 1568.04 1255.57 1568.04 Q1249.02 1568.04 1245.01 1563.05 Q1241 1558.05 1241 1549.81 Q1241 1541.53 1245.01 1536.53 Q1249.02 1531.54 1255.57 1531.54 Q1259.52 1531.54 1262.35 1533.1 Q1265.19 1534.66 1267 1537.81 L1267 1532.4 L1272.86 1532.4 L1272.86 1563.62 Z" fill="#000000" fill-rule="nonzero" fill-opacity="1" /><path clip-path="url(#clip890)" d="M1328.37 1533.45 L1328.37 1538.98 Q1325.88 1537.71 1323.21 1537.07 Q1320.54 1536.44 1317.67 1536.44 Q1313.31 1536.44 1311.11 1537.77 Q1308.95 1539.11 1308.95 1541.79 Q1308.95 1543.82 1310.51 1545 Q1312.07 1546.15 1316.78 1547.2 L1318.79 1547.64 Q1325.02 1548.98 1327.63 1551.43 Q1330.28 1553.85 1330.28 1558.21 Q1330.28 1563.17 1326.33 1566.07 Q1322.41 1568.97 1315.54 1568.97 Q1312.67 1568.97 1309.56 1568.39 Q1306.47 1567.85 1303.03 1566.74 L1303.03 1560.69 Q1306.28 1562.38 1309.43 1563.24 Q1312.58 1564.07 1315.67 1564.07 Q1319.8 1564.07 1322.03 1562.66 Q1324.26 1561.23 1324.26 1558.65 Q1324.26 1556.27 1322.64 1554.99 Q1321.05 1553.72 1315.6 1552.54 L1313.57 1552.07 Q1308.12 1550.92 1305.7 1548.56 Q1303.29 1546.18 1303.29 1542.04 Q1303.29 1537.01 1306.85 1534.27 Q1310.41 1531.54 1316.97 1531.54 Q1320.22 1531.54 1323.08 1532.01 Q1325.95 1532.49 1328.37 1533.45 Z" fill="#000000" fill-rule="nonzero" fill-opacity="1" /><path clip-path="url(#clip890)" d="M1345.39 1522.27 L1345.39 1532.4 L1357.46 1532.4 L1357.46 1536.95 L1345.39 1536.95 L1345.39 1556.3 Q1345.39 1560.66 1346.57 1561.9 Q1347.78 1563.14 1351.44 1563.14 L1357.46 1563.14 L1357.46 1568.04 L1351.44 1568.04 Q1344.66 1568.04 1342.08 1565.53 Q1339.51 1562.98 1339.51 1556.3 L1339.51 1536.95 L1335.21 1536.95 L1335.21 1532.4 L1339.51 1532.4 L1339.51 1522.27 L1345.39 1522.27 Z" fill="#000000" fill-rule="nonzero" fill-opacity="1" /><path clip-path="url(#clip890)" d="M1395.65 1548.76 L1395.65 1551.62 L1368.72 1551.62 Q1369.11 1557.67 1372.35 1560.85 Q1375.63 1564 1381.46 1564 Q1384.83 1564 1387.98 1563.17 Q1391.16 1562.35 1394.28 1560.69 L1394.28 1566.23 Q1391.13 1567.57 1387.82 1568.27 Q1384.51 1568.97 1381.11 1568.97 Q1372.58 1568.97 1367.58 1564 Q1362.61 1559.04 1362.61 1550.57 Q1362.61 1541.82 1367.32 1536.69 Q1372.07 1531.54 1380.09 1531.54 Q1387.28 1531.54 1391.45 1536.18 Q1395.65 1540.8 1395.65 1548.76 M1389.79 1547.04 Q1389.73 1542.23 1387.09 1539.37 Q1384.48 1536.5 1380.15 1536.5 Q1375.25 1536.5 1372.29 1539.27 Q1369.36 1542.04 1368.92 1547.07 L1389.79 1547.04 Z" fill="#000000" fill-rule="nonzero" fill-opacity="1" /><path clip-path="url(#clip890)" d="M1410.93 1562.7 L1410.93 1581.6 L1405.04 1581.6 L1405.04 1532.4 L1410.93 1532.4 L1410.93 1537.81 Q1412.78 1534.62 1415.58 1533.1 Q1418.41 1531.54 1422.32 1531.54 Q1428.82 1531.54 1432.86 1536.69 Q1436.93 1541.85 1436.93 1550.25 Q1436.93 1558.65 1432.86 1563.81 Q1428.82 1568.97 1422.32 1568.97 Q1418.41 1568.97 1415.58 1567.44 Q1412.78 1565.88 1410.93 1562.7 M1430.85 1550.25 Q1430.85 1543.79 1428.18 1540.13 Q1425.54 1536.44 1420.89 1536.44 Q1416.24 1536.44 1413.57 1540.13 Q1410.93 1543.79 1410.93 1550.25 Q1410.93 1556.71 1413.57 1560.4 Q1416.24 1564.07 1420.89 1564.07 Q1425.54 1564.07 1428.18 1560.4 Q1430.85 1556.71 1430.85 1550.25 Z" fill="#000000" fill-rule="nonzero" fill-opacity="1" /><polyline clip-path="url(#clip892)" style="stroke:#000000; stroke-linecap:round; stroke-linejoin:round; stroke-width:2; stroke-opacity:0.1; fill:none" points="112.177,1395.58 2352.76,1395.58 "/>
<polyline clip-path="url(#clip892)" style="stroke:#000000; stroke-linecap:round; stroke-linejoin:round; stroke-width:2; stroke-opacity:0.1; fill:none" points="112.177,1104.94 2352.76,1104.94 "/>
<polyline clip-path="url(#clip892)" style="stroke:#000000; stroke-linecap:round; stroke-linejoin:round; stroke-width:2; stroke-opacity:0.1; fill:none" points="112.177,814.304 2352.76,814.304 "/>
<polyline clip-path="url(#clip892)" style="stroke:#000000; stroke-linecap:round; stroke-linejoin:round; stroke-width:2; stroke-opacity:0.1; fill:none" points="112.177,523.665 2352.76,523.665 "/>
<polyline clip-path="url(#clip892)" style="stroke:#000000; stroke-linecap:round; stroke-linejoin:round; stroke-width:2; stroke-opacity:0.1; fill:none" points="112.177,233.026 2352.76,233.026 "/>
<polyline clip-path="url(#clip890)" style="stroke:#000000; stroke-linecap:round; stroke-linejoin:round; stroke-width:4; stroke-opacity:1; fill:none" points="112.177,1423.18 112.177,47.2441 "/>
<polyline clip-path="url(#clip890)" style="stroke:#000000; stroke-linecap:round; stroke-linejoin:round; stroke-width:4; stroke-opacity:1; fill:none" points="112.177,1395.58 131.075,1395.58 "/>
<polyline clip-path="url(#clip890)" style="stroke:#000000; stroke-linecap:round; stroke-linejoin:round; stroke-width:4; stroke-opacity:1; fill:none" points="112.177,1104.94 131.075,1104.94 "/>
<polyline clip-path="url(#clip890)" style="stroke:#000000; stroke-linecap:round; stroke-linejoin:round; stroke-width:4; stroke-opacity:1; fill:none" points="112.177,814.304 131.075,814.304 "/>
<polyline clip-path="url(#clip890)" style="stroke:#000000; stroke-linecap:round; stroke-linejoin:round; stroke-width:4; stroke-opacity:1; fill:none" points="112.177,523.665 131.075,523.665 "/>
<polyline clip-path="url(#clip890)" style="stroke:#000000; stroke-linecap:round; stroke-linejoin:round; stroke-width:4; stroke-opacity:1; fill:none" points="112.177,233.026 131.075,233.026 "/>
<path clip-path="url(#clip890)" d="M64.2328 1381.38 Q60.6217 1381.38 58.793 1384.95 Q56.9875 1388.49 56.9875 1395.62 Q56.9875 1402.72 58.793 1406.29 Q60.6217 1409.83 64.2328 1409.83 Q67.867 1409.83 69.6726 1406.29 Q71.5013 1402.72 71.5013 1395.62 Q71.5013 1388.49 69.6726 1384.95 Q67.867 1381.38 64.2328 1381.38 M64.2328 1377.68 Q70.0429 1377.68 73.0985 1382.28 Q76.1772 1386.87 76.1772 1395.62 Q76.1772 1404.34 73.0985 1408.95 Q70.0429 1413.53 64.2328 1413.53 Q58.4226 1413.53 55.344 1408.95 Q52.2884 1404.34 52.2884 1395.62 Q52.2884 1386.87 55.344 1382.28 Q58.4226 1377.68 64.2328 1377.68 Z" fill="#000000" fill-rule="nonzero" fill-opacity="1" /><path clip-path="url(#clip890)" d="M56.2699 1118.29 L63.9087 1118.29 L63.9087 1091.92 L55.5986 1093.59 L55.5986 1089.33 L63.8624 1087.66 L68.5383 1087.66 L68.5383 1118.29 L76.1772 1118.29 L76.1772 1122.22 L56.2699 1122.22 L56.2699 1118.29 Z" fill="#000000" fill-rule="nonzero" fill-opacity="1" /><path clip-path="url(#clip890)" d="M59.8578 827.649 L76.1772 827.649 L76.1772 831.584 L54.2328 831.584 L54.2328 827.649 Q56.8949 824.894 61.4782 820.265 Q66.0846 815.612 67.2652 814.269 Q69.5105 811.746 70.3902 810.01 Q71.2929 808.251 71.2929 806.561 Q71.2929 803.806 69.3485 802.07 Q67.4272 800.334 64.3254 800.334 Q62.1263 800.334 59.6726 801.098 Q57.2421 801.862 54.4643 803.413 L54.4643 798.691 Q57.2884 797.556 59.7421 796.978 Q62.1958 796.399 64.2328 796.399 Q69.6031 796.399 72.7976 799.084 Q75.992 801.769 75.992 806.26 Q75.992 808.39 75.1818 810.311 Q74.3948 812.209 72.2883 814.802 Q71.7096 815.473 68.6078 818.691 Q65.5059 821.885 59.8578 827.649 Z" fill="#000000" fill-rule="nonzero" fill-opacity="1" /><path clip-path="url(#clip890)" d="M69.0476 522.311 Q72.404 523.028 74.279 525.297 Q76.1772 527.565 76.1772 530.899 Q76.1772 536.014 72.6587 538.815 Q69.1402 541.616 62.6587 541.616 Q60.4828 541.616 58.168 541.176 Q55.8764 540.76 53.4227 539.903 L53.4227 535.389 Q55.3671 536.524 57.6819 537.102 Q59.9967 537.681 62.5198 537.681 Q66.918 537.681 69.2096 535.945 Q71.5244 534.209 71.5244 530.899 Q71.5244 527.843 69.3717 526.13 Q67.242 524.394 63.4226 524.394 L59.3949 524.394 L59.3949 520.551 L63.6078 520.551 Q67.0569 520.551 68.8855 519.186 Q70.7142 517.797 70.7142 515.204 Q70.7142 512.542 68.8161 511.13 Q66.9411 509.695 63.4226 509.695 Q61.5013 509.695 59.3023 510.112 Q57.1032 510.528 54.4643 511.408 L54.4643 507.241 Q57.1264 506.501 59.4412 506.13 Q61.7791 505.76 63.8393 505.76 Q69.1633 505.76 72.2652 508.19 Q75.367 510.598 75.367 514.718 Q75.367 517.589 73.7235 519.579 Q72.08 521.547 69.0476 522.311 Z" fill="#000000" fill-rule="nonzero" fill-opacity="1" /><path clip-path="url(#clip890)" d="M66.5939 219.82 L54.7884 238.269 L66.5939 238.269 L66.5939 219.82 M65.367 215.746 L71.2466 215.746 L71.2466 238.269 L76.1772 238.269 L76.1772 242.158 L71.2466 242.158 L71.2466 250.306 L66.5939 250.306 L66.5939 242.158 L50.9921 242.158 L50.9921 237.644 L65.367 215.746 Z" fill="#000000" fill-rule="nonzero" fill-opacity="1" /><polyline clip-path="url(#clip892)" style="stroke:#009af9; stroke-linecap:round; stroke-linejoin:round; stroke-width:4; stroke-opacity:1; fill:none" points="175.59,86.1857 229.789,669.416 283.987,1049.81 338.186,1225.69 392.385,1274.47 446.584,1274.27 500.783,1281.71 554.981,1276.51 609.18,1289.35 663.379,1299.4 717.578,1313.66 771.777,1313.64 825.975,1327.49 880.174,1332 934.373,1336.5 988.572,1342.29 1042.77,1348.52 1096.97,1353.97 1151.17,1355.97 1205.37,1352.6 1259.57,1352.97 1313.76,1356.39 1367.96,1360.3 1422.16,1367.31 1476.36,1366.88 1530.56,1366.6 1584.76,1367.21 1638.96,1371.69 1693.16,1371.68 1747.36,1372.96 1801.55,1371.68 1855.75,1374.53 1909.95,1378.03 1964.15,1374.34 2018.35,1380.8 2072.55,1377.75 2126.75,1378.77 2180.95,1384.24 2235.14,1384.2 2289.34,1383.1 "/>
<path clip-path="url(#clip890)" d="M1969.22 196.789 L2278.07 196.789 L2278.07 93.1086 L1969.22 93.1086  Z" fill="#ffffff" fill-rule="evenodd" fill-opacity="1"/>
<polyline clip-path="url(#clip890)" style="stroke:#000000; stroke-linecap:round; stroke-linejoin:round; stroke-width:4; stroke-opacity:1; fill:none" points="1969.22,196.789 2278.07,196.789 2278.07,93.1086 1969.22,93.1086 1969.22,196.789 "/>
<polyline clip-path="url(#clip890)" style="stroke:#009af9; stroke-linecap:round; stroke-linejoin:round; stroke-width:4; stroke-opacity:1; fill:none" points="1994.12,144.949 2143.49,144.949 "/>
<path clip-path="url(#clip890)" d="M2168.38 126.21 L2172.64 126.21 L2172.64 162.229 L2168.38 162.229 L2168.38 126.21 Z" fill="#000000" fill-rule="nonzero" fill-opacity="1" /><path clip-path="url(#clip890)" d="M2191.6 139.289 Q2188.17 139.289 2186.18 141.974 Q2184.19 144.636 2184.19 149.289 Q2184.19 153.942 2186.16 156.627 Q2188.15 159.289 2191.6 159.289 Q2195 159.289 2196.99 156.604 Q2198.99 153.918 2198.99 149.289 Q2198.99 144.682 2196.99 141.997 Q2195 139.289 2191.6 139.289 M2191.6 135.678 Q2197.16 135.678 2200.33 139.289 Q2203.5 142.9 2203.5 149.289 Q2203.5 155.655 2200.33 159.289 Q2197.16 162.9 2191.6 162.9 Q2186.02 162.9 2182.85 159.289 Q2179.7 155.655 2179.7 149.289 Q2179.7 142.9 2182.85 139.289 Q2186.02 135.678 2191.6 135.678 Z" fill="#000000" fill-rule="nonzero" fill-opacity="1" /><path clip-path="url(#clip890)" d="M2227.09 137.067 L2227.09 141.094 Q2225.28 140.169 2223.34 139.706 Q2221.39 139.243 2219.31 139.243 Q2216.14 139.243 2214.54 140.215 Q2212.97 141.187 2212.97 143.131 Q2212.97 144.613 2214.1 145.469 Q2215.24 146.303 2218.66 147.067 L2220.12 147.391 Q2224.66 148.363 2226.55 150.145 Q2228.48 151.905 2228.48 155.076 Q2228.48 158.687 2225.61 160.793 Q2222.76 162.9 2217.76 162.9 Q2215.67 162.9 2213.41 162.483 Q2211.16 162.09 2208.66 161.28 L2208.66 156.881 Q2211.02 158.108 2213.31 158.733 Q2215.61 159.335 2217.85 159.335 Q2220.86 159.335 2222.48 158.317 Q2224.1 157.275 2224.1 155.4 Q2224.1 153.664 2222.92 152.738 Q2221.76 151.812 2217.8 150.956 L2216.32 150.608 Q2212.36 149.775 2210.61 148.062 Q2208.85 146.326 2208.85 143.317 Q2208.85 139.659 2211.44 137.669 Q2214.03 135.678 2218.8 135.678 Q2221.16 135.678 2223.24 136.025 Q2225.33 136.372 2227.09 137.067 Z" fill="#000000" fill-rule="nonzero" fill-opacity="1" /><path clip-path="url(#clip890)" d="M2251.79 137.067 L2251.79 141.094 Q2249.98 140.169 2248.04 139.706 Q2246.09 139.243 2244.01 139.243 Q2240.84 139.243 2239.24 140.215 Q2237.67 141.187 2237.67 143.131 Q2237.67 144.613 2238.8 145.469 Q2239.93 146.303 2243.36 147.067 L2244.82 147.391 Q2249.36 148.363 2251.25 150.145 Q2253.17 151.905 2253.17 155.076 Q2253.17 158.687 2250.3 160.793 Q2247.46 162.9 2242.46 162.9 Q2240.37 162.9 2238.11 162.483 Q2235.86 162.09 2233.36 161.28 L2233.36 156.881 Q2235.72 158.108 2238.01 158.733 Q2240.3 159.335 2242.55 159.335 Q2245.56 159.335 2247.18 158.317 Q2248.8 157.275 2248.8 155.4 Q2248.8 153.664 2247.62 152.738 Q2246.46 151.812 2242.5 150.956 L2241.02 150.608 Q2237.06 149.775 2235.3 148.062 Q2233.55 146.326 2233.55 143.317 Q2233.55 139.659 2236.14 137.669 Q2238.73 135.678 2243.5 135.678 Q2245.86 135.678 2247.94 136.025 Q2250.03 136.372 2251.79 137.067 Z" fill="#000000" fill-rule="nonzero" fill-opacity="1" /></svg>
