<?xml version="1.0" encoding="utf-8"?>
<svg xmlns="http://www.w3.org/2000/svg" xmlns:xlink="http://www.w3.org/1999/xlink" width="600" height="400" viewBox="0 0 2400 1600">
<defs>
  <clipPath id="clip690">
    <rect x="0" y="0" width="2400" height="1600"/>
  </clipPath>
</defs>
<path clip-path="url(#clip690)" d="M0 1600 L2400 1600 L2400 0 L0 0  Z" fill="#ffffff" fill-rule="evenodd" fill-opacity="1"/>
<defs>
  <clipPath id="clip691">
    <rect x="480" y="0" width="1681" height="1600"/>
  </clipPath>
</defs>
<path clip-path="url(#clip690)" d="M112.177 1423.18 L2352.76 1423.18 L2352.76 47.2441 L112.177 47.2441  Z" fill="#ffffff" fill-rule="evenodd" fill-opacity="1"/>
<defs>
  <clipPath id="clip692">
    <rect x="112" y="47" width="2242" height="1377"/>
  </clipPath>
</defs>
<polyline clip-path="url(#clip692)" style="stroke:#000000; stroke-linecap:round; stroke-linejoin:round; stroke-width:2; stroke-opacity:0.1; fill:none" points="132.452,1423.18 132.452,47.2441 "/>
<polyline clip-path="url(#clip692)" style="stroke:#000000; stroke-linecap:round; stroke-linejoin:round; stroke-width:2; stroke-opacity:0.1; fill:none" points="563.83,1423.18 563.83,47.2441 "/>
<polyline clip-path="url(#clip692)" style="stroke:#000000; stroke-linecap:round; stroke-linejoin:round; stroke-width:2; stroke-opacity:0.1; fill:none" points="995.208,1423.18 995.208,47.2441 "/>
<polyline clip-path="url(#clip692)" style="stroke:#000000; stroke-linecap:round; stroke-linejoin:round; stroke-width:2; stroke-opacity:0.1; fill:none" points="1426.59,1423.18 1426.59,47.2441 "/>
<polyline clip-path="url(#clip692)" style="stroke:#000000; stroke-linecap:round; stroke-linejoin:round; stroke-width:2; stroke-opacity:0.1; fill:none" points="1857.97,1423.18 1857.97,47.2441 "/>
<polyline clip-path="url(#clip692)" style="stroke:#000000; stroke-linecap:round; stroke-linejoin:round; stroke-width:2; stroke-opacity:0.1; fill:none" points="2289.34,1423.18 2289.34,47.2441 "/>
<polyline clip-path="url(#clip690)" style="stroke:#000000; stroke-linecap:round; stroke-linejoin:round; stroke-width:4; stroke-opacity:1; fill:none" points="112.177,1423.18 2352.76,1423.18 "/>
<polyline clip-path="url(#clip690)" style="stroke:#000000; stroke-linecap:round; stroke-linejoin:round; stroke-width:4; stroke-opacity:1; fill:none" points="132.452,1423.18 132.452,1404.28 "/>
<polyline clip-path="url(#clip690)" style="stroke:#000000; stroke-linecap:round; stroke-linejoin:round; stroke-width:4; stroke-opacity:1; fill:none" points="563.83,1423.18 563.83,1404.28 "/>
<polyline clip-path="url(#clip690)" style="stroke:#000000; stroke-linecap:round; stroke-linejoin:round; stroke-width:4; stroke-opacity:1; fill:none" points="995.208,1423.18 995.208,1404.28 "/>
<polyline clip-path="url(#clip690)" style="stroke:#000000; stroke-linecap:round; stroke-linejoin:round; stroke-width:4; stroke-opacity:1; fill:none" points="1426.59,1423.18 1426.59,1404.28 "/>
<polyline clip-path="url(#clip690)" style="stroke:#000000; stroke-linecap:round; stroke-linejoin:round; stroke-width:4; stroke-opacity:1; fill:none" points="1857.97,1423.18 1857.97,1404.28 "/>
<polyline clip-path="url(#clip690)" style="stroke:#000000; stroke-linecap:round; stroke-linejoin:round; stroke-width:4; stroke-opacity:1; fill:none" points="2289.34,1423.18 2289.34,1404.28 "/>
<path clip-path="url(#clip690)" d="M132.452 1454.1 Q128.841 1454.1 127.012 1457.66 Q125.207 1461.2 125.207 1468.33 Q125.207 1475.44 127.012 1479.01 Q128.841 1482.55 132.452 1482.55 Q136.086 1482.55 137.892 1479.01 Q139.72 1475.44 139.72 1468.33 Q139.72 1461.2 137.892 1457.66 Q136.086 1454.1 132.452 1454.1 M132.452 1450.39 Q138.262 1450.39 141.318 1455 Q144.396 1459.58 144.396 1468.33 Q144.396 1477.06 141.318 1481.67 Q138.262 1486.25 132.452 1486.25 Q126.642 1486.25 123.563 1481.67 Q120.508 1477.06 120.508 1468.33 Q120.508 1459.58 123.563 1455 Q126.642 1450.39 132.452 1450.39 Z" fill="#000000" fill-rule="nonzero" fill-opacity="1" /><path clip-path="url(#clip690)" d="M538.518 1481.64 L546.157 1481.64 L546.157 1455.28 L537.847 1456.95 L537.847 1452.69 L546.11 1451.02 L550.786 1451.02 L550.786 1481.64 L558.425 1481.64 L558.425 1485.58 L538.518 1485.58 L538.518 1481.64 Z" fill="#000000" fill-rule="nonzero" fill-opacity="1" /><path clip-path="url(#clip690)" d="M577.87 1454.1 Q574.258 1454.1 572.43 1457.66 Q570.624 1461.2 570.624 1468.33 Q570.624 1475.44 572.43 1479.01 Q574.258 1482.55 577.87 1482.55 Q581.504 1482.55 583.309 1479.01 Q585.138 1475.44 585.138 1468.33 Q585.138 1461.2 583.309 1457.66 Q581.504 1454.1 577.87 1454.1 M577.87 1450.39 Q583.68 1450.39 586.735 1455 Q589.814 1459.58 589.814 1468.33 Q589.814 1477.06 586.735 1481.67 Q583.68 1486.25 577.87 1486.25 Q572.059 1486.25 568.981 1481.67 Q565.925 1477.06 565.925 1468.33 Q565.925 1459.58 568.981 1455 Q572.059 1450.39 577.87 1450.39 Z" fill="#000000" fill-rule="nonzero" fill-opacity="1" /><path clip-path="url(#clip690)" d="M973.982 1481.64 L990.301 1481.64 L990.301 1485.58 L968.357 1485.58 L968.357 1481.64 Q971.019 1478.89 975.602 1474.26 Q980.209 1469.61 981.389 1468.27 Q983.634 1465.74 984.514 1464.01 Q985.417 1462.25 985.417 1460.56 Q985.417 1457.8 983.472 1456.07 Q981.551 1454.33 978.449 1454.33 Q976.25 1454.33 973.797 1455.09 Q971.366 1455.86 968.588 1457.41 L968.588 1452.69 Q971.412 1451.55 973.866 1450.97 Q976.32 1450.39 978.357 1450.39 Q983.727 1450.39 986.922 1453.08 Q990.116 1455.77 990.116 1460.26 Q990.116 1462.39 989.306 1464.31 Q988.519 1466.2 986.412 1468.8 Q985.834 1469.47 982.732 1472.69 Q979.63 1475.88 973.982 1481.64 Z" fill="#000000" fill-rule="nonzero" fill-opacity="1" /><path clip-path="url(#clip690)" d="M1010.12 1454.1 Q1006.5 1454.1 1004.68 1457.66 Q1002.87 1461.2 1002.87 1468.33 Q1002.87 1475.44 1004.68 1479.01 Q1006.5 1482.55 1010.12 1482.55 Q1013.75 1482.55 1015.56 1479.01 Q1017.38 1475.44 1017.38 1468.33 Q1017.38 1461.2 1015.56 1457.66 Q1013.75 1454.1 1010.12 1454.1 M1010.12 1450.39 Q1015.93 1450.39 1018.98 1455 Q1022.06 1459.58 1022.06 1468.33 Q1022.06 1477.06 1018.98 1481.67 Q1015.93 1486.25 1010.12 1486.25 Q1004.31 1486.25 1001.23 1481.67 Q998.171 1477.06 998.171 1468.33 Q998.171 1459.58 1001.23 1455 Q1004.31 1450.39 1010.12 1450.39 Z" fill="#000000" fill-rule="nonzero" fill-opacity="1" /><path clip-path="url(#clip690)" d="M1415.43 1466.95 Q1418.79 1467.66 1420.66 1469.93 Q1422.56 1472.2 1422.56 1475.53 Q1422.56 1480.65 1419.04 1483.45 Q1415.52 1486.25 1409.04 1486.25 Q1406.86 1486.25 1404.55 1485.81 Q1402.26 1485.39 1399.8 1484.54 L1399.8 1480.02 Q1401.75 1481.16 1404.06 1481.74 Q1406.38 1482.32 1408.9 1482.32 Q1413.3 1482.32 1415.59 1480.58 Q1417.91 1478.84 1417.91 1475.53 Q1417.91 1472.48 1415.75 1470.77 Q1413.62 1469.03 1409.8 1469.03 L1405.78 1469.03 L1405.78 1465.19 L1409.99 1465.19 Q1413.44 1465.19 1415.27 1463.82 Q1417.1 1462.43 1417.1 1459.84 Q1417.1 1457.18 1415.2 1455.77 Q1413.32 1454.33 1409.8 1454.33 Q1407.88 1454.33 1405.68 1454.75 Q1403.49 1455.16 1400.85 1456.04 L1400.85 1451.88 Q1403.51 1451.14 1405.82 1450.77 Q1408.16 1450.39 1410.22 1450.39 Q1415.55 1450.39 1418.65 1452.83 Q1421.75 1455.23 1421.75 1459.35 Q1421.75 1462.22 1420.11 1464.21 Q1418.46 1466.18 1415.43 1466.95 Z" fill="#000000" fill-rule="nonzero" fill-opacity="1" /><path clip-path="url(#clip690)" d="M1441.42 1454.1 Q1437.81 1454.1 1435.98 1457.66 Q1434.18 1461.2 1434.18 1468.33 Q1434.18 1475.44 1435.98 1479.01 Q1437.81 1482.55 1441.42 1482.55 Q1445.06 1482.55 1446.86 1479.01 Q1448.69 1475.44 1448.69 1468.33 Q1448.69 1461.2 1446.86 1457.66 Q1445.06 1454.1 1441.42 1454.1 M1441.42 1450.39 Q1447.23 1450.39 1450.29 1455 Q1453.37 1459.58 1453.37 1468.33 Q1453.37 1477.06 1450.29 1481.67 Q1447.23 1486.25 1441.42 1486.25 Q1435.61 1486.25 1432.54 1481.67 Q1429.48 1477.06 1429.48 1468.33 Q1429.48 1459.58 1432.54 1455 Q1435.61 1450.39 1441.42 1450.39 Z" fill="#000000" fill-rule="nonzero" fill-opacity="1" /><path clip-path="url(#clip690)" d="M1846.14 1455.09 L1834.33 1473.54 L1846.14 1473.54 L1846.14 1455.09 M1844.91 1451.02 L1850.79 1451.02 L1850.79 1473.54 L1855.72 1473.54 L1855.72 1477.43 L1850.79 1477.43 L1850.79 1485.58 L1846.14 1485.58 L1846.14 1477.43 L1830.53 1477.43 L1830.53 1472.92 L1844.91 1451.02 Z" fill="#000000" fill-rule="nonzero" fill-opacity="1" /><path clip-path="url(#clip690)" d="M1873.45 1454.1 Q1869.84 1454.1 1868.01 1457.66 Q1866.21 1461.2 1866.21 1468.33 Q1866.21 1475.44 1868.01 1479.01 Q1869.84 1482.55 1873.45 1482.55 Q1877.09 1482.55 1878.89 1479.01 Q1880.72 1475.44 1880.72 1468.33 Q1880.72 1461.2 1878.89 1457.66 Q1877.09 1454.1 1873.45 1454.1 M1873.45 1450.39 Q1879.26 1450.39 1882.32 1455 Q1885.4 1459.58 1885.4 1468.33 Q1885.4 1477.06 1882.32 1481.67 Q1879.26 1486.25 1873.45 1486.25 Q1867.64 1486.25 1864.56 1481.67 Q1861.51 1477.06 1861.51 1468.33 Q1861.51 1459.58 1864.56 1455 Q1867.64 1450.39 1873.45 1450.39 Z" fill="#000000" fill-rule="nonzero" fill-opacity="1" /><path clip-path="url(#clip690)" d="M2264.04 1451.02 L2282.4 1451.02 L2282.4 1454.96 L2268.32 1454.96 L2268.32 1463.43 Q2269.34 1463.08 2270.36 1462.92 Q2271.38 1462.73 2272.4 1462.73 Q2278.19 1462.73 2281.57 1465.9 Q2284.95 1469.08 2284.95 1474.49 Q2284.95 1480.07 2281.47 1483.17 Q2278 1486.25 2271.68 1486.25 Q2269.51 1486.25 2267.24 1485.88 Q2264.99 1485.51 2262.58 1484.77 L2262.58 1480.07 Q2264.67 1481.2 2266.89 1481.76 Q2269.11 1482.32 2271.59 1482.32 Q2275.59 1482.32 2277.93 1480.21 Q2280.27 1478.1 2280.27 1474.49 Q2280.27 1470.88 2277.93 1468.77 Q2275.59 1466.67 2271.59 1466.67 Q2269.71 1466.67 2267.84 1467.08 Q2265.99 1467.5 2264.04 1468.38 L2264.04 1451.02 Z" fill="#000000" fill-rule="nonzero" fill-opacity="1" /><path clip-path="url(#clip690)" d="M2304.16 1454.1 Q2300.55 1454.1 2298.72 1457.66 Q2296.91 1461.2 2296.91 1468.33 Q2296.91 1475.44 2298.72 1479.01 Q2300.55 1482.55 2304.16 1482.55 Q2307.79 1482.55 2309.6 1479.01 Q2311.43 1475.44 2311.43 1468.33 Q2311.43 1461.2 2309.6 1457.66 Q2307.79 1454.1 2304.16 1454.1 M2304.16 1450.39 Q2309.97 1450.39 2313.02 1455 Q2316.1 1459.58 2316.1 1468.33 Q2316.1 1477.06 2313.02 1481.67 Q2309.97 1486.25 2304.16 1486.25 Q2298.35 1486.25 2295.27 1481.67 Q2292.21 1477.06 2292.21 1468.33 Q2292.21 1459.58 2295.27 1455 Q2298.35 1450.39 2304.16 1450.39 Z" fill="#000000" fill-rule="nonzero" fill-opacity="1" /><path clip-path="url(#clip690)" d="M1038.19 1522.27 L1038.19 1532.4 L1050.25 1532.4 L1050.25 1536.95 L1038.19 1536.95 L1038.19 1556.3 Q1038.19 1560.66 1039.36 1561.9 Q1040.57 1563.14 1044.23 1563.14 L1050.25 1563.14 L1050.25 1568.04 L1044.23 1568.04 Q1037.45 1568.04 1034.88 1565.53 Q1032.3 1562.98 1032.3 1556.3 L1032.3 1536.95 L1028 1536.95 L1028 1532.4 L1032.3 1532.4 L1032.3 1522.27 L1038.19 1522.27 Z" fill="#000000" fill-rule="nonzero" fill-opacity="1" /><path clip-path="url(#clip690)" d="M1078.61 1537.87 Q1077.62 1537.3 1076.44 1537.04 Q1075.3 1536.76 1073.9 1536.76 Q1068.93 1536.76 1066.26 1540 Q1063.62 1543.22 1063.62 1549.27 L1063.62 1568.04 L1057.73 1568.04 L1057.73 1532.4 L1063.62 1532.4 L1063.62 1537.93 Q1065.46 1534.69 1068.42 1533.13 Q1071.38 1531.54 1075.62 1531.54 Q1076.22 1531.54 1076.95 1531.63 Q1077.68 1531.7 1078.58 1531.85 L1078.61 1537.87 Z" fill="#000000" fill-rule="nonzero" fill-opacity="1" /><path clip-path="url(#clip690)" d="M1100.95 1550.12 Q1093.85 1550.12 1091.12 1551.75 Q1088.38 1553.37 1088.38 1557.29 Q1088.38 1560.4 1090.42 1562.25 Q1092.48 1564.07 1096.02 1564.07 Q1100.89 1564.07 1103.82 1560.63 Q1106.78 1557.16 1106.78 1551.43 L1106.78 1550.12 L1100.95 1550.12 M1112.63 1547.71 L1112.63 1568.04 L1106.78 1568.04 L1106.78 1562.63 Q1104.77 1565.88 1101.78 1567.44 Q1098.79 1568.97 1094.46 1568.97 Q1088.98 1568.97 1085.74 1565.91 Q1082.52 1562.82 1082.52 1557.67 Q1082.52 1551.65 1086.53 1548.6 Q1090.57 1545.54 1098.56 1545.54 L1106.78 1545.54 L1106.78 1544.97 Q1106.78 1540.93 1104.1 1538.73 Q1101.46 1536.5 1096.65 1536.5 Q1093.6 1536.5 1090.7 1537.23 Q1087.81 1537.97 1085.13 1539.43 L1085.13 1534.02 Q1088.35 1532.78 1091.37 1532.17 Q1094.39 1531.54 1097.26 1531.54 Q1104.99 1531.54 1108.81 1535.55 Q1112.63 1539.56 1112.63 1547.71 Z" fill="#000000" fill-rule="nonzero" fill-opacity="1" /><path clip-path="url(#clip690)" d="M1124.7 1532.4 L1130.55 1532.4 L1130.55 1568.04 L1124.7 1568.04 L1124.7 1532.4 M1124.7 1518.52 L1130.55 1518.52 L1130.55 1525.93 L1124.7 1525.93 L1124.7 1518.52 Z" fill="#000000" fill-rule="nonzero" fill-opacity="1" /><path clip-path="url(#clip690)" d="M1172.44 1546.53 L1172.44 1568.04 L1166.58 1568.04 L1166.58 1546.72 Q1166.58 1541.66 1164.61 1539.14 Q1162.63 1536.63 1158.69 1536.63 Q1153.95 1536.63 1151.21 1539.65 Q1148.47 1542.68 1148.47 1547.9 L1148.47 1568.04 L1142.58 1568.04 L1142.58 1532.4 L1148.47 1532.4 L1148.47 1537.93 Q1150.57 1534.72 1153.4 1533.13 Q1156.27 1531.54 1159.99 1531.54 Q1166.14 1531.54 1169.29 1535.36 Q1172.44 1539.14 1172.44 1546.53 Z" fill="#000000" fill-rule="nonzero" fill-opacity="1" /><path clip-path="url(#clip690)" d="M1184.12 1532.4 L1189.98 1532.4 L1189.98 1568.04 L1184.12 1568.04 L1184.12 1532.4 M1184.12 1518.52 L1189.98 1518.52 L1189.98 1525.93 L1184.12 1525.93 L1184.12 1518.52 Z" fill="#000000" fill-rule="nonzero" fill-opacity="1" /><path clip-path="url(#clip690)" d="M1231.86 1546.53 L1231.86 1568.04 L1226.01 1568.04 L1226.01 1546.72 Q1226.01 1541.66 1224.03 1539.14 Q1222.06 1536.63 1218.11 1536.63 Q1213.37 1536.63 1210.63 1539.65 Q1207.89 1542.68 1207.89 1547.9 L1207.89 1568.04 L1202.01 1568.04 L1202.01 1532.4 L1207.89 1532.4 L1207.89 1537.93 Q1210 1534.72 1212.83 1533.13 Q1215.69 1531.54 1219.42 1531.54 Q1225.56 1531.54 1228.71 1535.36 Q1231.86 1539.14 1231.86 1546.53 Z" fill="#000000" fill-rule="nonzero" fill-opacity="1" /><path clip-path="url(#clip690)" d="M1267 1549.81 Q1267 1543.44 1264.36 1539.94 Q1261.75 1536.44 1257.01 1536.44 Q1252.3 1536.44 1249.65 1539.94 Q1247.04 1543.44 1247.04 1549.81 Q1247.04 1556.14 1249.65 1559.64 Q1252.3 1563.14 1257.01 1563.14 Q1261.75 1563.14 1264.36 1559.64 Q1267 1556.14 1267 1549.81 M1272.86 1563.62 Q1272.86 1572.72 1268.81 1577.15 Q1264.77 1581.6 1256.43 1581.6 Q1253.35 1581.6 1250.61 1581.13 Q1247.87 1580.68 1245.29 1579.72 L1245.29 1574.03 Q1247.87 1575.43 1250.39 1576.1 Q1252.9 1576.76 1255.51 1576.76 Q1261.27 1576.76 1264.14 1573.74 Q1267 1570.75 1267 1564.67 L1267 1561.77 Q1265.19 1564.92 1262.35 1566.48 Q1259.52 1568.04 1255.57 1568.04 Q1249.02 1568.04 1245.01 1563.05 Q1241 1558.05 1241 1549.81 Q1241 1541.53 1245.01 1536.53 Q1249.02 1531.54 1255.57 1531.54 Q1259.52 1531.54 1262.35 1533.1 Q1265.19 1534.66 1267 1537.81 L1267 1532.4 L1272.86 1532.4 L1272.86 1563.62 Z" fill="#000000" fill-rule="nonzero" fill-opacity="1" /><path clip-path="url(#clip690)" d="M1328.37 1533.45 L1328.37 1538.98 Q1325.88 1537.71 1323.21 1537.07 Q1320.54 1536.44 1317.67 1536.44 Q1313.31 1536.44 1311.11 1537.77 Q1308.95 1539.11 1308.95 1541.79 Q1308.95 1543.82 1310.51 1545 Q1312.07 1546.15 1316.78 1547.2 L1318.79 1547.64 Q1325.02 1548.98 1327.63 1551.43 Q1330.28 1553.85 1330.28 1558.21 Q1330.28 1563.17 1326.33 1566.07 Q1322.41 1568.97 1315.54 1568.97 Q1312.67 1568.97 1309.56 1568.39 Q1306.47 1567.85 1303.03 1566.74 L1303.03 1560.69 Q1306.28 1562.38 1309.43 1563.24 Q1312.58 1564.07 1315.67 1564.07 Q1319.8 1564.07 1322.03 1562.66 Q1324.26 1561.23 1324.26 1558.65 Q1324.26 1556.27 1322.64 1554.99 Q1321.05 1553.72 1315.6 1552.54 L1313.57 1552.07 Q1308.12 1550.92 1305.7 1548.56 Q1303.29 1546.18 1303.29 1542.04 Q1303.29 1537.01 1306.85 1534.27 Q1310.41 1531.54 1316.97 1531.54 Q1320.22 1531.54 1323.08 1532.01 Q1325.95 1532.49 1328.37 1533.45 Z" fill="#000000" fill-rule="nonzero" fill-opacity="1" /><path clip-path="url(#clip690)" d="M1345.39 1522.27 L1345.39 1532.4 L1357.46 1532.4 L1357.46 1536.95 L1345.39 1536.95 L1345.39 1556.3 Q1345.39 1560.66 1346.57 1561.9 Q1347.78 1563.14 1351.44 1563.14 L1357.46 1563.14 L1357.46 1568.04 L1351.44 1568.04 Q1344.66 1568.04 1342.08 1565.53 Q1339.51 1562.98 1339.51 1556.3 L1339.51 1536.95 L1335.21 1536.95 L1335.21 1532.4 L1339.51 1532.4 L1339.51 1522.27 L1345.39 1522.27 Z" fill="#000000" fill-rule="nonzero" fill-opacity="1" /><path clip-path="url(#clip690)" d="M1395.65 1548.76 L1395.65 1551.62 L1368.72 1551.62 Q1369.11 1557.67 1372.35 1560.85 Q1375.63 1564 1381.46 1564 Q1384.83 1564 1387.98 1563.17 Q1391.16 1562.35 1394.28 1560.69 L1394.28 1566.23 Q1391.13 1567.57 1387.82 1568.27 Q1384.51 1568.97 1381.11 1568.97 Q1372.58 1568.97 1367.58 1564 Q1362.61 1559.04 1362.61 1550.57 Q1362.61 1541.82 1367.32 1536.69 Q1372.07 1531.54 1380.09 1531.54 Q1387.28 1531.54 1391.45 1536.18 Q1395.65 1540.8 1395.65 1548.76 M1389.79 1547.04 Q1389.73 1542.23 1387.09 1539.37 Q1384.48 1536.5 1380.15 1536.5 Q1375.25 1536.5 1372.29 1539.27 Q1369.36 1542.04 1368.92 1547.07 L1389.79 1547.04 Z" fill="#000000" fill-rule="nonzero" fill-opacity="1" /><path clip-path="url(#clip690)" d="M1410.93 1562.7 L1410.93 1581.6 L1405.04 1581.6 L1405.04 1532.4 L1410.93 1532.4 L1410.93 1537.81 Q1412.78 1534.62 1415.58 1533.1 Q1418.41 1531.54 1422.32 1531.54 Q1428.82 1531.54 1432.86 1536.69 Q1436.93 1541.85 1436.93 1550.25 Q1436.93 1558.65 1432.86 1563.81 Q1428.82 1568.97 1422.32 1568.97 Q1418.41 1568.97 1415.58 1567.44 Q1412.78 1565.88 1410.93 1562.7 M1430.85 1550.25 Q1430.85 1543.79 1428.18 1540.13 Q1425.54 1536.44 1420.89 1536.44 Q1416.24 1536.44 1413.57 1540.13 Q1410.93 1543.79 1410.93 1550.25 Q1410.93 1556.71 1413.57 1560.4 Q1416.24 1564.07 1420.89 1564.07 Q1425.54 1564.07 1428.18 1560.4 Q1430.85 1556.71 1430.85 1550.25 Z" fill="#000000" fill-rule="nonzero" fill-opacity="1" /><polyline clip-path="url(#clip692)" style="stroke:#000000; stroke-linecap:round; stroke-linejoin:round; stroke-width:2; stroke-opacity:0.1; fill:none" points="112.177,1398.34 2352.76,1398.34 "/>
<polyline clip-path="url(#clip692)" style="stroke:#000000; stroke-linecap:round; stroke-linejoin:round; stroke-width:2; stroke-opacity:0.1; fill:none" points="112.177,1196.87 2352.76,1196.87 "/>
<polyline clip-path="url(#clip692)" style="stroke:#000000; stroke-linecap:round; stroke-linejoin:round; stroke-width:2; stroke-opacity:0.1; fill:none" points="112.177,995.399 2352.76,995.399 "/>
<polyline clip-path="url(#clip692)" style="stroke:#000000; stroke-linecap:round; stroke-linejoin:round; stroke-width:2; stroke-opacity:0.1; fill:none" points="112.177,793.929 2352.76,793.929 "/>
<polyline clip-path="url(#clip692)" style="stroke:#000000; stroke-linecap:round; stroke-linejoin:round; stroke-width:2; stroke-opacity:0.1; fill:none" points="112.177,592.46 2352.76,592.46 "/>
<polyline clip-path="url(#clip692)" style="stroke:#000000; stroke-linecap:round; stroke-linejoin:round; stroke-width:2; stroke-opacity:0.1; fill:none" points="112.177,390.99 2352.76,390.99 "/>
<polyline clip-path="url(#clip692)" style="stroke:#000000; stroke-linecap:round; stroke-linejoin:round; stroke-width:2; stroke-opacity:0.1; fill:none" points="112.177,189.521 2352.76,189.521 "/>
<polyline clip-path="url(#clip690)" style="stroke:#000000; stroke-linecap:round; stroke-linejoin:round; stroke-width:4; stroke-opacity:1; fill:none" points="112.177,1423.18 112.177,47.2441 "/>
<polyline clip-path="url(#clip690)" style="stroke:#000000; stroke-linecap:round; stroke-linejoin:round; stroke-width:4; stroke-opacity:1; fill:none" points="112.177,1398.34 131.075,1398.34 "/>
<polyline clip-path="url(#clip690)" style="stroke:#000000; stroke-linecap:round; stroke-linejoin:round; stroke-width:4; stroke-opacity:1; fill:none" points="112.177,1196.87 131.075,1196.87 "/>
<polyline clip-path="url(#clip690)" style="stroke:#000000; stroke-linecap:round; stroke-linejoin:round; stroke-width:4; stroke-opacity:1; fill:none" points="112.177,995.399 131.075,995.399 "/>
<polyline clip-path="url(#clip690)" style="stroke:#000000; stroke-linecap:round; stroke-linejoin:round; stroke-width:4; stroke-opacity:1; fill:none" points="112.177,793.929 131.075,793.929 "/>
<polyline clip-path="url(#clip690)" style="stroke:#000000; stroke-linecap:round; stroke-linejoin:round; stroke-width:4; stroke-opacity:1; fill:none" points="112.177,592.46 131.075,592.46 "/>
<polyline clip-path="url(#clip690)" style="stroke:#000000; stroke-linecap:round; stroke-linejoin:round; stroke-width:4; stroke-opacity:1; fill:none" points="112.177,390.99 131.075,390.99 "/>
<polyline clip-path="url(#clip690)" style="stroke:#000000; stroke-linecap:round; stroke-linejoin:round; stroke-width:4; stroke-opacity:1; fill:none" points="112.177,189.521 131.075,189.521 "/>
<path clip-path="url(#clip690)" d="M64.2328 1384.14 Q60.6217 1384.14 58.793 1387.7 Q56.9875 1391.24 56.9875 1398.37 Q56.9875 1405.48 58.793 1409.04 Q60.6217 1412.59 64.2328 1412.59 Q67.867 1412.59 69.6726 1409.04 Q71.5013 1405.48 71.5013 1398.37 Q71.5013 1391.24 69.6726 1387.7 Q67.867 1384.14 64.2328 1384.14 M64.2328 1380.43 Q70.0429 1380.43 73.0985 1385.04 Q76.1772 1389.62 76.1772 1398.37 Q76.1772 1407.1 73.0985 1411.71 Q70.0429 1416.29 64.2328 1416.29 Q58.4226 1416.29 55.344 1411.71 Q52.2884 1407.1 52.2884 1398.37 Q52.2884 1389.62 55.344 1385.04 Q58.4226 1380.43 64.2328 1380.43 Z" fill="#000000" fill-rule="nonzero" fill-opacity="1" /><path clip-path="url(#clip690)" d="M56.2699 1210.21 L63.9087 1210.21 L63.9087 1183.85 L55.5986 1185.51 L55.5986 1181.26 L63.8624 1179.59 L68.5383 1179.59 L68.5383 1210.21 L76.1772 1210.21 L76.1772 1214.15 L56.2699 1214.15 L56.2699 1210.21 Z" fill="#000000" fill-rule="nonzero" fill-opacity="1" /><path clip-path="url(#clip690)" d="M59.8578 1008.74 L76.1772 1008.74 L76.1772 1012.68 L54.2328 1012.68 L54.2328 1008.74 Q56.8949 1005.99 61.4782 1001.36 Q66.0846 996.707 67.2652 995.364 Q69.5105 992.841 70.3902 991.105 Q71.2929 989.346 71.2929 987.656 Q71.2929 984.901 69.3485 983.165 Q67.4272 981.429 64.3254 981.429 Q62.1263 981.429 59.6726 982.193 Q57.2421 982.957 54.4643 984.508 L54.4643 979.786 Q57.2884 978.651 59.7421 978.073 Q62.1958 977.494 64.2328 977.494 Q69.6031 977.494 72.7976 980.179 Q75.992 982.864 75.992 987.355 Q75.992 989.485 75.1818 991.406 Q74.3948 993.304 72.2883 995.897 Q71.7096 996.568 68.6078 999.786 Q65.5059 1002.98 59.8578 1008.74 Z" fill="#000000" fill-rule="nonzero" fill-opacity="1" /><path clip-path="url(#clip690)" d="M69.0476 792.575 Q72.404 793.293 74.279 795.561 Q76.1772 797.83 76.1772 801.163 Q76.1772 806.279 72.6587 809.08 Q69.1402 811.881 62.6587 811.881 Q60.4828 811.881 58.168 811.441 Q55.8764 811.024 53.4227 810.168 L53.4227 805.654 Q55.3671 806.788 57.6819 807.367 Q59.9967 807.946 62.5198 807.946 Q66.918 807.946 69.2096 806.209 Q71.5244 804.473 71.5244 801.163 Q71.5244 798.108 69.3717 796.395 Q67.242 794.659 63.4226 794.659 L59.3949 794.659 L59.3949 790.816 L63.6078 790.816 Q67.0569 790.816 68.8855 789.45 Q70.7142 788.061 70.7142 785.469 Q70.7142 782.807 68.8161 781.395 Q66.9411 779.96 63.4226 779.96 Q61.5013 779.96 59.3023 780.376 Q57.1032 780.793 54.4643 781.673 L54.4643 777.506 Q57.1264 776.765 59.4412 776.395 Q61.7791 776.024 63.8393 776.024 Q69.1633 776.024 72.2652 778.455 Q75.367 780.862 75.367 784.983 Q75.367 787.853 73.7235 789.844 Q72.08 791.811 69.0476 792.575 Z" fill="#000000" fill-rule="nonzero" fill-opacity="1" /><path clip-path="url(#clip690)" d="M66.5939 579.254 L54.7884 597.703 L66.5939 597.703 L66.5939 579.254 M65.367 575.18 L71.2466 575.18 L71.2466 597.703 L76.1772 597.703 L76.1772 601.592 L71.2466 601.592 L71.2466 609.74 L66.5939 609.74 L66.5939 601.592 L50.9921 601.592 L50.9921 597.078 L65.367 575.18 Z" fill="#000000" fill-rule="nonzero" fill-opacity="1" /><path clip-path="url(#clip690)" d="M55.2745 373.71 L73.6309 373.71 L73.6309 377.645 L59.5569 377.645 L59.5569 386.118 Q60.5754 385.77 61.5939 385.608 Q62.6124 385.423 63.6309 385.423 Q69.418 385.423 72.7976 388.594 Q76.1772 391.766 76.1772 397.182 Q76.1772 402.761 72.705 405.863 Q69.2328 408.942 62.9134 408.942 Q60.7374 408.942 58.4689 408.571 Q56.2236 408.201 53.8162 407.46 L53.8162 402.761 Q55.8995 403.895 58.1217 404.451 Q60.3439 405.006 62.8208 405.006 Q66.8254 405.006 69.1633 402.9 Q71.5013 400.793 71.5013 397.182 Q71.5013 393.571 69.1633 391.465 Q66.8254 389.358 62.8208 389.358 Q60.9458 389.358 59.0708 389.775 Q57.2189 390.192 55.2745 391.071 L55.2745 373.71 Z" fill="#000000" fill-rule="nonzero" fill-opacity="1" /><path clip-path="url(#clip690)" d="M64.6495 187.657 Q61.5013 187.657 59.6495 189.81 Q57.8208 191.963 57.8208 195.713 Q57.8208 199.44 59.6495 201.615 Q61.5013 203.768 64.6495 203.768 Q67.7976 203.768 69.6263 201.615 Q71.4781 199.44 71.4781 195.713 Q71.4781 191.963 69.6263 189.81 Q67.7976 187.657 64.6495 187.657 M73.9318 173.005 L73.9318 177.264 Q72.1726 176.43 70.367 175.991 Q68.5846 175.551 66.8254 175.551 Q62.1958 175.551 59.7421 178.676 Q57.3115 181.801 56.9643 188.12 Q58.33 186.106 60.3902 185.041 Q62.4504 183.954 64.9272 183.954 Q70.1355 183.954 73.1448 187.125 Q76.1772 190.273 76.1772 195.713 Q76.1772 201.037 73.029 204.254 Q69.8809 207.472 64.6495 207.472 Q58.6541 207.472 55.4828 202.889 Q52.3116 198.282 52.3116 189.555 Q52.3116 181.361 56.2004 176.5 Q60.0893 171.616 66.6402 171.616 Q68.3994 171.616 70.1818 171.963 Q71.9874 172.31 73.9318 173.005 Z" fill="#000000" fill-rule="nonzero" fill-opacity="1" /><polyline clip-path="url(#clip692)" style="stroke:#009af9; stroke-linecap:round; stroke-linejoin:round; stroke-width:4; stroke-opacity:1; fill:none" points="175.59,86.1857 218.728,538.638 261.865,885.599 305.003,1099.73 348.141,1209.54 391.279,1246.69 434.417,1288.63 477.555,1328.32 520.692,1343.14 563.83,1335 606.968,1314.39 650.106,1298.73 693.244,1294.73 736.382,1297.68 779.519,1315.26 822.657,1336.56 865.795,1351.72 908.933,1361.92 952.071,1366.77 995.208,1370.45 1038.35,1364.63 1081.48,1363.2 1124.62,1360.17 1167.76,1355.85 1210.9,1357.12 1254.04,1351.93 1297.17,1360.99 1340.31,1364.79 1383.45,1368.49 1426.59,1368.1 1469.72,1369.9 1512.86,1369.82 1556,1369.9 1599.14,1370.76 1642.28,1372.81 1685.41,1376.81 1728.55,1378.34 1771.69,1380.49 1814.83,1379.81 1857.97,1379.98 1901.1,1378.04 1944.24,1380.94 1987.38,1379.75 2030.52,1381.44 2073.65,1381.93 2116.79,1384.24 2159.93,1382.82 2203.07,1383.61 2246.21,1381.65 2289.34,1381.94 "/>
<path clip-path="url(#clip690)" d="M2001.58 196.789 L2278.07 196.789 L2278.07 93.1086 L2001.58 93.1086  Z" fill="#ffffff" fill-rule="evenodd" fill-opacity="1"/>
<polyline clip-path="url(#clip690)" style="stroke:#000000; stroke-linecap:round; stroke-linejoin:round; stroke-width:4; stroke-opacity:1; fill:none" points="2001.58,196.789 2278.07,196.789 2278.07,93.1086 2001.58,93.1086 2001.58,196.789 "/>
<polyline clip-path="url(#clip690)" style="stroke:#009af9; stroke-linecap:round; stroke-linejoin:round; stroke-width:4; stroke-opacity:1; fill:none" points="2026.48,144.949 2175.85,144.949 "/>
<path clip-path="url(#clip690)" d="M2214.59 164.636 Q2212.78 169.266 2211.07 170.678 Q2209.36 172.09 2206.49 172.09 L2203.08 172.09 L2203.08 168.525 L2205.58 168.525 Q2207.34 168.525 2208.31 167.692 Q2209.29 166.858 2210.47 163.756 L2211.23 161.812 L2200.74 136.303 L2205.26 136.303 L2213.36 156.581 L2221.46 136.303 L2225.98 136.303 L2214.59 164.636 Z" fill="#000000" fill-rule="nonzero" fill-opacity="1" /><path clip-path="url(#clip690)" d="M2233.27 158.293 L2240.91 158.293 L2240.91 131.928 L2232.6 133.595 L2232.6 129.335 L2240.86 127.669 L2245.54 127.669 L2245.54 158.293 L2253.17 158.293 L2253.17 162.229 L2233.27 162.229 L2233.27 158.293 Z" fill="#000000" fill-rule="nonzero" fill-opacity="1" /></svg>
