<?xml version="1.0" encoding="utf-8"?>
<svg xmlns="http://www.w3.org/2000/svg" xmlns:xlink="http://www.w3.org/1999/xlink" width="600" height="400" viewBox="0 0 2400 1600">
<defs>
  <clipPath id="clip960">
    <rect x="0" y="0" width="2400" height="1600"/>
  </clipPath>
</defs>
<path clip-path="url(#clip960)" d="M0 1600 L2400 1600 L2400 0 L0 0  Z" fill="#ffffff" fill-rule="evenodd" fill-opacity="1"/>
<defs>
  <clipPath id="clip961">
    <rect x="480" y="0" width="1681" height="1600"/>
  </clipPath>
</defs>
<path clip-path="url(#clip960)" d="M110.881 1423.18 L2352.76 1423.18 L2352.76 47.2441 L110.881 47.2441  Z" fill="#ffffff" fill-rule="evenodd" fill-opacity="1"/>
<defs>
  <clipPath id="clip962">
    <rect x="110" y="47" width="2243" height="1377"/>
  </clipPath>
</defs>
<polyline clip-path="url(#clip962)" style="stroke:#000000; stroke-linecap:round; stroke-linejoin:round; stroke-width:2; stroke-opacity:0.1; fill:none" points="131.167,1423.18 131.167,47.2441 "/>
<polyline clip-path="url(#clip962)" style="stroke:#000000; stroke-linecap:round; stroke-linejoin:round; stroke-width:2; stroke-opacity:0.1; fill:none" points="562.795,1423.18 562.795,47.2441 "/>
<polyline clip-path="url(#clip962)" style="stroke:#000000; stroke-linecap:round; stroke-linejoin:round; stroke-width:2; stroke-opacity:0.1; fill:none" points="994.423,1423.18 994.423,47.2441 "/>
<polyline clip-path="url(#clip962)" style="stroke:#000000; stroke-linecap:round; stroke-linejoin:round; stroke-width:2; stroke-opacity:0.1; fill:none" points="1426.05,1423.18 1426.05,47.2441 "/>
<polyline clip-path="url(#clip962)" style="stroke:#000000; stroke-linecap:round; stroke-linejoin:round; stroke-width:2; stroke-opacity:0.1; fill:none" points="1857.68,1423.18 1857.68,47.2441 "/>
<polyline clip-path="url(#clip962)" style="stroke:#000000; stroke-linecap:round; stroke-linejoin:round; stroke-width:2; stroke-opacity:0.1; fill:none" points="2289.31,1423.18 2289.31,47.2441 "/>
<polyline clip-path="url(#clip960)" style="stroke:#000000; stroke-linecap:round; stroke-linejoin:round; stroke-width:4; stroke-opacity:1; fill:none" points="110.881,1423.18 2352.76,1423.18 "/>
<polyline clip-path="url(#clip960)" style="stroke:#000000; stroke-linecap:round; stroke-linejoin:round; stroke-width:4; stroke-opacity:1; fill:none" points="131.167,1423.18 131.167,1404.28 "/>
<polyline clip-path="url(#clip960)" style="stroke:#000000; stroke-linecap:round; stroke-linejoin:round; stroke-width:4; stroke-opacity:1; fill:none" points="562.795,1423.18 562.795,1404.28 "/>
<polyline clip-path="url(#clip960)" style="stroke:#000000; stroke-linecap:round; stroke-linejoin:round; stroke-width:4; stroke-opacity:1; fill:none" points="994.423,1423.18 994.423,1404.28 "/>
<polyline clip-path="url(#clip960)" style="stroke:#000000; stroke-linecap:round; stroke-linejoin:round; stroke-width:4; stroke-opacity:1; fill:none" points="1426.05,1423.18 1426.05,1404.28 "/>
<polyline clip-path="url(#clip960)" style="stroke:#000000; stroke-linecap:round; stroke-linejoin:round; stroke-width:4; stroke-opacity:1; fill:none" points="1857.68,1423.18 1857.68,1404.28 "/>
<polyline clip-path="url(#clip960)" style="stroke:#000000; stroke-linecap:round; stroke-linejoin:round; stroke-width:4; stroke-opacity:1; fill:none" points="2289.31,1423.18 2289.31,1404.28 "/>
<path clip-path="url(#clip960)" d="M131.167 1454.1 Q127.556 1454.1 125.728 1457.66 Q123.922 1461.2 123.922 1468.33 Q123.922 1475.44 125.728 1479.01 Q127.556 1482.55 131.167 1482.55 Q134.802 1482.55 136.607 1479.01 Q138.436 1475.44 138.436 1468.33 Q138.436 1461.2 136.607 1457.66 Q134.802 1454.1 131.167 1454.1 M131.167 1450.39 Q136.978 1450.39 140.033 1455 Q143.112 1459.58 143.112 1468.33 Q143.112 1477.06 140.033 1481.67 Q136.978 1486.25 131.167 1486.25 Q125.357 1486.25 122.279 1481.67 Q119.223 1477.06 119.223 1468.33 Q119.223 1459.58 122.279 1455 Q125.357 1450.39 131.167 1450.39 Z" fill="#000000" fill-rule="nonzero" fill-opacity="1" /><path clip-path="url(#clip960)" d="M537.483 1481.64 L545.122 1481.64 L545.122 1455.28 L536.812 1456.95 L536.812 1452.69 L545.075 1451.02 L549.751 1451.02 L549.751 1481.64 L557.39 1481.64 L557.39 1485.58 L537.483 1485.58 L537.483 1481.64 Z" fill="#000000" fill-rule="nonzero" fill-opacity="1" /><path clip-path="url(#clip960)" d="M576.835 1454.1 Q573.223 1454.1 571.395 1457.66 Q569.589 1461.2 569.589 1468.33 Q569.589 1475.44 571.395 1479.01 Q573.223 1482.55 576.835 1482.55 Q580.469 1482.55 582.274 1479.01 Q584.103 1475.44 584.103 1468.33 Q584.103 1461.2 582.274 1457.66 Q580.469 1454.1 576.835 1454.1 M576.835 1450.39 Q582.645 1450.39 585.7 1455 Q588.779 1459.58 588.779 1468.33 Q588.779 1477.06 585.7 1481.67 Q582.645 1486.25 576.835 1486.25 Q571.024 1486.25 567.946 1481.67 Q564.89 1477.06 564.89 1468.33 Q564.89 1459.58 567.946 1455 Q571.024 1450.39 576.835 1450.39 Z" fill="#000000" fill-rule="nonzero" fill-opacity="1" /><path clip-path="url(#clip960)" d="M973.196 1481.64 L989.516 1481.64 L989.516 1485.58 L967.571 1485.58 L967.571 1481.64 Q970.233 1478.89 974.817 1474.26 Q979.423 1469.61 980.604 1468.27 Q982.849 1465.74 983.729 1464.01 Q984.631 1462.25 984.631 1460.56 Q984.631 1457.8 982.687 1456.07 Q980.766 1454.33 977.664 1454.33 Q975.465 1454.33 973.011 1455.09 Q970.581 1455.86 967.803 1457.41 L967.803 1452.69 Q970.627 1451.55 973.081 1450.97 Q975.534 1450.39 977.571 1450.39 Q982.942 1450.39 986.136 1453.08 Q989.331 1455.77 989.331 1460.26 Q989.331 1462.39 988.52 1464.31 Q987.733 1466.2 985.627 1468.8 Q985.048 1469.47 981.946 1472.69 Q978.844 1475.88 973.196 1481.64 Z" fill="#000000" fill-rule="nonzero" fill-opacity="1" /><path clip-path="url(#clip960)" d="M1009.33 1454.1 Q1005.72 1454.1 1003.89 1457.66 Q1002.09 1461.2 1002.09 1468.33 Q1002.09 1475.44 1003.89 1479.01 Q1005.72 1482.55 1009.33 1482.55 Q1012.96 1482.55 1014.77 1479.01 Q1016.6 1475.44 1016.6 1468.33 Q1016.6 1461.2 1014.77 1457.66 Q1012.96 1454.1 1009.33 1454.1 M1009.33 1450.39 Q1015.14 1450.39 1018.2 1455 Q1021.27 1459.58 1021.27 1468.33 Q1021.27 1477.06 1018.2 1481.67 Q1015.14 1486.25 1009.33 1486.25 Q1003.52 1486.25 1000.44 1481.67 Q997.386 1477.06 997.386 1468.33 Q997.386 1459.58 1000.44 1455 Q1003.52 1450.39 1009.33 1450.39 Z" fill="#000000" fill-rule="nonzero" fill-opacity="1" /><path clip-path="url(#clip960)" d="M1414.89 1466.95 Q1418.25 1467.66 1420.13 1469.93 Q1422.02 1472.2 1422.02 1475.53 Q1422.02 1480.65 1418.5 1483.45 Q1414.99 1486.25 1408.5 1486.25 Q1406.33 1486.25 1404.01 1485.81 Q1401.72 1485.39 1399.27 1484.54 L1399.27 1480.02 Q1401.21 1481.16 1403.53 1481.74 Q1405.84 1482.32 1408.37 1482.32 Q1412.76 1482.32 1415.06 1480.58 Q1417.37 1478.84 1417.37 1475.53 Q1417.37 1472.48 1415.22 1470.77 Q1413.09 1469.03 1409.27 1469.03 L1405.24 1469.03 L1405.24 1465.19 L1409.45 1465.19 Q1412.9 1465.19 1414.73 1463.82 Q1416.56 1462.43 1416.56 1459.84 Q1416.56 1457.18 1414.66 1455.77 Q1412.79 1454.33 1409.27 1454.33 Q1407.35 1454.33 1405.15 1454.75 Q1402.95 1455.16 1400.31 1456.04 L1400.31 1451.88 Q1402.97 1451.14 1405.29 1450.77 Q1407.63 1450.39 1409.69 1450.39 Q1415.01 1450.39 1418.11 1452.83 Q1421.21 1455.23 1421.21 1459.35 Q1421.21 1462.22 1419.57 1464.21 Q1417.93 1466.18 1414.89 1466.95 Z" fill="#000000" fill-rule="nonzero" fill-opacity="1" /><path clip-path="url(#clip960)" d="M1440.89 1454.1 Q1437.28 1454.1 1435.45 1457.66 Q1433.64 1461.2 1433.64 1468.33 Q1433.64 1475.44 1435.45 1479.01 Q1437.28 1482.55 1440.89 1482.55 Q1444.52 1482.55 1446.33 1479.01 Q1448.16 1475.44 1448.16 1468.33 Q1448.16 1461.2 1446.33 1457.66 Q1444.52 1454.1 1440.89 1454.1 M1440.89 1450.39 Q1446.7 1450.39 1449.75 1455 Q1452.83 1459.58 1452.83 1468.33 Q1452.83 1477.06 1449.75 1481.67 Q1446.7 1486.25 1440.89 1486.25 Q1435.08 1486.25 1432 1481.67 Q1428.94 1477.06 1428.94 1468.33 Q1428.94 1459.58 1432 1455 Q1435.08 1450.39 1440.89 1450.39 Z" fill="#000000" fill-rule="nonzero" fill-opacity="1" /><path clip-path="url(#clip960)" d="M1845.85 1455.09 L1834.04 1473.54 L1845.85 1473.54 L1845.85 1455.09 M1844.62 1451.02 L1850.5 1451.02 L1850.5 1473.54 L1855.43 1473.54 L1855.43 1477.43 L1850.5 1477.43 L1850.5 1485.58 L1845.85 1485.58 L1845.85 1477.43 L1830.25 1477.43 L1830.25 1472.92 L1844.62 1451.02 Z" fill="#000000" fill-rule="nonzero" fill-opacity="1" /><path clip-path="url(#clip960)" d="M1873.16 1454.1 Q1869.55 1454.1 1867.73 1457.66 Q1865.92 1461.2 1865.92 1468.33 Q1865.92 1475.44 1867.73 1479.01 Q1869.55 1482.55 1873.16 1482.55 Q1876.8 1482.55 1878.6 1479.01 Q1880.43 1475.44 1880.43 1468.33 Q1880.43 1461.2 1878.6 1457.66 Q1876.8 1454.1 1873.16 1454.1 M1873.16 1450.39 Q1878.97 1450.39 1882.03 1455 Q1885.11 1459.58 1885.11 1468.33 Q1885.11 1477.06 1882.03 1481.67 Q1878.97 1486.25 1873.16 1486.25 Q1867.35 1486.25 1864.28 1481.67 Q1861.22 1477.06 1861.22 1468.33 Q1861.22 1459.58 1864.28 1455 Q1867.35 1450.39 1873.16 1450.39 Z" fill="#000000" fill-rule="nonzero" fill-opacity="1" /><path clip-path="url(#clip960)" d="M2264.01 1451.02 L2282.36 1451.02 L2282.36 1454.96 L2268.29 1454.96 L2268.29 1463.43 Q2269.31 1463.08 2270.33 1462.92 Q2271.34 1462.73 2272.36 1462.73 Q2278.15 1462.73 2281.53 1465.9 Q2284.91 1469.08 2284.91 1474.49 Q2284.91 1480.07 2281.44 1483.17 Q2277.96 1486.25 2271.64 1486.25 Q2269.47 1486.25 2267.2 1485.88 Q2264.95 1485.51 2262.55 1484.77 L2262.55 1480.07 Q2264.63 1481.2 2266.85 1481.76 Q2269.08 1482.32 2271.55 1482.32 Q2275.56 1482.32 2277.89 1480.21 Q2280.23 1478.1 2280.23 1474.49 Q2280.23 1470.88 2277.89 1468.77 Q2275.56 1466.67 2271.55 1466.67 Q2269.68 1466.67 2267.8 1467.08 Q2265.95 1467.5 2264.01 1468.38 L2264.01 1451.02 Z" fill="#000000" fill-rule="nonzero" fill-opacity="1" /><path clip-path="url(#clip960)" d="M2304.12 1454.1 Q2300.51 1454.1 2298.68 1457.66 Q2296.88 1461.2 2296.88 1468.33 Q2296.88 1475.44 2298.68 1479.01 Q2300.51 1482.55 2304.12 1482.55 Q2307.76 1482.55 2309.56 1479.01 Q2311.39 1475.44 2311.39 1468.33 Q2311.39 1461.2 2309.56 1457.66 Q2307.76 1454.1 2304.12 1454.1 M2304.12 1450.39 Q2309.93 1450.39 2312.99 1455 Q2316.07 1459.58 2316.07 1468.33 Q2316.07 1477.06 2312.99 1481.67 Q2309.93 1486.25 2304.12 1486.25 Q2298.31 1486.25 2295.23 1481.67 Q2292.18 1477.06 2292.18 1468.33 Q2292.18 1459.58 2295.23 1455 Q2298.31 1450.39 2304.12 1450.39 Z" fill="#000000" fill-rule="nonzero" fill-opacity="1" /><path clip-path="url(#clip960)" d="M1037.54 1522.27 L1037.54 1532.4 L1049.6 1532.4 L1049.6 1536.95 L1037.54 1536.95 L1037.54 1556.3 Q1037.54 1560.66 1038.71 1561.9 Q1039.92 1563.14 1043.58 1563.14 L1049.6 1563.14 L1049.6 1568.04 L1043.58 1568.04 Q1036.8 1568.04 1034.23 1565.53 Q1031.65 1562.98 1031.65 1556.3 L1031.65 1536.95 L1027.35 1536.95 L1027.35 1532.4 L1031.65 1532.4 L1031.65 1522.27 L1037.54 1522.27 Z" fill="#000000" fill-rule="nonzero" fill-opacity="1" /><path clip-path="url(#clip960)" d="M1077.96 1537.87 Q1076.97 1537.3 1075.79 1537.04 Q1074.65 1536.76 1073.25 1536.76 Q1068.28 1536.76 1065.61 1540 Q1062.97 1543.22 1062.97 1549.27 L1062.97 1568.04 L1057.08 1568.04 L1057.08 1532.4 L1062.97 1532.4 L1062.97 1537.93 Q1064.81 1534.69 1067.77 1533.13 Q1070.73 1531.54 1074.97 1531.54 Q1075.57 1531.54 1076.3 1531.63 Q1077.04 1531.7 1077.93 1531.85 L1077.96 1537.87 Z" fill="#000000" fill-rule="nonzero" fill-opacity="1" /><path clip-path="url(#clip960)" d="M1100.3 1550.12 Q1093.21 1550.12 1090.47 1551.75 Q1087.73 1553.37 1087.73 1557.29 Q1087.73 1560.4 1089.77 1562.25 Q1091.84 1564.07 1095.37 1564.07 Q1100.24 1564.07 1103.17 1560.63 Q1106.13 1557.16 1106.13 1551.43 L1106.13 1550.12 L1100.3 1550.12 M1111.98 1547.71 L1111.98 1568.04 L1106.13 1568.04 L1106.13 1562.63 Q1104.12 1565.88 1101.13 1567.44 Q1098.14 1568.97 1093.81 1568.97 Q1088.34 1568.97 1085.09 1565.91 Q1081.87 1562.82 1081.87 1557.67 Q1081.87 1551.65 1085.88 1548.6 Q1089.93 1545.54 1097.92 1545.54 L1106.13 1545.54 L1106.13 1544.97 Q1106.13 1540.93 1103.45 1538.73 Q1100.81 1536.5 1096.01 1536.5 Q1092.95 1536.5 1090.05 1537.23 Q1087.16 1537.97 1084.48 1539.43 L1084.48 1534.02 Q1087.7 1532.78 1090.72 1532.17 Q1093.75 1531.54 1096.61 1531.54 Q1104.35 1531.54 1108.16 1535.55 Q1111.98 1539.56 1111.98 1547.71 Z" fill="#000000" fill-rule="nonzero" fill-opacity="1" /><path clip-path="url(#clip960)" d="M1124.05 1532.4 L1129.9 1532.4 L1129.9 1568.04 L1124.05 1568.04 L1124.05 1532.4 M1124.05 1518.52 L1129.9 1518.52 L1129.9 1525.93 L1124.05 1525.93 L1124.05 1518.52 Z" fill="#000000" fill-rule="nonzero" fill-opacity="1" /><path clip-path="url(#clip960)" d="M1171.79 1546.53 L1171.79 1568.04 L1165.93 1568.04 L1165.93 1546.72 Q1165.93 1541.66 1163.96 1539.14 Q1161.99 1536.63 1158.04 1536.63 Q1153.3 1536.63 1150.56 1539.65 Q1147.82 1542.68 1147.82 1547.9 L1147.82 1568.04 L1141.93 1568.04 L1141.93 1532.4 L1147.82 1532.4 L1147.82 1537.93 Q1149.92 1534.72 1152.76 1533.13 Q1155.62 1531.54 1159.34 1531.54 Q1165.49 1531.54 1168.64 1535.36 Q1171.79 1539.14 1171.79 1546.53 Z" fill="#000000" fill-rule="nonzero" fill-opacity="1" /><path clip-path="url(#clip960)" d="M1183.47 1532.4 L1189.33 1532.4 L1189.33 1568.04 L1183.47 1568.04 L1183.47 1532.4 M1183.47 1518.52 L1189.33 1518.52 L1189.33 1525.93 L1183.47 1525.93 L1183.47 1518.52 Z" fill="#000000" fill-rule="nonzero" fill-opacity="1" /><path clip-path="url(#clip960)" d="M1231.21 1546.53 L1231.21 1568.04 L1225.36 1568.04 L1225.36 1546.72 Q1225.36 1541.66 1223.38 1539.14 Q1221.41 1536.63 1217.46 1536.63 Q1212.72 1536.63 1209.98 1539.65 Q1207.25 1542.68 1207.25 1547.9 L1207.25 1568.04 L1201.36 1568.04 L1201.36 1532.4 L1207.25 1532.4 L1207.25 1537.93 Q1209.35 1534.72 1212.18 1533.13 Q1215.04 1531.54 1218.77 1531.54 Q1224.91 1531.54 1228.06 1535.36 Q1231.21 1539.14 1231.21 1546.53 Z" fill="#000000" fill-rule="nonzero" fill-opacity="1" /><path clip-path="url(#clip960)" d="M1266.35 1549.81 Q1266.35 1543.44 1263.71 1539.94 Q1261.1 1536.44 1256.36 1536.44 Q1251.65 1536.44 1249.01 1539.94 Q1246.4 1543.44 1246.4 1549.81 Q1246.4 1556.14 1249.01 1559.64 Q1251.65 1563.14 1256.36 1563.14 Q1261.1 1563.14 1263.71 1559.64 Q1266.35 1556.14 1266.35 1549.81 M1272.21 1563.62 Q1272.21 1572.72 1268.17 1577.15 Q1264.12 1581.6 1255.79 1581.6 Q1252.7 1581.6 1249.96 1581.13 Q1247.22 1580.68 1244.65 1579.72 L1244.65 1574.03 Q1247.22 1575.43 1249.74 1576.1 Q1252.25 1576.76 1254.86 1576.76 Q1260.62 1576.76 1263.49 1573.74 Q1266.35 1570.75 1266.35 1564.67 L1266.35 1561.77 Q1264.54 1564.92 1261.71 1566.48 Q1258.87 1568.04 1254.93 1568.04 Q1248.37 1568.04 1244.36 1563.05 Q1240.35 1558.05 1240.35 1549.81 Q1240.35 1541.53 1244.36 1536.53 Q1248.37 1531.54 1254.93 1531.54 Q1258.87 1531.54 1261.71 1533.1 Q1264.54 1534.66 1266.35 1537.81 L1266.35 1532.4 L1272.21 1532.4 L1272.21 1563.62 Z" fill="#000000" fill-rule="nonzero" fill-opacity="1" /><path clip-path="url(#clip960)" d="M1327.72 1533.45 L1327.72 1538.98 Q1325.24 1537.71 1322.56 1537.07 Q1319.89 1536.44 1317.02 1536.44 Q1312.66 1536.44 1310.47 1537.77 Q1308.3 1539.11 1308.3 1541.79 Q1308.3 1543.82 1309.86 1545 Q1311.42 1546.15 1316.13 1547.2 L1318.14 1547.64 Q1324.38 1548.98 1326.99 1551.43 Q1329.63 1553.85 1329.63 1558.21 Q1329.63 1563.17 1325.68 1566.07 Q1321.77 1568.97 1314.89 1568.97 Q1312.03 1568.97 1308.91 1568.39 Q1305.82 1567.85 1302.38 1566.74 L1302.38 1560.69 Q1305.63 1562.38 1308.78 1563.24 Q1311.93 1564.07 1315.02 1564.07 Q1319.16 1564.07 1321.38 1562.66 Q1323.61 1561.23 1323.61 1558.65 Q1323.61 1556.27 1321.99 1554.99 Q1320.4 1553.72 1314.95 1552.54 L1312.92 1552.07 Q1307.47 1550.92 1305.06 1548.56 Q1302.64 1546.18 1302.64 1542.04 Q1302.64 1537.01 1306.2 1534.27 Q1309.77 1531.54 1316.32 1531.54 Q1319.57 1531.54 1322.43 1532.01 Q1325.3 1532.49 1327.72 1533.45 Z" fill="#000000" fill-rule="nonzero" fill-opacity="1" /><path clip-path="url(#clip960)" d="M1344.75 1522.27 L1344.75 1532.4 L1356.81 1532.4 L1356.81 1536.95 L1344.75 1536.95 L1344.75 1556.3 Q1344.75 1560.66 1345.92 1561.9 Q1347.13 1563.14 1350.79 1563.14 L1356.81 1563.14 L1356.81 1568.04 L1350.79 1568.04 Q1344.01 1568.04 1341.44 1565.53 Q1338.86 1562.98 1338.86 1556.3 L1338.86 1536.95 L1334.56 1536.95 L1334.56 1532.4 L1338.86 1532.4 L1338.86 1522.27 L1344.75 1522.27 Z" fill="#000000" fill-rule="nonzero" fill-opacity="1" /><path clip-path="url(#clip960)" d="M1395 1548.76 L1395 1551.62 L1368.08 1551.62 Q1368.46 1557.67 1371.7 1560.85 Q1374.98 1564 1380.81 1564 Q1384.18 1564 1387.33 1563.17 Q1390.52 1562.35 1393.63 1560.69 L1393.63 1566.23 Q1390.48 1567.57 1387.17 1568.27 Q1383.86 1568.97 1380.46 1568.97 Q1371.93 1568.97 1366.93 1564 Q1361.97 1559.04 1361.97 1550.57 Q1361.97 1541.82 1366.68 1536.69 Q1371.42 1531.54 1379.44 1531.54 Q1386.63 1531.54 1390.8 1536.18 Q1395 1540.8 1395 1548.76 M1389.15 1547.04 Q1389.08 1542.23 1386.44 1539.37 Q1383.83 1536.5 1379.5 1536.5 Q1374.6 1536.5 1371.64 1539.27 Q1368.71 1542.04 1368.27 1547.07 L1389.15 1547.04 Z" fill="#000000" fill-rule="nonzero" fill-opacity="1" /><path clip-path="url(#clip960)" d="M1410.28 1562.7 L1410.28 1581.6 L1404.39 1581.6 L1404.39 1532.4 L1410.28 1532.4 L1410.28 1537.81 Q1412.13 1534.62 1414.93 1533.1 Q1417.76 1531.54 1421.68 1531.54 Q1428.17 1531.54 1432.21 1536.69 Q1436.28 1541.85 1436.28 1550.25 Q1436.28 1558.65 1432.21 1563.81 Q1428.17 1568.97 1421.68 1568.97 Q1417.76 1568.97 1414.93 1567.44 Q1412.13 1565.88 1410.28 1562.7 M1430.21 1550.25 Q1430.21 1543.79 1427.53 1540.13 Q1424.89 1536.44 1420.24 1536.44 Q1415.6 1536.44 1412.92 1540.13 Q1410.28 1543.79 1410.28 1550.25 Q1410.28 1556.71 1412.92 1560.4 Q1415.6 1564.07 1420.24 1564.07 Q1424.89 1564.07 1427.53 1560.4 Q1430.21 1556.71 1430.21 1550.25 Z" fill="#000000" fill-rule="nonzero" fill-opacity="1" /><polyline clip-path="url(#clip962)" style="stroke:#000000; stroke-linecap:round; stroke-linejoin:round; stroke-width:2; stroke-opacity:0.1; fill:none" points="110.881,1397.91 2352.76,1397.91 "/>
<polyline clip-path="url(#clip962)" style="stroke:#000000; stroke-linecap:round; stroke-linejoin:round; stroke-width:2; stroke-opacity:0.1; fill:none" points="110.881,954.025 2352.76,954.025 "/>
<polyline clip-path="url(#clip962)" style="stroke:#000000; stroke-linecap:round; stroke-linejoin:round; stroke-width:2; stroke-opacity:0.1; fill:none" points="110.881,510.137 2352.76,510.137 "/>
<polyline clip-path="url(#clip962)" style="stroke:#000000; stroke-linecap:round; stroke-linejoin:round; stroke-width:2; stroke-opacity:0.1; fill:none" points="110.881,66.2499 2352.76,66.2499 "/>
<polyline clip-path="url(#clip960)" style="stroke:#000000; stroke-linecap:round; stroke-linejoin:round; stroke-width:4; stroke-opacity:1; fill:none" points="110.881,1423.18 110.881,47.2441 "/>
<polyline clip-path="url(#clip960)" style="stroke:#000000; stroke-linecap:round; stroke-linejoin:round; stroke-width:4; stroke-opacity:1; fill:none" points="110.881,1397.91 129.779,1397.91 "/>
<polyline clip-path="url(#clip960)" style="stroke:#000000; stroke-linecap:round; stroke-linejoin:round; stroke-width:4; stroke-opacity:1; fill:none" points="110.881,954.025 129.779,954.025 "/>
<polyline clip-path="url(#clip960)" style="stroke:#000000; stroke-linecap:round; stroke-linejoin:round; stroke-width:4; stroke-opacity:1; fill:none" points="110.881,510.137 129.779,510.137 "/>
<polyline clip-path="url(#clip960)" style="stroke:#000000; stroke-linecap:round; stroke-linejoin:round; stroke-width:4; stroke-opacity:1; fill:none" points="110.881,66.2499 129.779,66.2499 "/>
<path clip-path="url(#clip960)" d="M62.9365 1383.71 Q59.3254 1383.71 57.4967 1387.28 Q55.6912 1390.82 55.6912 1397.95 Q55.6912 1405.05 57.4967 1408.62 Q59.3254 1412.16 62.9365 1412.16 Q66.5707 1412.16 68.3763 1408.62 Q70.205 1405.05 70.205 1397.95 Q70.205 1390.82 68.3763 1387.28 Q66.5707 1383.71 62.9365 1383.71 M62.9365 1380.01 Q68.7467 1380.01 71.8022 1384.61 Q74.8809 1389.2 74.8809 1397.95 Q74.8809 1406.67 71.8022 1411.28 Q68.7467 1415.86 62.9365 1415.86 Q57.1264 1415.86 54.0477 1411.28 Q50.9921 1406.67 50.9921 1397.95 Q50.9921 1389.2 54.0477 1384.61 Q57.1264 1380.01 62.9365 1380.01 Z" fill="#000000" fill-rule="nonzero" fill-opacity="1" /><path clip-path="url(#clip960)" d="M54.9736 967.37 L62.6124 967.37 L62.6124 941.004 L54.3023 942.671 L54.3023 938.412 L62.5661 936.745 L67.242 936.745 L67.242 967.37 L74.8809 967.37 L74.8809 971.305 L54.9736 971.305 L54.9736 967.37 Z" fill="#000000" fill-rule="nonzero" fill-opacity="1" /><path clip-path="url(#clip960)" d="M58.5615 523.482 L74.8809 523.482 L74.8809 527.417 L52.9366 527.417 L52.9366 523.482 Q55.5986 520.728 60.1819 516.098 Q64.7883 511.445 65.9689 510.103 Q68.2143 507.58 69.0939 505.843 Q69.9967 504.084 69.9967 502.394 Q69.9967 499.64 68.0522 497.904 Q66.1309 496.168 63.0291 496.168 Q60.83 496.168 58.3763 496.931 Q55.9458 497.695 53.168 499.246 L53.168 494.524 Q55.9921 493.39 58.4458 492.811 Q60.8995 492.232 62.9365 492.232 Q68.3068 492.232 71.5013 494.918 Q74.6957 497.603 74.6957 502.093 Q74.6957 504.223 73.8855 506.144 Q73.0985 508.043 70.992 510.635 Q70.4133 511.306 67.3115 514.524 Q64.2096 517.718 58.5615 523.482 Z" fill="#000000" fill-rule="nonzero" fill-opacity="1" /><path clip-path="url(#clip960)" d="M67.7513 64.8958 Q71.1078 65.6134 72.9827 67.8819 Q74.8809 70.1504 74.8809 73.4837 Q74.8809 78.5994 71.3624 81.4003 Q67.8439 84.2012 61.3624 84.2012 Q59.1865 84.2012 56.8717 83.7614 Q54.5801 83.3448 52.1264 82.4883 L52.1264 77.9744 Q54.0708 79.1087 56.3856 79.6874 Q58.7004 80.2661 61.2236 80.2661 Q65.6217 80.2661 67.9133 78.53 Q70.2281 76.7939 70.2281 73.4837 Q70.2281 70.4282 68.0754 68.7152 Q65.9457 66.9791 62.1263 66.9791 L58.0986 66.9791 L58.0986 63.1365 L62.3115 63.1365 Q65.7606 63.1365 67.5893 61.7708 Q69.418 60.3819 69.418 57.7893 Q69.418 55.1273 67.5198 53.7153 Q65.6448 52.2801 62.1263 52.2801 Q60.205 52.2801 58.006 52.6968 Q55.8069 53.1134 53.168 53.9931 L53.168 49.8264 Q55.8301 49.0857 58.1449 48.7153 Q60.4828 48.3449 62.543 48.3449 Q67.867 48.3449 70.9689 50.7755 Q74.0707 53.1829 74.0707 57.3032 Q74.0707 60.1736 72.4272 62.1643 Q70.7837 64.1319 67.7513 64.8958 Z" fill="#000000" fill-rule="nonzero" fill-opacity="1" /><polyline clip-path="url(#clip962)" style="stroke:#009af9; stroke-linecap:round; stroke-linejoin:round; stroke-width:4; stroke-opacity:1; fill:none" points="174.33,86.1857 217.493,768.644 260.656,1092.49 303.819,1195.18 346.981,1222.32 390.144,1235.09 433.307,1237.94 476.47,1233.7 519.632,1235.16 562.795,1278.2 605.958,1294.46 649.121,1294.86 692.284,1293.54 735.446,1315.5 778.609,1329.25 821.772,1340.51 864.935,1343.51 908.098,1344.46 951.26,1342.21 994.423,1350.88 1037.59,1345.95 1080.75,1353.55 1123.91,1361.22 1167.07,1364.34 1210.24,1363.79 1253.4,1362.99 1296.56,1367.61 1339.73,1364.94 1382.89,1366.26 1426.05,1367.07 1469.21,1371.23 1512.38,1371.21 1555.54,1370.98 1598.7,1371.87 1641.86,1369.24 1685.03,1375.88 1728.19,1377.52 1771.35,1376.94 1814.52,1376.42 1857.68,1378.22 1900.84,1379.34 1944,1379.63 1987.17,1381.2 2030.33,1380.07 2073.49,1381.48 2116.66,1380.41 2159.82,1381.82 2202.98,1384.24 2246.14,1381.66 2289.31,1383.93 "/>
<path clip-path="url(#clip960)" d="M2001.41 196.789 L2278.03 196.789 L2278.03 93.1086 L2001.41 93.1086  Z" fill="#ffffff" fill-rule="evenodd" fill-opacity="1"/>
<polyline clip-path="url(#clip960)" style="stroke:#000000; stroke-linecap:round; stroke-linejoin:round; stroke-width:4; stroke-opacity:1; fill:none" points="2001.41,196.789 2278.03,196.789 2278.03,93.1086 2001.41,93.1086 2001.41,196.789 "/>
<polyline clip-path="url(#clip960)" style="stroke:#009af9; stroke-linecap:round; stroke-linejoin:round; stroke-width:4; stroke-opacity:1; fill:none" points="2026.32,144.949 2175.78,144.949 "/>
<path clip-path="url(#clip960)" d="M2214.53 164.636 Q2212.72 169.266 2211.01 170.678 Q2209.3 172.09 2206.43 172.09 L2203.02 172.09 L2203.02 168.525 L2205.52 168.525 Q2207.28 168.525 2208.26 167.692 Q2209.23 166.858 2210.41 163.756 L2211.17 161.812 L2200.69 136.303 L2205.2 136.303 L2213.3 156.581 L2221.4 136.303 L2225.92 136.303 L2214.53 164.636 Z" fill="#000000" fill-rule="nonzero" fill-opacity="1" /><path clip-path="url(#clip960)" d="M2233.21 158.293 L2240.85 158.293 L2240.85 131.928 L2232.54 133.595 L2232.54 129.335 L2240.8 127.669 L2245.48 127.669 L2245.48 158.293 L2253.12 158.293 L2253.12 162.229 L2233.21 162.229 L2233.21 158.293 Z" fill="#000000" fill-rule="nonzero" fill-opacity="1" /></svg>
