<?xml version="1.0" encoding="utf-8"?>
<svg xmlns="http://www.w3.org/2000/svg" xmlns:xlink="http://www.w3.org/1999/xlink" width="600" height="400" viewBox="0 0 2400 1600">
<defs>
  <clipPath id="clip960">
    <rect x="0" y="0" width="2400" height="1600"/>
  </clipPath>
</defs>
<path clip-path="url(#clip960)" d="M0 1600 L2400 1600 L2400 0 L0 0  Z" fill="#ffffff" fill-rule="evenodd" fill-opacity="1"/>
<defs>
  <clipPath id="clip961">
    <rect x="480" y="0" width="1681" height="1600"/>
  </clipPath>
</defs>
<path clip-path="url(#clip960)" d="M112.177 1423.18 L2352.76 1423.18 L2352.76 47.2441 L112.177 47.2441  Z" fill="#ffffff" fill-rule="evenodd" fill-opacity="1"/>
<defs>
  <clipPath id="clip962">
    <rect x="112" y="47" width="2242" height="1377"/>
  </clipPath>
</defs>
<polyline clip-path="url(#clip962)" style="stroke:#000000; stroke-linecap:round; stroke-linejoin:round; stroke-width:2; stroke-opacity:0.1; fill:none" points="132.452,1423.18 132.452,47.2441 "/>
<polyline clip-path="url(#clip962)" style="stroke:#000000; stroke-linecap:round; stroke-linejoin:round; stroke-width:2; stroke-opacity:0.1; fill:none" points="563.83,1423.18 563.83,47.2441 "/>
<polyline clip-path="url(#clip962)" style="stroke:#000000; stroke-linecap:round; stroke-linejoin:round; stroke-width:2; stroke-opacity:0.1; fill:none" points="995.208,1423.18 995.208,47.2441 "/>
<polyline clip-path="url(#clip962)" style="stroke:#000000; stroke-linecap:round; stroke-linejoin:round; stroke-width:2; stroke-opacity:0.1; fill:none" points="1426.59,1423.18 1426.59,47.2441 "/>
<polyline clip-path="url(#clip962)" style="stroke:#000000; stroke-linecap:round; stroke-linejoin:round; stroke-width:2; stroke-opacity:0.1; fill:none" points="1857.97,1423.18 1857.97,47.2441 "/>
<polyline clip-path="url(#clip962)" style="stroke:#000000; stroke-linecap:round; stroke-linejoin:round; stroke-width:2; stroke-opacity:0.1; fill:none" points="2289.34,1423.18 2289.34,47.2441 "/>
<polyline clip-path="url(#clip960)" style="stroke:#000000; stroke-linecap:round; stroke-linejoin:round; stroke-width:4; stroke-opacity:1; fill:none" points="112.177,1423.18 2352.76,1423.18 "/>
<polyline clip-path="url(#clip960)" style="stroke:#000000; stroke-linecap:round; stroke-linejoin:round; stroke-width:4; stroke-opacity:1; fill:none" points="132.452,1423.18 132.452,1404.28 "/>
<polyline clip-path="url(#clip960)" style="stroke:#000000; stroke-linecap:round; stroke-linejoin:round; stroke-width:4; stroke-opacity:1; fill:none" points="563.83,1423.18 563.83,1404.28 "/>
<polyline clip-path="url(#clip960)" style="stroke:#000000; stroke-linecap:round; stroke-linejoin:round; stroke-width:4; stroke-opacity:1; fill:none" points="995.208,1423.18 995.208,1404.28 "/>
<polyline clip-path="url(#clip960)" style="stroke:#000000; stroke-linecap:round; stroke-linejoin:round; stroke-width:4; stroke-opacity:1; fill:none" points="1426.59,1423.18 1426.59,1404.28 "/>
<polyline clip-path="url(#clip960)" style="stroke:#000000; stroke-linecap:round; stroke-linejoin:round; stroke-width:4; stroke-opacity:1; fill:none" points="1857.97,1423.18 1857.97,1404.28 "/>
<polyline clip-path="url(#clip960)" style="stroke:#000000; stroke-linecap:round; stroke-linejoin:round; stroke-width:4; stroke-opacity:1; fill:none" points="2289.34,1423.18 2289.34,1404.28 "/>
<path clip-path="url(#clip960)" d="M132.452 1454.1 Q128.841 1454.1 127.012 1457.66 Q125.207 1461.2 125.207 1468.33 Q125.207 1475.44 127.012 1479.01 Q128.841 1482.55 132.452 1482.55 Q136.086 1482.55 137.892 1479.01 Q139.72 1475.44 139.72 1468.33 Q139.72 1461.2 137.892 1457.66 Q136.086 1454.1 132.452 1454.1 M132.452 1450.39 Q138.262 1450.39 141.318 1455 Q144.396 1459.58 144.396 1468.33 Q144.396 1477.06 141.318 1481.67 Q138.262 1486.25 132.452 1486.25 Q126.642 1486.25 123.563 1481.67 Q120.508 1477.06 120.508 1468.33 Q120.508 1459.58 123.563 1455 Q126.642 1450.39 132.452 1450.39 Z" fill="#000000" fill-rule="nonzero" fill-opacity="1" /><path clip-path="url(#clip960)" d="M538.518 1481.64 L546.157 1481.64 L546.157 1455.28 L537.847 1456.95 L537.847 1452.69 L546.11 1451.02 L550.786 1451.02 L550.786 1481.64 L558.425 1481.64 L558.425 1485.58 L538.518 1485.58 L538.518 1481.64 Z" fill="#000000" fill-rule="nonzero" fill-opacity="1" /><path clip-path="url(#clip960)" d="M577.87 1454.1 Q574.258 1454.1 572.43 1457.66 Q570.624 1461.2 570.624 1468.33 Q570.624 1475.44 572.43 1479.01 Q574.258 1482.55 577.87 1482.55 Q581.504 1482.55 583.309 1479.01 Q585.138 1475.44 585.138 1468.33 Q585.138 1461.2 583.309 1457.66 Q581.504 1454.1 577.87 1454.1 M577.87 1450.39 Q583.68 1450.39 586.735 1455 Q589.814 1459.58 589.814 1468.33 Q589.814 1477.06 586.735 1481.67 Q583.68 1486.25 577.87 1486.25 Q572.059 1486.25 568.981 1481.67 Q565.925 1477.06 565.925 1468.33 Q565.925 1459.58 568.981 1455 Q572.059 1450.39 577.87 1450.39 Z" fill="#000000" fill-rule="nonzero" fill-opacity="1" /><path clip-path="url(#clip960)" d="M973.982 1481.64 L990.301 1481.64 L990.301 1485.58 L968.357 1485.58 L968.357 1481.64 Q971.019 1478.89 975.602 1474.26 Q980.209 1469.61 981.389 1468.27 Q983.634 1465.74 984.514 1464.01 Q985.417 1462.25 985.417 1460.56 Q985.417 1457.8 983.472 1456.07 Q981.551 1454.33 978.449 1454.33 Q976.25 1454.33 973.797 1455.09 Q971.366 1455.86 968.588 1457.41 L968.588 1452.69 Q971.412 1451.55 973.866 1450.97 Q976.32 1450.39 978.357 1450.39 Q983.727 1450.39 986.922 1453.08 Q990.116 1455.77 990.116 1460.26 Q990.116 1462.39 989.306 1464.31 Q988.519 1466.2 986.412 1468.8 Q985.834 1469.47 982.732 1472.69 Q979.63 1475.88 973.982 1481.64 Z" fill="#000000" fill-rule="nonzero" fill-opacity="1" /><path clip-path="url(#clip960)" d="M1010.12 1454.1 Q1006.5 1454.1 1004.68 1457.66 Q1002.87 1461.2 1002.87 1468.33 Q1002.87 1475.44 1004.68 1479.01 Q1006.5 1482.55 1010.12 1482.55 Q1013.75 1482.55 1015.56 1479.01 Q1017.38 1475.44 1017.38 1468.33 Q1017.38 1461.2 1015.56 1457.66 Q1013.75 1454.1 1010.12 1454.1 M1010.12 1450.39 Q1015.93 1450.39 1018.98 1455 Q1022.06 1459.58 1022.06 1468.33 Q1022.06 1477.06 1018.98 1481.67 Q1015.93 1486.25 1010.12 1486.25 Q1004.31 1486.25 1001.23 1481.67 Q998.171 1477.06 998.171 1468.33 Q998.171 1459.58 1001.23 1455 Q1004.31 1450.39 1010.12 1450.39 Z" fill="#000000" fill-rule="nonzero" fill-opacity="1" /><path clip-path="url(#clip960)" d="M1415.43 1466.95 Q1418.79 1467.66 1420.66 1469.93 Q1422.56 1472.2 1422.56 1475.53 Q1422.56 1480.65 1419.04 1483.45 Q1415.52 1486.25 1409.04 1486.25 Q1406.86 1486.25 1404.55 1485.81 Q1402.26 1485.39 1399.8 1484.54 L1399.8 1480.02 Q1401.75 1481.16 1404.06 1481.74 Q1406.38 1482.32 1408.9 1482.32 Q1413.3 1482.32 1415.59 1480.58 Q1417.91 1478.84 1417.91 1475.53 Q1417.91 1472.48 1415.75 1470.77 Q1413.62 1469.03 1409.8 1469.03 L1405.78 1469.03 L1405.78 1465.19 L1409.99 1465.19 Q1413.44 1465.19 1415.27 1463.82 Q1417.1 1462.43 1417.1 1459.84 Q1417.1 1457.18 1415.2 1455.77 Q1413.32 1454.33 1409.8 1454.33 Q1407.88 1454.33 1405.68 1454.75 Q1403.49 1455.16 1400.85 1456.04 L1400.85 1451.88 Q1403.51 1451.14 1405.82 1450.77 Q1408.16 1450.39 1410.22 1450.39 Q1415.55 1450.39 1418.65 1452.83 Q1421.75 1455.23 1421.75 1459.35 Q1421.75 1462.22 1420.11 1464.21 Q1418.46 1466.18 1415.43 1466.95 Z" fill="#000000" fill-rule="nonzero" fill-opacity="1" /><path clip-path="url(#clip960)" d="M1441.42 1454.1 Q1437.81 1454.1 1435.98 1457.66 Q1434.18 1461.2 1434.18 1468.33 Q1434.18 1475.44 1435.98 1479.01 Q1437.81 1482.55 1441.42 1482.55 Q1445.06 1482.55 1446.86 1479.01 Q1448.69 1475.44 1448.69 1468.33 Q1448.69 1461.2 1446.86 1457.66 Q1445.06 1454.1 1441.42 1454.1 M1441.42 1450.39 Q1447.23 1450.39 1450.29 1455 Q1453.37 1459.58 1453.37 1468.33 Q1453.37 1477.06 1450.29 1481.67 Q1447.23 1486.25 1441.42 1486.25 Q1435.61 1486.25 1432.54 1481.67 Q1429.48 1477.06 1429.48 1468.33 Q1429.48 1459.58 1432.54 1455 Q1435.61 1450.39 1441.42 1450.39 Z" fill="#000000" fill-rule="nonzero" fill-opacity="1" /><path clip-path="url(#clip960)" d="M1846.14 1455.09 L1834.33 1473.54 L1846.14 1473.54 L1846.14 1455.09 M1844.91 1451.02 L1850.79 1451.02 L1850.79 1473.54 L1855.72 1473.54 L1855.72 1477.43 L1850.79 1477.43 L1850.79 1485.58 L1846.14 1485.58 L1846.14 1477.43 L1830.53 1477.43 L1830.53 1472.92 L1844.91 1451.02 Z" fill="#000000" fill-rule="nonzero" fill-opacity="1" /><path clip-path="url(#clip960)" d="M1873.45 1454.1 Q1869.84 1454.1 1868.01 1457.66 Q1866.21 1461.2 1866.21 1468.33 Q1866.21 1475.44 1868.01 1479.01 Q1869.84 1482.55 1873.45 1482.55 Q1877.09 1482.55 1878.89 1479.01 Q1880.72 1475.44 1880.72 1468.33 Q1880.72 1461.2 1878.89 1457.66 Q1877.09 1454.1 1873.45 1454.1 M1873.45 1450.39 Q1879.26 1450.39 1882.32 1455 Q1885.4 1459.58 1885.4 1468.33 Q1885.4 1477.06 1882.32 1481.67 Q1879.26 1486.25 1873.45 1486.25 Q1867.64 1486.25 1864.56 1481.67 Q1861.51 1477.06 1861.51 1468.33 Q1861.51 1459.58 1864.56 1455 Q1867.64 1450.39 1873.45 1450.39 Z" fill="#000000" fill-rule="nonzero" fill-opacity="1" /><path clip-path="url(#clip960)" d="M2264.04 1451.02 L2282.4 1451.02 L2282.4 1454.96 L2268.32 1454.96 L2268.32 1463.43 Q2269.34 1463.08 2270.36 1462.92 Q2271.38 1462.73 2272.4 1462.73 Q2278.19 1462.73 2281.57 1465.9 Q2284.95 1469.08 2284.95 1474.49 Q2284.95 1480.07 2281.47 1483.17 Q2278 1486.25 2271.68 1486.25 Q2269.51 1486.25 2267.24 1485.88 Q2264.99 1485.51 2262.58 1484.77 L2262.58 1480.07 Q2264.67 1481.2 2266.89 1481.76 Q2269.11 1482.32 2271.59 1482.32 Q2275.59 1482.32 2277.93 1480.21 Q2280.27 1478.1 2280.27 1474.49 Q2280.27 1470.88 2277.93 1468.77 Q2275.59 1466.67 2271.59 1466.67 Q2269.71 1466.67 2267.84 1467.08 Q2265.99 1467.5 2264.04 1468.38 L2264.04 1451.02 Z" fill="#000000" fill-rule="nonzero" fill-opacity="1" /><path clip-path="url(#clip960)" d="M2304.16 1454.1 Q2300.55 1454.1 2298.72 1457.66 Q2296.91 1461.2 2296.91 1468.33 Q2296.91 1475.44 2298.72 1479.01 Q2300.55 1482.55 2304.16 1482.55 Q2307.79 1482.55 2309.6 1479.01 Q2311.43 1475.44 2311.43 1468.33 Q2311.43 1461.2 2309.6 1457.66 Q2307.79 1454.1 2304.16 1454.1 M2304.16 1450.39 Q2309.97 1450.39 2313.02 1455 Q2316.1 1459.58 2316.1 1468.33 Q2316.1 1477.06 2313.02 1481.67 Q2309.97 1486.25 2304.16 1486.25 Q2298.35 1486.25 2295.27 1481.67 Q2292.21 1477.06 2292.21 1468.33 Q2292.21 1459.58 2295.27 1455 Q2298.35 1450.39 2304.16 1450.39 Z" fill="#000000" fill-rule="nonzero" fill-opacity="1" /><path clip-path="url(#clip960)" d="M1038.19 1522.27 L1038.19 1532.4 L1050.25 1532.4 L1050.25 1536.95 L1038.19 1536.95 L1038.19 1556.3 Q1038.19 1560.66 1039.36 1561.9 Q1040.57 1563.14 1044.23 1563.14 L1050.25 1563.14 L1050.25 1568.04 L1044.23 1568.04 Q1037.45 1568.04 1034.88 1565.53 Q1032.3 1562.98 1032.3 1556.3 L1032.3 1536.95 L1028 1536.95 L1028 1532.4 L1032.3 1532.4 L1032.3 1522.27 L1038.19 1522.27 Z" fill="#000000" fill-rule="nonzero" fill-opacity="1" /><path clip-path="url(#clip960)" d="M1078.61 1537.87 Q1077.62 1537.3 1076.44 1537.04 Q1075.3 1536.76 1073.9 1536.76 Q1068.93 1536.76 1066.26 1540 Q1063.62 1543.22 1063.62 1549.27 L1063.62 1568.04 L1057.73 1568.04 L1057.73 1532.4 L1063.62 1532.4 L1063.62 1537.93 Q1065.46 1534.69 1068.42 1533.13 Q1071.38 1531.54 1075.62 1531.54 Q1076.22 1531.54 1076.95 1531.63 Q1077.68 1531.7 1078.58 1531.85 L1078.61 1537.87 Z" fill="#000000" fill-rule="nonzero" fill-opacity="1" /><path clip-path="url(#clip960)" d="M1100.95 1550.12 Q1093.85 1550.12 1091.12 1551.75 Q1088.38 1553.37 1088.38 1557.29 Q1088.38 1560.4 1090.42 1562.25 Q1092.48 1564.07 1096.02 1564.07 Q1100.89 1564.07 1103.82 1560.63 Q1106.78 1557.16 1106.78 1551.43 L1106.78 1550.12 L1100.95 1550.12 M1112.63 1547.71 L1112.63 1568.04 L1106.78 1568.04 L1106.78 1562.63 Q1104.77 1565.88 1101.78 1567.44 Q1098.79 1568.97 1094.46 1568.97 Q1088.98 1568.97 1085.74 1565.91 Q1082.52 1562.82 1082.52 1557.67 Q1082.52 1551.65 1086.53 1548.6 Q1090.57 1545.54 1098.56 1545.54 L1106.78 1545.54 L1106.78 1544.97 Q1106.78 1540.93 1104.1 1538.73 Q1101.46 1536.5 1096.65 1536.5 Q1093.6 1536.5 1090.7 1537.23 Q1087.81 1537.97 1085.13 1539.43 L1085.13 1534.02 Q1088.35 1532.78 1091.37 1532.17 Q1094.39 1531.54 1097.26 1531.54 Q1104.99 1531.54 1108.81 1535.55 Q1112.63 1539.56 1112.63 1547.71 Z" fill="#000000" fill-rule="nonzero" fill-opacity="1" /><path clip-path="url(#clip960)" d="M1124.7 1532.4 L1130.55 1532.4 L1130.55 1568.04 L1124.7 1568.04 L1124.7 1532.4 M1124.7 1518.52 L1130.55 1518.52 L1130.55 1525.93 L1124.7 1525.93 L1124.7 1518.52 Z" fill="#000000" fill-rule="nonzero" fill-opacity="1" /><path clip-path="url(#clip960)" d="M1172.44 1546.53 L1172.44 1568.04 L1166.58 1568.04 L1166.58 1546.72 Q1166.58 1541.66 1164.61 1539.14 Q1162.63 1536.63 1158.69 1536.63 Q1153.95 1536.63 1151.21 1539.65 Q1148.47 1542.68 1148.47 1547.9 L1148.47 1568.04 L1142.58 1568.04 L1142.58 1532.4 L1148.47 1532.4 L1148.47 1537.93 Q1150.57 1534.72 1153.4 1533.13 Q1156.27 1531.54 1159.99 1531.54 Q1166.14 1531.54 1169.29 1535.36 Q1172.44 1539.14 1172.44 1546.53 Z" fill="#000000" fill-rule="nonzero" fill-opacity="1" /><path clip-path="url(#clip960)" d="M1184.12 1532.4 L1189.98 1532.4 L1189.98 1568.04 L1184.12 1568.04 L1184.12 1532.4 M1184.12 1518.52 L1189.98 1518.52 L1189.98 1525.93 L1184.12 1525.93 L1184.12 1518.52 Z" fill="#000000" fill-rule="nonzero" fill-opacity="1" /><path clip-path="url(#clip960)" d="M1231.86 1546.53 L1231.86 1568.04 L1226.01 1568.04 L1226.01 1546.72 Q1226.01 1541.66 1224.03 1539.14 Q1222.06 1536.63 1218.11 1536.63 Q1213.37 1536.63 1210.63 1539.65 Q1207.89 1542.68 1207.89 1547.9 L1207.89 1568.04 L1202.01 1568.04 L1202.01 1532.4 L1207.89 1532.4 L1207.89 1537.93 Q1210 1534.72 1212.83 1533.13 Q1215.69 1531.54 1219.42 1531.54 Q1225.56 1531.54 1228.71 1535.36 Q1231.86 1539.14 1231.86 1546.53 Z" fill="#000000" fill-rule="nonzero" fill-opacity="1" /><path clip-path="url(#clip960)" d="M1267 1549.81 Q1267 1543.44 1264.36 1539.94 Q1261.75 1536.44 1257.01 1536.44 Q1252.3 1536.44 1249.65 1539.94 Q1247.04 1543.44 1247.04 1549.81 Q1247.04 1556.14 1249.65 1559.64 Q1252.3 1563.14 1257.01 1563.14 Q1261.75 1563.14 1264.36 1559.64 Q1267 1556.14 1267 1549.81 M1272.86 1563.62 Q1272.86 1572.72 1268.81 1577.15 Q1264.77 1581.6 1256.43 1581.6 Q1253.35 1581.6 1250.61 1581.13 Q1247.87 1580.68 1245.29 1579.72 L1245.29 1574.03 Q1247.87 1575.43 1250.39 1576.1 Q1252.9 1576.76 1255.51 1576.76 Q1261.27 1576.76 1264.14 1573.74 Q1267 1570.75 1267 1564.67 L1267 1561.77 Q1265.19 1564.92 1262.35 1566.48 Q1259.52 1568.04 1255.57 1568.04 Q1249.02 1568.04 1245.01 1563.05 Q1241 1558.05 1241 1549.81 Q1241 1541.53 1245.01 1536.53 Q1249.02 1531.54 1255.57 1531.54 Q1259.52 1531.54 1262.35 1533.1 Q1265.19 1534.66 1267 1537.81 L1267 1532.4 L1272.86 1532.4 L1272.86 1563.62 Z" fill="#000000" fill-rule="nonzero" fill-opacity="1" /><path clip-path="url(#clip960)" d="M1328.37 1533.45 L1328.37 1538.98 Q1325.88 1537.71 1323.21 1537.07 Q1320.54 1536.44 1317.67 1536.44 Q1313.31 1536.44 1311.11 1537.77 Q1308.95 1539.11 1308.95 1541.79 Q1308.95 1543.82 1310.51 1545 Q1312.07 1546.15 1316.78 1547.2 L1318.79 1547.64 Q1325.02 1548.98 1327.63 1551.43 Q1330.28 1553.85 1330.28 1558.21 Q1330.28 1563.17 1326.33 1566.07 Q1322.41 1568.97 1315.54 1568.97 Q1312.67 1568.97 1309.56 1568.39 Q1306.47 1567.85 1303.03 1566.74 L1303.03 1560.69 Q1306.28 1562.38 1309.43 1563.24 Q1312.58 1564.07 1315.67 1564.07 Q1319.8 1564.07 1322.03 1562.66 Q1324.26 1561.23 1324.26 1558.65 Q1324.26 1556.27 1322.64 1554.99 Q1321.05 1553.72 1315.6 1552.54 L1313.57 1552.07 Q1308.12 1550.92 1305.7 1548.56 Q1303.29 1546.18 1303.29 1542.04 Q1303.29 1537.01 1306.85 1534.27 Q1310.41 1531.54 1316.97 1531.54 Q1320.22 1531.54 1323.08 1532.01 Q1325.95 1532.49 1328.37 1533.45 Z" fill="#000000" fill-rule="nonzero" fill-opacity="1" /><path clip-path="url(#clip960)" d="M1345.39 1522.27 L1345.39 1532.4 L1357.46 1532.4 L1357.46 1536.95 L1345.39 1536.95 L1345.39 1556.3 Q1345.39 1560.66 1346.57 1561.9 Q1347.78 1563.14 1351.44 1563.14 L1357.46 1563.14 L1357.46 1568.04 L1351.44 1568.04 Q1344.66 1568.04 1342.08 1565.53 Q1339.51 1562.98 1339.51 1556.3 L1339.51 1536.95 L1335.21 1536.95 L1335.21 1532.4 L1339.51 1532.4 L1339.51 1522.27 L1345.39 1522.27 Z" fill="#000000" fill-rule="nonzero" fill-opacity="1" /><path clip-path="url(#clip960)" d="M1395.65 1548.76 L1395.65 1551.62 L1368.72 1551.62 Q1369.11 1557.67 1372.35 1560.85 Q1375.63 1564 1381.46 1564 Q1384.83 1564 1387.98 1563.17 Q1391.16 1562.35 1394.28 1560.69 L1394.28 1566.23 Q1391.13 1567.57 1387.82 1568.27 Q1384.51 1568.97 1381.11 1568.97 Q1372.58 1568.97 1367.58 1564 Q1362.61 1559.04 1362.61 1550.57 Q1362.61 1541.82 1367.32 1536.69 Q1372.07 1531.54 1380.09 1531.54 Q1387.28 1531.54 1391.45 1536.18 Q1395.65 1540.8 1395.65 1548.76 M1389.79 1547.04 Q1389.73 1542.23 1387.09 1539.37 Q1384.48 1536.5 1380.15 1536.5 Q1375.25 1536.5 1372.29 1539.27 Q1369.36 1542.04 1368.92 1547.07 L1389.79 1547.04 Z" fill="#000000" fill-rule="nonzero" fill-opacity="1" /><path clip-path="url(#clip960)" d="M1410.93 1562.7 L1410.93 1581.6 L1405.04 1581.6 L1405.04 1532.4 L1410.93 1532.4 L1410.93 1537.81 Q1412.78 1534.62 1415.58 1533.1 Q1418.41 1531.54 1422.32 1531.54 Q1428.82 1531.54 1432.86 1536.69 Q1436.93 1541.85 1436.93 1550.25 Q1436.93 1558.65 1432.86 1563.81 Q1428.82 1568.97 1422.32 1568.97 Q1418.41 1568.97 1415.58 1567.44 Q1412.78 1565.88 1410.93 1562.7 M1430.85 1550.25 Q1430.85 1543.79 1428.18 1540.13 Q1425.54 1536.44 1420.89 1536.44 Q1416.24 1536.44 1413.57 1540.13 Q1410.93 1543.79 1410.93 1550.25 Q1410.93 1556.71 1413.57 1560.4 Q1416.24 1564.07 1420.89 1564.07 Q1425.54 1564.07 1428.18 1560.4 Q1430.85 1556.71 1430.85 1550.25 Z" fill="#000000" fill-rule="nonzero" fill-opacity="1" /><polyline clip-path="url(#clip962)" style="stroke:#000000; stroke-linecap:round; stroke-linejoin:round; stroke-width:2; stroke-opacity:0.1; fill:none" points="112.177,1393.25 2352.76,1393.25 "/>
<polyline clip-path="url(#clip962)" style="stroke:#000000; stroke-linecap:round; stroke-linejoin:round; stroke-width:2; stroke-opacity:0.1; fill:none" points="112.177,1106.62 2352.76,1106.62 "/>
<polyline clip-path="url(#clip962)" style="stroke:#000000; stroke-linecap:round; stroke-linejoin:round; stroke-width:2; stroke-opacity:0.1; fill:none" points="112.177,819.992 2352.76,819.992 "/>
<polyline clip-path="url(#clip962)" style="stroke:#000000; stroke-linecap:round; stroke-linejoin:round; stroke-width:2; stroke-opacity:0.1; fill:none" points="112.177,533.365 2352.76,533.365 "/>
<polyline clip-path="url(#clip962)" style="stroke:#000000; stroke-linecap:round; stroke-linejoin:round; stroke-width:2; stroke-opacity:0.1; fill:none" points="112.177,246.739 2352.76,246.739 "/>
<polyline clip-path="url(#clip960)" style="stroke:#000000; stroke-linecap:round; stroke-linejoin:round; stroke-width:4; stroke-opacity:1; fill:none" points="112.177,1423.18 112.177,47.2441 "/>
<polyline clip-path="url(#clip960)" style="stroke:#000000; stroke-linecap:round; stroke-linejoin:round; stroke-width:4; stroke-opacity:1; fill:none" points="112.177,1393.25 131.075,1393.25 "/>
<polyline clip-path="url(#clip960)" style="stroke:#000000; stroke-linecap:round; stroke-linejoin:round; stroke-width:4; stroke-opacity:1; fill:none" points="112.177,1106.62 131.075,1106.62 "/>
<polyline clip-path="url(#clip960)" style="stroke:#000000; stroke-linecap:round; stroke-linejoin:round; stroke-width:4; stroke-opacity:1; fill:none" points="112.177,819.992 131.075,819.992 "/>
<polyline clip-path="url(#clip960)" style="stroke:#000000; stroke-linecap:round; stroke-linejoin:round; stroke-width:4; stroke-opacity:1; fill:none" points="112.177,533.365 131.075,533.365 "/>
<polyline clip-path="url(#clip960)" style="stroke:#000000; stroke-linecap:round; stroke-linejoin:round; stroke-width:4; stroke-opacity:1; fill:none" points="112.177,246.739 131.075,246.739 "/>
<path clip-path="url(#clip960)" d="M64.2328 1379.04 Q60.6217 1379.04 58.793 1382.61 Q56.9875 1386.15 56.9875 1393.28 Q56.9875 1400.39 58.793 1403.95 Q60.6217 1407.49 64.2328 1407.49 Q67.867 1407.49 69.6726 1403.95 Q71.5013 1400.39 71.5013 1393.28 Q71.5013 1386.15 69.6726 1382.61 Q67.867 1379.04 64.2328 1379.04 M64.2328 1375.34 Q70.0429 1375.34 73.0985 1379.95 Q76.1772 1384.53 76.1772 1393.28 Q76.1772 1402.01 73.0985 1406.61 Q70.0429 1411.2 64.2328 1411.2 Q58.4226 1411.2 55.344 1406.61 Q52.2884 1402.01 52.2884 1393.28 Q52.2884 1384.53 55.344 1379.95 Q58.4226 1375.34 64.2328 1375.34 Z" fill="#000000" fill-rule="nonzero" fill-opacity="1" /><path clip-path="url(#clip960)" d="M59.8578 1119.96 L76.1772 1119.96 L76.1772 1123.9 L54.2328 1123.9 L54.2328 1119.96 Q56.8949 1117.21 61.4782 1112.58 Q66.0846 1107.93 67.2652 1106.58 Q69.5105 1104.06 70.3902 1102.33 Q71.2929 1100.57 71.2929 1098.88 Q71.2929 1096.12 69.3485 1094.39 Q67.4272 1092.65 64.3254 1092.65 Q62.1263 1092.65 59.6726 1093.41 Q57.2421 1094.18 54.4643 1095.73 L54.4643 1091.01 Q57.2884 1089.87 59.7421 1089.29 Q62.1958 1088.71 64.2328 1088.71 Q69.6031 1088.71 72.7976 1091.4 Q75.992 1094.08 75.992 1098.58 Q75.992 1100.7 75.1818 1102.63 Q74.3948 1104.52 72.2883 1107.12 Q71.7096 1107.79 68.6078 1111.01 Q65.5059 1114.2 59.8578 1119.96 Z" fill="#000000" fill-rule="nonzero" fill-opacity="1" /><path clip-path="url(#clip960)" d="M66.5939 806.786 L54.7884 825.235 L66.5939 825.235 L66.5939 806.786 M65.367 802.712 L71.2466 802.712 L71.2466 825.235 L76.1772 825.235 L76.1772 829.124 L71.2466 829.124 L71.2466 837.272 L66.5939 837.272 L66.5939 829.124 L50.9921 829.124 L50.9921 824.61 L65.367 802.712 Z" fill="#000000" fill-rule="nonzero" fill-opacity="1" /><path clip-path="url(#clip960)" d="M64.6495 531.502 Q61.5013 531.502 59.6495 533.655 Q57.8208 535.808 57.8208 539.558 Q57.8208 543.284 59.6495 545.46 Q61.5013 547.613 64.6495 547.613 Q67.7976 547.613 69.6263 545.46 Q71.4781 543.284 71.4781 539.558 Q71.4781 535.808 69.6263 533.655 Q67.7976 531.502 64.6495 531.502 M73.9318 516.849 L73.9318 521.109 Q72.1726 520.275 70.367 519.835 Q68.5846 519.396 66.8254 519.396 Q62.1958 519.396 59.7421 522.521 Q57.3115 525.646 56.9643 531.965 Q58.33 529.951 60.3902 528.886 Q62.4504 527.798 64.9272 527.798 Q70.1355 527.798 73.1448 530.97 Q76.1772 534.118 76.1772 539.558 Q76.1772 544.882 73.029 548.099 Q69.8809 551.317 64.6495 551.317 Q58.6541 551.317 55.4828 546.733 Q52.3116 542.127 52.3116 533.4 Q52.3116 525.206 56.2004 520.345 Q60.0893 515.46 66.6402 515.46 Q68.3994 515.46 70.1818 515.808 Q71.9874 516.155 73.9318 516.849 Z" fill="#000000" fill-rule="nonzero" fill-opacity="1" /><path clip-path="url(#clip960)" d="M64.3254 247.607 Q60.9921 247.607 59.0708 249.389 Q57.1726 251.171 57.1726 254.296 Q57.1726 257.421 59.0708 259.204 Q60.9921 260.986 64.3254 260.986 Q67.6587 260.986 69.58 259.204 Q71.5013 257.398 71.5013 254.296 Q71.5013 251.171 69.58 249.389 Q67.6819 247.607 64.3254 247.607 M59.6495 245.616 Q56.6402 244.875 54.9504 242.815 Q53.2838 240.755 53.2838 237.792 Q53.2838 233.648 56.2236 231.241 Q59.1865 228.834 64.3254 228.834 Q69.4874 228.834 72.4272 231.241 Q75.367 233.648 75.367 237.792 Q75.367 240.755 73.6772 242.815 Q72.0105 244.875 69.0244 245.616 Q72.404 246.403 74.279 248.695 Q76.1772 250.986 76.1772 254.296 Q76.1772 259.319 73.0985 262.005 Q70.0429 264.69 64.3254 264.69 Q58.6078 264.69 55.5291 262.005 Q52.4736 259.319 52.4736 254.296 Q52.4736 250.986 54.3717 248.695 Q56.2699 246.403 59.6495 245.616 M57.9365 238.232 Q57.9365 240.917 59.6032 242.421 Q61.293 243.926 64.3254 243.926 Q67.3346 243.926 69.0244 242.421 Q70.7374 240.917 70.7374 238.232 Q70.7374 235.546 69.0244 234.042 Q67.3346 232.537 64.3254 232.537 Q61.293 232.537 59.6032 234.042 Q57.9365 235.546 57.9365 238.232 Z" fill="#000000" fill-rule="nonzero" fill-opacity="1" /><polyline clip-path="url(#clip962)" style="stroke:#009af9; stroke-linecap:round; stroke-linejoin:round; stroke-width:4; stroke-opacity:1; fill:none" points="175.59,86.1857 218.728,686.956 261.865,1107.75 305.003,1270.73 348.141,1309.67 391.279,1284.56 434.417,1279.05 477.555,1258.76 520.692,1238.52 563.83,1217.81 606.968,1210.74 650.106,1211.83 693.244,1231.52 736.382,1255.43 779.519,1274.37 822.657,1299.23 865.795,1321.82 908.933,1337.08 952.071,1355.52 995.208,1365.12 1038.35,1367.2 1081.48,1366.95 1124.62,1366.31 1167.76,1366.72 1210.9,1362.56 1254.04,1362.01 1297.17,1364.46 1340.31,1364.96 1383.45,1368.51 1426.59,1370.43 1469.72,1372.71 1512.86,1376.84 1556,1377.83 1599.14,1378.83 1642.28,1382.19 1685.41,1381.44 1728.55,1380.3 1771.69,1380.61 1814.83,1378.82 1857.97,1378.34 1901.1,1377.09 1944.24,1377.4 1987.38,1378.32 2030.52,1378.06 2073.65,1377.08 2116.79,1378.82 2159.93,1380.13 2203.07,1381.46 2246.21,1384.24 2289.34,1382.42 "/>
<path clip-path="url(#clip960)" d="M2001.58 196.789 L2278.07 196.789 L2278.07 93.1086 L2001.58 93.1086  Z" fill="#ffffff" fill-rule="evenodd" fill-opacity="1"/>
<polyline clip-path="url(#clip960)" style="stroke:#000000; stroke-linecap:round; stroke-linejoin:round; stroke-width:4; stroke-opacity:1; fill:none" points="2001.58,196.789 2278.07,196.789 2278.07,93.1086 2001.58,93.1086 2001.58,196.789 "/>
<polyline clip-path="url(#clip960)" style="stroke:#009af9; stroke-linecap:round; stroke-linejoin:round; stroke-width:4; stroke-opacity:1; fill:none" points="2026.48,144.949 2175.85,144.949 "/>
<path clip-path="url(#clip960)" d="M2214.59 164.636 Q2212.78 169.266 2211.07 170.678 Q2209.36 172.09 2206.49 172.09 L2203.08 172.09 L2203.08 168.525 L2205.58 168.525 Q2207.34 168.525 2208.31 167.692 Q2209.29 166.858 2210.47 163.756 L2211.23 161.812 L2200.74 136.303 L2205.26 136.303 L2213.36 156.581 L2221.46 136.303 L2225.98 136.303 L2214.59 164.636 Z" fill="#000000" fill-rule="nonzero" fill-opacity="1" /><path clip-path="url(#clip960)" d="M2233.27 158.293 L2240.91 158.293 L2240.91 131.928 L2232.6 133.595 L2232.6 129.335 L2240.86 127.669 L2245.54 127.669 L2245.54 158.293 L2253.17 158.293 L2253.17 162.229 L2233.27 162.229 L2233.27 158.293 Z" fill="#000000" fill-rule="nonzero" fill-opacity="1" /></svg>
