<?xml version="1.0" encoding="utf-8"?>
<svg xmlns="http://www.w3.org/2000/svg" xmlns:xlink="http://www.w3.org/1999/xlink" width="600" height="400" viewBox="0 0 2400 1600">
<defs>
  <clipPath id="clip680">
    <rect x="0" y="0" width="2400" height="1600"/>
  </clipPath>
</defs>
<path clip-path="url(#clip680)" d="M0 1600 L2400 1600 L2400 0 L0 0  Z" fill="#ffffff" fill-rule="evenodd" fill-opacity="1"/>
<defs>
  <clipPath id="clip681">
    <rect x="480" y="0" width="1681" height="1600"/>
  </clipPath>
</defs>
<path clip-path="url(#clip680)" d="M251.071 1423.18 L2352.76 1423.18 L2352.76 47.2441 L251.071 47.2441  Z" fill="#ffffff" fill-rule="evenodd" fill-opacity="1"/>
<defs>
  <clipPath id="clip682">
    <rect x="251" y="47" width="2103" height="1377"/>
  </clipPath>
</defs>
<polyline clip-path="url(#clip682)" style="stroke:#000000; stroke-linecap:round; stroke-linejoin:round; stroke-width:2; stroke-opacity:0.1; fill:none" points="303.922,1423.18 303.922,47.2441 "/>
<polyline clip-path="url(#clip682)" style="stroke:#000000; stroke-linecap:round; stroke-linejoin:round; stroke-width:2; stroke-opacity:0.1; fill:none" points="967.039,1423.18 967.039,47.2441 "/>
<polyline clip-path="url(#clip682)" style="stroke:#000000; stroke-linecap:round; stroke-linejoin:round; stroke-width:2; stroke-opacity:0.1; fill:none" points="1630.16,1423.18 1630.16,47.2441 "/>
<polyline clip-path="url(#clip682)" style="stroke:#000000; stroke-linecap:round; stroke-linejoin:round; stroke-width:2; stroke-opacity:0.1; fill:none" points="2293.27,1423.18 2293.27,47.2441 "/>
<polyline clip-path="url(#clip680)" style="stroke:#000000; stroke-linecap:round; stroke-linejoin:round; stroke-width:4; stroke-opacity:1; fill:none" points="251.071,1423.18 2352.76,1423.18 "/>
<polyline clip-path="url(#clip680)" style="stroke:#000000; stroke-linecap:round; stroke-linejoin:round; stroke-width:4; stroke-opacity:1; fill:none" points="303.922,1423.18 303.922,1404.28 "/>
<polyline clip-path="url(#clip680)" style="stroke:#000000; stroke-linecap:round; stroke-linejoin:round; stroke-width:4; stroke-opacity:1; fill:none" points="967.039,1423.18 967.039,1404.28 "/>
<polyline clip-path="url(#clip680)" style="stroke:#000000; stroke-linecap:round; stroke-linejoin:round; stroke-width:4; stroke-opacity:1; fill:none" points="1630.16,1423.18 1630.16,1404.28 "/>
<polyline clip-path="url(#clip680)" style="stroke:#000000; stroke-linecap:round; stroke-linejoin:round; stroke-width:4; stroke-opacity:1; fill:none" points="2293.27,1423.18 2293.27,1404.28 "/>
<path clip-path="url(#clip680)" d="M303.922 1454.1 Q300.311 1454.1 298.482 1457.66 Q296.676 1461.2 296.676 1468.33 Q296.676 1475.44 298.482 1479.01 Q300.311 1482.55 303.922 1482.55 Q307.556 1482.55 309.362 1479.01 Q311.19 1475.44 311.19 1468.33 Q311.19 1461.2 309.362 1457.66 Q307.556 1454.1 303.922 1454.1 M303.922 1450.39 Q309.732 1450.39 312.787 1455 Q315.866 1459.58 315.866 1468.33 Q315.866 1477.06 312.787 1481.67 Q309.732 1486.25 303.922 1486.25 Q298.112 1486.25 295.033 1481.67 Q291.977 1477.06 291.977 1468.33 Q291.977 1459.58 295.033 1455 Q298.112 1450.39 303.922 1450.39 Z" fill="#000000" fill-rule="nonzero" fill-opacity="1" /><path clip-path="url(#clip680)" d="M926.646 1481.64 L934.285 1481.64 L934.285 1455.28 L925.975 1456.95 L925.975 1452.69 L934.238 1451.02 L938.914 1451.02 L938.914 1481.64 L946.553 1481.64 L946.553 1485.58 L926.646 1485.58 L926.646 1481.64 Z" fill="#000000" fill-rule="nonzero" fill-opacity="1" /><path clip-path="url(#clip680)" d="M965.998 1454.1 Q962.386 1454.1 960.558 1457.66 Q958.752 1461.2 958.752 1468.33 Q958.752 1475.44 960.558 1479.01 Q962.386 1482.55 965.998 1482.55 Q969.632 1482.55 971.437 1479.01 Q973.266 1475.44 973.266 1468.33 Q973.266 1461.2 971.437 1457.66 Q969.632 1454.1 965.998 1454.1 M965.998 1450.39 Q971.808 1450.39 974.863 1455 Q977.942 1459.58 977.942 1468.33 Q977.942 1477.06 974.863 1481.67 Q971.808 1486.25 965.998 1486.25 Q960.187 1486.25 957.109 1481.67 Q954.053 1477.06 954.053 1468.33 Q954.053 1459.58 957.109 1455 Q960.187 1450.39 965.998 1450.39 Z" fill="#000000" fill-rule="nonzero" fill-opacity="1" /><path clip-path="url(#clip680)" d="M996.159 1454.1 Q992.548 1454.1 990.72 1457.66 Q988.914 1461.2 988.914 1468.33 Q988.914 1475.44 990.72 1479.01 Q992.548 1482.55 996.159 1482.55 Q999.794 1482.55 1001.6 1479.01 Q1003.43 1475.44 1003.43 1468.33 Q1003.43 1461.2 1001.6 1457.66 Q999.794 1454.1 996.159 1454.1 M996.159 1450.39 Q1001.97 1450.39 1005.03 1455 Q1008.1 1459.58 1008.1 1468.33 Q1008.1 1477.06 1005.03 1481.67 Q1001.97 1486.25 996.159 1486.25 Q990.349 1486.25 987.271 1481.67 Q984.215 1477.06 984.215 1468.33 Q984.215 1459.58 987.271 1455 Q990.349 1450.39 996.159 1450.39 Z" fill="#000000" fill-rule="nonzero" fill-opacity="1" /><path clip-path="url(#clip680)" d="M1593.85 1481.64 L1610.17 1481.64 L1610.17 1485.58 L1588.22 1485.58 L1588.22 1481.64 Q1590.89 1478.89 1595.47 1474.26 Q1600.08 1469.61 1601.26 1468.27 Q1603.5 1465.74 1604.38 1464.01 Q1605.28 1462.25 1605.28 1460.56 Q1605.28 1457.8 1603.34 1456.07 Q1601.42 1454.33 1598.32 1454.33 Q1596.12 1454.33 1593.66 1455.09 Q1591.23 1455.86 1588.46 1457.41 L1588.46 1452.69 Q1591.28 1451.55 1593.73 1450.97 Q1596.19 1450.39 1598.22 1450.39 Q1603.59 1450.39 1606.79 1453.08 Q1609.98 1455.77 1609.98 1460.26 Q1609.98 1462.39 1609.17 1464.31 Q1608.39 1466.2 1606.28 1468.8 Q1605.7 1469.47 1602.6 1472.69 Q1599.5 1475.88 1593.85 1481.64 Z" fill="#000000" fill-rule="nonzero" fill-opacity="1" /><path clip-path="url(#clip680)" d="M1629.98 1454.1 Q1626.37 1454.1 1624.54 1457.66 Q1622.74 1461.2 1622.74 1468.33 Q1622.74 1475.44 1624.54 1479.01 Q1626.37 1482.55 1629.98 1482.55 Q1633.62 1482.55 1635.42 1479.01 Q1637.25 1475.44 1637.25 1468.33 Q1637.25 1461.2 1635.42 1457.66 Q1633.62 1454.1 1629.98 1454.1 M1629.98 1450.39 Q1635.79 1450.39 1638.85 1455 Q1641.93 1459.58 1641.93 1468.33 Q1641.93 1477.06 1638.85 1481.67 Q1635.79 1486.25 1629.98 1486.25 Q1624.17 1486.25 1621.09 1481.67 Q1618.04 1477.06 1618.04 1468.33 Q1618.04 1459.58 1621.09 1455 Q1624.17 1450.39 1629.98 1450.39 Z" fill="#000000" fill-rule="nonzero" fill-opacity="1" /><path clip-path="url(#clip680)" d="M1660.15 1454.1 Q1656.53 1454.1 1654.71 1457.66 Q1652.9 1461.2 1652.9 1468.33 Q1652.9 1475.44 1654.71 1479.01 Q1656.53 1482.55 1660.15 1482.55 Q1663.78 1482.55 1665.58 1479.01 Q1667.41 1475.44 1667.41 1468.33 Q1667.41 1461.2 1665.58 1457.66 Q1663.78 1454.1 1660.15 1454.1 M1660.15 1450.39 Q1665.96 1450.39 1669.01 1455 Q1672.09 1459.58 1672.09 1468.33 Q1672.09 1477.06 1669.01 1481.67 Q1665.96 1486.25 1660.15 1486.25 Q1654.33 1486.25 1651.26 1481.67 Q1648.2 1477.06 1648.2 1468.33 Q1648.2 1459.58 1651.26 1455 Q1654.33 1450.39 1660.15 1450.39 Z" fill="#000000" fill-rule="nonzero" fill-opacity="1" /><path clip-path="url(#clip680)" d="M2267.04 1466.95 Q2270.39 1467.66 2272.27 1469.93 Q2274.17 1472.2 2274.17 1475.53 Q2274.17 1480.65 2270.65 1483.45 Q2267.13 1486.25 2260.65 1486.25 Q2258.47 1486.25 2256.16 1485.81 Q2253.86 1485.39 2251.41 1484.54 L2251.41 1480.02 Q2253.36 1481.16 2255.67 1481.74 Q2257.99 1482.32 2260.51 1482.32 Q2264.91 1482.32 2267.2 1480.58 Q2269.51 1478.84 2269.51 1475.53 Q2269.51 1472.48 2267.36 1470.77 Q2265.23 1469.03 2261.41 1469.03 L2257.38 1469.03 L2257.38 1465.19 L2261.6 1465.19 Q2265.05 1465.19 2266.87 1463.82 Q2268.7 1462.43 2268.7 1459.84 Q2268.7 1457.18 2266.8 1455.77 Q2264.93 1454.33 2261.41 1454.33 Q2259.49 1454.33 2257.29 1454.75 Q2255.09 1455.16 2252.45 1456.04 L2252.45 1451.88 Q2255.11 1451.14 2257.43 1450.77 Q2259.77 1450.39 2261.83 1450.39 Q2267.15 1450.39 2270.25 1452.83 Q2273.36 1455.23 2273.36 1459.35 Q2273.36 1462.22 2271.71 1464.21 Q2270.07 1466.18 2267.04 1466.95 Z" fill="#000000" fill-rule="nonzero" fill-opacity="1" /><path clip-path="url(#clip680)" d="M2293.03 1454.1 Q2289.42 1454.1 2287.59 1457.66 Q2285.79 1461.2 2285.79 1468.33 Q2285.79 1475.44 2287.59 1479.01 Q2289.42 1482.55 2293.03 1482.55 Q2296.67 1482.55 2298.47 1479.01 Q2300.3 1475.44 2300.3 1468.33 Q2300.3 1461.2 2298.47 1457.66 Q2296.67 1454.1 2293.03 1454.1 M2293.03 1450.39 Q2298.84 1450.39 2301.9 1455 Q2304.98 1459.58 2304.98 1468.33 Q2304.98 1477.06 2301.9 1481.67 Q2298.84 1486.25 2293.03 1486.25 Q2287.22 1486.25 2284.14 1481.67 Q2281.09 1477.06 2281.09 1468.33 Q2281.09 1459.58 2284.14 1455 Q2287.22 1450.39 2293.03 1450.39 Z" fill="#000000" fill-rule="nonzero" fill-opacity="1" /><path clip-path="url(#clip680)" d="M2323.19 1454.1 Q2319.58 1454.1 2317.75 1457.66 Q2315.95 1461.2 2315.95 1468.33 Q2315.95 1475.44 2317.75 1479.01 Q2319.58 1482.55 2323.19 1482.55 Q2326.83 1482.55 2328.63 1479.01 Q2330.46 1475.44 2330.46 1468.33 Q2330.46 1461.2 2328.63 1457.66 Q2326.83 1454.1 2323.19 1454.1 M2323.19 1450.39 Q2329 1450.39 2332.06 1455 Q2335.14 1459.58 2335.14 1468.33 Q2335.14 1477.06 2332.06 1481.67 Q2329 1486.25 2323.19 1486.25 Q2317.38 1486.25 2314.3 1481.67 Q2311.25 1477.06 2311.25 1468.33 Q2311.25 1459.58 2314.3 1455 Q2317.38 1450.39 2323.19 1450.39 Z" fill="#000000" fill-rule="nonzero" fill-opacity="1" /><path clip-path="url(#clip680)" d="M1208.08 1520.52 L1238.13 1520.52 L1238.13 1525.93 L1214.51 1525.93 L1214.51 1540 L1237.14 1540 L1237.14 1545.41 L1214.51 1545.41 L1214.51 1562.63 L1238.7 1562.63 L1238.7 1568.04 L1208.08 1568.04 L1208.08 1520.52 Z" fill="#000000" fill-rule="nonzero" fill-opacity="1" /><path clip-path="url(#clip680)" d="M1254.68 1562.7 L1254.68 1581.6 L1248.79 1581.6 L1248.79 1532.4 L1254.68 1532.4 L1254.68 1537.81 Q1256.53 1534.62 1259.33 1533.1 Q1262.16 1531.54 1266.07 1531.54 Q1272.57 1531.54 1276.61 1536.69 Q1280.68 1541.85 1280.68 1550.25 Q1280.68 1558.65 1276.61 1563.81 Q1272.57 1568.97 1266.07 1568.97 Q1262.16 1568.97 1259.33 1567.44 Q1256.53 1565.88 1254.68 1562.7 M1274.6 1550.25 Q1274.6 1543.79 1271.93 1540.13 Q1269.29 1536.44 1264.64 1536.44 Q1260 1536.44 1257.32 1540.13 Q1254.68 1543.79 1254.68 1550.25 Q1254.68 1556.71 1257.32 1560.4 Q1260 1564.07 1264.64 1564.07 Q1269.29 1564.07 1271.93 1560.4 Q1274.6 1556.71 1274.6 1550.25 Z" fill="#000000" fill-rule="nonzero" fill-opacity="1" /><path clip-path="url(#clip680)" d="M1304.21 1536.5 Q1299.49 1536.5 1296.76 1540.19 Q1294.02 1543.85 1294.02 1550.25 Q1294.02 1556.65 1296.73 1560.34 Q1299.46 1564 1304.21 1564 Q1308.88 1564 1311.62 1560.31 Q1314.36 1556.62 1314.36 1550.25 Q1314.36 1543.92 1311.62 1540.23 Q1308.88 1536.5 1304.21 1536.5 M1304.21 1531.54 Q1311.84 1531.54 1316.2 1536.5 Q1320.57 1541.47 1320.57 1550.25 Q1320.57 1559 1316.2 1564 Q1311.84 1568.97 1304.21 1568.97 Q1296.53 1568.97 1292.17 1564 Q1287.85 1559 1287.85 1550.25 Q1287.85 1541.47 1292.17 1536.5 Q1296.53 1531.54 1304.21 1531.54 Z" fill="#000000" fill-rule="nonzero" fill-opacity="1" /><path clip-path="url(#clip680)" d="M1355.93 1533.76 L1355.93 1539.24 Q1353.44 1537.87 1350.93 1537.2 Q1348.45 1536.5 1345.9 1536.5 Q1340.2 1536.5 1337.05 1540.13 Q1333.9 1543.73 1333.9 1550.25 Q1333.9 1556.78 1337.05 1560.4 Q1340.2 1564 1345.9 1564 Q1348.45 1564 1350.93 1563.33 Q1353.44 1562.63 1355.93 1561.26 L1355.93 1566.68 Q1353.48 1567.82 1350.83 1568.39 Q1348.22 1568.97 1345.26 1568.97 Q1337.21 1568.97 1332.47 1563.91 Q1327.73 1558.85 1327.73 1550.25 Q1327.73 1541.53 1332.5 1536.53 Q1337.31 1531.54 1345.65 1531.54 Q1348.35 1531.54 1350.93 1532.11 Q1353.51 1532.65 1355.93 1533.76 Z" fill="#000000" fill-rule="nonzero" fill-opacity="1" /><path clip-path="url(#clip680)" d="M1395.74 1546.53 L1395.74 1568.04 L1389.89 1568.04 L1389.89 1546.72 Q1389.89 1541.66 1387.91 1539.14 Q1385.94 1536.63 1381.99 1536.63 Q1377.25 1536.63 1374.51 1539.65 Q1371.78 1542.68 1371.78 1547.9 L1371.78 1568.04 L1365.89 1568.04 L1365.89 1518.52 L1371.78 1518.52 L1371.78 1537.93 Q1373.88 1534.72 1376.71 1533.13 Q1379.58 1531.54 1383.3 1531.54 Q1389.44 1531.54 1392.59 1535.36 Q1395.74 1539.14 1395.74 1546.53 Z" fill="#000000" fill-rule="nonzero" fill-opacity="1" /><polyline clip-path="url(#clip682)" style="stroke:#000000; stroke-linecap:round; stroke-linejoin:round; stroke-width:2; stroke-opacity:0.1; fill:none" points="251.071,1088.38 2352.76,1088.38 "/>
<polyline clip-path="url(#clip682)" style="stroke:#000000; stroke-linecap:round; stroke-linejoin:round; stroke-width:2; stroke-opacity:0.1; fill:none" points="251.071,530.244 2352.76,530.244 "/>
<polyline clip-path="url(#clip680)" style="stroke:#000000; stroke-linecap:round; stroke-linejoin:round; stroke-width:4; stroke-opacity:1; fill:none" points="251.071,1423.18 251.071,47.2441 "/>
<polyline clip-path="url(#clip680)" style="stroke:#000000; stroke-linecap:round; stroke-linejoin:round; stroke-width:4; stroke-opacity:1; fill:none" points="251.071,1088.38 269.969,1088.38 "/>
<polyline clip-path="url(#clip680)" style="stroke:#000000; stroke-linecap:round; stroke-linejoin:round; stroke-width:4; stroke-opacity:1; fill:none" points="251.071,530.244 269.969,530.244 "/>
<path clip-path="url(#clip680)" d="M114.931 1108.17 L122.57 1108.17 L122.57 1081.81 L114.26 1083.48 L114.26 1079.22 L122.524 1077.55 L127.2 1077.55 L127.2 1108.17 L134.839 1108.17 L134.839 1112.11 L114.931 1112.11 L114.931 1108.17 Z" fill="#000000" fill-rule="nonzero" fill-opacity="1" /><path clip-path="url(#clip680)" d="M154.283 1080.63 Q150.672 1080.63 148.843 1084.19 Q147.038 1087.74 147.038 1094.86 Q147.038 1101.97 148.843 1105.54 Q150.672 1109.08 154.283 1109.08 Q157.917 1109.08 159.723 1105.54 Q161.552 1101.97 161.552 1094.86 Q161.552 1087.74 159.723 1084.19 Q157.917 1080.63 154.283 1080.63 M154.283 1076.93 Q160.093 1076.93 163.149 1081.53 Q166.227 1086.11 166.227 1094.86 Q166.227 1103.59 163.149 1108.2 Q160.093 1112.78 154.283 1112.78 Q148.473 1112.78 145.394 1108.2 Q142.339 1103.59 142.339 1094.86 Q142.339 1086.11 145.394 1081.53 Q148.473 1076.93 154.283 1076.93 Z" fill="#000000" fill-rule="nonzero" fill-opacity="1" /><path clip-path="url(#clip680)" d="M166.227 1071.03 L190.339 1071.03 L190.339 1074.22 L166.227 1074.22 L166.227 1071.03 Z" fill="#000000" fill-rule="nonzero" fill-opacity="1" /><path clip-path="url(#clip680)" d="M201.812 1081.5 L215.071 1081.5 L215.071 1084.7 L197.241 1084.7 L197.241 1081.5 Q199.404 1079.26 203.128 1075.5 Q206.871 1071.72 207.83 1070.63 Q209.655 1068.58 210.369 1067.17 Q211.103 1065.74 211.103 1064.37 Q211.103 1062.13 209.523 1060.72 Q207.962 1059.31 205.442 1059.31 Q203.655 1059.31 201.661 1059.93 Q199.686 1060.55 197.43 1061.81 L197.43 1057.97 Q199.724 1057.05 201.718 1056.58 Q203.711 1056.11 205.366 1056.11 Q209.73 1056.11 212.325 1058.29 Q214.921 1060.48 214.921 1064.12 Q214.921 1065.85 214.263 1067.42 Q213.623 1068.96 211.912 1071.06 Q211.441 1071.61 208.921 1074.22 Q206.401 1076.82 201.812 1081.5 Z" fill="#000000" fill-rule="nonzero" fill-opacity="1" /><path clip-path="url(#clip680)" d="M144.366 550.037 L152.004 550.037 L152.004 523.671 L143.694 525.338 L143.694 521.078 L151.958 519.412 L156.634 519.412 L156.634 550.037 L164.273 550.037 L164.273 553.972 L144.366 553.972 L144.366 550.037 Z" fill="#000000" fill-rule="nonzero" fill-opacity="1" /><path clip-path="url(#clip680)" d="M183.717 522.49 Q180.106 522.49 178.277 526.055 Q176.472 529.597 176.472 536.726 Q176.472 543.833 178.277 547.398 Q180.106 550.939 183.717 550.939 Q187.351 550.939 189.157 547.398 Q190.986 543.833 190.986 536.726 Q190.986 529.597 189.157 526.055 Q187.351 522.49 183.717 522.49 M183.717 518.787 Q189.527 518.787 192.583 523.393 Q195.662 527.976 195.662 536.726 Q195.662 545.453 192.583 550.06 Q189.527 554.643 183.717 554.643 Q177.907 554.643 174.828 550.06 Q171.773 545.453 171.773 536.726 Q171.773 527.976 174.828 523.393 Q177.907 518.787 183.717 518.787 Z" fill="#000000" fill-rule="nonzero" fill-opacity="1" /><path clip-path="url(#clip680)" d="M205.366 500.983 Q202.432 500.983 200.947 503.879 Q199.48 506.757 199.48 512.55 Q199.48 518.323 200.947 521.22 Q202.432 524.097 205.366 524.097 Q208.319 524.097 209.786 521.22 Q211.272 518.323 211.272 512.55 Q211.272 506.757 209.786 503.879 Q208.319 500.983 205.366 500.983 M205.366 497.973 Q210.087 497.973 212.57 501.716 Q215.071 505.44 215.071 512.55 Q215.071 519.64 212.57 523.383 Q210.087 527.107 205.366 527.107 Q200.646 527.107 198.144 523.383 Q195.662 519.64 195.662 512.55 Q195.662 505.44 198.144 501.716 Q200.646 497.973 205.366 497.973 Z" fill="#000000" fill-rule="nonzero" fill-opacity="1" /><path clip-path="url(#clip680)" d="M16.4842 953.174 L16.4842 912.974 L21.895 912.974 L21.895 929.843 L64.0042 929.843 L64.0042 936.305 L21.895 936.305 L21.895 953.174 L16.4842 953.174 Z" fill="#000000" fill-rule="nonzero" fill-opacity="1" /><path clip-path="url(#clip680)" d="M33.8307 895.946 Q33.2578 896.933 33.0032 898.11 Q32.7167 899.256 32.7167 900.657 Q32.7167 905.622 35.9632 908.296 Q39.1779 910.937 45.2253 910.937 L64.0042 910.937 L64.0042 916.826 L28.3562 916.826 L28.3562 910.937 L33.8944 910.937 Q30.6479 909.091 29.0883 906.131 Q27.4968 903.171 27.4968 898.938 Q27.4968 898.333 27.5923 897.601 Q27.656 896.869 27.8151 895.978 L33.8307 895.946 Z" fill="#000000" fill-rule="nonzero" fill-opacity="1" /><path clip-path="url(#clip680)" d="M46.0847 873.602 Q46.0847 880.7 47.7079 883.437 Q49.3312 886.175 53.2461 886.175 Q56.3653 886.175 58.2114 884.138 Q60.0256 882.069 60.0256 878.536 Q60.0256 873.666 56.5881 870.738 Q53.1188 867.778 47.3897 867.778 L46.0847 867.778 L46.0847 873.602 M43.6657 861.921 L64.0042 861.921 L64.0042 867.778 L58.5933 867.778 Q61.8398 869.783 63.3994 872.775 Q64.9272 875.767 64.9272 880.095 Q64.9272 885.57 61.8716 888.816 Q58.7843 892.031 53.6281 892.031 Q47.6125 892.031 44.5569 888.021 Q41.5014 883.979 41.5014 875.99 L41.5014 867.778 L40.9285 867.778 Q36.8862 867.778 34.6901 870.451 Q32.4621 873.093 32.4621 877.899 Q32.4621 880.955 33.1941 883.851 Q33.9262 886.748 35.3903 889.421 L29.9795 889.421 Q28.7381 886.207 28.1334 883.183 Q27.4968 880.159 27.4968 877.295 Q27.4968 869.56 31.5072 865.741 Q35.5176 861.921 43.6657 861.921 Z" fill="#000000" fill-rule="nonzero" fill-opacity="1" /><path clip-path="url(#clip680)" d="M28.3562 849.858 L28.3562 844.002 L64.0042 844.002 L64.0042 849.858 L28.3562 849.858 M14.479 849.858 L14.479 844.002 L21.895 844.002 L21.895 849.858 L14.479 849.858 Z" fill="#000000" fill-rule="nonzero" fill-opacity="1" /><path clip-path="url(#clip680)" d="M42.4881 802.116 L64.0042 802.116 L64.0042 807.972 L42.679 807.972 Q37.6183 807.972 35.1038 809.945 Q32.5894 811.919 32.5894 815.865 Q32.5894 820.608 35.6131 823.345 Q38.6368 826.082 43.8567 826.082 L64.0042 826.082 L64.0042 831.971 L28.3562 831.971 L28.3562 826.082 L33.8944 826.082 Q30.6797 823.982 29.0883 821.149 Q27.4968 818.284 27.4968 814.561 Q27.4968 808.418 31.3163 805.267 Q35.1038 802.116 42.4881 802.116 Z" fill="#000000" fill-rule="nonzero" fill-opacity="1" /><path clip-path="url(#clip680)" d="M28.3562 790.434 L28.3562 784.578 L64.0042 784.578 L64.0042 790.434 L28.3562 790.434 M14.479 790.434 L14.479 784.578 L21.895 784.578 L21.895 790.434 L14.479 790.434 Z" fill="#000000" fill-rule="nonzero" fill-opacity="1" /><path clip-path="url(#clip680)" d="M42.4881 742.692 L64.0042 742.692 L64.0042 748.548 L42.679 748.548 Q37.6183 748.548 35.1038 750.521 Q32.5894 752.495 32.5894 756.442 Q32.5894 761.184 35.6131 763.921 Q38.6368 766.659 43.8567 766.659 L64.0042 766.659 L64.0042 772.547 L28.3562 772.547 L28.3562 766.659 L33.8944 766.659 Q30.6797 764.558 29.0883 761.725 Q27.4968 758.861 27.4968 755.137 Q27.4968 748.994 31.3163 745.843 Q35.1038 742.692 42.4881 742.692 Z" fill="#000000" fill-rule="nonzero" fill-opacity="1" /><path clip-path="url(#clip680)" d="M45.7664 707.553 Q39.4007 707.553 35.8996 710.195 Q32.3984 712.805 32.3984 717.547 Q32.3984 722.258 35.8996 724.9 Q39.4007 727.509 45.7664 727.509 Q52.1003 727.509 55.6014 724.9 Q59.1026 722.258 59.1026 717.547 Q59.1026 712.805 55.6014 710.195 Q52.1003 707.553 45.7664 707.553 M59.58 701.697 Q68.683 701.697 73.1071 705.739 Q77.5631 709.781 77.5631 718.12 Q77.5631 721.207 77.0857 723.945 Q76.6401 726.682 75.6852 729.26 L69.9879 729.26 Q71.3884 726.682 72.0568 724.167 Q72.7252 721.653 72.7252 719.043 Q72.7252 713.282 69.7015 710.418 Q66.7096 707.553 60.6303 707.553 L57.7339 707.553 Q60.885 709.367 62.4446 712.2 Q64.0042 715.033 64.0042 718.979 Q64.0042 725.536 59.0071 729.546 Q54.01 733.557 45.7664 733.557 Q37.491 733.557 32.4939 729.546 Q27.4968 725.536 27.4968 718.979 Q27.4968 715.033 29.0564 712.2 Q30.616 709.367 33.7671 707.553 L28.3562 707.553 L28.3562 701.697 L59.58 701.697 Z" fill="#000000" fill-rule="nonzero" fill-opacity="1" /><path clip-path="url(#clip680)" d="M44.7161 638.421 L47.5806 638.421 L47.5806 665.348 Q53.6281 664.966 56.8109 661.72 Q59.9619 658.442 59.9619 652.617 Q59.9619 649.243 59.1344 646.092 Q58.3069 642.909 56.6518 639.79 L62.1899 639.79 Q63.5267 642.941 64.227 646.251 Q64.9272 649.561 64.9272 652.967 Q64.9272 661.497 59.9619 666.494 Q54.9967 671.459 46.5303 671.459 Q37.7774 671.459 32.6531 666.749 Q27.4968 662.006 27.4968 653.986 Q27.4968 646.792 32.1438 642.623 Q36.7589 638.421 44.7161 638.421 M42.9973 644.278 Q38.1912 644.342 35.3266 646.983 Q32.4621 649.593 32.4621 653.922 Q32.4621 658.823 35.2312 661.784 Q38.0002 664.712 43.0292 665.157 L42.9973 644.278 Z" fill="#000000" fill-rule="nonzero" fill-opacity="1" /><path clip-path="url(#clip680)" d="M33.8307 608.152 Q33.2578 609.139 33.0032 610.317 Q32.7167 611.463 32.7167 612.863 Q32.7167 617.828 35.9632 620.502 Q39.1779 623.144 45.2253 623.144 L64.0042 623.144 L64.0042 629.032 L28.3562 629.032 L28.3562 623.144 L33.8944 623.144 Q30.6479 621.298 29.0883 618.338 Q27.4968 615.378 27.4968 611.144 Q27.4968 610.54 27.5923 609.808 Q27.656 609.075 27.8151 608.184 L33.8307 608.152 Z" fill="#000000" fill-rule="nonzero" fill-opacity="1" /><path clip-path="url(#clip680)" d="M33.8307 582.499 Q33.2578 583.485 33.0032 584.663 Q32.7167 585.809 32.7167 587.209 Q32.7167 592.175 35.9632 594.848 Q39.1779 597.49 45.2253 597.49 L64.0042 597.49 L64.0042 603.378 L28.3562 603.378 L28.3562 597.49 L33.8944 597.49 Q30.6479 595.644 29.0883 592.684 Q27.4968 589.724 27.4968 585.491 Q27.4968 584.886 27.5923 584.154 Q27.656 583.422 27.8151 582.53 L33.8307 582.499 Z" fill="#000000" fill-rule="nonzero" fill-opacity="1" /><path clip-path="url(#clip680)" d="M32.4621 563.974 Q32.4621 568.685 36.1542 571.422 Q39.8145 574.16 46.212 574.16 Q52.6095 574.16 56.3017 571.454 Q59.9619 568.717 59.9619 563.974 Q59.9619 559.296 56.2698 556.558 Q52.5777 553.821 46.212 553.821 Q39.8781 553.821 36.186 556.558 Q32.4621 559.296 32.4621 563.974 M27.4968 563.974 Q27.4968 556.336 32.4621 551.975 Q37.4273 547.615 46.212 547.615 Q54.9649 547.615 59.9619 551.975 Q64.9272 556.336 64.9272 563.974 Q64.9272 571.645 59.9619 576.006 Q54.9649 580.334 46.212 580.334 Q37.4273 580.334 32.4621 576.006 Q27.4968 571.645 27.4968 563.974 Z" fill="#000000" fill-rule="nonzero" fill-opacity="1" /><path clip-path="url(#clip680)" d="M33.8307 517.25 Q33.2578 518.237 33.0032 519.415 Q32.7167 520.56 32.7167 521.961 Q32.7167 526.926 35.9632 529.6 Q39.1779 532.241 45.2253 532.241 L64.0042 532.241 L64.0042 538.13 L28.3562 538.13 L28.3562 532.241 L33.8944 532.241 Q30.6479 530.395 29.0883 527.435 Q27.4968 524.475 27.4968 520.242 Q27.4968 519.637 27.5923 518.905 Q27.656 518.173 27.8151 517.282 L33.8307 517.25 Z" fill="#000000" fill-rule="nonzero" fill-opacity="1" /><polyline clip-path="url(#clip682)" style="stroke:#3da44d; stroke-linecap:round; stroke-linejoin:round; stroke-width:4; stroke-opacity:1; fill:none" points="310.553,457.265 317.184,460.334 323.815,463.343 330.446,466.418 337.078,469.586 343.709,472.747 350.34,475.941 356.971,479.225 363.602,482.416 370.233,485.652 376.865,489.155 383.496,492.363 390.127,495.748 396.758,499.175 403.389,502.57 410.021,505.93 416.652,509.385 423.283,512.67 429.914,516.115 436.545,519.434 443.176,522.674 449.808,525.983 456.439,529.132 463.07,532.141 469.701,535.106 476.332,537.986 482.963,540.932 489.595,543.806 496.226,546.835 502.857,549.775 509.488,552.829 516.119,555.823 522.75,558.938 529.382,562.058 536.013,565.304 542.644,568.572 549.275,571.847 555.906,575.231 562.538,578.614 569.169,582.032 575.8,585.543 582.431,589.114 589.062,592.653 595.693,596.394 602.325,600.086 608.956,603.783 615.587,607.562 622.218,611.437 628.849,615.41 635.48,619.422 642.112,623.494 648.743,627.542 655.374,631.746 662.005,635.998 668.636,640.271 675.268,644.588 681.899,649.053 688.53,653.536 695.161,658.165 701.792,662.796 708.423,667.439 715.055,672.115 721.686,676.765 728.317,681.66 734.948,686.585 741.579,691.572 748.21,696.632 754.842,701.873 761.473,707.18 768.104,712.6 774.735,718.157 781.366,723.849 787.998,729.599 794.629,735.539 801.26,741.131 807.891,746.559 814.522,752.113 821.153,757.879 827.785,763.818 834.416,769.854 841.047,775.987 847.678,782.367 854.309,788.846 860.94,795.609 867.572,802.441 874.203,809.535 880.834,816.801 887.465,824.429 894.096,832.272 900.727,840.434 907.359,849.003 913.99,857.888 920.621,867.287 927.252,877.136 933.883,887.501 940.515,898.318 947.146,908.013 953.777,917.404 960.408,927.237 967.039,937.982 973.67,949.282 980.302,961.378 986.933,974.498 993.564,989.096 1000.2,1005.19 1006.83,1023.15 1013.46,1043.69 1020.09,1067.69 1026.72,1098.58 1033.35,1136.86 1039.98,1182.67 1046.61,1218.09 1053.24,1221.11 1059.88,1225.48 1066.51,1230.88 1073.14,1233.84 1079.77,1235.1 1086.4,1236.28 1093.03,1236.43 1099.66,1238.55 1106.29,1239.27 1112.93,1238.35 1119.56,1240.22 1126.19,1240 1132.82,1240.69 1139.45,1240.88 1146.08,1241.15 1152.71,1241.81 1159.34,1242.22 1165.97,1242.02 1172.61,1241.57 1179.24,1242.39 1185.87,1243.64 1192.5,1242.93 1199.13,1242.64 1205.76,1243.87 1212.39,1245 1219.02,1244.95 1225.66,1245.73 1232.29,1246.03 1238.92,1246.52 1245.55,1247.12 1252.18,1247.4 1258.81,1247.17 1265.44,1248.82 1272.07,1248.52 1278.7,1249.99 1285.34,1250.17 1291.97,1249.65 1298.6,1250.14 1305.23,1251.11 1311.86,1251.52 1318.49,1252.07 1325.12,1252.95 1331.75,1253.43 1338.39,1254.74 1345.02,1256.26 1351.65,1257.02 1358.28,1258.82 1364.91,1260.06 1371.54,1260.26 1378.17,1261.5 1384.8,1261.75 1391.43,1263.42 1398.07,1266.05 1404.7,1266.47 1411.33,1267.5 1417.96,1268.95 1424.59,1270.1 1431.22,1271.53 1437.85,1272.29 1444.48,1272.79 1451.12,1274.52 1457.75,1276.72 1464.38,1278.76 1471.01,1279.01 1477.64,1280.62 1484.27,1282.47 1490.9,1283.98 1497.53,1285.67 1504.16,1287.17 1510.8,1287.96 1517.43,1288.59 1524.06,1291.37 1530.69,1292.52 1537.32,1293.99 1543.95,1295.92 1550.58,1296.91 1557.21,1297.09 1563.84,1300.39 1570.48,1301.15 1577.11,1302.75 1583.74,1303.84 1590.37,1303.83 1597,1303.84 1603.63,1308.09 1610.26,1307.83 1616.89,1307.95 1623.53,1312.55 1630.16,1312.83 1636.79,1313.6 1643.42,1313.89 1650.05,1315.35 1656.68,1317.79 1663.31,1319.37 1669.94,1320.5 1676.57,1321.14 1683.21,1321.25 1689.84,1323.53 1696.47,1324.09 1703.1,1326.28 1709.73,1326.96 1716.36,1327.07 1722.99,1329.98 1729.62,1330.38 1736.26,1332.43 1742.89,1333.03 1749.52,1333.29 1756.15,1335.01 1762.78,1337.12 1769.41,1338.34 1776.04,1337.29 1782.67,1341.57 1789.3,1340.69 1795.94,1343.12 1802.57,1342.53 1809.2,1344.29 1815.83,1346.13 1822.46,1345.79 1829.09,1347.07 1835.72,1348.1 1842.35,1349.98 1848.99,1351.94 1855.62,1351.97 1862.25,1354.83 1868.88,1354.06 1875.51,1353.68 1882.14,1357.46 1888.77,1357.17 1895.4,1359.49 1902.03,1359.04 1908.67,1361.1 1915.3,1360.83 1921.93,1361.08 1928.56,1361.62 1935.19,1363.08 1941.82,1362.9 1948.45,1363.78 1955.08,1362.98 1961.72,1365.42 1968.35,1362.22 1974.98,1363.31 1981.61,1365.21 1988.24,1368.03 1994.87,1369.71 2001.5,1367.64 2008.13,1368.1 2014.76,1363.12 2021.4,1366.62 2028.03,1370.52 2034.66,1371.88 2041.29,1372.71 2047.92,1374.12 2054.55,1372.43 2061.18,1374.44 2067.81,1371.94 2074.45,1370.52 2081.08,1372.75 2087.71,1374.64 2094.34,1375.61 2100.97,1377.53 2107.6,1377.72 2114.23,1376.52 2120.86,1376.96 2127.49,1378.8 2134.13,1379.89 2140.76,1377.03 2147.39,1376.66 2154.02,1377.09 2160.65,1378.75 2167.28,1377.96 2173.91,1379.97 2180.54,1377.59 2187.18,1376.33 2193.81,1378.03 2200.44,1381.3 2207.07,1382.08 2213.7,1383.41 2220.33,1381.03 2226.96,1382.54 2233.59,1382.89 2240.22,1384.18 2246.86,1383.98 2253.49,1380.7 2260.12,1379.36 2266.75,1382.3 2273.38,1383.75 2280.01,1383.19 2286.64,1384.24 2293.27,1384.06 "/>
<polyline clip-path="url(#clip682)" style="stroke:#e26f46; stroke-linecap:round; stroke-linejoin:round; stroke-width:4; stroke-opacity:1; fill:none" points="310.553,86.1857 317.184,91.6994 323.815,97.1654 330.446,101.958 337.078,106.362 343.709,110.726 350.34,114.772 356.971,118.844 363.602,123.117 370.233,127.175 376.865,131.024 383.496,134.548 390.127,138.248 396.758,141.773 403.389,145.594 410.021,149.272 416.652,152.895 423.283,156.211 429.914,159.641 436.545,162.944 443.176,166.189 449.808,169.594 456.439,172.768 463.07,176.04 469.701,179.612 476.332,182.907 482.963,186.112 489.595,189.381 496.226,192.74 502.857,196.102 509.488,199.529 516.119,202.817 522.75,206.108 529.382,209.278 536.013,212.743 542.644,215.957 549.275,219.447 555.906,222.988 562.538,226.465 569.169,230 575.8,233.676 582.431,237.513 589.062,241.51 595.693,245.531 602.325,249.669 608.956,253.788 615.587,258.204 622.218,262.684 628.849,267.024 635.48,271.473 642.112,276.009 648.743,280.618 655.374,285.339 662.005,290.196 668.636,295.258 675.268,300.465 681.899,305.884 688.53,311.555 695.161,317.335 701.792,323.332 708.423,329.616 715.055,335.957 721.686,342.718 728.317,349.536 734.948,356.461 741.579,363.29 748.21,369.976 754.842,376.994 761.473,384.519 768.104,391.989 774.735,399.4 781.366,407.112 787.998,413.88 794.629,420.791 801.26,427.861 807.891,434.02 814.522,439.616 821.153,444.87 827.785,449.689 834.416,454.307 841.047,458.138 847.678,461.588 854.309,464.536 860.94,466.429 867.572,468.306 874.203,470.078 880.834,471.495 887.465,472.923 894.096,474.383 900.727,475.238 907.359,476.243 913.99,477.175 920.621,478.221 927.252,479.099 933.883,480.27 940.515,481.321 947.146,482.354 953.777,483.646 960.408,484.777 967.039,485.787 973.67,486.796 980.302,488.128 986.933,489.287 993.564,490.392 1000.2,491.587 1006.83,492.899 1013.46,494.304 1020.09,495.804 1026.72,497.114 1033.35,498.747 1039.98,500.061 1046.61,501.537 1053.24,503.004 1059.88,504.503 1066.51,506.07 1073.14,507.869 1079.77,509.313 1086.4,510.998 1093.03,512.658 1099.66,514.314 1106.29,515.929 1112.93,517.699 1119.56,519.187 1126.19,520.832 1132.82,522.49 1139.45,523.856 1146.08,525.367 1152.71,526.949 1159.34,528.377 1165.97,529.869 1172.61,531.303 1179.24,532.631 1185.87,534.128 1192.5,535.646 1199.13,536.984 1205.76,538.405 1212.39,539.558 1219.02,540.797 1225.66,542.058 1232.29,543.354 1238.92,544.504 1245.55,545.63 1252.18,546.981 1258.81,548.117 1265.44,549.387 1272.07,550.583 1278.7,551.749 1285.34,553.005 1291.97,554.174 1298.6,555.49 1305.23,556.967 1311.86,558.099 1318.49,559.523 1325.12,560.921 1331.75,562.426 1338.39,564.125 1345.02,565.911 1351.65,567.832 1358.28,569.841 1364.91,572.013 1371.54,574.115 1378.17,576.305 1384.8,578.564 1391.43,580.83 1398.07,583.342 1404.7,585.905 1411.33,588.469 1417.96,591.283 1424.59,594.084 1431.22,596.994 1437.85,599.949 1444.48,602.674 1451.12,605.163 1457.75,607.12 1464.38,608.435 1471.01,609.558 1477.64,610.774 1484.27,612.015 1490.9,612.961 1497.53,614.148 1504.16,615.025 1510.8,616.029 1517.43,617.116 1524.06,617.906 1530.69,618.615 1537.32,619.663 1543.95,620.485 1550.58,621.24 1557.21,621.943 1563.84,622.741 1570.48,623.609 1577.11,624.388 1583.74,625.168 1590.37,625.955 1597,626.568 1603.63,627.285 1610.26,627.928 1616.89,628.641 1623.53,629.496 1630.16,630.367 1636.79,631.183 1643.42,631.85 1650.05,632.58 1656.68,633.453 1663.31,634.284 1669.94,635 1676.57,635.68 1683.21,636.555 1689.84,637.41 1696.47,638.053 1703.1,638.823 1709.73,639.626 1716.36,640.46 1722.99,641.309 1729.62,642.13 1736.26,642.99 1742.89,643.633 1749.52,644.531 1756.15,645.412 1762.78,646.135 1769.41,647.117 1776.04,647.89 1782.67,648.842 1789.3,649.735 1795.94,650.533 1802.57,651.507 1809.2,652.387 1815.83,653.188 1822.46,654.123 1829.09,655 1835.72,655.932 1842.35,656.912 1848.99,657.831 1855.62,658.734 1862.25,659.732 1868.88,660.583 1875.51,661.614 1882.14,662.417 1888.77,663.443 1895.4,664.462 1902.03,665.469 1908.67,666.507 1915.3,667.543 1921.93,668.487 1928.56,669.55 1935.19,670.591 1941.82,671.541 1948.45,672.481 1955.08,673.407 1961.72,674.468 1968.35,675.677 1974.98,676.892 1981.61,677.965 1988.24,679.117 1994.87,680.295 2001.5,681.466 2008.13,682.565 2014.76,683.854 2021.4,684.991 2028.03,686.161 2034.66,687.349 2041.29,688.585 2047.92,689.783 2054.55,691.036 2061.18,692.271 2067.81,693.479 2074.45,694.835 2081.08,695.991 2087.71,697.184 2094.34,698.498 2100.97,699.784 2107.6,701.132 2114.23,702.221 2120.86,703.386 2127.49,704.711 2134.13,705.966 2140.76,707.171 2147.39,708.344 2154.02,709.548 2160.65,710.93 2167.28,712.355 2173.91,713.686 2180.54,714.995 2187.18,716.262 2193.81,717.566 2200.44,718.971 2207.07,720.175 2213.7,721.35 2220.33,722.583 2226.96,723.743 2233.59,725.335 2240.22,726.606 2246.86,727.697 2253.49,728.977 2260.12,730.315 2266.75,731.432 2273.38,732.888 2280.01,734.19 2286.64,735.39 2293.27,736.105 "/>
<path clip-path="url(#clip680)" d="M1784.69 248.629 L2282.7 248.629 L2282.7 93.1086 L1784.69 93.1086  Z" fill="#ffffff" fill-rule="evenodd" fill-opacity="1"/>
<polyline clip-path="url(#clip680)" style="stroke:#000000; stroke-linecap:round; stroke-linejoin:round; stroke-width:4; stroke-opacity:1; fill:none" points="1784.69,248.629 2282.7,248.629 2282.7,93.1086 1784.69,93.1086 1784.69,248.629 "/>
<polyline clip-path="url(#clip680)" style="stroke:#3da44d; stroke-linecap:round; stroke-linejoin:round; stroke-width:4; stroke-opacity:1; fill:none" points="1808.04,144.949 1948.15,144.949 "/>
<path clip-path="url(#clip680)" d="M1997.06 157.298 L1997.06 148.016 L1989.42 148.016 L1989.42 144.173 L2001.69 144.173 L2001.69 159.011 Q1998.98 160.932 1995.71 161.928 Q1992.45 162.9 1988.75 162.9 Q1980.65 162.9 1976.06 158.178 Q1971.5 153.432 1971.5 144.983 Q1971.5 136.511 1976.06 131.789 Q1980.65 127.044 1988.75 127.044 Q1992.13 127.044 1995.16 127.877 Q1998.21 128.71 2000.78 130.331 L2000.78 135.307 Q1998.19 133.108 1995.28 131.997 Q1992.36 130.886 1989.14 130.886 Q1982.8 130.886 1979.6 134.428 Q1976.43 137.969 1976.43 144.983 Q1976.43 151.974 1979.6 155.516 Q1982.8 159.057 1989.14 159.057 Q1991.62 159.057 1993.56 158.641 Q1995.51 158.201 1997.06 157.298 Z" fill="#000000" fill-rule="nonzero" fill-opacity="1" /><path clip-path="url(#clip680)" d="M2007.89 147.344 L2020.37 147.344 L2020.37 151.141 L2007.89 151.141 L2007.89 147.344 Z" fill="#000000" fill-rule="nonzero" fill-opacity="1" /><path clip-path="url(#clip680)" d="M2048.05 128.803 L2048.05 133.363 Q2045.39 132.09 2043.03 131.465 Q2040.67 130.84 2038.47 130.84 Q2034.65 130.84 2032.57 132.321 Q2030.51 133.803 2030.51 136.534 Q2030.51 138.826 2031.87 140.007 Q2033.26 141.164 2037.1 141.882 L2039.93 142.46 Q2045.16 143.456 2047.64 145.979 Q2050.14 148.479 2050.14 152.692 Q2050.14 157.715 2046.76 160.307 Q2043.4 162.9 2036.9 162.9 Q2034.44 162.9 2031.66 162.344 Q2028.91 161.789 2025.95 160.701 L2025.95 155.886 Q2028.79 157.483 2031.52 158.293 Q2034.26 159.104 2036.9 159.104 Q2040.9 159.104 2043.08 157.53 Q2045.25 155.956 2045.25 153.039 Q2045.25 150.493 2043.68 149.057 Q2042.13 147.622 2038.56 146.905 L2035.71 146.349 Q2030.48 145.307 2028.15 143.085 Q2025.81 140.863 2025.81 136.905 Q2025.81 132.321 2029.02 129.682 Q2032.27 127.044 2037.94 127.044 Q2040.37 127.044 2042.89 127.483 Q2045.41 127.923 2048.05 128.803 Z" fill="#000000" fill-rule="nonzero" fill-opacity="1" /><path clip-path="url(#clip680)" d="M2068.03 164.636 Q2066.22 169.266 2064.51 170.678 Q2062.8 172.09 2059.93 172.09 L2056.52 172.09 L2056.52 168.525 L2059.02 168.525 Q2060.78 168.525 2061.76 167.692 Q2062.73 166.858 2063.91 163.756 L2064.67 161.812 L2054.19 136.303 L2058.7 136.303 L2066.8 156.581 L2074.9 136.303 L2079.42 136.303 L2068.03 164.636 Z" fill="#000000" fill-rule="nonzero" fill-opacity="1" /><path clip-path="url(#clip680)" d="M2105.48 141.28 Q2107.08 138.409 2109.3 137.044 Q2111.52 135.678 2114.53 135.678 Q2118.58 135.678 2120.78 138.525 Q2122.98 141.349 2122.98 146.581 L2122.98 162.229 L2118.7 162.229 L2118.7 146.719 Q2118.7 142.993 2117.38 141.187 Q2116.06 139.382 2113.35 139.382 Q2110.04 139.382 2108.12 141.581 Q2106.2 143.78 2106.2 147.576 L2106.2 162.229 L2101.92 162.229 L2101.92 146.719 Q2101.92 142.969 2100.6 141.187 Q2099.28 139.382 2096.52 139.382 Q2093.26 139.382 2091.34 141.604 Q2089.42 143.803 2089.42 147.576 L2089.42 162.229 L2085.14 162.229 L2085.14 136.303 L2089.42 136.303 L2089.42 140.331 Q2090.88 137.946 2092.91 136.812 Q2094.95 135.678 2097.75 135.678 Q2100.58 135.678 2102.54 137.113 Q2104.53 138.548 2105.48 141.28 Z" fill="#000000" fill-rule="nonzero" fill-opacity="1" /><path clip-path="url(#clip680)" d="M2135.6 158.34 L2135.6 172.09 L2131.32 172.09 L2131.32 136.303 L2135.6 136.303 L2135.6 140.238 Q2136.94 137.923 2138.98 136.812 Q2141.04 135.678 2143.89 135.678 Q2148.61 135.678 2151.55 139.428 Q2154.51 143.178 2154.51 149.289 Q2154.51 155.4 2151.55 159.15 Q2148.61 162.9 2143.89 162.9 Q2141.04 162.9 2138.98 161.789 Q2136.94 160.655 2135.6 158.34 M2150.09 149.289 Q2150.09 144.59 2148.14 141.928 Q2146.22 139.243 2142.84 139.243 Q2139.46 139.243 2137.52 141.928 Q2135.6 144.59 2135.6 149.289 Q2135.6 153.988 2137.52 156.673 Q2139.46 159.335 2142.84 159.335 Q2146.22 159.335 2148.14 156.673 Q2150.09 153.988 2150.09 149.289 Z" fill="#000000" fill-rule="nonzero" fill-opacity="1" /><path clip-path="url(#clip680)" d="M2161.76 127.669 L2168.05 127.669 L2183.38 156.581 L2183.38 127.669 L2187.91 127.669 L2187.91 162.229 L2181.62 162.229 L2166.29 133.317 L2166.29 162.229 L2161.76 162.229 L2161.76 127.669 Z" fill="#000000" fill-rule="nonzero" fill-opacity="1" /><path clip-path="url(#clip680)" d="M2219.21 148.201 L2219.21 150.284 L2199.63 150.284 Q2199.9 154.682 2202.26 156.997 Q2204.65 159.289 2208.89 159.289 Q2211.34 159.289 2213.63 158.687 Q2215.95 158.085 2218.21 156.881 L2218.21 160.909 Q2215.92 161.881 2213.51 162.391 Q2211.11 162.9 2208.63 162.9 Q2202.43 162.9 2198.79 159.289 Q2195.18 155.678 2195.18 149.52 Q2195.18 143.155 2198.61 139.428 Q2202.06 135.678 2207.89 135.678 Q2213.12 135.678 2216.15 139.057 Q2219.21 142.414 2219.21 148.201 M2214.95 146.951 Q2214.9 143.456 2212.98 141.372 Q2211.08 139.289 2207.94 139.289 Q2204.37 139.289 2202.22 141.303 Q2200.09 143.317 2199.76 146.974 L2214.95 146.951 Z" fill="#000000" fill-rule="nonzero" fill-opacity="1" /><path clip-path="url(#clip680)" d="M2230.41 128.942 L2230.41 136.303 L2239.19 136.303 L2239.19 139.613 L2230.41 139.613 L2230.41 153.687 Q2230.41 156.858 2231.27 157.761 Q2232.15 158.664 2234.81 158.664 L2239.19 158.664 L2239.19 162.229 L2234.81 162.229 Q2229.88 162.229 2228.01 160.4 Q2226.13 158.548 2226.13 153.687 L2226.13 139.613 L2223.01 139.613 L2223.01 136.303 L2226.13 136.303 L2226.13 128.942 L2230.41 128.942 Z" fill="#000000" fill-rule="nonzero" fill-opacity="1" /><polyline clip-path="url(#clip680)" style="stroke:#e26f46; stroke-linecap:round; stroke-linejoin:round; stroke-width:4; stroke-opacity:1; fill:none" points="1808.04,196.789 1948.15,196.789 "/>
<path clip-path="url(#clip680)" d="M1971.5 179.509 L1976.18 179.509 L1976.18 210.133 L1993.01 210.133 L1993.01 214.069 L1971.5 214.069 L1971.5 179.509 Z" fill="#000000" fill-rule="nonzero" fill-opacity="1" /><path clip-path="url(#clip680)" d="M2010.55 184.115 L2004.21 201.314 L2016.92 201.314 L2010.55 184.115 M2007.91 179.509 L2013.21 179.509 L2026.39 214.069 L2021.52 214.069 L2018.38 205.203 L2002.8 205.203 L1999.65 214.069 L1994.72 214.069 L2007.91 179.509 Z" fill="#000000" fill-rule="nonzero" fill-opacity="1" /><path clip-path="url(#clip680)" d="M2028.05 199.184 L2040.53 199.184 L2040.53 202.981 L2028.05 202.981 L2028.05 199.184 Z" fill="#000000" fill-rule="nonzero" fill-opacity="1" /><path clip-path="url(#clip680)" d="M2068.21 180.643 L2068.21 185.203 Q2065.55 183.93 2063.19 183.305 Q2060.83 182.68 2058.63 182.68 Q2054.81 182.68 2052.73 184.161 Q2050.67 185.643 2050.67 188.374 Q2050.67 190.666 2052.03 191.847 Q2053.42 193.004 2057.27 193.722 L2060.09 194.3 Q2065.32 195.296 2067.8 197.819 Q2070.3 200.319 2070.3 204.532 Q2070.3 209.555 2066.92 212.147 Q2063.56 214.74 2057.06 214.74 Q2054.6 214.74 2051.83 214.184 Q2049.07 213.629 2046.11 212.541 L2046.11 207.726 Q2048.96 209.323 2051.69 210.133 Q2054.42 210.944 2057.06 210.944 Q2061.06 210.944 2063.24 209.37 Q2065.41 207.796 2065.41 204.879 Q2065.41 202.333 2063.84 200.897 Q2062.29 199.462 2058.72 198.745 L2055.88 198.189 Q2050.65 197.147 2048.31 194.925 Q2045.97 192.703 2045.97 188.745 Q2045.97 184.161 2049.19 181.522 Q2052.43 178.884 2058.1 178.884 Q2060.53 178.884 2063.05 179.323 Q2065.58 179.763 2068.21 180.643 Z" fill="#000000" fill-rule="nonzero" fill-opacity="1" /><path clip-path="url(#clip680)" d="M2088.19 216.476 Q2086.39 221.106 2084.67 222.518 Q2082.96 223.93 2080.09 223.93 L2076.69 223.93 L2076.69 220.365 L2079.19 220.365 Q2080.95 220.365 2081.92 219.532 Q2082.89 218.698 2084.07 215.596 L2084.83 213.652 L2074.35 188.143 L2078.86 188.143 L2086.96 208.421 L2095.07 188.143 L2099.58 188.143 L2088.19 216.476 Z" fill="#000000" fill-rule="nonzero" fill-opacity="1" /><path clip-path="url(#clip680)" d="M2125.64 193.12 Q2127.24 190.249 2129.46 188.884 Q2131.69 187.518 2134.7 187.518 Q2138.75 187.518 2140.95 190.365 Q2143.14 193.189 2143.14 198.421 L2143.14 214.069 L2138.86 214.069 L2138.86 198.559 Q2138.86 194.833 2137.54 193.027 Q2136.22 191.222 2133.52 191.222 Q2130.2 191.222 2128.28 193.421 Q2126.36 195.62 2126.36 199.416 L2126.36 214.069 L2122.08 214.069 L2122.08 198.559 Q2122.08 194.809 2120.76 193.027 Q2119.44 191.222 2116.69 191.222 Q2113.42 191.222 2111.5 193.444 Q2109.58 195.643 2109.58 199.416 L2109.58 214.069 L2105.3 214.069 L2105.3 188.143 L2109.58 188.143 L2109.58 192.171 Q2111.04 189.786 2113.08 188.652 Q2115.11 187.518 2117.91 187.518 Q2120.74 187.518 2122.7 188.953 Q2124.7 190.388 2125.64 193.12 Z" fill="#000000" fill-rule="nonzero" fill-opacity="1" /><path clip-path="url(#clip680)" d="M2155.76 210.18 L2155.76 223.93 L2151.48 223.93 L2151.48 188.143 L2155.76 188.143 L2155.76 192.078 Q2157.1 189.763 2159.14 188.652 Q2161.2 187.518 2164.05 187.518 Q2168.77 187.518 2171.71 191.268 Q2174.67 195.018 2174.67 201.129 Q2174.67 207.24 2171.71 210.99 Q2168.77 214.74 2164.05 214.74 Q2161.2 214.74 2159.14 213.629 Q2157.1 212.495 2155.76 210.18 M2170.25 201.129 Q2170.25 196.43 2168.31 193.768 Q2166.39 191.083 2163.01 191.083 Q2159.63 191.083 2157.68 193.768 Q2155.76 196.43 2155.76 201.129 Q2155.76 205.828 2157.68 208.513 Q2159.63 211.175 2163.01 211.175 Q2166.39 211.175 2168.31 208.513 Q2170.25 205.828 2170.25 201.129 Z" fill="#000000" fill-rule="nonzero" fill-opacity="1" /><path clip-path="url(#clip680)" d="M2181.92 179.509 L2188.21 179.509 L2203.54 208.421 L2203.54 179.509 L2208.07 179.509 L2208.07 214.069 L2201.78 214.069 L2186.45 185.157 L2186.45 214.069 L2181.92 214.069 L2181.92 179.509 Z" fill="#000000" fill-rule="nonzero" fill-opacity="1" /><path clip-path="url(#clip680)" d="M2239.37 200.041 L2239.37 202.124 L2219.79 202.124 Q2220.07 206.522 2222.43 208.837 Q2224.81 211.129 2229.05 211.129 Q2231.5 211.129 2233.79 210.527 Q2236.11 209.925 2238.38 208.721 L2238.38 212.749 Q2236.08 213.721 2233.68 214.231 Q2231.27 214.74 2228.79 214.74 Q2222.59 214.74 2218.95 211.129 Q2215.34 207.518 2215.34 201.36 Q2215.34 194.995 2218.77 191.268 Q2222.22 187.518 2228.05 187.518 Q2233.28 187.518 2236.32 190.897 Q2239.37 194.254 2239.37 200.041 M2235.11 198.791 Q2235.07 195.296 2233.14 193.212 Q2231.25 191.129 2228.1 191.129 Q2224.53 191.129 2222.38 193.143 Q2220.25 195.157 2219.93 198.814 L2235.11 198.791 Z" fill="#000000" fill-rule="nonzero" fill-opacity="1" /><path clip-path="url(#clip680)" d="M2250.57 180.782 L2250.57 188.143 L2259.35 188.143 L2259.35 191.453 L2250.57 191.453 L2250.57 205.527 Q2250.57 208.698 2251.43 209.601 Q2252.31 210.504 2254.97 210.504 L2259.35 210.504 L2259.35 214.069 L2254.97 214.069 Q2250.04 214.069 2248.17 212.24 Q2246.29 210.388 2246.29 205.527 L2246.29 191.453 L2243.17 191.453 L2243.17 188.143 L2246.29 188.143 L2246.29 180.782 L2250.57 180.782 Z" fill="#000000" fill-rule="nonzero" fill-opacity="1" /></svg>
