<?xml version="1.0" encoding="utf-8"?>
<svg xmlns="http://www.w3.org/2000/svg" xmlns:xlink="http://www.w3.org/1999/xlink" width="600" height="400" viewBox="0 0 2400 1600">
<defs>
  <clipPath id="clip990">
    <rect x="0" y="0" width="2400" height="1600"/>
  </clipPath>
</defs>
<path clip-path="url(#clip990)" d="M0 1600 L2400 1600 L2400 0 L0 0  Z" fill="#ffffff" fill-rule="evenodd" fill-opacity="1"/>
<defs>
  <clipPath id="clip991">
    <rect x="480" y="0" width="1681" height="1600"/>
  </clipPath>
</defs>
<path clip-path="url(#clip990)" d="M287.366 1486.45 L2352.76 1486.45 L2352.76 47.2441 L287.366 47.2441  Z" fill="#ffffff" fill-rule="evenodd" fill-opacity="1"/>
<defs>
  <clipPath id="clip992">
    <rect x="287" y="47" width="2066" height="1440"/>
  </clipPath>
</defs>
<polyline clip-path="url(#clip992)" style="stroke:#000000; stroke-linecap:round; stroke-linejoin:round; stroke-width:2; stroke-opacity:0.1; fill:none" points="614.576,1486.45 614.576,47.2441 "/>
<polyline clip-path="url(#clip992)" style="stroke:#000000; stroke-linecap:round; stroke-linejoin:round; stroke-width:2; stroke-opacity:0.1; fill:none" points="950.521,1486.45 950.521,47.2441 "/>
<polyline clip-path="url(#clip992)" style="stroke:#000000; stroke-linecap:round; stroke-linejoin:round; stroke-width:2; stroke-opacity:0.1; fill:none" points="1286.47,1486.45 1286.47,47.2441 "/>
<polyline clip-path="url(#clip992)" style="stroke:#000000; stroke-linecap:round; stroke-linejoin:round; stroke-width:2; stroke-opacity:0.1; fill:none" points="1622.41,1486.45 1622.41,47.2441 "/>
<polyline clip-path="url(#clip992)" style="stroke:#000000; stroke-linecap:round; stroke-linejoin:round; stroke-width:2; stroke-opacity:0.1; fill:none" points="1958.36,1486.45 1958.36,47.2441 "/>
<polyline clip-path="url(#clip992)" style="stroke:#000000; stroke-linecap:round; stroke-linejoin:round; stroke-width:2; stroke-opacity:0.1; fill:none" points="2294.3,1486.45 2294.3,47.2441 "/>
<polyline clip-path="url(#clip990)" style="stroke:#000000; stroke-linecap:round; stroke-linejoin:round; stroke-width:4; stroke-opacity:1; fill:none" points="287.366,1486.45 2352.76,1486.45 "/>
<polyline clip-path="url(#clip990)" style="stroke:#000000; stroke-linecap:round; stroke-linejoin:round; stroke-width:4; stroke-opacity:1; fill:none" points="614.576,1486.45 614.576,1467.55 "/>
<polyline clip-path="url(#clip990)" style="stroke:#000000; stroke-linecap:round; stroke-linejoin:round; stroke-width:4; stroke-opacity:1; fill:none" points="950.521,1486.45 950.521,1467.55 "/>
<polyline clip-path="url(#clip990)" style="stroke:#000000; stroke-linecap:round; stroke-linejoin:round; stroke-width:4; stroke-opacity:1; fill:none" points="1286.47,1486.45 1286.47,1467.55 "/>
<polyline clip-path="url(#clip990)" style="stroke:#000000; stroke-linecap:round; stroke-linejoin:round; stroke-width:4; stroke-opacity:1; fill:none" points="1622.41,1486.45 1622.41,1467.55 "/>
<polyline clip-path="url(#clip990)" style="stroke:#000000; stroke-linecap:round; stroke-linejoin:round; stroke-width:4; stroke-opacity:1; fill:none" points="1958.36,1486.45 1958.36,1467.55 "/>
<polyline clip-path="url(#clip990)" style="stroke:#000000; stroke-linecap:round; stroke-linejoin:round; stroke-width:4; stroke-opacity:1; fill:none" points="2294.3,1486.45 2294.3,1467.55 "/>
<path clip-path="url(#clip990)" d="M604.854 1514.29 L623.211 1514.29 L623.211 1518.22 L609.137 1518.22 L609.137 1526.7 Q610.155 1526.35 611.174 1526.19 Q612.192 1526 613.211 1526 Q618.998 1526 622.377 1529.17 Q625.757 1532.34 625.757 1537.76 Q625.757 1543.34 622.285 1546.44 Q618.812 1549.52 612.493 1549.52 Q610.317 1549.52 608.049 1549.15 Q605.803 1548.78 603.396 1548.04 L603.396 1543.34 Q605.479 1544.47 607.701 1545.03 Q609.924 1545.58 612.4 1545.58 Q616.405 1545.58 618.743 1543.48 Q621.081 1541.37 621.081 1537.76 Q621.081 1534.15 618.743 1532.04 Q616.405 1529.94 612.4 1529.94 Q610.525 1529.94 608.65 1530.35 Q606.799 1530.77 604.854 1531.65 L604.854 1514.29 Z" fill="#000000" fill-rule="nonzero" fill-opacity="1" /><path clip-path="url(#clip990)" d="M925.209 1544.91 L932.848 1544.91 L932.848 1518.55 L924.538 1520.21 L924.538 1515.95 L932.802 1514.29 L937.477 1514.29 L937.477 1544.91 L945.116 1544.91 L945.116 1548.85 L925.209 1548.85 L925.209 1544.91 Z" fill="#000000" fill-rule="nonzero" fill-opacity="1" /><path clip-path="url(#clip990)" d="M964.561 1517.37 Q960.95 1517.37 959.121 1520.93 Q957.315 1524.47 957.315 1531.6 Q957.315 1538.71 959.121 1542.27 Q960.95 1545.82 964.561 1545.82 Q968.195 1545.82 970 1542.27 Q971.829 1538.71 971.829 1531.6 Q971.829 1524.47 970 1520.93 Q968.195 1517.37 964.561 1517.37 M964.561 1513.66 Q970.371 1513.66 973.426 1518.27 Q976.505 1522.85 976.505 1531.6 Q976.505 1540.33 973.426 1544.94 Q970.371 1549.52 964.561 1549.52 Q958.751 1549.52 955.672 1544.94 Q952.616 1540.33 952.616 1531.6 Q952.616 1522.85 955.672 1518.27 Q958.751 1513.66 964.561 1513.66 Z" fill="#000000" fill-rule="nonzero" fill-opacity="1" /><path clip-path="url(#clip990)" d="M1261.65 1544.91 L1269.29 1544.91 L1269.29 1518.55 L1260.98 1520.21 L1260.98 1515.95 L1269.24 1514.29 L1273.92 1514.29 L1273.92 1544.91 L1281.56 1544.91 L1281.56 1548.85 L1261.65 1548.85 L1261.65 1544.91 Z" fill="#000000" fill-rule="nonzero" fill-opacity="1" /><path clip-path="url(#clip990)" d="M1291.05 1514.29 L1309.41 1514.29 L1309.41 1518.22 L1295.33 1518.22 L1295.33 1526.7 Q1296.35 1526.35 1297.37 1526.19 Q1298.39 1526 1299.41 1526 Q1305.19 1526 1308.57 1529.17 Q1311.95 1532.34 1311.95 1537.76 Q1311.95 1543.34 1308.48 1546.44 Q1305.01 1549.52 1298.69 1549.52 Q1296.51 1549.52 1294.24 1549.15 Q1292 1548.78 1289.59 1548.04 L1289.59 1543.34 Q1291.67 1544.47 1293.9 1545.03 Q1296.12 1545.58 1298.6 1545.58 Q1302.6 1545.58 1304.94 1543.48 Q1307.28 1541.37 1307.28 1537.76 Q1307.28 1534.15 1304.94 1532.04 Q1302.6 1529.94 1298.6 1529.94 Q1296.72 1529.94 1294.85 1530.35 Q1292.99 1530.77 1291.05 1531.65 L1291.05 1514.29 Z" fill="#000000" fill-rule="nonzero" fill-opacity="1" /><path clip-path="url(#clip990)" d="M1601.18 1544.91 L1617.5 1544.91 L1617.5 1548.85 L1595.56 1548.85 L1595.56 1544.91 Q1598.22 1542.16 1602.81 1537.53 Q1607.41 1532.88 1608.59 1531.53 Q1610.84 1529.01 1611.72 1527.27 Q1612.62 1525.51 1612.62 1523.82 Q1612.62 1521.07 1610.68 1519.33 Q1608.75 1517.6 1605.65 1517.6 Q1603.45 1517.6 1601 1518.36 Q1598.57 1519.13 1595.79 1520.68 L1595.79 1515.95 Q1598.62 1514.82 1601.07 1514.24 Q1603.52 1513.66 1605.56 1513.66 Q1610.93 1513.66 1614.12 1516.35 Q1617.32 1519.03 1617.32 1523.52 Q1617.32 1525.65 1616.51 1527.57 Q1615.72 1529.47 1613.62 1532.07 Q1613.04 1532.74 1609.93 1535.95 Q1606.83 1539.15 1601.18 1544.91 Z" fill="#000000" fill-rule="nonzero" fill-opacity="1" /><path clip-path="url(#clip990)" d="M1637.32 1517.37 Q1633.71 1517.37 1631.88 1520.93 Q1630.07 1524.47 1630.07 1531.6 Q1630.07 1538.71 1631.88 1542.27 Q1633.71 1545.82 1637.32 1545.82 Q1640.95 1545.82 1642.76 1542.27 Q1644.59 1538.71 1644.59 1531.6 Q1644.59 1524.47 1642.76 1520.93 Q1640.95 1517.37 1637.32 1517.37 M1637.32 1513.66 Q1643.13 1513.66 1646.18 1518.27 Q1649.26 1522.85 1649.26 1531.6 Q1649.26 1540.33 1646.18 1544.94 Q1643.13 1549.52 1637.32 1549.52 Q1631.51 1549.52 1628.43 1544.94 Q1625.37 1540.33 1625.37 1531.6 Q1625.37 1522.85 1628.43 1518.27 Q1631.51 1513.66 1637.32 1513.66 Z" fill="#000000" fill-rule="nonzero" fill-opacity="1" /><path clip-path="url(#clip990)" d="M1937.63 1544.91 L1953.95 1544.91 L1953.95 1548.85 L1932 1548.85 L1932 1544.91 Q1934.66 1542.16 1939.25 1537.53 Q1943.85 1532.88 1945.03 1531.53 Q1947.28 1529.01 1948.16 1527.27 Q1949.06 1525.51 1949.06 1523.82 Q1949.06 1521.07 1947.12 1519.33 Q1945.2 1517.6 1942.09 1517.6 Q1939.9 1517.6 1937.44 1518.36 Q1935.01 1519.13 1932.23 1520.68 L1932.23 1515.95 Q1935.06 1514.82 1937.51 1514.24 Q1939.97 1513.66 1942 1513.66 Q1947.37 1513.66 1950.57 1516.35 Q1953.76 1519.03 1953.76 1523.52 Q1953.76 1525.65 1952.95 1527.57 Q1952.16 1529.47 1950.06 1532.07 Q1949.48 1532.74 1946.38 1535.95 Q1943.28 1539.15 1937.63 1544.91 Z" fill="#000000" fill-rule="nonzero" fill-opacity="1" /><path clip-path="url(#clip990)" d="M1963.81 1514.29 L1982.16 1514.29 L1982.16 1518.22 L1968.09 1518.22 L1968.09 1526.7 Q1969.11 1526.35 1970.13 1526.19 Q1971.15 1526 1972.16 1526 Q1977.95 1526 1981.33 1529.17 Q1984.71 1532.34 1984.71 1537.76 Q1984.71 1543.34 1981.24 1546.44 Q1977.77 1549.52 1971.45 1549.52 Q1969.27 1549.52 1967 1549.15 Q1964.76 1548.78 1962.35 1548.04 L1962.35 1543.34 Q1964.43 1544.47 1966.66 1545.03 Q1968.88 1545.58 1971.35 1545.58 Q1975.36 1545.58 1977.7 1543.48 Q1980.03 1541.37 1980.03 1537.76 Q1980.03 1534.15 1977.7 1532.04 Q1975.36 1529.94 1971.35 1529.94 Q1969.48 1529.94 1967.6 1530.35 Q1965.75 1530.77 1963.81 1531.65 L1963.81 1514.29 Z" fill="#000000" fill-rule="nonzero" fill-opacity="1" /><path clip-path="url(#clip990)" d="M2283.14 1530.21 Q2286.5 1530.93 2288.38 1533.2 Q2290.27 1535.47 2290.27 1538.8 Q2290.27 1543.92 2286.76 1546.72 Q2283.24 1549.52 2276.76 1549.52 Q2274.58 1549.52 2272.26 1549.08 Q2269.97 1548.66 2267.52 1547.81 L2267.52 1543.29 Q2269.46 1544.43 2271.78 1545.01 Q2274.09 1545.58 2276.62 1545.58 Q2281.01 1545.58 2283.31 1543.85 Q2285.62 1542.11 2285.62 1538.8 Q2285.62 1535.75 2283.47 1534.03 Q2281.34 1532.3 2277.52 1532.3 L2273.49 1532.3 L2273.49 1528.45 L2277.7 1528.45 Q2281.15 1528.45 2282.98 1527.09 Q2284.81 1525.7 2284.81 1523.11 Q2284.81 1520.45 2282.91 1519.03 Q2281.04 1517.6 2277.52 1517.6 Q2275.6 1517.6 2273.4 1518.01 Q2271.2 1518.43 2268.56 1519.31 L2268.56 1515.14 Q2271.22 1514.4 2273.54 1514.03 Q2275.88 1513.66 2277.94 1513.66 Q2283.26 1513.66 2286.36 1516.09 Q2289.46 1518.5 2289.46 1522.62 Q2289.46 1525.49 2287.82 1527.48 Q2286.18 1529.45 2283.14 1530.21 Z" fill="#000000" fill-rule="nonzero" fill-opacity="1" /><path clip-path="url(#clip990)" d="M2309.14 1517.37 Q2305.53 1517.37 2303.7 1520.93 Q2301.89 1524.47 2301.89 1531.6 Q2301.89 1538.71 2303.7 1542.27 Q2305.53 1545.82 2309.14 1545.82 Q2312.77 1545.82 2314.58 1542.27 Q2316.41 1538.71 2316.41 1531.6 Q2316.41 1524.47 2314.58 1520.93 Q2312.77 1517.37 2309.14 1517.37 M2309.14 1513.66 Q2314.95 1513.66 2318.01 1518.27 Q2321.08 1522.85 2321.08 1531.6 Q2321.08 1540.33 2318.01 1544.94 Q2314.95 1549.52 2309.14 1549.52 Q2303.33 1549.52 2300.25 1544.94 Q2297.19 1540.33 2297.19 1531.6 Q2297.19 1522.85 2300.25 1518.27 Q2303.33 1513.66 2309.14 1513.66 Z" fill="#000000" fill-rule="nonzero" fill-opacity="1" /><polyline clip-path="url(#clip992)" style="stroke:#000000; stroke-linecap:round; stroke-linejoin:round; stroke-width:2; stroke-opacity:0.1; fill:none" points="287.366,1326.64 2352.76,1326.64 "/>
<polyline clip-path="url(#clip992)" style="stroke:#000000; stroke-linecap:round; stroke-linejoin:round; stroke-width:2; stroke-opacity:0.1; fill:none" points="287.366,1049.39 2352.76,1049.39 "/>
<polyline clip-path="url(#clip992)" style="stroke:#000000; stroke-linecap:round; stroke-linejoin:round; stroke-width:2; stroke-opacity:0.1; fill:none" points="287.366,772.132 2352.76,772.132 "/>
<polyline clip-path="url(#clip992)" style="stroke:#000000; stroke-linecap:round; stroke-linejoin:round; stroke-width:2; stroke-opacity:0.1; fill:none" points="287.366,494.877 2352.76,494.877 "/>
<polyline clip-path="url(#clip992)" style="stroke:#000000; stroke-linecap:round; stroke-linejoin:round; stroke-width:2; stroke-opacity:0.1; fill:none" points="287.366,217.623 2352.76,217.623 "/>
<polyline clip-path="url(#clip990)" style="stroke:#000000; stroke-linecap:round; stroke-linejoin:round; stroke-width:4; stroke-opacity:1; fill:none" points="287.366,1486.45 287.366,47.2441 "/>
<polyline clip-path="url(#clip990)" style="stroke:#000000; stroke-linecap:round; stroke-linejoin:round; stroke-width:4; stroke-opacity:1; fill:none" points="287.366,1326.64 306.264,1326.64 "/>
<polyline clip-path="url(#clip990)" style="stroke:#000000; stroke-linecap:round; stroke-linejoin:round; stroke-width:4; stroke-opacity:1; fill:none" points="287.366,1049.39 306.264,1049.39 "/>
<polyline clip-path="url(#clip990)" style="stroke:#000000; stroke-linecap:round; stroke-linejoin:round; stroke-width:4; stroke-opacity:1; fill:none" points="287.366,772.132 306.264,772.132 "/>
<polyline clip-path="url(#clip990)" style="stroke:#000000; stroke-linecap:round; stroke-linejoin:round; stroke-width:4; stroke-opacity:1; fill:none" points="287.366,494.877 306.264,494.877 "/>
<polyline clip-path="url(#clip990)" style="stroke:#000000; stroke-linecap:round; stroke-linejoin:round; stroke-width:4; stroke-opacity:1; fill:none" points="287.366,217.623 306.264,217.623 "/>
<path clip-path="url(#clip990)" d="M114.26 1327.09 L143.936 1327.09 L143.936 1331.03 L114.26 1331.03 L114.26 1327.09 Z" fill="#000000" fill-rule="nonzero" fill-opacity="1" /><path clip-path="url(#clip990)" d="M164.028 1312.44 Q160.417 1312.44 158.589 1316.01 Q156.783 1319.55 156.783 1326.68 Q156.783 1333.78 158.589 1337.35 Q160.417 1340.89 164.028 1340.89 Q167.663 1340.89 169.468 1337.35 Q171.297 1333.78 171.297 1326.68 Q171.297 1319.55 169.468 1316.01 Q167.663 1312.44 164.028 1312.44 M164.028 1308.74 Q169.839 1308.74 172.894 1313.34 Q175.973 1317.93 175.973 1326.68 Q175.973 1335.4 172.894 1340.01 Q169.839 1344.59 164.028 1344.59 Q158.218 1344.59 155.14 1340.01 Q152.084 1335.4 152.084 1326.68 Q152.084 1317.93 155.14 1313.34 Q158.218 1308.74 164.028 1308.74 Z" fill="#000000" fill-rule="nonzero" fill-opacity="1" /><path clip-path="url(#clip990)" d="M184.19 1338.04 L189.075 1338.04 L189.075 1343.92 L184.19 1343.92 L184.19 1338.04 Z" fill="#000000" fill-rule="nonzero" fill-opacity="1" /><path clip-path="url(#clip990)" d="M199.306 1309.36 L217.662 1309.36 L217.662 1313.3 L203.588 1313.3 L203.588 1321.77 Q204.607 1321.42 205.625 1321.26 Q206.644 1321.07 207.662 1321.07 Q213.449 1321.07 216.829 1324.25 Q220.209 1327.42 220.209 1332.83 Q220.209 1338.41 216.736 1341.51 Q213.264 1344.59 206.945 1344.59 Q204.769 1344.59 202.5 1344.22 Q200.255 1343.85 197.848 1343.11 L197.848 1338.41 Q199.931 1339.55 202.153 1340.1 Q204.375 1340.66 206.852 1340.66 Q210.857 1340.66 213.195 1338.55 Q215.533 1336.44 215.533 1332.83 Q215.533 1329.22 213.195 1327.12 Q210.857 1325.01 206.852 1325.01 Q204.977 1325.01 203.102 1325.43 Q201.25 1325.84 199.306 1326.72 L199.306 1309.36 Z" fill="#000000" fill-rule="nonzero" fill-opacity="1" /><path clip-path="url(#clip990)" d="M239.422 1312.44 Q235.81 1312.44 233.982 1316.01 Q232.176 1319.55 232.176 1326.68 Q232.176 1333.78 233.982 1337.35 Q235.81 1340.89 239.422 1340.89 Q243.056 1340.89 244.861 1337.35 Q246.69 1333.78 246.69 1326.68 Q246.69 1319.55 244.861 1316.01 Q243.056 1312.44 239.422 1312.44 M239.422 1308.74 Q245.232 1308.74 248.287 1313.34 Q251.366 1317.93 251.366 1326.68 Q251.366 1335.4 248.287 1340.01 Q245.232 1344.59 239.422 1344.59 Q233.611 1344.59 230.533 1340.01 Q227.477 1335.4 227.477 1326.68 Q227.477 1317.93 230.533 1313.34 Q233.611 1308.74 239.422 1308.74 Z" fill="#000000" fill-rule="nonzero" fill-opacity="1" /><path clip-path="url(#clip990)" d="M115.256 1049.84 L144.931 1049.84 L144.931 1053.77 L115.256 1053.77 L115.256 1049.84 Z" fill="#000000" fill-rule="nonzero" fill-opacity="1" /><path clip-path="url(#clip990)" d="M165.024 1035.19 Q161.413 1035.19 159.584 1038.75 Q157.778 1042.29 157.778 1049.42 Q157.778 1056.53 159.584 1060.09 Q161.413 1063.63 165.024 1063.63 Q168.658 1063.63 170.464 1060.09 Q172.292 1056.53 172.292 1049.42 Q172.292 1042.29 170.464 1038.75 Q168.658 1035.19 165.024 1035.19 M165.024 1031.48 Q170.834 1031.48 173.889 1036.09 Q176.968 1040.67 176.968 1049.42 Q176.968 1058.15 173.889 1062.75 Q170.834 1067.34 165.024 1067.34 Q159.214 1067.34 156.135 1062.75 Q153.079 1058.15 153.079 1049.42 Q153.079 1040.67 156.135 1036.09 Q159.214 1031.48 165.024 1031.48 Z" fill="#000000" fill-rule="nonzero" fill-opacity="1" /><path clip-path="url(#clip990)" d="M185.186 1060.79 L190.07 1060.79 L190.07 1066.67 L185.186 1066.67 L185.186 1060.79 Z" fill="#000000" fill-rule="nonzero" fill-opacity="1" /><path clip-path="url(#clip990)" d="M204.283 1062.73 L220.602 1062.73 L220.602 1066.67 L198.658 1066.67 L198.658 1062.73 Q201.32 1059.98 205.903 1055.35 Q210.51 1050.69 211.69 1049.35 Q213.936 1046.83 214.815 1045.09 Q215.718 1043.33 215.718 1041.64 Q215.718 1038.89 213.774 1037.15 Q211.852 1035.42 208.75 1035.42 Q206.551 1035.42 204.098 1036.18 Q201.667 1036.94 198.889 1038.5 L198.889 1033.77 Q201.713 1032.64 204.167 1032.06 Q206.621 1031.48 208.658 1031.48 Q214.028 1031.48 217.223 1034.17 Q220.417 1036.85 220.417 1041.34 Q220.417 1043.47 219.607 1045.39 Q218.82 1047.29 216.713 1049.88 Q216.135 1050.56 213.033 1053.77 Q209.931 1056.97 204.283 1062.73 Z" fill="#000000" fill-rule="nonzero" fill-opacity="1" /><path clip-path="url(#clip990)" d="M230.463 1032.11 L248.82 1032.11 L248.82 1036.04 L234.746 1036.04 L234.746 1044.51 Q235.764 1044.17 236.783 1044.01 Q237.801 1043.82 238.82 1043.82 Q244.607 1043.82 247.986 1046.99 Q251.366 1050.16 251.366 1055.58 Q251.366 1061.16 247.894 1064.26 Q244.421 1067.34 238.102 1067.34 Q235.926 1067.34 233.658 1066.97 Q231.412 1066.6 229.005 1065.86 L229.005 1061.16 Q231.088 1062.29 233.31 1062.85 Q235.533 1063.4 238.009 1063.4 Q242.014 1063.4 244.352 1061.3 Q246.69 1059.19 246.69 1055.58 Q246.69 1051.97 244.352 1049.86 Q242.014 1047.76 238.009 1047.76 Q236.135 1047.76 234.26 1048.17 Q232.408 1048.59 230.463 1049.47 L230.463 1032.11 Z" fill="#000000" fill-rule="nonzero" fill-opacity="1" /><path clip-path="url(#clip990)" d="M164.028 757.931 Q160.417 757.931 158.589 761.496 Q156.783 765.037 156.783 772.167 Q156.783 779.273 158.589 782.838 Q160.417 786.38 164.028 786.38 Q167.663 786.38 169.468 782.838 Q171.297 779.273 171.297 772.167 Q171.297 765.037 169.468 761.496 Q167.663 757.931 164.028 757.931 M164.028 754.227 Q169.839 754.227 172.894 758.834 Q175.973 763.417 175.973 772.167 Q175.973 780.894 172.894 785.5 Q169.839 790.083 164.028 790.083 Q158.218 790.083 155.14 785.5 Q152.084 780.894 152.084 772.167 Q152.084 763.417 155.14 758.834 Q158.218 754.227 164.028 754.227 Z" fill="#000000" fill-rule="nonzero" fill-opacity="1" /><path clip-path="url(#clip990)" d="M184.19 783.533 L189.075 783.533 L189.075 789.412 L184.19 789.412 L184.19 783.533 Z" fill="#000000" fill-rule="nonzero" fill-opacity="1" /><path clip-path="url(#clip990)" d="M209.26 757.931 Q205.649 757.931 203.82 761.496 Q202.014 765.037 202.014 772.167 Q202.014 779.273 203.82 782.838 Q205.649 786.38 209.26 786.38 Q212.894 786.38 214.699 782.838 Q216.528 779.273 216.528 772.167 Q216.528 765.037 214.699 761.496 Q212.894 757.931 209.26 757.931 M209.26 754.227 Q215.07 754.227 218.125 758.834 Q221.204 763.417 221.204 772.167 Q221.204 780.894 218.125 785.5 Q215.07 790.083 209.26 790.083 Q203.449 790.083 200.371 785.5 Q197.315 780.894 197.315 772.167 Q197.315 763.417 200.371 758.834 Q203.449 754.227 209.26 754.227 Z" fill="#000000" fill-rule="nonzero" fill-opacity="1" /><path clip-path="url(#clip990)" d="M239.422 757.931 Q235.81 757.931 233.982 761.496 Q232.176 765.037 232.176 772.167 Q232.176 779.273 233.982 782.838 Q235.81 786.38 239.422 786.38 Q243.056 786.38 244.861 782.838 Q246.69 779.273 246.69 772.167 Q246.69 765.037 244.861 761.496 Q243.056 757.931 239.422 757.931 M239.422 754.227 Q245.232 754.227 248.287 758.834 Q251.366 763.417 251.366 772.167 Q251.366 780.894 248.287 785.5 Q245.232 790.083 239.422 790.083 Q233.611 790.083 230.533 785.5 Q227.477 780.894 227.477 772.167 Q227.477 763.417 230.533 758.834 Q233.611 754.227 239.422 754.227 Z" fill="#000000" fill-rule="nonzero" fill-opacity="1" /><path clip-path="url(#clip990)" d="M165.024 480.676 Q161.413 480.676 159.584 484.241 Q157.778 487.782 157.778 494.912 Q157.778 502.018 159.584 505.583 Q161.413 509.125 165.024 509.125 Q168.658 509.125 170.464 505.583 Q172.292 502.018 172.292 494.912 Q172.292 487.782 170.464 484.241 Q168.658 480.676 165.024 480.676 M165.024 476.972 Q170.834 476.972 173.889 481.579 Q176.968 486.162 176.968 494.912 Q176.968 503.639 173.889 508.245 Q170.834 512.829 165.024 512.829 Q159.214 512.829 156.135 508.245 Q153.079 503.639 153.079 494.912 Q153.079 486.162 156.135 481.579 Q159.214 476.972 165.024 476.972 Z" fill="#000000" fill-rule="nonzero" fill-opacity="1" /><path clip-path="url(#clip990)" d="M185.186 506.278 L190.07 506.278 L190.07 512.157 L185.186 512.157 L185.186 506.278 Z" fill="#000000" fill-rule="nonzero" fill-opacity="1" /><path clip-path="url(#clip990)" d="M204.283 508.222 L220.602 508.222 L220.602 512.157 L198.658 512.157 L198.658 508.222 Q201.32 505.468 205.903 500.838 Q210.51 496.185 211.69 494.843 Q213.936 492.319 214.815 490.583 Q215.718 488.824 215.718 487.134 Q215.718 484.38 213.774 482.644 Q211.852 480.907 208.75 480.907 Q206.551 480.907 204.098 481.671 Q201.667 482.435 198.889 483.986 L198.889 479.264 Q201.713 478.13 204.167 477.551 Q206.621 476.972 208.658 476.972 Q214.028 476.972 217.223 479.658 Q220.417 482.343 220.417 486.833 Q220.417 488.963 219.607 490.884 Q218.82 492.782 216.713 495.375 Q216.135 496.046 213.033 499.264 Q209.931 502.458 204.283 508.222 Z" fill="#000000" fill-rule="nonzero" fill-opacity="1" /><path clip-path="url(#clip990)" d="M230.463 477.597 L248.82 477.597 L248.82 481.532 L234.746 481.532 L234.746 490.005 Q235.764 489.657 236.783 489.495 Q237.801 489.31 238.82 489.31 Q244.607 489.31 247.986 492.482 Q251.366 495.653 251.366 501.069 Q251.366 506.648 247.894 509.75 Q244.421 512.829 238.102 512.829 Q235.926 512.829 233.658 512.458 Q231.412 512.088 229.005 511.347 L229.005 506.648 Q231.088 507.782 233.31 508.338 Q235.533 508.893 238.009 508.893 Q242.014 508.893 244.352 506.787 Q246.69 504.681 246.69 501.069 Q246.69 497.458 244.352 495.352 Q242.014 493.245 238.009 493.245 Q236.135 493.245 234.26 493.662 Q232.408 494.079 230.463 494.958 L230.463 477.597 Z" fill="#000000" fill-rule="nonzero" fill-opacity="1" /><path clip-path="url(#clip990)" d="M164.028 203.421 Q160.417 203.421 158.589 206.986 Q156.783 210.528 156.783 217.657 Q156.783 224.764 158.589 228.328 Q160.417 231.87 164.028 231.87 Q167.663 231.87 169.468 228.328 Q171.297 224.764 171.297 217.657 Q171.297 210.528 169.468 206.986 Q167.663 203.421 164.028 203.421 M164.028 199.718 Q169.839 199.718 172.894 204.324 Q175.973 208.907 175.973 217.657 Q175.973 226.384 172.894 230.99 Q169.839 235.574 164.028 235.574 Q158.218 235.574 155.14 230.99 Q152.084 226.384 152.084 217.657 Q152.084 208.907 155.14 204.324 Q158.218 199.718 164.028 199.718 Z" fill="#000000" fill-rule="nonzero" fill-opacity="1" /><path clip-path="url(#clip990)" d="M184.19 229.023 L189.075 229.023 L189.075 234.903 L184.19 234.903 L184.19 229.023 Z" fill="#000000" fill-rule="nonzero" fill-opacity="1" /><path clip-path="url(#clip990)" d="M199.306 200.343 L217.662 200.343 L217.662 204.278 L203.588 204.278 L203.588 212.75 Q204.607 212.403 205.625 212.241 Q206.644 212.055 207.662 212.055 Q213.449 212.055 216.829 215.227 Q220.209 218.398 220.209 223.815 Q220.209 229.393 216.736 232.495 Q213.264 235.574 206.945 235.574 Q204.769 235.574 202.5 235.203 Q200.255 234.833 197.848 234.092 L197.848 229.393 Q199.931 230.528 202.153 231.083 Q204.375 231.639 206.852 231.639 Q210.857 231.639 213.195 229.532 Q215.533 227.426 215.533 223.815 Q215.533 220.204 213.195 218.097 Q210.857 215.991 206.852 215.991 Q204.977 215.991 203.102 216.407 Q201.25 216.824 199.306 217.704 L199.306 200.343 Z" fill="#000000" fill-rule="nonzero" fill-opacity="1" /><path clip-path="url(#clip990)" d="M239.422 203.421 Q235.81 203.421 233.982 206.986 Q232.176 210.528 232.176 217.657 Q232.176 224.764 233.982 228.328 Q235.81 231.87 239.422 231.87 Q243.056 231.87 244.861 228.328 Q246.69 224.764 246.69 217.657 Q246.69 210.528 244.861 206.986 Q243.056 203.421 239.422 203.421 M239.422 199.718 Q245.232 199.718 248.287 204.324 Q251.366 208.907 251.366 217.657 Q251.366 226.384 248.287 230.99 Q245.232 235.574 239.422 235.574 Q233.611 235.574 230.533 230.99 Q227.477 226.384 227.477 217.657 Q227.477 208.907 230.533 204.324 Q233.611 199.718 239.422 199.718 Z" fill="#000000" fill-rule="nonzero" fill-opacity="1" /><path clip-path="url(#clip990)" d="M20.2815 767.712 L56.964 776.826 Q58.1234 777.084 58.4132 777.084 Q58.7997 777.084 58.9607 776.987 Q59.154 776.859 59.315 776.15 Q59.476 775.409 59.476 773.928 Q59.476 773.38 59.476 773.187 Q59.476 772.994 59.5404 772.704 Q59.6048 772.414 59.7659 772.317 Q59.9269 772.221 60.1845 772.221 Q61.505 772.221 61.505 773.38 Q61.505 774.475 61.4084 776.762 Q61.3117 779.049 61.3117 780.176 Q61.3117 781.271 61.4084 783.493 Q61.505 785.715 61.505 786.778 Q61.505 787.164 61.3117 787.39 Q61.1507 787.615 60.9575 787.615 L60.7964 787.647 Q59.8947 787.647 59.6692 787.293 Q59.476 786.939 59.476 786.134 Q59.4438 783.364 59.0573 782.559 Q58.6709 781.754 57.286 781.367 L45.4987 778.404 Q49.46 782.366 49.46 786.198 Q49.46 789.902 46.5615 792.414 Q43.6307 794.894 38.8965 794.894 Q35.386 794.894 31.8434 793.509 Q28.3007 792.092 25.6276 789.902 Q22.9546 787.68 21.2799 784.781 Q19.5729 781.883 19.5729 779.016 Q19.5729 777.181 20.6357 775.538 Q21.6985 773.863 24.1784 772.865 Q22.7613 772.028 21.2154 770.482 Q19.6374 768.936 19.6374 768.388 Q19.6374 768.066 19.8628 767.905 Q20.056 767.712 20.2815 767.712 M26.8193 773.799 Q26.4972 773.799 25.6921 774.057 Q24.8869 774.282 23.7919 774.797 Q22.6647 775.28 21.8596 776.408 Q21.0222 777.535 21.0222 779.016 Q21.0222 781.142 23.0834 783.429 Q25.1124 785.683 28.655 787.164 Q30.9738 788.098 35.2894 789.161 Q39.605 790.224 41.795 790.224 Q42.3103 790.224 42.89 790.192 Q43.4697 790.127 44.4359 789.87 Q45.402 789.612 46.1428 789.226 Q46.8835 788.807 47.431 787.97 Q47.9785 787.132 47.9785 786.005 Q47.9785 783.557 45.8851 781.11 Q43.7918 778.662 41.9238 777.631 Q41.7306 777.503 34.4198 775.667 Q27.1091 773.799 26.8193 773.799 Z" fill="#000000" fill-rule="nonzero" fill-opacity="1" /><path clip-path="url(#clip990)" d="M53.298 760.932 L51.8552 760.932 Q51.8552 755.386 48.9019 752.523 Q48.9019 751.734 49.0823 751.599 Q49.2626 751.463 50.0967 751.463 L75.9999 751.463 Q77.3751 751.463 77.8034 750.787 Q78.2318 750.111 78.2318 747.157 L78.2318 745.692 L79.6521 745.692 Q79.5168 747.315 79.5168 753.177 Q79.5168 759.038 79.6521 760.639 L78.2318 760.639 L78.2318 759.173 Q78.2318 756.265 77.826 755.566 Q77.3977 754.868 75.9999 754.868 L52.0806 754.868 Q53.298 757.28 53.298 760.932 Z" fill="#000000" fill-rule="nonzero" fill-opacity="1" /><polyline clip-path="url(#clip992)" style="stroke:#009af9; stroke-linecap:round; stroke-linejoin:round; stroke-width:8; stroke-opacity:1; fill:none" points="345.82,194.096 413.009,124.755 480.198,91.2149 547.387,90.9391 614.576,120.087 681.765,174.177 748.954,248.57 816.143,338.771 883.332,440.583 950.521,550.173 1017.71,664.103 1084.9,779.317 1152.09,893.082 1219.28,1002.86 1286.47,1106.1 1353.66,1200.09 1420.84,1281.79 1488.03,1347.85 1555.22,1394.76 1622.41,1419.17 1689.6,1418.24 1756.79,1390.03 1823.98,1333.84 1891.17,1250.4 1958.36,1142 2025.55,1012.39 2092.73,866.702 2159.92,711.134 2227.11,552.706 2294.3,398.929 "/>
<polyline clip-path="url(#clip992)" style="stroke:#e26f46; stroke-linecap:round; stroke-linejoin:round; stroke-width:8; stroke-opacity:1; fill:none" points="345.82,194.096 413.009,124.755 480.198,91.2149 547.387,90.9391 614.576,113.82 681.765,178.336 748.954,263.707 816.143,364.918 883.332,430.85 950.521,553.149 1017.71,678.873 1084.9,802.376 1152.09,914.191 1219.28,1006.57 1286.47,1088.77 1353.66,1158.69 1420.84,1306.53 1488.03,1334.5 1555.22,1353.08 1622.41,1361.05 1689.6,1390.14 1756.79,1366.96 1823.98,1332.14 1891.17,1284.25 1958.36,1029.35 2025.55,971.777 2092.73,899.667 2159.92,815.615 2227.11,448.776 2294.3,376.465 "/>
<polyline clip-path="url(#clip992)" style="stroke:#c271d2; stroke-linecap:round; stroke-linejoin:round; stroke-width:8; stroke-opacity:1; fill:none" points="345.82,194.096 413.009,124.755 480.198,91.2149 547.387,90.9391 614.576,125.144 681.765,172.317 748.954,250.156 816.143,343.018 883.332,447.233 950.521,548.837 1017.71,664.883 1084.9,773.413 1152.09,885.036 1219.28,990.36 1286.47,1101.51 1353.66,1187.35 1420.84,1269.28 1488.03,1331.12 1555.22,1387.7 1622.41,1413.39 1689.6,1424.12 1756.79,1390.83 1823.98,1338.93 1891.17,1252.05 1958.36,1154.64 2025.55,1018.13 2092.73,892.756 2159.92,720.855 2227.11,566.088 2294.3,380.941 "/>
<polyline clip-path="url(#clip992)" style="stroke:#3da44d; stroke-linecap:round; stroke-linejoin:round; stroke-width:8; stroke-opacity:1; fill:none" points="345.82,194.096 413.009,122.278 480.198,87.9763 547.387,89.8779 614.576,123.575 681.765,182.043 748.954,257.784 816.143,345.108 883.332,440.465 950.521,541.385 1017.71,645.919 1084.9,752.725 1152.09,860.985 1219.28,969.787 1286.47,1077.27 1353.66,1180.03 1420.84,1273.13 1488.03,1350.88 1555.22,1408.02 1622.41,1440.55 1689.6,1445.72 1756.79,1421.48 1823.98,1366.61 1891.17,1281.45 1958.36,1168.42 2025.55,1031.78 2092.73,876.977 2159.92,710.309 2227.11,539.026 2294.3,371.68 "/>
<path clip-path="url(#clip990)" d="M356.212 1438.47 L956.175 1438.47 L956.175 1179.27 L356.212 1179.27  Z" fill="#ffffff" fill-rule="evenodd" fill-opacity="1"/>
<polyline clip-path="url(#clip990)" style="stroke:#000000; stroke-linecap:round; stroke-linejoin:round; stroke-width:4; stroke-opacity:1; fill:none" points="356.212,1438.47 956.175,1438.47 956.175,1179.27 356.212,1179.27 356.212,1438.47 "/>
<polyline clip-path="url(#clip990)" style="stroke:#009af9; stroke-linecap:round; stroke-linejoin:round; stroke-width:8; stroke-opacity:1; fill:none" points="379.161,1231.11 516.854,1231.11 "/>
<path clip-path="url(#clip990)" d="M539.802 1222.47 L544.062 1222.47 L544.062 1248.39 L539.802 1248.39 L539.802 1222.47 M539.802 1212.38 L544.062 1212.38 L544.062 1217.77 L539.802 1217.77 L539.802 1212.38 Z" fill="#000000" fill-rule="nonzero" fill-opacity="1" /><path clip-path="url(#clip990)" d="M573.159 1227.45 Q574.756 1224.58 576.978 1223.21 Q579.2 1221.84 582.21 1221.84 Q586.261 1221.84 588.46 1224.69 Q590.659 1227.51 590.659 1232.75 L590.659 1248.39 L586.376 1248.39 L586.376 1232.89 Q586.376 1229.16 585.057 1227.35 Q583.737 1225.55 581.029 1225.55 Q577.719 1225.55 575.798 1227.75 Q573.876 1229.95 573.876 1233.74 L573.876 1248.39 L569.594 1248.39 L569.594 1232.89 Q569.594 1229.14 568.275 1227.35 Q566.955 1225.55 564.2 1225.55 Q560.937 1225.55 559.015 1227.77 Q557.094 1229.97 557.094 1233.74 L557.094 1248.39 L552.812 1248.39 L552.812 1222.47 L557.094 1222.47 L557.094 1226.5 Q558.552 1224.11 560.589 1222.98 Q562.626 1221.84 565.427 1221.84 Q568.251 1221.84 570.219 1223.28 Q572.21 1224.71 573.159 1227.45 Z" fill="#000000" fill-rule="nonzero" fill-opacity="1" /><path clip-path="url(#clip990)" d="M603.274 1244.51 L603.274 1258.26 L598.992 1258.26 L598.992 1222.47 L603.274 1222.47 L603.274 1226.4 Q604.617 1224.09 606.654 1222.98 Q608.714 1221.84 611.561 1221.84 Q616.284 1221.84 619.223 1225.59 Q622.186 1229.34 622.186 1235.45 Q622.186 1241.57 619.223 1245.32 Q616.284 1249.07 611.561 1249.07 Q608.714 1249.07 606.654 1247.95 Q604.617 1246.82 603.274 1244.51 M617.765 1235.45 Q617.765 1230.76 615.821 1228.09 Q613.899 1225.41 610.52 1225.41 Q607.14 1225.41 605.196 1228.09 Q603.274 1230.76 603.274 1235.45 Q603.274 1240.15 605.196 1242.84 Q607.14 1245.5 610.52 1245.5 Q613.899 1245.5 615.821 1242.84 Q617.765 1240.15 617.765 1235.45 Z" fill="#000000" fill-rule="nonzero" fill-opacity="1" /><path clip-path="url(#clip990)" d="M629.246 1212.38 L633.506 1212.38 L633.506 1248.39 L629.246 1248.39 L629.246 1212.38 Z" fill="#000000" fill-rule="nonzero" fill-opacity="1" /><path clip-path="url(#clip990)" d="M642.418 1222.47 L646.677 1222.47 L646.677 1248.39 L642.418 1248.39 L642.418 1222.47 M642.418 1212.38 L646.677 1212.38 L646.677 1217.77 L642.418 1217.77 L642.418 1212.38 Z" fill="#000000" fill-rule="nonzero" fill-opacity="1" /><path clip-path="url(#clip990)" d="M674.246 1223.46 L674.246 1227.45 Q672.441 1226.45 670.612 1225.96 Q668.806 1225.45 666.955 1225.45 Q662.811 1225.45 660.519 1228.09 Q658.228 1230.71 658.228 1235.45 Q658.228 1240.2 660.519 1242.84 Q662.811 1245.45 666.955 1245.45 Q668.806 1245.45 670.612 1244.97 Q672.441 1244.46 674.246 1243.46 L674.246 1247.4 Q672.464 1248.23 670.543 1248.65 Q668.644 1249.07 666.492 1249.07 Q660.635 1249.07 657.186 1245.39 Q653.737 1241.7 653.737 1235.45 Q653.737 1229.11 657.209 1225.48 Q660.705 1221.84 666.769 1221.84 Q668.737 1221.84 670.612 1222.26 Q672.487 1222.65 674.246 1223.46 Z" fill="#000000" fill-rule="nonzero" fill-opacity="1" /><path clip-path="url(#clip990)" d="M681.654 1222.47 L685.913 1222.47 L685.913 1248.39 L681.654 1248.39 L681.654 1222.47 M681.654 1212.38 L685.913 1212.38 L685.913 1217.77 L681.654 1217.77 L681.654 1212.38 Z" fill="#000000" fill-rule="nonzero" fill-opacity="1" /><path clip-path="url(#clip990)" d="M699.038 1215.11 L699.038 1222.47 L707.811 1222.47 L707.811 1225.78 L699.038 1225.78 L699.038 1239.85 Q699.038 1243.02 699.894 1243.93 Q700.774 1244.83 703.436 1244.83 L707.811 1244.83 L707.811 1248.39 L703.436 1248.39 Q698.505 1248.39 696.63 1246.57 Q694.755 1244.71 694.755 1239.85 L694.755 1225.78 L691.63 1225.78 L691.63 1222.47 L694.755 1222.47 L694.755 1215.11 L699.038 1215.11 Z" fill="#000000" fill-rule="nonzero" fill-opacity="1" /><path clip-path="url(#clip990)" d="M748.667 1227.45 Q750.264 1224.58 752.487 1223.21 Q754.709 1221.84 757.718 1221.84 Q761.769 1221.84 763.968 1224.69 Q766.167 1227.51 766.167 1232.75 L766.167 1248.39 L761.885 1248.39 L761.885 1232.89 Q761.885 1229.16 760.565 1227.35 Q759.246 1225.55 756.537 1225.55 Q753.227 1225.55 751.306 1227.75 Q749.385 1229.95 749.385 1233.74 L749.385 1248.39 L745.102 1248.39 L745.102 1232.89 Q745.102 1229.14 743.783 1227.35 Q742.463 1225.55 739.709 1225.55 Q736.445 1225.55 734.524 1227.77 Q732.602 1229.97 732.602 1233.74 L732.602 1248.39 L728.32 1248.39 L728.32 1222.47 L732.602 1222.47 L732.602 1226.5 Q734.061 1224.11 736.098 1222.98 Q738.135 1221.84 740.936 1221.84 Q743.76 1221.84 745.727 1223.28 Q747.718 1224.71 748.667 1227.45 Z" fill="#000000" fill-rule="nonzero" fill-opacity="1" /><path clip-path="url(#clip990)" d="M774.662 1222.47 L778.922 1222.47 L778.922 1248.39 L774.662 1248.39 L774.662 1222.47 M774.662 1212.38 L778.922 1212.38 L778.922 1217.77 L774.662 1217.77 L774.662 1212.38 Z" fill="#000000" fill-rule="nonzero" fill-opacity="1" /><path clip-path="url(#clip990)" d="M804.894 1226.4 L804.894 1212.38 L809.153 1212.38 L809.153 1248.39 L804.894 1248.39 L804.894 1244.51 Q803.551 1246.82 801.491 1247.95 Q799.454 1249.07 796.583 1249.07 Q791.884 1249.07 788.921 1245.32 Q785.982 1241.57 785.982 1235.45 Q785.982 1229.34 788.921 1225.59 Q791.884 1221.84 796.583 1221.84 Q799.454 1221.84 801.491 1222.98 Q803.551 1224.09 804.894 1226.4 M790.38 1235.45 Q790.38 1240.15 792.301 1242.84 Q794.246 1245.5 797.625 1245.5 Q801.005 1245.5 802.949 1242.84 Q804.894 1240.15 804.894 1235.45 Q804.894 1230.76 802.949 1228.09 Q801.005 1225.41 797.625 1225.41 Q794.246 1225.41 792.301 1228.09 Q790.38 1230.76 790.38 1235.45 Z" fill="#000000" fill-rule="nonzero" fill-opacity="1" /><path clip-path="url(#clip990)" d="M822.046 1244.51 L822.046 1258.26 L817.764 1258.26 L817.764 1222.47 L822.046 1222.47 L822.046 1226.4 Q823.389 1224.09 825.426 1222.98 Q827.486 1221.84 830.333 1221.84 Q835.056 1221.84 837.995 1225.59 Q840.958 1229.34 840.958 1235.45 Q840.958 1241.57 837.995 1245.32 Q835.056 1249.07 830.333 1249.07 Q827.486 1249.07 825.426 1247.95 Q823.389 1246.82 822.046 1244.51 M836.537 1235.45 Q836.537 1230.76 834.593 1228.09 Q832.671 1225.41 829.292 1225.41 Q825.912 1225.41 823.968 1228.09 Q822.046 1230.76 822.046 1235.45 Q822.046 1240.15 823.968 1242.84 Q825.912 1245.5 829.292 1245.5 Q832.671 1245.5 834.593 1242.84 Q836.537 1240.15 836.537 1235.45 Z" fill="#000000" fill-rule="nonzero" fill-opacity="1" /><path clip-path="url(#clip990)" d="M858.065 1225.45 Q854.639 1225.45 852.648 1228.14 Q850.657 1230.8 850.657 1235.45 Q850.657 1240.11 852.625 1242.79 Q854.616 1245.45 858.065 1245.45 Q861.467 1245.45 863.458 1242.77 Q865.449 1240.08 865.449 1235.45 Q865.449 1230.85 863.458 1228.16 Q861.467 1225.45 858.065 1225.45 M858.065 1221.84 Q863.62 1221.84 866.791 1225.45 Q869.963 1229.07 869.963 1235.45 Q869.963 1241.82 866.791 1245.45 Q863.62 1249.07 858.065 1249.07 Q852.486 1249.07 849.315 1245.45 Q846.167 1241.82 846.167 1235.45 Q846.167 1229.07 849.315 1225.45 Q852.486 1221.84 858.065 1221.84 Z" fill="#000000" fill-rule="nonzero" fill-opacity="1" /><path clip-path="url(#clip990)" d="M877.023 1222.47 L881.282 1222.47 L881.282 1248.39 L877.023 1248.39 L877.023 1222.47 M877.023 1212.38 L881.282 1212.38 L881.282 1217.77 L877.023 1217.77 L877.023 1212.38 Z" fill="#000000" fill-rule="nonzero" fill-opacity="1" /><path clip-path="url(#clip990)" d="M911.745 1232.75 L911.745 1248.39 L907.486 1248.39 L907.486 1232.89 Q907.486 1229.2 906.05 1227.38 Q904.615 1225.55 901.745 1225.55 Q898.296 1225.55 896.305 1227.75 Q894.314 1229.95 894.314 1233.74 L894.314 1248.39 L890.032 1248.39 L890.032 1222.47 L894.314 1222.47 L894.314 1226.5 Q895.842 1224.16 897.902 1223 Q899.986 1221.84 902.694 1221.84 Q907.162 1221.84 909.453 1224.62 Q911.745 1227.38 911.745 1232.75 Z" fill="#000000" fill-rule="nonzero" fill-opacity="1" /><path clip-path="url(#clip990)" d="M924.453 1215.11 L924.453 1222.47 L933.226 1222.47 L933.226 1225.78 L924.453 1225.78 L924.453 1239.85 Q924.453 1243.02 925.31 1243.93 Q926.189 1244.83 928.851 1244.83 L933.226 1244.83 L933.226 1248.39 L928.851 1248.39 Q923.921 1248.39 922.046 1246.57 Q920.171 1244.71 920.171 1239.85 L920.171 1225.78 L917.046 1225.78 L917.046 1222.47 L920.171 1222.47 L920.171 1215.11 L924.453 1215.11 Z" fill="#000000" fill-rule="nonzero" fill-opacity="1" /><polyline clip-path="url(#clip990)" style="stroke:#e26f46; stroke-linecap:round; stroke-linejoin:round; stroke-width:8; stroke-opacity:1; fill:none" points="379.161,1282.95 516.854,1282.95 "/>
<path clip-path="url(#clip990)" d="M562.048 1266.81 L562.048 1271.37 Q559.386 1270.1 557.025 1269.47 Q554.663 1268.85 552.464 1268.85 Q548.645 1268.85 546.562 1270.33 Q544.502 1271.81 544.502 1274.54 Q544.502 1276.83 545.867 1278.01 Q547.256 1279.17 551.099 1279.89 L553.923 1280.47 Q559.154 1281.46 561.631 1283.98 Q564.131 1286.48 564.131 1290.7 Q564.131 1295.72 560.751 1298.31 Q557.395 1300.91 550.89 1300.91 Q548.437 1300.91 545.659 1300.35 Q542.904 1299.79 539.941 1298.71 L539.941 1293.89 Q542.789 1295.49 545.52 1296.3 Q548.251 1297.11 550.89 1297.11 Q554.895 1297.11 557.071 1295.54 Q559.247 1293.96 559.247 1291.04 Q559.247 1288.5 557.673 1287.06 Q556.122 1285.63 552.557 1284.91 L549.71 1284.35 Q544.478 1283.31 542.14 1281.09 Q539.802 1278.87 539.802 1274.91 Q539.802 1270.33 543.02 1267.69 Q546.261 1265.05 551.932 1265.05 Q554.363 1265.05 556.886 1265.49 Q559.409 1265.93 562.048 1266.81 Z" fill="#000000" fill-rule="nonzero" fill-opacity="1" /><path clip-path="url(#clip990)" d="M566.631 1265.67 L595.867 1265.67 L595.867 1269.61 L583.599 1269.61 L583.599 1300.23 L578.899 1300.23 L578.899 1269.61 L566.631 1269.61 L566.631 1265.67 Z" fill="#000000" fill-rule="nonzero" fill-opacity="1" /><polyline clip-path="url(#clip990)" style="stroke:#c271d2; stroke-linecap:round; stroke-linejoin:round; stroke-width:8; stroke-opacity:1; fill:none" points="379.161,1334.79 516.854,1334.79 "/>
<path clip-path="url(#clip990)" d="M539.802 1317.51 L544.478 1317.51 L544.478 1348.14 L561.307 1348.14 L561.307 1352.07 L539.802 1352.07 L539.802 1317.51 Z" fill="#000000" fill-rule="nonzero" fill-opacity="1" /><path clip-path="url(#clip990)" d="M586.932 1318.65 L586.932 1323.21 Q584.27 1321.94 581.909 1321.31 Q579.548 1320.69 577.349 1320.69 Q573.529 1320.69 571.446 1322.17 Q569.386 1323.65 569.386 1326.38 Q569.386 1328.67 570.751 1329.85 Q572.14 1331.01 575.983 1331.73 L578.807 1332.31 Q584.038 1333.3 586.515 1335.82 Q589.015 1338.32 589.015 1342.54 Q589.015 1347.56 585.636 1350.15 Q582.279 1352.75 575.774 1352.75 Q573.321 1352.75 570.543 1352.19 Q567.788 1351.63 564.825 1350.55 L564.825 1345.73 Q567.673 1347.33 570.404 1348.14 Q573.136 1348.95 575.774 1348.95 Q579.779 1348.95 581.955 1347.38 Q584.131 1345.8 584.131 1342.88 Q584.131 1340.34 582.557 1338.9 Q581.006 1337.47 577.441 1336.75 L574.594 1336.19 Q569.362 1335.15 567.025 1332.93 Q564.687 1330.71 564.687 1326.75 Q564.687 1322.17 567.904 1319.53 Q571.145 1316.89 576.816 1316.89 Q579.247 1316.89 581.77 1317.33 Q584.293 1317.77 586.932 1318.65 Z" fill="#000000" fill-rule="nonzero" fill-opacity="1" /><path clip-path="url(#clip990)" d="M591.515 1317.51 L620.751 1317.51 L620.751 1321.45 L608.483 1321.45 L608.483 1352.07 L603.784 1352.07 L603.784 1321.45 L591.515 1321.45 L591.515 1317.51 Z" fill="#000000" fill-rule="nonzero" fill-opacity="1" /><polyline clip-path="url(#clip990)" style="stroke:#3da44d; stroke-linecap:round; stroke-linejoin:round; stroke-width:8; stroke-opacity:1; fill:none" points="379.161,1386.63 516.854,1386.63 "/>
<path clip-path="url(#clip990)" d="M562.048 1370.49 L562.048 1375.05 Q559.386 1373.78 557.025 1373.15 Q554.663 1372.53 552.464 1372.53 Q548.645 1372.53 546.562 1374.01 Q544.502 1375.49 544.502 1378.22 Q544.502 1380.51 545.867 1381.69 Q547.256 1382.85 551.099 1383.57 L553.923 1384.15 Q559.154 1385.14 561.631 1387.66 Q564.131 1390.16 564.131 1394.38 Q564.131 1399.4 560.751 1401.99 Q557.395 1404.59 550.89 1404.59 Q548.437 1404.59 545.659 1404.03 Q542.904 1403.47 539.941 1402.39 L539.941 1397.57 Q542.789 1399.17 545.52 1399.98 Q548.251 1400.79 550.89 1400.79 Q554.895 1400.79 557.071 1399.22 Q559.247 1397.64 559.247 1394.72 Q559.247 1392.18 557.673 1390.74 Q556.122 1389.31 552.557 1388.59 L549.71 1388.03 Q544.478 1386.99 542.14 1384.77 Q539.802 1382.55 539.802 1378.59 Q539.802 1374.01 543.02 1371.37 Q546.261 1368.73 551.932 1368.73 Q554.363 1368.73 556.886 1369.17 Q559.409 1369.61 562.048 1370.49 Z" fill="#000000" fill-rule="nonzero" fill-opacity="1" /><path clip-path="url(#clip990)" d="M582.024 1406.32 Q580.219 1410.95 578.506 1412.36 Q576.793 1413.78 573.923 1413.78 L570.52 1413.78 L570.52 1410.21 L573.02 1410.21 Q574.779 1410.21 575.751 1409.38 Q576.724 1408.54 577.904 1405.44 L578.668 1403.5 L568.182 1377.99 L572.696 1377.99 L580.798 1398.27 L588.899 1377.99 L593.413 1377.99 L582.024 1406.32 Z" fill="#000000" fill-rule="nonzero" fill-opacity="1" /><path clip-path="url(#clip990)" d="M619.478 1382.97 Q621.075 1380.1 623.297 1378.73 Q625.52 1377.36 628.529 1377.36 Q632.58 1377.36 634.779 1380.21 Q636.978 1383.03 636.978 1388.27 L636.978 1403.91 L632.695 1403.91 L632.695 1388.41 Q632.695 1384.68 631.376 1382.87 Q630.057 1381.07 627.348 1381.07 Q624.038 1381.07 622.117 1383.27 Q620.196 1385.47 620.196 1389.26 L620.196 1403.91 L615.913 1403.91 L615.913 1388.41 Q615.913 1384.66 614.594 1382.87 Q613.274 1381.07 610.52 1381.07 Q607.256 1381.07 605.335 1383.29 Q603.413 1385.49 603.413 1389.26 L603.413 1403.91 L599.131 1403.91 L599.131 1377.99 L603.413 1377.99 L603.413 1382.02 Q604.872 1379.63 606.909 1378.5 Q608.946 1377.36 611.747 1377.36 Q614.571 1377.36 616.538 1378.8 Q618.529 1380.23 619.478 1382.97 Z" fill="#000000" fill-rule="nonzero" fill-opacity="1" /><path clip-path="url(#clip990)" d="M649.594 1400.03 L649.594 1413.78 L645.311 1413.78 L645.311 1377.99 L649.594 1377.99 L649.594 1381.92 Q650.936 1379.61 652.973 1378.5 Q655.033 1377.36 657.881 1377.36 Q662.603 1377.36 665.543 1381.11 Q668.505 1384.86 668.505 1390.97 Q668.505 1397.09 665.543 1400.84 Q662.603 1404.59 657.881 1404.59 Q655.033 1404.59 652.973 1403.47 Q650.936 1402.34 649.594 1400.03 M664.084 1390.97 Q664.084 1386.28 662.14 1383.61 Q660.218 1380.93 656.839 1380.93 Q653.459 1380.93 651.515 1383.61 Q649.594 1386.28 649.594 1390.97 Q649.594 1395.67 651.515 1398.36 Q653.459 1401.02 656.839 1401.02 Q660.218 1401.02 662.14 1398.36 Q664.084 1395.67 664.084 1390.97 Z" fill="#000000" fill-rule="nonzero" fill-opacity="1" /><path clip-path="url(#clip990)" d="M675.751 1369.35 L682.047 1369.35 L697.371 1398.27 L697.371 1369.35 L701.908 1369.35 L701.908 1403.91 L695.612 1403.91 L680.288 1375 L680.288 1403.91 L675.751 1403.91 L675.751 1369.35 Z" fill="#000000" fill-rule="nonzero" fill-opacity="1" /><path clip-path="url(#clip990)" d="M733.204 1389.89 L733.204 1391.97 L713.621 1391.97 Q713.899 1396.37 716.26 1398.68 Q718.644 1400.97 722.88 1400.97 Q725.334 1400.97 727.626 1400.37 Q729.94 1399.77 732.209 1398.57 L732.209 1402.59 Q729.917 1403.57 727.51 1404.08 Q725.102 1404.59 722.626 1404.59 Q716.422 1404.59 712.788 1400.97 Q709.177 1397.36 709.177 1391.21 Q709.177 1384.84 712.602 1381.11 Q716.052 1377.36 721.885 1377.36 Q727.116 1377.36 730.149 1380.74 Q733.204 1384.1 733.204 1389.89 M728.945 1388.64 Q728.899 1385.14 726.977 1383.06 Q725.079 1380.97 721.931 1380.97 Q718.366 1380.97 716.214 1382.99 Q714.084 1385 713.76 1388.66 L728.945 1388.64 Z" fill="#000000" fill-rule="nonzero" fill-opacity="1" /><path clip-path="url(#clip990)" d="M744.408 1370.63 L744.408 1377.99 L753.181 1377.99 L753.181 1381.3 L744.408 1381.3 L744.408 1395.37 Q744.408 1398.54 745.264 1399.45 Q746.144 1400.35 748.806 1400.35 L753.181 1400.35 L753.181 1403.91 L748.806 1403.91 Q743.875 1403.91 742 1402.09 Q740.125 1400.23 740.125 1395.37 L740.125 1381.3 L737 1381.3 L737 1377.99 L740.125 1377.99 L740.125 1370.63 L744.408 1370.63 Z" fill="#000000" fill-rule="nonzero" fill-opacity="1" /></svg>
