<?xml version="1.0" encoding="utf-8"?>
<svg xmlns="http://www.w3.org/2000/svg" xmlns:xlink="http://www.w3.org/1999/xlink" width="600" height="400" viewBox="0 0 2400 1600">
<defs>
  <clipPath id="clip530">
    <rect x="0" y="0" width="2400" height="1600"/>
  </clipPath>
</defs>
<path clip-path="url(#clip530)" d="M0 1600 L2400 1600 L2400 0 L0 0  Z" fill="#ffffff" fill-rule="evenodd" fill-opacity="1"/>
<defs>
  <clipPath id="clip531">
    <rect x="480" y="0" width="1681" height="1600"/>
  </clipPath>
</defs>
<path clip-path="url(#clip530)" d="M193.936 1486.45 L2352.76 1486.45 L2352.76 47.2441 L193.936 47.2441  Z" fill="#ffffff" fill-rule="evenodd" fill-opacity="1"/>
<defs>
  <clipPath id="clip532">
    <rect x="193" y="47" width="2160" height="1440"/>
  </clipPath>
</defs>
<polyline clip-path="url(#clip532)" style="stroke:#000000; stroke-linecap:round; stroke-linejoin:round; stroke-width:2; stroke-opacity:0.1; fill:none" points="202.814,1486.45 202.814,47.2441 "/>
<polyline clip-path="url(#clip532)" style="stroke:#000000; stroke-linecap:round; stroke-linejoin:round; stroke-width:2; stroke-opacity:0.1; fill:none" points="725.024,1486.45 725.024,47.2441 "/>
<polyline clip-path="url(#clip532)" style="stroke:#000000; stroke-linecap:round; stroke-linejoin:round; stroke-width:2; stroke-opacity:0.1; fill:none" points="1247.24,1486.45 1247.24,47.2441 "/>
<polyline clip-path="url(#clip532)" style="stroke:#000000; stroke-linecap:round; stroke-linejoin:round; stroke-width:2; stroke-opacity:0.1; fill:none" points="1769.45,1486.45 1769.45,47.2441 "/>
<polyline clip-path="url(#clip532)" style="stroke:#000000; stroke-linecap:round; stroke-linejoin:round; stroke-width:2; stroke-opacity:0.1; fill:none" points="2291.66,1486.45 2291.66,47.2441 "/>
<polyline clip-path="url(#clip530)" style="stroke:#000000; stroke-linecap:round; stroke-linejoin:round; stroke-width:4; stroke-opacity:1; fill:none" points="193.936,1486.45 2352.76,1486.45 "/>
<polyline clip-path="url(#clip530)" style="stroke:#000000; stroke-linecap:round; stroke-linejoin:round; stroke-width:4; stroke-opacity:1; fill:none" points="202.814,1486.45 202.814,1467.55 "/>
<polyline clip-path="url(#clip530)" style="stroke:#000000; stroke-linecap:round; stroke-linejoin:round; stroke-width:4; stroke-opacity:1; fill:none" points="725.024,1486.45 725.024,1467.55 "/>
<polyline clip-path="url(#clip530)" style="stroke:#000000; stroke-linecap:round; stroke-linejoin:round; stroke-width:4; stroke-opacity:1; fill:none" points="1247.24,1486.45 1247.24,1467.55 "/>
<polyline clip-path="url(#clip530)" style="stroke:#000000; stroke-linecap:round; stroke-linejoin:round; stroke-width:4; stroke-opacity:1; fill:none" points="1769.45,1486.45 1769.45,1467.55 "/>
<polyline clip-path="url(#clip530)" style="stroke:#000000; stroke-linecap:round; stroke-linejoin:round; stroke-width:4; stroke-opacity:1; fill:none" points="2291.66,1486.45 2291.66,1467.55 "/>
<path clip-path="url(#clip530)" d="M202.814 1517.37 Q199.202 1517.37 197.374 1520.93 Q195.568 1524.47 195.568 1531.6 Q195.568 1538.71 197.374 1542.27 Q199.202 1545.82 202.814 1545.82 Q206.448 1545.82 208.253 1542.27 Q210.082 1538.71 210.082 1531.6 Q210.082 1524.47 208.253 1520.93 Q206.448 1517.37 202.814 1517.37 M202.814 1513.66 Q208.624 1513.66 211.679 1518.27 Q214.758 1522.85 214.758 1531.6 Q214.758 1540.33 211.679 1544.94 Q208.624 1549.52 202.814 1549.52 Q197.003 1549.52 193.925 1544.94 Q190.869 1540.33 190.869 1531.6 Q190.869 1522.85 193.925 1518.27 Q197.003 1513.66 202.814 1513.66 Z" fill="#000000" fill-rule="nonzero" fill-opacity="1" /><path clip-path="url(#clip530)" d="M699.712 1544.91 L707.351 1544.91 L707.351 1518.55 L699.041 1520.21 L699.041 1515.95 L707.305 1514.29 L711.981 1514.29 L711.981 1544.91 L719.619 1544.91 L719.619 1548.85 L699.712 1548.85 L699.712 1544.91 Z" fill="#000000" fill-rule="nonzero" fill-opacity="1" /><path clip-path="url(#clip530)" d="M739.064 1517.37 Q735.453 1517.37 733.624 1520.93 Q731.818 1524.47 731.818 1531.6 Q731.818 1538.71 733.624 1542.27 Q735.453 1545.82 739.064 1545.82 Q742.698 1545.82 744.504 1542.27 Q746.332 1538.71 746.332 1531.6 Q746.332 1524.47 744.504 1520.93 Q742.698 1517.37 739.064 1517.37 M739.064 1513.66 Q744.874 1513.66 747.929 1518.27 Q751.008 1522.85 751.008 1531.6 Q751.008 1540.33 747.929 1544.94 Q744.874 1549.52 739.064 1549.52 Q733.254 1549.52 730.175 1544.94 Q727.119 1540.33 727.119 1531.6 Q727.119 1522.85 730.175 1518.27 Q733.254 1513.66 739.064 1513.66 Z" fill="#000000" fill-rule="nonzero" fill-opacity="1" /><path clip-path="url(#clip530)" d="M1226.01 1544.91 L1242.33 1544.91 L1242.33 1548.85 L1220.38 1548.85 L1220.38 1544.91 Q1223.05 1542.16 1227.63 1537.53 Q1232.24 1532.88 1233.42 1531.53 Q1235.66 1529.01 1236.54 1527.27 Q1237.44 1525.51 1237.44 1523.82 Q1237.44 1521.07 1235.5 1519.33 Q1233.58 1517.6 1230.48 1517.6 Q1228.28 1517.6 1225.82 1518.36 Q1223.39 1519.13 1220.62 1520.68 L1220.62 1515.95 Q1223.44 1514.82 1225.89 1514.24 Q1228.35 1513.66 1230.38 1513.66 Q1235.75 1513.66 1238.95 1516.35 Q1242.14 1519.03 1242.14 1523.52 Q1242.14 1525.65 1241.33 1527.57 Q1240.55 1529.47 1238.44 1532.07 Q1237.86 1532.74 1234.76 1535.95 Q1231.66 1539.15 1226.01 1544.91 Z" fill="#000000" fill-rule="nonzero" fill-opacity="1" /><path clip-path="url(#clip530)" d="M1262.14 1517.37 Q1258.53 1517.37 1256.7 1520.93 Q1254.9 1524.47 1254.9 1531.6 Q1254.9 1538.71 1256.7 1542.27 Q1258.53 1545.82 1262.14 1545.82 Q1265.78 1545.82 1267.58 1542.27 Q1269.41 1538.71 1269.41 1531.6 Q1269.41 1524.47 1267.58 1520.93 Q1265.78 1517.37 1262.14 1517.37 M1262.14 1513.66 Q1267.95 1513.66 1271.01 1518.27 Q1274.09 1522.85 1274.09 1531.6 Q1274.09 1540.33 1271.01 1544.94 Q1267.95 1549.52 1262.14 1549.52 Q1256.33 1549.52 1253.25 1544.94 Q1250.2 1540.33 1250.2 1531.6 Q1250.2 1522.85 1253.25 1518.27 Q1256.33 1513.66 1262.14 1513.66 Z" fill="#000000" fill-rule="nonzero" fill-opacity="1" /><path clip-path="url(#clip530)" d="M1758.29 1530.21 Q1761.65 1530.93 1763.52 1533.2 Q1765.42 1535.47 1765.42 1538.8 Q1765.42 1543.92 1761.9 1546.72 Q1758.38 1549.52 1751.9 1549.52 Q1749.72 1549.52 1747.41 1549.08 Q1745.12 1548.66 1742.66 1547.81 L1742.66 1543.29 Q1744.61 1544.43 1746.92 1545.01 Q1749.24 1545.58 1751.76 1545.58 Q1756.16 1545.58 1758.45 1543.85 Q1760.77 1542.11 1760.77 1538.8 Q1760.77 1535.75 1758.61 1534.03 Q1756.48 1532.3 1752.66 1532.3 L1748.64 1532.3 L1748.64 1528.45 L1752.85 1528.45 Q1756.3 1528.45 1758.13 1527.09 Q1759.96 1525.7 1759.96 1523.11 Q1759.96 1520.45 1758.06 1519.03 Q1756.18 1517.6 1752.66 1517.6 Q1750.74 1517.6 1748.54 1518.01 Q1746.34 1518.43 1743.71 1519.31 L1743.71 1515.14 Q1746.37 1514.4 1748.68 1514.03 Q1751.02 1513.66 1753.08 1513.66 Q1758.4 1513.66 1761.51 1516.09 Q1764.61 1518.5 1764.61 1522.62 Q1764.61 1525.49 1762.96 1527.48 Q1761.32 1529.45 1758.29 1530.21 Z" fill="#000000" fill-rule="nonzero" fill-opacity="1" /><path clip-path="url(#clip530)" d="M1784.28 1517.37 Q1780.67 1517.37 1778.84 1520.93 Q1777.04 1524.47 1777.04 1531.6 Q1777.04 1538.71 1778.84 1542.27 Q1780.67 1545.82 1784.28 1545.82 Q1787.92 1545.82 1789.72 1542.27 Q1791.55 1538.71 1791.55 1531.6 Q1791.55 1524.47 1789.72 1520.93 Q1787.92 1517.37 1784.28 1517.37 M1784.28 1513.66 Q1790.09 1513.66 1793.15 1518.27 Q1796.23 1522.85 1796.23 1531.6 Q1796.23 1540.33 1793.15 1544.94 Q1790.09 1549.52 1784.28 1549.52 Q1778.47 1549.52 1775.4 1544.94 Q1772.34 1540.33 1772.34 1531.6 Q1772.34 1522.85 1775.4 1518.27 Q1778.47 1513.66 1784.28 1513.66 Z" fill="#000000" fill-rule="nonzero" fill-opacity="1" /><path clip-path="url(#clip530)" d="M2279.83 1518.36 L2268.02 1536.81 L2279.83 1536.81 L2279.83 1518.36 M2278.6 1514.29 L2284.48 1514.29 L2284.48 1536.81 L2289.41 1536.81 L2289.41 1540.7 L2284.48 1540.7 L2284.48 1548.85 L2279.83 1548.85 L2279.83 1540.7 L2264.23 1540.7 L2264.23 1536.19 L2278.6 1514.29 Z" fill="#000000" fill-rule="nonzero" fill-opacity="1" /><path clip-path="url(#clip530)" d="M2307.14 1517.37 Q2303.53 1517.37 2301.7 1520.93 Q2299.9 1524.47 2299.9 1531.6 Q2299.9 1538.71 2301.7 1542.27 Q2303.53 1545.82 2307.14 1545.82 Q2310.78 1545.82 2312.58 1542.27 Q2314.41 1538.71 2314.41 1531.6 Q2314.41 1524.47 2312.58 1520.93 Q2310.78 1517.37 2307.14 1517.37 M2307.14 1513.66 Q2312.95 1513.66 2316.01 1518.27 Q2319.09 1522.85 2319.09 1531.6 Q2319.09 1540.33 2316.01 1544.94 Q2312.95 1549.52 2307.14 1549.52 Q2301.33 1549.52 2298.25 1544.94 Q2295.2 1540.33 2295.2 1531.6 Q2295.2 1522.85 2298.25 1518.27 Q2301.33 1513.66 2307.14 1513.66 Z" fill="#000000" fill-rule="nonzero" fill-opacity="1" /><polyline clip-path="url(#clip532)" style="stroke:#000000; stroke-linecap:round; stroke-linejoin:round; stroke-width:2; stroke-opacity:0.1; fill:none" points="193.936,1350.19 2352.76,1350.19 "/>
<polyline clip-path="url(#clip532)" style="stroke:#000000; stroke-linecap:round; stroke-linejoin:round; stroke-width:2; stroke-opacity:0.1; fill:none" points="193.936,1034.63 2352.76,1034.63 "/>
<polyline clip-path="url(#clip532)" style="stroke:#000000; stroke-linecap:round; stroke-linejoin:round; stroke-width:2; stroke-opacity:0.1; fill:none" points="193.936,719.082 2352.76,719.082 "/>
<polyline clip-path="url(#clip532)" style="stroke:#000000; stroke-linecap:round; stroke-linejoin:round; stroke-width:2; stroke-opacity:0.1; fill:none" points="193.936,403.529 2352.76,403.529 "/>
<polyline clip-path="url(#clip532)" style="stroke:#000000; stroke-linecap:round; stroke-linejoin:round; stroke-width:2; stroke-opacity:0.1; fill:none" points="193.936,87.9763 2352.76,87.9763 "/>
<polyline clip-path="url(#clip530)" style="stroke:#000000; stroke-linecap:round; stroke-linejoin:round; stroke-width:4; stroke-opacity:1; fill:none" points="193.936,1486.45 193.936,47.2441 "/>
<polyline clip-path="url(#clip530)" style="stroke:#000000; stroke-linecap:round; stroke-linejoin:round; stroke-width:4; stroke-opacity:1; fill:none" points="193.936,1350.19 212.834,1350.19 "/>
<polyline clip-path="url(#clip530)" style="stroke:#000000; stroke-linecap:round; stroke-linejoin:round; stroke-width:4; stroke-opacity:1; fill:none" points="193.936,1034.63 212.834,1034.63 "/>
<polyline clip-path="url(#clip530)" style="stroke:#000000; stroke-linecap:round; stroke-linejoin:round; stroke-width:4; stroke-opacity:1; fill:none" points="193.936,719.082 212.834,719.082 "/>
<polyline clip-path="url(#clip530)" style="stroke:#000000; stroke-linecap:round; stroke-linejoin:round; stroke-width:4; stroke-opacity:1; fill:none" points="193.936,403.529 212.834,403.529 "/>
<polyline clip-path="url(#clip530)" style="stroke:#000000; stroke-linecap:round; stroke-linejoin:round; stroke-width:4; stroke-opacity:1; fill:none" points="193.936,87.9763 212.834,87.9763 "/>
<path clip-path="url(#clip530)" d="M50.9921 1350.64 L80.6679 1350.64 L80.6679 1354.57 L50.9921 1354.57 L50.9921 1350.64 Z" fill="#000000" fill-rule="nonzero" fill-opacity="1" /><path clip-path="url(#clip530)" d="M91.5706 1363.53 L99.2095 1363.53 L99.2095 1337.17 L90.8993 1338.83 L90.8993 1334.57 L99.1632 1332.91 L103.839 1332.91 L103.839 1363.53 L111.478 1363.53 L111.478 1367.47 L91.5706 1367.47 L91.5706 1363.53 Z" fill="#000000" fill-rule="nonzero" fill-opacity="1" /><path clip-path="url(#clip530)" d="M120.922 1361.59 L125.807 1361.59 L125.807 1367.47 L120.922 1367.47 L120.922 1361.59 Z" fill="#000000" fill-rule="nonzero" fill-opacity="1" /><path clip-path="url(#clip530)" d="M145.992 1335.99 Q142.381 1335.99 140.552 1339.55 Q138.746 1343.09 138.746 1350.22 Q138.746 1357.33 140.552 1360.89 Q142.381 1364.43 145.992 1364.43 Q149.626 1364.43 151.431 1360.89 Q153.26 1357.33 153.26 1350.22 Q153.26 1343.09 151.431 1339.55 Q149.626 1335.99 145.992 1335.99 M145.992 1332.28 Q151.802 1332.28 154.857 1336.89 Q157.936 1341.47 157.936 1350.22 Q157.936 1358.95 154.857 1363.56 Q151.802 1368.14 145.992 1368.14 Q140.181 1368.14 137.103 1363.56 Q134.047 1358.95 134.047 1350.22 Q134.047 1341.47 137.103 1336.89 Q140.181 1332.28 145.992 1332.28 Z" fill="#000000" fill-rule="nonzero" fill-opacity="1" /><path clip-path="url(#clip530)" d="M51.9875 1035.09 L81.6633 1035.09 L81.6633 1039.02 L51.9875 1039.02 L51.9875 1035.09 Z" fill="#000000" fill-rule="nonzero" fill-opacity="1" /><path clip-path="url(#clip530)" d="M101.756 1020.43 Q98.1447 1020.43 96.316 1024 Q94.5104 1027.54 94.5104 1034.67 Q94.5104 1041.78 96.316 1045.34 Q98.1447 1048.88 101.756 1048.88 Q105.39 1048.88 107.196 1045.34 Q109.024 1041.78 109.024 1034.67 Q109.024 1027.54 107.196 1024 Q105.39 1020.43 101.756 1020.43 M101.756 1016.73 Q107.566 1016.73 110.621 1021.34 Q113.7 1025.92 113.7 1034.67 Q113.7 1043.4 110.621 1048 Q107.566 1052.59 101.756 1052.59 Q95.9456 1052.59 92.8669 1048 Q89.8114 1043.4 89.8114 1034.67 Q89.8114 1025.92 92.8669 1021.34 Q95.9456 1016.73 101.756 1016.73 Z" fill="#000000" fill-rule="nonzero" fill-opacity="1" /><path clip-path="url(#clip530)" d="M121.918 1046.03 L126.802 1046.03 L126.802 1051.91 L121.918 1051.91 L121.918 1046.03 Z" fill="#000000" fill-rule="nonzero" fill-opacity="1" /><path clip-path="url(#clip530)" d="M137.033 1017.35 L155.39 1017.35 L155.39 1021.29 L141.316 1021.29 L141.316 1029.76 Q142.334 1029.41 143.353 1029.25 Q144.371 1029.07 145.39 1029.07 Q151.177 1029.07 154.556 1032.24 Q157.936 1035.41 157.936 1040.83 Q157.936 1046.41 154.464 1049.51 Q150.992 1052.59 144.672 1052.59 Q142.496 1052.59 140.228 1052.22 Q137.982 1051.84 135.575 1051.1 L135.575 1046.41 Q137.658 1047.54 139.881 1048.09 Q142.103 1048.65 144.58 1048.65 Q148.584 1048.65 150.922 1046.54 Q153.26 1044.44 153.26 1040.83 Q153.26 1037.22 150.922 1035.11 Q148.584 1033 144.58 1033 Q142.705 1033 140.83 1033.42 Q138.978 1033.84 137.033 1034.72 L137.033 1017.35 Z" fill="#000000" fill-rule="nonzero" fill-opacity="1" /><path clip-path="url(#clip530)" d="M100.76 704.88 Q97.1493 704.88 95.3206 708.445 Q93.515 711.987 93.515 719.116 Q93.515 726.223 95.3206 729.788 Q97.1493 733.329 100.76 733.329 Q104.395 733.329 106.2 729.788 Q108.029 726.223 108.029 719.116 Q108.029 711.987 106.2 708.445 Q104.395 704.88 100.76 704.88 M100.76 701.177 Q106.571 701.177 109.626 705.783 Q112.705 710.366 112.705 719.116 Q112.705 727.843 109.626 732.45 Q106.571 737.033 100.76 737.033 Q94.9502 737.033 91.8715 732.45 Q88.816 727.843 88.816 719.116 Q88.816 710.366 91.8715 705.783 Q94.9502 701.177 100.76 701.177 Z" fill="#000000" fill-rule="nonzero" fill-opacity="1" /><path clip-path="url(#clip530)" d="M120.922 730.482 L125.807 730.482 L125.807 736.362 L120.922 736.362 L120.922 730.482 Z" fill="#000000" fill-rule="nonzero" fill-opacity="1" /><path clip-path="url(#clip530)" d="M145.992 704.88 Q142.381 704.88 140.552 708.445 Q138.746 711.987 138.746 719.116 Q138.746 726.223 140.552 729.788 Q142.381 733.329 145.992 733.329 Q149.626 733.329 151.431 729.788 Q153.26 726.223 153.26 719.116 Q153.26 711.987 151.431 708.445 Q149.626 704.88 145.992 704.88 M145.992 701.177 Q151.802 701.177 154.857 705.783 Q157.936 710.366 157.936 719.116 Q157.936 727.843 154.857 732.45 Q151.802 737.033 145.992 737.033 Q140.181 737.033 137.103 732.45 Q134.047 727.843 134.047 719.116 Q134.047 710.366 137.103 705.783 Q140.181 701.177 145.992 701.177 Z" fill="#000000" fill-rule="nonzero" fill-opacity="1" /><path clip-path="url(#clip530)" d="M101.756 389.328 Q98.1447 389.328 96.316 392.892 Q94.5104 396.434 94.5104 403.564 Q94.5104 410.67 96.316 414.235 Q98.1447 417.777 101.756 417.777 Q105.39 417.777 107.196 414.235 Q109.024 410.67 109.024 403.564 Q109.024 396.434 107.196 392.892 Q105.39 389.328 101.756 389.328 M101.756 385.624 Q107.566 385.624 110.621 390.23 Q113.7 394.814 113.7 403.564 Q113.7 412.29 110.621 416.897 Q107.566 421.48 101.756 421.48 Q95.9456 421.48 92.8669 416.897 Q89.8114 412.29 89.8114 403.564 Q89.8114 394.814 92.8669 390.23 Q95.9456 385.624 101.756 385.624 Z" fill="#000000" fill-rule="nonzero" fill-opacity="1" /><path clip-path="url(#clip530)" d="M121.918 414.929 L126.802 414.929 L126.802 420.809 L121.918 420.809 L121.918 414.929 Z" fill="#000000" fill-rule="nonzero" fill-opacity="1" /><path clip-path="url(#clip530)" d="M137.033 386.249 L155.39 386.249 L155.39 390.184 L141.316 390.184 L141.316 398.656 Q142.334 398.309 143.353 398.147 Q144.371 397.962 145.39 397.962 Q151.177 397.962 154.556 401.133 Q157.936 404.304 157.936 409.721 Q157.936 415.3 154.464 418.402 Q150.992 421.48 144.672 421.48 Q142.496 421.48 140.228 421.11 Q137.982 420.74 135.575 419.999 L135.575 415.3 Q137.658 416.434 139.881 416.99 Q142.103 417.545 144.58 417.545 Q148.584 417.545 150.922 415.439 Q153.26 413.332 153.26 409.721 Q153.26 406.11 150.922 404.004 Q148.584 401.897 144.58 401.897 Q142.705 401.897 140.83 402.314 Q138.978 402.73 137.033 403.61 L137.033 386.249 Z" fill="#000000" fill-rule="nonzero" fill-opacity="1" /><path clip-path="url(#clip530)" d="M91.5706 101.321 L99.2095 101.321 L99.2095 74.9555 L90.8993 76.6222 L90.8993 72.3629 L99.1632 70.6963 L103.839 70.6963 L103.839 101.321 L111.478 101.321 L111.478 105.256 L91.5706 105.256 L91.5706 101.321 Z" fill="#000000" fill-rule="nonzero" fill-opacity="1" /><path clip-path="url(#clip530)" d="M120.922 99.3767 L125.807 99.3767 L125.807 105.256 L120.922 105.256 L120.922 99.3767 Z" fill="#000000" fill-rule="nonzero" fill-opacity="1" /><path clip-path="url(#clip530)" d="M145.992 73.775 Q142.381 73.775 140.552 77.3398 Q138.746 80.8814 138.746 88.011 Q138.746 95.1174 140.552 98.6822 Q142.381 102.224 145.992 102.224 Q149.626 102.224 151.431 98.6822 Q153.26 95.1174 153.26 88.011 Q153.26 80.8814 151.431 77.3398 Q149.626 73.775 145.992 73.775 M145.992 70.0713 Q151.802 70.0713 154.857 74.6777 Q157.936 79.261 157.936 88.011 Q157.936 96.7378 154.857 101.344 Q151.802 105.928 145.992 105.928 Q140.181 105.928 137.103 101.344 Q134.047 96.7378 134.047 88.011 Q134.047 79.261 137.103 74.6777 Q140.181 70.0713 145.992 70.0713 Z" fill="#000000" fill-rule="nonzero" fill-opacity="1" /><polyline clip-path="url(#clip532)" style="stroke:#009af9; stroke-linecap:round; stroke-linejoin:round; stroke-width:4; stroke-opacity:1; fill:none" points="255.035,87.9763 307.256,91.0578 359.477,100.611 411.698,116.019 463.919,137.898 516.14,165.324 568.361,198.296 620.582,236.508 672.803,279.342 725.024,326.798 777.246,377.952 829.467,432.804 881.688,490.429 933.909,550.212 986.13,611.843 1038.35,674.437 1090.57,737.513 1142.79,800.358 1195.01,862.452 1247.24,923.082 1299.46,981.785 1351.68,1037.72 1403.9,1090.41 1456.12,1139.72 1508.34,1184.4 1560.56,1224.77 1612.78,1259.9 1665,1289.79 1717.23,1313.82 1769.45,1332.01 1821.67,1344.02 1873.89,1349.57 1926.11,1349.26 1978.33,1342.17 2030.55,1329.23 2082.77,1310.13 2134.99,1285.17 2187.22,1254.35 2239.44,1218.3 2291.66,1177.31 "/>
<polyline clip-path="url(#clip532)" style="stroke:#e26f46; stroke-linecap:round; stroke-linejoin:round; stroke-width:4; stroke-opacity:1; fill:none" points="255.035,87.9763 307.256,91.0578 359.477,100.611 411.698,108.931 463.919,117.559 516.14,125.88 568.361,134.816 620.582,143.136 672.803,152.381 725.024,161.626 777.246,170.254 829.467,178.574 881.688,187.203 933.909,195.831 986.13,204.151 1038.35,212.472 1090.57,220.484 1142.79,228.804 1195.01,236.508 1247.24,243.904 1299.46,251.608 1351.68,259.003 1403.9,266.707 1456.12,274.719 1508.34,282.423 1560.56,290.127 1612.78,297.831 1665,305.843 1717.23,313.855 1769.45,322.176 1821.67,330.496 1873.89,338.508 1926.11,347.136 1978.33,356.073 2030.55,365.318 2082.77,374.87 2134.99,384.115 2187.22,393.668 2239.44,403.529 2291.66,413.39 "/>
<polyline clip-path="url(#clip532)" style="stroke:#3da44d; stroke-linecap:round; stroke-linejoin:round; stroke-width:4; stroke-opacity:1; fill:none" points="255.035,87.9763 307.256,91.0578 359.477,100.611 411.698,124.339 463.919,157.003 516.14,198.296 568.361,244.52 620.582,292.592 672.803,341.281 725.024,388.121 777.246,430.955 829.467,471.94 881.688,507.994 933.909,545.281 986.13,579.178 1038.35,613.692 1090.57,650.055 1142.79,687.033 1195.01,723.088 1247.24,761.299 1299.46,804.133 1351.68,850.511 1403.9,901.048 1456.12,958.211 1508.34,1017.38 1560.56,1081.78 1612.78,1149.89 1665,1218.6 1717.23,1284.55 1769.45,1347.72 1821.67,1395.79 1873.89,1430.92 1926.11,1445.72 1978.33,1440.17 2030.55,1406.89 2082.77,1353.88 2134.99,1281.16 2187.22,1202.89 2239.44,1115.99 2291.66,1032.79 "/>
<polyline clip-path="url(#clip532)" style="stroke:#c271d2; stroke-linecap:round; stroke-linejoin:round; stroke-width:4; stroke-opacity:1; fill:none" points="255.035,87.9763 307.256,91.6742 359.477,94.7557 411.698,98.1455 463.919,101.535 516.14,105.233 568.361,108.931 620.582,112.013 672.803,115.71 725.024,118.792 777.246,122.182 829.467,125.88 881.688,128.961 933.909,132.351 986.13,135.432 1038.35,138.822 1090.57,142.52 1142.79,145.602 1195.01,148.991 1247.24,152.689 1299.46,156.387 1351.68,160.085 1403.9,163.783 1456.12,167.789 1508.34,171.487 1560.56,175.185 1612.78,179.191 1665,182.889 1717.23,186.586 1769.45,190.593 1821.67,194.599 1873.89,198.913 1926.11,202.919 1978.33,206.925 2030.55,210.931 2082.77,214.937 2134.99,218.943 2187.22,222.949 2239.44,226.955 2291.66,230.961 "/>
<polyline clip-path="url(#clip532)" style="stroke:#ff0000; stroke-linecap:round; stroke-linejoin:round; stroke-width:4; stroke-opacity:1; fill:none" points="359.477,2925.65 359.477,-1391.96 "/>
<path clip-path="url(#clip530)" d="M265.897 1438.47 L899.276 1438.47 L899.276 1127.43 L265.897 1127.43  Z" fill="#ffffff" fill-rule="evenodd" fill-opacity="1"/>
<polyline clip-path="url(#clip530)" style="stroke:#000000; stroke-linecap:round; stroke-linejoin:round; stroke-width:4; stroke-opacity:1; fill:none" points="265.897,1438.47 899.276,1438.47 899.276,1127.43 265.897,1127.43 265.897,1438.47 "/>
<polyline clip-path="url(#clip530)" style="stroke:#009af9; stroke-linecap:round; stroke-linejoin:round; stroke-width:4; stroke-opacity:1; fill:none" points="289.884,1179.27 433.805,1179.27 "/>
<path clip-path="url(#clip530)" d="M472.977 1174.61 Q472.259 1174.19 471.403 1174.01 Q470.569 1173.8 469.551 1173.8 Q465.94 1173.8 463.995 1176.16 Q462.074 1178.5 462.074 1182.9 L462.074 1196.55 L457.792 1196.55 L457.792 1170.63 L462.074 1170.63 L462.074 1174.66 Q463.417 1172.3 465.57 1171.16 Q467.722 1170 470.801 1170 Q471.241 1170 471.773 1170.07 Q472.306 1170.12 472.954 1170.24 L472.977 1174.61 Z" fill="#000000" fill-rule="nonzero" fill-opacity="1" /><path clip-path="url(#clip530)" d="M498.579 1182.53 L498.579 1184.61 L478.995 1184.61 Q479.273 1189.01 481.634 1191.32 Q484.018 1193.61 488.255 1193.61 Q490.708 1193.61 493 1193.01 Q495.315 1192.41 497.583 1191.21 L497.583 1195.23 Q495.292 1196.21 492.884 1196.72 Q490.477 1197.23 488 1197.23 Q481.796 1197.23 478.162 1193.61 Q474.551 1190 474.551 1183.85 Q474.551 1177.48 477.977 1173.75 Q481.426 1170 487.259 1170 Q492.491 1170 495.523 1173.38 Q498.579 1176.74 498.579 1182.53 M494.319 1181.28 Q494.273 1177.78 492.352 1175.7 Q490.454 1173.61 487.305 1173.61 Q483.741 1173.61 481.588 1175.63 Q479.458 1177.64 479.134 1181.3 L494.319 1181.28 Z" fill="#000000" fill-rule="nonzero" fill-opacity="1" /><path clip-path="url(#clip530)" d="M518.694 1160.54 L518.694 1164.08 L514.62 1164.08 Q512.329 1164.08 511.426 1165 Q510.546 1165.93 510.546 1168.34 L510.546 1170.63 L517.56 1170.63 L517.56 1173.94 L510.546 1173.94 L510.546 1196.55 L506.264 1196.55 L506.264 1173.94 L502.19 1173.94 L502.19 1170.63 L506.264 1170.63 L506.264 1168.82 Q506.264 1164.49 508.278 1162.53 Q510.291 1160.54 514.666 1160.54 L518.694 1160.54 Z" fill="#000000" fill-rule="nonzero" fill-opacity="1" /><path clip-path="url(#clip530)" d="M544.435 1182.53 L544.435 1184.61 L524.852 1184.61 Q525.129 1189.01 527.49 1191.32 Q529.875 1193.61 534.111 1193.61 Q536.564 1193.61 538.856 1193.01 Q541.171 1192.41 543.439 1191.21 L543.439 1195.23 Q541.148 1196.21 538.74 1196.72 Q536.333 1197.23 533.856 1197.23 Q527.653 1197.23 524.018 1193.61 Q520.407 1190 520.407 1183.85 Q520.407 1177.48 523.833 1173.75 Q527.282 1170 533.115 1170 Q538.347 1170 541.379 1173.38 Q544.435 1176.74 544.435 1182.53 M540.176 1181.28 Q540.129 1177.78 538.208 1175.7 Q536.31 1173.61 533.162 1173.61 Q529.597 1173.61 527.444 1175.63 Q525.315 1177.64 524.99 1181.3 L540.176 1181.28 Z" fill="#000000" fill-rule="nonzero" fill-opacity="1" /><path clip-path="url(#clip530)" d="M566.449 1174.61 Q565.731 1174.19 564.875 1174.01 Q564.041 1173.8 563.023 1173.8 Q559.412 1173.8 557.467 1176.16 Q555.546 1178.5 555.546 1182.9 L555.546 1196.55 L551.263 1196.55 L551.263 1170.63 L555.546 1170.63 L555.546 1174.66 Q556.888 1172.3 559.041 1171.16 Q561.194 1170 564.273 1170 Q564.712 1170 565.245 1170.07 Q565.777 1170.12 566.425 1170.24 L566.449 1174.61 Z" fill="#000000" fill-rule="nonzero" fill-opacity="1" /><path clip-path="url(#clip530)" d="M592.05 1182.53 L592.05 1184.61 L572.467 1184.61 Q572.745 1189.01 575.106 1191.32 Q577.49 1193.61 581.726 1193.61 Q584.18 1193.61 586.472 1193.01 Q588.786 1192.41 591.055 1191.21 L591.055 1195.23 Q588.763 1196.21 586.356 1196.72 Q583.948 1197.23 581.472 1197.23 Q575.268 1197.23 571.634 1193.61 Q568.023 1190 568.023 1183.85 Q568.023 1177.48 571.449 1173.75 Q574.898 1170 580.731 1170 Q585.962 1170 588.995 1173.38 Q592.05 1176.74 592.05 1182.53 M587.791 1181.28 Q587.745 1177.78 585.823 1175.7 Q583.925 1173.61 580.777 1173.61 Q577.212 1173.61 575.06 1175.63 Q572.93 1177.64 572.606 1181.3 L587.791 1181.28 Z" fill="#000000" fill-rule="nonzero" fill-opacity="1" /><path clip-path="url(#clip530)" d="M620.592 1180.91 L620.592 1196.55 L616.333 1196.55 L616.333 1181.05 Q616.333 1177.36 614.897 1175.54 Q613.462 1173.71 610.592 1173.71 Q607.143 1173.71 605.152 1175.91 Q603.161 1178.11 603.161 1181.9 L603.161 1196.55 L598.879 1196.55 L598.879 1170.63 L603.161 1170.63 L603.161 1174.66 Q604.689 1172.32 606.749 1171.16 Q608.833 1170 611.541 1170 Q616.009 1170 618.3 1172.78 Q620.592 1175.54 620.592 1180.91 Z" fill="#000000" fill-rule="nonzero" fill-opacity="1" /><path clip-path="url(#clip530)" d="M647.744 1171.62 L647.744 1175.61 Q645.939 1174.61 644.11 1174.12 Q642.305 1173.61 640.453 1173.61 Q636.309 1173.61 634.018 1176.25 Q631.726 1178.87 631.726 1183.61 Q631.726 1188.36 634.018 1191 Q636.309 1193.61 640.453 1193.61 Q642.305 1193.61 644.11 1193.13 Q645.939 1192.62 647.744 1191.62 L647.744 1195.56 Q645.962 1196.39 644.041 1196.81 Q642.143 1197.23 639.99 1197.23 Q634.133 1197.23 630.684 1193.55 Q627.235 1189.86 627.235 1183.61 Q627.235 1177.27 630.708 1173.64 Q634.203 1170 640.268 1170 Q642.235 1170 644.11 1170.42 Q645.985 1170.81 647.744 1171.62 Z" fill="#000000" fill-rule="nonzero" fill-opacity="1" /><path clip-path="url(#clip530)" d="M677.328 1182.53 L677.328 1184.61 L657.744 1184.61 Q658.022 1189.01 660.383 1191.32 Q662.768 1193.61 667.004 1193.61 Q669.457 1193.61 671.749 1193.01 Q674.064 1192.41 676.332 1191.21 L676.332 1195.23 Q674.041 1196.21 671.633 1196.72 Q669.226 1197.23 666.749 1197.23 Q660.545 1197.23 656.911 1193.61 Q653.3 1190 653.3 1183.85 Q653.3 1177.48 656.726 1173.75 Q660.175 1170 666.008 1170 Q671.24 1170 674.272 1173.38 Q677.328 1176.74 677.328 1182.53 M673.068 1181.28 Q673.022 1177.78 671.101 1175.7 Q669.203 1173.61 666.055 1173.61 Q662.49 1173.61 660.337 1175.63 Q658.207 1177.64 657.883 1181.3 L673.068 1181.28 Z" fill="#000000" fill-rule="nonzero" fill-opacity="1" /><polyline clip-path="url(#clip530)" style="stroke:#e26f46; stroke-linecap:round; stroke-linejoin:round; stroke-width:4; stroke-opacity:1; fill:none" points="289.884,1231.11 433.805,1231.11 "/>
<path clip-path="url(#clip530)" d="M476.218 1223.23 L476.218 1227.26 Q474.412 1226.33 472.468 1225.87 Q470.523 1225.41 468.44 1225.41 Q465.269 1225.41 463.671 1226.38 Q462.097 1227.35 462.097 1229.3 Q462.097 1230.78 463.232 1231.64 Q464.366 1232.47 467.792 1233.23 L469.25 1233.56 Q473.787 1234.53 475.685 1236.31 Q477.606 1238.07 477.606 1241.24 Q477.606 1244.85 474.736 1246.96 Q471.889 1249.07 466.889 1249.07 Q464.806 1249.07 462.537 1248.65 Q460.292 1248.26 457.792 1247.45 L457.792 1243.05 Q460.153 1244.27 462.445 1244.9 Q464.736 1245.5 466.982 1245.5 Q469.991 1245.5 471.611 1244.48 Q473.231 1243.44 473.231 1241.57 Q473.231 1239.83 472.051 1238.9 Q470.894 1237.98 466.935 1237.12 L465.454 1236.77 Q461.495 1235.94 459.736 1234.23 Q457.977 1232.49 457.977 1229.48 Q457.977 1225.83 460.57 1223.83 Q463.162 1221.84 467.931 1221.84 Q470.292 1221.84 472.375 1222.19 Q474.458 1222.54 476.218 1223.23 Z" fill="#000000" fill-rule="nonzero" fill-opacity="1" /><path clip-path="url(#clip530)" d="M484.227 1212.38 L488.509 1212.38 L488.509 1233.65 L501.217 1222.47 L506.657 1222.47 L492.907 1234.6 L507.236 1248.39 L501.68 1248.39 L488.509 1235.73 L488.509 1248.39 L484.227 1248.39 L484.227 1212.38 Z" fill="#000000" fill-rule="nonzero" fill-opacity="1" /><path clip-path="url(#clip530)" d="M532.328 1234.37 L532.328 1236.45 L512.745 1236.45 Q513.023 1240.85 515.384 1243.16 Q517.768 1245.45 522.004 1245.45 Q524.458 1245.45 526.75 1244.85 Q529.065 1244.25 531.333 1243.05 L531.333 1247.07 Q529.041 1248.05 526.634 1248.56 Q524.227 1249.07 521.75 1249.07 Q515.546 1249.07 511.912 1245.45 Q508.301 1241.84 508.301 1235.69 Q508.301 1229.32 511.727 1225.59 Q515.176 1221.84 521.009 1221.84 Q526.24 1221.84 529.273 1225.22 Q532.328 1228.58 532.328 1234.37 M528.069 1233.12 Q528.023 1229.62 526.102 1227.54 Q524.203 1225.45 521.055 1225.45 Q517.491 1225.45 515.338 1227.47 Q513.208 1229.48 512.884 1233.14 L528.069 1233.12 Z" fill="#000000" fill-rule="nonzero" fill-opacity="1" /><path clip-path="url(#clip530)" d="M536.842 1222.47 L541.102 1222.47 L546.426 1242.7 L551.726 1222.47 L556.75 1222.47 L562.074 1242.7 L567.375 1222.47 L571.634 1222.47 L564.851 1248.39 L559.828 1248.39 L554.25 1227.14 L548.648 1248.39 L543.625 1248.39 L536.842 1222.47 Z" fill="#000000" fill-rule="nonzero" fill-opacity="1" /><polyline clip-path="url(#clip530)" style="stroke:#3da44d; stroke-linecap:round; stroke-linejoin:round; stroke-width:4; stroke-opacity:1; fill:none" points="289.884,1282.95 433.805,1282.95 "/>
<path clip-path="url(#clip530)" d="M471.194 1287.2 Q466.032 1287.2 464.042 1288.38 Q462.051 1289.56 462.051 1292.41 Q462.051 1294.68 463.532 1296.02 Q465.037 1297.34 467.607 1297.34 Q471.148 1297.34 473.278 1294.84 Q475.431 1292.32 475.431 1288.15 L475.431 1287.2 L471.194 1287.2 M479.69 1285.44 L479.69 1300.23 L475.431 1300.23 L475.431 1296.3 Q473.972 1298.66 471.796 1299.79 Q469.62 1300.91 466.472 1300.91 Q462.491 1300.91 460.13 1298.68 Q457.792 1296.44 457.792 1292.69 Q457.792 1288.31 460.708 1286.09 Q463.648 1283.87 469.458 1283.87 L475.431 1283.87 L475.431 1283.45 Q475.431 1280.51 473.486 1278.92 Q471.565 1277.29 468.069 1277.29 Q465.847 1277.29 463.741 1277.83 Q461.634 1278.36 459.69 1279.42 L459.69 1275.49 Q462.028 1274.59 464.227 1274.15 Q466.426 1273.68 468.509 1273.68 Q474.134 1273.68 476.912 1276.6 Q479.69 1279.52 479.69 1285.44 Z" fill="#000000" fill-rule="nonzero" fill-opacity="1" /><path clip-path="url(#clip530)" d="M503.486 1278.29 Q502.768 1277.87 501.912 1277.69 Q501.079 1277.48 500.06 1277.48 Q496.449 1277.48 494.505 1279.84 Q492.583 1282.18 492.583 1286.58 L492.583 1300.23 L488.301 1300.23 L488.301 1274.31 L492.583 1274.31 L492.583 1278.34 Q493.926 1275.98 496.079 1274.84 Q498.231 1273.68 501.31 1273.68 Q501.75 1273.68 502.282 1273.75 Q502.815 1273.8 503.463 1273.92 L503.486 1278.29 Z" fill="#000000" fill-rule="nonzero" fill-opacity="1" /><path clip-path="url(#clip530)" d="M526.565 1287.29 Q526.565 1282.6 524.62 1279.93 Q522.699 1277.25 519.319 1277.25 Q515.94 1277.25 513.995 1279.93 Q512.074 1282.6 512.074 1287.29 Q512.074 1291.99 513.995 1294.68 Q515.94 1297.34 519.319 1297.34 Q522.699 1297.34 524.62 1294.68 Q526.565 1291.99 526.565 1287.29 M512.074 1278.24 Q513.416 1275.93 515.453 1274.82 Q517.514 1273.68 520.361 1273.68 Q525.083 1273.68 528.023 1277.43 Q530.986 1281.18 530.986 1287.29 Q530.986 1293.41 528.023 1297.16 Q525.083 1300.91 520.361 1300.91 Q517.514 1300.91 515.453 1299.79 Q513.416 1298.66 512.074 1296.35 L512.074 1300.23 L507.791 1300.23 L507.791 1264.22 L512.074 1264.22 L512.074 1278.24 Z" fill="#000000" fill-rule="nonzero" fill-opacity="1" /><polyline clip-path="url(#clip530)" style="stroke:#c271d2; stroke-linecap:round; stroke-linejoin:round; stroke-width:4; stroke-opacity:1; fill:none" points="289.884,1334.79 433.805,1334.79 "/>
<path clip-path="url(#clip530)" d="M478.301 1327.14 L478.301 1331.13 Q476.495 1330.13 474.667 1329.64 Q472.861 1329.13 471.009 1329.13 Q466.866 1329.13 464.574 1331.77 Q462.282 1334.39 462.282 1339.13 Q462.282 1343.88 464.574 1346.52 Q466.866 1349.13 471.009 1349.13 Q472.861 1349.13 474.667 1348.65 Q476.495 1348.14 478.301 1347.14 L478.301 1351.08 Q476.519 1351.91 474.597 1352.33 Q472.699 1352.75 470.546 1352.75 Q464.69 1352.75 461.241 1349.07 Q457.792 1345.38 457.792 1339.13 Q457.792 1332.79 461.264 1329.16 Q464.759 1325.52 470.824 1325.52 Q472.792 1325.52 474.667 1325.94 Q476.542 1326.33 478.301 1327.14 Z" fill="#000000" fill-rule="nonzero" fill-opacity="1" /><path clip-path="url(#clip530)" d="M495.755 1329.13 Q492.329 1329.13 490.338 1331.82 Q488.347 1334.48 488.347 1339.13 Q488.347 1343.79 490.315 1346.47 Q492.305 1349.13 495.755 1349.13 Q499.157 1349.13 501.148 1346.45 Q503.139 1343.76 503.139 1339.13 Q503.139 1334.53 501.148 1331.84 Q499.157 1329.13 495.755 1329.13 M495.755 1325.52 Q501.31 1325.52 504.481 1329.13 Q507.653 1332.75 507.653 1339.13 Q507.653 1345.5 504.481 1349.13 Q501.31 1352.75 495.755 1352.75 Q490.176 1352.75 487.005 1349.13 Q483.856 1345.5 483.856 1339.13 Q483.856 1332.75 487.005 1329.13 Q490.176 1325.52 495.755 1325.52 Z" fill="#000000" fill-rule="nonzero" fill-opacity="1" /><path clip-path="url(#clip530)" d="M534.898 1331.13 Q536.495 1328.26 538.717 1326.89 Q540.939 1325.52 543.949 1325.52 Q548 1325.52 550.199 1328.37 Q552.398 1331.19 552.398 1336.43 L552.398 1352.07 L548.115 1352.07 L548.115 1336.57 Q548.115 1332.84 546.796 1331.03 Q545.476 1329.23 542.768 1329.23 Q539.458 1329.23 537.537 1331.43 Q535.615 1333.63 535.615 1337.42 L535.615 1352.07 L531.333 1352.07 L531.333 1336.57 Q531.333 1332.82 530.014 1331.03 Q528.694 1329.23 525.94 1329.23 Q522.676 1329.23 520.754 1331.45 Q518.833 1333.65 518.833 1337.42 L518.833 1352.07 L514.551 1352.07 L514.551 1326.15 L518.833 1326.15 L518.833 1330.18 Q520.291 1327.79 522.328 1326.66 Q524.365 1325.52 527.166 1325.52 Q529.99 1325.52 531.958 1326.96 Q533.949 1328.39 534.898 1331.13 Z" fill="#000000" fill-rule="nonzero" fill-opacity="1" /><path clip-path="url(#clip530)" d="M565.013 1348.19 L565.013 1361.94 L560.731 1361.94 L560.731 1326.15 L565.013 1326.15 L565.013 1330.08 Q566.356 1327.77 568.393 1326.66 Q570.453 1325.52 573.3 1325.52 Q578.023 1325.52 580.962 1329.27 Q583.925 1333.02 583.925 1339.13 Q583.925 1345.25 580.962 1349 Q578.023 1352.75 573.3 1352.75 Q570.453 1352.75 568.393 1351.63 Q566.356 1350.5 565.013 1348.19 M579.504 1339.13 Q579.504 1334.44 577.56 1331.77 Q575.638 1329.09 572.259 1329.09 Q568.879 1329.09 566.935 1331.77 Q565.013 1334.44 565.013 1339.13 Q565.013 1343.83 566.935 1346.52 Q568.879 1349.18 572.259 1349.18 Q575.638 1349.18 577.56 1346.52 Q579.504 1343.83 579.504 1339.13 Z" fill="#000000" fill-rule="nonzero" fill-opacity="1" /><polyline clip-path="url(#clip530)" style="stroke:#ff0000; stroke-linecap:round; stroke-linejoin:round; stroke-width:4; stroke-opacity:1; fill:none" points="289.884,1386.63 433.805,1386.63 "/>
<path clip-path="url(#clip530)" d="M476.218 1378.75 L476.218 1382.78 Q474.412 1381.85 472.468 1381.39 Q470.523 1380.93 468.44 1380.93 Q465.269 1380.93 463.671 1381.9 Q462.097 1382.87 462.097 1384.82 Q462.097 1386.3 463.232 1387.16 Q464.366 1387.99 467.792 1388.75 L469.25 1389.08 Q473.787 1390.05 475.685 1391.83 Q477.606 1393.59 477.606 1396.76 Q477.606 1400.37 474.736 1402.48 Q471.889 1404.59 466.889 1404.59 Q464.806 1404.59 462.537 1404.17 Q460.292 1403.78 457.792 1402.97 L457.792 1398.57 Q460.153 1399.79 462.445 1400.42 Q464.736 1401.02 466.982 1401.02 Q469.991 1401.02 471.611 1400 Q473.231 1398.96 473.231 1397.09 Q473.231 1395.35 472.051 1394.42 Q470.894 1393.5 466.935 1392.64 L465.454 1392.29 Q461.495 1391.46 459.736 1389.75 Q457.977 1388.01 457.977 1385 Q457.977 1381.35 460.57 1379.35 Q463.162 1377.36 467.931 1377.36 Q470.292 1377.36 472.375 1377.71 Q474.458 1378.06 476.218 1378.75 Z" fill="#000000" fill-rule="nonzero" fill-opacity="1" /><path clip-path="url(#clip530)" d="M488.602 1370.63 L488.602 1377.99 L497.375 1377.99 L497.375 1381.3 L488.602 1381.3 L488.602 1395.37 Q488.602 1398.54 489.458 1399.45 Q490.338 1400.35 493 1400.35 L497.375 1400.35 L497.375 1403.91 L493 1403.91 Q488.069 1403.91 486.194 1402.09 Q484.319 1400.23 484.319 1395.37 L484.319 1381.3 L481.194 1381.3 L481.194 1377.99 L484.319 1377.99 L484.319 1370.63 L488.602 1370.63 Z" fill="#000000" fill-rule="nonzero" fill-opacity="1" /><path clip-path="url(#clip530)" d="M514.759 1390.88 Q509.597 1390.88 507.606 1392.06 Q505.616 1393.24 505.616 1396.09 Q505.616 1398.36 507.097 1399.7 Q508.602 1401.02 511.171 1401.02 Q514.713 1401.02 516.842 1398.52 Q518.995 1396 518.995 1391.83 L518.995 1390.88 L514.759 1390.88 M523.254 1389.12 L523.254 1403.91 L518.995 1403.91 L518.995 1399.98 Q517.537 1402.34 515.361 1403.47 Q513.185 1404.59 510.037 1404.59 Q506.055 1404.59 503.694 1402.36 Q501.356 1400.12 501.356 1396.37 Q501.356 1391.99 504.273 1389.77 Q507.213 1387.55 513.023 1387.55 L518.995 1387.55 L518.995 1387.13 Q518.995 1384.19 517.051 1382.6 Q515.129 1380.97 511.634 1380.97 Q509.412 1380.97 507.305 1381.51 Q505.199 1382.04 503.254 1383.1 L503.254 1379.17 Q505.592 1378.27 507.791 1377.83 Q509.991 1377.36 512.074 1377.36 Q517.699 1377.36 520.477 1380.28 Q523.254 1383.2 523.254 1389.12 Z" fill="#000000" fill-rule="nonzero" fill-opacity="1" /><path clip-path="url(#clip530)" d="M547.051 1381.97 Q546.333 1381.55 545.476 1381.37 Q544.643 1381.16 543.625 1381.16 Q540.014 1381.16 538.069 1383.52 Q536.148 1385.86 536.148 1390.26 L536.148 1403.91 L531.865 1403.91 L531.865 1377.99 L536.148 1377.99 L536.148 1382.02 Q537.49 1379.66 539.643 1378.52 Q541.796 1377.36 544.875 1377.36 Q545.314 1377.36 545.847 1377.43 Q546.379 1377.48 547.027 1377.6 L547.051 1381.97 Z" fill="#000000" fill-rule="nonzero" fill-opacity="1" /><path clip-path="url(#clip530)" d="M555.731 1370.63 L555.731 1377.99 L564.504 1377.99 L564.504 1381.3 L555.731 1381.3 L555.731 1395.37 Q555.731 1398.54 556.588 1399.45 Q557.467 1400.35 560.129 1400.35 L564.504 1400.35 L564.504 1403.91 L560.129 1403.91 Q555.199 1403.91 553.324 1402.09 Q551.449 1400.23 551.449 1395.37 L551.449 1381.3 L548.324 1381.3 L548.324 1377.99 L551.449 1377.99 L551.449 1370.63 L555.731 1370.63 Z" fill="#000000" fill-rule="nonzero" fill-opacity="1" /><path clip-path="url(#clip530)" d="M595.222 1380.97 Q591.796 1380.97 589.805 1383.66 Q587.814 1386.32 587.814 1390.97 Q587.814 1395.63 589.782 1398.31 Q591.773 1400.97 595.222 1400.97 Q598.624 1400.97 600.615 1398.29 Q602.606 1395.6 602.606 1390.97 Q602.606 1386.37 600.615 1383.68 Q598.624 1380.97 595.222 1380.97 M595.222 1377.36 Q600.777 1377.36 603.948 1380.97 Q607.12 1384.59 607.12 1390.97 Q607.12 1397.34 603.948 1400.97 Q600.777 1404.59 595.222 1404.59 Q589.643 1404.59 586.472 1400.97 Q583.323 1397.34 583.323 1390.97 Q583.323 1384.59 586.472 1380.97 Q589.643 1377.36 595.222 1377.36 Z" fill="#000000" fill-rule="nonzero" fill-opacity="1" /><path clip-path="url(#clip530)" d="M627.305 1367.9 L627.305 1371.44 L623.231 1371.44 Q620.939 1371.44 620.036 1372.36 Q619.157 1373.29 619.157 1375.7 L619.157 1377.99 L626.17 1377.99 L626.17 1381.3 L619.157 1381.3 L619.157 1403.91 L614.874 1403.91 L614.874 1381.3 L610.8 1381.3 L610.8 1377.99 L614.874 1377.99 L614.874 1376.18 Q614.874 1371.85 616.888 1369.89 Q618.902 1367.9 623.277 1367.9 L627.305 1367.9 Z" fill="#000000" fill-rule="nonzero" fill-opacity="1" /><path clip-path="url(#clip530)" d="M650.059 1400.03 L650.059 1413.78 L645.777 1413.78 L645.777 1377.99 L650.059 1377.99 L650.059 1381.92 Q651.402 1379.61 653.439 1378.5 Q655.499 1377.36 658.346 1377.36 Q663.068 1377.36 666.008 1381.11 Q668.971 1384.86 668.971 1390.97 Q668.971 1397.09 666.008 1400.84 Q663.068 1404.59 658.346 1404.59 Q655.499 1404.59 653.439 1403.47 Q651.402 1402.34 650.059 1400.03 M664.55 1390.97 Q664.55 1386.28 662.605 1383.61 Q660.684 1380.93 657.305 1380.93 Q653.925 1380.93 651.981 1383.61 Q650.059 1386.28 650.059 1390.97 Q650.059 1395.67 651.981 1398.36 Q653.925 1401.02 657.305 1401.02 Q660.684 1401.02 662.605 1398.36 Q664.55 1395.67 664.55 1390.97 Z" fill="#000000" fill-rule="nonzero" fill-opacity="1" /><path clip-path="url(#clip530)" d="M691.054 1381.97 Q690.337 1381.55 689.48 1381.37 Q688.647 1381.16 687.628 1381.16 Q684.017 1381.16 682.073 1383.52 Q680.152 1385.86 680.152 1390.26 L680.152 1403.91 L675.869 1403.91 L675.869 1377.99 L680.152 1377.99 L680.152 1382.02 Q681.494 1379.66 683.647 1378.52 Q685.8 1377.36 688.878 1377.36 Q689.318 1377.36 689.851 1377.43 Q690.383 1377.48 691.031 1377.6 L691.054 1381.97 Z" fill="#000000" fill-rule="nonzero" fill-opacity="1" /><path clip-path="url(#clip530)" d="M716.656 1389.89 L716.656 1391.97 L697.073 1391.97 Q697.351 1396.37 699.712 1398.68 Q702.096 1400.97 706.332 1400.97 Q708.786 1400.97 711.077 1400.37 Q713.392 1399.77 715.661 1398.57 L715.661 1402.59 Q713.369 1403.57 710.962 1404.08 Q708.554 1404.59 706.077 1404.59 Q699.874 1404.59 696.24 1400.97 Q692.628 1397.36 692.628 1391.21 Q692.628 1384.84 696.054 1381.11 Q699.503 1377.36 705.337 1377.36 Q710.568 1377.36 713.601 1380.74 Q716.656 1384.1 716.656 1389.89 M712.397 1388.64 Q712.351 1385.14 710.429 1383.06 Q708.531 1380.97 705.383 1380.97 Q701.818 1380.97 699.665 1382.99 Q697.536 1385 697.212 1388.66 L712.397 1388.64 Z" fill="#000000" fill-rule="nonzero" fill-opacity="1" /><path clip-path="url(#clip530)" d="M740.707 1381.92 L740.707 1367.9 L744.966 1367.9 L744.966 1403.91 L740.707 1403.91 L740.707 1400.03 Q739.364 1402.34 737.304 1403.47 Q735.267 1404.59 732.397 1404.59 Q727.698 1404.59 724.735 1400.84 Q721.795 1397.09 721.795 1390.97 Q721.795 1384.86 724.735 1381.11 Q727.698 1377.36 732.397 1377.36 Q735.267 1377.36 737.304 1378.5 Q739.364 1379.61 740.707 1381.92 M726.193 1390.97 Q726.193 1395.67 728.114 1398.36 Q730.059 1401.02 733.438 1401.02 Q736.818 1401.02 738.762 1398.36 Q740.707 1395.67 740.707 1390.97 Q740.707 1386.28 738.762 1383.61 Q736.818 1380.93 733.438 1380.93 Q730.059 1380.93 728.114 1383.61 Q726.193 1386.28 726.193 1390.97 Z" fill="#000000" fill-rule="nonzero" fill-opacity="1" /><path clip-path="url(#clip530)" d="M753.739 1377.99 L757.998 1377.99 L757.998 1403.91 L753.739 1403.91 L753.739 1377.99 M753.739 1367.9 L757.998 1367.9 L757.998 1373.29 L753.739 1373.29 L753.739 1367.9 Z" fill="#000000" fill-rule="nonzero" fill-opacity="1" /><path clip-path="url(#clip530)" d="M785.568 1378.98 L785.568 1382.97 Q783.762 1381.97 781.934 1381.48 Q780.128 1380.97 778.276 1380.97 Q774.133 1380.97 771.841 1383.61 Q769.549 1386.23 769.549 1390.97 Q769.549 1395.72 771.841 1398.36 Q774.133 1400.97 778.276 1400.97 Q780.128 1400.97 781.934 1400.49 Q783.762 1399.98 785.568 1398.98 L785.568 1402.92 Q783.785 1403.75 781.864 1404.17 Q779.966 1404.59 777.813 1404.59 Q771.957 1404.59 768.508 1400.91 Q765.059 1397.22 765.059 1390.97 Q765.059 1384.63 768.531 1381 Q772.026 1377.36 778.091 1377.36 Q780.059 1377.36 781.934 1377.78 Q783.809 1378.17 785.568 1378.98 Z" fill="#000000" fill-rule="nonzero" fill-opacity="1" /><path clip-path="url(#clip530)" d="M797.188 1370.63 L797.188 1377.99 L805.961 1377.99 L805.961 1381.3 L797.188 1381.3 L797.188 1395.37 Q797.188 1398.54 798.045 1399.45 Q798.924 1400.35 801.586 1400.35 L805.961 1400.35 L805.961 1403.91 L801.586 1403.91 Q796.656 1403.91 794.781 1402.09 Q792.906 1400.23 792.906 1395.37 L792.906 1381.3 L789.781 1381.3 L789.781 1377.99 L792.906 1377.99 L792.906 1370.63 L797.188 1370.63 Z" fill="#000000" fill-rule="nonzero" fill-opacity="1" /><path clip-path="url(#clip530)" d="M811.563 1377.99 L815.822 1377.99 L815.822 1403.91 L811.563 1403.91 L811.563 1377.99 M811.563 1367.9 L815.822 1367.9 L815.822 1373.29 L811.563 1373.29 L811.563 1367.9 Z" fill="#000000" fill-rule="nonzero" fill-opacity="1" /><path clip-path="url(#clip530)" d="M834.78 1380.97 Q831.355 1380.97 829.364 1383.66 Q827.373 1386.32 827.373 1390.97 Q827.373 1395.63 829.341 1398.31 Q831.331 1400.97 834.78 1400.97 Q838.183 1400.97 840.174 1398.29 Q842.165 1395.6 842.165 1390.97 Q842.165 1386.37 840.174 1383.68 Q838.183 1380.97 834.78 1380.97 M834.78 1377.36 Q840.336 1377.36 843.507 1380.97 Q846.679 1384.59 846.679 1390.97 Q846.679 1397.34 843.507 1400.97 Q840.336 1404.59 834.78 1404.59 Q829.202 1404.59 826.031 1400.97 Q822.882 1397.34 822.882 1390.97 Q822.882 1384.59 826.031 1380.97 Q829.202 1377.36 834.78 1377.36 Z" fill="#000000" fill-rule="nonzero" fill-opacity="1" /><path clip-path="url(#clip530)" d="M875.29 1388.27 L875.29 1403.91 L871.03 1403.91 L871.03 1388.41 Q871.03 1384.72 869.595 1382.9 Q868.16 1381.07 865.29 1381.07 Q861.841 1381.07 859.85 1383.27 Q857.859 1385.47 857.859 1389.26 L857.859 1403.91 L853.577 1403.91 L853.577 1377.99 L857.859 1377.99 L857.859 1382.02 Q859.387 1379.68 861.447 1378.52 Q863.53 1377.36 866.239 1377.36 Q870.706 1377.36 872.998 1380.14 Q875.29 1382.9 875.29 1388.27 Z" fill="#000000" fill-rule="nonzero" fill-opacity="1" /></svg>
