<?xml version="1.0" encoding="utf-8"?>
<svg xmlns="http://www.w3.org/2000/svg" xmlns:xlink="http://www.w3.org/1999/xlink" width="600" height="400" viewBox="0 0 2400 1600">
<defs>
  <clipPath id="clip530">
    <rect x="0" y="0" width="2400" height="1600"/>
  </clipPath>
</defs>
<path clip-path="url(#clip530)" d="M0 1600 L2400 1600 L2400 0 L0 0  Z" fill="#ffffff" fill-rule="evenodd" fill-opacity="1"/>
<defs>
  <clipPath id="clip531">
    <rect x="480" y="0" width="1681" height="1600"/>
  </clipPath>
</defs>
<path clip-path="url(#clip530)" d="M193.936 1486.45 L2352.76 1486.45 L2352.76 47.2441 L193.936 47.2441  Z" fill="#ffffff" fill-rule="evenodd" fill-opacity="1"/>
<defs>
  <clipPath id="clip532">
    <rect x="193" y="47" width="2160" height="1440"/>
  </clipPath>
</defs>
<polyline clip-path="url(#clip532)" style="stroke:#000000; stroke-linecap:round; stroke-linejoin:round; stroke-width:2; stroke-opacity:0.1; fill:none" points="202.814,1486.45 202.814,47.2441 "/>
<polyline clip-path="url(#clip532)" style="stroke:#000000; stroke-linecap:round; stroke-linejoin:round; stroke-width:2; stroke-opacity:0.1; fill:none" points="725.024,1486.45 725.024,47.2441 "/>
<polyline clip-path="url(#clip532)" style="stroke:#000000; stroke-linecap:round; stroke-linejoin:round; stroke-width:2; stroke-opacity:0.1; fill:none" points="1247.24,1486.45 1247.24,47.2441 "/>
<polyline clip-path="url(#clip532)" style="stroke:#000000; stroke-linecap:round; stroke-linejoin:round; stroke-width:2; stroke-opacity:0.1; fill:none" points="1769.45,1486.45 1769.45,47.2441 "/>
<polyline clip-path="url(#clip532)" style="stroke:#000000; stroke-linecap:round; stroke-linejoin:round; stroke-width:2; stroke-opacity:0.1; fill:none" points="2291.66,1486.45 2291.66,47.2441 "/>
<polyline clip-path="url(#clip530)" style="stroke:#000000; stroke-linecap:round; stroke-linejoin:round; stroke-width:4; stroke-opacity:1; fill:none" points="193.936,1486.45 2352.76,1486.45 "/>
<polyline clip-path="url(#clip530)" style="stroke:#000000; stroke-linecap:round; stroke-linejoin:round; stroke-width:4; stroke-opacity:1; fill:none" points="202.814,1486.45 202.814,1467.55 "/>
<polyline clip-path="url(#clip530)" style="stroke:#000000; stroke-linecap:round; stroke-linejoin:round; stroke-width:4; stroke-opacity:1; fill:none" points="725.024,1486.45 725.024,1467.55 "/>
<polyline clip-path="url(#clip530)" style="stroke:#000000; stroke-linecap:round; stroke-linejoin:round; stroke-width:4; stroke-opacity:1; fill:none" points="1247.24,1486.45 1247.24,1467.55 "/>
<polyline clip-path="url(#clip530)" style="stroke:#000000; stroke-linecap:round; stroke-linejoin:round; stroke-width:4; stroke-opacity:1; fill:none" points="1769.45,1486.45 1769.45,1467.55 "/>
<polyline clip-path="url(#clip530)" style="stroke:#000000; stroke-linecap:round; stroke-linejoin:round; stroke-width:4; stroke-opacity:1; fill:none" points="2291.66,1486.45 2291.66,1467.55 "/>
<path clip-path="url(#clip530)" d="M202.814 1517.37 Q199.202 1517.37 197.374 1520.93 Q195.568 1524.47 195.568 1531.6 Q195.568 1538.71 197.374 1542.27 Q199.202 1545.82 202.814 1545.82 Q206.448 1545.82 208.253 1542.27 Q210.082 1538.71 210.082 1531.6 Q210.082 1524.47 208.253 1520.93 Q206.448 1517.37 202.814 1517.37 M202.814 1513.66 Q208.624 1513.66 211.679 1518.27 Q214.758 1522.85 214.758 1531.6 Q214.758 1540.33 211.679 1544.94 Q208.624 1549.52 202.814 1549.52 Q197.003 1549.52 193.925 1544.94 Q190.869 1540.33 190.869 1531.6 Q190.869 1522.85 193.925 1518.27 Q197.003 1513.66 202.814 1513.66 Z" fill="#000000" fill-rule="nonzero" fill-opacity="1" /><path clip-path="url(#clip530)" d="M699.712 1544.91 L707.351 1544.91 L707.351 1518.55 L699.041 1520.21 L699.041 1515.95 L707.305 1514.29 L711.981 1514.29 L711.981 1544.91 L719.619 1544.91 L719.619 1548.85 L699.712 1548.85 L699.712 1544.91 Z" fill="#000000" fill-rule="nonzero" fill-opacity="1" /><path clip-path="url(#clip530)" d="M739.064 1517.37 Q735.453 1517.37 733.624 1520.93 Q731.818 1524.47 731.818 1531.6 Q731.818 1538.71 733.624 1542.27 Q735.453 1545.82 739.064 1545.82 Q742.698 1545.82 744.504 1542.27 Q746.332 1538.71 746.332 1531.6 Q746.332 1524.47 744.504 1520.93 Q742.698 1517.37 739.064 1517.37 M739.064 1513.66 Q744.874 1513.66 747.929 1518.27 Q751.008 1522.85 751.008 1531.6 Q751.008 1540.33 747.929 1544.94 Q744.874 1549.52 739.064 1549.52 Q733.254 1549.52 730.175 1544.94 Q727.119 1540.33 727.119 1531.6 Q727.119 1522.85 730.175 1518.27 Q733.254 1513.66 739.064 1513.66 Z" fill="#000000" fill-rule="nonzero" fill-opacity="1" /><path clip-path="url(#clip530)" d="M1226.01 1544.91 L1242.33 1544.91 L1242.33 1548.85 L1220.38 1548.85 L1220.38 1544.91 Q1223.05 1542.16 1227.63 1537.53 Q1232.24 1532.88 1233.42 1531.53 Q1235.66 1529.01 1236.54 1527.27 Q1237.44 1525.51 1237.44 1523.82 Q1237.44 1521.07 1235.5 1519.33 Q1233.58 1517.6 1230.48 1517.6 Q1228.28 1517.6 1225.82 1518.36 Q1223.39 1519.13 1220.62 1520.68 L1220.62 1515.95 Q1223.44 1514.82 1225.89 1514.24 Q1228.35 1513.66 1230.38 1513.66 Q1235.75 1513.66 1238.95 1516.35 Q1242.14 1519.03 1242.14 1523.52 Q1242.14 1525.65 1241.33 1527.57 Q1240.55 1529.47 1238.44 1532.07 Q1237.86 1532.74 1234.76 1535.95 Q1231.66 1539.15 1226.01 1544.91 Z" fill="#000000" fill-rule="nonzero" fill-opacity="1" /><path clip-path="url(#clip530)" d="M1262.14 1517.37 Q1258.53 1517.37 1256.7 1520.93 Q1254.9 1524.47 1254.9 1531.6 Q1254.9 1538.71 1256.7 1542.27 Q1258.53 1545.82 1262.14 1545.82 Q1265.78 1545.82 1267.58 1542.27 Q1269.41 1538.71 1269.41 1531.6 Q1269.41 1524.47 1267.58 1520.93 Q1265.78 1517.37 1262.14 1517.37 M1262.14 1513.66 Q1267.95 1513.66 1271.01 1518.27 Q1274.09 1522.85 1274.09 1531.6 Q1274.09 1540.33 1271.01 1544.94 Q1267.95 1549.52 1262.14 1549.52 Q1256.33 1549.52 1253.25 1544.94 Q1250.2 1540.33 1250.2 1531.6 Q1250.2 1522.85 1253.25 1518.27 Q1256.33 1513.66 1262.14 1513.66 Z" fill="#000000" fill-rule="nonzero" fill-opacity="1" /><path clip-path="url(#clip530)" d="M1758.29 1530.21 Q1761.65 1530.93 1763.52 1533.2 Q1765.42 1535.47 1765.42 1538.8 Q1765.42 1543.92 1761.9 1546.72 Q1758.38 1549.52 1751.9 1549.52 Q1749.72 1549.52 1747.41 1549.08 Q1745.12 1548.66 1742.66 1547.81 L1742.66 1543.29 Q1744.61 1544.43 1746.92 1545.01 Q1749.24 1545.58 1751.76 1545.58 Q1756.16 1545.58 1758.45 1543.85 Q1760.77 1542.11 1760.77 1538.8 Q1760.77 1535.75 1758.61 1534.03 Q1756.48 1532.3 1752.66 1532.3 L1748.64 1532.3 L1748.64 1528.45 L1752.85 1528.45 Q1756.3 1528.45 1758.13 1527.09 Q1759.96 1525.7 1759.96 1523.11 Q1759.96 1520.45 1758.06 1519.03 Q1756.18 1517.6 1752.66 1517.6 Q1750.74 1517.6 1748.54 1518.01 Q1746.34 1518.43 1743.71 1519.31 L1743.71 1515.14 Q1746.37 1514.4 1748.68 1514.03 Q1751.02 1513.66 1753.08 1513.66 Q1758.4 1513.66 1761.51 1516.09 Q1764.61 1518.5 1764.61 1522.62 Q1764.61 1525.49 1762.96 1527.48 Q1761.32 1529.45 1758.29 1530.21 Z" fill="#000000" fill-rule="nonzero" fill-opacity="1" /><path clip-path="url(#clip530)" d="M1784.28 1517.37 Q1780.67 1517.37 1778.84 1520.93 Q1777.04 1524.47 1777.04 1531.6 Q1777.04 1538.71 1778.84 1542.27 Q1780.67 1545.82 1784.28 1545.82 Q1787.92 1545.82 1789.72 1542.27 Q1791.55 1538.71 1791.55 1531.6 Q1791.55 1524.47 1789.72 1520.93 Q1787.92 1517.37 1784.28 1517.37 M1784.28 1513.66 Q1790.09 1513.66 1793.15 1518.27 Q1796.23 1522.85 1796.23 1531.6 Q1796.23 1540.33 1793.15 1544.94 Q1790.09 1549.52 1784.28 1549.52 Q1778.47 1549.52 1775.4 1544.94 Q1772.34 1540.33 1772.34 1531.6 Q1772.34 1522.85 1775.4 1518.27 Q1778.47 1513.66 1784.28 1513.66 Z" fill="#000000" fill-rule="nonzero" fill-opacity="1" /><path clip-path="url(#clip530)" d="M2279.83 1518.36 L2268.02 1536.81 L2279.83 1536.81 L2279.83 1518.36 M2278.6 1514.29 L2284.48 1514.29 L2284.48 1536.81 L2289.41 1536.81 L2289.41 1540.7 L2284.48 1540.7 L2284.48 1548.85 L2279.83 1548.85 L2279.83 1540.7 L2264.23 1540.7 L2264.23 1536.19 L2278.6 1514.29 Z" fill="#000000" fill-rule="nonzero" fill-opacity="1" /><path clip-path="url(#clip530)" d="M2307.14 1517.37 Q2303.53 1517.37 2301.7 1520.93 Q2299.9 1524.47 2299.9 1531.6 Q2299.9 1538.71 2301.7 1542.27 Q2303.53 1545.82 2307.14 1545.82 Q2310.78 1545.82 2312.58 1542.27 Q2314.41 1538.71 2314.41 1531.6 Q2314.41 1524.47 2312.58 1520.93 Q2310.78 1517.37 2307.14 1517.37 M2307.14 1513.66 Q2312.95 1513.66 2316.01 1518.27 Q2319.09 1522.85 2319.09 1531.6 Q2319.09 1540.33 2316.01 1544.94 Q2312.95 1549.52 2307.14 1549.52 Q2301.33 1549.52 2298.25 1544.94 Q2295.2 1540.33 2295.2 1531.6 Q2295.2 1522.85 2298.25 1518.27 Q2301.33 1513.66 2307.14 1513.66 Z" fill="#000000" fill-rule="nonzero" fill-opacity="1" /><polyline clip-path="url(#clip532)" style="stroke:#000000; stroke-linecap:round; stroke-linejoin:round; stroke-width:2; stroke-opacity:0.1; fill:none" points="193.936,1267.97 2352.76,1267.97 "/>
<polyline clip-path="url(#clip532)" style="stroke:#000000; stroke-linecap:round; stroke-linejoin:round; stroke-width:2; stroke-opacity:0.1; fill:none" points="193.936,984.461 2352.76,984.461 "/>
<polyline clip-path="url(#clip532)" style="stroke:#000000; stroke-linecap:round; stroke-linejoin:round; stroke-width:2; stroke-opacity:0.1; fill:none" points="193.936,700.952 2352.76,700.952 "/>
<polyline clip-path="url(#clip532)" style="stroke:#000000; stroke-linecap:round; stroke-linejoin:round; stroke-width:2; stroke-opacity:0.1; fill:none" points="193.936,417.444 2352.76,417.444 "/>
<polyline clip-path="url(#clip532)" style="stroke:#000000; stroke-linecap:round; stroke-linejoin:round; stroke-width:2; stroke-opacity:0.1; fill:none" points="193.936,133.936 2352.76,133.936 "/>
<polyline clip-path="url(#clip530)" style="stroke:#000000; stroke-linecap:round; stroke-linejoin:round; stroke-width:4; stroke-opacity:1; fill:none" points="193.936,1486.45 193.936,47.2441 "/>
<polyline clip-path="url(#clip530)" style="stroke:#000000; stroke-linecap:round; stroke-linejoin:round; stroke-width:4; stroke-opacity:1; fill:none" points="193.936,1267.97 212.834,1267.97 "/>
<polyline clip-path="url(#clip530)" style="stroke:#000000; stroke-linecap:round; stroke-linejoin:round; stroke-width:4; stroke-opacity:1; fill:none" points="193.936,984.461 212.834,984.461 "/>
<polyline clip-path="url(#clip530)" style="stroke:#000000; stroke-linecap:round; stroke-linejoin:round; stroke-width:4; stroke-opacity:1; fill:none" points="193.936,700.952 212.834,700.952 "/>
<polyline clip-path="url(#clip530)" style="stroke:#000000; stroke-linecap:round; stroke-linejoin:round; stroke-width:4; stroke-opacity:1; fill:none" points="193.936,417.444 212.834,417.444 "/>
<polyline clip-path="url(#clip530)" style="stroke:#000000; stroke-linecap:round; stroke-linejoin:round; stroke-width:4; stroke-opacity:1; fill:none" points="193.936,133.936 212.834,133.936 "/>
<path clip-path="url(#clip530)" d="M50.9921 1268.42 L80.6679 1268.42 L80.6679 1272.36 L50.9921 1272.36 L50.9921 1268.42 Z" fill="#000000" fill-rule="nonzero" fill-opacity="1" /><path clip-path="url(#clip530)" d="M91.5706 1281.31 L99.2095 1281.31 L99.2095 1254.95 L90.8993 1256.62 L90.8993 1252.36 L99.1632 1250.69 L103.839 1250.69 L103.839 1281.31 L111.478 1281.31 L111.478 1285.25 L91.5706 1285.25 L91.5706 1281.31 Z" fill="#000000" fill-rule="nonzero" fill-opacity="1" /><path clip-path="url(#clip530)" d="M120.922 1279.37 L125.807 1279.37 L125.807 1285.25 L120.922 1285.25 L120.922 1279.37 Z" fill="#000000" fill-rule="nonzero" fill-opacity="1" /><path clip-path="url(#clip530)" d="M145.992 1253.77 Q142.381 1253.77 140.552 1257.33 Q138.746 1260.87 138.746 1268 Q138.746 1275.11 140.552 1278.68 Q142.381 1282.22 145.992 1282.22 Q149.626 1282.22 151.431 1278.68 Q153.26 1275.11 153.26 1268 Q153.26 1260.87 151.431 1257.33 Q149.626 1253.77 145.992 1253.77 M145.992 1250.06 Q151.802 1250.06 154.857 1254.67 Q157.936 1259.25 157.936 1268 Q157.936 1276.73 154.857 1281.34 Q151.802 1285.92 145.992 1285.92 Q140.181 1285.92 137.103 1281.34 Q134.047 1276.73 134.047 1268 Q134.047 1259.25 137.103 1254.67 Q140.181 1250.06 145.992 1250.06 Z" fill="#000000" fill-rule="nonzero" fill-opacity="1" /><path clip-path="url(#clip530)" d="M51.9875 984.912 L81.6633 984.912 L81.6633 988.847 L51.9875 988.847 L51.9875 984.912 Z" fill="#000000" fill-rule="nonzero" fill-opacity="1" /><path clip-path="url(#clip530)" d="M101.756 970.26 Q98.1447 970.26 96.316 973.824 Q94.5104 977.366 94.5104 984.496 Q94.5104 991.602 96.316 995.167 Q98.1447 998.708 101.756 998.708 Q105.39 998.708 107.196 995.167 Q109.024 991.602 109.024 984.496 Q109.024 977.366 107.196 973.824 Q105.39 970.26 101.756 970.26 M101.756 966.556 Q107.566 966.556 110.621 971.162 Q113.7 975.746 113.7 984.496 Q113.7 993.222 110.621 997.829 Q107.566 1002.41 101.756 1002.41 Q95.9456 1002.41 92.8669 997.829 Q89.8114 993.222 89.8114 984.496 Q89.8114 975.746 92.8669 971.162 Q95.9456 966.556 101.756 966.556 Z" fill="#000000" fill-rule="nonzero" fill-opacity="1" /><path clip-path="url(#clip530)" d="M121.918 995.861 L126.802 995.861 L126.802 1001.74 L121.918 1001.74 L121.918 995.861 Z" fill="#000000" fill-rule="nonzero" fill-opacity="1" /><path clip-path="url(#clip530)" d="M137.033 967.181 L155.39 967.181 L155.39 971.116 L141.316 971.116 L141.316 979.588 Q142.334 979.241 143.353 979.079 Q144.371 978.894 145.39 978.894 Q151.177 978.894 154.556 982.065 Q157.936 985.236 157.936 990.653 Q157.936 996.232 154.464 999.333 Q150.992 1002.41 144.672 1002.41 Q142.496 1002.41 140.228 1002.04 Q137.982 1001.67 135.575 1000.93 L135.575 996.232 Q137.658 997.366 139.881 997.921 Q142.103 998.477 144.58 998.477 Q148.584 998.477 150.922 996.37 Q153.26 994.264 153.26 990.653 Q153.26 987.042 150.922 984.935 Q148.584 982.829 144.58 982.829 Q142.705 982.829 140.83 983.246 Q138.978 983.662 137.033 984.542 L137.033 967.181 Z" fill="#000000" fill-rule="nonzero" fill-opacity="1" /><path clip-path="url(#clip530)" d="M100.76 686.751 Q97.1493 686.751 95.3206 690.316 Q93.515 693.858 93.515 700.987 Q93.515 708.094 95.3206 711.658 Q97.1493 715.2 100.76 715.2 Q104.395 715.2 106.2 711.658 Q108.029 708.094 108.029 700.987 Q108.029 693.858 106.2 690.316 Q104.395 686.751 100.76 686.751 M100.76 683.047 Q106.571 683.047 109.626 687.654 Q112.705 692.237 112.705 700.987 Q112.705 709.714 109.626 714.32 Q106.571 718.904 100.76 718.904 Q94.9502 718.904 91.8715 714.32 Q88.816 709.714 88.816 700.987 Q88.816 692.237 91.8715 687.654 Q94.9502 683.047 100.76 683.047 Z" fill="#000000" fill-rule="nonzero" fill-opacity="1" /><path clip-path="url(#clip530)" d="M120.922 712.353 L125.807 712.353 L125.807 718.232 L120.922 718.232 L120.922 712.353 Z" fill="#000000" fill-rule="nonzero" fill-opacity="1" /><path clip-path="url(#clip530)" d="M145.992 686.751 Q142.381 686.751 140.552 690.316 Q138.746 693.858 138.746 700.987 Q138.746 708.094 140.552 711.658 Q142.381 715.2 145.992 715.2 Q149.626 715.2 151.431 711.658 Q153.26 708.094 153.26 700.987 Q153.26 693.858 151.431 690.316 Q149.626 686.751 145.992 686.751 M145.992 683.047 Q151.802 683.047 154.857 687.654 Q157.936 692.237 157.936 700.987 Q157.936 709.714 154.857 714.32 Q151.802 718.904 145.992 718.904 Q140.181 718.904 137.103 714.32 Q134.047 709.714 134.047 700.987 Q134.047 692.237 137.103 687.654 Q140.181 683.047 145.992 683.047 Z" fill="#000000" fill-rule="nonzero" fill-opacity="1" /><path clip-path="url(#clip530)" d="M101.756 403.243 Q98.1447 403.243 96.316 406.808 Q94.5104 410.349 94.5104 417.479 Q94.5104 424.585 96.316 428.15 Q98.1447 431.692 101.756 431.692 Q105.39 431.692 107.196 428.15 Q109.024 424.585 109.024 417.479 Q109.024 410.349 107.196 406.808 Q105.39 403.243 101.756 403.243 M101.756 399.539 Q107.566 399.539 110.621 404.145 Q113.7 408.729 113.7 417.479 Q113.7 426.206 110.621 430.812 Q107.566 435.395 101.756 435.395 Q95.9456 435.395 92.8669 430.812 Q89.8114 426.206 89.8114 417.479 Q89.8114 408.729 92.8669 404.145 Q95.9456 399.539 101.756 399.539 Z" fill="#000000" fill-rule="nonzero" fill-opacity="1" /><path clip-path="url(#clip530)" d="M121.918 428.844 L126.802 428.844 L126.802 434.724 L121.918 434.724 L121.918 428.844 Z" fill="#000000" fill-rule="nonzero" fill-opacity="1" /><path clip-path="url(#clip530)" d="M137.033 400.164 L155.39 400.164 L155.39 404.099 L141.316 404.099 L141.316 412.571 Q142.334 412.224 143.353 412.062 Q144.371 411.877 145.39 411.877 Q151.177 411.877 154.556 415.048 Q157.936 418.219 157.936 423.636 Q157.936 429.215 154.464 432.317 Q150.992 435.395 144.672 435.395 Q142.496 435.395 140.228 435.025 Q137.982 434.655 135.575 433.914 L135.575 429.215 Q137.658 430.349 139.881 430.905 Q142.103 431.46 144.58 431.46 Q148.584 431.46 150.922 429.354 Q153.26 427.247 153.26 423.636 Q153.26 420.025 150.922 417.919 Q148.584 415.812 144.58 415.812 Q142.705 415.812 140.83 416.229 Q138.978 416.645 137.033 417.525 L137.033 400.164 Z" fill="#000000" fill-rule="nonzero" fill-opacity="1" /><path clip-path="url(#clip530)" d="M91.5706 147.28 L99.2095 147.28 L99.2095 120.915 L90.8993 122.582 L90.8993 118.322 L99.1632 116.656 L103.839 116.656 L103.839 147.28 L111.478 147.28 L111.478 151.216 L91.5706 151.216 L91.5706 147.28 Z" fill="#000000" fill-rule="nonzero" fill-opacity="1" /><path clip-path="url(#clip530)" d="M120.922 145.336 L125.807 145.336 L125.807 151.216 L120.922 151.216 L120.922 145.336 Z" fill="#000000" fill-rule="nonzero" fill-opacity="1" /><path clip-path="url(#clip530)" d="M145.992 119.734 Q142.381 119.734 140.552 123.299 Q138.746 126.841 138.746 133.97 Q138.746 141.077 140.552 144.642 Q142.381 148.183 145.992 148.183 Q149.626 148.183 151.431 144.642 Q153.26 141.077 153.26 133.97 Q153.26 126.841 151.431 123.299 Q149.626 119.734 145.992 119.734 M145.992 116.031 Q151.802 116.031 154.857 120.637 Q157.936 125.22 157.936 133.97 Q157.936 142.697 154.857 147.304 Q151.802 151.887 145.992 151.887 Q140.181 151.887 137.103 147.304 Q134.047 142.697 134.047 133.97 Q134.047 125.22 137.103 120.637 Q140.181 116.031 145.992 116.031 Z" fill="#000000" fill-rule="nonzero" fill-opacity="1" /><polyline clip-path="url(#clip532)" style="stroke:#009af9; stroke-linecap:round; stroke-linejoin:round; stroke-width:4; stroke-opacity:1; fill:none" points="255.035,700.952 307.256,644.334 359.477,588.338 411.698,533.45 463.919,480.154 516.14,429.072 568.361,380.898 620.582,335.769 672.803,294.24 725.024,256.863 777.246,223.916 829.467,195.676 881.688,172.42 933.909,154.7 986.13,142.242 1038.35,135.32 1090.57,134.213 1142.79,138.642 1195.01,148.886 1247.24,164.391 1299.46,185.432 1351.68,211.457 1403.9,242.466 1456.12,278.182 1508.34,318.05 1560.56,361.518 1612.78,408.584 1665,458.558 1717.23,511.024 1769.45,565.289 1821.67,620.939 1873.89,677.367 1926.11,734.055 1978.33,790.379 2030.55,845.891 2082.77,899.879 2134.99,951.929 2187.22,1001.35 2239.44,1047.86 2291.66,1091.05 "/>
<polyline clip-path="url(#clip532)" style="stroke:#e26f46; stroke-linecap:round; stroke-linejoin:round; stroke-width:4; stroke-opacity:1; fill:none" points="255.035,700.952 307.256,644.334 359.477,588.338 411.698,542.033 463.919,503.826 516.14,476.693 568.361,458.42 620.582,447.899 672.803,443.469 725.024,443.469 777.246,446.792 829.467,451.775 881.688,458.974 933.909,466.726 986.13,475.585 1038.35,484.445 1090.57,494.412 1142.79,505.487 1195.01,517.669 1247.24,530.404 1299.46,544.248 1351.68,558.645 1403.9,574.703 1456.12,591.868 1508.34,610.141 1560.56,630.629 1612.78,653.332 1665,678.803 1717.23,707.597 1769.45,739.713 1821.67,777.367 1873.89,820.558 1926.11,870.947 1978.33,929.642 2030.55,999.411 2082.77,1080.26 2134.99,1171.07 2187.22,1269.63 2239.44,1365.98 2291.66,1445.72 "/>
<polyline clip-path="url(#clip532)" style="stroke:#3da44d; stroke-linecap:round; stroke-linejoin:round; stroke-width:4; stroke-opacity:1; fill:none" points="255.035,700.952 307.256,644.334 359.477,588.338 411.698,531.235 463.919,475.032 516.14,417.167 568.361,359.303 620.582,301.161 672.803,245.235 725.024,192.631 777.246,147.779 829.467,111.233 881.688,89.6375 933.909,87.9763 986.13,100.712 1038.35,127.845 1090.57,167.159 1142.79,214.226 1195.01,266.276 1247.24,319.434 1299.46,371.485 1351.68,422.981 1403.9,470.602 1456.12,515.454 1508.34,557.537 1560.56,602.389 1612.78,643.365 1665,685.448 1717.23,727.531 1769.45,777.367 1821.67,829.002 1873.89,882.298 1926.11,943.208 1978.33,1004.95 2030.55,1071.95 2082.77,1138.12 2134.99,1204.29 2187.22,1265.75 2239.44,1318.91 2291.66,1356.57 "/>
<polyline clip-path="url(#clip532)" style="stroke:#c271d2; stroke-linecap:round; stroke-linejoin:round; stroke-width:4; stroke-opacity:1; fill:none" points="255.035,700.952 307.256,697.976 359.477,695.208 411.698,692.162 463.919,689.393 516.14,686.902 568.361,684.133 620.582,681.641 672.803,679.149 725.024,676.658 777.246,674.166 829.467,671.674 881.688,669.182 933.909,666.414 986.13,663.922 1038.35,661.43 1090.57,659.215 1142.79,657 1195.01,654.785 1247.24,652.571 1299.46,650.356 1351.68,648.141 1403.9,645.926 1456.12,643.711 1508.34,641.773 1560.56,640.112 1612.78,638.45 1665,636.512 1717.23,634.574 1769.45,632.913 1821.67,630.975 1873.89,629.314 1926.11,627.653 1978.33,625.715 2030.55,624.054 2082.77,622.392 2134.99,620.454 2187.22,619.07 2239.44,617.686 2291.66,616.301 "/>
<polyline clip-path="url(#clip532)" style="stroke:#ff0000; stroke-linecap:round; stroke-linejoin:round; stroke-width:4; stroke-opacity:1; fill:none" points="359.477,2925.65 359.477,-1391.96 "/>
<path clip-path="url(#clip530)" d="M1647.42 406.258 L2280.8 406.258 L2280.8 95.2176 L1647.42 95.2176  Z" fill="#ffffff" fill-rule="evenodd" fill-opacity="1"/>
<polyline clip-path="url(#clip530)" style="stroke:#000000; stroke-linecap:round; stroke-linejoin:round; stroke-width:4; stroke-opacity:1; fill:none" points="1647.42,406.258 2280.8,406.258 2280.8,95.2176 1647.42,95.2176 1647.42,406.258 "/>
<polyline clip-path="url(#clip530)" style="stroke:#009af9; stroke-linecap:round; stroke-linejoin:round; stroke-width:4; stroke-opacity:1; fill:none" points="1671.4,147.058 1815.32,147.058 "/>
<path clip-path="url(#clip530)" d="M1854.5 142.393 Q1853.78 141.977 1852.92 141.791 Q1852.09 141.583 1851.07 141.583 Q1847.46 141.583 1845.51 143.944 Q1843.59 146.282 1843.59 150.68 L1843.59 164.338 L1839.31 164.338 L1839.31 138.412 L1843.59 138.412 L1843.59 142.44 Q1844.94 140.078 1847.09 138.944 Q1849.24 137.787 1852.32 137.787 Q1852.76 137.787 1853.29 137.856 Q1853.82 137.903 1854.47 138.018 L1854.5 142.393 Z" fill="#000000" fill-rule="nonzero" fill-opacity="1" /><path clip-path="url(#clip530)" d="M1880.1 150.31 L1880.1 152.393 L1860.51 152.393 Q1860.79 156.791 1863.15 159.106 Q1865.54 161.398 1869.77 161.398 Q1872.23 161.398 1874.52 160.796 Q1876.83 160.194 1879.1 158.99 L1879.1 163.018 Q1876.81 163.99 1874.4 164.5 Q1872 165.009 1869.52 165.009 Q1863.32 165.009 1859.68 161.398 Q1856.07 157.787 1856.07 151.629 Q1856.07 145.264 1859.5 141.537 Q1862.94 137.787 1868.78 137.787 Q1874.01 137.787 1877.04 141.166 Q1880.1 144.523 1880.1 150.31 M1875.84 149.06 Q1875.79 145.565 1873.87 143.481 Q1871.97 141.398 1868.82 141.398 Q1865.26 141.398 1863.11 143.412 Q1860.98 145.426 1860.65 149.083 L1875.84 149.06 Z" fill="#000000" fill-rule="nonzero" fill-opacity="1" /><path clip-path="url(#clip530)" d="M1900.21 128.319 L1900.21 131.861 L1896.14 131.861 Q1893.85 131.861 1892.94 132.787 Q1892.06 133.713 1892.06 136.12 L1892.06 138.412 L1899.08 138.412 L1899.08 141.722 L1892.06 141.722 L1892.06 164.338 L1887.78 164.338 L1887.78 141.722 L1883.71 141.722 L1883.71 138.412 L1887.78 138.412 L1887.78 136.606 Q1887.78 132.278 1889.8 130.31 Q1891.81 128.319 1896.19 128.319 L1900.21 128.319 Z" fill="#000000" fill-rule="nonzero" fill-opacity="1" /><path clip-path="url(#clip530)" d="M1925.95 150.31 L1925.95 152.393 L1906.37 152.393 Q1906.65 156.791 1909.01 159.106 Q1911.39 161.398 1915.63 161.398 Q1918.08 161.398 1920.37 160.796 Q1922.69 160.194 1924.96 158.99 L1924.96 163.018 Q1922.67 163.99 1920.26 164.5 Q1917.85 165.009 1915.37 165.009 Q1909.17 165.009 1905.54 161.398 Q1901.93 157.787 1901.93 151.629 Q1901.93 145.264 1905.35 141.537 Q1908.8 137.787 1914.63 137.787 Q1919.87 137.787 1922.9 141.166 Q1925.95 144.523 1925.95 150.31 M1921.69 149.06 Q1921.65 145.565 1919.73 143.481 Q1917.83 141.398 1914.68 141.398 Q1911.12 141.398 1908.96 143.412 Q1906.83 145.426 1906.51 149.083 L1921.69 149.06 Z" fill="#000000" fill-rule="nonzero" fill-opacity="1" /><path clip-path="url(#clip530)" d="M1947.97 142.393 Q1947.25 141.977 1946.39 141.791 Q1945.56 141.583 1944.54 141.583 Q1940.93 141.583 1938.99 143.944 Q1937.06 146.282 1937.06 150.68 L1937.06 164.338 L1932.78 164.338 L1932.78 138.412 L1937.06 138.412 L1937.06 142.44 Q1938.41 140.078 1940.56 138.944 Q1942.71 137.787 1945.79 137.787 Q1946.23 137.787 1946.76 137.856 Q1947.3 137.903 1947.94 138.018 L1947.97 142.393 Z" fill="#000000" fill-rule="nonzero" fill-opacity="1" /><path clip-path="url(#clip530)" d="M1973.57 150.31 L1973.57 152.393 L1953.99 152.393 Q1954.26 156.791 1956.62 159.106 Q1959.01 161.398 1963.25 161.398 Q1965.7 161.398 1967.99 160.796 Q1970.31 160.194 1972.57 158.99 L1972.57 163.018 Q1970.28 163.99 1967.87 164.5 Q1965.47 165.009 1962.99 165.009 Q1956.79 165.009 1953.15 161.398 Q1949.54 157.787 1949.54 151.629 Q1949.54 145.264 1952.97 141.537 Q1956.42 137.787 1962.25 137.787 Q1967.48 137.787 1970.51 141.166 Q1973.57 144.523 1973.57 150.31 M1969.31 149.06 Q1969.26 145.565 1967.34 143.481 Q1965.44 141.398 1962.3 141.398 Q1958.73 141.398 1956.58 143.412 Q1954.45 145.426 1954.12 149.083 L1969.31 149.06 Z" fill="#000000" fill-rule="nonzero" fill-opacity="1" /><path clip-path="url(#clip530)" d="M2002.11 148.689 L2002.11 164.338 L1997.85 164.338 L1997.85 148.828 Q1997.85 145.148 1996.42 143.319 Q1994.98 141.49 1992.11 141.49 Q1988.66 141.49 1986.67 143.69 Q1984.68 145.889 1984.68 149.685 L1984.68 164.338 L1980.4 164.338 L1980.4 138.412 L1984.68 138.412 L1984.68 142.44 Q1986.21 140.102 1988.27 138.944 Q1990.35 137.787 1993.06 137.787 Q1997.53 137.787 1999.82 140.565 Q2002.11 143.319 2002.11 148.689 Z" fill="#000000" fill-rule="nonzero" fill-opacity="1" /><path clip-path="url(#clip530)" d="M2029.26 139.407 L2029.26 143.389 Q2027.46 142.393 2025.63 141.907 Q2023.82 141.398 2021.97 141.398 Q2017.83 141.398 2015.54 144.037 Q2013.24 146.652 2013.24 151.398 Q2013.24 156.143 2015.54 158.782 Q2017.83 161.398 2021.97 161.398 Q2023.82 161.398 2025.63 160.912 Q2027.46 160.402 2029.26 159.407 L2029.26 163.342 Q2027.48 164.176 2025.56 164.592 Q2023.66 165.009 2021.51 165.009 Q2015.65 165.009 2012.2 161.328 Q2008.75 157.648 2008.75 151.398 Q2008.75 145.055 2012.23 141.421 Q2015.72 137.787 2021.79 137.787 Q2023.75 137.787 2025.63 138.203 Q2027.5 138.597 2029.26 139.407 Z" fill="#000000" fill-rule="nonzero" fill-opacity="1" /><path clip-path="url(#clip530)" d="M2058.85 150.31 L2058.85 152.393 L2039.26 152.393 Q2039.54 156.791 2041.9 159.106 Q2044.29 161.398 2048.52 161.398 Q2050.98 161.398 2053.27 160.796 Q2055.58 160.194 2057.85 158.99 L2057.85 163.018 Q2055.56 163.99 2053.15 164.5 Q2050.74 165.009 2048.27 165.009 Q2042.06 165.009 2038.43 161.398 Q2034.82 157.787 2034.82 151.629 Q2034.82 145.264 2038.24 141.537 Q2041.69 137.787 2047.53 137.787 Q2052.76 137.787 2055.79 141.166 Q2058.85 144.523 2058.85 150.31 M2054.59 149.06 Q2054.54 145.565 2052.62 143.481 Q2050.72 141.398 2047.57 141.398 Q2044.01 141.398 2041.86 143.412 Q2039.73 145.426 2039.4 149.083 L2054.59 149.06 Z" fill="#000000" fill-rule="nonzero" fill-opacity="1" /><polyline clip-path="url(#clip530)" style="stroke:#e26f46; stroke-linecap:round; stroke-linejoin:round; stroke-width:4; stroke-opacity:1; fill:none" points="1671.4,198.898 1815.32,198.898 "/>
<path clip-path="url(#clip530)" d="M1857.74 191.016 L1857.74 195.043 Q1855.93 194.117 1853.99 193.655 Q1852.04 193.192 1849.96 193.192 Q1846.79 193.192 1845.19 194.164 Q1843.62 195.136 1843.62 197.08 Q1843.62 198.562 1844.75 199.418 Q1845.88 200.252 1849.31 201.016 L1850.77 201.34 Q1855.31 202.312 1857.2 204.094 Q1859.13 205.854 1859.13 209.025 Q1859.13 212.636 1856.25 214.742 Q1853.41 216.849 1848.41 216.849 Q1846.32 216.849 1844.06 216.432 Q1841.81 216.039 1839.31 215.228 L1839.31 210.83 Q1841.67 212.057 1843.96 212.682 Q1846.25 213.284 1848.5 213.284 Q1851.51 213.284 1853.13 212.266 Q1854.75 211.224 1854.75 209.349 Q1854.75 207.613 1853.57 206.687 Q1852.41 205.761 1848.45 204.904 L1846.97 204.557 Q1843.01 203.724 1841.26 202.011 Q1839.5 200.275 1839.5 197.266 Q1839.5 193.608 1842.09 191.618 Q1844.68 189.627 1849.45 189.627 Q1851.81 189.627 1853.89 189.974 Q1855.98 190.321 1857.74 191.016 Z" fill="#000000" fill-rule="nonzero" fill-opacity="1" /><path clip-path="url(#clip530)" d="M1865.75 180.159 L1870.03 180.159 L1870.03 201.432 L1882.74 190.252 L1888.18 190.252 L1874.43 202.381 L1888.75 216.178 L1883.2 216.178 L1870.03 203.516 L1870.03 216.178 L1865.75 216.178 L1865.75 180.159 Z" fill="#000000" fill-rule="nonzero" fill-opacity="1" /><path clip-path="url(#clip530)" d="M1913.85 202.15 L1913.85 204.233 L1894.26 204.233 Q1894.54 208.631 1896.9 210.946 Q1899.29 213.238 1903.52 213.238 Q1905.98 213.238 1908.27 212.636 Q1910.58 212.034 1912.85 210.83 L1912.85 214.858 Q1910.56 215.83 1908.15 216.34 Q1905.75 216.849 1903.27 216.849 Q1897.06 216.849 1893.43 213.238 Q1889.82 209.627 1889.82 203.469 Q1889.82 197.104 1893.25 193.377 Q1896.69 189.627 1902.53 189.627 Q1907.76 189.627 1910.79 193.006 Q1913.85 196.363 1913.85 202.15 M1909.59 200.9 Q1909.54 197.405 1907.62 195.321 Q1905.72 193.238 1902.57 193.238 Q1899.01 193.238 1896.86 195.252 Q1894.73 197.266 1894.4 200.923 L1909.59 200.9 Z" fill="#000000" fill-rule="nonzero" fill-opacity="1" /><path clip-path="url(#clip530)" d="M1918.36 190.252 L1922.62 190.252 L1927.94 210.483 L1933.25 190.252 L1938.27 190.252 L1943.59 210.483 L1948.89 190.252 L1953.15 190.252 L1946.37 216.178 L1941.35 216.178 L1935.77 194.928 L1930.17 216.178 L1925.14 216.178 L1918.36 190.252 Z" fill="#000000" fill-rule="nonzero" fill-opacity="1" /><polyline clip-path="url(#clip530)" style="stroke:#3da44d; stroke-linecap:round; stroke-linejoin:round; stroke-width:4; stroke-opacity:1; fill:none" points="1671.4,250.738 1815.32,250.738 "/>
<path clip-path="url(#clip530)" d="M1852.71 254.985 Q1847.55 254.985 1845.56 256.166 Q1843.57 257.346 1843.57 260.194 Q1843.57 262.462 1845.05 263.805 Q1846.56 265.124 1849.13 265.124 Q1852.67 265.124 1854.8 262.624 Q1856.95 260.101 1856.95 255.934 L1856.95 254.985 L1852.71 254.985 M1861.21 253.226 L1861.21 268.018 L1856.95 268.018 L1856.95 264.082 Q1855.49 266.443 1853.32 267.578 Q1851.14 268.689 1847.99 268.689 Q1844.01 268.689 1841.65 266.467 Q1839.31 264.221 1839.31 260.471 Q1839.31 256.096 1842.23 253.874 Q1845.17 251.652 1850.98 251.652 L1856.95 251.652 L1856.95 251.235 Q1856.95 248.295 1855 246.698 Q1853.08 245.078 1849.59 245.078 Q1847.37 245.078 1845.26 245.61 Q1843.15 246.143 1841.21 247.207 L1841.21 243.272 Q1843.55 242.37 1845.75 241.93 Q1847.94 241.467 1850.03 241.467 Q1855.65 241.467 1858.43 244.383 Q1861.21 247.3 1861.21 253.226 Z" fill="#000000" fill-rule="nonzero" fill-opacity="1" /><path clip-path="url(#clip530)" d="M1885 246.073 Q1884.29 245.657 1883.43 245.471 Q1882.6 245.263 1881.58 245.263 Q1877.97 245.263 1876.02 247.624 Q1874.1 249.962 1874.1 254.36 L1874.1 268.018 L1869.82 268.018 L1869.82 242.092 L1874.1 242.092 L1874.1 246.12 Q1875.44 243.758 1877.6 242.624 Q1879.75 241.467 1882.83 241.467 Q1883.27 241.467 1883.8 241.536 Q1884.33 241.583 1884.98 241.698 L1885 246.073 Z" fill="#000000" fill-rule="nonzero" fill-opacity="1" /><path clip-path="url(#clip530)" d="M1908.08 255.078 Q1908.08 250.379 1906.14 247.717 Q1904.22 245.032 1900.84 245.032 Q1897.46 245.032 1895.51 247.717 Q1893.59 250.379 1893.59 255.078 Q1893.59 259.777 1895.51 262.462 Q1897.46 265.124 1900.84 265.124 Q1904.22 265.124 1906.14 262.462 Q1908.08 259.777 1908.08 255.078 M1893.59 246.027 Q1894.94 243.712 1896.97 242.601 Q1899.03 241.467 1901.88 241.467 Q1906.6 241.467 1909.54 245.217 Q1912.5 248.967 1912.5 255.078 Q1912.5 261.189 1909.54 264.939 Q1906.6 268.689 1901.88 268.689 Q1899.03 268.689 1896.97 267.578 Q1894.94 266.443 1893.59 264.129 L1893.59 268.018 L1889.31 268.018 L1889.31 231.999 L1893.59 231.999 L1893.59 246.027 Z" fill="#000000" fill-rule="nonzero" fill-opacity="1" /><polyline clip-path="url(#clip530)" style="stroke:#c271d2; stroke-linecap:round; stroke-linejoin:round; stroke-width:4; stroke-opacity:1; fill:none" points="1671.4,302.578 1815.32,302.578 "/>
<path clip-path="url(#clip530)" d="M1859.82 294.927 L1859.82 298.909 Q1858.01 297.913 1856.19 297.427 Q1854.38 296.918 1852.53 296.918 Q1848.38 296.918 1846.09 299.557 Q1843.8 302.172 1843.8 306.918 Q1843.8 311.663 1846.09 314.302 Q1848.38 316.918 1852.53 316.918 Q1854.38 316.918 1856.19 316.432 Q1858.01 315.922 1859.82 314.927 L1859.82 318.862 Q1858.04 319.696 1856.12 320.112 Q1854.22 320.529 1852.07 320.529 Q1846.21 320.529 1842.76 316.848 Q1839.31 313.168 1839.31 306.918 Q1839.31 300.575 1842.78 296.941 Q1846.28 293.307 1852.34 293.307 Q1854.31 293.307 1856.19 293.723 Q1858.06 294.117 1859.82 294.927 Z" fill="#000000" fill-rule="nonzero" fill-opacity="1" /><path clip-path="url(#clip530)" d="M1877.27 296.918 Q1873.85 296.918 1871.86 299.603 Q1869.87 302.265 1869.87 306.918 Q1869.87 311.571 1871.83 314.256 Q1873.82 316.918 1877.27 316.918 Q1880.68 316.918 1882.67 314.233 Q1884.66 311.547 1884.66 306.918 Q1884.66 302.311 1882.67 299.626 Q1880.68 296.918 1877.27 296.918 M1877.27 293.307 Q1882.83 293.307 1886 296.918 Q1889.17 300.529 1889.17 306.918 Q1889.17 313.284 1886 316.918 Q1882.83 320.529 1877.27 320.529 Q1871.69 320.529 1868.52 316.918 Q1865.38 313.284 1865.38 306.918 Q1865.38 300.529 1868.52 296.918 Q1871.69 293.307 1877.27 293.307 Z" fill="#000000" fill-rule="nonzero" fill-opacity="1" /><path clip-path="url(#clip530)" d="M1916.42 298.909 Q1918.01 296.038 1920.24 294.673 Q1922.46 293.307 1925.47 293.307 Q1929.52 293.307 1931.72 296.154 Q1933.92 298.978 1933.92 304.209 L1933.92 319.858 L1929.63 319.858 L1929.63 304.348 Q1929.63 300.622 1928.31 298.816 Q1927 297.01 1924.29 297.01 Q1920.98 297.01 1919.06 299.21 Q1917.13 301.409 1917.13 305.205 L1917.13 319.858 L1912.85 319.858 L1912.85 304.348 Q1912.85 300.598 1911.53 298.816 Q1910.21 297.01 1907.46 297.01 Q1904.19 297.01 1902.27 299.233 Q1900.35 301.432 1900.35 305.205 L1900.35 319.858 L1896.07 319.858 L1896.07 293.932 L1900.35 293.932 L1900.35 297.96 Q1901.81 295.575 1903.85 294.441 Q1905.88 293.307 1908.69 293.307 Q1911.51 293.307 1913.48 294.742 Q1915.47 296.177 1916.42 298.909 Z" fill="#000000" fill-rule="nonzero" fill-opacity="1" /><path clip-path="url(#clip530)" d="M1946.53 315.969 L1946.53 329.719 L1942.25 329.719 L1942.25 293.932 L1946.53 293.932 L1946.53 297.867 Q1947.87 295.552 1949.91 294.441 Q1951.97 293.307 1954.82 293.307 Q1959.54 293.307 1962.48 297.057 Q1965.44 300.807 1965.44 306.918 Q1965.44 313.029 1962.48 316.779 Q1959.54 320.529 1954.82 320.529 Q1951.97 320.529 1949.91 319.418 Q1947.87 318.283 1946.53 315.969 M1961.02 306.918 Q1961.02 302.219 1959.08 299.557 Q1957.16 296.872 1953.78 296.872 Q1950.4 296.872 1948.45 299.557 Q1946.53 302.219 1946.53 306.918 Q1946.53 311.617 1948.45 314.302 Q1950.4 316.964 1953.78 316.964 Q1957.16 316.964 1959.08 314.302 Q1961.02 311.617 1961.02 306.918 Z" fill="#000000" fill-rule="nonzero" fill-opacity="1" /><polyline clip-path="url(#clip530)" style="stroke:#ff0000; stroke-linecap:round; stroke-linejoin:round; stroke-width:4; stroke-opacity:1; fill:none" points="1671.4,354.418 1815.32,354.418 "/>
<path clip-path="url(#clip530)" d="M1857.74 346.536 L1857.74 350.563 Q1855.93 349.637 1853.99 349.175 Q1852.04 348.712 1849.96 348.712 Q1846.79 348.712 1845.19 349.684 Q1843.62 350.656 1843.62 352.6 Q1843.62 354.082 1844.75 354.938 Q1845.88 355.772 1849.31 356.536 L1850.77 356.86 Q1855.31 357.832 1857.2 359.614 Q1859.13 361.374 1859.13 364.545 Q1859.13 368.156 1856.25 370.262 Q1853.41 372.369 1848.41 372.369 Q1846.32 372.369 1844.06 371.952 Q1841.81 371.559 1839.31 370.748 L1839.31 366.35 Q1841.67 367.577 1843.96 368.202 Q1846.25 368.804 1848.5 368.804 Q1851.51 368.804 1853.13 367.786 Q1854.75 366.744 1854.75 364.869 Q1854.75 363.133 1853.57 362.207 Q1852.41 361.281 1848.45 360.424 L1846.97 360.077 Q1843.01 359.244 1841.26 357.531 Q1839.5 355.795 1839.5 352.786 Q1839.5 349.128 1842.09 347.138 Q1844.68 345.147 1849.45 345.147 Q1851.81 345.147 1853.89 345.494 Q1855.98 345.841 1857.74 346.536 Z" fill="#000000" fill-rule="nonzero" fill-opacity="1" /><path clip-path="url(#clip530)" d="M1870.12 338.411 L1870.12 345.772 L1878.89 345.772 L1878.89 349.082 L1870.12 349.082 L1870.12 363.156 Q1870.12 366.327 1870.98 367.23 Q1871.86 368.133 1874.52 368.133 L1878.89 368.133 L1878.89 371.698 L1874.52 371.698 Q1869.59 371.698 1867.71 369.869 Q1865.84 368.017 1865.84 363.156 L1865.84 349.082 L1862.71 349.082 L1862.71 345.772 L1865.84 345.772 L1865.84 338.411 L1870.12 338.411 Z" fill="#000000" fill-rule="nonzero" fill-opacity="1" /><path clip-path="url(#clip530)" d="M1896.28 358.665 Q1891.12 358.665 1889.13 359.846 Q1887.13 361.026 1887.13 363.874 Q1887.13 366.142 1888.62 367.485 Q1890.12 368.804 1892.69 368.804 Q1896.23 368.804 1898.36 366.304 Q1900.51 363.781 1900.51 359.614 L1900.51 358.665 L1896.28 358.665 M1904.77 356.906 L1904.77 371.698 L1900.51 371.698 L1900.51 367.762 Q1899.06 370.123 1896.88 371.258 Q1894.7 372.369 1891.56 372.369 Q1887.57 372.369 1885.21 370.147 Q1882.88 367.901 1882.88 364.151 Q1882.88 359.776 1885.79 357.554 Q1888.73 355.332 1894.54 355.332 L1900.51 355.332 L1900.51 354.915 Q1900.51 351.975 1898.57 350.378 Q1896.65 348.758 1893.15 348.758 Q1890.93 348.758 1888.82 349.29 Q1886.72 349.823 1884.77 350.887 L1884.77 346.952 Q1887.11 346.05 1889.31 345.61 Q1891.51 345.147 1893.59 345.147 Q1899.22 345.147 1902 348.063 Q1904.77 350.98 1904.77 356.906 Z" fill="#000000" fill-rule="nonzero" fill-opacity="1" /><path clip-path="url(#clip530)" d="M1928.57 349.753 Q1927.85 349.337 1927 349.151 Q1926.16 348.943 1925.14 348.943 Q1921.53 348.943 1919.59 351.304 Q1917.67 353.642 1917.67 358.04 L1917.67 371.698 L1913.38 371.698 L1913.38 345.772 L1917.67 345.772 L1917.67 349.8 Q1919.01 347.438 1921.16 346.304 Q1923.31 345.147 1926.39 345.147 Q1926.83 345.147 1927.37 345.216 Q1927.9 345.263 1928.55 345.378 L1928.57 349.753 Z" fill="#000000" fill-rule="nonzero" fill-opacity="1" /><path clip-path="url(#clip530)" d="M1937.25 338.411 L1937.25 345.772 L1946.02 345.772 L1946.02 349.082 L1937.25 349.082 L1937.25 363.156 Q1937.25 366.327 1938.11 367.23 Q1938.99 368.133 1941.65 368.133 L1946.02 368.133 L1946.02 371.698 L1941.65 371.698 Q1936.72 371.698 1934.84 369.869 Q1932.97 368.017 1932.97 363.156 L1932.97 349.082 L1929.84 349.082 L1929.84 345.772 L1932.97 345.772 L1932.97 338.411 L1937.25 338.411 Z" fill="#000000" fill-rule="nonzero" fill-opacity="1" /><path clip-path="url(#clip530)" d="M1976.74 348.758 Q1973.31 348.758 1971.32 351.443 Q1969.33 354.105 1969.33 358.758 Q1969.33 363.411 1971.3 366.096 Q1973.29 368.758 1976.74 368.758 Q1980.14 368.758 1982.13 366.073 Q1984.12 363.387 1984.12 358.758 Q1984.12 354.151 1982.13 351.466 Q1980.14 348.758 1976.74 348.758 M1976.74 345.147 Q1982.3 345.147 1985.47 348.758 Q1988.64 352.369 1988.64 358.758 Q1988.64 365.124 1985.47 368.758 Q1982.3 372.369 1976.74 372.369 Q1971.16 372.369 1967.99 368.758 Q1964.84 365.124 1964.84 358.758 Q1964.84 352.369 1967.99 348.758 Q1971.16 345.147 1976.74 345.147 Z" fill="#000000" fill-rule="nonzero" fill-opacity="1" /><path clip-path="url(#clip530)" d="M2008.82 335.679 L2008.82 339.221 L2004.75 339.221 Q2002.46 339.221 2001.56 340.147 Q2000.68 341.073 2000.68 343.48 L2000.68 345.772 L2007.69 345.772 L2007.69 349.082 L2000.68 349.082 L2000.68 371.698 L1996.39 371.698 L1996.39 349.082 L1992.32 349.082 L1992.32 345.772 L1996.39 345.772 L1996.39 343.966 Q1996.39 339.638 1998.41 337.67 Q2000.42 335.679 2004.8 335.679 L2008.82 335.679 Z" fill="#000000" fill-rule="nonzero" fill-opacity="1" /><path clip-path="url(#clip530)" d="M2031.58 367.809 L2031.58 381.559 L2027.3 381.559 L2027.3 345.772 L2031.58 345.772 L2031.58 349.707 Q2032.92 347.392 2034.96 346.281 Q2037.02 345.147 2039.87 345.147 Q2044.59 345.147 2047.53 348.897 Q2050.49 352.647 2050.49 358.758 Q2050.49 364.869 2047.53 368.619 Q2044.59 372.369 2039.87 372.369 Q2037.02 372.369 2034.96 371.258 Q2032.92 370.123 2031.58 367.809 M2046.07 358.758 Q2046.07 354.059 2044.12 351.397 Q2042.2 348.712 2038.82 348.712 Q2035.44 348.712 2033.5 351.397 Q2031.58 354.059 2031.58 358.758 Q2031.58 363.457 2033.5 366.142 Q2035.44 368.804 2038.82 368.804 Q2042.2 368.804 2044.12 366.142 Q2046.07 363.457 2046.07 358.758 Z" fill="#000000" fill-rule="nonzero" fill-opacity="1" /><path clip-path="url(#clip530)" d="M2072.57 349.753 Q2071.86 349.337 2071 349.151 Q2070.17 348.943 2069.15 348.943 Q2065.54 348.943 2063.59 351.304 Q2061.67 353.642 2061.67 358.04 L2061.67 371.698 L2057.39 371.698 L2057.39 345.772 L2061.67 345.772 L2061.67 349.8 Q2063.01 347.438 2065.17 346.304 Q2067.32 345.147 2070.4 345.147 Q2070.84 345.147 2071.37 345.216 Q2071.9 345.263 2072.55 345.378 L2072.57 349.753 Z" fill="#000000" fill-rule="nonzero" fill-opacity="1" /><path clip-path="url(#clip530)" d="M2098.17 357.67 L2098.17 359.753 L2078.59 359.753 Q2078.87 364.151 2081.23 366.466 Q2083.61 368.758 2087.85 368.758 Q2090.3 368.758 2092.6 368.156 Q2094.91 367.554 2097.18 366.35 L2097.18 370.378 Q2094.89 371.35 2092.48 371.86 Q2090.07 372.369 2087.6 372.369 Q2081.39 372.369 2077.76 368.758 Q2074.15 365.147 2074.15 358.989 Q2074.15 352.624 2077.57 348.897 Q2081.02 345.147 2086.86 345.147 Q2092.09 345.147 2095.12 348.526 Q2098.17 351.883 2098.17 357.67 M2093.92 356.42 Q2093.87 352.925 2091.95 350.841 Q2090.05 348.758 2086.9 348.758 Q2083.34 348.758 2081.18 350.772 Q2079.05 352.786 2078.73 356.443 L2093.92 356.42 Z" fill="#000000" fill-rule="nonzero" fill-opacity="1" /><path clip-path="url(#clip530)" d="M2122.23 349.707 L2122.23 335.679 L2126.48 335.679 L2126.48 371.698 L2122.23 371.698 L2122.23 367.809 Q2120.88 370.123 2118.82 371.258 Q2116.79 372.369 2113.92 372.369 Q2109.22 372.369 2106.25 368.619 Q2103.31 364.869 2103.31 358.758 Q2103.31 352.647 2106.25 348.897 Q2109.22 345.147 2113.92 345.147 Q2116.79 345.147 2118.82 346.281 Q2120.88 347.392 2122.23 349.707 M2107.71 358.758 Q2107.71 363.457 2109.63 366.142 Q2111.58 368.804 2114.96 368.804 Q2118.34 368.804 2120.28 366.142 Q2122.23 363.457 2122.23 358.758 Q2122.23 354.059 2120.28 351.397 Q2118.34 348.712 2114.96 348.712 Q2111.58 348.712 2109.63 351.397 Q2107.71 354.059 2107.71 358.758 Z" fill="#000000" fill-rule="nonzero" fill-opacity="1" /><path clip-path="url(#clip530)" d="M2135.26 345.772 L2139.52 345.772 L2139.52 371.698 L2135.26 371.698 L2135.26 345.772 M2135.26 335.679 L2139.52 335.679 L2139.52 341.073 L2135.26 341.073 L2135.26 335.679 Z" fill="#000000" fill-rule="nonzero" fill-opacity="1" /><path clip-path="url(#clip530)" d="M2167.09 346.767 L2167.09 350.749 Q2165.28 349.753 2163.45 349.267 Q2161.65 348.758 2159.79 348.758 Q2155.65 348.758 2153.36 351.397 Q2151.07 354.012 2151.07 358.758 Q2151.07 363.503 2153.36 366.142 Q2155.65 368.758 2159.79 368.758 Q2161.65 368.758 2163.45 368.272 Q2165.28 367.762 2167.09 366.767 L2167.09 370.702 Q2165.3 371.536 2163.38 371.952 Q2161.48 372.369 2159.33 372.369 Q2153.48 372.369 2150.03 368.688 Q2146.58 365.008 2146.58 358.758 Q2146.58 352.415 2150.05 348.781 Q2153.55 345.147 2159.61 345.147 Q2161.58 345.147 2163.45 345.563 Q2165.33 345.957 2167.09 346.767 Z" fill="#000000" fill-rule="nonzero" fill-opacity="1" /><path clip-path="url(#clip530)" d="M2178.71 338.411 L2178.71 345.772 L2187.48 345.772 L2187.48 349.082 L2178.71 349.082 L2178.71 363.156 Q2178.71 366.327 2179.56 367.23 Q2180.44 368.133 2183.11 368.133 L2187.48 368.133 L2187.48 371.698 L2183.11 371.698 Q2178.17 371.698 2176.3 369.869 Q2174.42 368.017 2174.42 363.156 L2174.42 349.082 L2171.3 349.082 L2171.3 345.772 L2174.42 345.772 L2174.42 338.411 L2178.71 338.411 Z" fill="#000000" fill-rule="nonzero" fill-opacity="1" /><path clip-path="url(#clip530)" d="M2193.08 345.772 L2197.34 345.772 L2197.34 371.698 L2193.08 371.698 L2193.08 345.772 M2193.08 335.679 L2197.34 335.679 L2197.34 341.073 L2193.08 341.073 L2193.08 335.679 Z" fill="#000000" fill-rule="nonzero" fill-opacity="1" /><path clip-path="url(#clip530)" d="M2216.3 348.758 Q2212.87 348.758 2210.88 351.443 Q2208.89 354.105 2208.89 358.758 Q2208.89 363.411 2210.86 366.096 Q2212.85 368.758 2216.3 368.758 Q2219.7 368.758 2221.69 366.073 Q2223.68 363.387 2223.68 358.758 Q2223.68 354.151 2221.69 351.466 Q2219.7 348.758 2216.3 348.758 M2216.3 345.147 Q2221.85 345.147 2225.03 348.758 Q2228.2 352.369 2228.2 358.758 Q2228.2 365.124 2225.03 368.758 Q2221.85 372.369 2216.3 372.369 Q2210.72 372.369 2207.55 368.758 Q2204.4 365.124 2204.4 358.758 Q2204.4 352.369 2207.55 348.758 Q2210.72 345.147 2216.3 345.147 Z" fill="#000000" fill-rule="nonzero" fill-opacity="1" /><path clip-path="url(#clip530)" d="M2256.81 356.049 L2256.81 371.698 L2252.55 371.698 L2252.55 356.188 Q2252.55 352.508 2251.11 350.679 Q2249.68 348.85 2246.81 348.85 Q2243.36 348.85 2241.37 351.05 Q2239.38 353.249 2239.38 357.045 L2239.38 371.698 L2235.1 371.698 L2235.1 345.772 L2239.38 345.772 L2239.38 349.8 Q2240.91 347.462 2242.97 346.304 Q2245.05 345.147 2247.76 345.147 Q2252.23 345.147 2254.52 347.925 Q2256.81 350.679 2256.81 356.049 Z" fill="#000000" fill-rule="nonzero" fill-opacity="1" /></svg>
