<?xml version="1.0" encoding="utf-8"?>
<svg xmlns="http://www.w3.org/2000/svg" xmlns:xlink="http://www.w3.org/1999/xlink" width="600" height="400" viewBox="0 0 2400 1600">
<defs>
  <clipPath id="clip740">
    <rect x="0" y="0" width="2400" height="1600"/>
  </clipPath>
</defs>
<path clip-path="url(#clip740)" d="M0 1600 L2400 1600 L2400 0 L0 0  Z" fill="#ffffff" fill-rule="evenodd" fill-opacity="1"/>
<defs>
  <clipPath id="clip741">
    <rect x="480" y="0" width="1681" height="1600"/>
  </clipPath>
</defs>
<path clip-path="url(#clip740)" d="M193.936 1486.45 L2352.76 1486.45 L2352.76 47.2441 L193.936 47.2441  Z" fill="#ffffff" fill-rule="evenodd" fill-opacity="1"/>
<defs>
  <clipPath id="clip742">
    <rect x="193" y="47" width="2160" height="1440"/>
  </clipPath>
</defs>
<polyline clip-path="url(#clip742)" style="stroke:#000000; stroke-linecap:round; stroke-linejoin:round; stroke-width:2; stroke-opacity:0.1; fill:none" points="202.814,1486.45 202.814,47.2441 "/>
<polyline clip-path="url(#clip742)" style="stroke:#000000; stroke-linecap:round; stroke-linejoin:round; stroke-width:2; stroke-opacity:0.1; fill:none" points="725.024,1486.45 725.024,47.2441 "/>
<polyline clip-path="url(#clip742)" style="stroke:#000000; stroke-linecap:round; stroke-linejoin:round; stroke-width:2; stroke-opacity:0.1; fill:none" points="1247.24,1486.45 1247.24,47.2441 "/>
<polyline clip-path="url(#clip742)" style="stroke:#000000; stroke-linecap:round; stroke-linejoin:round; stroke-width:2; stroke-opacity:0.1; fill:none" points="1769.45,1486.45 1769.45,47.2441 "/>
<polyline clip-path="url(#clip742)" style="stroke:#000000; stroke-linecap:round; stroke-linejoin:round; stroke-width:2; stroke-opacity:0.1; fill:none" points="2291.66,1486.45 2291.66,47.2441 "/>
<polyline clip-path="url(#clip740)" style="stroke:#000000; stroke-linecap:round; stroke-linejoin:round; stroke-width:4; stroke-opacity:1; fill:none" points="193.936,1486.45 2352.76,1486.45 "/>
<polyline clip-path="url(#clip740)" style="stroke:#000000; stroke-linecap:round; stroke-linejoin:round; stroke-width:4; stroke-opacity:1; fill:none" points="202.814,1486.45 202.814,1467.55 "/>
<polyline clip-path="url(#clip740)" style="stroke:#000000; stroke-linecap:round; stroke-linejoin:round; stroke-width:4; stroke-opacity:1; fill:none" points="725.024,1486.45 725.024,1467.55 "/>
<polyline clip-path="url(#clip740)" style="stroke:#000000; stroke-linecap:round; stroke-linejoin:round; stroke-width:4; stroke-opacity:1; fill:none" points="1247.24,1486.45 1247.24,1467.55 "/>
<polyline clip-path="url(#clip740)" style="stroke:#000000; stroke-linecap:round; stroke-linejoin:round; stroke-width:4; stroke-opacity:1; fill:none" points="1769.45,1486.45 1769.45,1467.55 "/>
<polyline clip-path="url(#clip740)" style="stroke:#000000; stroke-linecap:round; stroke-linejoin:round; stroke-width:4; stroke-opacity:1; fill:none" points="2291.66,1486.45 2291.66,1467.55 "/>
<path clip-path="url(#clip740)" d="M202.814 1517.37 Q199.202 1517.37 197.374 1520.93 Q195.568 1524.47 195.568 1531.6 Q195.568 1538.71 197.374 1542.27 Q199.202 1545.82 202.814 1545.82 Q206.448 1545.82 208.253 1542.27 Q210.082 1538.71 210.082 1531.6 Q210.082 1524.47 208.253 1520.93 Q206.448 1517.37 202.814 1517.37 M202.814 1513.66 Q208.624 1513.66 211.679 1518.27 Q214.758 1522.85 214.758 1531.6 Q214.758 1540.33 211.679 1544.94 Q208.624 1549.52 202.814 1549.52 Q197.003 1549.52 193.925 1544.94 Q190.869 1540.33 190.869 1531.6 Q190.869 1522.85 193.925 1518.27 Q197.003 1513.66 202.814 1513.66 Z" fill="#000000" fill-rule="nonzero" fill-opacity="1" /><path clip-path="url(#clip740)" d="M699.712 1544.91 L707.351 1544.91 L707.351 1518.55 L699.041 1520.21 L699.041 1515.95 L707.305 1514.29 L711.981 1514.29 L711.981 1544.91 L719.619 1544.91 L719.619 1548.85 L699.712 1548.85 L699.712 1544.91 Z" fill="#000000" fill-rule="nonzero" fill-opacity="1" /><path clip-path="url(#clip740)" d="M739.064 1517.37 Q735.453 1517.37 733.624 1520.93 Q731.818 1524.47 731.818 1531.6 Q731.818 1538.71 733.624 1542.27 Q735.453 1545.82 739.064 1545.82 Q742.698 1545.82 744.504 1542.27 Q746.332 1538.71 746.332 1531.6 Q746.332 1524.47 744.504 1520.93 Q742.698 1517.37 739.064 1517.37 M739.064 1513.66 Q744.874 1513.66 747.929 1518.27 Q751.008 1522.85 751.008 1531.6 Q751.008 1540.33 747.929 1544.94 Q744.874 1549.52 739.064 1549.52 Q733.254 1549.52 730.175 1544.94 Q727.119 1540.33 727.119 1531.6 Q727.119 1522.85 730.175 1518.27 Q733.254 1513.66 739.064 1513.66 Z" fill="#000000" fill-rule="nonzero" fill-opacity="1" /><path clip-path="url(#clip740)" d="M1226.01 1544.91 L1242.33 1544.91 L1242.33 1548.85 L1220.38 1548.85 L1220.38 1544.91 Q1223.05 1542.16 1227.63 1537.53 Q1232.24 1532.88 1233.42 1531.53 Q1235.66 1529.01 1236.54 1527.27 Q1237.44 1525.51 1237.44 1523.82 Q1237.44 1521.07 1235.5 1519.33 Q1233.58 1517.6 1230.48 1517.6 Q1228.28 1517.6 1225.82 1518.36 Q1223.39 1519.13 1220.62 1520.68 L1220.62 1515.95 Q1223.44 1514.82 1225.89 1514.24 Q1228.35 1513.66 1230.38 1513.66 Q1235.75 1513.66 1238.95 1516.35 Q1242.14 1519.03 1242.14 1523.52 Q1242.14 1525.65 1241.33 1527.57 Q1240.55 1529.47 1238.44 1532.07 Q1237.86 1532.74 1234.76 1535.95 Q1231.66 1539.15 1226.01 1544.91 Z" fill="#000000" fill-rule="nonzero" fill-opacity="1" /><path clip-path="url(#clip740)" d="M1262.14 1517.37 Q1258.53 1517.37 1256.7 1520.93 Q1254.9 1524.47 1254.9 1531.6 Q1254.9 1538.71 1256.7 1542.27 Q1258.53 1545.82 1262.14 1545.82 Q1265.78 1545.82 1267.58 1542.27 Q1269.41 1538.71 1269.41 1531.6 Q1269.41 1524.47 1267.58 1520.93 Q1265.78 1517.37 1262.14 1517.37 M1262.14 1513.66 Q1267.95 1513.66 1271.01 1518.27 Q1274.09 1522.85 1274.09 1531.6 Q1274.09 1540.33 1271.01 1544.94 Q1267.95 1549.52 1262.14 1549.52 Q1256.33 1549.52 1253.25 1544.94 Q1250.2 1540.33 1250.2 1531.6 Q1250.2 1522.85 1253.25 1518.27 Q1256.33 1513.66 1262.14 1513.66 Z" fill="#000000" fill-rule="nonzero" fill-opacity="1" /><path clip-path="url(#clip740)" d="M1758.29 1530.21 Q1761.65 1530.93 1763.52 1533.2 Q1765.42 1535.47 1765.42 1538.8 Q1765.42 1543.92 1761.9 1546.72 Q1758.38 1549.52 1751.9 1549.52 Q1749.72 1549.52 1747.41 1549.08 Q1745.12 1548.66 1742.66 1547.81 L1742.66 1543.29 Q1744.61 1544.43 1746.92 1545.01 Q1749.24 1545.58 1751.76 1545.58 Q1756.16 1545.58 1758.45 1543.85 Q1760.77 1542.11 1760.77 1538.8 Q1760.77 1535.75 1758.61 1534.03 Q1756.48 1532.3 1752.66 1532.3 L1748.64 1532.3 L1748.64 1528.45 L1752.85 1528.45 Q1756.3 1528.45 1758.13 1527.09 Q1759.96 1525.7 1759.96 1523.11 Q1759.96 1520.45 1758.06 1519.03 Q1756.18 1517.6 1752.66 1517.6 Q1750.74 1517.6 1748.54 1518.01 Q1746.34 1518.43 1743.71 1519.31 L1743.71 1515.14 Q1746.37 1514.4 1748.68 1514.03 Q1751.02 1513.66 1753.08 1513.66 Q1758.4 1513.66 1761.51 1516.09 Q1764.61 1518.5 1764.61 1522.62 Q1764.61 1525.49 1762.96 1527.48 Q1761.32 1529.45 1758.29 1530.21 Z" fill="#000000" fill-rule="nonzero" fill-opacity="1" /><path clip-path="url(#clip740)" d="M1784.28 1517.37 Q1780.67 1517.37 1778.84 1520.93 Q1777.04 1524.47 1777.04 1531.6 Q1777.04 1538.71 1778.84 1542.27 Q1780.67 1545.82 1784.28 1545.82 Q1787.92 1545.82 1789.72 1542.27 Q1791.55 1538.71 1791.55 1531.6 Q1791.55 1524.47 1789.72 1520.93 Q1787.92 1517.37 1784.28 1517.37 M1784.28 1513.66 Q1790.09 1513.66 1793.15 1518.27 Q1796.23 1522.85 1796.23 1531.6 Q1796.23 1540.33 1793.15 1544.94 Q1790.09 1549.52 1784.28 1549.52 Q1778.47 1549.52 1775.4 1544.94 Q1772.34 1540.33 1772.34 1531.6 Q1772.34 1522.85 1775.4 1518.27 Q1778.47 1513.66 1784.28 1513.66 Z" fill="#000000" fill-rule="nonzero" fill-opacity="1" /><path clip-path="url(#clip740)" d="M2279.83 1518.36 L2268.02 1536.81 L2279.83 1536.81 L2279.83 1518.36 M2278.6 1514.29 L2284.48 1514.29 L2284.48 1536.81 L2289.41 1536.81 L2289.41 1540.7 L2284.48 1540.7 L2284.48 1548.85 L2279.83 1548.85 L2279.83 1540.7 L2264.23 1540.7 L2264.23 1536.19 L2278.6 1514.29 Z" fill="#000000" fill-rule="nonzero" fill-opacity="1" /><path clip-path="url(#clip740)" d="M2307.14 1517.37 Q2303.53 1517.37 2301.7 1520.93 Q2299.9 1524.47 2299.9 1531.6 Q2299.9 1538.71 2301.7 1542.27 Q2303.53 1545.82 2307.14 1545.82 Q2310.78 1545.82 2312.58 1542.27 Q2314.41 1538.71 2314.41 1531.6 Q2314.41 1524.47 2312.58 1520.93 Q2310.78 1517.37 2307.14 1517.37 M2307.14 1513.66 Q2312.95 1513.66 2316.01 1518.27 Q2319.09 1522.85 2319.09 1531.6 Q2319.09 1540.33 2316.01 1544.94 Q2312.95 1549.52 2307.14 1549.52 Q2301.33 1549.52 2298.25 1544.94 Q2295.2 1540.33 2295.2 1531.6 Q2295.2 1522.85 2298.25 1518.27 Q2301.33 1513.66 2307.14 1513.66 Z" fill="#000000" fill-rule="nonzero" fill-opacity="1" /><polyline clip-path="url(#clip742)" style="stroke:#000000; stroke-linecap:round; stroke-linejoin:round; stroke-width:2; stroke-opacity:0.1; fill:none" points="193.936,1312.72 2352.76,1312.72 "/>
<polyline clip-path="url(#clip742)" style="stroke:#000000; stroke-linecap:round; stroke-linejoin:round; stroke-width:2; stroke-opacity:0.1; fill:none" points="193.936,1067.77 2352.76,1067.77 "/>
<polyline clip-path="url(#clip742)" style="stroke:#000000; stroke-linecap:round; stroke-linejoin:round; stroke-width:2; stroke-opacity:0.1; fill:none" points="193.936,822.82 2352.76,822.82 "/>
<polyline clip-path="url(#clip742)" style="stroke:#000000; stroke-linecap:round; stroke-linejoin:round; stroke-width:2; stroke-opacity:0.1; fill:none" points="193.936,577.872 2352.76,577.872 "/>
<polyline clip-path="url(#clip742)" style="stroke:#000000; stroke-linecap:round; stroke-linejoin:round; stroke-width:2; stroke-opacity:0.1; fill:none" points="193.936,332.924 2352.76,332.924 "/>
<polyline clip-path="url(#clip742)" style="stroke:#000000; stroke-linecap:round; stroke-linejoin:round; stroke-width:2; stroke-opacity:0.1; fill:none" points="193.936,87.9763 2352.76,87.9763 "/>
<polyline clip-path="url(#clip740)" style="stroke:#000000; stroke-linecap:round; stroke-linejoin:round; stroke-width:4; stroke-opacity:1; fill:none" points="193.936,1486.45 193.936,47.2441 "/>
<polyline clip-path="url(#clip740)" style="stroke:#000000; stroke-linecap:round; stroke-linejoin:round; stroke-width:4; stroke-opacity:1; fill:none" points="193.936,1312.72 212.834,1312.72 "/>
<polyline clip-path="url(#clip740)" style="stroke:#000000; stroke-linecap:round; stroke-linejoin:round; stroke-width:4; stroke-opacity:1; fill:none" points="193.936,1067.77 212.834,1067.77 "/>
<polyline clip-path="url(#clip740)" style="stroke:#000000; stroke-linecap:round; stroke-linejoin:round; stroke-width:4; stroke-opacity:1; fill:none" points="193.936,822.82 212.834,822.82 "/>
<polyline clip-path="url(#clip740)" style="stroke:#000000; stroke-linecap:round; stroke-linejoin:round; stroke-width:4; stroke-opacity:1; fill:none" points="193.936,577.872 212.834,577.872 "/>
<polyline clip-path="url(#clip740)" style="stroke:#000000; stroke-linecap:round; stroke-linejoin:round; stroke-width:4; stroke-opacity:1; fill:none" points="193.936,332.924 212.834,332.924 "/>
<polyline clip-path="url(#clip740)" style="stroke:#000000; stroke-linecap:round; stroke-linejoin:round; stroke-width:4; stroke-opacity:1; fill:none" points="193.936,87.9763 212.834,87.9763 "/>
<path clip-path="url(#clip740)" d="M51.9875 1313.17 L81.6633 1313.17 L81.6633 1317.1 L51.9875 1317.1 L51.9875 1313.17 Z" fill="#000000" fill-rule="nonzero" fill-opacity="1" /><path clip-path="url(#clip740)" d="M92.566 1326.06 L100.205 1326.06 L100.205 1299.7 L91.8947 1301.36 L91.8947 1297.1 L100.159 1295.44 L104.834 1295.44 L104.834 1326.06 L112.473 1326.06 L112.473 1330 L92.566 1330 L92.566 1326.06 Z" fill="#000000" fill-rule="nonzero" fill-opacity="1" /><path clip-path="url(#clip740)" d="M121.918 1324.12 L126.802 1324.12 L126.802 1330 L121.918 1330 L121.918 1324.12 Z" fill="#000000" fill-rule="nonzero" fill-opacity="1" /><path clip-path="url(#clip740)" d="M137.033 1295.44 L155.39 1295.44 L155.39 1299.37 L141.316 1299.37 L141.316 1307.84 Q142.334 1307.5 143.353 1307.33 Q144.371 1307.15 145.39 1307.15 Q151.177 1307.15 154.556 1310.32 Q157.936 1313.49 157.936 1318.91 Q157.936 1324.49 154.464 1327.59 Q150.992 1330.67 144.672 1330.67 Q142.496 1330.67 140.228 1330.3 Q137.982 1329.93 135.575 1329.19 L135.575 1324.49 Q137.658 1325.62 139.881 1326.18 Q142.103 1326.73 144.58 1326.73 Q148.584 1326.73 150.922 1324.63 Q153.26 1322.52 153.26 1318.91 Q153.26 1315.3 150.922 1313.19 Q148.584 1311.08 144.58 1311.08 Q142.705 1311.08 140.83 1311.5 Q138.978 1311.92 137.033 1312.8 L137.033 1295.44 Z" fill="#000000" fill-rule="nonzero" fill-opacity="1" /><path clip-path="url(#clip740)" d="M50.9921 1068.22 L80.6679 1068.22 L80.6679 1072.16 L50.9921 1072.16 L50.9921 1068.22 Z" fill="#000000" fill-rule="nonzero" fill-opacity="1" /><path clip-path="url(#clip740)" d="M91.5706 1081.11 L99.2095 1081.11 L99.2095 1054.75 L90.8993 1056.41 L90.8993 1052.16 L99.1632 1050.49 L103.839 1050.49 L103.839 1081.11 L111.478 1081.11 L111.478 1085.05 L91.5706 1085.05 L91.5706 1081.11 Z" fill="#000000" fill-rule="nonzero" fill-opacity="1" /><path clip-path="url(#clip740)" d="M120.922 1079.17 L125.807 1079.17 L125.807 1085.05 L120.922 1085.05 L120.922 1079.17 Z" fill="#000000" fill-rule="nonzero" fill-opacity="1" /><path clip-path="url(#clip740)" d="M145.992 1053.57 Q142.381 1053.57 140.552 1057.13 Q138.746 1060.67 138.746 1067.8 Q138.746 1074.91 140.552 1078.47 Q142.381 1082.02 145.992 1082.02 Q149.626 1082.02 151.431 1078.47 Q153.26 1074.91 153.26 1067.8 Q153.26 1060.67 151.431 1057.13 Q149.626 1053.57 145.992 1053.57 M145.992 1049.86 Q151.802 1049.86 154.857 1054.47 Q157.936 1059.05 157.936 1067.8 Q157.936 1076.53 154.857 1081.14 Q151.802 1085.72 145.992 1085.72 Q140.181 1085.72 137.103 1081.14 Q134.047 1076.53 134.047 1067.8 Q134.047 1059.05 137.103 1054.47 Q140.181 1049.86 145.992 1049.86 Z" fill="#000000" fill-rule="nonzero" fill-opacity="1" /><path clip-path="url(#clip740)" d="M51.9875 823.272 L81.6633 823.272 L81.6633 827.207 L51.9875 827.207 L51.9875 823.272 Z" fill="#000000" fill-rule="nonzero" fill-opacity="1" /><path clip-path="url(#clip740)" d="M101.756 808.619 Q98.1447 808.619 96.316 812.184 Q94.5104 815.726 94.5104 822.855 Q94.5104 829.962 96.316 833.526 Q98.1447 837.068 101.756 837.068 Q105.39 837.068 107.196 833.526 Q109.024 829.962 109.024 822.855 Q109.024 815.726 107.196 812.184 Q105.39 808.619 101.756 808.619 M101.756 804.915 Q107.566 804.915 110.621 809.522 Q113.7 814.105 113.7 822.855 Q113.7 831.582 110.621 836.188 Q107.566 840.772 101.756 840.772 Q95.9456 840.772 92.8669 836.188 Q89.8114 831.582 89.8114 822.855 Q89.8114 814.105 92.8669 809.522 Q95.9456 804.915 101.756 804.915 Z" fill="#000000" fill-rule="nonzero" fill-opacity="1" /><path clip-path="url(#clip740)" d="M121.918 834.221 L126.802 834.221 L126.802 840.1 L121.918 840.1 L121.918 834.221 Z" fill="#000000" fill-rule="nonzero" fill-opacity="1" /><path clip-path="url(#clip740)" d="M137.033 805.54 L155.39 805.54 L155.39 809.476 L141.316 809.476 L141.316 817.948 Q142.334 817.601 143.353 817.439 Q144.371 817.253 145.39 817.253 Q151.177 817.253 154.556 820.425 Q157.936 823.596 157.936 829.013 Q157.936 834.591 154.464 837.693 Q150.992 840.772 144.672 840.772 Q142.496 840.772 140.228 840.401 Q137.982 840.031 135.575 839.29 L135.575 834.591 Q137.658 835.725 139.881 836.281 Q142.103 836.837 144.58 836.837 Q148.584 836.837 150.922 834.73 Q153.26 832.624 153.26 829.013 Q153.26 825.401 150.922 823.295 Q148.584 821.189 144.58 821.189 Q142.705 821.189 140.83 821.605 Q138.978 822.022 137.033 822.901 L137.033 805.54 Z" fill="#000000" fill-rule="nonzero" fill-opacity="1" /><path clip-path="url(#clip740)" d="M100.76 563.671 Q97.1493 563.671 95.3206 567.236 Q93.515 570.778 93.515 577.907 Q93.515 585.014 95.3206 588.578 Q97.1493 592.12 100.76 592.12 Q104.395 592.12 106.2 588.578 Q108.029 585.014 108.029 577.907 Q108.029 570.778 106.2 567.236 Q104.395 563.671 100.76 563.671 M100.76 559.967 Q106.571 559.967 109.626 564.574 Q112.705 569.157 112.705 577.907 Q112.705 586.634 109.626 591.24 Q106.571 595.824 100.76 595.824 Q94.9502 595.824 91.8715 591.24 Q88.816 586.634 88.816 577.907 Q88.816 569.157 91.8715 564.574 Q94.9502 559.967 100.76 559.967 Z" fill="#000000" fill-rule="nonzero" fill-opacity="1" /><path clip-path="url(#clip740)" d="M120.922 589.273 L125.807 589.273 L125.807 595.152 L120.922 595.152 L120.922 589.273 Z" fill="#000000" fill-rule="nonzero" fill-opacity="1" /><path clip-path="url(#clip740)" d="M145.992 563.671 Q142.381 563.671 140.552 567.236 Q138.746 570.778 138.746 577.907 Q138.746 585.014 140.552 588.578 Q142.381 592.12 145.992 592.12 Q149.626 592.12 151.431 588.578 Q153.26 585.014 153.26 577.907 Q153.26 570.778 151.431 567.236 Q149.626 563.671 145.992 563.671 M145.992 559.967 Q151.802 559.967 154.857 564.574 Q157.936 569.157 157.936 577.907 Q157.936 586.634 154.857 591.24 Q151.802 595.824 145.992 595.824 Q140.181 595.824 137.103 591.24 Q134.047 586.634 134.047 577.907 Q134.047 569.157 137.103 564.574 Q140.181 559.967 145.992 559.967 Z" fill="#000000" fill-rule="nonzero" fill-opacity="1" /><path clip-path="url(#clip740)" d="M101.756 318.723 Q98.1447 318.723 96.316 322.288 Q94.5104 325.829 94.5104 332.959 Q94.5104 340.065 96.316 343.63 Q98.1447 347.172 101.756 347.172 Q105.39 347.172 107.196 343.63 Q109.024 340.065 109.024 332.959 Q109.024 325.829 107.196 322.288 Q105.39 318.723 101.756 318.723 M101.756 315.019 Q107.566 315.019 110.621 319.626 Q113.7 324.209 113.7 332.959 Q113.7 341.686 110.621 346.292 Q107.566 350.876 101.756 350.876 Q95.9456 350.876 92.8669 346.292 Q89.8114 341.686 89.8114 332.959 Q89.8114 324.209 92.8669 319.626 Q95.9456 315.019 101.756 315.019 Z" fill="#000000" fill-rule="nonzero" fill-opacity="1" /><path clip-path="url(#clip740)" d="M121.918 344.325 L126.802 344.325 L126.802 350.204 L121.918 350.204 L121.918 344.325 Z" fill="#000000" fill-rule="nonzero" fill-opacity="1" /><path clip-path="url(#clip740)" d="M137.033 315.644 L155.39 315.644 L155.39 319.579 L141.316 319.579 L141.316 328.052 Q142.334 327.704 143.353 327.542 Q144.371 327.357 145.39 327.357 Q151.177 327.357 154.556 330.529 Q157.936 333.7 157.936 339.116 Q157.936 344.695 154.464 347.797 Q150.992 350.876 144.672 350.876 Q142.496 350.876 140.228 350.505 Q137.982 350.135 135.575 349.394 L135.575 344.695 Q137.658 345.829 139.881 346.385 Q142.103 346.94 144.58 346.94 Q148.584 346.94 150.922 344.834 Q153.26 342.728 153.26 339.116 Q153.26 335.505 150.922 333.399 Q148.584 331.292 144.58 331.292 Q142.705 331.292 140.83 331.709 Q138.978 332.126 137.033 333.005 L137.033 315.644 Z" fill="#000000" fill-rule="nonzero" fill-opacity="1" /><path clip-path="url(#clip740)" d="M91.5706 101.321 L99.2095 101.321 L99.2095 74.9555 L90.8993 76.6222 L90.8993 72.3629 L99.1632 70.6963 L103.839 70.6963 L103.839 101.321 L111.478 101.321 L111.478 105.256 L91.5706 105.256 L91.5706 101.321 Z" fill="#000000" fill-rule="nonzero" fill-opacity="1" /><path clip-path="url(#clip740)" d="M120.922 99.3767 L125.807 99.3767 L125.807 105.256 L120.922 105.256 L120.922 99.3767 Z" fill="#000000" fill-rule="nonzero" fill-opacity="1" /><path clip-path="url(#clip740)" d="M145.992 73.775 Q142.381 73.775 140.552 77.3398 Q138.746 80.8814 138.746 88.011 Q138.746 95.1174 140.552 98.6822 Q142.381 102.224 145.992 102.224 Q149.626 102.224 151.431 98.6822 Q153.26 95.1174 153.26 88.011 Q153.26 80.8814 151.431 77.3398 Q149.626 73.775 145.992 73.775 M145.992 70.0713 Q151.802 70.0713 154.857 74.6777 Q157.936 79.261 157.936 88.011 Q157.936 96.7378 154.857 101.344 Q151.802 105.928 145.992 105.928 Q140.181 105.928 137.103 101.344 Q134.047 96.7378 134.047 88.011 Q134.047 79.261 137.103 74.6777 Q140.181 70.0713 145.992 70.0713 Z" fill="#000000" fill-rule="nonzero" fill-opacity="1" /><polyline clip-path="url(#clip742)" style="stroke:#009af9; stroke-linecap:round; stroke-linejoin:round; stroke-width:4; stroke-opacity:1; fill:none" points="255.035,87.9763 307.256,90.3683 359.477,97.7838 411.698,109.744 463.919,126.728 516.14,148.017 568.361,173.612 620.582,203.274 672.803,236.524 725.024,273.362 777.246,313.07 829.467,355.649 881.688,400.381 933.909,446.787 986.13,494.628 1038.35,543.217 1090.57,592.18 1142.79,640.963 1195.01,689.163 1247.24,736.227 1299.46,781.796 1351.68,825.213 1403.9,866.117 1456.12,904.39 1508.34,939.075 1560.56,970.411 1612.78,997.681 1665,1020.88 1717.23,1039.54 1769.45,1053.66 1821.67,1062.98 1873.89,1067.29 1926.11,1067.05 1978.33,1061.55 2030.55,1051.5 2082.77,1036.67 2134.99,1017.3 2187.22,993.375 2239.44,965.388 2291.66,933.573 "/>
<polyline clip-path="url(#clip742)" style="stroke:#e26f46; stroke-linecap:round; stroke-linejoin:round; stroke-width:4; stroke-opacity:1; fill:none" points="255.035,87.9763 307.256,90.3683 359.477,97.7838 411.698,113.332 463.919,139.167 516.14,162.13 568.361,189.878 620.582,216.67 672.803,250.159 725.024,279.82 777.246,314.745 829.467,357.323 881.688,407.557 933.909,463.531 986.13,527.16 1038.35,597.009 1090.57,673.077 1142.79,759.191 1195.01,853.678 1247.24,959.168 1299.46,1080.21 1351.68,1225.65 1403.9,1377.78 1456.12,1445.72 1508.34,1393.57 1560.56,1348.12 1612.78,1328.5 1665,1298.84 1717.23,1267.75 1769.45,1240.95 1821.67,1214.16 1873.89,1186.89 1926.11,1160.58 1978.33,1133.79 2030.55,1107.96 2082.77,1080.21 2134.99,1051.98 2187.22,1022.32 2239.44,989.787 2291.66,955.82 "/>
<polyline clip-path="url(#clip742)" style="stroke:#3da44d; stroke-linecap:round; stroke-linejoin:round; stroke-width:4; stroke-opacity:1; fill:none" points="255.035,87.9763 307.256,90.3683 359.477,97.7838 411.698,109.027 463.919,122.901 516.14,141.08 568.361,162.13 620.582,189.878 672.803,222.411 725.024,256.856 777.246,293.216 829.467,335.316 881.688,378.852 933.909,422.866 986.13,465.923 1038.35,511.851 1090.57,558.736 1142.79,606.577 1195.01,654.419 1247.24,703.217 1299.46,751.058 1351.68,796.029 1403.9,837.173 1456.12,878.316 1508.34,915.633 1560.56,957.733 1612.78,996.006 1665,1023.75 1717.23,1043.85 1769.45,1063.94 1821.67,1084.03 1873.89,1102.21 1926.11,1112.74 1978.33,1114.65 2030.55,1105.08 2082.77,1085.95 2134.99,1055.33 2187.22,1013.23 2239.44,965.388 2291.66,904.151 "/>
<polyline clip-path="url(#clip742)" style="stroke:#c271d2; stroke-linecap:round; stroke-linejoin:round; stroke-width:4; stroke-opacity:1; fill:none" points="255.035,87.9763 307.256,89.8899 359.477,91.3252 411.698,92.9996 463.919,95.1525 516.14,97.5446 568.361,99.9366 620.582,101.372 672.803,103.286 725.024,105.678 777.246,108.07 829.467,109.983 881.688,112.375 933.909,114.289 986.13,116.442 1038.35,118.834 1090.57,120.987 1142.79,123.379 1195.01,125.532 1247.24,127.206 1299.46,129.12 1351.68,131.034 1403.9,132.708 1456.12,134.382 1508.34,136.057 1560.56,138.21 1612.78,140.123 1665,142.037 1717.23,143.712 1769.45,145.386 1821.67,147.3 1873.89,149.213 1926.11,150.409 1978.33,151.605 2030.55,153.28 2082.77,154.954 2134.99,156.39 2187.22,157.586 2239.44,159.26 2291.66,160.695 "/>
<polyline clip-path="url(#clip742)" style="stroke:#ff0000; stroke-linecap:round; stroke-linejoin:round; stroke-width:4; stroke-opacity:1; fill:none" points="359.477,2925.65 359.477,-1391.96 "/>
<path clip-path="url(#clip740)" d="M1647.42 1438.47 L2280.8 1438.47 L2280.8 1127.43 L1647.42 1127.43  Z" fill="#ffffff" fill-rule="evenodd" fill-opacity="1"/>
<polyline clip-path="url(#clip740)" style="stroke:#000000; stroke-linecap:round; stroke-linejoin:round; stroke-width:4; stroke-opacity:1; fill:none" points="1647.42,1438.47 2280.8,1438.47 2280.8,1127.43 1647.42,1127.43 1647.42,1438.47 "/>
<polyline clip-path="url(#clip740)" style="stroke:#009af9; stroke-linecap:round; stroke-linejoin:round; stroke-width:4; stroke-opacity:1; fill:none" points="1671.4,1179.27 1815.32,1179.27 "/>
<path clip-path="url(#clip740)" d="M1854.5 1174.61 Q1853.78 1174.19 1852.92 1174.01 Q1852.09 1173.8 1851.07 1173.8 Q1847.46 1173.8 1845.51 1176.16 Q1843.59 1178.5 1843.59 1182.9 L1843.59 1196.55 L1839.31 1196.55 L1839.31 1170.63 L1843.59 1170.63 L1843.59 1174.66 Q1844.94 1172.3 1847.09 1171.16 Q1849.24 1170 1852.32 1170 Q1852.76 1170 1853.29 1170.07 Q1853.82 1170.12 1854.47 1170.24 L1854.5 1174.61 Z" fill="#000000" fill-rule="nonzero" fill-opacity="1" /><path clip-path="url(#clip740)" d="M1880.1 1182.53 L1880.1 1184.61 L1860.51 1184.61 Q1860.79 1189.01 1863.15 1191.32 Q1865.54 1193.61 1869.77 1193.61 Q1872.23 1193.61 1874.52 1193.01 Q1876.83 1192.41 1879.1 1191.21 L1879.1 1195.23 Q1876.81 1196.21 1874.4 1196.72 Q1872 1197.23 1869.52 1197.23 Q1863.32 1197.23 1859.68 1193.61 Q1856.07 1190 1856.07 1183.85 Q1856.07 1177.48 1859.5 1173.75 Q1862.94 1170 1868.78 1170 Q1874.01 1170 1877.04 1173.38 Q1880.1 1176.74 1880.1 1182.53 M1875.84 1181.28 Q1875.79 1177.78 1873.87 1175.7 Q1871.97 1173.61 1868.82 1173.61 Q1865.26 1173.61 1863.11 1175.63 Q1860.98 1177.64 1860.65 1181.3 L1875.84 1181.28 Z" fill="#000000" fill-rule="nonzero" fill-opacity="1" /><path clip-path="url(#clip740)" d="M1900.21 1160.54 L1900.21 1164.08 L1896.14 1164.08 Q1893.85 1164.08 1892.94 1165 Q1892.06 1165.93 1892.06 1168.34 L1892.06 1170.63 L1899.08 1170.63 L1899.08 1173.94 L1892.06 1173.94 L1892.06 1196.55 L1887.78 1196.55 L1887.78 1173.94 L1883.71 1173.94 L1883.71 1170.63 L1887.78 1170.63 L1887.78 1168.82 Q1887.78 1164.49 1889.8 1162.53 Q1891.81 1160.54 1896.19 1160.54 L1900.21 1160.54 Z" fill="#000000" fill-rule="nonzero" fill-opacity="1" /><path clip-path="url(#clip740)" d="M1925.95 1182.53 L1925.95 1184.61 L1906.37 1184.61 Q1906.65 1189.01 1909.01 1191.32 Q1911.39 1193.61 1915.63 1193.61 Q1918.08 1193.61 1920.37 1193.01 Q1922.69 1192.41 1924.96 1191.21 L1924.96 1195.23 Q1922.67 1196.21 1920.26 1196.72 Q1917.85 1197.23 1915.37 1197.23 Q1909.17 1197.23 1905.54 1193.61 Q1901.93 1190 1901.93 1183.85 Q1901.93 1177.48 1905.35 1173.75 Q1908.8 1170 1914.63 1170 Q1919.87 1170 1922.9 1173.38 Q1925.95 1176.74 1925.95 1182.53 M1921.69 1181.28 Q1921.65 1177.78 1919.73 1175.7 Q1917.83 1173.61 1914.68 1173.61 Q1911.12 1173.61 1908.96 1175.63 Q1906.83 1177.64 1906.51 1181.3 L1921.69 1181.28 Z" fill="#000000" fill-rule="nonzero" fill-opacity="1" /><path clip-path="url(#clip740)" d="M1947.97 1174.61 Q1947.25 1174.19 1946.39 1174.01 Q1945.56 1173.8 1944.54 1173.8 Q1940.93 1173.8 1938.99 1176.16 Q1937.06 1178.5 1937.06 1182.9 L1937.06 1196.55 L1932.78 1196.55 L1932.78 1170.63 L1937.06 1170.63 L1937.06 1174.66 Q1938.41 1172.3 1940.56 1171.16 Q1942.71 1170 1945.79 1170 Q1946.23 1170 1946.76 1170.07 Q1947.3 1170.12 1947.94 1170.24 L1947.97 1174.61 Z" fill="#000000" fill-rule="nonzero" fill-opacity="1" /><path clip-path="url(#clip740)" d="M1973.57 1182.53 L1973.57 1184.61 L1953.99 1184.61 Q1954.26 1189.01 1956.62 1191.32 Q1959.01 1193.61 1963.25 1193.61 Q1965.7 1193.61 1967.99 1193.01 Q1970.31 1192.41 1972.57 1191.21 L1972.57 1195.23 Q1970.28 1196.21 1967.87 1196.72 Q1965.47 1197.23 1962.99 1197.23 Q1956.79 1197.23 1953.15 1193.61 Q1949.54 1190 1949.54 1183.85 Q1949.54 1177.48 1952.97 1173.75 Q1956.42 1170 1962.25 1170 Q1967.48 1170 1970.51 1173.38 Q1973.57 1176.74 1973.57 1182.53 M1969.31 1181.28 Q1969.26 1177.78 1967.34 1175.7 Q1965.44 1173.61 1962.3 1173.61 Q1958.73 1173.61 1956.58 1175.63 Q1954.45 1177.64 1954.12 1181.3 L1969.31 1181.28 Z" fill="#000000" fill-rule="nonzero" fill-opacity="1" /><path clip-path="url(#clip740)" d="M2002.11 1180.91 L2002.11 1196.55 L1997.85 1196.55 L1997.85 1181.05 Q1997.85 1177.36 1996.42 1175.54 Q1994.98 1173.71 1992.11 1173.71 Q1988.66 1173.71 1986.67 1175.91 Q1984.68 1178.11 1984.68 1181.9 L1984.68 1196.55 L1980.4 1196.55 L1980.4 1170.63 L1984.68 1170.63 L1984.68 1174.66 Q1986.21 1172.32 1988.27 1171.16 Q1990.35 1170 1993.06 1170 Q1997.53 1170 1999.82 1172.78 Q2002.11 1175.54 2002.11 1180.91 Z" fill="#000000" fill-rule="nonzero" fill-opacity="1" /><path clip-path="url(#clip740)" d="M2029.26 1171.62 L2029.26 1175.61 Q2027.46 1174.61 2025.63 1174.12 Q2023.82 1173.61 2021.97 1173.61 Q2017.83 1173.61 2015.54 1176.25 Q2013.24 1178.87 2013.24 1183.61 Q2013.24 1188.36 2015.54 1191 Q2017.83 1193.61 2021.97 1193.61 Q2023.82 1193.61 2025.63 1193.13 Q2027.46 1192.62 2029.26 1191.62 L2029.26 1195.56 Q2027.48 1196.39 2025.56 1196.81 Q2023.66 1197.23 2021.51 1197.23 Q2015.65 1197.23 2012.2 1193.55 Q2008.75 1189.86 2008.75 1183.61 Q2008.75 1177.27 2012.23 1173.64 Q2015.72 1170 2021.79 1170 Q2023.75 1170 2025.63 1170.42 Q2027.5 1170.81 2029.26 1171.62 Z" fill="#000000" fill-rule="nonzero" fill-opacity="1" /><path clip-path="url(#clip740)" d="M2058.85 1182.53 L2058.85 1184.61 L2039.26 1184.61 Q2039.54 1189.01 2041.9 1191.32 Q2044.29 1193.61 2048.52 1193.61 Q2050.98 1193.61 2053.27 1193.01 Q2055.58 1192.41 2057.85 1191.21 L2057.85 1195.23 Q2055.56 1196.21 2053.15 1196.72 Q2050.74 1197.23 2048.27 1197.23 Q2042.06 1197.23 2038.43 1193.61 Q2034.82 1190 2034.82 1183.85 Q2034.82 1177.48 2038.24 1173.75 Q2041.69 1170 2047.53 1170 Q2052.76 1170 2055.79 1173.38 Q2058.85 1176.74 2058.85 1182.53 M2054.59 1181.28 Q2054.54 1177.78 2052.62 1175.7 Q2050.72 1173.61 2047.57 1173.61 Q2044.01 1173.61 2041.86 1175.63 Q2039.73 1177.64 2039.4 1181.3 L2054.59 1181.28 Z" fill="#000000" fill-rule="nonzero" fill-opacity="1" /><polyline clip-path="url(#clip740)" style="stroke:#e26f46; stroke-linecap:round; stroke-linejoin:round; stroke-width:4; stroke-opacity:1; fill:none" points="1671.4,1231.11 1815.32,1231.11 "/>
<path clip-path="url(#clip740)" d="M1857.74 1223.23 L1857.74 1227.26 Q1855.93 1226.33 1853.99 1225.87 Q1852.04 1225.41 1849.96 1225.41 Q1846.79 1225.41 1845.19 1226.38 Q1843.62 1227.35 1843.62 1229.3 Q1843.62 1230.78 1844.75 1231.64 Q1845.88 1232.47 1849.31 1233.23 L1850.77 1233.56 Q1855.31 1234.53 1857.2 1236.31 Q1859.13 1238.07 1859.13 1241.24 Q1859.13 1244.85 1856.25 1246.96 Q1853.41 1249.07 1848.41 1249.07 Q1846.32 1249.07 1844.06 1248.65 Q1841.81 1248.26 1839.31 1247.45 L1839.31 1243.05 Q1841.67 1244.27 1843.96 1244.9 Q1846.25 1245.5 1848.5 1245.5 Q1851.51 1245.5 1853.13 1244.48 Q1854.75 1243.44 1854.75 1241.57 Q1854.75 1239.83 1853.57 1238.9 Q1852.41 1237.98 1848.45 1237.12 L1846.97 1236.77 Q1843.01 1235.94 1841.26 1234.23 Q1839.5 1232.49 1839.5 1229.48 Q1839.5 1225.83 1842.09 1223.83 Q1844.68 1221.84 1849.45 1221.84 Q1851.81 1221.84 1853.89 1222.19 Q1855.98 1222.54 1857.74 1223.23 Z" fill="#000000" fill-rule="nonzero" fill-opacity="1" /><path clip-path="url(#clip740)" d="M1865.75 1212.38 L1870.03 1212.38 L1870.03 1233.65 L1882.74 1222.47 L1888.18 1222.47 L1874.43 1234.6 L1888.75 1248.39 L1883.2 1248.39 L1870.03 1235.73 L1870.03 1248.39 L1865.75 1248.39 L1865.75 1212.38 Z" fill="#000000" fill-rule="nonzero" fill-opacity="1" /><path clip-path="url(#clip740)" d="M1913.85 1234.37 L1913.85 1236.45 L1894.26 1236.45 Q1894.54 1240.85 1896.9 1243.16 Q1899.29 1245.45 1903.52 1245.45 Q1905.98 1245.45 1908.27 1244.85 Q1910.58 1244.25 1912.85 1243.05 L1912.85 1247.07 Q1910.56 1248.05 1908.15 1248.56 Q1905.75 1249.07 1903.27 1249.07 Q1897.06 1249.07 1893.43 1245.45 Q1889.82 1241.84 1889.82 1235.69 Q1889.82 1229.32 1893.25 1225.59 Q1896.69 1221.84 1902.53 1221.84 Q1907.76 1221.84 1910.79 1225.22 Q1913.85 1228.58 1913.85 1234.37 M1909.59 1233.12 Q1909.54 1229.62 1907.62 1227.54 Q1905.72 1225.45 1902.57 1225.45 Q1899.01 1225.45 1896.86 1227.47 Q1894.73 1229.48 1894.4 1233.14 L1909.59 1233.12 Z" fill="#000000" fill-rule="nonzero" fill-opacity="1" /><path clip-path="url(#clip740)" d="M1918.36 1222.47 L1922.62 1222.47 L1927.94 1242.7 L1933.25 1222.47 L1938.27 1222.47 L1943.59 1242.7 L1948.89 1222.47 L1953.15 1222.47 L1946.37 1248.39 L1941.35 1248.39 L1935.77 1227.14 L1930.17 1248.39 L1925.14 1248.39 L1918.36 1222.47 Z" fill="#000000" fill-rule="nonzero" fill-opacity="1" /><polyline clip-path="url(#clip740)" style="stroke:#3da44d; stroke-linecap:round; stroke-linejoin:round; stroke-width:4; stroke-opacity:1; fill:none" points="1671.4,1282.95 1815.32,1282.95 "/>
<path clip-path="url(#clip740)" d="M1852.71 1287.2 Q1847.55 1287.2 1845.56 1288.38 Q1843.57 1289.56 1843.57 1292.41 Q1843.57 1294.68 1845.05 1296.02 Q1846.56 1297.34 1849.13 1297.34 Q1852.67 1297.34 1854.8 1294.84 Q1856.95 1292.32 1856.95 1288.15 L1856.95 1287.2 L1852.71 1287.2 M1861.21 1285.44 L1861.21 1300.23 L1856.95 1300.23 L1856.95 1296.3 Q1855.49 1298.66 1853.32 1299.79 Q1851.14 1300.91 1847.99 1300.91 Q1844.01 1300.91 1841.65 1298.68 Q1839.31 1296.44 1839.31 1292.69 Q1839.31 1288.31 1842.23 1286.09 Q1845.17 1283.87 1850.98 1283.87 L1856.95 1283.87 L1856.95 1283.45 Q1856.95 1280.51 1855 1278.92 Q1853.08 1277.29 1849.59 1277.29 Q1847.37 1277.29 1845.26 1277.83 Q1843.15 1278.36 1841.21 1279.42 L1841.21 1275.49 Q1843.55 1274.59 1845.75 1274.15 Q1847.94 1273.68 1850.03 1273.68 Q1855.65 1273.68 1858.43 1276.6 Q1861.21 1279.52 1861.21 1285.44 Z" fill="#000000" fill-rule="nonzero" fill-opacity="1" /><path clip-path="url(#clip740)" d="M1885 1278.29 Q1884.29 1277.87 1883.43 1277.69 Q1882.6 1277.48 1881.58 1277.48 Q1877.97 1277.48 1876.02 1279.84 Q1874.1 1282.18 1874.1 1286.58 L1874.1 1300.23 L1869.82 1300.23 L1869.82 1274.31 L1874.1 1274.31 L1874.1 1278.34 Q1875.44 1275.98 1877.6 1274.84 Q1879.75 1273.68 1882.83 1273.68 Q1883.27 1273.68 1883.8 1273.75 Q1884.33 1273.8 1884.98 1273.92 L1885 1278.29 Z" fill="#000000" fill-rule="nonzero" fill-opacity="1" /><path clip-path="url(#clip740)" d="M1908.08 1287.29 Q1908.08 1282.6 1906.14 1279.93 Q1904.22 1277.25 1900.84 1277.25 Q1897.46 1277.25 1895.51 1279.93 Q1893.59 1282.6 1893.59 1287.29 Q1893.59 1291.99 1895.51 1294.68 Q1897.46 1297.34 1900.84 1297.34 Q1904.22 1297.34 1906.14 1294.68 Q1908.08 1291.99 1908.08 1287.29 M1893.59 1278.24 Q1894.94 1275.93 1896.97 1274.82 Q1899.03 1273.68 1901.88 1273.68 Q1906.6 1273.68 1909.54 1277.43 Q1912.5 1281.18 1912.5 1287.29 Q1912.5 1293.41 1909.54 1297.16 Q1906.6 1300.91 1901.88 1300.91 Q1899.03 1300.91 1896.97 1299.79 Q1894.94 1298.66 1893.59 1296.35 L1893.59 1300.23 L1889.31 1300.23 L1889.31 1264.22 L1893.59 1264.22 L1893.59 1278.24 Z" fill="#000000" fill-rule="nonzero" fill-opacity="1" /><polyline clip-path="url(#clip740)" style="stroke:#c271d2; stroke-linecap:round; stroke-linejoin:round; stroke-width:4; stroke-opacity:1; fill:none" points="1671.4,1334.79 1815.32,1334.79 "/>
<path clip-path="url(#clip740)" d="M1859.82 1327.14 L1859.82 1331.13 Q1858.01 1330.13 1856.19 1329.64 Q1854.38 1329.13 1852.53 1329.13 Q1848.38 1329.13 1846.09 1331.77 Q1843.8 1334.39 1843.8 1339.13 Q1843.8 1343.88 1846.09 1346.52 Q1848.38 1349.13 1852.53 1349.13 Q1854.38 1349.13 1856.19 1348.65 Q1858.01 1348.14 1859.82 1347.14 L1859.82 1351.08 Q1858.04 1351.91 1856.12 1352.33 Q1854.22 1352.75 1852.07 1352.75 Q1846.21 1352.75 1842.76 1349.07 Q1839.31 1345.38 1839.31 1339.13 Q1839.31 1332.79 1842.78 1329.16 Q1846.28 1325.52 1852.34 1325.52 Q1854.31 1325.52 1856.19 1325.94 Q1858.06 1326.33 1859.82 1327.14 Z" fill="#000000" fill-rule="nonzero" fill-opacity="1" /><path clip-path="url(#clip740)" d="M1877.27 1329.13 Q1873.85 1329.13 1871.86 1331.82 Q1869.87 1334.48 1869.87 1339.13 Q1869.87 1343.79 1871.83 1346.47 Q1873.82 1349.13 1877.27 1349.13 Q1880.68 1349.13 1882.67 1346.45 Q1884.66 1343.76 1884.66 1339.13 Q1884.66 1334.53 1882.67 1331.84 Q1880.68 1329.13 1877.27 1329.13 M1877.27 1325.52 Q1882.83 1325.52 1886 1329.13 Q1889.17 1332.75 1889.17 1339.13 Q1889.17 1345.5 1886 1349.13 Q1882.83 1352.75 1877.27 1352.75 Q1871.69 1352.75 1868.52 1349.13 Q1865.38 1345.5 1865.38 1339.13 Q1865.38 1332.75 1868.52 1329.13 Q1871.69 1325.52 1877.27 1325.52 Z" fill="#000000" fill-rule="nonzero" fill-opacity="1" /><path clip-path="url(#clip740)" d="M1916.42 1331.13 Q1918.01 1328.26 1920.24 1326.89 Q1922.46 1325.52 1925.47 1325.52 Q1929.52 1325.52 1931.72 1328.37 Q1933.92 1331.19 1933.92 1336.43 L1933.92 1352.07 L1929.63 1352.07 L1929.63 1336.57 Q1929.63 1332.84 1928.31 1331.03 Q1927 1329.23 1924.29 1329.23 Q1920.98 1329.23 1919.06 1331.43 Q1917.13 1333.63 1917.13 1337.42 L1917.13 1352.07 L1912.85 1352.07 L1912.85 1336.57 Q1912.85 1332.82 1911.53 1331.03 Q1910.21 1329.23 1907.46 1329.23 Q1904.19 1329.23 1902.27 1331.45 Q1900.35 1333.65 1900.35 1337.42 L1900.35 1352.07 L1896.07 1352.07 L1896.07 1326.15 L1900.35 1326.15 L1900.35 1330.18 Q1901.81 1327.79 1903.85 1326.66 Q1905.88 1325.52 1908.69 1325.52 Q1911.51 1325.52 1913.48 1326.96 Q1915.47 1328.39 1916.42 1331.13 Z" fill="#000000" fill-rule="nonzero" fill-opacity="1" /><path clip-path="url(#clip740)" d="M1946.53 1348.19 L1946.53 1361.94 L1942.25 1361.94 L1942.25 1326.15 L1946.53 1326.15 L1946.53 1330.08 Q1947.87 1327.77 1949.91 1326.66 Q1951.97 1325.52 1954.82 1325.52 Q1959.54 1325.52 1962.48 1329.27 Q1965.44 1333.02 1965.44 1339.13 Q1965.44 1345.25 1962.48 1349 Q1959.54 1352.75 1954.82 1352.75 Q1951.97 1352.75 1949.91 1351.63 Q1947.87 1350.5 1946.53 1348.19 M1961.02 1339.13 Q1961.02 1334.44 1959.08 1331.77 Q1957.16 1329.09 1953.78 1329.09 Q1950.4 1329.09 1948.45 1331.77 Q1946.53 1334.44 1946.53 1339.13 Q1946.53 1343.83 1948.45 1346.52 Q1950.4 1349.18 1953.78 1349.18 Q1957.16 1349.18 1959.08 1346.52 Q1961.02 1343.83 1961.02 1339.13 Z" fill="#000000" fill-rule="nonzero" fill-opacity="1" /><polyline clip-path="url(#clip740)" style="stroke:#ff0000; stroke-linecap:round; stroke-linejoin:round; stroke-width:4; stroke-opacity:1; fill:none" points="1671.4,1386.63 1815.32,1386.63 "/>
<path clip-path="url(#clip740)" d="M1857.74 1378.75 L1857.74 1382.78 Q1855.93 1381.85 1853.99 1381.39 Q1852.04 1380.93 1849.96 1380.93 Q1846.79 1380.93 1845.19 1381.9 Q1843.62 1382.87 1843.62 1384.82 Q1843.62 1386.3 1844.75 1387.16 Q1845.88 1387.99 1849.31 1388.75 L1850.77 1389.08 Q1855.31 1390.05 1857.2 1391.83 Q1859.13 1393.59 1859.13 1396.76 Q1859.13 1400.37 1856.25 1402.48 Q1853.41 1404.59 1848.41 1404.59 Q1846.32 1404.59 1844.06 1404.17 Q1841.81 1403.78 1839.31 1402.97 L1839.31 1398.57 Q1841.67 1399.79 1843.96 1400.42 Q1846.25 1401.02 1848.5 1401.02 Q1851.51 1401.02 1853.13 1400 Q1854.75 1398.96 1854.75 1397.09 Q1854.75 1395.35 1853.57 1394.42 Q1852.41 1393.5 1848.45 1392.64 L1846.97 1392.29 Q1843.01 1391.46 1841.26 1389.75 Q1839.5 1388.01 1839.5 1385 Q1839.5 1381.35 1842.09 1379.35 Q1844.68 1377.36 1849.45 1377.36 Q1851.81 1377.36 1853.89 1377.71 Q1855.98 1378.06 1857.74 1378.75 Z" fill="#000000" fill-rule="nonzero" fill-opacity="1" /><path clip-path="url(#clip740)" d="M1870.12 1370.63 L1870.12 1377.99 L1878.89 1377.99 L1878.89 1381.3 L1870.12 1381.3 L1870.12 1395.37 Q1870.12 1398.54 1870.98 1399.45 Q1871.86 1400.35 1874.52 1400.35 L1878.89 1400.35 L1878.89 1403.91 L1874.52 1403.91 Q1869.59 1403.91 1867.71 1402.09 Q1865.84 1400.23 1865.84 1395.37 L1865.84 1381.3 L1862.71 1381.3 L1862.71 1377.99 L1865.84 1377.99 L1865.84 1370.63 L1870.12 1370.63 Z" fill="#000000" fill-rule="nonzero" fill-opacity="1" /><path clip-path="url(#clip740)" d="M1896.28 1390.88 Q1891.12 1390.88 1889.13 1392.06 Q1887.13 1393.24 1887.13 1396.09 Q1887.13 1398.36 1888.62 1399.7 Q1890.12 1401.02 1892.69 1401.02 Q1896.23 1401.02 1898.36 1398.52 Q1900.51 1396 1900.51 1391.83 L1900.51 1390.88 L1896.28 1390.88 M1904.77 1389.12 L1904.77 1403.91 L1900.51 1403.91 L1900.51 1399.98 Q1899.06 1402.34 1896.88 1403.47 Q1894.7 1404.59 1891.56 1404.59 Q1887.57 1404.59 1885.21 1402.36 Q1882.88 1400.12 1882.88 1396.37 Q1882.88 1391.99 1885.79 1389.77 Q1888.73 1387.55 1894.54 1387.55 L1900.51 1387.55 L1900.51 1387.13 Q1900.51 1384.19 1898.57 1382.6 Q1896.65 1380.97 1893.15 1380.97 Q1890.93 1380.97 1888.82 1381.51 Q1886.72 1382.04 1884.77 1383.1 L1884.77 1379.17 Q1887.11 1378.27 1889.31 1377.83 Q1891.51 1377.36 1893.59 1377.36 Q1899.22 1377.36 1902 1380.28 Q1904.77 1383.2 1904.77 1389.12 Z" fill="#000000" fill-rule="nonzero" fill-opacity="1" /><path clip-path="url(#clip740)" d="M1928.57 1381.97 Q1927.85 1381.55 1927 1381.37 Q1926.16 1381.16 1925.14 1381.16 Q1921.53 1381.16 1919.59 1383.52 Q1917.67 1385.86 1917.67 1390.26 L1917.67 1403.91 L1913.38 1403.91 L1913.38 1377.99 L1917.67 1377.99 L1917.67 1382.02 Q1919.01 1379.66 1921.16 1378.52 Q1923.31 1377.36 1926.39 1377.36 Q1926.83 1377.36 1927.37 1377.43 Q1927.9 1377.48 1928.55 1377.6 L1928.57 1381.97 Z" fill="#000000" fill-rule="nonzero" fill-opacity="1" /><path clip-path="url(#clip740)" d="M1937.25 1370.63 L1937.25 1377.99 L1946.02 1377.99 L1946.02 1381.3 L1937.25 1381.3 L1937.25 1395.37 Q1937.25 1398.54 1938.11 1399.45 Q1938.99 1400.35 1941.65 1400.35 L1946.02 1400.35 L1946.02 1403.91 L1941.65 1403.91 Q1936.72 1403.91 1934.84 1402.09 Q1932.97 1400.23 1932.97 1395.37 L1932.97 1381.3 L1929.84 1381.3 L1929.84 1377.99 L1932.97 1377.99 L1932.97 1370.63 L1937.25 1370.63 Z" fill="#000000" fill-rule="nonzero" fill-opacity="1" /><path clip-path="url(#clip740)" d="M1976.74 1380.97 Q1973.31 1380.97 1971.32 1383.66 Q1969.33 1386.32 1969.33 1390.97 Q1969.33 1395.63 1971.3 1398.31 Q1973.29 1400.97 1976.74 1400.97 Q1980.14 1400.97 1982.13 1398.29 Q1984.12 1395.6 1984.12 1390.97 Q1984.12 1386.37 1982.13 1383.68 Q1980.14 1380.97 1976.74 1380.97 M1976.74 1377.36 Q1982.3 1377.36 1985.47 1380.97 Q1988.64 1384.59 1988.64 1390.97 Q1988.64 1397.34 1985.47 1400.97 Q1982.3 1404.59 1976.74 1404.59 Q1971.16 1404.59 1967.99 1400.97 Q1964.84 1397.34 1964.84 1390.97 Q1964.84 1384.59 1967.99 1380.97 Q1971.16 1377.36 1976.74 1377.36 Z" fill="#000000" fill-rule="nonzero" fill-opacity="1" /><path clip-path="url(#clip740)" d="M2008.82 1367.9 L2008.82 1371.44 L2004.75 1371.44 Q2002.46 1371.44 2001.56 1372.36 Q2000.68 1373.29 2000.68 1375.7 L2000.68 1377.99 L2007.69 1377.99 L2007.69 1381.3 L2000.68 1381.3 L2000.68 1403.91 L1996.39 1403.91 L1996.39 1381.3 L1992.32 1381.3 L1992.32 1377.99 L1996.39 1377.99 L1996.39 1376.18 Q1996.39 1371.85 1998.41 1369.89 Q2000.42 1367.9 2004.8 1367.9 L2008.82 1367.9 Z" fill="#000000" fill-rule="nonzero" fill-opacity="1" /><path clip-path="url(#clip740)" d="M2031.58 1400.03 L2031.58 1413.78 L2027.3 1413.78 L2027.3 1377.99 L2031.58 1377.99 L2031.58 1381.92 Q2032.92 1379.61 2034.96 1378.5 Q2037.02 1377.36 2039.87 1377.36 Q2044.59 1377.36 2047.53 1381.11 Q2050.49 1384.86 2050.49 1390.97 Q2050.49 1397.09 2047.53 1400.84 Q2044.59 1404.59 2039.87 1404.59 Q2037.02 1404.59 2034.96 1403.47 Q2032.92 1402.34 2031.58 1400.03 M2046.07 1390.97 Q2046.07 1386.28 2044.12 1383.61 Q2042.2 1380.93 2038.82 1380.93 Q2035.44 1380.93 2033.5 1383.61 Q2031.58 1386.28 2031.58 1390.97 Q2031.58 1395.67 2033.5 1398.36 Q2035.44 1401.02 2038.82 1401.02 Q2042.2 1401.02 2044.12 1398.36 Q2046.07 1395.67 2046.07 1390.97 Z" fill="#000000" fill-rule="nonzero" fill-opacity="1" /><path clip-path="url(#clip740)" d="M2072.57 1381.97 Q2071.86 1381.55 2071 1381.37 Q2070.17 1381.16 2069.15 1381.16 Q2065.54 1381.16 2063.59 1383.52 Q2061.67 1385.86 2061.67 1390.26 L2061.67 1403.91 L2057.39 1403.91 L2057.39 1377.99 L2061.67 1377.99 L2061.67 1382.02 Q2063.01 1379.66 2065.17 1378.52 Q2067.32 1377.36 2070.4 1377.36 Q2070.84 1377.36 2071.37 1377.43 Q2071.9 1377.48 2072.55 1377.6 L2072.57 1381.97 Z" fill="#000000" fill-rule="nonzero" fill-opacity="1" /><path clip-path="url(#clip740)" d="M2098.17 1389.89 L2098.17 1391.97 L2078.59 1391.97 Q2078.87 1396.37 2081.23 1398.68 Q2083.61 1400.97 2087.85 1400.97 Q2090.3 1400.97 2092.6 1400.37 Q2094.91 1399.77 2097.18 1398.57 L2097.18 1402.59 Q2094.89 1403.57 2092.48 1404.08 Q2090.07 1404.59 2087.6 1404.59 Q2081.39 1404.59 2077.76 1400.97 Q2074.15 1397.36 2074.15 1391.21 Q2074.15 1384.84 2077.57 1381.11 Q2081.02 1377.36 2086.86 1377.36 Q2092.09 1377.36 2095.12 1380.74 Q2098.17 1384.1 2098.17 1389.89 M2093.92 1388.64 Q2093.87 1385.14 2091.95 1383.06 Q2090.05 1380.97 2086.9 1380.97 Q2083.34 1380.97 2081.18 1382.99 Q2079.05 1385 2078.73 1388.66 L2093.92 1388.64 Z" fill="#000000" fill-rule="nonzero" fill-opacity="1" /><path clip-path="url(#clip740)" d="M2122.23 1381.92 L2122.23 1367.9 L2126.48 1367.9 L2126.48 1403.91 L2122.23 1403.91 L2122.23 1400.03 Q2120.88 1402.34 2118.82 1403.47 Q2116.79 1404.59 2113.92 1404.59 Q2109.22 1404.59 2106.25 1400.84 Q2103.31 1397.09 2103.31 1390.97 Q2103.31 1384.86 2106.25 1381.11 Q2109.22 1377.36 2113.92 1377.36 Q2116.79 1377.36 2118.82 1378.5 Q2120.88 1379.61 2122.23 1381.92 M2107.71 1390.97 Q2107.71 1395.67 2109.63 1398.36 Q2111.58 1401.02 2114.96 1401.02 Q2118.34 1401.02 2120.28 1398.36 Q2122.23 1395.67 2122.23 1390.97 Q2122.23 1386.28 2120.28 1383.61 Q2118.34 1380.93 2114.96 1380.93 Q2111.58 1380.93 2109.63 1383.61 Q2107.71 1386.28 2107.71 1390.97 Z" fill="#000000" fill-rule="nonzero" fill-opacity="1" /><path clip-path="url(#clip740)" d="M2135.26 1377.99 L2139.52 1377.99 L2139.52 1403.91 L2135.26 1403.91 L2135.26 1377.99 M2135.26 1367.9 L2139.52 1367.9 L2139.52 1373.29 L2135.26 1373.29 L2135.26 1367.9 Z" fill="#000000" fill-rule="nonzero" fill-opacity="1" /><path clip-path="url(#clip740)" d="M2167.09 1378.98 L2167.09 1382.97 Q2165.28 1381.97 2163.45 1381.48 Q2161.65 1380.97 2159.79 1380.97 Q2155.65 1380.97 2153.36 1383.61 Q2151.07 1386.23 2151.07 1390.97 Q2151.07 1395.72 2153.36 1398.36 Q2155.65 1400.97 2159.79 1400.97 Q2161.65 1400.97 2163.45 1400.49 Q2165.28 1399.98 2167.09 1398.98 L2167.09 1402.92 Q2165.3 1403.75 2163.38 1404.17 Q2161.48 1404.59 2159.33 1404.59 Q2153.48 1404.59 2150.03 1400.91 Q2146.58 1397.22 2146.58 1390.97 Q2146.58 1384.63 2150.05 1381 Q2153.55 1377.36 2159.61 1377.36 Q2161.58 1377.36 2163.45 1377.78 Q2165.33 1378.17 2167.09 1378.98 Z" fill="#000000" fill-rule="nonzero" fill-opacity="1" /><path clip-path="url(#clip740)" d="M2178.71 1370.63 L2178.71 1377.99 L2187.48 1377.99 L2187.48 1381.3 L2178.71 1381.3 L2178.71 1395.37 Q2178.71 1398.54 2179.56 1399.45 Q2180.44 1400.35 2183.11 1400.35 L2187.48 1400.35 L2187.48 1403.91 L2183.11 1403.91 Q2178.17 1403.91 2176.3 1402.09 Q2174.42 1400.23 2174.42 1395.37 L2174.42 1381.3 L2171.3 1381.3 L2171.3 1377.99 L2174.42 1377.99 L2174.42 1370.63 L2178.71 1370.63 Z" fill="#000000" fill-rule="nonzero" fill-opacity="1" /><path clip-path="url(#clip740)" d="M2193.08 1377.99 L2197.34 1377.99 L2197.34 1403.91 L2193.08 1403.91 L2193.08 1377.99 M2193.08 1367.9 L2197.34 1367.9 L2197.34 1373.29 L2193.08 1373.29 L2193.08 1367.9 Z" fill="#000000" fill-rule="nonzero" fill-opacity="1" /><path clip-path="url(#clip740)" d="M2216.3 1380.97 Q2212.87 1380.97 2210.88 1383.66 Q2208.89 1386.32 2208.89 1390.97 Q2208.89 1395.63 2210.86 1398.31 Q2212.85 1400.97 2216.3 1400.97 Q2219.7 1400.97 2221.69 1398.29 Q2223.68 1395.6 2223.68 1390.97 Q2223.68 1386.37 2221.69 1383.68 Q2219.7 1380.97 2216.3 1380.97 M2216.3 1377.36 Q2221.85 1377.36 2225.03 1380.97 Q2228.2 1384.59 2228.2 1390.97 Q2228.2 1397.34 2225.03 1400.97 Q2221.85 1404.59 2216.3 1404.59 Q2210.72 1404.59 2207.55 1400.97 Q2204.4 1397.34 2204.4 1390.97 Q2204.4 1384.59 2207.55 1380.97 Q2210.72 1377.36 2216.3 1377.36 Z" fill="#000000" fill-rule="nonzero" fill-opacity="1" /><path clip-path="url(#clip740)" d="M2256.81 1388.27 L2256.81 1403.91 L2252.55 1403.91 L2252.55 1388.41 Q2252.55 1384.72 2251.11 1382.9 Q2249.68 1381.07 2246.81 1381.07 Q2243.36 1381.07 2241.37 1383.27 Q2239.38 1385.47 2239.38 1389.26 L2239.38 1403.91 L2235.1 1403.91 L2235.1 1377.99 L2239.38 1377.99 L2239.38 1382.02 Q2240.91 1379.68 2242.97 1378.52 Q2245.05 1377.36 2247.76 1377.36 Q2252.23 1377.36 2254.52 1380.14 Q2256.81 1382.9 2256.81 1388.27 Z" fill="#000000" fill-rule="nonzero" fill-opacity="1" /></svg>
