<?xml version="1.0" encoding="utf-8"?>
<svg xmlns="http://www.w3.org/2000/svg" xmlns:xlink="http://www.w3.org/1999/xlink" width="600" height="400" viewBox="0 0 2400 1600">
<defs>
  <clipPath id="clip830">
    <rect x="0" y="0" width="2400" height="1600"/>
  </clipPath>
</defs>
<path clip-path="url(#clip830)" d="M0 1600 L2400 1600 L2400 0 L0 0  Z" fill="#ffffff" fill-rule="evenodd" fill-opacity="1"/>
<defs>
  <clipPath id="clip831">
    <rect x="480" y="0" width="1681" height="1600"/>
  </clipPath>
</defs>
<path clip-path="url(#clip830)" d="M147.108 1486.45 L2352.76 1486.45 L2352.76 47.2441 L147.108 47.2441  Z" fill="#ffffff" fill-rule="evenodd" fill-opacity="1"/>
<defs>
  <clipPath id="clip832">
    <rect x="147" y="47" width="2207" height="1440"/>
  </clipPath>
</defs>
<polyline clip-path="url(#clip832)" style="stroke:#000000; stroke-linecap:round; stroke-linejoin:round; stroke-width:2; stroke-opacity:0.1; fill:none" points="199.075,1486.45 199.075,47.2441 "/>
<polyline clip-path="url(#clip832)" style="stroke:#000000; stroke-linecap:round; stroke-linejoin:round; stroke-width:2; stroke-opacity:0.1; fill:none" points="721.889,1486.45 721.889,47.2441 "/>
<polyline clip-path="url(#clip832)" style="stroke:#000000; stroke-linecap:round; stroke-linejoin:round; stroke-width:2; stroke-opacity:0.1; fill:none" points="1244.7,1486.45 1244.7,47.2441 "/>
<polyline clip-path="url(#clip832)" style="stroke:#000000; stroke-linecap:round; stroke-linejoin:round; stroke-width:2; stroke-opacity:0.1; fill:none" points="1767.52,1486.45 1767.52,47.2441 "/>
<polyline clip-path="url(#clip832)" style="stroke:#000000; stroke-linecap:round; stroke-linejoin:round; stroke-width:2; stroke-opacity:0.1; fill:none" points="2290.33,1486.45 2290.33,47.2441 "/>
<polyline clip-path="url(#clip830)" style="stroke:#000000; stroke-linecap:round; stroke-linejoin:round; stroke-width:4; stroke-opacity:1; fill:none" points="147.108,1486.45 2352.76,1486.45 "/>
<polyline clip-path="url(#clip830)" style="stroke:#000000; stroke-linecap:round; stroke-linejoin:round; stroke-width:4; stroke-opacity:1; fill:none" points="199.075,1486.45 199.075,1467.55 "/>
<polyline clip-path="url(#clip830)" style="stroke:#000000; stroke-linecap:round; stroke-linejoin:round; stroke-width:4; stroke-opacity:1; fill:none" points="721.889,1486.45 721.889,1467.55 "/>
<polyline clip-path="url(#clip830)" style="stroke:#000000; stroke-linecap:round; stroke-linejoin:round; stroke-width:4; stroke-opacity:1; fill:none" points="1244.7,1486.45 1244.7,1467.55 "/>
<polyline clip-path="url(#clip830)" style="stroke:#000000; stroke-linecap:round; stroke-linejoin:round; stroke-width:4; stroke-opacity:1; fill:none" points="1767.52,1486.45 1767.52,1467.55 "/>
<polyline clip-path="url(#clip830)" style="stroke:#000000; stroke-linecap:round; stroke-linejoin:round; stroke-width:4; stroke-opacity:1; fill:none" points="2290.33,1486.45 2290.33,1467.55 "/>
<path clip-path="url(#clip830)" d="M199.075 1517.37 Q195.464 1517.37 193.635 1520.93 Q191.83 1524.47 191.83 1531.6 Q191.83 1538.71 193.635 1542.27 Q195.464 1545.82 199.075 1545.82 Q202.71 1545.82 204.515 1542.27 Q206.344 1538.71 206.344 1531.6 Q206.344 1524.47 204.515 1520.93 Q202.71 1517.37 199.075 1517.37 M199.075 1513.66 Q204.885 1513.66 207.941 1518.27 Q211.02 1522.85 211.02 1531.6 Q211.02 1540.33 207.941 1544.94 Q204.885 1549.52 199.075 1549.52 Q193.265 1549.52 190.186 1544.94 Q187.131 1540.33 187.131 1531.6 Q187.131 1522.85 190.186 1518.27 Q193.265 1513.66 199.075 1513.66 Z" fill="#000000" fill-rule="nonzero" fill-opacity="1" /><path clip-path="url(#clip830)" d="M696.589 1514.29 L714.945 1514.29 L714.945 1518.22 L700.871 1518.22 L700.871 1526.7 Q701.89 1526.35 702.908 1526.19 Q703.927 1526 704.945 1526 Q710.732 1526 714.112 1529.17 Q717.491 1532.34 717.491 1537.76 Q717.491 1543.34 714.019 1546.44 Q710.547 1549.52 704.227 1549.52 Q702.052 1549.52 699.783 1549.15 Q697.538 1548.78 695.13 1548.04 L695.13 1543.34 Q697.214 1544.47 699.436 1545.03 Q701.658 1545.58 704.135 1545.58 Q708.14 1545.58 710.477 1543.48 Q712.815 1541.37 712.815 1537.76 Q712.815 1534.15 710.477 1532.04 Q708.14 1529.94 704.135 1529.94 Q702.26 1529.94 700.385 1530.35 Q698.533 1530.77 696.589 1531.65 L696.589 1514.29 Z" fill="#000000" fill-rule="nonzero" fill-opacity="1" /><path clip-path="url(#clip830)" d="M736.704 1517.37 Q733.093 1517.37 731.264 1520.93 Q729.459 1524.47 729.459 1531.6 Q729.459 1538.71 731.264 1542.27 Q733.093 1545.82 736.704 1545.82 Q740.338 1545.82 742.144 1542.27 Q743.973 1538.71 743.973 1531.6 Q743.973 1524.47 742.144 1520.93 Q740.338 1517.37 736.704 1517.37 M736.704 1513.66 Q742.514 1513.66 745.57 1518.27 Q748.649 1522.85 748.649 1531.6 Q748.649 1540.33 745.57 1544.94 Q742.514 1549.52 736.704 1549.52 Q730.894 1549.52 727.815 1544.94 Q724.76 1540.33 724.76 1531.6 Q724.76 1522.85 727.815 1518.27 Q730.894 1513.66 736.704 1513.66 Z" fill="#000000" fill-rule="nonzero" fill-opacity="1" /><path clip-path="url(#clip830)" d="M1204.31 1544.91 L1211.95 1544.91 L1211.95 1518.55 L1203.64 1520.21 L1203.64 1515.95 L1211.9 1514.29 L1216.58 1514.29 L1216.58 1544.91 L1224.22 1544.91 L1224.22 1548.85 L1204.31 1548.85 L1204.31 1544.91 Z" fill="#000000" fill-rule="nonzero" fill-opacity="1" /><path clip-path="url(#clip830)" d="M1243.66 1517.37 Q1240.05 1517.37 1238.22 1520.93 Q1236.42 1524.47 1236.42 1531.6 Q1236.42 1538.71 1238.22 1542.27 Q1240.05 1545.82 1243.66 1545.82 Q1247.3 1545.82 1249.1 1542.27 Q1250.93 1538.71 1250.93 1531.6 Q1250.93 1524.47 1249.1 1520.93 Q1247.3 1517.37 1243.66 1517.37 M1243.66 1513.66 Q1249.47 1513.66 1252.53 1518.27 Q1255.61 1522.85 1255.61 1531.6 Q1255.61 1540.33 1252.53 1544.94 Q1249.47 1549.52 1243.66 1549.52 Q1237.85 1549.52 1234.77 1544.94 Q1231.72 1540.33 1231.72 1531.6 Q1231.72 1522.85 1234.77 1518.27 Q1237.85 1513.66 1243.66 1513.66 Z" fill="#000000" fill-rule="nonzero" fill-opacity="1" /><path clip-path="url(#clip830)" d="M1273.82 1517.37 Q1270.21 1517.37 1268.38 1520.93 Q1266.58 1524.47 1266.58 1531.6 Q1266.58 1538.71 1268.38 1542.27 Q1270.21 1545.82 1273.82 1545.82 Q1277.46 1545.82 1279.26 1542.27 Q1281.09 1538.71 1281.09 1531.6 Q1281.09 1524.47 1279.26 1520.93 Q1277.46 1517.37 1273.82 1517.37 M1273.82 1513.66 Q1279.63 1513.66 1282.69 1518.27 Q1285.77 1522.85 1285.77 1531.6 Q1285.77 1540.33 1282.69 1544.94 Q1279.63 1549.52 1273.82 1549.52 Q1268.01 1549.52 1264.93 1544.94 Q1261.88 1540.33 1261.88 1531.6 Q1261.88 1522.85 1264.93 1518.27 Q1268.01 1513.66 1273.82 1513.66 Z" fill="#000000" fill-rule="nonzero" fill-opacity="1" /><path clip-path="url(#clip830)" d="M1727.12 1544.91 L1734.76 1544.91 L1734.76 1518.55 L1726.45 1520.21 L1726.45 1515.95 L1734.72 1514.29 L1739.39 1514.29 L1739.39 1544.91 L1747.03 1544.91 L1747.03 1548.85 L1727.12 1548.85 L1727.12 1544.91 Z" fill="#000000" fill-rule="nonzero" fill-opacity="1" /><path clip-path="url(#clip830)" d="M1756.52 1514.29 L1774.88 1514.29 L1774.88 1518.22 L1760.8 1518.22 L1760.8 1526.7 Q1761.82 1526.35 1762.84 1526.19 Q1763.86 1526 1764.88 1526 Q1770.67 1526 1774.05 1529.17 Q1777.43 1532.34 1777.43 1537.76 Q1777.43 1543.34 1773.95 1546.44 Q1770.48 1549.52 1764.16 1549.52 Q1761.99 1549.52 1759.72 1549.15 Q1757.47 1548.78 1755.06 1548.04 L1755.06 1543.34 Q1757.15 1544.47 1759.37 1545.03 Q1761.59 1545.58 1764.07 1545.58 Q1768.07 1545.58 1770.41 1543.48 Q1772.75 1541.37 1772.75 1537.76 Q1772.75 1534.15 1770.41 1532.04 Q1768.07 1529.94 1764.07 1529.94 Q1762.19 1529.94 1760.32 1530.35 Q1758.47 1530.77 1756.52 1531.65 L1756.52 1514.29 Z" fill="#000000" fill-rule="nonzero" fill-opacity="1" /><path clip-path="url(#clip830)" d="M1796.64 1517.37 Q1793.03 1517.37 1791.2 1520.93 Q1789.39 1524.47 1789.39 1531.6 Q1789.39 1538.71 1791.2 1542.27 Q1793.03 1545.82 1796.64 1545.82 Q1800.27 1545.82 1802.08 1542.27 Q1803.91 1538.71 1803.91 1531.6 Q1803.91 1524.47 1802.08 1520.93 Q1800.27 1517.37 1796.64 1517.37 M1796.64 1513.66 Q1802.45 1513.66 1805.5 1518.27 Q1808.58 1522.85 1808.58 1531.6 Q1808.58 1540.33 1805.5 1544.94 Q1802.45 1549.52 1796.64 1549.52 Q1790.83 1549.52 1787.75 1544.94 Q1784.69 1540.33 1784.69 1531.6 Q1784.69 1522.85 1787.75 1518.27 Q1790.83 1513.66 1796.64 1513.66 Z" fill="#000000" fill-rule="nonzero" fill-opacity="1" /><path clip-path="url(#clip830)" d="M2254.02 1544.91 L2270.34 1544.91 L2270.34 1548.85 L2248.4 1548.85 L2248.4 1544.91 Q2251.06 1542.16 2255.64 1537.53 Q2260.25 1532.88 2261.43 1531.53 Q2263.68 1529.01 2264.56 1527.27 Q2265.46 1525.51 2265.46 1523.82 Q2265.46 1521.07 2263.51 1519.33 Q2261.59 1517.6 2258.49 1517.6 Q2256.29 1517.6 2253.84 1518.36 Q2251.41 1519.13 2248.63 1520.68 L2248.63 1515.95 Q2251.45 1514.82 2253.91 1514.24 Q2256.36 1513.66 2258.4 1513.66 Q2263.77 1513.66 2266.96 1516.35 Q2270.16 1519.03 2270.16 1523.52 Q2270.16 1525.65 2269.35 1527.57 Q2268.56 1529.47 2266.45 1532.07 Q2265.88 1532.74 2262.77 1535.95 Q2259.67 1539.15 2254.02 1544.91 Z" fill="#000000" fill-rule="nonzero" fill-opacity="1" /><path clip-path="url(#clip830)" d="M2290.16 1517.37 Q2286.55 1517.37 2284.72 1520.93 Q2282.91 1524.47 2282.91 1531.6 Q2282.91 1538.71 2284.72 1542.27 Q2286.55 1545.82 2290.16 1545.82 Q2293.79 1545.82 2295.6 1542.27 Q2297.43 1538.71 2297.43 1531.6 Q2297.43 1524.47 2295.6 1520.93 Q2293.79 1517.37 2290.16 1517.37 M2290.16 1513.66 Q2295.97 1513.66 2299.02 1518.27 Q2302.1 1522.85 2302.1 1531.6 Q2302.1 1540.33 2299.02 1544.94 Q2295.97 1549.52 2290.16 1549.52 Q2284.35 1549.52 2281.27 1544.94 Q2278.21 1540.33 2278.21 1531.6 Q2278.21 1522.85 2281.27 1518.27 Q2284.35 1513.66 2290.16 1513.66 Z" fill="#000000" fill-rule="nonzero" fill-opacity="1" /><path clip-path="url(#clip830)" d="M2320.32 1517.37 Q2316.71 1517.37 2314.88 1520.93 Q2313.07 1524.47 2313.07 1531.6 Q2313.07 1538.71 2314.88 1542.27 Q2316.71 1545.82 2320.32 1545.82 Q2323.95 1545.82 2325.76 1542.27 Q2327.59 1538.71 2327.59 1531.6 Q2327.59 1524.47 2325.76 1520.93 Q2323.95 1517.37 2320.32 1517.37 M2320.32 1513.66 Q2326.13 1513.66 2329.19 1518.27 Q2332.26 1522.85 2332.26 1531.6 Q2332.26 1540.33 2329.19 1544.94 Q2326.13 1549.52 2320.32 1549.52 Q2314.51 1549.52 2311.43 1544.94 Q2308.38 1540.33 2308.38 1531.6 Q2308.38 1522.85 2311.43 1518.27 Q2314.51 1513.66 2320.32 1513.66 Z" fill="#000000" fill-rule="nonzero" fill-opacity="1" /><polyline clip-path="url(#clip832)" style="stroke:#000000; stroke-linecap:round; stroke-linejoin:round; stroke-width:2; stroke-opacity:0.1; fill:none" points="147.108,1432.04 2352.76,1432.04 "/>
<polyline clip-path="url(#clip832)" style="stroke:#000000; stroke-linecap:round; stroke-linejoin:round; stroke-width:2; stroke-opacity:0.1; fill:none" points="147.108,1081.83 2352.76,1081.83 "/>
<polyline clip-path="url(#clip832)" style="stroke:#000000; stroke-linecap:round; stroke-linejoin:round; stroke-width:2; stroke-opacity:0.1; fill:none" points="147.108,731.62 2352.76,731.62 "/>
<polyline clip-path="url(#clip832)" style="stroke:#000000; stroke-linecap:round; stroke-linejoin:round; stroke-width:2; stroke-opacity:0.1; fill:none" points="147.108,381.412 2352.76,381.412 "/>
<polyline clip-path="url(#clip830)" style="stroke:#000000; stroke-linecap:round; stroke-linejoin:round; stroke-width:4; stroke-opacity:1; fill:none" points="147.108,1486.45 147.108,47.2441 "/>
<polyline clip-path="url(#clip830)" style="stroke:#000000; stroke-linecap:round; stroke-linejoin:round; stroke-width:4; stroke-opacity:1; fill:none" points="147.108,1432.04 166.005,1432.04 "/>
<polyline clip-path="url(#clip830)" style="stroke:#000000; stroke-linecap:round; stroke-linejoin:round; stroke-width:4; stroke-opacity:1; fill:none" points="147.108,1081.83 166.005,1081.83 "/>
<polyline clip-path="url(#clip830)" style="stroke:#000000; stroke-linecap:round; stroke-linejoin:round; stroke-width:4; stroke-opacity:1; fill:none" points="147.108,731.62 166.005,731.62 "/>
<polyline clip-path="url(#clip830)" style="stroke:#000000; stroke-linecap:round; stroke-linejoin:round; stroke-width:4; stroke-opacity:1; fill:none" points="147.108,381.412 166.005,381.412 "/>
<path clip-path="url(#clip830)" d="M50.9921 1432.49 L80.6679 1432.49 L80.6679 1436.42 L50.9921 1436.42 L50.9921 1432.49 Z" fill="#000000" fill-rule="nonzero" fill-opacity="1" /><path clip-path="url(#clip830)" d="M94.7882 1445.38 L111.108 1445.38 L111.108 1449.32 L89.1632 1449.32 L89.1632 1445.38 Q91.8252 1442.63 96.4085 1438 Q101.015 1433.34 102.196 1432 Q104.441 1429.48 105.321 1427.74 Q106.223 1425.98 106.223 1424.29 Q106.223 1421.54 104.279 1419.8 Q102.358 1418.07 99.2558 1418.07 Q97.0567 1418.07 94.603 1418.83 Q92.1725 1419.59 89.3947 1421.14 L89.3947 1416.42 Q92.2188 1415.29 94.6724 1414.71 Q97.1261 1414.13 99.1632 1414.13 Q104.534 1414.13 107.728 1416.82 Q110.922 1419.5 110.922 1423.99 Q110.922 1426.12 110.112 1428.04 Q109.325 1429.94 107.219 1432.53 Q106.64 1433.2 103.538 1436.42 Q100.436 1439.62 94.7882 1445.38 Z" fill="#000000" fill-rule="nonzero" fill-opacity="1" /><path clip-path="url(#clip830)" d="M99.1632 1067.63 Q95.5521 1067.63 93.7234 1071.19 Q91.9178 1074.73 91.9178 1081.86 Q91.9178 1088.97 93.7234 1092.53 Q95.5521 1096.08 99.1632 1096.08 Q102.797 1096.08 104.603 1092.53 Q106.432 1088.97 106.432 1081.86 Q106.432 1074.73 104.603 1071.19 Q102.797 1067.63 99.1632 1067.63 M99.1632 1063.92 Q104.973 1063.92 108.029 1068.53 Q111.108 1073.11 111.108 1081.86 Q111.108 1090.59 108.029 1095.2 Q104.973 1099.78 99.1632 1099.78 Q93.353 1099.78 90.2743 1095.2 Q87.2188 1090.59 87.2188 1081.86 Q87.2188 1073.11 90.2743 1068.53 Q93.353 1063.92 99.1632 1063.92 Z" fill="#000000" fill-rule="nonzero" fill-opacity="1" /><path clip-path="url(#clip830)" d="M94.7882 744.965 L111.108 744.965 L111.108 748.9 L89.1632 748.9 L89.1632 744.965 Q91.8252 742.21 96.4085 737.581 Q101.015 732.928 102.196 731.585 Q104.441 729.062 105.321 727.326 Q106.223 725.567 106.223 723.877 Q106.223 721.122 104.279 719.386 Q102.358 717.65 99.2558 717.65 Q97.0567 717.65 94.603 718.414 Q92.1725 719.178 89.3947 720.729 L89.3947 716.007 Q92.2188 714.872 94.6724 714.294 Q97.1261 713.715 99.1632 713.715 Q104.534 713.715 107.728 716.4 Q110.922 719.085 110.922 723.576 Q110.922 725.706 110.112 727.627 Q109.325 729.525 107.219 732.118 Q106.64 732.789 103.538 736.007 Q100.436 739.201 94.7882 744.965 Z" fill="#000000" fill-rule="nonzero" fill-opacity="1" /><path clip-path="url(#clip830)" d="M101.524 368.206 L89.7188 386.655 L101.524 386.655 L101.524 368.206 M100.297 364.132 L106.177 364.132 L106.177 386.655 L111.108 386.655 L111.108 390.544 L106.177 390.544 L106.177 398.692 L101.524 398.692 L101.524 390.544 L85.9225 390.544 L85.9225 386.03 L100.297 364.132 Z" fill="#000000" fill-rule="nonzero" fill-opacity="1" /><polyline clip-path="url(#clip832)" style="stroke:#009af9; stroke-linecap:round; stroke-linejoin:round; stroke-width:4; stroke-opacity:1; fill:none" points="209.532,906.724 219.988,907.579 230.444,910.229 240.9,914.504 251.357,920.575 261.813,928.184 272.269,937.333 282.726,947.935 293.182,959.819 303.638,972.986 314.094,987.179 324.551,1002.4 335.007,1018.39 345.463,1034.97 355.92,1052.07 366.376,1069.44 376.832,1086.94 387.288,1104.38 397.745,1121.61 408.201,1138.43 418.657,1154.72 429.114,1170.23 439.57,1184.86 450.026,1198.54 460.482,1210.93 470.939,1222.13 481.395,1231.88 491.851,1240.17 502.307,1246.84 512.764,1251.89 523.22,1255.22 533.676,1256.76 544.133,1256.68 554.589,1254.71 565.045,1251.12 575.501,1245.82 585.958,1238.89 596.414,1230.34 606.87,1220.34 617.327,1208.97 627.783,1196.31 638.239,1182.46 648.695,1167.67 659.152,1152.02 669.608,1135.65 680.064,1118.74 690.521,1101.47 700.977,1084 711.433,1066.5 721.889,1049.17 732.346,1032.15 742.802,1015.65 753.258,999.791 763.715,984.785 774.171,970.678 784.627,957.767 795.083,946.054 805.54,935.708 815.996,926.731 826.452,919.463 836.909,913.735 847.365,909.631 857.821,907.322 868.277,906.724 878.734,907.921 889.19,910.828 899.646,915.445 910.103,921.686 920.559,929.552 931.015,938.957 941.471,949.816 951.928,961.957 962.384,975.295 972.84,989.744 983.297,1005.05 993.753,1021.12 1004.21,1037.84 1014.67,1054.98 1025.12,1072.38 1035.58,1089.88 1046.03,1107.31 1056.49,1124.47 1066.95,1141.21 1077.4,1157.37 1087.86,1172.8 1098.32,1187.25 1108.77,1200.67 1119.23,1212.9 1129.68,1223.84 1140.14,1233.33 1150.6,1241.37 1161.05,1247.78 1171.51,1252.49 1181.97,1255.56 1192.42,1256.85 1202.88,1256.42 1213.33,1254.28 1223.79,1250.35 1234.25,1244.79 1244.7,1237.52 1255.16,1228.72 1265.62,1218.54 1276.07,1206.91 1286.53,1194 1296.98,1180.07 1307.44,1165.1 1317.9,1149.29 1328.35,1132.83 1338.81,1115.86 1349.27,1098.54 1359.72,1081.05 1370.18,1063.57 1380.64,1046.28 1391.09,1029.33 1401.55,1012.91 1412,997.183 1422.46,982.306 1432.92,968.455 1443.37,955.715 1453.83,944.173 1464.29,934.084 1474.74,925.448 1485.2,918.352 1495.65,912.88 1506.11,909.118 1516.57,907.151 1527.02,906.809 1537.48,908.263 1547.94,911.512 1558.39,916.385 1568.85,922.969 1579.3,931.091 1589.76,940.753 1600.22,951.782 1610.67,964.094 1621.13,977.689 1631.59,992.224 1642.04,1007.7 1652.5,1023.9 1662.95,1040.68 1673.41,1057.89 1683.87,1075.32 1694.32,1092.83 1704.78,1110.21 1715.24,1127.31 1725.69,1143.99 1736.15,1160.02 1746.61,1175.28 1757.06,1189.56 1767.52,1202.81 1777.97,1214.87 1788.43,1225.55 1798.89,1234.79 1809.34,1242.57 1819.8,1248.72 1830.26,1253.17 1840.71,1255.91 1851.17,1256.93 1861.62,1256.16 1872.08,1253.68 1882.54,1249.49 1892.99,1243.68 1903.45,1236.16 1913.91,1227.09 1924.36,1216.66 1934.82,1204.86 1945.27,1191.78 1955.73,1177.59 1966.19,1162.5 1976.64,1146.59 1987.1,1130.01 1997.56,1112.97 2008.01,1095.6 2018.47,1078.11 2028.92,1060.65 2039.38,1043.4 2049.84,1026.55 2060.29,1010.22 2070.75,994.618 2081.21,979.912 2091.66,966.232 2102.12,953.663 2112.58,942.377 2123.03,932.545 2133.49,924.08 2143.94,917.326 2154.4,912.11 2164.86,908.69 2175.31,906.98 2185.77,906.98 2196.23,908.69 2206.68,912.196 2217.14,917.326 2227.59,924.166 2238.05,932.63 2248.51,942.463 2258.96,953.749 2269.42,966.317 2279.88,979.997 2290.33,994.789 "/>
<polyline clip-path="url(#clip832)" style="stroke:#e26f46; stroke-linecap:round; stroke-linejoin:round; stroke-width:4; stroke-opacity:1; fill:none" points="209.532,906.724 219.988,907.579 230.444,910.229 240.9,915.787 251.357,925.021 261.813,933.229 272.269,943.147 282.726,952.723 293.182,964.693 303.638,975.295 314.094,987.778 324.551,1003 335.007,1020.95 345.463,1040.96 355.92,1063.7 366.376,1088.67 376.832,1115.86 387.288,1146.64 397.745,1180.41 408.201,1218.11 418.657,1261.38 429.114,1313.36 439.57,1367.74 450.026,1392.02 460.482,1373.38 470.939,1357.14 481.395,1350.13 491.851,1339.52 502.307,1328.41 512.764,1318.83 523.22,1309.26 533.676,1299.51 544.133,1290.11 554.589,1280.53 565.045,1271.3 575.501,1261.38 585.958,1251.29 596.414,1240.69 606.87,1229.06 617.327,1216.92 627.783,1203.49 638.239,1188.36 648.695,1172.37 659.152,1155.02 669.608,1137.06 680.064,1118.08 690.521,1098.41 700.977,1077.89 711.433,1057.72 721.889,1037.2 732.346,1016.33 742.802,994.447 753.258,973.243 763.715,953.749 774.171,935.965 784.627,919.549 795.083,906.211 805.54,893.215 815.996,885.691 826.452,883.639 836.909,887.059 847.365,896.293 857.821,909.289 868.277,926.389 878.734,945.199 889.19,967.771 899.646,992.395 910.103,1019.07 920.559,1049.68 931.015,1084.91 941.471,1126.97 951.928,1176.48 962.384,1238.29 972.84,1319 983.297,1417.16 993.753,1438.19 1004.21,1384.16 1014.67,1390.82 1025.12,1381.25 1035.58,1362.27 1046.03,1353.55 1056.49,1343.46 1066.95,1332.34 1077.4,1322.08 1087.86,1312.34 1098.32,1302.93 1108.77,1293.7 1119.23,1284.12 1129.68,1274.89 1140.14,1265.48 1150.6,1255.82 1161.05,1245.65 1171.51,1235.04 1181.97,1223.84 1192.42,1211.7 1202.88,1197.94 1213.33,1182.89 1223.79,1166.56 1234.25,1149.37 1244.7,1131.93 1255.16,1112.95 1265.62,1093.8 1276.07,1073.79 1286.53,1054.13 1296.98,1033.43 1307.44,1012.4 1317.9,990.685 1328.35,970.849 1338.81,952.039 1349.27,934.939 1359.72,920.233 1370.18,906.895 1380.64,896.635 1391.09,889.795 1401.55,888.769 1412,896.293 1422.46,907.237 1432.92,923.653 1443.37,942.463 1453.83,962.983 1464.29,988.12 1474.74,1015.14 1485.2,1044.38 1495.65,1078.41 1506.11,1118.08 1516.57,1165.87 1527.02,1225.13 1537.48,1301.56 1547.94,1399.37 1558.39,1445.72 1568.85,1389.46 1579.3,1388.26 1589.76,1385.35 1600.22,1364.32 1610.67,1355.09 1621.13,1345.51 1631.59,1334.57 1642.04,1323.96 1652.5,1314.39 1662.95,1304.64 1673.41,1294.89 1683.87,1285.15 1694.32,1275.57 1704.78,1265.82 1715.24,1256.59 1725.69,1246.42 1736.15,1235.81 1746.61,1225.21 1757.06,1214.18 1767.52,1201.87 1777.97,1188.87 1788.43,1175.11 1798.89,1158.61 1809.34,1141.16 1819.8,1123.04 1830.26,1104.57 1840.71,1084.91 1851.17,1065.58 1861.62,1046.26 1872.08,1026.59 1882.54,1005.22 1892.99,983.503 1903.45,963.325 1913.91,943.489 1924.36,926.389 1934.82,909.631 1945.27,894.583 1955.73,887.059 1966.19,884.323 1976.64,890.479 1987.1,900.739 1997.56,915.445 2008.01,930.493 2018.47,947.935 2028.92,968.455 2039.38,990.172 2049.84,1015.31 2060.29,1043.18 2070.75,1075.33 2081.21,1113.12 2091.66,1158.09 2102.12,1213.07 2112.58,1281.73 2123.03,1372.01 2133.49,1442.3 2143.94,1401.77 2154.4,1382.27 2164.86,1386.89 2175.31,1366.88 2185.77,1354.91 2196.23,1346.02 2206.68,1335.08 2217.14,1324.65 2227.59,1314.56 2238.05,1304.81 2248.51,1295.58 2258.96,1286 2269.42,1276.25 2279.88,1266.85 2290.33,1256.93 "/>
<polyline clip-path="url(#clip832)" style="stroke:#3da44d; stroke-linecap:round; stroke-linejoin:round; stroke-width:4; stroke-opacity:1; fill:none" points="209.532,906.724 219.988,907.579 230.444,910.229 240.9,914.248 251.357,919.207 261.813,925.705 272.269,933.229 282.726,943.147 293.182,954.775 303.638,967.087 314.094,980.083 324.551,995.131 335.007,1010.69 345.463,1026.42 355.92,1041.81 366.376,1058.23 376.832,1074.99 387.288,1092.09 397.745,1109.19 408.201,1126.63 418.657,1143.73 429.114,1159.8 439.57,1174.51 450.026,1189.22 460.482,1202.55 470.939,1217.6 481.395,1231.28 491.851,1241.2 502.307,1248.38 512.764,1255.56 523.22,1262.75 533.676,1269.24 544.133,1273.01 554.589,1273.69 565.045,1270.27 575.501,1263.43 585.958,1252.49 596.414,1237.44 606.87,1220.34 617.327,1198.45 627.783,1169.38 638.239,1129.37 648.695,1063.7 659.152,918.181 669.608,285.652 680.064,87.9763 690.521,209.044 700.977,181.684 711.433,311.644 721.889,273.34 732.346,375.94 742.802,321.22 753.258,418.006 763.715,346.528 774.171,447.076 784.627,360.208 795.083,469.99 805.54,367.732 815.996,489.484 826.452,370.468 836.909,507.952 847.365,371.152 857.821,525.394 868.277,370.468 878.734,544.546 889.19,370.468 899.646,562.672 910.103,369.1 920.559,579.772 931.015,367.732 941.471,594.82 951.928,367.732 962.384,609.184 972.84,371.152 983.297,618.76 993.753,374.572 1004.21,627.994 1014.67,379.36 1025.12,634.15 1035.58,384.832 1046.03,640.306 1056.49,390.646 1066.95,642.7 1077.4,396.46 1087.86,646.12 1098.32,401.248 1108.77,648.172 1119.23,406.036 1129.68,650.566 1140.14,410.824 1150.6,651.934 1161.05,414.244 1171.51,653.302 1181.97,417.664 1192.42,654.67 1202.88,420.742 1213.33,657.748 1223.79,424.504 1234.25,658.432 1244.7,426.898 1255.16,660.826 1265.62,431.002 1276.07,660.484 1286.53,433.054 1296.98,661.852 1307.44,435.448 1317.9,663.22 1328.35,437.842 1338.81,663.904 1349.27,439.552 1359.72,665.272 1370.18,442.288 1380.64,665.272 1391.09,444.34 1401.55,666.298 1412,446.392 1422.46,666.298 1432.92,447.418 1443.37,666.298 1453.83,448.444 1464.29,666.298 1474.74,449.812 1485.2,666.298 1495.65,450.154 1506.11,667.666 1516.57,451.18 1527.02,668.008 1537.48,452.548 1547.94,668.35 1558.39,453.916 1568.85,670.06 1579.3,456.31 1589.76,671.77 1600.22,458.02 1610.67,672.796 1621.13,460.756 1631.59,672.796 1642.04,462.124 1652.5,672.796 1662.95,463.15 1673.41,672.796 1683.87,464.176 1694.32,673.822 1704.78,465.544 1715.24,675.532 1725.69,466.912 1736.15,676.9 1746.61,469.306 1757.06,678.61 1767.52,471.7 1777.97,678.952 1788.43,474.094 1798.89,677.926 1809.34,475.804 1819.8,678.952 1830.26,477.856 1840.71,677.926 1851.17,478.198 1861.62,678.268 1872.08,478.54 1882.54,678.952 1892.99,479.224 1903.45,678.952 1913.91,480.592 1924.36,679.294 1934.82,481.276 1945.27,680.32 1955.73,482.644 1966.19,681.688 1976.64,484.012 1987.1,682.03 1997.56,486.064 2008.01,682.372 2018.47,488.116 2028.92,683.056 2039.38,489.484 2049.84,683.74 2060.29,490.852 2070.75,684.082 2081.21,492.22 2091.66,684.766 2102.12,493.246 2112.58,684.424 2123.03,494.272 2133.49,684.766 2143.94,495.298 2154.4,685.108 2164.86,497.008 2175.31,685.792 2185.77,498.034 2196.23,687.502 2206.68,500.086 2217.14,687.844 2227.59,502.138 2238.05,689.212 2248.51,503.848 2258.96,689.896 2269.42,506.242 2279.88,690.238 2290.33,508.636 "/>
<polyline clip-path="url(#clip832)" style="stroke:#c271d2; stroke-linecap:round; stroke-linejoin:round; stroke-width:4; stroke-opacity:1; fill:none" points="209.532,906.724 219.988,907.408 230.444,907.921 240.9,908.519 251.357,909.289 261.813,910.144 272.269,910.999 282.726,911.512 293.182,912.196 303.638,913.051 314.094,913.906 324.551,914.59 335.007,915.445 345.463,916.129 355.92,916.898 366.376,917.753 376.832,918.523 387.288,919.378 397.745,920.147 408.201,920.746 418.657,921.43 429.114,922.114 439.57,922.712 450.026,923.311 460.482,923.909 470.939,924.679 481.395,925.363 491.851,926.047 502.307,926.645 512.764,927.244 523.22,927.928 533.676,928.612 544.133,929.039 554.589,929.467 565.045,930.065 575.501,930.664 585.958,931.177 596.414,931.604 606.87,932.203 617.327,932.716 627.783,933.4 638.239,933.998 648.695,934.511 659.152,935.024 669.608,935.537 680.064,935.879 690.521,936.307 700.977,936.82 711.433,937.162 721.889,937.504 732.346,937.846 742.802,938.53 753.258,939.043 763.715,939.556 774.171,939.898 784.627,940.496 795.083,941.009 805.54,941.437 815.996,941.779 826.452,942.548 836.909,943.318 847.365,943.916 857.821,944.6 868.277,945.37 878.734,945.968 889.19,946.481 899.646,947.08 910.103,947.507 920.559,948.106 931.015,948.619 941.471,949.046 951.928,949.388 962.384,949.901 972.84,950.158 983.297,950.585 993.753,951.013 1004.21,951.697 1014.67,952.124 1025.12,952.552 1035.58,952.979 1046.03,953.492 1056.49,954.005 1066.95,954.433 1077.4,954.86 1087.86,955.288 1098.32,955.63 1108.77,956.143 1119.23,956.57 1129.68,957.254 1140.14,957.938 1150.6,958.537 1161.05,959.135 1171.51,959.734 1181.97,960.247 1192.42,960.931 1202.88,961.529 1213.33,962.213 1223.79,962.726 1234.25,963.325 1244.7,963.838 1255.16,964.693 1265.62,965.291 1276.07,965.89 1286.53,966.574 1296.98,967.172 1307.44,967.771 1317.9,968.369 1328.35,968.797 1338.81,969.224 1349.27,969.652 1359.72,970.165 1370.18,970.507 1380.64,970.849 1391.09,971.191 1401.55,971.704 1412,971.96 1422.46,972.217 1432.92,972.73 1443.37,973.243 1453.83,973.585 1464.29,973.756 1474.74,974.098 1485.2,974.44 1495.65,974.953 1506.11,975.295 1516.57,975.722 1527.02,975.979 1537.48,976.235 1547.94,976.577 1558.39,976.834 1568.85,977.005 1579.3,977.176 1589.76,977.347 1600.22,977.689 1610.67,978.031 1621.13,978.458 1631.59,978.886 1642.04,979.313 1652.5,979.57 1662.95,979.826 1673.41,980.083 1683.87,980.339 1694.32,980.596 1704.78,980.852 1715.24,981.109 1725.69,981.365 1736.15,981.793 1746.61,981.964 1757.06,982.135 1767.52,982.135 1777.97,982.135 1788.43,982.135 1798.89,982.135 1809.34,982.135 1819.8,982.135 1830.26,982.135 1840.71,982.135 1851.17,982.135 1861.62,982.135 1872.08,982.135 1882.54,982.135 1892.99,982.135 1903.45,982.135 1913.91,982.135 1924.36,982.135 1934.82,982.135 1945.27,982.135 1955.73,982.135 1966.19,982.135 1976.64,982.135 1987.1,982.135 1997.56,982.135 2008.01,982.135 2018.47,982.135 2028.92,982.135 2039.38,982.135 2049.84,982.135 2060.29,982.135 2070.75,982.135 2081.21,982.135 2091.66,982.135 2102.12,982.135 2112.58,982.135 2123.03,982.135 2133.49,982.135 2143.94,982.135 2154.4,982.135 2164.86,982.135 2175.31,982.135 2185.77,982.135 2196.23,982.135 2206.68,982.135 2217.14,982.135 2227.59,982.135 2238.05,982.135 2248.51,982.135 2258.96,982.135 2269.42,982.135 2279.88,982.135 2290.33,982.135 "/>
<polyline clip-path="url(#clip832)" style="stroke:#ff0000; stroke-linecap:round; stroke-linejoin:round; stroke-width:4; stroke-opacity:1; fill:none" points="230.444,2925.65 230.444,-1391.96 "/>
<path clip-path="url(#clip830)" d="M1641.17 406.258 L2279.23 406.258 L2279.23 95.2176 L1641.17 95.2176  Z" fill="#ffffff" fill-rule="evenodd" fill-opacity="1"/>
<polyline clip-path="url(#clip830)" style="stroke:#000000; stroke-linecap:round; stroke-linejoin:round; stroke-width:4; stroke-opacity:1; fill:none" points="1641.17,406.258 2279.23,406.258 2279.23,95.2176 1641.17,95.2176 1641.17,406.258 "/>
<polyline clip-path="url(#clip830)" style="stroke:#009af9; stroke-linecap:round; stroke-linejoin:round; stroke-width:4; stroke-opacity:1; fill:none" points="1665.68,147.058 1812.72,147.058 "/>
<path clip-path="url(#clip830)" d="M1852.41 142.393 Q1851.7 141.977 1850.84 141.791 Q1850.01 141.583 1848.99 141.583 Q1845.38 141.583 1843.43 143.944 Q1841.51 146.282 1841.51 150.68 L1841.51 164.338 L1837.23 164.338 L1837.23 138.412 L1841.51 138.412 L1841.51 142.44 Q1842.85 140.078 1845.01 138.944 Q1847.16 137.787 1850.24 137.787 Q1850.68 137.787 1851.21 137.856 Q1851.74 137.903 1852.39 138.018 L1852.41 142.393 Z" fill="#000000" fill-rule="nonzero" fill-opacity="1" /><path clip-path="url(#clip830)" d="M1878.02 150.31 L1878.02 152.393 L1858.43 152.393 Q1858.71 156.791 1861.07 159.106 Q1863.46 161.398 1867.69 161.398 Q1870.15 161.398 1872.44 160.796 Q1874.75 160.194 1877.02 158.99 L1877.02 163.018 Q1874.73 163.99 1872.32 164.5 Q1869.91 165.009 1867.44 165.009 Q1861.23 165.009 1857.6 161.398 Q1853.99 157.787 1853.99 151.629 Q1853.99 145.264 1857.41 141.537 Q1860.86 137.787 1866.7 137.787 Q1871.93 137.787 1874.96 141.166 Q1878.02 144.523 1878.02 150.31 M1873.76 149.06 Q1873.71 145.565 1871.79 143.481 Q1869.89 141.398 1866.74 141.398 Q1863.18 141.398 1861.03 143.412 Q1858.9 145.426 1858.57 149.083 L1873.76 149.06 Z" fill="#000000" fill-rule="nonzero" fill-opacity="1" /><path clip-path="url(#clip830)" d="M1898.13 128.319 L1898.13 131.861 L1894.06 131.861 Q1891.77 131.861 1890.86 132.787 Q1889.98 133.713 1889.98 136.12 L1889.98 138.412 L1897 138.412 L1897 141.722 L1889.98 141.722 L1889.98 164.338 L1885.7 164.338 L1885.7 141.722 L1881.63 141.722 L1881.63 138.412 L1885.7 138.412 L1885.7 136.606 Q1885.7 132.278 1887.72 130.31 Q1889.73 128.319 1894.1 128.319 L1898.13 128.319 Z" fill="#000000" fill-rule="nonzero" fill-opacity="1" /><path clip-path="url(#clip830)" d="M1923.87 150.31 L1923.87 152.393 L1904.29 152.393 Q1904.57 156.791 1906.93 159.106 Q1909.31 161.398 1913.55 161.398 Q1916 161.398 1918.29 160.796 Q1920.61 160.194 1922.88 158.99 L1922.88 163.018 Q1920.59 163.99 1918.18 164.5 Q1915.77 165.009 1913.29 165.009 Q1907.09 165.009 1903.46 161.398 Q1899.84 157.787 1899.84 151.629 Q1899.84 145.264 1903.27 141.537 Q1906.72 137.787 1912.55 137.787 Q1917.78 137.787 1920.82 141.166 Q1923.87 144.523 1923.87 150.31 M1919.61 149.06 Q1919.57 145.565 1917.65 143.481 Q1915.75 141.398 1912.6 141.398 Q1909.03 141.398 1906.88 143.412 Q1904.75 145.426 1904.43 149.083 L1919.61 149.06 Z" fill="#000000" fill-rule="nonzero" fill-opacity="1" /><path clip-path="url(#clip830)" d="M1945.89 142.393 Q1945.17 141.977 1944.31 141.791 Q1943.48 141.583 1942.46 141.583 Q1938.85 141.583 1936.9 143.944 Q1934.98 146.282 1934.98 150.68 L1934.98 164.338 L1930.7 164.338 L1930.7 138.412 L1934.98 138.412 L1934.98 142.44 Q1936.33 140.078 1938.48 138.944 Q1940.63 137.787 1943.71 137.787 Q1944.15 137.787 1944.68 137.856 Q1945.21 137.903 1945.86 138.018 L1945.89 142.393 Z" fill="#000000" fill-rule="nonzero" fill-opacity="1" /><path clip-path="url(#clip830)" d="M1971.49 150.31 L1971.49 152.393 L1951.9 152.393 Q1952.18 156.791 1954.54 159.106 Q1956.93 161.398 1961.16 161.398 Q1963.62 161.398 1965.91 160.796 Q1968.22 160.194 1970.49 158.99 L1970.49 163.018 Q1968.2 163.99 1965.79 164.5 Q1963.39 165.009 1960.91 165.009 Q1954.71 165.009 1951.07 161.398 Q1947.46 157.787 1947.46 151.629 Q1947.46 145.264 1950.89 141.537 Q1954.34 137.787 1960.17 137.787 Q1965.4 137.787 1968.43 141.166 Q1971.49 144.523 1971.49 150.31 M1967.23 149.06 Q1967.18 145.565 1965.26 143.481 Q1963.36 141.398 1960.21 141.398 Q1956.65 141.398 1954.5 143.412 Q1952.37 145.426 1952.04 149.083 L1967.23 149.06 Z" fill="#000000" fill-rule="nonzero" fill-opacity="1" /><path clip-path="url(#clip830)" d="M2000.03 148.689 L2000.03 164.338 L1995.77 164.338 L1995.77 148.828 Q1995.77 145.148 1994.33 143.319 Q1992.9 141.49 1990.03 141.49 Q1986.58 141.49 1984.59 143.69 Q1982.6 145.889 1982.6 149.685 L1982.6 164.338 L1978.32 164.338 L1978.32 138.412 L1982.6 138.412 L1982.6 142.44 Q1984.13 140.102 1986.19 138.944 Q1988.27 137.787 1990.98 137.787 Q1995.45 137.787 1997.74 140.565 Q2000.03 143.319 2000.03 148.689 Z" fill="#000000" fill-rule="nonzero" fill-opacity="1" /><path clip-path="url(#clip830)" d="M2027.18 139.407 L2027.18 143.389 Q2025.38 142.393 2023.55 141.907 Q2021.74 141.398 2019.89 141.398 Q2015.75 141.398 2013.46 144.037 Q2011.16 146.652 2011.16 151.398 Q2011.16 156.143 2013.46 158.782 Q2015.75 161.398 2019.89 161.398 Q2021.74 161.398 2023.55 160.912 Q2025.38 160.402 2027.18 159.407 L2027.18 163.342 Q2025.4 164.176 2023.48 164.592 Q2021.58 165.009 2019.43 165.009 Q2013.57 165.009 2010.12 161.328 Q2006.67 157.648 2006.67 151.398 Q2006.67 145.055 2010.15 141.421 Q2013.64 137.787 2019.71 137.787 Q2021.67 137.787 2023.55 138.203 Q2025.42 138.597 2027.18 139.407 Z" fill="#000000" fill-rule="nonzero" fill-opacity="1" /><path clip-path="url(#clip830)" d="M2056.77 150.31 L2056.77 152.393 L2037.18 152.393 Q2037.46 156.791 2039.82 159.106 Q2042.21 161.398 2046.44 161.398 Q2048.89 161.398 2051.19 160.796 Q2053.5 160.194 2055.77 158.99 L2055.77 163.018 Q2053.48 163.99 2051.07 164.5 Q2048.66 165.009 2046.19 165.009 Q2039.98 165.009 2036.35 161.398 Q2032.74 157.787 2032.74 151.629 Q2032.74 145.264 2036.16 141.537 Q2039.61 137.787 2045.45 137.787 Q2050.68 137.787 2053.71 141.166 Q2056.77 144.523 2056.77 150.31 M2052.51 149.06 Q2052.46 145.565 2050.54 143.481 Q2048.64 141.398 2045.49 141.398 Q2041.93 141.398 2039.77 143.412 Q2037.64 145.426 2037.32 149.083 L2052.51 149.06 Z" fill="#000000" fill-rule="nonzero" fill-opacity="1" /><polyline clip-path="url(#clip830)" style="stroke:#e26f46; stroke-linecap:round; stroke-linejoin:round; stroke-width:4; stroke-opacity:1; fill:none" points="1665.68,198.898 1812.72,198.898 "/>
<path clip-path="url(#clip830)" d="M1855.66 191.016 L1855.66 195.043 Q1853.85 194.117 1851.91 193.655 Q1849.96 193.192 1847.88 193.192 Q1844.71 193.192 1843.11 194.164 Q1841.53 195.136 1841.53 197.08 Q1841.53 198.562 1842.67 199.418 Q1843.8 200.252 1847.23 201.016 L1848.69 201.34 Q1853.22 202.312 1855.12 204.094 Q1857.04 205.854 1857.04 209.025 Q1857.04 212.636 1854.17 214.742 Q1851.33 216.849 1846.33 216.849 Q1844.24 216.849 1841.97 216.432 Q1839.73 216.039 1837.23 215.228 L1837.23 210.83 Q1839.59 212.057 1841.88 212.682 Q1844.17 213.284 1846.42 213.284 Q1849.43 213.284 1851.05 212.266 Q1852.67 211.224 1852.67 209.349 Q1852.67 207.613 1851.49 206.687 Q1850.33 205.761 1846.37 204.904 L1844.89 204.557 Q1840.93 203.724 1839.17 202.011 Q1837.41 200.275 1837.41 197.266 Q1837.41 193.608 1840.01 191.618 Q1842.6 189.627 1847.37 189.627 Q1849.73 189.627 1851.81 189.974 Q1853.9 190.321 1855.66 191.016 Z" fill="#000000" fill-rule="nonzero" fill-opacity="1" /><path clip-path="url(#clip830)" d="M1863.66 180.159 L1867.95 180.159 L1867.95 201.432 L1880.66 190.252 L1886.09 190.252 L1872.34 202.381 L1886.67 216.178 L1881.12 216.178 L1867.95 203.516 L1867.95 216.178 L1863.66 216.178 L1863.66 180.159 Z" fill="#000000" fill-rule="nonzero" fill-opacity="1" /><path clip-path="url(#clip830)" d="M1911.77 202.15 L1911.77 204.233 L1892.18 204.233 Q1892.46 208.631 1894.82 210.946 Q1897.21 213.238 1901.44 213.238 Q1903.9 213.238 1906.19 212.636 Q1908.5 212.034 1910.77 210.83 L1910.77 214.858 Q1908.48 215.83 1906.07 216.34 Q1903.66 216.849 1901.19 216.849 Q1894.98 216.849 1891.35 213.238 Q1887.74 209.627 1887.74 203.469 Q1887.74 197.104 1891.16 193.377 Q1894.61 189.627 1900.45 189.627 Q1905.68 189.627 1908.71 193.006 Q1911.77 196.363 1911.77 202.15 M1907.51 200.9 Q1907.46 197.405 1905.54 195.321 Q1903.64 193.238 1900.49 193.238 Q1896.93 193.238 1894.78 195.252 Q1892.65 197.266 1892.32 200.923 L1907.51 200.9 Z" fill="#000000" fill-rule="nonzero" fill-opacity="1" /><path clip-path="url(#clip830)" d="M1916.28 190.252 L1920.54 190.252 L1925.86 210.483 L1931.16 190.252 L1936.19 190.252 L1941.51 210.483 L1946.81 190.252 L1951.07 190.252 L1944.29 216.178 L1939.27 216.178 L1933.69 194.928 L1928.09 216.178 L1923.06 216.178 L1916.28 190.252 Z" fill="#000000" fill-rule="nonzero" fill-opacity="1" /><polyline clip-path="url(#clip830)" style="stroke:#3da44d; stroke-linecap:round; stroke-linejoin:round; stroke-width:4; stroke-opacity:1; fill:none" points="1665.68,250.738 1812.72,250.738 "/>
<path clip-path="url(#clip830)" d="M1850.63 254.985 Q1845.47 254.985 1843.48 256.166 Q1841.49 257.346 1841.49 260.194 Q1841.49 262.462 1842.97 263.805 Q1844.47 265.124 1847.04 265.124 Q1850.59 265.124 1852.72 262.624 Q1854.87 260.101 1854.87 255.934 L1854.87 254.985 L1850.63 254.985 M1859.13 253.226 L1859.13 268.018 L1854.87 268.018 L1854.87 264.082 Q1853.41 266.443 1851.23 267.578 Q1849.06 268.689 1845.91 268.689 Q1841.93 268.689 1839.57 266.467 Q1837.23 264.221 1837.23 260.471 Q1837.23 256.096 1840.15 253.874 Q1843.09 251.652 1848.9 251.652 L1854.87 251.652 L1854.87 251.235 Q1854.87 248.295 1852.92 246.698 Q1851 245.078 1847.51 245.078 Q1845.28 245.078 1843.18 245.61 Q1841.07 246.143 1839.13 247.207 L1839.13 243.272 Q1841.47 242.37 1843.66 241.93 Q1845.86 241.467 1847.95 241.467 Q1853.57 241.467 1856.35 244.383 Q1859.13 247.3 1859.13 253.226 Z" fill="#000000" fill-rule="nonzero" fill-opacity="1" /><path clip-path="url(#clip830)" d="M1882.92 246.073 Q1882.21 245.657 1881.35 245.471 Q1880.52 245.263 1879.5 245.263 Q1875.89 245.263 1873.94 247.624 Q1872.02 249.962 1872.02 254.36 L1872.02 268.018 L1867.74 268.018 L1867.74 242.092 L1872.02 242.092 L1872.02 246.12 Q1873.36 243.758 1875.52 242.624 Q1877.67 241.467 1880.75 241.467 Q1881.19 241.467 1881.72 241.536 Q1882.25 241.583 1882.9 241.698 L1882.92 246.073 Z" fill="#000000" fill-rule="nonzero" fill-opacity="1" /><path clip-path="url(#clip830)" d="M1906 255.078 Q1906 250.379 1904.06 247.717 Q1902.14 245.032 1898.76 245.032 Q1895.38 245.032 1893.43 247.717 Q1891.51 250.379 1891.51 255.078 Q1891.51 259.777 1893.43 262.462 Q1895.38 265.124 1898.76 265.124 Q1902.14 265.124 1904.06 262.462 Q1906 259.777 1906 255.078 M1891.51 246.027 Q1892.85 243.712 1894.89 242.601 Q1896.95 241.467 1899.8 241.467 Q1904.52 241.467 1907.46 245.217 Q1910.42 248.967 1910.42 255.078 Q1910.42 261.189 1907.46 264.939 Q1904.52 268.689 1899.8 268.689 Q1896.95 268.689 1894.89 267.578 Q1892.85 266.443 1891.51 264.129 L1891.51 268.018 L1887.23 268.018 L1887.23 231.999 L1891.51 231.999 L1891.51 246.027 Z" fill="#000000" fill-rule="nonzero" fill-opacity="1" /><polyline clip-path="url(#clip830)" style="stroke:#c271d2; stroke-linecap:round; stroke-linejoin:round; stroke-width:4; stroke-opacity:1; fill:none" points="1665.68,302.578 1812.72,302.578 "/>
<path clip-path="url(#clip830)" d="M1857.74 294.927 L1857.74 298.909 Q1855.93 297.913 1854.1 297.427 Q1852.3 296.918 1850.45 296.918 Q1846.3 296.918 1844.01 299.557 Q1841.72 302.172 1841.72 306.918 Q1841.72 311.663 1844.01 314.302 Q1846.3 316.918 1850.45 316.918 Q1852.3 316.918 1854.1 316.432 Q1855.93 315.922 1857.74 314.927 L1857.74 318.862 Q1855.96 319.696 1854.03 320.112 Q1852.14 320.529 1849.98 320.529 Q1844.13 320.529 1840.68 316.848 Q1837.23 313.168 1837.23 306.918 Q1837.23 300.575 1840.7 296.941 Q1844.2 293.307 1850.26 293.307 Q1852.23 293.307 1854.1 293.723 Q1855.98 294.117 1857.74 294.927 Z" fill="#000000" fill-rule="nonzero" fill-opacity="1" /><path clip-path="url(#clip830)" d="M1875.19 296.918 Q1871.77 296.918 1869.78 299.603 Q1867.78 302.265 1867.78 306.918 Q1867.78 311.571 1869.75 314.256 Q1871.74 316.918 1875.19 316.918 Q1878.59 316.918 1880.59 314.233 Q1882.58 311.547 1882.58 306.918 Q1882.58 302.311 1880.59 299.626 Q1878.59 296.918 1875.19 296.918 M1875.19 293.307 Q1880.75 293.307 1883.92 296.918 Q1887.09 300.529 1887.09 306.918 Q1887.09 313.284 1883.92 316.918 Q1880.75 320.529 1875.19 320.529 Q1869.61 320.529 1866.44 316.918 Q1863.29 313.284 1863.29 306.918 Q1863.29 300.529 1866.44 296.918 Q1869.61 293.307 1875.19 293.307 Z" fill="#000000" fill-rule="nonzero" fill-opacity="1" /><path clip-path="url(#clip830)" d="M1914.34 298.909 Q1915.93 296.038 1918.15 294.673 Q1920.38 293.307 1923.39 293.307 Q1927.44 293.307 1929.64 296.154 Q1931.84 298.978 1931.84 304.209 L1931.84 319.858 L1927.55 319.858 L1927.55 304.348 Q1927.55 300.622 1926.23 298.816 Q1924.91 297.01 1922.21 297.01 Q1918.9 297.01 1916.97 299.21 Q1915.05 301.409 1915.05 305.205 L1915.05 319.858 L1910.77 319.858 L1910.77 304.348 Q1910.77 300.598 1909.45 298.816 Q1908.13 297.01 1905.38 297.01 Q1902.11 297.01 1900.19 299.233 Q1898.27 301.432 1898.27 305.205 L1898.27 319.858 L1893.99 319.858 L1893.99 293.932 L1898.27 293.932 L1898.27 297.96 Q1899.73 295.575 1901.77 294.441 Q1903.8 293.307 1906.6 293.307 Q1909.43 293.307 1911.4 294.742 Q1913.39 296.177 1914.34 298.909 Z" fill="#000000" fill-rule="nonzero" fill-opacity="1" /><path clip-path="url(#clip830)" d="M1944.45 315.969 L1944.45 329.719 L1940.17 329.719 L1940.17 293.932 L1944.45 293.932 L1944.45 297.867 Q1945.79 295.552 1947.83 294.441 Q1949.89 293.307 1952.74 293.307 Q1957.46 293.307 1960.4 297.057 Q1963.36 300.807 1963.36 306.918 Q1963.36 313.029 1960.4 316.779 Q1957.46 320.529 1952.74 320.529 Q1949.89 320.529 1947.83 319.418 Q1945.79 318.283 1944.45 315.969 M1958.94 306.918 Q1958.94 302.219 1957 299.557 Q1955.08 296.872 1951.7 296.872 Q1948.32 296.872 1946.37 299.557 Q1944.45 302.219 1944.45 306.918 Q1944.45 311.617 1946.37 314.302 Q1948.32 316.964 1951.7 316.964 Q1955.08 316.964 1957 314.302 Q1958.94 311.617 1958.94 306.918 Z" fill="#000000" fill-rule="nonzero" fill-opacity="1" /><polyline clip-path="url(#clip830)" style="stroke:#ff0000; stroke-linecap:round; stroke-linejoin:round; stroke-width:4; stroke-opacity:1; fill:none" points="1665.68,354.418 1812.72,354.418 "/>
<path clip-path="url(#clip830)" d="M1855.66 346.536 L1855.66 350.563 Q1853.85 349.637 1851.91 349.175 Q1849.96 348.712 1847.88 348.712 Q1844.71 348.712 1843.11 349.684 Q1841.53 350.656 1841.53 352.6 Q1841.53 354.082 1842.67 354.938 Q1843.8 355.772 1847.23 356.536 L1848.69 356.86 Q1853.22 357.832 1855.12 359.614 Q1857.04 361.374 1857.04 364.545 Q1857.04 368.156 1854.17 370.262 Q1851.33 372.369 1846.33 372.369 Q1844.24 372.369 1841.97 371.952 Q1839.73 371.559 1837.23 370.748 L1837.23 366.35 Q1839.59 367.577 1841.88 368.202 Q1844.17 368.804 1846.42 368.804 Q1849.43 368.804 1851.05 367.786 Q1852.67 366.744 1852.67 364.869 Q1852.67 363.133 1851.49 362.207 Q1850.33 361.281 1846.37 360.424 L1844.89 360.077 Q1840.93 359.244 1839.17 357.531 Q1837.41 355.795 1837.41 352.786 Q1837.41 349.128 1840.01 347.138 Q1842.6 345.147 1847.37 345.147 Q1849.73 345.147 1851.81 345.494 Q1853.9 345.841 1855.66 346.536 Z" fill="#000000" fill-rule="nonzero" fill-opacity="1" /><path clip-path="url(#clip830)" d="M1868.04 338.411 L1868.04 345.772 L1876.81 345.772 L1876.81 349.082 L1868.04 349.082 L1868.04 363.156 Q1868.04 366.327 1868.9 367.23 Q1869.78 368.133 1872.44 368.133 L1876.81 368.133 L1876.81 371.698 L1872.44 371.698 Q1867.51 371.698 1865.63 369.869 Q1863.76 368.017 1863.76 363.156 L1863.76 349.082 L1860.63 349.082 L1860.63 345.772 L1863.76 345.772 L1863.76 338.411 L1868.04 338.411 Z" fill="#000000" fill-rule="nonzero" fill-opacity="1" /><path clip-path="url(#clip830)" d="M1894.2 358.665 Q1889.03 358.665 1887.04 359.846 Q1885.05 361.026 1885.05 363.874 Q1885.05 366.142 1886.53 367.485 Q1888.04 368.804 1890.61 368.804 Q1894.15 368.804 1896.28 366.304 Q1898.43 363.781 1898.43 359.614 L1898.43 358.665 L1894.2 358.665 M1902.69 356.906 L1902.69 371.698 L1898.43 371.698 L1898.43 367.762 Q1896.97 370.123 1894.8 371.258 Q1892.62 372.369 1889.47 372.369 Q1885.49 372.369 1883.13 370.147 Q1880.79 367.901 1880.79 364.151 Q1880.79 359.776 1883.71 357.554 Q1886.65 355.332 1892.46 355.332 L1898.43 355.332 L1898.43 354.915 Q1898.43 351.975 1896.49 350.378 Q1894.57 348.758 1891.07 348.758 Q1888.85 348.758 1886.74 349.29 Q1884.64 349.823 1882.69 350.887 L1882.69 346.952 Q1885.03 346.05 1887.23 345.61 Q1889.43 345.147 1891.51 345.147 Q1897.14 345.147 1899.91 348.063 Q1902.69 350.98 1902.69 356.906 Z" fill="#000000" fill-rule="nonzero" fill-opacity="1" /><path clip-path="url(#clip830)" d="M1926.49 349.753 Q1925.77 349.337 1924.91 349.151 Q1924.08 348.943 1923.06 348.943 Q1919.45 348.943 1917.51 351.304 Q1915.59 353.642 1915.59 358.04 L1915.59 371.698 L1911.3 371.698 L1911.3 345.772 L1915.59 345.772 L1915.59 349.8 Q1916.93 347.438 1919.08 346.304 Q1921.23 345.147 1924.31 345.147 Q1924.75 345.147 1925.28 345.216 Q1925.82 345.263 1926.46 345.378 L1926.49 349.753 Z" fill="#000000" fill-rule="nonzero" fill-opacity="1" /><path clip-path="url(#clip830)" d="M1935.17 338.411 L1935.17 345.772 L1943.94 345.772 L1943.94 349.082 L1935.17 349.082 L1935.17 363.156 Q1935.17 366.327 1936.03 367.23 Q1936.9 368.133 1939.57 368.133 L1943.94 368.133 L1943.94 371.698 L1939.57 371.698 Q1934.64 371.698 1932.76 369.869 Q1930.89 368.017 1930.89 363.156 L1930.89 349.082 L1927.76 349.082 L1927.76 345.772 L1930.89 345.772 L1930.89 338.411 L1935.17 338.411 Z" fill="#000000" fill-rule="nonzero" fill-opacity="1" /><path clip-path="url(#clip830)" d="M1974.66 348.758 Q1971.23 348.758 1969.24 351.443 Q1967.25 354.105 1967.25 358.758 Q1967.25 363.411 1969.22 366.096 Q1971.21 368.758 1974.66 368.758 Q1978.06 368.758 1980.05 366.073 Q1982.04 363.387 1982.04 358.758 Q1982.04 354.151 1980.05 351.466 Q1978.06 348.758 1974.66 348.758 M1974.66 345.147 Q1980.21 345.147 1983.39 348.758 Q1986.56 352.369 1986.56 358.758 Q1986.56 365.124 1983.39 368.758 Q1980.21 372.369 1974.66 372.369 Q1969.08 372.369 1965.91 368.758 Q1962.76 365.124 1962.76 358.758 Q1962.76 352.369 1965.91 348.758 Q1969.08 345.147 1974.66 345.147 Z" fill="#000000" fill-rule="nonzero" fill-opacity="1" /><path clip-path="url(#clip830)" d="M2006.74 335.679 L2006.74 339.221 L2002.67 339.221 Q2000.38 339.221 1999.47 340.147 Q1998.59 341.073 1998.59 343.48 L1998.59 345.772 L2005.61 345.772 L2005.61 349.082 L1998.59 349.082 L1998.59 371.698 L1994.31 371.698 L1994.31 349.082 L1990.24 349.082 L1990.24 345.772 L1994.31 345.772 L1994.31 343.966 Q1994.31 339.638 1996.33 337.67 Q1998.34 335.679 2002.71 335.679 L2006.74 335.679 Z" fill="#000000" fill-rule="nonzero" fill-opacity="1" /><path clip-path="url(#clip830)" d="M2029.5 367.809 L2029.5 381.559 L2025.21 381.559 L2025.21 345.772 L2029.5 345.772 L2029.5 349.707 Q2030.84 347.392 2032.88 346.281 Q2034.94 345.147 2037.78 345.147 Q2042.51 345.147 2045.45 348.897 Q2048.41 352.647 2048.41 358.758 Q2048.41 364.869 2045.45 368.619 Q2042.51 372.369 2037.78 372.369 Q2034.94 372.369 2032.88 371.258 Q2030.84 370.123 2029.5 367.809 M2043.99 358.758 Q2043.99 354.059 2042.04 351.397 Q2040.12 348.712 2036.74 348.712 Q2033.36 348.712 2031.42 351.397 Q2029.5 354.059 2029.5 358.758 Q2029.5 363.457 2031.42 366.142 Q2033.36 368.804 2036.74 368.804 Q2040.12 368.804 2042.04 366.142 Q2043.99 363.457 2043.99 358.758 Z" fill="#000000" fill-rule="nonzero" fill-opacity="1" /><path clip-path="url(#clip830)" d="M2070.49 349.753 Q2069.77 349.337 2068.92 349.151 Q2068.08 348.943 2067.07 348.943 Q2063.45 348.943 2061.51 351.304 Q2059.59 353.642 2059.59 358.04 L2059.59 371.698 L2055.31 371.698 L2055.31 345.772 L2059.59 345.772 L2059.59 349.8 Q2060.93 347.438 2063.08 346.304 Q2065.24 345.147 2068.32 345.147 Q2068.76 345.147 2069.29 345.216 Q2069.82 345.263 2070.47 345.378 L2070.49 349.753 Z" fill="#000000" fill-rule="nonzero" fill-opacity="1" /><path clip-path="url(#clip830)" d="M2096.09 357.67 L2096.09 359.753 L2076.51 359.753 Q2076.79 364.151 2079.15 366.466 Q2081.53 368.758 2085.77 368.758 Q2088.22 368.758 2090.52 368.156 Q2092.83 367.554 2095.1 366.35 L2095.1 370.378 Q2092.81 371.35 2090.4 371.86 Q2087.99 372.369 2085.52 372.369 Q2079.31 372.369 2075.68 368.758 Q2072.07 365.147 2072.07 358.989 Q2072.07 352.624 2075.49 348.897 Q2078.94 345.147 2084.77 345.147 Q2090.01 345.147 2093.04 348.526 Q2096.09 351.883 2096.09 357.67 M2091.83 356.42 Q2091.79 352.925 2089.87 350.841 Q2087.97 348.758 2084.82 348.758 Q2081.26 348.758 2079.1 350.772 Q2076.97 352.786 2076.65 356.443 L2091.83 356.42 Z" fill="#000000" fill-rule="nonzero" fill-opacity="1" /><path clip-path="url(#clip830)" d="M2120.14 349.707 L2120.14 335.679 L2124.4 335.679 L2124.4 371.698 L2120.14 371.698 L2120.14 367.809 Q2118.8 370.123 2116.74 371.258 Q2114.7 372.369 2111.83 372.369 Q2107.14 372.369 2104.17 368.619 Q2101.23 364.869 2101.23 358.758 Q2101.23 352.647 2104.17 348.897 Q2107.14 345.147 2111.83 345.147 Q2114.7 345.147 2116.74 346.281 Q2118.8 347.392 2120.14 349.707 M2105.63 358.758 Q2105.63 363.457 2107.55 366.142 Q2109.5 368.804 2112.88 368.804 Q2116.26 368.804 2118.2 366.142 Q2120.14 363.457 2120.14 358.758 Q2120.14 354.059 2118.2 351.397 Q2116.26 348.712 2112.88 348.712 Q2109.5 348.712 2107.55 351.397 Q2105.63 354.059 2105.63 358.758 Z" fill="#000000" fill-rule="nonzero" fill-opacity="1" /><path clip-path="url(#clip830)" d="M2133.18 345.772 L2137.44 345.772 L2137.44 371.698 L2133.18 371.698 L2133.18 345.772 M2133.18 335.679 L2137.44 335.679 L2137.44 341.073 L2133.18 341.073 L2133.18 335.679 Z" fill="#000000" fill-rule="nonzero" fill-opacity="1" /><path clip-path="url(#clip830)" d="M2165.01 346.767 L2165.01 350.749 Q2163.2 349.753 2161.37 349.267 Q2159.57 348.758 2157.71 348.758 Q2153.57 348.758 2151.28 351.397 Q2148.99 354.012 2148.99 358.758 Q2148.99 363.503 2151.28 366.142 Q2153.57 368.758 2157.71 368.758 Q2159.57 368.758 2161.37 368.272 Q2163.2 367.762 2165.01 366.767 L2165.01 370.702 Q2163.22 371.536 2161.3 371.952 Q2159.4 372.369 2157.25 372.369 Q2151.39 372.369 2147.95 368.688 Q2144.5 365.008 2144.5 358.758 Q2144.5 352.415 2147.97 348.781 Q2151.46 345.147 2157.53 345.147 Q2159.5 345.147 2161.37 345.563 Q2163.25 345.957 2165.01 346.767 Z" fill="#000000" fill-rule="nonzero" fill-opacity="1" /><path clip-path="url(#clip830)" d="M2176.63 338.411 L2176.63 345.772 L2185.4 345.772 L2185.4 349.082 L2176.63 349.082 L2176.63 363.156 Q2176.63 366.327 2177.48 367.23 Q2178.36 368.133 2181.02 368.133 L2185.4 368.133 L2185.4 371.698 L2181.02 371.698 Q2176.09 371.698 2174.22 369.869 Q2172.34 368.017 2172.34 363.156 L2172.34 349.082 L2169.22 349.082 L2169.22 345.772 L2172.34 345.772 L2172.34 338.411 L2176.63 338.411 Z" fill="#000000" fill-rule="nonzero" fill-opacity="1" /><path clip-path="url(#clip830)" d="M2191 345.772 L2195.26 345.772 L2195.26 371.698 L2191 371.698 L2191 345.772 M2191 335.679 L2195.26 335.679 L2195.26 341.073 L2191 341.073 L2191 335.679 Z" fill="#000000" fill-rule="nonzero" fill-opacity="1" /><path clip-path="url(#clip830)" d="M2214.22 348.758 Q2210.79 348.758 2208.8 351.443 Q2206.81 354.105 2206.81 358.758 Q2206.81 363.411 2208.78 366.096 Q2210.77 368.758 2214.22 368.758 Q2217.62 368.758 2219.61 366.073 Q2221.6 363.387 2221.6 358.758 Q2221.6 354.151 2219.61 351.466 Q2217.62 348.758 2214.22 348.758 M2214.22 345.147 Q2219.77 345.147 2222.94 348.758 Q2226.12 352.369 2226.12 358.758 Q2226.12 365.124 2222.94 368.758 Q2219.77 372.369 2214.22 372.369 Q2208.64 372.369 2205.47 368.758 Q2202.32 365.124 2202.32 358.758 Q2202.32 352.369 2205.47 348.758 Q2208.64 345.147 2214.22 345.147 Z" fill="#000000" fill-rule="nonzero" fill-opacity="1" /><path clip-path="url(#clip830)" d="M2254.73 356.049 L2254.73 371.698 L2250.47 371.698 L2250.47 356.188 Q2250.47 352.508 2249.03 350.679 Q2247.6 348.85 2244.73 348.85 Q2241.28 348.85 2239.29 351.05 Q2237.3 353.249 2237.3 357.045 L2237.3 371.698 L2233.01 371.698 L2233.01 345.772 L2237.3 345.772 L2237.3 349.8 Q2238.82 347.462 2240.88 346.304 Q2242.97 345.147 2245.68 345.147 Q2250.14 345.147 2252.44 347.925 Q2254.73 350.679 2254.73 356.049 Z" fill="#000000" fill-rule="nonzero" fill-opacity="1" /></svg>
