<?xml version="1.0" encoding="utf-8"?>
<svg xmlns="http://www.w3.org/2000/svg" xmlns:xlink="http://www.w3.org/1999/xlink" width="600" height="400" viewBox="0 0 2400 1600">
<defs>
  <clipPath id="clip260">
    <rect x="0" y="0" width="2400" height="1600"/>
  </clipPath>
</defs>
<path clip-path="url(#clip260)" d="M0 1600 L2400 1600 L2400 0 L0 0  Z" fill="#ffffff" fill-rule="evenodd" fill-opacity="1"/>
<defs>
  <clipPath id="clip261">
    <rect x="480" y="0" width="1681" height="1600"/>
  </clipPath>
</defs>
<path clip-path="url(#clip260)" d="M193.936 1486.45 L2352.76 1486.45 L2352.76 47.2441 L193.936 47.2441  Z" fill="#ffffff" fill-rule="evenodd" fill-opacity="1"/>
<defs>
  <clipPath id="clip262">
    <rect x="193" y="47" width="2160" height="1440"/>
  </clipPath>
</defs>
<polyline clip-path="url(#clip262)" style="stroke:#000000; stroke-linecap:round; stroke-linejoin:round; stroke-width:2; stroke-opacity:0.1; fill:none" points="252.996,1486.45 252.996,47.2441 "/>
<polyline clip-path="url(#clip262)" style="stroke:#000000; stroke-linecap:round; stroke-linejoin:round; stroke-width:2; stroke-opacity:0.1; fill:none" points="762.661,1486.45 762.661,47.2441 "/>
<polyline clip-path="url(#clip262)" style="stroke:#000000; stroke-linecap:round; stroke-linejoin:round; stroke-width:2; stroke-opacity:0.1; fill:none" points="1272.33,1486.45 1272.33,47.2441 "/>
<polyline clip-path="url(#clip262)" style="stroke:#000000; stroke-linecap:round; stroke-linejoin:round; stroke-width:2; stroke-opacity:0.1; fill:none" points="1781.99,1486.45 1781.99,47.2441 "/>
<polyline clip-path="url(#clip262)" style="stroke:#000000; stroke-linecap:round; stroke-linejoin:round; stroke-width:2; stroke-opacity:0.1; fill:none" points="2291.66,1486.45 2291.66,47.2441 "/>
<polyline clip-path="url(#clip260)" style="stroke:#000000; stroke-linecap:round; stroke-linejoin:round; stroke-width:4; stroke-opacity:1; fill:none" points="193.936,1486.45 2352.76,1486.45 "/>
<polyline clip-path="url(#clip260)" style="stroke:#000000; stroke-linecap:round; stroke-linejoin:round; stroke-width:4; stroke-opacity:1; fill:none" points="252.996,1486.45 252.996,1467.55 "/>
<polyline clip-path="url(#clip260)" style="stroke:#000000; stroke-linecap:round; stroke-linejoin:round; stroke-width:4; stroke-opacity:1; fill:none" points="762.661,1486.45 762.661,1467.55 "/>
<polyline clip-path="url(#clip260)" style="stroke:#000000; stroke-linecap:round; stroke-linejoin:round; stroke-width:4; stroke-opacity:1; fill:none" points="1272.33,1486.45 1272.33,1467.55 "/>
<polyline clip-path="url(#clip260)" style="stroke:#000000; stroke-linecap:round; stroke-linejoin:round; stroke-width:4; stroke-opacity:1; fill:none" points="1781.99,1486.45 1781.99,1467.55 "/>
<polyline clip-path="url(#clip260)" style="stroke:#000000; stroke-linecap:round; stroke-linejoin:round; stroke-width:4; stroke-opacity:1; fill:none" points="2291.66,1486.45 2291.66,1467.55 "/>
<path clip-path="url(#clip260)" d="M252.996 1517.37 Q249.385 1517.37 247.556 1520.93 Q245.751 1524.47 245.751 1531.6 Q245.751 1538.71 247.556 1542.27 Q249.385 1545.82 252.996 1545.82 Q256.63 1545.82 258.436 1542.27 Q260.264 1538.71 260.264 1531.6 Q260.264 1524.47 258.436 1520.93 Q256.63 1517.37 252.996 1517.37 M252.996 1513.66 Q258.806 1513.66 261.862 1518.27 Q264.94 1522.85 264.94 1531.6 Q264.94 1540.33 261.862 1544.94 Q258.806 1549.52 252.996 1549.52 Q247.186 1549.52 244.107 1544.94 Q241.052 1540.33 241.052 1531.6 Q241.052 1522.85 244.107 1518.27 Q247.186 1513.66 252.996 1513.66 Z" fill="#000000" fill-rule="nonzero" fill-opacity="1" /><path clip-path="url(#clip260)" d="M726.354 1544.91 L742.673 1544.91 L742.673 1548.85 L720.729 1548.85 L720.729 1544.91 Q723.391 1542.16 727.974 1537.53 Q732.58 1532.88 733.761 1531.53 Q736.006 1529.01 736.886 1527.27 Q737.789 1525.51 737.789 1523.82 Q737.789 1521.07 735.844 1519.33 Q733.923 1517.6 730.821 1517.6 Q728.622 1517.6 726.168 1518.36 Q723.738 1519.13 720.96 1520.68 L720.96 1515.95 Q723.784 1514.82 726.238 1514.24 Q728.692 1513.66 730.729 1513.66 Q736.099 1513.66 739.293 1516.35 Q742.488 1519.03 742.488 1523.52 Q742.488 1525.65 741.678 1527.57 Q740.891 1529.47 738.784 1532.07 Q738.205 1532.74 735.104 1535.95 Q732.002 1539.15 726.354 1544.91 Z" fill="#000000" fill-rule="nonzero" fill-opacity="1" /><path clip-path="url(#clip260)" d="M752.534 1514.29 L770.89 1514.29 L770.89 1518.22 L756.816 1518.22 L756.816 1526.7 Q757.835 1526.35 758.853 1526.19 Q759.872 1526 760.89 1526 Q766.677 1526 770.057 1529.17 Q773.437 1532.34 773.437 1537.76 Q773.437 1543.34 769.965 1546.44 Q766.492 1549.52 760.173 1549.52 Q757.997 1549.52 755.728 1549.15 Q753.483 1548.78 751.076 1548.04 L751.076 1543.34 Q753.159 1544.47 755.381 1545.03 Q757.603 1545.58 760.08 1545.58 Q764.085 1545.58 766.423 1543.48 Q768.761 1541.37 768.761 1537.76 Q768.761 1534.15 766.423 1532.04 Q764.085 1529.94 760.08 1529.94 Q758.205 1529.94 756.33 1530.35 Q754.478 1530.77 752.534 1531.65 L752.534 1514.29 Z" fill="#000000" fill-rule="nonzero" fill-opacity="1" /><path clip-path="url(#clip260)" d="M792.65 1517.37 Q789.038 1517.37 787.21 1520.93 Q785.404 1524.47 785.404 1531.6 Q785.404 1538.71 787.21 1542.27 Q789.038 1545.82 792.65 1545.82 Q796.284 1545.82 798.089 1542.27 Q799.918 1538.71 799.918 1531.6 Q799.918 1524.47 798.089 1520.93 Q796.284 1517.37 792.65 1517.37 M792.65 1513.66 Q798.46 1513.66 801.515 1518.27 Q804.594 1522.85 804.594 1531.6 Q804.594 1540.33 801.515 1544.94 Q798.46 1549.52 792.65 1549.52 Q786.839 1549.52 783.761 1544.94 Q780.705 1540.33 780.705 1531.6 Q780.705 1522.85 783.761 1518.27 Q786.839 1513.66 792.65 1513.66 Z" fill="#000000" fill-rule="nonzero" fill-opacity="1" /><path clip-path="url(#clip260)" d="M1231.94 1514.29 L1250.3 1514.29 L1250.3 1518.22 L1236.23 1518.22 L1236.23 1526.7 Q1237.25 1526.35 1238.26 1526.19 Q1239.28 1526 1240.3 1526 Q1246.09 1526 1249.47 1529.17 Q1252.85 1532.34 1252.85 1537.76 Q1252.85 1543.34 1249.38 1546.44 Q1245.9 1549.52 1239.58 1549.52 Q1237.41 1549.52 1235.14 1549.15 Q1232.89 1548.78 1230.49 1548.04 L1230.49 1543.34 Q1232.57 1544.47 1234.79 1545.03 Q1237.01 1545.58 1239.49 1545.58 Q1243.5 1545.58 1245.83 1543.48 Q1248.17 1541.37 1248.17 1537.76 Q1248.17 1534.15 1245.83 1532.04 Q1243.5 1529.94 1239.49 1529.94 Q1237.62 1529.94 1235.74 1530.35 Q1233.89 1530.77 1231.94 1531.65 L1231.94 1514.29 Z" fill="#000000" fill-rule="nonzero" fill-opacity="1" /><path clip-path="url(#clip260)" d="M1272.06 1517.37 Q1268.45 1517.37 1266.62 1520.93 Q1264.82 1524.47 1264.82 1531.6 Q1264.82 1538.71 1266.62 1542.27 Q1268.45 1545.82 1272.06 1545.82 Q1275.69 1545.82 1277.5 1542.27 Q1279.33 1538.71 1279.33 1531.6 Q1279.33 1524.47 1277.5 1520.93 Q1275.69 1517.37 1272.06 1517.37 M1272.06 1513.66 Q1277.87 1513.66 1280.93 1518.27 Q1284 1522.85 1284 1531.6 Q1284 1540.33 1280.93 1544.94 Q1277.87 1549.52 1272.06 1549.52 Q1266.25 1549.52 1263.17 1544.94 Q1260.12 1540.33 1260.12 1531.6 Q1260.12 1522.85 1263.17 1518.27 Q1266.25 1513.66 1272.06 1513.66 Z" fill="#000000" fill-rule="nonzero" fill-opacity="1" /><path clip-path="url(#clip260)" d="M1302.22 1517.37 Q1298.61 1517.37 1296.78 1520.93 Q1294.98 1524.47 1294.98 1531.6 Q1294.98 1538.71 1296.78 1542.27 Q1298.61 1545.82 1302.22 1545.82 Q1305.86 1545.82 1307.66 1542.27 Q1309.49 1538.71 1309.49 1531.6 Q1309.49 1524.47 1307.66 1520.93 Q1305.86 1517.37 1302.22 1517.37 M1302.22 1513.66 Q1308.03 1513.66 1311.09 1518.27 Q1314.17 1522.85 1314.17 1531.6 Q1314.17 1540.33 1311.09 1544.94 Q1308.03 1549.52 1302.22 1549.52 Q1296.41 1549.52 1293.33 1544.94 Q1290.28 1540.33 1290.28 1531.6 Q1290.28 1522.85 1293.33 1518.27 Q1296.41 1513.66 1302.22 1513.66 Z" fill="#000000" fill-rule="nonzero" fill-opacity="1" /><path clip-path="url(#clip260)" d="M1740.27 1514.29 L1762.49 1514.29 L1762.49 1516.28 L1749.94 1548.85 L1745.06 1548.85 L1756.86 1518.22 L1740.27 1518.22 L1740.27 1514.29 Z" fill="#000000" fill-rule="nonzero" fill-opacity="1" /><path clip-path="url(#clip260)" d="M1771.66 1514.29 L1790.01 1514.29 L1790.01 1518.22 L1775.94 1518.22 L1775.94 1526.7 Q1776.96 1526.35 1777.98 1526.19 Q1778.99 1526 1780.01 1526 Q1785.8 1526 1789.18 1529.17 Q1792.56 1532.34 1792.56 1537.76 Q1792.56 1543.34 1789.09 1546.44 Q1785.61 1549.52 1779.3 1549.52 Q1777.12 1549.52 1774.85 1549.15 Q1772.61 1548.78 1770.2 1548.04 L1770.2 1543.34 Q1772.28 1544.47 1774.5 1545.03 Q1776.73 1545.58 1779.2 1545.58 Q1783.21 1545.58 1785.55 1543.48 Q1787.88 1541.37 1787.88 1537.76 Q1787.88 1534.15 1785.55 1532.04 Q1783.21 1529.94 1779.2 1529.94 Q1777.33 1529.94 1775.45 1530.35 Q1773.6 1530.77 1771.66 1531.65 L1771.66 1514.29 Z" fill="#000000" fill-rule="nonzero" fill-opacity="1" /><path clip-path="url(#clip260)" d="M1811.77 1517.37 Q1808.16 1517.37 1806.33 1520.93 Q1804.53 1524.47 1804.53 1531.6 Q1804.53 1538.71 1806.33 1542.27 Q1808.16 1545.82 1811.77 1545.82 Q1815.41 1545.82 1817.21 1542.27 Q1819.04 1538.71 1819.04 1531.6 Q1819.04 1524.47 1817.21 1520.93 Q1815.41 1517.37 1811.77 1517.37 M1811.77 1513.66 Q1817.58 1513.66 1820.64 1518.27 Q1823.72 1522.85 1823.72 1531.6 Q1823.72 1540.33 1820.64 1544.94 Q1817.58 1549.52 1811.77 1549.52 Q1805.96 1549.52 1802.88 1544.94 Q1799.83 1540.33 1799.83 1531.6 Q1799.83 1522.85 1802.88 1518.27 Q1805.96 1513.66 1811.77 1513.66 Z" fill="#000000" fill-rule="nonzero" fill-opacity="1" /><path clip-path="url(#clip260)" d="M2236.18 1544.91 L2243.82 1544.91 L2243.82 1518.55 L2235.51 1520.21 L2235.51 1515.95 L2243.78 1514.29 L2248.45 1514.29 L2248.45 1544.91 L2256.09 1544.91 L2256.09 1548.85 L2236.18 1548.85 L2236.18 1544.91 Z" fill="#000000" fill-rule="nonzero" fill-opacity="1" /><path clip-path="url(#clip260)" d="M2275.53 1517.37 Q2271.92 1517.37 2270.09 1520.93 Q2268.29 1524.47 2268.29 1531.6 Q2268.29 1538.71 2270.09 1542.27 Q2271.92 1545.82 2275.53 1545.82 Q2279.17 1545.82 2280.97 1542.27 Q2282.8 1538.71 2282.8 1531.6 Q2282.8 1524.47 2280.97 1520.93 Q2279.17 1517.37 2275.53 1517.37 M2275.53 1513.66 Q2281.34 1513.66 2284.4 1518.27 Q2287.48 1522.85 2287.48 1531.6 Q2287.48 1540.33 2284.4 1544.94 Q2281.34 1549.52 2275.53 1549.52 Q2269.72 1549.52 2266.65 1544.94 Q2263.59 1540.33 2263.59 1531.6 Q2263.59 1522.85 2266.65 1518.27 Q2269.72 1513.66 2275.53 1513.66 Z" fill="#000000" fill-rule="nonzero" fill-opacity="1" /><path clip-path="url(#clip260)" d="M2305.7 1517.37 Q2302.09 1517.37 2300.26 1520.93 Q2298.45 1524.47 2298.45 1531.6 Q2298.45 1538.71 2300.26 1542.27 Q2302.09 1545.82 2305.7 1545.82 Q2309.33 1545.82 2311.14 1542.27 Q2312.96 1538.71 2312.96 1531.6 Q2312.96 1524.47 2311.14 1520.93 Q2309.33 1517.37 2305.7 1517.37 M2305.7 1513.66 Q2311.51 1513.66 2314.56 1518.27 Q2317.64 1522.85 2317.64 1531.6 Q2317.64 1540.33 2314.56 1544.94 Q2311.51 1549.52 2305.7 1549.52 Q2299.89 1549.52 2296.81 1544.94 Q2293.75 1540.33 2293.75 1531.6 Q2293.75 1522.85 2296.81 1518.27 Q2299.89 1513.66 2305.7 1513.66 Z" fill="#000000" fill-rule="nonzero" fill-opacity="1" /><path clip-path="url(#clip260)" d="M2335.86 1517.37 Q2332.25 1517.37 2330.42 1520.93 Q2328.61 1524.47 2328.61 1531.6 Q2328.61 1538.71 2330.42 1542.27 Q2332.25 1545.82 2335.86 1545.82 Q2339.49 1545.82 2341.3 1542.27 Q2343.13 1538.71 2343.13 1531.6 Q2343.13 1524.47 2341.3 1520.93 Q2339.49 1517.37 2335.86 1517.37 M2335.86 1513.66 Q2341.67 1513.66 2344.72 1518.27 Q2347.8 1522.85 2347.8 1531.6 Q2347.8 1540.33 2344.72 1544.94 Q2341.67 1549.52 2335.86 1549.52 Q2330.05 1549.52 2326.97 1544.94 Q2323.91 1540.33 2323.91 1531.6 Q2323.91 1522.85 2326.97 1518.27 Q2330.05 1513.66 2335.86 1513.66 Z" fill="#000000" fill-rule="nonzero" fill-opacity="1" /><polyline clip-path="url(#clip262)" style="stroke:#000000; stroke-linecap:round; stroke-linejoin:round; stroke-width:2; stroke-opacity:0.1; fill:none" points="193.936,1445.72 2352.76,1445.72 "/>
<polyline clip-path="url(#clip262)" style="stroke:#000000; stroke-linecap:round; stroke-linejoin:round; stroke-width:2; stroke-opacity:0.1; fill:none" points="193.936,1106.28 2352.76,1106.28 "/>
<polyline clip-path="url(#clip262)" style="stroke:#000000; stroke-linecap:round; stroke-linejoin:round; stroke-width:2; stroke-opacity:0.1; fill:none" points="193.936,766.846 2352.76,766.846 "/>
<polyline clip-path="url(#clip262)" style="stroke:#000000; stroke-linecap:round; stroke-linejoin:round; stroke-width:2; stroke-opacity:0.1; fill:none" points="193.936,427.411 2352.76,427.411 "/>
<polyline clip-path="url(#clip262)" style="stroke:#000000; stroke-linecap:round; stroke-linejoin:round; stroke-width:2; stroke-opacity:0.1; fill:none" points="193.936,87.9763 2352.76,87.9763 "/>
<polyline clip-path="url(#clip260)" style="stroke:#000000; stroke-linecap:round; stroke-linejoin:round; stroke-width:4; stroke-opacity:1; fill:none" points="193.936,1486.45 193.936,47.2441 "/>
<polyline clip-path="url(#clip260)" style="stroke:#000000; stroke-linecap:round; stroke-linejoin:round; stroke-width:4; stroke-opacity:1; fill:none" points="193.936,1445.72 212.834,1445.72 "/>
<polyline clip-path="url(#clip260)" style="stroke:#000000; stroke-linecap:round; stroke-linejoin:round; stroke-width:4; stroke-opacity:1; fill:none" points="193.936,1106.28 212.834,1106.28 "/>
<polyline clip-path="url(#clip260)" style="stroke:#000000; stroke-linecap:round; stroke-linejoin:round; stroke-width:4; stroke-opacity:1; fill:none" points="193.936,766.846 212.834,766.846 "/>
<polyline clip-path="url(#clip260)" style="stroke:#000000; stroke-linecap:round; stroke-linejoin:round; stroke-width:4; stroke-opacity:1; fill:none" points="193.936,427.411 212.834,427.411 "/>
<polyline clip-path="url(#clip260)" style="stroke:#000000; stroke-linecap:round; stroke-linejoin:round; stroke-width:4; stroke-opacity:1; fill:none" points="193.936,87.9763 212.834,87.9763 "/>
<path clip-path="url(#clip260)" d="M50.9921 1446.17 L80.6679 1446.17 L80.6679 1450.1 L50.9921 1450.1 L50.9921 1446.17 Z" fill="#000000" fill-rule="nonzero" fill-opacity="1" /><path clip-path="url(#clip260)" d="M91.5706 1459.06 L99.2095 1459.06 L99.2095 1432.69 L90.8993 1434.36 L90.8993 1430.1 L99.1632 1428.44 L103.839 1428.44 L103.839 1459.06 L111.478 1459.06 L111.478 1463 L91.5706 1463 L91.5706 1459.06 Z" fill="#000000" fill-rule="nonzero" fill-opacity="1" /><path clip-path="url(#clip260)" d="M120.922 1457.12 L125.807 1457.12 L125.807 1463 L120.922 1463 L120.922 1457.12 Z" fill="#000000" fill-rule="nonzero" fill-opacity="1" /><path clip-path="url(#clip260)" d="M145.992 1431.51 Q142.381 1431.51 140.552 1435.08 Q138.746 1438.62 138.746 1445.75 Q138.746 1452.86 140.552 1456.42 Q142.381 1459.96 145.992 1459.96 Q149.626 1459.96 151.431 1456.42 Q153.26 1452.86 153.26 1445.75 Q153.26 1438.62 151.431 1435.08 Q149.626 1431.51 145.992 1431.51 M145.992 1427.81 Q151.802 1427.81 154.857 1432.42 Q157.936 1437 157.936 1445.75 Q157.936 1454.48 154.857 1459.08 Q151.802 1463.67 145.992 1463.67 Q140.181 1463.67 137.103 1459.08 Q134.047 1454.48 134.047 1445.75 Q134.047 1437 137.103 1432.42 Q140.181 1427.81 145.992 1427.81 Z" fill="#000000" fill-rule="nonzero" fill-opacity="1" /><path clip-path="url(#clip260)" d="M51.9875 1106.73 L81.6633 1106.73 L81.6633 1110.67 L51.9875 1110.67 L51.9875 1106.73 Z" fill="#000000" fill-rule="nonzero" fill-opacity="1" /><path clip-path="url(#clip260)" d="M101.756 1092.08 Q98.1447 1092.08 96.316 1095.64 Q94.5104 1099.19 94.5104 1106.32 Q94.5104 1113.42 96.316 1116.99 Q98.1447 1120.53 101.756 1120.53 Q105.39 1120.53 107.196 1116.99 Q109.024 1113.42 109.024 1106.32 Q109.024 1099.19 107.196 1095.64 Q105.39 1092.08 101.756 1092.08 M101.756 1088.38 Q107.566 1088.38 110.621 1092.98 Q113.7 1097.57 113.7 1106.32 Q113.7 1115.04 110.621 1119.65 Q107.566 1124.23 101.756 1124.23 Q95.9456 1124.23 92.8669 1119.65 Q89.8114 1115.04 89.8114 1106.32 Q89.8114 1097.57 92.8669 1092.98 Q95.9456 1088.38 101.756 1088.38 Z" fill="#000000" fill-rule="nonzero" fill-opacity="1" /><path clip-path="url(#clip260)" d="M121.918 1117.68 L126.802 1117.68 L126.802 1123.56 L121.918 1123.56 L121.918 1117.68 Z" fill="#000000" fill-rule="nonzero" fill-opacity="1" /><path clip-path="url(#clip260)" d="M137.033 1089 L155.39 1089 L155.39 1092.94 L141.316 1092.94 L141.316 1101.41 Q142.334 1101.06 143.353 1100.9 Q144.371 1100.71 145.39 1100.71 Q151.177 1100.71 154.556 1103.89 Q157.936 1107.06 157.936 1112.47 Q157.936 1118.05 154.464 1121.15 Q150.992 1124.23 144.672 1124.23 Q142.496 1124.23 140.228 1123.86 Q137.982 1123.49 135.575 1122.75 L135.575 1118.05 Q137.658 1119.19 139.881 1119.74 Q142.103 1120.3 144.58 1120.3 Q148.584 1120.3 150.922 1118.19 Q153.26 1116.08 153.26 1112.47 Q153.26 1108.86 150.922 1106.76 Q148.584 1104.65 144.58 1104.65 Q142.705 1104.65 140.83 1105.07 Q138.978 1105.48 137.033 1106.36 L137.033 1089 Z" fill="#000000" fill-rule="nonzero" fill-opacity="1" /><path clip-path="url(#clip260)" d="M100.76 752.645 Q97.1493 752.645 95.3206 756.209 Q93.515 759.751 93.515 766.881 Q93.515 773.987 95.3206 777.552 Q97.1493 781.094 100.76 781.094 Q104.395 781.094 106.2 777.552 Q108.029 773.987 108.029 766.881 Q108.029 759.751 106.2 756.209 Q104.395 752.645 100.76 752.645 M100.76 748.941 Q106.571 748.941 109.626 753.547 Q112.705 758.131 112.705 766.881 Q112.705 775.608 109.626 780.214 Q106.571 784.797 100.76 784.797 Q94.9502 784.797 91.8715 780.214 Q88.816 775.608 88.816 766.881 Q88.816 758.131 91.8715 753.547 Q94.9502 748.941 100.76 748.941 Z" fill="#000000" fill-rule="nonzero" fill-opacity="1" /><path clip-path="url(#clip260)" d="M120.922 778.246 L125.807 778.246 L125.807 784.126 L120.922 784.126 L120.922 778.246 Z" fill="#000000" fill-rule="nonzero" fill-opacity="1" /><path clip-path="url(#clip260)" d="M145.992 752.645 Q142.381 752.645 140.552 756.209 Q138.746 759.751 138.746 766.881 Q138.746 773.987 140.552 777.552 Q142.381 781.094 145.992 781.094 Q149.626 781.094 151.431 777.552 Q153.26 773.987 153.26 766.881 Q153.26 759.751 151.431 756.209 Q149.626 752.645 145.992 752.645 M145.992 748.941 Q151.802 748.941 154.857 753.547 Q157.936 758.131 157.936 766.881 Q157.936 775.608 154.857 780.214 Q151.802 784.797 145.992 784.797 Q140.181 784.797 137.103 780.214 Q134.047 775.608 134.047 766.881 Q134.047 758.131 137.103 753.547 Q140.181 748.941 145.992 748.941 Z" fill="#000000" fill-rule="nonzero" fill-opacity="1" /><path clip-path="url(#clip260)" d="M101.756 413.21 Q98.1447 413.21 96.316 416.775 Q94.5104 420.316 94.5104 427.446 Q94.5104 434.552 96.316 438.117 Q98.1447 441.659 101.756 441.659 Q105.39 441.659 107.196 438.117 Q109.024 434.552 109.024 427.446 Q109.024 420.316 107.196 416.775 Q105.39 413.21 101.756 413.21 M101.756 409.506 Q107.566 409.506 110.621 414.113 Q113.7 418.696 113.7 427.446 Q113.7 436.173 110.621 440.779 Q107.566 445.362 101.756 445.362 Q95.9456 445.362 92.8669 440.779 Q89.8114 436.173 89.8114 427.446 Q89.8114 418.696 92.8669 414.113 Q95.9456 409.506 101.756 409.506 Z" fill="#000000" fill-rule="nonzero" fill-opacity="1" /><path clip-path="url(#clip260)" d="M121.918 438.812 L126.802 438.812 L126.802 444.691 L121.918 444.691 L121.918 438.812 Z" fill="#000000" fill-rule="nonzero" fill-opacity="1" /><path clip-path="url(#clip260)" d="M137.033 410.131 L155.39 410.131 L155.39 414.066 L141.316 414.066 L141.316 422.538 Q142.334 422.191 143.353 422.029 Q144.371 421.844 145.39 421.844 Q151.177 421.844 154.556 425.015 Q157.936 428.187 157.936 433.603 Q157.936 439.182 154.464 442.284 Q150.992 445.362 144.672 445.362 Q142.496 445.362 140.228 444.992 Q137.982 444.622 135.575 443.881 L135.575 439.182 Q137.658 440.316 139.881 440.872 Q142.103 441.427 144.58 441.427 Q148.584 441.427 150.922 439.321 Q153.26 437.214 153.26 433.603 Q153.26 429.992 150.922 427.886 Q148.584 425.779 144.58 425.779 Q142.705 425.779 140.83 426.196 Q138.978 426.613 137.033 427.492 L137.033 410.131 Z" fill="#000000" fill-rule="nonzero" fill-opacity="1" /><path clip-path="url(#clip260)" d="M91.5706 101.321 L99.2095 101.321 L99.2095 74.9555 L90.8993 76.6222 L90.8993 72.3629 L99.1632 70.6963 L103.839 70.6963 L103.839 101.321 L111.478 101.321 L111.478 105.256 L91.5706 105.256 L91.5706 101.321 Z" fill="#000000" fill-rule="nonzero" fill-opacity="1" /><path clip-path="url(#clip260)" d="M120.922 99.3767 L125.807 99.3767 L125.807 105.256 L120.922 105.256 L120.922 99.3767 Z" fill="#000000" fill-rule="nonzero" fill-opacity="1" /><path clip-path="url(#clip260)" d="M145.992 73.775 Q142.381 73.775 140.552 77.3398 Q138.746 80.8814 138.746 88.011 Q138.746 95.1174 140.552 98.6822 Q142.381 102.224 145.992 102.224 Q149.626 102.224 151.431 98.6822 Q153.26 95.1174 153.26 88.011 Q153.26 80.8814 151.431 77.3398 Q149.626 73.775 145.992 73.775 M145.992 70.0713 Q151.802 70.0713 154.857 74.6777 Q157.936 79.261 157.936 88.011 Q157.936 96.7378 154.857 101.344 Q151.802 105.928 145.992 105.928 Q140.181 105.928 137.103 101.344 Q134.047 96.7378 134.047 88.011 Q134.047 79.261 137.103 74.6777 Q140.181 70.0713 145.992 70.0713 Z" fill="#000000" fill-rule="nonzero" fill-opacity="1" /><polyline clip-path="url(#clip262)" style="stroke:#009af9; stroke-linecap:round; stroke-linejoin:round; stroke-width:4; stroke-opacity:1; fill:none" points="255.035,766.846 257.073,699.058 259.112,632.017 261.151,566.301 263.189,502.491 265.228,441.333 267.267,383.656 269.305,329.625 271.344,279.903 273.383,235.153 275.421,195.707 277.46,161.896 279.499,134.052 281.537,112.837 283.576,97.9207 285.615,89.6337 287.653,88.3078 289.692,93.6114 291.731,105.876 293.769,124.439 295.808,149.631 297.847,180.79 299.885,217.916 301.924,260.677 303.963,308.41 306.001,360.452 308.04,416.804 310.079,476.636 312.117,539.451 314.156,604.421 316.195,671.048 318.233,738.608 320.272,806.478 322.31,873.914 324.349,940.375 326.388,1005.01 328.426,1067.33 330.465,1126.5 332.504,1182.19 334.542,1233.9 336.581,1280.64 338.62,1322.41 340.658,1358.54 342.697,1388.7 344.736,1412.9 346.774,1430.47 348.813,1441.41 350.852,1445.72 352.89,1443.06 354.929,1433.78 356.968,1417.87 359.006,1395.33 361.045,1366.49 363.084,1331.69 365.122,1291.58 367.161,1245.83 369.2,1195.45 371.238,1140.75 373.277,1082.25 375.316,1020.59 377.354,956.452 379.393,890.488 381.432,823.239 383.47,755.431 385.509,687.705 387.548,620.829 389.586,555.362 391.625,492.05 393.664,431.389 395.702,374.043 397.741,320.675 399.78,271.947 401.818,228.192 403.857,189.409 405.896,156.593 407.934,130.074 409.973,109.854 412.012,95.9318 414.05,88.9707 416.089,88.6392 418.128,95.2688 420.166,108.528 422.205,128.085 424.244,154.272 426.282,186.757 428.321,224.877 430.36,268.301 432.398,316.697 434.437,369.734 436.476,426.748 438.514,487.077 440.553,550.224 442.592,615.526 444.63,682.36 446.669,750.023 448.707,817.852 450.746,885.184 452.785,951.314 454.823,1015.62 456.862,1077.44 458.901,1136.11 460.939,1191.14 462.978,1241.86 465.017,1287.93 467.055,1328.7 469.094,1364.17 471.133,1393.34 473.171,1416.21 475.21,1432.79 477.249,1442.73 479.287,1445.72 481.326,1442.07 483.365,1431.46 485.403,1414.56 487.442,1391.02 489.481,1361.19 491.519,1325.39 493.558,1284.29 495.597,1237.55 497.635,1186.5 499.674,1131.14 501.713,1072.14 503.751,1009.99 505.79,945.513 507.829,879.3 509.867,811.886 511.906,744.015 513.945,676.435 515.983,609.642 518.022,544.589 520.061,481.608 522.099,421.445 524.138,364.762 526.177,312.388 528.215,264.323 530.254,221.231 532.293,183.442 534.331,151.952 536.37,126.096 538.409,106.871 540.447,94.2744 542.486,88.3078 544.525,89.3022 546.563,96.9262 548.602,111.18 550.641,132.063 552.679,159.244 554.718,192.724 556.757,231.838 558.795,276.257 560.834,325.315 562.873,379.015 564.911,436.693 566.95,497.519 568.989,560.997 571.027,626.713 573.066,693.713 575.104,761.439 577.143,829.247 579.182,896.454 581.22,962.253 583.259,1026.23 585.298,1087.55 587.336,1145.73 589.375,1200.09 591.414,1250.14 593.452,1295.22 595.491,1335 597.53,1369.48 599.568,1397.65 601.607,1419.53 603.646,1434.78 605.684,1443.73 607.723,1445.72 609.762,1440.74 611.8,1429.14 613.839,1410.91 615.878,1386.38 617.916,1355.55 619.955,1318.76 621.994,1276.66 624.032,1229.26 626.071,1177.55 628.11,1121.53 630.148,1061.86 632.187,999.379 634.226,934.492 636.264,868.03 638.303,800.47 640.342,732.621 642.38,665.082 644.419,598.62 646.458,533.816 648.496,471.332 650.535,411.832 652.574,355.812 654.612,303.769 656.651,256.699 658.69,214.601 660.728,177.807 662.767,146.98 664.806,122.45 666.844,104.55 668.883,92.9485 670.922,87.9763 672.96,89.9652 674.999,98.9151 677.038,114.495 679.076,136.372 681.115,164.548 683.154,199.022 685.192,238.799 687.231,284.212 689.27,334.265 691.308,388.628 693.347,446.637 695.385,507.961 697.424,571.936 699.463,637.901 701.501,705.067 703.54,772.854 705.579,840.6 707.617,907.559 709.656,973.192 711.695,1036.67 713.733,1097.5 715.772,1155.01 717.811,1208.71 719.849,1258.1 721.888,1302.19 723.927,1341.3 725.965,1374.45 728.004,1401.63 730.043,1422.51 732.081,1436.77 734.12,1444.39 736.159,1445.38 738.197,1439.42 740.236,1426.49 742.275,1407.26 744.313,1381.74 746.352,1349.92 748.391,1312.13 750.429,1269.04 752.468,1220.97 754.507,1168.27 756.545,1111.58 758.584,1051.59 760.623,988.606 762.661,923.387 764.7,856.677 766.739,789.076 768.777,721.226 770.816,653.812 772.855,587.516 774.893,523.043 776.932,461.056 778.971,402.219 781.009,346.862 783.048,295.482 785.087,249.075 787.125,207.972 789.164,172.172 791.203,142.67 793.241,119.135 795.28,101.898 797.319,91.6225 799.357,87.9763 801.396,91.2911 803.435,100.904 805.473,117.478 807.512,140.681 809.551,169.852 811.589,205.32 813.628,246.092 815.667,292.168 817.705,342.884 819.744,397.909 821.782,456.747 823.821,518.568 825.86,582.875 827.898,649.088 829.937,716.42 831.976,784.269 834.014,851.953 836.053,918.746 838.092,983.965 840.13,1047.11 842.169,1107.61 844.208,1164.29 846.246,1217.33 848.285,1265.72 850.324,1309.15 852.362,1347.27 854.401,1379.42 856.44,1405.61 858.478,1425.5 860.517,1438.42 862.556,1445.05 864.594,1444.72 866.633,1437.43 868.672,1423.84 870.71,1403.29 872.749,1376.77 874.788,1343.95 876.826,1305.17 878.865,1261.41 880.904,1212.35 882.942,1158.99 884.981,1101.81 887.02,1041.15 889.058,977.833 891.097,912.283 893.136,845.365 895.174,777.66 897.213,709.832 899.252,642.624 901.29,576.577 903.329,512.436 905.368,450.946 907.406,392.606 909.445,337.912 911.484,287.527 913.522,241.783 915.561,201.674 917.6,166.868 919.638,138.03 921.677,115.821 923.716,99.9095 925.754,90.6281 927.793,87.9763 929.832,92.2855 931.87,103.224 933.909,121.124 935.948,144.991 937.986,175.487 940.025,211.618 942.064,253.384 944.102,300.455 946.141,351.834 948.179,407.522 950.218,467.023 952.257,529.341 954.295,593.98 956.334,660.358 958.373,727.814 960.411,795.685 962.45,863.224 964.489,929.851 966.527,994.904 968.566,1057.55 970.605,1117.22 972.643,1173.57 974.682,1225.94 976.721,1273.35 978.759,1316.11 980.798,1353.23 982.837,1384.39 984.875,1409.58 986.914,1428.15 988.953,1440.08 990.991,1445.38 993.03,1444.06 995.069,1435.77 997.107,1420.85 999.146,1399.31 1001.18,1371.46 1003.22,1337.65 1005.26,1298.21 1007.3,1253.46 1009.34,1203.74 1011.38,1149.7 1013.42,1091.86 1015.46,1030.7 1017.49,966.894 1019.53,901.095 1021.57,834.012 1023.61,766.243 1025.65,698.478 1027.69,631.354 1029.73,565.638 1031.76,501.994 1033.8,440.836 1035.84,382.993 1037.88,328.962 1039.92,279.571 1041.96,234.822 1044,195.376 1046.04,161.565 1048.07,134.052 1050.11,112.506 1052.15,97.5892 1054.19,89.6337 1056.23,88.3078 1058.27,93.6114 1060.31,105.876 1062.34,124.77 1064.38,149.963 1066.42,181.122 1068.46,218.248 1070.5,261.008 1072.54,308.742 1074.58,361.115 1076.62,417.467 1078.65,477.299 1080.69,539.948 1082.73,605.001 1084.77,671.629 1086.81,739.23 1088.85,807.079 1090.89,874.494 1092.92,940.873 1094.96,1005.51 1097,1067.83 1099.04,1127.16 1101.08,1182.85 1103.12,1234.23 1105.16,1280.97 1107.2,1322.74 1109.23,1358.87 1111.27,1389.03 1113.31,1412.9 1115.35,1430.47 1117.39,1441.41 1119.43,1445.72 1121.47,1443.06 1123.5,1433.78 1125.54,1417.54 1127.58,1395 1129.62,1366.16 1131.66,1331.36 1133.7,1290.91 1135.74,1245.5 1137.77,1194.79 1139.81,1140.09 1141.85,1081.75 1143.89,1020.1 1145.93,955.955 1147.97,889.908 1150.01,822.659 1152.05,754.83 1154.08,687.125 1156.12,620.249 1158.16,554.699 1160.2,491.387 1162.24,430.892 1164.28,373.711 1166.32,320.343 1168.35,271.616 1170.39,227.529 1172.43,189.077 1174.47,156.593 1176.51,129.743 1178.55,109.522 1180.59,95.9318 1182.63,88.9707 1184.66,88.6392 1186.7,95.2688 1188.74,108.528 1190.78,128.417 1192.82,154.604 1194.86,187.089 1196.9,225.209 1198.93,268.633 1200.97,317.36 1203.01,370.397 1205.05,427.08 1207.09,487.575 1209.13,550.721 1211.17,616.106 1213.21,682.94 1215.24,750.635 1217.28,818.474 1219.32,885.764 1221.36,951.977 1223.4,1016.12 1225.44,1077.94 1227.48,1136.78 1229.51,1191.8 1231.55,1242.52 1233.59,1288.26 1235.63,1329.03 1237.67,1364.17 1239.71,1393.67 1241.75,1416.55 1243.79,1432.79 1245.82,1442.73 1247.86,1445.72 1249.9,1442.07 1251.94,1431.46 1253.98,1414.23 1256.02,1390.69 1258.06,1360.86 1260.09,1325.06 1262.13,1283.62 1264.17,1237.22 1266.21,1186.17 1268.25,1130.48 1270.29,1071.64 1272.33,1009.49 1274.37,945.016 1276.4,878.637 1278.44,811.264 1280.48,743.415 1282.52,675.772 1284.56,609.062 1286.6,543.926 1288.64,481.111 1290.67,421.113 1292.71,364.43 1294.75,311.725 1296.79,263.66 1298.83,220.899 1300.87,183.442 1302.91,151.62 1304.95,126.096 1306.98,106.871 1309.02,94.2744 1311.06,88.3078 1313.1,89.3022 1315.14,96.9262 1317.18,111.511 1319.22,132.395 1321.25,159.576 1323.29,193.055 1325.33,232.17 1327.37,276.588 1329.41,325.978 1331.45,379.678 1333.49,437.19 1335.53,498.016 1337.56,561.66 1339.6,627.293 1341.64,694.293 1343.68,762.042 1345.72,829.827 1347.76,897.034 1349.8,962.916 1351.83,1026.73 1353.87,1088.05 1355.91,1146.06 1357.95,1200.42 1359.99,1250.47 1362.03,1295.56 1364.07,1335.33 1366.11,1369.81 1368.14,1397.98 1370.18,1419.53 1372.22,1435.11 1374.26,1443.73 1376.3,1445.38 1378.34,1440.74 1380.38,1429.14 1382.41,1410.91 1384.45,1386.05 1386.49,1355.22 1388.53,1318.43 1390.57,1276.33 1392.61,1228.93 1394.65,1176.89 1396.68,1120.87 1398.72,1061.37 1400.76,998.716 1402.8,933.912 1404.84,867.367 1406.88,799.87 1408.92,732.02 1410.96,664.502 1412.99,598.04 1415.03,533.153 1417.07,470.669 1419.11,411.169 1421.15,355.149 1423.19,303.438 1425.23,256.368 1427.26,214.27 1429.3,177.476 1431.34,146.98 1433.38,122.45 1435.42,104.219 1437.46,92.9485 1439.5,87.9763 1441.54,90.2966 1443.57,98.9151 1445.61,114.495 1447.65,136.704 1449.69,164.879 1451.73,199.353 1453.77,239.131 1455.81,284.544 1457.84,334.597 1459.88,388.96 1461.92,447.134 1463.96,508.624 1466,572.599 1468.04,638.481 1470.08,705.647 1472.12,773.46 1474.15,841.18 1476.19,908.222 1478.23,973.855 1480.27,1037.33 1482.31,1098.16 1484.35,1155.67 1486.39,1209.37 1488.42,1258.43 1490.46,1302.85 1492.5,1341.63 1494.54,1374.78 1496.58,1401.96 1498.62,1422.84 1500.66,1436.77 1502.7,1444.39 1504.73,1445.05 1506.77,1439.09 1508.81,1426.49 1510.85,1406.93 1512.89,1381.41 1514.93,1349.59 1516.97,1311.8 1519,1268.71 1521.04,1220.64 1523.08,1167.94 1525.12,1111.25 1527.16,1050.92 1529.2,987.943 1531.24,922.807 1533.28,856.097 1535.31,788.475 1537.35,720.605 1539.39,653.231 1541.43,587.018 1543.47,522.546 1545.51,460.559 1547.55,401.556 1549.58,346.199 1551.62,295.151 1553.66,248.744 1555.7,207.64 1557.74,171.841 1559.78,142.339 1561.82,118.804 1563.86,101.898 1565.89,91.6225 1567.93,87.9763 1569.97,91.2911 1572.01,101.235 1574.05,117.809 1576.09,141.013 1578.13,170.183 1580.16,205.651 1582.2,246.423 1584.24,292.499 1586.28,343.547 1588.32,398.572 1590.36,457.244 1592.4,519.231 1594.44,583.538 1596.47,649.668 1598.51,717.041 1600.55,784.87 1602.59,852.533 1604.63,919.326 1606.67,984.628 1608.71,1047.77 1610.74,1107.94 1612.78,1164.95 1614.82,1217.66 1616.86,1266.39 1618.9,1309.48 1620.94,1347.6 1622.98,1379.75 1625.02,1405.94 1627.05,1425.5 1629.09,1438.75 1631.13,1445.05 1633.17,1444.72 1635.21,1437.43 1637.25,1423.51 1639.29,1403.29 1641.32,1376.44 1643.36,1343.62 1645.4,1304.84 1647.44,1260.75 1649.48,1212.02 1651.52,1158.65 1653.56,1101.31 1655.59,1040.65 1657.63,977.17 1659.67,911.702 1661.71,844.785 1663.75,777.055 1665.79,709.251 1667.83,641.961 1669.87,576.08 1671.9,511.938 1673.94,450.449 1675.98,391.943 1678.02,337.249 1680.06,286.864 1682.1,241.451 1684.14,201.342 1686.17,166.537 1688.21,138.03 1690.25,115.489 1692.29,99.5781 1694.33,90.6281 1696.37,87.9763 1698.41,92.2855 1700.45,103.556 1702.48,121.124 1704.52,145.322 1706.56,175.818 1708.6,211.95 1710.64,253.716 1712.68,300.786 1714.72,352.497 1716.75,408.185 1718.79,467.52 1720.83,529.838 1722.87,594.477 1724.91,660.938 1726.95,728.415 1728.99,796.285 1731.03,863.804 1733.06,930.431 1735.1,995.401 1737.14,1058.05 1739.18,1117.88 1741.22,1174.23 1743.26,1226.28 1745.3,1274.01 1747.33,1316.44 1749.37,1353.56 1751.41,1384.72 1753.45,1409.58 1755.49,1428.15 1757.53,1440.08 1759.57,1445.38 1761.61,1444.06 1763.64,1435.77 1765.68,1420.52 1767.72,1398.98 1769.76,1371.46 1771.8,1337.32 1773.84,1297.88 1775.88,1253.13 1777.91,1203.4 1779.95,1149.04 1781.99,1091.2 1784.03,1030.04 1786.07,966.231 1788.11,900.515 1790.15,833.432 1792.19,765.64 1794.22,697.857 1796.26,630.774 1798.3,565.141 1800.34,501.331 1802.38,440.339 1804.42,382.661 1806.46,328.63 1808.49,278.908 1810.53,234.159 1812.57,195.044 1814.61,161.233 1816.65,133.72 1818.69,112.506 1820.73,97.5892 1822.77,89.6337 1824.8,88.3078 1826.84,93.9429 1828.88,105.876 1830.92,124.77 1832.96,149.963 1835,181.453 1837.04,218.579 1839.07,261.34 1841.11,309.073 1843.15,361.447 1845.19,417.798 1847.23,477.796 1849.27,540.611 1851.31,605.581 1853.35,672.209 1855.38,739.83 1857.42,807.68 1859.46,875.157 1861.5,941.536 1863.54,1006.17 1865.58,1068.33 1867.62,1127.5 1869.65,1183.18 1871.69,1234.56 1873.73,1281.3 1875.77,1323.07 1877.81,1359.2 1879.85,1389.36 1881.89,1413.23 1883.92,1430.8 1885.96,1441.41 1888,1445.72 1890.04,1443.06 1892.08,1433.45 1894.12,1417.54 1896.16,1395 1898.2,1366.16 1900.23,1331.02 1902.27,1290.58 1904.31,1244.84 1906.35,1194.45 1908.39,1139.76 1910.43,1081.25 1912.47,1019.6 1914.5,955.292 1916.54,889.328 1918.58,822.037 1920.62,754.229 1922.66,686.545 1924.7,619.669 1926.74,554.202 1928.78,490.889 1930.81,430.394 1932.85,373.049 1934.89,320.012 1936.93,271.284 1938.97,227.198 1941.01,188.746 1943.05,156.261 1945.08,129.743 1947.12,109.522 1949.16,95.9318 1951.2,88.9707 1953.24,88.6392 1955.28,95.2688 1957.32,108.859 1959.36,128.748 1961.39,154.935 1963.43,187.42 1965.47,225.54 1967.51,268.964 1969.55,317.691 1971.59,370.728 1973.63,427.743 1975.66,488.238 1977.7,551.384 1979.74,616.686 1981.78,683.562 1983.82,751.235 1985.86,819.054 1987.9,886.344 1989.94,952.474 1991.97,1016.78 1994.01,1078.6 1996.05,1137.11 1998.09,1192.13 2000.13,1242.85 2002.17,1288.93 2004.21,1329.37 2006.24,1364.5 2008.28,1393.67 2010.32,1416.55 2012.36,1433.12 2014.4,1442.73 2016.44,1445.72 2018.48,1441.74 2020.52,1431.46 2022.55,1414.23 2024.59,1390.36 2026.63,1360.53 2028.67,1324.73 2030.71,1283.29 2032.75,1236.88 2034.79,1185.5 2036.82,1130.15 2038.86,1070.98 2040.9,1008.99 2042.94,944.353 2044.98,878.057 2047.02,810.684 2049.06,742.814 2051.1,675.192 2053.13,608.482 2055.17,543.429 2057.21,480.448 2059.25,420.45 2061.29,364.099 2063.33,311.393 2065.37,263.329 2067.4,220.568 2069.44,183.111 2071.48,151.289 2073.52,125.765 2075.56,106.539 2077.6,94.2744 2079.64,88.3078 2081.68,89.3022 2083.71,97.2577 2085.75,111.511 2087.79,132.726 2089.83,159.907 2091.87,193.387 2093.91,232.501 2095.95,276.92 2097.98,326.31 2100.02,380.01 2102.06,437.687 2104.1,498.679 2106.14,562.157 2108.18,627.873 2110.22,694.915 2112.26,762.646 2114.29,830.449 2116.33,897.615 2118.37,963.413 2120.41,1027.39 2122.45,1088.55 2124.49,1146.72 2126.53,1201.08 2128.56,1250.81 2130.6,1295.89 2132.64,1335.66 2134.68,1369.81 2136.72,1397.98 2138.76,1419.86 2140.8,1435.11 2142.83,1443.73 2144.87,1445.38 2146.91,1440.74 2148.95,1428.81 2150.99,1410.58 2153.03,1385.72 2155.07,1354.89 2157.11,1318.1 2159.14,1276 2161.18,1228.6 2163.22,1176.55 2165.26,1120.53 2167.3,1060.7 2169.34,998.219 2171.38,933.331 2173.41,866.787 2175.45,799.269 2177.49,731.419 2179.53,663.922 2181.57,597.46 2183.61,532.656 2185.65,470.172 2187.69,410.837 2189.72,354.817 2191.76,303.106 2193.8,255.705 2195.84,213.607 2197.88,177.144 2199.92,146.648 2201.96,122.119 2203.99,104.219 2206.03,92.617 2208.07,87.9763 2210.11,90.2966 2212.15,99.2466 2214.19,114.826 2216.23,136.704 2218.27,165.211 2220.3,199.685 2222.34,239.462 2224.38,284.875 2226.42,334.928 2228.46,389.622 2230.5,447.797 2232.54,509.121 2234.57,573.096 2236.61,639.061 2238.65,706.268 2240.69,774.061 2242.73,841.802 2244.77,908.802 2246.81,974.352 2248.85,1037.83 2250.88,1098.66 2252.92,1156 2254.96,1209.7 2257,1258.76 2259.04,1303.18 2261.08,1341.96 2263.12,1375.11 2265.15,1402.29 2267.19,1422.84 2269.23,1437.1 2271.27,1444.39 2273.31,1445.05 2275.35,1439.09 2277.39,1426.16 2279.43,1406.93 2281.46,1381.08 2283.5,1349.26 2285.54,1311.47 2287.58,1268.37 2289.62,1219.98 2291.66,1167.27 "/>
<polyline clip-path="url(#clip262)" style="stroke:#e26f46; stroke-linecap:round; stroke-linejoin:round; stroke-width:4; stroke-opacity:1; fill:none" points="255.035,87.9763 257.073,91.2911 259.112,101.567 261.151,118.141 263.189,141.676 265.228,171.178 267.267,206.646 269.305,247.749 271.344,293.825 273.383,344.873 275.421,399.898 277.46,458.902 279.499,520.888 281.537,585.195 283.576,651.491 285.615,718.823 287.653,786.673 289.692,854.274 291.731,921.067 293.769,986.285 295.808,1049.43 297.847,1109.6 299.885,1166.28 301.924,1219.32 303.963,1267.38 306.001,1310.8 308.04,1348.59 310.079,1380.75 312.117,1406.6 314.156,1426.16 316.195,1439.09 318.233,1445.05 320.272,1444.72 322.31,1437.1 324.349,1423.18 326.388,1402.62 328.426,1375.77 330.465,1342.63 332.504,1303.84 334.542,1259.76 336.581,1210.7 338.62,1157 340.658,1099.65 342.697,1038.99 344.736,975.512 346.774,909.962 348.813,843.003 350.852,775.257 352.89,707.428 354.929,640.221 356.968,574.256 359.006,510.281 361.045,448.792 363.084,390.617 365.122,335.923 367.161,285.869 369.2,240.457 371.238,200.348 373.277,165.542 375.316,137.367 377.354,115.158 379.393,99.2466 381.432,90.2966 383.47,87.9763 385.509,92.617 387.548,103.887 389.586,121.787 391.625,145.985 393.664,176.481 395.702,212.944 397.741,255.042 399.78,302.112 401.818,353.823 403.857,409.843 405.896,469.178 407.934,531.496 409.973,596.3 412.012,662.761 414.05,730.218 416.089,798.067 418.128,865.627 420.166,932.171 422.205,997.058 424.244,1059.71 426.282,1119.54 428.321,1175.56 430.36,1227.6 432.398,1275 434.437,1317.43 436.476,1354.23 438.514,1385.39 440.553,1410.25 442.592,1428.48 444.63,1440.41 446.669,1445.38 448.707,1443.73 450.746,1435.44 452.785,1420.19 454.823,1398.65 456.862,1370.47 458.901,1336.33 460.939,1296.88 462.978,1251.8 465.017,1201.75 467.055,1147.72 469.094,1089.71 471.133,1028.38 473.171,964.573 475.21,898.775 477.249,831.65 479.287,763.842 481.326,696.075 483.365,629.033 485.403,563.318 487.442,499.674 489.481,438.681 491.519,381.004 493.558,327.304 495.597,277.914 497.635,233.164 499.674,194.05 501.713,160.57 503.751,133.057 505.79,111.843 507.829,97.2577 509.867,89.6337 511.906,88.3078 513.945,93.9429 515.983,106.539 518.022,125.433 520.061,150.957 522.099,182.448 524.138,219.905 526.177,262.666 528.215,310.399 530.254,363.104 532.293,419.456 534.331,479.453 536.37,542.269 538.409,607.322 540.447,674.032 542.486,741.612 544.525,809.483 546.563,876.897 548.602,943.193 550.641,1007.83 552.679,1069.98 554.718,1129.15 556.757,1184.51 558.795,1235.89 560.834,1282.63 562.873,1324.06 564.911,1359.86 566.95,1390.03 568.989,1413.89 571.027,1431.13 573.066,1441.74 575.104,1445.72 577.143,1442.73 579.182,1433.12 581.22,1416.88 583.259,1394.34 585.298,1365.17 587.336,1330.03 589.375,1289.59 591.414,1243.84 593.452,1193.13 595.491,1138.1 597.53,1079.6 599.568,1017.94 601.607,953.635 603.646,887.587 605.684,820.256 607.723,752.427 609.762,684.722 611.8,617.846 613.839,552.545 615.878,489.232 617.916,428.737 619.955,371.723 621.994,318.686 624.032,269.958 626.071,226.203 628.11,188.083 630.148,155.267 632.187,129.08 634.226,108.859 636.264,95.6003 638.303,88.9707 640.342,88.9707 642.38,95.6003 644.419,109.191 646.458,129.08 648.496,155.598 650.535,188.415 652.574,226.535 654.612,270.29 656.651,319.017 658.69,372.054 660.728,429.4 662.767,489.729 664.806,553.042 666.844,618.426 668.883,685.343 670.922,753.027 672.96,820.877 674.999,888.167 677.038,954.298 679.076,1018.44 681.115,1080.09 683.154,1138.77 685.192,1193.46 687.231,1244.18 689.27,1289.92 691.308,1330.36 693.347,1365.5 695.385,1394.34 697.424,1417.21 699.463,1433.45 701.501,1442.73 703.54,1445.72 705.579,1441.74 707.617,1430.8 709.656,1413.56 711.695,1389.7 713.733,1359.86 715.772,1323.73 717.811,1282.3 719.849,1235.56 721.888,1184.18 723.927,1128.49 725.965,1069.49 728.004,1007.17 730.043,942.696 732.081,876.317 734.12,808.882 736.159,741.011 738.197,673.452 740.236,606.741 742.275,541.772 744.313,478.956 746.352,418.793 748.391,362.441 750.429,310.067 752.468,262.334 754.507,219.242 756.545,182.116 758.584,150.626 760.623,125.102 762.661,106.208 764.7,93.9429 766.739,88.3078 768.777,89.6337 770.816,97.5892 772.855,112.174 774.893,133.389 776.932,160.902 778.971,194.381 781.009,233.496 783.048,278.245 785.087,327.636 787.125,381.667 789.164,439.344 791.203,500.337 793.241,563.981 795.28,629.614 797.319,696.697 799.357,764.444 801.396,832.23 803.435,899.355 805.473,965.236 807.512,1029.05 809.551,1090.2 811.589,1148.05 813.628,1202.41 815.667,1252.13 817.705,1297.21 819.744,1336.66 821.782,1370.8 823.821,1398.65 825.86,1420.19 827.898,1435.44 829.937,1443.73 831.976,1445.38 834.014,1440.41 836.053,1428.48 838.092,1409.92 840.13,1385.05 842.169,1353.9 844.208,1317.1 846.246,1274.67 848.285,1227.27 850.324,1174.9 852.362,1118.88 854.401,1059.21 856.44,996.561 858.478,931.591 860.517,865.047 862.556,797.466 864.594,729.617 866.633,662.099 868.672,595.637 870.71,530.998 872.749,468.515 874.788,409.18 876.826,353.491 878.865,301.78 880.904,254.71 882.942,212.613 884.981,176.481 887.02,145.985 889.058,121.456 891.097,103.887 893.136,92.617 895.174,87.9763 897.213,90.2966 899.252,99.5781 901.29,115.158 903.329,137.367 905.368,165.874 907.406,200.679 909.445,240.788 911.484,286.201 913.522,336.586 915.561,390.948 917.6,449.289 919.638,510.778 921.677,574.919 923.716,640.801 925.754,708.05 927.793,775.858 929.832,843.583 931.87,910.542 933.909,976.009 935.948,1039.49 937.986,1100.15 940.025,1157.66 942.064,1211.03 944.102,1260.09 946.141,1304.17 948.179,1342.96 950.218,1375.77 952.257,1402.95 954.295,1423.18 956.334,1437.43 958.373,1444.72 960.411,1445.05 962.45,1438.75 964.489,1425.83 966.527,1406.27 968.566,1380.41 970.605,1348.26 972.643,1310.47 974.682,1267.05 976.721,1218.65 978.759,1165.95 980.798,1108.93 982.837,1048.77 984.875,985.788 986.914,920.487 988.953,853.694 990.991,786.061 993.03,718.243 995.069,650.828 997.107,584.698 999.146,520.225 1001.18,458.404 1003.22,399.567 1005.26,344.541 1007.3,293.493 1009.34,247.086 1011.38,206.314 1013.42,170.846 1015.46,141.344 1017.49,118.141 1019.53,101.235 1021.57,91.2911 1023.61,87.9763 1025.65,91.2911 1027.69,101.567 1029.73,118.472 1031.76,141.676 1033.8,171.509 1035.84,206.977 1037.88,248.081 1039.92,294.156 1041.96,345.204 1044,400.561 1046.04,459.399 1048.07,521.386 1050.11,585.858 1052.15,652.071 1054.19,719.444 1056.23,787.273 1058.27,854.937 1060.31,921.647 1062.34,986.948 1064.38,1049.93 1066.42,1109.93 1068.46,1166.94 1070.5,1219.65 1072.54,1267.71 1074.58,1311.14 1076.62,1348.92 1078.65,1380.75 1080.69,1406.6 1082.73,1426.16 1084.77,1439.09 1086.81,1445.05 1088.85,1444.39 1090.89,1437.1 1092.92,1423.18 1094.96,1402.29 1097,1375.44 1099.04,1342.29 1101.08,1303.51 1103.12,1259.09 1105.16,1210.03 1107.2,1156.67 1109.23,1099.15 1111.27,1038.33 1113.31,974.849 1115.35,909.382 1117.39,842.382 1119.43,774.651 1121.47,706.848 1123.5,639.641 1125.54,573.759 1127.58,509.618 1129.62,448.294 1131.66,389.954 1133.7,335.591 1135.74,285.206 1137.77,239.794 1139.81,200.016 1141.85,165.542 1143.89,137.035 1145.93,114.826 1147.97,99.2466 1150.01,90.2966 1152.05,87.9763 1154.08,92.617 1156.12,103.887 1158.16,121.787 1160.2,146.317 1162.24,176.813 1164.28,213.275 1166.32,255.373 1168.35,302.443 1170.39,354.486 1172.43,410.174 1174.47,469.675 1176.51,532.159 1178.55,596.797 1180.59,663.342 1182.63,730.818 1184.66,798.668 1186.7,866.207 1188.74,932.751 1190.78,997.721 1192.82,1060.21 1194.86,1119.87 1196.9,1175.89 1198.93,1227.93 1200.97,1275.34 1203.01,1317.76 1205.05,1354.56 1207.09,1385.72 1209.13,1410.58 1211.17,1428.81 1213.21,1440.41 1215.24,1445.38 1217.28,1443.73 1219.32,1435.11 1221.36,1419.86 1223.4,1398.31 1225.44,1370.14 1227.48,1336 1229.51,1296.22 1231.55,1251.47 1233.59,1201.42 1235.63,1147.05 1237.67,1089.21 1239.71,1027.89 1241.75,964.076 1243.79,898.195 1245.82,831.029 1247.86,763.239 1249.9,695.495 1251.94,628.453 1253.98,562.82 1256.02,499.176 1258.06,438.184 1260.09,380.673 1262.13,326.641 1264.17,277.251 1266.21,232.833 1268.25,193.718 1270.29,160.239 1272.33,132.726 1274.37,111.843 1276.4,97.2577 1278.44,89.3022 1280.48,88.3078 1282.52,94.2744 1284.56,106.539 1286.6,125.765 1288.64,150.957 1290.67,182.779 1292.71,220.237 1294.75,262.997 1296.79,311.062 1298.83,363.436 1300.87,420.119 1302.91,479.951 1304.95,542.766 1306.98,607.902 1309.02,674.612 1311.06,742.213 1313.1,810.063 1315.14,877.477 1317.18,943.856 1319.22,1008.33 1321.25,1070.48 1323.29,1129.48 1325.33,1185.17 1327.37,1236.22 1329.41,1282.96 1331.45,1324.39 1333.49,1360.19 1335.53,1390.36 1337.56,1413.89 1339.6,1431.13 1341.64,1441.74 1343.68,1445.72 1345.72,1442.73 1347.76,1433.12 1349.8,1416.88 1351.83,1394 1353.87,1364.83 1355.91,1329.7 1357.95,1289.26 1359.99,1243.18 1362.03,1192.47 1364.07,1137.77 1366.11,1079.1 1368.14,1017.28 1370.18,953.137 1372.22,886.924 1374.26,819.676 1376.3,751.826 1378.34,684.142 1380.38,617.266 1382.41,551.882 1384.45,488.735 1386.49,428.24 1388.53,371.06 1390.57,318.023 1392.61,269.627 1394.65,225.872 1396.68,187.752 1398.72,155.267 1400.76,128.748 1402.8,108.859 1404.84,95.6003 1406.88,88.6392 1408.92,88.9707 1410.96,95.6003 1412.99,109.191 1415.03,129.411 1417.07,155.93 1419.11,188.415 1421.15,226.866 1423.19,270.621 1425.23,319.349 1427.26,372.717 1429.3,429.897 1431.34,490.392 1433.38,553.705 1435.42,619.089 1437.46,685.924 1439.5,753.628 1441.54,821.457 1443.57,888.748 1445.61,954.795 1447.65,1018.94 1449.69,1080.59 1451.73,1139.1 1453.77,1194.12 1455.81,1244.51 1457.84,1290.25 1459.88,1330.69 1461.92,1365.83 1463.96,1394.67 1466,1417.21 1468.04,1433.45 1470.08,1443.06 1472.12,1445.72 1474.15,1441.74 1476.19,1430.8 1478.23,1413.56 1480.27,1389.36 1482.31,1359.53 1484.35,1323.4 1486.39,1281.63 1488.42,1234.89 1490.46,1183.52 1492.5,1128.16 1494.54,1068.82 1496.58,1006.67 1498.62,942.033 1500.66,875.737 1502.7,808.26 1504.73,740.411 1506.77,672.789 1508.81,606.161 1510.85,541.109 1512.89,478.293 1514.93,418.461 1516.97,362.11 1519,309.736 1521.04,261.671 1523.08,218.911 1525.12,181.785 1527.16,150.294 1529.2,125.102 1531.24,106.208 1533.28,93.9429 1535.31,88.3078 1537.35,89.6337 1539.39,97.5892 1541.43,112.174 1543.47,133.389 1545.51,160.902 1547.55,194.713 1549.58,233.827 1551.62,278.577 1553.66,327.967 1555.7,381.998 1557.74,439.842 1559.78,500.834 1561.82,564.478 1563.86,630.194 1565.89,697.277 1567.93,765.047 1569.97,832.81 1572.01,899.935 1574.05,965.734 1576.09,1029.54 1578.13,1090.7 1580.16,1148.71 1582.2,1202.74 1584.24,1252.46 1586.28,1297.54 1588.32,1336.99 1590.36,1371.13 1592.4,1398.98 1594.44,1420.52 1596.47,1435.44 1598.51,1443.73 1600.55,1445.38 1602.59,1440.41 1604.63,1428.48 1606.67,1409.92 1608.71,1384.72 1610.74,1353.9 1612.78,1316.77 1614.82,1274.34 1616.86,1226.61 1618.9,1174.57 1620.94,1118.21 1622.98,1058.55 1625.02,995.898 1627.05,931.011 1629.09,864.467 1631.13,796.866 1633.17,729.016 1635.21,661.518 1637.25,595.14 1639.29,530.335 1641.32,468.017 1643.36,408.848 1645.4,352.828 1647.44,301.117 1649.48,254.379 1651.52,212.281 1653.56,176.15 1655.59,145.654 1657.63,121.456 1659.67,103.556 1661.71,92.617 1663.75,87.9763 1665.79,90.2966 1667.83,99.5781 1669.87,115.489 1671.9,137.698 1673.94,166.205 1675.98,201.011 1678.02,241.12 1680.06,286.532 1682.1,336.917 1684.14,391.611 1686.17,449.786 1688.21,511.441 1690.25,575.417 1692.29,641.381 1694.33,708.63 1696.37,776.464 1698.41,844.164 1700.45,911.122 1702.48,976.672 1704.52,1039.98 1706.56,1100.65 1708.6,1157.99 1710.64,1211.36 1712.68,1260.42 1714.72,1304.51 1716.75,1343.29 1718.79,1376.11 1720.83,1402.95 1722.87,1423.51 1724.91,1437.43 1726.95,1444.72 1728.99,1445.05 1731.03,1438.75 1733.06,1425.83 1735.1,1405.94 1737.14,1380.08 1739.18,1347.93 1741.22,1310.14 1743.26,1266.72 1745.3,1218.32 1747.33,1165.28 1749.37,1108.6 1751.41,1048.27 1753.45,985.125 1755.49,919.907 1757.53,853.113 1759.57,785.461 1761.61,717.621 1763.64,650.248 1765.68,584.035 1767.72,519.728 1769.76,457.907 1771.8,398.904 1773.84,343.878 1775.88,293.162 1777.91,246.755 1779.95,205.983 1781.99,170.515 1784.03,141.013 1786.07,117.809 1788.11,101.235 1790.15,91.2911 1792.19,87.9763 1794.22,91.6225 1796.26,101.898 1798.3,118.804 1800.34,142.007 1802.38,171.509 1804.42,207.309 1806.46,248.412 1808.49,294.819 1810.53,345.867 1812.57,401.224 1814.61,460.062 1816.65,522.048 1818.69,586.355 1820.73,652.651 1822.77,720.025 1824.8,787.874 1826.84,855.517 1828.88,922.227 1830.92,987.445 1832.96,1050.43 1835,1110.59 1837.04,1167.27 1839.07,1219.98 1841.11,1268.37 1843.15,1311.47 1845.19,1349.26 1847.23,1381.08 1849.27,1406.93 1851.31,1426.16 1853.35,1439.09 1855.38,1445.05 1857.42,1444.39 1859.46,1437.1 1861.5,1422.84 1863.54,1402.29 1865.58,1375.11 1867.62,1341.96 1869.65,1303.18 1871.69,1258.76 1873.73,1209.7 1875.77,1156 1877.81,1098.66 1879.85,1037.83 1881.89,974.352 1883.92,908.802 1885.96,841.802 1888,774.05 1890.04,706.227 1892.08,639.061 1894.12,573.096 1896.16,509.121 1898.2,447.797 1900.23,389.622 1902.27,334.928 1904.31,284.875 1906.35,239.462 1908.39,199.685 1910.43,165.211 1912.47,136.704 1914.5,114.826 1916.54,99.2466 1918.58,90.2966 1920.62,87.9763 1922.66,92.617 1924.7,104.219 1926.74,122.119 1928.78,146.648 1930.81,177.144 1932.85,213.938 1934.89,255.705 1936.93,303.106 1938.97,354.817 1941.01,410.837 1943.05,470.172 1945.08,532.656 1947.12,597.46 1949.16,663.922 1951.2,731.419 1953.24,799.29 1955.28,866.787 1957.32,933.331 1959.36,998.219 1961.39,1060.7 1963.43,1120.53 1965.47,1176.55 1967.51,1228.6 1969.55,1276 1971.59,1318.1 1973.63,1354.89 1975.66,1385.72 1977.7,1410.58 1979.74,1428.81 1981.78,1440.74 1983.82,1445.38 1985.86,1443.73 1987.9,1435.11 1989.94,1419.86 1991.97,1397.98 1994.01,1369.81 1996.05,1335.66 1998.09,1295.89 2000.13,1250.81 2002.17,1201.08 2004.21,1146.72 2006.24,1088.55 2008.28,1027.39 2010.32,963.413 2012.36,897.615 2014.4,830.449 2016.44,762.635 2018.48,694.874 2020.52,627.873 2022.55,562.157 2024.59,498.679 2026.63,437.687 2028.67,380.01 2030.71,326.31 2032.75,276.92 2034.79,232.501 2036.82,193.387 2038.86,159.907 2040.9,132.726 2042.94,111.511 2044.98,97.2577 2047.02,89.3022 2049.06,88.3078 2051.1,94.2744 2053.13,106.539 2055.17,125.765 2057.21,151.289 2059.25,183.111 2061.29,220.568 2063.33,263.329 2065.37,311.393 2067.4,364.099 2069.44,420.45 2071.48,480.448 2073.52,543.429 2075.56,608.482 2077.6,675.192 2079.64,742.834 2081.68,810.684 2083.71,878.057 2085.75,944.353 2087.79,1008.99 2089.83,1070.98 2091.87,1130.15 2093.91,1185.5 2095.95,1236.88 2097.98,1283.29 2100.02,1324.73 2102.06,1360.53 2104.1,1390.36 2106.14,1414.23 2108.18,1431.46 2110.22,1441.74 2112.26,1445.72 2114.29,1442.73 2116.33,1433.12 2118.37,1416.55 2120.41,1393.67 2122.45,1364.5 2124.49,1329.37 2126.53,1288.93 2128.56,1242.85 2130.6,1192.13 2132.64,1137.11 2134.68,1078.44 2136.72,1016.78 2138.76,952.474 2140.8,886.344 2142.83,819.054 2144.87,751.225 2146.91,683.562 2148.95,616.686 2150.99,551.384 2153.03,488.238 2155.07,427.743 2157.11,370.728 2159.14,317.691 2161.18,268.964 2163.22,225.54 2165.26,187.42 2167.3,154.935 2169.34,128.748 2171.38,108.859 2173.41,95.2688 2175.45,88.6392 2177.49,88.9707 2179.53,95.9318 2181.57,109.522 2183.61,129.743 2185.65,156.261 2187.69,188.746 2189.72,227.198 2191.76,271.284 2193.8,320.012 2195.84,373.049 2197.88,430.394 2199.92,490.889 2201.96,554.202 2203.99,619.669 2206.03,686.545 2208.07,754.239 2210.11,822.079 2212.15,889.328 2214.19,955.458 2216.23,1019.6 2218.27,1081.25 2220.3,1139.76 2222.34,1194.45 2224.38,1244.84 2226.42,1290.58 2228.46,1331.02 2230.5,1366.16 2232.54,1395 2234.57,1417.54 2236.61,1433.45 2238.65,1443.06 2240.69,1445.72 2242.73,1441.41 2244.77,1430.8 2246.81,1413.23 2248.85,1389.36 2250.88,1359.2 2252.92,1323.07 2254.96,1281.3 2257,1234.56 2259.04,1183.18 2261.08,1127.5 2263.12,1068.33 2265.15,1006.17 2267.19,941.536 2269.23,875.074 2271.27,807.659 2273.31,739.81 2275.35,672.209 2277.39,605.581 2279.43,540.611 2281.46,477.796 2283.5,417.798 2285.54,361.447 2287.58,309.073 2289.62,261.34 2291.66,218.579 "/>
<path clip-path="url(#clip260)" d="M1917.9 250.738 L2280.8 250.738 L2280.8 95.2176 L1917.9 95.2176  Z" fill="#ffffff" fill-rule="evenodd" fill-opacity="1"/>
<polyline clip-path="url(#clip260)" style="stroke:#000000; stroke-linecap:round; stroke-linejoin:round; stroke-width:4; stroke-opacity:1; fill:none" points="1917.9,250.738 2280.8,250.738 2280.8,95.2176 1917.9,95.2176 1917.9,250.738 "/>
<polyline clip-path="url(#clip260)" style="stroke:#009af9; stroke-linecap:round; stroke-linejoin:round; stroke-width:4; stroke-opacity:1; fill:none" points="1941.89,147.058 2085.81,147.058 "/>
<path clip-path="url(#clip260)" d="M2128.22 139.176 L2128.22 143.203 Q2126.42 142.277 2124.47 141.815 Q2122.53 141.352 2120.44 141.352 Q2117.27 141.352 2115.67 142.324 Q2114.1 143.296 2114.1 145.24 Q2114.1 146.722 2115.24 147.578 Q2116.37 148.412 2119.8 149.176 L2121.25 149.5 Q2125.79 150.472 2127.69 152.254 Q2129.61 154.014 2129.61 157.185 Q2129.61 160.796 2126.74 162.902 Q2123.89 165.009 2118.89 165.009 Q2116.81 165.009 2114.54 164.592 Q2112.3 164.199 2109.8 163.388 L2109.8 158.99 Q2112.16 160.217 2114.45 160.842 Q2116.74 161.444 2118.99 161.444 Q2121.99 161.444 2123.61 160.426 Q2125.23 159.384 2125.23 157.509 Q2125.23 155.773 2124.05 154.847 Q2122.9 153.921 2118.94 153.064 L2117.46 152.717 Q2113.5 151.884 2111.74 150.171 Q2109.98 148.435 2109.98 145.426 Q2109.98 141.768 2112.57 139.778 Q2115.17 137.787 2119.93 137.787 Q2122.3 137.787 2124.38 138.134 Q2126.46 138.481 2128.22 139.176 Z" fill="#000000" fill-rule="nonzero" fill-opacity="1" /><path clip-path="url(#clip260)" d="M2136.39 138.412 L2140.65 138.412 L2140.65 164.338 L2136.39 164.338 L2136.39 138.412 M2136.39 128.319 L2140.65 128.319 L2140.65 133.713 L2136.39 133.713 L2136.39 128.319 Z" fill="#000000" fill-rule="nonzero" fill-opacity="1" /><path clip-path="url(#clip260)" d="M2171.11 148.689 L2171.11 164.338 L2166.86 164.338 L2166.86 148.828 Q2166.86 145.148 2165.42 143.319 Q2163.98 141.49 2161.11 141.49 Q2157.67 141.49 2155.67 143.69 Q2153.68 145.889 2153.68 149.685 L2153.68 164.338 L2149.4 164.338 L2149.4 138.412 L2153.68 138.412 L2153.68 142.44 Q2155.21 140.102 2157.27 138.944 Q2159.36 137.787 2162.06 137.787 Q2166.53 137.787 2168.82 140.565 Q2171.11 143.319 2171.11 148.689 Z" fill="#000000" fill-rule="nonzero" fill-opacity="1" /><path clip-path="url(#clip260)" d="M2201.79 150.31 L2201.79 152.393 L2182.2 152.393 Q2182.48 156.791 2184.84 159.106 Q2187.23 161.398 2191.46 161.398 Q2193.92 161.398 2196.21 160.796 Q2198.52 160.194 2200.79 158.99 L2200.79 163.018 Q2198.5 163.99 2196.09 164.5 Q2193.68 165.009 2191.21 165.009 Q2185 165.009 2181.37 161.398 Q2177.76 157.787 2177.76 151.629 Q2177.76 145.264 2181.18 141.537 Q2184.63 137.787 2190.47 137.787 Q2195.7 137.787 2198.73 141.166 Q2201.79 144.523 2201.79 150.31 M2197.53 149.06 Q2197.48 145.565 2195.56 143.481 Q2193.66 141.398 2190.51 141.398 Q2186.95 141.398 2184.79 143.412 Q2182.67 145.426 2182.34 149.083 L2197.53 149.06 Z" fill="#000000" fill-rule="nonzero" fill-opacity="1" /><polyline clip-path="url(#clip260)" style="stroke:#e26f46; stroke-linecap:round; stroke-linejoin:round; stroke-width:4; stroke-opacity:1; fill:none" points="1941.89,198.898 2085.81,198.898 "/>
<path clip-path="url(#clip260)" d="M2130.3 191.247 L2130.3 195.229 Q2128.5 194.233 2126.67 193.747 Q2124.86 193.238 2123.01 193.238 Q2118.87 193.238 2116.58 195.877 Q2114.29 198.492 2114.29 203.238 Q2114.29 207.983 2116.58 210.622 Q2118.87 213.238 2123.01 213.238 Q2124.86 213.238 2126.67 212.752 Q2128.5 212.242 2130.3 211.247 L2130.3 215.182 Q2128.52 216.016 2126.6 216.432 Q2124.7 216.849 2122.55 216.849 Q2116.69 216.849 2113.24 213.168 Q2109.8 209.488 2109.8 203.238 Q2109.8 196.895 2113.27 193.261 Q2116.76 189.627 2122.83 189.627 Q2124.8 189.627 2126.67 190.043 Q2128.55 190.437 2130.3 191.247 Z" fill="#000000" fill-rule="nonzero" fill-opacity="1" /><path clip-path="url(#clip260)" d="M2147.76 193.238 Q2144.33 193.238 2142.34 195.923 Q2140.35 198.585 2140.35 203.238 Q2140.35 207.891 2142.32 210.576 Q2144.31 213.238 2147.76 213.238 Q2151.16 213.238 2153.15 210.553 Q2155.14 207.867 2155.14 203.238 Q2155.14 198.631 2153.15 195.946 Q2151.16 193.238 2147.76 193.238 M2147.76 189.627 Q2153.31 189.627 2156.48 193.238 Q2159.66 196.849 2159.66 203.238 Q2159.66 209.604 2156.48 213.238 Q2153.31 216.849 2147.76 216.849 Q2142.18 216.849 2139.01 213.238 Q2135.86 209.604 2135.86 203.238 Q2135.86 196.849 2139.01 193.238 Q2142.18 189.627 2147.76 189.627 Z" fill="#000000" fill-rule="nonzero" fill-opacity="1" /><path clip-path="url(#clip260)" d="M2183.24 191.016 L2183.24 195.043 Q2181.44 194.117 2179.49 193.655 Q2177.55 193.192 2175.47 193.192 Q2172.29 193.192 2170.7 194.164 Q2169.12 195.136 2169.12 197.08 Q2169.12 198.562 2170.26 199.418 Q2171.39 200.252 2174.82 201.016 L2176.28 201.34 Q2180.81 202.312 2182.71 204.094 Q2184.63 205.854 2184.63 209.025 Q2184.63 212.636 2181.76 214.742 Q2178.92 216.849 2173.92 216.849 Q2171.83 216.849 2169.56 216.432 Q2167.32 216.039 2164.82 215.228 L2164.82 210.83 Q2167.18 212.057 2169.47 212.682 Q2171.76 213.284 2174.01 213.284 Q2177.02 213.284 2178.64 212.266 Q2180.26 211.224 2180.26 209.349 Q2180.26 207.613 2179.08 206.687 Q2177.92 205.761 2173.96 204.904 L2172.48 204.557 Q2168.52 203.724 2166.76 202.011 Q2165 200.275 2165 197.266 Q2165 193.608 2167.6 191.618 Q2170.19 189.627 2174.96 189.627 Q2177.32 189.627 2179.4 189.974 Q2181.48 190.321 2183.24 191.016 Z" fill="#000000" fill-rule="nonzero" fill-opacity="1" /><path clip-path="url(#clip260)" d="M2191.42 190.252 L2195.67 190.252 L2195.67 216.178 L2191.42 216.178 L2191.42 190.252 M2191.42 180.159 L2195.67 180.159 L2195.67 185.553 L2191.42 185.553 L2191.42 180.159 Z" fill="#000000" fill-rule="nonzero" fill-opacity="1" /><path clip-path="url(#clip260)" d="M2226.14 200.529 L2226.14 216.178 L2221.88 216.178 L2221.88 200.668 Q2221.88 196.988 2220.44 195.159 Q2219.01 193.33 2216.14 193.33 Q2212.69 193.33 2210.7 195.53 Q2208.71 197.729 2208.71 201.525 L2208.71 216.178 L2204.42 216.178 L2204.42 190.252 L2208.71 190.252 L2208.71 194.28 Q2210.23 191.942 2212.29 190.784 Q2214.38 189.627 2217.09 189.627 Q2221.55 189.627 2223.85 192.405 Q2226.14 195.159 2226.14 200.529 Z" fill="#000000" fill-rule="nonzero" fill-opacity="1" /><path clip-path="url(#clip260)" d="M2256.81 202.15 L2256.81 204.233 L2237.23 204.233 Q2237.5 208.631 2239.86 210.946 Q2242.25 213.238 2246.48 213.238 Q2248.94 213.238 2251.23 212.636 Q2253.54 212.034 2255.81 210.83 L2255.81 214.858 Q2253.52 215.83 2251.11 216.34 Q2248.71 216.849 2246.23 216.849 Q2240.03 216.849 2236.39 213.238 Q2232.78 209.627 2232.78 203.469 Q2232.78 197.104 2236.21 193.377 Q2239.66 189.627 2245.49 189.627 Q2250.72 189.627 2253.75 193.006 Q2256.81 196.363 2256.81 202.15 M2252.55 200.9 Q2252.5 197.405 2250.58 195.321 Q2248.68 193.238 2245.54 193.238 Q2241.97 193.238 2239.82 195.252 Q2237.69 197.266 2237.36 200.923 L2252.55 200.9 Z" fill="#000000" fill-rule="nonzero" fill-opacity="1" /></svg>
