<?xml version="1.0" encoding="utf-8"?>
<svg xmlns="http://www.w3.org/2000/svg" xmlns:xlink="http://www.w3.org/1999/xlink" width="600" height="400" viewBox="0 0 2400 1600">
<defs>
  <clipPath id="clip690">
    <rect x="0" y="0" width="2400" height="1600"/>
  </clipPath>
</defs>
<path clip-path="url(#clip690)" d="M0 1600 L2400 1600 L2400 0 L0 0  Z" fill="#ffffff" fill-rule="evenodd" fill-opacity="1"/>
<defs>
  <clipPath id="clip691">
    <rect x="480" y="0" width="1681" height="1600"/>
  </clipPath>
</defs>
<path clip-path="url(#clip690)" d="M188.104 1486.45 L2352.76 1486.45 L2352.76 47.2441 L188.104 47.2441  Z" fill="#ffffff" fill-rule="evenodd" fill-opacity="1"/>
<defs>
  <clipPath id="clip692">
    <rect x="188" y="47" width="2166" height="1440"/>
  </clipPath>
</defs>
<polyline clip-path="url(#clip692)" style="stroke:#000000; stroke-linecap:round; stroke-linejoin:round; stroke-width:2; stroke-opacity:0.1; fill:none" points="247.324,1486.45 247.324,47.2441 "/>
<polyline clip-path="url(#clip692)" style="stroke:#000000; stroke-linecap:round; stroke-linejoin:round; stroke-width:2; stroke-opacity:0.1; fill:none" points="758.366,1486.45 758.366,47.2441 "/>
<polyline clip-path="url(#clip692)" style="stroke:#000000; stroke-linecap:round; stroke-linejoin:round; stroke-width:2; stroke-opacity:0.1; fill:none" points="1269.41,1486.45 1269.41,47.2441 "/>
<polyline clip-path="url(#clip692)" style="stroke:#000000; stroke-linecap:round; stroke-linejoin:round; stroke-width:2; stroke-opacity:0.1; fill:none" points="1780.45,1486.45 1780.45,47.2441 "/>
<polyline clip-path="url(#clip692)" style="stroke:#000000; stroke-linecap:round; stroke-linejoin:round; stroke-width:2; stroke-opacity:0.1; fill:none" points="2291.49,1486.45 2291.49,47.2441 "/>
<polyline clip-path="url(#clip690)" style="stroke:#000000; stroke-linecap:round; stroke-linejoin:round; stroke-width:4; stroke-opacity:1; fill:none" points="188.104,1486.45 2352.76,1486.45 "/>
<polyline clip-path="url(#clip690)" style="stroke:#000000; stroke-linecap:round; stroke-linejoin:round; stroke-width:4; stroke-opacity:1; fill:none" points="247.324,1486.45 247.324,1467.55 "/>
<polyline clip-path="url(#clip690)" style="stroke:#000000; stroke-linecap:round; stroke-linejoin:round; stroke-width:4; stroke-opacity:1; fill:none" points="758.366,1486.45 758.366,1467.55 "/>
<polyline clip-path="url(#clip690)" style="stroke:#000000; stroke-linecap:round; stroke-linejoin:round; stroke-width:4; stroke-opacity:1; fill:none" points="1269.41,1486.45 1269.41,1467.55 "/>
<polyline clip-path="url(#clip690)" style="stroke:#000000; stroke-linecap:round; stroke-linejoin:round; stroke-width:4; stroke-opacity:1; fill:none" points="1780.45,1486.45 1780.45,1467.55 "/>
<polyline clip-path="url(#clip690)" style="stroke:#000000; stroke-linecap:round; stroke-linejoin:round; stroke-width:4; stroke-opacity:1; fill:none" points="2291.49,1486.45 2291.49,1467.55 "/>
<path clip-path="url(#clip690)" d="M247.324 1517.37 Q243.713 1517.37 241.884 1520.93 Q240.078 1524.47 240.078 1531.6 Q240.078 1538.71 241.884 1542.27 Q243.713 1545.82 247.324 1545.82 Q250.958 1545.82 252.763 1542.27 Q254.592 1538.71 254.592 1531.6 Q254.592 1524.47 252.763 1520.93 Q250.958 1517.37 247.324 1517.37 M247.324 1513.66 Q253.134 1513.66 256.189 1518.27 Q259.268 1522.85 259.268 1531.6 Q259.268 1540.33 256.189 1544.94 Q253.134 1549.52 247.324 1549.52 Q241.514 1549.52 238.435 1544.94 Q235.379 1540.33 235.379 1531.6 Q235.379 1522.85 238.435 1518.27 Q241.514 1513.66 247.324 1513.66 Z" fill="#000000" fill-rule="nonzero" fill-opacity="1" /><path clip-path="url(#clip690)" d="M722.058 1544.91 L738.378 1544.91 L738.378 1548.85 L716.433 1548.85 L716.433 1544.91 Q719.095 1542.16 723.679 1537.53 Q728.285 1532.88 729.466 1531.53 Q731.711 1529.01 732.59 1527.27 Q733.493 1525.51 733.493 1523.82 Q733.493 1521.07 731.549 1519.33 Q729.628 1517.6 726.526 1517.6 Q724.327 1517.6 721.873 1518.36 Q719.442 1519.13 716.665 1520.68 L716.665 1515.95 Q719.489 1514.82 721.942 1514.24 Q724.396 1513.66 726.433 1513.66 Q731.803 1513.66 734.998 1516.35 Q738.192 1519.03 738.192 1523.52 Q738.192 1525.65 737.382 1527.57 Q736.595 1529.47 734.489 1532.07 Q733.91 1532.74 730.808 1535.95 Q727.706 1539.15 722.058 1544.91 Z" fill="#000000" fill-rule="nonzero" fill-opacity="1" /><path clip-path="url(#clip690)" d="M748.239 1514.29 L766.595 1514.29 L766.595 1518.22 L752.521 1518.22 L752.521 1526.7 Q753.539 1526.35 754.558 1526.19 Q755.576 1526 756.595 1526 Q762.382 1526 765.762 1529.17 Q769.141 1532.34 769.141 1537.76 Q769.141 1543.34 765.669 1546.44 Q762.197 1549.52 755.877 1549.52 Q753.701 1549.52 751.433 1549.15 Q749.188 1548.78 746.78 1548.04 L746.78 1543.34 Q748.864 1544.47 751.086 1545.03 Q753.308 1545.58 755.785 1545.58 Q759.789 1545.58 762.127 1543.48 Q764.465 1541.37 764.465 1537.76 Q764.465 1534.15 762.127 1532.04 Q759.789 1529.94 755.785 1529.94 Q753.91 1529.94 752.035 1530.35 Q750.183 1530.77 748.239 1531.65 L748.239 1514.29 Z" fill="#000000" fill-rule="nonzero" fill-opacity="1" /><path clip-path="url(#clip690)" d="M788.354 1517.37 Q784.743 1517.37 782.914 1520.93 Q781.109 1524.47 781.109 1531.6 Q781.109 1538.71 782.914 1542.27 Q784.743 1545.82 788.354 1545.82 Q791.988 1545.82 793.794 1542.27 Q795.623 1538.71 795.623 1531.6 Q795.623 1524.47 793.794 1520.93 Q791.988 1517.37 788.354 1517.37 M788.354 1513.66 Q794.164 1513.66 797.22 1518.27 Q800.298 1522.85 800.298 1531.6 Q800.298 1540.33 797.22 1544.94 Q794.164 1549.52 788.354 1549.52 Q782.544 1549.52 779.465 1544.94 Q776.41 1540.33 776.41 1531.6 Q776.41 1522.85 779.465 1518.27 Q782.544 1513.66 788.354 1513.66 Z" fill="#000000" fill-rule="nonzero" fill-opacity="1" /><path clip-path="url(#clip690)" d="M1229.03 1514.29 L1247.38 1514.29 L1247.38 1518.22 L1233.31 1518.22 L1233.31 1526.7 Q1234.33 1526.35 1235.35 1526.19 Q1236.36 1526 1237.38 1526 Q1243.17 1526 1246.55 1529.17 Q1249.93 1532.34 1249.93 1537.76 Q1249.93 1543.34 1246.46 1546.44 Q1242.98 1549.52 1236.67 1549.52 Q1234.49 1549.52 1232.22 1549.15 Q1229.98 1548.78 1227.57 1548.04 L1227.57 1543.34 Q1229.65 1544.47 1231.87 1545.03 Q1234.1 1545.58 1236.57 1545.58 Q1240.58 1545.58 1242.92 1543.48 Q1245.25 1541.37 1245.25 1537.76 Q1245.25 1534.15 1242.92 1532.04 Q1240.58 1529.94 1236.57 1529.94 Q1234.7 1529.94 1232.82 1530.35 Q1230.97 1530.77 1229.03 1531.65 L1229.03 1514.29 Z" fill="#000000" fill-rule="nonzero" fill-opacity="1" /><path clip-path="url(#clip690)" d="M1269.14 1517.37 Q1265.53 1517.37 1263.7 1520.93 Q1261.9 1524.47 1261.9 1531.6 Q1261.9 1538.71 1263.7 1542.27 Q1265.53 1545.82 1269.14 1545.82 Q1272.78 1545.82 1274.58 1542.27 Q1276.41 1538.71 1276.41 1531.6 Q1276.41 1524.47 1274.58 1520.93 Q1272.78 1517.37 1269.14 1517.37 M1269.14 1513.66 Q1274.95 1513.66 1278.01 1518.27 Q1281.09 1522.85 1281.09 1531.6 Q1281.09 1540.33 1278.01 1544.94 Q1274.95 1549.52 1269.14 1549.52 Q1263.33 1549.52 1260.25 1544.94 Q1257.2 1540.33 1257.2 1531.6 Q1257.2 1522.85 1260.25 1518.27 Q1263.33 1513.66 1269.14 1513.66 Z" fill="#000000" fill-rule="nonzero" fill-opacity="1" /><path clip-path="url(#clip690)" d="M1299.3 1517.37 Q1295.69 1517.37 1293.86 1520.93 Q1292.06 1524.47 1292.06 1531.6 Q1292.06 1538.71 1293.86 1542.27 Q1295.69 1545.82 1299.3 1545.82 Q1302.94 1545.82 1304.74 1542.27 Q1306.57 1538.71 1306.57 1531.6 Q1306.57 1524.47 1304.74 1520.93 Q1302.94 1517.37 1299.3 1517.37 M1299.3 1513.66 Q1305.11 1513.66 1308.17 1518.27 Q1311.25 1522.85 1311.25 1531.6 Q1311.25 1540.33 1308.17 1544.94 Q1305.11 1549.52 1299.3 1549.52 Q1293.49 1549.52 1290.41 1544.94 Q1287.36 1540.33 1287.36 1531.6 Q1287.36 1522.85 1290.41 1518.27 Q1293.49 1513.66 1299.3 1513.66 Z" fill="#000000" fill-rule="nonzero" fill-opacity="1" /><path clip-path="url(#clip690)" d="M1738.73 1514.29 L1760.95 1514.29 L1760.95 1516.28 L1748.4 1548.85 L1743.52 1548.85 L1755.32 1518.22 L1738.73 1518.22 L1738.73 1514.29 Z" fill="#000000" fill-rule="nonzero" fill-opacity="1" /><path clip-path="url(#clip690)" d="M1770.11 1514.29 L1788.47 1514.29 L1788.47 1518.22 L1774.4 1518.22 L1774.4 1526.7 Q1775.42 1526.35 1776.43 1526.19 Q1777.45 1526 1778.47 1526 Q1784.26 1526 1787.64 1529.17 Q1791.02 1532.34 1791.02 1537.76 Q1791.02 1543.34 1787.54 1546.44 Q1784.07 1549.52 1777.75 1549.52 Q1775.58 1549.52 1773.31 1549.15 Q1771.06 1548.78 1768.66 1548.04 L1768.66 1543.34 Q1770.74 1544.47 1772.96 1545.03 Q1775.18 1545.58 1777.66 1545.58 Q1781.67 1545.58 1784 1543.48 Q1786.34 1541.37 1786.34 1537.76 Q1786.34 1534.15 1784 1532.04 Q1781.67 1529.94 1777.66 1529.94 Q1775.79 1529.94 1773.91 1530.35 Q1772.06 1530.77 1770.11 1531.65 L1770.11 1514.29 Z" fill="#000000" fill-rule="nonzero" fill-opacity="1" /><path clip-path="url(#clip690)" d="M1810.23 1517.37 Q1806.62 1517.37 1804.79 1520.93 Q1802.98 1524.47 1802.98 1531.6 Q1802.98 1538.71 1804.79 1542.27 Q1806.62 1545.82 1810.23 1545.82 Q1813.86 1545.82 1815.67 1542.27 Q1817.5 1538.71 1817.5 1531.6 Q1817.5 1524.47 1815.67 1520.93 Q1813.86 1517.37 1810.23 1517.37 M1810.23 1513.66 Q1816.04 1513.66 1819.1 1518.27 Q1822.17 1522.85 1822.17 1531.6 Q1822.17 1540.33 1819.1 1544.94 Q1816.04 1549.52 1810.23 1549.52 Q1804.42 1549.52 1801.34 1544.94 Q1798.29 1540.33 1798.29 1531.6 Q1798.29 1522.85 1801.34 1518.27 Q1804.42 1513.66 1810.23 1513.66 Z" fill="#000000" fill-rule="nonzero" fill-opacity="1" /><path clip-path="url(#clip690)" d="M2236.02 1544.91 L2243.66 1544.91 L2243.66 1518.55 L2235.35 1520.21 L2235.35 1515.95 L2243.61 1514.29 L2248.29 1514.29 L2248.29 1544.91 L2255.93 1544.91 L2255.93 1548.85 L2236.02 1548.85 L2236.02 1544.91 Z" fill="#000000" fill-rule="nonzero" fill-opacity="1" /><path clip-path="url(#clip690)" d="M2275.37 1517.37 Q2271.76 1517.37 2269.93 1520.93 Q2268.12 1524.47 2268.12 1531.6 Q2268.12 1538.71 2269.93 1542.27 Q2271.76 1545.82 2275.37 1545.82 Q2279 1545.82 2280.81 1542.27 Q2282.64 1538.71 2282.64 1531.6 Q2282.64 1524.47 2280.81 1520.93 Q2279 1517.37 2275.37 1517.37 M2275.37 1513.66 Q2281.18 1513.66 2284.24 1518.27 Q2287.31 1522.85 2287.31 1531.6 Q2287.31 1540.33 2284.24 1544.94 Q2281.18 1549.52 2275.37 1549.52 Q2269.56 1549.52 2266.48 1544.94 Q2263.43 1540.33 2263.43 1531.6 Q2263.43 1522.85 2266.48 1518.27 Q2269.56 1513.66 2275.37 1513.66 Z" fill="#000000" fill-rule="nonzero" fill-opacity="1" /><path clip-path="url(#clip690)" d="M2305.53 1517.37 Q2301.92 1517.37 2300.09 1520.93 Q2298.29 1524.47 2298.29 1531.6 Q2298.29 1538.71 2300.09 1542.27 Q2301.92 1545.82 2305.53 1545.82 Q2309.17 1545.82 2310.97 1542.27 Q2312.8 1538.71 2312.8 1531.6 Q2312.8 1524.47 2310.97 1520.93 Q2309.17 1517.37 2305.53 1517.37 M2305.53 1513.66 Q2311.34 1513.66 2314.4 1518.27 Q2317.48 1522.85 2317.48 1531.6 Q2317.48 1540.33 2314.4 1544.94 Q2311.34 1549.52 2305.53 1549.52 Q2299.72 1549.52 2296.64 1544.94 Q2293.59 1540.33 2293.59 1531.6 Q2293.59 1522.85 2296.64 1518.27 Q2299.72 1513.66 2305.53 1513.66 Z" fill="#000000" fill-rule="nonzero" fill-opacity="1" /><path clip-path="url(#clip690)" d="M2335.69 1517.37 Q2332.08 1517.37 2330.25 1520.93 Q2328.45 1524.47 2328.45 1531.6 Q2328.45 1538.71 2330.25 1542.27 Q2332.08 1545.82 2335.69 1545.82 Q2339.33 1545.82 2341.13 1542.27 Q2342.96 1538.71 2342.96 1531.6 Q2342.96 1524.47 2341.13 1520.93 Q2339.33 1517.37 2335.69 1517.37 M2335.69 1513.66 Q2341.5 1513.66 2344.56 1518.27 Q2347.64 1522.85 2347.64 1531.6 Q2347.64 1540.33 2344.56 1544.94 Q2341.5 1549.52 2335.69 1549.52 Q2329.88 1549.52 2326.8 1544.94 Q2323.75 1540.33 2323.75 1531.6 Q2323.75 1522.85 2326.8 1518.27 Q2329.88 1513.66 2335.69 1513.66 Z" fill="#000000" fill-rule="nonzero" fill-opacity="1" /><polyline clip-path="url(#clip692)" style="stroke:#000000; stroke-linecap:round; stroke-linejoin:round; stroke-width:2; stroke-opacity:0.1; fill:none" points="188.104,1335.15 2352.76,1335.15 "/>
<polyline clip-path="url(#clip692)" style="stroke:#000000; stroke-linecap:round; stroke-linejoin:round; stroke-width:2; stroke-opacity:0.1; fill:none" points="188.104,832.301 2352.76,832.301 "/>
<polyline clip-path="url(#clip692)" style="stroke:#000000; stroke-linecap:round; stroke-linejoin:round; stroke-width:2; stroke-opacity:0.1; fill:none" points="188.104,329.454 2352.76,329.454 "/>
<polyline clip-path="url(#clip690)" style="stroke:#000000; stroke-linecap:round; stroke-linejoin:round; stroke-width:4; stroke-opacity:1; fill:none" points="188.104,1486.45 188.104,47.2441 "/>
<polyline clip-path="url(#clip690)" style="stroke:#000000; stroke-linecap:round; stroke-linejoin:round; stroke-width:4; stroke-opacity:1; fill:none" points="188.104,1335.15 207.002,1335.15 "/>
<polyline clip-path="url(#clip690)" style="stroke:#000000; stroke-linecap:round; stroke-linejoin:round; stroke-width:4; stroke-opacity:1; fill:none" points="188.104,832.301 207.002,832.301 "/>
<polyline clip-path="url(#clip690)" style="stroke:#000000; stroke-linecap:round; stroke-linejoin:round; stroke-width:4; stroke-opacity:1; fill:none" points="188.104,329.454 207.002,329.454 "/>
<path clip-path="url(#clip690)" d="M51.9643 1354.94 L59.6032 1354.94 L59.6032 1328.58 L51.2931 1330.24 L51.2931 1325.98 L59.5569 1324.32 L64.2328 1324.32 L64.2328 1354.94 L71.8716 1354.94 L71.8716 1358.88 L51.9643 1358.88 L51.9643 1354.94 Z" fill="#000000" fill-rule="nonzero" fill-opacity="1" /><path clip-path="url(#clip690)" d="M91.316 1327.39 Q87.7049 1327.39 85.8762 1330.96 Q84.0707 1334.5 84.0707 1341.63 Q84.0707 1348.74 85.8762 1352.3 Q87.7049 1355.84 91.316 1355.84 Q94.9502 1355.84 96.7558 1352.3 Q98.5845 1348.74 98.5845 1341.63 Q98.5845 1334.5 96.7558 1330.96 Q94.9502 1327.39 91.316 1327.39 M91.316 1323.69 Q97.1261 1323.69 100.182 1328.3 Q103.26 1332.88 103.26 1341.63 Q103.26 1350.36 100.182 1354.96 Q97.1261 1359.55 91.316 1359.55 Q85.5058 1359.55 82.4271 1354.96 Q79.3716 1350.36 79.3716 1341.63 Q79.3716 1332.88 82.4271 1328.3 Q85.5058 1323.69 91.316 1323.69 Z" fill="#000000" fill-rule="nonzero" fill-opacity="1" /><path clip-path="url(#clip690)" d="M103.26 1317.79 L127.372 1317.79 L127.372 1320.99 L103.26 1320.99 L103.26 1317.79 Z" fill="#000000" fill-rule="nonzero" fill-opacity="1" /><path clip-path="url(#clip690)" d="M138.845 1328.27 L152.104 1328.27 L152.104 1331.47 L134.274 1331.47 L134.274 1328.27 Q136.437 1326.03 140.161 1322.27 Q143.904 1318.49 144.863 1317.4 Q146.688 1315.35 147.402 1313.94 Q148.136 1312.51 148.136 1311.13 Q148.136 1308.9 146.556 1307.49 Q144.995 1306.07 142.475 1306.07 Q140.688 1306.07 138.694 1306.7 Q136.719 1307.32 134.462 1308.58 L134.462 1304.74 Q136.757 1303.82 138.751 1303.35 Q140.744 1302.88 142.399 1302.88 Q146.763 1302.88 149.358 1305.06 Q151.954 1307.24 151.954 1310.89 Q151.954 1312.62 151.295 1314.18 Q150.656 1315.72 148.944 1317.83 Q148.474 1318.38 145.954 1320.99 Q143.434 1323.58 138.845 1328.27 Z" fill="#000000" fill-rule="nonzero" fill-opacity="1" /><path clip-path="url(#clip690)" d="M51.6634 852.093 L59.3023 852.093 L59.3023 825.728 L50.9921 827.394 L50.9921 823.135 L59.256 821.469 L63.9319 821.469 L63.9319 852.093 L71.5707 852.093 L71.5707 856.029 L51.6634 856.029 L51.6634 852.093 Z" fill="#000000" fill-rule="nonzero" fill-opacity="1" /><path clip-path="url(#clip690)" d="M91.0151 824.547 Q87.404 824.547 85.5753 828.112 Q83.7697 831.654 83.7697 838.783 Q83.7697 845.89 85.5753 849.455 Q87.404 852.996 91.0151 852.996 Q94.6493 852.996 96.4548 849.455 Q98.2835 845.89 98.2835 838.783 Q98.2835 831.654 96.4548 828.112 Q94.6493 824.547 91.0151 824.547 M91.0151 820.844 Q96.8252 820.844 99.8808 825.45 Q102.959 830.033 102.959 838.783 Q102.959 847.51 99.8808 852.117 Q96.8252 856.7 91.0151 856.7 Q85.2049 856.7 82.1262 852.117 Q79.0707 847.51 79.0707 838.783 Q79.0707 830.033 82.1262 825.45 Q85.2049 820.844 91.0151 820.844 Z" fill="#000000" fill-rule="nonzero" fill-opacity="1" /><path clip-path="url(#clip690)" d="M102.959 814.945 L127.071 814.945 L127.071 818.142 L102.959 818.142 L102.959 814.945 Z" fill="#000000" fill-rule="nonzero" fill-opacity="1" /><path clip-path="url(#clip690)" d="M135.929 825.421 L142.136 825.421 L142.136 803.999 L135.384 805.353 L135.384 801.892 L142.098 800.538 L145.898 800.538 L145.898 825.421 L152.104 825.421 L152.104 828.618 L135.929 828.618 L135.929 825.421 Z" fill="#000000" fill-rule="nonzero" fill-opacity="1" /><path clip-path="url(#clip690)" d="M81.3985 349.246 L89.0374 349.246 L89.0374 322.881 L80.7272 324.547 L80.7272 320.288 L88.9911 318.621 L93.667 318.621 L93.667 349.246 L101.306 349.246 L101.306 353.181 L81.3985 353.181 L81.3985 349.246 Z" fill="#000000" fill-rule="nonzero" fill-opacity="1" /><path clip-path="url(#clip690)" d="M120.75 321.7 Q117.139 321.7 115.31 325.265 Q113.505 328.806 113.505 335.936 Q113.505 343.043 115.31 346.607 Q117.139 350.149 120.75 350.149 Q124.384 350.149 126.19 346.607 Q128.019 343.043 128.019 335.936 Q128.019 328.806 126.19 325.265 Q124.384 321.7 120.75 321.7 M120.75 317.996 Q126.56 317.996 129.616 322.603 Q132.695 327.186 132.695 335.936 Q132.695 344.663 129.616 349.269 Q126.56 353.853 120.75 353.853 Q114.94 353.853 111.861 349.269 Q108.806 344.663 108.806 335.936 Q108.806 327.186 111.861 322.603 Q114.94 317.996 120.75 317.996 Z" fill="#000000" fill-rule="nonzero" fill-opacity="1" /><path clip-path="url(#clip690)" d="M142.399 300.192 Q139.465 300.192 137.98 303.089 Q136.513 305.966 136.513 311.759 Q136.513 317.533 137.98 320.43 Q139.465 323.307 142.399 323.307 Q145.352 323.307 146.819 320.43 Q148.305 317.533 148.305 311.759 Q148.305 305.966 146.819 303.089 Q145.352 300.192 142.399 300.192 M142.399 297.183 Q147.12 297.183 149.603 300.926 Q152.104 304.65 152.104 311.759 Q152.104 318.85 149.603 322.592 Q147.12 326.316 142.399 326.316 Q137.679 326.316 135.177 322.592 Q132.695 318.85 132.695 311.759 Q132.695 304.65 135.177 300.926 Q137.679 297.183 142.399 297.183 Z" fill="#000000" fill-rule="nonzero" fill-opacity="1" /><polyline clip-path="url(#clip692)" style="stroke:#e26f46; stroke-linecap:round; stroke-linejoin:round; stroke-width:4; stroke-opacity:1; fill:none" points="249.368,116.916 251.412,175.748 253.456,240.055 255.5,325.858 257.545,489.528 259.589,614.981 261.633,675.583 263.677,738.452 265.721,801.335 267.765,857.776 269.81,927.603 271.854,983.061 273.898,1023.7 275.942,1043.29 277.986,1046.82 280.03,1062.69 282.075,1065.77 284.119,1066.35 286.163,1086.95 288.207,1089.65 290.251,1098.03 292.295,1091.49 294.34,1105.35 296.384,1113.41 298.428,1122.03 300.472,1129.57 302.516,1132.84 304.56,1118.54 306.605,1146.17 308.649,1150.14 310.693,1160.82 312.737,1160.67 314.781,1150.85 316.825,1165.21 318.87,1157.55 320.914,1182.73 322.958,1188.96 325.002,1186.07 327.046,1197.83 329.09,1203.6 331.135,1216.76 333.179,1213.68 335.223,1215.02 337.267,1209.33 339.311,1212.53 341.355,1224.05 343.4,1230.97 345.444,1215.79 347.488,1218.12 349.532,1215.6 351.576,1239.51 353.62,1255.45 355.665,1238.33 357.709,1239.08 359.753,1243.3 361.797,1252.12 363.841,1259.18 365.885,1252.24 367.93,1269.92 369.974,1250.65 372.018,1251.67 374.062,1261.55 376.106,1273.91 378.15,1276.69 380.195,1274.79 382.239,1274.41 384.283,1285.54 386.327,1254.41 388.371,1280.55 390.415,1286.6 392.46,1265.87 394.504,1280.29 396.548,1290.64 398.592,1281.2 400.636,1278.36 402.681,1276.44 404.725,1293.1 406.769,1283.03 408.813,1279.52 410.857,1291.6 412.901,1291.87 414.946,1277.59 416.99,1285.67 419.034,1301.65 421.078,1313.09 423.122,1297.27 425.166,1292.28 427.211,1298.53 429.255,1292.69 431.299,1296.15 433.343,1310.85 435.387,1277.33 437.431,1293.93 439.476,1290.51 441.52,1305.69 443.564,1296.01 445.608,1307.15 447.652,1293.24 449.696,1301.37 451.741,1298.11 453.785,1299.24 455.829,1315.06 457.873,1308.03 459.917,1302.22 461.961,1306.86 464.006,1294.07 466.05,1290.1 468.094,1296.29 470.138,1291.46 472.182,1297.97 474.226,1302.65 476.271,1304.67 478.315,1282.25 480.359,1290.78 482.403,1279.26 484.447,1295.45 486.491,1287.27 488.536,1287.81 490.58,1306.57 492.624,1298.39 494.668,1305.11 496.712,1297.69 498.756,1284.48 500.801,1303.81 502.845,1302.08 504.889,1299.24 506.933,1314.61 508.977,1306.13 511.021,1295.87 513.066,1296.99 515.11,1293.52 517.154,1284.35 519.198,1308.18 521.242,1304.53 523.286,1298.53 525.331,1291.19 527.375,1295.59 529.419,1312.04 531.463,1299.66 533.507,1286.74 535.551,1302.51 537.596,1301.51 539.64,1315.67 541.684,1308.03 543.728,1300.09 545.772,1302.22 547.816,1306.13 549.861,1298.53 551.905,1308.92 553.949,1292.28 555.993,1317.81 558.037,1290.37 560.081,1316.89 562.126,1308.18 564.17,1321.07 566.214,1281.07 568.258,1290.51 570.302,1300.23 572.346,1299.38 574.391,1301.08 576.435,1302.37 578.479,1302.08 580.523,1310.25 582.567,1314.61 584.612,1281.46 586.656,1300.8 588.7,1301.51 590.744,1304.96 592.788,1275.93 594.832,1290.92 596.877,1298.53 598.921,1317.2 600.965,1296.29 603.009,1309.36 605.053,1310.4 607.097,1300.37 609.142,1299.09 611.186,1304.82 613.23,1314.61 615.274,1288.48 617.318,1305.11 619.362,1316.28 621.407,1308.03 623.451,1313.09 625.495,1289.15 627.539,1290.37 629.583,1300.8 631.627,1307.3 633.672,1308.33 635.716,1295.87 637.76,1301.08 639.804,1292.97 641.848,1288.08 643.892,1299.09 645.937,1309.21 647.981,1314 650.025,1301.65 652.069,1314.15 654.113,1292.28 656.157,1299.8 658.202,1311.44 660.246,1308.18 662.29,1292.97 664.334,1309.66 666.378,1311.74 668.422,1309.95 670.467,1301.37 672.511,1317.66 674.555,1302.37 676.599,1310.7 678.643,1301.94 680.687,1315.52 682.732,1308.18 684.776,1302.08 686.82,1294.07 688.864,1317.81 690.908,1302.08 692.952,1316.43 694.997,1304.38 697.041,1308.47 699.085,1315.52 701.129,1308.47 703.173,1323.58 705.217,1318.12 707.262,1321.23 709.306,1317.81 711.35,1326.61 713.394,1301.79 715.438,1319.98 717.482,1324.06 719.527,1301.94 721.571,1298.53 723.615,1301.37 725.659,1311.15 727.703,1305.84 729.747,1300.94 731.792,1311.89 733.836,1304.96 735.88,1311 737.924,1313.4 739.968,1315.82 742.012,1301.94 744.057,1312.64 746.101,1301.37 748.145,1299.94 750.189,1315.21 752.233,1293.24 754.277,1296.99 756.322,1322.17 758.366,1291.87 760.41,1295.04 762.454,1324.38 764.498,1316.59 766.542,1309.07 768.587,1291.46 770.631,1306.57 772.675,1297.69 774.719,1288.48 776.763,1292.42 778.808,1320.6 780.852,1305.11 782.896,1290.1 784.94,1289.15 786.984,1274.66 789.028,1307.01 791.073,1311.44 793.117,1312.79 795.161,1301.08 797.205,1307.3 799.249,1298.81 801.293,1325.65 803.338,1299.66 805.382,1304.38 807.426,1305.69 809.47,1318.58 811.514,1280.42 813.558,1296.71 815.603,1296.15 817.647,1308.18 819.691,1310.1 821.735,1315.67 823.779,1335.43 825.823,1308.77 827.868,1329.19 829.912,1307.74 831.956,1317.2 834,1307.3 836.044,1317.66 838.088,1311.44 840.133,1327.89 842.177,1310.1 844.221,1307.89 846.265,1316.74 848.309,1313.24 850.353,1286.87 852.398,1311 854.442,1306.57 856.486,1302.8 858.53,1310.55 860.574,1323.74 862.618,1305.25 864.663,1317.81 866.707,1312.94 868.751,1297.13 870.795,1287.81 872.839,1326.77 874.883,1296.85 876.928,1296.01 878.972,1296.29 881.016,1310.4 883.06,1287.27 885.104,1288.75 887.148,1298.39 889.193,1283.82 891.237,1310.85 893.281,1289.56 895.325,1304.1 897.369,1302.22 899.413,1316.59 901.458,1289.15 903.502,1303.23 905.546,1298.11 907.59,1297.13 909.634,1303.09 911.678,1302.8 913.723,1284.48 915.767,1319.51 917.811,1316.89 919.855,1321.38 921.899,1317.66 923.943,1303.66 925.988,1316.43 928.032,1306.42 930.076,1329.67 932.12,1330.65 934.164,1294.48 936.208,1302.65 938.253,1324.38 940.297,1333.11 942.341,1328.54 944.385,1328.05 946.429,1297.55 948.473,1305.4 950.518,1301.79 952.562,1300.37 954.606,1320.45 956.65,1294.62 958.694,1318.12 960.739,1308.47 962.783,1308.62 964.827,1321.07 966.871,1309.66 968.915,1311.44 970.959,1324.22 973.004,1318.58 975.048,1302.51 977.092,1337.61 979.136,1300.23 981.18,1335.77 983.224,1324.53 985.269,1327.09 987.313,1323.43 989.357,1314.91 991.401,1318.89 993.445,1315.97 995.489,1320.45 997.534,1318.89 999.578,1310.7 1001.62,1314.45 1003.67,1310.25 1005.71,1310.7 1007.75,1319.82 1009.8,1306.42 1011.84,1331.8 1013.89,1340.84 1015.93,1331.14 1017.98,1328.7 1020.02,1325.97 1022.06,1326.29 1024.11,1324.53 1026.15,1308.47 1028.2,1328.7 1030.24,1321.54 1032.28,1306.71 1034.33,1308.62 1036.37,1339.99 1038.42,1324.53 1040.46,1308.03 1042.51,1330.65 1044.55,1302.8 1046.59,1305.55 1048.64,1316.13 1050.68,1323.74 1052.73,1326.93 1054.77,1315.52 1056.81,1311.89 1058.86,1311.44 1060.9,1329.84 1062.95,1306.86 1064.99,1309.81 1067.04,1327.41 1069.08,1304.1 1071.12,1311.44 1073.17,1327.09 1075.21,1341.87 1077.26,1313.24 1079.3,1326.45 1081.34,1333.61 1083.39,1330.49 1085.43,1327.89 1087.48,1321.54 1089.52,1315.82 1091.57,1322.17 1093.61,1306.86 1095.65,1316.59 1097.7,1326.77 1099.74,1327.41 1101.79,1309.95 1103.83,1334.1 1105.87,1322.32 1107.92,1316.59 1109.96,1325.17 1112.01,1325.17 1114.05,1334.6 1116.1,1323.43 1118.14,1327.09 1120.18,1343.42 1122.23,1333.77 1124.27,1296.01 1126.32,1325.33 1128.36,1318.28 1130.4,1327.41 1132.45,1327.89 1134.49,1321.23 1136.54,1329.35 1138.58,1303.37 1140.63,1330.49 1142.67,1334.44 1144.71,1323.58 1146.76,1310.85 1148.8,1322.01 1150.85,1311 1152.89,1346.03 1154.93,1329.51 1156.98,1321.38 1159.02,1330.16 1161.07,1329.84 1163.11,1334.44 1165.16,1343.94 1167.2,1338.46 1169.24,1318.74 1171.29,1333.11 1173.33,1327.09 1175.38,1316.43 1177.42,1326.29 1179.46,1341.7 1181.51,1329.51 1183.55,1329.35 1185.6,1330.49 1187.64,1321.23 1189.69,1324.69 1191.73,1324.53 1193.77,1338.63 1195.82,1350.99 1197.86,1338.46 1199.91,1308.18 1201.95,1321.7 1203.99,1336.27 1206.04,1333.94 1208.08,1334.94 1210.13,1343.07 1212.17,1315.82 1214.22,1310.55 1216.26,1324.69 1218.3,1317.81 1220.35,1319.67 1222.39,1338.97 1224.44,1329.35 1226.48,1335.94 1228.52,1336.61 1230.57,1329.35 1232.61,1338.63 1234.66,1325.01 1236.7,1343.42 1238.75,1328.86 1240.79,1343.59 1242.83,1329.67 1244.88,1338.63 1246.92,1333.11 1248.97,1323.58 1251.01,1322.32 1253.05,1321.54 1255.1,1302.94 1257.14,1316.74 1259.19,1315.21 1261.23,1334.1 1263.28,1341.35 1265.32,1305.84 1267.36,1333.77 1269.41,1327.89 1271.45,1312.94 1273.5,1316.13 1275.54,1323.43 1277.58,1295.04 1279.63,1320.29 1281.67,1318.89 1283.72,1322.01 1285.76,1300.51 1287.81,1308.18 1289.85,1323.9 1291.89,1317.81 1293.94,1315.52 1295.98,1312.79 1298.03,1309.81 1300.07,1321.7 1302.11,1323.74 1304.16,1321.7 1306.2,1305.11 1308.25,1321.85 1310.29,1305.11 1312.34,1294.48 1314.38,1311.44 1316.42,1327.57 1318.47,1335.1 1320.51,1325.33 1322.56,1329.19 1324.6,1340.33 1326.64,1321.23 1328.69,1324.69 1330.73,1328.86 1332.78,1342.9 1334.82,1317.66 1336.87,1323.58 1338.91,1324.85 1340.95,1316.43 1343,1310.85 1345.04,1330.49 1347.09,1334.77 1349.13,1317.05 1351.17,1311.15 1353.22,1337.45 1355.26,1316.89 1357.31,1320.13 1359.35,1329.19 1361.4,1315.82 1363.44,1321.54 1365.48,1347.26 1367.53,1323.43 1369.57,1320.6 1371.62,1335.94 1373.66,1339.48 1375.7,1324.53 1377.75,1335.43 1379.79,1338.8 1381.84,1325.17 1383.88,1332.62 1385.93,1323.58 1387.97,1336.44 1390.01,1323.58 1392.06,1343.77 1394.1,1325.33 1396.15,1336.77 1398.19,1337.78 1400.23,1324.06 1402.28,1315.37 1404.32,1324.53 1406.37,1338.46 1408.41,1324.53 1410.46,1320.29 1412.5,1326.29 1414.54,1336.94 1416.59,1334.6 1418.63,1338.46 1420.68,1338.29 1422.72,1311.44 1424.76,1334.27 1426.81,1337.61 1428.85,1321.54 1430.9,1325.17 1432.94,1319.82 1434.99,1345.68 1437.03,1333.28 1439.07,1322.01 1441.12,1342.73 1443.16,1347.97 1445.21,1326.45 1447.25,1323.27 1449.29,1326.45 1451.34,1326.13 1453.38,1346.38 1455.43,1326.45 1457.47,1302.94 1459.52,1307.74 1461.56,1298.95 1463.6,1343.25 1465.65,1319.51 1467.69,1336.61 1469.74,1340.16 1471.78,1338.63 1473.82,1313.09 1475.87,1328.7 1477.91,1336.61 1479.96,1321.38 1482,1332.12 1484.05,1322.8 1486.09,1343.59 1488.13,1346.73 1490.18,1289.69 1492.22,1343.94 1494.27,1343.07 1496.31,1327.89 1498.35,1313.55 1500.4,1332.12 1502.44,1344.46 1504.49,1340.84 1506.53,1303.81 1508.58,1318.74 1510.62,1332.12 1512.66,1325.01 1514.71,1343.42 1516.75,1337.61 1518.8,1320.6 1520.84,1348.85 1522.88,1342.04 1524.93,1339.48 1526.97,1331.14 1529.02,1338.97 1531.06,1325.33 1533.11,1321.23 1535.15,1325.01 1537.19,1323.43 1539.24,1340.67 1541.28,1337.28 1543.33,1347.26 1545.37,1321.54 1547.41,1341.53 1549.46,1332.29 1551.5,1348.67 1553.55,1344.11 1555.59,1343.94 1557.64,1340.33 1559.68,1315.06 1561.72,1336.94 1563.77,1334.44 1565.81,1339.31 1567.86,1347.08 1569.9,1335.27 1571.94,1339.82 1573.99,1325.65 1576.03,1352.43 1578.08,1357.72 1580.12,1333.61 1582.17,1342.56 1584.21,1334.94 1586.25,1319.05 1588.3,1344.81 1590.34,1316.28 1592.39,1325.01 1594.43,1340.5 1596.47,1337.78 1598.52,1329.51 1600.56,1343.59 1602.61,1344.46 1604.65,1346.56 1606.7,1336.1 1608.74,1339.14 1610.78,1328.7 1612.83,1358.09 1614.87,1342.9 1616.92,1316.13 1618.96,1314.45 1621,1339.82 1623.05,1346.03 1625.09,1308.18 1627.14,1340.67 1629.18,1316.74 1631.23,1312.49 1633.27,1327.41 1635.31,1330.49 1637.36,1304.38 1639.4,1312.19 1641.45,1325.97 1643.49,1333.44 1645.53,1345.68 1647.58,1327.41 1649.62,1325.81 1651.67,1330.32 1653.71,1343.42 1655.76,1332.12 1657.8,1331.47 1659.84,1345.16 1661.89,1323.11 1663.93,1348.67 1665.98,1329.19 1668.02,1349.56 1670.06,1353.69 1672.11,1341.53 1674.15,1352.79 1676.2,1318.74 1678.24,1338.8 1680.29,1352.07 1682.33,1327.89 1684.37,1339.99 1686.42,1347.61 1688.46,1344.64 1690.51,1349.56 1692.55,1351.35 1694.59,1322.64 1696.64,1318.28 1698.68,1333.77 1700.73,1331.14 1702.77,1361.07 1704.82,1319.51 1706.86,1324.22 1708.9,1352.61 1710.95,1344.11 1712.99,1302.8 1715.04,1327.41 1717.08,1363.15 1719.13,1353.69 1721.17,1332.12 1723.21,1354.42 1725.26,1341.87 1727.3,1360.51 1729.35,1347.97 1731.39,1319.05 1733.43,1345.86 1735.48,1348.85 1737.52,1328.05 1739.57,1327.89 1741.61,1314.3 1743.66,1338.46 1745.7,1321.07 1747.74,1346.73 1749.79,1344.81 1751.83,1349.56 1753.88,1336.94 1755.92,1329.35 1757.96,1327.41 1760.01,1340.84 1762.05,1334.94 1764.1,1318.12 1766.14,1325.65 1768.19,1350.63 1770.23,1327.57 1772.27,1345.86 1774.32,1347.79 1776.36,1354.6 1778.41,1332.95 1780.45,1338.97 1782.49,1352.07 1784.54,1331.47 1786.58,1359.02 1788.63,1336.27 1790.67,1350.28 1792.72,1289.83 1794.76,1331.8 1796.8,1344.46 1798.85,1339.65 1800.89,1359.39 1802.94,1335.77 1804.98,1345.16 1807.02,1349.03 1809.07,1328.22 1811.11,1338.12 1813.16,1342.38 1815.2,1342.21 1817.25,1334.6 1819.29,1354.06 1821.33,1340.33 1823.38,1324.69 1825.42,1325.17 1827.47,1341.01 1829.51,1331.47 1831.55,1332.12 1833.6,1335.77 1835.64,1336.77 1837.69,1341.35 1839.73,1350.81 1841.78,1357.17 1843.82,1328.22 1845.86,1329.67 1847.91,1341.35 1849.95,1329.84 1852,1356.43 1854.04,1358.65 1856.08,1330 1858.13,1365.43 1860.17,1304.96 1862.22,1313.4 1864.26,1338.29 1866.31,1363.72 1868.35,1339.65 1870.39,1353.51 1872.44,1325.81 1874.48,1346.91 1876.53,1353.69 1878.57,1347.79 1880.61,1333.11 1882.66,1341.53 1884.7,1326.29 1886.75,1336.94 1888.79,1349.74 1890.84,1352.43 1892.88,1344.98 1894.92,1326.93 1896.97,1350.81 1899.01,1352.07 1901.06,1362.2 1903.1,1338.12 1905.14,1359.21 1907.19,1347.79 1909.23,1351.71 1911.28,1321.85 1913.32,1351.71 1915.37,1342.56 1917.41,1333.94 1919.45,1331.3 1921.5,1348.67 1923.54,1351.17 1925.59,1345.51 1927.63,1345.68 1929.67,1341.87 1931.72,1362.77 1933.76,1353.88 1935.81,1336.61 1937.85,1328.05 1939.9,1348.85 1941.94,1339.14 1943.98,1354.06 1946.03,1350.45 1948.07,1341.7 1950.12,1334.44 1952.16,1333.94 1954.2,1348.85 1956.25,1339.31 1958.29,1326.93 1960.34,1332.62 1962.38,1346.03 1964.43,1347.26 1966.47,1359.21 1968.51,1341.53 1970.56,1341.35 1972.6,1353.33 1974.65,1348.14 1976.69,1344.64 1978.73,1333.61 1980.78,1340.67 1982.82,1336.27 1984.87,1348.32 1986.91,1352.61 1988.96,1347.97 1991,1335.94 1993.04,1348.32 1995.09,1322.64 1997.13,1352.07 1999.18,1335.1 2001.22,1337.95 2003.26,1354.06 2005.31,1354.6 2007.35,1354.79 2009.4,1337.61 2011.44,1353.33 2013.49,1331.3 2015.53,1344.98 2017.57,1357.35 2019.62,1361.07 2021.66,1350.1 2023.71,1341.7 2025.75,1338.8 2027.79,1340.33 2029.84,1343.77 2031.88,1355.52 2033.93,1347.97 2035.97,1332.12 2038.02,1324.85 2040.06,1345.33 2042.1,1346.91 2044.15,1342.21 2046.19,1342.56 2048.24,1359.58 2050.28,1345.86 2052.32,1342.9 2054.37,1342.9 2056.41,1361.26 2058.46,1336.94 2060.5,1338.46 2062.55,1356.8 2064.59,1343.07 2066.63,1344.29 2068.68,1338.46 2070.72,1331.96 2072.77,1346.03 2074.81,1345.51 2076.85,1340.16 2078.9,1358.65 2080.94,1332.45 2082.99,1351.35 2085.03,1353.33 2087.08,1347.61 2089.12,1344.11 2091.16,1333.77 2093.21,1340.33 2095.25,1342.38 2097.3,1335.1 2099.34,1366.39 2101.38,1344.64 2103.43,1357.35 2105.47,1363.34 2107.52,1339.65 2109.56,1337.61 2111.61,1333.44 2113.65,1362.01 2115.69,1324.85 2117.74,1345.86 2119.78,1340.16 2121.83,1329.51 2123.87,1351.53 2125.91,1346.03 2127.96,1352.79 2130,1374.62 2132.05,1357.17 2134.09,1358.65 2136.14,1366.58 2138.18,1357.17 2140.22,1358.65 2142.27,1361.07 2144.31,1324.53 2146.36,1346.03 2148.4,1353.51 2150.44,1359.39 2152.49,1347.61 2154.53,1347.08 2156.58,1356.98 2158.62,1364.48 2160.67,1331.96 2162.71,1368.9 2164.75,1363.15 2166.8,1348.5 2168.84,1359.02 2170.89,1350.81 2172.93,1355.88 2174.97,1353.51 2177.02,1359.02 2179.06,1374.82 2181.11,1317.81 2183.15,1359.02 2185.2,1348.85 2187.24,1347.97 2189.28,1338.63 2191.33,1350.1 2193.37,1349.38 2195.42,1342.38 2197.46,1346.21 2199.5,1341.53 2201.55,1360.89 2203.59,1359.58 2205.64,1324.85 2207.68,1363.15 2209.73,1345.33 2211.77,1324.53 2213.81,1331.96 2215.86,1340.67 2217.9,1351.71 2219.95,1368.32 2221.99,1369.49 2224.03,1356.25 2226.08,1354.97 2228.12,1349.92 2230.17,1372.43 2232.21,1364.67 2234.26,1347.79 2236.3,1356.8 2238.34,1354.97 2240.39,1354.79 2242.43,1355.7 2244.48,1354.6 2246.52,1361.26 2248.56,1349.92 2250.61,1334.94 2252.65,1366.2 2254.7,1344.64 2256.74,1352.07 2258.79,1353.88 2260.83,1359.39 2262.87,1355.52 2264.92,1376.42 2266.96,1356.8 2269.01,1365.62 2271.05,1346.73 2273.09,1327.41 2275.14,1350.99 2277.18,1346.38 2279.23,1344.11 2281.27,1365.24 2283.32,1353.69 2285.36,1369.49 2287.4,1362.77 2289.45,1359.95 2291.49,1357.35 "/>
<polyline clip-path="url(#clip692)" style="stroke:#3da44d; stroke-linecap:round; stroke-linejoin:round; stroke-width:4; stroke-opacity:1; fill:none" points="249.368,87.9763 251.412,192.29 253.456,301.281 255.5,494.352 257.545,806.959 259.589,919.109 261.633,993.822 263.677,1059.46 265.721,1103.73 267.765,1132.98 269.81,1146.45 271.854,1165.52 273.898,1173.32 275.942,1164.45 277.986,1150.42 280.03,1156.51 282.075,1155.05 284.119,1183.56 286.163,1177.98 288.207,1180.42 290.251,1162.17 292.295,1195.19 294.34,1201.42 296.384,1201.96 298.428,1198.73 300.472,1205.06 302.516,1207.46 304.56,1196.77 306.605,1200.16 308.649,1189.3 310.693,1204.14 312.737,1211.59 314.781,1194.13 316.825,1223.45 318.87,1231.17 320.914,1200.16 322.958,1221.65 325.002,1238.86 327.046,1239.08 329.09,1231.59 331.135,1225.05 333.179,1228.29 335.223,1238.76 337.267,1217.14 339.311,1204.69 341.355,1235.35 343.4,1228.09 345.444,1241.56 347.488,1241.56 349.532,1255.45 351.576,1253.61 353.62,1243.3 355.665,1243.63 357.709,1239.29 359.753,1254.76 361.797,1262.74 363.841,1235.56 365.885,1257.19 367.93,1253.49 369.974,1265.75 372.018,1248.28 374.062,1254.64 376.106,1264.18 378.15,1270.66 380.195,1276.18 382.239,1265.15 384.283,1247.72 386.327,1264.66 388.371,1278.23 390.415,1248.17 392.46,1277.72 394.504,1280.03 396.548,1284.48 398.592,1269.67 400.636,1264.66 402.681,1280.03 404.725,1273.53 406.769,1288.61 408.813,1276.69 410.857,1253.26 412.901,1283.29 414.946,1258.71 416.99,1273.53 419.034,1285.14 421.078,1299.09 423.122,1263.46 425.166,1291.73 427.211,1261.43 429.255,1312.49 431.299,1293.1 433.343,1272.28 435.387,1295.59 437.431,1304.1 439.476,1278.74 441.52,1284.48 443.564,1281.98 445.608,1295.17 447.652,1262.5 449.696,1306.57 451.741,1318.28 453.785,1298.81 455.829,1285.27 457.873,1297.27 459.917,1311 461.961,1305.98 464.006,1317.51 466.05,1305.25 468.094,1280.94 470.138,1264.79 472.182,1310.55 474.226,1302.65 476.271,1321.07 478.315,1319.98 480.359,1312.04 482.403,1325.01 484.447,1315.37 486.491,1300.37 488.536,1303.52 490.58,1283.56 492.624,1308.33 494.668,1299.52 496.712,1293.38 498.756,1331.47 500.801,1323.74 502.845,1311.29 504.889,1336.44 506.933,1300.94 508.977,1310.25 511.021,1326.29 513.066,1330 515.11,1306.71 517.154,1328.05 519.198,1314.61 521.242,1314.76 523.286,1297.55 525.331,1308.18 527.375,1312.94 529.419,1313.55 531.463,1277.59 533.507,1343.07 535.551,1337.61 537.596,1302.37 539.64,1305.69 541.684,1290.1 543.728,1333.61 545.772,1337.28 547.816,1311.44 549.861,1311.44 551.905,1324.85 553.949,1332.12 555.993,1336.1 558.037,1315.37 560.081,1333.61 562.126,1321.38 564.17,1311 566.214,1331.8 568.258,1318.74 570.302,1324.85 572.346,1321.38 574.391,1337.45 576.435,1339.48 578.479,1331.96 580.523,1319.36 582.567,1311.15 584.612,1309.21 586.656,1327.89 588.7,1295.31 590.744,1321.23 592.788,1312.19 594.832,1324.69 596.877,1339.31 598.921,1308.18 600.965,1301.08 603.009,1323.43 605.053,1331.14 607.097,1329.51 609.142,1319.05 611.186,1332.62 613.23,1322.48 615.274,1312.34 617.318,1342.21 619.362,1329.19 621.407,1314.45 623.451,1336.44 625.495,1350.63 627.539,1320.76 629.583,1318.74 631.627,1326.45 633.672,1321.07 635.716,1341.53 637.76,1326.93 639.804,1341.87 641.848,1348.67 643.892,1326.29 645.937,1328.86 647.981,1341.35 650.025,1313.09 652.069,1335.43 654.113,1343.59 656.157,1331.47 658.202,1327.73 660.246,1326.45 662.29,1333.11 664.334,1319.2 666.378,1333.77 668.422,1325.33 670.467,1321.07 672.511,1349.21 674.555,1341.18 676.599,1322.48 678.643,1293.93 680.687,1356.25 682.732,1354.79 684.776,1350.1 686.82,1349.21 688.864,1321.23 690.908,1328.54 692.952,1352.25 694.997,1320.6 697.041,1352.97 699.085,1332.95 701.129,1346.56 703.173,1326.61 705.217,1311.44 707.262,1341.53 709.306,1340.67 711.35,1360.89 713.394,1340.84 715.438,1358.46 717.482,1349.21 719.527,1346.03 721.571,1339.65 723.615,1358.65 725.659,1329.35 727.703,1307.44 729.747,1336.77 731.792,1349.56 733.836,1347.44 735.88,1333.94 737.924,1305.98 739.968,1349.38 742.012,1341.35 744.057,1339.65 746.101,1348.5 748.145,1334.94 750.189,1349.03 752.233,1338.29 754.277,1349.92 756.322,1339.65 758.366,1332.62 760.41,1348.67 762.454,1348.85 764.498,1320.91 766.542,1339.31 768.587,1334.1 770.631,1364.1 772.675,1353.51 774.719,1335.6 776.763,1331.96 778.808,1338.29 780.852,1351.71 782.896,1364.1 784.94,1369.49 786.984,1327.57 789.028,1355.88 791.073,1351.53 793.117,1350.99 795.161,1364.1 797.205,1346.21 799.249,1348.5 801.293,1335.77 803.338,1351.17 805.382,1355.88 807.426,1336.61 809.47,1352.43 811.514,1344.11 813.558,1341.18 815.603,1349.21 817.647,1347.97 819.691,1373.62 821.735,1330.16 823.779,1354.79 825.823,1350.28 827.868,1343.42 829.912,1345.16 831.956,1370.07 834,1370.47 836.044,1362.96 838.088,1304.24 840.133,1358.65 842.177,1339.14 844.221,1332.45 846.265,1350.63 848.309,1366.58 850.353,1327.57 852.398,1337.95 854.442,1331.47 856.486,1366.01 858.53,1345.33 860.574,1356.8 862.618,1365.62 864.663,1357.54 866.707,1338.97 868.751,1371.25 870.795,1337.95 872.839,1354.06 874.883,1365.43 876.928,1360.32 878.972,1361.45 881.016,1357.35 883.06,1371.64 885.104,1366.39 887.148,1356.25 889.193,1373.82 891.237,1359.02 893.281,1347.97 895.325,1359.76 897.369,1357.17 899.413,1370.27 901.458,1331.63 903.502,1359.39 905.546,1339.65 907.59,1356.25 909.634,1352.43 911.678,1365.24 913.723,1361.07 915.767,1363.15 917.811,1360.89 919.855,1333.11 921.899,1352.25 923.943,1319.67 925.988,1347.97 928.032,1368.52 930.076,1370.47 932.12,1371.84 934.164,1334.27 936.208,1377.23 938.253,1366.39 940.297,1358.65 942.341,1358.83 944.385,1362.58 946.429,1334.1 948.473,1343.77 950.518,1354.79 952.562,1350.45 954.606,1363.34 956.65,1347.79 958.694,1364.29 960.739,1340.5 962.783,1373.62 964.827,1363.91 966.871,1365.62 968.915,1346.56 970.959,1367.74 973.004,1371.84 975.048,1374.02 977.092,1358.83 979.136,1384 981.18,1368.9 983.224,1374.22 985.269,1339.99 987.313,1385.04 989.357,1359.58 991.401,1367.93 993.445,1370.47 995.489,1362.39 997.534,1366.78 999.578,1364.67 1001.62,1358.83 1003.67,1365.24 1005.71,1369.49 1007.75,1326.77 1009.8,1375.02 1011.84,1365.05 1013.89,1379.05 1015.93,1342.56 1017.98,1360.51 1020.02,1366.2 1022.06,1365.05 1024.11,1373.62 1026.15,1352.07 1028.2,1366.58 1030.24,1381.51 1032.28,1376.82 1034.33,1343.94 1036.37,1349.21 1038.42,1369.49 1040.46,1339.31 1042.51,1354.24 1044.55,1361.26 1046.59,1396.32 1048.64,1364.1 1050.68,1379.26 1052.73,1371.64 1054.77,1380.28 1056.81,1384.42 1058.86,1361.64 1060.9,1381.72 1062.95,1346.91 1064.99,1385.67 1067.04,1384.83 1069.08,1362.2 1071.12,1355.88 1073.17,1375.62 1075.21,1370.86 1077.26,1371.05 1079.3,1353.15 1081.34,1366.2 1083.39,1366.01 1085.43,1372.04 1087.48,1371.64 1089.52,1365.05 1091.57,1392.39 1093.61,1373.42 1095.65,1358.28 1097.7,1351.89 1099.74,1365.43 1101.79,1371.45 1103.83,1376.02 1105.87,1370.47 1107.92,1375.02 1109.96,1374.82 1112.01,1359.76 1114.05,1348.14 1116.1,1369.49 1118.14,1366.97 1120.18,1379.26 1122.23,1373.23 1124.27,1361.26 1126.32,1358.83 1128.36,1379.46 1130.4,1380.28 1132.45,1390.88 1134.49,1386.3 1136.54,1377.43 1138.58,1357.72 1140.63,1361.26 1142.67,1353.69 1144.71,1374.82 1146.76,1356.07 1148.8,1370.66 1150.85,1357.35 1152.89,1394.02 1154.93,1362.01 1156.98,1369.88 1159.02,1377.84 1161.07,1391.09 1163.11,1387.78 1165.16,1382.55 1167.2,1368.9 1169.24,1360.89 1171.29,1388.21 1173.33,1363.53 1175.38,1376.82 1177.42,1394.78 1179.46,1375.82 1181.51,1364.1 1183.55,1382.13 1185.6,1380.49 1187.64,1387.36 1189.69,1387.15 1191.73,1369.1 1193.77,1384.21 1195.82,1379.46 1197.86,1393.15 1199.91,1374.22 1201.95,1385.46 1203.99,1389.49 1206.04,1354.42 1208.08,1369.29 1210.13,1382.55 1212.17,1393.15 1214.22,1396.1 1216.26,1388.63 1218.3,1380.49 1220.35,1361.26 1222.39,1368.71 1224.44,1382.34 1226.48,1391.31 1228.52,1388.85 1230.57,1385.67 1232.61,1381.1 1234.66,1369.1 1236.7,1381.51 1238.75,1382.75 1240.79,1375.02 1242.83,1387.57 1244.88,1352.25 1246.92,1390.45 1248.97,1364.1 1251.01,1388.21 1253.05,1403.84 1255.1,1375.42 1257.14,1379.26 1259.19,1389.49 1261.23,1389.91 1263.28,1336.77 1265.32,1392.17 1267.36,1365.24 1269.41,1381.72 1271.45,1376.22 1273.5,1395.22 1275.54,1382.96 1277.58,1382.34 1279.63,1407.17 1281.67,1392.17 1283.72,1372.04 1285.76,1389.27 1287.81,1390.13 1289.85,1395 1291.89,1396.54 1293.94,1391.96 1295.98,1398.2 1298.03,1390.23 1300.07,1384.63 1302.11,1365.24 1304.16,1361.64 1306.2,1385.25 1308.25,1397.98 1310.29,1397.54 1312.34,1396.32 1314.38,1392.93 1316.42,1406.36 1318.47,1405.09 1320.51,1390.66 1322.56,1363.53 1324.6,1392.17 1326.64,1379.67 1328.69,1388.42 1330.73,1380.08 1332.78,1367.55 1334.82,1400.89 1336.87,1387.78 1338.91,1385.25 1340.95,1403.04 1343,1388.63 1345.04,1398.43 1347.09,1395.44 1349.13,1395.44 1351.17,1403.61 1353.22,1375.42 1355.26,1401.57 1357.31,1395.66 1359.35,1401.91 1361.4,1360.14 1363.44,1395.44 1365.48,1400.33 1367.53,1396.54 1369.57,1390.66 1371.62,1406.36 1373.66,1390.23 1375.7,1402.93 1377.75,1377.23 1379.79,1387.36 1381.84,1394.78 1383.88,1396.76 1385.93,1372.04 1387.97,1393.58 1390.01,1371.05 1392.06,1405.55 1394.1,1396.32 1396.15,1390.88 1398.19,1384 1400.23,1394.24 1402.28,1401.11 1404.32,1391.52 1406.37,1411.38 1408.41,1409.27 1410.46,1383.17 1412.5,1402.13 1414.54,1414.95 1416.59,1380.9 1418.63,1412.92 1420.68,1404.29 1422.72,1373.23 1424.76,1416.88 1426.81,1398.43 1428.85,1392.93 1430.9,1403.38 1432.94,1404.75 1434.99,1405.55 1437.03,1410.91 1439.07,1402.02 1441.12,1403.84 1443.16,1401.79 1445.21,1399.43 1447.25,1406.01 1449.29,1407.63 1451.34,1379.67 1453.38,1409.15 1455.43,1411.97 1457.47,1394.46 1459.52,1388.21 1461.56,1402.36 1463.6,1399.65 1465.65,1386.51 1467.69,1406.59 1469.74,1394.24 1471.78,1411.5 1473.82,1402.13 1475.87,1409.27 1477.91,1405.44 1479.96,1410.79 1482,1407.98 1484.05,1397.76 1486.09,1410.44 1488.13,1395.44 1490.18,1393.15 1492.22,1389.91 1494.27,1419.69 1496.31,1388.42 1498.35,1389.91 1500.4,1408.22 1502.44,1405.55 1504.49,1406.25 1506.53,1411.03 1508.58,1400.78 1510.62,1404.41 1512.66,1393.15 1514.71,1414 1516.75,1393.58 1518.8,1400.89 1520.84,1417.73 1522.88,1385.88 1524.93,1418.83 1526.97,1415.92 1529.02,1406.94 1531.06,1406.13 1533.11,1407.75 1535.15,1407.98 1537.19,1402.81 1539.24,1408.68 1541.28,1420.67 1543.33,1382.34 1545.37,1402.13 1547.41,1419.69 1549.46,1399.32 1551.5,1417.13 1553.55,1407.4 1555.59,1386.94 1557.64,1407.52 1559.68,1418.71 1561.72,1409.27 1563.77,1415.55 1565.81,1411.97 1567.86,1412.45 1569.9,1397.21 1571.94,1402.58 1573.99,1395.88 1576.03,1426.41 1578.08,1403.61 1580.12,1395.88 1582.17,1410.32 1584.21,1401.91 1586.25,1400.44 1588.3,1410.67 1590.34,1428.19 1592.39,1397.76 1594.43,1408.92 1596.47,1400.89 1598.52,1405.44 1600.56,1420.92 1602.61,1408.1 1604.65,1404.87 1606.7,1393.8 1608.74,1412.68 1610.78,1400.33 1612.83,1397.54 1614.87,1395 1616.92,1418.59 1618.96,1386.73 1621,1386.3 1623.05,1414.83 1625.09,1419.44 1627.14,1416.04 1629.18,1412.09 1631.23,1411.85 1633.27,1394.02 1635.31,1408.33 1637.36,1404.06 1639.4,1410.32 1641.45,1412.33 1643.49,1426.04 1645.53,1405.44 1647.58,1428.7 1649.62,1410.67 1651.67,1412.33 1653.71,1427.94 1655.76,1411.5 1657.8,1423.02 1659.84,1403.27 1661.89,1408.68 1663.93,1404.64 1665.98,1407.05 1668.02,1409.97 1670.06,1414.35 1672.11,1424.02 1674.15,1406.01 1676.2,1411.5 1678.24,1424.4 1680.29,1408.92 1682.33,1392.71 1684.37,1421.04 1686.42,1411.85 1688.46,1416.28 1690.51,1405.55 1692.55,1379.05 1694.59,1414.47 1696.64,1425.53 1698.68,1403.72 1700.73,1423.27 1702.77,1421.78 1704.82,1394.02 1706.86,1413.04 1708.9,1392.39 1710.95,1401.34 1712.99,1421.66 1715.04,1421.04 1717.08,1420.55 1719.13,1410.79 1721.17,1418.46 1723.21,1411.26 1725.26,1411.97 1727.3,1407.98 1729.35,1412.45 1731.39,1408.56 1733.43,1406.94 1735.48,1418.22 1737.52,1422.53 1739.57,1426.16 1741.61,1394.67 1743.66,1415.68 1745.7,1419.44 1747.74,1413.76 1749.79,1423.4 1751.83,1404.75 1753.88,1421.53 1755.92,1409.73 1757.96,1410.79 1760.01,1392.17 1762.05,1415.68 1764.1,1425.91 1766.14,1415.07 1768.19,1420.3 1770.23,1407.05 1772.27,1427.56 1774.32,1413.28 1776.36,1427.81 1778.41,1419.81 1780.45,1414 1782.49,1407.29 1784.54,1419.2 1786.58,1408.45 1788.63,1425.03 1790.67,1417.37 1792.72,1409.03 1794.76,1425.53 1796.8,1429.6 1798.85,1404.52 1800.89,1417.25 1802.94,1422.15 1804.98,1402.36 1807.02,1422.78 1809.07,1414.71 1811.11,1404.87 1813.16,1427.43 1815.2,1439.85 1817.25,1411.97 1819.29,1401.79 1821.33,1417 1823.38,1412.92 1825.42,1429.73 1827.47,1419.07 1829.51,1425.4 1831.55,1430.89 1833.6,1406.48 1835.64,1412.8 1837.69,1432.96 1839.73,1415.31 1841.78,1430.24 1843.82,1420.92 1845.86,1440.39 1847.91,1418.22 1849.95,1411.38 1852,1411.85 1854.04,1419.07 1856.08,1430.89 1858.13,1415.31 1860.17,1417.85 1862.22,1433.23 1864.26,1422.4 1866.31,1422.9 1868.35,1428.7 1870.39,1420.67 1872.44,1427.43 1874.48,1410.44 1876.53,1411.38 1878.57,1427.56 1880.61,1430.89 1882.66,1423.4 1884.7,1419.56 1886.75,1423.4 1888.79,1432.44 1890.84,1417.37 1892.88,1421.29 1894.92,1440.12 1896.97,1423.27 1899.01,1410.44 1901.06,1441.47 1903.1,1437.31 1905.14,1427.68 1907.19,1426.16 1909.23,1438.64 1911.28,1426.92 1913.32,1421.78 1915.37,1427.56 1917.41,1430.63 1919.45,1425.15 1921.5,1441.47 1923.54,1432.96 1925.59,1409.27 1927.63,1420.42 1929.67,1419.44 1931.72,1418.1 1933.76,1423.65 1935.81,1428.83 1937.85,1427.05 1939.9,1413.88 1941.94,1422.15 1943.98,1429.22 1946.03,1431.28 1948.07,1411.97 1950.12,1427.56 1952.16,1432.18 1954.2,1434.67 1956.25,1406.48 1958.29,1430.24 1960.34,1437.18 1962.38,1417.37 1964.43,1421.04 1966.47,1431.28 1968.51,1443.11 1970.56,1411.38 1972.6,1423.27 1974.65,1426.79 1976.69,1426.92 1978.73,1432.57 1980.78,1427.68 1982.82,1425.15 1984.87,1435.06 1986.91,1433.88 1988.96,1430.89 1991,1439.72 1993.04,1415.68 1995.09,1424.02 1997.13,1428.83 1999.18,1432.31 2001.22,1426.29 2003.26,1427.56 2005.31,1429.73 2007.35,1428.19 2009.4,1430.37 2011.44,1419.93 2013.49,1432.96 2015.53,1438.38 2017.57,1417.37 2019.62,1426.16 2021.66,1422.28 2023.71,1429.99 2025.75,1429.86 2027.79,1427.43 2029.84,1419.44 2031.88,1445.03 2033.93,1432.83 2035.97,1415.8 2038.02,1439.31 2040.06,1429.6 2042.1,1440.53 2044.15,1431.28 2046.19,1433.36 2048.24,1417.49 2050.28,1435.46 2052.32,1434.8 2054.37,1424.65 2056.41,1442.83 2058.46,1438.24 2060.5,1435.32 2062.55,1422.15 2064.59,1435.19 2066.63,1419.32 2068.68,1433.49 2070.72,1438.64 2072.77,1414.35 2074.81,1438.64 2076.85,1421.04 2078.9,1425.4 2080.94,1439.18 2082.99,1438.11 2085.03,1414.71 2087.08,1445.72 2089.12,1442.29 2091.16,1418.1 2093.21,1435.72 2095.25,1427.68 2097.3,1428.45 2099.34,1442.29 2101.38,1426.92 2103.43,1427.18 2105.47,1432.57 2107.52,1423.27 2109.56,1432.18 2111.61,1420.55 2113.65,1435.06 2115.69,1417.49 2117.74,1434.93 2119.78,1413.52 2121.83,1432.05 2123.87,1432.7 2125.91,1412.68 2127.96,1424.52 2130,1424.65 2132.05,1439.45 2134.09,1429.34 2136.14,1427.94 2138.18,1415.92 2140.22,1419.56 2142.27,1432.18 2144.31,1432.31 2146.36,1435.06 2148.4,1428.58 2150.44,1409.73 2152.49,1431.92 2154.53,1421.29 2156.58,1419.44 2158.62,1421.78 2160.67,1419.07 2162.71,1417.85 2164.75,1436.25 2166.8,1426.54 2168.84,1440.39 2170.89,1424.52 2172.93,1435.98 2174.97,1422.15 2177.02,1407.05 2179.06,1427.56 2181.11,1423.65 2183.15,1429.22 2185.2,1430.63 2187.24,1421.41 2189.28,1437.31 2191.33,1430.11 2193.37,1427.68 2195.42,1442.83 2197.46,1426.29 2199.5,1445.16 2201.55,1426.29 2203.59,1425.53 2205.64,1429.47 2207.68,1433.23 2209.73,1431.28 2211.77,1433.88 2213.81,1418.59 2215.86,1438.64 2217.9,1432.31 2219.95,1426.41 2221.99,1415.68 2224.03,1436.25 2226.08,1439.58 2228.12,1423.02 2230.17,1440.66 2232.21,1426.04 2234.26,1430.11 2236.3,1410.44 2238.34,1434.27 2240.39,1411.03 2242.43,1427.81 2244.48,1436.65 2246.52,1426.04 2248.56,1429.47 2250.61,1444.48 2252.65,1424.02 2254.7,1432.96 2256.74,1416.76 2258.79,1412.45 2260.83,1440.93 2262.87,1421.41 2264.92,1414.59 2266.96,1435.85 2269.01,1422.28 2271.05,1437.98 2273.09,1435.98 2275.14,1419.56 2277.18,1424.02 2279.23,1430.24 2281.27,1433.36 2283.32,1421.04 2285.36,1443.93 2287.4,1420.3 2289.45,1441.88 2291.49,1438.64 "/>
<polyline clip-path="url(#clip692)" style="stroke:#c271d2; stroke-linecap:round; stroke-linejoin:round; stroke-width:4; stroke-opacity:1; fill:none" points="249.368,123.958 251.412,168.69 253.456,227.667 255.5,312.631 257.545,467.185 259.589,703.725 261.633,752.234 263.677,783.997 265.721,809.946 267.765,822.45 269.81,827.868 271.854,827.476 273.898,829.704 275.942,828.915 277.986,829.178 280.03,828.915 282.075,829.836 284.119,827.998 286.163,830.364 288.207,828.653 290.251,829.572 292.295,830.364 294.34,829.704 296.384,830.231 298.428,829.046 300.472,829.178 302.516,828.915 304.56,830.099 306.605,828.522 308.649,827.998 310.693,828.653 312.737,829.572 314.781,830.099 316.825,828.915 318.87,826.825 320.914,829.704 322.958,829.441 325.002,828.653 327.046,829.046 329.09,830.099 331.135,829.178 333.179,828.26 335.223,829.704 337.267,831.158 339.311,828.915 341.355,829.441 343.4,829.704 345.444,829.836 347.488,829.968 349.532,829.046 351.576,828.391 353.62,830.099 355.665,828.653 357.709,829.046 359.753,829.046 361.797,829.309 363.841,828.784 365.885,829.178 367.93,829.441 369.974,829.309 372.018,829.309 374.062,828.129 376.106,828.129 378.15,830.231 380.195,827.476 382.239,829.178 384.283,830.628 386.327,829.968 388.371,830.364 390.415,829.178 392.46,828.129 394.504,828.915 396.548,829.704 398.592,830.099 400.636,829.704 402.681,828.784 404.725,827.998 406.769,830.364 408.813,828.391 410.857,828.784 412.901,827.868 414.946,828.915 416.99,828.915 419.034,829.704 421.078,827.998 423.122,829.441 425.166,830.231 427.211,830.231 429.255,827.476 431.299,829.441 433.343,827.998 435.387,831.025 437.431,829.309 439.476,829.968 441.52,830.364 443.564,829.836 445.608,830.231 447.652,829.441 449.696,829.572 451.741,829.178 453.785,830.231 455.829,829.309 457.873,828.522 459.917,829.046 461.961,829.836 464.006,829.441 466.05,829.309 468.094,830.364 470.138,829.836 472.182,827.737 474.226,829.704 476.271,829.572 478.315,827.085 480.359,829.178 482.403,830.099 484.447,827.216 486.491,829.309 488.536,827.607 490.58,829.178 492.624,830.231 494.668,828.391 496.712,829.572 498.756,829.309 500.801,829.704 502.845,829.704 504.889,829.968 506.933,830.496 508.977,830.628 511.021,829.968 513.066,828.915 515.11,829.572 517.154,829.309 519.198,829.968 521.242,829.968 523.286,829.836 525.331,829.441 527.375,829.046 529.419,826.955 531.463,829.441 533.507,830.628 535.551,828.915 537.596,829.441 539.64,829.704 541.684,827.085 543.728,828.784 545.772,827.476 547.816,829.178 549.861,827.737 551.905,828.784 553.949,829.572 555.993,830.231 558.037,829.309 560.081,828.391 562.126,830.628 564.17,829.178 566.214,830.496 568.258,829.836 570.302,828.653 572.346,829.046 574.391,827.998 576.435,830.231 578.479,829.178 580.523,826.825 582.567,829.441 584.612,829.704 586.656,829.836 588.7,829.836 590.744,829.968 592.788,828.784 594.832,825.917 596.877,829.572 598.921,829.704 600.965,829.046 603.009,826.176 605.053,829.836 607.097,829.836 609.142,829.836 611.186,829.704 613.23,829.178 615.274,828.653 617.318,830.364 619.362,827.476 621.407,829.968 623.451,828.522 625.495,828.915 627.539,829.309 629.583,828.915 631.627,830.893 633.672,829.704 635.716,829.046 637.76,829.178 639.804,829.572 641.848,829.836 643.892,830.099 645.937,828.653 647.981,829.178 650.025,828.784 652.069,829.968 654.113,828.915 656.157,828.522 658.202,828.784 660.246,829.309 662.29,828.391 664.334,827.868 666.378,829.309 668.422,828.915 670.467,829.309 672.511,830.76 674.555,828.391 676.599,829.836 678.643,830.496 680.687,829.704 682.732,827.737 684.776,828.784 686.82,829.309 688.864,830.496 690.908,829.836 692.952,828.26 694.997,829.572 697.041,829.178 699.085,827.476 701.129,829.441 703.173,828.915 705.217,829.968 707.262,826.176 709.306,827.476 711.35,829.178 713.394,828.522 715.438,830.628 717.482,828.915 719.527,830.76 721.571,830.628 723.615,829.572 725.659,829.178 727.703,827.998 729.747,830.496 731.792,830.496 733.836,829.968 735.88,828.784 737.924,829.704 739.968,828.26 742.012,828.129 744.057,830.099 746.101,827.476 748.145,830.364 750.189,829.968 752.233,829.441 754.277,830.099 756.322,829.968 758.366,829.572 760.41,828.391 762.454,829.309 764.498,829.441 766.542,828.784 768.587,829.572 770.631,829.046 772.675,828.653 774.719,829.704 776.763,829.704 778.808,829.572 780.852,829.836 782.896,829.441 784.94,829.178 786.984,827.737 789.028,829.572 791.073,829.441 793.117,828.784 795.161,829.046 797.205,829.572 799.249,831.025 801.293,828.915 803.338,828.784 805.382,828.522 807.426,829.968 809.47,830.628 811.514,829.309 813.558,829.309 815.603,830.099 817.647,829.046 819.691,829.572 821.735,829.572 823.779,829.046 825.823,829.046 827.868,828.522 829.912,830.099 831.956,829.178 834,829.441 836.044,830.628 838.088,830.364 840.133,830.099 842.177,828.915 844.221,829.572 846.265,828.653 848.309,830.231 850.353,829.178 852.398,828.784 854.442,828.784 856.486,829.441 858.53,829.572 860.574,828.522 862.618,829.046 864.663,829.836 866.707,829.309 868.751,829.441 870.795,829.309 872.839,829.178 874.883,830.231 876.928,829.572 878.972,827.085 881.016,830.099 883.06,829.704 885.104,830.364 887.148,829.836 889.193,828.653 891.237,830.231 893.281,829.968 895.325,829.836 897.369,829.441 899.413,830.364 901.458,828.522 903.502,829.309 905.546,830.231 907.59,829.704 909.634,830.364 911.678,831.29 913.723,829.309 915.767,829.309 917.811,828.522 919.855,828.129 921.899,828.653 923.943,831.158 925.988,830.364 928.032,829.046 930.076,829.178 932.12,829.441 934.164,829.836 936.208,829.178 938.253,829.309 940.297,830.628 942.341,828.915 944.385,830.496 946.429,829.968 948.473,830.231 950.518,829.309 952.562,829.968 954.606,830.496 956.65,828.784 958.694,829.572 960.739,829.178 962.783,827.346 964.827,829.046 966.871,827.868 968.915,828.784 970.959,828.391 973.004,828.915 975.048,830.364 977.092,829.836 979.136,828.391 981.18,828.391 983.224,828.915 985.269,829.968 987.313,830.231 989.357,828.522 991.401,830.893 993.445,829.704 995.489,829.704 997.534,829.046 999.578,829.836 1001.62,829.704 1003.67,829.836 1005.71,830.231 1007.75,827.607 1009.8,830.364 1011.84,829.178 1013.89,829.968 1015.93,829.704 1017.98,829.836 1020.02,830.099 1022.06,829.178 1024.11,830.231 1026.15,828.522 1028.2,830.364 1030.24,830.099 1032.28,827.607 1034.33,830.231 1036.37,828.129 1038.42,829.309 1040.46,830.231 1042.51,827.476 1044.55,829.309 1046.59,829.572 1048.64,829.968 1050.68,830.231 1052.73,829.572 1054.77,829.046 1056.81,829.046 1058.86,828.784 1060.9,829.704 1062.95,830.496 1064.99,830.099 1067.04,829.309 1069.08,830.628 1071.12,830.099 1073.17,828.653 1075.21,829.309 1077.26,829.441 1079.3,830.496 1081.34,828.26 1083.39,826.565 1085.43,829.441 1087.48,829.309 1089.52,829.309 1091.57,829.968 1093.61,829.309 1095.65,829.836 1097.7,826.176 1099.74,828.784 1101.79,829.968 1103.83,829.836 1105.87,830.364 1107.92,829.704 1109.96,829.309 1112.01,829.046 1114.05,830.231 1116.1,829.968 1118.14,830.099 1120.18,829.046 1122.23,829.572 1124.27,830.099 1126.32,829.441 1128.36,827.998 1130.4,828.391 1132.45,827.085 1134.49,830.231 1136.54,828.653 1138.58,828.784 1140.63,828.653 1142.67,829.309 1144.71,827.607 1146.76,829.441 1148.8,828.784 1150.85,829.836 1152.89,828.522 1154.93,827.998 1156.98,829.309 1159.02,829.836 1161.07,830.364 1163.11,827.476 1165.16,830.76 1167.2,828.653 1169.24,828.129 1171.29,830.364 1173.33,828.129 1175.38,829.836 1177.42,829.968 1179.46,829.836 1181.51,829.836 1183.55,829.441 1185.6,829.704 1187.64,829.836 1189.69,830.231 1191.73,829.441 1193.77,830.099 1195.82,830.628 1197.86,827.998 1199.91,829.572 1201.95,828.391 1203.99,829.968 1206.04,829.836 1208.08,829.178 1210.13,829.309 1212.17,829.309 1214.22,828.915 1216.26,829.836 1218.3,829.178 1220.35,827.868 1222.39,829.178 1224.44,829.968 1226.48,828.129 1228.52,829.836 1230.57,830.364 1232.61,829.441 1234.66,829.309 1236.7,830.364 1238.75,829.704 1240.79,828.653 1242.83,828.784 1244.88,830.099 1246.92,829.178 1248.97,829.178 1251.01,829.572 1253.05,830.099 1255.1,829.309 1257.14,829.704 1259.19,828.915 1261.23,829.836 1263.28,828.784 1265.32,827.216 1267.36,829.968 1269.41,829.309 1271.45,830.893 1273.5,829.178 1275.54,828.784 1277.58,829.178 1279.63,831.158 1281.67,830.231 1283.72,829.836 1285.76,830.231 1287.81,828.784 1289.85,828.653 1291.89,829.309 1293.94,829.572 1295.98,829.046 1298.03,829.968 1300.07,830.364 1302.11,829.046 1304.16,830.231 1306.2,830.231 1308.25,830.364 1310.29,829.968 1312.34,829.441 1314.38,830.364 1316.42,829.441 1318.47,829.572 1320.51,829.704 1322.56,830.496 1324.6,828.653 1326.64,829.046 1328.69,829.178 1330.73,830.364 1332.78,831.29 1334.82,830.231 1336.87,829.309 1338.91,828.522 1340.95,828.129 1343,830.76 1345.04,829.441 1347.09,830.231 1349.13,829.309 1351.17,828.129 1353.22,827.737 1355.26,829.441 1357.31,829.046 1359.35,829.572 1361.4,829.309 1363.44,827.868 1365.48,829.178 1367.53,828.26 1369.57,830.099 1371.62,829.704 1373.66,828.915 1375.7,828.653 1377.75,830.231 1379.79,829.836 1381.84,829.704 1383.88,828.522 1385.93,829.836 1387.97,830.496 1390.01,830.231 1392.06,828.653 1394.1,828.522 1396.15,828.915 1398.19,829.968 1400.23,829.572 1402.28,829.309 1404.32,828.391 1406.37,828.653 1408.41,830.099 1410.46,830.099 1412.5,830.099 1414.54,829.968 1416.59,829.968 1418.63,829.704 1420.68,829.309 1422.72,828.391 1424.76,830.231 1426.81,829.704 1428.85,829.441 1430.9,829.704 1432.94,829.572 1434.99,828.522 1437.03,830.231 1439.07,830.893 1441.12,829.178 1443.16,829.836 1445.21,829.309 1447.25,830.628 1449.29,829.704 1451.34,827.868 1453.38,830.364 1455.43,829.309 1457.47,829.441 1459.52,829.704 1461.56,829.178 1463.6,830.364 1465.65,828.391 1467.69,828.784 1469.74,829.572 1471.78,828.653 1473.82,829.836 1475.87,830.893 1477.91,830.364 1479.96,828.26 1482,827.737 1484.05,830.628 1486.09,829.572 1488.13,829.441 1490.18,828.784 1492.22,830.364 1494.27,829.704 1496.31,828.522 1498.35,829.704 1500.4,828.522 1502.44,830.496 1504.49,827.868 1506.53,829.836 1508.58,829.836 1510.62,830.364 1512.66,829.968 1514.71,830.099 1516.75,827.216 1518.8,829.572 1520.84,829.704 1522.88,829.968 1524.93,828.26 1526.97,829.046 1529.02,830.099 1531.06,829.309 1533.11,828.522 1535.15,829.441 1537.19,828.653 1539.24,829.178 1541.28,829.178 1543.33,828.129 1545.37,830.231 1547.41,830.099 1549.46,829.441 1551.5,826.176 1553.55,828.653 1555.59,830.893 1557.64,829.968 1559.68,829.704 1561.72,824.755 1563.77,829.968 1565.81,830.099 1567.86,829.572 1569.9,828.522 1571.94,830.364 1573.99,829.441 1576.03,829.968 1578.08,829.309 1580.12,828.653 1582.17,829.968 1584.21,830.76 1586.25,829.572 1588.3,829.178 1590.34,829.968 1592.39,829.572 1594.43,829.178 1596.47,827.216 1598.52,830.099 1600.56,829.178 1602.61,829.704 1604.65,829.572 1606.7,829.704 1608.74,830.364 1610.78,828.653 1612.83,830.231 1614.87,830.099 1616.92,828.784 1618.96,828.653 1621,829.046 1623.05,829.836 1625.09,827.868 1627.14,829.178 1629.18,831.158 1631.23,829.441 1633.27,828.653 1635.31,829.178 1637.36,830.628 1639.4,830.364 1641.45,829.441 1643.49,828.915 1645.53,828.653 1647.58,829.178 1649.62,829.836 1651.67,830.76 1653.71,830.364 1655.76,830.231 1657.8,828.915 1659.84,828.915 1661.89,828.391 1663.93,830.099 1665.98,829.178 1668.02,829.309 1670.06,829.968 1672.11,830.099 1674.15,830.099 1676.2,829.572 1678.24,830.364 1680.29,829.178 1682.33,829.572 1684.37,829.968 1686.42,829.836 1688.46,829.178 1690.51,829.046 1692.55,829.309 1694.59,829.836 1696.64,828.653 1698.68,829.441 1700.73,829.309 1702.77,829.046 1704.82,829.309 1706.86,828.26 1708.9,829.572 1710.95,829.968 1712.99,829.968 1715.04,829.704 1717.08,829.046 1719.13,828.653 1721.17,828.129 1723.21,829.836 1725.26,830.364 1727.3,830.364 1729.35,828.391 1731.39,829.572 1733.43,827.476 1735.48,830.364 1737.52,828.129 1739.57,829.572 1741.61,830.628 1743.66,828.26 1745.7,830.496 1747.74,830.231 1749.79,829.046 1751.83,829.441 1753.88,829.441 1755.92,829.968 1757.96,830.364 1760.01,830.364 1762.05,829.441 1764.1,828.26 1766.14,828.653 1768.19,828.784 1770.23,829.704 1772.27,826.955 1774.32,830.364 1776.36,829.441 1778.41,829.441 1780.45,828.915 1782.49,830.628 1784.54,830.76 1786.58,831.29 1788.63,829.968 1790.67,829.178 1792.72,829.178 1794.76,829.968 1796.8,829.968 1798.85,828.522 1800.89,828.915 1802.94,829.441 1804.98,829.046 1807.02,827.998 1809.07,830.364 1811.11,828.129 1813.16,828.391 1815.2,829.836 1817.25,829.836 1819.29,829.441 1821.33,829.441 1823.38,830.231 1825.42,830.628 1827.47,829.309 1829.51,828.391 1831.55,829.178 1833.6,829.046 1835.64,829.836 1837.69,829.178 1839.73,828.784 1841.78,829.572 1843.82,827.476 1845.86,828.915 1847.91,828.653 1849.95,829.968 1852,828.915 1854.04,828.391 1856.08,826.955 1858.13,828.391 1860.17,830.099 1862.22,829.836 1864.26,830.364 1866.31,829.441 1868.35,829.836 1870.39,829.572 1872.44,829.968 1874.48,830.231 1876.53,830.496 1878.57,829.836 1880.61,828.391 1882.66,830.099 1884.7,828.391 1886.75,829.836 1888.79,828.915 1890.84,829.836 1892.88,829.704 1894.92,830.76 1896.97,829.572 1899.01,830.099 1901.06,827.868 1903.1,828.522 1905.14,829.178 1907.19,828.522 1909.23,829.441 1911.28,829.572 1913.32,829.309 1915.37,828.784 1917.41,829.441 1919.45,829.836 1921.5,830.099 1923.54,829.572 1925.59,829.704 1927.63,830.893 1929.67,829.441 1931.72,829.441 1933.76,829.572 1935.81,830.364 1937.85,828.522 1939.9,829.309 1941.94,829.309 1943.98,830.628 1946.03,829.572 1948.07,827.868 1950.12,829.178 1952.16,828.522 1954.2,827.346 1956.25,830.364 1958.29,828.522 1960.34,827.085 1962.38,828.784 1964.43,828.915 1966.47,829.309 1968.51,829.836 1970.56,830.231 1972.6,827.607 1974.65,830.099 1976.69,829.968 1978.73,828.653 1980.78,827.998 1982.82,830.364 1984.87,830.231 1986.91,828.784 1988.96,829.836 1991,830.628 1993.04,830.099 1995.09,829.441 1997.13,826.825 1999.18,829.309 2001.22,829.704 2003.26,828.653 2005.31,830.099 2007.35,829.046 2009.4,830.099 2011.44,830.628 2013.49,828.391 2015.53,828.784 2017.57,830.628 2019.62,828.915 2021.66,828.915 2023.71,829.441 2025.75,827.476 2027.79,829.046 2029.84,829.968 2031.88,829.309 2033.93,829.704 2035.97,829.046 2038.02,828.915 2040.06,827.868 2042.1,830.231 2044.15,829.572 2046.19,828.784 2048.24,829.441 2050.28,829.968 2052.32,830.099 2054.37,829.704 2056.41,828.653 2058.46,828.391 2060.5,827.346 2062.55,829.836 2064.59,827.868 2066.63,830.364 2068.68,830.099 2070.72,827.085 2072.77,830.364 2074.81,829.309 2076.85,828.522 2078.9,829.046 2080.94,830.231 2082.99,827.346 2085.03,829.572 2087.08,828.653 2089.12,829.572 2091.16,828.653 2093.21,829.441 2095.25,829.968 2097.3,830.364 2099.34,829.309 2101.38,828.784 2103.43,830.099 2105.47,829.178 2107.52,828.915 2109.56,829.178 2111.61,828.915 2113.65,830.099 2115.69,829.836 2117.74,830.364 2119.78,826.955 2121.83,829.178 2123.87,831.29 2125.91,830.496 2127.96,828.653 2130,829.704 2132.05,830.76 2134.09,829.968 2136.14,827.998 2138.18,828.26 2140.22,830.099 2142.27,828.784 2144.31,829.309 2146.36,829.309 2148.4,828.915 2150.44,830.628 2152.49,830.496 2154.53,827.868 2156.58,830.364 2158.62,829.572 2160.67,828.784 2162.71,829.178 2164.75,830.628 2166.8,830.496 2168.84,829.046 2170.89,831.158 2172.93,827.868 2174.97,830.628 2177.02,830.364 2179.06,827.476 2181.11,829.836 2183.15,828.653 2185.2,830.364 2187.24,830.099 2189.28,829.441 2191.33,829.441 2193.37,830.099 2195.42,829.178 2197.46,828.784 2199.5,830.231 2201.55,830.76 2203.59,825.271 2205.64,827.998 2207.68,828.522 2209.73,827.998 2211.77,829.704 2213.81,829.309 2215.86,830.628 2217.9,829.572 2219.95,828.784 2221.99,829.046 2224.03,829.441 2226.08,828.26 2228.12,828.653 2230.17,826.825 2232.21,830.099 2234.26,830.364 2236.3,829.178 2238.34,827.476 2240.39,829.836 2242.43,830.496 2244.48,830.231 2246.52,829.836 2248.56,829.704 2250.61,829.046 2252.65,828.915 2254.7,829.836 2256.74,829.309 2258.79,829.836 2260.83,829.309 2262.87,829.309 2264.92,828.915 2266.96,829.441 2269.01,829.178 2271.05,828.915 2273.09,829.178 2275.14,829.572 2277.18,830.231 2279.23,829.178 2281.27,830.628 2283.32,828.784 2285.36,827.998 2287.4,829.309 2289.45,828.653 2291.49,828.784 "/>
<path clip-path="url(#clip690)" d="M1938 302.578 L2280.6 302.578 L2280.6 95.2176 L1938 95.2176  Z" fill="#ffffff" fill-rule="evenodd" fill-opacity="1"/>
<polyline clip-path="url(#clip690)" style="stroke:#000000; stroke-linecap:round; stroke-linejoin:round; stroke-width:4; stroke-opacity:1; fill:none" points="1938,302.578 2280.6,302.578 2280.6,95.2176 1938,95.2176 1938,302.578 "/>
<polyline clip-path="url(#clip690)" style="stroke:#e26f46; stroke-linecap:round; stroke-linejoin:round; stroke-width:4; stroke-opacity:1; fill:none" points="1962.05,147.058 2106.36,147.058 "/>
<path clip-path="url(#clip690)" d="M2148.84 139.176 L2148.84 143.203 Q2147.04 142.277 2145.09 141.815 Q2143.15 141.352 2141.06 141.352 Q2137.89 141.352 2136.3 142.324 Q2134.72 143.296 2134.72 145.24 Q2134.72 146.722 2135.86 147.578 Q2136.99 148.412 2140.42 149.176 L2141.87 149.5 Q2146.41 150.472 2148.31 152.254 Q2150.23 154.014 2150.23 157.185 Q2150.23 160.796 2147.36 162.902 Q2144.51 165.009 2139.51 165.009 Q2137.43 165.009 2135.16 164.592 Q2132.92 164.199 2130.42 163.388 L2130.42 158.99 Q2132.78 160.217 2135.07 160.842 Q2137.36 161.444 2139.61 161.444 Q2142.61 161.444 2144.23 160.426 Q2145.86 159.384 2145.86 157.509 Q2145.86 155.773 2144.67 154.847 Q2143.52 153.921 2139.56 153.064 L2138.08 152.717 Q2134.12 151.884 2132.36 150.171 Q2130.6 148.435 2130.6 145.426 Q2130.6 141.768 2133.19 139.778 Q2135.79 137.787 2140.55 137.787 Q2142.92 137.787 2145 138.134 Q2147.08 138.481 2148.84 139.176 Z" fill="#000000" fill-rule="nonzero" fill-opacity="1" /><path clip-path="url(#clip690)" d="M2156.85 128.319 L2161.13 128.319 L2161.13 149.592 L2173.84 138.412 L2179.28 138.412 L2165.53 150.541 L2179.86 164.338 L2174.3 164.338 L2161.13 151.676 L2161.13 164.338 L2156.85 164.338 L2156.85 128.319 Z" fill="#000000" fill-rule="nonzero" fill-opacity="1" /><path clip-path="url(#clip690)" d="M2204.95 150.31 L2204.95 152.393 L2185.37 152.393 Q2185.65 156.791 2188.01 159.106 Q2190.39 161.398 2194.63 161.398 Q2197.08 161.398 2199.37 160.796 Q2201.69 160.194 2203.96 158.99 L2203.96 163.018 Q2201.67 163.99 2199.26 164.5 Q2196.85 165.009 2194.37 165.009 Q2188.17 165.009 2184.54 161.398 Q2180.92 157.787 2180.92 151.629 Q2180.92 145.264 2184.35 141.537 Q2187.8 137.787 2193.63 137.787 Q2198.86 137.787 2201.9 141.166 Q2204.95 144.523 2204.95 150.31 M2200.69 149.06 Q2200.65 145.565 2198.73 143.481 Q2196.83 141.398 2193.68 141.398 Q2190.11 141.398 2187.96 143.412 Q2185.83 145.426 2185.51 149.083 L2200.69 149.06 Z" fill="#000000" fill-rule="nonzero" fill-opacity="1" /><path clip-path="url(#clip690)" d="M2209.47 138.412 L2213.73 138.412 L2219.05 158.643 L2224.35 138.412 L2229.37 138.412 L2234.7 158.643 L2240 138.412 L2244.26 138.412 L2237.48 164.338 L2232.45 164.338 L2226.87 143.088 L2221.27 164.338 L2216.25 164.338 L2209.47 138.412 Z" fill="#000000" fill-rule="nonzero" fill-opacity="1" /><polyline clip-path="url(#clip690)" style="stroke:#3da44d; stroke-linecap:round; stroke-linejoin:round; stroke-width:4; stroke-opacity:1; fill:none" points="1962.05,198.898 2106.36,198.898 "/>
<path clip-path="url(#clip690)" d="M2143.82 203.145 Q2138.66 203.145 2136.67 204.326 Q2134.67 205.506 2134.67 208.354 Q2134.67 210.622 2136.16 211.965 Q2137.66 213.284 2140.23 213.284 Q2143.77 213.284 2145.9 210.784 Q2148.05 208.261 2148.05 204.094 L2148.05 203.145 L2143.82 203.145 M2152.31 201.386 L2152.31 216.178 L2148.05 216.178 L2148.05 212.242 Q2146.6 214.603 2144.42 215.738 Q2142.24 216.849 2139.1 216.849 Q2135.11 216.849 2132.75 214.627 Q2130.42 212.381 2130.42 208.631 Q2130.42 204.256 2133.33 202.034 Q2136.27 199.812 2142.08 199.812 L2148.05 199.812 L2148.05 199.395 Q2148.05 196.455 2146.11 194.858 Q2144.19 193.238 2140.69 193.238 Q2138.47 193.238 2136.36 193.77 Q2134.26 194.303 2132.31 195.367 L2132.31 191.432 Q2134.65 190.53 2136.85 190.09 Q2139.05 189.627 2141.13 189.627 Q2146.76 189.627 2149.54 192.543 Q2152.31 195.46 2152.31 201.386 Z" fill="#000000" fill-rule="nonzero" fill-opacity="1" /><path clip-path="url(#clip690)" d="M2176.11 194.233 Q2175.39 193.817 2174.54 193.631 Q2173.7 193.423 2172.68 193.423 Q2169.07 193.423 2167.13 195.784 Q2165.21 198.122 2165.21 202.52 L2165.21 216.178 L2160.92 216.178 L2160.92 190.252 L2165.21 190.252 L2165.21 194.28 Q2166.55 191.918 2168.7 190.784 Q2170.86 189.627 2173.93 189.627 Q2174.37 189.627 2174.91 189.696 Q2175.44 189.743 2176.09 189.858 L2176.11 194.233 Z" fill="#000000" fill-rule="nonzero" fill-opacity="1" /><path clip-path="url(#clip690)" d="M2199.19 203.238 Q2199.19 198.539 2197.24 195.877 Q2195.32 193.192 2191.94 193.192 Q2188.56 193.192 2186.62 195.877 Q2184.7 198.539 2184.7 203.238 Q2184.7 207.937 2186.62 210.622 Q2188.56 213.284 2191.94 213.284 Q2195.32 213.284 2197.24 210.622 Q2199.19 207.937 2199.19 203.238 M2184.7 194.187 Q2186.04 191.872 2188.08 190.761 Q2190.14 189.627 2192.98 189.627 Q2197.71 189.627 2200.65 193.377 Q2203.61 197.127 2203.61 203.238 Q2203.61 209.349 2200.65 213.099 Q2197.71 216.849 2192.98 216.849 Q2190.14 216.849 2188.08 215.738 Q2186.04 214.603 2184.7 212.289 L2184.7 216.178 L2180.42 216.178 L2180.42 180.159 L2184.7 180.159 L2184.7 194.187 Z" fill="#000000" fill-rule="nonzero" fill-opacity="1" /><polyline clip-path="url(#clip690)" style="stroke:#c271d2; stroke-linecap:round; stroke-linejoin:round; stroke-width:4; stroke-opacity:1; fill:none" points="1962.05,250.738 2106.36,250.738 "/>
<path clip-path="url(#clip690)" d="M2150.92 243.087 L2150.92 247.069 Q2149.12 246.073 2147.29 245.587 Q2145.48 245.078 2143.63 245.078 Q2139.49 245.078 2137.2 247.717 Q2134.91 250.332 2134.91 255.078 Q2134.91 259.823 2137.2 262.462 Q2139.49 265.078 2143.63 265.078 Q2145.48 265.078 2147.29 264.592 Q2149.12 264.082 2150.92 263.087 L2150.92 267.022 Q2149.14 267.856 2147.22 268.272 Q2145.32 268.689 2143.17 268.689 Q2137.31 268.689 2133.86 265.008 Q2130.42 261.328 2130.42 255.078 Q2130.42 248.735 2133.89 245.101 Q2137.38 241.467 2143.45 241.467 Q2145.42 241.467 2147.29 241.883 Q2149.17 242.277 2150.92 243.087 Z" fill="#000000" fill-rule="nonzero" fill-opacity="1" /><path clip-path="url(#clip690)" d="M2168.38 245.078 Q2164.95 245.078 2162.96 247.763 Q2160.97 250.425 2160.97 255.078 Q2160.97 259.731 2162.94 262.416 Q2164.93 265.078 2168.38 265.078 Q2171.78 265.078 2173.77 262.393 Q2175.76 259.707 2175.76 255.078 Q2175.76 250.471 2173.77 247.786 Q2171.78 245.078 2168.38 245.078 M2168.38 241.467 Q2173.93 241.467 2177.11 245.078 Q2180.28 248.689 2180.28 255.078 Q2180.28 261.444 2177.11 265.078 Q2173.93 268.689 2168.38 268.689 Q2162.8 268.689 2159.63 265.078 Q2156.48 261.444 2156.48 255.078 Q2156.48 248.689 2159.63 245.078 Q2162.8 241.467 2168.38 241.467 Z" fill="#000000" fill-rule="nonzero" fill-opacity="1" /><path clip-path="url(#clip690)" d="M2207.52 247.069 Q2209.12 244.198 2211.34 242.833 Q2213.56 241.467 2216.57 241.467 Q2220.62 241.467 2222.82 244.314 Q2225.02 247.138 2225.02 252.369 L2225.02 268.018 L2220.74 268.018 L2220.74 252.508 Q2220.74 248.782 2219.42 246.976 Q2218.1 245.17 2215.39 245.17 Q2212.08 245.17 2210.16 247.37 Q2208.24 249.569 2208.24 253.365 L2208.24 268.018 L2203.96 268.018 L2203.96 252.508 Q2203.96 248.758 2202.64 246.976 Q2201.32 245.17 2198.56 245.17 Q2195.3 245.17 2193.38 247.393 Q2191.46 249.592 2191.46 253.365 L2191.46 268.018 L2187.17 268.018 L2187.17 242.092 L2191.46 242.092 L2191.46 246.12 Q2192.92 243.735 2194.95 242.601 Q2196.99 241.467 2199.79 241.467 Q2202.61 241.467 2204.58 242.902 Q2206.57 244.337 2207.52 247.069 Z" fill="#000000" fill-rule="nonzero" fill-opacity="1" /><path clip-path="url(#clip690)" d="M2237.64 264.129 L2237.64 277.879 L2233.35 277.879 L2233.35 242.092 L2237.64 242.092 L2237.64 246.027 Q2238.98 243.712 2241.02 242.601 Q2243.08 241.467 2245.92 241.467 Q2250.65 241.467 2253.59 245.217 Q2256.55 248.967 2256.55 255.078 Q2256.55 261.189 2253.59 264.939 Q2250.65 268.689 2245.92 268.689 Q2243.08 268.689 2241.02 267.578 Q2238.98 266.443 2237.64 264.129 M2252.13 255.078 Q2252.13 250.379 2250.18 247.717 Q2248.26 245.032 2244.88 245.032 Q2241.5 245.032 2239.56 247.717 Q2237.64 250.379 2237.64 255.078 Q2237.64 259.777 2239.56 262.462 Q2241.5 265.124 2244.88 265.124 Q2248.26 265.124 2250.18 262.462 Q2252.13 259.777 2252.13 255.078 Z" fill="#000000" fill-rule="nonzero" fill-opacity="1" /></svg>
