<?xml version="1.0" encoding="utf-8"?>
<svg xmlns="http://www.w3.org/2000/svg" xmlns:xlink="http://www.w3.org/1999/xlink" width="600" height="400" viewBox="0 0 2400 1600">
<defs>
  <clipPath id="clip610">
    <rect x="0" y="0" width="2400" height="1600"/>
  </clipPath>
</defs>
<path clip-path="url(#clip610)" d="M0 1600 L2400 1600 L2400 0 L0 0  Z" fill="#ffffff" fill-rule="evenodd" fill-opacity="1"/>
<defs>
  <clipPath id="clip611">
    <rect x="480" y="0" width="1681" height="1600"/>
  </clipPath>
</defs>
<path clip-path="url(#clip610)" d="M147.478 1486.45 L2352.76 1486.45 L2352.76 47.2441 L147.478 47.2441  Z" fill="#ffffff" fill-rule="evenodd" fill-opacity="1"/>
<defs>
  <clipPath id="clip612">
    <rect x="147" y="47" width="2206" height="1440"/>
  </clipPath>
</defs>
<polyline clip-path="url(#clip612)" style="stroke:#000000; stroke-linecap:round; stroke-linejoin:round; stroke-width:2; stroke-opacity:0.1; fill:none" points="204.677,1486.45 204.677,47.2441 "/>
<polyline clip-path="url(#clip612)" style="stroke:#000000; stroke-linecap:round; stroke-linejoin:round; stroke-width:2; stroke-opacity:0.1; fill:none" points="726.094,1486.45 726.094,47.2441 "/>
<polyline clip-path="url(#clip612)" style="stroke:#000000; stroke-linecap:round; stroke-linejoin:round; stroke-width:2; stroke-opacity:0.1; fill:none" points="1247.51,1486.45 1247.51,47.2441 "/>
<polyline clip-path="url(#clip612)" style="stroke:#000000; stroke-linecap:round; stroke-linejoin:round; stroke-width:2; stroke-opacity:0.1; fill:none" points="1768.93,1486.45 1768.93,47.2441 "/>
<polyline clip-path="url(#clip612)" style="stroke:#000000; stroke-linecap:round; stroke-linejoin:round; stroke-width:2; stroke-opacity:0.1; fill:none" points="2290.34,1486.45 2290.34,47.2441 "/>
<polyline clip-path="url(#clip610)" style="stroke:#000000; stroke-linecap:round; stroke-linejoin:round; stroke-width:4; stroke-opacity:1; fill:none" points="147.478,1486.45 2352.76,1486.45 "/>
<polyline clip-path="url(#clip610)" style="stroke:#000000; stroke-linecap:round; stroke-linejoin:round; stroke-width:4; stroke-opacity:1; fill:none" points="204.677,1486.45 204.677,1467.55 "/>
<polyline clip-path="url(#clip610)" style="stroke:#000000; stroke-linecap:round; stroke-linejoin:round; stroke-width:4; stroke-opacity:1; fill:none" points="726.094,1486.45 726.094,1467.55 "/>
<polyline clip-path="url(#clip610)" style="stroke:#000000; stroke-linecap:round; stroke-linejoin:round; stroke-width:4; stroke-opacity:1; fill:none" points="1247.51,1486.45 1247.51,1467.55 "/>
<polyline clip-path="url(#clip610)" style="stroke:#000000; stroke-linecap:round; stroke-linejoin:round; stroke-width:4; stroke-opacity:1; fill:none" points="1768.93,1486.45 1768.93,1467.55 "/>
<polyline clip-path="url(#clip610)" style="stroke:#000000; stroke-linecap:round; stroke-linejoin:round; stroke-width:4; stroke-opacity:1; fill:none" points="2290.34,1486.45 2290.34,1467.55 "/>
<path clip-path="url(#clip610)" d="M204.677 1517.37 Q201.066 1517.37 199.237 1520.93 Q197.432 1524.47 197.432 1531.6 Q197.432 1538.71 199.237 1542.27 Q201.066 1545.82 204.677 1545.82 Q208.312 1545.82 210.117 1542.27 Q211.946 1538.71 211.946 1531.6 Q211.946 1524.47 210.117 1520.93 Q208.312 1517.37 204.677 1517.37 M204.677 1513.66 Q210.487 1513.66 213.543 1518.27 Q216.622 1522.85 216.622 1531.6 Q216.622 1540.33 213.543 1544.94 Q210.487 1549.52 204.677 1549.52 Q198.867 1549.52 195.788 1544.94 Q192.733 1540.33 192.733 1531.6 Q192.733 1522.85 195.788 1518.27 Q198.867 1513.66 204.677 1513.66 Z" fill="#000000" fill-rule="nonzero" fill-opacity="1" /><path clip-path="url(#clip610)" d="M685.7 1544.91 L693.339 1544.91 L693.339 1518.55 L685.029 1520.21 L685.029 1515.95 L693.293 1514.29 L697.969 1514.29 L697.969 1544.91 L705.608 1544.91 L705.608 1548.85 L685.7 1548.85 L685.7 1544.91 Z" fill="#000000" fill-rule="nonzero" fill-opacity="1" /><path clip-path="url(#clip610)" d="M725.052 1517.37 Q721.441 1517.37 719.612 1520.93 Q717.807 1524.47 717.807 1531.6 Q717.807 1538.71 719.612 1542.27 Q721.441 1545.82 725.052 1545.82 Q728.686 1545.82 730.492 1542.27 Q732.32 1538.71 732.32 1531.6 Q732.32 1524.47 730.492 1520.93 Q728.686 1517.37 725.052 1517.37 M725.052 1513.66 Q730.862 1513.66 733.918 1518.27 Q736.996 1522.85 736.996 1531.6 Q736.996 1540.33 733.918 1544.94 Q730.862 1549.52 725.052 1549.52 Q719.242 1549.52 716.163 1544.94 Q713.108 1540.33 713.108 1531.6 Q713.108 1522.85 716.163 1518.27 Q719.242 1513.66 725.052 1513.66 Z" fill="#000000" fill-rule="nonzero" fill-opacity="1" /><path clip-path="url(#clip610)" d="M755.214 1517.37 Q751.603 1517.37 749.774 1520.93 Q747.968 1524.47 747.968 1531.6 Q747.968 1538.71 749.774 1542.27 Q751.603 1545.82 755.214 1545.82 Q758.848 1545.82 760.654 1542.27 Q762.482 1538.71 762.482 1531.6 Q762.482 1524.47 760.654 1520.93 Q758.848 1517.37 755.214 1517.37 M755.214 1513.66 Q761.024 1513.66 764.079 1518.27 Q767.158 1522.85 767.158 1531.6 Q767.158 1540.33 764.079 1544.94 Q761.024 1549.52 755.214 1549.52 Q749.404 1549.52 746.325 1544.94 Q743.269 1540.33 743.269 1531.6 Q743.269 1522.85 746.325 1518.27 Q749.404 1513.66 755.214 1513.66 Z" fill="#000000" fill-rule="nonzero" fill-opacity="1" /><path clip-path="url(#clip610)" d="M1211.2 1544.91 L1227.52 1544.91 L1227.52 1548.85 L1205.58 1548.85 L1205.58 1544.91 Q1208.24 1542.16 1212.82 1537.53 Q1217.43 1532.88 1218.61 1531.53 Q1220.85 1529.01 1221.73 1527.27 Q1222.64 1525.51 1222.64 1523.82 Q1222.64 1521.07 1220.69 1519.33 Q1218.77 1517.6 1215.67 1517.6 Q1213.47 1517.6 1211.02 1518.36 Q1208.59 1519.13 1205.81 1520.68 L1205.81 1515.95 Q1208.63 1514.82 1211.09 1514.24 Q1213.54 1513.66 1215.58 1513.66 Q1220.95 1513.66 1224.14 1516.35 Q1227.34 1519.03 1227.34 1523.52 Q1227.34 1525.65 1226.53 1527.57 Q1225.74 1529.47 1223.63 1532.07 Q1223.05 1532.74 1219.95 1535.95 Q1216.85 1539.15 1211.2 1544.91 Z" fill="#000000" fill-rule="nonzero" fill-opacity="1" /><path clip-path="url(#clip610)" d="M1247.34 1517.37 Q1243.73 1517.37 1241.9 1520.93 Q1240.09 1524.47 1240.09 1531.6 Q1240.09 1538.71 1241.9 1542.27 Q1243.73 1545.82 1247.34 1545.82 Q1250.97 1545.82 1252.78 1542.27 Q1254.6 1538.71 1254.6 1531.6 Q1254.6 1524.47 1252.78 1520.93 Q1250.97 1517.37 1247.34 1517.37 M1247.34 1513.66 Q1253.15 1513.66 1256.2 1518.27 Q1259.28 1522.85 1259.28 1531.6 Q1259.28 1540.33 1256.2 1544.94 Q1253.15 1549.52 1247.34 1549.52 Q1241.53 1549.52 1238.45 1544.94 Q1235.39 1540.33 1235.39 1531.6 Q1235.39 1522.85 1238.45 1518.27 Q1241.53 1513.66 1247.34 1513.66 Z" fill="#000000" fill-rule="nonzero" fill-opacity="1" /><path clip-path="url(#clip610)" d="M1277.5 1517.37 Q1273.89 1517.37 1272.06 1520.93 Q1270.25 1524.47 1270.25 1531.6 Q1270.25 1538.71 1272.06 1542.27 Q1273.89 1545.82 1277.5 1545.82 Q1281.13 1545.82 1282.94 1542.27 Q1284.77 1538.71 1284.77 1531.6 Q1284.77 1524.47 1282.94 1520.93 Q1281.13 1517.37 1277.5 1517.37 M1277.5 1513.66 Q1283.31 1513.66 1286.36 1518.27 Q1289.44 1522.85 1289.44 1531.6 Q1289.44 1540.33 1286.36 1544.94 Q1283.31 1549.52 1277.5 1549.52 Q1271.69 1549.52 1268.61 1544.94 Q1265.55 1540.33 1265.55 1531.6 Q1265.55 1522.85 1268.61 1518.27 Q1271.69 1513.66 1277.5 1513.66 Z" fill="#000000" fill-rule="nonzero" fill-opacity="1" /><path clip-path="url(#clip610)" d="M1742.69 1530.21 Q1746.04 1530.93 1747.92 1533.2 Q1749.82 1535.47 1749.82 1538.8 Q1749.82 1543.92 1746.3 1546.72 Q1742.78 1549.52 1736.3 1549.52 Q1734.12 1549.52 1731.81 1549.08 Q1729.52 1548.66 1727.06 1547.81 L1727.06 1543.29 Q1729.01 1544.43 1731.32 1545.01 Q1733.64 1545.58 1736.16 1545.58 Q1740.56 1545.58 1742.85 1543.85 Q1745.16 1542.11 1745.16 1538.8 Q1745.16 1535.75 1743.01 1534.03 Q1740.88 1532.3 1737.06 1532.3 L1733.04 1532.3 L1733.04 1528.45 L1737.25 1528.45 Q1740.7 1528.45 1742.53 1527.09 Q1744.35 1525.7 1744.35 1523.11 Q1744.35 1520.45 1742.46 1519.03 Q1740.58 1517.6 1737.06 1517.6 Q1735.14 1517.6 1732.94 1518.01 Q1730.74 1518.43 1728.1 1519.31 L1728.1 1515.14 Q1730.77 1514.4 1733.08 1514.03 Q1735.42 1513.66 1737.48 1513.66 Q1742.8 1513.66 1745.91 1516.09 Q1749.01 1518.5 1749.01 1522.62 Q1749.01 1525.49 1747.36 1527.48 Q1745.72 1529.45 1742.69 1530.21 Z" fill="#000000" fill-rule="nonzero" fill-opacity="1" /><path clip-path="url(#clip610)" d="M1768.68 1517.37 Q1765.07 1517.37 1763.24 1520.93 Q1761.44 1524.47 1761.44 1531.6 Q1761.44 1538.71 1763.24 1542.27 Q1765.07 1545.82 1768.68 1545.82 Q1772.32 1545.82 1774.12 1542.27 Q1775.95 1538.71 1775.95 1531.6 Q1775.95 1524.47 1774.12 1520.93 Q1772.32 1517.37 1768.68 1517.37 M1768.68 1513.66 Q1774.49 1513.66 1777.55 1518.27 Q1780.63 1522.85 1780.63 1531.6 Q1780.63 1540.33 1777.55 1544.94 Q1774.49 1549.52 1768.68 1549.52 Q1762.87 1549.52 1759.79 1544.94 Q1756.74 1540.33 1756.74 1531.6 Q1756.74 1522.85 1759.79 1518.27 Q1762.87 1513.66 1768.68 1513.66 Z" fill="#000000" fill-rule="nonzero" fill-opacity="1" /><path clip-path="url(#clip610)" d="M1798.84 1517.37 Q1795.23 1517.37 1793.41 1520.93 Q1791.6 1524.47 1791.6 1531.6 Q1791.6 1538.71 1793.41 1542.27 Q1795.23 1545.82 1798.84 1545.82 Q1802.48 1545.82 1804.28 1542.27 Q1806.11 1538.71 1806.11 1531.6 Q1806.11 1524.47 1804.28 1520.93 Q1802.48 1517.37 1798.84 1517.37 M1798.84 1513.66 Q1804.66 1513.66 1807.71 1518.27 Q1810.79 1522.85 1810.79 1531.6 Q1810.79 1540.33 1807.71 1544.94 Q1804.66 1549.52 1798.84 1549.52 Q1793.03 1549.52 1789.96 1544.94 Q1786.9 1540.33 1786.9 1531.6 Q1786.9 1522.85 1789.96 1518.27 Q1793.03 1513.66 1798.84 1513.66 Z" fill="#000000" fill-rule="nonzero" fill-opacity="1" /><path clip-path="url(#clip610)" d="M2263.43 1518.36 L2251.63 1536.81 L2263.43 1536.81 L2263.43 1518.36 M2262.21 1514.29 L2268.09 1514.29 L2268.09 1536.81 L2273.02 1536.81 L2273.02 1540.7 L2268.09 1540.7 L2268.09 1548.85 L2263.43 1548.85 L2263.43 1540.7 L2247.83 1540.7 L2247.83 1536.19 L2262.21 1514.29 Z" fill="#000000" fill-rule="nonzero" fill-opacity="1" /><path clip-path="url(#clip610)" d="M2290.75 1517.37 Q2287.14 1517.37 2285.31 1520.93 Q2283.5 1524.47 2283.5 1531.6 Q2283.5 1538.71 2285.31 1542.27 Q2287.14 1545.82 2290.75 1545.82 Q2294.38 1545.82 2296.19 1542.27 Q2298.02 1538.71 2298.02 1531.6 Q2298.02 1524.47 2296.19 1520.93 Q2294.38 1517.37 2290.75 1517.37 M2290.75 1513.66 Q2296.56 1513.66 2299.61 1518.27 Q2302.69 1522.85 2302.69 1531.6 Q2302.69 1540.33 2299.61 1544.94 Q2296.56 1549.52 2290.75 1549.52 Q2284.94 1549.52 2281.86 1544.94 Q2278.8 1540.33 2278.8 1531.6 Q2278.8 1522.85 2281.86 1518.27 Q2284.94 1513.66 2290.75 1513.66 Z" fill="#000000" fill-rule="nonzero" fill-opacity="1" /><path clip-path="url(#clip610)" d="M2320.91 1517.37 Q2317.3 1517.37 2315.47 1520.93 Q2313.66 1524.47 2313.66 1531.6 Q2313.66 1538.71 2315.47 1542.27 Q2317.3 1545.82 2320.91 1545.82 Q2324.54 1545.82 2326.35 1542.27 Q2328.18 1538.71 2328.18 1531.6 Q2328.18 1524.47 2326.35 1520.93 Q2324.54 1517.37 2320.91 1517.37 M2320.91 1513.66 Q2326.72 1513.66 2329.78 1518.27 Q2332.85 1522.85 2332.85 1531.6 Q2332.85 1540.33 2329.78 1544.94 Q2326.72 1549.52 2320.91 1549.52 Q2315.1 1549.52 2312.02 1544.94 Q2308.96 1540.33 2308.96 1531.6 Q2308.96 1522.85 2312.02 1518.27 Q2315.1 1513.66 2320.91 1513.66 Z" fill="#000000" fill-rule="nonzero" fill-opacity="1" /><polyline clip-path="url(#clip612)" style="stroke:#000000; stroke-linecap:round; stroke-linejoin:round; stroke-width:2; stroke-opacity:0.1; fill:none" points="147.478,1360.41 2352.76,1360.41 "/>
<polyline clip-path="url(#clip612)" style="stroke:#000000; stroke-linecap:round; stroke-linejoin:round; stroke-width:2; stroke-opacity:0.1; fill:none" points="147.478,1148.88 2352.76,1148.88 "/>
<polyline clip-path="url(#clip612)" style="stroke:#000000; stroke-linecap:round; stroke-linejoin:round; stroke-width:2; stroke-opacity:0.1; fill:none" points="147.478,937.364 2352.76,937.364 "/>
<polyline clip-path="url(#clip612)" style="stroke:#000000; stroke-linecap:round; stroke-linejoin:round; stroke-width:2; stroke-opacity:0.1; fill:none" points="147.478,725.843 2352.76,725.843 "/>
<polyline clip-path="url(#clip612)" style="stroke:#000000; stroke-linecap:round; stroke-linejoin:round; stroke-width:2; stroke-opacity:0.1; fill:none" points="147.478,514.323 2352.76,514.323 "/>
<polyline clip-path="url(#clip612)" style="stroke:#000000; stroke-linecap:round; stroke-linejoin:round; stroke-width:2; stroke-opacity:0.1; fill:none" points="147.478,302.802 2352.76,302.802 "/>
<polyline clip-path="url(#clip612)" style="stroke:#000000; stroke-linecap:round; stroke-linejoin:round; stroke-width:2; stroke-opacity:0.1; fill:none" points="147.478,91.2813 2352.76,91.2813 "/>
<polyline clip-path="url(#clip610)" style="stroke:#000000; stroke-linecap:round; stroke-linejoin:round; stroke-width:4; stroke-opacity:1; fill:none" points="147.478,1486.45 147.478,47.2441 "/>
<polyline clip-path="url(#clip610)" style="stroke:#000000; stroke-linecap:round; stroke-linejoin:round; stroke-width:4; stroke-opacity:1; fill:none" points="147.478,1360.41 166.376,1360.41 "/>
<polyline clip-path="url(#clip610)" style="stroke:#000000; stroke-linecap:round; stroke-linejoin:round; stroke-width:4; stroke-opacity:1; fill:none" points="147.478,1148.88 166.376,1148.88 "/>
<polyline clip-path="url(#clip610)" style="stroke:#000000; stroke-linecap:round; stroke-linejoin:round; stroke-width:4; stroke-opacity:1; fill:none" points="147.478,937.364 166.376,937.364 "/>
<polyline clip-path="url(#clip610)" style="stroke:#000000; stroke-linecap:round; stroke-linejoin:round; stroke-width:4; stroke-opacity:1; fill:none" points="147.478,725.843 166.376,725.843 "/>
<polyline clip-path="url(#clip610)" style="stroke:#000000; stroke-linecap:round; stroke-linejoin:round; stroke-width:4; stroke-opacity:1; fill:none" points="147.478,514.323 166.376,514.323 "/>
<polyline clip-path="url(#clip610)" style="stroke:#000000; stroke-linecap:round; stroke-linejoin:round; stroke-width:4; stroke-opacity:1; fill:none" points="147.478,302.802 166.376,302.802 "/>
<polyline clip-path="url(#clip610)" style="stroke:#000000; stroke-linecap:round; stroke-linejoin:round; stroke-width:4; stroke-opacity:1; fill:none" points="147.478,91.2813 166.376,91.2813 "/>
<path clip-path="url(#clip610)" d="M50.9921 1360.86 L80.6679 1360.86 L80.6679 1364.79 L50.9921 1364.79 L50.9921 1360.86 Z" fill="#000000" fill-rule="nonzero" fill-opacity="1" /><path clip-path="url(#clip610)" d="M91.5706 1373.75 L99.2095 1373.75 L99.2095 1347.38 L90.8993 1349.05 L90.8993 1344.79 L99.1632 1343.13 L103.839 1343.13 L103.839 1373.75 L111.478 1373.75 L111.478 1377.69 L91.5706 1377.69 L91.5706 1373.75 Z" fill="#000000" fill-rule="nonzero" fill-opacity="1" /><path clip-path="url(#clip610)" d="M99.5335 1134.68 Q95.9224 1134.68 94.0937 1138.25 Q92.2882 1141.79 92.2882 1148.92 Q92.2882 1156.03 94.0937 1159.59 Q95.9224 1163.13 99.5335 1163.13 Q103.168 1163.13 104.973 1159.59 Q106.802 1156.03 106.802 1148.92 Q106.802 1141.79 104.973 1138.25 Q103.168 1134.68 99.5335 1134.68 M99.5335 1130.98 Q105.344 1130.98 108.399 1135.59 Q111.478 1140.17 111.478 1148.92 Q111.478 1157.65 108.399 1162.25 Q105.344 1166.84 99.5335 1166.84 Q93.7234 1166.84 90.6447 1162.25 Q87.5892 1157.65 87.5892 1148.92 Q87.5892 1140.17 90.6447 1135.59 Q93.7234 1130.98 99.5335 1130.98 Z" fill="#000000" fill-rule="nonzero" fill-opacity="1" /><path clip-path="url(#clip610)" d="M91.5706 950.709 L99.2095 950.709 L99.2095 924.343 L90.8993 926.01 L90.8993 921.751 L99.1632 920.084 L103.839 920.084 L103.839 950.709 L111.478 950.709 L111.478 954.644 L91.5706 954.644 L91.5706 950.709 Z" fill="#000000" fill-rule="nonzero" fill-opacity="1" /><path clip-path="url(#clip610)" d="M95.1586 739.188 L111.478 739.188 L111.478 743.123 L89.5336 743.123 L89.5336 739.188 Q92.1956 736.433 96.7789 731.804 Q101.385 727.151 102.566 725.808 Q104.811 723.285 105.691 721.549 Q106.594 719.79 106.594 718.1 Q106.594 715.346 104.649 713.609 Q102.728 711.873 99.6261 711.873 Q97.4271 711.873 94.9734 712.637 Q92.5428 713.401 89.7651 714.952 L89.7651 710.23 Q92.5891 709.096 95.0428 708.517 Q97.4965 707.938 99.5335 707.938 Q104.904 707.938 108.098 710.623 Q111.293 713.309 111.293 717.799 Q111.293 719.929 110.483 721.85 Q109.696 723.748 107.589 726.341 Q107.01 727.012 103.909 730.23 Q100.807 733.424 95.1586 739.188 Z" fill="#000000" fill-rule="nonzero" fill-opacity="1" /><path clip-path="url(#clip610)" d="M104.348 512.968 Q107.705 513.686 109.58 515.955 Q111.478 518.223 111.478 521.556 Q111.478 526.672 107.959 529.473 Q104.441 532.274 97.9595 532.274 Q95.7836 532.274 93.4688 531.834 Q91.1771 531.417 88.7234 530.561 L88.7234 526.047 Q90.6678 527.181 92.9826 527.76 Q95.2974 528.339 97.8206 528.339 Q102.219 528.339 104.51 526.603 Q106.825 524.866 106.825 521.556 Q106.825 518.501 104.672 516.788 Q102.543 515.052 98.7234 515.052 L94.6956 515.052 L94.6956 511.209 L98.9085 511.209 Q102.358 511.209 104.186 509.843 Q106.015 508.455 106.015 505.862 Q106.015 503.2 104.117 501.788 Q102.242 500.353 98.7234 500.353 Q96.8021 500.353 94.603 500.769 Q92.4039 501.186 89.7651 502.066 L89.7651 497.899 Q92.4271 497.158 94.7419 496.788 Q97.0798 496.418 99.14 496.418 Q104.464 496.418 107.566 498.848 Q110.668 501.256 110.668 505.376 Q110.668 508.246 109.024 510.237 Q107.381 512.205 104.348 512.968 Z" fill="#000000" fill-rule="nonzero" fill-opacity="1" /><path clip-path="url(#clip610)" d="M101.895 289.596 L90.0891 308.045 L101.895 308.045 L101.895 289.596 M100.668 285.522 L106.547 285.522 L106.547 308.045 L111.478 308.045 L111.478 311.934 L106.547 311.934 L106.547 320.082 L101.895 320.082 L101.895 311.934 L86.2929 311.934 L86.2929 307.42 L100.668 285.522 Z" fill="#000000" fill-rule="nonzero" fill-opacity="1" /><path clip-path="url(#clip610)" d="M90.5752 74.0013 L108.932 74.0013 L108.932 77.9365 L94.8576 77.9365 L94.8576 86.4086 Q95.8761 86.0614 96.8947 85.8994 Q97.9132 85.7142 98.9317 85.7142 Q104.719 85.7142 108.098 88.8855 Q111.478 92.0567 111.478 97.4734 Q111.478 103.052 108.006 106.154 Q104.534 109.233 98.2141 109.233 Q96.0382 109.233 93.7697 108.862 Q91.5243 108.492 89.1169 107.751 L89.1169 103.052 Q91.2002 104.186 93.4225 104.742 Q95.6447 105.297 98.1215 105.297 Q102.126 105.297 104.464 103.191 Q106.802 101.084 106.802 97.4734 Q106.802 93.8623 104.464 91.7558 Q102.126 89.6494 98.1215 89.6494 Q96.2465 89.6494 94.3715 90.066 Q92.5197 90.4827 90.5752 91.3623 L90.5752 74.0013 Z" fill="#000000" fill-rule="nonzero" fill-opacity="1" /><polyline clip-path="url(#clip612)" style="stroke:#009af9; stroke-linecap:round; stroke-linejoin:round; stroke-width:4; stroke-opacity:1; fill:none" points="209.891,937.364 215.106,938.397 220.32,941.598 225.534,946.762 230.748,954.095 235.962,963.288 241.176,974.339 246.391,987.146 251.605,1001.5 256.819,1017.41 262.033,1034.55 267.247,1052.94 272.461,1072.25 277.676,1092.29 282.89,1112.94 288.104,1133.92 293.318,1155.06 298.532,1176.12 303.746,1196.94 308.961,1217.26 314.175,1236.93 319.389,1255.68 324.603,1273.34 329.817,1289.86 335.031,1304.84 340.246,1318.37 345.46,1330.14 350.674,1340.16 355.888,1348.22 361.102,1354.31 366.316,1358.34 371.53,1360.2 376.745,1360.1 381.959,1357.72 387.173,1353.38 392.387,1346.98 397.601,1338.61 402.815,1328.28 408.03,1316.2 413.244,1302.46 418.458,1287.18 423.672,1270.45 428.886,1252.58 434.1,1233.68 439.315,1213.9 444.529,1193.48 449.743,1172.61 454.957,1151.51 460.171,1130.37 465.385,1109.43 470.6,1088.88 475.814,1068.94 481.028,1049.79 486.242,1031.66 491.456,1014.62 496.67,999.023 501.885,984.873 507.099,972.376 512.313,961.532 517.527,952.753 522.741,945.833 527.955,940.875 533.17,938.087 538.384,937.364 543.598,938.81 548.812,942.321 554.026,947.899 559.24,955.438 564.455,964.94 569.669,976.301 574.883,989.418 580.097,1004.08 585.311,1020.2 590.525,1037.65 595.739,1056.14 600.954,1075.55 606.168,1095.75 611.382,1116.45 616.596,1137.47 621.81,1158.61 627.024,1179.66 632.239,1200.4 637.453,1220.61 642.667,1240.13 647.881,1258.78 653.095,1276.23 658.309,1292.45 663.524,1307.22 668.738,1320.44 673.952,1331.9 679.166,1341.61 684.38,1349.35 689.594,1355.03 694.809,1358.75 700.023,1360.3 705.237,1359.79 710.451,1357.2 715.665,1352.45 720.879,1345.74 726.094,1336.96 731.308,1326.32 736.522,1314.03 741.736,1299.99 746.95,1284.39 752.164,1267.55 757.379,1249.48 762.593,1230.37 767.807,1210.49 773.021,1189.99 778.235,1169.08 783.449,1147.95 788.664,1126.83 793.878,1105.95 799.092,1085.47 804.306,1065.64 809.52,1046.64 814.734,1028.66 819.948,1011.93 825.163,996.544 830.377,982.601 835.591,970.414 840.805,959.983 846.019,951.41 851.233,944.8 856.448,940.256 861.662,937.88 866.876,937.467 872.09,939.223 877.304,943.148 882.518,949.035 887.733,956.987 892.947,966.799 898.161,978.47 903.375,991.793 908.589,1006.67 913.803,1023.09 919.018,1040.65 924.232,1059.34 929.446,1078.91 934.66,1099.18 939.874,1119.97 945.088,1141.02 950.303,1162.17 955.517,1183.17 960.731,1203.83 965.945,1223.97 971.159,1243.34 976.373,1261.77 981.588,1279.02 986.802,1295.03 992.016,1309.59 997.23,1322.5 1002.44,1333.66 1007.66,1343.05 1012.87,1350.49 1018.09,1355.86 1023.3,1359.17 1028.51,1360.41 1033.73,1359.48 1038.94,1356.48 1044.16,1351.42 1049.37,1344.4 1054.59,1335.31 1059.8,1324.36 1065.01,1311.76 1070.23,1297.51 1075.44,1281.7 1080.66,1264.56 1085.87,1246.33 1091.08,1227.12 1096.3,1207.08 1101.51,1186.5 1106.73,1165.53 1111.94,1144.39 1117.16,1123.3 1122.37,1102.46 1127.58,1082.11 1132.8,1062.39 1138.01,1043.54 1143.23,1025.77 1148.44,1009.25 1153.65,994.065 1158.87,980.432 1164.08,968.555 1169.3,958.33 1174.51,950.171 1179.73,943.871 1184.94,939.739 1190.15,937.674 1195.37,937.674 1200.58,939.739 1205.8,943.974 1211.01,950.171 1216.22,958.433 1221.44,968.658 1226.65,980.536 1231.87,994.169 1237.08,1009.35 1242.3,1025.88 1247.51,1043.74 1252.72,1062.54 1257.94,1082.27 1263.15,1102.64 1268.37,1123.49 1273.58,1144.58 1278.79,1165.72 1284.01,1186.69 1289.22,1207.29 1294.44,1227.28 1299.65,1246.49 1304.87,1264.77 1310.08,1281.81 1315.29,1297.61 1320.51,1311.86 1325.72,1324.46 1330.94,1335.41 1336.15,1344.4 1341.36,1351.52 1346.58,1356.58 1351.79,1359.48 1357.01,1360.41 1362.22,1359.17 1367.44,1355.76 1372.65,1350.39 1377.86,1342.95 1383.08,1333.66 1388.29,1322.4 1393.51,1309.49 1398.72,1294.92 1403.93,1278.92 1409.15,1261.56 1414.36,1243.18 1419.58,1223.76 1424.79,1203.68 1430.01,1182.99 1435.22,1161.98 1440.43,1140.83 1445.65,1119.78 1450.86,1099 1456.08,1078.76 1461.29,1059.18 1466.5,1040.44 1471.72,1022.88 1476.93,1006.56 1482.15,991.69 1487.36,978.263 1492.58,966.696 1497.79,956.884 1503,948.931 1508.22,943.044 1513.43,939.223 1518.65,937.467 1523.86,937.88 1529.07,940.359 1534.29,944.903 1539.5,951.513 1544.72,960.086 1549.93,970.517 1555.15,982.704 1560.36,996.647 1565.57,1012.04 1570.79,1028.87 1576,1046.84 1581.22,1065.85 1586.43,1085.68 1591.64,1106.13 1596.86,1127.03 1602.07,1148.14 1607.29,1169.26 1612.5,1190.17 1617.72,1210.7 1622.93,1230.58 1628.14,1249.64 1633.36,1267.66 1638.57,1284.6 1643.79,1300.09 1649,1314.13 1654.21,1326.43 1659.43,1337.06 1664.64,1345.74 1669.86,1352.45 1675.07,1357.2 1680.29,1359.79 1685.5,1360.3 1690.71,1358.75 1695.93,1355.03 1701.14,1349.25 1706.36,1341.5 1711.57,1331.8 1716.78,1320.33 1722,1307.11 1727.21,1292.34 1732.43,1276.02 1737.64,1258.57 1742.86,1239.98 1748.07,1220.46 1753.28,1200.22 1758.5,1179.48 1763.71,1158.43 1768.93,1137.28 1774.14,1116.25 1779.35,1095.54 1784.57,1075.4 1789.78,1055.93 1795,1037.44 1800.21,1020.09 1805.43,1003.98 1810.64,989.314 1815.85,976.198 1821.07,964.94 1826.28,955.438 1831.5,947.795 1836.71,942.321 1841.92,938.81 1847.14,937.364 1852.35,938.087 1857.57,940.979 1862.78,945.833 1868,952.753 1873.21,961.635 1878.42,972.48 1883.64,984.977 1888.85,999.126 1894.07,1014.83 1899.28,1031.76 1904.49,1049.94 1909.71,1069.1 1914.92,1089.08 1920.14,1109.61 1925.35,1130.56 1930.57,1151.69 1935.78,1172.79 1940.99,1193.66 1946.21,1214.06 1951.42,1233.83 1956.64,1252.73 1961.85,1270.65 1967.06,1287.28 1972.28,1302.57 1977.49,1316.3 1982.71,1328.39 1987.92,1338.61 1993.14,1347.08 1998.35,1353.38 2003.56,1357.82 2008.78,1360.1 2013.99,1360.2 2019.21,1358.24 2024.42,1354.21 2029.63,1348.11 2034.85,1340.06 2040.06,1330.04 2045.28,1318.27 2050.49,1304.74 2055.71,1289.66 2060.92,1273.24 2066.13,1255.47 2071.35,1236.73 2076.56,1217.1 2081.78,1196.76 2086.99,1175.94 2092.2,1154.87 2097.42,1133.74 2102.63,1112.74 2107.85,1092.13 2113.06,1072.04 2118.28,1052.78 2123.49,1034.45 2128.7,1017.3 2133.92,1001.4 2139.13,986.939 2144.35,974.235 2149.56,963.184 2154.77,953.992 2159.99,946.762 2165.2,941.495 2170.42,938.397 2175.63,937.364 2180.84,938.397 2186.06,941.598 2191.27,946.866 2196.49,954.095 2201.7,963.391 2206.92,974.442 2212.13,987.249 2217.34,1001.6 2222.56,1017.51 2227.77,1034.76 2232.99,1053.09 2238.2,1072.4 2243.41,1092.49 2248.63,1113.12 2253.84,1134.12 2259.06,1155.25 2264.27,1176.33 2269.49,1197.12 2274.7,1217.46 2279.91,1237.09 2285.13,1255.78 2290.34,1273.55 "/>
<polyline clip-path="url(#clip612)" style="stroke:#e26f46; stroke-linecap:round; stroke-linejoin:round; stroke-width:4; stroke-opacity:1; fill:none" points="209.891,937.364 215.106,938.397 220.32,941.598 225.534,944.387 230.748,947.279 235.962,950.067 241.176,953.063 246.391,955.851 251.605,958.95 256.819,962.048 262.033,964.94 267.247,967.729 272.461,970.621 277.676,973.512 282.89,976.301 288.104,979.09 293.318,981.775 298.532,984.564 303.746,987.146 308.961,989.624 314.175,992.206 319.389,994.685 324.603,997.267 329.817,999.952 335.031,1002.53 340.246,1005.12 345.46,1007.7 350.674,1010.38 355.888,1013.07 361.102,1015.86 366.316,1018.65 371.53,1021.33 376.745,1024.22 381.959,1027.22 387.173,1030.32 392.387,1033.52 397.601,1036.62 402.815,1039.82 408.03,1043.12 413.244,1046.43 418.458,1049.53 423.672,1052.83 428.886,1056.34 434.1,1059.44 439.315,1063.16 444.529,1067.09 449.743,1071.01 454.957,1075.35 460.171,1080.1 465.385,1084.85 470.6,1089.81 475.814,1095.18 481.028,1100.96 486.242,1107.16 491.456,1113.98 496.67,1121.41 501.885,1129.47 507.099,1138.76 512.313,1149.09 517.527,1160.87 522.741,1174.29 527.955,1189.99 533.17,1207.96 538.384,1229.44 543.598,1254.85 548.812,1284.18 554.026,1317.65 559.24,1354.41 564.455,1391.18 569.669,1422.58 574.883,1442.41 580.097,1445.72 585.311,1429.19 590.525,1393.25 595.739,1339.96 600.954,1266.83 606.168,1169.13 611.382,1042.3 616.596,903.901 621.81,802.272 627.024,756.001 632.239,742.781 637.453,737.617 642.667,730.181 647.881,721.299 653.095,711.797 658.309,701.056 663.524,688.249 668.738,672.963 673.952,655.612 679.166,634.955 684.38,610.168 689.594,582.075 694.809,549.438 700.023,513.083 705.237,473.836 710.451,431.697 715.665,388.732 720.879,344.941 726.094,301.976 731.308,260.663 736.522,221.829 741.736,189.605 746.95,160.686 752.164,139.204 757.379,122.679 762.593,111.111 767.807,102.849 773.021,97.8913 778.235,93.76 783.449,92.1075 788.664,90.455 793.878,89.6288 799.092,88.8025 804.306,88.8025 809.52,87.9763 814.734,87.9763 819.948,87.9763 825.163,87.9763 830.377,87.9763 835.591,87.9763 840.805,87.9763 846.019,87.9763 851.233,87.9763 856.448,87.9763 861.662,87.9763 866.876,87.9763 872.09,87.9763 877.304,87.9763 882.518,87.9763 887.733,87.9763 892.947,87.9763 898.161,87.9763 903.375,87.9763 908.589,87.9763 913.803,87.9763 919.018,87.9763 924.232,87.9763 929.446,87.9763 934.66,87.9763 939.874,87.9763 945.088,87.9763 950.303,87.9763 955.517,87.9763 960.731,87.9763 965.945,87.9763 971.159,87.9763 976.373,87.9763 981.588,87.9763 986.802,87.9763 992.016,87.9763 997.23,87.9763 1002.44,87.9763 1007.66,87.9763 1012.87,87.9763 1018.09,87.9763 1023.3,87.9763 1028.51,87.9763 1033.73,87.9763 1038.94,87.9763 1044.16,87.9763 1049.37,87.9763 1054.59,87.9763 1059.8,87.9763 1065.01,87.9763 1070.23,87.9763 1075.44,87.9763 1080.66,87.9763 1085.87,87.9763 1091.08,87.9763 1096.3,87.9763 1101.51,87.9763 1106.73,87.9763 1111.94,87.9763 1117.16,87.9763 1122.37,87.9763 1127.58,87.9763 1132.8,87.9763 1138.01,87.9763 1143.23,87.9763 1148.44,87.9763 1153.65,87.9763 1158.87,87.9763 1164.08,87.9763 1169.3,87.9763 1174.51,87.9763 1179.73,87.9763 1184.94,87.9763 1190.15,87.9763 1195.37,87.9763 1200.58,87.9763 1205.8,87.9763 1211.01,87.9763 1216.22,87.9763 1221.44,87.9763 1226.65,87.9763 1231.87,87.9763 1237.08,87.9763 1242.3,87.9763 1247.51,87.9763 1252.72,87.9763 1257.94,87.9763 1263.15,87.9763 1268.37,87.9763 1273.58,87.9763 1278.79,87.9763 1284.01,87.9763 1289.22,87.9763 1294.44,87.9763 1299.65,87.9763 1304.87,87.9763 1310.08,87.9763 1315.29,87.9763 1320.51,87.9763 1325.72,87.9763 1330.94,87.9763 1336.15,87.9763 1341.36,87.9763 1346.58,87.9763 1351.79,87.9763 1357.01,87.9763 1362.22,87.9763 1367.44,87.9763 1372.65,87.9763 1377.86,87.9763 1383.08,87.9763 1388.29,87.9763 1393.51,87.9763 1398.72,87.9763 1403.93,87.9763 1409.15,87.9763 1414.36,87.9763 1419.58,87.9763 1424.79,87.9763 1430.01,87.9763 1435.22,87.9763 1440.43,87.9763 1445.65,87.9763 1450.86,87.9763 1456.08,87.9763 1461.29,87.9763 1466.5,87.9763 1471.72,87.9763 1476.93,87.9763 1482.15,87.9763 1487.36,87.9763 1492.58,87.9763 1497.79,87.9763 1503,87.9763 1508.22,87.9763 1513.43,87.9763 1518.65,87.9763 1523.86,87.9763 1529.07,87.9763 1534.29,87.9763 1539.5,87.9763 1544.72,87.9763 1549.93,87.9763 1555.15,87.9763 1560.36,87.9763 1565.57,87.9763 1570.79,87.9763 1576,87.9763 1581.22,87.9763 1586.43,87.9763 1591.64,87.9763 1596.86,87.9763 1602.07,87.9763 1607.29,87.9763 1612.5,87.9763 1617.72,87.9763 1622.93,87.9763 1628.14,87.9763 1633.36,87.9763 1638.57,87.9763 1643.79,87.9763 1649,87.9763 1654.21,87.9763 1659.43,87.9763 1664.64,87.9763 1669.86,87.9763 1675.07,87.9763 1680.29,87.9763 1685.5,87.9763 1690.71,87.9763 1695.93,87.9763 1701.14,87.9763 1706.36,87.9763 1711.57,87.9763 1716.78,87.9763 1722,87.9763 1727.21,87.9763 1732.43,87.9763 1737.64,87.9763 1742.86,87.9763 1748.07,87.9763 1753.28,87.9763 1758.5,87.9763 1763.71,87.9763 1768.93,87.9763 1774.14,87.9763 1779.35,87.9763 1784.57,87.9763 1789.78,87.9763 1795,87.9763 1800.21,87.9763 1805.43,87.9763 1810.64,87.9763 1815.85,87.9763 1821.07,87.9763 1826.28,87.9763 1831.5,87.9763 1836.71,87.9763 1841.92,87.9763 1847.14,87.9763 1852.35,87.9763 1857.57,87.9763 1862.78,87.9763 1868,87.9763 1873.21,87.9763 1878.42,87.9763 1883.64,87.9763 1888.85,87.9763 1894.07,87.9763 1899.28,87.9763 1904.49,87.9763 1909.71,87.9763 1914.92,87.9763 1920.14,87.9763 1925.35,87.9763 1930.57,87.9763 1935.78,87.9763 1940.99,87.9763 1946.21,87.9763 1951.42,87.9763 1956.64,87.9763 1961.85,87.9763 1967.06,87.9763 1972.28,87.9763 1977.49,87.9763 1982.71,87.9763 1987.92,87.9763 1993.14,87.9763 1998.35,87.9763 2003.56,87.9763 2008.78,87.9763 2013.99,87.9763 2019.21,87.9763 2024.42,87.9763 2029.63,87.9763 2034.85,87.9763 2040.06,87.9763 2045.28,87.9763 2050.49,87.9763 2055.71,87.9763 2060.92,87.9763 2066.13,87.9763 2071.35,87.9763 2076.56,87.9763 2081.78,87.9763 2086.99,87.9763 2092.2,87.9763 2097.42,87.9763 2102.63,87.9763 2107.85,87.9763 2113.06,87.9763 2118.28,87.9763 2123.49,87.9763 2128.7,87.9763 2133.92,87.9763 2139.13,87.9763 2144.35,87.9763 2149.56,87.9763 2154.77,87.9763 2159.99,87.9763 2165.2,87.9763 2170.42,87.9763 2175.63,87.9763 2180.84,87.9763 2186.06,87.9763 2191.27,87.9763 2196.49,87.9763 2201.7,87.9763 2206.92,87.9763 2212.13,87.9763 2217.34,87.9763 2222.56,87.9763 2227.77,87.9763 2232.99,87.9763 2238.2,87.9763 2243.41,87.9763 2248.63,87.9763 2253.84,87.9763 2259.06,87.9763 2264.27,87.9763 2269.49,87.9763 2274.7,87.9763 2279.91,87.9763 2285.13,87.9763 2290.34,87.9763 "/>
<polyline clip-path="url(#clip612)" style="stroke:#3da44d; stroke-linecap:round; stroke-linejoin:round; stroke-width:4; stroke-opacity:1; fill:none" points="209.891,937.364 215.106,938.397 220.32,941.598 225.534,949.551 230.748,960.499 235.962,974.339 241.176,989.831 246.391,1005.94 251.605,1022.26 256.819,1037.96 262.033,1052.32 267.247,1066.05 272.461,1078.14 277.676,1090.63 282.89,1101.99 288.104,1113.56 293.318,1125.75 298.532,1138.14 303.746,1150.23 308.961,1163.03 314.175,1177.39 319.389,1192.93 324.603,1209.87 329.817,1229.03 335.031,1248.86 340.246,1270.45 345.46,1293.27 350.674,1316.3 355.888,1338.41 361.102,1359.58 366.316,1375.69 371.53,1387.46 376.745,1392.42 381.959,1390.56 387.173,1379.41 392.387,1361.64 397.601,1337.27 402.815,1311.04 408.03,1281.91 413.244,1254.03 418.458,1227.38 423.672,1202.75 428.886,1179.15 434.1,1158.28 439.315,1139.12 444.529,1120.59 449.743,1102.82 454.957,1085.78 460.171,1070.29 465.385,1054.38 470.6,1038.17 475.814,1022.67 481.028,1006.56 486.242,990.451 491.456,975.165 496.67,961.532 501.885,951.617 507.099,944.594 512.313,940.462 517.527,941.289 522.741,946.246 527.955,955.335 533.17,966.902 538.384,980.536 543.598,995.408 548.812,1009.66 554.026,1023.91 559.24,1037.03 564.455,1049.84 569.669,1062.02 574.883,1073.08 580.097,1084.44 585.311,1094.25 590.525,1104.06 595.739,1114.39 600.954,1124.1 606.168,1134.94 611.382,1146.61 616.596,1157.56 621.81,1171.3 627.024,1185.14 632.239,1200.99 637.453,1217.98 642.667,1235.95 647.881,1254.85 653.095,1277.16 658.309,1300.09 663.524,1323.95 668.738,1346.67 673.952,1366.6 679.166,1382.92 684.38,1393.46 689.594,1395.31 694.809,1390.36 700.023,1376.93 705.237,1355.55 710.451,1329.94 715.665,1302.57 720.879,1274.17 726.094,1247 731.308,1222.78 736.522,1200.27 741.736,1181.01 746.95,1163.55 752.164,1148.37 757.379,1132.98 762.593,1118.93 767.807,1105.71 773.021,1092.08 778.235,1078.96 783.449,1065.74 788.664,1052.73 793.878,1040.34 799.092,1028.05 804.306,1015.24 809.52,1003.67 814.734,992.723 819.948,982.808 825.163,973.719 830.377,967.315 835.591,962.771 840.805,961.325 846.019,962.771 851.233,966.696 856.448,972.893 861.662,980.536 866.876,990.037 872.09,999.952 877.304,1009.87 882.518,1019.78 887.733,1030.11 892.947,1039.3 898.161,1048.08 903.375,1056.24 908.589,1063.37 913.803,1069.46 919.018,1076.38 924.232,1083.3 929.446,1089.7 934.66,1095.59 939.874,1102.41 945.088,1108.81 950.303,1115.21 955.517,1122.65 960.731,1129.05 965.945,1136.59 971.159,1144.34 976.373,1152.71 981.588,1162.21 986.802,1172.33 992.016,1184.31 997.23,1197.07 1002.44,1212.14 1007.66,1228.51 1012.87,1245.25 1018.09,1264.35 1023.3,1284.18 1028.51,1304.63 1033.73,1325.29 1038.94,1346.15 1044.16,1365.36 1049.37,1380.85 1054.59,1389.53 1059.8,1391.39 1065.01,1385.61 1070.23,1374.04 1075.44,1355.86 1080.66,1332.21 1085.87,1306.49 1091.08,1279.02 1096.3,1252.06 1101.51,1228.41 1106.73,1205.33 1111.94,1183.79 1117.16,1165 1122.37,1146.61 1127.58,1129.05 1132.8,1112.32 1138.01,1095.59 1143.23,1081.03 1148.44,1066.36 1153.65,1051.9 1158.87,1037.13 1164.08,1022.26 1169.3,1007.8 1174.51,994.169 1179.73,981.155 1184.94,969.381 1190.15,960.086 1195.37,953.476 1200.58,949.758 1205.8,949.758 1211.01,952.856 1216.22,959.053 1221.44,968.348 1226.65,979.296 1231.87,992.103 1237.08,1005.32 1242.3,1017.3 1247.51,1030.11 1252.72,1040.96 1257.94,1052.21 1263.15,1062.33 1268.37,1071.42 1273.58,1080.72 1278.79,1090.01 1284.01,1097.86 1289.22,1105.71 1294.44,1113.98 1299.65,1121.21 1304.87,1128.64 1310.08,1137.73 1315.29,1145.99 1320.51,1154.87 1325.72,1164.38 1330.94,1175.32 1336.15,1188.7 1341.36,1203.88 1346.58,1220.77 1351.79,1239.05 1357.01,1258.47 1362.22,1280.26 1367.44,1302.88 1372.65,1327.97 1377.86,1352.45 1383.08,1374.24 1388.29,1391.6 1393.51,1401.72 1398.72,1403.16 1403.93,1396.55 1409.15,1380.44 1414.36,1355.96 1419.58,1327.25 1424.79,1295.96 1430.01,1263.32 1435.22,1232.03 1440.43,1202.02 1445.65,1174.5 1450.86,1148.06 1456.08,1122.03 1461.29,1097.45 1466.5,1073.39 1471.72,1049.63 1476.93,1025.77 1482.15,1001.81 1487.36,978.47 1492.58,956.161 1497.79,935.918 1503,920.632 1508.22,912.163 1513.43,911.13 1518.65,917.121 1523.86,929.721 1529.07,947.692 1534.29,968.761 1539.5,991.277 1544.72,1014.62 1549.93,1037.55 1555.15,1060.27 1560.36,1080 1565.57,1098.28 1570.79,1115.42 1576,1132.36 1581.22,1149.92 1586.43,1166.55 1591.64,1184.77 1596.86,1204.81 1602.07,1225.83 1607.29,1248.34 1612.5,1272.82 1617.72,1299.68 1622.93,1326.12 1628.14,1351.73 1633.36,1373.42 1638.57,1390.77 1643.79,1401.1 1649,1402.96 1654.21,1396.76 1659.43,1381.68 1664.64,1359.58 1669.86,1332 1675.07,1301.95 1680.29,1270.65 1685.5,1241.11 1690.71,1212.66 1695.93,1186.27 1701.14,1162 1706.36,1138.92 1711.57,1116.66 1716.78,1093.32 1722,1071.53 1727.21,1049.63 1732.43,1027.22 1737.64,1004.91 1742.86,982.601 1748.07,961.119 1753.28,942.115 1758.5,926.829 1763.71,917.534 1768.93,914.642 1774.14,918.98 1779.35,929.721 1784.57,946.039 1789.78,966.489 1795,988.591 1800.21,1010.69 1805.43,1032.8 1810.64,1052.63 1815.85,1073.18 1821.07,1093.32 1826.28,1112.74 1831.5,1130.71 1836.71,1148.99 1841.92,1167.89 1847.14,1186.94 1852.35,1207.91 1857.57,1230.58 1862.78,1254.64 1868,1279.23 1873.21,1305.77 1878.42,1333.14 1883.64,1359.37 1888.85,1379.62 1894.07,1394.49 1899.28,1400.89 1904.49,1399.24 1909.71,1389.32 1914.92,1370.94 1920.14,1346.67 1925.35,1318.16 1930.57,1288.31 1935.78,1258.88 1940.99,1230.89 1946.21,1204.81 1951.42,1179.87 1956.64,1157.35 1961.85,1136.7 1967.06,1116.87 1972.28,1097.97 1977.49,1079.69 1982.71,1061.2 1987.92,1042.92 1993.14,1023.91 1998.35,1004.5 2003.56,986.732 2008.78,969.588 2013.99,954.095 2019.21,941.908 2024.42,933.439 2029.63,929.928 2034.85,931.374 2040.06,937.57 2045.28,948.725 2050.49,964.424 2055.71,981.981 2060.92,999.952 2066.13,1017.92 2071.35,1035.48 2076.56,1052.11 2081.78,1067.09 2086.99,1082.58 2092.2,1097.04 2097.42,1111.29 2102.63,1124.1 2107.85,1138.35 2113.06,1151.57 2118.28,1166.34 2123.49,1181.01 2128.7,1197.79 2133.92,1215.71 2139.13,1233.99 2144.35,1254.03 2149.56,1275.09 2154.77,1297.71 2159.99,1321.16 2165.2,1343.26 2170.42,1363.71 2175.63,1381.06 2180.84,1392.42 2186.06,1397.79 2191.27,1394.28 2196.49,1381.89 2201.7,1363.3 2206.92,1338.41 2212.13,1310.83 2217.34,1281.5 2222.56,1253.1 2227.77,1225.93 2232.99,1200.89 2238.2,1177.39 2243.41,1156.32 2248.63,1137.52 2253.84,1119.14 2259.06,1101.79 2264.27,1085.78 2269.49,1070.91 2274.7,1055.52 2279.91,1039.51 2285.13,1023.5 2290.34,1007.39 "/>
<polyline clip-path="url(#clip612)" style="stroke:#c271d2; stroke-linecap:round; stroke-linejoin:round; stroke-width:4; stroke-opacity:1; fill:none" points="209.891,937.364 215.106,938.603 220.32,939.636 225.534,940.772 230.748,941.908 235.962,943.148 241.176,944.387 246.391,945.42 251.605,946.659 256.819,947.692 262.033,948.828 267.247,950.067 272.461,951.1 277.676,952.236 282.89,953.269 288.104,954.405 293.318,955.645 298.532,956.677 303.746,957.814 308.961,959.053 314.175,960.292 319.389,961.532 324.603,962.771 329.817,964.114 335.031,965.353 340.246,966.593 345.46,967.935 350.674,969.175 355.888,970.414 361.102,971.757 366.316,973.099 371.53,974.545 376.745,975.888 381.959,977.231 387.173,978.573 392.387,979.916 397.601,981.259 402.815,982.601 408.03,983.944 413.244,985.286 418.458,986.732 423.672,988.178 428.886,989.624 434.1,991.07 439.315,992.31 444.529,993.756 449.743,995.202 454.957,996.647 460.171,998.093 465.385,999.539 470.6,1000.99 475.814,1002.33 481.028,1003.67 486.242,1005.22 491.456,1006.56 496.67,1008.01 501.885,1009.45 507.099,1010.9 512.313,1012.24 517.527,1013.79 522.741,1015.24 527.955,1016.68 533.17,1017.92 538.384,1019.37 543.598,1020.82 548.812,1022.05 554.026,1023.4 559.24,1024.84 564.455,1026.29 569.669,1027.63 574.883,1028.87 580.097,1030.21 585.311,1031.56 590.525,1032.8 595.739,1034.04 600.954,1035.38 606.168,1036.62 611.382,1037.96 616.596,1039.2 621.81,1040.34 627.024,1041.47 632.239,1042.61 637.453,1043.74 642.667,1044.88 647.881,1046.02 653.095,1047.05 658.309,1048.08 663.524,1049.11 668.738,1050.15 673.952,1051.18 679.166,1052.21 684.38,1053.25 689.594,1054.18 694.809,1055.1 700.023,1056.03 705.237,1056.96 710.451,1057.89 715.665,1058.72 720.879,1059.44 726.094,1060.37 731.308,1061.1 736.522,1061.92 741.736,1062.64 746.95,1063.37 752.164,1064.09 757.379,1064.92 762.593,1065.54 767.807,1066.16 773.021,1066.88 778.235,1067.6 783.449,1068.22 788.664,1068.74 793.878,1069.15 799.092,1069.87 804.306,1070.39 809.52,1071.01 814.734,1071.53 819.948,1072.04 825.163,1072.46 830.377,1073.08 835.591,1073.7 840.805,1074.21 846.019,1074.83 851.233,1075.35 856.448,1075.86 861.662,1076.38 866.876,1076.79 872.09,1077.31 877.304,1077.62 882.518,1078.03 887.733,1078.34 892.947,1078.86 898.161,1079.17 903.375,1079.48 908.589,1079.79 913.803,1080.1 919.018,1080.51 924.232,1080.93 929.446,1081.24 934.66,1081.54 939.874,1081.75 945.088,1082.16 950.303,1082.47 955.517,1082.78 960.731,1083.09 965.945,1083.3 971.159,1083.51 976.373,1083.71 981.588,1083.92 986.802,1084.02 992.016,1084.13 997.23,1084.33 1002.44,1084.54 1007.66,1084.75 1012.87,1084.85 1018.09,1085.06 1023.3,1085.37 1028.51,1085.57 1033.73,1085.68 1038.94,1085.88 1044.16,1086.09 1049.37,1086.3 1054.59,1086.5 1059.8,1086.81 1065.01,1086.92 1070.23,1087.12 1075.44,1087.23 1080.66,1087.33 1085.87,1087.54 1091.08,1087.64 1096.3,1087.74 1101.51,1087.95 1106.73,1088.05 1111.94,1088.15 1117.16,1088.36 1122.37,1088.46 1127.58,1088.67 1132.8,1088.77 1138.01,1088.77 1143.23,1088.77 1148.44,1088.77 1153.65,1088.77 1158.87,1088.77 1164.08,1088.77 1169.3,1088.77 1174.51,1088.77 1179.73,1088.77 1184.94,1088.77 1190.15,1088.77 1195.37,1088.77 1200.58,1088.77 1205.8,1088.77 1211.01,1088.77 1216.22,1088.77 1221.44,1088.77 1226.65,1088.77 1231.87,1088.77 1237.08,1088.77 1242.3,1088.77 1247.51,1088.77 1252.72,1088.77 1257.94,1088.77 1263.15,1088.77 1268.37,1088.77 1273.58,1088.77 1278.79,1088.77 1284.01,1088.77 1289.22,1088.77 1294.44,1088.77 1299.65,1088.77 1304.87,1088.77 1310.08,1088.77 1315.29,1088.77 1320.51,1088.77 1325.72,1088.77 1330.94,1088.77 1336.15,1088.77 1341.36,1088.77 1346.58,1088.77 1351.79,1088.77 1357.01,1088.77 1362.22,1088.77 1367.44,1088.77 1372.65,1088.77 1377.86,1088.77 1383.08,1088.77 1388.29,1088.77 1393.51,1088.77 1398.72,1088.77 1403.93,1088.77 1409.15,1088.77 1414.36,1088.77 1419.58,1088.77 1424.79,1088.77 1430.01,1088.77 1435.22,1088.77 1440.43,1088.77 1445.65,1088.77 1450.86,1088.77 1456.08,1088.77 1461.29,1088.77 1466.5,1088.77 1471.72,1088.77 1476.93,1088.77 1482.15,1088.77 1487.36,1088.77 1492.58,1088.77 1497.79,1088.77 1503,1088.77 1508.22,1088.77 1513.43,1088.77 1518.65,1088.77 1523.86,1088.77 1529.07,1088.77 1534.29,1088.77 1539.5,1088.77 1544.72,1088.77 1549.93,1088.77 1555.15,1088.77 1560.36,1088.77 1565.57,1088.77 1570.79,1088.77 1576,1088.77 1581.22,1088.77 1586.43,1088.77 1591.64,1088.77 1596.86,1088.77 1602.07,1088.77 1607.29,1088.77 1612.5,1088.77 1617.72,1088.77 1622.93,1088.77 1628.14,1088.77 1633.36,1088.77 1638.57,1088.77 1643.79,1088.77 1649,1088.77 1654.21,1088.77 1659.43,1088.77 1664.64,1088.77 1669.86,1088.77 1675.07,1088.77 1680.29,1088.77 1685.5,1088.77 1690.71,1088.77 1695.93,1088.77 1701.14,1088.77 1706.36,1088.77 1711.57,1088.77 1716.78,1088.77 1722,1088.77 1727.21,1088.77 1732.43,1088.77 1737.64,1088.77 1742.86,1088.77 1748.07,1088.77 1753.28,1088.77 1758.5,1088.77 1763.71,1088.77 1768.93,1088.77 1774.14,1088.77 1779.35,1088.77 1784.57,1088.77 1789.78,1088.77 1795,1088.77 1800.21,1088.77 1805.43,1088.77 1810.64,1088.77 1815.85,1088.77 1821.07,1088.77 1826.28,1088.77 1831.5,1088.77 1836.71,1088.77 1841.92,1088.77 1847.14,1088.77 1852.35,1088.77 1857.57,1088.77 1862.78,1088.77 1868,1088.77 1873.21,1088.77 1878.42,1088.77 1883.64,1088.77 1888.85,1088.77 1894.07,1088.77 1899.28,1088.77 1904.49,1088.77 1909.71,1088.77 1914.92,1088.77 1920.14,1088.77 1925.35,1088.77 1930.57,1088.77 1935.78,1088.77 1940.99,1088.77 1946.21,1088.77 1951.42,1088.77 1956.64,1088.77 1961.85,1088.77 1967.06,1088.77 1972.28,1088.77 1977.49,1088.77 1982.71,1088.77 1987.92,1088.77 1993.14,1088.77 1998.35,1088.77 2003.56,1088.77 2008.78,1088.77 2013.99,1088.77 2019.21,1088.77 2024.42,1088.77 2029.63,1088.77 2034.85,1088.77 2040.06,1088.77 2045.28,1088.77 2050.49,1088.77 2055.71,1088.77 2060.92,1088.77 2066.13,1088.77 2071.35,1088.77 2076.56,1088.77 2081.78,1088.77 2086.99,1088.77 2092.2,1088.77 2097.42,1088.77 2102.63,1088.77 2107.85,1088.77 2113.06,1088.77 2118.28,1088.77 2123.49,1088.77 2128.7,1088.77 2133.92,1088.77 2139.13,1088.77 2144.35,1088.77 2149.56,1088.77 2154.77,1088.77 2159.99,1088.77 2165.2,1088.77 2170.42,1088.77 2175.63,1088.77 2180.84,1088.77 2186.06,1088.77 2191.27,1088.77 2196.49,1088.77 2201.7,1088.77 2206.92,1088.77 2212.13,1088.77 2217.34,1088.77 2222.56,1088.77 2227.77,1088.77 2232.99,1088.77 2238.2,1088.77 2243.41,1088.77 2248.63,1088.77 2253.84,1088.77 2259.06,1088.77 2264.27,1088.77 2269.49,1088.77 2274.7,1088.77 2279.91,1088.77 2285.13,1088.77 2290.34,1088.77 "/>
<polyline clip-path="url(#clip612)" style="stroke:#ff0000; stroke-linecap:round; stroke-linejoin:round; stroke-width:4; stroke-opacity:1; fill:none" points="220.32,2925.65 220.32,-1391.96 "/>
<path clip-path="url(#clip610)" d="M220.987 406.258 L859.013 406.258 L859.013 95.2176 L220.987 95.2176  Z" fill="#ffffff" fill-rule="evenodd" fill-opacity="1"/>
<polyline clip-path="url(#clip610)" style="stroke:#000000; stroke-linecap:round; stroke-linejoin:round; stroke-width:4; stroke-opacity:1; fill:none" points="220.987,406.258 859.013,406.258 859.013,95.2176 220.987,95.2176 220.987,406.258 "/>
<polyline clip-path="url(#clip610)" style="stroke:#009af9; stroke-linecap:round; stroke-linejoin:round; stroke-width:4; stroke-opacity:1; fill:none" points="245.49,147.058 392.509,147.058 "/>
<path clip-path="url(#clip610)" d="M432.197 142.393 Q431.479 141.977 430.623 141.791 Q429.79 141.583 428.771 141.583 Q425.16 141.583 423.216 143.944 Q421.294 146.282 421.294 150.68 L421.294 164.338 L417.012 164.338 L417.012 138.412 L421.294 138.412 L421.294 142.44 Q422.637 140.078 424.79 138.944 Q426.942 137.787 430.021 137.787 Q430.461 137.787 430.993 137.856 Q431.526 137.903 432.174 138.018 L432.197 142.393 Z" fill="#000000" fill-rule="nonzero" fill-opacity="1" /><path clip-path="url(#clip610)" d="M457.799 150.31 L457.799 152.393 L438.215 152.393 Q438.493 156.791 440.854 159.106 Q443.239 161.398 447.475 161.398 Q449.928 161.398 452.22 160.796 Q454.535 160.194 456.803 158.99 L456.803 163.018 Q454.512 163.99 452.104 164.5 Q449.697 165.009 447.22 165.009 Q441.016 165.009 437.382 161.398 Q433.771 157.787 433.771 151.629 Q433.771 145.264 437.197 141.537 Q440.646 137.787 446.479 137.787 Q451.711 137.787 454.743 141.166 Q457.799 144.523 457.799 150.31 M453.539 149.06 Q453.493 145.565 451.572 143.481 Q449.674 141.398 446.526 141.398 Q442.961 141.398 440.808 143.412 Q438.678 145.426 438.354 149.083 L453.539 149.06 Z" fill="#000000" fill-rule="nonzero" fill-opacity="1" /><path clip-path="url(#clip610)" d="M477.914 128.319 L477.914 131.861 L473.84 131.861 Q471.549 131.861 470.646 132.787 Q469.766 133.713 469.766 136.12 L469.766 138.412 L476.78 138.412 L476.78 141.722 L469.766 141.722 L469.766 164.338 L465.484 164.338 L465.484 141.722 L461.41 141.722 L461.41 138.412 L465.484 138.412 L465.484 136.606 Q465.484 132.278 467.498 130.31 Q469.512 128.319 473.887 128.319 L477.914 128.319 Z" fill="#000000" fill-rule="nonzero" fill-opacity="1" /><path clip-path="url(#clip610)" d="M503.655 150.31 L503.655 152.393 L484.072 152.393 Q484.349 156.791 486.711 159.106 Q489.095 161.398 493.331 161.398 Q495.785 161.398 498.076 160.796 Q500.391 160.194 502.66 158.99 L502.66 163.018 Q500.368 163.99 497.961 164.5 Q495.553 165.009 493.076 165.009 Q486.873 165.009 483.238 161.398 Q479.627 157.787 479.627 151.629 Q479.627 145.264 483.053 141.537 Q486.502 137.787 492.336 137.787 Q497.567 137.787 500.599 141.166 Q503.655 144.523 503.655 150.31 M499.396 149.06 Q499.349 145.565 497.428 143.481 Q495.53 141.398 492.382 141.398 Q488.817 141.398 486.664 143.412 Q484.535 145.426 484.211 149.083 L499.396 149.06 Z" fill="#000000" fill-rule="nonzero" fill-opacity="1" /><path clip-path="url(#clip610)" d="M525.669 142.393 Q524.951 141.977 524.095 141.791 Q523.261 141.583 522.243 141.583 Q518.632 141.583 516.687 143.944 Q514.766 146.282 514.766 150.68 L514.766 164.338 L510.484 164.338 L510.484 138.412 L514.766 138.412 L514.766 142.44 Q516.109 140.078 518.261 138.944 Q520.414 137.787 523.493 137.787 Q523.933 137.787 524.465 137.856 Q524.997 137.903 525.646 138.018 L525.669 142.393 Z" fill="#000000" fill-rule="nonzero" fill-opacity="1" /><path clip-path="url(#clip610)" d="M551.27 150.31 L551.27 152.393 L531.687 152.393 Q531.965 156.791 534.326 159.106 Q536.71 161.398 540.946 161.398 Q543.4 161.398 545.692 160.796 Q548.007 160.194 550.275 158.99 L550.275 163.018 Q547.983 163.99 545.576 164.5 Q543.169 165.009 540.692 165.009 Q534.488 165.009 530.854 161.398 Q527.243 157.787 527.243 151.629 Q527.243 145.264 530.669 141.537 Q534.118 137.787 539.951 137.787 Q545.182 137.787 548.215 141.166 Q551.27 144.523 551.27 150.31 M547.011 149.06 Q546.965 145.565 545.044 143.481 Q543.145 141.398 539.997 141.398 Q536.433 141.398 534.28 143.412 Q532.15 145.426 531.826 149.083 L547.011 149.06 Z" fill="#000000" fill-rule="nonzero" fill-opacity="1" /><path clip-path="url(#clip610)" d="M579.812 148.689 L579.812 164.338 L575.553 164.338 L575.553 148.828 Q575.553 145.148 574.118 143.319 Q572.682 141.49 569.812 141.49 Q566.363 141.49 564.372 143.69 Q562.381 145.889 562.381 149.685 L562.381 164.338 L558.099 164.338 L558.099 138.412 L562.381 138.412 L562.381 142.44 Q563.909 140.102 565.969 138.944 Q568.053 137.787 570.761 137.787 Q575.229 137.787 577.52 140.565 Q579.812 143.319 579.812 148.689 Z" fill="#000000" fill-rule="nonzero" fill-opacity="1" /><path clip-path="url(#clip610)" d="M606.965 139.407 L606.965 143.389 Q605.159 142.393 603.33 141.907 Q601.525 141.398 599.673 141.398 Q595.529 141.398 593.238 144.037 Q590.946 146.652 590.946 151.398 Q590.946 156.143 593.238 158.782 Q595.529 161.398 599.673 161.398 Q601.525 161.398 603.33 160.912 Q605.159 160.402 606.965 159.407 L606.965 163.342 Q605.182 164.176 603.261 164.592 Q601.363 165.009 599.21 165.009 Q593.354 165.009 589.904 161.328 Q586.455 157.648 586.455 151.398 Q586.455 145.055 589.928 141.421 Q593.423 137.787 599.488 137.787 Q601.455 137.787 603.33 138.203 Q605.205 138.597 606.965 139.407 Z" fill="#000000" fill-rule="nonzero" fill-opacity="1" /><path clip-path="url(#clip610)" d="M636.548 150.31 L636.548 152.393 L616.965 152.393 Q617.242 156.791 619.603 159.106 Q621.988 161.398 626.224 161.398 Q628.677 161.398 630.969 160.796 Q633.284 160.194 635.552 158.99 L635.552 163.018 Q633.261 163.99 630.853 164.5 Q628.446 165.009 625.969 165.009 Q619.765 165.009 616.131 161.398 Q612.52 157.787 612.52 151.629 Q612.52 145.264 615.946 141.537 Q619.395 137.787 625.228 137.787 Q630.46 137.787 633.492 141.166 Q636.548 144.523 636.548 150.31 M632.289 149.06 Q632.242 145.565 630.321 143.481 Q628.423 141.398 625.275 141.398 Q621.71 141.398 619.557 143.412 Q617.427 145.426 617.103 149.083 L632.289 149.06 Z" fill="#000000" fill-rule="nonzero" fill-opacity="1" /><polyline clip-path="url(#clip610)" style="stroke:#e26f46; stroke-linecap:round; stroke-linejoin:round; stroke-width:4; stroke-opacity:1; fill:none" points="245.49,198.898 392.509,198.898 "/>
<path clip-path="url(#clip610)" d="M435.438 191.016 L435.438 195.043 Q433.632 194.117 431.688 193.655 Q429.743 193.192 427.66 193.192 Q424.489 193.192 422.891 194.164 Q421.317 195.136 421.317 197.08 Q421.317 198.562 422.452 199.418 Q423.586 200.252 427.012 201.016 L428.47 201.34 Q433.007 202.312 434.905 204.094 Q436.827 205.854 436.827 209.025 Q436.827 212.636 433.956 214.742 Q431.109 216.849 426.109 216.849 Q424.026 216.849 421.757 216.432 Q419.512 216.039 417.012 215.228 L417.012 210.83 Q419.373 212.057 421.665 212.682 Q423.956 213.284 426.202 213.284 Q429.211 213.284 430.831 212.266 Q432.452 211.224 432.452 209.349 Q432.452 207.613 431.271 206.687 Q430.114 205.761 426.155 204.904 L424.674 204.557 Q420.716 203.724 418.956 202.011 Q417.197 200.275 417.197 197.266 Q417.197 193.608 419.79 191.618 Q422.382 189.627 427.151 189.627 Q429.512 189.627 431.595 189.974 Q433.678 190.321 435.438 191.016 Z" fill="#000000" fill-rule="nonzero" fill-opacity="1" /><path clip-path="url(#clip610)" d="M443.447 180.159 L447.729 180.159 L447.729 201.432 L460.438 190.252 L465.877 190.252 L452.127 202.381 L466.456 216.178 L460.901 216.178 L447.729 203.516 L447.729 216.178 L443.447 216.178 L443.447 180.159 Z" fill="#000000" fill-rule="nonzero" fill-opacity="1" /><path clip-path="url(#clip610)" d="M491.549 202.15 L491.549 204.233 L471.965 204.233 Q472.243 208.631 474.604 210.946 Q476.988 213.238 481.225 213.238 Q483.678 213.238 485.97 212.636 Q488.285 212.034 490.553 210.83 L490.553 214.858 Q488.262 215.83 485.854 216.34 Q483.447 216.849 480.97 216.849 Q474.766 216.849 471.132 213.238 Q467.521 209.627 467.521 203.469 Q467.521 197.104 470.947 193.377 Q474.396 189.627 480.229 189.627 Q485.461 189.627 488.493 193.006 Q491.549 196.363 491.549 202.15 M487.289 200.9 Q487.243 197.405 485.322 195.321 Q483.424 193.238 480.275 193.238 Q476.711 193.238 474.558 195.252 Q472.428 197.266 472.104 200.923 L487.289 200.9 Z" fill="#000000" fill-rule="nonzero" fill-opacity="1" /><path clip-path="url(#clip610)" d="M496.062 190.252 L500.322 190.252 L505.646 210.483 L510.947 190.252 L515.97 190.252 L521.294 210.483 L526.595 190.252 L530.854 190.252 L524.072 216.178 L519.048 216.178 L513.47 194.928 L507.868 216.178 L502.845 216.178 L496.062 190.252 Z" fill="#000000" fill-rule="nonzero" fill-opacity="1" /><polyline clip-path="url(#clip610)" style="stroke:#3da44d; stroke-linecap:round; stroke-linejoin:round; stroke-width:4; stroke-opacity:1; fill:none" points="245.49,250.738 392.509,250.738 "/>
<path clip-path="url(#clip610)" d="M430.415 254.985 Q425.253 254.985 423.262 256.166 Q421.271 257.346 421.271 260.194 Q421.271 262.462 422.753 263.805 Q424.257 265.124 426.827 265.124 Q430.368 265.124 432.498 262.624 Q434.651 260.101 434.651 255.934 L434.651 254.985 L430.415 254.985 M438.91 253.226 L438.91 268.018 L434.651 268.018 L434.651 264.082 Q433.192 266.443 431.016 267.578 Q428.841 268.689 425.692 268.689 Q421.711 268.689 419.35 266.467 Q417.012 264.221 417.012 260.471 Q417.012 256.096 419.929 253.874 Q422.868 251.652 428.678 251.652 L434.651 251.652 L434.651 251.235 Q434.651 248.295 432.706 246.698 Q430.785 245.078 427.29 245.078 Q425.067 245.078 422.961 245.61 Q420.854 246.143 418.91 247.207 L418.91 243.272 Q421.248 242.37 423.447 241.93 Q425.646 241.467 427.729 241.467 Q433.354 241.467 436.132 244.383 Q438.91 247.3 438.91 253.226 Z" fill="#000000" fill-rule="nonzero" fill-opacity="1" /><path clip-path="url(#clip610)" d="M462.706 246.073 Q461.989 245.657 461.132 245.471 Q460.299 245.263 459.28 245.263 Q455.669 245.263 453.725 247.624 Q451.803 249.962 451.803 254.36 L451.803 268.018 L447.521 268.018 L447.521 242.092 L451.803 242.092 L451.803 246.12 Q453.146 243.758 455.299 242.624 Q457.451 241.467 460.53 241.467 Q460.97 241.467 461.502 241.536 Q462.035 241.583 462.683 241.698 L462.706 246.073 Z" fill="#000000" fill-rule="nonzero" fill-opacity="1" /><path clip-path="url(#clip610)" d="M485.785 255.078 Q485.785 250.379 483.84 247.717 Q481.919 245.032 478.539 245.032 Q475.16 245.032 473.215 247.717 Q471.294 250.379 471.294 255.078 Q471.294 259.777 473.215 262.462 Q475.16 265.124 478.539 265.124 Q481.919 265.124 483.84 262.462 Q485.785 259.777 485.785 255.078 M471.294 246.027 Q472.637 243.712 474.674 242.601 Q476.734 241.467 479.581 241.467 Q484.303 241.467 487.243 245.217 Q490.206 248.967 490.206 255.078 Q490.206 261.189 487.243 264.939 Q484.303 268.689 479.581 268.689 Q476.734 268.689 474.674 267.578 Q472.637 266.443 471.294 264.129 L471.294 268.018 L467.012 268.018 L467.012 231.999 L471.294 231.999 L471.294 246.027 Z" fill="#000000" fill-rule="nonzero" fill-opacity="1" /><polyline clip-path="url(#clip610)" style="stroke:#c271d2; stroke-linecap:round; stroke-linejoin:round; stroke-width:4; stroke-opacity:1; fill:none" points="245.49,302.578 392.509,302.578 "/>
<path clip-path="url(#clip610)" d="M437.521 294.927 L437.521 298.909 Q435.715 297.913 433.887 297.427 Q432.081 296.918 430.229 296.918 Q426.086 296.918 423.794 299.557 Q421.503 302.172 421.503 306.918 Q421.503 311.663 423.794 314.302 Q426.086 316.918 430.229 316.918 Q432.081 316.918 433.887 316.432 Q435.715 315.922 437.521 314.927 L437.521 318.862 Q435.739 319.696 433.817 320.112 Q431.919 320.529 429.766 320.529 Q423.91 320.529 420.461 316.848 Q417.012 313.168 417.012 306.918 Q417.012 300.575 420.484 296.941 Q423.979 293.307 430.044 293.307 Q432.012 293.307 433.887 293.723 Q435.762 294.117 437.521 294.927 Z" fill="#000000" fill-rule="nonzero" fill-opacity="1" /><path clip-path="url(#clip610)" d="M454.975 296.918 Q451.549 296.918 449.558 299.603 Q447.567 302.265 447.567 306.918 Q447.567 311.571 449.535 314.256 Q451.526 316.918 454.975 316.918 Q458.377 316.918 460.368 314.233 Q462.359 311.547 462.359 306.918 Q462.359 302.311 460.368 299.626 Q458.377 296.918 454.975 296.918 M454.975 293.307 Q460.53 293.307 463.701 296.918 Q466.873 300.529 466.873 306.918 Q466.873 313.284 463.701 316.918 Q460.53 320.529 454.975 320.529 Q449.396 320.529 446.225 316.918 Q443.077 313.284 443.077 306.918 Q443.077 300.529 446.225 296.918 Q449.396 293.307 454.975 293.307 Z" fill="#000000" fill-rule="nonzero" fill-opacity="1" /><path clip-path="url(#clip610)" d="M494.118 298.909 Q495.715 296.038 497.937 294.673 Q500.16 293.307 503.169 293.307 Q507.22 293.307 509.419 296.154 Q511.618 298.978 511.618 304.209 L511.618 319.858 L507.335 319.858 L507.335 304.348 Q507.335 300.622 506.016 298.816 Q504.697 297.01 501.988 297.01 Q498.678 297.01 496.757 299.21 Q494.836 301.409 494.836 305.205 L494.836 319.858 L490.553 319.858 L490.553 304.348 Q490.553 300.598 489.234 298.816 Q487.914 297.01 485.16 297.01 Q481.896 297.01 479.975 299.233 Q478.053 301.432 478.053 305.205 L478.053 319.858 L473.771 319.858 L473.771 293.932 L478.053 293.932 L478.053 297.96 Q479.512 295.575 481.549 294.441 Q483.586 293.307 486.387 293.307 Q489.211 293.307 491.178 294.742 Q493.169 296.177 494.118 298.909 Z" fill="#000000" fill-rule="nonzero" fill-opacity="1" /><path clip-path="url(#clip610)" d="M524.234 315.969 L524.234 329.719 L519.951 329.719 L519.951 293.932 L524.234 293.932 L524.234 297.867 Q525.576 295.552 527.613 294.441 Q529.673 293.307 532.521 293.307 Q537.243 293.307 540.183 297.057 Q543.145 300.807 543.145 306.918 Q543.145 313.029 540.183 316.779 Q537.243 320.529 532.521 320.529 Q529.673 320.529 527.613 319.418 Q525.576 318.283 524.234 315.969 M538.724 306.918 Q538.724 302.219 536.78 299.557 Q534.858 296.872 531.479 296.872 Q528.099 296.872 526.155 299.557 Q524.234 302.219 524.234 306.918 Q524.234 311.617 526.155 314.302 Q528.099 316.964 531.479 316.964 Q534.858 316.964 536.78 314.302 Q538.724 311.617 538.724 306.918 Z" fill="#000000" fill-rule="nonzero" fill-opacity="1" /><polyline clip-path="url(#clip610)" style="stroke:#ff0000; stroke-linecap:round; stroke-linejoin:round; stroke-width:4; stroke-opacity:1; fill:none" points="245.49,354.418 392.509,354.418 "/>
<path clip-path="url(#clip610)" d="M435.438 346.536 L435.438 350.563 Q433.632 349.637 431.688 349.175 Q429.743 348.712 427.66 348.712 Q424.489 348.712 422.891 349.684 Q421.317 350.656 421.317 352.6 Q421.317 354.082 422.452 354.938 Q423.586 355.772 427.012 356.536 L428.47 356.86 Q433.007 357.832 434.905 359.614 Q436.827 361.374 436.827 364.545 Q436.827 368.156 433.956 370.262 Q431.109 372.369 426.109 372.369 Q424.026 372.369 421.757 371.952 Q419.512 371.559 417.012 370.748 L417.012 366.35 Q419.373 367.577 421.665 368.202 Q423.956 368.804 426.202 368.804 Q429.211 368.804 430.831 367.786 Q432.452 366.744 432.452 364.869 Q432.452 363.133 431.271 362.207 Q430.114 361.281 426.155 360.424 L424.674 360.077 Q420.716 359.244 418.956 357.531 Q417.197 355.795 417.197 352.786 Q417.197 349.128 419.79 347.138 Q422.382 345.147 427.151 345.147 Q429.512 345.147 431.595 345.494 Q433.678 345.841 435.438 346.536 Z" fill="#000000" fill-rule="nonzero" fill-opacity="1" /><path clip-path="url(#clip610)" d="M447.822 338.411 L447.822 345.772 L456.595 345.772 L456.595 349.082 L447.822 349.082 L447.822 363.156 Q447.822 366.327 448.678 367.23 Q449.558 368.133 452.22 368.133 L456.595 368.133 L456.595 371.698 L452.22 371.698 Q447.29 371.698 445.415 369.869 Q443.54 368.017 443.54 363.156 L443.54 349.082 L440.415 349.082 L440.415 345.772 L443.54 345.772 L443.54 338.411 L447.822 338.411 Z" fill="#000000" fill-rule="nonzero" fill-opacity="1" /><path clip-path="url(#clip610)" d="M473.979 358.665 Q468.817 358.665 466.826 359.846 Q464.836 361.026 464.836 363.874 Q464.836 366.142 466.317 367.485 Q467.822 368.804 470.391 368.804 Q473.933 368.804 476.062 366.304 Q478.215 363.781 478.215 359.614 L478.215 358.665 L473.979 358.665 M482.475 356.906 L482.475 371.698 L478.215 371.698 L478.215 367.762 Q476.757 370.123 474.581 371.258 Q472.405 372.369 469.257 372.369 Q465.276 372.369 462.914 370.147 Q460.576 367.901 460.576 364.151 Q460.576 359.776 463.493 357.554 Q466.433 355.332 472.243 355.332 L478.215 355.332 L478.215 354.915 Q478.215 351.975 476.271 350.378 Q474.35 348.758 470.854 348.758 Q468.632 348.758 466.526 349.29 Q464.419 349.823 462.475 350.887 L462.475 346.952 Q464.813 346.05 467.012 345.61 Q469.211 345.147 471.294 345.147 Q476.919 345.147 479.697 348.063 Q482.475 350.98 482.475 356.906 Z" fill="#000000" fill-rule="nonzero" fill-opacity="1" /><path clip-path="url(#clip610)" d="M506.271 349.753 Q505.553 349.337 504.697 349.151 Q503.863 348.943 502.845 348.943 Q499.234 348.943 497.289 351.304 Q495.368 353.642 495.368 358.04 L495.368 371.698 L491.086 371.698 L491.086 345.772 L495.368 345.772 L495.368 349.8 Q496.711 347.438 498.863 346.304 Q501.016 345.147 504.095 345.147 Q504.535 345.147 505.067 345.216 Q505.599 345.263 506.248 345.378 L506.271 349.753 Z" fill="#000000" fill-rule="nonzero" fill-opacity="1" /><path clip-path="url(#clip610)" d="M514.951 338.411 L514.951 345.772 L523.724 345.772 L523.724 349.082 L514.951 349.082 L514.951 363.156 Q514.951 366.327 515.808 367.23 Q516.687 368.133 519.349 368.133 L523.724 368.133 L523.724 371.698 L519.349 371.698 Q514.419 371.698 512.544 369.869 Q510.669 368.017 510.669 363.156 L510.669 349.082 L507.544 349.082 L507.544 345.772 L510.669 345.772 L510.669 338.411 L514.951 338.411 Z" fill="#000000" fill-rule="nonzero" fill-opacity="1" /><path clip-path="url(#clip610)" d="M554.442 348.758 Q551.016 348.758 549.025 351.443 Q547.034 354.105 547.034 358.758 Q547.034 363.411 549.002 366.096 Q550.993 368.758 554.442 368.758 Q557.844 368.758 559.835 366.073 Q561.826 363.387 561.826 358.758 Q561.826 354.151 559.835 351.466 Q557.844 348.758 554.442 348.758 M554.442 345.147 Q559.997 345.147 563.169 348.758 Q566.34 352.369 566.34 358.758 Q566.34 365.124 563.169 368.758 Q559.997 372.369 554.442 372.369 Q548.863 372.369 545.692 368.758 Q542.544 365.124 542.544 358.758 Q542.544 352.369 545.692 348.758 Q548.863 345.147 554.442 345.147 Z" fill="#000000" fill-rule="nonzero" fill-opacity="1" /><path clip-path="url(#clip610)" d="M586.525 335.679 L586.525 339.221 L582.451 339.221 Q580.159 339.221 579.256 340.147 Q578.377 341.073 578.377 343.48 L578.377 345.772 L585.391 345.772 L585.391 349.082 L578.377 349.082 L578.377 371.698 L574.094 371.698 L574.094 349.082 L570.02 349.082 L570.02 345.772 L574.094 345.772 L574.094 343.966 Q574.094 339.638 576.108 337.67 Q578.122 335.679 582.497 335.679 L586.525 335.679 Z" fill="#000000" fill-rule="nonzero" fill-opacity="1" /><path clip-path="url(#clip610)" d="M609.279 367.809 L609.279 381.559 L604.997 381.559 L604.997 345.772 L609.279 345.772 L609.279 349.707 Q610.622 347.392 612.659 346.281 Q614.719 345.147 617.566 345.147 Q622.289 345.147 625.228 348.897 Q628.191 352.647 628.191 358.758 Q628.191 364.869 625.228 368.619 Q622.289 372.369 617.566 372.369 Q614.719 372.369 612.659 371.258 Q610.622 370.123 609.279 367.809 M623.77 358.758 Q623.77 354.059 621.826 351.397 Q619.904 348.712 616.525 348.712 Q613.145 348.712 611.201 351.397 Q609.279 354.059 609.279 358.758 Q609.279 363.457 611.201 366.142 Q613.145 368.804 616.525 368.804 Q619.904 368.804 621.826 366.142 Q623.77 363.457 623.77 358.758 Z" fill="#000000" fill-rule="nonzero" fill-opacity="1" /><path clip-path="url(#clip610)" d="M650.275 349.753 Q649.557 349.337 648.7 349.151 Q647.867 348.943 646.849 348.943 Q643.238 348.943 641.293 351.304 Q639.372 353.642 639.372 358.04 L639.372 371.698 L635.089 371.698 L635.089 345.772 L639.372 345.772 L639.372 349.8 Q640.714 347.438 642.867 346.304 Q645.02 345.147 648.099 345.147 Q648.538 345.147 649.071 345.216 Q649.603 345.263 650.251 345.378 L650.275 349.753 Z" fill="#000000" fill-rule="nonzero" fill-opacity="1" /><path clip-path="url(#clip610)" d="M675.876 357.67 L675.876 359.753 L656.293 359.753 Q656.571 364.151 658.932 366.466 Q661.316 368.758 665.552 368.758 Q668.006 368.758 670.298 368.156 Q672.612 367.554 674.881 366.35 L674.881 370.378 Q672.589 371.35 670.182 371.86 Q667.774 372.369 665.298 372.369 Q659.094 372.369 655.46 368.758 Q651.849 365.147 651.849 358.989 Q651.849 352.624 655.275 348.897 Q658.724 345.147 664.557 345.147 Q669.788 345.147 672.821 348.526 Q675.876 351.883 675.876 357.67 M671.617 356.42 Q671.571 352.925 669.649 350.841 Q667.751 348.758 664.603 348.758 Q661.038 348.758 658.886 350.772 Q656.756 352.786 656.432 356.443 L671.617 356.42 Z" fill="#000000" fill-rule="nonzero" fill-opacity="1" /><path clip-path="url(#clip610)" d="M699.927 349.707 L699.927 335.679 L704.186 335.679 L704.186 371.698 L699.927 371.698 L699.927 367.809 Q698.584 370.123 696.524 371.258 Q694.487 372.369 691.617 372.369 Q686.918 372.369 683.955 368.619 Q681.015 364.869 681.015 358.758 Q681.015 352.647 683.955 348.897 Q686.918 345.147 691.617 345.147 Q694.487 345.147 696.524 346.281 Q698.584 347.392 699.927 349.707 M685.413 358.758 Q685.413 363.457 687.335 366.142 Q689.279 368.804 692.659 368.804 Q696.038 368.804 697.983 366.142 Q699.927 363.457 699.927 358.758 Q699.927 354.059 697.983 351.397 Q696.038 348.712 692.659 348.712 Q689.279 348.712 687.335 351.397 Q685.413 354.059 685.413 358.758 Z" fill="#000000" fill-rule="nonzero" fill-opacity="1" /><path clip-path="url(#clip610)" d="M712.959 345.772 L717.219 345.772 L717.219 371.698 L712.959 371.698 L712.959 345.772 M712.959 335.679 L717.219 335.679 L717.219 341.073 L712.959 341.073 L712.959 335.679 Z" fill="#000000" fill-rule="nonzero" fill-opacity="1" /><path clip-path="url(#clip610)" d="M744.788 346.767 L744.788 350.749 Q742.982 349.753 741.154 349.267 Q739.348 348.758 737.496 348.758 Q733.353 348.758 731.061 351.397 Q728.769 354.012 728.769 358.758 Q728.769 363.503 731.061 366.142 Q733.353 368.758 737.496 368.758 Q739.348 368.758 741.154 368.272 Q742.982 367.762 744.788 366.767 L744.788 370.702 Q743.006 371.536 741.084 371.952 Q739.186 372.369 737.033 372.369 Q731.177 372.369 727.728 368.688 Q724.279 365.008 724.279 358.758 Q724.279 352.415 727.751 348.781 Q731.246 345.147 737.311 345.147 Q739.279 345.147 741.154 345.563 Q743.029 345.957 744.788 346.767 Z" fill="#000000" fill-rule="nonzero" fill-opacity="1" /><path clip-path="url(#clip610)" d="M756.408 338.411 L756.408 345.772 L765.181 345.772 L765.181 349.082 L756.408 349.082 L756.408 363.156 Q756.408 366.327 757.265 367.23 Q758.144 368.133 760.806 368.133 L765.181 368.133 L765.181 371.698 L760.806 371.698 Q755.876 371.698 754.001 369.869 Q752.126 368.017 752.126 363.156 L752.126 349.082 L749.001 349.082 L749.001 345.772 L752.126 345.772 L752.126 338.411 L756.408 338.411 Z" fill="#000000" fill-rule="nonzero" fill-opacity="1" /><path clip-path="url(#clip610)" d="M770.783 345.772 L775.042 345.772 L775.042 371.698 L770.783 371.698 L770.783 345.772 M770.783 335.679 L775.042 335.679 L775.042 341.073 L770.783 341.073 L770.783 335.679 Z" fill="#000000" fill-rule="nonzero" fill-opacity="1" /><path clip-path="url(#clip610)" d="M794.001 348.758 Q790.575 348.758 788.584 351.443 Q786.593 354.105 786.593 358.758 Q786.593 363.411 788.561 366.096 Q790.552 368.758 794.001 368.758 Q797.403 368.758 799.394 366.073 Q801.385 363.387 801.385 358.758 Q801.385 354.151 799.394 351.466 Q797.403 348.758 794.001 348.758 M794.001 345.147 Q799.556 345.147 802.727 348.758 Q805.899 352.369 805.899 358.758 Q805.899 365.124 802.727 368.758 Q799.556 372.369 794.001 372.369 Q788.422 372.369 785.251 368.758 Q782.103 365.124 782.103 358.758 Q782.103 352.369 785.251 348.758 Q788.422 345.147 794.001 345.147 Z" fill="#000000" fill-rule="nonzero" fill-opacity="1" /><path clip-path="url(#clip610)" d="M834.51 356.049 L834.51 371.698 L830.25 371.698 L830.25 356.188 Q830.25 352.508 828.815 350.679 Q827.38 348.85 824.51 348.85 Q821.061 348.85 819.07 351.05 Q817.079 353.249 817.079 357.045 L817.079 371.698 L812.797 371.698 L812.797 345.772 L817.079 345.772 L817.079 349.8 Q818.607 347.462 820.667 346.304 Q822.75 345.147 825.459 345.147 Q829.926 345.147 832.218 347.925 Q834.51 350.679 834.51 356.049 Z" fill="#000000" fill-rule="nonzero" fill-opacity="1" /></svg>
