<?xml version="1.0" encoding="utf-8"?>
<svg xmlns="http://www.w3.org/2000/svg" xmlns:xlink="http://www.w3.org/1999/xlink" width="600" height="400" viewBox="0 0 2400 1600">
<defs>
  <clipPath id="clip190">
    <rect x="0" y="0" width="2400" height="1600"/>
  </clipPath>
</defs>
<path clip-path="url(#clip190)" d="M0 1600 L2400 1600 L2400 0 L0 0  Z" fill="#ffffff" fill-rule="evenodd" fill-opacity="1"/>
<defs>
  <clipPath id="clip191">
    <rect x="480" y="0" width="1681" height="1600"/>
  </clipPath>
</defs>
<path clip-path="url(#clip190)" d="M188.104 1486.45 L2352.76 1486.45 L2352.76 47.2441 L188.104 47.2441  Z" fill="#ffffff" fill-rule="evenodd" fill-opacity="1"/>
<defs>
  <clipPath id="clip192">
    <rect x="188" y="47" width="2166" height="1440"/>
  </clipPath>
</defs>
<polyline clip-path="url(#clip192)" style="stroke:#000000; stroke-linecap:round; stroke-linejoin:round; stroke-width:2; stroke-opacity:0.1; fill:none" points="247.324,1486.45 247.324,47.2441 "/>
<polyline clip-path="url(#clip192)" style="stroke:#000000; stroke-linecap:round; stroke-linejoin:round; stroke-width:2; stroke-opacity:0.1; fill:none" points="758.366,1486.45 758.366,47.2441 "/>
<polyline clip-path="url(#clip192)" style="stroke:#000000; stroke-linecap:round; stroke-linejoin:round; stroke-width:2; stroke-opacity:0.1; fill:none" points="1269.41,1486.45 1269.41,47.2441 "/>
<polyline clip-path="url(#clip192)" style="stroke:#000000; stroke-linecap:round; stroke-linejoin:round; stroke-width:2; stroke-opacity:0.1; fill:none" points="1780.45,1486.45 1780.45,47.2441 "/>
<polyline clip-path="url(#clip192)" style="stroke:#000000; stroke-linecap:round; stroke-linejoin:round; stroke-width:2; stroke-opacity:0.1; fill:none" points="2291.49,1486.45 2291.49,47.2441 "/>
<polyline clip-path="url(#clip190)" style="stroke:#000000; stroke-linecap:round; stroke-linejoin:round; stroke-width:4; stroke-opacity:1; fill:none" points="188.104,1486.45 2352.76,1486.45 "/>
<polyline clip-path="url(#clip190)" style="stroke:#000000; stroke-linecap:round; stroke-linejoin:round; stroke-width:4; stroke-opacity:1; fill:none" points="247.324,1486.45 247.324,1467.55 "/>
<polyline clip-path="url(#clip190)" style="stroke:#000000; stroke-linecap:round; stroke-linejoin:round; stroke-width:4; stroke-opacity:1; fill:none" points="758.366,1486.45 758.366,1467.55 "/>
<polyline clip-path="url(#clip190)" style="stroke:#000000; stroke-linecap:round; stroke-linejoin:round; stroke-width:4; stroke-opacity:1; fill:none" points="1269.41,1486.45 1269.41,1467.55 "/>
<polyline clip-path="url(#clip190)" style="stroke:#000000; stroke-linecap:round; stroke-linejoin:round; stroke-width:4; stroke-opacity:1; fill:none" points="1780.45,1486.45 1780.45,1467.55 "/>
<polyline clip-path="url(#clip190)" style="stroke:#000000; stroke-linecap:round; stroke-linejoin:round; stroke-width:4; stroke-opacity:1; fill:none" points="2291.49,1486.45 2291.49,1467.55 "/>
<path clip-path="url(#clip190)" d="M247.324 1517.37 Q243.713 1517.37 241.884 1520.93 Q240.078 1524.47 240.078 1531.6 Q240.078 1538.71 241.884 1542.27 Q243.713 1545.82 247.324 1545.82 Q250.958 1545.82 252.763 1542.27 Q254.592 1538.71 254.592 1531.6 Q254.592 1524.47 252.763 1520.93 Q250.958 1517.37 247.324 1517.37 M247.324 1513.66 Q253.134 1513.66 256.189 1518.27 Q259.268 1522.85 259.268 1531.6 Q259.268 1540.33 256.189 1544.94 Q253.134 1549.52 247.324 1549.52 Q241.514 1549.52 238.435 1544.94 Q235.379 1540.33 235.379 1531.6 Q235.379 1522.85 238.435 1518.27 Q241.514 1513.66 247.324 1513.66 Z" fill="#000000" fill-rule="nonzero" fill-opacity="1" /><path clip-path="url(#clip190)" d="M722.058 1544.91 L738.378 1544.91 L738.378 1548.85 L716.433 1548.85 L716.433 1544.91 Q719.095 1542.16 723.679 1537.53 Q728.285 1532.88 729.466 1531.53 Q731.711 1529.01 732.59 1527.27 Q733.493 1525.51 733.493 1523.82 Q733.493 1521.07 731.549 1519.33 Q729.628 1517.6 726.526 1517.6 Q724.327 1517.6 721.873 1518.36 Q719.442 1519.13 716.665 1520.68 L716.665 1515.95 Q719.489 1514.82 721.942 1514.24 Q724.396 1513.66 726.433 1513.66 Q731.803 1513.66 734.998 1516.35 Q738.192 1519.03 738.192 1523.52 Q738.192 1525.65 737.382 1527.57 Q736.595 1529.47 734.489 1532.07 Q733.91 1532.74 730.808 1535.95 Q727.706 1539.15 722.058 1544.91 Z" fill="#000000" fill-rule="nonzero" fill-opacity="1" /><path clip-path="url(#clip190)" d="M748.239 1514.29 L766.595 1514.29 L766.595 1518.22 L752.521 1518.22 L752.521 1526.7 Q753.539 1526.35 754.558 1526.19 Q755.576 1526 756.595 1526 Q762.382 1526 765.762 1529.17 Q769.141 1532.34 769.141 1537.76 Q769.141 1543.34 765.669 1546.44 Q762.197 1549.52 755.877 1549.52 Q753.701 1549.52 751.433 1549.15 Q749.188 1548.78 746.78 1548.04 L746.78 1543.34 Q748.864 1544.47 751.086 1545.03 Q753.308 1545.58 755.785 1545.58 Q759.789 1545.58 762.127 1543.48 Q764.465 1541.37 764.465 1537.76 Q764.465 1534.15 762.127 1532.04 Q759.789 1529.94 755.785 1529.94 Q753.91 1529.94 752.035 1530.35 Q750.183 1530.77 748.239 1531.65 L748.239 1514.29 Z" fill="#000000" fill-rule="nonzero" fill-opacity="1" /><path clip-path="url(#clip190)" d="M788.354 1517.37 Q784.743 1517.37 782.914 1520.93 Q781.109 1524.47 781.109 1531.6 Q781.109 1538.71 782.914 1542.27 Q784.743 1545.82 788.354 1545.82 Q791.988 1545.82 793.794 1542.27 Q795.623 1538.71 795.623 1531.6 Q795.623 1524.47 793.794 1520.93 Q791.988 1517.37 788.354 1517.37 M788.354 1513.66 Q794.164 1513.66 797.22 1518.27 Q800.298 1522.85 800.298 1531.6 Q800.298 1540.33 797.22 1544.94 Q794.164 1549.52 788.354 1549.52 Q782.544 1549.52 779.465 1544.94 Q776.41 1540.33 776.41 1531.6 Q776.41 1522.85 779.465 1518.27 Q782.544 1513.66 788.354 1513.66 Z" fill="#000000" fill-rule="nonzero" fill-opacity="1" /><path clip-path="url(#clip190)" d="M1229.03 1514.29 L1247.38 1514.29 L1247.38 1518.22 L1233.31 1518.22 L1233.31 1526.7 Q1234.33 1526.35 1235.35 1526.19 Q1236.36 1526 1237.38 1526 Q1243.17 1526 1246.55 1529.17 Q1249.93 1532.34 1249.93 1537.76 Q1249.93 1543.34 1246.46 1546.44 Q1242.98 1549.52 1236.67 1549.52 Q1234.49 1549.52 1232.22 1549.15 Q1229.98 1548.78 1227.57 1548.04 L1227.57 1543.34 Q1229.65 1544.47 1231.87 1545.03 Q1234.1 1545.58 1236.57 1545.58 Q1240.58 1545.58 1242.92 1543.48 Q1245.25 1541.37 1245.25 1537.76 Q1245.25 1534.15 1242.92 1532.04 Q1240.58 1529.94 1236.57 1529.94 Q1234.7 1529.94 1232.82 1530.35 Q1230.97 1530.77 1229.03 1531.65 L1229.03 1514.29 Z" fill="#000000" fill-rule="nonzero" fill-opacity="1" /><path clip-path="url(#clip190)" d="M1269.14 1517.37 Q1265.53 1517.37 1263.7 1520.93 Q1261.9 1524.47 1261.9 1531.6 Q1261.9 1538.71 1263.7 1542.27 Q1265.53 1545.82 1269.14 1545.82 Q1272.78 1545.82 1274.58 1542.27 Q1276.41 1538.71 1276.41 1531.6 Q1276.41 1524.47 1274.58 1520.93 Q1272.78 1517.37 1269.14 1517.37 M1269.14 1513.66 Q1274.95 1513.66 1278.01 1518.27 Q1281.09 1522.85 1281.09 1531.6 Q1281.09 1540.33 1278.01 1544.94 Q1274.95 1549.52 1269.14 1549.52 Q1263.33 1549.52 1260.25 1544.94 Q1257.2 1540.33 1257.2 1531.6 Q1257.2 1522.85 1260.25 1518.27 Q1263.33 1513.66 1269.14 1513.66 Z" fill="#000000" fill-rule="nonzero" fill-opacity="1" /><path clip-path="url(#clip190)" d="M1299.3 1517.37 Q1295.69 1517.37 1293.86 1520.93 Q1292.06 1524.47 1292.06 1531.6 Q1292.06 1538.71 1293.86 1542.27 Q1295.69 1545.82 1299.3 1545.82 Q1302.94 1545.82 1304.74 1542.27 Q1306.57 1538.71 1306.57 1531.6 Q1306.57 1524.47 1304.74 1520.93 Q1302.94 1517.37 1299.3 1517.37 M1299.3 1513.66 Q1305.11 1513.66 1308.17 1518.27 Q1311.25 1522.85 1311.25 1531.6 Q1311.25 1540.33 1308.17 1544.94 Q1305.11 1549.52 1299.3 1549.52 Q1293.49 1549.52 1290.41 1544.94 Q1287.36 1540.33 1287.36 1531.6 Q1287.36 1522.85 1290.41 1518.27 Q1293.49 1513.66 1299.3 1513.66 Z" fill="#000000" fill-rule="nonzero" fill-opacity="1" /><path clip-path="url(#clip190)" d="M1738.73 1514.29 L1760.95 1514.29 L1760.95 1516.28 L1748.4 1548.85 L1743.52 1548.85 L1755.32 1518.22 L1738.73 1518.22 L1738.73 1514.29 Z" fill="#000000" fill-rule="nonzero" fill-opacity="1" /><path clip-path="url(#clip190)" d="M1770.11 1514.29 L1788.47 1514.29 L1788.47 1518.22 L1774.4 1518.22 L1774.4 1526.7 Q1775.42 1526.35 1776.43 1526.19 Q1777.45 1526 1778.47 1526 Q1784.26 1526 1787.64 1529.17 Q1791.02 1532.34 1791.02 1537.76 Q1791.02 1543.34 1787.54 1546.44 Q1784.07 1549.52 1777.75 1549.52 Q1775.58 1549.52 1773.31 1549.15 Q1771.06 1548.78 1768.66 1548.04 L1768.66 1543.34 Q1770.74 1544.47 1772.96 1545.03 Q1775.18 1545.58 1777.66 1545.58 Q1781.67 1545.58 1784 1543.48 Q1786.34 1541.37 1786.34 1537.76 Q1786.34 1534.15 1784 1532.04 Q1781.67 1529.94 1777.66 1529.94 Q1775.79 1529.94 1773.91 1530.35 Q1772.06 1530.77 1770.11 1531.65 L1770.11 1514.29 Z" fill="#000000" fill-rule="nonzero" fill-opacity="1" /><path clip-path="url(#clip190)" d="M1810.23 1517.37 Q1806.62 1517.37 1804.79 1520.93 Q1802.98 1524.47 1802.98 1531.6 Q1802.98 1538.71 1804.79 1542.27 Q1806.62 1545.82 1810.23 1545.82 Q1813.86 1545.82 1815.67 1542.27 Q1817.5 1538.71 1817.5 1531.6 Q1817.5 1524.47 1815.67 1520.93 Q1813.86 1517.37 1810.23 1517.37 M1810.23 1513.66 Q1816.04 1513.66 1819.1 1518.27 Q1822.17 1522.85 1822.17 1531.6 Q1822.17 1540.33 1819.1 1544.94 Q1816.04 1549.52 1810.23 1549.52 Q1804.42 1549.52 1801.34 1544.94 Q1798.29 1540.33 1798.29 1531.6 Q1798.29 1522.85 1801.34 1518.27 Q1804.42 1513.66 1810.23 1513.66 Z" fill="#000000" fill-rule="nonzero" fill-opacity="1" /><path clip-path="url(#clip190)" d="M2236.02 1544.91 L2243.66 1544.91 L2243.66 1518.55 L2235.35 1520.21 L2235.35 1515.95 L2243.61 1514.29 L2248.29 1514.29 L2248.29 1544.91 L2255.93 1544.91 L2255.93 1548.85 L2236.02 1548.85 L2236.02 1544.91 Z" fill="#000000" fill-rule="nonzero" fill-opacity="1" /><path clip-path="url(#clip190)" d="M2275.37 1517.37 Q2271.76 1517.37 2269.93 1520.93 Q2268.12 1524.47 2268.12 1531.6 Q2268.12 1538.71 2269.93 1542.27 Q2271.76 1545.82 2275.37 1545.82 Q2279 1545.82 2280.81 1542.27 Q2282.64 1538.71 2282.64 1531.6 Q2282.64 1524.47 2280.81 1520.93 Q2279 1517.37 2275.37 1517.37 M2275.37 1513.66 Q2281.18 1513.66 2284.24 1518.27 Q2287.31 1522.85 2287.31 1531.6 Q2287.31 1540.33 2284.24 1544.94 Q2281.18 1549.52 2275.37 1549.52 Q2269.56 1549.52 2266.48 1544.94 Q2263.43 1540.33 2263.43 1531.6 Q2263.43 1522.85 2266.48 1518.27 Q2269.56 1513.66 2275.37 1513.66 Z" fill="#000000" fill-rule="nonzero" fill-opacity="1" /><path clip-path="url(#clip190)" d="M2305.53 1517.37 Q2301.92 1517.37 2300.09 1520.93 Q2298.29 1524.47 2298.29 1531.6 Q2298.29 1538.71 2300.09 1542.27 Q2301.92 1545.82 2305.53 1545.82 Q2309.17 1545.82 2310.97 1542.27 Q2312.8 1538.71 2312.8 1531.6 Q2312.8 1524.47 2310.97 1520.93 Q2309.17 1517.37 2305.53 1517.37 M2305.53 1513.66 Q2311.34 1513.66 2314.4 1518.27 Q2317.48 1522.85 2317.48 1531.6 Q2317.48 1540.33 2314.4 1544.94 Q2311.34 1549.52 2305.53 1549.52 Q2299.72 1549.52 2296.64 1544.94 Q2293.59 1540.33 2293.59 1531.6 Q2293.59 1522.85 2296.64 1518.27 Q2299.72 1513.66 2305.53 1513.66 Z" fill="#000000" fill-rule="nonzero" fill-opacity="1" /><path clip-path="url(#clip190)" d="M2335.69 1517.37 Q2332.08 1517.37 2330.25 1520.93 Q2328.45 1524.47 2328.45 1531.6 Q2328.45 1538.71 2330.25 1542.27 Q2332.08 1545.82 2335.69 1545.82 Q2339.33 1545.82 2341.13 1542.27 Q2342.96 1538.71 2342.96 1531.6 Q2342.96 1524.47 2341.13 1520.93 Q2339.33 1517.37 2335.69 1517.37 M2335.69 1513.66 Q2341.5 1513.66 2344.56 1518.27 Q2347.64 1522.85 2347.64 1531.6 Q2347.64 1540.33 2344.56 1544.94 Q2341.5 1549.52 2335.69 1549.52 Q2329.88 1549.52 2326.8 1544.94 Q2323.75 1540.33 2323.75 1531.6 Q2323.75 1522.85 2326.8 1518.27 Q2329.88 1513.66 2335.69 1513.66 Z" fill="#000000" fill-rule="nonzero" fill-opacity="1" /><polyline clip-path="url(#clip192)" style="stroke:#000000; stroke-linecap:round; stroke-linejoin:round; stroke-width:2; stroke-opacity:0.1; fill:none" points="188.104,875.486 2352.76,875.486 "/>
<polyline clip-path="url(#clip192)" style="stroke:#000000; stroke-linecap:round; stroke-linejoin:round; stroke-width:2; stroke-opacity:0.1; fill:none" points="188.104,194.151 2352.76,194.151 "/>
<polyline clip-path="url(#clip190)" style="stroke:#000000; stroke-linecap:round; stroke-linejoin:round; stroke-width:4; stroke-opacity:1; fill:none" points="188.104,1486.45 188.104,47.2441 "/>
<polyline clip-path="url(#clip190)" style="stroke:#000000; stroke-linecap:round; stroke-linejoin:round; stroke-width:4; stroke-opacity:1; fill:none" points="188.104,875.486 207.002,875.486 "/>
<polyline clip-path="url(#clip190)" style="stroke:#000000; stroke-linecap:round; stroke-linejoin:round; stroke-width:4; stroke-opacity:1; fill:none" points="188.104,194.151 207.002,194.151 "/>
<path clip-path="url(#clip190)" d="M51.6634 895.278 L59.3023 895.278 L59.3023 868.912 L50.9921 870.579 L50.9921 866.32 L59.256 864.653 L63.9319 864.653 L63.9319 895.278 L71.5707 895.278 L71.5707 899.213 L51.6634 899.213 L51.6634 895.278 Z" fill="#000000" fill-rule="nonzero" fill-opacity="1" /><path clip-path="url(#clip190)" d="M91.0151 867.732 Q87.404 867.732 85.5753 871.297 Q83.7697 874.838 83.7697 881.968 Q83.7697 889.074 85.5753 892.639 Q87.404 896.181 91.0151 896.181 Q94.6493 896.181 96.4548 892.639 Q98.2835 889.074 98.2835 881.968 Q98.2835 874.838 96.4548 871.297 Q94.6493 867.732 91.0151 867.732 M91.0151 864.028 Q96.8252 864.028 99.8808 868.635 Q102.959 873.218 102.959 881.968 Q102.959 890.695 99.8808 895.301 Q96.8252 899.884 91.0151 899.884 Q85.2049 899.884 82.1262 895.301 Q79.0707 890.695 79.0707 881.968 Q79.0707 873.218 82.1262 868.635 Q85.2049 864.028 91.0151 864.028 Z" fill="#000000" fill-rule="nonzero" fill-opacity="1" /><path clip-path="url(#clip190)" d="M102.959 858.13 L127.071 858.13 L127.071 861.327 L102.959 861.327 L102.959 858.13 Z" fill="#000000" fill-rule="nonzero" fill-opacity="1" /><path clip-path="url(#clip190)" d="M135.929 868.605 L142.136 868.605 L142.136 847.183 L135.384 848.538 L135.384 845.077 L142.098 843.723 L145.898 843.723 L145.898 868.605 L152.104 868.605 L152.104 871.803 L135.929 871.803 L135.929 868.605 Z" fill="#000000" fill-rule="nonzero" fill-opacity="1" /><path clip-path="url(#clip190)" d="M81.3985 213.944 L89.0374 213.944 L89.0374 187.578 L80.7272 189.245 L80.7272 184.986 L88.9911 183.319 L93.667 183.319 L93.667 213.944 L101.306 213.944 L101.306 217.879 L81.3985 217.879 L81.3985 213.944 Z" fill="#000000" fill-rule="nonzero" fill-opacity="1" /><path clip-path="url(#clip190)" d="M120.75 186.398 Q117.139 186.398 115.31 189.962 Q113.505 193.504 113.505 200.634 Q113.505 207.74 115.31 211.305 Q117.139 214.847 120.75 214.847 Q124.384 214.847 126.19 211.305 Q128.019 207.74 128.019 200.634 Q128.019 193.504 126.19 189.962 Q124.384 186.398 120.75 186.398 M120.75 182.694 Q126.56 182.694 129.616 187.3 Q132.695 191.884 132.695 200.634 Q132.695 209.36 129.616 213.967 Q126.56 218.55 120.75 218.55 Q114.94 218.55 111.861 213.967 Q108.806 209.36 108.806 200.634 Q108.806 191.884 111.861 187.3 Q114.94 182.694 120.75 182.694 Z" fill="#000000" fill-rule="nonzero" fill-opacity="1" /><path clip-path="url(#clip190)" d="M142.399 164.89 Q139.465 164.89 137.98 167.786 Q136.513 170.664 136.513 176.457 Q136.513 182.231 137.98 185.127 Q139.465 188.005 142.399 188.005 Q145.352 188.005 146.819 185.127 Q148.305 182.231 148.305 176.457 Q148.305 170.664 146.819 167.786 Q145.352 164.89 142.399 164.89 M142.399 161.881 Q147.12 161.881 149.603 165.623 Q152.104 169.347 152.104 176.457 Q152.104 183.547 149.603 187.29 Q147.12 191.014 142.399 191.014 Q137.679 191.014 135.177 187.29 Q132.695 183.547 132.695 176.457 Q132.695 169.347 135.177 165.623 Q137.679 161.881 142.399 161.881 Z" fill="#000000" fill-rule="nonzero" fill-opacity="1" /><polyline clip-path="url(#clip192)" style="stroke:#e26f46; stroke-linecap:round; stroke-linejoin:round; stroke-width:4; stroke-opacity:1; fill:none" points="249.368,87.9763 251.412,128.354 253.456,170.556 255.5,218.065 257.545,261.882 259.589,298.373 261.633,335.08 263.677,375.125 265.721,420.982 267.765,473.782 269.81,532.831 271.854,595.25 273.898,652.581 275.942,681.686 277.986,705.714 280.03,723.755 282.075,736.123 284.119,747.855 286.163,764.506 288.207,781.36 290.251,799.233 292.295,818.703 294.34,839.704 296.384,859.388 298.428,882.688 300.472,908.586 302.516,929.29 304.56,948.531 306.605,966.889 308.649,982.287 310.693,999.353 312.737,1012.26 314.781,1023.51 316.825,1031.97 318.87,1040.83 320.914,1048.02 322.958,1052.42 325.002,1058.06 327.046,1064.83 329.09,1066.21 331.135,1071.76 333.179,1076.18 335.223,1079.22 337.267,1080.48 339.311,1081.93 341.355,1083.2 343.4,1085.58 345.444,1090.21 347.488,1091.89 349.532,1092.64 351.576,1096.43 353.62,1097.38 355.665,1099.3 357.709,1100.65 359.753,1100.26 361.797,1101.04 363.841,1100.84 365.885,1101.62 367.93,1101.81 369.974,1103.37 372.018,1103.37 374.062,1104.15 376.106,1103.17 378.15,1104.93 380.195,1103.76 382.239,1104.54 384.283,1105.52 386.327,1108.28 388.371,1107.29 390.415,1107.29 392.46,1109.08 394.504,1110.27 396.548,1108.88 398.592,1108.09 400.636,1109.28 402.681,1108.28 404.725,1109.68 406.769,1110.27 408.813,1108.48 410.857,1110.27 412.901,1110.87 414.946,1110.07 416.99,1108.88 419.034,1111.07 421.078,1110.67 423.122,1112.48 425.166,1110.47 427.211,1112.28 429.255,1111.88 431.299,1114.29 433.343,1113.28 435.387,1113.28 437.431,1114.5 439.476,1114.5 441.52,1115.51 443.564,1114.5 445.608,1115.51 447.652,1113.89 449.696,1115.72 451.741,1115.72 453.785,1115.51 455.829,1117.14 457.873,1115.92 459.917,1117.35 461.961,1116.53 464.006,1117.76 466.05,1116.94 468.094,1118.99 470.138,1117.35 472.182,1118.58 474.226,1117.96 476.271,1118.58 478.315,1121.05 480.359,1120.84 482.403,1121.67 484.447,1120.43 486.491,1120.22 488.536,1122.5 490.58,1121.67 492.624,1121.67 494.668,1120.64 496.712,1123.96 498.756,1122.92 500.801,1121.05 502.845,1123.75 504.889,1121.88 506.933,1122.5 508.977,1122.5 511.021,1122.92 513.066,1120.22 515.11,1124.17 517.154,1123.55 519.198,1122.71 521.242,1123.34 523.286,1123.13 525.331,1125.01 527.375,1123.34 529.419,1124.17 531.463,1123.13 533.507,1125.01 535.551,1125.22 537.596,1124.8 539.64,1125.64 541.684,1126.06 543.728,1125.01 545.772,1127.33 547.816,1127.12 549.861,1126.06 551.905,1127.75 553.949,1126.48 555.993,1126.27 558.037,1126.91 560.081,1128.39 562.126,1127.75 564.17,1126.91 566.214,1127.75 568.258,1127.54 570.302,1127.54 572.346,1127.75 574.391,1127.96 576.435,1126.27 578.479,1127.12 580.523,1129.66 582.567,1128.39 584.612,1129.24 586.656,1128.6 588.7,1127.96 590.744,1128.39 592.788,1129.03 594.832,1127.33 596.877,1128.6 598.921,1128.18 600.965,1127.96 603.009,1129.24 605.053,1128.81 607.097,1130.52 609.142,1132.02 611.186,1131.37 613.23,1131.8 615.274,1132.23 617.318,1129.24 619.362,1130.73 621.407,1132.66 623.451,1132.45 625.495,1131.16 627.539,1130.73 629.583,1132.23 631.627,1131.37 633.672,1128.81 635.716,1130.52 637.76,1132.23 639.804,1132.23 641.848,1131.59 643.892,1133.1 645.937,1131.8 647.981,1131.8 650.025,1132.88 652.069,1131.59 654.113,1132.88 656.157,1133.1 658.202,1133.74 660.246,1132.66 662.29,1131.37 664.334,1134.39 666.378,1132.66 668.422,1134.83 670.467,1133.74 672.511,1133.96 674.555,1136.35 676.599,1134.18 678.643,1135.26 680.687,1135.91 682.732,1133.96 684.776,1133.96 686.82,1134.83 688.864,1135.48 690.908,1134.18 692.952,1135.91 694.997,1134.83 697.041,1135.91 699.085,1135.26 701.129,1136.13 703.173,1137.22 705.217,1134.83 707.262,1135.04 709.306,1136.78 711.35,1137.66 713.394,1136.57 715.438,1137.44 717.482,1138.54 719.527,1137.66 721.571,1137.66 723.615,1138.54 725.659,1138.54 727.703,1136.57 729.747,1139.64 731.792,1138.54 733.836,1137.22 735.88,1139.64 737.924,1138.98 739.968,1138.76 742.012,1137.66 744.057,1138.76 746.101,1139.64 748.145,1139.2 750.189,1138.76 752.233,1139.42 754.277,1140.52 756.322,1140.52 758.366,1141.18 760.41,1140.52 762.454,1140.96 764.498,1140.74 766.542,1140.74 768.587,1142.07 770.631,1141.85 772.675,1142.52 774.719,1141.18 776.763,1140.3 778.808,1141.41 780.852,1141.41 782.896,1141.41 784.94,1140.96 786.984,1137.66 789.028,1143.63 791.073,1141.85 793.117,1142.52 795.161,1141.63 797.205,1143.63 799.249,1143.19 801.293,1143.41 803.338,1142.96 805.382,1143.19 807.426,1142.96 809.47,1143.19 811.514,1143.63 813.558,1143.86 815.603,1144.75 817.647,1144.08 819.691,1144.08 821.735,1143.41 823.779,1144.08 825.823,1142.07 827.868,1142.96 829.912,1143.41 831.956,1143.86 834,1145.65 836.044,1146.78 838.088,1144.75 840.133,1144.3 842.177,1145.43 844.221,1145.43 846.265,1144.98 848.309,1144.53 850.353,1143.86 852.398,1146.33 854.442,1146.33 856.486,1147 858.53,1145.2 860.574,1145.88 862.618,1146.55 864.663,1145.88 866.707,1146.33 868.751,1146.33 870.795,1147 872.839,1146.1 874.883,1147.23 876.928,1145.43 878.972,1146.33 881.016,1147.23 883.06,1147 885.104,1144.75 887.148,1145.88 889.193,1148.14 891.237,1147.23 893.281,1147.91 895.325,1147 897.369,1147 899.413,1148.59 901.458,1146.1 903.502,1148.59 905.546,1141.85 907.59,1149.05 909.634,1149.27 911.678,1149.27 913.723,1149.27 915.767,1147.91 917.811,1147.23 919.855,1149.73 921.899,1148.82 923.943,1150.64 925.988,1148.14 928.032,1150.19 930.076,1148.82 932.12,1151.33 934.164,1150.87 936.208,1149.5 938.253,1152.02 940.297,1148.82 942.341,1150.19 944.385,1150.64 946.429,1145.65 948.473,1150.19 950.518,1150.41 952.562,1152.02 954.606,1150.19 956.65,1151.33 958.694,1151.1 960.739,1152.02 962.783,1152.25 964.827,1150.19 966.871,1150.19 968.915,1152.71 970.959,1151.79 973.004,1150.64 975.048,1153.63 977.092,1153.4 979.136,1151.79 981.18,1153.17 983.224,1151.56 985.269,1153.86 987.313,1152.71 989.357,1153.17 991.401,1152.94 993.445,1151.1 995.489,1154.56 997.534,1154.79 999.578,1152.25 1001.62,1153.4 1003.67,1154.1 1005.71,1153.63 1007.75,1154.79 1009.8,1155.95 1011.84,1153.63 1013.89,1154.79 1015.93,1155.95 1017.98,1155.95 1020.02,1157.12 1022.06,1154.56 1024.11,1153.86 1026.15,1154.33 1028.2,1155.26 1030.24,1154.33 1032.28,1154.33 1034.33,1156.42 1036.37,1156.19 1038.42,1156.42 1040.46,1156.19 1042.51,1156.89 1044.55,1156.19 1046.59,1155.26 1048.64,1156.19 1050.68,1155.95 1052.73,1156.42 1054.77,1154.33 1056.81,1156.65 1058.86,1156.65 1060.9,1156.65 1062.95,1156.65 1064.99,1154.33 1067.04,1157.36 1069.08,1157.12 1071.12,1157.59 1073.17,1156.65 1075.21,1155.26 1077.26,1157.12 1079.3,1155.49 1081.34,1156.42 1083.39,1157.12 1085.43,1156.19 1087.48,1151.33 1089.52,1155.49 1091.57,1155.72 1093.61,1156.89 1095.65,1157.36 1097.7,1158.29 1099.74,1156.89 1101.79,1156.19 1103.83,1157.59 1105.87,1158.76 1107.92,1157.82 1109.96,1157.12 1112.01,1158.29 1114.05,1159 1116.1,1157.82 1118.14,1159.23 1120.18,1160.18 1122.23,1159.23 1124.27,1155.72 1126.32,1159.23 1128.36,1159.94 1130.4,1159 1132.45,1158.29 1134.49,1159.47 1136.54,1159.94 1138.58,1158.53 1140.63,1157.59 1142.67,1158.29 1144.71,1158.29 1146.76,1157.59 1148.8,1159.71 1150.85,1157.82 1152.89,1159.71 1154.93,1159.47 1156.98,1159.71 1159.02,1157.36 1161.07,1157.59 1163.11,1157.82 1165.16,1159.71 1167.2,1156.19 1169.24,1159.47 1171.29,1159.47 1173.33,1159.47 1175.38,1159 1177.42,1159 1179.46,1158.53 1181.51,1159.71 1183.55,1159.47 1185.6,1161.12 1187.64,1160.41 1189.69,1158.53 1191.73,1161.36 1193.77,1162.07 1195.82,1160.18 1197.86,1160.89 1199.91,1160.41 1201.95,1161.36 1203.99,1158.53 1206.04,1161.36 1208.08,1159.47 1210.13,1159.94 1212.17,1161.12 1214.22,1159.94 1216.26,1161.36 1218.3,1160.18 1220.35,1162.07 1222.39,1160.65 1224.44,1161.12 1226.48,1161.12 1228.52,1161.84 1230.57,1161.12 1232.61,1160.41 1234.66,1162.31 1236.7,1161.6 1238.75,1162.55 1240.79,1161.12 1242.83,1160.89 1244.88,1162.55 1246.92,1163.27 1248.97,1161.12 1251.01,1161.36 1253.05,1162.07 1255.1,1162.55 1257.14,1162.79 1259.19,1162.55 1261.23,1162.79 1263.28,1162.79 1265.32,1164.22 1267.36,1164.46 1269.41,1163.27 1271.45,1161.36 1273.5,1160.89 1275.54,1162.79 1277.58,1163.03 1279.63,1162.79 1281.67,1164.22 1283.72,1164.22 1285.76,1163.74 1287.81,1164.22 1289.85,1162.55 1291.89,1163.27 1293.94,1163.27 1295.98,1163.74 1298.03,1164.22 1300.07,1164.94 1302.11,1165.18 1304.16,1163.51 1306.2,1164.7 1308.25,1162.07 1310.29,1165.18 1312.34,1163.98 1314.38,1163.51 1316.42,1163.74 1318.47,1164.7 1320.51,1165.66 1322.56,1164.46 1324.6,1162.55 1326.64,1164.7 1328.69,1164.46 1330.73,1164.7 1332.78,1166.15 1334.82,1165.91 1336.87,1162.31 1338.91,1167.35 1340.95,1166.87 1343,1166.15 1345.04,1166.87 1347.09,1165.66 1349.13,1165.91 1351.17,1166.39 1353.22,1167.84 1355.26,1167.11 1357.31,1167.6 1359.35,1166.63 1361.4,1166.15 1363.44,1168.32 1365.48,1167.11 1367.53,1168.32 1369.57,1168.08 1371.62,1166.63 1373.66,1167.6 1375.7,1166.87 1377.75,1168.81 1379.79,1166.39 1381.84,1168.57 1383.88,1169.05 1385.93,1167.11 1387.97,1169.3 1390.01,1169.05 1392.06,1167.6 1394.1,1169.05 1396.15,1168.32 1398.19,1167.84 1400.23,1167.35 1402.28,1167.35 1404.32,1168.57 1406.37,1168.08 1408.41,1169.54 1410.46,1169.54 1412.5,1166.87 1414.54,1169.05 1416.59,1168.81 1418.63,1170.52 1420.68,1168.08 1422.72,1169.05 1424.76,1168.57 1426.81,1171.5 1428.85,1169.3 1430.9,1170.27 1432.94,1169.54 1434.99,1169.54 1437.03,1171.25 1439.07,1168.08 1441.12,1171.25 1443.16,1171.25 1445.21,1169.3 1447.25,1168.57 1449.29,1171.01 1451.34,1168.08 1453.38,1169.3 1455.43,1169.79 1457.47,1169.79 1459.52,1170.03 1461.56,1169.05 1463.6,1169.79 1465.65,1169.54 1467.69,1169.3 1469.74,1170.76 1471.78,1168.32 1473.82,1167.11 1475.87,1170.76 1477.91,1170.76 1479.96,1170.76 1482,1170.52 1484.05,1171.99 1486.09,1169.79 1488.13,1171.5 1490.18,1171.5 1492.22,1168.81 1494.27,1171.01 1496.31,1170.76 1498.35,1170.52 1500.4,1171.01 1502.44,1172.73 1504.49,1171.25 1506.53,1172.73 1508.58,1171.75 1510.62,1171.25 1512.66,1171.5 1514.71,1171.99 1516.75,1171.99 1518.8,1172.98 1520.84,1171.5 1522.88,1172.98 1524.93,1171.99 1526.97,1171.75 1529.02,1171.99 1531.06,1174.21 1533.11,1172.24 1535.15,1174.46 1537.19,1172.98 1539.24,1173.22 1541.28,1171.01 1543.33,1170.52 1545.37,1171.75 1547.41,1172.24 1549.46,1173.72 1551.5,1172.48 1553.55,1173.97 1555.59,1173.22 1557.64,1173.22 1559.68,1174.71 1561.72,1171.99 1563.77,1173.97 1565.81,1174.96 1567.86,1172.24 1569.9,1172.98 1571.94,1173.97 1573.99,1172.48 1576.03,1174.96 1578.08,1173.22 1580.12,1174.46 1582.17,1174.21 1584.21,1173.47 1586.25,1174.96 1588.3,1173.47 1590.34,1173.22 1592.39,1174.21 1594.43,1172.48 1596.47,1174.21 1598.52,1173.22 1600.56,1172.98 1602.61,1173.47 1604.65,1173.72 1606.7,1175.21 1608.74,1175.21 1610.78,1173.22 1612.83,1171.75 1614.87,1176.2 1616.92,1173.47 1618.96,1174.96 1621,1174.71 1623.05,1176.95 1625.09,1176.45 1627.14,1174.96 1629.18,1176.45 1631.23,1173.22 1633.27,1177.7 1635.31,1178.96 1637.36,1176.2 1639.4,1175.46 1641.45,1177.2 1643.49,1176.7 1645.53,1175.7 1647.58,1176.7 1649.62,1176.95 1651.67,1177.2 1653.71,1176.7 1655.76,1176.95 1657.8,1177.7 1659.84,1176.7 1661.89,1178.21 1663.93,1178.21 1665.98,1176.45 1668.02,1177.2 1670.06,1177.95 1672.11,1176.95 1674.15,1176.95 1676.2,1177.95 1678.24,1176.7 1680.29,1177.7 1682.33,1176.7 1684.37,1177.95 1686.42,1177.7 1688.46,1178.21 1690.51,1176.95 1692.55,1177.45 1694.59,1177.7 1696.64,1177.7 1698.68,1178.46 1700.73,1176.45 1702.77,1178.46 1704.82,1177.2 1706.86,1176.7 1708.9,1178.96 1710.95,1177.7 1712.99,1176.7 1715.04,1177.2 1717.08,1177.45 1719.13,1178.46 1721.17,1177.95 1723.21,1177.95 1725.26,1178.96 1727.3,1178.71 1729.35,1177.95 1731.39,1180.73 1733.43,1178.96 1735.48,1179.21 1737.52,1180.47 1739.57,1179.46 1741.61,1178.46 1743.66,1173.22 1745.7,1180.73 1747.74,1178.96 1749.79,1179.46 1751.83,1179.72 1753.88,1181.49 1755.92,1178.96 1757.96,1177.2 1760.01,1180.73 1762.05,1179.46 1764.1,1180.22 1766.14,1180.98 1768.19,1174.46 1770.23,1181.74 1772.27,1181.74 1774.32,1181.74 1776.36,1180.22 1778.41,1179.97 1780.45,1182.25 1782.49,1182.76 1784.54,1181.24 1786.58,1180.98 1788.63,1180.47 1790.67,1182.51 1792.72,1180.73 1794.76,1180.98 1796.8,1180.73 1798.85,1181.24 1800.89,1181.49 1802.94,1179.46 1804.98,1182.76 1807.02,1182.51 1809.07,1181.74 1811.11,1182 1813.16,1181.74 1815.2,1182 1817.25,1181.24 1819.29,1182 1821.33,1181.74 1823.38,1174.96 1825.42,1180.98 1827.47,1183.02 1829.51,1182.25 1831.55,1182.76 1833.6,1183.27 1835.64,1183.53 1837.69,1182 1839.73,1181.74 1841.78,1182.76 1843.82,1183.53 1845.86,1183.53 1847.91,1182.76 1849.95,1183.02 1852,1182 1854.04,1184.81 1856.08,1181.24 1858.13,1183.53 1860.17,1183.02 1862.22,1184.55 1864.26,1184.3 1866.31,1183.53 1868.35,1181.24 1870.39,1184.55 1872.44,1182.25 1874.48,1183.53 1876.53,1184.04 1878.57,1182.76 1880.61,1184.04 1882.66,1185.07 1884.7,1185.58 1886.75,1184.3 1888.79,1184.81 1890.84,1185.07 1892.88,1184.55 1894.92,1185.58 1896.97,1184.3 1899.01,1184.04 1901.06,1186.35 1903.1,1184.04 1905.14,1184.55 1907.19,1185.58 1909.23,1185.07 1911.28,1186.87 1913.32,1185.32 1915.37,1186.87 1917.41,1185.07 1919.45,1182.76 1921.5,1186.35 1923.54,1186.87 1925.59,1185.84 1927.63,1185.58 1929.67,1186.61 1931.72,1185.58 1933.76,1186.61 1935.81,1185.32 1937.85,1184.55 1939.9,1185.84 1941.94,1187.65 1943.98,1187.65 1946.03,1185.07 1948.07,1185.58 1950.12,1186.87 1952.16,1186.35 1954.2,1184.55 1956.25,1183.53 1958.29,1186.87 1960.34,1187.65 1962.38,1186.87 1964.43,1187.13 1966.47,1186.87 1968.51,1187.65 1970.56,1186.87 1972.6,1188.17 1974.65,1187.39 1976.69,1187.65 1978.73,1188.69 1980.78,1188.17 1982.82,1187.65 1984.87,1188.43 1986.91,1188.17 1988.96,1187.65 1991,1187.39 1993.04,1188.95 1995.09,1188.43 1997.13,1187.91 1999.18,1185.84 2001.22,1187.91 2003.26,1188.95 2005.31,1188.69 2007.35,1189.73 2009.4,1188.69 2011.44,1188.69 2013.49,1189.73 2015.53,1188.69 2017.57,1187.65 2019.62,1187.91 2021.66,1189.47 2023.71,1188.17 2025.75,1189.99 2027.79,1187.65 2029.84,1188.69 2031.88,1188.69 2033.93,1187.65 2035.97,1186.35 2038.02,1185.84 2040.06,1190.25 2042.1,1189.99 2044.15,1187.91 2046.19,1186.87 2048.24,1188.43 2050.28,1188.17 2052.32,1188.43 2054.37,1189.73 2056.41,1188.43 2058.46,1189.99 2060.5,1186.1 2062.55,1189.99 2064.59,1189.73 2066.63,1189.73 2068.68,1187.91 2070.72,1191.3 2072.77,1189.47 2074.81,1191.3 2076.85,1191.83 2078.9,1187.39 2080.94,1190.25 2082.99,1192.35 2085.03,1191.56 2087.08,1189.21 2089.12,1191.04 2091.16,1190.78 2093.21,1189.73 2095.25,1192.88 2097.3,1191.3 2099.34,1190.25 2101.38,1192.88 2103.43,1194.73 2105.47,1193.41 2107.52,1190.52 2109.56,1192.62 2111.61,1192.09 2113.65,1194.2 2115.69,1192.62 2117.74,1191.83 2119.78,1192.09 2121.83,1191.04 2123.87,1192.62 2125.91,1194.2 2127.96,1190.78 2130,1192.62 2132.05,1193.15 2134.09,1193.41 2136.14,1192.88 2138.18,1195.8 2140.22,1188.17 2142.27,1190.78 2144.31,1192.09 2146.36,1187.65 2148.4,1193.15 2150.44,1193.67 2152.49,1192.09 2154.53,1195.27 2156.58,1193.41 2158.62,1194.47 2160.67,1192.62 2162.71,1194.73 2164.75,1194.47 2166.8,1193.67 2168.84,1195 2170.89,1194.73 2172.93,1195.8 2174.97,1195 2177.02,1194.73 2179.06,1194.73 2181.11,1194.47 2183.15,1194.47 2185.2,1196.07 2187.24,1194.73 2189.28,1191.04 2191.33,1193.94 2193.37,1195.53 2195.42,1194.2 2197.46,1195 2199.5,1196.07 2201.55,1194.2 2203.59,1195 2205.64,1195 2207.68,1196.07 2209.73,1195 2211.77,1194.73 2213.81,1195.8 2215.86,1193.15 2217.9,1196.6 2219.95,1189.99 2221.99,1196.07 2224.03,1195.8 2226.08,1194.2 2228.12,1193.41 2230.17,1191.04 2232.21,1195 2234.26,1195 2236.3,1196.87 2238.34,1192.09 2240.39,1195.27 2242.43,1196.6 2244.48,1196.07 2246.52,1195.53 2248.56,1197.67 2250.61,1196.87 2252.65,1196.33 2254.7,1196.6 2256.74,1196.87 2258.79,1197.94 2260.83,1197.67 2262.87,1189.73 2264.92,1197.94 2266.96,1197.94 2269.01,1198.21 2271.05,1197.4 2273.09,1195.53 2275.14,1197.14 2277.18,1199.02 2279.23,1197.67 2281.27,1196.6 2283.32,1198.75 2285.36,1198.48 2287.4,1198.48 2289.45,1199.02 2291.49,1199.55 "/>
<polyline clip-path="url(#clip192)" style="stroke:#3da44d; stroke-linecap:round; stroke-linejoin:round; stroke-width:4; stroke-opacity:1; fill:none" points="249.368,418.659 251.412,470.639 253.456,502.86 255.5,531.021 257.545,554.48 259.589,569.247 261.633,582.633 263.677,589.423 265.721,596.373 267.765,602.914 269.81,608.869 271.854,613.899 273.898,618.561 275.942,621.762 277.986,623.606 280.03,626.395 282.075,629.053 284.119,629.997 286.163,632.37 288.207,634.122 290.251,636.851 292.295,638.306 294.34,640.094 296.384,640.42 298.428,641.728 300.472,643.372 302.516,646.022 304.56,645.689 306.605,647.69 308.649,648.527 310.693,649.704 312.737,653.944 314.781,653.944 316.825,656.346 318.87,654.8 320.914,659.115 322.958,661.734 325.002,662.261 327.046,664.023 329.09,663.846 331.135,667.937 333.179,669.734 335.223,670.817 337.267,674.091 339.311,675.374 341.355,678.884 343.4,682.061 345.444,682.814 347.488,687.752 349.532,688.135 351.576,692.384 353.62,694.728 355.665,698.676 357.709,702.074 359.753,705.308 361.797,708.577 363.841,711.676 365.885,716.913 367.93,720.101 369.974,720.956 372.018,728.333 374.062,730.759 376.106,736.348 378.15,742.046 380.195,747.151 382.239,751.633 384.283,758.121 386.327,764.754 388.371,768.253 390.415,774.349 392.46,778.744 394.504,784.531 396.548,788.004 398.592,794.8 400.636,800.352 402.681,806.582 404.725,810.036 406.769,816.179 408.813,818.703 410.857,823.058 412.901,827.478 414.946,833.684 416.99,836.204 419.034,842.599 421.078,847.487 423.122,851.623 425.166,856.495 427.211,861.62 429.255,866.135 431.299,870.187 433.343,873.04 435.387,879.01 437.431,882.318 439.476,888.481 441.52,889.616 443.564,891.898 445.608,900.616 447.652,906.373 449.696,908.384 451.741,912.654 453.785,917.818 455.829,919.49 457.873,924.349 459.917,930.375 461.961,932.12 464.006,936.526 466.05,940.324 468.094,946.918 470.138,945.999 472.182,952.253 474.226,953.897 476.271,957.687 478.315,963.709 480.359,962.98 482.403,964.928 484.447,970.353 486.491,973.355 488.536,976.133 490.58,980.222 492.624,980.995 494.668,983.846 496.712,988.308 498.756,987.252 500.801,988.043 502.845,993.644 504.889,996.349 506.933,998.804 508.977,999.902 511.021,1004.89 513.066,1004.61 515.11,1007.99 517.154,1008.55 519.198,1016.73 521.242,1016.01 523.286,1018.19 525.331,1019.81 527.375,1023.51 529.419,1023.8 531.463,1020.99 533.507,1025.75 535.551,1027.86 537.596,1029.22 539.64,1029.52 541.684,1029.52 543.728,1036.29 545.772,1033.04 547.816,1032.58 549.861,1041.94 551.905,1036.6 553.949,1040.99 555.993,1042.26 558.037,1043.05 560.081,1040.67 562.126,1045.45 564.17,1047.86 566.214,1046.41 568.258,1046.25 570.302,1050.95 572.346,1050.13 574.391,1056.56 576.435,1055.56 578.479,1058.4 580.523,1060.75 582.567,1059.23 584.612,1060.24 586.656,1061.6 588.7,1062.28 590.744,1067.41 592.788,1066.55 594.832,1068.1 596.877,1070.01 598.921,1067.76 600.965,1070.54 603.009,1076 605.053,1075.11 607.097,1077.6 609.142,1075.64 611.186,1079.4 613.23,1081.93 615.274,1081.02 617.318,1081.2 619.362,1083.2 621.407,1087.24 623.451,1087.05 625.495,1085.95 627.539,1089.27 629.583,1090.21 631.627,1090.95 633.672,1095.48 635.716,1094.34 637.76,1093.39 639.804,1097.38 641.848,1095.86 643.892,1102.59 645.937,1104.15 647.981,1101.62 650.025,1101.62 652.069,1104.54 654.113,1108.09 656.157,1111.07 658.202,1112.48 660.246,1115.72 662.29,1116.94 664.334,1116.73 666.378,1121.05 668.422,1118.78 670.467,1115.11 672.511,1116.73 674.555,1124.17 676.599,1124.17 678.643,1123.13 680.687,1127.12 682.732,1124.38 684.776,1121.26 686.82,1130.09 688.864,1132.02 690.908,1134.61 692.952,1135.26 694.997,1134.39 697.041,1136.35 699.085,1136.78 701.129,1140.74 703.173,1144.75 705.217,1141.63 707.262,1146.55 709.306,1147.23 711.35,1144.98 713.394,1143.63 715.438,1147 717.482,1152.25 719.527,1144.98 721.571,1153.86 723.615,1149.96 725.659,1155.02 727.703,1154.33 729.747,1157.59 731.792,1152.94 733.836,1154.79 735.88,1157.36 737.924,1160.41 739.968,1163.74 742.012,1162.79 744.057,1163.03 746.101,1164.22 748.145,1157.36 750.189,1162.55 752.233,1161.84 754.277,1164.7 756.322,1167.84 758.366,1166.39 760.41,1169.79 762.454,1165.91 764.498,1165.42 766.542,1171.5 768.587,1170.52 770.631,1175.21 772.675,1177.95 774.719,1178.21 776.763,1180.73 778.808,1179.72 780.852,1181.24 782.896,1184.55 784.94,1187.65 786.984,1184.3 789.028,1184.55 791.073,1191.04 793.117,1187.65 795.161,1189.21 797.205,1188.95 799.249,1190.25 801.293,1190.25 803.338,1192.35 805.382,1182.76 807.426,1198.75 809.47,1201.99 811.514,1203.36 813.558,1206.11 815.603,1199.02 817.647,1208.32 819.691,1210.28 821.735,1215.36 823.779,1213.09 825.823,1196.87 827.868,1211.96 829.912,1215.36 831.956,1215.07 834,1208.6 836.044,1217.36 838.088,1220.82 840.133,1219.66 842.177,1221.26 844.221,1223 846.265,1223.88 848.309,1215.07 850.353,1229.5 852.398,1226.68 854.442,1228.61 856.486,1229.21 858.53,1234.63 860.574,1232.66 862.618,1223.59 864.663,1236 866.707,1239.38 868.751,1234.63 870.795,1240.15 872.839,1245.15 874.883,1242.79 876.928,1243.73 878.972,1239.22 881.016,1243.89 883.06,1247.04 885.104,1249.91 887.148,1247.52 889.193,1253.61 891.237,1234.63 893.281,1253.77 895.325,1254.91 897.369,1246.57 899.413,1252 901.458,1255.24 903.502,1255.4 905.546,1260.17 907.59,1245.62 909.634,1263.67 911.678,1261.33 913.723,1263.83 915.767,1264.34 917.811,1268.57 919.855,1267.38 921.899,1265.85 923.943,1269.25 925.988,1273.55 928.032,1271.14 930.076,1259.5 932.12,1272.34 934.164,1270.62 936.208,1270.45 938.253,1274.25 940.297,1271.14 942.341,1268.06 944.385,1279.51 946.429,1279.68 948.473,1278.45 950.518,1278.27 952.562,1281.81 954.606,1284.5 956.65,1286.85 958.694,1283.78 960.739,1272.69 962.783,1268.57 964.827,1275.47 966.871,1286.49 968.915,1288.3 970.959,1283.78 973.004,1280.21 975.048,1282.71 977.092,1287.21 979.136,1289.58 981.18,1283.06 983.224,1283.42 985.269,1293.08 987.313,1286.67 989.357,1284.14 991.401,1292.34 993.445,1288.85 995.489,1288.12 997.534,1293.45 999.578,1285.94 1001.62,1292.15 1003.67,1297.37 1005.71,1297.18 1007.75,1297.56 1009.8,1282.89 1011.84,1292.89 1013.89,1290.31 1015.93,1297.74 1017.98,1295.87 1020.02,1293.45 1022.06,1289.58 1024.11,1296.43 1026.15,1293.82 1028.2,1300.77 1030.24,1294.75 1032.28,1297.74 1034.33,1302.68 1036.37,1278.98 1038.42,1294 1040.46,1302.1 1042.51,1284.86 1044.55,1291.23 1046.59,1294.38 1048.64,1302.68 1050.68,1300.2 1052.73,1295.68 1054.77,1300.2 1056.81,1302.1 1058.86,1297.56 1060.9,1301.34 1062.95,1290.5 1064.99,1304.79 1067.04,1298.69 1069.08,1307.3 1071.12,1303.44 1073.17,1294.75 1075.21,1298.31 1077.26,1301.91 1079.3,1298.69 1081.34,1300.96 1083.39,1309.84 1085.43,1294 1087.48,1296.43 1089.52,1307.3 1091.57,1299.25 1093.61,1311.02 1095.65,1310.62 1097.7,1308.86 1099.74,1309.45 1101.79,1306.53 1103.83,1312.59 1105.87,1319.4 1107.92,1308.08 1109.96,1315.98 1112.01,1309.45 1114.05,1312.79 1116.1,1319.19 1118.14,1317.38 1120.18,1321.22 1122.23,1317.38 1124.27,1314.98 1126.32,1317.78 1128.36,1316.98 1130.4,1321.63 1132.45,1308.27 1134.49,1323.27 1136.54,1314.98 1138.58,1323.88 1140.63,1316.58 1142.67,1318.79 1144.71,1323.68 1146.76,1316.58 1148.8,1320.61 1150.85,1328.23 1152.89,1325.33 1154.93,1323.68 1156.98,1322.65 1159.02,1312.4 1161.07,1325.74 1163.11,1326.98 1165.16,1332.85 1167.2,1324.71 1169.24,1328.65 1171.29,1329.48 1173.33,1333.28 1175.38,1333.28 1177.42,1329.48 1179.46,1322.45 1181.51,1312.99 1183.55,1319.6 1185.6,1325.74 1187.64,1332.01 1189.69,1333.49 1191.73,1325.12 1193.77,1319.19 1195.82,1327.4 1197.86,1331.8 1199.91,1326.36 1201.95,1326.77 1203.99,1332.01 1206.04,1334.13 1208.08,1337.77 1210.13,1331.16 1212.17,1326.98 1214.22,1332.01 1216.26,1331.8 1218.3,1324.09 1220.35,1339.71 1222.39,1331.8 1224.44,1323.06 1226.48,1335.62 1228.52,1327.4 1230.57,1339.93 1232.61,1336.05 1234.66,1336.91 1236.7,1337.34 1238.75,1340.14 1240.79,1317.58 1242.83,1333.49 1244.88,1341.89 1246.92,1338.41 1248.97,1346.07 1251.01,1340.36 1253.05,1331.16 1255.1,1333.91 1257.14,1337.77 1259.19,1324.71 1261.23,1341.45 1263.28,1340.14 1265.32,1343.86 1267.36,1335.83 1269.41,1331.16 1271.45,1347.84 1273.5,1342.1 1275.54,1338.2 1277.58,1343.42 1279.63,1351.43 1281.67,1334.34 1283.72,1339.28 1285.76,1345.62 1287.81,1344.3 1289.85,1337.55 1291.89,1341.23 1293.94,1346.95 1295.98,1350.75 1298.03,1351.2 1300.07,1344.3 1302.11,1348.07 1304.16,1345.4 1306.2,1340.14 1308.25,1350.53 1310.29,1347.4 1312.34,1341.89 1314.38,1352.56 1316.42,1351.65 1318.47,1352.79 1320.51,1353.47 1322.56,1360.13 1324.6,1342.76 1326.64,1350.53 1328.69,1356.2 1330.73,1346.95 1332.78,1356.2 1334.82,1350.3 1336.87,1359.2 1338.91,1362.22 1340.95,1359.2 1343,1361.99 1345.04,1362.46 1347.09,1361.99 1349.13,1364.34 1351.17,1349.41 1353.22,1363.87 1355.26,1366.46 1357.31,1361.76 1359.35,1358.5 1361.4,1366.23 1363.44,1353.24 1365.48,1360.36 1367.53,1365.99 1369.57,1365.75 1371.62,1369.57 1373.66,1370.29 1375.7,1365.04 1377.75,1352.79 1379.79,1351.88 1381.84,1371.25 1383.88,1363.16 1385.93,1372.21 1387.97,1371.49 1390.01,1356.89 1392.06,1371.73 1394.1,1370.77 1396.15,1368.37 1398.19,1368.37 1400.23,1363.16 1402.28,1375.62 1404.32,1371.49 1406.37,1371.49 1408.41,1357.81 1410.46,1371.49 1412.5,1373.43 1414.54,1372.21 1416.59,1374.89 1418.63,1366.46 1420.68,1379.81 1422.72,1366.7 1424.76,1374.16 1426.81,1374.4 1428.85,1370.29 1430.9,1380.06 1432.94,1372.94 1434.99,1371.25 1437.03,1378.57 1439.07,1379.81 1441.12,1382.3 1443.16,1372.21 1445.21,1385.58 1447.25,1375.13 1449.29,1379.81 1451.34,1379.07 1453.38,1376.36 1455.43,1385.83 1457.47,1378.08 1459.52,1375.38 1461.56,1381.3 1463.6,1381.8 1465.65,1376.11 1467.69,1391.2 1469.74,1369.81 1471.78,1384.31 1473.82,1370.53 1475.87,1385.83 1477.91,1381.3 1479.96,1371.25 1482,1389.14 1484.05,1379.81 1486.09,1380.56 1488.13,1378.57 1490.18,1371.97 1492.22,1387.86 1494.27,1389.14 1496.31,1377.83 1498.35,1388.63 1500.4,1389.14 1502.44,1383.31 1504.49,1382.05 1506.53,1378.33 1508.58,1374.89 1510.62,1385.07 1512.66,1381.55 1514.71,1394.05 1516.75,1393.01 1518.8,1376.6 1520.84,1390.43 1522.88,1390.17 1524.93,1383.06 1526.97,1387.1 1529.02,1376.36 1531.06,1396.67 1533.11,1398.51 1535.15,1396.4 1537.19,1386.85 1539.24,1398.51 1541.28,1392.75 1543.33,1389.65 1545.37,1398.25 1547.41,1379.32 1549.46,1381.06 1551.5,1380.31 1553.55,1388.89 1555.59,1399.84 1557.64,1392.49 1559.68,1390.17 1561.72,1389.65 1563.77,1391.46 1565.81,1365.75 1567.86,1394.83 1569.9,1387.35 1571.94,1397.72 1573.99,1383.56 1576.03,1397.98 1578.08,1397.46 1580.12,1400.37 1582.17,1389.65 1584.21,1400.9 1586.25,1397.98 1588.3,1366.23 1590.34,1385.83 1592.39,1395.09 1594.43,1400.1 1596.47,1377.59 1598.52,1387.61 1600.56,1400.9 1602.61,1386.34 1604.65,1394.31 1606.7,1386.85 1608.74,1396.4 1610.78,1399.84 1612.83,1399.04 1614.87,1402.5 1616.92,1396.4 1618.96,1394.57 1621,1400.9 1623.05,1398.25 1625.09,1400.37 1627.14,1403.04 1629.18,1392.23 1631.23,1402.5 1633.27,1393.27 1635.31,1391.2 1637.36,1397.98 1639.4,1406.01 1641.45,1406.55 1643.49,1404.93 1645.53,1404.93 1647.58,1405.74 1649.62,1407.64 1651.67,1408.19 1653.71,1405.2 1655.76,1411.48 1657.8,1390.17 1659.84,1420.75 1661.89,1413.15 1663.93,1411.76 1665.98,1417.91 1668.02,1400.63 1670.06,1403.58 1672.11,1417.63 1674.15,1403.31 1676.2,1414.26 1678.24,1408.19 1680.29,1419.89 1682.33,1420.18 1684.37,1411.21 1686.42,1412.04 1688.46,1410.66 1690.51,1413.7 1692.55,1413.15 1694.59,1413.15 1696.64,1404.39 1698.68,1408.73 1700.73,1426.65 1702.77,1403.04 1704.82,1418.19 1706.86,1423.03 1708.9,1418.76 1710.95,1414.82 1712.99,1406.82 1715.04,1421.89 1717.08,1411.76 1719.13,1432.82 1721.17,1419.61 1723.21,1417.91 1725.26,1406.55 1727.3,1402.5 1729.35,1412.87 1731.39,1398.78 1733.43,1423.61 1735.48,1421.89 1737.52,1411.76 1739.57,1402.5 1741.61,1409.83 1743.66,1424.19 1745.7,1426.65 1747.74,1425.34 1749.79,1405.74 1751.83,1409.28 1753.88,1422.46 1755.92,1419.32 1757.96,1422.75 1760.01,1428.98 1762.05,1425.92 1764.1,1430.01 1766.14,1416.5 1768.19,1409.83 1770.23,1422.17 1772.27,1423.61 1774.32,1428.4 1776.36,1405.74 1778.41,1421.6 1780.45,1423.9 1782.49,1411.48 1784.54,1405.47 1786.58,1423.03 1788.63,1424.19 1790.67,1405.47 1792.72,1397.72 1794.76,1404.66 1796.8,1422.46 1798.85,1427.23 1800.89,1430.6 1802.94,1413.15 1804.98,1413.7 1807.02,1414.26 1809.07,1413.7 1811.11,1421.6 1813.16,1409.56 1815.2,1422.17 1817.25,1421.32 1819.29,1408.19 1821.33,1426.36 1823.38,1430.6 1825.42,1405.2 1827.47,1416.78 1829.51,1426.36 1831.55,1427.23 1833.6,1416.22 1835.64,1422.46 1837.69,1426.94 1839.73,1407.37 1841.78,1414.26 1843.82,1411.48 1845.86,1426.65 1847.91,1423.61 1849.95,1417.91 1852,1422.75 1854.04,1413.15 1856.08,1408.73 1858.13,1424.76 1860.17,1419.04 1862.22,1428.11 1864.26,1421.89 1866.31,1415.66 1868.35,1419.89 1870.39,1428.11 1872.44,1422.75 1874.48,1421.03 1876.53,1410.11 1878.57,1418.47 1880.61,1417.34 1882.66,1418.19 1884.7,1415.66 1886.75,1415.66 1888.79,1429.42 1890.84,1418.76 1892.88,1419.89 1894.92,1431.78 1896.97,1431.78 1899.01,1419.89 1901.06,1398.51 1903.1,1428.4 1905.14,1417.34 1907.19,1425.05 1909.23,1429.42 1911.28,1425.34 1913.32,1437.46 1915.37,1427.81 1917.41,1435.8 1919.45,1432.52 1921.5,1420.46 1923.54,1429.72 1925.59,1410.38 1927.63,1435.2 1929.67,1431.49 1931.72,1423.03 1933.76,1414.54 1935.81,1423.61 1937.85,1435.8 1939.9,1431.78 1941.94,1427.81 1943.98,1424.19 1946.03,1430.89 1948.07,1426.36 1950.12,1426.65 1952.16,1420.46 1954.2,1420.75 1956.25,1430.89 1958.29,1426.94 1960.34,1430.31 1962.38,1423.9 1964.43,1422.75 1966.47,1420.18 1968.51,1426.36 1970.56,1427.81 1972.6,1436.85 1974.65,1438.36 1976.69,1417.34 1978.73,1440.95 1980.78,1413.7 1982.82,1408.73 1984.87,1433.71 1986.91,1423.9 1988.96,1414.26 1991,1429.42 1993.04,1403.58 1995.09,1437.46 1997.13,1440.18 1999.18,1436.85 2001.22,1430.6 2003.26,1431.19 2005.31,1429.42 2007.35,1428.11 2009.4,1432.52 2011.44,1421.6 2013.49,1424.76 2015.53,1435.5 2017.57,1433.41 2019.62,1424.47 2021.66,1414.26 2023.71,1440.79 2025.75,1432.37 2027.79,1438.97 2029.84,1422.46 2031.88,1429.28 2033.93,1423.03 2035.97,1445.25 2038.02,1441.1 2040.06,1421.32 2042.1,1436.85 2044.15,1431.78 2046.19,1407.64 2048.24,1434.31 2050.28,1427.23 2052.32,1440.49 2054.37,1432.37 2056.41,1419.32 2058.46,1438.82 2060.5,1428.4 2062.55,1415.38 2064.59,1430.6 2066.63,1422.46 2068.68,1434.9 2070.72,1428.11 2072.77,1428.98 2074.81,1414.82 2076.85,1422.75 2078.9,1437.16 2080.94,1441.71 2082.99,1411.21 2085.03,1435.5 2087.08,1434.61 2089.12,1430.31 2091.16,1436.55 2093.21,1422.46 2095.25,1431.78 2097.3,1422.75 2099.34,1423.32 2101.38,1435.95 2103.43,1433.41 2105.47,1428.11 2107.52,1423.32 2109.56,1428.11 2111.61,1410.66 2113.65,1434.61 2115.69,1411.76 2117.74,1438.36 2119.78,1429.72 2121.83,1424.47 2123.87,1425.92 2125.91,1435.95 2127.96,1427.81 2130,1437.76 2132.05,1436.55 2134.09,1428.4 2136.14,1435.5 2138.18,1427.23 2140.22,1430.6 2142.27,1428.69 2144.31,1434.31 2146.36,1437.46 2148.4,1441.86 2150.44,1429.28 2152.49,1436.85 2154.53,1424.47 2156.58,1439.58 2158.62,1428.11 2160.67,1434.31 2162.71,1432.08 2164.75,1438.82 2166.8,1429.28 2168.84,1435.5 2170.89,1432.82 2172.93,1443.55 2174.97,1435.5 2177.02,1434.61 2179.06,1428.69 2181.11,1438.97 2183.15,1431.78 2185.2,1419.89 2187.24,1427.81 2189.28,1431.78 2191.33,1429.28 2193.37,1441.1 2195.42,1403.04 2197.46,1433.41 2199.5,1435.2 2201.55,1435.8 2203.59,1417.06 2205.64,1432.82 2207.68,1441.1 2209.73,1432.52 2211.77,1434.9 2213.81,1424.19 2215.86,1439.27 2217.9,1434.61 2219.95,1430.31 2221.99,1427.81 2224.03,1442.02 2226.08,1432.52 2228.12,1432.37 2230.17,1436.55 2232.21,1426.21 2234.26,1437.76 2236.3,1412.04 2238.34,1443.4 2240.39,1443.86 2242.43,1400.9 2244.48,1429.28 2246.52,1429.42 2248.56,1439.42 2250.61,1428.11 2252.65,1439.27 2254.7,1418.19 2256.74,1435.8 2258.79,1441.1 2260.83,1427.52 2262.87,1431.19 2264.92,1435.95 2266.96,1440.64 2269.01,1429.72 2271.05,1426.94 2273.09,1422.17 2275.14,1435.2 2277.18,1438.36 2279.23,1445.72 2281.27,1438.67 2283.32,1433.41 2285.36,1433.41 2287.4,1431.78 2289.45,1427.23 2291.49,1424.76 "/>
<polyline clip-path="url(#clip192)" style="stroke:#c271d2; stroke-linecap:round; stroke-linejoin:round; stroke-width:4; stroke-opacity:1; fill:none" points="249.368,180.045 251.412,187.014 253.456,192.998 255.5,200.578 257.545,210.029 259.589,226.486 261.633,250.305 263.677,281.209 265.721,314.852 267.765,351.829 269.81,397.525 271.854,452.798 273.898,520.388 275.942,600.623 277.986,680.936 280.03,722.891 282.075,740.211 284.119,752.109 286.163,762.526 288.207,771.285 290.251,777.444 292.295,785.595 294.34,793.155 296.384,798.954 298.428,803.168 300.472,807.155 302.516,812.215 304.56,816.771 306.605,820.947 308.649,823.058 310.693,826.099 312.737,830.255 314.781,831.653 316.825,834.469 318.87,837.313 320.914,840.184 322.958,842.437 325.002,844.057 327.046,846.994 329.09,848.145 331.135,847.487 333.179,850.293 335.223,850.625 337.267,852.29 339.311,853.797 341.355,854.469 343.4,855.818 345.444,856.834 347.488,857.683 349.532,857.003 351.576,860.073 353.62,860.073 355.665,858.534 357.709,861.448 359.753,861.448 361.797,861.448 363.841,860.416 365.885,862.31 367.93,863.349 369.974,863.695 372.018,863.695 374.062,864.739 376.106,863.002 378.15,864.39 380.195,865.611 382.239,865.262 384.283,865.96 386.327,865.785 388.371,866.135 390.415,866.661 392.46,867.011 394.504,867.89 396.548,866.661 398.592,867.363 400.636,866.31 402.681,867.363 404.725,867.89 406.769,866.836 408.813,867.89 410.857,868.948 412.901,868.419 414.946,868.066 416.99,868.595 419.034,868.242 421.078,868.772 423.122,868.419 425.166,868.948 427.211,868.948 429.255,868.595 431.299,869.302 433.343,868.419 435.387,868.948 437.431,868.948 439.476,868.595 441.52,870.542 443.564,870.01 445.608,869.302 447.652,870.01 449.696,869.833 451.741,868.595 453.785,870.365 455.829,869.302 457.873,869.656 459.917,869.833 461.961,868.948 464.006,869.479 466.05,870.01 468.094,869.833 470.138,870.542 472.182,870.01 474.226,871.254 476.271,871.61 478.315,868.772 480.359,869.302 482.403,869.833 484.447,869.833 486.491,872.681 488.536,869.656 490.58,870.72 492.624,869.833 494.668,870.542 496.712,870.187 498.756,871.61 500.801,870.72 502.845,870.898 504.889,871.076 506.933,871.967 508.977,871.788 511.021,871.61 513.066,870.72 515.11,871.967 517.154,871.61 519.198,870.898 521.242,871.788 523.286,870.542 525.331,872.681 527.375,871.076 529.419,870.898 531.463,871.61 533.507,871.61 535.551,871.432 537.596,871.61 539.64,870.898 541.684,871.432 543.728,871.61 545.772,870.365 547.816,872.681 549.861,871.61 551.905,870.542 553.949,871.432 555.993,872.324 558.037,871.967 560.081,871.076 562.126,870.01 564.17,872.145 566.214,871.788 568.258,872.86 570.302,871.432 572.346,871.61 574.391,872.324 576.435,871.254 578.479,871.076 580.523,871.076 582.567,871.254 584.612,870.01 586.656,872.86 588.7,871.967 590.744,871.076 592.788,872.86 594.832,871.432 596.877,872.86 598.921,871.788 600.965,871.254 603.009,871.967 605.053,872.145 607.097,873.04 609.142,872.503 611.186,871.61 613.23,872.681 615.274,872.324 617.318,872.681 619.362,872.145 621.407,871.432 623.451,871.967 625.495,872.86 627.539,871.076 629.583,872.145 631.627,872.324 633.672,873.219 635.716,869.833 637.76,872.324 639.804,871.967 641.848,872.681 643.892,872.145 645.937,871.967 647.981,871.432 650.025,871.788 652.069,872.503 654.113,872.681 656.157,872.324 658.202,872.503 660.246,872.145 662.29,871.432 664.334,872.324 666.378,872.145 668.422,871.61 670.467,872.681 672.511,873.219 674.555,872.503 676.599,872.681 678.643,871.788 680.687,871.788 682.732,870.898 684.776,872.145 686.82,872.324 688.864,872.86 690.908,871.432 692.952,872.145 694.997,871.967 697.041,872.681 699.085,871.788 701.129,873.04 703.173,872.86 705.217,870.542 707.262,871.432 709.306,872.86 711.35,871.254 713.394,872.145 715.438,871.254 717.482,872.145 719.527,871.254 721.571,871.967 723.615,871.788 725.659,872.503 727.703,872.145 729.747,871.61 731.792,872.86 733.836,872.145 735.88,872.145 737.924,872.503 739.968,873.219 742.012,871.788 744.057,872.86 746.101,870.72 748.145,872.86 750.189,872.681 752.233,872.503 754.277,872.86 756.322,872.145 758.366,871.788 760.41,872.86 762.454,871.432 764.498,871.967 766.542,872.86 768.587,873.219 770.631,872.86 772.675,871.967 774.719,872.145 776.763,872.324 778.808,872.145 780.852,872.503 782.896,872.145 784.94,873.219 786.984,872.86 789.028,870.898 791.073,872.503 793.117,872.86 795.161,872.145 797.205,872.324 799.249,872.503 801.293,871.967 803.338,871.61 805.382,871.432 807.426,872.324 809.47,872.86 811.514,871.788 813.558,872.145 815.603,871.967 817.647,872.86 819.691,871.967 821.735,871.432 823.779,871.61 825.823,872.86 827.868,872.86 829.912,870.72 831.956,871.432 834,872.324 836.044,872.681 838.088,872.324 840.133,871.788 842.177,872.681 844.221,871.61 846.265,872.681 848.309,872.145 850.353,872.145 852.398,873.757 854.442,872.86 856.486,871.61 858.53,870.72 860.574,873.219 862.618,872.324 864.663,871.967 866.707,871.432 868.751,872.86 870.795,872.86 872.839,871.967 874.883,872.681 876.928,872.503 878.972,872.503 881.016,870.542 883.06,872.86 885.104,872.86 887.148,871.788 889.193,871.788 891.237,873.398 893.281,871.076 895.325,872.503 897.369,872.145 899.413,870.72 901.458,871.61 903.502,871.432 905.546,870.72 907.59,871.61 909.634,872.145 911.678,871.788 913.723,870.898 915.767,872.145 917.811,873.577 919.855,872.681 921.899,872.681 923.943,872.86 925.988,870.898 928.032,873.219 930.076,871.432 932.12,871.788 934.164,871.254 936.208,871.61 938.253,872.145 940.297,871.61 942.341,871.254 944.385,872.86 946.429,870.898 948.473,871.967 950.518,872.86 952.562,871.967 954.606,873.757 956.65,873.219 958.694,871.967 960.739,870.01 962.783,871.61 964.827,872.145 966.871,871.61 968.915,871.967 970.959,872.324 973.004,872.681 975.048,872.681 977.092,872.324 979.136,871.254 981.18,871.788 983.224,872.86 985.269,872.86 987.313,872.145 989.357,872.324 991.401,871.967 993.445,872.681 995.489,872.86 997.534,871.967 999.578,871.432 1001.62,871.076 1003.67,873.04 1005.71,872.503 1007.75,869.833 1009.8,871.788 1011.84,872.145 1013.89,872.145 1015.93,872.503 1017.98,872.86 1020.02,871.967 1022.06,871.788 1024.11,871.432 1026.15,872.503 1028.2,872.324 1030.24,873.577 1032.28,872.503 1034.33,871.967 1036.37,871.61 1038.42,873.398 1040.46,872.681 1042.51,872.86 1044.55,872.324 1046.59,872.324 1048.64,872.145 1050.68,872.681 1052.73,873.398 1054.77,872.86 1056.81,872.324 1058.86,869.656 1060.9,873.219 1062.95,872.681 1064.99,871.432 1067.04,872.86 1069.08,873.219 1071.12,872.503 1073.17,872.145 1075.21,872.145 1077.26,872.324 1079.3,871.967 1081.34,872.86 1083.39,872.503 1085.43,872.86 1087.48,872.681 1089.52,871.61 1091.57,872.86 1093.61,872.86 1095.65,871.788 1097.7,873.757 1099.74,872.324 1101.79,872.324 1103.83,872.324 1105.87,871.432 1107.92,873.577 1109.96,873.219 1112.01,873.04 1114.05,871.61 1116.1,871.432 1118.14,871.432 1120.18,872.681 1122.23,872.681 1124.27,872.324 1126.32,872.324 1128.36,873.757 1130.4,870.898 1132.45,871.788 1134.49,873.757 1136.54,872.86 1138.58,872.681 1140.63,872.324 1142.67,871.61 1144.71,871.788 1146.76,872.145 1148.8,872.86 1150.85,872.324 1152.89,872.503 1154.93,871.432 1156.98,872.324 1159.02,873.936 1161.07,870.187 1163.11,871.61 1165.16,871.967 1167.2,873.757 1169.24,871.61 1171.29,871.967 1173.33,872.145 1175.38,872.145 1177.42,872.145 1179.46,872.681 1181.51,873.577 1183.55,872.324 1185.6,871.967 1187.64,872.145 1189.69,872.86 1191.73,871.967 1193.77,872.86 1195.82,872.503 1197.86,871.967 1199.91,872.86 1201.95,872.86 1203.99,872.324 1206.04,872.503 1208.08,871.967 1210.13,871.788 1212.17,871.254 1214.22,871.254 1216.26,873.577 1218.3,872.324 1220.35,872.324 1222.39,870.72 1224.44,871.967 1226.48,873.398 1228.52,872.503 1230.57,871.788 1232.61,872.86 1234.66,871.076 1236.7,872.324 1238.75,872.145 1240.79,872.503 1242.83,872.503 1244.88,872.324 1246.92,873.398 1248.97,872.503 1251.01,871.967 1253.05,873.577 1255.1,872.503 1257.14,872.503 1259.19,871.788 1261.23,870.898 1263.28,872.324 1265.32,873.219 1267.36,872.145 1269.41,871.254 1271.45,872.86 1273.5,871.967 1275.54,872.324 1277.58,873.04 1279.63,872.503 1281.67,872.503 1283.72,871.254 1285.76,872.503 1287.81,872.324 1289.85,871.967 1291.89,871.076 1293.94,872.324 1295.98,873.04 1298.03,872.86 1300.07,871.61 1302.11,872.145 1304.16,872.86 1306.2,871.967 1308.25,872.324 1310.29,873.936 1312.34,871.61 1314.38,872.681 1316.42,871.432 1318.47,872.86 1320.51,873.219 1322.56,872.681 1324.6,871.254 1326.64,872.86 1328.69,871.788 1330.73,871.967 1332.78,871.788 1334.82,872.145 1336.87,873.04 1338.91,872.86 1340.95,872.503 1343,871.432 1345.04,871.967 1347.09,871.254 1349.13,872.503 1351.17,870.542 1353.22,872.86 1355.26,872.145 1357.31,871.432 1359.35,872.681 1361.4,871.788 1363.44,872.86 1365.48,872.324 1367.53,871.076 1369.57,871.254 1371.62,870.72 1373.66,871.788 1375.7,870.72 1377.75,871.432 1379.79,872.86 1381.84,871.254 1383.88,871.432 1385.93,872.86 1387.97,871.254 1390.01,873.398 1392.06,870.72 1394.1,872.86 1396.15,872.681 1398.19,872.503 1400.23,872.503 1402.28,873.04 1404.32,872.681 1406.37,872.324 1408.41,871.432 1410.46,871.432 1412.5,872.503 1414.54,871.61 1416.59,873.219 1418.63,871.967 1420.68,873.219 1422.72,871.788 1424.76,871.788 1426.81,872.86 1428.85,873.04 1430.9,871.967 1432.94,872.503 1434.99,872.86 1437.03,873.04 1439.07,873.04 1441.12,872.86 1443.16,873.04 1445.21,871.967 1447.25,872.86 1449.29,871.788 1451.34,872.86 1453.38,871.788 1455.43,872.324 1457.47,872.86 1459.52,873.219 1461.56,872.145 1463.6,872.145 1465.65,871.967 1467.69,870.542 1469.74,872.324 1471.78,872.86 1473.82,871.61 1475.87,872.681 1477.91,871.788 1479.96,872.503 1482,871.61 1484.05,870.542 1486.09,871.61 1488.13,873.04 1490.18,871.967 1492.22,871.788 1494.27,873.398 1496.31,872.681 1498.35,872.145 1500.4,872.503 1502.44,872.503 1504.49,873.757 1506.53,871.61 1508.58,872.324 1510.62,872.681 1512.66,872.86 1514.71,870.542 1516.75,871.432 1518.8,872.86 1520.84,872.86 1522.88,872.145 1524.93,872.145 1526.97,873.757 1529.02,872.86 1531.06,872.86 1533.11,872.86 1535.15,872.681 1537.19,872.324 1539.24,872.324 1541.28,872.324 1543.33,871.967 1545.37,870.898 1547.41,872.681 1549.46,872.681 1551.5,873.398 1553.55,873.219 1555.59,870.542 1557.64,873.04 1559.68,873.04 1561.72,873.04 1563.77,873.04 1565.81,872.324 1567.86,872.324 1569.9,871.254 1571.94,872.86 1573.99,873.398 1576.03,872.86 1578.08,871.967 1580.12,871.967 1582.17,872.681 1584.21,873.219 1586.25,873.757 1588.3,872.86 1590.34,871.61 1592.39,871.788 1594.43,873.757 1596.47,873.577 1598.52,872.681 1600.56,872.503 1602.61,873.04 1604.65,873.04 1606.7,871.432 1608.74,871.967 1610.78,872.324 1612.83,872.681 1614.87,871.254 1616.92,871.967 1618.96,872.681 1621,870.898 1623.05,871.61 1625.09,870.72 1627.14,871.967 1629.18,870.187 1631.23,871.967 1633.27,871.967 1635.31,871.432 1637.36,872.681 1639.4,872.86 1641.45,872.86 1643.49,871.788 1645.53,872.86 1647.58,872.86 1649.62,872.145 1651.67,872.145 1653.71,872.503 1655.76,872.503 1657.8,871.076 1659.84,872.324 1661.89,872.324 1663.93,871.254 1665.98,872.86 1668.02,872.324 1670.06,871.788 1672.11,870.898 1674.15,872.86 1676.2,872.503 1678.24,873.757 1680.29,873.219 1682.33,871.61 1684.37,873.398 1686.42,872.503 1688.46,872.86 1690.51,871.788 1692.55,873.04 1694.59,872.503 1696.64,871.432 1698.68,871.967 1700.73,872.86 1702.77,873.04 1704.82,872.86 1706.86,873.398 1708.9,873.04 1710.95,872.145 1712.99,873.577 1715.04,871.967 1717.08,873.398 1719.13,872.145 1721.17,871.254 1723.21,873.398 1725.26,872.681 1727.3,872.86 1729.35,872.681 1731.39,872.86 1733.43,871.61 1735.48,872.681 1737.52,871.61 1739.57,872.503 1741.61,870.898 1743.66,873.04 1745.7,872.324 1747.74,872.145 1749.79,870.542 1751.83,873.577 1753.88,872.503 1755.92,872.145 1757.96,872.681 1760.01,872.86 1762.05,872.503 1764.1,872.86 1766.14,871.788 1768.19,872.503 1770.23,872.145 1772.27,872.145 1774.32,871.61 1776.36,872.86 1778.41,872.145 1780.45,872.503 1782.49,872.503 1784.54,872.324 1786.58,872.503 1788.63,872.145 1790.67,871.61 1792.72,872.86 1794.76,872.86 1796.8,872.145 1798.85,872.86 1800.89,872.145 1802.94,871.432 1804.98,872.86 1807.02,872.86 1809.07,873.398 1811.11,871.788 1813.16,872.681 1815.2,872.324 1817.25,873.04 1819.29,872.86 1821.33,872.86 1823.38,872.324 1825.42,872.145 1827.47,872.86 1829.51,871.788 1831.55,871.788 1833.6,871.076 1835.64,873.757 1837.69,871.788 1839.73,870.898 1841.78,872.503 1843.82,873.04 1845.86,872.145 1847.91,872.503 1849.95,872.86 1852,872.681 1854.04,872.503 1856.08,872.503 1858.13,871.788 1860.17,871.432 1862.22,874.116 1864.26,872.681 1866.31,873.936 1868.35,872.145 1870.39,871.432 1872.44,873.398 1874.48,872.86 1876.53,872.324 1878.57,873.04 1880.61,872.324 1882.66,872.324 1884.7,871.254 1886.75,873.04 1888.79,871.788 1890.84,872.86 1892.88,871.967 1894.92,872.86 1896.97,872.86 1899.01,872.86 1901.06,872.324 1903.1,872.681 1905.14,871.61 1907.19,872.324 1909.23,872.86 1911.28,872.86 1913.32,873.398 1915.37,872.86 1917.41,872.86 1919.45,873.936 1921.5,872.86 1923.54,872.681 1925.59,871.076 1927.63,871.967 1929.67,871.61 1931.72,872.86 1933.76,872.86 1935.81,873.219 1937.85,872.145 1939.9,872.681 1941.94,873.04 1943.98,872.324 1946.03,872.324 1948.07,874.116 1950.12,872.86 1952.16,872.145 1954.2,871.61 1956.25,872.86 1958.29,871.61 1960.34,872.86 1962.38,871.967 1964.43,872.681 1966.47,872.681 1968.51,871.788 1970.56,872.681 1972.6,872.324 1974.65,870.365 1976.69,873.398 1978.73,871.432 1980.78,873.398 1982.82,873.757 1984.87,872.145 1986.91,872.324 1988.96,871.788 1991,873.04 1993.04,872.324 1995.09,873.577 1997.13,873.757 1999.18,872.86 2001.22,872.503 2003.26,871.788 2005.31,872.145 2007.35,871.076 2009.4,872.145 2011.44,873.398 2013.49,873.04 2015.53,872.681 2017.57,871.254 2019.62,873.04 2021.66,873.04 2023.71,873.219 2025.75,873.577 2027.79,871.254 2029.84,872.86 2031.88,872.86 2033.93,872.324 2035.97,872.503 2038.02,873.04 2040.06,872.503 2042.1,872.86 2044.15,871.076 2046.19,870.365 2048.24,872.86 2050.28,871.967 2052.32,872.86 2054.37,871.967 2056.41,873.398 2058.46,871.432 2060.5,872.86 2062.55,871.61 2064.59,872.145 2066.63,871.432 2068.68,871.076 2070.72,873.577 2072.77,870.72 2074.81,872.86 2076.85,872.86 2078.9,872.86 2080.94,871.967 2082.99,871.076 2085.03,873.398 2087.08,873.398 2089.12,872.324 2091.16,872.503 2093.21,872.681 2095.25,873.219 2097.3,872.324 2099.34,872.681 2101.38,871.432 2103.43,872.681 2105.47,871.788 2107.52,873.219 2109.56,872.324 2111.61,873.577 2113.65,872.145 2115.69,871.61 2117.74,871.254 2119.78,872.86 2121.83,873.398 2123.87,872.324 2125.91,873.577 2127.96,872.324 2130,871.967 2132.05,871.967 2134.09,873.219 2136.14,871.432 2138.18,873.398 2140.22,872.86 2142.27,871.967 2144.31,871.61 2146.36,872.503 2148.4,872.86 2150.44,873.398 2152.49,872.145 2154.53,871.967 2156.58,873.04 2158.62,873.04 2160.67,873.936 2162.71,871.61 2164.75,872.145 2166.8,872.503 2168.84,873.398 2170.89,871.61 2172.93,871.254 2174.97,872.86 2177.02,871.967 2179.06,871.61 2181.11,871.432 2183.15,872.86 2185.2,873.04 2187.24,871.254 2189.28,873.219 2191.33,871.967 2193.37,871.967 2195.42,872.86 2197.46,873.398 2199.5,872.681 2201.55,871.254 2203.59,872.86 2205.64,872.86 2207.68,872.324 2209.73,872.681 2211.77,871.788 2213.81,872.324 2215.86,872.503 2217.9,872.503 2219.95,872.86 2221.99,872.324 2224.03,872.681 2226.08,871.967 2228.12,872.145 2230.17,873.04 2232.21,873.219 2234.26,873.219 2236.3,872.145 2238.34,872.86 2240.39,872.324 2242.43,872.503 2244.48,872.503 2246.52,871.788 2248.56,870.72 2250.61,871.61 2252.65,873.398 2254.7,872.324 2256.74,872.324 2258.79,872.145 2260.83,872.86 2262.87,872.145 2264.92,872.681 2266.96,872.681 2269.01,871.61 2271.05,871.432 2273.09,872.86 2275.14,872.145 2277.18,871.61 2279.23,870.542 2281.27,872.681 2283.32,872.86 2285.36,872.86 2287.4,873.219 2289.45,872.681 2291.49,873.398 "/>
<path clip-path="url(#clip190)" d="M1938 302.578 L2280.6 302.578 L2280.6 95.2176 L1938 95.2176  Z" fill="#ffffff" fill-rule="evenodd" fill-opacity="1"/>
<polyline clip-path="url(#clip190)" style="stroke:#000000; stroke-linecap:round; stroke-linejoin:round; stroke-width:4; stroke-opacity:1; fill:none" points="1938,302.578 2280.6,302.578 2280.6,95.2176 1938,95.2176 1938,302.578 "/>
<polyline clip-path="url(#clip190)" style="stroke:#e26f46; stroke-linecap:round; stroke-linejoin:round; stroke-width:4; stroke-opacity:1; fill:none" points="1962.05,147.058 2106.36,147.058 "/>
<path clip-path="url(#clip190)" d="M2148.84 139.176 L2148.84 143.203 Q2147.04 142.277 2145.09 141.815 Q2143.15 141.352 2141.06 141.352 Q2137.89 141.352 2136.3 142.324 Q2134.72 143.296 2134.72 145.24 Q2134.72 146.722 2135.86 147.578 Q2136.99 148.412 2140.42 149.176 L2141.87 149.5 Q2146.41 150.472 2148.31 152.254 Q2150.23 154.014 2150.23 157.185 Q2150.23 160.796 2147.36 162.902 Q2144.51 165.009 2139.51 165.009 Q2137.43 165.009 2135.16 164.592 Q2132.92 164.199 2130.42 163.388 L2130.42 158.99 Q2132.78 160.217 2135.07 160.842 Q2137.36 161.444 2139.61 161.444 Q2142.61 161.444 2144.23 160.426 Q2145.86 159.384 2145.86 157.509 Q2145.86 155.773 2144.67 154.847 Q2143.52 153.921 2139.56 153.064 L2138.08 152.717 Q2134.12 151.884 2132.36 150.171 Q2130.6 148.435 2130.6 145.426 Q2130.6 141.768 2133.19 139.778 Q2135.79 137.787 2140.55 137.787 Q2142.92 137.787 2145 138.134 Q2147.08 138.481 2148.84 139.176 Z" fill="#000000" fill-rule="nonzero" fill-opacity="1" /><path clip-path="url(#clip190)" d="M2156.85 128.319 L2161.13 128.319 L2161.13 149.592 L2173.84 138.412 L2179.28 138.412 L2165.53 150.541 L2179.86 164.338 L2174.3 164.338 L2161.13 151.676 L2161.13 164.338 L2156.85 164.338 L2156.85 128.319 Z" fill="#000000" fill-rule="nonzero" fill-opacity="1" /><path clip-path="url(#clip190)" d="M2204.95 150.31 L2204.95 152.393 L2185.37 152.393 Q2185.65 156.791 2188.01 159.106 Q2190.39 161.398 2194.63 161.398 Q2197.08 161.398 2199.37 160.796 Q2201.69 160.194 2203.96 158.99 L2203.96 163.018 Q2201.67 163.99 2199.26 164.5 Q2196.85 165.009 2194.37 165.009 Q2188.17 165.009 2184.54 161.398 Q2180.92 157.787 2180.92 151.629 Q2180.92 145.264 2184.35 141.537 Q2187.8 137.787 2193.63 137.787 Q2198.86 137.787 2201.9 141.166 Q2204.95 144.523 2204.95 150.31 M2200.69 149.06 Q2200.65 145.565 2198.73 143.481 Q2196.83 141.398 2193.68 141.398 Q2190.11 141.398 2187.96 143.412 Q2185.83 145.426 2185.51 149.083 L2200.69 149.06 Z" fill="#000000" fill-rule="nonzero" fill-opacity="1" /><path clip-path="url(#clip190)" d="M2209.47 138.412 L2213.73 138.412 L2219.05 158.643 L2224.35 138.412 L2229.37 138.412 L2234.7 158.643 L2240 138.412 L2244.26 138.412 L2237.48 164.338 L2232.45 164.338 L2226.87 143.088 L2221.27 164.338 L2216.25 164.338 L2209.47 138.412 Z" fill="#000000" fill-rule="nonzero" fill-opacity="1" /><polyline clip-path="url(#clip190)" style="stroke:#3da44d; stroke-linecap:round; stroke-linejoin:round; stroke-width:4; stroke-opacity:1; fill:none" points="1962.05,198.898 2106.36,198.898 "/>
<path clip-path="url(#clip190)" d="M2143.82 203.145 Q2138.66 203.145 2136.67 204.326 Q2134.67 205.506 2134.67 208.354 Q2134.67 210.622 2136.16 211.965 Q2137.66 213.284 2140.23 213.284 Q2143.77 213.284 2145.9 210.784 Q2148.05 208.261 2148.05 204.094 L2148.05 203.145 L2143.82 203.145 M2152.31 201.386 L2152.31 216.178 L2148.05 216.178 L2148.05 212.242 Q2146.6 214.603 2144.42 215.738 Q2142.24 216.849 2139.1 216.849 Q2135.11 216.849 2132.75 214.627 Q2130.42 212.381 2130.42 208.631 Q2130.42 204.256 2133.33 202.034 Q2136.27 199.812 2142.08 199.812 L2148.05 199.812 L2148.05 199.395 Q2148.05 196.455 2146.11 194.858 Q2144.19 193.238 2140.69 193.238 Q2138.47 193.238 2136.36 193.77 Q2134.26 194.303 2132.31 195.367 L2132.31 191.432 Q2134.65 190.53 2136.85 190.09 Q2139.05 189.627 2141.13 189.627 Q2146.76 189.627 2149.54 192.543 Q2152.31 195.46 2152.31 201.386 Z" fill="#000000" fill-rule="nonzero" fill-opacity="1" /><path clip-path="url(#clip190)" d="M2176.11 194.233 Q2175.39 193.817 2174.54 193.631 Q2173.7 193.423 2172.68 193.423 Q2169.07 193.423 2167.13 195.784 Q2165.21 198.122 2165.21 202.52 L2165.21 216.178 L2160.92 216.178 L2160.92 190.252 L2165.21 190.252 L2165.21 194.28 Q2166.55 191.918 2168.7 190.784 Q2170.86 189.627 2173.93 189.627 Q2174.37 189.627 2174.91 189.696 Q2175.44 189.743 2176.09 189.858 L2176.11 194.233 Z" fill="#000000" fill-rule="nonzero" fill-opacity="1" /><path clip-path="url(#clip190)" d="M2199.19 203.238 Q2199.19 198.539 2197.24 195.877 Q2195.32 193.192 2191.94 193.192 Q2188.56 193.192 2186.62 195.877 Q2184.7 198.539 2184.7 203.238 Q2184.7 207.937 2186.62 210.622 Q2188.56 213.284 2191.94 213.284 Q2195.32 213.284 2197.24 210.622 Q2199.19 207.937 2199.19 203.238 M2184.7 194.187 Q2186.04 191.872 2188.08 190.761 Q2190.14 189.627 2192.98 189.627 Q2197.71 189.627 2200.65 193.377 Q2203.61 197.127 2203.61 203.238 Q2203.61 209.349 2200.65 213.099 Q2197.71 216.849 2192.98 216.849 Q2190.14 216.849 2188.08 215.738 Q2186.04 214.603 2184.7 212.289 L2184.7 216.178 L2180.42 216.178 L2180.42 180.159 L2184.7 180.159 L2184.7 194.187 Z" fill="#000000" fill-rule="nonzero" fill-opacity="1" /><polyline clip-path="url(#clip190)" style="stroke:#c271d2; stroke-linecap:round; stroke-linejoin:round; stroke-width:4; stroke-opacity:1; fill:none" points="1962.05,250.738 2106.36,250.738 "/>
<path clip-path="url(#clip190)" d="M2150.92 243.087 L2150.92 247.069 Q2149.12 246.073 2147.29 245.587 Q2145.48 245.078 2143.63 245.078 Q2139.49 245.078 2137.2 247.717 Q2134.91 250.332 2134.91 255.078 Q2134.91 259.823 2137.2 262.462 Q2139.49 265.078 2143.63 265.078 Q2145.48 265.078 2147.29 264.592 Q2149.12 264.082 2150.92 263.087 L2150.92 267.022 Q2149.14 267.856 2147.22 268.272 Q2145.32 268.689 2143.17 268.689 Q2137.31 268.689 2133.86 265.008 Q2130.42 261.328 2130.42 255.078 Q2130.42 248.735 2133.89 245.101 Q2137.38 241.467 2143.45 241.467 Q2145.42 241.467 2147.29 241.883 Q2149.17 242.277 2150.92 243.087 Z" fill="#000000" fill-rule="nonzero" fill-opacity="1" /><path clip-path="url(#clip190)" d="M2168.38 245.078 Q2164.95 245.078 2162.96 247.763 Q2160.97 250.425 2160.97 255.078 Q2160.97 259.731 2162.94 262.416 Q2164.93 265.078 2168.38 265.078 Q2171.78 265.078 2173.77 262.393 Q2175.76 259.707 2175.76 255.078 Q2175.76 250.471 2173.77 247.786 Q2171.78 245.078 2168.38 245.078 M2168.38 241.467 Q2173.93 241.467 2177.11 245.078 Q2180.28 248.689 2180.28 255.078 Q2180.28 261.444 2177.11 265.078 Q2173.93 268.689 2168.38 268.689 Q2162.8 268.689 2159.63 265.078 Q2156.48 261.444 2156.48 255.078 Q2156.48 248.689 2159.63 245.078 Q2162.8 241.467 2168.38 241.467 Z" fill="#000000" fill-rule="nonzero" fill-opacity="1" /><path clip-path="url(#clip190)" d="M2207.52 247.069 Q2209.12 244.198 2211.34 242.833 Q2213.56 241.467 2216.57 241.467 Q2220.62 241.467 2222.82 244.314 Q2225.02 247.138 2225.02 252.369 L2225.02 268.018 L2220.74 268.018 L2220.74 252.508 Q2220.74 248.782 2219.42 246.976 Q2218.1 245.17 2215.39 245.17 Q2212.08 245.17 2210.16 247.37 Q2208.24 249.569 2208.24 253.365 L2208.24 268.018 L2203.96 268.018 L2203.96 252.508 Q2203.96 248.758 2202.64 246.976 Q2201.32 245.17 2198.56 245.17 Q2195.3 245.17 2193.38 247.393 Q2191.46 249.592 2191.46 253.365 L2191.46 268.018 L2187.17 268.018 L2187.17 242.092 L2191.46 242.092 L2191.46 246.12 Q2192.92 243.735 2194.95 242.601 Q2196.99 241.467 2199.79 241.467 Q2202.61 241.467 2204.58 242.902 Q2206.57 244.337 2207.52 247.069 Z" fill="#000000" fill-rule="nonzero" fill-opacity="1" /><path clip-path="url(#clip190)" d="M2237.64 264.129 L2237.64 277.879 L2233.35 277.879 L2233.35 242.092 L2237.64 242.092 L2237.64 246.027 Q2238.98 243.712 2241.02 242.601 Q2243.08 241.467 2245.92 241.467 Q2250.65 241.467 2253.59 245.217 Q2256.55 248.967 2256.55 255.078 Q2256.55 261.189 2253.59 264.939 Q2250.65 268.689 2245.92 268.689 Q2243.08 268.689 2241.02 267.578 Q2238.98 266.443 2237.64 264.129 M2252.13 255.078 Q2252.13 250.379 2250.18 247.717 Q2248.26 245.032 2244.88 245.032 Q2241.5 245.032 2239.56 247.717 Q2237.64 250.379 2237.64 255.078 Q2237.64 259.777 2239.56 262.462 Q2241.5 265.124 2244.88 265.124 Q2248.26 265.124 2250.18 262.462 Q2252.13 259.777 2252.13 255.078 Z" fill="#000000" fill-rule="nonzero" fill-opacity="1" /></svg>
