<?xml version="1.0" encoding="utf-8"?>
<svg xmlns="http://www.w3.org/2000/svg" xmlns:xlink="http://www.w3.org/1999/xlink" width="600" height="400" viewBox="0 0 2400 1600">
<defs>
  <clipPath id="clip790">
    <rect x="0" y="0" width="2400" height="1600"/>
  </clipPath>
</defs>
<path clip-path="url(#clip790)" d="M0 1600 L2400 1600 L2400 0 L0 0  Z" fill="#ffffff" fill-rule="evenodd" fill-opacity="1"/>
<defs>
  <clipPath id="clip791">
    <rect x="480" y="0" width="1681" height="1600"/>
  </clipPath>
</defs>
<path clip-path="url(#clip790)" d="M251.071 1423.18 L2352.76 1423.18 L2352.76 47.2441 L251.071 47.2441  Z" fill="#ffffff" fill-rule="evenodd" fill-opacity="1"/>
<defs>
  <clipPath id="clip792">
    <rect x="251" y="47" width="2103" height="1377"/>
  </clipPath>
</defs>
<polyline clip-path="url(#clip792)" style="stroke:#000000; stroke-linecap:round; stroke-linejoin:round; stroke-width:2; stroke-opacity:0.1; fill:none" points="303.922,1423.18 303.922,47.2441 "/>
<polyline clip-path="url(#clip792)" style="stroke:#000000; stroke-linecap:round; stroke-linejoin:round; stroke-width:2; stroke-opacity:0.1; fill:none" points="967.039,1423.18 967.039,47.2441 "/>
<polyline clip-path="url(#clip792)" style="stroke:#000000; stroke-linecap:round; stroke-linejoin:round; stroke-width:2; stroke-opacity:0.1; fill:none" points="1630.16,1423.18 1630.16,47.2441 "/>
<polyline clip-path="url(#clip792)" style="stroke:#000000; stroke-linecap:round; stroke-linejoin:round; stroke-width:2; stroke-opacity:0.1; fill:none" points="2293.27,1423.18 2293.27,47.2441 "/>
<polyline clip-path="url(#clip790)" style="stroke:#000000; stroke-linecap:round; stroke-linejoin:round; stroke-width:4; stroke-opacity:1; fill:none" points="251.071,1423.18 2352.76,1423.18 "/>
<polyline clip-path="url(#clip790)" style="stroke:#000000; stroke-linecap:round; stroke-linejoin:round; stroke-width:4; stroke-opacity:1; fill:none" points="303.922,1423.18 303.922,1404.28 "/>
<polyline clip-path="url(#clip790)" style="stroke:#000000; stroke-linecap:round; stroke-linejoin:round; stroke-width:4; stroke-opacity:1; fill:none" points="967.039,1423.18 967.039,1404.28 "/>
<polyline clip-path="url(#clip790)" style="stroke:#000000; stroke-linecap:round; stroke-linejoin:round; stroke-width:4; stroke-opacity:1; fill:none" points="1630.16,1423.18 1630.16,1404.28 "/>
<polyline clip-path="url(#clip790)" style="stroke:#000000; stroke-linecap:round; stroke-linejoin:round; stroke-width:4; stroke-opacity:1; fill:none" points="2293.27,1423.18 2293.27,1404.28 "/>
<path clip-path="url(#clip790)" d="M303.922 1454.1 Q300.311 1454.1 298.482 1457.66 Q296.676 1461.2 296.676 1468.33 Q296.676 1475.44 298.482 1479.01 Q300.311 1482.55 303.922 1482.55 Q307.556 1482.55 309.362 1479.01 Q311.19 1475.44 311.19 1468.33 Q311.19 1461.2 309.362 1457.66 Q307.556 1454.1 303.922 1454.1 M303.922 1450.39 Q309.732 1450.39 312.787 1455 Q315.866 1459.58 315.866 1468.33 Q315.866 1477.06 312.787 1481.67 Q309.732 1486.25 303.922 1486.25 Q298.112 1486.25 295.033 1481.67 Q291.977 1477.06 291.977 1468.33 Q291.977 1459.58 295.033 1455 Q298.112 1450.39 303.922 1450.39 Z" fill="#000000" fill-rule="nonzero" fill-opacity="1" /><path clip-path="url(#clip790)" d="M926.646 1481.64 L934.285 1481.64 L934.285 1455.28 L925.975 1456.95 L925.975 1452.69 L934.238 1451.02 L938.914 1451.02 L938.914 1481.64 L946.553 1481.64 L946.553 1485.58 L926.646 1485.58 L926.646 1481.64 Z" fill="#000000" fill-rule="nonzero" fill-opacity="1" /><path clip-path="url(#clip790)" d="M965.998 1454.1 Q962.386 1454.1 960.558 1457.66 Q958.752 1461.2 958.752 1468.33 Q958.752 1475.44 960.558 1479.01 Q962.386 1482.55 965.998 1482.55 Q969.632 1482.55 971.437 1479.01 Q973.266 1475.44 973.266 1468.33 Q973.266 1461.2 971.437 1457.66 Q969.632 1454.1 965.998 1454.1 M965.998 1450.39 Q971.808 1450.39 974.863 1455 Q977.942 1459.58 977.942 1468.33 Q977.942 1477.06 974.863 1481.67 Q971.808 1486.25 965.998 1486.25 Q960.187 1486.25 957.109 1481.67 Q954.053 1477.06 954.053 1468.33 Q954.053 1459.58 957.109 1455 Q960.187 1450.39 965.998 1450.39 Z" fill="#000000" fill-rule="nonzero" fill-opacity="1" /><path clip-path="url(#clip790)" d="M996.159 1454.1 Q992.548 1454.1 990.72 1457.66 Q988.914 1461.2 988.914 1468.33 Q988.914 1475.44 990.72 1479.01 Q992.548 1482.55 996.159 1482.55 Q999.794 1482.55 1001.6 1479.01 Q1003.43 1475.44 1003.43 1468.33 Q1003.43 1461.2 1001.6 1457.66 Q999.794 1454.1 996.159 1454.1 M996.159 1450.39 Q1001.97 1450.39 1005.03 1455 Q1008.1 1459.58 1008.1 1468.33 Q1008.1 1477.06 1005.03 1481.67 Q1001.97 1486.25 996.159 1486.25 Q990.349 1486.25 987.271 1481.67 Q984.215 1477.06 984.215 1468.33 Q984.215 1459.58 987.271 1455 Q990.349 1450.39 996.159 1450.39 Z" fill="#000000" fill-rule="nonzero" fill-opacity="1" /><path clip-path="url(#clip790)" d="M1593.85 1481.64 L1610.17 1481.64 L1610.17 1485.58 L1588.22 1485.58 L1588.22 1481.64 Q1590.89 1478.89 1595.47 1474.26 Q1600.08 1469.61 1601.26 1468.27 Q1603.5 1465.74 1604.38 1464.01 Q1605.28 1462.25 1605.28 1460.56 Q1605.28 1457.8 1603.34 1456.07 Q1601.42 1454.33 1598.32 1454.33 Q1596.12 1454.33 1593.66 1455.09 Q1591.23 1455.86 1588.46 1457.41 L1588.46 1452.69 Q1591.28 1451.55 1593.73 1450.97 Q1596.19 1450.39 1598.22 1450.39 Q1603.59 1450.39 1606.79 1453.08 Q1609.98 1455.77 1609.98 1460.26 Q1609.98 1462.39 1609.17 1464.31 Q1608.39 1466.2 1606.28 1468.8 Q1605.7 1469.47 1602.6 1472.69 Q1599.5 1475.88 1593.85 1481.64 Z" fill="#000000" fill-rule="nonzero" fill-opacity="1" /><path clip-path="url(#clip790)" d="M1629.98 1454.1 Q1626.37 1454.1 1624.54 1457.66 Q1622.74 1461.2 1622.74 1468.33 Q1622.74 1475.44 1624.54 1479.01 Q1626.37 1482.55 1629.98 1482.55 Q1633.62 1482.55 1635.42 1479.01 Q1637.25 1475.44 1637.25 1468.33 Q1637.25 1461.2 1635.42 1457.66 Q1633.62 1454.1 1629.98 1454.1 M1629.98 1450.39 Q1635.79 1450.39 1638.85 1455 Q1641.93 1459.58 1641.93 1468.33 Q1641.93 1477.06 1638.85 1481.67 Q1635.79 1486.25 1629.98 1486.25 Q1624.17 1486.25 1621.09 1481.67 Q1618.04 1477.06 1618.04 1468.33 Q1618.04 1459.58 1621.09 1455 Q1624.17 1450.39 1629.98 1450.39 Z" fill="#000000" fill-rule="nonzero" fill-opacity="1" /><path clip-path="url(#clip790)" d="M1660.15 1454.1 Q1656.53 1454.1 1654.71 1457.66 Q1652.9 1461.2 1652.9 1468.33 Q1652.9 1475.44 1654.71 1479.01 Q1656.53 1482.55 1660.15 1482.55 Q1663.78 1482.55 1665.58 1479.01 Q1667.41 1475.44 1667.41 1468.33 Q1667.41 1461.2 1665.58 1457.66 Q1663.78 1454.1 1660.15 1454.1 M1660.15 1450.39 Q1665.96 1450.39 1669.01 1455 Q1672.09 1459.58 1672.09 1468.33 Q1672.09 1477.06 1669.01 1481.67 Q1665.96 1486.25 1660.15 1486.25 Q1654.33 1486.25 1651.26 1481.67 Q1648.2 1477.06 1648.2 1468.33 Q1648.2 1459.58 1651.26 1455 Q1654.33 1450.39 1660.15 1450.39 Z" fill="#000000" fill-rule="nonzero" fill-opacity="1" /><path clip-path="url(#clip790)" d="M2267.04 1466.95 Q2270.39 1467.66 2272.27 1469.93 Q2274.17 1472.2 2274.17 1475.53 Q2274.17 1480.65 2270.65 1483.45 Q2267.13 1486.25 2260.65 1486.25 Q2258.47 1486.25 2256.16 1485.81 Q2253.86 1485.39 2251.41 1484.54 L2251.41 1480.02 Q2253.36 1481.16 2255.67 1481.74 Q2257.99 1482.32 2260.51 1482.32 Q2264.91 1482.32 2267.2 1480.58 Q2269.51 1478.84 2269.51 1475.53 Q2269.51 1472.48 2267.36 1470.77 Q2265.23 1469.03 2261.41 1469.03 L2257.38 1469.03 L2257.38 1465.19 L2261.6 1465.19 Q2265.05 1465.19 2266.87 1463.82 Q2268.7 1462.43 2268.7 1459.84 Q2268.7 1457.18 2266.8 1455.77 Q2264.93 1454.33 2261.41 1454.33 Q2259.49 1454.33 2257.29 1454.75 Q2255.09 1455.16 2252.45 1456.04 L2252.45 1451.88 Q2255.11 1451.14 2257.43 1450.77 Q2259.77 1450.39 2261.83 1450.39 Q2267.15 1450.39 2270.25 1452.83 Q2273.36 1455.23 2273.36 1459.35 Q2273.36 1462.22 2271.71 1464.21 Q2270.07 1466.18 2267.04 1466.95 Z" fill="#000000" fill-rule="nonzero" fill-opacity="1" /><path clip-path="url(#clip790)" d="M2293.03 1454.1 Q2289.42 1454.1 2287.59 1457.66 Q2285.79 1461.2 2285.79 1468.33 Q2285.79 1475.44 2287.59 1479.01 Q2289.42 1482.55 2293.03 1482.55 Q2296.67 1482.55 2298.47 1479.01 Q2300.3 1475.44 2300.3 1468.33 Q2300.3 1461.2 2298.47 1457.66 Q2296.67 1454.1 2293.03 1454.1 M2293.03 1450.39 Q2298.84 1450.39 2301.9 1455 Q2304.98 1459.58 2304.98 1468.33 Q2304.98 1477.06 2301.9 1481.67 Q2298.84 1486.25 2293.03 1486.25 Q2287.22 1486.25 2284.14 1481.67 Q2281.09 1477.06 2281.09 1468.33 Q2281.09 1459.58 2284.14 1455 Q2287.22 1450.39 2293.03 1450.39 Z" fill="#000000" fill-rule="nonzero" fill-opacity="1" /><path clip-path="url(#clip790)" d="M2323.19 1454.1 Q2319.58 1454.1 2317.75 1457.66 Q2315.95 1461.2 2315.95 1468.33 Q2315.95 1475.44 2317.75 1479.01 Q2319.58 1482.55 2323.19 1482.55 Q2326.83 1482.55 2328.63 1479.01 Q2330.46 1475.44 2330.46 1468.33 Q2330.46 1461.2 2328.63 1457.66 Q2326.83 1454.1 2323.19 1454.1 M2323.19 1450.39 Q2329 1450.39 2332.06 1455 Q2335.14 1459.58 2335.14 1468.33 Q2335.14 1477.06 2332.06 1481.67 Q2329 1486.25 2323.19 1486.25 Q2317.38 1486.25 2314.3 1481.67 Q2311.25 1477.06 2311.25 1468.33 Q2311.25 1459.58 2314.3 1455 Q2317.38 1450.39 2323.19 1450.39 Z" fill="#000000" fill-rule="nonzero" fill-opacity="1" /><path clip-path="url(#clip790)" d="M1208.08 1520.52 L1238.13 1520.52 L1238.13 1525.93 L1214.51 1525.93 L1214.51 1540 L1237.14 1540 L1237.14 1545.41 L1214.51 1545.41 L1214.51 1562.63 L1238.7 1562.63 L1238.7 1568.04 L1208.08 1568.04 L1208.08 1520.52 Z" fill="#000000" fill-rule="nonzero" fill-opacity="1" /><path clip-path="url(#clip790)" d="M1254.68 1562.7 L1254.68 1581.6 L1248.79 1581.6 L1248.79 1532.4 L1254.68 1532.4 L1254.68 1537.81 Q1256.53 1534.62 1259.33 1533.1 Q1262.16 1531.54 1266.07 1531.54 Q1272.57 1531.54 1276.61 1536.69 Q1280.68 1541.85 1280.68 1550.25 Q1280.68 1558.65 1276.61 1563.81 Q1272.57 1568.97 1266.07 1568.97 Q1262.16 1568.97 1259.33 1567.44 Q1256.53 1565.88 1254.68 1562.7 M1274.6 1550.25 Q1274.6 1543.79 1271.93 1540.13 Q1269.29 1536.44 1264.64 1536.44 Q1260 1536.44 1257.32 1540.13 Q1254.68 1543.79 1254.68 1550.25 Q1254.68 1556.71 1257.32 1560.4 Q1260 1564.07 1264.64 1564.07 Q1269.29 1564.07 1271.93 1560.4 Q1274.6 1556.71 1274.6 1550.25 Z" fill="#000000" fill-rule="nonzero" fill-opacity="1" /><path clip-path="url(#clip790)" d="M1304.21 1536.5 Q1299.49 1536.5 1296.76 1540.19 Q1294.02 1543.85 1294.02 1550.25 Q1294.02 1556.65 1296.73 1560.34 Q1299.46 1564 1304.21 1564 Q1308.88 1564 1311.62 1560.31 Q1314.36 1556.62 1314.36 1550.25 Q1314.36 1543.92 1311.62 1540.23 Q1308.88 1536.5 1304.21 1536.5 M1304.21 1531.54 Q1311.84 1531.54 1316.2 1536.5 Q1320.57 1541.47 1320.57 1550.25 Q1320.57 1559 1316.2 1564 Q1311.84 1568.97 1304.21 1568.97 Q1296.53 1568.97 1292.17 1564 Q1287.85 1559 1287.85 1550.25 Q1287.85 1541.47 1292.17 1536.5 Q1296.53 1531.54 1304.21 1531.54 Z" fill="#000000" fill-rule="nonzero" fill-opacity="1" /><path clip-path="url(#clip790)" d="M1355.93 1533.76 L1355.93 1539.24 Q1353.44 1537.87 1350.93 1537.2 Q1348.45 1536.5 1345.9 1536.5 Q1340.2 1536.5 1337.05 1540.13 Q1333.9 1543.73 1333.9 1550.25 Q1333.9 1556.78 1337.05 1560.4 Q1340.2 1564 1345.9 1564 Q1348.45 1564 1350.93 1563.33 Q1353.44 1562.63 1355.93 1561.26 L1355.93 1566.68 Q1353.48 1567.82 1350.83 1568.39 Q1348.22 1568.97 1345.26 1568.97 Q1337.21 1568.97 1332.47 1563.91 Q1327.73 1558.85 1327.73 1550.25 Q1327.73 1541.53 1332.5 1536.53 Q1337.31 1531.54 1345.65 1531.54 Q1348.35 1531.54 1350.93 1532.11 Q1353.51 1532.65 1355.93 1533.76 Z" fill="#000000" fill-rule="nonzero" fill-opacity="1" /><path clip-path="url(#clip790)" d="M1395.74 1546.53 L1395.74 1568.04 L1389.89 1568.04 L1389.89 1546.72 Q1389.89 1541.66 1387.91 1539.14 Q1385.94 1536.63 1381.99 1536.63 Q1377.25 1536.63 1374.51 1539.65 Q1371.78 1542.68 1371.78 1547.9 L1371.78 1568.04 L1365.89 1568.04 L1365.89 1518.52 L1371.78 1518.52 L1371.78 1537.93 Q1373.88 1534.72 1376.71 1533.13 Q1379.58 1531.54 1383.3 1531.54 Q1389.44 1531.54 1392.59 1535.36 Q1395.74 1539.14 1395.74 1546.53 Z" fill="#000000" fill-rule="nonzero" fill-opacity="1" /><polyline clip-path="url(#clip792)" style="stroke:#000000; stroke-linecap:round; stroke-linejoin:round; stroke-width:2; stroke-opacity:0.1; fill:none" points="251.071,1048.81 2352.76,1048.81 "/>
<polyline clip-path="url(#clip792)" style="stroke:#000000; stroke-linecap:round; stroke-linejoin:round; stroke-width:2; stroke-opacity:0.1; fill:none" points="251.071,485.983 2352.76,485.983 "/>
<polyline clip-path="url(#clip790)" style="stroke:#000000; stroke-linecap:round; stroke-linejoin:round; stroke-width:4; stroke-opacity:1; fill:none" points="251.071,1423.18 251.071,47.2441 "/>
<polyline clip-path="url(#clip790)" style="stroke:#000000; stroke-linecap:round; stroke-linejoin:round; stroke-width:4; stroke-opacity:1; fill:none" points="251.071,1048.81 269.969,1048.81 "/>
<polyline clip-path="url(#clip790)" style="stroke:#000000; stroke-linecap:round; stroke-linejoin:round; stroke-width:4; stroke-opacity:1; fill:none" points="251.071,485.983 269.969,485.983 "/>
<path clip-path="url(#clip790)" d="M114.931 1068.6 L122.57 1068.6 L122.57 1042.24 L114.26 1043.9 L114.26 1039.64 L122.524 1037.98 L127.2 1037.98 L127.2 1068.6 L134.839 1068.6 L134.839 1072.54 L114.931 1072.54 L114.931 1068.6 Z" fill="#000000" fill-rule="nonzero" fill-opacity="1" /><path clip-path="url(#clip790)" d="M154.283 1041.06 Q150.672 1041.06 148.843 1044.62 Q147.038 1048.16 147.038 1055.29 Q147.038 1062.4 148.843 1065.96 Q150.672 1069.51 154.283 1069.51 Q157.917 1069.51 159.723 1065.96 Q161.552 1062.4 161.552 1055.29 Q161.552 1048.16 159.723 1044.62 Q157.917 1041.06 154.283 1041.06 M154.283 1037.35 Q160.093 1037.35 163.149 1041.96 Q166.227 1046.54 166.227 1055.29 Q166.227 1064.02 163.149 1068.63 Q160.093 1073.21 154.283 1073.21 Q148.473 1073.21 145.394 1068.63 Q142.339 1064.02 142.339 1055.29 Q142.339 1046.54 145.394 1041.96 Q148.473 1037.35 154.283 1037.35 Z" fill="#000000" fill-rule="nonzero" fill-opacity="1" /><path clip-path="url(#clip790)" d="M166.227 1031.45 L190.339 1031.45 L190.339 1034.65 L166.227 1034.65 L166.227 1031.45 Z" fill="#000000" fill-rule="nonzero" fill-opacity="1" /><path clip-path="url(#clip790)" d="M201.812 1041.93 L215.071 1041.93 L215.071 1045.13 L197.241 1045.13 L197.241 1041.93 Q199.404 1039.69 203.128 1035.93 Q206.871 1032.15 207.83 1031.06 Q209.655 1029.01 210.369 1027.6 Q211.103 1026.17 211.103 1024.8 Q211.103 1022.56 209.523 1021.15 Q207.962 1019.74 205.442 1019.74 Q203.655 1019.74 201.661 1020.36 Q199.686 1020.98 197.43 1022.24 L197.43 1018.4 Q199.724 1017.48 201.718 1017.01 Q203.711 1016.54 205.366 1016.54 Q209.73 1016.54 212.325 1018.72 Q214.921 1020.9 214.921 1024.55 Q214.921 1026.28 214.263 1027.84 Q213.623 1029.39 211.912 1031.49 Q211.441 1032.04 208.921 1034.65 Q206.401 1037.25 201.812 1041.93 Z" fill="#000000" fill-rule="nonzero" fill-opacity="1" /><path clip-path="url(#clip790)" d="M144.366 505.776 L152.004 505.776 L152.004 479.41 L143.694 481.077 L143.694 476.818 L151.958 475.151 L156.634 475.151 L156.634 505.776 L164.273 505.776 L164.273 509.711 L144.366 509.711 L144.366 505.776 Z" fill="#000000" fill-rule="nonzero" fill-opacity="1" /><path clip-path="url(#clip790)" d="M183.717 478.23 Q180.106 478.23 178.277 481.795 Q176.472 485.336 176.472 492.466 Q176.472 499.572 178.277 503.137 Q180.106 506.679 183.717 506.679 Q187.351 506.679 189.157 503.137 Q190.986 499.572 190.986 492.466 Q190.986 485.336 189.157 481.795 Q187.351 478.23 183.717 478.23 M183.717 474.526 Q189.527 474.526 192.583 479.133 Q195.662 483.716 195.662 492.466 Q195.662 501.193 192.583 505.799 Q189.527 510.382 183.717 510.382 Q177.907 510.382 174.828 505.799 Q171.773 501.193 171.773 492.466 Q171.773 483.716 174.828 479.133 Q177.907 474.526 183.717 474.526 Z" fill="#000000" fill-rule="nonzero" fill-opacity="1" /><path clip-path="url(#clip790)" d="M205.366 456.722 Q202.432 456.722 200.947 459.618 Q199.48 462.496 199.48 468.289 Q199.48 474.063 200.947 476.959 Q202.432 479.837 205.366 479.837 Q208.319 479.837 209.786 476.959 Q211.272 474.063 211.272 468.289 Q211.272 462.496 209.786 459.618 Q208.319 456.722 205.366 456.722 M205.366 453.713 Q210.087 453.713 212.57 457.456 Q215.071 461.18 215.071 468.289 Q215.071 475.379 212.57 479.122 Q210.087 482.846 205.366 482.846 Q200.646 482.846 198.144 479.122 Q195.662 475.379 195.662 468.289 Q195.662 461.18 198.144 457.456 Q200.646 453.713 205.366 453.713 Z" fill="#000000" fill-rule="nonzero" fill-opacity="1" /><path clip-path="url(#clip790)" d="M16.4842 953.174 L16.4842 912.974 L21.895 912.974 L21.895 929.843 L64.0042 929.843 L64.0042 936.305 L21.895 936.305 L21.895 953.174 L16.4842 953.174 Z" fill="#000000" fill-rule="nonzero" fill-opacity="1" /><path clip-path="url(#clip790)" d="M33.8307 895.946 Q33.2578 896.933 33.0032 898.11 Q32.7167 899.256 32.7167 900.657 Q32.7167 905.622 35.9632 908.296 Q39.1779 910.937 45.2253 910.937 L64.0042 910.937 L64.0042 916.826 L28.3562 916.826 L28.3562 910.937 L33.8944 910.937 Q30.6479 909.091 29.0883 906.131 Q27.4968 903.171 27.4968 898.938 Q27.4968 898.333 27.5923 897.601 Q27.656 896.869 27.8151 895.978 L33.8307 895.946 Z" fill="#000000" fill-rule="nonzero" fill-opacity="1" /><path clip-path="url(#clip790)" d="M46.0847 873.602 Q46.0847 880.7 47.7079 883.437 Q49.3312 886.175 53.2461 886.175 Q56.3653 886.175 58.2114 884.138 Q60.0256 882.069 60.0256 878.536 Q60.0256 873.666 56.5881 870.738 Q53.1188 867.778 47.3897 867.778 L46.0847 867.778 L46.0847 873.602 M43.6657 861.921 L64.0042 861.921 L64.0042 867.778 L58.5933 867.778 Q61.8398 869.783 63.3994 872.775 Q64.9272 875.767 64.9272 880.095 Q64.9272 885.57 61.8716 888.816 Q58.7843 892.031 53.6281 892.031 Q47.6125 892.031 44.5569 888.021 Q41.5014 883.979 41.5014 875.99 L41.5014 867.778 L40.9285 867.778 Q36.8862 867.778 34.6901 870.451 Q32.4621 873.093 32.4621 877.899 Q32.4621 880.955 33.1941 883.851 Q33.9262 886.748 35.3903 889.421 L29.9795 889.421 Q28.7381 886.207 28.1334 883.183 Q27.4968 880.159 27.4968 877.295 Q27.4968 869.56 31.5072 865.741 Q35.5176 861.921 43.6657 861.921 Z" fill="#000000" fill-rule="nonzero" fill-opacity="1" /><path clip-path="url(#clip790)" d="M28.3562 849.858 L28.3562 844.002 L64.0042 844.002 L64.0042 849.858 L28.3562 849.858 M14.479 849.858 L14.479 844.002 L21.895 844.002 L21.895 849.858 L14.479 849.858 Z" fill="#000000" fill-rule="nonzero" fill-opacity="1" /><path clip-path="url(#clip790)" d="M42.4881 802.116 L64.0042 802.116 L64.0042 807.972 L42.679 807.972 Q37.6183 807.972 35.1038 809.945 Q32.5894 811.919 32.5894 815.865 Q32.5894 820.608 35.6131 823.345 Q38.6368 826.082 43.8567 826.082 L64.0042 826.082 L64.0042 831.971 L28.3562 831.971 L28.3562 826.082 L33.8944 826.082 Q30.6797 823.982 29.0883 821.149 Q27.4968 818.284 27.4968 814.561 Q27.4968 808.418 31.3163 805.267 Q35.1038 802.116 42.4881 802.116 Z" fill="#000000" fill-rule="nonzero" fill-opacity="1" /><path clip-path="url(#clip790)" d="M28.3562 790.434 L28.3562 784.578 L64.0042 784.578 L64.0042 790.434 L28.3562 790.434 M14.479 790.434 L14.479 784.578 L21.895 784.578 L21.895 790.434 L14.479 790.434 Z" fill="#000000" fill-rule="nonzero" fill-opacity="1" /><path clip-path="url(#clip790)" d="M42.4881 742.692 L64.0042 742.692 L64.0042 748.548 L42.679 748.548 Q37.6183 748.548 35.1038 750.521 Q32.5894 752.495 32.5894 756.442 Q32.5894 761.184 35.6131 763.921 Q38.6368 766.659 43.8567 766.659 L64.0042 766.659 L64.0042 772.547 L28.3562 772.547 L28.3562 766.659 L33.8944 766.659 Q30.6797 764.558 29.0883 761.725 Q27.4968 758.861 27.4968 755.137 Q27.4968 748.994 31.3163 745.843 Q35.1038 742.692 42.4881 742.692 Z" fill="#000000" fill-rule="nonzero" fill-opacity="1" /><path clip-path="url(#clip790)" d="M45.7664 707.553 Q39.4007 707.553 35.8996 710.195 Q32.3984 712.805 32.3984 717.547 Q32.3984 722.258 35.8996 724.9 Q39.4007 727.509 45.7664 727.509 Q52.1003 727.509 55.6014 724.9 Q59.1026 722.258 59.1026 717.547 Q59.1026 712.805 55.6014 710.195 Q52.1003 707.553 45.7664 707.553 M59.58 701.697 Q68.683 701.697 73.1071 705.739 Q77.5631 709.781 77.5631 718.12 Q77.5631 721.207 77.0857 723.945 Q76.6401 726.682 75.6852 729.26 L69.9879 729.26 Q71.3884 726.682 72.0568 724.167 Q72.7252 721.653 72.7252 719.043 Q72.7252 713.282 69.7015 710.418 Q66.7096 707.553 60.6303 707.553 L57.7339 707.553 Q60.885 709.367 62.4446 712.2 Q64.0042 715.033 64.0042 718.979 Q64.0042 725.536 59.0071 729.546 Q54.01 733.557 45.7664 733.557 Q37.491 733.557 32.4939 729.546 Q27.4968 725.536 27.4968 718.979 Q27.4968 715.033 29.0564 712.2 Q30.616 709.367 33.7671 707.553 L28.3562 707.553 L28.3562 701.697 L59.58 701.697 Z" fill="#000000" fill-rule="nonzero" fill-opacity="1" /><path clip-path="url(#clip790)" d="M44.7161 638.421 L47.5806 638.421 L47.5806 665.348 Q53.6281 664.966 56.8109 661.72 Q59.9619 658.442 59.9619 652.617 Q59.9619 649.243 59.1344 646.092 Q58.3069 642.909 56.6518 639.79 L62.1899 639.79 Q63.5267 642.941 64.227 646.251 Q64.9272 649.561 64.9272 652.967 Q64.9272 661.497 59.9619 666.494 Q54.9967 671.459 46.5303 671.459 Q37.7774 671.459 32.6531 666.749 Q27.4968 662.006 27.4968 653.986 Q27.4968 646.792 32.1438 642.623 Q36.7589 638.421 44.7161 638.421 M42.9973 644.278 Q38.1912 644.342 35.3266 646.983 Q32.4621 649.593 32.4621 653.922 Q32.4621 658.823 35.2312 661.784 Q38.0002 664.712 43.0292 665.157 L42.9973 644.278 Z" fill="#000000" fill-rule="nonzero" fill-opacity="1" /><path clip-path="url(#clip790)" d="M33.8307 608.152 Q33.2578 609.139 33.0032 610.317 Q32.7167 611.463 32.7167 612.863 Q32.7167 617.828 35.9632 620.502 Q39.1779 623.144 45.2253 623.144 L64.0042 623.144 L64.0042 629.032 L28.3562 629.032 L28.3562 623.144 L33.8944 623.144 Q30.6479 621.298 29.0883 618.338 Q27.4968 615.378 27.4968 611.144 Q27.4968 610.54 27.5923 609.808 Q27.656 609.075 27.8151 608.184 L33.8307 608.152 Z" fill="#000000" fill-rule="nonzero" fill-opacity="1" /><path clip-path="url(#clip790)" d="M33.8307 582.499 Q33.2578 583.485 33.0032 584.663 Q32.7167 585.809 32.7167 587.209 Q32.7167 592.175 35.9632 594.848 Q39.1779 597.49 45.2253 597.49 L64.0042 597.49 L64.0042 603.378 L28.3562 603.378 L28.3562 597.49 L33.8944 597.49 Q30.6479 595.644 29.0883 592.684 Q27.4968 589.724 27.4968 585.491 Q27.4968 584.886 27.5923 584.154 Q27.656 583.422 27.8151 582.53 L33.8307 582.499 Z" fill="#000000" fill-rule="nonzero" fill-opacity="1" /><path clip-path="url(#clip790)" d="M32.4621 563.974 Q32.4621 568.685 36.1542 571.422 Q39.8145 574.16 46.212 574.16 Q52.6095 574.16 56.3017 571.454 Q59.9619 568.717 59.9619 563.974 Q59.9619 559.296 56.2698 556.558 Q52.5777 553.821 46.212 553.821 Q39.8781 553.821 36.186 556.558 Q32.4621 559.296 32.4621 563.974 M27.4968 563.974 Q27.4968 556.336 32.4621 551.975 Q37.4273 547.615 46.212 547.615 Q54.9649 547.615 59.9619 551.975 Q64.9272 556.336 64.9272 563.974 Q64.9272 571.645 59.9619 576.006 Q54.9649 580.334 46.212 580.334 Q37.4273 580.334 32.4621 576.006 Q27.4968 571.645 27.4968 563.974 Z" fill="#000000" fill-rule="nonzero" fill-opacity="1" /><path clip-path="url(#clip790)" d="M33.8307 517.25 Q33.2578 518.237 33.0032 519.415 Q32.7167 520.56 32.7167 521.961 Q32.7167 526.926 35.9632 529.6 Q39.1779 532.241 45.2253 532.241 L64.0042 532.241 L64.0042 538.13 L28.3562 538.13 L28.3562 532.241 L33.8944 532.241 Q30.6479 530.395 29.0883 527.435 Q27.4968 524.475 27.4968 520.242 Q27.4968 519.637 27.5923 518.905 Q27.656 518.173 27.8151 517.282 L33.8307 517.25 Z" fill="#000000" fill-rule="nonzero" fill-opacity="1" /><polyline clip-path="url(#clip792)" style="stroke:#3da44d; stroke-linecap:round; stroke-linejoin:round; stroke-width:4; stroke-opacity:1; fill:none" points="310.553,576.878 317.184,587.838 323.815,599.652 330.446,612.059 337.078,625.682 343.709,640.381 350.34,656.49 356.971,673.448 363.602,692.576 370.233,713.044 376.865,733.731 383.496,757.06 390.127,783.172 396.758,812.046 403.389,847.456 410.021,891.706 416.652,949.914 423.283,1035.63 429.914,1080.06 436.545,1073.15 443.176,1087.76 449.808,1090.68 456.439,1092.4 463.07,1092.34 469.701,1092.8 476.332,1093.81 482.963,1091.01 489.595,1095.51 496.226,1098.62 502.857,1099.18 509.488,1099.18 516.119,1102.9 522.75,1105.98 529.382,1107.41 536.013,1107.56 542.644,1107.56 549.275,1107.93 555.906,1111.46 562.538,1112.87 569.169,1109.69 575.8,1110.77 582.431,1115.1 589.062,1115.02 595.693,1118.51 602.325,1120.34 608.956,1123.22 615.587,1127.41 622.218,1127.67 628.849,1130.92 635.48,1133.03 642.112,1135.28 648.743,1138.15 655.374,1141.39 662.005,1138.83 668.636,1146.26 675.268,1148.98 681.899,1153.18 688.53,1155.61 695.161,1158.9 701.792,1162.63 708.423,1161.56 715.055,1157.3 721.686,1160.98 728.317,1170.88 734.948,1177.05 741.579,1174.42 748.21,1183.54 754.842,1184.18 761.473,1186.96 768.104,1197.51 774.735,1191.67 781.366,1198.69 787.998,1203.06 794.629,1198.85 801.26,1206.06 807.891,1207.94 814.522,1211.68 821.153,1219.34 827.785,1215.36 834.416,1224.43 841.047,1225.81 847.678,1229.23 854.309,1215.45 860.94,1218.03 867.572,1229.13 874.203,1242.24 880.834,1242.01 887.465,1243.96 894.096,1245.93 900.727,1243.27 907.359,1241.45 913.99,1233.7 920.621,1225.51 927.252,1226.01 933.883,1234.44 940.515,1238.44 947.146,1256.87 953.777,1270.02 960.408,1270.67 967.039,1272.62 973.67,1274.97 980.302,1275.26 986.933,1270.74 993.564,1272.33 1000.2,1272.25 1006.83,1273.93 1013.46,1273.2 1020.09,1275.64 1026.72,1269.24 1033.35,1274.37 1039.98,1280.43 1046.61,1284.45 1053.24,1286.55 1059.88,1285.33 1066.51,1290.44 1073.14,1242.7 1079.77,1251.86 1086.4,1214.27 1093.03,1269.46 1099.66,1255.53 1106.29,1288.19 1112.93,1299.34 1119.56,1302.09 1126.19,1290.61 1132.82,1311.92 1139.45,1305.47 1146.08,1314.45 1152.71,1315.17 1159.34,1272.33 1165.97,1269.67 1172.61,1286.55 1179.24,1310.13 1185.87,1314.15 1192.5,1321.84 1199.13,1327.75 1205.76,1324.82 1212.39,1325.04 1219.02,1322.72 1225.66,1324.26 1232.29,1326.5 1238.92,1331.46 1245.55,1301.17 1252.18,1261.63 1258.81,1284.45 1265.44,1268.54 1272.07,1297.37 1278.7,1328.67 1285.34,1274.45 1291.97,1306.62 1298.6,1309.14 1305.23,1251.43 1311.86,1230.87 1318.49,1284.61 1325.12,1275.19 1331.75,1277.51 1338.39,1317.04 1345.02,1344.43 1351.65,1346.34 1358.28,1340.12 1364.91,1347.01 1371.54,1350.4 1378.17,1343.78 1384.8,1340.31 1391.43,1338.86 1398.07,1349.58 1404.7,1351.85 1411.33,1354.17 1417.96,1353.11 1424.59,1350.68 1431.22,1343.32 1437.85,1344.23 1444.48,1323.05 1451.12,1271.39 1457.75,1294.55 1464.38,1329.71 1471.01,1353.75 1477.64,1350.95 1484.27,1352.27 1490.9,1298.35 1497.53,1280.74 1504.16,1291.29 1510.8,1348.97 1517.43,1351.23 1524.06,1356.82 1530.69,1359.68 1537.32,1365.06 1543.95,1364.83 1550.58,1364.6 1557.21,1359.38 1563.84,1366.47 1570.48,1335.35 1577.11,1296.66 1583.74,1298.8 1590.37,1267.56 1597,1261.36 1603.63,1273.57 1610.26,1333.36 1616.89,1318.62 1623.53,1355.38 1630.16,1360.2 1636.79,1348.49 1643.42,1354.17 1650.05,1363.45 1656.68,1361.77 1663.31,1373.48 1669.94,1379.09 1676.57,1379.26 1683.21,1375.58 1689.84,1371.59 1696.47,1370.77 1703.1,1359.24 1709.73,1305.56 1716.36,1308.75 1722.99,1362.76 1729.62,1376.51 1736.26,1373.98 1742.89,1379.53 1749.52,1376.76 1756.15,1292.48 1762.78,1299.52 1769.41,1302.83 1776.04,1304.33 1782.67,1296.83 1789.3,1299.71 1795.94,1252.29 1802.57,1244.19 1809.2,1279.5 1815.83,1354.74 1822.46,1292.91 1829.09,1255.98 1835.72,1304.71 1842.35,1318.94 1848.99,1274.82 1855.62,1297.1 1862.25,1371.42 1868.88,1384.24 1875.51,1382.8 1882.14,1377.02 1888.77,1380.93 1895.4,1378.66 1902.03,1364.44 1908.67,1369.24 1915.3,1376.08 1921.93,1375.16 1928.56,1377.11 1935.19,1377.19 1941.82,1378.66 1948.45,1384.15 1955.08,1379.09 1961.72,1381.81 1968.35,1368.44 1974.98,1377.53 1981.61,1381.55 1988.24,1374.9 1994.87,1376.25 2001.5,1380.22 2008.13,1382.62 2014.76,1383.33 2021.4,1378.14 2028.03,1368.04 2034.66,1330.29 2041.29,1283.97 2047.92,1231.39 2054.55,1262.97 2061.18,1265.07 2067.81,1310.13 2074.45,1352.13 2081.08,1309.34 2087.71,1259.06 2094.34,1270.88 2100.97,1249.37 2107.6,1271.67 2114.23,1270.02 2120.86,1247.34 2127.49,1253.03 2134.13,1272.98 2140.76,1269.95 2147.39,1252.6 2154.02,1234.44 2160.65,1241.56 2167.28,1207.51 2173.91,1248.71 2180.54,1240.44 2187.18,1242.35 2193.81,1242.47 2200.44,1236.26 2207.07,1241.45 2213.7,1254.15 2220.33,1274.15 2226.96,1278.35 2233.59,1281.99 2240.22,1278.27 2246.86,1280.04 2253.49,1291.8 2260.12,1324.93 2266.75,1354.45 2273.38,1359.16 2280.01,1367.33 2286.64,1368.76 2293.27,1372.41 "/>
<polyline clip-path="url(#clip792)" style="stroke:#e26f46; stroke-linecap:round; stroke-linejoin:round; stroke-width:4; stroke-opacity:1; fill:none" points="310.553,86.1857 317.184,96.5434 323.815,105.291 330.446,112.178 337.078,119.475 343.709,127.033 350.34,134.873 356.971,142.56 363.602,149.478 370.233,157.784 376.865,165.65 383.496,173.983 390.127,181.652 396.758,190.26 403.389,198.789 410.021,207.762 416.652,216.706 423.283,225.221 429.914,234.009 436.545,241.202 443.176,244.467 449.808,246.94 456.439,247.346 463.07,248.64 469.701,250.086 476.332,251.27 482.963,252.819 489.595,254.603 496.226,255.976 502.857,257.808 509.488,259.517 516.119,260.569 522.75,262.471 529.382,262.471 536.013,264.637 542.644,266.683 549.275,267.719 555.906,269.9 562.538,270.799 569.169,272.452 575.8,274.381 582.431,275.229 589.062,277.375 595.693,278.594 602.325,280.09 608.956,281.785 615.587,282.867 622.218,283.959 628.849,285.801 635.48,287.389 642.112,288.903 648.743,290.628 655.374,291.597 662.005,293.066 668.636,295.051 675.268,296.359 681.899,296.765 688.53,298.812 695.161,299.745 701.792,300.894 708.423,302.906 715.055,303.87 721.686,306.7 728.317,307.806 734.948,309.597 741.579,311.071 748.21,313.027 754.842,314.896 761.473,316.436 768.104,317.214 774.735,319.576 781.366,321.301 787.998,323.682 794.629,324.698 801.26,327.407 807.891,328.587 814.522,330.444 821.153,331.519 827.785,334.454 834.416,336.054 841.047,336.756 847.678,338.243 854.309,339.605 860.94,339.893 867.572,342.522 874.203,343.188 880.834,344.606 887.465,345.434 894.096,346.955 900.727,348.418 907.359,349.664 913.99,350.134 920.621,352.513 927.252,353.721 933.883,355.022 940.515,356.585 947.146,357.416 953.777,358.589 960.408,361.054 967.039,362.523 973.67,363.395 980.302,364.539 986.933,365.693 993.564,367.31 1000.2,368.673 1006.83,369.407 1013.46,370.33 1020.09,371.447 1026.72,372.952 1033.35,373.998 1039.98,374.572 1046.61,375.535 1053.24,376.994 1059.88,377.484 1066.51,379.365 1073.14,379.966 1079.77,380.267 1086.4,381.885 1093.03,382.294 1099.66,383.217 1106.29,383.94 1112.93,385.189 1119.56,385.818 1126.19,386.875 1132.82,387.619 1139.45,388.047 1146.08,389.339 1152.71,389.882 1159.34,390.645 1165.97,390.755 1172.61,391.744 1179.24,392.52 1185.87,393.412 1192.5,392.853 1199.13,394.198 1205.76,394.198 1212.39,394.536 1219.02,394.989 1225.66,395.671 1232.29,395.557 1238.92,396.128 1245.55,396.816 1252.18,397.509 1258.81,398.205 1265.44,398.555 1272.07,399.023 1278.7,399.964 1285.34,400.793 1291.97,401.389 1298.6,402.348 1305.23,402.892 1311.86,403.924 1318.49,405.027 1325.12,406.575 1331.75,407.262 1338.39,408.143 1345.02,408.839 1351.65,409.859 1358.28,410.953 1364.91,411.795 1371.54,412.84 1378.17,413.895 1384.8,414.691 1391.43,415.829 1398.07,416.909 1404.7,417.931 1411.33,419.237 1417.96,420.07 1424.59,421.54 1431.22,422.317 1437.85,423.457 1444.48,424.824 1451.12,425.841 1457.75,427.679 1464.38,428.199 1471.01,429.922 1477.64,431.287 1484.27,432.977 1490.9,433.675 1497.53,435.32 1504.16,436.111 1510.8,438.031 1517.43,439.328 1524.06,441.133 1530.69,442.213 1537.32,443.978 1543.95,445.083 1550.58,446.198 1557.21,449.43 1563.84,450.051 1570.48,452.114 1577.11,453.113 1583.74,455.136 1590.37,455.88 1597,458.045 1603.63,459.863 1610.26,461.025 1616.89,462.1 1623.53,464.679 1630.16,465.686 1636.79,467.622 1643.42,468.343 1650.05,470.637 1656.68,472.014 1663.31,472.547 1669.94,474.053 1676.57,475.688 1683.21,477.679 1689.84,478.35 1696.47,480.842 1703.1,481.415 1709.73,482.686 1716.36,484.56 1722.99,486.103 1729.62,487.183 1736.26,489.31 1742.89,490.172 1749.52,492.605 1756.15,494.126 1762.78,495.602 1769.41,497.096 1776.04,498.807 1782.67,499.805 1789.3,502.508 1795.94,504.297 1802.57,505.341 1809.2,507.885 1815.83,509.321 1822.46,510.92 1829.09,513.061 1835.72,514.485 1842.35,517.074 1848.99,518.311 1855.62,519.955 1862.25,520.746 1868.88,522.423 1875.51,523.96 1882.14,525.517 1888.77,527.429 1895.4,529.031 1902.03,530.053 1908.67,532.038 1915.3,533.79 1921.93,534.587 1928.56,536.016 1935.19,538.009 1941.82,539.572 1948.45,541.437 1955.08,543.044 1961.72,544.192 1968.35,546.031 1974.98,547.701 1981.61,549.093 1988.24,550.805 1994.87,552.542 2001.5,554.303 2008.13,555.879 2014.76,557.475 2021.4,558.984 2028.03,561.393 2034.66,563.176 2041.29,565.441 2047.92,568.45 2054.55,570.102 2061.18,571.957 2067.81,574.701 2074.45,576.315 2081.08,579.865 2087.71,581.418 2094.34,584.586 2100.97,586.541 2107.6,589.219 2114.23,591.32 2120.86,594.542 2127.49,597.107 2134.13,600.562 2140.76,603.493 2147.39,607.137 2154.02,610.644 2160.65,614.425 2167.28,618.416 2173.91,622.815 2180.54,626.904 2187.18,630.355 2193.81,634.811 2200.44,638.913 2207.07,643.265 2213.7,648.678 2220.33,653.987 2226.96,659.847 2233.59,665.612 2240.22,674.769 2246.86,680.421 2253.49,691.85 2260.12,700.34 2266.75,710.864 2273.38,719.626 2280.01,729.501 2286.64,736.828 2293.27,744.005 "/>
<path clip-path="url(#clip790)" d="M1784.69 248.629 L2282.7 248.629 L2282.7 93.1086 L1784.69 93.1086  Z" fill="#ffffff" fill-rule="evenodd" fill-opacity="1"/>
<polyline clip-path="url(#clip790)" style="stroke:#000000; stroke-linecap:round; stroke-linejoin:round; stroke-width:4; stroke-opacity:1; fill:none" points="1784.69,248.629 2282.7,248.629 2282.7,93.1086 1784.69,93.1086 1784.69,248.629 "/>
<polyline clip-path="url(#clip790)" style="stroke:#3da44d; stroke-linecap:round; stroke-linejoin:round; stroke-width:4; stroke-opacity:1; fill:none" points="1808.04,144.949 1948.15,144.949 "/>
<path clip-path="url(#clip790)" d="M1997.06 157.298 L1997.06 148.016 L1989.42 148.016 L1989.42 144.173 L2001.69 144.173 L2001.69 159.011 Q1998.98 160.932 1995.71 161.928 Q1992.45 162.9 1988.75 162.9 Q1980.65 162.9 1976.06 158.178 Q1971.5 153.432 1971.5 144.983 Q1971.5 136.511 1976.06 131.789 Q1980.65 127.044 1988.75 127.044 Q1992.13 127.044 1995.16 127.877 Q1998.21 128.71 2000.78 130.331 L2000.78 135.307 Q1998.19 133.108 1995.28 131.997 Q1992.36 130.886 1989.14 130.886 Q1982.8 130.886 1979.6 134.428 Q1976.43 137.969 1976.43 144.983 Q1976.43 151.974 1979.6 155.516 Q1982.8 159.057 1989.14 159.057 Q1991.62 159.057 1993.56 158.641 Q1995.51 158.201 1997.06 157.298 Z" fill="#000000" fill-rule="nonzero" fill-opacity="1" /><path clip-path="url(#clip790)" d="M2007.89 147.344 L2020.37 147.344 L2020.37 151.141 L2007.89 151.141 L2007.89 147.344 Z" fill="#000000" fill-rule="nonzero" fill-opacity="1" /><path clip-path="url(#clip790)" d="M2048.05 128.803 L2048.05 133.363 Q2045.39 132.09 2043.03 131.465 Q2040.67 130.84 2038.47 130.84 Q2034.65 130.84 2032.57 132.321 Q2030.51 133.803 2030.51 136.534 Q2030.51 138.826 2031.87 140.007 Q2033.26 141.164 2037.1 141.882 L2039.93 142.46 Q2045.16 143.456 2047.64 145.979 Q2050.14 148.479 2050.14 152.692 Q2050.14 157.715 2046.76 160.307 Q2043.4 162.9 2036.9 162.9 Q2034.44 162.9 2031.66 162.344 Q2028.91 161.789 2025.95 160.701 L2025.95 155.886 Q2028.79 157.483 2031.52 158.293 Q2034.26 159.104 2036.9 159.104 Q2040.9 159.104 2043.08 157.53 Q2045.25 155.956 2045.25 153.039 Q2045.25 150.493 2043.68 149.057 Q2042.13 147.622 2038.56 146.905 L2035.71 146.349 Q2030.48 145.307 2028.15 143.085 Q2025.81 140.863 2025.81 136.905 Q2025.81 132.321 2029.02 129.682 Q2032.27 127.044 2037.94 127.044 Q2040.37 127.044 2042.89 127.483 Q2045.41 127.923 2048.05 128.803 Z" fill="#000000" fill-rule="nonzero" fill-opacity="1" /><path clip-path="url(#clip790)" d="M2068.03 164.636 Q2066.22 169.266 2064.51 170.678 Q2062.8 172.09 2059.93 172.09 L2056.52 172.09 L2056.52 168.525 L2059.02 168.525 Q2060.78 168.525 2061.76 167.692 Q2062.73 166.858 2063.91 163.756 L2064.67 161.812 L2054.19 136.303 L2058.7 136.303 L2066.8 156.581 L2074.9 136.303 L2079.42 136.303 L2068.03 164.636 Z" fill="#000000" fill-rule="nonzero" fill-opacity="1" /><path clip-path="url(#clip790)" d="M2105.48 141.28 Q2107.08 138.409 2109.3 137.044 Q2111.52 135.678 2114.53 135.678 Q2118.58 135.678 2120.78 138.525 Q2122.98 141.349 2122.98 146.581 L2122.98 162.229 L2118.7 162.229 L2118.7 146.719 Q2118.7 142.993 2117.38 141.187 Q2116.06 139.382 2113.35 139.382 Q2110.04 139.382 2108.12 141.581 Q2106.2 143.78 2106.2 147.576 L2106.2 162.229 L2101.92 162.229 L2101.92 146.719 Q2101.92 142.969 2100.6 141.187 Q2099.28 139.382 2096.52 139.382 Q2093.26 139.382 2091.34 141.604 Q2089.42 143.803 2089.42 147.576 L2089.42 162.229 L2085.14 162.229 L2085.14 136.303 L2089.42 136.303 L2089.42 140.331 Q2090.88 137.946 2092.91 136.812 Q2094.95 135.678 2097.75 135.678 Q2100.58 135.678 2102.54 137.113 Q2104.53 138.548 2105.48 141.28 Z" fill="#000000" fill-rule="nonzero" fill-opacity="1" /><path clip-path="url(#clip790)" d="M2135.6 158.34 L2135.6 172.09 L2131.32 172.09 L2131.32 136.303 L2135.6 136.303 L2135.6 140.238 Q2136.94 137.923 2138.98 136.812 Q2141.04 135.678 2143.89 135.678 Q2148.61 135.678 2151.55 139.428 Q2154.51 143.178 2154.51 149.289 Q2154.51 155.4 2151.55 159.15 Q2148.61 162.9 2143.89 162.9 Q2141.04 162.9 2138.98 161.789 Q2136.94 160.655 2135.6 158.34 M2150.09 149.289 Q2150.09 144.59 2148.14 141.928 Q2146.22 139.243 2142.84 139.243 Q2139.46 139.243 2137.52 141.928 Q2135.6 144.59 2135.6 149.289 Q2135.6 153.988 2137.52 156.673 Q2139.46 159.335 2142.84 159.335 Q2146.22 159.335 2148.14 156.673 Q2150.09 153.988 2150.09 149.289 Z" fill="#000000" fill-rule="nonzero" fill-opacity="1" /><path clip-path="url(#clip790)" d="M2161.76 127.669 L2168.05 127.669 L2183.38 156.581 L2183.38 127.669 L2187.91 127.669 L2187.91 162.229 L2181.62 162.229 L2166.29 133.317 L2166.29 162.229 L2161.76 162.229 L2161.76 127.669 Z" fill="#000000" fill-rule="nonzero" fill-opacity="1" /><path clip-path="url(#clip790)" d="M2219.21 148.201 L2219.21 150.284 L2199.63 150.284 Q2199.9 154.682 2202.26 156.997 Q2204.65 159.289 2208.89 159.289 Q2211.34 159.289 2213.63 158.687 Q2215.95 158.085 2218.21 156.881 L2218.21 160.909 Q2215.92 161.881 2213.51 162.391 Q2211.11 162.9 2208.63 162.9 Q2202.43 162.9 2198.79 159.289 Q2195.18 155.678 2195.18 149.52 Q2195.18 143.155 2198.61 139.428 Q2202.06 135.678 2207.89 135.678 Q2213.12 135.678 2216.15 139.057 Q2219.21 142.414 2219.21 148.201 M2214.95 146.951 Q2214.9 143.456 2212.98 141.372 Q2211.08 139.289 2207.94 139.289 Q2204.37 139.289 2202.22 141.303 Q2200.09 143.317 2199.76 146.974 L2214.95 146.951 Z" fill="#000000" fill-rule="nonzero" fill-opacity="1" /><path clip-path="url(#clip790)" d="M2230.41 128.942 L2230.41 136.303 L2239.19 136.303 L2239.19 139.613 L2230.41 139.613 L2230.41 153.687 Q2230.41 156.858 2231.27 157.761 Q2232.15 158.664 2234.81 158.664 L2239.19 158.664 L2239.19 162.229 L2234.81 162.229 Q2229.88 162.229 2228.01 160.4 Q2226.13 158.548 2226.13 153.687 L2226.13 139.613 L2223.01 139.613 L2223.01 136.303 L2226.13 136.303 L2226.13 128.942 L2230.41 128.942 Z" fill="#000000" fill-rule="nonzero" fill-opacity="1" /><polyline clip-path="url(#clip790)" style="stroke:#e26f46; stroke-linecap:round; stroke-linejoin:round; stroke-width:4; stroke-opacity:1; fill:none" points="1808.04,196.789 1948.15,196.789 "/>
<path clip-path="url(#clip790)" d="M1971.5 179.509 L1976.18 179.509 L1976.18 210.133 L1993.01 210.133 L1993.01 214.069 L1971.5 214.069 L1971.5 179.509 Z" fill="#000000" fill-rule="nonzero" fill-opacity="1" /><path clip-path="url(#clip790)" d="M2010.55 184.115 L2004.21 201.314 L2016.92 201.314 L2010.55 184.115 M2007.91 179.509 L2013.21 179.509 L2026.39 214.069 L2021.52 214.069 L2018.38 205.203 L2002.8 205.203 L1999.65 214.069 L1994.72 214.069 L2007.91 179.509 Z" fill="#000000" fill-rule="nonzero" fill-opacity="1" /><path clip-path="url(#clip790)" d="M2028.05 199.184 L2040.53 199.184 L2040.53 202.981 L2028.05 202.981 L2028.05 199.184 Z" fill="#000000" fill-rule="nonzero" fill-opacity="1" /><path clip-path="url(#clip790)" d="M2068.21 180.643 L2068.21 185.203 Q2065.55 183.93 2063.19 183.305 Q2060.83 182.68 2058.63 182.68 Q2054.81 182.68 2052.73 184.161 Q2050.67 185.643 2050.67 188.374 Q2050.67 190.666 2052.03 191.847 Q2053.42 193.004 2057.27 193.722 L2060.09 194.3 Q2065.32 195.296 2067.8 197.819 Q2070.3 200.319 2070.3 204.532 Q2070.3 209.555 2066.92 212.147 Q2063.56 214.74 2057.06 214.74 Q2054.6 214.74 2051.83 214.184 Q2049.07 213.629 2046.11 212.541 L2046.11 207.726 Q2048.96 209.323 2051.69 210.133 Q2054.42 210.944 2057.06 210.944 Q2061.06 210.944 2063.24 209.37 Q2065.41 207.796 2065.41 204.879 Q2065.41 202.333 2063.84 200.897 Q2062.29 199.462 2058.72 198.745 L2055.88 198.189 Q2050.65 197.147 2048.31 194.925 Q2045.97 192.703 2045.97 188.745 Q2045.97 184.161 2049.19 181.522 Q2052.43 178.884 2058.1 178.884 Q2060.53 178.884 2063.05 179.323 Q2065.58 179.763 2068.21 180.643 Z" fill="#000000" fill-rule="nonzero" fill-opacity="1" /><path clip-path="url(#clip790)" d="M2088.19 216.476 Q2086.39 221.106 2084.67 222.518 Q2082.96 223.93 2080.09 223.93 L2076.69 223.93 L2076.69 220.365 L2079.19 220.365 Q2080.95 220.365 2081.92 219.532 Q2082.89 218.698 2084.07 215.596 L2084.83 213.652 L2074.35 188.143 L2078.86 188.143 L2086.96 208.421 L2095.07 188.143 L2099.58 188.143 L2088.19 216.476 Z" fill="#000000" fill-rule="nonzero" fill-opacity="1" /><path clip-path="url(#clip790)" d="M2125.64 193.12 Q2127.24 190.249 2129.46 188.884 Q2131.69 187.518 2134.7 187.518 Q2138.75 187.518 2140.95 190.365 Q2143.14 193.189 2143.14 198.421 L2143.14 214.069 L2138.86 214.069 L2138.86 198.559 Q2138.86 194.833 2137.54 193.027 Q2136.22 191.222 2133.52 191.222 Q2130.2 191.222 2128.28 193.421 Q2126.36 195.62 2126.36 199.416 L2126.36 214.069 L2122.08 214.069 L2122.08 198.559 Q2122.08 194.809 2120.76 193.027 Q2119.44 191.222 2116.69 191.222 Q2113.42 191.222 2111.5 193.444 Q2109.58 195.643 2109.58 199.416 L2109.58 214.069 L2105.3 214.069 L2105.3 188.143 L2109.58 188.143 L2109.58 192.171 Q2111.04 189.786 2113.08 188.652 Q2115.11 187.518 2117.91 187.518 Q2120.74 187.518 2122.7 188.953 Q2124.7 190.388 2125.64 193.12 Z" fill="#000000" fill-rule="nonzero" fill-opacity="1" /><path clip-path="url(#clip790)" d="M2155.76 210.18 L2155.76 223.93 L2151.48 223.93 L2151.48 188.143 L2155.76 188.143 L2155.76 192.078 Q2157.1 189.763 2159.14 188.652 Q2161.2 187.518 2164.05 187.518 Q2168.77 187.518 2171.71 191.268 Q2174.67 195.018 2174.67 201.129 Q2174.67 207.24 2171.71 210.99 Q2168.77 214.74 2164.05 214.74 Q2161.2 214.74 2159.14 213.629 Q2157.1 212.495 2155.76 210.18 M2170.25 201.129 Q2170.25 196.43 2168.31 193.768 Q2166.39 191.083 2163.01 191.083 Q2159.63 191.083 2157.68 193.768 Q2155.76 196.43 2155.76 201.129 Q2155.76 205.828 2157.68 208.513 Q2159.63 211.175 2163.01 211.175 Q2166.39 211.175 2168.31 208.513 Q2170.25 205.828 2170.25 201.129 Z" fill="#000000" fill-rule="nonzero" fill-opacity="1" /><path clip-path="url(#clip790)" d="M2181.92 179.509 L2188.21 179.509 L2203.54 208.421 L2203.54 179.509 L2208.07 179.509 L2208.07 214.069 L2201.78 214.069 L2186.45 185.157 L2186.45 214.069 L2181.92 214.069 L2181.92 179.509 Z" fill="#000000" fill-rule="nonzero" fill-opacity="1" /><path clip-path="url(#clip790)" d="M2239.37 200.041 L2239.37 202.124 L2219.79 202.124 Q2220.07 206.522 2222.43 208.837 Q2224.81 211.129 2229.05 211.129 Q2231.5 211.129 2233.79 210.527 Q2236.11 209.925 2238.38 208.721 L2238.38 212.749 Q2236.08 213.721 2233.68 214.231 Q2231.27 214.74 2228.79 214.74 Q2222.59 214.74 2218.95 211.129 Q2215.34 207.518 2215.34 201.36 Q2215.34 194.995 2218.77 191.268 Q2222.22 187.518 2228.05 187.518 Q2233.28 187.518 2236.32 190.897 Q2239.37 194.254 2239.37 200.041 M2235.11 198.791 Q2235.07 195.296 2233.14 193.212 Q2231.25 191.129 2228.1 191.129 Q2224.53 191.129 2222.38 193.143 Q2220.25 195.157 2219.93 198.814 L2235.11 198.791 Z" fill="#000000" fill-rule="nonzero" fill-opacity="1" /><path clip-path="url(#clip790)" d="M2250.57 180.782 L2250.57 188.143 L2259.35 188.143 L2259.35 191.453 L2250.57 191.453 L2250.57 205.527 Q2250.57 208.698 2251.43 209.601 Q2252.31 210.504 2254.97 210.504 L2259.35 210.504 L2259.35 214.069 L2254.97 214.069 Q2250.04 214.069 2248.17 212.24 Q2246.29 210.388 2246.29 205.527 L2246.29 191.453 L2243.17 191.453 L2243.17 188.143 L2246.29 188.143 L2246.29 180.782 L2250.57 180.782 Z" fill="#000000" fill-rule="nonzero" fill-opacity="1" /></svg>
