<?xml version="1.0" encoding="utf-8"?>
<svg xmlns="http://www.w3.org/2000/svg" xmlns:xlink="http://www.w3.org/1999/xlink" width="600" height="400" viewBox="0 0 2400 1600">
<defs>
  <clipPath id="clip050">
    <rect x="0" y="0" width="2400" height="1600"/>
  </clipPath>
</defs>
<path clip-path="url(#clip050)" d="M0 1600 L2400 1600 L2400 0 L0 0  Z" fill="#ffffff" fill-rule="evenodd" fill-opacity="1"/>
<defs>
  <clipPath id="clip051">
    <rect x="480" y="0" width="1681" height="1600"/>
  </clipPath>
</defs>
<path clip-path="url(#clip050)" d="M193.936 1486.45 L2352.76 1486.45 L2352.76 47.2441 L193.936 47.2441  Z" fill="#ffffff" fill-rule="evenodd" fill-opacity="1"/>
<defs>
  <clipPath id="clip052">
    <rect x="193" y="47" width="2160" height="1440"/>
  </clipPath>
</defs>
<polyline clip-path="url(#clip052)" style="stroke:#000000; stroke-linecap:round; stroke-linejoin:round; stroke-width:2; stroke-opacity:0.1; fill:none" points="345.632,1486.45 345.632,47.2441 "/>
<polyline clip-path="url(#clip052)" style="stroke:#000000; stroke-linecap:round; stroke-linejoin:round; stroke-width:2; stroke-opacity:0.1; fill:none" points="809.489,1486.45 809.489,47.2441 "/>
<polyline clip-path="url(#clip052)" style="stroke:#000000; stroke-linecap:round; stroke-linejoin:round; stroke-width:2; stroke-opacity:0.1; fill:none" points="1273.35,1486.45 1273.35,47.2441 "/>
<polyline clip-path="url(#clip052)" style="stroke:#000000; stroke-linecap:round; stroke-linejoin:round; stroke-width:2; stroke-opacity:0.1; fill:none" points="1737.2,1486.45 1737.2,47.2441 "/>
<polyline clip-path="url(#clip052)" style="stroke:#000000; stroke-linecap:round; stroke-linejoin:round; stroke-width:2; stroke-opacity:0.1; fill:none" points="2201.06,1486.45 2201.06,47.2441 "/>
<polyline clip-path="url(#clip050)" style="stroke:#000000; stroke-linecap:round; stroke-linejoin:round; stroke-width:4; stroke-opacity:1; fill:none" points="193.936,1486.45 2352.76,1486.45 "/>
<polyline clip-path="url(#clip050)" style="stroke:#000000; stroke-linecap:round; stroke-linejoin:round; stroke-width:4; stroke-opacity:1; fill:none" points="345.632,1486.45 345.632,1467.55 "/>
<polyline clip-path="url(#clip050)" style="stroke:#000000; stroke-linecap:round; stroke-linejoin:round; stroke-width:4; stroke-opacity:1; fill:none" points="809.489,1486.45 809.489,1467.55 "/>
<polyline clip-path="url(#clip050)" style="stroke:#000000; stroke-linecap:round; stroke-linejoin:round; stroke-width:4; stroke-opacity:1; fill:none" points="1273.35,1486.45 1273.35,1467.55 "/>
<polyline clip-path="url(#clip050)" style="stroke:#000000; stroke-linecap:round; stroke-linejoin:round; stroke-width:4; stroke-opacity:1; fill:none" points="1737.2,1486.45 1737.2,1467.55 "/>
<polyline clip-path="url(#clip050)" style="stroke:#000000; stroke-linecap:round; stroke-linejoin:round; stroke-width:4; stroke-opacity:1; fill:none" points="2201.06,1486.45 2201.06,1467.55 "/>
<path clip-path="url(#clip050)" d="M292.16 1532.02 L321.836 1532.02 L321.836 1535.95 L292.16 1535.95 L292.16 1532.02 Z" fill="#000000" fill-rule="nonzero" fill-opacity="1" /><path clip-path="url(#clip050)" d="M332.738 1544.91 L340.377 1544.91 L340.377 1518.55 L332.067 1520.21 L332.067 1515.95 L340.331 1514.29 L345.007 1514.29 L345.007 1544.91 L352.646 1544.91 L352.646 1548.85 L332.738 1548.85 L332.738 1544.91 Z" fill="#000000" fill-rule="nonzero" fill-opacity="1" /><path clip-path="url(#clip050)" d="M362.09 1542.97 L366.974 1542.97 L366.974 1548.85 L362.09 1548.85 L362.09 1542.97 Z" fill="#000000" fill-rule="nonzero" fill-opacity="1" /><path clip-path="url(#clip050)" d="M387.159 1517.37 Q383.548 1517.37 381.72 1520.93 Q379.914 1524.47 379.914 1531.6 Q379.914 1538.71 381.72 1542.27 Q383.548 1545.82 387.159 1545.82 Q390.794 1545.82 392.599 1542.27 Q394.428 1538.71 394.428 1531.6 Q394.428 1524.47 392.599 1520.93 Q390.794 1517.37 387.159 1517.37 M387.159 1513.66 Q392.969 1513.66 396.025 1518.27 Q399.104 1522.85 399.104 1531.6 Q399.104 1540.33 396.025 1544.94 Q392.969 1549.52 387.159 1549.52 Q381.349 1549.52 378.27 1544.94 Q375.215 1540.33 375.215 1531.6 Q375.215 1522.85 378.27 1518.27 Q381.349 1513.66 387.159 1513.66 Z" fill="#000000" fill-rule="nonzero" fill-opacity="1" /><path clip-path="url(#clip050)" d="M756.515 1532.02 L786.19 1532.02 L786.19 1535.95 L756.515 1535.95 L756.515 1532.02 Z" fill="#000000" fill-rule="nonzero" fill-opacity="1" /><path clip-path="url(#clip050)" d="M806.283 1517.37 Q802.672 1517.37 800.843 1520.93 Q799.038 1524.47 799.038 1531.6 Q799.038 1538.71 800.843 1542.27 Q802.672 1545.82 806.283 1545.82 Q809.917 1545.82 811.723 1542.27 Q813.551 1538.71 813.551 1531.6 Q813.551 1524.47 811.723 1520.93 Q809.917 1517.37 806.283 1517.37 M806.283 1513.66 Q812.093 1513.66 815.149 1518.27 Q818.227 1522.85 818.227 1531.6 Q818.227 1540.33 815.149 1544.94 Q812.093 1549.52 806.283 1549.52 Q800.473 1549.52 797.394 1544.94 Q794.338 1540.33 794.338 1531.6 Q794.338 1522.85 797.394 1518.27 Q800.473 1513.66 806.283 1513.66 Z" fill="#000000" fill-rule="nonzero" fill-opacity="1" /><path clip-path="url(#clip050)" d="M826.445 1542.97 L831.329 1542.97 L831.329 1548.85 L826.445 1548.85 L826.445 1542.97 Z" fill="#000000" fill-rule="nonzero" fill-opacity="1" /><path clip-path="url(#clip050)" d="M841.56 1514.29 L859.917 1514.29 L859.917 1518.22 L845.843 1518.22 L845.843 1526.7 Q846.861 1526.35 847.88 1526.19 Q848.898 1526 849.917 1526 Q855.704 1526 859.083 1529.17 Q862.463 1532.34 862.463 1537.76 Q862.463 1543.34 858.991 1546.44 Q855.519 1549.52 849.199 1549.52 Q847.023 1549.52 844.755 1549.15 Q842.51 1548.78 840.102 1548.04 L840.102 1543.34 Q842.185 1544.47 844.408 1545.03 Q846.63 1545.58 849.107 1545.58 Q853.111 1545.58 855.449 1543.48 Q857.787 1541.37 857.787 1537.76 Q857.787 1534.15 855.449 1532.04 Q853.111 1529.94 849.107 1529.94 Q847.232 1529.94 845.357 1530.35 Q843.505 1530.77 841.56 1531.65 L841.56 1514.29 Z" fill="#000000" fill-rule="nonzero" fill-opacity="1" /><path clip-path="url(#clip050)" d="M1250.73 1517.37 Q1247.12 1517.37 1245.29 1520.93 Q1243.49 1524.47 1243.49 1531.6 Q1243.49 1538.71 1245.29 1542.27 Q1247.12 1545.82 1250.73 1545.82 Q1254.36 1545.82 1256.17 1542.27 Q1258 1538.71 1258 1531.6 Q1258 1524.47 1256.17 1520.93 Q1254.36 1517.37 1250.73 1517.37 M1250.73 1513.66 Q1256.54 1513.66 1259.6 1518.27 Q1262.67 1522.85 1262.67 1531.6 Q1262.67 1540.33 1259.6 1544.94 Q1256.54 1549.52 1250.73 1549.52 Q1244.92 1549.52 1241.84 1544.94 Q1238.79 1540.33 1238.79 1531.6 Q1238.79 1522.85 1241.84 1518.27 Q1244.92 1513.66 1250.73 1513.66 Z" fill="#000000" fill-rule="nonzero" fill-opacity="1" /><path clip-path="url(#clip050)" d="M1270.89 1542.97 L1275.78 1542.97 L1275.78 1548.85 L1270.89 1548.85 L1270.89 1542.97 Z" fill="#000000" fill-rule="nonzero" fill-opacity="1" /><path clip-path="url(#clip050)" d="M1295.96 1517.37 Q1292.35 1517.37 1290.52 1520.93 Q1288.72 1524.47 1288.72 1531.6 Q1288.72 1538.71 1290.52 1542.27 Q1292.35 1545.82 1295.96 1545.82 Q1299.6 1545.82 1301.4 1542.27 Q1303.23 1538.71 1303.23 1531.6 Q1303.23 1524.47 1301.4 1520.93 Q1299.6 1517.37 1295.96 1517.37 M1295.96 1513.66 Q1301.77 1513.66 1304.83 1518.27 Q1307.91 1522.85 1307.91 1531.6 Q1307.91 1540.33 1304.83 1544.94 Q1301.77 1549.52 1295.96 1549.52 Q1290.15 1549.52 1287.07 1544.94 Q1284.02 1540.33 1284.02 1531.6 Q1284.02 1522.85 1287.07 1518.27 Q1290.15 1513.66 1295.96 1513.66 Z" fill="#000000" fill-rule="nonzero" fill-opacity="1" /><path clip-path="url(#clip050)" d="M1715.09 1517.37 Q1711.47 1517.37 1709.65 1520.93 Q1707.84 1524.47 1707.84 1531.6 Q1707.84 1538.71 1709.65 1542.27 Q1711.47 1545.82 1715.09 1545.82 Q1718.72 1545.82 1720.52 1542.27 Q1722.35 1538.71 1722.35 1531.6 Q1722.35 1524.47 1720.52 1520.93 Q1718.72 1517.37 1715.09 1517.37 M1715.09 1513.66 Q1720.9 1513.66 1723.95 1518.27 Q1727.03 1522.85 1727.03 1531.6 Q1727.03 1540.33 1723.95 1544.94 Q1720.9 1549.52 1715.09 1549.52 Q1709.27 1549.52 1706.2 1544.94 Q1703.14 1540.33 1703.14 1531.6 Q1703.14 1522.85 1706.2 1518.27 Q1709.27 1513.66 1715.09 1513.66 Z" fill="#000000" fill-rule="nonzero" fill-opacity="1" /><path clip-path="url(#clip050)" d="M1735.25 1542.97 L1740.13 1542.97 L1740.13 1548.85 L1735.25 1548.85 L1735.25 1542.97 Z" fill="#000000" fill-rule="nonzero" fill-opacity="1" /><path clip-path="url(#clip050)" d="M1750.36 1514.29 L1768.72 1514.29 L1768.72 1518.22 L1754.65 1518.22 L1754.65 1526.7 Q1755.66 1526.35 1756.68 1526.19 Q1757.7 1526 1758.72 1526 Q1764.51 1526 1767.89 1529.17 Q1771.27 1532.34 1771.27 1537.76 Q1771.27 1543.34 1767.79 1546.44 Q1764.32 1549.52 1758 1549.52 Q1755.83 1549.52 1753.56 1549.15 Q1751.31 1548.78 1748.9 1548.04 L1748.9 1543.34 Q1750.99 1544.47 1753.21 1545.03 Q1755.43 1545.58 1757.91 1545.58 Q1761.91 1545.58 1764.25 1543.48 Q1766.59 1541.37 1766.59 1537.76 Q1766.59 1534.15 1764.25 1532.04 Q1761.91 1529.94 1757.91 1529.94 Q1756.03 1529.94 1754.16 1530.35 Q1752.31 1530.77 1750.36 1531.65 L1750.36 1514.29 Z" fill="#000000" fill-rule="nonzero" fill-opacity="1" /><path clip-path="url(#clip050)" d="M2168.21 1544.91 L2175.85 1544.91 L2175.85 1518.55 L2167.54 1520.21 L2167.54 1515.95 L2175.81 1514.29 L2180.48 1514.29 L2180.48 1544.91 L2188.12 1544.91 L2188.12 1548.85 L2168.21 1548.85 L2168.21 1544.91 Z" fill="#000000" fill-rule="nonzero" fill-opacity="1" /><path clip-path="url(#clip050)" d="M2197.56 1542.97 L2202.45 1542.97 L2202.45 1548.85 L2197.56 1548.85 L2197.56 1542.97 Z" fill="#000000" fill-rule="nonzero" fill-opacity="1" /><path clip-path="url(#clip050)" d="M2222.63 1517.37 Q2219.02 1517.37 2217.19 1520.93 Q2215.39 1524.47 2215.39 1531.6 Q2215.39 1538.71 2217.19 1542.27 Q2219.02 1545.82 2222.63 1545.82 Q2226.27 1545.82 2228.07 1542.27 Q2229.9 1538.71 2229.9 1531.6 Q2229.9 1524.47 2228.07 1520.93 Q2226.27 1517.37 2222.63 1517.37 M2222.63 1513.66 Q2228.44 1513.66 2231.5 1518.27 Q2234.58 1522.85 2234.58 1531.6 Q2234.58 1540.33 2231.5 1544.94 Q2228.44 1549.52 2222.63 1549.52 Q2216.82 1549.52 2213.75 1544.94 Q2210.69 1540.33 2210.69 1531.6 Q2210.69 1522.85 2213.75 1518.27 Q2216.82 1513.66 2222.63 1513.66 Z" fill="#000000" fill-rule="nonzero" fill-opacity="1" /><polyline clip-path="url(#clip052)" style="stroke:#000000; stroke-linecap:round; stroke-linejoin:round; stroke-width:2; stroke-opacity:0.1; fill:none" points="193.936,1429.5 2352.76,1429.5 "/>
<polyline clip-path="url(#clip052)" style="stroke:#000000; stroke-linecap:round; stroke-linejoin:round; stroke-width:2; stroke-opacity:0.1; fill:none" points="193.936,1097.36 2352.76,1097.36 "/>
<polyline clip-path="url(#clip052)" style="stroke:#000000; stroke-linecap:round; stroke-linejoin:round; stroke-width:2; stroke-opacity:0.1; fill:none" points="193.936,765.224 2352.76,765.224 "/>
<polyline clip-path="url(#clip052)" style="stroke:#000000; stroke-linecap:round; stroke-linejoin:round; stroke-width:2; stroke-opacity:0.1; fill:none" points="193.936,433.087 2352.76,433.087 "/>
<polyline clip-path="url(#clip052)" style="stroke:#000000; stroke-linecap:round; stroke-linejoin:round; stroke-width:2; stroke-opacity:0.1; fill:none" points="193.936,100.95 2352.76,100.95 "/>
<polyline clip-path="url(#clip050)" style="stroke:#000000; stroke-linecap:round; stroke-linejoin:round; stroke-width:4; stroke-opacity:1; fill:none" points="193.936,1486.45 193.936,47.2441 "/>
<polyline clip-path="url(#clip050)" style="stroke:#000000; stroke-linecap:round; stroke-linejoin:round; stroke-width:4; stroke-opacity:1; fill:none" points="193.936,1429.5 212.834,1429.5 "/>
<polyline clip-path="url(#clip050)" style="stroke:#000000; stroke-linecap:round; stroke-linejoin:round; stroke-width:4; stroke-opacity:1; fill:none" points="193.936,1097.36 212.834,1097.36 "/>
<polyline clip-path="url(#clip050)" style="stroke:#000000; stroke-linecap:round; stroke-linejoin:round; stroke-width:4; stroke-opacity:1; fill:none" points="193.936,765.224 212.834,765.224 "/>
<polyline clip-path="url(#clip050)" style="stroke:#000000; stroke-linecap:round; stroke-linejoin:round; stroke-width:4; stroke-opacity:1; fill:none" points="193.936,433.087 212.834,433.087 "/>
<polyline clip-path="url(#clip050)" style="stroke:#000000; stroke-linecap:round; stroke-linejoin:round; stroke-width:4; stroke-opacity:1; fill:none" points="193.936,100.95 212.834,100.95 "/>
<path clip-path="url(#clip050)" d="M50.9921 1429.95 L80.6679 1429.95 L80.6679 1433.88 L50.9921 1433.88 L50.9921 1429.95 Z" fill="#000000" fill-rule="nonzero" fill-opacity="1" /><path clip-path="url(#clip050)" d="M91.5706 1442.84 L99.2095 1442.84 L99.2095 1416.48 L90.8993 1418.14 L90.8993 1413.88 L99.1632 1412.22 L103.839 1412.22 L103.839 1442.84 L111.478 1442.84 L111.478 1446.78 L91.5706 1446.78 L91.5706 1442.84 Z" fill="#000000" fill-rule="nonzero" fill-opacity="1" /><path clip-path="url(#clip050)" d="M120.922 1440.9 L125.807 1440.9 L125.807 1446.78 L120.922 1446.78 L120.922 1440.9 Z" fill="#000000" fill-rule="nonzero" fill-opacity="1" /><path clip-path="url(#clip050)" d="M145.992 1415.3 Q142.381 1415.3 140.552 1418.86 Q138.746 1422.4 138.746 1429.53 Q138.746 1436.64 140.552 1440.2 Q142.381 1443.75 145.992 1443.75 Q149.626 1443.75 151.431 1440.2 Q153.26 1436.64 153.26 1429.53 Q153.26 1422.4 151.431 1418.86 Q149.626 1415.3 145.992 1415.3 M145.992 1411.59 Q151.802 1411.59 154.857 1416.2 Q157.936 1420.78 157.936 1429.53 Q157.936 1438.26 154.857 1442.87 Q151.802 1447.45 145.992 1447.45 Q140.181 1447.45 137.103 1442.87 Q134.047 1438.26 134.047 1429.53 Q134.047 1420.78 137.103 1416.2 Q140.181 1411.59 145.992 1411.59 Z" fill="#000000" fill-rule="nonzero" fill-opacity="1" /><path clip-path="url(#clip050)" d="M51.9875 1097.81 L81.6633 1097.81 L81.6633 1101.75 L51.9875 1101.75 L51.9875 1097.81 Z" fill="#000000" fill-rule="nonzero" fill-opacity="1" /><path clip-path="url(#clip050)" d="M101.756 1083.16 Q98.1447 1083.16 96.316 1086.72 Q94.5104 1090.27 94.5104 1097.4 Q94.5104 1104.5 96.316 1108.07 Q98.1447 1111.61 101.756 1111.61 Q105.39 1111.61 107.196 1108.07 Q109.024 1104.5 109.024 1097.4 Q109.024 1090.27 107.196 1086.72 Q105.39 1083.16 101.756 1083.16 M101.756 1079.46 Q107.566 1079.46 110.621 1084.06 Q113.7 1088.65 113.7 1097.4 Q113.7 1106.12 110.621 1110.73 Q107.566 1115.31 101.756 1115.31 Q95.9456 1115.31 92.8669 1110.73 Q89.8114 1106.12 89.8114 1097.4 Q89.8114 1088.65 92.8669 1084.06 Q95.9456 1079.46 101.756 1079.46 Z" fill="#000000" fill-rule="nonzero" fill-opacity="1" /><path clip-path="url(#clip050)" d="M121.918 1108.76 L126.802 1108.76 L126.802 1114.64 L121.918 1114.64 L121.918 1108.76 Z" fill="#000000" fill-rule="nonzero" fill-opacity="1" /><path clip-path="url(#clip050)" d="M137.033 1080.08 L155.39 1080.08 L155.39 1084.02 L141.316 1084.02 L141.316 1092.49 Q142.334 1092.14 143.353 1091.98 Q144.371 1091.79 145.39 1091.79 Q151.177 1091.79 154.556 1094.97 Q157.936 1098.14 157.936 1103.55 Q157.936 1109.13 154.464 1112.23 Q150.992 1115.31 144.672 1115.31 Q142.496 1115.31 140.228 1114.94 Q137.982 1114.57 135.575 1113.83 L135.575 1109.13 Q137.658 1110.27 139.881 1110.82 Q142.103 1111.38 144.58 1111.38 Q148.584 1111.38 150.922 1109.27 Q153.26 1107.16 153.26 1103.55 Q153.26 1099.94 150.922 1097.84 Q148.584 1095.73 144.58 1095.73 Q142.705 1095.73 140.83 1096.15 Q138.978 1096.56 137.033 1097.44 L137.033 1080.08 Z" fill="#000000" fill-rule="nonzero" fill-opacity="1" /><path clip-path="url(#clip050)" d="M100.76 751.023 Q97.1493 751.023 95.3206 754.588 Q93.515 758.129 93.515 765.259 Q93.515 772.365 95.3206 775.93 Q97.1493 779.472 100.76 779.472 Q104.395 779.472 106.2 775.93 Q108.029 772.365 108.029 765.259 Q108.029 758.129 106.2 754.588 Q104.395 751.023 100.76 751.023 M100.76 747.319 Q106.571 747.319 109.626 751.926 Q112.705 756.509 112.705 765.259 Q112.705 773.986 109.626 778.592 Q106.571 783.176 100.76 783.176 Q94.9502 783.176 91.8715 778.592 Q88.816 773.986 88.816 765.259 Q88.816 756.509 91.8715 751.926 Q94.9502 747.319 100.76 747.319 Z" fill="#000000" fill-rule="nonzero" fill-opacity="1" /><path clip-path="url(#clip050)" d="M120.922 776.625 L125.807 776.625 L125.807 782.504 L120.922 782.504 L120.922 776.625 Z" fill="#000000" fill-rule="nonzero" fill-opacity="1" /><path clip-path="url(#clip050)" d="M145.992 751.023 Q142.381 751.023 140.552 754.588 Q138.746 758.129 138.746 765.259 Q138.746 772.365 140.552 775.93 Q142.381 779.472 145.992 779.472 Q149.626 779.472 151.431 775.93 Q153.26 772.365 153.26 765.259 Q153.26 758.129 151.431 754.588 Q149.626 751.023 145.992 751.023 M145.992 747.319 Q151.802 747.319 154.857 751.926 Q157.936 756.509 157.936 765.259 Q157.936 773.986 154.857 778.592 Q151.802 783.176 145.992 783.176 Q140.181 783.176 137.103 778.592 Q134.047 773.986 134.047 765.259 Q134.047 756.509 137.103 751.926 Q140.181 747.319 145.992 747.319 Z" fill="#000000" fill-rule="nonzero" fill-opacity="1" /><path clip-path="url(#clip050)" d="M101.756 418.886 Q98.1447 418.886 96.316 422.451 Q94.5104 425.992 94.5104 433.122 Q94.5104 440.228 96.316 443.793 Q98.1447 447.335 101.756 447.335 Q105.39 447.335 107.196 443.793 Q109.024 440.228 109.024 433.122 Q109.024 425.992 107.196 422.451 Q105.39 418.886 101.756 418.886 M101.756 415.182 Q107.566 415.182 110.621 419.789 Q113.7 424.372 113.7 433.122 Q113.7 441.849 110.621 446.455 Q107.566 451.039 101.756 451.039 Q95.9456 451.039 92.8669 446.455 Q89.8114 441.849 89.8114 433.122 Q89.8114 424.372 92.8669 419.789 Q95.9456 415.182 101.756 415.182 Z" fill="#000000" fill-rule="nonzero" fill-opacity="1" /><path clip-path="url(#clip050)" d="M121.918 444.488 L126.802 444.488 L126.802 450.367 L121.918 450.367 L121.918 444.488 Z" fill="#000000" fill-rule="nonzero" fill-opacity="1" /><path clip-path="url(#clip050)" d="M137.033 415.807 L155.39 415.807 L155.39 419.742 L141.316 419.742 L141.316 428.215 Q142.334 427.867 143.353 427.705 Q144.371 427.52 145.39 427.52 Q151.177 427.52 154.556 430.691 Q157.936 433.863 157.936 439.279 Q157.936 444.858 154.464 447.96 Q150.992 451.039 144.672 451.039 Q142.496 451.039 140.228 450.668 Q137.982 450.298 135.575 449.557 L135.575 444.858 Q137.658 445.992 139.881 446.548 Q142.103 447.103 144.58 447.103 Q148.584 447.103 150.922 444.997 Q153.26 442.89 153.26 439.279 Q153.26 435.668 150.922 433.562 Q148.584 431.455 144.58 431.455 Q142.705 431.455 140.83 431.872 Q138.978 432.289 137.033 433.168 L137.033 415.807 Z" fill="#000000" fill-rule="nonzero" fill-opacity="1" /><path clip-path="url(#clip050)" d="M91.5706 114.295 L99.2095 114.295 L99.2095 87.9296 L90.8993 89.5963 L90.8993 85.337 L99.1632 83.6704 L103.839 83.6704 L103.839 114.295 L111.478 114.295 L111.478 118.23 L91.5706 118.23 L91.5706 114.295 Z" fill="#000000" fill-rule="nonzero" fill-opacity="1" /><path clip-path="url(#clip050)" d="M120.922 112.351 L125.807 112.351 L125.807 118.23 L120.922 118.23 L120.922 112.351 Z" fill="#000000" fill-rule="nonzero" fill-opacity="1" /><path clip-path="url(#clip050)" d="M145.992 86.7491 Q142.381 86.7491 140.552 90.3139 Q138.746 93.8555 138.746 100.985 Q138.746 108.092 140.552 111.656 Q142.381 115.198 145.992 115.198 Q149.626 115.198 151.431 111.656 Q153.26 108.092 153.26 100.985 Q153.26 93.8555 151.431 90.3139 Q149.626 86.7491 145.992 86.7491 M145.992 83.0454 Q151.802 83.0454 154.857 87.6518 Q157.936 92.2351 157.936 100.985 Q157.936 109.712 154.857 114.318 Q151.802 118.902 145.992 118.902 Q140.181 118.902 137.103 114.318 Q134.047 109.712 134.047 100.985 Q134.047 92.2351 137.103 87.6518 Q140.181 83.0454 145.992 83.0454 Z" fill="#000000" fill-rule="nonzero" fill-opacity="1" /><polyline clip-path="url(#clip052)" style="stroke:#009af9; stroke-linecap:round; stroke-linejoin:round; stroke-width:4; stroke-opacity:1; fill:none" points="1273.35,100.95 1365.87,104.194 1457.48,114.249 1547.4,130.466 1634.38,152.522 1717.95,180.741 1797.45,213.825 1871.74,251.45 1940.59,293.291 2003.11,338.701 2059.28,387.354 2108.65,438.115 2150.78,491.146 2185.21,545.8 2211.93,601.507 2230.96,658.188 2241.83,715.396 2244.55,772.882 2240.02,830.297 2226.43,887.424 2205.59,943.942 2176.6,999.407 2140.36,1053.57 2096.42,1106.12 2045.23,1156.39 1987.25,1204.07 1922.93,1248.51 1852.26,1289.38 1776.61,1326.03 1696.21,1357.82 1611.5,1384.41 1523.62,1405.17 1433.25,1419.44 1341.29,1427.88 1248.66,1429.17 1156.25,1424.31 1065.09,1412.63 975.961,1394.79 889.667,1370.79 807.224,1341.6 728.857,1307.22 655.927,1268.29 588.885,1225.16 527.732,1179.1 473.374,1129.8 426.263,1078.39 385.947,1024.87 353.786,969.891 329.324,913.859 312.111,857.016 303.051,799.727 303.051,742.256 309.393,684.866 324.794,627.942 347.897,571.748 379.153,516.446 417.656,462.766 463.408,410.707 516.407,361.081 576.201,314.05 641.884,270.587 713.909,230.691 790.916,195.337 872.68,165.172 958.295,140.197 1046.97,121.06 1137.79,108.086 1230.06,101.599 1322.72,101.923 1414.9,108.735 1505.73,122.033 1594.06,141.494 1679.45,166.794 1760.76,197.607 1837.77,233.286 1909.34,273.506 1974.57,317.293 2033.91,364.325 2086.45,413.951 2131.75,466.171 2169.8,520.014 2200.15,575.316 2222.8,631.672 2237.3,688.636 2244.55,746.027 2242.73,803.518 2233.68,860.827 2216.46,917.589 2191.09,973.621 2158.03,1028.44 2117.71,1081.79 2069.69,1133.04 2014.88,1182.02 1953.73,1228.08 1885.78,1270.89 1812.85,1309.49 1734.26,1343.54 1651.59,1372.74 1565.07,1396.09 1475.72,1413.6 1384.38,1424.63 1291.95,1429.5 1199.34,1427.23 1107.44,1418.79 1017.18,1403.87 929.53,1382.79 845.048,1355.87 765.096,1323.76 689.448,1286.78 619.688,1245.91 555.364,1201.15 497.835,1153.15 447.553,1102.55 404.067,1050.01 367.828,995.839 339.29,940.212 319.359,883.694 306.675,826.527 302.145,769.106 305.769,711.625 316.641,654.458 336.572,597.858 363.751,542.07 398.631,487.579 441.212,434.709 490.587,384.11 547.21,335.782 610.628,290.372 679.482,248.855 754.225,211.555 833.95,178.471 917.979,150.901 1005.18,129.169 1095.21,113.276 1186.88,103.87 1279.44,100.95 1371.93,104.843 1463.49,114.898 1553.06,131.764 1640.04,154.469 1723.39,182.687 1802.43,216.096 1876.27,254.045 1944.67,296.211 2007.18,341.944 2062.9,390.597 2111.82,441.683 2153.04,494.714 2187.02,549.368 2213.74,605.237 2231.86,661.918 2241.83,719.207 2244.55,776.658 2239.11,834.068 2225.52,891.154 2203.78,947.51 2174.33,1002.97 2137.64,1057.14 2093.25,1109.36 2041.61,1159.64 1983.17,1206.99 1918.4,1251.43 1847.73,1291.97 1771.63,1328.3 1690.77,1359.76 1605.84,1385.71 1517.73,1406.14 1427.25,1420.42 1335.18,1427.88 1242.57,1429.17 1150.25,1423.66 1059.08,1411.66 970.072,1393.17 884.005,1369.17 801.788,1339.33 723.875,1304.62 651.397,1265.38 584.808,1222.24 524.108,1175.85 470.203,1126.55 423.092,1074.82 383.683,1021.3 351.974,966.323 327.512,910.21 311.205,853.286 303.051,795.957 303.051,738.465 310.299,681.136 326.606,624.212 349.709,568.018 381.418,512.878 420.374,459.198 466.579,407.463 520.031,357.838 580.278,311.131 646.867,267.992 718.892,228.421 796.352,193.391 878.343,163.226 963.957,138.575 "/>
<polyline clip-path="url(#clip052)" style="stroke:#e26f46; stroke-linecap:round; stroke-linejoin:round; stroke-width:4; stroke-opacity:1; fill:none" points="1273.35,100.95 1363.94,116.519 1451.82,135.007 1536.53,156.739 1618.97,179.444 1699.15,203.446 1775.25,228.745 1847.73,255.342 1916.13,283.236 1981.82,313.077 2041.16,346.81 2095.51,383.461 2142.63,423.681 2184.3,468.928 2218.27,517.743 2246.36,571.91 2267.2,630.942 2281.69,694.515 2287.13,762.954 2283.5,834.636 2269.91,909.237 2244.55,985.784 2204.68,1062.82 2151.23,1137.91 2084.64,1208.29 2006.28,1272.19 1917.94,1327.33 1823.27,1371.44 1724.97,1403.87 1626.22,1425.61 1528.38,1437.28 1429.63,1439.23 1334.95,1433.39 1242.54,1421.06 1153.76,1404.85 1068.14,1385.71 983.435,1363.33 904.616,1340.63 827.155,1315.97 753.319,1290.35 683.559,1263.43 615.611,1235.54 552.646,1205.05 495.117,1171.31 440.759,1133.69 394.101,1092.17 354.238,1045.79 321.171,995.19 295.803,939.726 275.872,879.396 264.094,814.526 259.565,745.114 265,671.811 281.308,595.912 312.111,518.392 356.503,441.683 414.939,367.568 485.604,297.832 568.048,235.881 659.098,183.985 756.037,143.116 856.146,113.6 957.162,95.7607 1055.91,87.9763 1152.4,89.2737 1245.26,97.0581 1337.67,111.005 1426.46,129.169 1512.07,149.603 1595.42,171.659 1675.14,195.013 1753.06,219.663 1826.89,245.287 1898.01,273.182 1963.24,302.698 2026.21,335.133 2081.02,370.812 2132.21,410.058 2176.6,454.17 2212.84,502.499 2244.55,556.017 2266.29,614.076 2282.6,676.676 2291.66,744.141 2290.75,816.148 2279.88,891.397 2258.14,968.755 2221.9,1047.9 2169.8,1125.58 2103.22,1198.56 2025.75,1266.02 1938.33,1323.11 1842.75,1370.14 1743.54,1405.5 1641.62,1430.15 1539.25,1443.12 1439.59,1445.72 1343.56,1440.53 1251.6,1430.15 1160.1,1413.93 1074.03,1394.79 989.777,1372.74 908.693,1349.71 829.873,1325.38 754.678,1299.43 681.294,1271.86 612.44,1243.32 548.116,1211.86 489.228,1177.8 435.776,1140.18 389.118,1098.33 348.35,1051.79 315.735,1000.06 289.462,943.942 271.342,883.613 258.659,818.418 255.035,748.358 261.376,675.054 279.496,598.183 309.393,520.014 353.333,442.007 413.58,366.595 486.057,296.859 568.501,234.908 659.551,183.012 756.943,142.467 857.052,112.627 958.068,95.112 1058.18,87.9763 1156.02,89.2737 1250.7,97.7069 1342.2,111.978 1430.53,130.142 1515.69,150.901 1598.59,173.281 1677.41,197.283 1753.51,222.583 1827.8,248.855 1897.11,275.776 1963.24,305.292 2025.3,337.728 2081.47,373.731 2132.21,413.951 2175.69,457.738 2213.74,506.715 2242.73,560.233 2265.38,618.293 2280.79,681.866 2288.03,749.007 2286.22,820.04 2275.35,895.29 2251.79,972.323 2214.65,1050.49 2163.01,1127.2 2097.33,1199.86 2019.87,1265.05 1932.89,1321.81 1838.67,1368.52 1739.47,1403.87 1639.36,1426.9 1537.89,1439.23 1440.04,1442.47 1343.11,1437.28 1249.79,1425.28 1161.01,1408.74 1074.49,1388.95 990.683,1367.87 909.599,1344.84 831.685,1320.19 757.849,1295.86 687.183,1269.59 618.782,1241.05 554.911,1210.24 496.929,1176.5 445.742,1139.53 397.725,1098.01 357.409,1052.28 323.888,1002.33 296.709,946.862 277.684,886.856 265.906,822.31 261.376,754.196 265.906,681.541 281.308,605.967 309.393,528.771 350.615,451.089 408.144,376.65 476.545,306.59 557.176,243.665 646.867,190.147 742.9,147.333 843.916,116.519 944.932,97.0581 1045.49,87.9763 1143.34,87.9763 1238.47,96.4094 1330.42,109.059 1420.11,126.899 1505.27,147.657 1588.62,170.362 "/>
<polyline clip-path="url(#clip052)" style="stroke:#3da44d; stroke-linecap:round; stroke-linejoin:round; stroke-width:4; stroke-opacity:1; fill:none" points="1273.35,100.95 1362.58,107.437 1451.26,120.087 1538.8,138.9 1624.41,163.55 1707.76,193.391 1787.94,228.097 1864.04,267.343 1935.61,310.482 2001.75,357.189 2062.45,406.815 2116.8,458.873 2163.46,513.04 2202.87,568.829 2233.68,625.834 2256.32,683.771 2269.01,742.195 2272.63,800.741 2267.2,859.124 2252.7,916.94 2229.15,973.783 2197.89,1029.25 2158.03,1083.09 2110.46,1134.99 2055.65,1184.29 1994.5,1230.67 1927.46,1273.48 1855.43,1312.41 1778.88,1346.79 1698.25,1375.98 1614.67,1399.98 1528.83,1418.15 1441.4,1430.15 1352.62,1435.99 1263.38,1435.34 1174.2,1428.2 1085.81,1414.9 998.61,1395.44 913.223,1370.47 830.326,1339.98 750.601,1304.62 674.499,1264.73 603.38,1221.26 537.245,1174.23 476.998,1124.28 423.545,1071.9 377.341,1017.57 339.29,961.62 309.393,904.534 288.556,846.677 275.872,788.294 272.248,729.789 278.59,671.567 293.085,613.914 316.641,557.152 349.256,501.526 390.024,447.683 438.494,396.111 494.211,347.134 556.27,301.076 624.218,258.586 697.148,219.988 774.156,185.931 855.24,157.063 939.043,133.71 1025.11,116.195 1112.99,104.843 1201.77,99.653 1291.13,100.95 1380.36,108.735 1468.81,122.682 1556.01,142.792 1641.17,168.416 1723.84,199.229 1803.34,234.908 1878.53,275.128 1949.65,318.915 2015.34,366.271 2074.68,416.545 2127.22,469.09 2172.52,523.582 2210.12,579.695 2239.11,636.943 2259.04,695.042 2270.82,753.588 2272.63,812.134 2265.38,870.477 2249.08,928.211 2223.71,984.811 2190.19,1039.95 2148.51,1093.47 2099.14,1144.72 2043.42,1193.37 1980.91,1238.78 1912.96,1280.62 1840.03,1318.57 1762.57,1351.98 1681.26,1380.2 1597.46,1402.9 1511.16,1419.77 1423.4,1430.8 1334.73,1435.34 1245.6,1433.39 1156.7,1424.96 1068.6,1410.36 981.623,1389.93 896.915,1363.65 814.472,1332.19 735.652,1295.86 660.91,1255.32 590.244,1210.88 525.467,1163.2 467.032,1112.93 414.939,1060.22 370.546,1005.57 333.854,949.456 305.769,892.208 286.744,834.271 276.778,775.928 274.966,717.544 283.12,659.485 300.333,602.075 325.7,545.638 359.674,490.498 401.802,437.142 451.63,386.056 508.707,337.728 571.671,292.318 640.072,250.801 713.909,213.176 791.369,180.417 872.454,152.522 956.483,130.142 1043.12,113.924 1131.11,103.87 1220.12,100.302 1309.36,102.896 1398.6,111.978 1486.93,127.223 1573.68,148.306 1658.38,174.903 1740.37,207.014 1818.74,243.665 1893.48,284.534 1963.24,329.295 2027.57,377.299 2085.55,427.898 2136.28,480.767 2180.22,535.583 2215.56,591.858 2242.73,649.268 2260.85,707.368 2270.82,765.913 2270.82,824.459 2261.76,882.64 2244.55,940.05 2218.27,996.488 2183.39,1051.47 2139.91,1104.5 2089.17,1155.42 2031.64,1203.42 1967.77,1248.19 1898.47,1289.38 1824.18,1326.35 1745.81,1358.79 1663.82,1386.03 1579.56,1407.44 1493.16,1423.01 1404.94,1432.74 1316.04,1435.99 1226.91,1432.74 1138.02,1423.01 1049.91,1407.12 963.504,1385.39 878.796,1358.14 796.805,1325.71 718.439,1288.4 644.602,1246.89 575.295,1201.8 511.877,1153.47 454.348,1102.55 404.067,1049.36 361.486,994.379 326.606,937.942 300.333,880.45 282.214,822.351 274.06,763.967 274.966,705.584 284.932,647.646 303.957,590.398 332.042,534.123 368.281,479.308 412.221,426.6 463.408,376.001 521.843,328.321 585.714,283.885 655.474,243.017 730.216,206.365 808.583,174.578 890.12,147.981 "/>
<path clip-path="url(#clip050)" d="M265.897 1438.47 L781.708 1438.47 L781.708 1231.11 L265.897 1231.11  Z" fill="#ffffff" fill-rule="evenodd" fill-opacity="1"/>
<polyline clip-path="url(#clip050)" style="stroke:#000000; stroke-linecap:round; stroke-linejoin:round; stroke-width:4; stroke-opacity:1; fill:none" points="265.897,1438.47 781.708,1438.47 781.708,1231.11 265.897,1231.11 265.897,1438.47 "/>
<polyline clip-path="url(#clip050)" style="stroke:#009af9; stroke-linecap:round; stroke-linejoin:round; stroke-width:4; stroke-opacity:1; fill:none" points="289.884,1282.95 433.805,1282.95 "/>
<path clip-path="url(#clip050)" d="M465.199 1266.95 L465.199 1274.31 L473.972 1274.31 L473.972 1277.62 L465.199 1277.62 L465.199 1291.69 Q465.199 1294.86 466.056 1295.77 Q466.935 1296.67 469.597 1296.67 L473.972 1296.67 L473.972 1300.23 L469.597 1300.23 Q464.667 1300.23 462.792 1298.41 Q460.917 1296.55 460.917 1291.69 L460.917 1277.62 L457.792 1277.62 L457.792 1274.31 L460.917 1274.31 L460.917 1266.95 L465.199 1266.95 Z" fill="#000000" fill-rule="nonzero" fill-opacity="1" /><path clip-path="url(#clip050)" d="M494.597 1278.29 Q493.88 1277.87 493.023 1277.69 Q492.19 1277.48 491.171 1277.48 Q487.56 1277.48 485.616 1279.84 Q483.694 1282.18 483.694 1286.58 L483.694 1300.23 L479.412 1300.23 L479.412 1274.31 L483.694 1274.31 L483.694 1278.34 Q485.037 1275.98 487.19 1274.84 Q489.343 1273.68 492.421 1273.68 Q492.861 1273.68 493.393 1273.75 Q493.926 1273.8 494.574 1273.92 L494.597 1278.29 Z" fill="#000000" fill-rule="nonzero" fill-opacity="1" /><path clip-path="url(#clip050)" d="M510.847 1287.2 Q505.685 1287.2 503.694 1288.38 Q501.704 1289.56 501.704 1292.41 Q501.704 1294.68 503.185 1296.02 Q504.69 1297.34 507.259 1297.34 Q510.801 1297.34 512.93 1294.84 Q515.083 1292.32 515.083 1288.15 L515.083 1287.2 L510.847 1287.2 M519.342 1285.44 L519.342 1300.23 L515.083 1300.23 L515.083 1296.3 Q513.625 1298.66 511.449 1299.79 Q509.273 1300.91 506.125 1300.91 Q502.143 1300.91 499.782 1298.68 Q497.444 1296.44 497.444 1292.69 Q497.444 1288.31 500.361 1286.09 Q503.301 1283.87 509.111 1283.87 L515.083 1283.87 L515.083 1283.45 Q515.083 1280.51 513.139 1278.92 Q511.217 1277.29 507.722 1277.29 Q505.5 1277.29 503.393 1277.83 Q501.287 1278.36 499.342 1279.42 L499.342 1275.49 Q501.68 1274.59 503.879 1274.15 Q506.079 1273.68 508.162 1273.68 Q513.787 1273.68 516.565 1276.6 Q519.342 1279.52 519.342 1285.44 Z" fill="#000000" fill-rule="nonzero" fill-opacity="1" /><path clip-path="url(#clip050)" d="M528.115 1274.31 L532.375 1274.31 L532.375 1300.23 L528.115 1300.23 L528.115 1274.31 M528.115 1264.22 L532.375 1264.22 L532.375 1269.61 L528.115 1269.61 L528.115 1264.22 Z" fill="#000000" fill-rule="nonzero" fill-opacity="1" /><path clip-path="url(#clip050)" d="M562.837 1284.59 L562.837 1300.23 L558.578 1300.23 L558.578 1284.73 Q558.578 1281.04 557.143 1279.22 Q555.708 1277.39 552.838 1277.39 Q549.388 1277.39 547.398 1279.59 Q545.407 1281.79 545.407 1285.58 L545.407 1300.23 L541.125 1300.23 L541.125 1274.31 L545.407 1274.31 L545.407 1278.34 Q546.935 1276 548.995 1274.84 Q551.078 1273.68 553.787 1273.68 Q558.254 1273.68 560.546 1276.46 Q562.837 1279.22 562.837 1284.59 Z" fill="#000000" fill-rule="nonzero" fill-opacity="1" /><path clip-path="url(#clip050)" d="M571.333 1274.31 L575.592 1274.31 L575.592 1300.23 L571.333 1300.23 L571.333 1274.31 M571.333 1264.22 L575.592 1264.22 L575.592 1269.61 L571.333 1269.61 L571.333 1264.22 Z" fill="#000000" fill-rule="nonzero" fill-opacity="1" /><path clip-path="url(#clip050)" d="M606.055 1284.59 L606.055 1300.23 L601.796 1300.23 L601.796 1284.73 Q601.796 1281.04 600.36 1279.22 Q598.925 1277.39 596.055 1277.39 Q592.606 1277.39 590.615 1279.59 Q588.624 1281.79 588.624 1285.58 L588.624 1300.23 L584.342 1300.23 L584.342 1274.31 L588.624 1274.31 L588.624 1278.34 Q590.152 1276 592.212 1274.84 Q594.296 1273.68 597.004 1273.68 Q601.472 1273.68 603.763 1276.46 Q606.055 1279.22 606.055 1284.59 Z" fill="#000000" fill-rule="nonzero" fill-opacity="1" /><path clip-path="url(#clip050)" d="M631.61 1286.97 Q631.61 1282.34 629.689 1279.79 Q627.791 1277.25 624.342 1277.25 Q620.916 1277.25 618.995 1279.79 Q617.096 1282.34 617.096 1286.97 Q617.096 1291.58 618.995 1294.12 Q620.916 1296.67 624.342 1296.67 Q627.791 1296.67 629.689 1294.12 Q631.61 1291.58 631.61 1286.97 M635.87 1297.02 Q635.87 1303.64 632.93 1306.85 Q629.99 1310.1 623.925 1310.1 Q621.68 1310.1 619.689 1309.75 Q617.698 1309.42 615.823 1308.73 L615.823 1304.59 Q617.698 1305.6 619.527 1306.09 Q621.356 1306.58 623.254 1306.58 Q627.444 1306.58 629.527 1304.38 Q631.61 1302.2 631.61 1297.78 L631.61 1295.67 Q630.291 1297.97 628.231 1299.1 Q626.17 1300.23 623.3 1300.23 Q618.532 1300.23 615.615 1296.6 Q612.698 1292.97 612.698 1286.97 Q612.698 1280.95 615.615 1277.32 Q618.532 1273.68 623.3 1273.68 Q626.17 1273.68 628.231 1274.82 Q630.291 1275.95 631.61 1278.24 L631.61 1274.31 L635.87 1274.31 L635.87 1297.02 Z" fill="#000000" fill-rule="nonzero" fill-opacity="1" /><path clip-path="url(#clip050)" d="M676.772 1278.24 L676.772 1264.22 L681.031 1264.22 L681.031 1300.23 L676.772 1300.23 L676.772 1296.35 Q675.429 1298.66 673.369 1299.79 Q671.332 1300.91 668.462 1300.91 Q663.763 1300.91 660.8 1297.16 Q657.86 1293.41 657.86 1287.29 Q657.86 1281.18 660.8 1277.43 Q663.763 1273.68 668.462 1273.68 Q671.332 1273.68 673.369 1274.82 Q675.429 1275.93 676.772 1278.24 M662.258 1287.29 Q662.258 1291.99 664.18 1294.68 Q666.124 1297.34 669.504 1297.34 Q672.883 1297.34 674.828 1294.68 Q676.772 1291.99 676.772 1287.29 Q676.772 1282.6 674.828 1279.93 Q672.883 1277.25 669.504 1277.25 Q666.124 1277.25 664.18 1279.93 Q662.258 1282.6 662.258 1287.29 Z" fill="#000000" fill-rule="nonzero" fill-opacity="1" /><path clip-path="url(#clip050)" d="M701.587 1287.2 Q696.425 1287.2 694.434 1288.38 Q692.443 1289.56 692.443 1292.41 Q692.443 1294.68 693.925 1296.02 Q695.429 1297.34 697.999 1297.34 Q701.54 1297.34 703.67 1294.84 Q705.823 1292.32 705.823 1288.15 L705.823 1287.2 L701.587 1287.2 M710.082 1285.44 L710.082 1300.23 L705.823 1300.23 L705.823 1296.3 Q704.365 1298.66 702.189 1299.79 Q700.013 1300.91 696.865 1300.91 Q692.883 1300.91 690.522 1298.68 Q688.184 1296.44 688.184 1292.69 Q688.184 1288.31 691.101 1286.09 Q694.04 1283.87 699.851 1283.87 L705.823 1283.87 L705.823 1283.45 Q705.823 1280.51 703.878 1278.92 Q701.957 1277.29 698.462 1277.29 Q696.24 1277.29 694.133 1277.83 Q692.027 1278.36 690.082 1279.42 L690.082 1275.49 Q692.42 1274.59 694.619 1274.15 Q696.818 1273.68 698.902 1273.68 Q704.527 1273.68 707.304 1276.6 Q710.082 1279.52 710.082 1285.44 Z" fill="#000000" fill-rule="nonzero" fill-opacity="1" /><path clip-path="url(#clip050)" d="M723.068 1266.95 L723.068 1274.31 L731.841 1274.31 L731.841 1277.62 L723.068 1277.62 L723.068 1291.69 Q723.068 1294.86 723.925 1295.77 Q724.804 1296.67 727.466 1296.67 L731.841 1296.67 L731.841 1300.23 L727.466 1300.23 Q722.536 1300.23 720.661 1298.41 Q718.786 1296.55 718.786 1291.69 L718.786 1277.62 L715.661 1277.62 L715.661 1274.31 L718.786 1274.31 L718.786 1266.95 L723.068 1266.95 Z" fill="#000000" fill-rule="nonzero" fill-opacity="1" /><path clip-path="url(#clip050)" d="M749.225 1287.2 Q744.063 1287.2 742.073 1288.38 Q740.082 1289.56 740.082 1292.41 Q740.082 1294.68 741.563 1296.02 Q743.068 1297.34 745.637 1297.34 Q749.179 1297.34 751.309 1294.84 Q753.461 1292.32 753.461 1288.15 L753.461 1287.2 L749.225 1287.2 M757.721 1285.44 L757.721 1300.23 L753.461 1300.23 L753.461 1296.3 Q752.003 1298.66 749.827 1299.79 Q747.651 1300.91 744.503 1300.91 Q740.522 1300.91 738.161 1298.68 Q735.823 1296.44 735.823 1292.69 Q735.823 1288.31 738.739 1286.09 Q741.679 1283.87 747.489 1283.87 L753.461 1283.87 L753.461 1283.45 Q753.461 1280.51 751.517 1278.92 Q749.596 1277.29 746.1 1277.29 Q743.878 1277.29 741.772 1277.83 Q739.665 1278.36 737.721 1279.42 L737.721 1275.49 Q740.059 1274.59 742.258 1274.15 Q744.457 1273.68 746.54 1273.68 Q752.165 1273.68 754.943 1276.6 Q757.721 1279.52 757.721 1285.44 Z" fill="#000000" fill-rule="nonzero" fill-opacity="1" /><polyline clip-path="url(#clip050)" style="stroke:#e26f46; stroke-linecap:round; stroke-linejoin:round; stroke-width:4; stroke-opacity:1; fill:none" points="289.884,1334.79 433.805,1334.79 "/>
<path clip-path="url(#clip050)" d="M457.792 1317.51 L462.468 1317.51 L462.468 1348.14 L479.296 1348.14 L479.296 1352.07 L457.792 1352.07 L457.792 1317.51 Z" fill="#000000" fill-rule="nonzero" fill-opacity="1" /><path clip-path="url(#clip050)" d="M496.842 1322.12 L490.5 1339.32 L503.208 1339.32 L496.842 1322.12 M494.204 1317.51 L499.505 1317.51 L512.676 1352.07 L507.815 1352.07 L504.667 1343.21 L489.088 1343.21 L485.94 1352.07 L481.009 1352.07 L494.204 1317.51 Z" fill="#000000" fill-rule="nonzero" fill-opacity="1" /><path clip-path="url(#clip050)" d="M553.509 1318.65 L553.509 1323.21 Q550.847 1321.94 548.486 1321.31 Q546.125 1320.69 543.926 1320.69 Q540.106 1320.69 538.023 1322.17 Q535.963 1323.65 535.963 1326.38 Q535.963 1328.67 537.328 1329.85 Q538.717 1331.01 542.56 1331.73 L545.384 1332.31 Q550.615 1333.3 553.092 1335.82 Q555.592 1338.32 555.592 1342.54 Q555.592 1347.56 552.213 1350.15 Q548.856 1352.75 542.351 1352.75 Q539.898 1352.75 537.12 1352.19 Q534.365 1351.63 531.402 1350.55 L531.402 1345.73 Q534.25 1347.33 536.981 1348.14 Q539.713 1348.95 542.351 1348.95 Q546.356 1348.95 548.532 1347.38 Q550.708 1345.8 550.708 1342.88 Q550.708 1340.34 549.134 1338.9 Q547.583 1337.47 544.018 1336.75 L541.171 1336.19 Q535.939 1335.15 533.602 1332.93 Q531.264 1330.71 531.264 1326.75 Q531.264 1322.17 534.481 1319.53 Q537.722 1316.89 543.393 1316.89 Q545.824 1316.89 548.347 1317.33 Q550.87 1317.77 553.509 1318.65 Z" fill="#000000" fill-rule="nonzero" fill-opacity="1" /><path clip-path="url(#clip050)" d="M573.486 1354.48 Q571.68 1359.11 569.967 1360.52 Q568.254 1361.94 565.384 1361.94 L561.981 1361.94 L561.981 1358.37 L564.481 1358.37 Q566.24 1358.37 567.212 1357.54 Q568.185 1356.7 569.365 1353.6 L570.129 1351.66 L559.643 1326.15 L564.157 1326.15 L572.259 1346.43 L580.361 1326.15 L584.874 1326.15 L573.486 1354.48 Z" fill="#000000" fill-rule="nonzero" fill-opacity="1" /><path clip-path="url(#clip050)" d="M610.939 1331.13 Q612.536 1328.26 614.759 1326.89 Q616.981 1325.52 619.99 1325.52 Q624.041 1325.52 626.24 1328.37 Q628.439 1331.19 628.439 1336.43 L628.439 1352.07 L624.157 1352.07 L624.157 1336.57 Q624.157 1332.84 622.837 1331.03 Q621.518 1329.23 618.809 1329.23 Q615.499 1329.23 613.578 1331.43 Q611.657 1333.63 611.657 1337.42 L611.657 1352.07 L607.374 1352.07 L607.374 1336.57 Q607.374 1332.82 606.055 1331.03 Q604.735 1329.23 601.981 1329.23 Q598.717 1329.23 596.796 1331.45 Q594.874 1333.65 594.874 1337.42 L594.874 1352.07 L590.592 1352.07 L590.592 1326.15 L594.874 1326.15 L594.874 1330.18 Q596.333 1327.79 598.37 1326.66 Q600.407 1325.52 603.208 1325.52 Q606.032 1325.52 607.999 1326.96 Q609.99 1328.39 610.939 1331.13 Z" fill="#000000" fill-rule="nonzero" fill-opacity="1" /><path clip-path="url(#clip050)" d="M641.055 1348.19 L641.055 1361.94 L636.772 1361.94 L636.772 1326.15 L641.055 1326.15 L641.055 1330.08 Q642.397 1327.77 644.434 1326.66 Q646.494 1325.52 649.342 1325.52 Q654.064 1325.52 657.004 1329.27 Q659.967 1333.02 659.967 1339.13 Q659.967 1345.25 657.004 1349 Q654.064 1352.75 649.342 1352.75 Q646.494 1352.75 644.434 1351.63 Q642.397 1350.5 641.055 1348.19 M655.545 1339.13 Q655.545 1334.44 653.601 1331.77 Q651.68 1329.09 648.3 1329.09 Q644.92 1329.09 642.976 1331.77 Q641.055 1334.44 641.055 1339.13 Q641.055 1343.83 642.976 1346.52 Q644.92 1349.18 648.3 1349.18 Q651.68 1349.18 653.601 1346.52 Q655.545 1343.83 655.545 1339.13 Z" fill="#000000" fill-rule="nonzero" fill-opacity="1" /><path clip-path="url(#clip050)" d="M688.578 1336.43 L688.578 1352.07 L684.318 1352.07 L684.318 1336.57 Q684.318 1332.88 682.883 1331.06 Q681.448 1329.23 678.578 1329.23 Q675.129 1329.23 673.138 1331.43 Q671.147 1333.63 671.147 1337.42 L671.147 1352.07 L666.865 1352.07 L666.865 1326.15 L671.147 1326.15 L671.147 1330.18 Q672.675 1327.84 674.735 1326.68 Q676.818 1325.52 679.527 1325.52 Q683.994 1325.52 686.286 1328.3 Q688.578 1331.06 688.578 1336.43 Z" fill="#000000" fill-rule="nonzero" fill-opacity="1" /><path clip-path="url(#clip050)" d="M719.249 1338.05 L719.249 1340.13 L699.665 1340.13 Q699.943 1344.53 702.304 1346.84 Q704.689 1349.13 708.925 1349.13 Q711.378 1349.13 713.67 1348.53 Q715.985 1347.93 718.253 1346.73 L718.253 1350.75 Q715.962 1351.73 713.554 1352.24 Q711.147 1352.75 708.67 1352.75 Q702.466 1352.75 698.832 1349.13 Q695.221 1345.52 695.221 1339.37 Q695.221 1333 698.647 1329.27 Q702.096 1325.52 707.929 1325.52 Q713.161 1325.52 716.193 1328.9 Q719.249 1332.26 719.249 1338.05 M714.989 1336.8 Q714.943 1333.3 713.022 1331.22 Q711.124 1329.13 707.976 1329.13 Q704.411 1329.13 702.258 1331.15 Q700.128 1333.16 699.804 1336.82 L714.989 1336.8 Z" fill="#000000" fill-rule="nonzero" fill-opacity="1" /><path clip-path="url(#clip050)" d="M730.452 1318.79 L730.452 1326.15 L739.225 1326.15 L739.225 1329.46 L730.452 1329.46 L730.452 1343.53 Q730.452 1346.7 731.309 1347.61 Q732.188 1348.51 734.85 1348.51 L739.225 1348.51 L739.225 1352.07 L734.85 1352.07 Q729.92 1352.07 728.045 1350.25 Q726.17 1348.39 726.17 1343.53 L726.17 1329.46 L723.045 1329.46 L723.045 1326.15 L726.17 1326.15 L726.17 1318.79 L730.452 1318.79 Z" fill="#000000" fill-rule="nonzero" fill-opacity="1" /><polyline clip-path="url(#clip050)" style="stroke:#3da44d; stroke-linecap:round; stroke-linejoin:round; stroke-width:4; stroke-opacity:1; fill:none" points="289.884,1386.63 433.805,1386.63 "/>
<path clip-path="url(#clip050)" d="M483.347 1398.98 L483.347 1389.7 L475.708 1389.7 L475.708 1385.86 L487.977 1385.86 L487.977 1400.7 Q485.268 1402.62 482.005 1403.61 Q478.741 1404.59 475.037 1404.59 Q466.935 1404.59 462.352 1399.86 Q457.792 1395.12 457.792 1386.67 Q457.792 1378.2 462.352 1373.47 Q466.935 1368.73 475.037 1368.73 Q478.417 1368.73 481.449 1369.56 Q484.505 1370.4 487.074 1372.02 L487.074 1376.99 Q484.481 1374.79 481.565 1373.68 Q478.648 1372.57 475.431 1372.57 Q469.088 1372.57 465.894 1376.11 Q462.722 1379.66 462.722 1386.67 Q462.722 1393.66 465.894 1397.2 Q469.088 1400.74 475.431 1400.74 Q477.907 1400.74 479.852 1400.33 Q481.796 1399.89 483.347 1398.98 Z" fill="#000000" fill-rule="nonzero" fill-opacity="1" /><path clip-path="url(#clip050)" d="M532.305 1370.49 L532.305 1375.05 Q529.643 1373.78 527.282 1373.15 Q524.921 1372.53 522.722 1372.53 Q518.903 1372.53 516.819 1374.01 Q514.759 1375.49 514.759 1378.22 Q514.759 1380.51 516.125 1381.69 Q517.514 1382.85 521.356 1383.57 L524.18 1384.15 Q529.412 1385.14 531.889 1387.66 Q534.389 1390.16 534.389 1394.38 Q534.389 1399.4 531.009 1401.99 Q527.653 1404.59 521.148 1404.59 Q518.694 1404.59 515.916 1404.03 Q513.162 1403.47 510.199 1402.39 L510.199 1397.57 Q513.046 1399.17 515.778 1399.98 Q518.509 1400.79 521.148 1400.79 Q525.153 1400.79 527.328 1399.22 Q529.504 1397.64 529.504 1394.72 Q529.504 1392.18 527.93 1390.74 Q526.379 1389.31 522.815 1388.59 L519.967 1388.03 Q514.736 1386.99 512.398 1384.77 Q510.06 1382.55 510.06 1378.59 Q510.06 1374.01 513.278 1371.37 Q516.518 1368.73 522.19 1368.73 Q524.62 1368.73 527.143 1369.17 Q529.666 1369.61 532.305 1370.49 Z" fill="#000000" fill-rule="nonzero" fill-opacity="1" /><path clip-path="url(#clip050)" d="M552.282 1406.32 Q550.476 1410.95 548.763 1412.36 Q547.051 1413.78 544.18 1413.78 L540.777 1413.78 L540.777 1410.21 L543.277 1410.21 Q545.037 1410.21 546.009 1409.38 Q546.981 1408.54 548.162 1405.44 L548.926 1403.5 L538.439 1377.99 L542.953 1377.99 L551.055 1398.27 L559.157 1377.99 L563.671 1377.99 L552.282 1406.32 Z" fill="#000000" fill-rule="nonzero" fill-opacity="1" /><path clip-path="url(#clip050)" d="M589.736 1382.97 Q591.333 1380.1 593.555 1378.73 Q595.777 1377.36 598.786 1377.36 Q602.837 1377.36 605.036 1380.21 Q607.235 1383.03 607.235 1388.27 L607.235 1403.91 L602.953 1403.91 L602.953 1388.41 Q602.953 1384.68 601.634 1382.87 Q600.314 1381.07 597.606 1381.07 Q594.296 1381.07 592.374 1383.27 Q590.453 1385.47 590.453 1389.26 L590.453 1403.91 L586.171 1403.91 L586.171 1388.41 Q586.171 1384.66 584.851 1382.87 Q583.532 1381.07 580.777 1381.07 Q577.513 1381.07 575.592 1383.29 Q573.671 1385.49 573.671 1389.26 L573.671 1403.91 L569.388 1403.91 L569.388 1377.99 L573.671 1377.99 L573.671 1382.02 Q575.129 1379.63 577.166 1378.5 Q579.203 1377.36 582.004 1377.36 Q584.828 1377.36 586.796 1378.8 Q588.786 1380.23 589.736 1382.97 Z" fill="#000000" fill-rule="nonzero" fill-opacity="1" /><path clip-path="url(#clip050)" d="M619.851 1400.03 L619.851 1413.78 L615.569 1413.78 L615.569 1377.99 L619.851 1377.99 L619.851 1381.92 Q621.194 1379.61 623.231 1378.5 Q625.291 1377.36 628.138 1377.36 Q632.86 1377.36 635.8 1381.11 Q638.763 1384.86 638.763 1390.97 Q638.763 1397.09 635.8 1400.84 Q632.86 1404.59 628.138 1404.59 Q625.291 1404.59 623.231 1403.47 Q621.194 1402.34 619.851 1400.03 M634.342 1390.97 Q634.342 1386.28 632.397 1383.61 Q630.476 1380.93 627.096 1380.93 Q623.717 1380.93 621.772 1383.61 Q619.851 1386.28 619.851 1390.97 Q619.851 1395.67 621.772 1398.36 Q623.717 1401.02 627.096 1401.02 Q630.476 1401.02 632.397 1398.36 Q634.342 1395.67 634.342 1390.97 Z" fill="#000000" fill-rule="nonzero" fill-opacity="1" /><path clip-path="url(#clip050)" d="M667.374 1388.27 L667.374 1403.91 L663.115 1403.91 L663.115 1388.41 Q663.115 1384.72 661.68 1382.9 Q660.244 1381.07 657.374 1381.07 Q653.925 1381.07 651.934 1383.27 Q649.944 1385.47 649.944 1389.26 L649.944 1403.91 L645.661 1403.91 L645.661 1377.99 L649.944 1377.99 L649.944 1382.02 Q651.471 1379.68 653.531 1378.52 Q655.615 1377.36 658.323 1377.36 Q662.791 1377.36 665.082 1380.14 Q667.374 1382.9 667.374 1388.27 Z" fill="#000000" fill-rule="nonzero" fill-opacity="1" /><path clip-path="url(#clip050)" d="M698.045 1389.89 L698.045 1391.97 L678.462 1391.97 Q678.74 1396.37 681.101 1398.68 Q683.485 1400.97 687.721 1400.97 Q690.175 1400.97 692.466 1400.37 Q694.781 1399.77 697.05 1398.57 L697.05 1402.59 Q694.758 1403.57 692.351 1404.08 Q689.943 1404.59 687.466 1404.59 Q681.263 1404.59 677.629 1400.97 Q674.017 1397.36 674.017 1391.21 Q674.017 1384.84 677.443 1381.11 Q680.892 1377.36 686.726 1377.36 Q691.957 1377.36 694.99 1380.74 Q698.045 1384.1 698.045 1389.89 M693.786 1388.64 Q693.74 1385.14 691.818 1383.06 Q689.92 1380.97 686.772 1380.97 Q683.207 1380.97 681.054 1382.99 Q678.925 1385 678.601 1388.66 L693.786 1388.64 Z" fill="#000000" fill-rule="nonzero" fill-opacity="1" /><path clip-path="url(#clip050)" d="M709.249 1370.63 L709.249 1377.99 L718.022 1377.99 L718.022 1381.3 L709.249 1381.3 L709.249 1395.37 Q709.249 1398.54 710.105 1399.45 Q710.985 1400.35 713.647 1400.35 L718.022 1400.35 L718.022 1403.91 L713.647 1403.91 Q708.716 1403.91 706.841 1402.09 Q704.966 1400.23 704.966 1395.37 L704.966 1381.3 L701.841 1381.3 L701.841 1377.99 L704.966 1377.99 L704.966 1370.63 L709.249 1370.63 Z" fill="#000000" fill-rule="nonzero" fill-opacity="1" /></svg>
