<?xml version="1.0" encoding="utf-8"?>
<svg xmlns="http://www.w3.org/2000/svg" xmlns:xlink="http://www.w3.org/1999/xlink" width="600" height="400" viewBox="0 0 2400 1600">
<defs>
  <clipPath id="clip490">
    <rect x="0" y="0" width="2400" height="1600"/>
  </clipPath>
</defs>
<path clip-path="url(#clip490)" d="M0 1600 L2400 1600 L2400 0 L0 0  Z" fill="#ffffff" fill-rule="evenodd" fill-opacity="1"/>
<defs>
  <clipPath id="clip491">
    <rect x="480" y="0" width="1681" height="1600"/>
  </clipPath>
</defs>
<path clip-path="url(#clip490)" d="M193.936 1486.45 L2352.76 1486.45 L2352.76 47.2441 L193.936 47.2441  Z" fill="#ffffff" fill-rule="evenodd" fill-opacity="1"/>
<defs>
  <clipPath id="clip492">
    <rect x="193" y="47" width="2160" height="1440"/>
  </clipPath>
</defs>
<polyline clip-path="url(#clip492)" style="stroke:#000000; stroke-linecap:round; stroke-linejoin:round; stroke-width:2; stroke-opacity:0.1; fill:none" points="303.188,1486.45 303.188,47.2441 "/>
<polyline clip-path="url(#clip492)" style="stroke:#000000; stroke-linecap:round; stroke-linejoin:round; stroke-width:2; stroke-opacity:0.1; fill:none" points="786.615,1486.45 786.615,47.2441 "/>
<polyline clip-path="url(#clip492)" style="stroke:#000000; stroke-linecap:round; stroke-linejoin:round; stroke-width:2; stroke-opacity:0.1; fill:none" points="1270.04,1486.45 1270.04,47.2441 "/>
<polyline clip-path="url(#clip492)" style="stroke:#000000; stroke-linecap:round; stroke-linejoin:round; stroke-width:2; stroke-opacity:0.1; fill:none" points="1753.47,1486.45 1753.47,47.2441 "/>
<polyline clip-path="url(#clip492)" style="stroke:#000000; stroke-linecap:round; stroke-linejoin:round; stroke-width:2; stroke-opacity:0.1; fill:none" points="2236.89,1486.45 2236.89,47.2441 "/>
<polyline clip-path="url(#clip490)" style="stroke:#000000; stroke-linecap:round; stroke-linejoin:round; stroke-width:4; stroke-opacity:1; fill:none" points="193.936,1486.45 2352.76,1486.45 "/>
<polyline clip-path="url(#clip490)" style="stroke:#000000; stroke-linecap:round; stroke-linejoin:round; stroke-width:4; stroke-opacity:1; fill:none" points="303.188,1486.45 303.188,1467.55 "/>
<polyline clip-path="url(#clip490)" style="stroke:#000000; stroke-linecap:round; stroke-linejoin:round; stroke-width:4; stroke-opacity:1; fill:none" points="786.615,1486.45 786.615,1467.55 "/>
<polyline clip-path="url(#clip490)" style="stroke:#000000; stroke-linecap:round; stroke-linejoin:round; stroke-width:4; stroke-opacity:1; fill:none" points="1270.04,1486.45 1270.04,1467.55 "/>
<polyline clip-path="url(#clip490)" style="stroke:#000000; stroke-linecap:round; stroke-linejoin:round; stroke-width:4; stroke-opacity:1; fill:none" points="1753.47,1486.45 1753.47,1467.55 "/>
<polyline clip-path="url(#clip490)" style="stroke:#000000; stroke-linecap:round; stroke-linejoin:round; stroke-width:4; stroke-opacity:1; fill:none" points="2236.89,1486.45 2236.89,1467.55 "/>
<path clip-path="url(#clip490)" d="M249.717 1532.02 L279.392 1532.02 L279.392 1535.95 L249.717 1535.95 L249.717 1532.02 Z" fill="#000000" fill-rule="nonzero" fill-opacity="1" /><path clip-path="url(#clip490)" d="M290.295 1544.91 L297.934 1544.91 L297.934 1518.55 L289.624 1520.21 L289.624 1515.95 L297.888 1514.29 L302.563 1514.29 L302.563 1544.91 L310.202 1544.91 L310.202 1548.85 L290.295 1548.85 L290.295 1544.91 Z" fill="#000000" fill-rule="nonzero" fill-opacity="1" /><path clip-path="url(#clip490)" d="M319.647 1542.97 L324.531 1542.97 L324.531 1548.85 L319.647 1548.85 L319.647 1542.97 Z" fill="#000000" fill-rule="nonzero" fill-opacity="1" /><path clip-path="url(#clip490)" d="M344.716 1517.37 Q341.105 1517.37 339.276 1520.93 Q337.471 1524.47 337.471 1531.6 Q337.471 1538.71 339.276 1542.27 Q341.105 1545.82 344.716 1545.82 Q348.35 1545.82 350.156 1542.27 Q351.985 1538.71 351.985 1531.6 Q351.985 1524.47 350.156 1520.93 Q348.35 1517.37 344.716 1517.37 M344.716 1513.66 Q350.526 1513.66 353.582 1518.27 Q356.66 1522.85 356.66 1531.6 Q356.66 1540.33 353.582 1544.94 Q350.526 1549.52 344.716 1549.52 Q338.906 1549.52 335.827 1544.94 Q332.772 1540.33 332.772 1531.6 Q332.772 1522.85 335.827 1518.27 Q338.906 1513.66 344.716 1513.66 Z" fill="#000000" fill-rule="nonzero" fill-opacity="1" /><path clip-path="url(#clip490)" d="M733.641 1532.02 L763.316 1532.02 L763.316 1535.95 L733.641 1535.95 L733.641 1532.02 Z" fill="#000000" fill-rule="nonzero" fill-opacity="1" /><path clip-path="url(#clip490)" d="M783.409 1517.37 Q779.798 1517.37 777.969 1520.93 Q776.164 1524.47 776.164 1531.6 Q776.164 1538.71 777.969 1542.27 Q779.798 1545.82 783.409 1545.82 Q787.043 1545.82 788.849 1542.27 Q790.677 1538.71 790.677 1531.6 Q790.677 1524.47 788.849 1520.93 Q787.043 1517.37 783.409 1517.37 M783.409 1513.66 Q789.219 1513.66 792.275 1518.27 Q795.353 1522.85 795.353 1531.6 Q795.353 1540.33 792.275 1544.94 Q789.219 1549.52 783.409 1549.52 Q777.599 1549.52 774.52 1544.94 Q771.464 1540.33 771.464 1531.6 Q771.464 1522.85 774.52 1518.27 Q777.599 1513.66 783.409 1513.66 Z" fill="#000000" fill-rule="nonzero" fill-opacity="1" /><path clip-path="url(#clip490)" d="M803.571 1542.97 L808.455 1542.97 L808.455 1548.85 L803.571 1548.85 L803.571 1542.97 Z" fill="#000000" fill-rule="nonzero" fill-opacity="1" /><path clip-path="url(#clip490)" d="M818.686 1514.29 L837.043 1514.29 L837.043 1518.22 L822.969 1518.22 L822.969 1526.7 Q823.987 1526.35 825.006 1526.19 Q826.024 1526 827.043 1526 Q832.83 1526 836.21 1529.17 Q839.589 1532.34 839.589 1537.76 Q839.589 1543.34 836.117 1546.44 Q832.645 1549.52 826.325 1549.52 Q824.149 1549.52 821.881 1549.15 Q819.636 1548.78 817.228 1548.04 L817.228 1543.34 Q819.311 1544.47 821.534 1545.03 Q823.756 1545.58 826.233 1545.58 Q830.237 1545.58 832.575 1543.48 Q834.913 1541.37 834.913 1537.76 Q834.913 1534.15 832.575 1532.04 Q830.237 1529.94 826.233 1529.94 Q824.358 1529.94 822.483 1530.35 Q820.631 1530.77 818.686 1531.65 L818.686 1514.29 Z" fill="#000000" fill-rule="nonzero" fill-opacity="1" /><path clip-path="url(#clip490)" d="M1247.43 1517.37 Q1243.81 1517.37 1241.99 1520.93 Q1240.18 1524.47 1240.18 1531.6 Q1240.18 1538.71 1241.99 1542.27 Q1243.81 1545.82 1247.43 1545.82 Q1251.06 1545.82 1252.87 1542.27 Q1254.69 1538.71 1254.69 1531.6 Q1254.69 1524.47 1252.87 1520.93 Q1251.06 1517.37 1247.43 1517.37 M1247.43 1513.66 Q1253.24 1513.66 1256.29 1518.27 Q1259.37 1522.85 1259.37 1531.6 Q1259.37 1540.33 1256.29 1544.94 Q1253.24 1549.52 1247.43 1549.52 Q1241.62 1549.52 1238.54 1544.94 Q1235.48 1540.33 1235.48 1531.6 Q1235.48 1522.85 1238.54 1518.27 Q1241.62 1513.66 1247.43 1513.66 Z" fill="#000000" fill-rule="nonzero" fill-opacity="1" /><path clip-path="url(#clip490)" d="M1267.59 1542.97 L1272.47 1542.97 L1272.47 1548.85 L1267.59 1548.85 L1267.59 1542.97 Z" fill="#000000" fill-rule="nonzero" fill-opacity="1" /><path clip-path="url(#clip490)" d="M1292.66 1517.37 Q1289.05 1517.37 1287.22 1520.93 Q1285.41 1524.47 1285.41 1531.6 Q1285.41 1538.71 1287.22 1542.27 Q1289.05 1545.82 1292.66 1545.82 Q1296.29 1545.82 1298.1 1542.27 Q1299.93 1538.71 1299.93 1531.6 Q1299.93 1524.47 1298.1 1520.93 Q1296.29 1517.37 1292.66 1517.37 M1292.66 1513.66 Q1298.47 1513.66 1301.52 1518.27 Q1304.6 1522.85 1304.6 1531.6 Q1304.6 1540.33 1301.52 1544.94 Q1298.47 1549.52 1292.66 1549.52 Q1286.85 1549.52 1283.77 1544.94 Q1280.71 1540.33 1280.71 1531.6 Q1280.71 1522.85 1283.77 1518.27 Q1286.85 1513.66 1292.66 1513.66 Z" fill="#000000" fill-rule="nonzero" fill-opacity="1" /><path clip-path="url(#clip490)" d="M1731.35 1517.37 Q1727.74 1517.37 1725.91 1520.93 Q1724.1 1524.47 1724.1 1531.6 Q1724.1 1538.71 1725.91 1542.27 Q1727.74 1545.82 1731.35 1545.82 Q1734.98 1545.82 1736.79 1542.27 Q1738.62 1538.71 1738.62 1531.6 Q1738.62 1524.47 1736.79 1520.93 Q1734.98 1517.37 1731.35 1517.37 M1731.35 1513.66 Q1737.16 1513.66 1740.22 1518.27 Q1743.29 1522.85 1743.29 1531.6 Q1743.29 1540.33 1740.22 1544.94 Q1737.16 1549.52 1731.35 1549.52 Q1725.54 1549.52 1722.46 1544.94 Q1719.41 1540.33 1719.41 1531.6 Q1719.41 1522.85 1722.46 1518.27 Q1725.54 1513.66 1731.35 1513.66 Z" fill="#000000" fill-rule="nonzero" fill-opacity="1" /><path clip-path="url(#clip490)" d="M1751.51 1542.97 L1756.4 1542.97 L1756.4 1548.85 L1751.51 1548.85 L1751.51 1542.97 Z" fill="#000000" fill-rule="nonzero" fill-opacity="1" /><path clip-path="url(#clip490)" d="M1766.63 1514.29 L1784.98 1514.29 L1784.98 1518.22 L1770.91 1518.22 L1770.91 1526.7 Q1771.93 1526.35 1772.95 1526.19 Q1773.97 1526 1774.98 1526 Q1780.77 1526 1784.15 1529.17 Q1787.53 1532.34 1787.53 1537.76 Q1787.53 1543.34 1784.06 1546.44 Q1780.59 1549.52 1774.27 1549.52 Q1772.09 1549.52 1769.82 1549.15 Q1767.58 1548.78 1765.17 1548.04 L1765.17 1543.34 Q1767.25 1544.47 1769.47 1545.03 Q1771.7 1545.58 1774.17 1545.58 Q1778.18 1545.58 1780.52 1543.48 Q1782.85 1541.37 1782.85 1537.76 Q1782.85 1534.15 1780.52 1532.04 Q1778.18 1529.94 1774.17 1529.94 Q1772.3 1529.94 1770.42 1530.35 Q1768.57 1530.77 1766.63 1531.65 L1766.63 1514.29 Z" fill="#000000" fill-rule="nonzero" fill-opacity="1" /><path clip-path="url(#clip490)" d="M2204.05 1544.91 L2211.69 1544.91 L2211.69 1518.55 L2203.38 1520.21 L2203.38 1515.95 L2211.64 1514.29 L2216.32 1514.29 L2216.32 1544.91 L2223.95 1544.91 L2223.95 1548.85 L2204.05 1548.85 L2204.05 1544.91 Z" fill="#000000" fill-rule="nonzero" fill-opacity="1" /><path clip-path="url(#clip490)" d="M2233.4 1542.97 L2238.28 1542.97 L2238.28 1548.85 L2233.4 1548.85 L2233.4 1542.97 Z" fill="#000000" fill-rule="nonzero" fill-opacity="1" /><path clip-path="url(#clip490)" d="M2258.47 1517.37 Q2254.86 1517.37 2253.03 1520.93 Q2251.22 1524.47 2251.22 1531.6 Q2251.22 1538.71 2253.03 1542.27 Q2254.86 1545.82 2258.47 1545.82 Q2262.1 1545.82 2263.91 1542.27 Q2265.74 1538.71 2265.74 1531.6 Q2265.74 1524.47 2263.91 1520.93 Q2262.1 1517.37 2258.47 1517.37 M2258.47 1513.66 Q2264.28 1513.66 2267.33 1518.27 Q2270.41 1522.85 2270.41 1531.6 Q2270.41 1540.33 2267.33 1544.94 Q2264.28 1549.52 2258.47 1549.52 Q2252.66 1549.52 2249.58 1544.94 Q2246.52 1540.33 2246.52 1531.6 Q2246.52 1522.85 2249.58 1518.27 Q2252.66 1513.66 2258.47 1513.66 Z" fill="#000000" fill-rule="nonzero" fill-opacity="1" /><polyline clip-path="url(#clip492)" style="stroke:#000000; stroke-linecap:round; stroke-linejoin:round; stroke-width:2; stroke-opacity:0.1; fill:none" points="193.936,1429.47 2352.76,1429.47 "/>
<polyline clip-path="url(#clip492)" style="stroke:#000000; stroke-linecap:round; stroke-linejoin:round; stroke-width:2; stroke-opacity:0.1; fill:none" points="193.936,1096.69 2352.76,1096.69 "/>
<polyline clip-path="url(#clip492)" style="stroke:#000000; stroke-linecap:round; stroke-linejoin:round; stroke-width:2; stroke-opacity:0.1; fill:none" points="193.936,763.921 2352.76,763.921 "/>
<polyline clip-path="url(#clip492)" style="stroke:#000000; stroke-linecap:round; stroke-linejoin:round; stroke-width:2; stroke-opacity:0.1; fill:none" points="193.936,431.148 2352.76,431.148 "/>
<polyline clip-path="url(#clip492)" style="stroke:#000000; stroke-linecap:round; stroke-linejoin:round; stroke-width:2; stroke-opacity:0.1; fill:none" points="193.936,98.3754 2352.76,98.3754 "/>
<polyline clip-path="url(#clip490)" style="stroke:#000000; stroke-linecap:round; stroke-linejoin:round; stroke-width:4; stroke-opacity:1; fill:none" points="193.936,1486.45 193.936,47.2441 "/>
<polyline clip-path="url(#clip490)" style="stroke:#000000; stroke-linecap:round; stroke-linejoin:round; stroke-width:4; stroke-opacity:1; fill:none" points="193.936,1429.47 212.834,1429.47 "/>
<polyline clip-path="url(#clip490)" style="stroke:#000000; stroke-linecap:round; stroke-linejoin:round; stroke-width:4; stroke-opacity:1; fill:none" points="193.936,1096.69 212.834,1096.69 "/>
<polyline clip-path="url(#clip490)" style="stroke:#000000; stroke-linecap:round; stroke-linejoin:round; stroke-width:4; stroke-opacity:1; fill:none" points="193.936,763.921 212.834,763.921 "/>
<polyline clip-path="url(#clip490)" style="stroke:#000000; stroke-linecap:round; stroke-linejoin:round; stroke-width:4; stroke-opacity:1; fill:none" points="193.936,431.148 212.834,431.148 "/>
<polyline clip-path="url(#clip490)" style="stroke:#000000; stroke-linecap:round; stroke-linejoin:round; stroke-width:4; stroke-opacity:1; fill:none" points="193.936,98.3754 212.834,98.3754 "/>
<path clip-path="url(#clip490)" d="M50.9921 1429.92 L80.6679 1429.92 L80.6679 1433.85 L50.9921 1433.85 L50.9921 1429.92 Z" fill="#000000" fill-rule="nonzero" fill-opacity="1" /><path clip-path="url(#clip490)" d="M91.5706 1442.81 L99.2095 1442.81 L99.2095 1416.45 L90.8993 1418.11 L90.8993 1413.85 L99.1632 1412.19 L103.839 1412.19 L103.839 1442.81 L111.478 1442.81 L111.478 1446.75 L91.5706 1446.75 L91.5706 1442.81 Z" fill="#000000" fill-rule="nonzero" fill-opacity="1" /><path clip-path="url(#clip490)" d="M120.922 1440.87 L125.807 1440.87 L125.807 1446.75 L120.922 1446.75 L120.922 1440.87 Z" fill="#000000" fill-rule="nonzero" fill-opacity="1" /><path clip-path="url(#clip490)" d="M145.992 1415.27 Q142.381 1415.27 140.552 1418.83 Q138.746 1422.37 138.746 1429.5 Q138.746 1436.61 140.552 1440.17 Q142.381 1443.71 145.992 1443.71 Q149.626 1443.71 151.431 1440.17 Q153.26 1436.61 153.26 1429.5 Q153.26 1422.37 151.431 1418.83 Q149.626 1415.27 145.992 1415.27 M145.992 1411.56 Q151.802 1411.56 154.857 1416.17 Q157.936 1420.75 157.936 1429.5 Q157.936 1438.23 154.857 1442.83 Q151.802 1447.42 145.992 1447.42 Q140.181 1447.42 137.103 1442.83 Q134.047 1438.23 134.047 1429.5 Q134.047 1420.75 137.103 1416.17 Q140.181 1411.56 145.992 1411.56 Z" fill="#000000" fill-rule="nonzero" fill-opacity="1" /><path clip-path="url(#clip490)" d="M51.9875 1097.15 L81.6633 1097.15 L81.6633 1101.08 L51.9875 1101.08 L51.9875 1097.15 Z" fill="#000000" fill-rule="nonzero" fill-opacity="1" /><path clip-path="url(#clip490)" d="M101.756 1082.49 Q98.1447 1082.49 96.316 1086.06 Q94.5104 1089.6 94.5104 1096.73 Q94.5104 1103.84 96.316 1107.4 Q98.1447 1110.94 101.756 1110.94 Q105.39 1110.94 107.196 1107.4 Q109.024 1103.84 109.024 1096.73 Q109.024 1089.6 107.196 1086.06 Q105.39 1082.49 101.756 1082.49 M101.756 1078.79 Q107.566 1078.79 110.621 1083.4 Q113.7 1087.98 113.7 1096.73 Q113.7 1105.46 110.621 1110.06 Q107.566 1114.65 101.756 1114.65 Q95.9456 1114.65 92.8669 1110.06 Q89.8114 1105.46 89.8114 1096.73 Q89.8114 1087.98 92.8669 1083.4 Q95.9456 1078.79 101.756 1078.79 Z" fill="#000000" fill-rule="nonzero" fill-opacity="1" /><path clip-path="url(#clip490)" d="M121.918 1108.09 L126.802 1108.09 L126.802 1113.97 L121.918 1113.97 L121.918 1108.09 Z" fill="#000000" fill-rule="nonzero" fill-opacity="1" /><path clip-path="url(#clip490)" d="M137.033 1079.41 L155.39 1079.41 L155.39 1083.35 L141.316 1083.35 L141.316 1091.82 Q142.334 1091.47 143.353 1091.31 Q144.371 1091.13 145.39 1091.13 Q151.177 1091.13 154.556 1094.3 Q157.936 1097.47 157.936 1102.89 Q157.936 1108.46 154.464 1111.57 Q150.992 1114.65 144.672 1114.65 Q142.496 1114.65 140.228 1114.28 Q137.982 1113.9 135.575 1113.16 L135.575 1108.46 Q137.658 1109.6 139.881 1110.15 Q142.103 1110.71 144.58 1110.71 Q148.584 1110.71 150.922 1108.6 Q153.26 1106.5 153.26 1102.89 Q153.26 1099.28 150.922 1097.17 Q148.584 1095.06 144.58 1095.06 Q142.705 1095.06 140.83 1095.48 Q138.978 1095.9 137.033 1096.78 L137.033 1079.41 Z" fill="#000000" fill-rule="nonzero" fill-opacity="1" /><path clip-path="url(#clip490)" d="M100.76 749.72 Q97.1493 749.72 95.3206 753.285 Q93.515 756.826 93.515 763.956 Q93.515 771.062 95.3206 774.627 Q97.1493 778.169 100.76 778.169 Q104.395 778.169 106.2 774.627 Q108.029 771.062 108.029 763.956 Q108.029 756.826 106.2 753.285 Q104.395 749.72 100.76 749.72 M100.76 746.016 Q106.571 746.016 109.626 750.623 Q112.705 755.206 112.705 763.956 Q112.705 772.683 109.626 777.289 Q106.571 781.873 100.76 781.873 Q94.9502 781.873 91.8715 777.289 Q88.816 772.683 88.816 763.956 Q88.816 755.206 91.8715 750.623 Q94.9502 746.016 100.76 746.016 Z" fill="#000000" fill-rule="nonzero" fill-opacity="1" /><path clip-path="url(#clip490)" d="M120.922 775.322 L125.807 775.322 L125.807 781.201 L120.922 781.201 L120.922 775.322 Z" fill="#000000" fill-rule="nonzero" fill-opacity="1" /><path clip-path="url(#clip490)" d="M145.992 749.72 Q142.381 749.72 140.552 753.285 Q138.746 756.826 138.746 763.956 Q138.746 771.062 140.552 774.627 Q142.381 778.169 145.992 778.169 Q149.626 778.169 151.431 774.627 Q153.26 771.062 153.26 763.956 Q153.26 756.826 151.431 753.285 Q149.626 749.72 145.992 749.72 M145.992 746.016 Q151.802 746.016 154.857 750.623 Q157.936 755.206 157.936 763.956 Q157.936 772.683 154.857 777.289 Q151.802 781.873 145.992 781.873 Q140.181 781.873 137.103 777.289 Q134.047 772.683 134.047 763.956 Q134.047 755.206 137.103 750.623 Q140.181 746.016 145.992 746.016 Z" fill="#000000" fill-rule="nonzero" fill-opacity="1" /><path clip-path="url(#clip490)" d="M101.756 416.947 Q98.1447 416.947 96.316 420.512 Q94.5104 424.053 94.5104 431.183 Q94.5104 438.289 96.316 441.854 Q98.1447 445.396 101.756 445.396 Q105.39 445.396 107.196 441.854 Q109.024 438.289 109.024 431.183 Q109.024 424.053 107.196 420.512 Q105.39 416.947 101.756 416.947 M101.756 413.243 Q107.566 413.243 110.621 417.85 Q113.7 422.433 113.7 431.183 Q113.7 439.91 110.621 444.516 Q107.566 449.1 101.756 449.1 Q95.9456 449.1 92.8669 444.516 Q89.8114 439.91 89.8114 431.183 Q89.8114 422.433 92.8669 417.85 Q95.9456 413.243 101.756 413.243 Z" fill="#000000" fill-rule="nonzero" fill-opacity="1" /><path clip-path="url(#clip490)" d="M121.918 442.549 L126.802 442.549 L126.802 448.428 L121.918 448.428 L121.918 442.549 Z" fill="#000000" fill-rule="nonzero" fill-opacity="1" /><path clip-path="url(#clip490)" d="M137.033 413.868 L155.39 413.868 L155.39 417.803 L141.316 417.803 L141.316 426.276 Q142.334 425.928 143.353 425.766 Q144.371 425.581 145.39 425.581 Q151.177 425.581 154.556 428.753 Q157.936 431.924 157.936 437.34 Q157.936 442.919 154.464 446.021 Q150.992 449.1 144.672 449.1 Q142.496 449.1 140.228 448.729 Q137.982 448.359 135.575 447.618 L135.575 442.919 Q137.658 444.053 139.881 444.609 Q142.103 445.164 144.58 445.164 Q148.584 445.164 150.922 443.058 Q153.26 440.952 153.26 437.34 Q153.26 433.729 150.922 431.623 Q148.584 429.516 144.58 429.516 Q142.705 429.516 140.83 429.933 Q138.978 430.35 137.033 431.229 L137.033 413.868 Z" fill="#000000" fill-rule="nonzero" fill-opacity="1" /><path clip-path="url(#clip490)" d="M91.5706 111.72 L99.2095 111.72 L99.2095 85.3547 L90.8993 87.0213 L90.8993 82.7621 L99.1632 81.0954 L103.839 81.0954 L103.839 111.72 L111.478 111.72 L111.478 115.655 L91.5706 115.655 L91.5706 111.72 Z" fill="#000000" fill-rule="nonzero" fill-opacity="1" /><path clip-path="url(#clip490)" d="M120.922 109.776 L125.807 109.776 L125.807 115.655 L120.922 115.655 L120.922 109.776 Z" fill="#000000" fill-rule="nonzero" fill-opacity="1" /><path clip-path="url(#clip490)" d="M145.992 84.1741 Q142.381 84.1741 140.552 87.7389 Q138.746 91.2806 138.746 98.4102 Q138.746 105.517 140.552 109.081 Q142.381 112.623 145.992 112.623 Q149.626 112.623 151.431 109.081 Q153.26 105.517 153.26 98.4102 Q153.26 91.2806 151.431 87.7389 Q149.626 84.1741 145.992 84.1741 M145.992 80.4704 Q151.802 80.4704 154.857 85.0769 Q157.936 89.6602 157.936 98.4102 Q157.936 107.137 154.857 111.743 Q151.802 116.327 145.992 116.327 Q140.181 116.327 137.103 111.743 Q134.047 107.137 134.047 98.4102 Q134.047 89.6602 137.103 85.0769 Q140.181 80.4704 145.992 80.4704 Z" fill="#000000" fill-rule="nonzero" fill-opacity="1" /><polyline clip-path="url(#clip492)" style="stroke:#009af9; stroke-linecap:round; stroke-linejoin:round; stroke-width:4; stroke-opacity:1; fill:none" points="1270.04,98.3754 1366.47,101.625 1461.95,111.699 1555.66,127.948 1646.3,150.046 1733.4,178.319 1816.26,211.466 1893.68,249.163 1965.44,291.085 2030.59,336.581 2089.13,385.327 2140.59,436.185 2184.49,489.319 2220.37,544.077 2248.22,599.891 2268.05,656.68 2279.38,713.997 2282.22,771.594 2277.49,829.119 2263.33,886.355 2241.62,942.982 2211.4,998.552 2173.63,1052.82 2127.84,1105.47 2074.49,1155.84 2014.06,1203.61 1947.03,1248.13 1873.38,1289.08 1794.54,1325.8 1710.74,1357.65 1622.46,1384.3 1530.87,1405.09 1436.69,1419.39 1340.86,1427.84 1244.31,1429.14 1148,1424.27 1053,1412.57 960.11,1394.69 870.176,1370.65 784.254,1341.4 702.582,1306.95 626.574,1267.96 556.704,1224.73 492.971,1178.59 436.32,1129.19 387.222,1077.68 345.205,1024.06 311.686,968.98 286.193,912.84 268.253,855.889 258.811,798.49 258.811,740.909 265.421,683.409 281.472,626.376 305.549,570.075 338.124,514.667 378.252,460.883 425.933,408.725 481.169,359.004 543.485,311.883 611.939,268.337 687.003,228.365 767.259,192.943 852.472,162.72 941.698,137.697 1034.11,118.524 1128.77,105.525 1224.93,99.0254 1321.5,99.3504 1417.57,106.175 1512.23,119.499 1604.29,138.997 1693.28,164.345 1778.02,195.218 1858.27,230.965 1932.86,271.261 2000.85,315.133 2062.69,362.254 2117.45,411.975 2164.66,464.296 2204.32,518.241 2235.95,573.649 2259.55,630.113 2274.66,687.187 2282.22,744.687 2280.33,802.288 2270.89,859.707 2252.95,916.578 2226.51,972.717 2192.04,1027.64 2150.03,1081.1 2099.99,1132.44 2042.86,1181.51 1979.13,1227.66 1908.32,1270.55 1832.31,1309.23 1750.4,1343.35 1664.24,1372.6 1574.07,1395.99 1480.95,1413.54 1385.76,1424.59 1289.43,1429.47 1192.91,1427.19 1097.14,1418.74 1003.07,1403.79 911.72,1382.67 823.674,1355.7 740.349,1323.53 661.509,1286.48 588.807,1245.53 521.769,1200.69 461.813,1152.59 409.41,1101.89 364.089,1049.25 326.321,994.977 296.579,939.244 275.807,882.618 262.588,825.341 257.867,767.811 261.644,710.219 272.974,652.943 293.747,596.235 322.072,540.339 358.424,485.744 402.801,432.773 454.259,382.077 513.271,333.656 579.365,288.16 651.123,246.563 729.019,209.191 812.108,176.044 899.682,148.421 990.56,126.648 1084.39,110.724 1179.93,101.3 1276.39,98.3754 1372.78,102.275 1468.2,112.349 1561.56,129.248 1652.2,151.996 1739.07,180.269 1821.45,213.741 1898.4,251.763 1969.69,294.009 2034.84,339.831 2092.9,388.577 2143.89,439.76 2186.85,492.893 2222.26,547.651 2250.11,603.628 2269,660.417 2279.38,717.816 2282.22,775.377 2276.55,832.897 2262.39,890.092 2239.73,946.556 2209.04,1002.13 2170.8,1056.4 2124.54,1108.72 2070.72,1159.09 2009.82,1206.54 1942.31,1251.06 1868.66,1291.68 1789.35,1328.08 1705.08,1359.6 1616.56,1385.6 1524.74,1406.07 1430.44,1420.37 1334.48,1427.84 1237.97,1429.14 1141.75,1423.62 1046.74,1411.59 953.973,1393.07 864.275,1369.02 778.589,1339.12 697.389,1304.35 621.853,1265.03 552.455,1221.81 489.194,1175.34 433.015,1125.94 383.917,1074.11 342.845,1020.49 309.798,965.405 284.305,909.184 267.309,852.152 258.811,794.712 258.811,737.111 266.365,679.672 283.36,622.639 307.437,566.337 340.484,511.092 381.084,457.309 429.238,405.475 484.945,355.754 547.734,308.958 617.132,265.737 692.196,226.09 772.924,190.993 858.373,160.77 947.6,136.072 "/>
<polyline clip-path="url(#clip492)" style="stroke:#e26f46; stroke-linecap:round; stroke-linejoin:round; stroke-width:4; stroke-opacity:1; fill:none" points="1270.04,98.3754 1383.34,101.625 1488.15,113.324 1579.74,130.873 1663.77,154.921 1734.11,185.468 1798.79,219.266 1852.14,258.912 1900.29,300.509 1940.89,344.055 1976.77,390.852 2006.51,438.298 2033.89,483.794 2056.08,530.59 2076.38,578.036 2092.43,622.883 2108.96,669.029 2122.65,713.875 2134.45,759.047 2141.53,802.593 2148.61,848.739 2150.97,894.886 2146.25,939.407 2139.64,987.503 2124.54,1034.62 2101.87,1082.56 2069.3,1129.84 2026.34,1177.61 1971.58,1224.73 1903.12,1269.91 1821.92,1311.18 1728.68,1347.9 1627.89,1380.4 1519.31,1405.74 1405.06,1422.97 1290.81,1431.42 1184.12,1433.37 1081.2,1426.22 988.672,1413.87 899.918,1391.77 822.494,1365.12 756.401,1331.97 690.307,1291.68 639.321,1249.43 592.111,1204.59 553.399,1158.44 518.936,1111.64 490.611,1064.85 464.645,1018.05 444.345,972.554 424.989,923.158 407.994,878.312 393.831,832.166 381.084,785.369 372.115,738.573 366.449,692.752 364.089,645.631 367.866,599.81 375.891,552.688 390.998,504.917 412.243,456.171 441.985,407.1 482.585,356.079 537.82,307.008 607.69,260.212 691.251,216.991 786.615,177.994 890.948,144.522 1002.83,118.199 1121.8,100.325 1239.83,89.9261 1352.19,88.6262 1453.21,93.8258 1549.52,106.175 1637.33,125.673 1717.59,152.321 1785.57,182.869 1848.36,222.515 1899.35,264.762 1944.19,308.958 1984.79,357.704 2017.84,405.8 2046.17,453.896 2070.72,503.292 2094.32,552.038 2110.84,597.535 2129.73,646.931 2142.95,693.727 2155.69,740.523 2164.19,785.694 2170.8,830.866 2174.11,878.637 2173.63,926.408 2165.61,973.204 2151.92,1020.98 2130.2,1069.23 2100.93,1120.09 2058.44,1170.14 2004.15,1219.53 1936.17,1266.66 1855.91,1311.18 1761.02,1350.82 1655.74,1385.27 1540.08,1411.92 1423,1432.07 1301.2,1441.17 1186.01,1443.77 1071.76,1434.67 973.565,1421.02 885.755,1398.92 799.834,1367.07 731.852,1331.33 671.423,1289.73 620.909,1244.23 577.004,1199.39 544.43,1155.19 511.383,1105.79 484.473,1056.4 461.813,1010.25 441.041,962.155 421.212,913.409 407.522,869.863 394.775,824.366 380.612,775.62 373.531,731.424 368.338,685.928 367.866,639.781 368.81,591.035 377.78,543.264 392.415,494.843 415.547,446.422 449.066,396.701 493.915,347.305 551.983,299.534 623.742,253.388 708.247,210.816 802.666,172.469 909.36,140.297 1024.55,115.274 1140.21,98.3754 1253.99,87.9763 1372.01,87.9763 1482.48,99.0254 1578.79,115.924 1664.71,138.022 1741.67,167.27 1813.42,204.317 1867.24,242.014 1917.29,283.61 1963.55,331.056 1995.18,377.203 2028.23,425.299 2055.61,474.045 2081.1,522.791 2103.76,572.187 2125.95,620.933 2137.28,664.479 2150.97,710.626 2162.3,757.422 2170.33,803.568 2171.74,846.789 2172.69,891.961 2170.33,939.732 2161.36,987.503 2145.31,1035.6 2121.7,1084.83 2090.07,1135.69 2044.75,1185.74 1984.79,1234.16 1913.04,1280.63 1826.17,1322.88 1728.45,1361.22 1621.28,1393.39 1507.03,1419.07 1389.01,1436.62 1271.93,1445.72 1154.85,1443.77 1043.44,1432.72 948.072,1415.82 861.206,1391.12 783.31,1360.57 709.191,1320.28 654.428,1278.68 602.025,1233.18 560.953,1186.39 522.241,1138.29 488.722,1086.94 461.813,1037.55 437.736,990.753 418.852,942.657 398.08,893.261 379.668,843.215 366.449,795.119 357.48,749.622 350.87,700.876 349.454,655.38 351.342,608.259 358.896,560.813 371.17,511.092 391.943,461.208 "/>
<polyline clip-path="url(#clip492)" style="stroke:#3da44d; stroke-linecap:round; stroke-linejoin:round; stroke-width:4; stroke-opacity:1; fill:none" points="1270.04,98.3754 1366.11,101.95 1461.71,112.024 1555.19,128.598 1645.83,151.021 1732.7,178.969 1816.26,212.116 1894.62,249.163 1966.86,290.11 2032.95,334.631 2091.02,382.727 2143.42,433.098 2187.8,485.906 2223.68,539.852 2251.06,596.235 2270.89,653.43 2282.22,710.951 2285.99,769.121 2281.27,826.641 2268.05,883.836 2246.34,941.032 2217.07,997.415 2179.3,1051.85 2133.51,1104.82 2080.16,1155.19 2019.26,1202.96 1951.75,1247.48 1878.1,1288.75 1798.32,1325.48 1714.76,1357.32 1626.24,1383.97 1534.89,1405.42 1441.06,1420.37 1345.81,1428.49 1249.39,1430.12 1153.2,1424.59 1058.78,1412.57 966.011,1394.37 875.841,1370.32 789.92,1341.07 707.775,1306.95 630.823,1268.28 560.481,1226.03 496.276,1179.89 439.152,1131.14 389.582,1079.96 347.566,1027.15 313.102,972.879 287.137,916.496 270.142,859.138 260.7,801.943 258.811,743.773 265.421,685.44 280.528,627.432 303.661,570.562 334.819,514.667 374.003,459.908 421.685,407.1 476.92,356.729 539.709,309.283 609.107,265.087 684.642,225.115 766.787,188.718 852.236,157.846 941.462,132.173 1034.7,112.999 1129.12,100 1225.43,93.8258 1321.97,93.8258 1418.52,100.975 1513.17,114.624 1605.23,134.772 1694.46,159.795 1780.85,190.668 1862.52,226.415 1938.53,266.062 2007.93,309.933 2070.72,356.729 2126.42,406.45 2174.11,457.959 2213.76,512.067 2245.39,567.8 2269,624.508 2284.1,682.028 2291.66,740.036 2290.71,798.206 2281.27,855.726 2263.33,913.572 2237.84,970.442 2203.85,1025.69 2161.83,1079.63 2112.26,1131.79 2054.66,1181.19 1990.46,1227.66 1919.65,1270.88 1842.22,1310.2 1760.08,1344.32 1673.68,1374.22 1583.99,1398.59 1491.22,1416.79 1395.62,1428.17 1298.72,1432.72 1201.94,1430.12 1106.22,1421.99 1012.28,1406.39 920.218,1385.27 830.52,1357.97 745.07,1325.48 666.702,1289.4 592.583,1249.11 524.602,1204.59 463.701,1157.79 409.41,1107.42 363.617,1055.26 325.377,1001.15 295.635,945.744 272.974,888.224 259.756,830.703 255.035,772.371 258.811,714.2 270.142,656.03 289.97,598.835 317.351,542.289 353.231,487.044 396.664,433.748 448.122,383.052 507.606,334.306 573.7,288.485 646.402,246.238 724.298,207.567 807.859,174.094 895.905,145.822 987.02,123.398 1080.26,107.475 1175.5,97.7255 1272.16,94.4757 1368.59,97.7255 1464.78,108.45 1558.49,125.023 1650.55,148.096 1737.89,176.369 1820.98,209.516 1898.87,247.213 1971.58,288.81 2036.73,333.656 2095.74,381.752 2147.67,432.448 2192.04,485.256 2227.45,539.365 2255.78,594.772 2275.61,651.155 2286.94,708.676 2289.77,766.521 2285.99,824.366 2273.72,881.887 2252.95,939.244 2224.15,995.14 2186.85,1049.74 2141.53,1102.87 2088.66,1154.21 2028.23,1201.99 1961.19,1247.48 1887.07,1288.75 1807.29,1325.48 1723.49,1357.97 1635.21,1385.27 1543.38,1407.04 1449.56,1422.32 1353.96,1430.77 1257.18,1432.72 1161.34,1428.17 1065.39,1416.47 972.621,1398.92 881.506,1374.87 794.641,1345.62 712.024,1311.83 635.544,1273.48 563.313,1231.23 497.692,1186.06 439.152,1137.64 389.582,1086.46 346.149,1032.67 311.686,977.429 285.249,921.046 267.309,863.526 256.923,805.518 255.035,747.51 261.644,689.665 276.751,631.495 298.468,573.974 329.626,517.429 368.81,462.508 416.492,409.7 471.727,359.329 534.516,311.558 603.442,267.362 678.505,226.415 759.705,190.018 845.863,158.821 935.089,132.498 "/>
<path clip-path="url(#clip490)" d="M265.897 302.578 L781.708 302.578 L781.708 95.2176 L265.897 95.2176  Z" fill="#ffffff" fill-rule="evenodd" fill-opacity="1"/>
<polyline clip-path="url(#clip490)" style="stroke:#000000; stroke-linecap:round; stroke-linejoin:round; stroke-width:4; stroke-opacity:1; fill:none" points="265.897,302.578 781.708,302.578 781.708,95.2176 265.897,95.2176 265.897,302.578 "/>
<polyline clip-path="url(#clip490)" style="stroke:#009af9; stroke-linecap:round; stroke-linejoin:round; stroke-width:4; stroke-opacity:1; fill:none" points="289.884,147.058 433.805,147.058 "/>
<path clip-path="url(#clip490)" d="M465.199 131.051 L465.199 138.412 L473.972 138.412 L473.972 141.722 L465.199 141.722 L465.199 155.796 Q465.199 158.967 466.056 159.87 Q466.935 160.773 469.597 160.773 L473.972 160.773 L473.972 164.338 L469.597 164.338 Q464.667 164.338 462.792 162.509 Q460.917 160.657 460.917 155.796 L460.917 141.722 L457.792 141.722 L457.792 138.412 L460.917 138.412 L460.917 131.051 L465.199 131.051 Z" fill="#000000" fill-rule="nonzero" fill-opacity="1" /><path clip-path="url(#clip490)" d="M494.597 142.393 Q493.88 141.977 493.023 141.791 Q492.19 141.583 491.171 141.583 Q487.56 141.583 485.616 143.944 Q483.694 146.282 483.694 150.68 L483.694 164.338 L479.412 164.338 L479.412 138.412 L483.694 138.412 L483.694 142.44 Q485.037 140.078 487.19 138.944 Q489.343 137.787 492.421 137.787 Q492.861 137.787 493.393 137.856 Q493.926 137.903 494.574 138.018 L494.597 142.393 Z" fill="#000000" fill-rule="nonzero" fill-opacity="1" /><path clip-path="url(#clip490)" d="M510.847 151.305 Q505.685 151.305 503.694 152.486 Q501.704 153.666 501.704 156.514 Q501.704 158.782 503.185 160.125 Q504.69 161.444 507.259 161.444 Q510.801 161.444 512.93 158.944 Q515.083 156.421 515.083 152.254 L515.083 151.305 L510.847 151.305 M519.342 149.546 L519.342 164.338 L515.083 164.338 L515.083 160.402 Q513.625 162.763 511.449 163.898 Q509.273 165.009 506.125 165.009 Q502.143 165.009 499.782 162.787 Q497.444 160.541 497.444 156.791 Q497.444 152.416 500.361 150.194 Q503.301 147.972 509.111 147.972 L515.083 147.972 L515.083 147.555 Q515.083 144.615 513.139 143.018 Q511.217 141.398 507.722 141.398 Q505.5 141.398 503.393 141.93 Q501.287 142.463 499.342 143.527 L499.342 139.592 Q501.68 138.69 503.879 138.25 Q506.079 137.787 508.162 137.787 Q513.787 137.787 516.565 140.703 Q519.342 143.62 519.342 149.546 Z" fill="#000000" fill-rule="nonzero" fill-opacity="1" /><path clip-path="url(#clip490)" d="M528.115 138.412 L532.375 138.412 L532.375 164.338 L528.115 164.338 L528.115 138.412 M528.115 128.319 L532.375 128.319 L532.375 133.713 L528.115 133.713 L528.115 128.319 Z" fill="#000000" fill-rule="nonzero" fill-opacity="1" /><path clip-path="url(#clip490)" d="M562.837 148.689 L562.837 164.338 L558.578 164.338 L558.578 148.828 Q558.578 145.148 557.143 143.319 Q555.708 141.49 552.838 141.49 Q549.388 141.49 547.398 143.69 Q545.407 145.889 545.407 149.685 L545.407 164.338 L541.125 164.338 L541.125 138.412 L545.407 138.412 L545.407 142.44 Q546.935 140.102 548.995 138.944 Q551.078 137.787 553.787 137.787 Q558.254 137.787 560.546 140.565 Q562.837 143.319 562.837 148.689 Z" fill="#000000" fill-rule="nonzero" fill-opacity="1" /><path clip-path="url(#clip490)" d="M571.333 138.412 L575.592 138.412 L575.592 164.338 L571.333 164.338 L571.333 138.412 M571.333 128.319 L575.592 128.319 L575.592 133.713 L571.333 133.713 L571.333 128.319 Z" fill="#000000" fill-rule="nonzero" fill-opacity="1" /><path clip-path="url(#clip490)" d="M606.055 148.689 L606.055 164.338 L601.796 164.338 L601.796 148.828 Q601.796 145.148 600.36 143.319 Q598.925 141.49 596.055 141.49 Q592.606 141.49 590.615 143.69 Q588.624 145.889 588.624 149.685 L588.624 164.338 L584.342 164.338 L584.342 138.412 L588.624 138.412 L588.624 142.44 Q590.152 140.102 592.212 138.944 Q594.296 137.787 597.004 137.787 Q601.472 137.787 603.763 140.565 Q606.055 143.319 606.055 148.689 Z" fill="#000000" fill-rule="nonzero" fill-opacity="1" /><path clip-path="url(#clip490)" d="M631.61 151.074 Q631.61 146.444 629.689 143.898 Q627.791 141.352 624.342 141.352 Q620.916 141.352 618.995 143.898 Q617.096 146.444 617.096 151.074 Q617.096 155.68 618.995 158.226 Q620.916 160.773 624.342 160.773 Q627.791 160.773 629.689 158.226 Q631.61 155.68 631.61 151.074 M635.87 161.12 Q635.87 167.74 632.93 170.958 Q629.99 174.199 623.925 174.199 Q621.68 174.199 619.689 173.851 Q617.698 173.527 615.823 172.833 L615.823 168.689 Q617.698 169.708 619.527 170.194 Q621.356 170.68 623.254 170.68 Q627.444 170.68 629.527 168.481 Q631.61 166.305 631.61 161.884 L631.61 159.777 Q630.291 162.069 628.231 163.203 Q626.17 164.338 623.3 164.338 Q618.532 164.338 615.615 160.703 Q612.698 157.069 612.698 151.074 Q612.698 145.055 615.615 141.421 Q618.532 137.787 623.3 137.787 Q626.17 137.787 628.231 138.921 Q630.291 140.055 631.61 142.347 L631.61 138.412 L635.87 138.412 L635.87 161.12 Z" fill="#000000" fill-rule="nonzero" fill-opacity="1" /><path clip-path="url(#clip490)" d="M676.772 142.347 L676.772 128.319 L681.031 128.319 L681.031 164.338 L676.772 164.338 L676.772 160.449 Q675.429 162.763 673.369 163.898 Q671.332 165.009 668.462 165.009 Q663.763 165.009 660.8 161.259 Q657.86 157.509 657.86 151.398 Q657.86 145.287 660.8 141.537 Q663.763 137.787 668.462 137.787 Q671.332 137.787 673.369 138.921 Q675.429 140.032 676.772 142.347 M662.258 151.398 Q662.258 156.097 664.18 158.782 Q666.124 161.444 669.504 161.444 Q672.883 161.444 674.828 158.782 Q676.772 156.097 676.772 151.398 Q676.772 146.699 674.828 144.037 Q672.883 141.352 669.504 141.352 Q666.124 141.352 664.18 144.037 Q662.258 146.699 662.258 151.398 Z" fill="#000000" fill-rule="nonzero" fill-opacity="1" /><path clip-path="url(#clip490)" d="M701.587 151.305 Q696.425 151.305 694.434 152.486 Q692.443 153.666 692.443 156.514 Q692.443 158.782 693.925 160.125 Q695.429 161.444 697.999 161.444 Q701.54 161.444 703.67 158.944 Q705.823 156.421 705.823 152.254 L705.823 151.305 L701.587 151.305 M710.082 149.546 L710.082 164.338 L705.823 164.338 L705.823 160.402 Q704.365 162.763 702.189 163.898 Q700.013 165.009 696.865 165.009 Q692.883 165.009 690.522 162.787 Q688.184 160.541 688.184 156.791 Q688.184 152.416 691.101 150.194 Q694.04 147.972 699.851 147.972 L705.823 147.972 L705.823 147.555 Q705.823 144.615 703.878 143.018 Q701.957 141.398 698.462 141.398 Q696.24 141.398 694.133 141.93 Q692.027 142.463 690.082 143.527 L690.082 139.592 Q692.42 138.69 694.619 138.25 Q696.818 137.787 698.902 137.787 Q704.527 137.787 707.304 140.703 Q710.082 143.62 710.082 149.546 Z" fill="#000000" fill-rule="nonzero" fill-opacity="1" /><path clip-path="url(#clip490)" d="M723.068 131.051 L723.068 138.412 L731.841 138.412 L731.841 141.722 L723.068 141.722 L723.068 155.796 Q723.068 158.967 723.925 159.87 Q724.804 160.773 727.466 160.773 L731.841 160.773 L731.841 164.338 L727.466 164.338 Q722.536 164.338 720.661 162.509 Q718.786 160.657 718.786 155.796 L718.786 141.722 L715.661 141.722 L715.661 138.412 L718.786 138.412 L718.786 131.051 L723.068 131.051 Z" fill="#000000" fill-rule="nonzero" fill-opacity="1" /><path clip-path="url(#clip490)" d="M749.225 151.305 Q744.063 151.305 742.073 152.486 Q740.082 153.666 740.082 156.514 Q740.082 158.782 741.563 160.125 Q743.068 161.444 745.637 161.444 Q749.179 161.444 751.309 158.944 Q753.461 156.421 753.461 152.254 L753.461 151.305 L749.225 151.305 M757.721 149.546 L757.721 164.338 L753.461 164.338 L753.461 160.402 Q752.003 162.763 749.827 163.898 Q747.651 165.009 744.503 165.009 Q740.522 165.009 738.161 162.787 Q735.823 160.541 735.823 156.791 Q735.823 152.416 738.739 150.194 Q741.679 147.972 747.489 147.972 L753.461 147.972 L753.461 147.555 Q753.461 144.615 751.517 143.018 Q749.596 141.398 746.1 141.398 Q743.878 141.398 741.772 141.93 Q739.665 142.463 737.721 143.527 L737.721 139.592 Q740.059 138.69 742.258 138.25 Q744.457 137.787 746.54 137.787 Q752.165 137.787 754.943 140.703 Q757.721 143.62 757.721 149.546 Z" fill="#000000" fill-rule="nonzero" fill-opacity="1" /><polyline clip-path="url(#clip490)" style="stroke:#e26f46; stroke-linecap:round; stroke-linejoin:round; stroke-width:4; stroke-opacity:1; fill:none" points="289.884,198.898 433.805,198.898 "/>
<path clip-path="url(#clip490)" d="M457.792 181.618 L462.468 181.618 L462.468 212.242 L479.296 212.242 L479.296 216.178 L457.792 216.178 L457.792 181.618 Z" fill="#000000" fill-rule="nonzero" fill-opacity="1" /><path clip-path="url(#clip490)" d="M496.842 186.224 L490.5 203.423 L503.208 203.423 L496.842 186.224 M494.204 181.618 L499.505 181.618 L512.676 216.178 L507.815 216.178 L504.667 207.312 L489.088 207.312 L485.94 216.178 L481.009 216.178 L494.204 181.618 Z" fill="#000000" fill-rule="nonzero" fill-opacity="1" /><path clip-path="url(#clip490)" d="M553.509 182.752 L553.509 187.312 Q550.847 186.039 548.486 185.414 Q546.125 184.789 543.926 184.789 Q540.106 184.789 538.023 186.27 Q535.963 187.752 535.963 190.483 Q535.963 192.775 537.328 193.955 Q538.717 195.113 542.56 195.83 L545.384 196.409 Q550.615 197.405 553.092 199.928 Q555.592 202.428 555.592 206.641 Q555.592 211.664 552.213 214.256 Q548.856 216.849 542.351 216.849 Q539.898 216.849 537.12 216.293 Q534.365 215.738 531.402 214.65 L531.402 209.835 Q534.25 211.432 536.981 212.242 Q539.713 213.053 542.351 213.053 Q546.356 213.053 548.532 211.479 Q550.708 209.904 550.708 206.988 Q550.708 204.442 549.134 203.006 Q547.583 201.571 544.018 200.854 L541.171 200.298 Q535.939 199.256 533.602 197.034 Q531.264 194.812 531.264 190.854 Q531.264 186.27 534.481 183.631 Q537.722 180.993 543.393 180.993 Q545.824 180.993 548.347 181.432 Q550.87 181.872 553.509 182.752 Z" fill="#000000" fill-rule="nonzero" fill-opacity="1" /><path clip-path="url(#clip490)" d="M573.486 218.585 Q571.68 223.215 569.967 224.627 Q568.254 226.039 565.384 226.039 L561.981 226.039 L561.981 222.474 L564.481 222.474 Q566.24 222.474 567.212 221.64 Q568.185 220.807 569.365 217.705 L570.129 215.761 L559.643 190.252 L564.157 190.252 L572.259 210.529 L580.361 190.252 L584.874 190.252 L573.486 218.585 Z" fill="#000000" fill-rule="nonzero" fill-opacity="1" /><path clip-path="url(#clip490)" d="M610.939 195.229 Q612.536 192.358 614.759 190.993 Q616.981 189.627 619.99 189.627 Q624.041 189.627 626.24 192.474 Q628.439 195.298 628.439 200.529 L628.439 216.178 L624.157 216.178 L624.157 200.668 Q624.157 196.942 622.837 195.136 Q621.518 193.33 618.809 193.33 Q615.499 193.33 613.578 195.53 Q611.657 197.729 611.657 201.525 L611.657 216.178 L607.374 216.178 L607.374 200.668 Q607.374 196.918 606.055 195.136 Q604.735 193.33 601.981 193.33 Q598.717 193.33 596.796 195.553 Q594.874 197.752 594.874 201.525 L594.874 216.178 L590.592 216.178 L590.592 190.252 L594.874 190.252 L594.874 194.28 Q596.333 191.895 598.37 190.761 Q600.407 189.627 603.208 189.627 Q606.032 189.627 607.999 191.062 Q609.99 192.497 610.939 195.229 Z" fill="#000000" fill-rule="nonzero" fill-opacity="1" /><path clip-path="url(#clip490)" d="M641.055 212.289 L641.055 226.039 L636.772 226.039 L636.772 190.252 L641.055 190.252 L641.055 194.187 Q642.397 191.872 644.434 190.761 Q646.494 189.627 649.342 189.627 Q654.064 189.627 657.004 193.377 Q659.967 197.127 659.967 203.238 Q659.967 209.349 657.004 213.099 Q654.064 216.849 649.342 216.849 Q646.494 216.849 644.434 215.738 Q642.397 214.603 641.055 212.289 M655.545 203.238 Q655.545 198.539 653.601 195.877 Q651.68 193.192 648.3 193.192 Q644.92 193.192 642.976 195.877 Q641.055 198.539 641.055 203.238 Q641.055 207.937 642.976 210.622 Q644.92 213.284 648.3 213.284 Q651.68 213.284 653.601 210.622 Q655.545 207.937 655.545 203.238 Z" fill="#000000" fill-rule="nonzero" fill-opacity="1" /><path clip-path="url(#clip490)" d="M688.578 200.529 L688.578 216.178 L684.318 216.178 L684.318 200.668 Q684.318 196.988 682.883 195.159 Q681.448 193.33 678.578 193.33 Q675.129 193.33 673.138 195.53 Q671.147 197.729 671.147 201.525 L671.147 216.178 L666.865 216.178 L666.865 190.252 L671.147 190.252 L671.147 194.28 Q672.675 191.942 674.735 190.784 Q676.818 189.627 679.527 189.627 Q683.994 189.627 686.286 192.405 Q688.578 195.159 688.578 200.529 Z" fill="#000000" fill-rule="nonzero" fill-opacity="1" /><path clip-path="url(#clip490)" d="M719.249 202.15 L719.249 204.233 L699.665 204.233 Q699.943 208.631 702.304 210.946 Q704.689 213.238 708.925 213.238 Q711.378 213.238 713.67 212.636 Q715.985 212.034 718.253 210.83 L718.253 214.858 Q715.962 215.83 713.554 216.34 Q711.147 216.849 708.67 216.849 Q702.466 216.849 698.832 213.238 Q695.221 209.627 695.221 203.469 Q695.221 197.104 698.647 193.377 Q702.096 189.627 707.929 189.627 Q713.161 189.627 716.193 193.006 Q719.249 196.363 719.249 202.15 M714.989 200.9 Q714.943 197.405 713.022 195.321 Q711.124 193.238 707.976 193.238 Q704.411 193.238 702.258 195.252 Q700.128 197.266 699.804 200.923 L714.989 200.9 Z" fill="#000000" fill-rule="nonzero" fill-opacity="1" /><path clip-path="url(#clip490)" d="M730.452 182.891 L730.452 190.252 L739.225 190.252 L739.225 193.562 L730.452 193.562 L730.452 207.636 Q730.452 210.807 731.309 211.71 Q732.188 212.613 734.85 212.613 L739.225 212.613 L739.225 216.178 L734.85 216.178 Q729.92 216.178 728.045 214.349 Q726.17 212.497 726.17 207.636 L726.17 193.562 L723.045 193.562 L723.045 190.252 L726.17 190.252 L726.17 182.891 L730.452 182.891 Z" fill="#000000" fill-rule="nonzero" fill-opacity="1" /><polyline clip-path="url(#clip490)" style="stroke:#3da44d; stroke-linecap:round; stroke-linejoin:round; stroke-width:4; stroke-opacity:1; fill:none" points="289.884,250.738 433.805,250.738 "/>
<path clip-path="url(#clip490)" d="M483.347 263.087 L483.347 253.805 L475.708 253.805 L475.708 249.962 L487.977 249.962 L487.977 264.8 Q485.268 266.721 482.005 267.717 Q478.741 268.689 475.037 268.689 Q466.935 268.689 462.352 263.967 Q457.792 259.221 457.792 250.772 Q457.792 242.3 462.352 237.578 Q466.935 232.833 475.037 232.833 Q478.417 232.833 481.449 233.666 Q484.505 234.499 487.074 236.12 L487.074 241.096 Q484.481 238.897 481.565 237.786 Q478.648 236.675 475.431 236.675 Q469.088 236.675 465.894 240.217 Q462.722 243.758 462.722 250.772 Q462.722 257.763 465.894 261.305 Q469.088 264.846 475.431 264.846 Q477.907 264.846 479.852 264.43 Q481.796 263.99 483.347 263.087 Z" fill="#000000" fill-rule="nonzero" fill-opacity="1" /><path clip-path="url(#clip490)" d="M532.305 234.592 L532.305 239.152 Q529.643 237.879 527.282 237.254 Q524.921 236.629 522.722 236.629 Q518.903 236.629 516.819 238.11 Q514.759 239.592 514.759 242.323 Q514.759 244.615 516.125 245.795 Q517.514 246.953 521.356 247.67 L524.18 248.249 Q529.412 249.245 531.889 251.768 Q534.389 254.268 534.389 258.481 Q534.389 263.504 531.009 266.096 Q527.653 268.689 521.148 268.689 Q518.694 268.689 515.916 268.133 Q513.162 267.578 510.199 266.49 L510.199 261.675 Q513.046 263.272 515.778 264.082 Q518.509 264.893 521.148 264.893 Q525.153 264.893 527.328 263.319 Q529.504 261.744 529.504 258.828 Q529.504 256.282 527.93 254.846 Q526.379 253.411 522.815 252.694 L519.967 252.138 Q514.736 251.096 512.398 248.874 Q510.06 246.652 510.06 242.694 Q510.06 238.11 513.278 235.471 Q516.518 232.833 522.19 232.833 Q524.62 232.833 527.143 233.272 Q529.666 233.712 532.305 234.592 Z" fill="#000000" fill-rule="nonzero" fill-opacity="1" /><path clip-path="url(#clip490)" d="M552.282 270.425 Q550.476 275.055 548.763 276.467 Q547.051 277.879 544.18 277.879 L540.777 277.879 L540.777 274.314 L543.277 274.314 Q545.037 274.314 546.009 273.48 Q546.981 272.647 548.162 269.545 L548.926 267.601 L538.439 242.092 L542.953 242.092 L551.055 262.369 L559.157 242.092 L563.671 242.092 L552.282 270.425 Z" fill="#000000" fill-rule="nonzero" fill-opacity="1" /><path clip-path="url(#clip490)" d="M589.736 247.069 Q591.333 244.198 593.555 242.833 Q595.777 241.467 598.786 241.467 Q602.837 241.467 605.036 244.314 Q607.235 247.138 607.235 252.369 L607.235 268.018 L602.953 268.018 L602.953 252.508 Q602.953 248.782 601.634 246.976 Q600.314 245.17 597.606 245.17 Q594.296 245.17 592.374 247.37 Q590.453 249.569 590.453 253.365 L590.453 268.018 L586.171 268.018 L586.171 252.508 Q586.171 248.758 584.851 246.976 Q583.532 245.17 580.777 245.17 Q577.513 245.17 575.592 247.393 Q573.671 249.592 573.671 253.365 L573.671 268.018 L569.388 268.018 L569.388 242.092 L573.671 242.092 L573.671 246.12 Q575.129 243.735 577.166 242.601 Q579.203 241.467 582.004 241.467 Q584.828 241.467 586.796 242.902 Q588.786 244.337 589.736 247.069 Z" fill="#000000" fill-rule="nonzero" fill-opacity="1" /><path clip-path="url(#clip490)" d="M619.851 264.129 L619.851 277.879 L615.569 277.879 L615.569 242.092 L619.851 242.092 L619.851 246.027 Q621.194 243.712 623.231 242.601 Q625.291 241.467 628.138 241.467 Q632.86 241.467 635.8 245.217 Q638.763 248.967 638.763 255.078 Q638.763 261.189 635.8 264.939 Q632.86 268.689 628.138 268.689 Q625.291 268.689 623.231 267.578 Q621.194 266.443 619.851 264.129 M634.342 255.078 Q634.342 250.379 632.397 247.717 Q630.476 245.032 627.096 245.032 Q623.717 245.032 621.772 247.717 Q619.851 250.379 619.851 255.078 Q619.851 259.777 621.772 262.462 Q623.717 265.124 627.096 265.124 Q630.476 265.124 632.397 262.462 Q634.342 259.777 634.342 255.078 Z" fill="#000000" fill-rule="nonzero" fill-opacity="1" /><path clip-path="url(#clip490)" d="M667.374 252.369 L667.374 268.018 L663.115 268.018 L663.115 252.508 Q663.115 248.828 661.68 246.999 Q660.244 245.17 657.374 245.17 Q653.925 245.17 651.934 247.37 Q649.944 249.569 649.944 253.365 L649.944 268.018 L645.661 268.018 L645.661 242.092 L649.944 242.092 L649.944 246.12 Q651.471 243.782 653.531 242.624 Q655.615 241.467 658.323 241.467 Q662.791 241.467 665.082 244.245 Q667.374 246.999 667.374 252.369 Z" fill="#000000" fill-rule="nonzero" fill-opacity="1" /><path clip-path="url(#clip490)" d="M698.045 253.99 L698.045 256.073 L678.462 256.073 Q678.74 260.471 681.101 262.786 Q683.485 265.078 687.721 265.078 Q690.175 265.078 692.466 264.476 Q694.781 263.874 697.05 262.67 L697.05 266.698 Q694.758 267.67 692.351 268.18 Q689.943 268.689 687.466 268.689 Q681.263 268.689 677.629 265.078 Q674.017 261.467 674.017 255.309 Q674.017 248.944 677.443 245.217 Q680.892 241.467 686.726 241.467 Q691.957 241.467 694.99 244.846 Q698.045 248.203 698.045 253.99 M693.786 252.74 Q693.74 249.245 691.818 247.161 Q689.92 245.078 686.772 245.078 Q683.207 245.078 681.054 247.092 Q678.925 249.106 678.601 252.763 L693.786 252.74 Z" fill="#000000" fill-rule="nonzero" fill-opacity="1" /><path clip-path="url(#clip490)" d="M709.249 234.731 L709.249 242.092 L718.022 242.092 L718.022 245.402 L709.249 245.402 L709.249 259.476 Q709.249 262.647 710.105 263.55 Q710.985 264.453 713.647 264.453 L718.022 264.453 L718.022 268.018 L713.647 268.018 Q708.716 268.018 706.841 266.189 Q704.966 264.337 704.966 259.476 L704.966 245.402 L701.841 245.402 L701.841 242.092 L704.966 242.092 L704.966 234.731 L709.249 234.731 Z" fill="#000000" fill-rule="nonzero" fill-opacity="1" /></svg>
