<?xml version="1.0" encoding="utf-8"?>
<svg xmlns="http://www.w3.org/2000/svg" xmlns:xlink="http://www.w3.org/1999/xlink" width="600" height="400" viewBox="0 0 2400 1600">
<defs>
  <clipPath id="clip810">
    <rect x="0" y="0" width="2400" height="1600"/>
  </clipPath>
</defs>
<path clip-path="url(#clip810)" d="M0 1600 L2400 1600 L2400 0 L0 0  Z" fill="#ffffff" fill-rule="evenodd" fill-opacity="1"/>
<defs>
  <clipPath id="clip811">
    <rect x="480" y="0" width="1681" height="1600"/>
  </clipPath>
</defs>
<path clip-path="url(#clip810)" d="M193.936 1486.45 L2352.76 1486.45 L2352.76 47.2441 L193.936 47.2441  Z" fill="#ffffff" fill-rule="evenodd" fill-opacity="1"/>
<defs>
  <clipPath id="clip812">
    <rect x="193" y="47" width="2160" height="1440"/>
  </clipPath>
</defs>
<polyline clip-path="url(#clip812)" style="stroke:#000000; stroke-linecap:round; stroke-linejoin:round; stroke-width:2; stroke-opacity:0.1; fill:none" points="348.474,1486.45 348.474,47.2441 "/>
<polyline clip-path="url(#clip812)" style="stroke:#000000; stroke-linecap:round; stroke-linejoin:round; stroke-width:2; stroke-opacity:0.1; fill:none" points="812.951,1486.45 812.951,47.2441 "/>
<polyline clip-path="url(#clip812)" style="stroke:#000000; stroke-linecap:round; stroke-linejoin:round; stroke-width:2; stroke-opacity:0.1; fill:none" points="1277.43,1486.45 1277.43,47.2441 "/>
<polyline clip-path="url(#clip812)" style="stroke:#000000; stroke-linecap:round; stroke-linejoin:round; stroke-width:2; stroke-opacity:0.1; fill:none" points="1741.91,1486.45 1741.91,47.2441 "/>
<polyline clip-path="url(#clip812)" style="stroke:#000000; stroke-linecap:round; stroke-linejoin:round; stroke-width:2; stroke-opacity:0.1; fill:none" points="2206.38,1486.45 2206.38,47.2441 "/>
<polyline clip-path="url(#clip810)" style="stroke:#000000; stroke-linecap:round; stroke-linejoin:round; stroke-width:4; stroke-opacity:1; fill:none" points="193.936,1486.45 2352.76,1486.45 "/>
<polyline clip-path="url(#clip810)" style="stroke:#000000; stroke-linecap:round; stroke-linejoin:round; stroke-width:4; stroke-opacity:1; fill:none" points="348.474,1486.45 348.474,1467.55 "/>
<polyline clip-path="url(#clip810)" style="stroke:#000000; stroke-linecap:round; stroke-linejoin:round; stroke-width:4; stroke-opacity:1; fill:none" points="812.951,1486.45 812.951,1467.55 "/>
<polyline clip-path="url(#clip810)" style="stroke:#000000; stroke-linecap:round; stroke-linejoin:round; stroke-width:4; stroke-opacity:1; fill:none" points="1277.43,1486.45 1277.43,1467.55 "/>
<polyline clip-path="url(#clip810)" style="stroke:#000000; stroke-linecap:round; stroke-linejoin:round; stroke-width:4; stroke-opacity:1; fill:none" points="1741.91,1486.45 1741.91,1467.55 "/>
<polyline clip-path="url(#clip810)" style="stroke:#000000; stroke-linecap:round; stroke-linejoin:round; stroke-width:4; stroke-opacity:1; fill:none" points="2206.38,1486.45 2206.38,1467.55 "/>
<path clip-path="url(#clip810)" d="M295.002 1532.02 L324.678 1532.02 L324.678 1535.95 L295.002 1535.95 L295.002 1532.02 Z" fill="#000000" fill-rule="nonzero" fill-opacity="1" /><path clip-path="url(#clip810)" d="M335.581 1544.91 L343.22 1544.91 L343.22 1518.55 L334.91 1520.21 L334.91 1515.95 L343.173 1514.29 L347.849 1514.29 L347.849 1544.91 L355.488 1544.91 L355.488 1548.85 L335.581 1548.85 L335.581 1544.91 Z" fill="#000000" fill-rule="nonzero" fill-opacity="1" /><path clip-path="url(#clip810)" d="M364.933 1542.97 L369.817 1542.97 L369.817 1548.85 L364.933 1548.85 L364.933 1542.97 Z" fill="#000000" fill-rule="nonzero" fill-opacity="1" /><path clip-path="url(#clip810)" d="M390.002 1517.37 Q386.391 1517.37 384.562 1520.93 Q382.757 1524.47 382.757 1531.6 Q382.757 1538.71 384.562 1542.27 Q386.391 1545.82 390.002 1545.82 Q393.636 1545.82 395.442 1542.27 Q397.27 1538.71 397.27 1531.6 Q397.27 1524.47 395.442 1520.93 Q393.636 1517.37 390.002 1517.37 M390.002 1513.66 Q395.812 1513.66 398.868 1518.27 Q401.946 1522.85 401.946 1531.6 Q401.946 1540.33 398.868 1544.94 Q395.812 1549.52 390.002 1549.52 Q384.192 1549.52 381.113 1544.94 Q378.058 1540.33 378.058 1531.6 Q378.058 1522.85 381.113 1518.27 Q384.192 1513.66 390.002 1513.66 Z" fill="#000000" fill-rule="nonzero" fill-opacity="1" /><path clip-path="url(#clip810)" d="M759.977 1532.02 L789.653 1532.02 L789.653 1535.95 L759.977 1535.95 L759.977 1532.02 Z" fill="#000000" fill-rule="nonzero" fill-opacity="1" /><path clip-path="url(#clip810)" d="M809.745 1517.37 Q806.134 1517.37 804.306 1520.93 Q802.5 1524.47 802.5 1531.6 Q802.5 1538.71 804.306 1542.27 Q806.134 1545.82 809.745 1545.82 Q813.38 1545.82 815.185 1542.27 Q817.014 1538.71 817.014 1531.6 Q817.014 1524.47 815.185 1520.93 Q813.38 1517.37 809.745 1517.37 M809.745 1513.66 Q815.555 1513.66 818.611 1518.27 Q821.69 1522.85 821.69 1531.6 Q821.69 1540.33 818.611 1544.94 Q815.555 1549.52 809.745 1549.52 Q803.935 1549.52 800.856 1544.94 Q797.801 1540.33 797.801 1531.6 Q797.801 1522.85 800.856 1518.27 Q803.935 1513.66 809.745 1513.66 Z" fill="#000000" fill-rule="nonzero" fill-opacity="1" /><path clip-path="url(#clip810)" d="M829.907 1542.97 L834.791 1542.97 L834.791 1548.85 L829.907 1548.85 L829.907 1542.97 Z" fill="#000000" fill-rule="nonzero" fill-opacity="1" /><path clip-path="url(#clip810)" d="M845.023 1514.29 L863.379 1514.29 L863.379 1518.22 L849.305 1518.22 L849.305 1526.7 Q850.324 1526.35 851.342 1526.19 Q852.361 1526 853.379 1526 Q859.166 1526 862.546 1529.17 Q865.926 1532.34 865.926 1537.76 Q865.926 1543.34 862.453 1546.44 Q858.981 1549.52 852.662 1549.52 Q850.486 1549.52 848.217 1549.15 Q845.972 1548.78 843.565 1548.04 L843.565 1543.34 Q845.648 1544.47 847.87 1545.03 Q850.092 1545.58 852.569 1545.58 Q856.574 1545.58 858.912 1543.48 Q861.25 1541.37 861.25 1537.76 Q861.25 1534.15 858.912 1532.04 Q856.574 1529.94 852.569 1529.94 Q850.694 1529.94 848.819 1530.35 Q846.967 1530.77 845.023 1531.65 L845.023 1514.29 Z" fill="#000000" fill-rule="nonzero" fill-opacity="1" /><path clip-path="url(#clip810)" d="M1254.81 1517.37 Q1251.2 1517.37 1249.37 1520.93 Q1247.57 1524.47 1247.57 1531.6 Q1247.57 1538.71 1249.37 1542.27 Q1251.2 1545.82 1254.81 1545.82 Q1258.45 1545.82 1260.25 1542.27 Q1262.08 1538.71 1262.08 1531.6 Q1262.08 1524.47 1260.25 1520.93 Q1258.45 1517.37 1254.81 1517.37 M1254.81 1513.66 Q1260.62 1513.66 1263.68 1518.27 Q1266.76 1522.85 1266.76 1531.6 Q1266.76 1540.33 1263.68 1544.94 Q1260.62 1549.52 1254.81 1549.52 Q1249 1549.52 1245.92 1544.94 Q1242.87 1540.33 1242.87 1531.6 Q1242.87 1522.85 1245.92 1518.27 Q1249 1513.66 1254.81 1513.66 Z" fill="#000000" fill-rule="nonzero" fill-opacity="1" /><path clip-path="url(#clip810)" d="M1274.97 1542.97 L1279.86 1542.97 L1279.86 1548.85 L1274.97 1548.85 L1274.97 1542.97 Z" fill="#000000" fill-rule="nonzero" fill-opacity="1" /><path clip-path="url(#clip810)" d="M1300.04 1517.37 Q1296.43 1517.37 1294.6 1520.93 Q1292.8 1524.47 1292.8 1531.6 Q1292.8 1538.71 1294.6 1542.27 Q1296.43 1545.82 1300.04 1545.82 Q1303.68 1545.82 1305.48 1542.27 Q1307.31 1538.71 1307.31 1531.6 Q1307.31 1524.47 1305.48 1520.93 Q1303.68 1517.37 1300.04 1517.37 M1300.04 1513.66 Q1305.85 1513.66 1308.91 1518.27 Q1311.99 1522.85 1311.99 1531.6 Q1311.99 1540.33 1308.91 1544.94 Q1305.85 1549.52 1300.04 1549.52 Q1294.23 1549.52 1291.16 1544.94 Q1288.1 1540.33 1288.1 1531.6 Q1288.1 1522.85 1291.16 1518.27 Q1294.23 1513.66 1300.04 1513.66 Z" fill="#000000" fill-rule="nonzero" fill-opacity="1" /><path clip-path="url(#clip810)" d="M1719.79 1517.37 Q1716.18 1517.37 1714.35 1520.93 Q1712.54 1524.47 1712.54 1531.6 Q1712.54 1538.71 1714.35 1542.27 Q1716.18 1545.82 1719.79 1545.82 Q1723.42 1545.82 1725.23 1542.27 Q1727.06 1538.71 1727.06 1531.6 Q1727.06 1524.47 1725.23 1520.93 Q1723.42 1517.37 1719.79 1517.37 M1719.79 1513.66 Q1725.6 1513.66 1728.65 1518.27 Q1731.73 1522.85 1731.73 1531.6 Q1731.73 1540.33 1728.65 1544.94 Q1725.6 1549.52 1719.79 1549.52 Q1713.98 1549.52 1710.9 1544.94 Q1707.84 1540.33 1707.84 1531.6 Q1707.84 1522.85 1710.9 1518.27 Q1713.98 1513.66 1719.79 1513.66 Z" fill="#000000" fill-rule="nonzero" fill-opacity="1" /><path clip-path="url(#clip810)" d="M1739.95 1542.97 L1744.83 1542.97 L1744.83 1548.85 L1739.95 1548.85 L1739.95 1542.97 Z" fill="#000000" fill-rule="nonzero" fill-opacity="1" /><path clip-path="url(#clip810)" d="M1755.06 1514.29 L1773.42 1514.29 L1773.42 1518.22 L1759.35 1518.22 L1759.35 1526.7 Q1760.37 1526.35 1761.38 1526.19 Q1762.4 1526 1763.42 1526 Q1769.21 1526 1772.59 1529.17 Q1775.97 1532.34 1775.97 1537.76 Q1775.97 1543.34 1772.5 1546.44 Q1769.02 1549.52 1762.7 1549.52 Q1760.53 1549.52 1758.26 1549.15 Q1756.01 1548.78 1753.61 1548.04 L1753.61 1543.34 Q1755.69 1544.47 1757.91 1545.03 Q1760.13 1545.58 1762.61 1545.58 Q1766.62 1545.58 1768.95 1543.48 Q1771.29 1541.37 1771.29 1537.76 Q1771.29 1534.15 1768.95 1532.04 Q1766.62 1529.94 1762.61 1529.94 Q1760.74 1529.94 1758.86 1530.35 Q1757.01 1530.77 1755.06 1531.65 L1755.06 1514.29 Z" fill="#000000" fill-rule="nonzero" fill-opacity="1" /><path clip-path="url(#clip810)" d="M2173.54 1544.91 L2181.17 1544.91 L2181.17 1518.55 L2172.86 1520.21 L2172.86 1515.95 L2181.13 1514.29 L2185.8 1514.29 L2185.8 1544.91 L2193.44 1544.91 L2193.44 1548.85 L2173.54 1548.85 L2173.54 1544.91 Z" fill="#000000" fill-rule="nonzero" fill-opacity="1" /><path clip-path="url(#clip810)" d="M2202.89 1542.97 L2207.77 1542.97 L2207.77 1548.85 L2202.89 1548.85 L2202.89 1542.97 Z" fill="#000000" fill-rule="nonzero" fill-opacity="1" /><path clip-path="url(#clip810)" d="M2227.96 1517.37 Q2224.35 1517.37 2222.52 1520.93 Q2220.71 1524.47 2220.71 1531.6 Q2220.71 1538.71 2222.52 1542.27 Q2224.35 1545.82 2227.96 1545.82 Q2231.59 1545.82 2233.4 1542.27 Q2235.22 1538.71 2235.22 1531.6 Q2235.22 1524.47 2233.4 1520.93 Q2231.59 1517.37 2227.96 1517.37 M2227.96 1513.66 Q2233.77 1513.66 2236.82 1518.27 Q2239.9 1522.85 2239.9 1531.6 Q2239.9 1540.33 2236.82 1544.94 Q2233.77 1549.52 2227.96 1549.52 Q2222.15 1549.52 2219.07 1544.94 Q2216.01 1540.33 2216.01 1531.6 Q2216.01 1522.85 2219.07 1518.27 Q2222.15 1513.66 2227.96 1513.66 Z" fill="#000000" fill-rule="nonzero" fill-opacity="1" /><polyline clip-path="url(#clip812)" style="stroke:#000000; stroke-linecap:round; stroke-linejoin:round; stroke-width:2; stroke-opacity:0.1; fill:none" points="193.936,1433.92 2352.76,1433.92 "/>
<polyline clip-path="url(#clip812)" style="stroke:#000000; stroke-linecap:round; stroke-linejoin:round; stroke-width:2; stroke-opacity:0.1; fill:none" points="193.936,1098.42 2352.76,1098.42 "/>
<polyline clip-path="url(#clip812)" style="stroke:#000000; stroke-linecap:round; stroke-linejoin:round; stroke-width:2; stroke-opacity:0.1; fill:none" points="193.936,762.914 2352.76,762.914 "/>
<polyline clip-path="url(#clip812)" style="stroke:#000000; stroke-linecap:round; stroke-linejoin:round; stroke-width:2; stroke-opacity:0.1; fill:none" points="193.936,427.411 2352.76,427.411 "/>
<polyline clip-path="url(#clip812)" style="stroke:#000000; stroke-linecap:round; stroke-linejoin:round; stroke-width:2; stroke-opacity:0.1; fill:none" points="193.936,91.908 2352.76,91.908 "/>
<polyline clip-path="url(#clip810)" style="stroke:#000000; stroke-linecap:round; stroke-linejoin:round; stroke-width:4; stroke-opacity:1; fill:none" points="193.936,1486.45 193.936,47.2441 "/>
<polyline clip-path="url(#clip810)" style="stroke:#000000; stroke-linecap:round; stroke-linejoin:round; stroke-width:4; stroke-opacity:1; fill:none" points="193.936,1433.92 212.834,1433.92 "/>
<polyline clip-path="url(#clip810)" style="stroke:#000000; stroke-linecap:round; stroke-linejoin:round; stroke-width:4; stroke-opacity:1; fill:none" points="193.936,1098.42 212.834,1098.42 "/>
<polyline clip-path="url(#clip810)" style="stroke:#000000; stroke-linecap:round; stroke-linejoin:round; stroke-width:4; stroke-opacity:1; fill:none" points="193.936,762.914 212.834,762.914 "/>
<polyline clip-path="url(#clip810)" style="stroke:#000000; stroke-linecap:round; stroke-linejoin:round; stroke-width:4; stroke-opacity:1; fill:none" points="193.936,427.411 212.834,427.411 "/>
<polyline clip-path="url(#clip810)" style="stroke:#000000; stroke-linecap:round; stroke-linejoin:round; stroke-width:4; stroke-opacity:1; fill:none" points="193.936,91.908 212.834,91.908 "/>
<path clip-path="url(#clip810)" d="M50.9921 1434.37 L80.6679 1434.37 L80.6679 1438.31 L50.9921 1438.31 L50.9921 1434.37 Z" fill="#000000" fill-rule="nonzero" fill-opacity="1" /><path clip-path="url(#clip810)" d="M91.5706 1447.27 L99.2095 1447.27 L99.2095 1420.9 L90.8993 1422.57 L90.8993 1418.31 L99.1632 1416.64 L103.839 1416.64 L103.839 1447.27 L111.478 1447.27 L111.478 1451.2 L91.5706 1451.2 L91.5706 1447.27 Z" fill="#000000" fill-rule="nonzero" fill-opacity="1" /><path clip-path="url(#clip810)" d="M120.922 1445.32 L125.807 1445.32 L125.807 1451.2 L120.922 1451.2 L120.922 1445.32 Z" fill="#000000" fill-rule="nonzero" fill-opacity="1" /><path clip-path="url(#clip810)" d="M145.992 1419.72 Q142.381 1419.72 140.552 1423.28 Q138.746 1426.83 138.746 1433.96 Q138.746 1441.06 140.552 1444.63 Q142.381 1448.17 145.992 1448.17 Q149.626 1448.17 151.431 1444.63 Q153.26 1441.06 153.26 1433.96 Q153.26 1426.83 151.431 1423.28 Q149.626 1419.72 145.992 1419.72 M145.992 1416.02 Q151.802 1416.02 154.857 1420.62 Q157.936 1425.21 157.936 1433.96 Q157.936 1442.68 154.857 1447.29 Q151.802 1451.87 145.992 1451.87 Q140.181 1451.87 137.103 1447.29 Q134.047 1442.68 134.047 1433.96 Q134.047 1425.21 137.103 1420.62 Q140.181 1416.02 145.992 1416.02 Z" fill="#000000" fill-rule="nonzero" fill-opacity="1" /><path clip-path="url(#clip810)" d="M51.9875 1098.87 L81.6633 1098.87 L81.6633 1102.8 L51.9875 1102.8 L51.9875 1098.87 Z" fill="#000000" fill-rule="nonzero" fill-opacity="1" /><path clip-path="url(#clip810)" d="M101.756 1084.22 Q98.1447 1084.22 96.316 1087.78 Q94.5104 1091.32 94.5104 1098.45 Q94.5104 1105.56 96.316 1109.12 Q98.1447 1112.67 101.756 1112.67 Q105.39 1112.67 107.196 1109.12 Q109.024 1105.56 109.024 1098.45 Q109.024 1091.32 107.196 1087.78 Q105.39 1084.22 101.756 1084.22 M101.756 1080.51 Q107.566 1080.51 110.621 1085.12 Q113.7 1089.7 113.7 1098.45 Q113.7 1107.18 110.621 1111.79 Q107.566 1116.37 101.756 1116.37 Q95.9456 1116.37 92.8669 1111.79 Q89.8114 1107.18 89.8114 1098.45 Q89.8114 1089.7 92.8669 1085.12 Q95.9456 1080.51 101.756 1080.51 Z" fill="#000000" fill-rule="nonzero" fill-opacity="1" /><path clip-path="url(#clip810)" d="M121.918 1109.82 L126.802 1109.82 L126.802 1115.7 L121.918 1115.7 L121.918 1109.82 Z" fill="#000000" fill-rule="nonzero" fill-opacity="1" /><path clip-path="url(#clip810)" d="M137.033 1081.14 L155.39 1081.14 L155.39 1085.07 L141.316 1085.07 L141.316 1093.54 Q142.334 1093.2 143.353 1093.04 Q144.371 1092.85 145.39 1092.85 Q151.177 1092.85 154.556 1096.02 Q157.936 1099.19 157.936 1104.61 Q157.936 1110.19 154.464 1113.29 Q150.992 1116.37 144.672 1116.37 Q142.496 1116.37 140.228 1116 Q137.982 1115.63 135.575 1114.89 L135.575 1110.19 Q137.658 1111.32 139.881 1111.88 Q142.103 1112.43 144.58 1112.43 Q148.584 1112.43 150.922 1110.33 Q153.26 1108.22 153.26 1104.61 Q153.26 1101 150.922 1098.89 Q148.584 1096.79 144.58 1096.79 Q142.705 1096.79 140.83 1097.2 Q138.978 1097.62 137.033 1098.5 L137.033 1081.14 Z" fill="#000000" fill-rule="nonzero" fill-opacity="1" /><path clip-path="url(#clip810)" d="M100.76 748.713 Q97.1493 748.713 95.3206 752.278 Q93.515 755.819 93.515 762.949 Q93.515 770.055 95.3206 773.62 Q97.1493 777.162 100.76 777.162 Q104.395 777.162 106.2 773.62 Q108.029 770.055 108.029 762.949 Q108.029 755.819 106.2 752.278 Q104.395 748.713 100.76 748.713 M100.76 745.009 Q106.571 745.009 109.626 749.616 Q112.705 754.199 112.705 762.949 Q112.705 771.676 109.626 776.282 Q106.571 780.866 100.76 780.866 Q94.9502 780.866 91.8715 776.282 Q88.816 771.676 88.816 762.949 Q88.816 754.199 91.8715 749.616 Q94.9502 745.009 100.76 745.009 Z" fill="#000000" fill-rule="nonzero" fill-opacity="1" /><path clip-path="url(#clip810)" d="M120.922 774.315 L125.807 774.315 L125.807 780.194 L120.922 780.194 L120.922 774.315 Z" fill="#000000" fill-rule="nonzero" fill-opacity="1" /><path clip-path="url(#clip810)" d="M145.992 748.713 Q142.381 748.713 140.552 752.278 Q138.746 755.819 138.746 762.949 Q138.746 770.055 140.552 773.62 Q142.381 777.162 145.992 777.162 Q149.626 777.162 151.431 773.62 Q153.26 770.055 153.26 762.949 Q153.26 755.819 151.431 752.278 Q149.626 748.713 145.992 748.713 M145.992 745.009 Q151.802 745.009 154.857 749.616 Q157.936 754.199 157.936 762.949 Q157.936 771.676 154.857 776.282 Q151.802 780.866 145.992 780.866 Q140.181 780.866 137.103 776.282 Q134.047 771.676 134.047 762.949 Q134.047 754.199 137.103 749.616 Q140.181 745.009 145.992 745.009 Z" fill="#000000" fill-rule="nonzero" fill-opacity="1" /><path clip-path="url(#clip810)" d="M101.756 413.21 Q98.1447 413.21 96.316 416.775 Q94.5104 420.316 94.5104 427.446 Q94.5104 434.552 96.316 438.117 Q98.1447 441.659 101.756 441.659 Q105.39 441.659 107.196 438.117 Q109.024 434.552 109.024 427.446 Q109.024 420.316 107.196 416.775 Q105.39 413.21 101.756 413.21 M101.756 409.506 Q107.566 409.506 110.621 414.113 Q113.7 418.696 113.7 427.446 Q113.7 436.173 110.621 440.779 Q107.566 445.362 101.756 445.362 Q95.9456 445.362 92.8669 440.779 Q89.8114 436.173 89.8114 427.446 Q89.8114 418.696 92.8669 414.113 Q95.9456 409.506 101.756 409.506 Z" fill="#000000" fill-rule="nonzero" fill-opacity="1" /><path clip-path="url(#clip810)" d="M121.918 438.812 L126.802 438.812 L126.802 444.691 L121.918 444.691 L121.918 438.812 Z" fill="#000000" fill-rule="nonzero" fill-opacity="1" /><path clip-path="url(#clip810)" d="M137.033 410.131 L155.39 410.131 L155.39 414.066 L141.316 414.066 L141.316 422.538 Q142.334 422.191 143.353 422.029 Q144.371 421.844 145.39 421.844 Q151.177 421.844 154.556 425.015 Q157.936 428.187 157.936 433.603 Q157.936 439.182 154.464 442.284 Q150.992 445.362 144.672 445.362 Q142.496 445.362 140.228 444.992 Q137.982 444.622 135.575 443.881 L135.575 439.182 Q137.658 440.316 139.881 440.872 Q142.103 441.427 144.58 441.427 Q148.584 441.427 150.922 439.321 Q153.26 437.214 153.26 433.603 Q153.26 429.992 150.922 427.886 Q148.584 425.779 144.58 425.779 Q142.705 425.779 140.83 426.196 Q138.978 426.613 137.033 427.492 L137.033 410.131 Z" fill="#000000" fill-rule="nonzero" fill-opacity="1" /><path clip-path="url(#clip810)" d="M91.5706 105.253 L99.2095 105.253 L99.2095 78.8872 L90.8993 80.5538 L90.8993 76.2946 L99.1632 74.628 L103.839 74.628 L103.839 105.253 L111.478 105.253 L111.478 109.188 L91.5706 109.188 L91.5706 105.253 Z" fill="#000000" fill-rule="nonzero" fill-opacity="1" /><path clip-path="url(#clip810)" d="M120.922 103.308 L125.807 103.308 L125.807 109.188 L120.922 109.188 L120.922 103.308 Z" fill="#000000" fill-rule="nonzero" fill-opacity="1" /><path clip-path="url(#clip810)" d="M145.992 77.7066 Q142.381 77.7066 140.552 81.2714 Q138.746 84.8131 138.746 91.9427 Q138.746 99.0491 140.552 102.614 Q142.381 106.156 145.992 106.156 Q149.626 106.156 151.431 102.614 Q153.26 99.0491 153.26 91.9427 Q153.26 84.8131 151.431 81.2714 Q149.626 77.7066 145.992 77.7066 M145.992 74.003 Q151.802 74.003 154.857 78.6094 Q157.936 83.1927 157.936 91.9427 Q157.936 100.669 154.857 105.276 Q151.802 109.859 145.992 109.859 Q140.181 109.859 137.103 105.276 Q134.047 100.669 134.047 91.9427 Q134.047 83.1927 137.103 78.6094 Q140.181 74.003 145.992 74.003 Z" fill="#000000" fill-rule="nonzero" fill-opacity="1" /><polyline clip-path="url(#clip812)" style="stroke:#009af9; stroke-linecap:round; stroke-linejoin:round; stroke-width:4; stroke-opacity:1; fill:none" points="1277.43,91.908 1370.07,95.1844 1461.81,105.341 1551.85,121.723 1638.94,144.003 1722.63,172.507 1802.23,205.927 1876.62,243.933 1945.57,286.198 2008.16,332.068 2064.41,381.214 2113.85,432.49 2156.03,486.059 2190.51,541.266 2217.27,597.538 2236.32,654.793 2247.21,712.581 2249.93,770.65 2245.39,828.647 2231.78,886.353 2210.92,943.444 2181.89,999.47 2145.6,1054.19 2101.6,1107.26 2050.35,1158.05 1992.29,1206.21 1927.88,1251.1 1857.12,1292.38 1781.37,1329.4 1700.86,1361.51 1616.03,1388.38 1528.04,1409.35 1437.55,1423.76 1345.47,1432.28 1252.71,1433.59 1160.18,1428.68 1068.89,1416.88 979.646,1398.86 893.237,1374.62 810.683,1345.13 732.212,1310.4 659.184,1271.08 592.053,1227.51 530.818,1180.98 476.387,1131.18 429.214,1079.25 388.844,1025.19 356.639,969.655 332.145,913.055 314.909,855.636 305.837,797.767 305.837,739.713 312.187,681.742 327.609,624.241 350.742,567.477 382.04,511.615 420.595,457.39 466.408,404.804 519.478,354.675 579.352,307.167 645.123,263.264 717.244,222.964 794.354,187.251 876.227,156.781 961.956,131.552 1050.75,112.222 1141.69,99.116 1234.08,92.5632 1326.87,92.8909 1419.18,99.7713 1510.12,113.205 1598.57,132.863 1684.07,158.419 1765.49,189.545 1842.6,225.585 1914.27,266.212 1979.59,310.444 2039.01,357.951 2091.62,408.08 2136.98,460.83 2175.08,515.219 2205.47,571.081 2228.15,628.009 2242.67,685.55 2249.93,743.522 2248.11,801.596 2239.04,859.486 2221.8,916.823 2196.4,973.423 2163.29,1028.79 2122.92,1082.69 2074.84,1134.46 2019.96,1183.93 1958.72,1230.46 1890.68,1273.7 1817.65,1312.69 1738.96,1347.1 1656.18,1376.58 1569.54,1400.17 1480.07,1417.87 1388.61,1429.01 1296.05,1433.92 1203.32,1431.63 1111.3,1423.11 1020.92,1408.04 933.153,1386.74 848.558,1359.55 768.499,1327.11 692.75,1289.76 622.897,1248.48 558.487,1203.26 500.881,1154.77 450.532,1103.66 406.988,1050.58 370.7,995.866 342.124,939.676 322.166,882.585 309.466,824.838 304.93,766.836 308.558,708.772 319.445,651.025 339.403,593.852 366.618,537.498 401.544,482.455 444.182,429.049 493.623,377.938 550.322,329.119 613.825,283.25 682.771,241.312 757.613,203.633 837.445,170.214 921.586,142.364 1008.9,120.413 1099.05,104.358 1190.85,94.8567 1283.53,91.908 1376.14,95.8396 1467.82,105.996 1557.52,123.034 1644.61,145.969 1728.07,174.473 1807.22,208.22 1881.16,246.554 1949.65,289.147 2012.25,335.344 2068.04,384.49 2117.02,436.094 2158.3,489.663 2192.32,544.87 2219.08,601.306 2237.23,658.561 2247.21,716.43 2249.93,774.464 2244.48,832.456 2230.88,890.12 2209.1,947.048 2179.62,1003.07 2142.88,1057.79 2098.43,1110.54 2046.72,1161.32 1988.21,1209.16 1923.34,1254.05 1852.58,1295 1776.38,1331.7 1695.41,1363.48 1610.36,1389.69 1522.14,1410.33 1431.54,1424.75 1339.34,1432.28 1246.61,1433.59 1154.16,1428.02 1062.88,1415.9 973.749,1397.22 887.567,1372.98 805.24,1342.84 727.223,1307.78 654.648,1268.13 587.97,1224.56 527.189,1177.71 473.212,1127.91 426.038,1075.65 386.576,1021.59 354.825,966.051 330.331,909.369 314.001,851.869 305.837,793.958 305.837,735.884 313.094,677.974 329.424,620.473 352.557,563.709 384.308,508.011 423.317,453.786 469.583,401.528 523.107,351.399 583.434,304.219 650.112,260.642 722.233,220.67 799.797,185.285 881.897,154.815 967.626,129.914 "/>
<polyline clip-path="url(#clip812)" style="stroke:#e26f46; stroke-linecap:round; stroke-linejoin:round; stroke-width:4; stroke-opacity:1; fill:none" points="1277.43,91.908 1369.96,93.8738 1460.68,102.065 1547.77,114.843 1636.67,134.173 1721.95,158.091 1796.34,186.268 1870.72,220.015 1939.67,257.694 2014.97,302.253 2081.19,350.743 2132.9,401.528 2179.17,455.097 2213.64,510.468 2244.48,568.296 2263.53,627.435 2278.05,688.212 2282.59,749.481 2279.86,811.159 2266.26,872.264 2244.48,932.14 2214.55,990.788 2175.08,1046.32 2128.82,1100.38 2074.84,1151.17 2017.69,1199 1952.37,1242.58 1887.96,1283.86 1814.48,1319.9 1735.55,1351.36 1653,1377.89 1571.36,1399.85 1486.08,1416.23 1391.73,1426.06 1304.64,1432.28 1217.55,1432.94 1126.84,1426.71 1032.49,1414.26 947.214,1398.86 861.939,1376.91 769.407,1346.77 687.76,1313.02 608.835,1273.7 538.982,1230.13 477.294,1182.29 426.492,1132.82 386.576,1080.72 346.66,1025.19 314.001,966.706 286.786,905.929 267.735,844.005 262.292,782.081 263.199,720.403 274.085,659.052 295.858,598.931 326.702,540.938 366.164,484.42 411.977,430.36 461.872,378.265 519.932,329.774 584.342,284.888 648.751,242.622 724.955,205.599 809.323,174.473 885.526,145.641 970.801,123.034 1056.08,105.341 1141.35,92.8909 1239.33,88.6316 1330.04,87.9763 1426.21,93.8738 1522.37,105.996 1613.09,123.361 1705.62,147.607 1796.34,177.75 1876.17,211.169 1946.93,249.83 2014.97,292.096 2074.84,339.604 2135.62,391.371 2183.7,445.923 2228.15,503.915 2252.65,561.088 2275.33,621.538 2289.84,682.97 2291.66,744.075 2289.84,806.081 2278.05,867.595 2257.18,927.963 2228.15,987.675 2189.15,1045.34 2143.33,1100.06 2092.08,1152.48 2033.11,1200.97 1970.51,1247.17 1903.38,1289.1 1831.72,1327.11 1750.98,1358.56 1667.52,1386.74 1582.24,1409.35 1498.78,1427.37 1409.88,1439.82 1313.72,1445.72 1219.37,1445.72 1123.21,1438.51 1034.3,1428.02 941.771,1410 856.496,1387.72 765.778,1358.24 689.575,1324.82 614.279,1286.81 546.24,1244.54 481.83,1197.36 421.956,1146.25 371.154,1092.52 331.238,1035.84 299.487,976.699 277.714,916.741 260.478,854.817 255.035,792.73 255.942,729.905 265.014,667.571 285.879,607.449 314.909,547.655 351.196,489.007 397.009,433.636 449.172,381.542 506.324,332.068 568.919,285.215 640.587,243.933 714.069,206.582 794.808,174.473 876.454,145.969 961.729,122.706 1048.82,105.014 1144.98,94.2014 1239.33,88.6316 1330.04,87.9763 1426.21,93.8738 1522.37,105.996 1613.09,123.361 1705.62,147.607 1796.34,177.75 1876.17,211.169 1946.93,249.83 2014.97,292.096 2074.84,339.604 2135.62,391.371 2183.7,445.923 2228.15,503.915 2252.65,561.088 2275.33,621.538 2289.84,682.97 2291.66,744.075 2289.84,806.081 2278.05,867.595 2257.18,927.963 2228.15,987.675 2189.15,1045.34 2143.33,1100.06 2092.08,1152.48 2033.11,1200.97 1970.51,1247.17 1903.38,1289.1 1831.72,1327.11 1750.98,1358.56 1667.52,1386.74 1582.24,1409.35 1498.78,1427.37 1409.88,1439.82 1313.72,1445.72 1219.37,1445.72 1123.21,1438.51 1034.3,1428.02 941.771,1410 856.496,1387.72 765.778,1358.24 689.575,1324.82 614.279,1286.81 546.24,1244.54 481.83,1197.36 421.956,1146.25 371.154,1092.52 331.238,1035.84 299.487,976.699 277.714,916.741 260.478,854.817 255.035,792.73 255.942,729.905 265.014,667.571 285.879,607.449 314.909,547.655 351.196,489.007 397.009,433.636 449.172,381.542 506.324,332.068 568.919,285.215 640.587,243.933 714.069,206.582 794.808,174.473 "/>
<polyline clip-path="url(#clip812)" style="stroke:#3da44d; stroke-linecap:round; stroke-linejoin:round; stroke-width:4; stroke-opacity:1; fill:none" points="1277.43,91.908 1369.96,95.8396 1461.47,106.324 1551.17,123.034 1638.03,145.641 1721.49,174.146 1800.42,207.892 1874.81,245.899 1943.75,288.164 2006.35,334.034 2062.14,382.852 2111.13,433.964 2153.31,487.205 2187.78,542.249 2214.55,598.439 2233.6,655.94 2244.48,713.891 2248.11,772.211 2242.67,830.531 2229.97,888.155 2209.1,945.737 2180.53,1002.09 2143.79,1056.97 2099.33,1110.21 2047.63,1161.32 1989.11,1210.14 1923.8,1255.03 1852.58,1296.31 1775.92,1333.34 1694.73,1365.12 1609.46,1391.98 1520.78,1412.62 1429.83,1427.04 1337.36,1434.58 1244.4,1435.23 1152.01,1429.33 1060.84,1416.88 971.708,1398.21 885.753,1373.63 803.426,1343.49 725.408,1308.43 652.834,1268.79 586.156,1225.54 525.375,1179.02 471.397,1129.54 424.224,1077.78 384.308,1024.04 352.103,968.508 327.609,911.827 311.28,854.408 302.208,796.334 301.301,737.891 308.558,679.694 323.98,621.865 346.66,564.692 377.958,508.993 416.967,454.769 463.233,402.511 516.757,352.054 577.084,304.546 643.762,260.315 716.336,220.015 794.354,184.63 876.681,153.832 962.863,128.604 1052.11,109.601 1143.51,96.8226 1236.15,90.5974 1329.22,91.2527 1421.67,98.7884 1512.39,112.877 1600.84,133.191 1686.34,159.402 1767.76,190.855 1843.96,226.896 1915.63,267.523 1980.95,312.082 2039.91,359.59 2092.08,409.719 2137.44,462.469 2175.54,516.529 2205.93,572.392 2229.06,629.401 2243.58,687.23 2249.93,745.304 2249.02,803.46 2239.04,861.698 2221.8,919.362 2196.4,976.535 2163.29,1032.23 2122.01,1086.29 2073.93,1138.72 2018.14,1188.52 1955.55,1235.04 1887.05,1277.96 1812.67,1317.28 1733.51,1352.01 1649.83,1381.17 1562.51,1404.43 1472.47,1421.8 1380.73,1432.61 1287.95,1436.54 1195.1,1433.92 1103.02,1424.42 1012.76,1408.36 925.215,1386.41 841.074,1358.89 761.242,1326.13 685.946,1288.45 616.093,1247.17 552.137,1201.95 494.984,1154.12 444.182,1103.66 400.637,1050.75 364.804,995.866 336.681,939.676 315.816,882.667 303.115,824.674 298.579,766.518 302.208,708.117 313.094,650.124 333.052,592.705 360.268,536.188 395.648,480.816 438.285,427.411 488.634,375.972 545.786,326.826 609.743,280.956 679.596,239.018 755.345,200.684 835.858,167.593 920.452,139.416 1008.22,117.136 1098.71,101.41 1190.91,92.5632 1283.98,89.9421 1376.71,94.2014 1468.39,105.341 1558.2,122.706 1644.84,145.969 1728.3,174.801 1807.22,208.875 1881.16,247.209 1949.65,289.802 2011.79,335.672 2067.58,384.49 2116.57,435.93 2157.85,489.335 2192.32,544.379 2218.18,600.651 2236.32,658.07 2247.21,715.98 2249.93,774.136 2244.48,832.538 2230.88,890.612 2209.1,948.031 2179.62,1004.38 2142.88,1059.1 2098.43,1112.51 2046.72,1163.29 1988.21,1211.45 1922.89,1256.34 1851.67,1297.62 1775.02,1334.65 1693.6,1366.43 1608.1,1392.64 1519.42,1412.95 1428.47,1427.04 1336,1434.58 1243.04,1435.23 1150.65,1429.33 1059.48,1416.56 970.347,1397.88 884.392,1373.31 802.065,1343.16 724.048,1308.11 651.473,1268.79 584.795,1225.54 524.014,1178.36 470.037,1128.89 423.317,1076.79 383.401,1023.06 351.196,967.525 326.702,911.008 310.373,853.507 301.301,795.269 300.394,736.949 308.558,678.711 323.98,620.882 347.567,564.037 378.865,508.174 417.874,453.622 464.594,401.2 518.571,351.071 579.352,303.563 646.484,259.66 719.058,219.687 797.076,184.302 879.402,153.832 965.585,128.931 "/>
<path clip-path="url(#clip810)" d="M1764.98 1438.47 L2280.8 1438.47 L2280.8 1231.11 L1764.98 1231.11  Z" fill="#ffffff" fill-rule="evenodd" fill-opacity="1"/>
<polyline clip-path="url(#clip810)" style="stroke:#000000; stroke-linecap:round; stroke-linejoin:round; stroke-width:4; stroke-opacity:1; fill:none" points="1764.98,1438.47 2280.8,1438.47 2280.8,1231.11 1764.98,1231.11 1764.98,1438.47 "/>
<polyline clip-path="url(#clip810)" style="stroke:#009af9; stroke-linecap:round; stroke-linejoin:round; stroke-width:4; stroke-opacity:1; fill:none" points="1788.97,1282.95 1932.89,1282.95 "/>
<path clip-path="url(#clip810)" d="M1964.29 1266.95 L1964.29 1274.31 L1973.06 1274.31 L1973.06 1277.62 L1964.29 1277.62 L1964.29 1291.69 Q1964.29 1294.86 1965.14 1295.77 Q1966.02 1296.67 1968.68 1296.67 L1973.06 1296.67 L1973.06 1300.23 L1968.68 1300.23 Q1963.75 1300.23 1961.88 1298.41 Q1960 1296.55 1960 1291.69 L1960 1277.62 L1956.88 1277.62 L1956.88 1274.31 L1960 1274.31 L1960 1266.95 L1964.29 1266.95 Z" fill="#000000" fill-rule="nonzero" fill-opacity="1" /><path clip-path="url(#clip810)" d="M1993.68 1278.29 Q1992.97 1277.87 1992.11 1277.69 Q1991.28 1277.48 1990.26 1277.48 Q1986.65 1277.48 1984.7 1279.84 Q1982.78 1282.18 1982.78 1286.58 L1982.78 1300.23 L1978.5 1300.23 L1978.5 1274.31 L1982.78 1274.31 L1982.78 1278.34 Q1984.12 1275.98 1986.28 1274.84 Q1988.43 1273.68 1991.51 1273.68 Q1991.95 1273.68 1992.48 1273.75 Q1993.01 1273.8 1993.66 1273.92 L1993.68 1278.29 Z" fill="#000000" fill-rule="nonzero" fill-opacity="1" /><path clip-path="url(#clip810)" d="M2009.93 1287.2 Q2004.77 1287.2 2002.78 1288.38 Q2000.79 1289.56 2000.79 1292.41 Q2000.79 1294.68 2002.27 1296.02 Q2003.78 1297.34 2006.35 1297.34 Q2009.89 1297.34 2012.02 1294.84 Q2014.17 1292.32 2014.17 1288.15 L2014.17 1287.2 L2009.93 1287.2 M2018.43 1285.44 L2018.43 1300.23 L2014.17 1300.23 L2014.17 1296.3 Q2012.71 1298.66 2010.54 1299.79 Q2008.36 1300.91 2005.21 1300.91 Q2001.23 1300.91 1998.87 1298.68 Q1996.53 1296.44 1996.53 1292.69 Q1996.53 1288.31 1999.45 1286.09 Q2002.39 1283.87 2008.2 1283.87 L2014.17 1283.87 L2014.17 1283.45 Q2014.17 1280.51 2012.23 1278.92 Q2010.31 1277.29 2006.81 1277.29 Q2004.59 1277.29 2002.48 1277.83 Q2000.37 1278.36 1998.43 1279.42 L1998.43 1275.49 Q2000.77 1274.59 2002.97 1274.15 Q2005.17 1273.68 2007.25 1273.68 Q2012.87 1273.68 2015.65 1276.6 Q2018.43 1279.52 2018.43 1285.44 Z" fill="#000000" fill-rule="nonzero" fill-opacity="1" /><path clip-path="url(#clip810)" d="M2027.2 1274.31 L2031.46 1274.31 L2031.46 1300.23 L2027.2 1300.23 L2027.2 1274.31 M2027.2 1264.22 L2031.46 1264.22 L2031.46 1269.61 L2027.2 1269.61 L2027.2 1264.22 Z" fill="#000000" fill-rule="nonzero" fill-opacity="1" /><path clip-path="url(#clip810)" d="M2061.93 1284.59 L2061.93 1300.23 L2057.67 1300.23 L2057.67 1284.73 Q2057.67 1281.04 2056.23 1279.22 Q2054.8 1277.39 2051.93 1277.39 Q2048.48 1277.39 2046.49 1279.59 Q2044.49 1281.79 2044.49 1285.58 L2044.49 1300.23 L2040.21 1300.23 L2040.21 1274.31 L2044.49 1274.31 L2044.49 1278.34 Q2046.02 1276 2048.08 1274.84 Q2050.17 1273.68 2052.87 1273.68 Q2057.34 1273.68 2059.63 1276.46 Q2061.93 1279.22 2061.93 1284.59 Z" fill="#000000" fill-rule="nonzero" fill-opacity="1" /><path clip-path="url(#clip810)" d="M2070.42 1274.31 L2074.68 1274.31 L2074.68 1300.23 L2070.42 1300.23 L2070.42 1274.31 M2070.42 1264.22 L2074.68 1264.22 L2074.68 1269.61 L2070.42 1269.61 L2070.42 1264.22 Z" fill="#000000" fill-rule="nonzero" fill-opacity="1" /><path clip-path="url(#clip810)" d="M2105.14 1284.59 L2105.14 1300.23 L2100.88 1300.23 L2100.88 1284.73 Q2100.88 1281.04 2099.45 1279.22 Q2098.01 1277.39 2095.14 1277.39 Q2091.69 1277.39 2089.7 1279.59 Q2087.71 1281.79 2087.71 1285.58 L2087.71 1300.23 L2083.43 1300.23 L2083.43 1274.31 L2087.71 1274.31 L2087.71 1278.34 Q2089.24 1276 2091.3 1274.84 Q2093.38 1273.68 2096.09 1273.68 Q2100.56 1273.68 2102.85 1276.46 Q2105.14 1279.22 2105.14 1284.59 Z" fill="#000000" fill-rule="nonzero" fill-opacity="1" /><path clip-path="url(#clip810)" d="M2130.7 1286.97 Q2130.7 1282.34 2128.78 1279.79 Q2126.88 1277.25 2123.43 1277.25 Q2120 1277.25 2118.08 1279.79 Q2116.18 1282.34 2116.18 1286.97 Q2116.18 1291.58 2118.08 1294.12 Q2120 1296.67 2123.43 1296.67 Q2126.88 1296.67 2128.78 1294.12 Q2130.7 1291.58 2130.7 1286.97 M2134.96 1297.02 Q2134.96 1303.64 2132.02 1306.85 Q2129.08 1310.1 2123.01 1310.1 Q2120.77 1310.1 2118.78 1309.75 Q2116.79 1309.42 2114.91 1308.73 L2114.91 1304.59 Q2116.79 1305.6 2118.61 1306.09 Q2120.44 1306.58 2122.34 1306.58 Q2126.53 1306.58 2128.61 1304.38 Q2130.7 1302.2 2130.7 1297.78 L2130.7 1295.67 Q2129.38 1297.97 2127.32 1299.1 Q2125.26 1300.23 2122.39 1300.23 Q2117.62 1300.23 2114.7 1296.6 Q2111.79 1292.97 2111.79 1286.97 Q2111.79 1280.95 2114.7 1277.32 Q2117.62 1273.68 2122.39 1273.68 Q2125.26 1273.68 2127.32 1274.82 Q2129.38 1275.95 2130.7 1278.24 L2130.7 1274.31 L2134.96 1274.31 L2134.96 1297.02 Z" fill="#000000" fill-rule="nonzero" fill-opacity="1" /><path clip-path="url(#clip810)" d="M2175.86 1278.24 L2175.86 1264.22 L2180.12 1264.22 L2180.12 1300.23 L2175.86 1300.23 L2175.86 1296.35 Q2174.52 1298.66 2172.46 1299.79 Q2170.42 1300.91 2167.55 1300.91 Q2162.85 1300.91 2159.89 1297.16 Q2156.95 1293.41 2156.95 1287.29 Q2156.95 1281.18 2159.89 1277.43 Q2162.85 1273.68 2167.55 1273.68 Q2170.42 1273.68 2172.46 1274.82 Q2174.52 1275.93 2175.86 1278.24 M2161.35 1287.29 Q2161.35 1291.99 2163.27 1294.68 Q2165.21 1297.34 2168.59 1297.34 Q2171.97 1297.34 2173.92 1294.68 Q2175.86 1291.99 2175.86 1287.29 Q2175.86 1282.6 2173.92 1279.93 Q2171.97 1277.25 2168.59 1277.25 Q2165.21 1277.25 2163.27 1279.93 Q2161.35 1282.6 2161.35 1287.29 Z" fill="#000000" fill-rule="nonzero" fill-opacity="1" /><path clip-path="url(#clip810)" d="M2200.67 1287.2 Q2195.51 1287.2 2193.52 1288.38 Q2191.53 1289.56 2191.53 1292.41 Q2191.53 1294.68 2193.01 1296.02 Q2194.52 1297.34 2197.09 1297.34 Q2200.63 1297.34 2202.76 1294.84 Q2204.91 1292.32 2204.91 1288.15 L2204.91 1287.2 L2200.67 1287.2 M2209.17 1285.44 L2209.17 1300.23 L2204.91 1300.23 L2204.91 1296.3 Q2203.45 1298.66 2201.28 1299.79 Q2199.1 1300.91 2195.95 1300.91 Q2191.97 1300.91 2189.61 1298.68 Q2187.27 1296.44 2187.27 1292.69 Q2187.27 1288.31 2190.19 1286.09 Q2193.13 1283.87 2198.94 1283.87 L2204.91 1283.87 L2204.91 1283.45 Q2204.91 1280.51 2202.97 1278.92 Q2201.04 1277.29 2197.55 1277.29 Q2195.33 1277.29 2193.22 1277.83 Q2191.11 1278.36 2189.17 1279.42 L2189.17 1275.49 Q2191.51 1274.59 2193.71 1274.15 Q2195.91 1273.68 2197.99 1273.68 Q2203.61 1273.68 2206.39 1276.6 Q2209.17 1279.52 2209.17 1285.44 Z" fill="#000000" fill-rule="nonzero" fill-opacity="1" /><path clip-path="url(#clip810)" d="M2222.16 1266.95 L2222.16 1274.31 L2230.93 1274.31 L2230.93 1277.62 L2222.16 1277.62 L2222.16 1291.69 Q2222.16 1294.86 2223.01 1295.77 Q2223.89 1296.67 2226.55 1296.67 L2230.93 1296.67 L2230.93 1300.23 L2226.55 1300.23 Q2221.62 1300.23 2219.75 1298.41 Q2217.87 1296.55 2217.87 1291.69 L2217.87 1277.62 L2214.75 1277.62 L2214.75 1274.31 L2217.87 1274.31 L2217.87 1266.95 L2222.16 1266.95 Z" fill="#000000" fill-rule="nonzero" fill-opacity="1" /><path clip-path="url(#clip810)" d="M2248.31 1287.2 Q2243.15 1287.2 2241.16 1288.38 Q2239.17 1289.56 2239.17 1292.41 Q2239.17 1294.68 2240.65 1296.02 Q2242.16 1297.34 2244.73 1297.34 Q2248.27 1297.34 2250.4 1294.84 Q2252.55 1292.32 2252.55 1288.15 L2252.55 1287.2 L2248.31 1287.2 M2256.81 1285.44 L2256.81 1300.23 L2252.55 1300.23 L2252.55 1296.3 Q2251.09 1298.66 2248.91 1299.79 Q2246.74 1300.91 2243.59 1300.91 Q2239.61 1300.91 2237.25 1298.68 Q2234.91 1296.44 2234.91 1292.69 Q2234.91 1288.31 2237.83 1286.09 Q2240.77 1283.87 2246.58 1283.87 L2252.55 1283.87 L2252.55 1283.45 Q2252.55 1280.51 2250.6 1278.92 Q2248.68 1277.29 2245.19 1277.29 Q2242.97 1277.29 2240.86 1277.83 Q2238.75 1278.36 2236.81 1279.42 L2236.81 1275.49 Q2239.15 1274.59 2241.35 1274.15 Q2243.54 1273.68 2245.63 1273.68 Q2251.25 1273.68 2254.03 1276.6 Q2256.81 1279.52 2256.81 1285.44 Z" fill="#000000" fill-rule="nonzero" fill-opacity="1" /><polyline clip-path="url(#clip810)" style="stroke:#e26f46; stroke-linecap:round; stroke-linejoin:round; stroke-width:4; stroke-opacity:1; fill:none" points="1788.97,1334.79 1932.89,1334.79 "/>
<path clip-path="url(#clip810)" d="M1956.88 1317.51 L1961.56 1317.51 L1961.56 1348.14 L1978.38 1348.14 L1978.38 1352.07 L1956.88 1352.07 L1956.88 1317.51 Z" fill="#000000" fill-rule="nonzero" fill-opacity="1" /><path clip-path="url(#clip810)" d="M1995.93 1322.12 L1989.59 1339.32 L2002.3 1339.32 L1995.93 1322.12 M1993.29 1317.51 L1998.59 1317.51 L2011.76 1352.07 L2006.9 1352.07 L2003.75 1343.21 L1988.18 1343.21 L1985.03 1352.07 L1980.1 1352.07 L1993.29 1317.51 Z" fill="#000000" fill-rule="nonzero" fill-opacity="1" /><path clip-path="url(#clip810)" d="M2052.6 1318.65 L2052.6 1323.21 Q2049.93 1321.94 2047.57 1321.31 Q2045.21 1320.69 2043.01 1320.69 Q2039.19 1320.69 2037.11 1322.17 Q2035.05 1323.65 2035.05 1326.38 Q2035.05 1328.67 2036.42 1329.85 Q2037.8 1331.01 2041.65 1331.73 L2044.47 1332.31 Q2049.7 1333.3 2052.18 1335.82 Q2054.68 1338.32 2054.68 1342.54 Q2054.68 1347.56 2051.3 1350.15 Q2047.94 1352.75 2041.44 1352.75 Q2038.99 1352.75 2036.21 1352.19 Q2033.45 1351.63 2030.49 1350.55 L2030.49 1345.73 Q2033.34 1347.33 2036.07 1348.14 Q2038.8 1348.95 2041.44 1348.95 Q2045.44 1348.95 2047.62 1347.38 Q2049.8 1345.8 2049.8 1342.88 Q2049.8 1340.34 2048.22 1338.9 Q2046.67 1337.47 2043.11 1336.75 L2040.26 1336.19 Q2035.03 1335.15 2032.69 1332.93 Q2030.35 1330.71 2030.35 1326.75 Q2030.35 1322.17 2033.57 1319.53 Q2036.81 1316.89 2042.48 1316.89 Q2044.91 1316.89 2047.43 1317.33 Q2049.96 1317.77 2052.6 1318.65 Z" fill="#000000" fill-rule="nonzero" fill-opacity="1" /><path clip-path="url(#clip810)" d="M2072.57 1354.48 Q2070.77 1359.11 2069.05 1360.52 Q2067.34 1361.94 2064.47 1361.94 L2061.07 1361.94 L2061.07 1358.37 L2063.57 1358.37 Q2065.33 1358.37 2066.3 1357.54 Q2067.27 1356.7 2068.45 1353.6 L2069.22 1351.66 L2058.73 1326.15 L2063.24 1326.15 L2071.35 1346.43 L2079.45 1326.15 L2083.96 1326.15 L2072.57 1354.48 Z" fill="#000000" fill-rule="nonzero" fill-opacity="1" /><path clip-path="url(#clip810)" d="M2110.03 1331.13 Q2111.62 1328.26 2113.85 1326.89 Q2116.07 1325.52 2119.08 1325.52 Q2123.13 1325.52 2125.33 1328.37 Q2127.53 1331.19 2127.53 1336.43 L2127.53 1352.07 L2123.24 1352.07 L2123.24 1336.57 Q2123.24 1332.84 2121.92 1331.03 Q2120.61 1329.23 2117.9 1329.23 Q2114.59 1329.23 2112.67 1331.43 Q2110.74 1333.63 2110.74 1337.42 L2110.74 1352.07 L2106.46 1352.07 L2106.46 1336.57 Q2106.46 1332.82 2105.14 1331.03 Q2103.82 1329.23 2101.07 1329.23 Q2097.8 1329.23 2095.88 1331.45 Q2093.96 1333.65 2093.96 1337.42 L2093.96 1352.07 L2089.68 1352.07 L2089.68 1326.15 L2093.96 1326.15 L2093.96 1330.18 Q2095.42 1327.79 2097.46 1326.66 Q2099.49 1325.52 2102.3 1325.52 Q2105.12 1325.52 2107.09 1326.96 Q2109.08 1328.39 2110.03 1331.13 Z" fill="#000000" fill-rule="nonzero" fill-opacity="1" /><path clip-path="url(#clip810)" d="M2140.14 1348.19 L2140.14 1361.94 L2135.86 1361.94 L2135.86 1326.15 L2140.14 1326.15 L2140.14 1330.08 Q2141.48 1327.77 2143.52 1326.66 Q2145.58 1325.52 2148.43 1325.52 Q2153.15 1325.52 2156.09 1329.27 Q2159.05 1333.02 2159.05 1339.13 Q2159.05 1345.25 2156.09 1349 Q2153.15 1352.75 2148.43 1352.75 Q2145.58 1352.75 2143.52 1351.63 Q2141.48 1350.5 2140.14 1348.19 M2154.63 1339.13 Q2154.63 1334.44 2152.69 1331.77 Q2150.77 1329.09 2147.39 1329.09 Q2144.01 1329.09 2142.06 1331.77 Q2140.14 1334.44 2140.14 1339.13 Q2140.14 1343.83 2142.06 1346.52 Q2144.01 1349.18 2147.39 1349.18 Q2150.77 1349.18 2152.69 1346.52 Q2154.63 1343.83 2154.63 1339.13 Z" fill="#000000" fill-rule="nonzero" fill-opacity="1" /><path clip-path="url(#clip810)" d="M2187.67 1336.43 L2187.67 1352.07 L2183.41 1352.07 L2183.41 1336.57 Q2183.41 1332.88 2181.97 1331.06 Q2180.54 1329.23 2177.67 1329.23 Q2174.22 1329.23 2172.23 1331.43 Q2170.23 1333.63 2170.23 1337.42 L2170.23 1352.07 L2165.95 1352.07 L2165.95 1326.15 L2170.23 1326.15 L2170.23 1330.18 Q2171.76 1327.84 2173.82 1326.68 Q2175.91 1325.52 2178.61 1325.52 Q2183.08 1325.52 2185.37 1328.3 Q2187.67 1331.06 2187.67 1336.43 Z" fill="#000000" fill-rule="nonzero" fill-opacity="1" /><path clip-path="url(#clip810)" d="M2218.34 1338.05 L2218.34 1340.13 L2198.75 1340.13 Q2199.03 1344.53 2201.39 1346.84 Q2203.78 1349.13 2208.01 1349.13 Q2210.47 1349.13 2212.76 1348.53 Q2215.07 1347.93 2217.34 1346.73 L2217.34 1350.75 Q2215.05 1351.73 2212.64 1352.24 Q2210.23 1352.75 2207.76 1352.75 Q2201.55 1352.75 2197.92 1349.13 Q2194.31 1345.52 2194.31 1339.37 Q2194.31 1333 2197.73 1329.27 Q2201.18 1325.52 2207.02 1325.52 Q2212.25 1325.52 2215.28 1328.9 Q2218.34 1332.26 2218.34 1338.05 M2214.08 1336.8 Q2214.03 1333.3 2212.11 1331.22 Q2210.21 1329.13 2207.06 1329.13 Q2203.5 1329.13 2201.35 1331.15 Q2199.22 1333.16 2198.89 1336.82 L2214.08 1336.8 Z" fill="#000000" fill-rule="nonzero" fill-opacity="1" /><path clip-path="url(#clip810)" d="M2229.54 1318.79 L2229.54 1326.15 L2238.31 1326.15 L2238.31 1329.46 L2229.54 1329.46 L2229.54 1343.53 Q2229.54 1346.7 2230.4 1347.61 Q2231.28 1348.51 2233.94 1348.51 L2238.31 1348.51 L2238.31 1352.07 L2233.94 1352.07 Q2229.01 1352.07 2227.13 1350.25 Q2225.26 1348.39 2225.26 1343.53 L2225.26 1329.46 L2222.13 1329.46 L2222.13 1326.15 L2225.26 1326.15 L2225.26 1318.79 L2229.54 1318.79 Z" fill="#000000" fill-rule="nonzero" fill-opacity="1" /><polyline clip-path="url(#clip810)" style="stroke:#3da44d; stroke-linecap:round; stroke-linejoin:round; stroke-width:4; stroke-opacity:1; fill:none" points="1788.97,1386.63 1932.89,1386.63 "/>
<path clip-path="url(#clip810)" d="M1982.43 1398.98 L1982.43 1389.7 L1974.8 1389.7 L1974.8 1385.86 L1987.06 1385.86 L1987.06 1400.7 Q1984.36 1402.62 1981.09 1403.61 Q1977.83 1404.59 1974.12 1404.59 Q1966.02 1404.59 1961.44 1399.86 Q1956.88 1395.12 1956.88 1386.67 Q1956.88 1378.2 1961.44 1373.47 Q1966.02 1368.73 1974.12 1368.73 Q1977.5 1368.73 1980.54 1369.56 Q1983.59 1370.4 1986.16 1372.02 L1986.16 1376.99 Q1983.57 1374.79 1980.65 1373.68 Q1977.74 1372.57 1974.52 1372.57 Q1968.18 1372.57 1964.98 1376.11 Q1961.81 1379.66 1961.81 1386.67 Q1961.81 1393.66 1964.98 1397.2 Q1968.18 1400.74 1974.52 1400.74 Q1977 1400.74 1978.94 1400.33 Q1980.88 1399.89 1982.43 1398.98 Z" fill="#000000" fill-rule="nonzero" fill-opacity="1" /><path clip-path="url(#clip810)" d="M2031.39 1370.49 L2031.39 1375.05 Q2028.73 1373.78 2026.37 1373.15 Q2024.01 1372.53 2021.81 1372.53 Q2017.99 1372.53 2015.91 1374.01 Q2013.85 1375.49 2013.85 1378.22 Q2013.85 1380.51 2015.21 1381.69 Q2016.6 1382.85 2020.44 1383.57 L2023.27 1384.15 Q2028.5 1385.14 2030.98 1387.66 Q2033.48 1390.16 2033.48 1394.38 Q2033.48 1399.4 2030.1 1401.99 Q2026.74 1404.59 2020.24 1404.59 Q2017.78 1404.59 2015 1404.03 Q2012.25 1403.47 2009.29 1402.39 L2009.29 1397.57 Q2012.13 1399.17 2014.87 1399.98 Q2017.6 1400.79 2020.24 1400.79 Q2024.24 1400.79 2026.42 1399.22 Q2028.59 1397.64 2028.59 1394.72 Q2028.59 1392.18 2027.02 1390.74 Q2025.47 1389.31 2021.9 1388.59 L2019.05 1388.03 Q2013.82 1386.99 2011.49 1384.77 Q2009.15 1382.55 2009.15 1378.59 Q2009.15 1374.01 2012.37 1371.37 Q2015.61 1368.73 2021.28 1368.73 Q2023.71 1368.73 2026.23 1369.17 Q2028.75 1369.61 2031.39 1370.49 Z" fill="#000000" fill-rule="nonzero" fill-opacity="1" /><path clip-path="url(#clip810)" d="M2051.37 1406.32 Q2049.56 1410.95 2047.85 1412.36 Q2046.14 1413.78 2043.27 1413.78 L2039.87 1413.78 L2039.87 1410.21 L2042.37 1410.21 Q2044.12 1410.21 2045.1 1409.38 Q2046.07 1408.54 2047.25 1405.44 L2048.01 1403.5 L2037.53 1377.99 L2042.04 1377.99 L2050.14 1398.27 L2058.24 1377.99 L2062.76 1377.99 L2051.37 1406.32 Z" fill="#000000" fill-rule="nonzero" fill-opacity="1" /><path clip-path="url(#clip810)" d="M2088.82 1382.97 Q2090.42 1380.1 2092.64 1378.73 Q2094.86 1377.36 2097.87 1377.36 Q2101.92 1377.36 2104.12 1380.21 Q2106.32 1383.03 2106.32 1388.27 L2106.32 1403.91 L2102.04 1403.91 L2102.04 1388.41 Q2102.04 1384.68 2100.72 1382.87 Q2099.4 1381.07 2096.69 1381.07 Q2093.38 1381.07 2091.46 1383.27 Q2089.54 1385.47 2089.54 1389.26 L2089.54 1403.91 L2085.26 1403.91 L2085.26 1388.41 Q2085.26 1384.66 2083.94 1382.87 Q2082.62 1381.07 2079.86 1381.07 Q2076.6 1381.07 2074.68 1383.29 Q2072.76 1385.49 2072.76 1389.26 L2072.76 1403.91 L2068.48 1403.91 L2068.48 1377.99 L2072.76 1377.99 L2072.76 1382.02 Q2074.22 1379.63 2076.25 1378.5 Q2078.29 1377.36 2081.09 1377.36 Q2083.92 1377.36 2085.88 1378.8 Q2087.87 1380.23 2088.82 1382.97 Z" fill="#000000" fill-rule="nonzero" fill-opacity="1" /><path clip-path="url(#clip810)" d="M2118.94 1400.03 L2118.94 1413.78 L2114.66 1413.78 L2114.66 1377.99 L2118.94 1377.99 L2118.94 1381.92 Q2120.28 1379.61 2122.32 1378.5 Q2124.38 1377.36 2127.23 1377.36 Q2131.95 1377.36 2134.89 1381.11 Q2137.85 1384.86 2137.85 1390.97 Q2137.85 1397.09 2134.89 1400.84 Q2131.95 1404.59 2127.23 1404.59 Q2124.38 1404.59 2122.32 1403.47 Q2120.28 1402.34 2118.94 1400.03 M2133.43 1390.97 Q2133.43 1386.28 2131.48 1383.61 Q2129.56 1380.93 2126.18 1380.93 Q2122.8 1380.93 2120.86 1383.61 Q2118.94 1386.28 2118.94 1390.97 Q2118.94 1395.67 2120.86 1398.36 Q2122.8 1401.02 2126.18 1401.02 Q2129.56 1401.02 2131.48 1398.36 Q2133.43 1395.67 2133.43 1390.97 Z" fill="#000000" fill-rule="nonzero" fill-opacity="1" /><path clip-path="url(#clip810)" d="M2166.46 1388.27 L2166.46 1403.91 L2162.2 1403.91 L2162.2 1388.41 Q2162.2 1384.72 2160.77 1382.9 Q2159.33 1381.07 2156.46 1381.07 Q2153.01 1381.07 2151.02 1383.27 Q2149.03 1385.47 2149.03 1389.26 L2149.03 1403.91 L2144.75 1403.91 L2144.75 1377.99 L2149.03 1377.99 L2149.03 1382.02 Q2150.56 1379.68 2152.62 1378.52 Q2154.7 1377.36 2157.41 1377.36 Q2161.88 1377.36 2164.17 1380.14 Q2166.46 1382.9 2166.46 1388.27 Z" fill="#000000" fill-rule="nonzero" fill-opacity="1" /><path clip-path="url(#clip810)" d="M2197.13 1389.89 L2197.13 1391.97 L2177.55 1391.97 Q2177.83 1396.37 2180.19 1398.68 Q2182.57 1400.97 2186.81 1400.97 Q2189.26 1400.97 2191.55 1400.37 Q2193.87 1399.77 2196.14 1398.57 L2196.14 1402.59 Q2193.85 1403.57 2191.44 1404.08 Q2189.03 1404.59 2186.55 1404.59 Q2180.35 1404.59 2176.72 1400.97 Q2173.11 1397.36 2173.11 1391.21 Q2173.11 1384.84 2176.53 1381.11 Q2179.98 1377.36 2185.81 1377.36 Q2191.04 1377.36 2194.08 1380.74 Q2197.13 1384.1 2197.13 1389.89 M2192.87 1388.64 Q2192.83 1385.14 2190.91 1383.06 Q2189.01 1380.97 2185.86 1380.97 Q2182.29 1380.97 2180.14 1382.99 Q2178.01 1385 2177.69 1388.66 L2192.87 1388.64 Z" fill="#000000" fill-rule="nonzero" fill-opacity="1" /><path clip-path="url(#clip810)" d="M2208.34 1370.63 L2208.34 1377.99 L2217.11 1377.99 L2217.11 1381.3 L2208.34 1381.3 L2208.34 1395.37 Q2208.34 1398.54 2209.19 1399.45 Q2210.07 1400.35 2212.73 1400.35 L2217.11 1400.35 L2217.11 1403.91 L2212.73 1403.91 Q2207.8 1403.91 2205.93 1402.09 Q2204.05 1400.23 2204.05 1395.37 L2204.05 1381.3 L2200.93 1381.3 L2200.93 1377.99 L2204.05 1377.99 L2204.05 1370.63 L2208.34 1370.63 Z" fill="#000000" fill-rule="nonzero" fill-opacity="1" /></svg>
