<?xml version="1.0" encoding="utf-8"?>
<svg xmlns="http://www.w3.org/2000/svg" xmlns:xlink="http://www.w3.org/1999/xlink" width="600" height="400" viewBox="0 0 2400 1600">
<defs>
  <clipPath id="clip430">
    <rect x="0" y="0" width="2400" height="1600"/>
  </clipPath>
</defs>
<path clip-path="url(#clip430)" d="M0 1600 L2400 1600 L2400 0 L0 0  Z" fill="#ffffff" fill-rule="evenodd" fill-opacity="1"/>
<defs>
  <clipPath id="clip431">
    <rect x="480" y="0" width="1681" height="1600"/>
  </clipPath>
</defs>
<path clip-path="url(#clip430)" d="M251.071 1423.18 L2352.76 1423.18 L2352.76 47.2441 L251.071 47.2441  Z" fill="#ffffff" fill-rule="evenodd" fill-opacity="1"/>
<defs>
  <clipPath id="clip432">
    <rect x="251" y="47" width="2103" height="1377"/>
  </clipPath>
</defs>
<polyline clip-path="url(#clip432)" style="stroke:#000000; stroke-linecap:round; stroke-linejoin:round; stroke-width:2; stroke-opacity:0.1; fill:none" points="308.568,1423.18 308.568,47.2441 "/>
<polyline clip-path="url(#clip432)" style="stroke:#000000; stroke-linecap:round; stroke-linejoin:round; stroke-width:2; stroke-opacity:0.1; fill:none" points="804.745,1423.18 804.745,47.2441 "/>
<polyline clip-path="url(#clip432)" style="stroke:#000000; stroke-linecap:round; stroke-linejoin:round; stroke-width:2; stroke-opacity:0.1; fill:none" points="1300.92,1423.18 1300.92,47.2441 "/>
<polyline clip-path="url(#clip432)" style="stroke:#000000; stroke-linecap:round; stroke-linejoin:round; stroke-width:2; stroke-opacity:0.1; fill:none" points="1797.1,1423.18 1797.1,47.2441 "/>
<polyline clip-path="url(#clip432)" style="stroke:#000000; stroke-linecap:round; stroke-linejoin:round; stroke-width:2; stroke-opacity:0.1; fill:none" points="2293.27,1423.18 2293.27,47.2441 "/>
<polyline clip-path="url(#clip430)" style="stroke:#000000; stroke-linecap:round; stroke-linejoin:round; stroke-width:4; stroke-opacity:1; fill:none" points="251.071,1423.18 2352.76,1423.18 "/>
<polyline clip-path="url(#clip430)" style="stroke:#000000; stroke-linecap:round; stroke-linejoin:round; stroke-width:4; stroke-opacity:1; fill:none" points="308.568,1423.18 308.568,1404.28 "/>
<polyline clip-path="url(#clip430)" style="stroke:#000000; stroke-linecap:round; stroke-linejoin:round; stroke-width:4; stroke-opacity:1; fill:none" points="804.745,1423.18 804.745,1404.28 "/>
<polyline clip-path="url(#clip430)" style="stroke:#000000; stroke-linecap:round; stroke-linejoin:round; stroke-width:4; stroke-opacity:1; fill:none" points="1300.92,1423.18 1300.92,1404.28 "/>
<polyline clip-path="url(#clip430)" style="stroke:#000000; stroke-linecap:round; stroke-linejoin:round; stroke-width:4; stroke-opacity:1; fill:none" points="1797.1,1423.18 1797.1,1404.28 "/>
<polyline clip-path="url(#clip430)" style="stroke:#000000; stroke-linecap:round; stroke-linejoin:round; stroke-width:4; stroke-opacity:1; fill:none" points="2293.27,1423.18 2293.27,1404.28 "/>
<path clip-path="url(#clip430)" d="M308.568 1454.1 Q304.957 1454.1 303.128 1457.66 Q301.323 1461.2 301.323 1468.33 Q301.323 1475.44 303.128 1479.01 Q304.957 1482.55 308.568 1482.55 Q312.202 1482.55 314.008 1479.01 Q315.837 1475.44 315.837 1468.33 Q315.837 1461.2 314.008 1457.66 Q312.202 1454.1 308.568 1454.1 M308.568 1450.39 Q314.378 1450.39 317.434 1455 Q320.513 1459.58 320.513 1468.33 Q320.513 1477.06 317.434 1481.67 Q314.378 1486.25 308.568 1486.25 Q302.758 1486.25 299.679 1481.67 Q296.624 1477.06 296.624 1468.33 Q296.624 1459.58 299.679 1455 Q302.758 1450.39 308.568 1450.39 Z" fill="#000000" fill-rule="nonzero" fill-opacity="1" /><path clip-path="url(#clip430)" d="M768.437 1481.64 L784.756 1481.64 L784.756 1485.58 L762.812 1485.58 L762.812 1481.64 Q765.474 1478.89 770.057 1474.26 Q774.664 1469.61 775.844 1468.27 Q778.09 1465.74 778.969 1464.01 Q779.872 1462.25 779.872 1460.56 Q779.872 1457.8 777.928 1456.07 Q776.006 1454.33 772.905 1454.33 Q770.706 1454.33 768.252 1455.09 Q765.821 1455.86 763.044 1457.41 L763.044 1452.69 Q765.868 1451.55 768.321 1450.97 Q770.775 1450.39 772.812 1450.39 Q778.182 1450.39 781.377 1453.08 Q784.571 1455.77 784.571 1460.26 Q784.571 1462.39 783.761 1464.31 Q782.974 1466.2 780.868 1468.8 Q780.289 1469.47 777.187 1472.69 Q774.085 1475.88 768.437 1481.64 Z" fill="#000000" fill-rule="nonzero" fill-opacity="1" /><path clip-path="url(#clip430)" d="M794.617 1451.02 L812.974 1451.02 L812.974 1454.96 L798.9 1454.96 L798.9 1463.43 Q799.918 1463.08 800.937 1462.92 Q801.955 1462.73 802.974 1462.73 Q808.761 1462.73 812.14 1465.9 Q815.52 1469.08 815.52 1474.49 Q815.52 1480.07 812.048 1483.17 Q808.576 1486.25 802.256 1486.25 Q800.08 1486.25 797.812 1485.88 Q795.567 1485.51 793.159 1484.77 L793.159 1480.07 Q795.242 1481.2 797.465 1481.76 Q799.687 1482.32 802.164 1482.32 Q806.168 1482.32 808.506 1480.21 Q810.844 1478.1 810.844 1474.49 Q810.844 1470.88 808.506 1468.77 Q806.168 1466.67 802.164 1466.67 Q800.289 1466.67 798.414 1467.08 Q796.562 1467.5 794.617 1468.38 L794.617 1451.02 Z" fill="#000000" fill-rule="nonzero" fill-opacity="1" /><path clip-path="url(#clip430)" d="M834.733 1454.1 Q831.122 1454.1 829.293 1457.66 Q827.488 1461.2 827.488 1468.33 Q827.488 1475.44 829.293 1479.01 Q831.122 1482.55 834.733 1482.55 Q838.367 1482.55 840.173 1479.01 Q842.001 1475.44 842.001 1468.33 Q842.001 1461.2 840.173 1457.66 Q838.367 1454.1 834.733 1454.1 M834.733 1450.39 Q840.543 1450.39 843.599 1455 Q846.677 1459.58 846.677 1468.33 Q846.677 1477.06 843.599 1481.67 Q840.543 1486.25 834.733 1486.25 Q828.923 1486.25 825.844 1481.67 Q822.789 1477.06 822.789 1468.33 Q822.789 1459.58 825.844 1455 Q828.923 1450.39 834.733 1450.39 Z" fill="#000000" fill-rule="nonzero" fill-opacity="1" /><path clip-path="url(#clip430)" d="M1260.54 1451.02 L1278.9 1451.02 L1278.9 1454.96 L1264.82 1454.96 L1264.82 1463.43 Q1265.84 1463.08 1266.86 1462.92 Q1267.88 1462.73 1268.9 1462.73 Q1274.68 1462.73 1278.06 1465.9 Q1281.44 1469.08 1281.44 1474.49 Q1281.44 1480.07 1277.97 1483.17 Q1274.5 1486.25 1268.18 1486.25 Q1266 1486.25 1263.73 1485.88 Q1261.49 1485.51 1259.08 1484.77 L1259.08 1480.07 Q1261.16 1481.2 1263.39 1481.76 Q1265.61 1482.32 1268.09 1482.32 Q1272.09 1482.32 1274.43 1480.21 Q1276.77 1478.1 1276.77 1474.49 Q1276.77 1470.88 1274.43 1468.77 Q1272.09 1466.67 1268.09 1466.67 Q1266.21 1466.67 1264.34 1467.08 Q1262.48 1467.5 1260.54 1468.38 L1260.54 1451.02 Z" fill="#000000" fill-rule="nonzero" fill-opacity="1" /><path clip-path="url(#clip430)" d="M1300.66 1454.1 Q1297.04 1454.1 1295.22 1457.66 Q1293.41 1461.2 1293.41 1468.33 Q1293.41 1475.44 1295.22 1479.01 Q1297.04 1482.55 1300.66 1482.55 Q1304.29 1482.55 1306.09 1479.01 Q1307.92 1475.44 1307.92 1468.33 Q1307.92 1461.2 1306.09 1457.66 Q1304.29 1454.1 1300.66 1454.1 M1300.66 1450.39 Q1306.47 1450.39 1309.52 1455 Q1312.6 1459.58 1312.6 1468.33 Q1312.6 1477.06 1309.52 1481.67 Q1306.47 1486.25 1300.66 1486.25 Q1294.84 1486.25 1291.77 1481.67 Q1288.71 1477.06 1288.71 1468.33 Q1288.71 1459.58 1291.77 1455 Q1294.84 1450.39 1300.66 1450.39 Z" fill="#000000" fill-rule="nonzero" fill-opacity="1" /><path clip-path="url(#clip430)" d="M1330.82 1454.1 Q1327.21 1454.1 1325.38 1457.66 Q1323.57 1461.2 1323.57 1468.33 Q1323.57 1475.44 1325.38 1479.01 Q1327.21 1482.55 1330.82 1482.55 Q1334.45 1482.55 1336.26 1479.01 Q1338.09 1475.44 1338.09 1468.33 Q1338.09 1461.2 1336.26 1457.66 Q1334.45 1454.1 1330.82 1454.1 M1330.82 1450.39 Q1336.63 1450.39 1339.68 1455 Q1342.76 1459.58 1342.76 1468.33 Q1342.76 1477.06 1339.68 1481.67 Q1336.63 1486.25 1330.82 1486.25 Q1325.01 1486.25 1321.93 1481.67 Q1318.87 1477.06 1318.87 1468.33 Q1318.87 1459.58 1321.93 1455 Q1325.01 1450.39 1330.82 1450.39 Z" fill="#000000" fill-rule="nonzero" fill-opacity="1" /><path clip-path="url(#clip430)" d="M1755.37 1451.02 L1777.6 1451.02 L1777.6 1453.01 L1765.05 1485.58 L1760.17 1485.58 L1771.97 1454.96 L1755.37 1454.96 L1755.37 1451.02 Z" fill="#000000" fill-rule="nonzero" fill-opacity="1" /><path clip-path="url(#clip430)" d="M1786.76 1451.02 L1805.12 1451.02 L1805.12 1454.96 L1791.04 1454.96 L1791.04 1463.43 Q1792.06 1463.08 1793.08 1462.92 Q1794.1 1462.73 1795.12 1462.73 Q1800.91 1462.73 1804.29 1465.9 Q1807.66 1469.08 1807.66 1474.49 Q1807.66 1480.07 1804.19 1483.17 Q1800.72 1486.25 1794.4 1486.25 Q1792.23 1486.25 1789.96 1485.88 Q1787.71 1485.51 1785.3 1484.77 L1785.3 1480.07 Q1787.39 1481.2 1789.61 1481.76 Q1791.83 1482.32 1794.31 1482.32 Q1798.31 1482.32 1800.65 1480.21 Q1802.99 1478.1 1802.99 1474.49 Q1802.99 1470.88 1800.65 1468.77 Q1798.31 1466.67 1794.31 1466.67 Q1792.43 1466.67 1790.56 1467.08 Q1788.71 1467.5 1786.76 1468.38 L1786.76 1451.02 Z" fill="#000000" fill-rule="nonzero" fill-opacity="1" /><path clip-path="url(#clip430)" d="M1826.88 1454.1 Q1823.27 1454.1 1821.44 1457.66 Q1819.63 1461.2 1819.63 1468.33 Q1819.63 1475.44 1821.44 1479.01 Q1823.27 1482.55 1826.88 1482.55 Q1830.51 1482.55 1832.32 1479.01 Q1834.15 1475.44 1834.15 1468.33 Q1834.15 1461.2 1832.32 1457.66 Q1830.51 1454.1 1826.88 1454.1 M1826.88 1450.39 Q1832.69 1450.39 1835.74 1455 Q1838.82 1459.58 1838.82 1468.33 Q1838.82 1477.06 1835.74 1481.67 Q1832.69 1486.25 1826.88 1486.25 Q1821.07 1486.25 1817.99 1481.67 Q1814.93 1477.06 1814.93 1468.33 Q1814.93 1459.58 1817.99 1455 Q1821.07 1450.39 1826.88 1450.39 Z" fill="#000000" fill-rule="nonzero" fill-opacity="1" /><path clip-path="url(#clip430)" d="M2237.8 1481.64 L2245.44 1481.64 L2245.44 1455.28 L2237.13 1456.95 L2237.13 1452.69 L2245.39 1451.02 L2250.07 1451.02 L2250.07 1481.64 L2257.71 1481.64 L2257.71 1485.58 L2237.8 1485.58 L2237.8 1481.64 Z" fill="#000000" fill-rule="nonzero" fill-opacity="1" /><path clip-path="url(#clip430)" d="M2277.15 1454.1 Q2273.54 1454.1 2271.71 1457.66 Q2269.91 1461.2 2269.91 1468.33 Q2269.91 1475.44 2271.71 1479.01 Q2273.54 1482.55 2277.15 1482.55 Q2280.79 1482.55 2282.59 1479.01 Q2284.42 1475.44 2284.42 1468.33 Q2284.42 1461.2 2282.59 1457.66 Q2280.79 1454.1 2277.15 1454.1 M2277.15 1450.39 Q2282.96 1450.39 2286.02 1455 Q2289.1 1459.58 2289.1 1468.33 Q2289.1 1477.06 2286.02 1481.67 Q2282.96 1486.25 2277.15 1486.25 Q2271.34 1486.25 2268.26 1481.67 Q2265.21 1477.06 2265.21 1468.33 Q2265.21 1459.58 2268.26 1455 Q2271.34 1450.39 2277.15 1450.39 Z" fill="#000000" fill-rule="nonzero" fill-opacity="1" /><path clip-path="url(#clip430)" d="M2307.31 1454.1 Q2303.7 1454.1 2301.87 1457.66 Q2300.07 1461.2 2300.07 1468.33 Q2300.07 1475.44 2301.87 1479.01 Q2303.7 1482.55 2307.31 1482.55 Q2310.95 1482.55 2312.75 1479.01 Q2314.58 1475.44 2314.58 1468.33 Q2314.58 1461.2 2312.75 1457.66 Q2310.95 1454.1 2307.31 1454.1 M2307.31 1450.39 Q2313.12 1450.39 2316.18 1455 Q2319.26 1459.58 2319.26 1468.33 Q2319.26 1477.06 2316.18 1481.67 Q2313.12 1486.25 2307.31 1486.25 Q2301.5 1486.25 2298.42 1481.67 Q2295.37 1477.06 2295.37 1468.33 Q2295.37 1459.58 2298.42 1455 Q2301.5 1450.39 2307.31 1450.39 Z" fill="#000000" fill-rule="nonzero" fill-opacity="1" /><path clip-path="url(#clip430)" d="M2337.48 1454.1 Q2333.86 1454.1 2332.04 1457.66 Q2330.23 1461.2 2330.23 1468.33 Q2330.23 1475.44 2332.04 1479.01 Q2333.86 1482.55 2337.48 1482.55 Q2341.11 1482.55 2342.92 1479.01 Q2344.74 1475.44 2344.74 1468.33 Q2344.74 1461.2 2342.92 1457.66 Q2341.11 1454.1 2337.48 1454.1 M2337.48 1450.39 Q2343.29 1450.39 2346.34 1455 Q2349.42 1459.58 2349.42 1468.33 Q2349.42 1477.06 2346.34 1481.67 Q2343.29 1486.25 2337.48 1486.25 Q2331.67 1486.25 2328.59 1481.67 Q2325.53 1477.06 2325.53 1468.33 Q2325.53 1459.58 2328.59 1455 Q2331.67 1450.39 2337.48 1450.39 Z" fill="#000000" fill-rule="nonzero" fill-opacity="1" /><path clip-path="url(#clip430)" d="M1208.08 1520.52 L1238.13 1520.52 L1238.13 1525.93 L1214.51 1525.93 L1214.51 1540 L1237.14 1540 L1237.14 1545.41 L1214.51 1545.41 L1214.51 1562.63 L1238.7 1562.63 L1238.7 1568.04 L1208.08 1568.04 L1208.08 1520.52 Z" fill="#000000" fill-rule="nonzero" fill-opacity="1" /><path clip-path="url(#clip430)" d="M1254.68 1562.7 L1254.68 1581.6 L1248.79 1581.6 L1248.79 1532.4 L1254.68 1532.4 L1254.68 1537.81 Q1256.53 1534.62 1259.33 1533.1 Q1262.16 1531.54 1266.07 1531.54 Q1272.57 1531.54 1276.61 1536.69 Q1280.68 1541.85 1280.68 1550.25 Q1280.68 1558.65 1276.61 1563.81 Q1272.57 1568.97 1266.07 1568.97 Q1262.16 1568.97 1259.33 1567.44 Q1256.53 1565.88 1254.68 1562.7 M1274.6 1550.25 Q1274.6 1543.79 1271.93 1540.13 Q1269.29 1536.44 1264.64 1536.44 Q1260 1536.44 1257.32 1540.13 Q1254.68 1543.79 1254.68 1550.25 Q1254.68 1556.71 1257.32 1560.4 Q1260 1564.07 1264.64 1564.07 Q1269.29 1564.07 1271.93 1560.4 Q1274.6 1556.71 1274.6 1550.25 Z" fill="#000000" fill-rule="nonzero" fill-opacity="1" /><path clip-path="url(#clip430)" d="M1304.21 1536.5 Q1299.49 1536.5 1296.76 1540.19 Q1294.02 1543.85 1294.02 1550.25 Q1294.02 1556.65 1296.73 1560.34 Q1299.46 1564 1304.21 1564 Q1308.88 1564 1311.62 1560.31 Q1314.36 1556.62 1314.36 1550.25 Q1314.36 1543.92 1311.62 1540.23 Q1308.88 1536.5 1304.21 1536.5 M1304.21 1531.54 Q1311.84 1531.54 1316.2 1536.5 Q1320.57 1541.47 1320.57 1550.25 Q1320.57 1559 1316.2 1564 Q1311.84 1568.97 1304.21 1568.97 Q1296.53 1568.97 1292.17 1564 Q1287.85 1559 1287.85 1550.25 Q1287.85 1541.47 1292.17 1536.5 Q1296.53 1531.54 1304.21 1531.54 Z" fill="#000000" fill-rule="nonzero" fill-opacity="1" /><path clip-path="url(#clip430)" d="M1355.93 1533.76 L1355.93 1539.24 Q1353.44 1537.87 1350.93 1537.2 Q1348.45 1536.5 1345.9 1536.5 Q1340.2 1536.5 1337.05 1540.13 Q1333.9 1543.73 1333.9 1550.25 Q1333.9 1556.78 1337.05 1560.4 Q1340.2 1564 1345.9 1564 Q1348.45 1564 1350.93 1563.33 Q1353.44 1562.63 1355.93 1561.26 L1355.93 1566.68 Q1353.48 1567.82 1350.83 1568.39 Q1348.22 1568.97 1345.26 1568.97 Q1337.21 1568.97 1332.47 1563.91 Q1327.73 1558.85 1327.73 1550.25 Q1327.73 1541.53 1332.5 1536.53 Q1337.31 1531.54 1345.65 1531.54 Q1348.35 1531.54 1350.93 1532.11 Q1353.51 1532.65 1355.93 1533.76 Z" fill="#000000" fill-rule="nonzero" fill-opacity="1" /><path clip-path="url(#clip430)" d="M1395.74 1546.53 L1395.74 1568.04 L1389.89 1568.04 L1389.89 1546.72 Q1389.89 1541.66 1387.91 1539.14 Q1385.94 1536.63 1381.99 1536.63 Q1377.25 1536.63 1374.51 1539.65 Q1371.78 1542.68 1371.78 1547.9 L1371.78 1568.04 L1365.89 1568.04 L1365.89 1518.52 L1371.78 1518.52 L1371.78 1537.93 Q1373.88 1534.72 1376.71 1533.13 Q1379.58 1531.54 1383.3 1531.54 Q1389.44 1531.54 1392.59 1535.36 Q1395.74 1539.14 1395.74 1546.53 Z" fill="#000000" fill-rule="nonzero" fill-opacity="1" /><polyline clip-path="url(#clip432)" style="stroke:#000000; stroke-linecap:round; stroke-linejoin:round; stroke-width:2; stroke-opacity:0.1; fill:none" points="251.071,1022 2352.76,1022 "/>
<polyline clip-path="url(#clip432)" style="stroke:#000000; stroke-linecap:round; stroke-linejoin:round; stroke-width:2; stroke-opacity:0.1; fill:none" points="251.071,341.063 2352.76,341.063 "/>
<polyline clip-path="url(#clip430)" style="stroke:#000000; stroke-linecap:round; stroke-linejoin:round; stroke-width:4; stroke-opacity:1; fill:none" points="251.071,1423.18 251.071,47.2441 "/>
<polyline clip-path="url(#clip430)" style="stroke:#000000; stroke-linecap:round; stroke-linejoin:round; stroke-width:4; stroke-opacity:1; fill:none" points="251.071,1022 269.969,1022 "/>
<polyline clip-path="url(#clip430)" style="stroke:#000000; stroke-linecap:round; stroke-linejoin:round; stroke-width:4; stroke-opacity:1; fill:none" points="251.071,341.063 269.969,341.063 "/>
<path clip-path="url(#clip430)" d="M114.931 1041.79 L122.57 1041.79 L122.57 1015.42 L114.26 1017.09 L114.26 1012.83 L122.524 1011.17 L127.2 1011.17 L127.2 1041.79 L134.839 1041.79 L134.839 1045.73 L114.931 1045.73 L114.931 1041.79 Z" fill="#000000" fill-rule="nonzero" fill-opacity="1" /><path clip-path="url(#clip430)" d="M154.283 1014.24 Q150.672 1014.24 148.843 1017.81 Q147.038 1021.35 147.038 1028.48 Q147.038 1035.59 148.843 1039.15 Q150.672 1042.69 154.283 1042.69 Q157.917 1042.69 159.723 1039.15 Q161.552 1035.59 161.552 1028.48 Q161.552 1021.35 159.723 1017.81 Q157.917 1014.24 154.283 1014.24 M154.283 1010.54 Q160.093 1010.54 163.149 1015.15 Q166.227 1019.73 166.227 1028.48 Q166.227 1037.21 163.149 1041.81 Q160.093 1046.4 154.283 1046.4 Q148.473 1046.4 145.394 1041.81 Q142.339 1037.21 142.339 1028.48 Q142.339 1019.73 145.394 1015.15 Q148.473 1010.54 154.283 1010.54 Z" fill="#000000" fill-rule="nonzero" fill-opacity="1" /><path clip-path="url(#clip430)" d="M166.227 1004.64 L190.339 1004.64 L190.339 1007.84 L166.227 1007.84 L166.227 1004.64 Z" fill="#000000" fill-rule="nonzero" fill-opacity="1" /><path clip-path="url(#clip430)" d="M201.812 1015.12 L215.071 1015.12 L215.071 1018.31 L197.241 1018.31 L197.241 1015.12 Q199.404 1012.88 203.128 1009.12 Q206.871 1005.34 207.83 1004.25 Q209.655 1002.2 210.369 1000.79 Q211.103 999.357 211.103 997.984 Q211.103 995.746 209.523 994.335 Q207.962 992.924 205.442 992.924 Q203.655 992.924 201.661 993.545 Q199.686 994.166 197.43 995.426 L197.43 991.589 Q199.724 990.668 201.718 990.197 Q203.711 989.727 205.366 989.727 Q209.73 989.727 212.325 991.909 Q214.921 994.091 214.921 997.739 Q214.921 999.47 214.263 1001.03 Q213.623 1002.57 211.912 1004.68 Q211.441 1005.22 208.921 1007.84 Q206.401 1010.43 201.812 1015.12 Z" fill="#000000" fill-rule="nonzero" fill-opacity="1" /><path clip-path="url(#clip430)" d="M144.366 360.856 L152.004 360.856 L152.004 334.49 L143.694 336.157 L143.694 331.898 L151.958 330.231 L156.634 330.231 L156.634 360.856 L164.273 360.856 L164.273 364.791 L144.366 364.791 L144.366 360.856 Z" fill="#000000" fill-rule="nonzero" fill-opacity="1" /><path clip-path="url(#clip430)" d="M183.717 333.31 Q180.106 333.31 178.277 336.875 Q176.472 340.416 176.472 347.546 Q176.472 354.652 178.277 358.217 Q180.106 361.759 183.717 361.759 Q187.351 361.759 189.157 358.217 Q190.986 354.652 190.986 347.546 Q190.986 340.416 189.157 336.875 Q187.351 333.31 183.717 333.31 M183.717 329.606 Q189.527 329.606 192.583 334.213 Q195.662 338.796 195.662 347.546 Q195.662 356.273 192.583 360.879 Q189.527 365.462 183.717 365.462 Q177.907 365.462 174.828 360.879 Q171.773 356.273 171.773 347.546 Q171.773 338.796 174.828 334.213 Q177.907 329.606 183.717 329.606 Z" fill="#000000" fill-rule="nonzero" fill-opacity="1" /><path clip-path="url(#clip430)" d="M205.366 311.802 Q202.432 311.802 200.947 314.698 Q199.48 317.576 199.48 323.369 Q199.48 329.143 200.947 332.039 Q202.432 334.917 205.366 334.917 Q208.319 334.917 209.786 332.039 Q211.272 329.143 211.272 323.369 Q211.272 317.576 209.786 314.698 Q208.319 311.802 205.366 311.802 M205.366 308.793 Q210.087 308.793 212.57 312.536 Q215.071 316.26 215.071 323.369 Q215.071 330.459 212.57 334.202 Q210.087 337.926 205.366 337.926 Q200.646 337.926 198.144 334.202 Q195.662 330.459 195.662 323.369 Q195.662 316.26 198.144 312.536 Q200.646 308.793 205.366 308.793 Z" fill="#000000" fill-rule="nonzero" fill-opacity="1" /><path clip-path="url(#clip430)" d="M16.4842 953.174 L16.4842 912.974 L21.895 912.974 L21.895 929.843 L64.0042 929.843 L64.0042 936.305 L21.895 936.305 L21.895 953.174 L16.4842 953.174 Z" fill="#000000" fill-rule="nonzero" fill-opacity="1" /><path clip-path="url(#clip430)" d="M33.8307 895.946 Q33.2578 896.933 33.0032 898.11 Q32.7167 899.256 32.7167 900.657 Q32.7167 905.622 35.9632 908.296 Q39.1779 910.937 45.2253 910.937 L64.0042 910.937 L64.0042 916.826 L28.3562 916.826 L28.3562 910.937 L33.8944 910.937 Q30.6479 909.091 29.0883 906.131 Q27.4968 903.171 27.4968 898.938 Q27.4968 898.333 27.5923 897.601 Q27.656 896.869 27.8151 895.978 L33.8307 895.946 Z" fill="#000000" fill-rule="nonzero" fill-opacity="1" /><path clip-path="url(#clip430)" d="M46.0847 873.602 Q46.0847 880.7 47.7079 883.437 Q49.3312 886.175 53.2461 886.175 Q56.3653 886.175 58.2114 884.138 Q60.0256 882.069 60.0256 878.536 Q60.0256 873.666 56.5881 870.738 Q53.1188 867.778 47.3897 867.778 L46.0847 867.778 L46.0847 873.602 M43.6657 861.921 L64.0042 861.921 L64.0042 867.778 L58.5933 867.778 Q61.8398 869.783 63.3994 872.775 Q64.9272 875.767 64.9272 880.095 Q64.9272 885.57 61.8716 888.816 Q58.7843 892.031 53.6281 892.031 Q47.6125 892.031 44.5569 888.021 Q41.5014 883.979 41.5014 875.99 L41.5014 867.778 L40.9285 867.778 Q36.8862 867.778 34.6901 870.451 Q32.4621 873.093 32.4621 877.899 Q32.4621 880.955 33.1941 883.851 Q33.9262 886.748 35.3903 889.421 L29.9795 889.421 Q28.7381 886.207 28.1334 883.183 Q27.4968 880.159 27.4968 877.295 Q27.4968 869.56 31.5072 865.741 Q35.5176 861.921 43.6657 861.921 Z" fill="#000000" fill-rule="nonzero" fill-opacity="1" /><path clip-path="url(#clip430)" d="M28.3562 849.858 L28.3562 844.002 L64.0042 844.002 L64.0042 849.858 L28.3562 849.858 M14.479 849.858 L14.479 844.002 L21.895 844.002 L21.895 849.858 L14.479 849.858 Z" fill="#000000" fill-rule="nonzero" fill-opacity="1" /><path clip-path="url(#clip430)" d="M42.4881 802.116 L64.0042 802.116 L64.0042 807.972 L42.679 807.972 Q37.6183 807.972 35.1038 809.945 Q32.5894 811.919 32.5894 815.865 Q32.5894 820.608 35.6131 823.345 Q38.6368 826.082 43.8567 826.082 L64.0042 826.082 L64.0042 831.971 L28.3562 831.971 L28.3562 826.082 L33.8944 826.082 Q30.6797 823.982 29.0883 821.149 Q27.4968 818.284 27.4968 814.561 Q27.4968 808.418 31.3163 805.267 Q35.1038 802.116 42.4881 802.116 Z" fill="#000000" fill-rule="nonzero" fill-opacity="1" /><path clip-path="url(#clip430)" d="M28.3562 790.434 L28.3562 784.578 L64.0042 784.578 L64.0042 790.434 L28.3562 790.434 M14.479 790.434 L14.479 784.578 L21.895 784.578 L21.895 790.434 L14.479 790.434 Z" fill="#000000" fill-rule="nonzero" fill-opacity="1" /><path clip-path="url(#clip430)" d="M42.4881 742.692 L64.0042 742.692 L64.0042 748.548 L42.679 748.548 Q37.6183 748.548 35.1038 750.521 Q32.5894 752.495 32.5894 756.442 Q32.5894 761.184 35.6131 763.921 Q38.6368 766.659 43.8567 766.659 L64.0042 766.659 L64.0042 772.547 L28.3562 772.547 L28.3562 766.659 L33.8944 766.659 Q30.6797 764.558 29.0883 761.725 Q27.4968 758.861 27.4968 755.137 Q27.4968 748.994 31.3163 745.843 Q35.1038 742.692 42.4881 742.692 Z" fill="#000000" fill-rule="nonzero" fill-opacity="1" /><path clip-path="url(#clip430)" d="M45.7664 707.553 Q39.4007 707.553 35.8996 710.195 Q32.3984 712.805 32.3984 717.547 Q32.3984 722.258 35.8996 724.9 Q39.4007 727.509 45.7664 727.509 Q52.1003 727.509 55.6014 724.9 Q59.1026 722.258 59.1026 717.547 Q59.1026 712.805 55.6014 710.195 Q52.1003 707.553 45.7664 707.553 M59.58 701.697 Q68.683 701.697 73.1071 705.739 Q77.5631 709.781 77.5631 718.12 Q77.5631 721.207 77.0857 723.945 Q76.6401 726.682 75.6852 729.26 L69.9879 729.26 Q71.3884 726.682 72.0568 724.167 Q72.7252 721.653 72.7252 719.043 Q72.7252 713.282 69.7015 710.418 Q66.7096 707.553 60.6303 707.553 L57.7339 707.553 Q60.885 709.367 62.4446 712.2 Q64.0042 715.033 64.0042 718.979 Q64.0042 725.536 59.0071 729.546 Q54.01 733.557 45.7664 733.557 Q37.491 733.557 32.4939 729.546 Q27.4968 725.536 27.4968 718.979 Q27.4968 715.033 29.0564 712.2 Q30.616 709.367 33.7671 707.553 L28.3562 707.553 L28.3562 701.697 L59.58 701.697 Z" fill="#000000" fill-rule="nonzero" fill-opacity="1" /><path clip-path="url(#clip430)" d="M44.7161 638.421 L47.5806 638.421 L47.5806 665.348 Q53.6281 664.966 56.8109 661.72 Q59.9619 658.442 59.9619 652.617 Q59.9619 649.243 59.1344 646.092 Q58.3069 642.909 56.6518 639.79 L62.1899 639.79 Q63.5267 642.941 64.227 646.251 Q64.9272 649.561 64.9272 652.967 Q64.9272 661.497 59.9619 666.494 Q54.9967 671.459 46.5303 671.459 Q37.7774 671.459 32.6531 666.749 Q27.4968 662.006 27.4968 653.986 Q27.4968 646.792 32.1438 642.623 Q36.7589 638.421 44.7161 638.421 M42.9973 644.278 Q38.1912 644.342 35.3266 646.983 Q32.4621 649.593 32.4621 653.922 Q32.4621 658.823 35.2312 661.784 Q38.0002 664.712 43.0292 665.157 L42.9973 644.278 Z" fill="#000000" fill-rule="nonzero" fill-opacity="1" /><path clip-path="url(#clip430)" d="M33.8307 608.152 Q33.2578 609.139 33.0032 610.317 Q32.7167 611.463 32.7167 612.863 Q32.7167 617.828 35.9632 620.502 Q39.1779 623.144 45.2253 623.144 L64.0042 623.144 L64.0042 629.032 L28.3562 629.032 L28.3562 623.144 L33.8944 623.144 Q30.6479 621.298 29.0883 618.338 Q27.4968 615.378 27.4968 611.144 Q27.4968 610.54 27.5923 609.808 Q27.656 609.075 27.8151 608.184 L33.8307 608.152 Z" fill="#000000" fill-rule="nonzero" fill-opacity="1" /><path clip-path="url(#clip430)" d="M33.8307 582.499 Q33.2578 583.485 33.0032 584.663 Q32.7167 585.809 32.7167 587.209 Q32.7167 592.175 35.9632 594.848 Q39.1779 597.49 45.2253 597.49 L64.0042 597.49 L64.0042 603.378 L28.3562 603.378 L28.3562 597.49 L33.8944 597.49 Q30.6479 595.644 29.0883 592.684 Q27.4968 589.724 27.4968 585.491 Q27.4968 584.886 27.5923 584.154 Q27.656 583.422 27.8151 582.53 L33.8307 582.499 Z" fill="#000000" fill-rule="nonzero" fill-opacity="1" /><path clip-path="url(#clip430)" d="M32.4621 563.974 Q32.4621 568.685 36.1542 571.422 Q39.8145 574.16 46.212 574.16 Q52.6095 574.16 56.3017 571.454 Q59.9619 568.717 59.9619 563.974 Q59.9619 559.296 56.2698 556.558 Q52.5777 553.821 46.212 553.821 Q39.8781 553.821 36.186 556.558 Q32.4621 559.296 32.4621 563.974 M27.4968 563.974 Q27.4968 556.336 32.4621 551.975 Q37.4273 547.615 46.212 547.615 Q54.9649 547.615 59.9619 551.975 Q64.9272 556.336 64.9272 563.974 Q64.9272 571.645 59.9619 576.006 Q54.9649 580.334 46.212 580.334 Q37.4273 580.334 32.4621 576.006 Q27.4968 571.645 27.4968 563.974 Z" fill="#000000" fill-rule="nonzero" fill-opacity="1" /><path clip-path="url(#clip430)" d="M33.8307 517.25 Q33.2578 518.237 33.0032 519.415 Q32.7167 520.56 32.7167 521.961 Q32.7167 526.926 35.9632 529.6 Q39.1779 532.241 45.2253 532.241 L64.0042 532.241 L64.0042 538.13 L28.3562 538.13 L28.3562 532.241 L33.8944 532.241 Q30.6479 530.395 29.0883 527.435 Q27.4968 524.475 27.4968 520.242 Q27.4968 519.637 27.5923 518.905 Q27.656 518.173 27.8151 517.282 L33.8307 517.25 Z" fill="#000000" fill-rule="nonzero" fill-opacity="1" /><polyline clip-path="url(#clip432)" style="stroke:#3da44d; stroke-linecap:round; stroke-linejoin:round; stroke-width:4; stroke-opacity:1; fill:none" points="310.553,581.534 312.538,628.701 314.522,692.719 316.507,774.955 318.492,820.523 320.476,889.834 322.461,991.405 324.446,1093.71 326.431,1082 328.415,1120.34 330.4,1128.46 332.385,1130.79 334.369,1131.27 336.354,1133.41 338.339,1134.13 340.323,1150.67 342.308,1161.28 344.293,1161.86 346.278,1168.77 348.262,1173.02 350.247,1173.41 352.232,1181.73 354.216,1169.69 356.201,1175.15 358.186,1196.66 360.171,1198.33 362.155,1215.56 364.14,1219.58 366.125,1224.71 368.109,1203.05 370.094,1203.34 372.079,1249.31 374.063,1233.28 376.048,1225.71 378.033,1248.26 380.018,1252.22 382.002,1261.76 383.987,1265.3 385.972,1268.03 387.956,1267.36 389.941,1255.06 391.926,1265.81 393.911,1316.8 395.895,1336.25 397.88,1334.37 399.865,1332.52 401.849,1336.13 403.834,1325.21 405.819,1335.07 407.803,1331.48 409.788,1337.31 411.773,1335.42 413.758,1335.54 415.742,1276.06 417.727,1265.52 419.712,1270.96 421.696,1315.97 423.681,1291.8 425.666,1268.03 427.651,1230.72 429.635,1240.77 431.62,1227.97 433.605,1243.65 435.589,1278.76 437.574,1285.05 439.559,1269.9 441.543,1278.04 443.528,1277.64 445.513,1274.42 447.498,1274.57 449.482,1276.77 451.467,1270.2 453.452,1274.65 455.436,1272.49 457.421,1282.4 459.406,1289.46 461.391,1343.01 463.375,1342.03 465.36,1345.01 467.345,1345.01 469.329,1347.15 471.314,1263.99 473.299,1251.02 475.283,1274.26 477.268,1286.65 479.253,1289.63 481.238,1264.64 483.222,1269.67 485.207,1269.67 487.192,1259.77 489.176,1272.1 491.161,1263.99 493.146,1301.47 495.131,1341.17 497.115,1350.62 499.1,1346.26 501.085,1345.63 503.069,1349.59 505.054,1355.12 507.039,1343.38 509.023,1343.01 511.008,1347.53 512.993,1349.97 514.978,1348.94 516.962,1347.53 518.947,1304.11 520.932,1265.52 522.916,1291.19 524.901,1292.77 526.886,1287.83 528.871,1290.24 530.855,1268.85 532.84,1279.32 534.825,1275.12 536.809,1234.94 538.794,1219.9 540.779,1248.39 542.764,1234.7 544.748,1249.84 546.733,1244.28 548.718,1268.18 550.702,1268.55 552.687,1268.47 554.672,1260.48 556.656,1246.32 558.641,1225.71 560.626,1196.75 562.611,1220.87 564.595,1275.67 566.58,1265.81 568.565,1231.65 570.549,1242.26 572.534,1225.82 574.519,1218.83 576.504,1216.92 578.488,1219.79 580.473,1221.2 582.458,1212.25 584.442,1221.41 586.427,1221.63 588.412,1219.36 590.396,1217.76 592.381,1220.12 594.366,1219.9 596.351,1221.09 598.335,1218.3 600.32,1228.42 602.305,1242.89 604.289,1225.15 606.274,1215.24 608.259,1249.7 610.244,1277.08 612.228,1266.32 614.213,1271.26 616.198,1269.52 618.182,1282.65 620.167,1284.72 622.152,1271.95 624.136,1266.62 626.121,1265.66 628.106,1272.87 630.091,1285.64 632.075,1280.04 634.06,1253.57 636.045,1227.85 638.029,1265.96 640.014,1281.01 641.999,1282.48 643.984,1272.72 645.968,1267.14 647.953,1271.95 649.938,1241.27 651.922,1284.72 653.907,1277.48 655.892,1272.72 657.876,1291.98 659.861,1252.63 661.846,1239.78 663.831,1245.55 665.815,1219.79 667.8,1216.29 669.785,1198.7 671.769,1218.3 673.754,1232.58 675.739,1222.61 677.724,1225.27 679.708,1207.92 681.693,1251.96 683.678,1212.25 685.662,1218.51 687.647,1198.33 689.632,1227.51 691.616,1225.15 693.601,1246.84 695.586,1259.21 697.571,1201.61 699.555,1265.66 701.54,1265.15 703.525,1259.49 705.509,1265.81 707.494,1264.64 709.479,1262.9 711.464,1262.62 713.448,1288.77 715.433,1316.49 717.418,1341.91 719.402,1352.72 721.387,1350.49 723.372,1337.55 725.356,1349.72 727.341,1355.65 729.326,1346.9 731.311,1358.65 733.295,1359.75 735.28,1361.98 737.265,1362.26 739.249,1361.84 741.234,1363.68 743.219,1362.55 745.204,1361.14 747.188,1364.53 749.173,1363.4 751.158,1365.11 753.142,1360.17 755.127,1367.28 757.112,1363.25 759.096,1357.55 761.081,1356.33 763.066,1358.37 765.051,1357.55 767.035,1359.75 769.02,1357.14 771.005,1363.11 772.989,1360.58 774.974,1359.47 776.959,1364.25 778.944,1362.26 780.928,1360.86 782.913,1362.97 784.898,1286.9 786.882,1233.17 788.867,1221.85 790.852,1225.27 792.836,1235.66 794.821,1250.76 796.806,1274.65 798.791,1269.07 800.775,1230.14 802.76,1267.14 804.745,1255.88 806.729,1233.28 808.714,1306.4 810.699,1246.84 812.684,1269.37 814.668,1275.2 816.653,1274.65 818.638,1271.8 820.622,1317.63 822.607,1367.79 824.592,1369.11 826.576,1372.39 828.561,1367.28 830.546,1365.25 832.531,1371.34 834.515,1371.34 836.5,1369.33 838.485,1370.37 840.469,1371.34 842.454,1362.55 844.439,1368.59 846.424,1363.11 848.408,1355.92 850.393,1373.37 852.378,1367.13 854.362,1368.15 856.347,1364.96 858.332,1363.25 860.316,1365.4 862.301,1368.45 864.286,1370.67 866.271,1372.01 868.255,1373.37 870.24,1365.97 872.225,1370.52 874.209,1371.71 876.194,1320.26 878.179,1298.33 880.164,1283.89 882.148,1270.43 884.133,1226.16 886.118,1220.55 888.102,1237.1 890.087,1267.65 892.072,1288.95 894.056,1278.04 896.041,1334.02 898.026,1363.54 900.011,1365.83 901.995,1368.01 903.98,1373.45 905.965,1373.45 907.949,1364.96 909.934,1358.37 911.919,1360.03 913.904,1363.4 915.888,1357.69 917.873,1367.5 919.858,1369.11 921.842,1367.79 923.827,1362.26 925.812,1354.58 927.796,1363.11 929.781,1358.65 931.766,1368.59 933.751,1369.63 935.735,1364.25 937.72,1359.75 939.705,1364.68 941.689,1365.54 943.674,1363.68 945.659,1360.03 947.644,1361.7 949.628,1361.42 951.613,1352.06 953.598,1360.03 955.582,1323.9 957.567,1288.95 959.552,1266.47 961.536,1249.7 963.521,1270.28 965.506,1275.82 967.491,1295.34 969.475,1268.47 971.46,1230.72 973.445,1250.49 975.429,1245.68 977.414,1224.82 979.399,1244.03 981.384,1214.1 983.368,1248.39 985.353,1255.47 987.338,1272.33 989.322,1262.9 991.307,1229.34 993.292,1247.61 995.276,1247.48 997.261,1264.28 999.246,1264.79 1001.23,1257.95 1003.22,1274.11 1005.2,1263.34 1007.18,1275.35 1009.17,1260.2 1011.15,1257.26 1013.14,1274.65 1015.12,1252.89 1017.11,1262.47 1019.09,1247.22 1021.08,1272.72 1023.06,1283.56 1025.05,1270.2 1027.03,1267.88 1029.02,1270.73 1031,1288.18 1032.99,1285.89 1034.97,1276.61 1036.96,1265.52 1038.94,1269.67 1040.92,1235.78 1042.91,1236.86 1044.89,1273.95 1046.88,1275.35 1048.86,1278.76 1050.85,1281.34 1052.83,1279 1054.82,1272.87 1056.8,1245.42 1058.79,1228.76 1060.77,1224.82 1062.76,1241.52 1064.74,1273.95 1066.73,1272.33 1068.71,1286.82 1070.7,1308.74 1072.68,1263.48 1074.66,1265.81 1076.65,1230.95 1078.63,1257.81 1080.62,1309.13 1082.6,1290.5 1084.59,1318.26 1086.57,1236.5 1088.56,1272.87 1090.54,1315.97 1092.53,1296.96 1094.51,1347.28 1096.5,1360.31 1098.48,1368.01 1100.47,1367.5 1102.45,1368.3 1104.44,1371.04 1106.42,1367.5 1108.4,1374.67 1110.39,1373.22 1112.37,1355.39 1114.36,1364.82 1116.34,1367.42 1118.33,1365.97 1120.31,1367.5 1122.3,1365.4 1124.28,1354.72 1126.27,1364.25 1128.25,1368.81 1130.24,1376.44 1132.22,1373.98 1134.21,1369.85 1136.19,1370.37 1138.18,1365.4 1140.16,1355.52 1142.14,1353.25 1144.13,1361.14 1146.11,1364.68 1148.1,1370 1150.08,1367.5 1152.07,1350.1 1154.05,1228.54 1156.04,1203.91 1158.02,1216.6 1160.01,1264.13 1161.99,1279.64 1163.98,1280.28 1165.96,1282.65 1167.95,1282.24 1169.93,1281.34 1171.92,1283.23 1173.9,1283.56 1175.88,1279.72 1177.87,1279.88 1179.85,1279.48 1181.84,1281.34 1183.82,1261.47 1185.81,1279.64 1187.79,1274.42 1189.78,1272.72 1191.76,1245.81 1193.75,1245.42 1195.73,1228.31 1197.72,1240.4 1199.7,1224.15 1201.69,1246.58 1203.67,1276.61 1205.66,1275.9 1207.64,1279 1209.62,1282.81 1211.61,1280.93 1213.59,1281.18 1215.58,1273.18 1217.56,1282.48 1219.55,1275.35 1221.53,1357.96 1223.52,1358.65 1225.5,1368.01 1227.49,1362.41 1229.47,1359.75 1231.46,1350.75 1233.44,1353.12 1235.43,1361.98 1237.41,1360.86 1239.4,1366.26 1241.38,1367.64 1243.36,1367.93 1245.35,1363.54 1247.33,1360.17 1249.32,1360.72 1251.3,1360.86 1253.29,1361.98 1255.27,1366.48 1257.26,1365.25 1259.24,1371.71 1261.23,1366.33 1263.21,1362.41 1265.2,1349.85 1267.18,1373.22 1269.17,1371.49 1271.15,1367.93 1273.14,1360.17 1275.12,1370.15 1277.1,1367.42 1279.09,1359.89 1281.07,1251.56 1283.06,1266.69 1285.04,1200.2 1287.03,1229.91 1289.01,1283.39 1291,1284.55 1292.98,1269.9 1294.97,1315.46 1296.95,1305.63 1298.94,1339.35 1300.92,1354.72 1302.91,1349.2 1304.89,1362.97 1306.88,1369.48 1308.86,1370.67 1310.84,1367.42 1312.83,1369.85 1314.81,1366.48 1316.8,1368.81 1318.78,1364.53 1320.77,1354.72 1322.75,1351.54 1324.74,1365.4 1326.72,1366.77 1328.71,1364.53 1330.69,1366.33 1332.68,1366.77 1334.66,1364.68 1336.65,1363.96 1338.63,1365.68 1340.62,1365.97 1342.6,1360.86 1344.58,1366.62 1346.57,1368.15 1348.55,1344.38 1350.54,1211.03 1352.52,1269.75 1354.51,1330.8 1356.49,1322.5 1358.48,1279.64 1360.46,1291.72 1362.45,1279 1364.43,1289.55 1366.42,1289.98 1368.4,1276.93 1370.39,1277.32 1372.37,1284.63 1374.36,1284.47 1376.34,1278.76 1378.32,1282.4 1380.31,1261.76 1382.29,1275.9 1384.28,1279.64 1386.26,1264.35 1388.25,1281.75 1390.23,1261.19 1392.22,1230.49 1394.2,1220.12 1396.19,1217.02 1398.17,1245.17 1400.16,1258.09 1402.14,1281.42 1404.13,1282.57 1406.11,1277.32 1408.1,1277.32 1410.08,1271.64 1412.06,1267.88 1414.05,1273.41 1416.03,1273.41 1418.02,1278.36 1420,1240.52 1421.99,1232.11 1423.97,1270.73 1425.96,1278.04 1427.94,1278.6 1429.93,1349.46 1431.91,1364.11 1433.9,1359.75 1435.88,1368.01 1437.87,1364.25 1439.85,1366.12 1441.84,1360.17 1443.82,1354.58 1445.8,1358.1 1447.79,1360.44 1449.77,1368.45 1451.76,1364.25 1453.74,1354.85 1455.73,1364.68 1457.71,1367.13 1459.7,1361.7 1461.68,1362.83 1463.67,1355.39 1465.65,1361.84 1467.64,1361.42 1469.62,1361.98 1471.61,1295.61 1473.59,1317.63 1475.58,1268.32 1477.56,1286.9 1479.54,1294.18 1481.53,1259.07 1483.51,1256.16 1485.5,1291.54 1487.48,1286.9 1489.47,1281.58 1491.45,1272.33 1493.44,1279.72 1495.42,1285.55 1497.41,1277.08 1499.39,1277.08 1501.38,1279.88 1503.36,1278.04 1505.35,1283.23 1507.33,1279.72 1509.32,1272.64 1511.3,1232.11 1513.28,1222.07 1515.27,1210.53 1517.25,1203.43 1519.24,1241.02 1521.22,1233.64 1523.21,1240.77 1525.19,1225.49 1527.18,1222.72 1529.16,1226.72 1531.15,1266.62 1533.13,1256.85 1535.12,1246.71 1537.1,1260.06 1539.09,1276.77 1541.07,1275.2 1543.06,1271.64 1545.04,1285.47 1547.02,1286.65 1549.01,1278.6 1550.99,1271.11 1552.98,1269.07 1554.96,1278.76 1556.95,1286.9 1558.93,1290.15 1560.92,1262.47 1562.9,1268.18 1564.89,1256.16 1566.87,1252.09 1568.86,1265.81 1570.84,1268.85 1572.83,1273.33 1574.81,1263.77 1576.8,1283.8 1578.78,1354.18 1580.76,1354.72 1582.75,1360.86 1584.73,1368.01 1586.72,1367.28 1588.7,1363.82 1590.69,1365.54 1592.67,1350.88 1594.66,1366.77 1596.64,1365.97 1598.63,1370.15 1600.61,1371.34 1602.6,1373.07 1604.58,1373.37 1606.57,1363.11 1608.55,1363.11 1610.54,1357.01 1612.52,1363.68 1614.5,1368.59 1616.49,1368.15 1618.47,1372.39 1620.46,1368.96 1622.44,1372.92 1624.43,1362.83 1626.41,1286.23 1628.4,1275.51 1630.38,1289.89 1632.37,1292.94 1634.35,1257.26 1636.34,1181.48 1638.32,1239.78 1640.31,1282.24 1642.29,1357.96 1644.28,1291.8 1646.26,1310.12 1648.24,1283.23 1650.23,1296.6 1652.21,1234.82 1654.2,1278.36 1656.18,1282.73 1658.17,1281.26 1660.15,1284.22 1662.14,1288.52 1664.12,1294.09 1666.11,1291.54 1668.09,1288.69 1670.08,1286.82 1672.06,1286.06 1674.05,1284.72 1676.03,1267.36 1678.02,1231.88 1680,1231.06 1681.98,1225.82 1683.97,1224.82 1685.95,1227.29 1687.94,1282.57 1689.92,1285.81 1691.91,1286.31 1693.89,1280.45 1695.88,1278.44 1697.86,1277.08 1699.85,1261.76 1701.83,1247.61 1703.82,1210.93 1705.8,1251.82 1707.79,1244.53 1709.77,1227.29 1711.76,1275.9 1713.74,1265.15 1715.72,1270.88 1717.71,1278.2 1719.69,1282.07 1721.68,1284.22 1723.66,1290.76 1725.65,1276.61 1727.63,1277.64 1729.62,1279.64 1731.6,1260.48 1733.59,1289.63 1735.57,1286.23 1737.56,1272.18 1739.54,1280.28 1741.53,1275.51 1743.51,1241.76 1745.5,1234.7 1747.48,1230.6 1749.46,1276.45 1751.45,1276.06 1753.43,1280.28 1755.42,1299.34 1757.4,1288.43 1759.39,1274.11 1761.37,1263.48 1763.36,1214.1 1765.34,1232.11 1767.33,1227.06 1769.31,1219.15 1771.3,1211.95 1773.28,1217.98 1775.27,1239.66 1777.25,1251.82 1779.24,1215.56 1781.22,1223.27 1783.2,1222.61 1785.19,1212.66 1787.17,1194.65 1789.16,1198.6 1791.14,1216.6 1793.13,1204.69 1795.11,1252.22 1797.1,1218.3 1799.08,1244.79 1801.07,1260.34 1803.05,1282.81 1805.04,1289.63 1807.02,1276.61 1809.01,1276.06 1810.99,1285.14 1812.98,1272.72 1814.96,1340.2 1816.94,1357.42 1818.93,1357.28 1820.91,1366.12 1822.9,1357.55 1824.88,1374.44 1826.87,1370.15 1828.85,1370.37 1830.84,1371.19 1832.82,1366.99 1834.81,1375.13 1836.79,1371.56 1838.78,1376.6 1840.76,1354.31 1842.75,1356.74 1844.73,1362.41 1846.72,1369.18 1848.7,1368.3 1850.68,1367.64 1852.67,1357.55 1854.65,1351.8 1856.64,1357.14 1858.62,1373.07 1860.61,1320.79 1862.59,1301.1 1864.58,1286.65 1866.56,1236.62 1868.55,1277.88 1870.53,1262.76 1872.52,1276.93 1874.5,1271.64 1876.49,1263.19 1878.47,1315.56 1880.46,1250.49 1882.44,1189.22 1884.42,1231.41 1886.41,1212.66 1888.39,1275.9 1890.38,1252.36 1892.36,1320.15 1894.35,1362.83 1896.33,1369.77 1898.32,1366.77 1900.3,1368.15 1902.29,1367.13 1904.27,1370.52 1906.26,1370.37 1908.24,1370.37 1910.23,1365.4 1912.21,1364.39 1914.2,1357.28 1916.18,1361.42 1918.16,1373.07 1920.15,1372.01 1922.13,1371.04 1924.12,1371.04 1926.1,1369.48 1928.09,1372.16 1930.07,1371.34 1932.06,1370.15 1934.04,1369.18 1936.03,1264.28 1938.01,1207.03 1940,1244.15 1941.98,1293.21 1943.97,1248.92 1945.95,1250.63 1947.94,1244.28 1949.92,1308.74 1951.9,1321.96 1953.89,1298.69 1955.87,1250.1 1957.86,1306.5 1959.84,1268.18 1961.83,1269.37 1963.81,1272.49 1965.8,1272.87 1967.78,1257.54 1969.77,1273.02 1971.75,1223.27 1973.74,1232.93 1975.72,1281.58 1977.71,1368.15 1979.69,1368.67 1981.68,1368.15 1983.66,1373.6 1985.64,1373.75 1987.63,1371.71 1989.61,1369.11 1991.6,1374.59 1993.58,1371.04 1995.57,1373.75 1997.55,1370.52 1999.54,1372.24 2001.52,1364.11 2003.51,1364.11 2005.49,1366.62 2007.48,1366.77 2009.46,1373.45 2011.45,1369.48 2013.43,1371.86 2015.42,1364.68 2017.4,1363.82 2019.38,1371.04 2021.37,1369.85 2023.35,1352.85 2025.34,1363.25 2027.32,1367.42 2029.31,1359.2 2031.29,1368.81 2033.28,1370.52 2035.26,1372.77 2037.25,1373.98 2039.23,1375.21 2041.22,1367.42 2043.2,1362.12 2045.19,1304.3 2047.17,1237.95 2049.16,1226.38 2051.14,1229.11 2053.12,1252.89 2055.11,1225.04 2057.09,1259.49 2059.08,1273.87 2061.06,1308.35 2063.05,1255.33 2065.03,1278.44 2067.02,1267.14 2069,1352.19 2070.99,1369.11 2072.97,1370.37 2074.96,1376.6 2076.94,1370.52 2078.93,1370.67 2080.91,1375.13 2082.9,1373.22 2084.88,1372.01 2086.86,1375.9 2088.85,1379.1 2090.83,1373.22 2092.82,1378.86 2094.8,1374.29 2096.79,1370.15 2098.77,1366.12 2100.76,1371.56 2102.74,1372.54 2104.73,1372.01 2106.71,1322.5 2108.7,1299.61 2110.68,1287.24 2112.67,1301.56 2114.65,1272.49 2116.64,1232.58 2118.62,1238.8 2120.6,1281.1 2122.59,1279.88 2124.57,1248.65 2126.56,1229.45 2128.54,1226.27 2130.53,1241.39 2132.51,1245.3 2134.5,1306.4 2136.48,1268.47 2138.47,1266.69 2140.45,1265.15 2142.44,1270.58 2144.42,1309.53 2146.41,1270.96 2148.39,1271.11 2150.38,1250.23 2152.36,1291.19 2154.34,1269.75 2156.33,1256.98 2158.31,1286.23 2160.3,1260.06 2162.28,1266.32 2164.27,1266.32 2166.25,1272.49 2168.24,1250.49 2170.22,1228.76 2172.21,1262.76 2174.19,1263.34 2176.18,1315.97 2178.16,1356.74 2180.15,1364.39 2182.13,1364.25 2184.12,1360.17 2186.1,1367.13 2188.08,1355.39 2190.07,1359.61 2192.05,1367.42 2194.04,1373.22 2196.02,1366.26 2198.01,1376.6 2199.99,1374.13 2201.98,1351.67 2203.96,1283.47 2205.95,1279.72 2207.93,1291.28 2209.92,1294.63 2211.9,1282.65 2213.89,1285.64 2215.87,1213.48 2217.86,1203.53 2219.84,1244.03 2221.82,1293.83 2223.81,1290.24 2225.79,1276.37 2227.78,1237.46 2229.76,1205.76 2231.75,1290.32 2233.73,1300.17 2235.72,1302.4 2237.7,1286.48 2239.69,1347.92 2241.67,1279.16 2243.66,1369.77 2245.64,1376.6 2247.63,1366.84 2249.61,1366.12 2251.6,1375.67 2253.58,1383.67 2255.56,1378.71 2257.55,1378 2259.53,1380.21 2261.52,1371.34 2263.5,1365.25 2265.49,1372.77 2267.47,1373.98 2269.46,1381.09 2271.44,1384.24 2273.43,1378.94 2275.41,1373.6 2277.4,1378.31 2279.38,1379.57 2281.37,1378.39 2283.35,1381.09 2285.34,1371.49 2287.32,1365.4 2289.3,1372.69 2291.29,1380.93 2293.27,1377.45 "/>
<polyline clip-path="url(#clip432)" style="stroke:#e26f46; stroke-linecap:round; stroke-linejoin:round; stroke-width:4; stroke-opacity:1; fill:none" points="310.553,86.1857 312.538,95.4334 314.522,103.55 316.507,110.065 318.492,116.88 320.476,121.779 322.461,129.861 324.446,133.932 326.431,139.737 328.415,146.552 330.4,153.371 332.385,158.155 334.369,162.406 336.354,169.203 338.339,175.006 340.323,179.779 342.308,186.732 344.293,190.647 346.278,197.705 348.262,201.814 350.247,208.848 352.232,214.629 354.216,218.991 356.201,225.19 358.186,230.7 360.171,235.713 362.155,241.784 364.14,246.507 366.125,252.969 368.109,258.07 370.094,263.78 372.079,267.508 374.063,273.878 376.048,279.197 378.033,284.617 380.018,289.222 382.002,294.081 383.987,299.105 385.972,303.855 387.956,309.345 389.941,313.72 391.926,320.473 393.911,324.033 395.895,329.539 397.88,333.739 399.865,338.629 401.849,344.94 403.834,349.685 405.819,353.955 407.803,358.922 409.788,364.399 411.773,369.124 413.758,375.363 415.742,379.612 417.727,384.664 419.712,389.393 421.696,394.9 423.681,400.081 425.666,405.451 427.651,412.069 429.635,416.451 431.62,423.215 433.605,428.859 435.589,434.048 437.574,439.285 439.559,443.699 441.543,446.544 443.528,450.502 445.513,454.024 447.498,456.525 449.482,460.115 451.467,463.299 453.452,465.963 455.436,469.879 457.421,473.901 459.406,476.585 461.391,481.355 463.375,486.092 465.36,489.5 467.345,494.001 469.329,497.911 471.314,503.544 473.299,509.174 475.283,513.397 477.268,519.786 479.253,524.828 481.238,534.254 483.222,543.327 485.207,552.841 487.192,562.606 489.176,571.767 491.161,581.809 493.146,591.303 495.131,600.506 497.115,609.099 499.1,616.236 501.085,620.117 503.069,625.825 505.054,630.736 507.039,634.758 509.023,641.074 511.008,644.407 512.993,647.672 514.978,651.747 516.962,655.332 518.947,659.006 520.932,662.535 522.916,665.988 524.901,669.025 526.886,671.787 528.871,675.12 530.855,678.441 532.84,681.476 534.825,683.658 536.809,685.13 538.794,688.308 540.779,690.593 542.764,691.846 544.748,694.383 546.733,697.87 548.718,698.881 550.702,700.719 552.687,702.893 554.672,704.676 556.656,705.842 558.641,708.417 560.626,711.701 562.611,713.258 564.595,713.819 566.58,716.767 568.565,718.611 570.549,719.775 572.534,721.776 574.519,723.684 576.504,725.131 578.488,728.069 580.473,730.311 582.458,732.588 584.442,734.512 586.427,736.201 588.412,738.305 590.396,740.441 592.381,741.791 594.366,744.529 596.351,745.222 598.335,747.179 600.32,748.45 602.305,750.45 604.289,752.551 606.274,754.681 608.259,755.87 610.244,758.277 612.228,759.19 614.213,761.652 616.198,761.807 618.182,763.919 620.167,766.141 622.152,766.542 624.136,767.265 626.121,767.83 628.106,770.441 630.091,774.109 632.075,774.616 634.06,777.093 636.045,778.303 638.029,779.612 640.014,781.729 641.999,783.337 643.984,783.517 645.968,786.515 647.953,787.528 649.938,789.857 651.922,791.651 653.907,793.18 655.892,795.893 657.876,796.285 659.861,798.657 661.846,800.764 663.831,801.778 665.815,804.241 667.8,805.175 669.785,806.64 671.769,806.43 673.754,808.545 675.739,810.044 677.724,813.309 679.708,813.97 681.693,815.637 683.678,818.23 685.662,818.003 687.647,820.177 689.632,821.916 691.616,822.969 693.601,825.935 695.586,826.655 697.571,829.451 699.555,830.807 701.54,832.551 703.525,832.301 705.509,834.316 707.494,836.23 709.479,836.616 711.464,837.78 713.448,840.267 715.433,841.062 717.418,843.335 719.402,844.011 721.387,846.468 723.372,846.882 725.356,849.529 727.341,850.516 729.326,851.795 731.311,853.662 733.295,854.677 735.28,855.993 737.265,856.729 739.249,858.51 741.234,859.936 743.219,863.91 745.204,864.453 747.188,865.155 749.173,863.91 751.158,866.646 753.142,868.952 755.127,870.483 757.112,872.932 759.096,874.255 761.081,877.022 763.066,878.383 765.051,880.447 767.035,881.752 769.02,880.794 771.005,881.403 772.989,885.469 774.974,883.865 776.959,888.548 778.944,889.19 780.928,889.742 782.913,891.505 784.898,893.479 786.882,895.096 788.867,895.479 790.852,895.863 792.836,895.671 794.821,898.874 796.806,900.65 798.791,900.849 800.775,901.347 802.76,902.851 804.745,905.495 806.729,904.677 808.714,906.525 810.699,907.043 812.684,908.501 814.668,908.921 816.653,907.458 818.638,908.292 820.622,911.249 822.607,911.891 824.592,913.29 826.576,912.858 828.561,913.941 830.546,915.25 832.531,915.25 834.515,913.832 836.5,912.966 838.485,911.891 840.469,915.25 842.454,914.485 844.439,916.351 846.424,917.348 848.408,915.36 850.393,915.141 852.378,914.158 854.362,915.58 856.347,917.237 858.332,918.913 860.316,918.464 862.301,918.016 864.286,919.814 866.271,920.38 868.255,920.721 870.24,921.863 872.225,921.063 874.209,918.8 876.194,922.322 878.179,921.063 880.164,922.552 882.148,921.978 884.133,921.52 886.118,921.634 888.102,920.721 890.087,918.913 892.072,924.29 894.056,925.577 896.041,923.361 898.026,922.552 900.011,924.057 901.995,926.284 903.98,922.092 905.965,924.874 907.949,925.695 909.934,921.748 911.919,924.406 913.904,927.232 915.888,928.186 917.873,927.232 919.858,926.402 921.842,923.825 923.827,927.351 925.812,930.234 927.796,929.267 929.781,929.146 931.766,927.589 933.751,928.905 935.735,930.113 937.72,929.267 939.705,929.267 941.689,929.749 943.674,928.306 945.659,929.267 947.644,927.232 949.628,927.232 951.613,928.425 953.598,928.545 955.582,929.026 957.567,928.425 959.552,929.146 961.536,929.629 963.521,928.306 965.506,930.355 967.491,926.757 969.475,926.521 971.46,930.355 973.445,929.508 975.429,928.066 977.414,929.508 979.399,927.589 981.384,929.146 983.368,933.298 985.353,933.422 987.338,929.991 989.322,932.803 991.307,932.927 993.292,933.918 995.276,932.187 997.261,933.174 999.246,932.433 1001.23,934.541 1003.22,932.065 1005.2,934.791 1007.18,929.991 1009.17,930.113 1011.15,933.05 1013.14,933.918 1015.12,933.67 1017.11,933.05 1019.09,933.67 1021.08,933.422 1023.06,931.085 1025.05,931.697 1027.03,933.174 1029.02,932.065 1031,934.417 1032.99,933.422 1034.97,934.043 1036.96,933.422 1038.94,934.043 1040.92,933.918 1042.91,932.557 1044.89,934.292 1046.88,932.433 1048.86,934.917 1050.85,932.927 1052.83,932.31 1054.82,938.208 1056.8,934.666 1058.79,933.05 1060.77,925.342 1062.76,923.014 1064.74,924.406 1066.73,932.187 1068.71,937.952 1070.7,935.796 1072.68,937.697 1074.66,937.06 1076.65,937.825 1078.63,936.807 1080.62,936.048 1082.6,935.922 1084.59,938.593 1086.57,936.553 1088.56,936.3 1090.54,935.042 1092.53,936.807 1094.51,939.236 1096.5,938.721 1098.48,934.043 1100.47,936.553 1102.45,938.721 1104.44,935.042 1106.42,936.427 1108.4,937.315 1110.39,937.187 1112.37,938.08 1114.36,936.553 1116.34,937.06 1118.33,933.298 1120.31,937.569 1122.3,936.933 1124.28,938.08 1126.27,938.208 1128.25,933.174 1130.24,935.042 1132.22,938.464 1134.21,938.08 1136.19,940.401 1138.18,935.042 1140.16,936.933 1142.14,937.569 1144.13,940.141 1146.11,936.807 1148.1,939.365 1150.08,938.85 1152.07,939.882 1154.05,937.952 1156.04,940.271 1158.02,937.952 1160.01,934.043 1161.99,939.623 1163.98,941.837 1165.96,940.141 1167.95,941.313 1169.93,941.706 1171.92,941.182 1173.9,942.494 1175.88,940.921 1177.87,941.182 1179.85,941.313 1181.84,942.231 1183.82,941.706 1185.81,941.706 1187.79,941.052 1189.78,941.182 1191.76,936.048 1193.75,936.048 1195.73,936.427 1197.72,939.365 1199.7,941.182 1201.69,941.837 1203.67,939.365 1205.66,940.661 1207.64,939.236 1209.62,941.313 1211.61,941.444 1213.59,940.921 1215.58,942.231 1217.56,942.231 1219.55,940.271 1221.53,941.706 1223.52,942.099 1225.5,938.593 1227.49,941.837 1229.47,942.494 1231.46,941.313 1233.44,942.231 1235.43,941.052 1237.41,937.697 1239.4,933.05 1241.38,929.267 1243.36,933.05 1245.35,941.968 1247.33,944.351 1249.32,946.637 1251.3,947.589 1253.29,945.422 1255.27,947.589 1257.26,946.231 1259.24,947.589 1261.23,946.502 1263.21,946.908 1265.2,946.096 1267.18,946.773 1269.17,946.502 1271.15,947.18 1273.14,948.273 1275.12,946.096 1277.1,946.908 1279.09,946.366 1281.07,941.313 1283.06,939.752 1285.04,941.182 1287.03,944.351 1289.01,937.952 1291,941.052 1292.98,943.42 1294.97,945.422 1296.95,941.968 1298.94,944.618 1300.92,944.752 1302.91,945.691 1304.89,944.218 1306.88,945.691 1308.86,944.084 1310.84,942.89 1312.83,945.961 1314.81,945.557 1316.8,945.154 1318.78,946.637 1320.77,945.154 1322.75,945.557 1324.74,947.044 1326.72,946.908 1328.71,945.02 1330.69,947.18 1332.68,947.316 1334.66,946.231 1336.65,946.773 1338.63,947.044 1340.62,947.999 1342.6,947.589 1344.58,948.547 1346.57,945.826 1348.55,947.589 1350.54,944.886 1352.52,946.502 1354.51,946.096 1356.49,946.502 1358.48,942.363 1360.46,934.292 1362.45,942.758 1364.43,947.18 1366.42,950.204 1368.4,950.342 1370.39,950.204 1372.37,950.065 1374.36,950.621 1376.34,949.788 1378.32,950.899 1380.31,951.318 1382.29,950.065 1384.28,949.788 1386.26,947.999 1388.25,943.685 1390.23,944.886 1392.22,947.589 1394.2,948.41 1396.19,944.351 1398.17,945.557 1400.16,939.236 1402.14,937.442 1404.13,948.822 1406.11,948.822 1408.1,948.822 1410.08,950.76 1412.06,949.373 1414.05,952.442 1416.03,949.649 1418.02,949.788 1420,951.039 1421.99,949.373 1423.97,949.511 1425.96,947.862 1427.94,950.899 1429.93,952.301 1431.91,949.097 1433.9,944.484 1435.88,943.42 1437.87,945.557 1439.85,947.862 1441.84,950.065 1443.82,952.583 1445.8,953.007 1447.79,950.899 1449.77,950.899 1451.76,952.301 1453.74,950.621 1455.73,950.342 1457.71,949.235 1459.7,953.716 1461.68,949.788 1463.67,949.788 1465.65,950.204 1467.64,951.458 1469.62,949.649 1471.61,950.621 1473.59,946.908 1475.58,943.685 1477.56,953.432 1479.54,949.788 1481.53,951.739 1483.51,951.599 1485.5,952.16 1487.48,951.179 1489.47,947.725 1491.45,950.76 1493.44,954.571 1495.42,951.879 1497.41,952.16 1499.39,955.432 1501.38,954.715 1503.36,954.429 1505.35,955.432 1507.33,954.286 1509.32,953.148 1511.3,956.008 1513.28,954.715 1515.27,953.148 1517.25,947.725 1519.24,947.999 1521.22,948.684 1523.21,947.316 1525.19,953.29 1527.18,954.858 1529.16,955.145 1531.15,955.432 1533.13,955.576 1535.12,955.864 1537.1,956.297 1539.09,955.432 1541.07,954.571 1543.06,956.153 1545.04,955.576 1547.02,955.72 1549.01,955.432 1550.99,944.484 1552.98,944.084 1554.96,953.29 1556.95,955.432 1558.93,954.143 1560.92,957.023 1562.9,954.286 1564.89,956.877 1566.87,952.02 1568.86,954.571 1570.84,955.864 1572.83,951.458 1574.81,950.204 1576.8,949.649 1578.78,953.007 1580.76,950.899 1582.75,956.37 1584.73,956.297 1586.72,954.143 1588.7,954.143 1590.69,957.168 1592.67,955.432 1594.66,954.571 1596.64,954.715 1598.63,955.576 1600.61,956.515 1602.6,949.788 1604.58,954.286 1606.57,948.136 1608.55,956.008 1610.54,955.72 1612.52,956.153 1614.5,954.429 1616.49,958.704 1618.47,953.574 1620.46,954.001 1622.44,949.649 1624.43,951.739 1626.41,957.678 1628.4,955.72 1630.38,959.367 1632.37,954.001 1634.35,950.621 1636.34,956.515 1638.32,959.515 1640.31,958.631 1642.29,953.574 1644.28,958.044 1646.26,957.314 1648.24,959.663 1650.23,957.023 1652.21,958.999 1654.2,955.72 1656.18,957.971 1658.17,957.459 1660.15,958.19 1662.14,952.301 1664.12,955.576 1666.11,957.168 1668.09,953.716 1670.08,954.286 1672.06,957.459 1674.05,955.145 1676.03,955.72 1678.02,957.459 1680,955.145 1681.98,957.168 1683.97,959.885 1685.95,956.297 1687.94,957.314 1689.92,957.314 1691.91,956.805 1693.89,947.725 1695.88,951.039 1697.86,958.19 1699.85,953.574 1701.83,960.034 1703.82,962.578 1705.8,961.375 1707.79,962.276 1709.77,962.051 1711.76,961.375 1713.74,961.225 1715.72,961.076 1717.71,961.9 1719.69,961.525 1721.68,961.525 1723.66,961.6 1725.65,961.75 1727.63,961.001 1729.62,962.201 1731.6,962.427 1733.59,958.484 1735.57,952.583 1737.56,961.076 1739.54,959.146 1741.53,961.076 1743.51,959.146 1745.5,954.715 1747.48,960.405 1749.46,960.331 1751.45,959.146 1753.43,957.824 1755.42,958.999 1757.4,959.515 1759.39,959.515 1761.37,958.337 1763.36,959.22 1765.34,961.225 1767.33,958.999 1769.31,959.663 1771.3,960.182 1773.28,960.405 1775.27,962.805 1777.25,958.704 1779.24,962.276 1781.22,961.225 1783.2,961.75 1785.19,960.182 1787.17,961.225 1789.16,959.22 1791.14,956.008 1793.13,960.852 1795.11,960.703 1797.1,962.578 1799.08,960.405 1801.07,953.007 1803.05,954.286 1805.04,962.201 1807.02,965.013 1809.01,964.707 1810.99,966.944 1812.98,965.397 1814.96,963.638 1816.94,964.86 1818.93,965.551 1820.91,958.337 1822.9,958.337 1824.88,955.001 1826.87,952.301 1828.85,956.66 1830.84,961.6 1832.82,965.013 1834.81,963.791 1836.79,962.956 1838.78,958.484 1840.76,953.716 1842.75,956.008 1844.73,957.824 1846.72,963.791 1848.7,956.805 1850.68,955.576 1852.67,965.86 1854.65,965.705 1856.64,966.091 1858.62,965.397 1860.61,966.633 1862.59,965.397 1864.58,965.86 1866.56,966.944 1868.55,966.246 1870.53,966.246 1872.52,960.182 1874.5,963.638 1876.49,951.039 1878.47,941.444 1880.46,948.822 1882.44,956.153 1884.42,966.789 1886.41,966.401 1888.39,958.851 1890.38,964.86 1892.36,966.091 1894.35,967.489 1896.33,966.401 1898.32,967.645 1900.3,968.193 1902.29,967.645 1904.27,967.177 1906.26,967.333 1908.24,967.723 1910.23,968.036 1912.21,967.1 1914.2,968.036 1916.18,967.723 1918.16,967.88 1920.15,967.177 1922.13,967.177 1924.12,967.1 1926.1,965.013 1928.09,967.1 1930.07,967.177 1932.06,967.88 1934.04,967.177 1936.03,965.937 1938.01,967.333 1940,958.044 1941.98,956.37 1943.97,965.013 1945.95,965.705 1947.94,965.937 1949.92,965.551 1951.9,965.167 1953.89,963.259 1955.87,962.805 1957.86,964.86 1959.84,967.645 1961.83,964.63 1963.81,966.478 1965.8,966.401 1967.78,966.091 1969.77,964.707 1971.75,967.1 1973.74,968.9 1975.72,966.478 1977.71,965.551 1979.69,964.172 1981.68,966.633 1983.66,958.631 1985.64,953.007 1987.63,968.743 1989.61,966.944 1991.6,968.036 1993.58,967.723 1995.57,965.244 1997.55,968.036 1999.54,955.001 2001.52,968.743 2003.51,968.586 2005.49,969.453 2007.48,970.007 2009.46,970.963 2011.45,969.295 2013.43,971.123 2015.42,970.405 2017.4,968.979 2019.38,970.883 2021.37,970.166 2023.35,970.405 2025.34,970.246 2027.32,968.35 2029.31,969.453 2031.29,970.246 2033.28,964.707 2035.26,962.201 2037.25,958.999 2039.23,962.729 2041.22,969.611 2043.2,971.283 2045.19,967.645 2047.17,970.564 2049.16,963.638 2051.14,962.956 2053.12,970.246 2055.11,968.9 2057.09,967.645 2059.08,970.007 2061.06,968.429 2063.05,971.283 2065.03,968.35 2067.02,969.453 2069,969.611 2070.99,966.401 2072.97,962.578 2074.96,968.979 2076.94,963.411 2078.93,966.789 2080.91,969.295 2082.9,967.88 2084.88,968.036 2086.86,967.1 2088.85,966.401 2090.83,967.333 2092.82,972.005 2094.8,963.107 2096.79,959.22 2098.77,964.172 2100.76,968.193 2102.74,971.523 2104.73,968.743 2106.71,970.166 2108.7,968.35 2110.68,970.007 2112.67,969.849 2114.65,970.405 2116.64,970.246 2118.62,966.091 2120.6,968.193 2122.59,970.246 2124.57,969.137 2126.56,969.295 2128.54,969.295 2130.53,968.586 2132.51,971.123 2134.5,970.963 2136.48,969.137 2138.47,970.963 2140.45,969.611 2142.44,967.489 2144.42,970.883 2146.41,969.453 2148.39,970.883 2150.38,965.937 2152.36,968.9 2154.34,970.405 2156.33,967.645 2158.31,964.477 2160.3,961.525 2162.28,960.703 2164.27,967.489 2166.25,970.883 2168.24,970.246 2170.22,971.123 2172.21,970.883 2174.19,970.723 2176.18,970.246 2178.16,969.69 2180.15,969.295 2182.13,970.246 2184.12,969.295 2186.1,970.723 2188.08,969.611 2190.07,965.705 2192.05,964.477 2194.04,970.166 2196.02,967.177 2198.01,964.172 2199.99,965.705 2201.98,964.477 2203.96,965.244 2205.95,969.69 2207.93,968.036 2209.92,971.443 2211.9,970.564 2213.89,972.005 2215.87,968.586 2217.86,969.611 2219.84,969.453 2221.82,970.405 2223.81,970.564 2225.79,973.298 2227.78,969.611 2229.76,971.123 2231.75,969.611 2233.73,971.443 2235.72,971.283 2237.7,972.005 2239.69,967.1 2241.67,968.979 2243.66,970.883 2245.64,967.1 2247.63,969.611 2249.61,967.88 2251.6,964.63 2253.58,970.963 2255.56,964.477 2257.55,968.586 2259.53,971.844 2261.52,972.166 2263.5,970.246 2265.49,974.602 2267.47,974.112 2269.46,973.867 2271.44,974.766 2273.43,973.867 2275.41,974.275 2277.4,974.93 2279.38,974.93 2281.37,971.123 2283.35,962.805 2285.34,971.523 2287.32,969.137 2289.3,965.551 2291.29,961.525 2293.27,965.551 "/>
<path clip-path="url(#clip430)" d="M1784.69 248.629 L2282.7 248.629 L2282.7 93.1086 L1784.69 93.1086  Z" fill="#ffffff" fill-rule="evenodd" fill-opacity="1"/>
<polyline clip-path="url(#clip430)" style="stroke:#000000; stroke-linecap:round; stroke-linejoin:round; stroke-width:4; stroke-opacity:1; fill:none" points="1784.69,248.629 2282.7,248.629 2282.7,93.1086 1784.69,93.1086 1784.69,248.629 "/>
<polyline clip-path="url(#clip430)" style="stroke:#3da44d; stroke-linecap:round; stroke-linejoin:round; stroke-width:4; stroke-opacity:1; fill:none" points="1808.04,144.949 1948.15,144.949 "/>
<path clip-path="url(#clip430)" d="M1997.06 157.298 L1997.06 148.016 L1989.42 148.016 L1989.42 144.173 L2001.69 144.173 L2001.69 159.011 Q1998.98 160.932 1995.71 161.928 Q1992.45 162.9 1988.75 162.9 Q1980.65 162.9 1976.06 158.178 Q1971.5 153.432 1971.5 144.983 Q1971.5 136.511 1976.06 131.789 Q1980.65 127.044 1988.75 127.044 Q1992.13 127.044 1995.16 127.877 Q1998.21 128.71 2000.78 130.331 L2000.78 135.307 Q1998.19 133.108 1995.28 131.997 Q1992.36 130.886 1989.14 130.886 Q1982.8 130.886 1979.6 134.428 Q1976.43 137.969 1976.43 144.983 Q1976.43 151.974 1979.6 155.516 Q1982.8 159.057 1989.14 159.057 Q1991.62 159.057 1993.56 158.641 Q1995.51 158.201 1997.06 157.298 Z" fill="#000000" fill-rule="nonzero" fill-opacity="1" /><path clip-path="url(#clip430)" d="M2007.89 147.344 L2020.37 147.344 L2020.37 151.141 L2007.89 151.141 L2007.89 147.344 Z" fill="#000000" fill-rule="nonzero" fill-opacity="1" /><path clip-path="url(#clip430)" d="M2048.05 128.803 L2048.05 133.363 Q2045.39 132.09 2043.03 131.465 Q2040.67 130.84 2038.47 130.84 Q2034.65 130.84 2032.57 132.321 Q2030.51 133.803 2030.51 136.534 Q2030.51 138.826 2031.87 140.007 Q2033.26 141.164 2037.1 141.882 L2039.93 142.46 Q2045.16 143.456 2047.64 145.979 Q2050.14 148.479 2050.14 152.692 Q2050.14 157.715 2046.76 160.307 Q2043.4 162.9 2036.9 162.9 Q2034.44 162.9 2031.66 162.344 Q2028.91 161.789 2025.95 160.701 L2025.95 155.886 Q2028.79 157.483 2031.52 158.293 Q2034.26 159.104 2036.9 159.104 Q2040.9 159.104 2043.08 157.53 Q2045.25 155.956 2045.25 153.039 Q2045.25 150.493 2043.68 149.057 Q2042.13 147.622 2038.56 146.905 L2035.71 146.349 Q2030.48 145.307 2028.15 143.085 Q2025.81 140.863 2025.81 136.905 Q2025.81 132.321 2029.02 129.682 Q2032.27 127.044 2037.94 127.044 Q2040.37 127.044 2042.89 127.483 Q2045.41 127.923 2048.05 128.803 Z" fill="#000000" fill-rule="nonzero" fill-opacity="1" /><path clip-path="url(#clip430)" d="M2068.03 164.636 Q2066.22 169.266 2064.51 170.678 Q2062.8 172.09 2059.93 172.09 L2056.52 172.09 L2056.52 168.525 L2059.02 168.525 Q2060.78 168.525 2061.76 167.692 Q2062.73 166.858 2063.91 163.756 L2064.67 161.812 L2054.19 136.303 L2058.7 136.303 L2066.8 156.581 L2074.9 136.303 L2079.42 136.303 L2068.03 164.636 Z" fill="#000000" fill-rule="nonzero" fill-opacity="1" /><path clip-path="url(#clip430)" d="M2105.48 141.28 Q2107.08 138.409 2109.3 137.044 Q2111.52 135.678 2114.53 135.678 Q2118.58 135.678 2120.78 138.525 Q2122.98 141.349 2122.98 146.581 L2122.98 162.229 L2118.7 162.229 L2118.7 146.719 Q2118.7 142.993 2117.38 141.187 Q2116.06 139.382 2113.35 139.382 Q2110.04 139.382 2108.12 141.581 Q2106.2 143.78 2106.2 147.576 L2106.2 162.229 L2101.92 162.229 L2101.92 146.719 Q2101.92 142.969 2100.6 141.187 Q2099.28 139.382 2096.52 139.382 Q2093.26 139.382 2091.34 141.604 Q2089.42 143.803 2089.42 147.576 L2089.42 162.229 L2085.14 162.229 L2085.14 136.303 L2089.42 136.303 L2089.42 140.331 Q2090.88 137.946 2092.91 136.812 Q2094.95 135.678 2097.75 135.678 Q2100.58 135.678 2102.54 137.113 Q2104.53 138.548 2105.48 141.28 Z" fill="#000000" fill-rule="nonzero" fill-opacity="1" /><path clip-path="url(#clip430)" d="M2135.6 158.34 L2135.6 172.09 L2131.32 172.09 L2131.32 136.303 L2135.6 136.303 L2135.6 140.238 Q2136.94 137.923 2138.98 136.812 Q2141.04 135.678 2143.89 135.678 Q2148.61 135.678 2151.55 139.428 Q2154.51 143.178 2154.51 149.289 Q2154.51 155.4 2151.55 159.15 Q2148.61 162.9 2143.89 162.9 Q2141.04 162.9 2138.98 161.789 Q2136.94 160.655 2135.6 158.34 M2150.09 149.289 Q2150.09 144.59 2148.14 141.928 Q2146.22 139.243 2142.84 139.243 Q2139.46 139.243 2137.52 141.928 Q2135.6 144.59 2135.6 149.289 Q2135.6 153.988 2137.52 156.673 Q2139.46 159.335 2142.84 159.335 Q2146.22 159.335 2148.14 156.673 Q2150.09 153.988 2150.09 149.289 Z" fill="#000000" fill-rule="nonzero" fill-opacity="1" /><path clip-path="url(#clip430)" d="M2161.76 127.669 L2168.05 127.669 L2183.38 156.581 L2183.38 127.669 L2187.91 127.669 L2187.91 162.229 L2181.62 162.229 L2166.29 133.317 L2166.29 162.229 L2161.76 162.229 L2161.76 127.669 Z" fill="#000000" fill-rule="nonzero" fill-opacity="1" /><path clip-path="url(#clip430)" d="M2219.21 148.201 L2219.21 150.284 L2199.63 150.284 Q2199.9 154.682 2202.26 156.997 Q2204.65 159.289 2208.89 159.289 Q2211.34 159.289 2213.63 158.687 Q2215.95 158.085 2218.21 156.881 L2218.21 160.909 Q2215.92 161.881 2213.51 162.391 Q2211.11 162.9 2208.63 162.9 Q2202.43 162.9 2198.79 159.289 Q2195.18 155.678 2195.18 149.52 Q2195.18 143.155 2198.61 139.428 Q2202.06 135.678 2207.89 135.678 Q2213.12 135.678 2216.15 139.057 Q2219.21 142.414 2219.21 148.201 M2214.95 146.951 Q2214.9 143.456 2212.98 141.372 Q2211.08 139.289 2207.94 139.289 Q2204.37 139.289 2202.22 141.303 Q2200.09 143.317 2199.76 146.974 L2214.95 146.951 Z" fill="#000000" fill-rule="nonzero" fill-opacity="1" /><path clip-path="url(#clip430)" d="M2230.41 128.942 L2230.41 136.303 L2239.19 136.303 L2239.19 139.613 L2230.41 139.613 L2230.41 153.687 Q2230.41 156.858 2231.27 157.761 Q2232.15 158.664 2234.81 158.664 L2239.19 158.664 L2239.19 162.229 L2234.81 162.229 Q2229.88 162.229 2228.01 160.4 Q2226.13 158.548 2226.13 153.687 L2226.13 139.613 L2223.01 139.613 L2223.01 136.303 L2226.13 136.303 L2226.13 128.942 L2230.41 128.942 Z" fill="#000000" fill-rule="nonzero" fill-opacity="1" /><polyline clip-path="url(#clip430)" style="stroke:#e26f46; stroke-linecap:round; stroke-linejoin:round; stroke-width:4; stroke-opacity:1; fill:none" points="1808.04,196.789 1948.15,196.789 "/>
<path clip-path="url(#clip430)" d="M1971.5 179.509 L1976.18 179.509 L1976.18 210.133 L1993.01 210.133 L1993.01 214.069 L1971.5 214.069 L1971.5 179.509 Z" fill="#000000" fill-rule="nonzero" fill-opacity="1" /><path clip-path="url(#clip430)" d="M2010.55 184.115 L2004.21 201.314 L2016.92 201.314 L2010.55 184.115 M2007.91 179.509 L2013.21 179.509 L2026.39 214.069 L2021.52 214.069 L2018.38 205.203 L2002.8 205.203 L1999.65 214.069 L1994.72 214.069 L2007.91 179.509 Z" fill="#000000" fill-rule="nonzero" fill-opacity="1" /><path clip-path="url(#clip430)" d="M2028.05 199.184 L2040.53 199.184 L2040.53 202.981 L2028.05 202.981 L2028.05 199.184 Z" fill="#000000" fill-rule="nonzero" fill-opacity="1" /><path clip-path="url(#clip430)" d="M2068.21 180.643 L2068.21 185.203 Q2065.55 183.93 2063.19 183.305 Q2060.83 182.68 2058.63 182.68 Q2054.81 182.68 2052.73 184.161 Q2050.67 185.643 2050.67 188.374 Q2050.67 190.666 2052.03 191.847 Q2053.42 193.004 2057.27 193.722 L2060.09 194.3 Q2065.32 195.296 2067.8 197.819 Q2070.3 200.319 2070.3 204.532 Q2070.3 209.555 2066.92 212.147 Q2063.56 214.74 2057.06 214.74 Q2054.6 214.74 2051.83 214.184 Q2049.07 213.629 2046.11 212.541 L2046.11 207.726 Q2048.96 209.323 2051.69 210.133 Q2054.42 210.944 2057.06 210.944 Q2061.06 210.944 2063.24 209.37 Q2065.41 207.796 2065.41 204.879 Q2065.41 202.333 2063.84 200.897 Q2062.29 199.462 2058.72 198.745 L2055.88 198.189 Q2050.65 197.147 2048.31 194.925 Q2045.97 192.703 2045.97 188.745 Q2045.97 184.161 2049.19 181.522 Q2052.43 178.884 2058.1 178.884 Q2060.53 178.884 2063.05 179.323 Q2065.58 179.763 2068.21 180.643 Z" fill="#000000" fill-rule="nonzero" fill-opacity="1" /><path clip-path="url(#clip430)" d="M2088.19 216.476 Q2086.39 221.106 2084.67 222.518 Q2082.96 223.93 2080.09 223.93 L2076.69 223.93 L2076.69 220.365 L2079.19 220.365 Q2080.95 220.365 2081.92 219.532 Q2082.89 218.698 2084.07 215.596 L2084.83 213.652 L2074.35 188.143 L2078.86 188.143 L2086.96 208.421 L2095.07 188.143 L2099.58 188.143 L2088.19 216.476 Z" fill="#000000" fill-rule="nonzero" fill-opacity="1" /><path clip-path="url(#clip430)" d="M2125.64 193.12 Q2127.24 190.249 2129.46 188.884 Q2131.69 187.518 2134.7 187.518 Q2138.75 187.518 2140.95 190.365 Q2143.14 193.189 2143.14 198.421 L2143.14 214.069 L2138.86 214.069 L2138.86 198.559 Q2138.86 194.833 2137.54 193.027 Q2136.22 191.222 2133.52 191.222 Q2130.2 191.222 2128.28 193.421 Q2126.36 195.62 2126.36 199.416 L2126.36 214.069 L2122.08 214.069 L2122.08 198.559 Q2122.08 194.809 2120.76 193.027 Q2119.44 191.222 2116.69 191.222 Q2113.42 191.222 2111.5 193.444 Q2109.58 195.643 2109.58 199.416 L2109.58 214.069 L2105.3 214.069 L2105.3 188.143 L2109.58 188.143 L2109.58 192.171 Q2111.04 189.786 2113.08 188.652 Q2115.11 187.518 2117.91 187.518 Q2120.74 187.518 2122.7 188.953 Q2124.7 190.388 2125.64 193.12 Z" fill="#000000" fill-rule="nonzero" fill-opacity="1" /><path clip-path="url(#clip430)" d="M2155.76 210.18 L2155.76 223.93 L2151.48 223.93 L2151.48 188.143 L2155.76 188.143 L2155.76 192.078 Q2157.1 189.763 2159.14 188.652 Q2161.2 187.518 2164.05 187.518 Q2168.77 187.518 2171.71 191.268 Q2174.67 195.018 2174.67 201.129 Q2174.67 207.24 2171.71 210.99 Q2168.77 214.74 2164.05 214.74 Q2161.2 214.74 2159.14 213.629 Q2157.1 212.495 2155.76 210.18 M2170.25 201.129 Q2170.25 196.43 2168.31 193.768 Q2166.39 191.083 2163.01 191.083 Q2159.63 191.083 2157.68 193.768 Q2155.76 196.43 2155.76 201.129 Q2155.76 205.828 2157.68 208.513 Q2159.63 211.175 2163.01 211.175 Q2166.39 211.175 2168.31 208.513 Q2170.25 205.828 2170.25 201.129 Z" fill="#000000" fill-rule="nonzero" fill-opacity="1" /><path clip-path="url(#clip430)" d="M2181.92 179.509 L2188.21 179.509 L2203.54 208.421 L2203.54 179.509 L2208.07 179.509 L2208.07 214.069 L2201.78 214.069 L2186.45 185.157 L2186.45 214.069 L2181.92 214.069 L2181.92 179.509 Z" fill="#000000" fill-rule="nonzero" fill-opacity="1" /><path clip-path="url(#clip430)" d="M2239.37 200.041 L2239.37 202.124 L2219.79 202.124 Q2220.07 206.522 2222.43 208.837 Q2224.81 211.129 2229.05 211.129 Q2231.5 211.129 2233.79 210.527 Q2236.11 209.925 2238.38 208.721 L2238.38 212.749 Q2236.08 213.721 2233.68 214.231 Q2231.27 214.74 2228.79 214.74 Q2222.59 214.74 2218.95 211.129 Q2215.34 207.518 2215.34 201.36 Q2215.34 194.995 2218.77 191.268 Q2222.22 187.518 2228.05 187.518 Q2233.28 187.518 2236.32 190.897 Q2239.37 194.254 2239.37 200.041 M2235.11 198.791 Q2235.07 195.296 2233.14 193.212 Q2231.25 191.129 2228.1 191.129 Q2224.53 191.129 2222.38 193.143 Q2220.25 195.157 2219.93 198.814 L2235.11 198.791 Z" fill="#000000" fill-rule="nonzero" fill-opacity="1" /><path clip-path="url(#clip430)" d="M2250.57 180.782 L2250.57 188.143 L2259.35 188.143 L2259.35 191.453 L2250.57 191.453 L2250.57 205.527 Q2250.57 208.698 2251.43 209.601 Q2252.31 210.504 2254.97 210.504 L2259.35 210.504 L2259.35 214.069 L2254.97 214.069 Q2250.04 214.069 2248.17 212.24 Q2246.29 210.388 2246.29 205.527 L2246.29 191.453 L2243.17 191.453 L2243.17 188.143 L2246.29 188.143 L2246.29 180.782 L2250.57 180.782 Z" fill="#000000" fill-rule="nonzero" fill-opacity="1" /></svg>
