<?xml version="1.0" encoding="utf-8"?>
<svg xmlns="http://www.w3.org/2000/svg" xmlns:xlink="http://www.w3.org/1999/xlink" width="600" height="400" viewBox="0 0 2400 1600">
<defs>
  <clipPath id="clip410">
    <rect x="0" y="0" width="2400" height="1600"/>
  </clipPath>
</defs>
<path clip-path="url(#clip410)" d="M0 1600 L2400 1600 L2400 0 L0 0  Z" fill="#ffffff" fill-rule="evenodd" fill-opacity="1"/>
<defs>
  <clipPath id="clip411">
    <rect x="480" y="0" width="1681" height="1600"/>
  </clipPath>
</defs>
<path clip-path="url(#clip410)" d="M202.177 1486.45 L2352.76 1486.45 L2352.76 47.2441 L202.177 47.2441  Z" fill="#ffffff" fill-rule="evenodd" fill-opacity="1"/>
<defs>
  <clipPath id="clip412">
    <rect x="202" y="47" width="2152" height="1440"/>
  </clipPath>
</defs>
<polyline clip-path="url(#clip412)" style="stroke:#000000; stroke-linecap:round; stroke-linejoin:round; stroke-width:2; stroke-opacity:0.1; fill:none" points="263.789,1486.45 263.789,47.2441 "/>
<polyline clip-path="url(#clip412)" style="stroke:#000000; stroke-linecap:round; stroke-linejoin:round; stroke-width:2; stroke-opacity:0.1; fill:none" points="958.344,1486.45 958.344,47.2441 "/>
<polyline clip-path="url(#clip412)" style="stroke:#000000; stroke-linecap:round; stroke-linejoin:round; stroke-width:2; stroke-opacity:0.1; fill:none" points="1652.9,1486.45 1652.9,47.2441 "/>
<polyline clip-path="url(#clip412)" style="stroke:#000000; stroke-linecap:round; stroke-linejoin:round; stroke-width:2; stroke-opacity:0.1; fill:none" points="2347.45,1486.45 2347.45,47.2441 "/>
<polyline clip-path="url(#clip410)" style="stroke:#000000; stroke-linecap:round; stroke-linejoin:round; stroke-width:4; stroke-opacity:1; fill:none" points="202.177,1486.45 2352.76,1486.45 "/>
<polyline clip-path="url(#clip410)" style="stroke:#000000; stroke-linecap:round; stroke-linejoin:round; stroke-width:4; stroke-opacity:1; fill:none" points="263.789,1486.45 263.789,1467.55 "/>
<polyline clip-path="url(#clip410)" style="stroke:#000000; stroke-linecap:round; stroke-linejoin:round; stroke-width:4; stroke-opacity:1; fill:none" points="958.344,1486.45 958.344,1467.55 "/>
<polyline clip-path="url(#clip410)" style="stroke:#000000; stroke-linecap:round; stroke-linejoin:round; stroke-width:4; stroke-opacity:1; fill:none" points="1652.9,1486.45 1652.9,1467.55 "/>
<polyline clip-path="url(#clip410)" style="stroke:#000000; stroke-linecap:round; stroke-linejoin:round; stroke-width:4; stroke-opacity:1; fill:none" points="2347.45,1486.45 2347.45,1467.55 "/>
<path clip-path="url(#clip410)" d="M263.789 1517.37 Q260.178 1517.37 258.349 1520.93 Q256.544 1524.47 256.544 1531.6 Q256.544 1538.71 258.349 1542.27 Q260.178 1545.82 263.789 1545.82 Q267.423 1545.82 269.229 1542.27 Q271.057 1538.71 271.057 1531.6 Q271.057 1524.47 269.229 1520.93 Q267.423 1517.37 263.789 1517.37 M263.789 1513.66 Q269.599 1513.66 272.655 1518.27 Q275.733 1522.85 275.733 1531.6 Q275.733 1540.33 272.655 1544.94 Q269.599 1549.52 263.789 1549.52 Q257.979 1549.52 254.9 1544.94 Q251.845 1540.33 251.845 1531.6 Q251.845 1522.85 254.9 1518.27 Q257.979 1513.66 263.789 1513.66 Z" fill="#000000" fill-rule="nonzero" fill-opacity="1" /><path clip-path="url(#clip410)" d="M902.87 1544.91 L910.509 1544.91 L910.509 1518.55 L902.199 1520.21 L902.199 1515.95 L910.463 1514.29 L915.138 1514.29 L915.138 1544.91 L922.777 1544.91 L922.777 1548.85 L902.87 1548.85 L902.87 1544.91 Z" fill="#000000" fill-rule="nonzero" fill-opacity="1" /><path clip-path="url(#clip410)" d="M942.222 1517.37 Q938.611 1517.37 936.782 1520.93 Q934.976 1524.47 934.976 1531.6 Q934.976 1538.71 936.782 1542.27 Q938.611 1545.82 942.222 1545.82 Q945.856 1545.82 947.661 1542.27 Q949.49 1538.71 949.49 1531.6 Q949.49 1524.47 947.661 1520.93 Q945.856 1517.37 942.222 1517.37 M942.222 1513.66 Q948.032 1513.66 951.087 1518.27 Q954.166 1522.85 954.166 1531.6 Q954.166 1540.33 951.087 1544.94 Q948.032 1549.52 942.222 1549.52 Q936.411 1549.52 933.333 1544.94 Q930.277 1540.33 930.277 1531.6 Q930.277 1522.85 933.333 1518.27 Q936.411 1513.66 942.222 1513.66 Z" fill="#000000" fill-rule="nonzero" fill-opacity="1" /><path clip-path="url(#clip410)" d="M972.384 1517.37 Q968.772 1517.37 966.944 1520.93 Q965.138 1524.47 965.138 1531.6 Q965.138 1538.71 966.944 1542.27 Q968.772 1545.82 972.384 1545.82 Q976.018 1545.82 977.823 1542.27 Q979.652 1538.71 979.652 1531.6 Q979.652 1524.47 977.823 1520.93 Q976.018 1517.37 972.384 1517.37 M972.384 1513.66 Q978.194 1513.66 981.249 1518.27 Q984.328 1522.85 984.328 1531.6 Q984.328 1540.33 981.249 1544.94 Q978.194 1549.52 972.384 1549.52 Q966.573 1549.52 963.495 1544.94 Q960.439 1540.33 960.439 1531.6 Q960.439 1522.85 963.495 1518.27 Q966.573 1513.66 972.384 1513.66 Z" fill="#000000" fill-rule="nonzero" fill-opacity="1" /><path clip-path="url(#clip410)" d="M1002.55 1517.37 Q998.934 1517.37 997.106 1520.93 Q995.3 1524.47 995.3 1531.6 Q995.3 1538.71 997.106 1542.27 Q998.934 1545.82 1002.55 1545.82 Q1006.18 1545.82 1007.99 1542.27 Q1009.81 1538.71 1009.81 1531.6 Q1009.81 1524.47 1007.99 1520.93 Q1006.18 1517.37 1002.55 1517.37 M1002.55 1513.66 Q1008.36 1513.66 1011.41 1518.27 Q1014.49 1522.85 1014.49 1531.6 Q1014.49 1540.33 1011.41 1544.94 Q1008.36 1549.52 1002.55 1549.52 Q996.735 1549.52 993.657 1544.94 Q990.601 1540.33 990.601 1531.6 Q990.601 1522.85 993.657 1518.27 Q996.735 1513.66 1002.55 1513.66 Z" fill="#000000" fill-rule="nonzero" fill-opacity="1" /><path clip-path="url(#clip410)" d="M1601.51 1544.91 L1617.83 1544.91 L1617.83 1548.85 L1595.89 1548.85 L1595.89 1544.91 Q1598.55 1542.16 1603.13 1537.53 Q1607.74 1532.88 1608.92 1531.53 Q1611.16 1529.01 1612.04 1527.27 Q1612.95 1525.51 1612.95 1523.82 Q1612.95 1521.07 1611 1519.33 Q1609.08 1517.6 1605.98 1517.6 Q1603.78 1517.6 1601.33 1518.36 Q1598.9 1519.13 1596.12 1520.68 L1596.12 1515.95 Q1598.94 1514.82 1601.4 1514.24 Q1603.85 1513.66 1605.89 1513.66 Q1611.26 1513.66 1614.45 1516.35 Q1617.65 1519.03 1617.65 1523.52 Q1617.65 1525.65 1616.83 1527.57 Q1616.05 1529.47 1613.94 1532.07 Q1613.36 1532.74 1610.26 1535.95 Q1607.16 1539.15 1601.51 1544.91 Z" fill="#000000" fill-rule="nonzero" fill-opacity="1" /><path clip-path="url(#clip410)" d="M1637.65 1517.37 Q1634.03 1517.37 1632.21 1520.93 Q1630.4 1524.47 1630.4 1531.6 Q1630.4 1538.71 1632.21 1542.27 Q1634.03 1545.82 1637.65 1545.82 Q1641.28 1545.82 1643.08 1542.27 Q1644.91 1538.71 1644.91 1531.6 Q1644.91 1524.47 1643.08 1520.93 Q1641.28 1517.37 1637.65 1517.37 M1637.65 1513.66 Q1643.46 1513.66 1646.51 1518.27 Q1649.59 1522.85 1649.59 1531.6 Q1649.59 1540.33 1646.51 1544.94 Q1643.46 1549.52 1637.65 1549.52 Q1631.83 1549.52 1628.76 1544.94 Q1625.7 1540.33 1625.7 1531.6 Q1625.7 1522.85 1628.76 1518.27 Q1631.83 1513.66 1637.65 1513.66 Z" fill="#000000" fill-rule="nonzero" fill-opacity="1" /><path clip-path="url(#clip410)" d="M1667.81 1517.37 Q1664.2 1517.37 1662.37 1520.93 Q1660.56 1524.47 1660.56 1531.6 Q1660.56 1538.71 1662.37 1542.27 Q1664.2 1545.82 1667.81 1545.82 Q1671.44 1545.82 1673.25 1542.27 Q1675.08 1538.71 1675.08 1531.6 Q1675.08 1524.47 1673.25 1520.93 Q1671.44 1517.37 1667.81 1517.37 M1667.81 1513.66 Q1673.62 1513.66 1676.67 1518.27 Q1679.75 1522.85 1679.75 1531.6 Q1679.75 1540.33 1676.67 1544.94 Q1673.62 1549.52 1667.81 1549.52 Q1662 1549.52 1658.92 1544.94 Q1655.86 1540.33 1655.86 1531.6 Q1655.86 1522.85 1658.92 1518.27 Q1662 1513.66 1667.81 1513.66 Z" fill="#000000" fill-rule="nonzero" fill-opacity="1" /><path clip-path="url(#clip410)" d="M1697.97 1517.37 Q1694.36 1517.37 1692.53 1520.93 Q1690.72 1524.47 1690.72 1531.6 Q1690.72 1538.71 1692.53 1542.27 Q1694.36 1545.82 1697.97 1545.82 Q1701.6 1545.82 1703.41 1542.27 Q1705.24 1538.71 1705.24 1531.6 Q1705.24 1524.47 1703.41 1520.93 Q1701.6 1517.37 1697.97 1517.37 M1697.97 1513.66 Q1703.78 1513.66 1706.83 1518.27 Q1709.91 1522.85 1709.91 1531.6 Q1709.91 1540.33 1706.83 1544.94 Q1703.78 1549.52 1697.97 1549.52 Q1692.16 1549.52 1689.08 1544.94 Q1686.02 1540.33 1686.02 1531.6 Q1686.02 1522.85 1689.08 1518.27 Q1692.16 1513.66 1697.97 1513.66 Z" fill="#000000" fill-rule="nonzero" fill-opacity="1" /><path clip-path="url(#clip410)" d="M2306.14 1530.21 Q2309.49 1530.93 2311.37 1533.2 Q2313.27 1535.47 2313.27 1538.8 Q2313.27 1543.92 2309.75 1546.72 Q2306.23 1549.52 2299.75 1549.52 Q2297.57 1549.52 2295.26 1549.08 Q2292.96 1548.66 2290.51 1547.81 L2290.51 1543.29 Q2292.46 1544.43 2294.77 1545.01 Q2297.08 1545.58 2299.61 1545.58 Q2304.01 1545.58 2306.3 1543.85 Q2308.61 1542.11 2308.61 1538.8 Q2308.61 1535.75 2306.46 1534.03 Q2304.33 1532.3 2300.51 1532.3 L2296.48 1532.3 L2296.48 1528.45 L2300.7 1528.45 Q2304.14 1528.45 2305.97 1527.09 Q2307.8 1525.7 2307.8 1523.11 Q2307.8 1520.45 2305.9 1519.03 Q2304.03 1517.6 2300.51 1517.6 Q2298.59 1517.6 2296.39 1518.01 Q2294.19 1518.43 2291.55 1519.31 L2291.55 1515.14 Q2294.21 1514.4 2296.53 1514.03 Q2298.87 1513.66 2300.93 1513.66 Q2306.25 1513.66 2309.35 1516.09 Q2312.46 1518.5 2312.46 1522.62 Q2312.46 1525.49 2310.81 1527.48 Q2309.17 1529.45 2306.14 1530.21 Z" fill="#000000" fill-rule="nonzero" fill-opacity="1" /><path clip-path="url(#clip410)" d="M2332.13 1517.37 Q2328.52 1517.37 2326.69 1520.93 Q2324.89 1524.47 2324.89 1531.6 Q2324.89 1538.71 2326.69 1542.27 Q2328.52 1545.82 2332.13 1545.82 Q2335.77 1545.82 2337.57 1542.27 Q2339.4 1538.71 2339.4 1531.6 Q2339.4 1524.47 2337.57 1520.93 Q2335.77 1517.37 2332.13 1517.37 M2332.13 1513.66 Q2337.94 1513.66 2341 1518.27 Q2344.08 1522.85 2344.08 1531.6 Q2344.08 1540.33 2341 1544.94 Q2337.94 1549.52 2332.13 1549.52 Q2326.32 1549.52 2323.24 1544.94 Q2320.19 1540.33 2320.19 1531.6 Q2320.19 1522.85 2323.24 1518.27 Q2326.32 1513.66 2332.13 1513.66 Z" fill="#000000" fill-rule="nonzero" fill-opacity="1" /><path clip-path="url(#clip410)" d="M2362.29 1517.37 Q2358.68 1517.37 2356.85 1520.93 Q2355.05 1524.47 2355.05 1531.6 Q2355.05 1538.71 2356.85 1542.27 Q2358.68 1545.82 2362.29 1545.82 Q2365.93 1545.82 2367.73 1542.27 Q2369.56 1538.71 2369.56 1531.6 Q2369.56 1524.47 2367.73 1520.93 Q2365.93 1517.37 2362.29 1517.37 M2362.29 1513.66 Q2368.1 1513.66 2371.16 1518.27 Q2374.24 1522.85 2374.24 1531.6 Q2374.24 1540.33 2371.16 1544.94 Q2368.1 1549.52 2362.29 1549.52 Q2356.48 1549.52 2353.4 1544.94 Q2350.35 1540.33 2350.35 1531.6 Q2350.35 1522.85 2353.4 1518.27 Q2356.48 1513.66 2362.29 1513.66 Z" fill="#000000" fill-rule="nonzero" fill-opacity="1" /><path clip-path="url(#clip410)" d="M2392.45 1517.37 Q2388.84 1517.37 2387.01 1520.93 Q2385.21 1524.47 2385.21 1531.6 Q2385.21 1538.71 2387.01 1542.27 Q2388.84 1545.82 2392.45 1545.82 Q2396.09 1545.82 2397.89 1542.27 Q2399.72 1538.71 2399.72 1531.6 Q2399.72 1524.47 2397.89 1520.93 Q2396.09 1517.37 2392.45 1517.37 M2392.45 1513.66 Q2398.26 1513.66 2401.32 1518.27 Q2404.4 1522.85 2404.4 1531.6 Q2404.4 1540.33 2401.32 1544.94 Q2398.26 1549.52 2392.45 1549.52 Q2386.64 1549.52 2383.57 1544.94 Q2380.51 1540.33 2380.51 1531.6 Q2380.51 1522.85 2383.57 1518.27 Q2386.64 1513.66 2392.45 1513.66 Z" fill="#000000" fill-rule="nonzero" fill-opacity="1" /><polyline clip-path="url(#clip412)" style="stroke:#000000; stroke-linecap:round; stroke-linejoin:round; stroke-width:2; stroke-opacity:0.1; fill:none" points="202.177,1445.46 2352.76,1445.46 "/>
<polyline clip-path="url(#clip412)" style="stroke:#000000; stroke-linecap:round; stroke-linejoin:round; stroke-width:2; stroke-opacity:0.1; fill:none" points="202.177,1189.91 2352.76,1189.91 "/>
<polyline clip-path="url(#clip412)" style="stroke:#000000; stroke-linecap:round; stroke-linejoin:round; stroke-width:2; stroke-opacity:0.1; fill:none" points="202.177,934.359 2352.76,934.359 "/>
<polyline clip-path="url(#clip412)" style="stroke:#000000; stroke-linecap:round; stroke-linejoin:round; stroke-width:2; stroke-opacity:0.1; fill:none" points="202.177,678.809 2352.76,678.809 "/>
<polyline clip-path="url(#clip412)" style="stroke:#000000; stroke-linecap:round; stroke-linejoin:round; stroke-width:2; stroke-opacity:0.1; fill:none" points="202.177,423.258 2352.76,423.258 "/>
<polyline clip-path="url(#clip412)" style="stroke:#000000; stroke-linecap:round; stroke-linejoin:round; stroke-width:2; stroke-opacity:0.1; fill:none" points="202.177,167.708 2352.76,167.708 "/>
<polyline clip-path="url(#clip410)" style="stroke:#000000; stroke-linecap:round; stroke-linejoin:round; stroke-width:4; stroke-opacity:1; fill:none" points="202.177,1486.45 202.177,47.2441 "/>
<polyline clip-path="url(#clip410)" style="stroke:#000000; stroke-linecap:round; stroke-linejoin:round; stroke-width:4; stroke-opacity:1; fill:none" points="202.177,1445.46 221.074,1445.46 "/>
<polyline clip-path="url(#clip410)" style="stroke:#000000; stroke-linecap:round; stroke-linejoin:round; stroke-width:4; stroke-opacity:1; fill:none" points="202.177,1189.91 221.074,1189.91 "/>
<polyline clip-path="url(#clip410)" style="stroke:#000000; stroke-linecap:round; stroke-linejoin:round; stroke-width:4; stroke-opacity:1; fill:none" points="202.177,934.359 221.074,934.359 "/>
<polyline clip-path="url(#clip410)" style="stroke:#000000; stroke-linecap:round; stroke-linejoin:round; stroke-width:4; stroke-opacity:1; fill:none" points="202.177,678.809 221.074,678.809 "/>
<polyline clip-path="url(#clip410)" style="stroke:#000000; stroke-linecap:round; stroke-linejoin:round; stroke-width:4; stroke-opacity:1; fill:none" points="202.177,423.258 221.074,423.258 "/>
<polyline clip-path="url(#clip410)" style="stroke:#000000; stroke-linecap:round; stroke-linejoin:round; stroke-width:4; stroke-opacity:1; fill:none" points="202.177,167.708 221.074,167.708 "/>
<path clip-path="url(#clip410)" d="M154.232 1431.26 Q150.621 1431.26 148.793 1434.82 Q146.987 1438.37 146.987 1445.49 Q146.987 1452.6 148.793 1456.17 Q150.621 1459.71 154.232 1459.71 Q157.867 1459.71 159.672 1456.17 Q161.501 1452.6 161.501 1445.49 Q161.501 1438.37 159.672 1434.82 Q157.867 1431.26 154.232 1431.26 M154.232 1427.56 Q160.042 1427.56 163.098 1432.16 Q166.177 1436.74 166.177 1445.49 Q166.177 1454.22 163.098 1458.83 Q160.042 1463.41 154.232 1463.41 Q148.422 1463.41 145.343 1458.83 Q142.288 1454.22 142.288 1445.49 Q142.288 1436.74 145.343 1432.16 Q148.422 1427.56 154.232 1427.56 Z" fill="#000000" fill-rule="nonzero" fill-opacity="1" /><path clip-path="url(#clip410)" d="M54.5569 1203.25 L62.1958 1203.25 L62.1958 1176.89 L53.8856 1178.56 L53.8856 1174.3 L62.1495 1172.63 L66.8254 1172.63 L66.8254 1203.25 L74.4642 1203.25 L74.4642 1207.19 L54.5569 1207.19 L54.5569 1203.25 Z" fill="#000000" fill-rule="nonzero" fill-opacity="1" /><path clip-path="url(#clip410)" d="M93.9086 1175.71 Q90.2975 1175.71 88.4688 1179.27 Q86.6632 1182.81 86.6632 1189.94 Q86.6632 1197.05 88.4688 1200.62 Q90.2975 1204.16 93.9086 1204.16 Q97.5428 1204.16 99.3483 1200.62 Q101.177 1197.05 101.177 1189.94 Q101.177 1182.81 99.3483 1179.27 Q97.5428 1175.71 93.9086 1175.71 M93.9086 1172 Q99.7187 1172 102.774 1176.61 Q105.853 1181.19 105.853 1189.94 Q105.853 1198.67 102.774 1203.28 Q99.7187 1207.86 93.9086 1207.86 Q88.0984 1207.86 85.0197 1203.28 Q81.9642 1198.67 81.9642 1189.94 Q81.9642 1181.19 85.0197 1176.61 Q88.0984 1172 93.9086 1172 Z" fill="#000000" fill-rule="nonzero" fill-opacity="1" /><path clip-path="url(#clip410)" d="M124.07 1175.71 Q120.459 1175.71 118.631 1179.27 Q116.825 1182.81 116.825 1189.94 Q116.825 1197.05 118.631 1200.62 Q120.459 1204.16 124.07 1204.16 Q127.705 1204.16 129.51 1200.62 Q131.339 1197.05 131.339 1189.94 Q131.339 1182.81 129.51 1179.27 Q127.705 1175.71 124.07 1175.71 M124.07 1172 Q129.881 1172 132.936 1176.61 Q136.015 1181.19 136.015 1189.94 Q136.015 1198.67 132.936 1203.28 Q129.881 1207.86 124.07 1207.86 Q118.26 1207.86 115.182 1203.28 Q112.126 1198.67 112.126 1189.94 Q112.126 1181.19 115.182 1176.61 Q118.26 1172 124.07 1172 Z" fill="#000000" fill-rule="nonzero" fill-opacity="1" /><path clip-path="url(#clip410)" d="M154.232 1175.71 Q150.621 1175.71 148.793 1179.27 Q146.987 1182.81 146.987 1189.94 Q146.987 1197.05 148.793 1200.62 Q150.621 1204.16 154.232 1204.16 Q157.867 1204.16 159.672 1200.62 Q161.501 1197.05 161.501 1189.94 Q161.501 1182.81 159.672 1179.27 Q157.867 1175.71 154.232 1175.71 M154.232 1172 Q160.042 1172 163.098 1176.61 Q166.177 1181.19 166.177 1189.94 Q166.177 1198.67 163.098 1203.28 Q160.042 1207.86 154.232 1207.86 Q148.422 1207.86 145.343 1203.28 Q142.288 1198.67 142.288 1189.94 Q142.288 1181.19 145.343 1176.61 Q148.422 1172 154.232 1172 Z" fill="#000000" fill-rule="nonzero" fill-opacity="1" /><path clip-path="url(#clip410)" d="M57.7745 947.704 L74.0939 947.704 L74.0939 951.639 L52.1495 951.639 L52.1495 947.704 Q54.8115 944.95 59.3949 940.32 Q64.0013 935.667 65.1819 934.325 Q67.4272 931.801 68.3068 930.065 Q69.2096 928.306 69.2096 926.616 Q69.2096 923.862 67.2652 922.126 Q65.3439 920.389 62.2421 920.389 Q60.043 920.389 57.5893 921.153 Q55.1588 921.917 52.381 923.468 L52.381 918.746 Q55.2051 917.612 57.6588 917.033 Q60.1124 916.454 62.1495 916.454 Q67.5198 916.454 70.7142 919.139 Q73.9087 921.825 73.9087 926.315 Q73.9087 928.445 73.0985 930.366 Q72.3115 932.264 70.205 934.857 Q69.6263 935.528 66.5245 938.746 Q63.4226 941.94 57.7745 947.704 Z" fill="#000000" fill-rule="nonzero" fill-opacity="1" /><path clip-path="url(#clip410)" d="M93.9086 920.158 Q90.2975 920.158 88.4688 923.723 Q86.6632 927.264 86.6632 934.394 Q86.6632 941.5 88.4688 945.065 Q90.2975 948.607 93.9086 948.607 Q97.5428 948.607 99.3483 945.065 Q101.177 941.5 101.177 934.394 Q101.177 927.264 99.3483 923.723 Q97.5428 920.158 93.9086 920.158 M93.9086 916.454 Q99.7187 916.454 102.774 921.061 Q105.853 925.644 105.853 934.394 Q105.853 943.121 102.774 947.727 Q99.7187 952.311 93.9086 952.311 Q88.0984 952.311 85.0197 947.727 Q81.9642 943.121 81.9642 934.394 Q81.9642 925.644 85.0197 921.061 Q88.0984 916.454 93.9086 916.454 Z" fill="#000000" fill-rule="nonzero" fill-opacity="1" /><path clip-path="url(#clip410)" d="M124.07 920.158 Q120.459 920.158 118.631 923.723 Q116.825 927.264 116.825 934.394 Q116.825 941.5 118.631 945.065 Q120.459 948.607 124.07 948.607 Q127.705 948.607 129.51 945.065 Q131.339 941.5 131.339 934.394 Q131.339 927.264 129.51 923.723 Q127.705 920.158 124.07 920.158 M124.07 916.454 Q129.881 916.454 132.936 921.061 Q136.015 925.644 136.015 934.394 Q136.015 943.121 132.936 947.727 Q129.881 952.311 124.07 952.311 Q118.26 952.311 115.182 947.727 Q112.126 943.121 112.126 934.394 Q112.126 925.644 115.182 921.061 Q118.26 916.454 124.07 916.454 Z" fill="#000000" fill-rule="nonzero" fill-opacity="1" /><path clip-path="url(#clip410)" d="M154.232 920.158 Q150.621 920.158 148.793 923.723 Q146.987 927.264 146.987 934.394 Q146.987 941.5 148.793 945.065 Q150.621 948.607 154.232 948.607 Q157.867 948.607 159.672 945.065 Q161.501 941.5 161.501 934.394 Q161.501 927.264 159.672 923.723 Q157.867 920.158 154.232 920.158 M154.232 916.454 Q160.042 916.454 163.098 921.061 Q166.177 925.644 166.177 934.394 Q166.177 943.121 163.098 947.727 Q160.042 952.311 154.232 952.311 Q148.422 952.311 145.343 947.727 Q142.288 943.121 142.288 934.394 Q142.288 925.644 145.343 921.061 Q148.422 916.454 154.232 916.454 Z" fill="#000000" fill-rule="nonzero" fill-opacity="1" /><path clip-path="url(#clip410)" d="M67.9133 677.455 Q71.2698 678.172 73.1448 680.441 Q75.0429 682.709 75.0429 686.043 Q75.0429 691.158 71.5244 693.959 Q68.0059 696.76 61.5245 696.76 Q59.3486 696.76 57.0338 696.32 Q54.7421 695.904 52.2884 695.047 L52.2884 690.533 Q54.2328 691.668 56.5477 692.246 Q58.8625 692.825 61.3856 692.825 Q65.7837 692.825 68.0754 691.089 Q70.3902 689.353 70.3902 686.043 Q70.3902 682.987 68.2374 681.274 Q66.1078 679.538 62.2884 679.538 L58.2606 679.538 L58.2606 675.695 L62.4735 675.695 Q65.9226 675.695 67.7513 674.33 Q69.58 672.941 69.58 670.348 Q69.58 667.686 67.6819 666.274 Q65.8069 664.839 62.2884 664.839 Q60.3671 664.839 58.168 665.256 Q55.969 665.672 53.3301 666.552 L53.3301 662.385 Q55.9921 661.645 58.3069 661.274 Q60.6449 660.904 62.705 660.904 Q68.0291 660.904 71.1309 663.334 Q74.2327 665.742 74.2327 669.862 Q74.2327 672.733 72.5892 674.723 Q70.9457 676.691 67.9133 677.455 Z" fill="#000000" fill-rule="nonzero" fill-opacity="1" /><path clip-path="url(#clip410)" d="M93.9086 664.608 Q90.2975 664.608 88.4688 668.172 Q86.6632 671.714 86.6632 678.844 Q86.6632 685.95 88.4688 689.515 Q90.2975 693.056 93.9086 693.056 Q97.5428 693.056 99.3483 689.515 Q101.177 685.95 101.177 678.844 Q101.177 671.714 99.3483 668.172 Q97.5428 664.608 93.9086 664.608 M93.9086 660.904 Q99.7187 660.904 102.774 665.51 Q105.853 670.094 105.853 678.844 Q105.853 687.57 102.774 692.177 Q99.7187 696.76 93.9086 696.76 Q88.0984 696.76 85.0197 692.177 Q81.9642 687.57 81.9642 678.844 Q81.9642 670.094 85.0197 665.51 Q88.0984 660.904 93.9086 660.904 Z" fill="#000000" fill-rule="nonzero" fill-opacity="1" /><path clip-path="url(#clip410)" d="M124.07 664.608 Q120.459 664.608 118.631 668.172 Q116.825 671.714 116.825 678.844 Q116.825 685.95 118.631 689.515 Q120.459 693.056 124.07 693.056 Q127.705 693.056 129.51 689.515 Q131.339 685.95 131.339 678.844 Q131.339 671.714 129.51 668.172 Q127.705 664.608 124.07 664.608 M124.07 660.904 Q129.881 660.904 132.936 665.51 Q136.015 670.094 136.015 678.844 Q136.015 687.57 132.936 692.177 Q129.881 696.76 124.07 696.76 Q118.26 696.76 115.182 692.177 Q112.126 687.57 112.126 678.844 Q112.126 670.094 115.182 665.51 Q118.26 660.904 124.07 660.904 Z" fill="#000000" fill-rule="nonzero" fill-opacity="1" /><path clip-path="url(#clip410)" d="M154.232 664.608 Q150.621 664.608 148.793 668.172 Q146.987 671.714 146.987 678.844 Q146.987 685.95 148.793 689.515 Q150.621 693.056 154.232 693.056 Q157.867 693.056 159.672 689.515 Q161.501 685.95 161.501 678.844 Q161.501 671.714 159.672 668.172 Q157.867 664.608 154.232 664.608 M154.232 660.904 Q160.042 660.904 163.098 665.51 Q166.177 670.094 166.177 678.844 Q166.177 687.57 163.098 692.177 Q160.042 696.76 154.232 696.76 Q148.422 696.76 145.343 692.177 Q142.288 687.57 142.288 678.844 Q142.288 670.094 145.343 665.51 Q148.422 660.904 154.232 660.904 Z" fill="#000000" fill-rule="nonzero" fill-opacity="1" /><path clip-path="url(#clip410)" d="M66.5939 410.052 L54.7884 428.501 L66.5939 428.501 L66.5939 410.052 M65.367 405.978 L71.2466 405.978 L71.2466 428.501 L76.1772 428.501 L76.1772 432.39 L71.2466 432.39 L71.2466 440.538 L66.5939 440.538 L66.5939 432.39 L50.9921 432.39 L50.9921 427.876 L65.367 405.978 Z" fill="#000000" fill-rule="nonzero" fill-opacity="1" /><path clip-path="url(#clip410)" d="M93.9086 409.057 Q90.2975 409.057 88.4688 412.622 Q86.6632 416.164 86.6632 423.293 Q86.6632 430.4 88.4688 433.964 Q90.2975 437.506 93.9086 437.506 Q97.5428 437.506 99.3483 433.964 Q101.177 430.4 101.177 423.293 Q101.177 416.164 99.3483 412.622 Q97.5428 409.057 93.9086 409.057 M93.9086 405.353 Q99.7187 405.353 102.774 409.96 Q105.853 414.543 105.853 423.293 Q105.853 432.02 102.774 436.626 Q99.7187 441.21 93.9086 441.21 Q88.0984 441.21 85.0197 436.626 Q81.9642 432.02 81.9642 423.293 Q81.9642 414.543 85.0197 409.96 Q88.0984 405.353 93.9086 405.353 Z" fill="#000000" fill-rule="nonzero" fill-opacity="1" /><path clip-path="url(#clip410)" d="M124.07 409.057 Q120.459 409.057 118.631 412.622 Q116.825 416.164 116.825 423.293 Q116.825 430.4 118.631 433.964 Q120.459 437.506 124.07 437.506 Q127.705 437.506 129.51 433.964 Q131.339 430.4 131.339 423.293 Q131.339 416.164 129.51 412.622 Q127.705 409.057 124.07 409.057 M124.07 405.353 Q129.881 405.353 132.936 409.96 Q136.015 414.543 136.015 423.293 Q136.015 432.02 132.936 436.626 Q129.881 441.21 124.07 441.21 Q118.26 441.21 115.182 436.626 Q112.126 432.02 112.126 423.293 Q112.126 414.543 115.182 409.96 Q118.26 405.353 124.07 405.353 Z" fill="#000000" fill-rule="nonzero" fill-opacity="1" /><path clip-path="url(#clip410)" d="M154.232 409.057 Q150.621 409.057 148.793 412.622 Q146.987 416.164 146.987 423.293 Q146.987 430.4 148.793 433.964 Q150.621 437.506 154.232 437.506 Q157.867 437.506 159.672 433.964 Q161.501 430.4 161.501 423.293 Q161.501 416.164 159.672 412.622 Q157.867 409.057 154.232 409.057 M154.232 405.353 Q160.042 405.353 163.098 409.96 Q166.177 414.543 166.177 423.293 Q166.177 432.02 163.098 436.626 Q160.042 441.21 154.232 441.21 Q148.422 441.21 145.343 436.626 Q142.288 432.02 142.288 423.293 Q142.288 414.543 145.343 409.96 Q148.422 405.353 154.232 405.353 Z" fill="#000000" fill-rule="nonzero" fill-opacity="1" /><path clip-path="url(#clip410)" d="M53.793 150.428 L72.1494 150.428 L72.1494 154.363 L58.0754 154.363 L58.0754 162.835 Q59.0939 162.488 60.1124 162.326 Q61.131 162.141 62.1495 162.141 Q67.9365 162.141 71.3161 165.312 Q74.6957 168.483 74.6957 173.9 Q74.6957 179.479 71.2235 182.581 Q67.7513 185.659 61.4319 185.659 Q59.256 185.659 56.9875 185.289 Q54.7421 184.919 52.3347 184.178 L52.3347 179.479 Q54.418 180.613 56.6402 181.169 Q58.8625 181.724 61.3393 181.724 Q65.3439 181.724 67.6819 179.618 Q70.0198 177.511 70.0198 173.9 Q70.0198 170.289 67.6819 168.183 Q65.3439 166.076 61.3393 166.076 Q59.4643 166.076 57.5893 166.493 Q55.7375 166.909 53.793 167.789 L53.793 150.428 Z" fill="#000000" fill-rule="nonzero" fill-opacity="1" /><path clip-path="url(#clip410)" d="M93.9086 153.507 Q90.2975 153.507 88.4688 157.071 Q86.6632 160.613 86.6632 167.743 Q86.6632 174.849 88.4688 178.414 Q90.2975 181.956 93.9086 181.956 Q97.5428 181.956 99.3483 178.414 Q101.177 174.849 101.177 167.743 Q101.177 160.613 99.3483 157.071 Q97.5428 153.507 93.9086 153.507 M93.9086 149.803 Q99.7187 149.803 102.774 154.409 Q105.853 158.993 105.853 167.743 Q105.853 176.47 102.774 181.076 Q99.7187 185.659 93.9086 185.659 Q88.0984 185.659 85.0197 181.076 Q81.9642 176.47 81.9642 167.743 Q81.9642 158.993 85.0197 154.409 Q88.0984 149.803 93.9086 149.803 Z" fill="#000000" fill-rule="nonzero" fill-opacity="1" /><path clip-path="url(#clip410)" d="M124.07 153.507 Q120.459 153.507 118.631 157.071 Q116.825 160.613 116.825 167.743 Q116.825 174.849 118.631 178.414 Q120.459 181.956 124.07 181.956 Q127.705 181.956 129.51 178.414 Q131.339 174.849 131.339 167.743 Q131.339 160.613 129.51 157.071 Q127.705 153.507 124.07 153.507 M124.07 149.803 Q129.881 149.803 132.936 154.409 Q136.015 158.993 136.015 167.743 Q136.015 176.47 132.936 181.076 Q129.881 185.659 124.07 185.659 Q118.26 185.659 115.182 181.076 Q112.126 176.47 112.126 167.743 Q112.126 158.993 115.182 154.409 Q118.26 149.803 124.07 149.803 Z" fill="#000000" fill-rule="nonzero" fill-opacity="1" /><path clip-path="url(#clip410)" d="M154.232 153.507 Q150.621 153.507 148.793 157.071 Q146.987 160.613 146.987 167.743 Q146.987 174.849 148.793 178.414 Q150.621 181.956 154.232 181.956 Q157.867 181.956 159.672 178.414 Q161.501 174.849 161.501 167.743 Q161.501 160.613 159.672 157.071 Q157.867 153.507 154.232 153.507 M154.232 149.803 Q160.042 149.803 163.098 154.409 Q166.177 158.993 166.177 167.743 Q166.177 176.47 163.098 181.076 Q160.042 185.659 154.232 185.659 Q148.422 185.659 145.343 181.076 Q142.288 176.47 142.288 167.743 Q142.288 158.993 145.343 154.409 Q148.422 149.803 154.232 149.803 Z" fill="#000000" fill-rule="nonzero" fill-opacity="1" /><polyline clip-path="url(#clip412)" style="stroke:#009af9; stroke-linecap:round; stroke-linejoin:round; stroke-width:4; stroke-opacity:1; fill:none" points="263.789,1445.2 263.858,1445.21 263.927,1445.21 263.994,1445.22 264.059,1445.22 264.122,1445.24 264.181,1445.25 264.237,1445.26 264.288,1445.28 264.335,1445.3 264.377,1445.31 264.414,1445.33 264.446,1445.35 264.472,1445.38 264.492,1445.4 264.506,1445.42 264.514,1445.44 264.516,1445.46 264.513,1445.49 264.502,1445.51 264.487,1445.53 264.465,1445.55 264.438,1445.57 264.405,1445.59 264.367,1445.61 264.323,1445.63 264.275,1445.65 264.222,1445.66 264.166,1445.68 264.106,1445.69 264.042,1445.7 263.976,1445.71 263.909,1445.71 263.84,1445.72 263.77,1445.72 263.701,1445.71 263.633,1445.71 263.566,1445.7 263.502,1445.69 263.44,1445.68 263.381,1445.67 263.327,1445.65 263.276,1445.64 263.231,1445.62 263.19,1445.6 263.155,1445.58 263.125,1445.56 263.1,1445.54 263.082,1445.52 263.069,1445.5 263.062,1445.47 263.062,1445.45 263.067,1445.43 263.079,1445.41 263.096,1445.39 263.119,1445.36 263.148,1445.34 263.183,1445.32 263.222,1445.3 263.267,1445.29 263.316,1445.27 263.37,1445.25 263.428,1445.24 263.489,1445.23 263.553,1445.22 263.619,1445.21 263.687,1445.21 263.757,1445.2 263.826,1445.2 263.895,1445.21 263.963,1445.21 264.029,1445.22 264.093,1445.23 264.154,1445.24 264.211,1445.26 264.265,1445.27 264.314,1445.29 264.358,1445.31 264.398,1445.33 264.432,1445.35 264.46,1445.37 264.483,1445.39 264.5,1445.41 264.511,1445.43 264.516,1445.45 264.515,1445.47 264.508,1445.5 264.495,1445.52 264.476,1445.54 264.451,1445.56 264.421,1445.58 264.385,1445.6 264.344,1445.62 264.298,1445.64 264.247,1445.65 264.193,1445.67 264.134,1445.68 264.072,1445.69 264.007,1445.7 263.94,1445.71 263.872,1445.71 263.803,1445.72 263.734,1445.71 263.665,1445.71 263.597,1445.71 263.532,1445.7 263.468,1445.69 263.408,1445.68 263.352,1445.66 263.3,1445.65 263.251,1445.63 263.208,1445.61 263.171,1445.59 263.138,1445.57 263.111,1445.55 263.09,1445.53 263.075,1445.51 263.065,1445.48 263.062,1445.46 263.065,1445.44 263.073,1445.42 263.088,1445.4 263.108,1445.37 263.134,1445.35 263.166,1445.33 263.203,1445.31 263.245,1445.29 263.293,1445.28 263.344,1445.26 263.4,1445.25 263.46,1445.23 263.523,1445.22 263.588,1445.22 263.656,1445.21 263.724,1445.21 263.793,1445.2 263.863,1445.21 263.931,1445.21 263.998,1445.22 264.063,1445.23 264.126,1445.24 264.185,1445.25 264.24,1445.26 264.292,1445.28 264.338,1445.3 264.38,1445.32 264.417,1445.34 264.448,1445.36 264.473,1445.38 264.493,1445.4 264.507,1445.42 264.514,1445.44 264.516,1445.46 264.512,1445.49 264.502,1445.51 264.486,1445.53 264.463,1445.55 264.436,1445.57 264.403,1445.59 264.364,1445.61 264.32,1445.63 264.272,1445.65 264.219,1445.66 264.162,1445.68 264.101,1445.69 264.038,1445.7 263.972,1445.71 263.904,1445.71 263.835,1445.72 263.766,1445.72 263.697,1445.71 263.629,1445.71 263.562,1445.7 263.497,1445.69 263.436,1445.68 263.378,1445.67 263.323,1445.65 263.273,1445.64 263.228,1445.62 263.188,1445.6 263.152,1445.58 263.123,1445.56 263.099,1445.54 263.081,1445.52 263.069,1445.49 263.062,1445.47 263.062,1445.45 263.068,1445.43 263.08,1445.41 263.097,1445.38 263.121,1445.36 263.15,1445.34 263.185,1445.32 263.225,1445.3 263.27,1445.29 263.32,1445.27 263.374,1445.25 263.432,1445.24 263.493,1445.23 263.557,1445.22 "/>
<polyline clip-path="url(#clip412)" style="stroke:#e26f46; stroke-linecap:round; stroke-linejoin:round; stroke-width:4; stroke-opacity:1; fill:none" points="263.789,1445.2 263.826,1445.19 263.881,1445.17 263.921,1445.15 263.994,1445.12 263.995,1445.1 264.02,1445.08 264.06,1445.06 264.096,1445.03 264.117,1445.01 264.174,1444.98 264.201,1444.95 264.136,1444.93 264.131,1444.91 264.174,1444.87 264.28,1444.82 264.37,1444.78 264.421,1444.73 264.581,1444.67 264.616,1444.63 264.668,1444.58 264.945,1444.49 264.923,1444.45 264.994,1444.38 265.265,1444.29 265.357,1444.22 265.449,1444.14 265.726,1444.04 265.802,1443.95 265.873,1443.87 265.927,1443.78 266.133,1443.66 266.415,1443.53 266.632,1443.4 266.719,1443.28 266.936,1443.14 267.24,1442.98 267.403,1442.82 267.739,1442.64 268.206,1442.43 268.401,1442.25 269.117,1441.99 269.324,1441.79 269.91,1441.52 270.257,1441.28 270.669,1441 270.583,1440.78 271.038,1440.48 271.082,1440.21 270.995,1439.93 271.603,1439.55 272.232,1439.15 272.927,1438.72 273.339,1438.3 273.817,1437.86 274.815,1437.31 275.075,1436.84 275.9,1436.26 276.725,1435.65 277.767,1434.98 280.068,1434.12 279.981,1433.51 281.891,1432.62 284.061,1431.66 286.796,1430.57 287.751,1429.68 290.877,1428.47 295.044,1427.06 298.864,1425.65 304.247,1423.99 308.675,1422.4 313.45,1420.67 315.273,1419.27 318.572,1417.61 321.697,1415.88 325.604,1413.96 330.119,1411.86 333.939,1409.75 337.065,1407.64 341.058,1405.34 346.094,1402.78 352.345,1399.97 353.213,1397.67 357.901,1394.73 362.242,1391.67 367.278,1388.34 374.05,1384.64 380.474,1380.81 390.198,1376.33 402.353,1371.35 412.424,1366.5 417.98,1361.9 429.788,1356.27 439.164,1350.65 448.541,1344.77 463.474,1337.87 475.281,1330.97 483.268,1324.33 510.356,1314.87 515.913,1307.72 531.887,1298.77 554.808,1288.55 582.59,1277.31 598.565,1267.09 622.874,1255.33 637.46,1244.09 652.045,1232.33 665.242,1220.06 679.828,1206.78 691.635,1192.98 738.865,1174.07 790.262,1154.13 829.157,1134.71 824.99,1119.38 847.215,1099.96 915.282,1073.38 941.675,1050.89 984.737,1025.34 1048.64,995.691 1069.47,970.136 1147.26,936.404 1175.05,906.76 1225.05,873.027 1250.06,840.317 1386.19,791.251 1458.42,748.319 1527.88,703.342 1616.78,654.276 1652.9,609.299 1652.9,566.367 1705.69,513.212 1864.04,443.702 1869.6,390.548 1902.94,329.216 2002.96,255.617 2175.21,169.752 2291.89,87.9763 "/>
<polyline clip-path="url(#clip412)" style="stroke:#3da44d; stroke-linecap:round; stroke-linejoin:round; stroke-width:4; stroke-opacity:1; fill:none" points="263.789,1445.2 263.857,1445.21 263.925,1445.21 263.992,1445.21 264.057,1445.22 264.12,1445.23 264.181,1445.24 264.238,1445.26 264.292,1445.27 264.341,1445.29 264.386,1445.31 264.425,1445.33 264.46,1445.35 264.488,1445.37 264.51,1445.39 264.526,1445.42 264.534,1445.44 264.536,1445.46 264.532,1445.49 264.521,1445.51 264.503,1445.53 264.479,1445.56 264.449,1445.58 264.413,1445.6 264.371,1445.62 264.325,1445.64 264.274,1445.65 264.22,1445.67 264.162,1445.68 264.1,1445.69 264.037,1445.7 263.972,1445.71 263.905,1445.71 263.837,1445.71 263.769,1445.71 263.701,1445.71 263.634,1445.71 263.568,1445.7 263.503,1445.69 263.441,1445.68 263.382,1445.67 263.326,1445.66 263.273,1445.64 263.225,1445.63 263.182,1445.61 263.144,1445.59 263.111,1445.57 263.084,1445.54 263.064,1445.52 263.05,1445.5 263.043,1445.47 263.042,1445.45 263.048,1445.43 263.061,1445.4 263.08,1445.38 263.106,1445.36 263.137,1445.34 263.175,1445.32 263.217,1445.3 263.265,1445.28 263.317,1445.26 263.372,1445.25 263.431,1445.24 263.493,1445.23 263.558,1445.22 263.624,1445.21 263.691,1445.21 263.759,1445.21 263.827,1445.21 263.895,1445.21 263.963,1445.21 264.028,1445.22 264.092,1445.23 264.154,1445.24 264.213,1445.25 264.268,1445.27 264.319,1445.28 264.366,1445.3 264.408,1445.32 264.445,1445.34 264.476,1445.36 264.5,1445.38 264.519,1445.41 264.531,1445.43 264.536,1445.45 264.535,1445.48 264.527,1445.5 264.512,1445.52 264.49,1445.55 264.462,1445.57 264.429,1445.59 264.391,1445.61 264.346,1445.63 264.298,1445.64 264.245,1445.66 264.189,1445.67 264.13,1445.69 264.067,1445.7 264.003,1445.7 263.937,1445.71 263.869,1445.71 263.802,1445.71 263.734,1445.71 263.666,1445.71 263.599,1445.71 263.534,1445.7 263.471,1445.69 263.41,1445.68 263.352,1445.66 263.298,1445.65 263.248,1445.63 263.203,1445.62 263.162,1445.6 263.126,1445.58 263.097,1445.55 263.073,1445.53 263.056,1445.51 263.046,1445.48 263.043,1445.46 263.046,1445.44 263.055,1445.41 263.071,1445.39 263.094,1445.37 263.123,1445.35 263.157,1445.33 263.197,1445.31 263.243,1445.29 263.292,1445.27 263.346,1445.26 263.403,1445.24 263.463,1445.23 263.526,1445.22 263.592,1445.21 263.658,1445.21 263.726,1445.21 263.794,1445.21 263.863,1445.21 263.93,1445.21 263.997,1445.22 264.062,1445.22 264.125,1445.23 264.185,1445.25 264.242,1445.26 264.295,1445.27 264.344,1445.29 264.389,1445.31 264.428,1445.33 264.462,1445.35 264.49,1445.37 264.511,1445.4 264.526,1445.42 264.535,1445.44 264.537,1445.47 264.532,1445.49 264.52,1445.51 264.502,1445.54 264.477,1445.56 264.446,1445.58 264.41,1445.6 264.368,1445.62 264.322,1445.64 264.271,1445.65 264.216,1445.67 264.158,1445.68 264.097,1445.69 264.033,1445.7 263.967,1445.71 263.901,1445.71 263.833,1445.71 263.765,1445.71 263.697,1445.71 263.63,1445.71 263.564,1445.7 263.5,1445.69 263.438,1445.68 263.379,1445.67 263.323,1445.66 263.27,1445.64 263.223,1445.62 263.179,1445.6 263.142,1445.58 263.11,1445.56 263.084,1445.54 263.064,1445.52 263.05,1445.5 263.043,1445.47 263.043,1445.45 263.05,1445.42 263.063,1445.4 263.084,1445.38 263.11,1445.36 263.142,1445.34 263.18,1445.32 263.223,1445.3 263.271,1445.28 263.323,1445.26 263.379,1445.25 263.438,1445.24 263.499,1445.23 263.564,1445.22 "/>
<path clip-path="url(#clip410)" d="M273.863 302.578 L788.85 302.578 L788.85 95.2176 L273.863 95.2176  Z" fill="#ffffff" fill-rule="evenodd" fill-opacity="1"/>
<polyline clip-path="url(#clip410)" style="stroke:#000000; stroke-linecap:round; stroke-linejoin:round; stroke-width:4; stroke-opacity:1; fill:none" points="273.863,302.578 788.85,302.578 788.85,95.2176 273.863,95.2176 273.863,302.578 "/>
<polyline clip-path="url(#clip410)" style="stroke:#009af9; stroke-linecap:round; stroke-linejoin:round; stroke-width:4; stroke-opacity:1; fill:none" points="297.758,147.058 441.13,147.058 "/>
<path clip-path="url(#clip410)" d="M472.433 131.051 L472.433 138.412 L481.206 138.412 L481.206 141.722 L472.433 141.722 L472.433 155.796 Q472.433 158.967 473.289 159.87 Q474.169 160.773 476.831 160.773 L481.206 160.773 L481.206 164.338 L476.831 164.338 Q471.9 164.338 470.025 162.509 Q468.15 160.657 468.15 155.796 L468.15 141.722 L465.025 141.722 L465.025 138.412 L468.15 138.412 L468.15 131.051 L472.433 131.051 Z" fill="#000000" fill-rule="nonzero" fill-opacity="1" /><path clip-path="url(#clip410)" d="M501.831 142.393 Q501.113 141.977 500.257 141.791 Q499.423 141.583 498.405 141.583 Q494.794 141.583 492.849 143.944 Q490.928 146.282 490.928 150.68 L490.928 164.338 L486.646 164.338 L486.646 138.412 L490.928 138.412 L490.928 142.44 Q492.27 140.078 494.423 138.944 Q496.576 137.787 499.655 137.787 Q500.095 137.787 500.627 137.856 Q501.159 137.903 501.807 138.018 L501.831 142.393 Z" fill="#000000" fill-rule="nonzero" fill-opacity="1" /><path clip-path="url(#clip410)" d="M518.081 151.305 Q512.919 151.305 510.928 152.486 Q508.937 153.666 508.937 156.514 Q508.937 158.782 510.419 160.125 Q511.923 161.444 514.493 161.444 Q518.034 161.444 520.164 158.944 Q522.317 156.421 522.317 152.254 L522.317 151.305 L518.081 151.305 M526.576 149.546 L526.576 164.338 L522.317 164.338 L522.317 160.402 Q520.858 162.763 518.682 163.898 Q516.506 165.009 513.358 165.009 Q509.377 165.009 507.016 162.787 Q504.678 160.541 504.678 156.791 Q504.678 152.416 507.594 150.194 Q510.534 147.972 516.344 147.972 L522.317 147.972 L522.317 147.555 Q522.317 144.615 520.372 143.018 Q518.451 141.398 514.956 141.398 Q512.733 141.398 510.627 141.93 Q508.52 142.463 506.576 143.527 L506.576 139.592 Q508.914 138.69 511.113 138.25 Q513.312 137.787 515.395 137.787 Q521.02 137.787 523.798 140.703 Q526.576 143.62 526.576 149.546 Z" fill="#000000" fill-rule="nonzero" fill-opacity="1" /><path clip-path="url(#clip410)" d="M535.349 138.412 L539.608 138.412 L539.608 164.338 L535.349 164.338 L535.349 138.412 M535.349 128.319 L539.608 128.319 L539.608 133.713 L535.349 133.713 L535.349 128.319 Z" fill="#000000" fill-rule="nonzero" fill-opacity="1" /><path clip-path="url(#clip410)" d="M570.071 148.689 L570.071 164.338 L565.812 164.338 L565.812 148.828 Q565.812 145.148 564.377 143.319 Q562.941 141.49 560.071 141.49 Q556.622 141.49 554.631 143.69 Q552.641 145.889 552.641 149.685 L552.641 164.338 L548.358 164.338 L548.358 138.412 L552.641 138.412 L552.641 142.44 Q554.168 140.102 556.228 138.944 Q558.312 137.787 561.02 137.787 Q565.488 137.787 567.779 140.565 Q570.071 143.319 570.071 148.689 Z" fill="#000000" fill-rule="nonzero" fill-opacity="1" /><path clip-path="url(#clip410)" d="M578.566 138.412 L582.826 138.412 L582.826 164.338 L578.566 164.338 L578.566 138.412 M578.566 128.319 L582.826 128.319 L582.826 133.713 L578.566 133.713 L578.566 128.319 Z" fill="#000000" fill-rule="nonzero" fill-opacity="1" /><path clip-path="url(#clip410)" d="M613.288 148.689 L613.288 164.338 L609.029 164.338 L609.029 148.828 Q609.029 145.148 607.594 143.319 Q606.159 141.49 603.288 141.49 Q599.839 141.49 597.849 143.69 Q595.858 145.889 595.858 149.685 L595.858 164.338 L591.576 164.338 L591.576 138.412 L595.858 138.412 L595.858 142.44 Q597.386 140.102 599.446 138.944 Q601.529 137.787 604.237 137.787 Q608.705 137.787 610.997 140.565 Q613.288 143.319 613.288 148.689 Z" fill="#000000" fill-rule="nonzero" fill-opacity="1" /><path clip-path="url(#clip410)" d="M638.844 151.074 Q638.844 146.444 636.922 143.898 Q635.024 141.352 631.575 141.352 Q628.149 141.352 626.228 143.898 Q624.33 146.444 624.33 151.074 Q624.33 155.68 626.228 158.226 Q628.149 160.773 631.575 160.773 Q635.024 160.773 636.922 158.226 Q638.844 155.68 638.844 151.074 M643.103 161.12 Q643.103 167.74 640.163 170.958 Q637.223 174.199 631.159 174.199 Q628.913 174.199 626.923 173.851 Q624.932 173.527 623.057 172.833 L623.057 168.689 Q624.932 169.708 626.761 170.194 Q628.589 170.68 630.487 170.68 Q634.677 170.68 636.76 168.481 Q638.844 166.305 638.844 161.884 L638.844 159.777 Q637.524 162.069 635.464 163.203 Q633.404 164.338 630.534 164.338 Q625.765 164.338 622.848 160.703 Q619.932 157.069 619.932 151.074 Q619.932 145.055 622.848 141.421 Q625.765 137.787 630.534 137.787 Q633.404 137.787 635.464 138.921 Q637.524 140.055 638.844 142.347 L638.844 138.412 L643.103 138.412 L643.103 161.12 Z" fill="#000000" fill-rule="nonzero" fill-opacity="1" /><path clip-path="url(#clip410)" d="M684.006 142.347 L684.006 128.319 L688.265 128.319 L688.265 164.338 L684.006 164.338 L684.006 160.449 Q682.663 162.763 680.603 163.898 Q678.566 165.009 675.695 165.009 Q670.996 165.009 668.033 161.259 Q665.094 157.509 665.094 151.398 Q665.094 145.287 668.033 141.537 Q670.996 137.787 675.695 137.787 Q678.566 137.787 680.603 138.921 Q682.663 140.032 684.006 142.347 M669.492 151.398 Q669.492 156.097 671.413 158.782 Q673.357 161.444 676.737 161.444 Q680.117 161.444 682.061 158.782 Q684.006 156.097 684.006 151.398 Q684.006 146.699 682.061 144.037 Q680.117 141.352 676.737 141.352 Q673.357 141.352 671.413 144.037 Q669.492 146.699 669.492 151.398 Z" fill="#000000" fill-rule="nonzero" fill-opacity="1" /><path clip-path="url(#clip410)" d="M708.82 151.305 Q703.658 151.305 701.668 152.486 Q699.677 153.666 699.677 156.514 Q699.677 158.782 701.158 160.125 Q702.663 161.444 705.232 161.444 Q708.774 161.444 710.904 158.944 Q713.056 156.421 713.056 152.254 L713.056 151.305 L708.82 151.305 M717.316 149.546 L717.316 164.338 L713.056 164.338 L713.056 160.402 Q711.598 162.763 709.422 163.898 Q707.246 165.009 704.098 165.009 Q700.117 165.009 697.755 162.787 Q695.418 160.541 695.418 156.791 Q695.418 152.416 698.334 150.194 Q701.274 147.972 707.084 147.972 L713.056 147.972 L713.056 147.555 Q713.056 144.615 711.112 143.018 Q709.191 141.398 705.695 141.398 Q703.473 141.398 701.367 141.93 Q699.26 142.463 697.316 143.527 L697.316 139.592 Q699.654 138.69 701.853 138.25 Q704.052 137.787 706.135 137.787 Q711.76 137.787 714.538 140.703 Q717.316 143.62 717.316 149.546 Z" fill="#000000" fill-rule="nonzero" fill-opacity="1" /><path clip-path="url(#clip410)" d="M730.302 131.051 L730.302 138.412 L739.075 138.412 L739.075 141.722 L730.302 141.722 L730.302 155.796 Q730.302 158.967 731.158 159.87 Q732.038 160.773 734.7 160.773 L739.075 160.773 L739.075 164.338 L734.7 164.338 Q729.769 164.338 727.894 162.509 Q726.019 160.657 726.019 155.796 L726.019 141.722 L722.894 141.722 L722.894 138.412 L726.019 138.412 L726.019 131.051 L730.302 131.051 Z" fill="#000000" fill-rule="nonzero" fill-opacity="1" /><path clip-path="url(#clip410)" d="M756.459 151.305 Q751.297 151.305 749.306 152.486 Q747.315 153.666 747.315 156.514 Q747.315 158.782 748.797 160.125 Q750.302 161.444 752.871 161.444 Q756.413 161.444 758.542 158.944 Q760.695 156.421 760.695 152.254 L760.695 151.305 L756.459 151.305 M764.954 149.546 L764.954 164.338 L760.695 164.338 L760.695 160.402 Q759.237 162.763 757.061 163.898 Q754.885 165.009 751.737 165.009 Q747.755 165.009 745.394 162.787 Q743.056 160.541 743.056 156.791 Q743.056 152.416 745.973 150.194 Q748.913 147.972 754.723 147.972 L760.695 147.972 L760.695 147.555 Q760.695 144.615 758.751 143.018 Q756.829 141.398 753.334 141.398 Q751.112 141.398 749.005 141.93 Q746.899 142.463 744.954 143.527 L744.954 139.592 Q747.292 138.69 749.491 138.25 Q751.69 137.787 753.774 137.787 Q759.399 137.787 762.176 140.703 Q764.954 143.62 764.954 149.546 Z" fill="#000000" fill-rule="nonzero" fill-opacity="1" /><polyline clip-path="url(#clip410)" style="stroke:#e26f46; stroke-linecap:round; stroke-linejoin:round; stroke-width:4; stroke-opacity:1; fill:none" points="297.758,198.898 441.13,198.898 "/>
<path clip-path="url(#clip410)" d="M465.025 181.618 L469.701 181.618 L469.701 212.242 L486.53 212.242 L486.53 216.178 L465.025 216.178 L465.025 181.618 Z" fill="#000000" fill-rule="nonzero" fill-opacity="1" /><path clip-path="url(#clip410)" d="M504.076 186.224 L497.733 203.423 L510.442 203.423 L504.076 186.224 M501.437 181.618 L506.738 181.618 L519.909 216.178 L515.048 216.178 L511.9 207.312 L496.321 207.312 L493.173 216.178 L488.243 216.178 L501.437 181.618 Z" fill="#000000" fill-rule="nonzero" fill-opacity="1" /><path clip-path="url(#clip410)" d="M560.742 182.752 L560.742 187.312 Q558.08 186.039 555.719 185.414 Q553.358 184.789 551.159 184.789 Q547.34 184.789 545.256 186.27 Q543.196 187.752 543.196 190.483 Q543.196 192.775 544.562 193.955 Q545.951 195.113 549.793 195.83 L552.617 196.409 Q557.849 197.405 560.326 199.928 Q562.826 202.428 562.826 206.641 Q562.826 211.664 559.446 214.256 Q556.09 216.849 549.585 216.849 Q547.131 216.849 544.354 216.293 Q541.599 215.738 538.636 214.65 L538.636 209.835 Q541.483 211.432 544.215 212.242 Q546.946 213.053 549.585 213.053 Q553.59 213.053 555.766 211.479 Q557.941 209.904 557.941 206.988 Q557.941 204.442 556.367 203.006 Q554.816 201.571 551.252 200.854 L548.404 200.298 Q543.173 199.256 540.835 197.034 Q538.497 194.812 538.497 190.854 Q538.497 186.27 541.715 183.631 Q544.955 180.993 550.627 180.993 Q553.057 180.993 555.58 181.432 Q558.103 181.872 560.742 182.752 Z" fill="#000000" fill-rule="nonzero" fill-opacity="1" /><path clip-path="url(#clip410)" d="M580.719 218.585 Q578.914 223.215 577.201 224.627 Q575.488 226.039 572.617 226.039 L569.215 226.039 L569.215 222.474 L571.715 222.474 Q573.474 222.474 574.446 221.64 Q575.418 220.807 576.599 217.705 L577.363 215.761 L566.877 190.252 L571.39 190.252 L579.492 210.529 L587.594 190.252 L592.108 190.252 L580.719 218.585 Z" fill="#000000" fill-rule="nonzero" fill-opacity="1" /><path clip-path="url(#clip410)" d="M618.173 195.229 Q619.77 192.358 621.992 190.993 Q624.214 189.627 627.223 189.627 Q631.274 189.627 633.473 192.474 Q635.672 195.298 635.672 200.529 L635.672 216.178 L631.39 216.178 L631.39 200.668 Q631.39 196.942 630.071 195.136 Q628.751 193.33 626.043 193.33 Q622.733 193.33 620.811 195.53 Q618.89 197.729 618.89 201.525 L618.89 216.178 L614.608 216.178 L614.608 200.668 Q614.608 196.918 613.288 195.136 Q611.969 193.33 609.214 193.33 Q605.95 193.33 604.029 195.553 Q602.108 197.752 602.108 201.525 L602.108 216.178 L597.825 216.178 L597.825 190.252 L602.108 190.252 L602.108 194.28 Q603.566 191.895 605.603 190.761 Q607.64 189.627 610.441 189.627 Q613.265 189.627 615.233 191.062 Q617.224 192.497 618.173 195.229 Z" fill="#000000" fill-rule="nonzero" fill-opacity="1" /><path clip-path="url(#clip410)" d="M648.288 212.289 L648.288 226.039 L644.006 226.039 L644.006 190.252 L648.288 190.252 L648.288 194.187 Q649.631 191.872 651.668 190.761 Q653.728 189.627 656.575 189.627 Q661.297 189.627 664.237 193.377 Q667.2 197.127 667.2 203.238 Q667.2 209.349 664.237 213.099 Q661.297 216.849 656.575 216.849 Q653.728 216.849 651.668 215.738 Q649.631 214.603 648.288 212.289 M662.779 203.238 Q662.779 198.539 660.834 195.877 Q658.913 193.192 655.534 193.192 Q652.154 193.192 650.209 195.877 Q648.288 198.539 648.288 203.238 Q648.288 207.937 650.209 210.622 Q652.154 213.284 655.534 213.284 Q658.913 213.284 660.834 210.622 Q662.779 207.937 662.779 203.238 Z" fill="#000000" fill-rule="nonzero" fill-opacity="1" /><path clip-path="url(#clip410)" d="M695.811 200.529 L695.811 216.178 L691.552 216.178 L691.552 200.668 Q691.552 196.988 690.117 195.159 Q688.681 193.33 685.811 193.33 Q682.362 193.33 680.371 195.53 Q678.381 197.729 678.381 201.525 L678.381 216.178 L674.098 216.178 L674.098 190.252 L678.381 190.252 L678.381 194.28 Q679.908 191.942 681.969 190.784 Q684.052 189.627 686.76 189.627 Q691.228 189.627 693.519 192.405 Q695.811 195.159 695.811 200.529 Z" fill="#000000" fill-rule="nonzero" fill-opacity="1" /><path clip-path="url(#clip410)" d="M726.482 202.15 L726.482 204.233 L706.899 204.233 Q707.177 208.631 709.538 210.946 Q711.922 213.238 716.158 213.238 Q718.612 213.238 720.904 212.636 Q723.218 212.034 725.487 210.83 L725.487 214.858 Q723.195 215.83 720.788 216.34 Q718.38 216.849 715.904 216.849 Q709.7 216.849 706.066 213.238 Q702.455 209.627 702.455 203.469 Q702.455 197.104 705.88 193.377 Q709.33 189.627 715.163 189.627 Q720.394 189.627 723.427 193.006 Q726.482 196.363 726.482 202.15 M722.223 200.9 Q722.177 197.405 720.255 195.321 Q718.357 193.238 715.209 193.238 Q711.644 193.238 709.492 195.252 Q707.362 197.266 707.038 200.923 L722.223 200.9 Z" fill="#000000" fill-rule="nonzero" fill-opacity="1" /><path clip-path="url(#clip410)" d="M737.686 182.891 L737.686 190.252 L746.459 190.252 L746.459 193.562 L737.686 193.562 L737.686 207.636 Q737.686 210.807 738.542 211.71 Q739.422 212.613 742.084 212.613 L746.459 212.613 L746.459 216.178 L742.084 216.178 Q737.153 216.178 735.278 214.349 Q733.403 212.497 733.403 207.636 L733.403 193.562 L730.278 193.562 L730.278 190.252 L733.403 190.252 L733.403 182.891 L737.686 182.891 Z" fill="#000000" fill-rule="nonzero" fill-opacity="1" /><polyline clip-path="url(#clip410)" style="stroke:#3da44d; stroke-linecap:round; stroke-linejoin:round; stroke-width:4; stroke-opacity:1; fill:none" points="297.758,250.738 441.13,250.738 "/>
<path clip-path="url(#clip410)" d="M490.581 263.087 L490.581 253.805 L482.942 253.805 L482.942 249.962 L495.21 249.962 L495.21 264.8 Q492.502 266.721 489.238 267.717 Q485.974 268.689 482.271 268.689 Q474.169 268.689 469.585 263.967 Q465.025 259.221 465.025 250.772 Q465.025 242.3 469.585 237.578 Q474.169 232.833 482.271 232.833 Q485.65 232.833 488.683 233.666 Q491.738 234.499 494.308 236.12 L494.308 241.096 Q491.715 238.897 488.798 237.786 Q485.882 236.675 482.664 236.675 Q476.322 236.675 473.127 240.217 Q469.956 243.758 469.956 250.772 Q469.956 257.763 473.127 261.305 Q476.322 264.846 482.664 264.846 Q485.141 264.846 487.085 264.43 Q489.03 263.99 490.581 263.087 Z" fill="#000000" fill-rule="nonzero" fill-opacity="1" /><path clip-path="url(#clip410)" d="M539.539 234.592 L539.539 239.152 Q536.877 237.879 534.516 237.254 Q532.155 236.629 529.955 236.629 Q526.136 236.629 524.053 238.11 Q521.993 239.592 521.993 242.323 Q521.993 244.615 523.358 245.795 Q524.747 246.953 528.59 247.67 L531.414 248.249 Q536.645 249.245 539.122 251.768 Q541.622 254.268 541.622 258.481 Q541.622 263.504 538.242 266.096 Q534.886 268.689 528.381 268.689 Q525.928 268.689 523.15 268.133 Q520.395 267.578 517.432 266.49 L517.432 261.675 Q520.28 263.272 523.011 264.082 Q525.743 264.893 528.381 264.893 Q532.386 264.893 534.562 263.319 Q536.738 261.744 536.738 258.828 Q536.738 256.282 535.164 254.846 Q533.613 253.411 530.048 252.694 L527.201 252.138 Q521.969 251.096 519.631 248.874 Q517.294 246.652 517.294 242.694 Q517.294 238.11 520.511 235.471 Q523.752 232.833 529.423 232.833 Q531.854 232.833 534.377 233.272 Q536.9 233.712 539.539 234.592 Z" fill="#000000" fill-rule="nonzero" fill-opacity="1" /><path clip-path="url(#clip410)" d="M559.515 270.425 Q557.71 275.055 555.997 276.467 Q554.284 277.879 551.414 277.879 L548.011 277.879 L548.011 274.314 L550.511 274.314 Q552.27 274.314 553.242 273.48 Q554.215 272.647 555.395 269.545 L556.159 267.601 L545.673 242.092 L550.187 242.092 L558.289 262.369 L566.39 242.092 L570.904 242.092 L559.515 270.425 Z" fill="#000000" fill-rule="nonzero" fill-opacity="1" /><path clip-path="url(#clip410)" d="M596.969 247.069 Q598.566 244.198 600.788 242.833 Q603.011 241.467 606.02 241.467 Q610.071 241.467 612.27 244.314 Q614.469 247.138 614.469 252.369 L614.469 268.018 L610.187 268.018 L610.187 252.508 Q610.187 248.782 608.867 246.976 Q607.548 245.17 604.839 245.17 Q601.529 245.17 599.608 247.37 Q597.687 249.569 597.687 253.365 L597.687 268.018 L593.404 268.018 L593.404 252.508 Q593.404 248.758 592.085 246.976 Q590.765 245.17 588.011 245.17 Q584.747 245.17 582.826 247.393 Q580.904 249.592 580.904 253.365 L580.904 268.018 L576.622 268.018 L576.622 242.092 L580.904 242.092 L580.904 246.12 Q582.363 243.735 584.4 242.601 Q586.437 241.467 589.238 241.467 Q592.062 241.467 594.029 242.902 Q596.02 244.337 596.969 247.069 Z" fill="#000000" fill-rule="nonzero" fill-opacity="1" /><path clip-path="url(#clip410)" d="M627.085 264.129 L627.085 277.879 L622.802 277.879 L622.802 242.092 L627.085 242.092 L627.085 246.027 Q628.427 243.712 630.464 242.601 Q632.524 241.467 635.372 241.467 Q640.094 241.467 643.034 245.217 Q645.997 248.967 645.997 255.078 Q645.997 261.189 643.034 264.939 Q640.094 268.689 635.372 268.689 Q632.524 268.689 630.464 267.578 Q628.427 266.443 627.085 264.129 M641.575 255.078 Q641.575 250.379 639.631 247.717 Q637.71 245.032 634.33 245.032 Q630.95 245.032 629.006 247.717 Q627.085 250.379 627.085 255.078 Q627.085 259.777 629.006 262.462 Q630.95 265.124 634.33 265.124 Q637.71 265.124 639.631 262.462 Q641.575 259.777 641.575 255.078 Z" fill="#000000" fill-rule="nonzero" fill-opacity="1" /><path clip-path="url(#clip410)" d="M674.607 252.369 L674.607 268.018 L670.348 268.018 L670.348 252.508 Q670.348 248.828 668.913 246.999 Q667.478 245.17 664.608 245.17 Q661.158 245.17 659.168 247.37 Q657.177 249.569 657.177 253.365 L657.177 268.018 L652.895 268.018 L652.895 242.092 L657.177 242.092 L657.177 246.12 Q658.705 243.782 660.765 242.624 Q662.848 241.467 665.557 241.467 Q670.024 241.467 672.316 244.245 Q674.607 246.999 674.607 252.369 Z" fill="#000000" fill-rule="nonzero" fill-opacity="1" /><path clip-path="url(#clip410)" d="M705.279 253.99 L705.279 256.073 L685.695 256.073 Q685.973 260.471 688.334 262.786 Q690.718 265.078 694.955 265.078 Q697.408 265.078 699.7 264.476 Q702.015 263.874 704.283 262.67 L704.283 266.698 Q701.992 267.67 699.584 268.18 Q697.177 268.689 694.7 268.689 Q688.496 268.689 684.862 265.078 Q681.251 261.467 681.251 255.309 Q681.251 248.944 684.677 245.217 Q688.126 241.467 693.959 241.467 Q699.191 241.467 702.223 244.846 Q705.279 248.203 705.279 253.99 M701.019 252.74 Q700.973 249.245 699.052 247.161 Q697.154 245.078 694.006 245.078 Q690.441 245.078 688.288 247.092 Q686.158 249.106 685.834 252.763 L701.019 252.74 Z" fill="#000000" fill-rule="nonzero" fill-opacity="1" /><path clip-path="url(#clip410)" d="M716.482 234.731 L716.482 242.092 L725.255 242.092 L725.255 245.402 L716.482 245.402 L716.482 259.476 Q716.482 262.647 717.339 263.55 Q718.218 264.453 720.88 264.453 L725.255 264.453 L725.255 268.018 L720.88 268.018 Q715.95 268.018 714.075 266.189 Q712.2 264.337 712.2 259.476 L712.2 245.402 L709.075 245.402 L709.075 242.092 L712.2 242.092 L712.2 234.731 L716.482 234.731 Z" fill="#000000" fill-rule="nonzero" fill-opacity="1" /></svg>
