<?xml version="1.0" encoding="utf-8"?>
<svg xmlns="http://www.w3.org/2000/svg" xmlns:xlink="http://www.w3.org/1999/xlink" width="600" height="400" viewBox="0 0 2400 1600">
<defs>
  <clipPath id="clip510">
    <rect x="0" y="0" width="2400" height="1600"/>
  </clipPath>
</defs>
<path clip-path="url(#clip510)" d="M0 1600 L2400 1600 L2400 0 L0 0  Z" fill="#ffffff" fill-rule="evenodd" fill-opacity="1"/>
<defs>
  <clipPath id="clip511">
    <rect x="480" y="0" width="1681" height="1600"/>
  </clipPath>
</defs>
<path clip-path="url(#clip510)" d="M251.842 1423.18 L2352.76 1423.18 L2352.76 47.2441 L251.842 47.2441  Z" fill="#ffffff" fill-rule="evenodd" fill-opacity="1"/>
<defs>
  <clipPath id="clip512">
    <rect x="251" y="47" width="2102" height="1377"/>
  </clipPath>
</defs>
<polyline clip-path="url(#clip512)" style="stroke:#000000; stroke-linecap:round; stroke-linejoin:round; stroke-width:2; stroke-opacity:0.1; fill:none" points="309.318,1423.18 309.318,47.2441 "/>
<polyline clip-path="url(#clip512)" style="stroke:#000000; stroke-linecap:round; stroke-linejoin:round; stroke-width:2; stroke-opacity:0.1; fill:none" points="805.313,1423.18 805.313,47.2441 "/>
<polyline clip-path="url(#clip512)" style="stroke:#000000; stroke-linecap:round; stroke-linejoin:round; stroke-width:2; stroke-opacity:0.1; fill:none" points="1301.31,1423.18 1301.31,47.2441 "/>
<polyline clip-path="url(#clip512)" style="stroke:#000000; stroke-linecap:round; stroke-linejoin:round; stroke-width:2; stroke-opacity:0.1; fill:none" points="1797.3,1423.18 1797.3,47.2441 "/>
<polyline clip-path="url(#clip512)" style="stroke:#000000; stroke-linecap:round; stroke-linejoin:round; stroke-width:2; stroke-opacity:0.1; fill:none" points="2293.3,1423.18 2293.3,47.2441 "/>
<polyline clip-path="url(#clip510)" style="stroke:#000000; stroke-linecap:round; stroke-linejoin:round; stroke-width:4; stroke-opacity:1; fill:none" points="251.842,1423.18 2352.76,1423.18 "/>
<polyline clip-path="url(#clip510)" style="stroke:#000000; stroke-linecap:round; stroke-linejoin:round; stroke-width:4; stroke-opacity:1; fill:none" points="309.318,1423.18 309.318,1404.28 "/>
<polyline clip-path="url(#clip510)" style="stroke:#000000; stroke-linecap:round; stroke-linejoin:round; stroke-width:4; stroke-opacity:1; fill:none" points="805.313,1423.18 805.313,1404.28 "/>
<polyline clip-path="url(#clip510)" style="stroke:#000000; stroke-linecap:round; stroke-linejoin:round; stroke-width:4; stroke-opacity:1; fill:none" points="1301.31,1423.18 1301.31,1404.28 "/>
<polyline clip-path="url(#clip510)" style="stroke:#000000; stroke-linecap:round; stroke-linejoin:round; stroke-width:4; stroke-opacity:1; fill:none" points="1797.3,1423.18 1797.3,1404.28 "/>
<polyline clip-path="url(#clip510)" style="stroke:#000000; stroke-linecap:round; stroke-linejoin:round; stroke-width:4; stroke-opacity:1; fill:none" points="2293.3,1423.18 2293.3,1404.28 "/>
<path clip-path="url(#clip510)" d="M309.318 1454.1 Q305.707 1454.1 303.878 1457.66 Q302.073 1461.2 302.073 1468.33 Q302.073 1475.44 303.878 1479.01 Q305.707 1482.55 309.318 1482.55 Q312.952 1482.55 314.758 1479.01 Q316.587 1475.44 316.587 1468.33 Q316.587 1461.2 314.758 1457.66 Q312.952 1454.1 309.318 1454.1 M309.318 1450.39 Q315.128 1450.39 318.184 1455 Q321.263 1459.58 321.263 1468.33 Q321.263 1477.06 318.184 1481.67 Q315.128 1486.25 309.318 1486.25 Q303.508 1486.25 300.429 1481.67 Q297.374 1477.06 297.374 1468.33 Q297.374 1459.58 300.429 1455 Q303.508 1450.39 309.318 1450.39 Z" fill="#000000" fill-rule="nonzero" fill-opacity="1" /><path clip-path="url(#clip510)" d="M769.005 1481.64 L785.324 1481.64 L785.324 1485.58 L763.38 1485.58 L763.38 1481.64 Q766.042 1478.89 770.625 1474.26 Q775.232 1469.61 776.412 1468.27 Q778.658 1465.74 779.537 1464.01 Q780.44 1462.25 780.44 1460.56 Q780.44 1457.8 778.496 1456.07 Q776.574 1454.33 773.473 1454.33 Q771.274 1454.33 768.82 1455.09 Q766.389 1455.86 763.612 1457.41 L763.612 1452.69 Q766.436 1451.55 768.889 1450.97 Q771.343 1450.39 773.38 1450.39 Q778.75 1450.39 781.945 1453.08 Q785.139 1455.77 785.139 1460.26 Q785.139 1462.39 784.329 1464.31 Q783.542 1466.2 781.435 1468.8 Q780.857 1469.47 777.755 1472.69 Q774.653 1475.88 769.005 1481.64 Z" fill="#000000" fill-rule="nonzero" fill-opacity="1" /><path clip-path="url(#clip510)" d="M795.185 1451.02 L813.542 1451.02 L813.542 1454.96 L799.468 1454.96 L799.468 1463.43 Q800.486 1463.08 801.505 1462.92 Q802.523 1462.73 803.542 1462.73 Q809.329 1462.73 812.708 1465.9 Q816.088 1469.08 816.088 1474.49 Q816.088 1480.07 812.616 1483.17 Q809.144 1486.25 802.824 1486.25 Q800.648 1486.25 798.38 1485.88 Q796.134 1485.51 793.727 1484.77 L793.727 1480.07 Q795.81 1481.2 798.033 1481.76 Q800.255 1482.32 802.732 1482.32 Q806.736 1482.32 809.074 1480.21 Q811.412 1478.1 811.412 1474.49 Q811.412 1470.88 809.074 1468.77 Q806.736 1466.67 802.732 1466.67 Q800.857 1466.67 798.982 1467.08 Q797.13 1467.5 795.185 1468.38 L795.185 1451.02 Z" fill="#000000" fill-rule="nonzero" fill-opacity="1" /><path clip-path="url(#clip510)" d="M835.301 1454.1 Q831.69 1454.1 829.861 1457.66 Q828.056 1461.2 828.056 1468.33 Q828.056 1475.44 829.861 1479.01 Q831.69 1482.55 835.301 1482.55 Q838.935 1482.55 840.741 1479.01 Q842.569 1475.44 842.569 1468.33 Q842.569 1461.2 840.741 1457.66 Q838.935 1454.1 835.301 1454.1 M835.301 1450.39 Q841.111 1450.39 844.167 1455 Q847.245 1459.58 847.245 1468.33 Q847.245 1477.06 844.167 1481.67 Q841.111 1486.25 835.301 1486.25 Q829.491 1486.25 826.412 1481.67 Q823.357 1477.06 823.357 1468.33 Q823.357 1459.58 826.412 1455 Q829.491 1450.39 835.301 1450.39 Z" fill="#000000" fill-rule="nonzero" fill-opacity="1" /><path clip-path="url(#clip510)" d="M1260.93 1451.02 L1279.28 1451.02 L1279.28 1454.96 L1265.21 1454.96 L1265.21 1463.43 Q1266.23 1463.08 1267.24 1462.92 Q1268.26 1462.73 1269.28 1462.73 Q1275.07 1462.73 1278.45 1465.9 Q1281.83 1469.08 1281.83 1474.49 Q1281.83 1480.07 1278.36 1483.17 Q1274.88 1486.25 1268.56 1486.25 Q1266.39 1486.25 1264.12 1485.88 Q1261.87 1485.51 1259.47 1484.77 L1259.47 1480.07 Q1261.55 1481.2 1263.77 1481.76 Q1265.99 1482.32 1268.47 1482.32 Q1272.48 1482.32 1274.81 1480.21 Q1277.15 1478.1 1277.15 1474.49 Q1277.15 1470.88 1274.81 1468.77 Q1272.48 1466.67 1268.47 1466.67 Q1266.6 1466.67 1264.72 1467.08 Q1262.87 1467.5 1260.93 1468.38 L1260.93 1451.02 Z" fill="#000000" fill-rule="nonzero" fill-opacity="1" /><path clip-path="url(#clip510)" d="M1301.04 1454.1 Q1297.43 1454.1 1295.6 1457.66 Q1293.8 1461.2 1293.8 1468.33 Q1293.8 1475.44 1295.6 1479.01 Q1297.43 1482.55 1301.04 1482.55 Q1304.68 1482.55 1306.48 1479.01 Q1308.31 1475.44 1308.31 1468.33 Q1308.31 1461.2 1306.48 1457.66 Q1304.68 1454.1 1301.04 1454.1 M1301.04 1450.39 Q1306.85 1450.39 1309.91 1455 Q1312.99 1459.58 1312.99 1468.33 Q1312.99 1477.06 1309.91 1481.67 Q1306.85 1486.25 1301.04 1486.25 Q1295.23 1486.25 1292.15 1481.67 Q1289.1 1477.06 1289.1 1468.33 Q1289.1 1459.58 1292.15 1455 Q1295.23 1450.39 1301.04 1450.39 Z" fill="#000000" fill-rule="nonzero" fill-opacity="1" /><path clip-path="url(#clip510)" d="M1331.2 1454.1 Q1327.59 1454.1 1325.76 1457.66 Q1323.96 1461.2 1323.96 1468.33 Q1323.96 1475.44 1325.76 1479.01 Q1327.59 1482.55 1331.2 1482.55 Q1334.84 1482.55 1336.64 1479.01 Q1338.47 1475.44 1338.47 1468.33 Q1338.47 1461.2 1336.64 1457.66 Q1334.84 1454.1 1331.2 1454.1 M1331.2 1450.39 Q1337.01 1450.39 1340.07 1455 Q1343.15 1459.58 1343.15 1468.33 Q1343.15 1477.06 1340.07 1481.67 Q1337.01 1486.25 1331.2 1486.25 Q1325.39 1486.25 1322.31 1481.67 Q1319.26 1477.06 1319.26 1468.33 Q1319.26 1459.58 1322.31 1455 Q1325.39 1450.39 1331.2 1450.39 Z" fill="#000000" fill-rule="nonzero" fill-opacity="1" /><path clip-path="url(#clip510)" d="M1755.58 1451.02 L1777.8 1451.02 L1777.8 1453.01 L1765.25 1485.58 L1760.37 1485.58 L1772.17 1454.96 L1755.58 1454.96 L1755.58 1451.02 Z" fill="#000000" fill-rule="nonzero" fill-opacity="1" /><path clip-path="url(#clip510)" d="M1786.97 1451.02 L1805.32 1451.02 L1805.32 1454.96 L1791.25 1454.96 L1791.25 1463.43 Q1792.27 1463.08 1793.29 1462.92 Q1794.3 1462.73 1795.32 1462.73 Q1801.11 1462.73 1804.49 1465.9 Q1807.87 1469.08 1807.87 1474.49 Q1807.87 1480.07 1804.4 1483.17 Q1800.92 1486.25 1794.6 1486.25 Q1792.43 1486.25 1790.16 1485.88 Q1787.92 1485.51 1785.51 1484.77 L1785.51 1480.07 Q1787.59 1481.2 1789.81 1481.76 Q1792.04 1482.32 1794.51 1482.32 Q1798.52 1482.32 1800.85 1480.21 Q1803.19 1478.1 1803.19 1474.49 Q1803.19 1470.88 1800.85 1468.77 Q1798.52 1466.67 1794.51 1466.67 Q1792.64 1466.67 1790.76 1467.08 Q1788.91 1467.5 1786.97 1468.38 L1786.97 1451.02 Z" fill="#000000" fill-rule="nonzero" fill-opacity="1" /><path clip-path="url(#clip510)" d="M1827.08 1454.1 Q1823.47 1454.1 1821.64 1457.66 Q1819.84 1461.2 1819.84 1468.33 Q1819.84 1475.44 1821.64 1479.01 Q1823.47 1482.55 1827.08 1482.55 Q1830.72 1482.55 1832.52 1479.01 Q1834.35 1475.44 1834.35 1468.33 Q1834.35 1461.2 1832.52 1457.66 Q1830.72 1454.1 1827.08 1454.1 M1827.08 1450.39 Q1832.89 1450.39 1835.95 1455 Q1839.03 1459.58 1839.03 1468.33 Q1839.03 1477.06 1835.95 1481.67 Q1832.89 1486.25 1827.08 1486.25 Q1821.27 1486.25 1818.19 1481.67 Q1815.14 1477.06 1815.14 1468.33 Q1815.14 1459.58 1818.19 1455 Q1821.27 1450.39 1827.08 1450.39 Z" fill="#000000" fill-rule="nonzero" fill-opacity="1" /><path clip-path="url(#clip510)" d="M2237.82 1481.64 L2245.46 1481.64 L2245.46 1455.28 L2237.15 1456.95 L2237.15 1452.69 L2245.41 1451.02 L2250.09 1451.02 L2250.09 1481.64 L2257.73 1481.64 L2257.73 1485.58 L2237.82 1485.58 L2237.82 1481.64 Z" fill="#000000" fill-rule="nonzero" fill-opacity="1" /><path clip-path="url(#clip510)" d="M2277.17 1454.1 Q2273.56 1454.1 2271.73 1457.66 Q2269.93 1461.2 2269.93 1468.33 Q2269.93 1475.44 2271.73 1479.01 Q2273.56 1482.55 2277.17 1482.55 Q2280.81 1482.55 2282.61 1479.01 Q2284.44 1475.44 2284.44 1468.33 Q2284.44 1461.2 2282.61 1457.66 Q2280.81 1454.1 2277.17 1454.1 M2277.17 1450.39 Q2282.98 1450.39 2286.04 1455 Q2289.12 1459.58 2289.12 1468.33 Q2289.12 1477.06 2286.04 1481.67 Q2282.98 1486.25 2277.17 1486.25 Q2271.36 1486.25 2268.28 1481.67 Q2265.23 1477.06 2265.23 1468.33 Q2265.23 1459.58 2268.28 1455 Q2271.36 1450.39 2277.17 1450.39 Z" fill="#000000" fill-rule="nonzero" fill-opacity="1" /><path clip-path="url(#clip510)" d="M2307.34 1454.1 Q2303.72 1454.1 2301.9 1457.66 Q2300.09 1461.2 2300.09 1468.33 Q2300.09 1475.44 2301.9 1479.01 Q2303.72 1482.55 2307.34 1482.55 Q2310.97 1482.55 2312.78 1479.01 Q2314.6 1475.44 2314.6 1468.33 Q2314.6 1461.2 2312.78 1457.66 Q2310.97 1454.1 2307.34 1454.1 M2307.34 1450.39 Q2313.15 1450.39 2316.2 1455 Q2319.28 1459.58 2319.28 1468.33 Q2319.28 1477.06 2316.2 1481.67 Q2313.15 1486.25 2307.34 1486.25 Q2301.53 1486.25 2298.45 1481.67 Q2295.39 1477.06 2295.39 1468.33 Q2295.39 1459.58 2298.45 1455 Q2301.53 1450.39 2307.34 1450.39 Z" fill="#000000" fill-rule="nonzero" fill-opacity="1" /><path clip-path="url(#clip510)" d="M2337.5 1454.1 Q2333.89 1454.1 2332.06 1457.66 Q2330.25 1461.2 2330.25 1468.33 Q2330.25 1475.44 2332.06 1479.01 Q2333.89 1482.55 2337.5 1482.55 Q2341.13 1482.55 2342.94 1479.01 Q2344.77 1475.44 2344.77 1468.33 Q2344.77 1461.2 2342.94 1457.66 Q2341.13 1454.1 2337.5 1454.1 M2337.5 1450.39 Q2343.31 1450.39 2346.36 1455 Q2349.44 1459.58 2349.44 1468.33 Q2349.44 1477.06 2346.36 1481.67 Q2343.31 1486.25 2337.5 1486.25 Q2331.69 1486.25 2328.61 1481.67 Q2325.55 1477.06 2325.55 1468.33 Q2325.55 1459.58 2328.61 1455 Q2331.69 1450.39 2337.5 1450.39 Z" fill="#000000" fill-rule="nonzero" fill-opacity="1" /><path clip-path="url(#clip510)" d="M1208.47 1520.52 L1238.51 1520.52 L1238.51 1525.93 L1214.9 1525.93 L1214.9 1540 L1237.53 1540 L1237.53 1545.41 L1214.9 1545.41 L1214.9 1562.63 L1239.09 1562.63 L1239.09 1568.04 L1208.47 1568.04 L1208.47 1520.52 Z" fill="#000000" fill-rule="nonzero" fill-opacity="1" /><path clip-path="url(#clip510)" d="M1255.07 1562.7 L1255.07 1581.6 L1249.18 1581.6 L1249.18 1532.4 L1255.07 1532.4 L1255.07 1537.81 Q1256.91 1534.62 1259.71 1533.1 Q1262.55 1531.54 1266.46 1531.54 Q1272.95 1531.54 1277 1536.69 Q1281.07 1541.85 1281.07 1550.25 Q1281.07 1558.65 1277 1563.81 Q1272.95 1568.97 1266.46 1568.97 Q1262.55 1568.97 1259.71 1567.44 Q1256.91 1565.88 1255.07 1562.7 M1274.99 1550.25 Q1274.99 1543.79 1272.32 1540.13 Q1269.67 1536.44 1265.03 1536.44 Q1260.38 1536.44 1257.71 1540.13 Q1255.07 1543.79 1255.07 1550.25 Q1255.07 1556.71 1257.71 1560.4 Q1260.38 1564.07 1265.03 1564.07 Q1269.67 1564.07 1272.32 1560.4 Q1274.99 1556.71 1274.99 1550.25 Z" fill="#000000" fill-rule="nonzero" fill-opacity="1" /><path clip-path="url(#clip510)" d="M1304.59 1536.5 Q1299.88 1536.5 1297.14 1540.19 Q1294.41 1543.85 1294.41 1550.25 Q1294.41 1556.65 1297.11 1560.34 Q1299.85 1564 1304.59 1564 Q1309.27 1564 1312.01 1560.31 Q1314.74 1556.62 1314.74 1550.25 Q1314.74 1543.92 1312.01 1540.23 Q1309.27 1536.5 1304.59 1536.5 M1304.59 1531.54 Q1312.23 1531.54 1316.59 1536.5 Q1320.95 1541.47 1320.95 1550.25 Q1320.95 1559 1316.59 1564 Q1312.23 1568.97 1304.59 1568.97 Q1296.92 1568.97 1292.56 1564 Q1288.23 1559 1288.23 1550.25 Q1288.23 1541.47 1292.56 1536.5 Q1296.92 1531.54 1304.59 1531.54 Z" fill="#000000" fill-rule="nonzero" fill-opacity="1" /><path clip-path="url(#clip510)" d="M1356.31 1533.76 L1356.31 1539.24 Q1353.83 1537.87 1351.32 1537.2 Q1348.83 1536.5 1346.29 1536.5 Q1340.59 1536.5 1337.44 1540.13 Q1334.29 1543.73 1334.29 1550.25 Q1334.29 1556.78 1337.44 1560.4 Q1340.59 1564 1346.29 1564 Q1348.83 1564 1351.32 1563.33 Q1353.83 1562.63 1356.31 1561.26 L1356.31 1566.68 Q1353.86 1567.82 1351.22 1568.39 Q1348.61 1568.97 1345.65 1568.97 Q1337.6 1568.97 1332.85 1563.91 Q1328.11 1558.85 1328.11 1550.25 Q1328.11 1541.53 1332.89 1536.53 Q1337.69 1531.54 1346.03 1531.54 Q1348.74 1531.54 1351.32 1532.11 Q1353.89 1532.65 1356.31 1533.76 Z" fill="#000000" fill-rule="nonzero" fill-opacity="1" /><path clip-path="url(#clip510)" d="M1396.13 1546.53 L1396.13 1568.04 L1390.27 1568.04 L1390.27 1546.72 Q1390.27 1541.66 1388.3 1539.14 Q1386.33 1536.63 1382.38 1536.63 Q1377.64 1536.63 1374.9 1539.65 Q1372.16 1542.68 1372.16 1547.9 L1372.16 1568.04 L1366.27 1568.04 L1366.27 1518.52 L1372.16 1518.52 L1372.16 1537.93 Q1374.26 1534.72 1377.1 1533.13 Q1379.96 1531.54 1383.68 1531.54 Q1389.83 1531.54 1392.98 1535.36 Q1396.13 1539.14 1396.13 1546.53 Z" fill="#000000" fill-rule="nonzero" fill-opacity="1" /><polyline clip-path="url(#clip512)" style="stroke:#000000; stroke-linecap:round; stroke-linejoin:round; stroke-width:2; stroke-opacity:0.1; fill:none" points="251.842,1367.39 2352.76,1367.39 "/>
<polyline clip-path="url(#clip512)" style="stroke:#000000; stroke-linecap:round; stroke-linejoin:round; stroke-width:2; stroke-opacity:0.1; fill:none" points="251.842,635.076 2352.76,635.076 "/>
<polyline clip-path="url(#clip510)" style="stroke:#000000; stroke-linecap:round; stroke-linejoin:round; stroke-width:4; stroke-opacity:1; fill:none" points="251.842,1423.18 251.842,47.2441 "/>
<polyline clip-path="url(#clip510)" style="stroke:#000000; stroke-linecap:round; stroke-linejoin:round; stroke-width:4; stroke-opacity:1; fill:none" points="251.842,1367.39 270.74,1367.39 "/>
<polyline clip-path="url(#clip510)" style="stroke:#000000; stroke-linecap:round; stroke-linejoin:round; stroke-width:4; stroke-opacity:1; fill:none" points="251.842,635.076 270.74,635.076 "/>
<path clip-path="url(#clip510)" d="M114.931 1387.18 L122.57 1387.18 L122.57 1360.82 L114.26 1362.48 L114.26 1358.22 L122.524 1356.56 L127.2 1356.56 L127.2 1387.18 L134.839 1387.18 L134.839 1391.12 L114.931 1391.12 L114.931 1387.18 Z" fill="#000000" fill-rule="nonzero" fill-opacity="1" /><path clip-path="url(#clip510)" d="M154.283 1359.64 Q150.672 1359.64 148.843 1363.2 Q147.038 1366.74 147.038 1373.87 Q147.038 1380.98 148.843 1384.54 Q150.672 1388.09 154.283 1388.09 Q157.917 1388.09 159.723 1384.54 Q161.552 1380.98 161.552 1373.87 Q161.552 1366.74 159.723 1363.2 Q157.917 1359.64 154.283 1359.64 M154.283 1355.93 Q160.093 1355.93 163.149 1360.54 Q166.227 1365.12 166.227 1373.87 Q166.227 1382.6 163.149 1387.21 Q160.093 1391.79 154.283 1391.79 Q148.473 1391.79 145.394 1387.21 Q142.339 1382.6 142.339 1373.87 Q142.339 1365.12 145.394 1360.54 Q148.473 1355.93 154.283 1355.93 Z" fill="#000000" fill-rule="nonzero" fill-opacity="1" /><path clip-path="url(#clip510)" d="M166.227 1350.03 L190.339 1350.03 L190.339 1353.23 L166.227 1353.23 L166.227 1350.03 Z" fill="#000000" fill-rule="nonzero" fill-opacity="1" /><path clip-path="url(#clip510)" d="M210.05 1348.57 Q212.777 1349.15 214.3 1350.99 Q215.842 1352.84 215.842 1355.54 Q215.842 1359.7 212.984 1361.98 Q210.125 1364.25 204.859 1364.25 Q203.091 1364.25 201.21 1363.9 Q199.348 1363.56 197.354 1362.86 L197.354 1359.19 Q198.934 1360.12 200.815 1360.59 Q202.696 1361.06 204.746 1361.06 Q208.319 1361.06 210.181 1359.64 Q212.062 1358.23 212.062 1355.54 Q212.062 1353.06 210.313 1351.67 Q208.583 1350.26 205.479 1350.26 L202.207 1350.26 L202.207 1347.14 L205.63 1347.14 Q208.432 1347.14 209.918 1346.03 Q211.404 1344.9 211.404 1342.79 Q211.404 1340.63 209.861 1339.48 Q208.338 1338.32 205.479 1338.32 Q203.918 1338.32 202.132 1338.66 Q200.345 1338.99 198.201 1339.71 L198.201 1336.32 Q200.364 1335.72 202.244 1335.42 Q204.144 1335.12 205.818 1335.12 Q210.144 1335.12 212.664 1337.09 Q215.184 1339.05 215.184 1342.4 Q215.184 1344.73 213.849 1346.35 Q212.513 1347.95 210.05 1348.57 Z" fill="#000000" fill-rule="nonzero" fill-opacity="1" /><path clip-path="url(#clip510)" d="M145.137 654.869 L152.776 654.869 L152.776 628.503 L144.465 630.17 L144.465 625.91 L152.729 624.244 L157.405 624.244 L157.405 654.869 L165.044 654.869 L165.044 658.804 L145.137 658.804 L145.137 654.869 Z" fill="#000000" fill-rule="nonzero" fill-opacity="1" /><path clip-path="url(#clip510)" d="M184.488 627.322 Q180.877 627.322 179.049 630.887 Q177.243 634.429 177.243 641.558 Q177.243 648.665 179.049 652.23 Q180.877 655.771 184.488 655.771 Q188.123 655.771 189.928 652.23 Q191.757 648.665 191.757 641.558 Q191.757 634.429 189.928 630.887 Q188.123 627.322 184.488 627.322 M184.488 623.619 Q190.299 623.619 193.354 628.225 Q196.433 632.809 196.433 641.558 Q196.433 650.285 193.354 654.892 Q190.299 659.475 184.488 659.475 Q178.678 659.475 175.6 654.892 Q172.544 650.285 172.544 641.558 Q172.544 632.809 175.6 628.225 Q178.678 623.619 184.488 623.619 Z" fill="#000000" fill-rule="nonzero" fill-opacity="1" /><path clip-path="url(#clip510)" d="M206.138 605.815 Q203.204 605.815 201.718 608.711 Q200.251 611.589 200.251 617.382 Q200.251 623.156 201.718 626.052 Q203.204 628.93 206.138 628.93 Q209.09 628.93 210.557 626.052 Q212.043 623.156 212.043 617.382 Q212.043 611.589 210.557 608.711 Q209.09 605.815 206.138 605.815 M206.138 602.806 Q210.858 602.806 213.341 606.548 Q215.842 610.272 215.842 617.382 Q215.842 624.472 213.341 628.215 Q210.858 631.939 206.138 631.939 Q201.417 631.939 198.915 628.215 Q196.433 624.472 196.433 617.382 Q196.433 610.272 198.915 606.548 Q201.417 602.806 206.138 602.806 Z" fill="#000000" fill-rule="nonzero" fill-opacity="1" /><path clip-path="url(#clip510)" d="M16.4842 953.174 L16.4842 912.974 L21.895 912.974 L21.895 929.843 L64.0042 929.843 L64.0042 936.305 L21.895 936.305 L21.895 953.174 L16.4842 953.174 Z" fill="#000000" fill-rule="nonzero" fill-opacity="1" /><path clip-path="url(#clip510)" d="M33.8307 895.946 Q33.2578 896.933 33.0032 898.11 Q32.7167 899.256 32.7167 900.657 Q32.7167 905.622 35.9632 908.296 Q39.1779 910.937 45.2253 910.937 L64.0042 910.937 L64.0042 916.826 L28.3562 916.826 L28.3562 910.937 L33.8944 910.937 Q30.6479 909.091 29.0883 906.131 Q27.4968 903.171 27.4968 898.938 Q27.4968 898.333 27.5923 897.601 Q27.656 896.869 27.8151 895.978 L33.8307 895.946 Z" fill="#000000" fill-rule="nonzero" fill-opacity="1" /><path clip-path="url(#clip510)" d="M46.0847 873.602 Q46.0847 880.7 47.7079 883.437 Q49.3312 886.175 53.2461 886.175 Q56.3653 886.175 58.2114 884.138 Q60.0256 882.069 60.0256 878.536 Q60.0256 873.666 56.5881 870.738 Q53.1188 867.778 47.3897 867.778 L46.0847 867.778 L46.0847 873.602 M43.6657 861.921 L64.0042 861.921 L64.0042 867.778 L58.5933 867.778 Q61.8398 869.783 63.3994 872.775 Q64.9272 875.767 64.9272 880.095 Q64.9272 885.57 61.8716 888.816 Q58.7843 892.031 53.6281 892.031 Q47.6125 892.031 44.5569 888.021 Q41.5014 883.979 41.5014 875.99 L41.5014 867.778 L40.9285 867.778 Q36.8862 867.778 34.6901 870.451 Q32.4621 873.093 32.4621 877.899 Q32.4621 880.955 33.1941 883.851 Q33.9262 886.748 35.3903 889.421 L29.9795 889.421 Q28.7381 886.207 28.1334 883.183 Q27.4968 880.159 27.4968 877.295 Q27.4968 869.56 31.5072 865.741 Q35.5176 861.921 43.6657 861.921 Z" fill="#000000" fill-rule="nonzero" fill-opacity="1" /><path clip-path="url(#clip510)" d="M28.3562 849.858 L28.3562 844.002 L64.0042 844.002 L64.0042 849.858 L28.3562 849.858 M14.479 849.858 L14.479 844.002 L21.895 844.002 L21.895 849.858 L14.479 849.858 Z" fill="#000000" fill-rule="nonzero" fill-opacity="1" /><path clip-path="url(#clip510)" d="M42.4881 802.116 L64.0042 802.116 L64.0042 807.972 L42.679 807.972 Q37.6183 807.972 35.1038 809.945 Q32.5894 811.919 32.5894 815.865 Q32.5894 820.608 35.6131 823.345 Q38.6368 826.082 43.8567 826.082 L64.0042 826.082 L64.0042 831.971 L28.3562 831.971 L28.3562 826.082 L33.8944 826.082 Q30.6797 823.982 29.0883 821.149 Q27.4968 818.284 27.4968 814.561 Q27.4968 808.418 31.3163 805.267 Q35.1038 802.116 42.4881 802.116 Z" fill="#000000" fill-rule="nonzero" fill-opacity="1" /><path clip-path="url(#clip510)" d="M28.3562 790.434 L28.3562 784.578 L64.0042 784.578 L64.0042 790.434 L28.3562 790.434 M14.479 790.434 L14.479 784.578 L21.895 784.578 L21.895 790.434 L14.479 790.434 Z" fill="#000000" fill-rule="nonzero" fill-opacity="1" /><path clip-path="url(#clip510)" d="M42.4881 742.692 L64.0042 742.692 L64.0042 748.548 L42.679 748.548 Q37.6183 748.548 35.1038 750.521 Q32.5894 752.495 32.5894 756.442 Q32.5894 761.184 35.6131 763.921 Q38.6368 766.659 43.8567 766.659 L64.0042 766.659 L64.0042 772.547 L28.3562 772.547 L28.3562 766.659 L33.8944 766.659 Q30.6797 764.558 29.0883 761.725 Q27.4968 758.861 27.4968 755.137 Q27.4968 748.994 31.3163 745.843 Q35.1038 742.692 42.4881 742.692 Z" fill="#000000" fill-rule="nonzero" fill-opacity="1" /><path clip-path="url(#clip510)" d="M45.7664 707.553 Q39.4007 707.553 35.8996 710.195 Q32.3984 712.805 32.3984 717.547 Q32.3984 722.258 35.8996 724.9 Q39.4007 727.509 45.7664 727.509 Q52.1003 727.509 55.6014 724.9 Q59.1026 722.258 59.1026 717.547 Q59.1026 712.805 55.6014 710.195 Q52.1003 707.553 45.7664 707.553 M59.58 701.697 Q68.683 701.697 73.1071 705.739 Q77.5631 709.781 77.5631 718.12 Q77.5631 721.207 77.0857 723.945 Q76.6401 726.682 75.6852 729.26 L69.9879 729.26 Q71.3884 726.682 72.0568 724.167 Q72.7252 721.653 72.7252 719.043 Q72.7252 713.282 69.7015 710.418 Q66.7096 707.553 60.6303 707.553 L57.7339 707.553 Q60.885 709.367 62.4446 712.2 Q64.0042 715.033 64.0042 718.979 Q64.0042 725.536 59.0071 729.546 Q54.01 733.557 45.7664 733.557 Q37.491 733.557 32.4939 729.546 Q27.4968 725.536 27.4968 718.979 Q27.4968 715.033 29.0564 712.2 Q30.616 709.367 33.7671 707.553 L28.3562 707.553 L28.3562 701.697 L59.58 701.697 Z" fill="#000000" fill-rule="nonzero" fill-opacity="1" /><path clip-path="url(#clip510)" d="M44.7161 638.421 L47.5806 638.421 L47.5806 665.348 Q53.6281 664.966 56.8109 661.72 Q59.9619 658.442 59.9619 652.617 Q59.9619 649.243 59.1344 646.092 Q58.3069 642.909 56.6518 639.79 L62.1899 639.79 Q63.5267 642.941 64.227 646.251 Q64.9272 649.561 64.9272 652.967 Q64.9272 661.497 59.9619 666.494 Q54.9967 671.459 46.5303 671.459 Q37.7774 671.459 32.6531 666.749 Q27.4968 662.006 27.4968 653.986 Q27.4968 646.792 32.1438 642.623 Q36.7589 638.421 44.7161 638.421 M42.9973 644.278 Q38.1912 644.342 35.3266 646.983 Q32.4621 649.593 32.4621 653.922 Q32.4621 658.823 35.2312 661.784 Q38.0002 664.712 43.0292 665.157 L42.9973 644.278 Z" fill="#000000" fill-rule="nonzero" fill-opacity="1" /><path clip-path="url(#clip510)" d="M33.8307 608.152 Q33.2578 609.139 33.0032 610.317 Q32.7167 611.463 32.7167 612.863 Q32.7167 617.828 35.9632 620.502 Q39.1779 623.144 45.2253 623.144 L64.0042 623.144 L64.0042 629.032 L28.3562 629.032 L28.3562 623.144 L33.8944 623.144 Q30.6479 621.298 29.0883 618.338 Q27.4968 615.378 27.4968 611.144 Q27.4968 610.54 27.5923 609.808 Q27.656 609.075 27.8151 608.184 L33.8307 608.152 Z" fill="#000000" fill-rule="nonzero" fill-opacity="1" /><path clip-path="url(#clip510)" d="M33.8307 582.499 Q33.2578 583.485 33.0032 584.663 Q32.7167 585.809 32.7167 587.209 Q32.7167 592.175 35.9632 594.848 Q39.1779 597.49 45.2253 597.49 L64.0042 597.49 L64.0042 603.378 L28.3562 603.378 L28.3562 597.49 L33.8944 597.49 Q30.6479 595.644 29.0883 592.684 Q27.4968 589.724 27.4968 585.491 Q27.4968 584.886 27.5923 584.154 Q27.656 583.422 27.8151 582.53 L33.8307 582.499 Z" fill="#000000" fill-rule="nonzero" fill-opacity="1" /><path clip-path="url(#clip510)" d="M32.4621 563.974 Q32.4621 568.685 36.1542 571.422 Q39.8145 574.16 46.212 574.16 Q52.6095 574.16 56.3017 571.454 Q59.9619 568.717 59.9619 563.974 Q59.9619 559.296 56.2698 556.558 Q52.5777 553.821 46.212 553.821 Q39.8781 553.821 36.186 556.558 Q32.4621 559.296 32.4621 563.974 M27.4968 563.974 Q27.4968 556.336 32.4621 551.975 Q37.4273 547.615 46.212 547.615 Q54.9649 547.615 59.9619 551.975 Q64.9272 556.336 64.9272 563.974 Q64.9272 571.645 59.9619 576.006 Q54.9649 580.334 46.212 580.334 Q37.4273 580.334 32.4621 576.006 Q27.4968 571.645 27.4968 563.974 Z" fill="#000000" fill-rule="nonzero" fill-opacity="1" /><path clip-path="url(#clip510)" d="M33.8307 517.25 Q33.2578 518.237 33.0032 519.415 Q32.7167 520.56 32.7167 521.961 Q32.7167 526.926 35.9632 529.6 Q39.1779 532.241 45.2253 532.241 L64.0042 532.241 L64.0042 538.13 L28.3562 538.13 L28.3562 532.241 L33.8944 532.241 Q30.6479 530.395 29.0883 527.435 Q27.4968 524.475 27.4968 520.242 Q27.4968 519.637 27.5923 518.905 Q27.656 518.173 27.8151 517.282 L33.8307 517.25 Z" fill="#000000" fill-rule="nonzero" fill-opacity="1" /><polyline clip-path="url(#clip512)" style="stroke:#3da44d; stroke-linecap:round; stroke-linejoin:round; stroke-width:4; stroke-opacity:1; fill:none" points="311.302,657.152 313.286,665.23 315.27,673.899 317.254,684.82 319.238,696.997 321.222,706.508 323.206,715.015 325.19,724.445 327.174,734.201 329.158,745.165 331.142,756.092 333.126,767.009 335.11,780.398 337.094,794.031 339.078,809.01 341.062,826.933 343.046,847.262 345.03,869.681 347.014,896.155 348.998,921.707 350.982,938.025 352.966,947.634 354.95,956.982 356.934,969.107 358.918,983.49 360.902,996.258 362.886,1011.73 364.87,1028.13 366.854,1048.17 368.838,1071.51 370.822,1095.47 372.805,1112.43 374.789,1120.47 376.773,1125.8 378.757,1131.24 380.741,1136.24 382.725,1141.29 384.709,1145.29 386.693,1148.53 388.677,1156.3 390.661,1162.96 392.645,1164.32 394.629,1168.45 396.613,1173.01 398.597,1176.22 400.581,1179.4 402.565,1179.82 404.549,1181.69 406.533,1181.06 408.517,1174.83 410.501,1180.92 412.485,1183.04 414.469,1183.61 416.453,1189.18 418.437,1192.31 420.421,1194.66 422.405,1198.29 424.389,1199.12 426.373,1200.11 428.357,1201.8 430.341,1204.55 432.325,1205.33 434.309,1208.27 436.293,1210.91 438.277,1212.31 440.261,1212.78 442.245,1214.58 444.229,1217.39 446.213,1221.5 448.197,1220.79 450.181,1224.03 452.165,1227.16 454.149,1226.89 456.133,1230.17 458.117,1234.93 460.101,1234.81 462.085,1237.69 464.068,1235.98 466.052,1238.46 468.036,1243.68 470.02,1244.32 472.004,1244.44 473.988,1248.05 475.972,1250.17 477.956,1254.34 479.94,1254.69 481.924,1258.67 483.908,1257.66 485.892,1258.17 487.876,1256.52 489.86,1259.11 491.844,1262.36 493.828,1260.57 495.812,1258.74 497.796,1249.37 499.78,1264.56 501.764,1273.76 503.748,1273.51 505.732,1273.1 507.716,1271.61 509.7,1276.47 511.684,1275.62 513.668,1275.53 515.652,1282.84 517.636,1285.89 519.62,1285.79 521.604,1288.74 523.588,1283.94 525.572,1284.86 527.556,1286.17 529.54,1289.99 531.524,1287.87 533.508,1289.99 535.492,1293.56 537.476,1296.63 539.46,1296.78 541.444,1298.83 543.428,1291.96 545.412,1290.58 547.396,1294.37 549.38,1297.15 551.364,1297.99 553.347,1299.41 555.331,1303.15 557.315,1303.65 559.299,1301.4 561.283,1300.92 563.267,1308.06 565.251,1303.48 567.235,1303.04 569.219,1305.16 571.203,1308.47 573.187,1310.81 575.171,1309.87 577.155,1310.34 579.139,1309.4 581.123,1313.88 583.107,1305.55 585.091,1313.21 587.075,1307.89 589.059,1312.31 591.043,1311.65 593.027,1314.43 595.011,1313.88 596.995,1317.17 598.979,1311.83 600.963,1315.05 602.947,1307.37 604.931,1310.58 606.915,1303.54 608.899,1309.17 610.883,1314.07 612.867,1317.48 614.851,1312.01 616.835,1316.6 618.819,1321.93 620.803,1315.36 622.787,1319.85 624.771,1315.79 626.755,1319.59 628.739,1301.4 630.723,1303.15 632.707,1311.11 634.691,1306.74 636.675,1306.97 638.659,1301.29 640.643,1305.44 642.626,1314.37 644.61,1322.39 646.594,1322.2 648.578,1315.61 650.562,1323.26 652.546,1322 654.53,1315.17 656.514,1318.75 658.498,1320.95 660.482,1314.8 662.466,1309.52 664.45,1309.58 666.434,1315.36 668.418,1311.71 670.402,1311.53 672.386,1322.26 674.37,1311.71 676.354,1317.04 678.338,1319.65 680.322,1321.47 682.306,1323.93 684.29,1321.93 686.274,1317.42 688.258,1320.75 690.242,1320.75 692.226,1323.59 694.21,1321.01 696.194,1325 698.178,1329.36 700.162,1330 702.146,1328.59 704.13,1324.4 706.114,1328.38 708.098,1329.08 710.082,1305.16 712.066,1278.2 714.05,1286.45 716.034,1303.65 718.018,1324.06 720.002,1322.86 721.986,1330.79 723.97,1330.43 725.954,1333.91 727.938,1331.72 729.922,1330.71 731.905,1331.72 733.889,1329.43 735.873,1323.19 737.857,1322 739.841,1319.52 741.825,1328.73 743.809,1325.55 745.793,1327.54 747.777,1331.14 749.761,1333.47 751.745,1333.1 753.729,1335.1 755.713,1329.15 757.697,1333.76 759.681,1329.86 761.665,1330.93 763.649,1327.33 765.633,1299.52 767.617,1271.37 769.601,1285.42 771.585,1310.58 773.569,1332.23 775.553,1332.88 777.537,1333.1 779.521,1331.58 781.505,1333.54 783.489,1331.86 785.473,1330.14 787.457,1323.52 789.441,1334.2 791.425,1339.43 793.409,1338.12 795.393,1330.71 797.377,1333.17 799.361,1330.21 801.345,1328.52 803.329,1329.65 805.313,1327.13 807.297,1328.45 809.281,1334.28 811.265,1335.24 813.249,1331.43 815.233,1315.61 817.217,1320.04 819.201,1323.52 821.185,1333.1 823.168,1340.13 825.152,1342.03 827.136,1339.2 829.12,1338.81 831.104,1339.04 833.088,1339.35 835.072,1326.58 837.056,1294.88 839.04,1324.13 841.024,1327.4 843.008,1323.99 844.992,1321.41 846.976,1323.79 848.96,1320.95 850.944,1321.54 852.928,1326.71 854.912,1336.52 856.896,1334.65 858.88,1328.17 860.864,1332.37 862.848,1335.1 864.832,1337.51 866.816,1334.8 868.8,1338.74 870.784,1340.76 872.768,1336.45 874.752,1333.32 876.736,1341.08 878.72,1340.6 880.704,1330.29 882.688,1337.97 884.672,1337.05 886.656,1339.98 888.64,1340.76 890.624,1339.04 892.608,1341.71 894.592,1339.59 896.576,1329.79 898.56,1327.96 900.544,1330.79 902.528,1326.44 904.512,1330.21 906.496,1331.14 908.48,1328.31 910.464,1333.91 912.447,1309.81 914.431,1329.29 916.415,1334.87 918.399,1336.22 920.383,1337.05 922.367,1339.98 924.351,1338.27 926.335,1350.3 928.319,1348.76 930.303,1345.26 932.287,1342.59 934.271,1336.67 936.255,1341.71 938.239,1340.53 940.223,1338.97 942.207,1346.91 944.191,1343.95 946.175,1339.98 948.159,1343.55 950.143,1341.95 952.127,1344.77 954.111,1314.8 956.095,1305.66 958.079,1335.77 960.063,1344.28 962.047,1341.95 964.031,1344.85 966.015,1341.08 967.999,1343.95 969.983,1345.42 971.967,1341.15 973.951,1343.63 975.935,1348.17 977.919,1342.83 979.903,1341.15 981.887,1349.27 983.871,1343.87 985.855,1341.79 987.839,1328.66 989.823,1341 991.807,1343.63 993.791,1333.98 995.775,1334.43 997.759,1332.3 999.743,1322.13 1001.73,1285.89 1003.71,1291.66 1005.69,1299.57 1007.68,1333.39 1009.66,1343.23 1011.65,1345.67 1013.63,1348 1015.61,1354.33 1017.6,1346.83 1019.58,1341.63 1021.57,1347.92 1023.55,1346 1025.53,1344.44 1027.52,1344.04 1029.5,1342.19 1031.49,1343.95 1033.47,1348.76 1035.45,1348.34 1037.44,1344.04 1039.42,1349.19 1041.41,1347.58 1043.39,1347.92 1045.37,1349.53 1047.36,1343.07 1049.34,1344.28 1051.33,1339.28 1053.31,1336.52 1055.29,1336.37 1057.28,1331.86 1059.26,1338.27 1061.25,1346.66 1063.23,1347.08 1065.21,1347.75 1067.2,1349.02 1069.18,1347.33 1071.17,1348.25 1073.15,1354.16 1075.13,1355.5 1077.12,1353.71 1079.1,1349.7 1081.09,1348.17 1083.07,1348.25 1085.05,1342.51 1087.04,1349.87 1089.02,1346.41 1091.01,1337.89 1092.99,1341.15 1094.97,1352.65 1096.96,1351.34 1098.94,1345.51 1100.93,1343.47 1102.91,1336.14 1104.89,1341.15 1106.88,1349.79 1108.86,1353.89 1110.85,1347.92 1112.83,1353.27 1114.81,1347.67 1116.8,1350.3 1118.78,1337.51 1120.77,1339.28 1122.75,1339.82 1124.73,1353.44 1126.72,1356.32 1128.7,1356.14 1130.69,1348.68 1132.67,1342.91 1134.65,1351.08 1136.64,1349.02 1138.62,1319.97 1140.6,1287.78 1142.59,1288.06 1144.57,1323.99 1146.56,1337.66 1148.54,1341.95 1150.52,1334.2 1152.51,1340.6 1154.49,1350.3 1156.48,1349.02 1158.46,1357.42 1160.44,1356.87 1162.43,1353.71 1164.41,1358.34 1166.4,1346.91 1168.38,1343.95 1170.36,1338.5 1172.35,1331.07 1174.33,1329.43 1176.32,1351.6 1178.3,1357.42 1180.28,1357.42 1182.27,1356.23 1184.25,1353.36 1186.24,1352.83 1188.22,1354.87 1190.2,1347.25 1192.19,1342.67 1194.17,1347.67 1196.16,1351.77 1198.14,1358.16 1200.12,1353.89 1202.11,1357.69 1204.09,1352.21 1206.08,1354.42 1208.06,1357.97 1210.04,1357.23 1212.03,1360.4 1214.01,1360.88 1216,1354.51 1217.98,1352.04 1219.96,1347.92 1221.95,1341.95 1223.93,1354.69 1225.92,1358.25 1227.9,1355.32 1229.88,1359.84 1231.87,1358.99 1233.85,1355.86 1235.84,1353.09 1237.82,1350.39 1239.8,1351.95 1241.79,1353.44 1243.77,1348.34 1245.76,1352.3 1247.74,1356.14 1249.72,1361.74 1251.71,1348.76 1253.69,1346.66 1255.68,1342.03 1257.66,1324.4 1259.64,1319.91 1261.63,1331.36 1263.61,1337.97 1265.6,1350.9 1267.58,1350.39 1269.56,1343.23 1271.55,1343.31 1273.53,1337.36 1275.52,1340.68 1277.5,1341.79 1279.48,1350.99 1281.47,1351.42 1283.45,1349.53 1285.44,1358.53 1287.42,1360.88 1289.4,1360.97 1291.39,1356.41 1293.37,1349.19 1295.36,1357.6 1297.34,1366.44 1299.32,1361.26 1301.31,1362.12 1303.29,1361.07 1305.28,1351.69 1307.26,1292.76 1309.24,1289.7 1311.23,1308.47 1313.21,1332.96 1315.19,1351.08 1317.18,1364.65 1319.16,1359.56 1321.15,1351.16 1323.13,1351.42 1325.11,1352.04 1327.1,1359.74 1329.08,1361.83 1331.07,1363.77 1333.05,1360.12 1335.03,1353.62 1337.02,1358.71 1339,1365.05 1340.99,1354.51 1342.97,1361.55 1344.95,1354.78 1346.94,1359.56 1348.92,1362.41 1350.91,1355.96 1352.89,1357.69 1354.87,1357.69 1356.86,1358.34 1358.84,1352.65 1360.83,1330.5 1362.81,1291.96 1364.79,1341.39 1366.78,1355.68 1368.76,1359.18 1370.75,1361.55 1372.73,1344.77 1374.71,1354.87 1376.7,1343.47 1378.68,1347.25 1380.67,1365.15 1382.65,1363.77 1384.63,1363.57 1386.62,1368.98 1388.6,1364.65 1390.59,1364.85 1392.57,1361.55 1394.55,1346.91 1396.54,1354.6 1398.52,1362.31 1400.51,1368.16 1402.49,1367.25 1404.47,1363.09 1406.46,1367.15 1408.44,1358.25 1410.43,1361.64 1412.41,1351.25 1414.39,1346.17 1416.38,1350.13 1418.36,1346.08 1420.35,1353.53 1422.33,1362.03 1424.31,1362.8 1426.3,1354.87 1428.28,1357.51 1430.27,1361.64 1432.25,1357.6 1434.23,1359.27 1436.22,1355.32 1438.2,1350.82 1440.19,1351.08 1442.17,1365.25 1444.15,1355.14 1446.14,1354.96 1448.12,1359.65 1450.11,1359.37 1452.09,1363.77 1454.07,1357.05 1456.06,1354.07 1458.04,1364.95 1460.03,1364.75 1462.01,1369.39 1463.99,1349.7 1465.98,1290.39 1467.96,1302.49 1469.95,1330.86 1471.93,1355.68 1473.91,1365.54 1475.9,1362.6 1477.88,1364.65 1479.87,1367.55 1481.85,1370.94 1483.83,1371.57 1485.82,1368.26 1487.8,1367.15 1489.79,1360.88 1491.77,1365.25 1493.75,1366.34 1495.74,1364.65 1497.72,1366.24 1499.7,1371.94 1501.69,1344.52 1503.67,1342.75 1505.66,1338.5 1507.64,1348.68 1509.62,1346.66 1511.61,1349.1 1513.59,1357.23 1515.58,1362.31 1517.56,1366.54 1519.54,1365.05 1521.53,1357.51 1523.51,1360.12 1525.5,1366.24 1527.48,1371 1529.46,1365.54 1531.45,1356.59 1533.43,1356.32 1535.42,1361.55 1537.4,1365.84 1539.38,1374.02 1541.37,1371.36 1543.35,1364.36 1545.34,1366.64 1547.32,1363.19 1549.3,1365.35 1551.29,1366.94 1553.27,1365.35 1555.26,1354.51 1557.24,1355.59 1559.22,1358.53 1561.21,1362.22 1563.19,1356.87 1565.18,1347.5 1567.16,1369.7 1569.14,1370.63 1571.13,1368.77 1573.11,1370.94 1575.1,1361.93 1577.08,1372.9 1579.06,1364.85 1581.05,1369.49 1583.03,1359.27 1585.02,1363.09 1587,1343.79 1588.98,1355.05 1590.97,1353.8 1592.95,1344.6 1594.94,1356.87 1596.92,1360.78 1598.9,1371.21 1600.89,1370.37 1602.87,1370.84 1604.86,1370.11 1606.84,1365.74 1608.82,1328.73 1610.81,1368.77 1612.79,1370.37 1614.78,1366.94 1616.76,1371.47 1618.74,1366.14 1620.73,1359.46 1622.71,1367.65 1624.7,1356.68 1626.68,1359.93 1628.66,1362.03 1630.65,1343.55 1632.63,1344.36 1634.62,1348.17 1636.6,1355.23 1638.58,1371.21 1640.57,1366.34 1642.55,1371 1644.54,1371 1646.52,1364.55 1648.5,1367.65 1650.49,1369.7 1652.47,1371.1 1654.46,1370.94 1656.44,1370.94 1658.42,1374.72 1660.41,1363.67 1662.39,1350.9 1664.38,1339.82 1666.36,1353.53 1668.34,1371.31 1670.33,1370.37 1672.31,1370.74 1674.29,1373.54 1676.28,1363.09 1678.26,1367.04 1680.25,1366.04 1682.23,1359.56 1684.21,1354.78 1686.2,1351.86 1688.18,1346.58 1690.17,1343.63 1692.15,1340.84 1694.13,1343.87 1696.12,1342.19 1698.1,1344.04 1700.09,1365.44 1702.07,1376.14 1704.05,1377.02 1706.04,1374.61 1708.02,1359.65 1710.01,1366.94 1711.99,1358.25 1713.97,1351.95 1715.96,1352.74 1717.94,1357.42 1719.93,1353.71 1721.91,1365.54 1723.89,1365.94 1725.88,1371.31 1727.86,1370.01 1729.85,1370.01 1731.83,1371.84 1733.81,1368.87 1735.8,1369.49 1737.78,1371.36 1739.77,1371.36 1741.75,1362.12 1743.73,1372.9 1745.72,1367.55 1747.7,1369.7 1749.69,1359.37 1751.67,1372.52 1753.65,1373.75 1755.64,1356.78 1757.62,1351.77 1759.61,1345.67 1761.59,1340.76 1763.57,1318.5 1765.56,1351.51 1767.54,1366.04 1769.53,1363.38 1771.51,1373.65 1773.49,1371.68 1775.48,1376.14 1777.46,1371.47 1779.45,1367.35 1781.43,1368.46 1783.41,1364.65 1785.4,1368.26 1787.38,1371.68 1789.37,1368.36 1791.35,1371.78 1793.33,1363.57 1795.32,1366.14 1797.3,1371.57 1799.29,1368.26 1801.27,1370.16 1803.25,1372.42 1805.24,1370.48 1807.22,1360.12 1809.21,1364.26 1811.19,1355.32 1813.17,1356.05 1815.16,1350.65 1817.14,1345.92 1819.13,1354.16 1821.11,1358.53 1823.09,1356.05 1825.08,1361.45 1827.06,1369.59 1829.05,1373.65 1831.03,1367.65 1833.01,1365.44 1835,1371.31 1836.98,1359.46 1838.97,1372.63 1840.95,1376.64 1842.93,1374.61 1844.92,1374.89 1846.9,1370.74 1848.89,1361.55 1850.87,1371.68 1852.85,1372.63 1854.84,1374.4 1856.82,1373.38 1858.8,1365.94 1860.79,1364.75 1862.77,1368.67 1864.76,1366.14 1866.74,1373.06 1868.72,1373.48 1870.71,1375.76 1872.69,1379.32 1874.68,1367.55 1876.66,1371.68 1878.64,1371.68 1880.63,1365.25 1882.61,1371.1 1884.6,1352.74 1886.58,1348.68 1888.56,1348.85 1890.55,1367.04 1892.53,1366.04 1894.52,1368.46 1896.5,1368.98 1898.48,1369.08 1900.47,1369.59 1902.45,1365.94 1904.44,1373.27 1906.42,1374.24 1908.4,1374.24 1910.39,1356.32 1912.37,1366.14 1914.36,1371.84 1916.34,1373.65 1918.32,1372.52 1920.31,1374.99 1922.29,1376.97 1924.28,1371.94 1926.26,1369.29 1928.24,1375.21 1930.23,1372.21 1932.21,1377.13 1934.2,1368.67 1936.18,1360.59 1938.16,1360.31 1940.15,1351.16 1942.13,1357.33 1944.12,1378.02 1946.1,1373.38 1948.08,1362.8 1950.07,1364.16 1952.05,1365.84 1954.04,1373.06 1956.02,1379.2 1958,1377.36 1959.99,1370.16 1961.97,1365.64 1963.96,1365.05 1965.94,1375.87 1967.92,1370.37 1969.91,1377.86 1971.89,1375.98 1973.88,1369.18 1975.86,1376.47 1977.84,1351.25 1979.83,1323.52 1981.81,1291.57 1983.8,1302.11 1985.78,1365.25 1987.76,1374.13 1989.75,1378.64 1991.73,1372.15 1993.72,1377.52 1995.7,1378.81 1997.68,1375.65 1999.67,1378.42 2001.65,1375.87 2003.64,1374.4 2005.62,1373.27 2007.6,1378.53 2009.59,1378.53 2011.57,1376.47 2013.56,1378.53 2015.54,1378.53 2017.52,1375.59 2019.51,1374.61 2021.49,1362.22 2023.48,1363.87 2025.46,1367.45 2027.44,1380.06 2029.43,1379.71 2031.41,1375.21 2033.39,1370.74 2035.38,1368.26 2037.36,1366.44 2039.35,1357.33 2041.33,1366.24 2043.31,1366.64 2045.3,1378.14 2047.28,1376.09 2049.27,1374.89 2051.25,1357.05 2053.23,1353.09 2055.22,1367.35 2057.2,1373.86 2059.19,1377.36 2061.17,1372.05 2063.15,1374.51 2065.14,1376.97 2067.12,1377.91 2069.11,1371.47 2071.09,1370.63 2073.07,1380.34 2075.06,1375.76 2077.04,1371.36 2079.03,1379.94 2081.01,1383 2082.99,1380.34 2084.98,1350.9 2086.96,1366.74 2088.95,1368.77 2090.93,1342.51 2092.91,1310.81 2094.9,1360.78 2096.88,1373.27 2098.87,1367.15 2100.85,1375.76 2102.83,1378.3 2104.82,1371.47 2106.8,1378.75 2108.79,1370.84 2110.77,1368.06 2112.75,1364.55 2114.74,1356.59 2116.72,1349.02 2118.71,1353.89 2120.69,1358.34 2122.67,1360.03 2124.66,1353.44 2126.64,1356.05 2128.63,1371.47 2130.61,1383.94 2132.59,1373.06 2134.58,1369.7 2136.56,1375.87 2138.55,1362.41 2140.53,1371.31 2142.51,1377.36 2144.5,1379.71 2146.48,1377.91 2148.47,1375.59 2150.45,1378.53 2152.43,1380.34 2154.42,1383.12 2156.4,1378.02 2158.39,1384.24 2160.37,1380.34 2162.35,1377.41 2164.34,1374.99 2166.32,1359.27 2168.31,1275.79 2170.29,1293.97 2172.27,1294.17 2174.26,1319.59 2176.24,1314.13 2178.23,1357.05 2180.21,1368.87 2182.19,1370.63 2184.18,1372.63 2186.16,1374.78 2188.15,1372.05 2190.13,1379.43 2192.11,1371.94 2194.1,1368.67 2196.08,1357.6 2198.07,1356.87 2200.05,1358.62 2202.03,1355.59 2204.02,1364.95 2206,1380.57 2207.99,1380.74 2209.97,1381.14 2211.95,1372.9 2213.94,1378.64 2215.92,1364.95 2217.9,1374.72 2219.89,1373.91 2221.87,1376.75 2223.86,1382.48 2225.84,1378.75 2227.82,1378.81 2229.81,1370.16 2231.79,1367.55 2233.78,1371.78 2235.76,1371.31 2237.74,1374.61 2239.73,1376.86 2241.71,1361.07 2243.7,1355.59 2245.68,1350.65 2247.66,1354.33 2249.65,1374.89 2251.63,1375.87 2253.62,1379.71 2255.6,1367.04 2257.58,1364.06 2259.57,1367.04 2261.55,1377.63 2263.54,1373.27 2265.52,1377.36 2267.5,1376.47 2269.49,1370.63 2271.47,1381.37 2273.46,1378.75 2275.44,1374.34 2277.42,1377.24 2279.41,1377.36 2281.39,1375.21 2283.38,1346.58 2285.36,1348.68 2287.34,1351.6 2289.33,1355.68 2291.31,1357.23 2293.3,1371.57 "/>
<polyline clip-path="url(#clip512)" style="stroke:#e26f46; stroke-linecap:round; stroke-linejoin:round; stroke-width:4; stroke-opacity:1; fill:none" points="311.302,86.1857 313.286,90.6131 315.27,94.0191 317.254,98.4575 319.238,101.523 321.222,104.502 323.206,107.842 325.19,110.63 327.174,112.626 329.158,116.734 331.142,119.871 333.126,123.211 335.11,124.813 337.094,129.32 339.078,131.648 341.062,135.565 343.046,137.185 345.03,140.689 347.014,143.862 348.998,146.536 350.982,149.823 352.966,152.654 354.95,156.139 356.934,157.742 358.918,160.494 360.902,164.018 362.886,166.222 364.87,168.635 366.854,172.868 368.838,175.179 370.822,177.808 372.805,181.05 374.789,183.831 376.773,186.397 378.757,190.516 380.741,192.944 382.725,196.323 384.709,199.377 386.693,202.803 388.677,205.303 390.661,208.335 392.645,211.946 394.629,214.423 396.613,217.732 398.597,220.748 400.581,224.815 402.565,227.404 404.549,230.421 406.533,233.451 408.517,237.034 410.501,239.387 412.485,243.428 414.469,246.181 416.453,248.316 418.437,251.025 420.421,253.804 422.405,256.751 424.389,258.827 426.373,260.652 428.357,264.199 430.341,266.94 432.325,269.912 434.309,272.48 436.293,274.891 438.277,277.813 440.261,279.651 442.245,283.428 444.229,285.551 446.213,288.534 448.197,290.828 450.181,293.899 452.165,295.974 454.149,298.644 456.133,301.241 458.117,304.342 460.101,307.234 462.085,308.596 464.068,311.844 466.052,314.226 468.036,316.91 470.02,319.749 472.004,322.405 473.988,325.218 475.972,327.651 477.956,329.954 479.94,332.882 481.924,334.523 483.908,337.782 485.892,340.32 487.876,342.237 489.86,344.993 491.844,347.601 493.828,351.353 495.812,353.657 497.796,355.006 499.78,358.423 501.764,361.138 503.748,364.117 505.732,366.589 507.716,368.985 509.7,371.989 511.684,374.866 513.668,378.191 515.652,381.699 517.636,383.151 519.62,386.115 521.604,388.921 523.588,391.386 525.572,394.252 527.556,396.846 529.54,398.968 531.524,402.325 533.508,404.75 535.492,407.521 537.476,410.168 539.46,412.679 541.444,415.251 543.428,418.207 545.412,421.194 547.396,423.645 549.38,426.27 551.364,428.606 553.347,432.639 555.331,434.06 557.315,436.322 559.299,439.481 561.283,442.132 563.267,447.076 565.251,449.998 567.235,451.821 569.219,455.258 571.203,457.638 573.187,460.951 575.171,463.465 577.155,467.138 579.139,469.805 581.123,472.183 583.107,474.708 585.091,478.327 587.075,480.907 589.059,484.447 591.043,487.594 593.027,489.675 595.011,493.854 596.995,496.51 598.979,498.432 600.963,501.5 602.947,503.456 604.931,506.984 606.915,509.361 608.899,511.663 610.883,514.016 612.867,516.761 614.851,519.371 616.835,522.188 618.819,523.843 620.803,527.307 622.787,529.045 624.771,531.199 626.755,533.081 628.739,536.049 630.723,538.269 632.707,540.197 634.691,542.766 636.675,544.956 638.659,547.826 640.643,549.107 642.626,551.621 644.61,553.811 646.594,556.145 648.578,558.231 650.562,561.283 652.546,561.852 654.53,564.214 656.514,566.033 658.498,568.215 660.482,570.105 662.466,571.915 664.45,573.467 666.434,575.513 668.418,577.419 670.402,579.237 672.386,580.839 674.37,581.524 676.354,583.989 678.338,585.925 680.322,586.709 682.306,588.896 684.29,590.176 686.274,591.816 688.258,592.923 690.242,594.323 692.226,596.029 694.21,597.616 696.194,599.081 698.178,599.302 700.162,601.617 702.146,603.215 704.13,603.83 706.114,604.604 708.098,606.326 710.082,608.077 712.066,608.56 714.05,610.103 716.034,611.254 718.018,612.085 720.002,612.837 721.986,615.043 723.97,615.472 725.954,616.945 727.938,617.47 729.922,618.616 731.905,620.494 733.889,621.491 735.873,622.866 737.857,623.979 739.841,625.387 741.825,627.486 743.809,628.163 745.793,630.715 747.777,633.026 749.761,635.283 751.745,638.228 753.729,640.383 755.713,643.196 757.697,644.602 759.681,647.705 761.665,650.123 763.649,653.272 765.633,655.759 767.617,658.694 769.601,660.718 771.585,663.253 773.569,666.128 775.553,669.154 777.537,670.954 779.521,674.123 781.505,675.63 783.489,680.046 785.473,682.609 787.457,686.572 789.441,689.732 791.425,693.078 793.409,694.248 795.393,698.492 797.377,701.259 799.361,704.198 801.345,708.146 803.329,710.809 805.313,715.401 807.297,717.859 809.281,720.433 811.265,724.505 813.249,726.878 815.233,731.146 817.217,733.478 819.201,736.264 821.185,741.713 823.168,744.147 825.152,747.456 827.136,750.104 829.12,752.977 831.104,756.742 833.088,760.392 835.072,763.475 837.056,766.651 839.04,771.599 841.024,773.779 843.008,777.483 844.992,780.909 846.976,784.928 848.96,788.278 850.944,791.568 852.928,794.963 854.912,798.833 856.896,802.348 858.88,806.113 860.864,808.478 862.848,812.54 864.832,816.836 866.816,819.456 868.8,823.128 870.784,826.696 872.768,830.306 874.752,833.622 876.736,837.656 878.72,840.672 880.704,844.521 882.688,847.838 884.672,851.962 886.656,855.111 888.64,858.624 890.624,862.367 892.608,866.361 894.592,870.632 896.576,873.967 898.56,877.792 900.544,881.497 902.528,885.061 904.512,888.749 906.496,892.131 908.48,895.927 910.464,898.846 912.447,901.768 914.431,905.351 916.415,908.205 918.399,911.226 920.383,914.335 922.367,917.538 924.351,920.458 926.335,923.167 928.319,926.349 930.303,928.491 932.287,931.416 934.271,933.501 936.255,936.071 938.239,937.912 940.223,940.65 942.207,943.104 944.191,945.134 946.175,946.896 948.159,948.689 950.143,950.766 952.127,951.275 954.111,951.98 956.095,952.173 958.079,952.754 960.063,952.949 962.047,953.861 964.031,953.469 966.015,953.209 967.999,952.949 969.983,952.819 971.967,953.992 973.951,953.274 975.935,954.189 977.919,953.665 979.903,953.404 981.887,953.274 983.871,954.189 985.855,954.452 987.839,953.992 989.823,954.452 991.807,954.189 993.791,953.469 995.775,953.469 997.759,953.861 999.743,954.847 1001.73,954.254 1003.71,953.861 1005.69,954.452 1007.68,954.452 1009.66,954.123 1011.65,954.452 1013.63,954.913 1015.61,955.311 1017.6,954.517 1019.58,953.926 1021.57,954.32 1023.55,954.847 1025.53,954.583 1027.52,955.51 1029.5,954.452 1031.49,954.189 1033.47,954.452 1035.45,954.386 1037.44,955.046 1039.42,954.386 1041.41,955.443 1043.39,954.715 1045.37,954.583 1047.36,955.311 1049.34,954.913 1051.33,954.913 1053.31,954.452 1055.29,955.178 1057.28,954.649 1059.26,955.709 1061.25,954.649 1063.23,955.51 1065.21,954.913 1067.2,955.443 1069.18,954.979 1071.17,955.046 1073.15,955.976 1075.13,954.649 1077.12,954.847 1079.1,954.386 1081.09,954.913 1083.07,955.443 1085.05,955.51 1087.04,954.847 1089.02,954.979 1091.01,955.709 1092.99,955.51 1094.97,955.311 1096.96,956.043 1098.94,954.583 1100.93,955.976 1102.91,954.847 1104.89,955.443 1106.88,955.178 1108.86,954.517 1110.85,955.643 1112.83,955.909 1114.81,955.443 1116.8,955.576 1118.78,955.643 1120.77,956.043 1122.75,956.11 1124.73,955.843 1126.72,955.643 1128.7,956.243 1130.69,955.776 1132.67,955.643 1134.65,955.51 1136.64,955.643 1138.62,955.377 1140.6,956.377 1142.59,954.913 1144.57,956.177 1146.56,955.976 1148.54,955.976 1150.52,955.443 1152.51,956.377 1154.49,955.776 1156.48,956.11 1158.46,956.043 1160.44,955.576 1162.43,956.444 1164.41,956.78 1166.4,956.243 1168.38,956.713 1170.36,957.185 1172.35,956.243 1174.33,956.511 1176.32,957.591 1178.3,956.915 1180.28,956.579 1182.27,956.915 1184.25,956.713 1186.24,956.982 1188.22,955.976 1190.2,956.377 1192.19,956.511 1194.17,955.776 1196.16,955.776 1198.14,956.511 1200.12,957.05 1202.11,957.252 1204.09,957.252 1206.08,956.713 1208.06,956.511 1210.04,957.726 1212.03,957.523 1214.01,956.847 1216,957.32 1217.98,957.658 1219.96,956.713 1221.95,957.523 1223.93,957.117 1225.92,956.444 1227.9,957.794 1229.88,956.377 1231.87,957.591 1233.85,957.252 1235.84,957.523 1237.82,957.93 1239.8,958.134 1241.79,957.591 1243.77,957.591 1245.76,957.862 1247.74,957.05 1249.72,957.32 1251.71,957.523 1253.69,957.523 1255.68,957.117 1257.66,956.78 1259.64,956.78 1261.63,958.544 1263.61,957.591 1265.6,957.05 1267.58,956.982 1269.56,956.982 1271.55,957.05 1273.53,958.339 1275.52,958.407 1277.5,958.339 1279.48,956.847 1281.47,957.862 1283.45,957.794 1285.44,958.612 1287.42,958.066 1289.4,958.134 1291.39,958.681 1293.37,957.591 1295.36,958.066 1297.34,958.134 1299.32,957.93 1301.31,958.134 1303.29,957.658 1305.28,957.658 1307.26,956.646 1309.24,957.658 1311.23,957.862 1313.21,958.407 1315.19,958.681 1317.18,958.202 1319.16,958.749 1321.15,958.681 1323.13,958.407 1325.11,958.681 1327.1,958.339 1329.08,958.818 1331.07,958.749 1333.05,959.644 1335.03,959.713 1337.02,959.506 1339,958.681 1340.99,958.818 1342.97,958.066 1344.95,958.681 1346.94,958.749 1348.92,958.407 1350.91,959.23 1352.89,959.024 1354.87,959.575 1356.86,959.23 1358.84,959.299 1360.83,959.161 1362.81,959.437 1364.79,959.713 1366.78,959.024 1368.76,959.368 1370.75,959.644 1372.73,959.23 1374.71,959.506 1376.7,959.782 1378.68,959.575 1380.67,958.955 1382.65,959.851 1384.63,958.955 1386.62,960.198 1388.6,960.198 1390.59,959.921 1392.57,959.368 1394.55,959.782 1396.54,959.575 1398.52,959.851 1400.51,959.644 1402.49,960.337 1404.47,960.268 1406.46,959.921 1408.44,959.782 1410.43,959.782 1412.41,959.782 1414.39,959.368 1416.38,960.337 1418.36,959.506 1420.35,959.437 1422.33,960.546 1424.31,959.644 1426.3,960.407 1428.28,959.575 1430.27,959.99 1432.25,960.198 1434.23,960.198 1436.22,960.198 1438.2,960.129 1440.19,960.059 1442.17,959.782 1444.15,959.368 1446.14,960.129 1448.12,960.059 1450.11,960.337 1452.09,960.755 1454.07,960.059 1456.06,960.337 1458.04,959.782 1460.03,961.105 1462.01,960.546 1463.99,961.386 1465.98,960.825 1467.96,960.476 1469.95,960.337 1471.93,961.386 1473.91,960.407 1475.9,960.407 1477.88,961.456 1479.87,960.198 1481.85,960.129 1483.83,960.476 1485.82,960.407 1487.8,961.315 1489.79,960.895 1491.77,960.895 1493.75,961.386 1495.74,960.407 1497.72,961.105 1499.7,960.755 1501.69,960.825 1503.67,960.476 1505.66,961.456 1507.64,961.175 1509.62,961.245 1511.61,961.315 1513.59,961.597 1515.58,961.597 1517.56,961.597 1519.54,960.895 1521.53,961.245 1523.51,961.667 1525.5,961.526 1527.48,961.456 1529.46,961.526 1531.45,961.315 1533.43,961.456 1535.42,961.456 1537.4,961.949 1539.38,962.374 1541.37,962.232 1543.35,962.091 1545.34,962.8 1547.32,962.232 1549.3,962.091 1551.29,962.091 1553.27,961.879 1555.26,962.232 1557.24,962.445 1559.22,961.456 1561.21,960.895 1563.19,961.738 1565.18,962.445 1567.16,961.949 1569.14,961.667 1571.13,962.161 1573.11,963.157 1575.1,961.879 1577.08,961.526 1579.06,962.02 1581.05,962.02 1583.03,962.161 1585.02,962.374 1587,962.587 1588.98,962.02 1590.97,963.014 1592.95,962.232 1594.94,962.02 1596.92,961.808 1598.9,962.374 1600.89,962.871 1602.87,962.374 1604.86,962.871 1606.84,962.943 1608.82,962.658 1610.81,963.014 1612.79,963.157 1614.78,963.157 1616.76,962.8 1618.74,962.516 1620.73,962.02 1622.71,962.729 1624.7,963.228 1626.68,963.515 1628.66,962.658 1630.65,963.014 1632.63,961.949 1634.62,961.949 1636.6,963.157 1638.58,963.085 1640.57,962.871 1642.55,963.3 1644.54,963.157 1646.52,963.014 1648.5,963.586 1650.49,963.443 1652.47,963.73 1654.46,963.515 1656.44,963.802 1658.42,964.378 1660.41,964.378 1662.39,963.802 1664.38,964.595 1666.36,964.306 1668.34,964.018 1670.33,964.018 1672.31,964.234 1674.29,964.958 1676.28,964.09 1678.26,964.451 1680.25,964.595 1682.23,964.668 1684.21,965.031 1686.2,964.885 1688.18,964.523 1690.17,964.523 1692.15,965.031 1694.13,965.103 1696.12,965.322 1698.1,965.249 1700.09,965.907 1702.07,966.054 1704.05,965.687 1706.04,966.2 1708.02,966.054 1710.01,965.833 1711.99,965.322 1713.97,965.76 1715.96,966.2 1717.94,966.054 1719.93,965.833 1721.91,965.687 1723.89,966.421 1725.88,967.383 1727.86,966.938 1729.85,967.458 1731.83,966.421 1733.81,966.348 1735.8,967.012 1737.78,967.012 1739.77,967.012 1741.75,967.161 1743.73,967.681 1745.72,967.458 1747.7,967.012 1749.69,967.235 1751.67,967.235 1753.65,966.716 1755.64,966.642 1757.62,967.086 1759.61,967.532 1761.59,967.012 1763.57,967.905 1765.56,968.055 1767.54,968.429 1769.53,967.607 1771.51,968.805 1773.49,968.204 1775.48,968.055 1777.46,969.032 1779.45,969.107 1781.43,968.655 1783.41,968.204 1785.4,968.504 1787.38,968.58 1789.37,968.354 1791.35,968.881 1793.33,969.183 1795.32,969.637 1797.3,969.107 1799.29,968.655 1801.27,969.561 1803.25,969.561 1805.24,969.486 1807.22,969.258 1809.21,969.032 1811.19,969.41 1813.17,969.486 1815.16,969.942 1817.14,970.247 1819.13,969.637 1821.11,970.4 1823.09,970.17 1825.08,969.942 1827.06,970.17 1829.05,969.713 1831.03,970.936 1833.01,971.244 1835,971.167 1836.98,971.476 1838.97,971.476 1840.95,970.936 1842.93,970.936 1844.92,971.785 1846.9,972.096 1848.89,972.251 1850.87,971.785 1852.85,971.708 1854.84,971.785 1856.82,971.476 1858.8,971.863 1860.79,972.096 1862.77,972.563 1864.76,972.096 1866.74,971.63 1868.72,971.167 1870.71,971.708 1872.69,970.859 1874.68,972.407 1876.66,972.096 1878.64,972.096 1880.63,973.268 1882.61,972.641 1884.6,973.033 1886.58,973.347 1888.56,972.798 1890.55,973.111 1892.53,973.662 1894.52,973.82 1896.5,973.583 1898.48,974.215 1900.47,974.374 1902.45,974.772 1904.44,974.295 1906.42,974.692 1908.4,974.453 1910.39,974.533 1912.37,974.931 1914.36,975.331 1916.34,975.813 1918.32,975.091 1920.31,975.733 1922.29,974.772 1924.28,975.572 1926.26,975.733 1928.24,975.813 1930.23,975.171 1932.21,975.331 1934.2,975.331 1936.18,975.894 1938.16,975.091 1940.15,976.216 1942.13,976.946 1944.12,976.946 1946.1,977.109 1948.08,977.354 1950.07,977.191 1952.05,977.191 1954.04,976.621 1956.02,976.946 1958,976.784 1959.99,976.865 1961.97,976.621 1963.96,977.681 1965.94,977.927 1967.92,977.845 1969.91,978.091 1971.89,977.272 1973.88,978.421 1975.86,977.927 1977.84,978.586 1979.83,978.669 1981.81,977.845 1983.8,977.517 1985.78,977.763 1987.76,977.927 1989.75,978.256 1991.73,977.763 1993.72,978.503 1995.7,978.586 1997.68,979.833 1999.67,979.749 2001.65,979.332 2003.64,979.166 2005.62,980.168 2007.6,980.42 2009.59,980.168 2011.57,979.833 2013.56,979.749 2015.54,981.179 2017.52,980 2019.51,981.179 2021.49,980.588 2023.48,980.504 2025.46,981.179 2027.44,980.841 2029.43,981.348 2031.41,981.01 2033.39,981.859 2035.38,982.2 2037.36,982.457 2039.35,982.371 2041.33,982.457 2043.31,982.542 2045.3,982.114 2047.28,982.2 2049.27,982.114 2051.25,981.688 2053.23,981.688 2055.22,982.371 2057.2,982.8 2059.19,983.577 2061.17,983.49 2063.15,984.098 2065.14,983.924 2067.12,983.924 2069.11,984.621 2071.09,984.272 2073.07,984.884 2075.06,984.272 2077.04,984.359 2079.03,985.147 2081.01,985.323 2082.99,984.709 2084.98,985.323 2086.96,985.676 2088.95,985.676 2090.93,984.884 2092.91,986.119 2094.9,986.474 2096.88,986.119 2098.87,985.323 2100.85,985.941 2102.83,986.385 2104.82,986.296 2106.8,987.01 2108.79,986.385 2110.77,986.296 2112.75,986.03 2114.74,986.742 2116.72,987.458 2118.71,987.818 2120.69,987.458 2122.67,987.189 2124.66,987.818 2126.64,987.189 2128.63,987.368 2130.61,987.728 2132.59,988.996 2134.58,988.905 2136.56,989.453 2138.55,988.905 2140.53,989.179 2142.51,989.545 2144.5,990.004 2146.48,989.636 2148.47,989.912 2150.45,990.004 2152.43,990.465 2154.42,991.021 2156.4,990.373 2158.39,990.557 2160.37,990.928 2162.35,991.393 2164.34,990.835 2166.32,991.207 2168.31,991.207 2170.29,991.3 2172.27,991.486 2174.26,991.393 2176.24,991.021 2178.23,990.373 2180.21,991.486 2182.19,991.114 2184.18,992.236 2186.16,992.142 2188.15,992.612 2190.13,992.612 2192.11,992.518 2194.1,993.275 2196.08,993.275 2198.07,993.18 2200.05,992.896 2202.03,993.18 2204.02,992.896 2206,994.708 2207.99,994.804 2209.97,994.228 2211.95,994.132 2213.94,994.612 2215.92,994.9 2217.9,994.9 2219.89,995.48 2221.87,995.577 2223.86,996.258 2225.84,995.674 2227.82,995.674 2229.81,996.161 2231.79,996.944 2233.78,996.454 2235.76,996.65 2237.74,996.258 2239.73,997.832 2241.71,997.239 2243.7,996.748 2245.68,996.356 2247.66,998.428 2249.65,998.03 2251.63,998.328 2253.62,998.13 2255.6,999.028 2257.58,999.63 2259.57,998.827 2261.55,999.329 2263.54,998.528 2265.52,999.028 2267.5,999.329 2269.49,999.63 2271.47,1000.64 2273.46,1000.14 2275.44,1000.74 2277.42,1000.95 2279.41,999.832 2281.39,999.832 2283.38,1001.97 2285.36,1002.08 2287.34,1001.26 2289.33,1001.26 2291.31,1003.43 2293.3,1003.43 "/>
<path clip-path="url(#clip510)" d="M1784.79 248.629 L2282.73 248.629 L2282.73 93.1086 L1784.79 93.1086  Z" fill="#ffffff" fill-rule="evenodd" fill-opacity="1"/>
<polyline clip-path="url(#clip510)" style="stroke:#000000; stroke-linecap:round; stroke-linejoin:round; stroke-width:4; stroke-opacity:1; fill:none" points="1784.79,248.629 2282.73,248.629 2282.73,93.1086 1784.79,93.1086 1784.79,248.629 "/>
<polyline clip-path="url(#clip510)" style="stroke:#3da44d; stroke-linecap:round; stroke-linejoin:round; stroke-width:4; stroke-opacity:1; fill:none" points="1808.13,144.949 1948.19,144.949 "/>
<path clip-path="url(#clip510)" d="M1997.09 157.298 L1997.09 148.016 L1989.45 148.016 L1989.45 144.173 L2001.72 144.173 L2001.72 159.011 Q1999.01 160.932 1995.75 161.928 Q1992.49 162.9 1988.78 162.9 Q1980.68 162.9 1976.1 158.178 Q1971.54 153.432 1971.54 144.983 Q1971.54 136.511 1976.1 131.789 Q1980.68 127.044 1988.78 127.044 Q1992.16 127.044 1995.19 127.877 Q1998.25 128.71 2000.82 130.331 L2000.82 135.307 Q1998.23 133.108 1995.31 131.997 Q1992.39 130.886 1989.18 130.886 Q1982.83 130.886 1979.64 134.428 Q1976.47 137.969 1976.47 144.983 Q1976.47 151.974 1979.64 155.516 Q1982.83 159.057 1989.18 159.057 Q1991.65 159.057 1993.6 158.641 Q1995.54 158.201 1997.09 157.298 Z" fill="#000000" fill-rule="nonzero" fill-opacity="1" /><path clip-path="url(#clip510)" d="M2007.92 147.344 L2020.4 147.344 L2020.4 151.141 L2007.92 151.141 L2007.92 147.344 Z" fill="#000000" fill-rule="nonzero" fill-opacity="1" /><path clip-path="url(#clip510)" d="M2048.09 128.803 L2048.09 133.363 Q2045.42 132.09 2043.06 131.465 Q2040.7 130.84 2038.5 130.84 Q2034.68 130.84 2032.6 132.321 Q2030.54 133.803 2030.54 136.534 Q2030.54 138.826 2031.91 140.007 Q2033.3 141.164 2037.14 141.882 L2039.96 142.46 Q2045.19 143.456 2047.67 145.979 Q2050.17 148.479 2050.17 152.692 Q2050.17 157.715 2046.79 160.307 Q2043.43 162.9 2036.93 162.9 Q2034.48 162.9 2031.7 162.344 Q2028.94 161.789 2025.98 160.701 L2025.98 155.886 Q2028.83 157.483 2031.56 158.293 Q2034.29 159.104 2036.93 159.104 Q2040.93 159.104 2043.11 157.53 Q2045.29 155.956 2045.29 153.039 Q2045.29 150.493 2043.71 149.057 Q2042.16 147.622 2038.6 146.905 L2035.75 146.349 Q2030.52 145.307 2028.18 143.085 Q2025.84 140.863 2025.84 136.905 Q2025.84 132.321 2029.06 129.682 Q2032.3 127.044 2037.97 127.044 Q2040.4 127.044 2042.92 127.483 Q2045.45 127.923 2048.09 128.803 Z" fill="#000000" fill-rule="nonzero" fill-opacity="1" /><path clip-path="url(#clip510)" d="M2068.06 164.636 Q2066.26 169.266 2064.55 170.678 Q2062.83 172.09 2059.96 172.09 L2056.56 172.09 L2056.56 168.525 L2059.06 168.525 Q2060.82 168.525 2061.79 167.692 Q2062.76 166.858 2063.94 163.756 L2064.71 161.812 L2054.22 136.303 L2058.73 136.303 L2066.84 156.581 L2074.94 136.303 L2079.45 136.303 L2068.06 164.636 Z" fill="#000000" fill-rule="nonzero" fill-opacity="1" /><path clip-path="url(#clip510)" d="M2105.52 141.28 Q2107.11 138.409 2109.34 137.044 Q2111.56 135.678 2114.57 135.678 Q2118.62 135.678 2120.82 138.525 Q2123.02 141.349 2123.02 146.581 L2123.02 162.229 L2118.73 162.229 L2118.73 146.719 Q2118.73 142.993 2117.42 141.187 Q2116.1 139.382 2113.39 139.382 Q2110.08 139.382 2108.16 141.581 Q2106.23 143.78 2106.23 147.576 L2106.23 162.229 L2101.95 162.229 L2101.95 146.719 Q2101.95 142.969 2100.63 141.187 Q2099.31 139.382 2096.56 139.382 Q2093.29 139.382 2091.37 141.604 Q2089.45 143.803 2089.45 147.576 L2089.45 162.229 L2085.17 162.229 L2085.17 136.303 L2089.45 136.303 L2089.45 140.331 Q2090.91 137.946 2092.95 136.812 Q2094.98 135.678 2097.79 135.678 Q2100.61 135.678 2102.58 137.113 Q2104.57 138.548 2105.52 141.28 Z" fill="#000000" fill-rule="nonzero" fill-opacity="1" /><path clip-path="url(#clip510)" d="M2135.63 158.34 L2135.63 172.09 L2131.35 172.09 L2131.35 136.303 L2135.63 136.303 L2135.63 140.238 Q2136.98 137.923 2139.01 136.812 Q2141.07 135.678 2143.92 135.678 Q2148.64 135.678 2151.58 139.428 Q2154.54 143.178 2154.54 149.289 Q2154.54 155.4 2151.58 159.15 Q2148.64 162.9 2143.92 162.9 Q2141.07 162.9 2139.01 161.789 Q2136.98 160.655 2135.63 158.34 M2150.12 149.289 Q2150.12 144.59 2148.18 141.928 Q2146.26 139.243 2142.88 139.243 Q2139.5 139.243 2137.55 141.928 Q2135.63 144.59 2135.63 149.289 Q2135.63 153.988 2137.55 156.673 Q2139.5 159.335 2142.88 159.335 Q2146.26 159.335 2148.18 156.673 Q2150.12 153.988 2150.12 149.289 Z" fill="#000000" fill-rule="nonzero" fill-opacity="1" /><path clip-path="url(#clip510)" d="M2161.79 127.669 L2168.09 127.669 L2183.41 156.581 L2183.41 127.669 L2187.95 127.669 L2187.95 162.229 L2181.65 162.229 L2166.33 133.317 L2166.33 162.229 L2161.79 162.229 L2161.79 127.669 Z" fill="#000000" fill-rule="nonzero" fill-opacity="1" /><path clip-path="url(#clip510)" d="M2219.24 148.201 L2219.24 150.284 L2199.66 150.284 Q2199.94 154.682 2202.3 156.997 Q2204.68 159.289 2208.92 159.289 Q2211.37 159.289 2213.66 158.687 Q2215.98 158.085 2218.25 156.881 L2218.25 160.909 Q2215.96 161.881 2213.55 162.391 Q2211.14 162.9 2208.66 162.9 Q2202.46 162.9 2198.83 159.289 Q2195.22 155.678 2195.22 149.52 Q2195.22 143.155 2198.64 139.428 Q2202.09 135.678 2207.92 135.678 Q2213.16 135.678 2216.19 139.057 Q2219.24 142.414 2219.24 148.201 M2214.98 146.951 Q2214.94 143.456 2213.02 141.372 Q2211.12 139.289 2207.97 139.289 Q2204.41 139.289 2202.25 141.303 Q2200.12 143.317 2199.8 146.974 L2214.98 146.951 Z" fill="#000000" fill-rule="nonzero" fill-opacity="1" /><path clip-path="url(#clip510)" d="M2230.45 128.942 L2230.45 136.303 L2239.22 136.303 L2239.22 139.613 L2230.45 139.613 L2230.45 153.687 Q2230.45 156.858 2231.3 157.761 Q2232.18 158.664 2234.85 158.664 L2239.22 158.664 L2239.22 162.229 L2234.85 162.229 Q2229.91 162.229 2228.04 160.4 Q2226.16 158.548 2226.16 153.687 L2226.16 139.613 L2223.04 139.613 L2223.04 136.303 L2226.16 136.303 L2226.16 128.942 L2230.45 128.942 Z" fill="#000000" fill-rule="nonzero" fill-opacity="1" /><polyline clip-path="url(#clip510)" style="stroke:#e26f46; stroke-linecap:round; stroke-linejoin:round; stroke-width:4; stroke-opacity:1; fill:none" points="1808.13,196.789 1948.19,196.789 "/>
<path clip-path="url(#clip510)" d="M1971.54 179.509 L1976.21 179.509 L1976.21 210.133 L1993.04 210.133 L1993.04 214.069 L1971.54 214.069 L1971.54 179.509 Z" fill="#000000" fill-rule="nonzero" fill-opacity="1" /><path clip-path="url(#clip510)" d="M2010.59 184.115 L2004.24 201.314 L2016.95 201.314 L2010.59 184.115 M2007.95 179.509 L2013.25 179.509 L2026.42 214.069 L2021.56 214.069 L2018.41 205.203 L2002.83 205.203 L1999.68 214.069 L1994.75 214.069 L2007.95 179.509 Z" fill="#000000" fill-rule="nonzero" fill-opacity="1" /><path clip-path="url(#clip510)" d="M2028.09 199.184 L2040.56 199.184 L2040.56 202.981 L2028.09 202.981 L2028.09 199.184 Z" fill="#000000" fill-rule="nonzero" fill-opacity="1" /><path clip-path="url(#clip510)" d="M2068.25 180.643 L2068.25 185.203 Q2065.59 183.93 2063.23 183.305 Q2060.86 182.68 2058.67 182.68 Q2054.85 182.68 2052.76 184.161 Q2050.7 185.643 2050.7 188.374 Q2050.7 190.666 2052.07 191.847 Q2053.46 193.004 2057.3 193.722 L2060.12 194.3 Q2065.36 195.296 2067.83 197.819 Q2070.33 200.319 2070.33 204.532 Q2070.33 209.555 2066.95 212.147 Q2063.6 214.74 2057.09 214.74 Q2054.64 214.74 2051.86 214.184 Q2049.11 213.629 2046.14 212.541 L2046.14 207.726 Q2048.99 209.323 2051.72 210.133 Q2054.45 210.944 2057.09 210.944 Q2061.1 210.944 2063.27 209.37 Q2065.45 207.796 2065.45 204.879 Q2065.45 202.333 2063.87 200.897 Q2062.32 199.462 2058.76 198.745 L2055.91 198.189 Q2050.68 197.147 2048.34 194.925 Q2046 192.703 2046 188.745 Q2046 184.161 2049.22 181.522 Q2052.46 178.884 2058.13 178.884 Q2060.56 178.884 2063.09 179.323 Q2065.61 179.763 2068.25 180.643 Z" fill="#000000" fill-rule="nonzero" fill-opacity="1" /><path clip-path="url(#clip510)" d="M2088.23 216.476 Q2086.42 221.106 2084.71 222.518 Q2082.99 223.93 2080.12 223.93 L2076.72 223.93 L2076.72 220.365 L2079.22 220.365 Q2080.98 220.365 2081.95 219.532 Q2082.92 218.698 2084.11 215.596 L2084.87 213.652 L2074.38 188.143 L2078.9 188.143 L2087 208.421 L2095.1 188.143 L2099.61 188.143 L2088.23 216.476 Z" fill="#000000" fill-rule="nonzero" fill-opacity="1" /><path clip-path="url(#clip510)" d="M2125.68 193.12 Q2127.28 190.249 2129.5 188.884 Q2131.72 187.518 2134.73 187.518 Q2138.78 187.518 2140.98 190.365 Q2143.18 193.189 2143.18 198.421 L2143.18 214.069 L2138.9 214.069 L2138.9 198.559 Q2138.9 194.833 2137.58 193.027 Q2136.26 191.222 2133.55 191.222 Q2130.24 191.222 2128.32 193.421 Q2126.4 195.62 2126.4 199.416 L2126.4 214.069 L2122.11 214.069 L2122.11 198.559 Q2122.11 194.809 2120.79 193.027 Q2119.48 191.222 2116.72 191.222 Q2113.46 191.222 2111.54 193.444 Q2109.61 195.643 2109.61 199.416 L2109.61 214.069 L2105.33 214.069 L2105.33 188.143 L2109.61 188.143 L2109.61 192.171 Q2111.07 189.786 2113.11 188.652 Q2115.15 187.518 2117.95 187.518 Q2120.77 187.518 2122.74 188.953 Q2124.73 190.388 2125.68 193.12 Z" fill="#000000" fill-rule="nonzero" fill-opacity="1" /><path clip-path="url(#clip510)" d="M2155.79 210.18 L2155.79 223.93 L2151.51 223.93 L2151.51 188.143 L2155.79 188.143 L2155.79 192.078 Q2157.14 189.763 2159.17 188.652 Q2161.23 187.518 2164.08 187.518 Q2168.8 187.518 2171.74 191.268 Q2174.71 195.018 2174.71 201.129 Q2174.71 207.24 2171.74 210.99 Q2168.8 214.74 2164.08 214.74 Q2161.23 214.74 2159.17 213.629 Q2157.14 212.495 2155.79 210.18 M2170.29 201.129 Q2170.29 196.43 2168.34 193.768 Q2166.42 191.083 2163.04 191.083 Q2159.66 191.083 2157.72 193.768 Q2155.79 196.43 2155.79 201.129 Q2155.79 205.828 2157.72 208.513 Q2159.66 211.175 2163.04 211.175 Q2166.42 211.175 2168.34 208.513 Q2170.29 205.828 2170.29 201.129 Z" fill="#000000" fill-rule="nonzero" fill-opacity="1" /><path clip-path="url(#clip510)" d="M2181.95 179.509 L2188.25 179.509 L2203.57 208.421 L2203.57 179.509 L2208.11 179.509 L2208.11 214.069 L2201.81 214.069 L2186.49 185.157 L2186.49 214.069 L2181.95 214.069 L2181.95 179.509 Z" fill="#000000" fill-rule="nonzero" fill-opacity="1" /><path clip-path="url(#clip510)" d="M2239.41 200.041 L2239.41 202.124 L2219.82 202.124 Q2220.1 206.522 2222.46 208.837 Q2224.85 211.129 2229.08 211.129 Q2231.53 211.129 2233.83 210.527 Q2236.14 209.925 2238.41 208.721 L2238.41 212.749 Q2236.12 213.721 2233.71 214.231 Q2231.3 214.74 2228.83 214.74 Q2222.62 214.74 2218.99 211.129 Q2215.38 207.518 2215.38 201.36 Q2215.38 194.995 2218.8 191.268 Q2222.25 187.518 2228.09 187.518 Q2233.32 187.518 2236.35 190.897 Q2239.41 194.254 2239.41 200.041 M2235.15 198.791 Q2235.1 195.296 2233.18 193.212 Q2231.28 191.129 2228.13 191.129 Q2224.57 191.129 2222.41 193.143 Q2220.28 195.157 2219.96 198.814 L2235.15 198.791 Z" fill="#000000" fill-rule="nonzero" fill-opacity="1" /><path clip-path="url(#clip510)" d="M2250.61 180.782 L2250.61 188.143 L2259.38 188.143 L2259.38 191.453 L2250.61 191.453 L2250.61 205.527 Q2250.61 208.698 2251.47 209.601 Q2252.34 210.504 2255.01 210.504 L2259.38 210.504 L2259.38 214.069 L2255.01 214.069 Q2250.08 214.069 2248.2 212.24 Q2246.33 210.388 2246.33 205.527 L2246.33 191.453 L2243.2 191.453 L2243.2 188.143 L2246.33 188.143 L2246.33 180.782 L2250.61 180.782 Z" fill="#000000" fill-rule="nonzero" fill-opacity="1" /></svg>
