<?xml version="1.0" encoding="utf-8"?>
<svg xmlns="http://www.w3.org/2000/svg" xmlns:xlink="http://www.w3.org/1999/xlink" width="600" height="400" viewBox="0 0 2400 1600">
<defs>
  <clipPath id="clip060">
    <rect x="0" y="0" width="2400" height="1600"/>
  </clipPath>
</defs>
<path clip-path="url(#clip060)" d="M0 1600 L2400 1600 L2400 0 L0 0  Z" fill="#ffffff" fill-rule="evenodd" fill-opacity="1"/>
<defs>
  <clipPath id="clip061">
    <rect x="480" y="0" width="1681" height="1600"/>
  </clipPath>
</defs>
<path clip-path="url(#clip060)" d="M193.936 1486.45 L2352.76 1486.45 L2352.76 47.2441 L193.936 47.2441  Z" fill="#ffffff" fill-rule="evenodd" fill-opacity="1"/>
<defs>
  <clipPath id="clip062">
    <rect x="193" y="47" width="2160" height="1440"/>
  </clipPath>
</defs>
<polyline clip-path="url(#clip062)" style="stroke:#000000; stroke-linecap:round; stroke-linejoin:round; stroke-width:2; stroke-opacity:0.1; fill:none" points="471.962,1486.45 471.962,47.2441 "/>
<polyline clip-path="url(#clip062)" style="stroke:#000000; stroke-linecap:round; stroke-linejoin:round; stroke-width:2; stroke-opacity:0.1; fill:none" points="871.484,1486.45 871.484,47.2441 "/>
<polyline clip-path="url(#clip062)" style="stroke:#000000; stroke-linecap:round; stroke-linejoin:round; stroke-width:2; stroke-opacity:0.1; fill:none" points="1271.01,1486.45 1271.01,47.2441 "/>
<polyline clip-path="url(#clip062)" style="stroke:#000000; stroke-linecap:round; stroke-linejoin:round; stroke-width:2; stroke-opacity:0.1; fill:none" points="1670.53,1486.45 1670.53,47.2441 "/>
<polyline clip-path="url(#clip062)" style="stroke:#000000; stroke-linecap:round; stroke-linejoin:round; stroke-width:2; stroke-opacity:0.1; fill:none" points="2070.05,1486.45 2070.05,47.2441 "/>
<polyline clip-path="url(#clip060)" style="stroke:#000000; stroke-linecap:round; stroke-linejoin:round; stroke-width:4; stroke-opacity:1; fill:none" points="193.936,1486.45 2352.76,1486.45 "/>
<polyline clip-path="url(#clip060)" style="stroke:#000000; stroke-linecap:round; stroke-linejoin:round; stroke-width:4; stroke-opacity:1; fill:none" points="471.962,1486.45 471.962,1467.55 "/>
<polyline clip-path="url(#clip060)" style="stroke:#000000; stroke-linecap:round; stroke-linejoin:round; stroke-width:4; stroke-opacity:1; fill:none" points="871.484,1486.45 871.484,1467.55 "/>
<polyline clip-path="url(#clip060)" style="stroke:#000000; stroke-linecap:round; stroke-linejoin:round; stroke-width:4; stroke-opacity:1; fill:none" points="1271.01,1486.45 1271.01,1467.55 "/>
<polyline clip-path="url(#clip060)" style="stroke:#000000; stroke-linecap:round; stroke-linejoin:round; stroke-width:4; stroke-opacity:1; fill:none" points="1670.53,1486.45 1670.53,1467.55 "/>
<polyline clip-path="url(#clip060)" style="stroke:#000000; stroke-linecap:round; stroke-linejoin:round; stroke-width:4; stroke-opacity:1; fill:none" points="2070.05,1486.45 2070.05,1467.55 "/>
<path clip-path="url(#clip060)" d="M418.49 1532.02 L448.166 1532.02 L448.166 1535.95 L418.49 1535.95 L418.49 1532.02 Z" fill="#000000" fill-rule="nonzero" fill-opacity="1" /><path clip-path="url(#clip060)" d="M459.069 1544.91 L466.708 1544.91 L466.708 1518.55 L458.398 1520.21 L458.398 1515.95 L466.661 1514.29 L471.337 1514.29 L471.337 1544.91 L478.976 1544.91 L478.976 1548.85 L459.069 1548.85 L459.069 1544.91 Z" fill="#000000" fill-rule="nonzero" fill-opacity="1" /><path clip-path="url(#clip060)" d="M488.421 1542.97 L493.305 1542.97 L493.305 1548.85 L488.421 1548.85 L488.421 1542.97 Z" fill="#000000" fill-rule="nonzero" fill-opacity="1" /><path clip-path="url(#clip060)" d="M513.49 1517.37 Q509.879 1517.37 508.05 1520.93 Q506.245 1524.47 506.245 1531.6 Q506.245 1538.71 508.05 1542.27 Q509.879 1545.82 513.49 1545.82 Q517.124 1545.82 518.93 1542.27 Q520.758 1538.71 520.758 1531.6 Q520.758 1524.47 518.93 1520.93 Q517.124 1517.37 513.49 1517.37 M513.49 1513.66 Q519.3 1513.66 522.356 1518.27 Q525.434 1522.85 525.434 1531.6 Q525.434 1540.33 522.356 1544.94 Q519.3 1549.52 513.49 1549.52 Q507.68 1549.52 504.601 1544.94 Q501.545 1540.33 501.545 1531.6 Q501.545 1522.85 504.601 1518.27 Q507.68 1513.66 513.49 1513.66 Z" fill="#000000" fill-rule="nonzero" fill-opacity="1" /><path clip-path="url(#clip060)" d="M818.509 1532.02 L848.185 1532.02 L848.185 1535.95 L818.509 1535.95 L818.509 1532.02 Z" fill="#000000" fill-rule="nonzero" fill-opacity="1" /><path clip-path="url(#clip060)" d="M868.278 1517.37 Q864.667 1517.37 862.838 1520.93 Q861.032 1524.47 861.032 1531.6 Q861.032 1538.71 862.838 1542.27 Q864.667 1545.82 868.278 1545.82 Q871.912 1545.82 873.717 1542.27 Q875.546 1538.71 875.546 1531.6 Q875.546 1524.47 873.717 1520.93 Q871.912 1517.37 868.278 1517.37 M868.278 1513.66 Q874.088 1513.66 877.143 1518.27 Q880.222 1522.85 880.222 1531.6 Q880.222 1540.33 877.143 1544.94 Q874.088 1549.52 868.278 1549.52 Q862.467 1549.52 859.389 1544.94 Q856.333 1540.33 856.333 1531.6 Q856.333 1522.85 859.389 1518.27 Q862.467 1513.66 868.278 1513.66 Z" fill="#000000" fill-rule="nonzero" fill-opacity="1" /><path clip-path="url(#clip060)" d="M888.44 1542.97 L893.324 1542.97 L893.324 1548.85 L888.44 1548.85 L888.44 1542.97 Z" fill="#000000" fill-rule="nonzero" fill-opacity="1" /><path clip-path="url(#clip060)" d="M903.555 1514.29 L921.912 1514.29 L921.912 1518.22 L907.838 1518.22 L907.838 1526.7 Q908.856 1526.35 909.875 1526.19 Q910.893 1526 911.912 1526 Q917.699 1526 921.078 1529.17 Q924.458 1532.34 924.458 1537.76 Q924.458 1543.34 920.986 1546.44 Q917.513 1549.52 911.194 1549.52 Q909.018 1549.52 906.75 1549.15 Q904.504 1548.78 902.097 1548.04 L902.097 1543.34 Q904.18 1544.47 906.402 1545.03 Q908.625 1545.58 911.101 1545.58 Q915.106 1545.58 917.444 1543.48 Q919.782 1541.37 919.782 1537.76 Q919.782 1534.15 917.444 1532.04 Q915.106 1529.94 911.101 1529.94 Q909.226 1529.94 907.352 1530.35 Q905.5 1530.77 903.555 1531.65 L903.555 1514.29 Z" fill="#000000" fill-rule="nonzero" fill-opacity="1" /><path clip-path="url(#clip060)" d="M1248.39 1517.37 Q1244.78 1517.37 1242.95 1520.93 Q1241.14 1524.47 1241.14 1531.6 Q1241.14 1538.71 1242.95 1542.27 Q1244.78 1545.82 1248.39 1545.82 Q1252.02 1545.82 1253.83 1542.27 Q1255.66 1538.71 1255.66 1531.6 Q1255.66 1524.47 1253.83 1520.93 Q1252.02 1517.37 1248.39 1517.37 M1248.39 1513.66 Q1254.2 1513.66 1257.26 1518.27 Q1260.33 1522.85 1260.33 1531.6 Q1260.33 1540.33 1257.26 1544.94 Q1254.2 1549.52 1248.39 1549.52 Q1242.58 1549.52 1239.5 1544.94 Q1236.45 1540.33 1236.45 1531.6 Q1236.45 1522.85 1239.5 1518.27 Q1242.58 1513.66 1248.39 1513.66 Z" fill="#000000" fill-rule="nonzero" fill-opacity="1" /><path clip-path="url(#clip060)" d="M1268.55 1542.97 L1273.44 1542.97 L1273.44 1548.85 L1268.55 1548.85 L1268.55 1542.97 Z" fill="#000000" fill-rule="nonzero" fill-opacity="1" /><path clip-path="url(#clip060)" d="M1293.62 1517.37 Q1290.01 1517.37 1288.18 1520.93 Q1286.38 1524.47 1286.38 1531.6 Q1286.38 1538.71 1288.18 1542.27 Q1290.01 1545.82 1293.62 1545.82 Q1297.25 1545.82 1299.06 1542.27 Q1300.89 1538.71 1300.89 1531.6 Q1300.89 1524.47 1299.06 1520.93 Q1297.25 1517.37 1293.62 1517.37 M1293.62 1513.66 Q1299.43 1513.66 1302.49 1518.27 Q1305.57 1522.85 1305.57 1531.6 Q1305.57 1540.33 1302.49 1544.94 Q1299.43 1549.52 1293.62 1549.52 Q1287.81 1549.52 1284.73 1544.94 Q1281.68 1540.33 1281.68 1531.6 Q1281.68 1522.85 1284.73 1518.27 Q1287.81 1513.66 1293.62 1513.66 Z" fill="#000000" fill-rule="nonzero" fill-opacity="1" /><path clip-path="url(#clip060)" d="M1648.41 1517.37 Q1644.8 1517.37 1642.97 1520.93 Q1641.16 1524.47 1641.16 1531.6 Q1641.16 1538.71 1642.97 1542.27 Q1644.8 1545.82 1648.41 1545.82 Q1652.04 1545.82 1653.85 1542.27 Q1655.68 1538.71 1655.68 1531.6 Q1655.68 1524.47 1653.85 1520.93 Q1652.04 1517.37 1648.41 1517.37 M1648.41 1513.66 Q1654.22 1513.66 1657.27 1518.27 Q1660.35 1522.85 1660.35 1531.6 Q1660.35 1540.33 1657.27 1544.94 Q1654.22 1549.52 1648.41 1549.52 Q1642.6 1549.52 1639.52 1544.94 Q1636.46 1540.33 1636.46 1531.6 Q1636.46 1522.85 1639.52 1518.27 Q1642.6 1513.66 1648.41 1513.66 Z" fill="#000000" fill-rule="nonzero" fill-opacity="1" /><path clip-path="url(#clip060)" d="M1668.57 1542.97 L1673.45 1542.97 L1673.45 1548.85 L1668.57 1548.85 L1668.57 1542.97 Z" fill="#000000" fill-rule="nonzero" fill-opacity="1" /><path clip-path="url(#clip060)" d="M1683.69 1514.29 L1702.04 1514.29 L1702.04 1518.22 L1687.97 1518.22 L1687.97 1526.7 Q1688.99 1526.35 1690.01 1526.19 Q1691.02 1526 1692.04 1526 Q1697.83 1526 1701.21 1529.17 Q1704.59 1532.34 1704.59 1537.76 Q1704.59 1543.34 1701.12 1546.44 Q1697.64 1549.52 1691.32 1549.52 Q1689.15 1549.52 1686.88 1549.15 Q1684.64 1548.78 1682.23 1548.04 L1682.23 1543.34 Q1684.31 1544.47 1686.53 1545.03 Q1688.76 1545.58 1691.23 1545.58 Q1695.24 1545.58 1697.57 1543.48 Q1699.91 1541.37 1699.91 1537.76 Q1699.91 1534.15 1697.57 1532.04 Q1695.24 1529.94 1691.23 1529.94 Q1689.36 1529.94 1687.48 1530.35 Q1685.63 1530.77 1683.69 1531.65 L1683.69 1514.29 Z" fill="#000000" fill-rule="nonzero" fill-opacity="1" /><path clip-path="url(#clip060)" d="M2037.2 1544.91 L2044.84 1544.91 L2044.84 1518.55 L2036.53 1520.21 L2036.53 1515.95 L2044.79 1514.29 L2049.47 1514.29 L2049.47 1544.91 L2057.11 1544.91 L2057.11 1548.85 L2037.2 1548.85 L2037.2 1544.91 Z" fill="#000000" fill-rule="nonzero" fill-opacity="1" /><path clip-path="url(#clip060)" d="M2066.55 1542.97 L2071.44 1542.97 L2071.44 1548.85 L2066.55 1548.85 L2066.55 1542.97 Z" fill="#000000" fill-rule="nonzero" fill-opacity="1" /><path clip-path="url(#clip060)" d="M2091.62 1517.37 Q2088.01 1517.37 2086.18 1520.93 Q2084.38 1524.47 2084.38 1531.6 Q2084.38 1538.71 2086.18 1542.27 Q2088.01 1545.82 2091.62 1545.82 Q2095.26 1545.82 2097.06 1542.27 Q2098.89 1538.71 2098.89 1531.6 Q2098.89 1524.47 2097.06 1520.93 Q2095.26 1517.37 2091.62 1517.37 M2091.62 1513.66 Q2097.43 1513.66 2100.49 1518.27 Q2103.57 1522.85 2103.57 1531.6 Q2103.57 1540.33 2100.49 1544.94 Q2097.43 1549.52 2091.62 1549.52 Q2085.81 1549.52 2082.73 1544.94 Q2079.68 1540.33 2079.68 1531.6 Q2079.68 1522.85 2082.73 1518.27 Q2085.81 1513.66 2091.62 1513.66 Z" fill="#000000" fill-rule="nonzero" fill-opacity="1" /><polyline clip-path="url(#clip062)" style="stroke:#000000; stroke-linecap:round; stroke-linejoin:round; stroke-width:2; stroke-opacity:0.1; fill:none" points="193.936,1484.13 2352.76,1484.13 "/>
<polyline clip-path="url(#clip062)" style="stroke:#000000; stroke-linecap:round; stroke-linejoin:round; stroke-width:2; stroke-opacity:0.1; fill:none" points="193.936,1244.26 2352.76,1244.26 "/>
<polyline clip-path="url(#clip062)" style="stroke:#000000; stroke-linecap:round; stroke-linejoin:round; stroke-width:2; stroke-opacity:0.1; fill:none" points="193.936,1004.38 2352.76,1004.38 "/>
<polyline clip-path="url(#clip062)" style="stroke:#000000; stroke-linecap:round; stroke-linejoin:round; stroke-width:2; stroke-opacity:0.1; fill:none" points="193.936,764.503 2352.76,764.503 "/>
<polyline clip-path="url(#clip062)" style="stroke:#000000; stroke-linecap:round; stroke-linejoin:round; stroke-width:2; stroke-opacity:0.1; fill:none" points="193.936,524.627 2352.76,524.627 "/>
<polyline clip-path="url(#clip062)" style="stroke:#000000; stroke-linecap:round; stroke-linejoin:round; stroke-width:2; stroke-opacity:0.1; fill:none" points="193.936,284.75 2352.76,284.75 "/>
<polyline clip-path="url(#clip060)" style="stroke:#000000; stroke-linecap:round; stroke-linejoin:round; stroke-width:4; stroke-opacity:1; fill:none" points="193.936,1486.45 193.936,47.2441 "/>
<polyline clip-path="url(#clip060)" style="stroke:#000000; stroke-linecap:round; stroke-linejoin:round; stroke-width:4; stroke-opacity:1; fill:none" points="193.936,1484.13 212.834,1484.13 "/>
<polyline clip-path="url(#clip060)" style="stroke:#000000; stroke-linecap:round; stroke-linejoin:round; stroke-width:4; stroke-opacity:1; fill:none" points="193.936,1244.26 212.834,1244.26 "/>
<polyline clip-path="url(#clip060)" style="stroke:#000000; stroke-linecap:round; stroke-linejoin:round; stroke-width:4; stroke-opacity:1; fill:none" points="193.936,1004.38 212.834,1004.38 "/>
<polyline clip-path="url(#clip060)" style="stroke:#000000; stroke-linecap:round; stroke-linejoin:round; stroke-width:4; stroke-opacity:1; fill:none" points="193.936,764.503 212.834,764.503 "/>
<polyline clip-path="url(#clip060)" style="stroke:#000000; stroke-linecap:round; stroke-linejoin:round; stroke-width:4; stroke-opacity:1; fill:none" points="193.936,524.627 212.834,524.627 "/>
<polyline clip-path="url(#clip060)" style="stroke:#000000; stroke-linecap:round; stroke-linejoin:round; stroke-width:4; stroke-opacity:1; fill:none" points="193.936,284.75 212.834,284.75 "/>
<path clip-path="url(#clip060)" d="M51.9875 1484.58 L81.6633 1484.58 L81.6633 1488.52 L51.9875 1488.52 L51.9875 1484.58 Z" fill="#000000" fill-rule="nonzero" fill-opacity="1" /><path clip-path="url(#clip060)" d="M92.566 1497.48 L100.205 1497.48 L100.205 1471.11 L91.8947 1472.78 L91.8947 1468.52 L100.159 1466.85 L104.834 1466.85 L104.834 1497.48 L112.473 1497.48 L112.473 1501.41 L92.566 1501.41 L92.566 1497.48 Z" fill="#000000" fill-rule="nonzero" fill-opacity="1" /><path clip-path="url(#clip060)" d="M121.918 1495.53 L126.802 1495.53 L126.802 1501.41 L121.918 1501.41 L121.918 1495.53 Z" fill="#000000" fill-rule="nonzero" fill-opacity="1" /><path clip-path="url(#clip060)" d="M137.033 1466.85 L155.39 1466.85 L155.39 1470.79 L141.316 1470.79 L141.316 1479.26 Q142.334 1478.91 143.353 1478.75 Q144.371 1478.57 145.39 1478.57 Q151.177 1478.57 154.556 1481.74 Q157.936 1484.91 157.936 1490.33 Q157.936 1495.9 154.464 1499.01 Q150.992 1502.08 144.672 1502.08 Q142.496 1502.08 140.228 1501.71 Q137.982 1501.34 135.575 1500.6 L135.575 1495.9 Q137.658 1497.04 139.881 1497.59 Q142.103 1498.15 144.58 1498.15 Q148.584 1498.15 150.922 1496.04 Q153.26 1493.94 153.26 1490.33 Q153.26 1486.71 150.922 1484.61 Q148.584 1482.5 144.58 1482.5 Q142.705 1482.5 140.83 1482.92 Q138.978 1483.33 137.033 1484.21 L137.033 1466.85 Z" fill="#000000" fill-rule="nonzero" fill-opacity="1" /><path clip-path="url(#clip060)" d="M50.9921 1244.71 L80.6679 1244.71 L80.6679 1248.64 L50.9921 1248.64 L50.9921 1244.71 Z" fill="#000000" fill-rule="nonzero" fill-opacity="1" /><path clip-path="url(#clip060)" d="M91.5706 1257.6 L99.2095 1257.6 L99.2095 1231.24 L90.8993 1232.9 L90.8993 1228.64 L99.1632 1226.98 L103.839 1226.98 L103.839 1257.6 L111.478 1257.6 L111.478 1261.54 L91.5706 1261.54 L91.5706 1257.6 Z" fill="#000000" fill-rule="nonzero" fill-opacity="1" /><path clip-path="url(#clip060)" d="M120.922 1255.66 L125.807 1255.66 L125.807 1261.54 L120.922 1261.54 L120.922 1255.66 Z" fill="#000000" fill-rule="nonzero" fill-opacity="1" /><path clip-path="url(#clip060)" d="M145.992 1230.06 Q142.381 1230.06 140.552 1233.62 Q138.746 1237.16 138.746 1244.29 Q138.746 1251.4 140.552 1254.96 Q142.381 1258.5 145.992 1258.5 Q149.626 1258.5 151.431 1254.96 Q153.26 1251.4 153.26 1244.29 Q153.26 1237.16 151.431 1233.62 Q149.626 1230.06 145.992 1230.06 M145.992 1226.35 Q151.802 1226.35 154.857 1230.96 Q157.936 1235.54 157.936 1244.29 Q157.936 1253.02 154.857 1257.62 Q151.802 1262.21 145.992 1262.21 Q140.181 1262.21 137.103 1257.62 Q134.047 1253.02 134.047 1244.29 Q134.047 1235.54 137.103 1230.96 Q140.181 1226.35 145.992 1226.35 Z" fill="#000000" fill-rule="nonzero" fill-opacity="1" /><path clip-path="url(#clip060)" d="M51.9875 1004.83 L81.6633 1004.83 L81.6633 1008.77 L51.9875 1008.77 L51.9875 1004.83 Z" fill="#000000" fill-rule="nonzero" fill-opacity="1" /><path clip-path="url(#clip060)" d="M101.756 990.179 Q98.1447 990.179 96.316 993.744 Q94.5104 997.285 94.5104 1004.41 Q94.5104 1011.52 96.316 1015.09 Q98.1447 1018.63 101.756 1018.63 Q105.39 1018.63 107.196 1015.09 Q109.024 1011.52 109.024 1004.41 Q109.024 997.285 107.196 993.744 Q105.39 990.179 101.756 990.179 M101.756 986.475 Q107.566 986.475 110.621 991.082 Q113.7 995.665 113.7 1004.41 Q113.7 1013.14 110.621 1017.75 Q107.566 1022.33 101.756 1022.33 Q95.9456 1022.33 92.8669 1017.75 Q89.8114 1013.14 89.8114 1004.41 Q89.8114 995.665 92.8669 991.082 Q95.9456 986.475 101.756 986.475 Z" fill="#000000" fill-rule="nonzero" fill-opacity="1" /><path clip-path="url(#clip060)" d="M121.918 1015.78 L126.802 1015.78 L126.802 1021.66 L121.918 1021.66 L121.918 1015.78 Z" fill="#000000" fill-rule="nonzero" fill-opacity="1" /><path clip-path="url(#clip060)" d="M137.033 987.1 L155.39 987.1 L155.39 991.035 L141.316 991.035 L141.316 999.507 Q142.334 999.16 143.353 998.998 Q144.371 998.813 145.39 998.813 Q151.177 998.813 154.556 1001.98 Q157.936 1005.16 157.936 1010.57 Q157.936 1016.15 154.464 1019.25 Q150.992 1022.33 144.672 1022.33 Q142.496 1022.33 140.228 1021.96 Q137.982 1021.59 135.575 1020.85 L135.575 1016.15 Q137.658 1017.29 139.881 1017.84 Q142.103 1018.4 144.58 1018.4 Q148.584 1018.4 150.922 1016.29 Q153.26 1014.18 153.26 1010.57 Q153.26 1006.96 150.922 1004.85 Q148.584 1002.75 144.58 1002.75 Q142.705 1002.75 140.83 1003.16 Q138.978 1003.58 137.033 1004.46 L137.033 987.1 Z" fill="#000000" fill-rule="nonzero" fill-opacity="1" /><path clip-path="url(#clip060)" d="M100.76 750.302 Q97.1493 750.302 95.3206 753.867 Q93.515 757.409 93.515 764.538 Q93.515 771.645 95.3206 775.209 Q97.1493 778.751 100.76 778.751 Q104.395 778.751 106.2 775.209 Q108.029 771.645 108.029 764.538 Q108.029 757.409 106.2 753.867 Q104.395 750.302 100.76 750.302 M100.76 746.598 Q106.571 746.598 109.626 751.205 Q112.705 755.788 112.705 764.538 Q112.705 773.265 109.626 777.871 Q106.571 782.455 100.76 782.455 Q94.9502 782.455 91.8715 777.871 Q88.816 773.265 88.816 764.538 Q88.816 755.788 91.8715 751.205 Q94.9502 746.598 100.76 746.598 Z" fill="#000000" fill-rule="nonzero" fill-opacity="1" /><path clip-path="url(#clip060)" d="M120.922 775.904 L125.807 775.904 L125.807 781.783 L120.922 781.783 L120.922 775.904 Z" fill="#000000" fill-rule="nonzero" fill-opacity="1" /><path clip-path="url(#clip060)" d="M145.992 750.302 Q142.381 750.302 140.552 753.867 Q138.746 757.409 138.746 764.538 Q138.746 771.645 140.552 775.209 Q142.381 778.751 145.992 778.751 Q149.626 778.751 151.431 775.209 Q153.26 771.645 153.26 764.538 Q153.26 757.409 151.431 753.867 Q149.626 750.302 145.992 750.302 M145.992 746.598 Q151.802 746.598 154.857 751.205 Q157.936 755.788 157.936 764.538 Q157.936 773.265 154.857 777.871 Q151.802 782.455 145.992 782.455 Q140.181 782.455 137.103 777.871 Q134.047 773.265 134.047 764.538 Q134.047 755.788 137.103 751.205 Q140.181 746.598 145.992 746.598 Z" fill="#000000" fill-rule="nonzero" fill-opacity="1" /><path clip-path="url(#clip060)" d="M101.756 510.425 Q98.1447 510.425 96.316 513.99 Q94.5104 517.532 94.5104 524.661 Q94.5104 531.768 96.316 535.333 Q98.1447 538.874 101.756 538.874 Q105.39 538.874 107.196 535.333 Q109.024 531.768 109.024 524.661 Q109.024 517.532 107.196 513.99 Q105.39 510.425 101.756 510.425 M101.756 506.722 Q107.566 506.722 110.621 511.328 Q113.7 515.912 113.7 524.661 Q113.7 533.388 110.621 537.995 Q107.566 542.578 101.756 542.578 Q95.9456 542.578 92.8669 537.995 Q89.8114 533.388 89.8114 524.661 Q89.8114 515.912 92.8669 511.328 Q95.9456 506.722 101.756 506.722 Z" fill="#000000" fill-rule="nonzero" fill-opacity="1" /><path clip-path="url(#clip060)" d="M121.918 536.027 L126.802 536.027 L126.802 541.907 L121.918 541.907 L121.918 536.027 Z" fill="#000000" fill-rule="nonzero" fill-opacity="1" /><path clip-path="url(#clip060)" d="M137.033 507.347 L155.39 507.347 L155.39 511.282 L141.316 511.282 L141.316 519.754 Q142.334 519.407 143.353 519.245 Q144.371 519.06 145.39 519.06 Q151.177 519.06 154.556 522.231 Q157.936 525.402 157.936 530.819 Q157.936 536.398 154.464 539.499 Q150.992 542.578 144.672 542.578 Q142.496 542.578 140.228 542.208 Q137.982 541.837 135.575 541.097 L135.575 536.398 Q137.658 537.532 139.881 538.087 Q142.103 538.643 144.58 538.643 Q148.584 538.643 150.922 536.536 Q153.26 534.43 153.26 530.819 Q153.26 527.208 150.922 525.101 Q148.584 522.995 144.58 522.995 Q142.705 522.995 140.83 523.412 Q138.978 523.828 137.033 524.708 L137.033 507.347 Z" fill="#000000" fill-rule="nonzero" fill-opacity="1" /><path clip-path="url(#clip060)" d="M91.5706 298.095 L99.2095 298.095 L99.2095 271.729 L90.8993 273.396 L90.8993 269.137 L99.1632 267.47 L103.839 267.47 L103.839 298.095 L111.478 298.095 L111.478 302.03 L91.5706 302.03 L91.5706 298.095 Z" fill="#000000" fill-rule="nonzero" fill-opacity="1" /><path clip-path="url(#clip060)" d="M120.922 296.151 L125.807 296.151 L125.807 302.03 L120.922 302.03 L120.922 296.151 Z" fill="#000000" fill-rule="nonzero" fill-opacity="1" /><path clip-path="url(#clip060)" d="M145.992 270.549 Q142.381 270.549 140.552 274.114 Q138.746 277.655 138.746 284.785 Q138.746 291.891 140.552 295.456 Q142.381 298.998 145.992 298.998 Q149.626 298.998 151.431 295.456 Q153.26 291.891 153.26 284.785 Q153.26 277.655 151.431 274.114 Q149.626 270.549 145.992 270.549 M145.992 266.845 Q151.802 266.845 154.857 271.452 Q157.936 276.035 157.936 284.785 Q157.936 293.512 154.857 298.118 Q151.802 302.701 145.992 302.701 Q140.181 302.701 137.103 298.118 Q134.047 293.512 134.047 284.785 Q134.047 276.035 137.103 271.452 Q140.181 266.845 145.992 266.845 Z" fill="#000000" fill-rule="nonzero" fill-opacity="1" /><polyline clip-path="url(#clip062)" style="stroke:#009af9; stroke-linecap:round; stroke-linejoin:round; stroke-width:4; stroke-opacity:1; fill:none" points="1271.01,284.75 1350.69,287.093 1429.6,294.355 1507.05,306.067 1581.96,321.997 1653.94,342.377 1722.42,366.271 1786.4,393.444 1845.71,423.663 1899.55,456.459 1947.93,491.597 1990.46,528.258 2026.74,566.558 2056.39,606.03 2079.41,646.263 2095.8,687.199 2105.16,728.516 2107.5,770.034 2103.6,811.501 2091.9,852.759 2073.95,893.578 2048.98,933.635 2017.77,972.756 1979.92,1010.7 1935.83,1047.01 1885.89,1081.45 1830.49,1113.54 1769.63,1143.06 1704.47,1169.53 1635.22,1192.49 1562.26,1211.7 1486.57,1226.69 1408.73,1236.99 1329.53,1243.09 1249.74,1244.02 1170.15,1240.51 1091.63,1232.08 1014.87,1219.19 940.542,1201.86 869.533,1180.77 802.036,1155.94 739.22,1127.83 681.477,1096.68 628.806,1063.41 581.987,1027.81 541.41,990.676 506.686,952.024 478.985,912.318 457.917,871.851 443.091,830.797 435.287,789.422 435.287,747.915 440.75,706.467 454.015,665.355 473.913,624.771 500.834,584.83 533.997,546.061 573.403,508.463 619.052,472.622 670.552,438.655 727.125,407.265 789.16,378.452 855.487,352.918 925.911,331.133 999.65,313.095 1076.02,299.274 1154.25,289.904 1233.72,285.219 1313.53,285.453 1392.93,290.372 1471.16,299.977 1547.24,314.032 1620.78,332.304 1690.81,354.558 1757.14,380.326 1818.79,409.374 1874.97,440.998 1926.08,474.965 1971.34,510.806 2010.35,548.521 2043.13,587.407 2069.27,627.347 2088.78,668.049 2101.26,709.19 2107.5,750.638 2105.94,792.16 2098.14,833.55 2083.31,874.545 2061.46,915.012 2032.98,954.601 1998.26,993.136 1956.9,1030.15 1909.69,1065.52 1857.02,1098.78 1798.5,1129.71 1735.68,1157.58 1667.99,1182.18 1596.79,1203.26 1522.27,1220.13 1445.31,1232.78 1366.64,1240.74 1287.03,1244.26 1207.26,1242.62 1128.11,1236.53 1050.37,1225.75 974.875,1210.52 902.111,1191.08 833.248,1167.89 768.092,1141.18 708.008,1111.67 652.605,1079.34 603.055,1044.67 559.748,1008.13 522.293,970.179 491.08,931.058 466.5,890.884 449.333,850.065 438.409,808.778 434.507,767.307 437.628,725.793 446.992,684.506 464.159,643.628 487.569,603.336 517.611,563.982 554.286,525.798 596.813,489.254 645.582,454.35 700.204,421.555 759.508,391.57 823.884,364.631 892.552,340.737 964.926,320.825 1040.03,305.13 1117.58,293.652 1196.53,286.858 1276.25,284.75 1355.91,287.561 1434.77,294.823 1511.93,307.004 1586.84,323.402 1658.63,343.782 1726.71,367.91 1790.3,395.318 1849.22,425.771 1903.06,458.801 1951.05,493.939 1993.19,530.835 2028.69,569.135 2057.95,608.607 2080.97,648.957 2096.58,689.893 2105.16,731.269 2107.5,772.761 2102.82,814.224 2091.12,855.453 2072.39,896.154 2047.03,936.212 2015.43,975.333 1977.19,1013.05 1932.71,1049.36 1882.38,1083.56 1826.59,1115.65 1765.72,1144.93 1700.18,1171.17 1630.54,1193.89 1557.38,1212.63 1481.5,1227.39 1403.56,1237.7 1324.26,1243.09 1244.5,1244.02 1164.98,1240.04 1086.46,1231.37 1009.79,1218.02 935.665,1200.69 864.851,1179.13 797.744,1154.07 735.319,1125.72 677.965,1094.57 625.684,1061.07 579.256,1025.46 538.679,988.099 504.736,949.447 477.424,909.741 456.356,869.215 442.31,828.104 435.287,786.699 435.287,745.177 441.53,703.773 455.576,662.661 475.474,622.077 502.785,582.253 536.338,543.484 576.134,506.121 622.173,470.28 674.064,436.547 731.417,405.391 793.452,376.812 860.169,351.513 930.788,329.727 1004.53,311.924 "/>
<polyline clip-path="url(#clip062)" style="stroke:#e26f46; stroke-linecap:round; stroke-linejoin:round; stroke-width:4; stroke-opacity:1; fill:none" points="1271.01,284.75 1455.16,230.403 1668.97,173.245 1892.14,122.646 2099.7,90.7873 2243.28,95.4724 2283.85,147.945 2222.99,239.305 2084.09,354.089 1923.74,468.874 1786.4,570.189 1693.55,653.818 1647.12,723.509 1641.46,783.244 1665.06,835.717 1704.08,881.631 1736.07,924.734 1755.58,964.088 1759.48,999.695 1745.44,1032.49 1713.44,1064.35 1672.09,1093.4 1599.52,1128.07 1505.88,1165.55 1377.13,1210.52 1217.94,1261.12 1016.62,1319.22 795.013,1376.38 567.161,1424.16 375.203,1445.72 263.618,1425.1 255.035,1359.51 350.233,1255.03 504.736,1136.03 663.53,1023.12 787.21,926.608 861.34,847.664 888.456,781.37 879.677,723.743 846.514,673.613 811.79,627.699 785.259,586.47 770.043,549.926 775.505,515.257 790.331,485.272 818.422,457.161 876.166,425.303 953.417,391.57 1054.86,354.089 1188.29,309.113 1358.4,256.64 1564.4,198.544 1790.69,142.323 2010.74,100.158 2185.53,87.9763 2283.07,116.087 2268.25,191.048 2155.1,299.742 1996.7,417.104 1845.71,525.447 1730.61,617.392 1663.89,692.822 1643.22,756.305 1656.87,811.823 1690.81,861.016 1722.81,906.93 1749.73,947.222 1763.38,983.766 1753.24,1019.37 1729.05,1051.23 1679.89,1084.96 1616.68,1117.76 1524.61,1156.18 1416.14,1195.53 1266.32,1244.26 1082.17,1298.6 869.923,1355.76 645.192,1406.36 445.432,1435.41 300.293,1431.66 260.497,1380.12 322.142,1288.3 461.038,1174.45 620.222,1060.6 757.558,959.872 852.366,876.653 899.185,807.841 905.427,748.574 884.359,695.633 850.025,648.313 818.032,605.21 802.426,563.982 797.354,528.375 811.399,494.642 844.173,461.847 898.014,428.114 971.364,393.444 1072.02,354.089 1196.09,310.987 1358.4,260.388 1561.28,202.293 1782.89,147.008 1999.82,104.843 2174.61,90.7873 2272.93,117.024 2258.88,190.111 2154.32,293.652 1999.82,408.437 1850.39,515.725 1731.39,607.553 1657.65,683.217 1628.78,746.7 1636.58,801.984 1664.28,852.583 1697.06,898.497 1723.59,940.663 1737.63,979.081 1736.85,1013.75 1714.22,1047.48 1669.75,1082.15 1601.08,1118.7 1513.68,1156.18 1388.05,1201.15 1238.23,1249.88 1050.96,1306.1 827.786,1365.13 596.813,1415.73 403.295,1440.09 277.664,1426.04 264.398,1363.26 347.112,1264.4 494.982,1148.68 652.215,1036.71 782.528,939.726 865.631,859.904 902.306,793.317 901.136,735.456 873.825,684.388 837.15,638.006 810.619,594.903 796.964,555.548 795.793,520.879 816.081,487.146 854.317,454.35 907.378,422.492 987.751,385.948 1089.19,346.593 1227.31,299.742 1398.98,247.269 1608.1,189.174 1834.39,133.89 2054.44,94.5354 2221.43,87.9763 2291.66,128.268 2250.3,212.6 2127.01,323.636 1965.49,441.466 1818.79,547.115 1713.83,635.429 1656.87,708.399 1645.56,769.657 1666.23,823.536 1702.52,871.324 1733.73,916.3 1754.02,956.592 1761.04,993.136 1755.58,1024.99 1730.61,1055.92 1677.55,1089.65 1611.22,1122.44 1518.36,1159.93 1397.42,1203.03 1239.79,1253.63 1054.08,1307.97 838.71,1365.13 613.98,1414.79 411.098,1442.9 282.346,1430.72 256.595,1372.63 333.066,1276.12 476.254,1160.86 634.268,1047.25 768.482,947.456 855.487,865.584 895.283,797.299 896.064,738.267 866.802,687.199 832.468,639.88 803.596,596.777 789.941,557.422 787.99,522.753 801.255,490.894 830.907,459.973 886.31,427.177 958.879,393.444 1062.66,354.089 1192.97,309.113 1355.28,258.514 1559.72,200.418 1792.26,142.323 "/>
<polyline clip-path="url(#clip062)" style="stroke:#3da44d; stroke-linecap:round; stroke-linejoin:round; stroke-width:4; stroke-opacity:1; fill:none" points="1271.01,284.75 1350.6,287.093 1429.9,294.355 1507.44,306.067 1582.94,322.231 1655.7,342.377 1725.15,366.739 1790.3,394.147 1850.39,424.834 1905.4,458.098 1954.56,493.237 1997.48,530.132 2034.15,568.55 2063.81,608.256 2086.43,648.782 2102.04,689.893 2110.62,731.474 2112.18,773.405 2106.72,815.073 2094.24,856.507 2075.51,897.209 2049.37,937.266 2016.6,976.27 1977.19,1013.98 1931.93,1050.06 1880.82,1084.26 1824.25,1116.12 1762.6,1145.4 1696.28,1171.4 1626.24,1194.13 1552.89,1212.87 1476.62,1227.62 1398.29,1237.7 1318.75,1243.09 1238.89,1243.55 1159.13,1239.34 1080.22,1230.44 1003.36,1216.61 928.837,1198.81 857.438,1177.03 789.941,1151.73 727.125,1123.15 669.382,1091.99 616.711,1058.26 569.892,1022.42 529.706,984.937 496.152,946.051 468.841,905.993 449.333,865.057 436.068,823.331 429.825,781.633 431.386,740.024 439.189,698.444 454.015,657.449 475.864,616.806 504.345,577.1 539.069,538.448 580.426,501.436 627.635,465.829 680.697,432.565 738.83,401.877 802.036,373.767 869.143,348.702 940.346,327.619 1014.48,310.284 1091.14,297.166 1169.37,288.732 1248.99,284.984 1328.85,286.156 1408.24,292.246 1486.37,302.788 1562.65,318.014 1636,337.223 1706.42,360.18 1772.75,386.885 1834.39,416.635 1890.58,448.728 1940.91,483.632 1985.38,520.176 2023.62,558.125 2055.22,597.597 2080.19,637.889 2098.14,679.41 2108.28,720.932 2111.4,762.834 2108.28,804.737 2097.36,846.434 2079.41,887.487 2054.83,927.779 2023.62,966.899 1986.16,1004.85 1942.47,1041.16 1892.92,1075.59 1837.9,1107.92 1777.43,1137.67 1712.27,1164.38 1643.22,1187.57 1570.65,1207.01 1495.35,1222.71 1417.8,1234.18 1338.99,1240.74 1259.25,1242.38 1179.71,1239.1 1100.9,1231.14 1023.65,1218.72 948.735,1201.86 876.946,1181.24 809.058,1156.88 745.463,1129.24 686.549,1098.78 633.097,1065.75 585.108,1030.85 543.751,993.839 508.637,955.421 479.765,916.066 457.917,875.54 443.091,834.311 435.287,792.614 434.507,750.8 440.75,708.897 453.235,667.815 473.133,627.347 499.663,587.641 532.437,548.872 571.843,511.274 617.491,475.433 668.602,441.701 725.175,410.311 786.819,381.263 853.146,355.729 923.18,333.475 996.334,314.969 1072.12,300.914 1149.96,291.309 1229.14,286.39 1308.87,286.156 1388.34,290.841 1466.86,300.445 1543.53,314.5 1617.66,332.772 1688.86,355.026 1755.97,380.794 1818.4,409.842 1876.14,441.232 1928.03,475.199 1974.07,511.04 2013.87,548.989 2047.03,587.993 2073.17,628.167 2092.68,669.045 2105.16,710.361 2110.62,752.176 2108.28,794.078 2099.7,835.483 2084.09,876.653 2061.46,917.003 2032.2,956.709 1996.31,995.127 1954.17,1032.26 1905.79,1067.39 1852.34,1100.19 1793.43,1130.64 1729.44,1158.29 1661.16,1182.65 1589.37,1203.26 1514.66,1219.89 1437.5,1232.08 1358.69,1239.81 1279.15,1242.85 1199.51,1240.98 1120.21,1234.18 1042.57,1222.94 966.877,1207.01 894.308,1187.1 825.055,1163.67 760.289,1136.97 699.814,1107.22 645.192,1074.66 595.642,1040.22 552.335,1003.56 515.66,965.494 485.228,926.256 461.038,885.847 444.651,844.736 434.507,803.155 432.166,761.341 436.848,719.702 448.553,678.356 466.5,637.655 491.47,597.48 523.073,558.125 560.918,520.41 605.006,484.335 654.556,450.134 709.958,418.041 770.433,388.291 835.589,361.82 904.647,338.863 977.216,319.42 1052.52,304.193 "/>
<path clip-path="url(#clip060)" d="M1764.98 1438.47 L2280.8 1438.47 L2280.8 1231.11 L1764.98 1231.11  Z" fill="#ffffff" fill-rule="evenodd" fill-opacity="1"/>
<polyline clip-path="url(#clip060)" style="stroke:#000000; stroke-linecap:round; stroke-linejoin:round; stroke-width:4; stroke-opacity:1; fill:none" points="1764.98,1438.47 2280.8,1438.47 2280.8,1231.11 1764.98,1231.11 1764.98,1438.47 "/>
<polyline clip-path="url(#clip060)" style="stroke:#009af9; stroke-linecap:round; stroke-linejoin:round; stroke-width:4; stroke-opacity:1; fill:none" points="1788.97,1282.95 1932.89,1282.95 "/>
<path clip-path="url(#clip060)" d="M1964.29 1266.95 L1964.29 1274.31 L1973.06 1274.31 L1973.06 1277.62 L1964.29 1277.62 L1964.29 1291.69 Q1964.29 1294.86 1965.14 1295.77 Q1966.02 1296.67 1968.68 1296.67 L1973.06 1296.67 L1973.06 1300.23 L1968.68 1300.23 Q1963.75 1300.23 1961.88 1298.41 Q1960 1296.55 1960 1291.69 L1960 1277.62 L1956.88 1277.62 L1956.88 1274.31 L1960 1274.31 L1960 1266.95 L1964.29 1266.95 Z" fill="#000000" fill-rule="nonzero" fill-opacity="1" /><path clip-path="url(#clip060)" d="M1993.68 1278.29 Q1992.97 1277.87 1992.11 1277.69 Q1991.28 1277.48 1990.26 1277.48 Q1986.65 1277.48 1984.7 1279.84 Q1982.78 1282.18 1982.78 1286.58 L1982.78 1300.23 L1978.5 1300.23 L1978.5 1274.31 L1982.78 1274.31 L1982.78 1278.34 Q1984.12 1275.98 1986.28 1274.84 Q1988.43 1273.68 1991.51 1273.68 Q1991.95 1273.68 1992.48 1273.75 Q1993.01 1273.8 1993.66 1273.92 L1993.68 1278.29 Z" fill="#000000" fill-rule="nonzero" fill-opacity="1" /><path clip-path="url(#clip060)" d="M2009.93 1287.2 Q2004.77 1287.2 2002.78 1288.38 Q2000.79 1289.56 2000.79 1292.41 Q2000.79 1294.68 2002.27 1296.02 Q2003.78 1297.34 2006.35 1297.34 Q2009.89 1297.34 2012.02 1294.84 Q2014.17 1292.32 2014.17 1288.15 L2014.17 1287.2 L2009.93 1287.2 M2018.43 1285.44 L2018.43 1300.23 L2014.17 1300.23 L2014.17 1296.3 Q2012.71 1298.66 2010.54 1299.79 Q2008.36 1300.91 2005.21 1300.91 Q2001.23 1300.91 1998.87 1298.68 Q1996.53 1296.44 1996.53 1292.69 Q1996.53 1288.31 1999.45 1286.09 Q2002.39 1283.87 2008.2 1283.87 L2014.17 1283.87 L2014.17 1283.45 Q2014.17 1280.51 2012.23 1278.92 Q2010.31 1277.29 2006.81 1277.29 Q2004.59 1277.29 2002.48 1277.83 Q2000.37 1278.36 1998.43 1279.42 L1998.43 1275.49 Q2000.77 1274.59 2002.97 1274.15 Q2005.17 1273.68 2007.25 1273.68 Q2012.87 1273.68 2015.65 1276.6 Q2018.43 1279.52 2018.43 1285.44 Z" fill="#000000" fill-rule="nonzero" fill-opacity="1" /><path clip-path="url(#clip060)" d="M2027.2 1274.31 L2031.46 1274.31 L2031.46 1300.23 L2027.2 1300.23 L2027.2 1274.31 M2027.2 1264.22 L2031.46 1264.22 L2031.46 1269.61 L2027.2 1269.61 L2027.2 1264.22 Z" fill="#000000" fill-rule="nonzero" fill-opacity="1" /><path clip-path="url(#clip060)" d="M2061.93 1284.59 L2061.93 1300.23 L2057.67 1300.23 L2057.67 1284.73 Q2057.67 1281.04 2056.23 1279.22 Q2054.8 1277.39 2051.93 1277.39 Q2048.48 1277.39 2046.49 1279.59 Q2044.49 1281.79 2044.49 1285.58 L2044.49 1300.23 L2040.21 1300.23 L2040.21 1274.31 L2044.49 1274.31 L2044.49 1278.34 Q2046.02 1276 2048.08 1274.84 Q2050.17 1273.68 2052.87 1273.68 Q2057.34 1273.68 2059.63 1276.46 Q2061.93 1279.22 2061.93 1284.59 Z" fill="#000000" fill-rule="nonzero" fill-opacity="1" /><path clip-path="url(#clip060)" d="M2070.42 1274.31 L2074.68 1274.31 L2074.68 1300.23 L2070.42 1300.23 L2070.42 1274.31 M2070.42 1264.22 L2074.68 1264.22 L2074.68 1269.61 L2070.42 1269.61 L2070.42 1264.22 Z" fill="#000000" fill-rule="nonzero" fill-opacity="1" /><path clip-path="url(#clip060)" d="M2105.14 1284.59 L2105.14 1300.23 L2100.88 1300.23 L2100.88 1284.73 Q2100.88 1281.04 2099.45 1279.22 Q2098.01 1277.39 2095.14 1277.39 Q2091.69 1277.39 2089.7 1279.59 Q2087.71 1281.79 2087.71 1285.58 L2087.71 1300.23 L2083.43 1300.23 L2083.43 1274.31 L2087.71 1274.31 L2087.71 1278.34 Q2089.24 1276 2091.3 1274.84 Q2093.38 1273.68 2096.09 1273.68 Q2100.56 1273.68 2102.85 1276.46 Q2105.14 1279.22 2105.14 1284.59 Z" fill="#000000" fill-rule="nonzero" fill-opacity="1" /><path clip-path="url(#clip060)" d="M2130.7 1286.97 Q2130.7 1282.34 2128.78 1279.79 Q2126.88 1277.25 2123.43 1277.25 Q2120 1277.25 2118.08 1279.79 Q2116.18 1282.34 2116.18 1286.97 Q2116.18 1291.58 2118.08 1294.12 Q2120 1296.67 2123.43 1296.67 Q2126.88 1296.67 2128.78 1294.12 Q2130.7 1291.58 2130.7 1286.97 M2134.96 1297.02 Q2134.96 1303.64 2132.02 1306.85 Q2129.08 1310.1 2123.01 1310.1 Q2120.77 1310.1 2118.78 1309.75 Q2116.79 1309.42 2114.91 1308.73 L2114.91 1304.59 Q2116.79 1305.6 2118.61 1306.09 Q2120.44 1306.58 2122.34 1306.58 Q2126.53 1306.58 2128.61 1304.38 Q2130.7 1302.2 2130.7 1297.78 L2130.7 1295.67 Q2129.38 1297.97 2127.32 1299.1 Q2125.26 1300.23 2122.39 1300.23 Q2117.62 1300.23 2114.7 1296.6 Q2111.79 1292.97 2111.79 1286.97 Q2111.79 1280.95 2114.7 1277.32 Q2117.62 1273.68 2122.39 1273.68 Q2125.26 1273.68 2127.32 1274.82 Q2129.38 1275.95 2130.7 1278.24 L2130.7 1274.31 L2134.96 1274.31 L2134.96 1297.02 Z" fill="#000000" fill-rule="nonzero" fill-opacity="1" /><path clip-path="url(#clip060)" d="M2175.86 1278.24 L2175.86 1264.22 L2180.12 1264.22 L2180.12 1300.23 L2175.86 1300.23 L2175.86 1296.35 Q2174.52 1298.66 2172.46 1299.79 Q2170.42 1300.91 2167.55 1300.91 Q2162.85 1300.91 2159.89 1297.16 Q2156.95 1293.41 2156.95 1287.29 Q2156.95 1281.18 2159.89 1277.43 Q2162.85 1273.68 2167.55 1273.68 Q2170.42 1273.68 2172.46 1274.82 Q2174.52 1275.93 2175.86 1278.24 M2161.35 1287.29 Q2161.35 1291.99 2163.27 1294.68 Q2165.21 1297.34 2168.59 1297.34 Q2171.97 1297.34 2173.92 1294.68 Q2175.86 1291.99 2175.86 1287.29 Q2175.86 1282.6 2173.92 1279.93 Q2171.97 1277.25 2168.59 1277.25 Q2165.21 1277.25 2163.27 1279.93 Q2161.35 1282.6 2161.35 1287.29 Z" fill="#000000" fill-rule="nonzero" fill-opacity="1" /><path clip-path="url(#clip060)" d="M2200.67 1287.2 Q2195.51 1287.2 2193.52 1288.38 Q2191.53 1289.56 2191.53 1292.41 Q2191.53 1294.68 2193.01 1296.02 Q2194.52 1297.34 2197.09 1297.34 Q2200.63 1297.34 2202.76 1294.84 Q2204.91 1292.32 2204.91 1288.15 L2204.91 1287.2 L2200.67 1287.2 M2209.17 1285.44 L2209.17 1300.23 L2204.91 1300.23 L2204.91 1296.3 Q2203.45 1298.66 2201.28 1299.79 Q2199.1 1300.91 2195.95 1300.91 Q2191.97 1300.91 2189.61 1298.68 Q2187.27 1296.44 2187.27 1292.69 Q2187.27 1288.31 2190.19 1286.09 Q2193.13 1283.87 2198.94 1283.87 L2204.91 1283.87 L2204.91 1283.45 Q2204.91 1280.51 2202.97 1278.92 Q2201.04 1277.29 2197.55 1277.29 Q2195.33 1277.29 2193.22 1277.83 Q2191.11 1278.36 2189.17 1279.42 L2189.17 1275.49 Q2191.51 1274.59 2193.71 1274.15 Q2195.91 1273.68 2197.99 1273.68 Q2203.61 1273.68 2206.39 1276.6 Q2209.17 1279.52 2209.17 1285.44 Z" fill="#000000" fill-rule="nonzero" fill-opacity="1" /><path clip-path="url(#clip060)" d="M2222.16 1266.95 L2222.16 1274.31 L2230.93 1274.31 L2230.93 1277.62 L2222.16 1277.62 L2222.16 1291.69 Q2222.16 1294.86 2223.01 1295.77 Q2223.89 1296.67 2226.55 1296.67 L2230.93 1296.67 L2230.93 1300.23 L2226.55 1300.23 Q2221.62 1300.23 2219.75 1298.41 Q2217.87 1296.55 2217.87 1291.69 L2217.87 1277.62 L2214.75 1277.62 L2214.75 1274.31 L2217.87 1274.31 L2217.87 1266.95 L2222.16 1266.95 Z" fill="#000000" fill-rule="nonzero" fill-opacity="1" /><path clip-path="url(#clip060)" d="M2248.31 1287.2 Q2243.15 1287.2 2241.16 1288.38 Q2239.17 1289.56 2239.17 1292.41 Q2239.17 1294.68 2240.65 1296.02 Q2242.16 1297.34 2244.73 1297.34 Q2248.27 1297.34 2250.4 1294.84 Q2252.55 1292.32 2252.55 1288.15 L2252.55 1287.2 L2248.31 1287.2 M2256.81 1285.44 L2256.81 1300.23 L2252.55 1300.23 L2252.55 1296.3 Q2251.09 1298.66 2248.91 1299.79 Q2246.74 1300.91 2243.59 1300.91 Q2239.61 1300.91 2237.25 1298.68 Q2234.91 1296.44 2234.91 1292.69 Q2234.91 1288.31 2237.83 1286.09 Q2240.77 1283.87 2246.58 1283.87 L2252.55 1283.87 L2252.55 1283.45 Q2252.55 1280.51 2250.6 1278.92 Q2248.68 1277.29 2245.19 1277.29 Q2242.97 1277.29 2240.86 1277.83 Q2238.75 1278.36 2236.81 1279.42 L2236.81 1275.49 Q2239.15 1274.59 2241.35 1274.15 Q2243.54 1273.68 2245.63 1273.68 Q2251.25 1273.68 2254.03 1276.6 Q2256.81 1279.52 2256.81 1285.44 Z" fill="#000000" fill-rule="nonzero" fill-opacity="1" /><polyline clip-path="url(#clip060)" style="stroke:#e26f46; stroke-linecap:round; stroke-linejoin:round; stroke-width:4; stroke-opacity:1; fill:none" points="1788.97,1334.79 1932.89,1334.79 "/>
<path clip-path="url(#clip060)" d="M1956.88 1317.51 L1961.56 1317.51 L1961.56 1348.14 L1978.38 1348.14 L1978.38 1352.07 L1956.88 1352.07 L1956.88 1317.51 Z" fill="#000000" fill-rule="nonzero" fill-opacity="1" /><path clip-path="url(#clip060)" d="M1995.93 1322.12 L1989.59 1339.32 L2002.3 1339.32 L1995.93 1322.12 M1993.29 1317.51 L1998.59 1317.51 L2011.76 1352.07 L2006.9 1352.07 L2003.75 1343.21 L1988.18 1343.21 L1985.03 1352.07 L1980.1 1352.07 L1993.29 1317.51 Z" fill="#000000" fill-rule="nonzero" fill-opacity="1" /><path clip-path="url(#clip060)" d="M2052.6 1318.65 L2052.6 1323.21 Q2049.93 1321.94 2047.57 1321.31 Q2045.21 1320.69 2043.01 1320.69 Q2039.19 1320.69 2037.11 1322.17 Q2035.05 1323.65 2035.05 1326.38 Q2035.05 1328.67 2036.42 1329.85 Q2037.8 1331.01 2041.65 1331.73 L2044.47 1332.31 Q2049.7 1333.3 2052.18 1335.82 Q2054.68 1338.32 2054.68 1342.54 Q2054.68 1347.56 2051.3 1350.15 Q2047.94 1352.75 2041.44 1352.75 Q2038.99 1352.75 2036.21 1352.19 Q2033.45 1351.63 2030.49 1350.55 L2030.49 1345.73 Q2033.34 1347.33 2036.07 1348.14 Q2038.8 1348.95 2041.44 1348.95 Q2045.44 1348.95 2047.62 1347.38 Q2049.8 1345.8 2049.8 1342.88 Q2049.8 1340.34 2048.22 1338.9 Q2046.67 1337.47 2043.11 1336.75 L2040.26 1336.19 Q2035.03 1335.15 2032.69 1332.93 Q2030.35 1330.71 2030.35 1326.75 Q2030.35 1322.17 2033.57 1319.53 Q2036.81 1316.89 2042.48 1316.89 Q2044.91 1316.89 2047.43 1317.33 Q2049.96 1317.77 2052.6 1318.65 Z" fill="#000000" fill-rule="nonzero" fill-opacity="1" /><path clip-path="url(#clip060)" d="M2072.57 1354.48 Q2070.77 1359.11 2069.05 1360.52 Q2067.34 1361.94 2064.47 1361.94 L2061.07 1361.94 L2061.07 1358.37 L2063.57 1358.37 Q2065.33 1358.37 2066.3 1357.54 Q2067.27 1356.7 2068.45 1353.6 L2069.22 1351.66 L2058.73 1326.15 L2063.24 1326.15 L2071.35 1346.43 L2079.45 1326.15 L2083.96 1326.15 L2072.57 1354.48 Z" fill="#000000" fill-rule="nonzero" fill-opacity="1" /><path clip-path="url(#clip060)" d="M2110.03 1331.13 Q2111.62 1328.26 2113.85 1326.89 Q2116.07 1325.52 2119.08 1325.52 Q2123.13 1325.52 2125.33 1328.37 Q2127.53 1331.19 2127.53 1336.43 L2127.53 1352.07 L2123.24 1352.07 L2123.24 1336.57 Q2123.24 1332.84 2121.92 1331.03 Q2120.61 1329.23 2117.9 1329.23 Q2114.59 1329.23 2112.67 1331.43 Q2110.74 1333.63 2110.74 1337.42 L2110.74 1352.07 L2106.46 1352.07 L2106.46 1336.57 Q2106.46 1332.82 2105.14 1331.03 Q2103.82 1329.23 2101.07 1329.23 Q2097.8 1329.23 2095.88 1331.45 Q2093.96 1333.65 2093.96 1337.42 L2093.96 1352.07 L2089.68 1352.07 L2089.68 1326.15 L2093.96 1326.15 L2093.96 1330.18 Q2095.42 1327.79 2097.46 1326.66 Q2099.49 1325.52 2102.3 1325.52 Q2105.12 1325.52 2107.09 1326.96 Q2109.08 1328.39 2110.03 1331.13 Z" fill="#000000" fill-rule="nonzero" fill-opacity="1" /><path clip-path="url(#clip060)" d="M2140.14 1348.19 L2140.14 1361.94 L2135.86 1361.94 L2135.86 1326.15 L2140.14 1326.15 L2140.14 1330.08 Q2141.48 1327.77 2143.52 1326.66 Q2145.58 1325.52 2148.43 1325.52 Q2153.15 1325.52 2156.09 1329.27 Q2159.05 1333.02 2159.05 1339.13 Q2159.05 1345.25 2156.09 1349 Q2153.15 1352.75 2148.43 1352.75 Q2145.58 1352.75 2143.52 1351.63 Q2141.48 1350.5 2140.14 1348.19 M2154.63 1339.13 Q2154.63 1334.44 2152.69 1331.77 Q2150.77 1329.09 2147.39 1329.09 Q2144.01 1329.09 2142.06 1331.77 Q2140.14 1334.44 2140.14 1339.13 Q2140.14 1343.83 2142.06 1346.52 Q2144.01 1349.18 2147.39 1349.18 Q2150.77 1349.18 2152.69 1346.52 Q2154.63 1343.83 2154.63 1339.13 Z" fill="#000000" fill-rule="nonzero" fill-opacity="1" /><path clip-path="url(#clip060)" d="M2187.67 1336.43 L2187.67 1352.07 L2183.41 1352.07 L2183.41 1336.57 Q2183.41 1332.88 2181.97 1331.06 Q2180.54 1329.23 2177.67 1329.23 Q2174.22 1329.23 2172.23 1331.43 Q2170.23 1333.63 2170.23 1337.42 L2170.23 1352.07 L2165.95 1352.07 L2165.95 1326.15 L2170.23 1326.15 L2170.23 1330.18 Q2171.76 1327.84 2173.82 1326.68 Q2175.91 1325.52 2178.61 1325.52 Q2183.08 1325.52 2185.37 1328.3 Q2187.67 1331.06 2187.67 1336.43 Z" fill="#000000" fill-rule="nonzero" fill-opacity="1" /><path clip-path="url(#clip060)" d="M2218.34 1338.05 L2218.34 1340.13 L2198.75 1340.13 Q2199.03 1344.53 2201.39 1346.84 Q2203.78 1349.13 2208.01 1349.13 Q2210.47 1349.13 2212.76 1348.53 Q2215.07 1347.93 2217.34 1346.73 L2217.34 1350.75 Q2215.05 1351.73 2212.64 1352.24 Q2210.23 1352.75 2207.76 1352.75 Q2201.55 1352.75 2197.92 1349.13 Q2194.31 1345.52 2194.31 1339.37 Q2194.31 1333 2197.73 1329.27 Q2201.18 1325.52 2207.02 1325.52 Q2212.25 1325.52 2215.28 1328.9 Q2218.34 1332.26 2218.34 1338.05 M2214.08 1336.8 Q2214.03 1333.3 2212.11 1331.22 Q2210.21 1329.13 2207.06 1329.13 Q2203.5 1329.13 2201.35 1331.15 Q2199.22 1333.16 2198.89 1336.82 L2214.08 1336.8 Z" fill="#000000" fill-rule="nonzero" fill-opacity="1" /><path clip-path="url(#clip060)" d="M2229.54 1318.79 L2229.54 1326.15 L2238.31 1326.15 L2238.31 1329.46 L2229.54 1329.46 L2229.54 1343.53 Q2229.54 1346.7 2230.4 1347.61 Q2231.28 1348.51 2233.94 1348.51 L2238.31 1348.51 L2238.31 1352.07 L2233.94 1352.07 Q2229.01 1352.07 2227.13 1350.25 Q2225.26 1348.39 2225.26 1343.53 L2225.26 1329.46 L2222.13 1329.46 L2222.13 1326.15 L2225.26 1326.15 L2225.26 1318.79 L2229.54 1318.79 Z" fill="#000000" fill-rule="nonzero" fill-opacity="1" /><polyline clip-path="url(#clip060)" style="stroke:#3da44d; stroke-linecap:round; stroke-linejoin:round; stroke-width:4; stroke-opacity:1; fill:none" points="1788.97,1386.63 1932.89,1386.63 "/>
<path clip-path="url(#clip060)" d="M1982.43 1398.98 L1982.43 1389.7 L1974.8 1389.7 L1974.8 1385.86 L1987.06 1385.86 L1987.06 1400.7 Q1984.36 1402.62 1981.09 1403.61 Q1977.83 1404.59 1974.12 1404.59 Q1966.02 1404.59 1961.44 1399.86 Q1956.88 1395.12 1956.88 1386.67 Q1956.88 1378.2 1961.44 1373.47 Q1966.02 1368.73 1974.12 1368.73 Q1977.5 1368.73 1980.54 1369.56 Q1983.59 1370.4 1986.16 1372.02 L1986.16 1376.99 Q1983.57 1374.79 1980.65 1373.68 Q1977.74 1372.57 1974.52 1372.57 Q1968.18 1372.57 1964.98 1376.11 Q1961.81 1379.66 1961.81 1386.67 Q1961.81 1393.66 1964.98 1397.2 Q1968.18 1400.74 1974.52 1400.74 Q1977 1400.74 1978.94 1400.33 Q1980.88 1399.89 1982.43 1398.98 Z" fill="#000000" fill-rule="nonzero" fill-opacity="1" /><path clip-path="url(#clip060)" d="M2031.39 1370.49 L2031.39 1375.05 Q2028.73 1373.78 2026.37 1373.15 Q2024.01 1372.53 2021.81 1372.53 Q2017.99 1372.53 2015.91 1374.01 Q2013.85 1375.49 2013.85 1378.22 Q2013.85 1380.51 2015.21 1381.69 Q2016.6 1382.85 2020.44 1383.57 L2023.27 1384.15 Q2028.5 1385.14 2030.98 1387.66 Q2033.48 1390.16 2033.48 1394.38 Q2033.48 1399.4 2030.1 1401.99 Q2026.74 1404.59 2020.24 1404.59 Q2017.78 1404.59 2015 1404.03 Q2012.25 1403.47 2009.29 1402.39 L2009.29 1397.57 Q2012.13 1399.17 2014.87 1399.98 Q2017.6 1400.79 2020.24 1400.79 Q2024.24 1400.79 2026.42 1399.22 Q2028.59 1397.64 2028.59 1394.72 Q2028.59 1392.18 2027.02 1390.74 Q2025.47 1389.31 2021.9 1388.59 L2019.05 1388.03 Q2013.82 1386.99 2011.49 1384.77 Q2009.15 1382.55 2009.15 1378.59 Q2009.15 1374.01 2012.37 1371.37 Q2015.61 1368.73 2021.28 1368.73 Q2023.71 1368.73 2026.23 1369.17 Q2028.75 1369.61 2031.39 1370.49 Z" fill="#000000" fill-rule="nonzero" fill-opacity="1" /><path clip-path="url(#clip060)" d="M2051.37 1406.32 Q2049.56 1410.95 2047.85 1412.36 Q2046.14 1413.78 2043.27 1413.78 L2039.87 1413.78 L2039.87 1410.21 L2042.37 1410.21 Q2044.12 1410.21 2045.1 1409.38 Q2046.07 1408.54 2047.25 1405.44 L2048.01 1403.5 L2037.53 1377.99 L2042.04 1377.99 L2050.14 1398.27 L2058.24 1377.99 L2062.76 1377.99 L2051.37 1406.32 Z" fill="#000000" fill-rule="nonzero" fill-opacity="1" /><path clip-path="url(#clip060)" d="M2088.82 1382.97 Q2090.42 1380.1 2092.64 1378.73 Q2094.86 1377.36 2097.87 1377.36 Q2101.92 1377.36 2104.12 1380.21 Q2106.32 1383.03 2106.32 1388.27 L2106.32 1403.91 L2102.04 1403.91 L2102.04 1388.41 Q2102.04 1384.68 2100.72 1382.87 Q2099.4 1381.07 2096.69 1381.07 Q2093.38 1381.07 2091.46 1383.27 Q2089.54 1385.47 2089.54 1389.26 L2089.54 1403.91 L2085.26 1403.91 L2085.26 1388.41 Q2085.26 1384.66 2083.94 1382.87 Q2082.62 1381.07 2079.86 1381.07 Q2076.6 1381.07 2074.68 1383.29 Q2072.76 1385.49 2072.76 1389.26 L2072.76 1403.91 L2068.48 1403.91 L2068.48 1377.99 L2072.76 1377.99 L2072.76 1382.02 Q2074.22 1379.63 2076.25 1378.5 Q2078.29 1377.36 2081.09 1377.36 Q2083.92 1377.36 2085.88 1378.8 Q2087.87 1380.23 2088.82 1382.97 Z" fill="#000000" fill-rule="nonzero" fill-opacity="1" /><path clip-path="url(#clip060)" d="M2118.94 1400.03 L2118.94 1413.78 L2114.66 1413.78 L2114.66 1377.99 L2118.94 1377.99 L2118.94 1381.92 Q2120.28 1379.61 2122.32 1378.5 Q2124.38 1377.36 2127.23 1377.36 Q2131.95 1377.36 2134.89 1381.11 Q2137.85 1384.86 2137.85 1390.97 Q2137.85 1397.09 2134.89 1400.84 Q2131.95 1404.59 2127.23 1404.59 Q2124.38 1404.59 2122.32 1403.47 Q2120.28 1402.34 2118.94 1400.03 M2133.43 1390.97 Q2133.43 1386.28 2131.48 1383.61 Q2129.56 1380.93 2126.18 1380.93 Q2122.8 1380.93 2120.86 1383.61 Q2118.94 1386.28 2118.94 1390.97 Q2118.94 1395.67 2120.86 1398.36 Q2122.8 1401.02 2126.18 1401.02 Q2129.56 1401.02 2131.48 1398.36 Q2133.43 1395.67 2133.43 1390.97 Z" fill="#000000" fill-rule="nonzero" fill-opacity="1" /><path clip-path="url(#clip060)" d="M2166.46 1388.27 L2166.46 1403.91 L2162.2 1403.91 L2162.2 1388.41 Q2162.2 1384.72 2160.77 1382.9 Q2159.33 1381.07 2156.46 1381.07 Q2153.01 1381.07 2151.02 1383.27 Q2149.03 1385.47 2149.03 1389.26 L2149.03 1403.91 L2144.75 1403.91 L2144.75 1377.99 L2149.03 1377.99 L2149.03 1382.02 Q2150.56 1379.68 2152.62 1378.52 Q2154.7 1377.36 2157.41 1377.36 Q2161.88 1377.36 2164.17 1380.14 Q2166.46 1382.9 2166.46 1388.27 Z" fill="#000000" fill-rule="nonzero" fill-opacity="1" /><path clip-path="url(#clip060)" d="M2197.13 1389.89 L2197.13 1391.97 L2177.55 1391.97 Q2177.83 1396.37 2180.19 1398.68 Q2182.57 1400.97 2186.81 1400.97 Q2189.26 1400.97 2191.55 1400.37 Q2193.87 1399.77 2196.14 1398.57 L2196.14 1402.59 Q2193.85 1403.57 2191.44 1404.08 Q2189.03 1404.59 2186.55 1404.59 Q2180.35 1404.59 2176.72 1400.97 Q2173.11 1397.36 2173.11 1391.21 Q2173.11 1384.84 2176.53 1381.11 Q2179.98 1377.36 2185.81 1377.36 Q2191.04 1377.36 2194.08 1380.74 Q2197.13 1384.1 2197.13 1389.89 M2192.87 1388.64 Q2192.83 1385.14 2190.91 1383.06 Q2189.01 1380.97 2185.86 1380.97 Q2182.29 1380.97 2180.14 1382.99 Q2178.01 1385 2177.69 1388.66 L2192.87 1388.64 Z" fill="#000000" fill-rule="nonzero" fill-opacity="1" /><path clip-path="url(#clip060)" d="M2208.34 1370.63 L2208.34 1377.99 L2217.11 1377.99 L2217.11 1381.3 L2208.34 1381.3 L2208.34 1395.37 Q2208.34 1398.54 2209.19 1399.45 Q2210.07 1400.35 2212.73 1400.35 L2217.11 1400.35 L2217.11 1403.91 L2212.73 1403.91 Q2207.8 1403.91 2205.93 1402.09 Q2204.05 1400.23 2204.05 1395.37 L2204.05 1381.3 L2200.93 1381.3 L2200.93 1377.99 L2204.05 1377.99 L2204.05 1370.63 L2208.34 1370.63 Z" fill="#000000" fill-rule="nonzero" fill-opacity="1" /></svg>
