<?xml version="1.0" encoding="utf-8"?>
<svg xmlns="http://www.w3.org/2000/svg" xmlns:xlink="http://www.w3.org/1999/xlink" width="600" height="400" viewBox="0 0 2400 1600">
<defs>
  <clipPath id="clip860">
    <rect x="0" y="0" width="2400" height="1600"/>
  </clipPath>
</defs>
<path clip-path="url(#clip860)" d="M0 1600 L2400 1600 L2400 0 L0 0  Z" fill="#ffffff" fill-rule="evenodd" fill-opacity="1"/>
<defs>
  <clipPath id="clip861">
    <rect x="480" y="0" width="1681" height="1600"/>
  </clipPath>
</defs>
<path clip-path="url(#clip860)" d="M251.071 1423.18 L2352.76 1423.18 L2352.76 47.2441 L251.071 47.2441  Z" fill="#ffffff" fill-rule="evenodd" fill-opacity="1"/>
<defs>
  <clipPath id="clip862">
    <rect x="251" y="47" width="2103" height="1377"/>
  </clipPath>
</defs>
<polyline clip-path="url(#clip862)" style="stroke:#000000; stroke-linecap:round; stroke-linejoin:round; stroke-width:2; stroke-opacity:0.1; fill:none" points="303.922,1423.18 303.922,47.2441 "/>
<polyline clip-path="url(#clip862)" style="stroke:#000000; stroke-linecap:round; stroke-linejoin:round; stroke-width:2; stroke-opacity:0.1; fill:none" points="967.039,1423.18 967.039,47.2441 "/>
<polyline clip-path="url(#clip862)" style="stroke:#000000; stroke-linecap:round; stroke-linejoin:round; stroke-width:2; stroke-opacity:0.1; fill:none" points="1630.16,1423.18 1630.16,47.2441 "/>
<polyline clip-path="url(#clip862)" style="stroke:#000000; stroke-linecap:round; stroke-linejoin:round; stroke-width:2; stroke-opacity:0.1; fill:none" points="2293.27,1423.18 2293.27,47.2441 "/>
<polyline clip-path="url(#clip860)" style="stroke:#000000; stroke-linecap:round; stroke-linejoin:round; stroke-width:4; stroke-opacity:1; fill:none" points="251.071,1423.18 2352.76,1423.18 "/>
<polyline clip-path="url(#clip860)" style="stroke:#000000; stroke-linecap:round; stroke-linejoin:round; stroke-width:4; stroke-opacity:1; fill:none" points="303.922,1423.18 303.922,1404.28 "/>
<polyline clip-path="url(#clip860)" style="stroke:#000000; stroke-linecap:round; stroke-linejoin:round; stroke-width:4; stroke-opacity:1; fill:none" points="967.039,1423.18 967.039,1404.28 "/>
<polyline clip-path="url(#clip860)" style="stroke:#000000; stroke-linecap:round; stroke-linejoin:round; stroke-width:4; stroke-opacity:1; fill:none" points="1630.16,1423.18 1630.16,1404.28 "/>
<polyline clip-path="url(#clip860)" style="stroke:#000000; stroke-linecap:round; stroke-linejoin:round; stroke-width:4; stroke-opacity:1; fill:none" points="2293.27,1423.18 2293.27,1404.28 "/>
<path clip-path="url(#clip860)" d="M303.922 1454.1 Q300.311 1454.1 298.482 1457.66 Q296.676 1461.2 296.676 1468.33 Q296.676 1475.44 298.482 1479.01 Q300.311 1482.55 303.922 1482.55 Q307.556 1482.55 309.362 1479.01 Q311.19 1475.44 311.19 1468.33 Q311.19 1461.2 309.362 1457.66 Q307.556 1454.1 303.922 1454.1 M303.922 1450.39 Q309.732 1450.39 312.787 1455 Q315.866 1459.58 315.866 1468.33 Q315.866 1477.06 312.787 1481.67 Q309.732 1486.25 303.922 1486.25 Q298.112 1486.25 295.033 1481.67 Q291.977 1477.06 291.977 1468.33 Q291.977 1459.58 295.033 1455 Q298.112 1450.39 303.922 1450.39 Z" fill="#000000" fill-rule="nonzero" fill-opacity="1" /><path clip-path="url(#clip860)" d="M926.646 1481.64 L934.285 1481.64 L934.285 1455.28 L925.975 1456.95 L925.975 1452.69 L934.238 1451.02 L938.914 1451.02 L938.914 1481.64 L946.553 1481.64 L946.553 1485.58 L926.646 1485.58 L926.646 1481.64 Z" fill="#000000" fill-rule="nonzero" fill-opacity="1" /><path clip-path="url(#clip860)" d="M965.998 1454.1 Q962.386 1454.1 960.558 1457.66 Q958.752 1461.2 958.752 1468.33 Q958.752 1475.44 960.558 1479.01 Q962.386 1482.55 965.998 1482.55 Q969.632 1482.55 971.437 1479.01 Q973.266 1475.44 973.266 1468.33 Q973.266 1461.2 971.437 1457.66 Q969.632 1454.1 965.998 1454.1 M965.998 1450.39 Q971.808 1450.39 974.863 1455 Q977.942 1459.58 977.942 1468.33 Q977.942 1477.06 974.863 1481.67 Q971.808 1486.25 965.998 1486.25 Q960.187 1486.25 957.109 1481.67 Q954.053 1477.06 954.053 1468.33 Q954.053 1459.58 957.109 1455 Q960.187 1450.39 965.998 1450.39 Z" fill="#000000" fill-rule="nonzero" fill-opacity="1" /><path clip-path="url(#clip860)" d="M996.159 1454.1 Q992.548 1454.1 990.72 1457.66 Q988.914 1461.2 988.914 1468.33 Q988.914 1475.44 990.72 1479.01 Q992.548 1482.55 996.159 1482.55 Q999.794 1482.55 1001.6 1479.01 Q1003.43 1475.44 1003.43 1468.33 Q1003.43 1461.2 1001.6 1457.66 Q999.794 1454.1 996.159 1454.1 M996.159 1450.39 Q1001.97 1450.39 1005.03 1455 Q1008.1 1459.58 1008.1 1468.33 Q1008.1 1477.06 1005.03 1481.67 Q1001.97 1486.25 996.159 1486.25 Q990.349 1486.25 987.271 1481.67 Q984.215 1477.06 984.215 1468.33 Q984.215 1459.58 987.271 1455 Q990.349 1450.39 996.159 1450.39 Z" fill="#000000" fill-rule="nonzero" fill-opacity="1" /><path clip-path="url(#clip860)" d="M1593.85 1481.64 L1610.17 1481.64 L1610.17 1485.58 L1588.22 1485.58 L1588.22 1481.64 Q1590.89 1478.89 1595.47 1474.26 Q1600.08 1469.61 1601.26 1468.27 Q1603.5 1465.74 1604.38 1464.01 Q1605.28 1462.25 1605.28 1460.56 Q1605.28 1457.8 1603.34 1456.07 Q1601.42 1454.33 1598.32 1454.33 Q1596.12 1454.33 1593.66 1455.09 Q1591.23 1455.86 1588.46 1457.41 L1588.46 1452.69 Q1591.28 1451.55 1593.73 1450.97 Q1596.19 1450.39 1598.22 1450.39 Q1603.59 1450.39 1606.79 1453.08 Q1609.98 1455.77 1609.98 1460.26 Q1609.98 1462.39 1609.17 1464.31 Q1608.39 1466.2 1606.28 1468.8 Q1605.7 1469.47 1602.6 1472.69 Q1599.5 1475.88 1593.85 1481.64 Z" fill="#000000" fill-rule="nonzero" fill-opacity="1" /><path clip-path="url(#clip860)" d="M1629.98 1454.1 Q1626.37 1454.1 1624.54 1457.66 Q1622.74 1461.2 1622.74 1468.33 Q1622.74 1475.44 1624.54 1479.01 Q1626.37 1482.55 1629.98 1482.55 Q1633.62 1482.55 1635.42 1479.01 Q1637.25 1475.44 1637.25 1468.33 Q1637.25 1461.2 1635.42 1457.66 Q1633.62 1454.1 1629.98 1454.1 M1629.98 1450.39 Q1635.79 1450.39 1638.85 1455 Q1641.93 1459.58 1641.93 1468.33 Q1641.93 1477.06 1638.85 1481.67 Q1635.79 1486.25 1629.98 1486.25 Q1624.17 1486.25 1621.09 1481.67 Q1618.04 1477.06 1618.04 1468.33 Q1618.04 1459.58 1621.09 1455 Q1624.17 1450.39 1629.98 1450.39 Z" fill="#000000" fill-rule="nonzero" fill-opacity="1" /><path clip-path="url(#clip860)" d="M1660.15 1454.1 Q1656.53 1454.1 1654.71 1457.66 Q1652.9 1461.2 1652.9 1468.33 Q1652.9 1475.44 1654.71 1479.01 Q1656.53 1482.55 1660.15 1482.55 Q1663.78 1482.55 1665.58 1479.01 Q1667.41 1475.44 1667.41 1468.33 Q1667.41 1461.2 1665.58 1457.66 Q1663.78 1454.1 1660.15 1454.1 M1660.15 1450.39 Q1665.96 1450.39 1669.01 1455 Q1672.09 1459.58 1672.09 1468.33 Q1672.09 1477.06 1669.01 1481.67 Q1665.96 1486.25 1660.15 1486.25 Q1654.33 1486.25 1651.26 1481.67 Q1648.2 1477.06 1648.2 1468.33 Q1648.2 1459.58 1651.26 1455 Q1654.33 1450.39 1660.15 1450.39 Z" fill="#000000" fill-rule="nonzero" fill-opacity="1" /><path clip-path="url(#clip860)" d="M2267.04 1466.95 Q2270.39 1467.66 2272.27 1469.93 Q2274.17 1472.2 2274.17 1475.53 Q2274.17 1480.65 2270.65 1483.45 Q2267.13 1486.25 2260.65 1486.25 Q2258.47 1486.25 2256.16 1485.81 Q2253.86 1485.39 2251.41 1484.54 L2251.41 1480.02 Q2253.36 1481.16 2255.67 1481.74 Q2257.99 1482.32 2260.51 1482.32 Q2264.91 1482.32 2267.2 1480.58 Q2269.51 1478.84 2269.51 1475.53 Q2269.51 1472.48 2267.36 1470.77 Q2265.23 1469.03 2261.41 1469.03 L2257.38 1469.03 L2257.38 1465.19 L2261.6 1465.19 Q2265.05 1465.19 2266.87 1463.82 Q2268.7 1462.43 2268.7 1459.84 Q2268.7 1457.18 2266.8 1455.77 Q2264.93 1454.33 2261.41 1454.33 Q2259.49 1454.33 2257.29 1454.75 Q2255.09 1455.16 2252.45 1456.04 L2252.45 1451.88 Q2255.11 1451.14 2257.43 1450.77 Q2259.77 1450.39 2261.83 1450.39 Q2267.15 1450.39 2270.25 1452.83 Q2273.36 1455.23 2273.36 1459.35 Q2273.36 1462.22 2271.71 1464.21 Q2270.07 1466.18 2267.04 1466.95 Z" fill="#000000" fill-rule="nonzero" fill-opacity="1" /><path clip-path="url(#clip860)" d="M2293.03 1454.1 Q2289.42 1454.1 2287.59 1457.66 Q2285.79 1461.2 2285.79 1468.33 Q2285.79 1475.44 2287.59 1479.01 Q2289.42 1482.55 2293.03 1482.55 Q2296.67 1482.55 2298.47 1479.01 Q2300.3 1475.44 2300.3 1468.33 Q2300.3 1461.2 2298.47 1457.66 Q2296.67 1454.1 2293.03 1454.1 M2293.03 1450.39 Q2298.84 1450.39 2301.9 1455 Q2304.98 1459.58 2304.98 1468.33 Q2304.98 1477.06 2301.9 1481.67 Q2298.84 1486.25 2293.03 1486.25 Q2287.22 1486.25 2284.14 1481.67 Q2281.09 1477.06 2281.09 1468.33 Q2281.09 1459.58 2284.14 1455 Q2287.22 1450.39 2293.03 1450.39 Z" fill="#000000" fill-rule="nonzero" fill-opacity="1" /><path clip-path="url(#clip860)" d="M2323.19 1454.1 Q2319.58 1454.1 2317.75 1457.66 Q2315.95 1461.2 2315.95 1468.33 Q2315.95 1475.44 2317.75 1479.01 Q2319.58 1482.55 2323.19 1482.55 Q2326.83 1482.55 2328.63 1479.01 Q2330.46 1475.44 2330.46 1468.33 Q2330.46 1461.2 2328.63 1457.66 Q2326.83 1454.1 2323.19 1454.1 M2323.19 1450.39 Q2329 1450.39 2332.06 1455 Q2335.14 1459.58 2335.14 1468.33 Q2335.14 1477.06 2332.06 1481.67 Q2329 1486.25 2323.19 1486.25 Q2317.38 1486.25 2314.3 1481.67 Q2311.25 1477.06 2311.25 1468.33 Q2311.25 1459.58 2314.3 1455 Q2317.38 1450.39 2323.19 1450.39 Z" fill="#000000" fill-rule="nonzero" fill-opacity="1" /><path clip-path="url(#clip860)" d="M1208.08 1520.52 L1238.13 1520.52 L1238.13 1525.93 L1214.51 1525.93 L1214.51 1540 L1237.14 1540 L1237.14 1545.41 L1214.51 1545.41 L1214.51 1562.63 L1238.7 1562.63 L1238.7 1568.04 L1208.08 1568.04 L1208.08 1520.52 Z" fill="#000000" fill-rule="nonzero" fill-opacity="1" /><path clip-path="url(#clip860)" d="M1254.68 1562.7 L1254.68 1581.6 L1248.79 1581.6 L1248.79 1532.4 L1254.68 1532.4 L1254.68 1537.81 Q1256.53 1534.62 1259.33 1533.1 Q1262.16 1531.54 1266.07 1531.54 Q1272.57 1531.54 1276.61 1536.69 Q1280.68 1541.85 1280.68 1550.25 Q1280.68 1558.65 1276.61 1563.81 Q1272.57 1568.97 1266.07 1568.97 Q1262.16 1568.97 1259.33 1567.44 Q1256.53 1565.88 1254.68 1562.7 M1274.6 1550.25 Q1274.6 1543.79 1271.93 1540.13 Q1269.29 1536.44 1264.64 1536.44 Q1260 1536.44 1257.32 1540.13 Q1254.68 1543.79 1254.68 1550.25 Q1254.68 1556.71 1257.32 1560.4 Q1260 1564.07 1264.64 1564.07 Q1269.29 1564.07 1271.93 1560.4 Q1274.6 1556.71 1274.6 1550.25 Z" fill="#000000" fill-rule="nonzero" fill-opacity="1" /><path clip-path="url(#clip860)" d="M1304.21 1536.5 Q1299.49 1536.5 1296.76 1540.19 Q1294.02 1543.85 1294.02 1550.25 Q1294.02 1556.65 1296.73 1560.34 Q1299.46 1564 1304.21 1564 Q1308.88 1564 1311.62 1560.31 Q1314.36 1556.62 1314.36 1550.25 Q1314.36 1543.92 1311.62 1540.23 Q1308.88 1536.5 1304.21 1536.5 M1304.21 1531.54 Q1311.84 1531.54 1316.2 1536.5 Q1320.57 1541.47 1320.57 1550.25 Q1320.57 1559 1316.2 1564 Q1311.84 1568.97 1304.21 1568.97 Q1296.53 1568.97 1292.17 1564 Q1287.85 1559 1287.85 1550.25 Q1287.85 1541.47 1292.17 1536.5 Q1296.53 1531.54 1304.21 1531.54 Z" fill="#000000" fill-rule="nonzero" fill-opacity="1" /><path clip-path="url(#clip860)" d="M1355.93 1533.76 L1355.93 1539.24 Q1353.44 1537.87 1350.93 1537.2 Q1348.45 1536.5 1345.9 1536.5 Q1340.2 1536.5 1337.05 1540.13 Q1333.9 1543.73 1333.9 1550.25 Q1333.9 1556.78 1337.05 1560.4 Q1340.2 1564 1345.9 1564 Q1348.45 1564 1350.93 1563.33 Q1353.44 1562.63 1355.93 1561.26 L1355.93 1566.68 Q1353.48 1567.82 1350.83 1568.39 Q1348.22 1568.97 1345.26 1568.97 Q1337.21 1568.97 1332.47 1563.91 Q1327.73 1558.85 1327.73 1550.25 Q1327.73 1541.53 1332.5 1536.53 Q1337.31 1531.54 1345.65 1531.54 Q1348.35 1531.54 1350.93 1532.11 Q1353.51 1532.65 1355.93 1533.76 Z" fill="#000000" fill-rule="nonzero" fill-opacity="1" /><path clip-path="url(#clip860)" d="M1395.74 1546.53 L1395.74 1568.04 L1389.89 1568.04 L1389.89 1546.72 Q1389.89 1541.66 1387.91 1539.14 Q1385.94 1536.63 1381.99 1536.63 Q1377.25 1536.63 1374.51 1539.65 Q1371.78 1542.68 1371.78 1547.9 L1371.78 1568.04 L1365.89 1568.04 L1365.89 1518.52 L1371.78 1518.52 L1371.78 1537.93 Q1373.88 1534.72 1376.71 1533.13 Q1379.58 1531.54 1383.3 1531.54 Q1389.44 1531.54 1392.59 1535.36 Q1395.74 1539.14 1395.74 1546.53 Z" fill="#000000" fill-rule="nonzero" fill-opacity="1" /><polyline clip-path="url(#clip862)" style="stroke:#000000; stroke-linecap:round; stroke-linejoin:round; stroke-width:2; stroke-opacity:0.1; fill:none" points="251.071,1030.78 2352.76,1030.78 "/>
<polyline clip-path="url(#clip862)" style="stroke:#000000; stroke-linecap:round; stroke-linejoin:round; stroke-width:2; stroke-opacity:0.1; fill:none" points="251.071,438.333 2352.76,438.333 "/>
<polyline clip-path="url(#clip860)" style="stroke:#000000; stroke-linecap:round; stroke-linejoin:round; stroke-width:4; stroke-opacity:1; fill:none" points="251.071,1423.18 251.071,47.2441 "/>
<polyline clip-path="url(#clip860)" style="stroke:#000000; stroke-linecap:round; stroke-linejoin:round; stroke-width:4; stroke-opacity:1; fill:none" points="251.071,1030.78 269.969,1030.78 "/>
<polyline clip-path="url(#clip860)" style="stroke:#000000; stroke-linecap:round; stroke-linejoin:round; stroke-width:4; stroke-opacity:1; fill:none" points="251.071,438.333 269.969,438.333 "/>
<path clip-path="url(#clip860)" d="M114.931 1050.57 L122.57 1050.57 L122.57 1024.2 L114.26 1025.87 L114.26 1021.61 L122.524 1019.94 L127.2 1019.94 L127.2 1050.57 L134.839 1050.57 L134.839 1054.5 L114.931 1054.5 L114.931 1050.57 Z" fill="#000000" fill-rule="nonzero" fill-opacity="1" /><path clip-path="url(#clip860)" d="M154.283 1023.02 Q150.672 1023.02 148.843 1026.59 Q147.038 1030.13 147.038 1037.26 Q147.038 1044.37 148.843 1047.93 Q150.672 1051.47 154.283 1051.47 Q157.917 1051.47 159.723 1047.93 Q161.552 1044.37 161.552 1037.26 Q161.552 1030.13 159.723 1026.59 Q157.917 1023.02 154.283 1023.02 M154.283 1019.32 Q160.093 1019.32 163.149 1023.93 Q166.227 1028.51 166.227 1037.26 Q166.227 1045.99 163.149 1050.59 Q160.093 1055.18 154.283 1055.18 Q148.473 1055.18 145.394 1050.59 Q142.339 1045.99 142.339 1037.26 Q142.339 1028.51 145.394 1023.93 Q148.473 1019.32 154.283 1019.32 Z" fill="#000000" fill-rule="nonzero" fill-opacity="1" /><path clip-path="url(#clip860)" d="M166.227 1013.42 L190.339 1013.42 L190.339 1016.62 L166.227 1016.62 L166.227 1013.42 Z" fill="#000000" fill-rule="nonzero" fill-opacity="1" /><path clip-path="url(#clip860)" d="M201.812 1023.9 L215.071 1023.9 L215.071 1027.09 L197.241 1027.09 L197.241 1023.9 Q199.404 1021.66 203.128 1017.9 Q206.871 1014.12 207.83 1013.03 Q209.655 1010.98 210.369 1009.57 Q211.103 1008.14 211.103 1006.76 Q211.103 1004.53 209.523 1003.11 Q207.962 1001.7 205.442 1001.7 Q203.655 1001.7 201.661 1002.32 Q199.686 1002.95 197.43 1004.21 L197.43 1000.37 Q199.724 999.447 201.718 998.977 Q203.711 998.507 205.366 998.507 Q209.73 998.507 212.325 1000.69 Q214.921 1002.87 214.921 1006.52 Q214.921 1008.25 214.263 1009.81 Q213.623 1011.35 211.912 1013.46 Q211.441 1014 208.921 1016.62 Q206.401 1019.21 201.812 1023.9 Z" fill="#000000" fill-rule="nonzero" fill-opacity="1" /><path clip-path="url(#clip860)" d="M144.366 458.126 L152.004 458.126 L152.004 431.76 L143.694 433.427 L143.694 429.168 L151.958 427.501 L156.634 427.501 L156.634 458.126 L164.273 458.126 L164.273 462.061 L144.366 462.061 L144.366 458.126 Z" fill="#000000" fill-rule="nonzero" fill-opacity="1" /><path clip-path="url(#clip860)" d="M183.717 430.58 Q180.106 430.58 178.277 434.144 Q176.472 437.686 176.472 444.816 Q176.472 451.922 178.277 455.487 Q180.106 459.029 183.717 459.029 Q187.351 459.029 189.157 455.487 Q190.986 451.922 190.986 444.816 Q190.986 437.686 189.157 434.144 Q187.351 430.58 183.717 430.58 M183.717 426.876 Q189.527 426.876 192.583 431.482 Q195.662 436.066 195.662 444.816 Q195.662 453.542 192.583 458.149 Q189.527 462.732 183.717 462.732 Q177.907 462.732 174.828 458.149 Q171.773 453.542 171.773 444.816 Q171.773 436.066 174.828 431.482 Q177.907 426.876 183.717 426.876 Z" fill="#000000" fill-rule="nonzero" fill-opacity="1" /><path clip-path="url(#clip860)" d="M205.366 409.072 Q202.432 409.072 200.947 411.968 Q199.48 414.846 199.48 420.639 Q199.48 426.413 200.947 429.309 Q202.432 432.187 205.366 432.187 Q208.319 432.187 209.786 429.309 Q211.272 426.413 211.272 420.639 Q211.272 414.846 209.786 411.968 Q208.319 409.072 205.366 409.072 M205.366 406.063 Q210.087 406.063 212.57 409.805 Q215.071 413.529 215.071 420.639 Q215.071 427.729 212.57 431.472 Q210.087 435.196 205.366 435.196 Q200.646 435.196 198.144 431.472 Q195.662 427.729 195.662 420.639 Q195.662 413.529 198.144 409.805 Q200.646 406.063 205.366 406.063 Z" fill="#000000" fill-rule="nonzero" fill-opacity="1" /><path clip-path="url(#clip860)" d="M16.4842 953.174 L16.4842 912.974 L21.895 912.974 L21.895 929.843 L64.0042 929.843 L64.0042 936.305 L21.895 936.305 L21.895 953.174 L16.4842 953.174 Z" fill="#000000" fill-rule="nonzero" fill-opacity="1" /><path clip-path="url(#clip860)" d="M33.8307 895.946 Q33.2578 896.933 33.0032 898.11 Q32.7167 899.256 32.7167 900.657 Q32.7167 905.622 35.9632 908.296 Q39.1779 910.937 45.2253 910.937 L64.0042 910.937 L64.0042 916.826 L28.3562 916.826 L28.3562 910.937 L33.8944 910.937 Q30.6479 909.091 29.0883 906.131 Q27.4968 903.171 27.4968 898.938 Q27.4968 898.333 27.5923 897.601 Q27.656 896.869 27.8151 895.978 L33.8307 895.946 Z" fill="#000000" fill-rule="nonzero" fill-opacity="1" /><path clip-path="url(#clip860)" d="M46.0847 873.602 Q46.0847 880.7 47.7079 883.437 Q49.3312 886.175 53.2461 886.175 Q56.3653 886.175 58.2114 884.138 Q60.0256 882.069 60.0256 878.536 Q60.0256 873.666 56.5881 870.738 Q53.1188 867.778 47.3897 867.778 L46.0847 867.778 L46.0847 873.602 M43.6657 861.921 L64.0042 861.921 L64.0042 867.778 L58.5933 867.778 Q61.8398 869.783 63.3994 872.775 Q64.9272 875.767 64.9272 880.095 Q64.9272 885.57 61.8716 888.816 Q58.7843 892.031 53.6281 892.031 Q47.6125 892.031 44.5569 888.021 Q41.5014 883.979 41.5014 875.99 L41.5014 867.778 L40.9285 867.778 Q36.8862 867.778 34.6901 870.451 Q32.4621 873.093 32.4621 877.899 Q32.4621 880.955 33.1941 883.851 Q33.9262 886.748 35.3903 889.421 L29.9795 889.421 Q28.7381 886.207 28.1334 883.183 Q27.4968 880.159 27.4968 877.295 Q27.4968 869.56 31.5072 865.741 Q35.5176 861.921 43.6657 861.921 Z" fill="#000000" fill-rule="nonzero" fill-opacity="1" /><path clip-path="url(#clip860)" d="M28.3562 849.858 L28.3562 844.002 L64.0042 844.002 L64.0042 849.858 L28.3562 849.858 M14.479 849.858 L14.479 844.002 L21.895 844.002 L21.895 849.858 L14.479 849.858 Z" fill="#000000" fill-rule="nonzero" fill-opacity="1" /><path clip-path="url(#clip860)" d="M42.4881 802.116 L64.0042 802.116 L64.0042 807.972 L42.679 807.972 Q37.6183 807.972 35.1038 809.945 Q32.5894 811.919 32.5894 815.865 Q32.5894 820.608 35.6131 823.345 Q38.6368 826.082 43.8567 826.082 L64.0042 826.082 L64.0042 831.971 L28.3562 831.971 L28.3562 826.082 L33.8944 826.082 Q30.6797 823.982 29.0883 821.149 Q27.4968 818.284 27.4968 814.561 Q27.4968 808.418 31.3163 805.267 Q35.1038 802.116 42.4881 802.116 Z" fill="#000000" fill-rule="nonzero" fill-opacity="1" /><path clip-path="url(#clip860)" d="M28.3562 790.434 L28.3562 784.578 L64.0042 784.578 L64.0042 790.434 L28.3562 790.434 M14.479 790.434 L14.479 784.578 L21.895 784.578 L21.895 790.434 L14.479 790.434 Z" fill="#000000" fill-rule="nonzero" fill-opacity="1" /><path clip-path="url(#clip860)" d="M42.4881 742.692 L64.0042 742.692 L64.0042 748.548 L42.679 748.548 Q37.6183 748.548 35.1038 750.521 Q32.5894 752.495 32.5894 756.442 Q32.5894 761.184 35.6131 763.921 Q38.6368 766.659 43.8567 766.659 L64.0042 766.659 L64.0042 772.547 L28.3562 772.547 L28.3562 766.659 L33.8944 766.659 Q30.6797 764.558 29.0883 761.725 Q27.4968 758.861 27.4968 755.137 Q27.4968 748.994 31.3163 745.843 Q35.1038 742.692 42.4881 742.692 Z" fill="#000000" fill-rule="nonzero" fill-opacity="1" /><path clip-path="url(#clip860)" d="M45.7664 707.553 Q39.4007 707.553 35.8996 710.195 Q32.3984 712.805 32.3984 717.547 Q32.3984 722.258 35.8996 724.9 Q39.4007 727.509 45.7664 727.509 Q52.1003 727.509 55.6014 724.9 Q59.1026 722.258 59.1026 717.547 Q59.1026 712.805 55.6014 710.195 Q52.1003 707.553 45.7664 707.553 M59.58 701.697 Q68.683 701.697 73.1071 705.739 Q77.5631 709.781 77.5631 718.12 Q77.5631 721.207 77.0857 723.945 Q76.6401 726.682 75.6852 729.26 L69.9879 729.26 Q71.3884 726.682 72.0568 724.167 Q72.7252 721.653 72.7252 719.043 Q72.7252 713.282 69.7015 710.418 Q66.7096 707.553 60.6303 707.553 L57.7339 707.553 Q60.885 709.367 62.4446 712.2 Q64.0042 715.033 64.0042 718.979 Q64.0042 725.536 59.0071 729.546 Q54.01 733.557 45.7664 733.557 Q37.491 733.557 32.4939 729.546 Q27.4968 725.536 27.4968 718.979 Q27.4968 715.033 29.0564 712.2 Q30.616 709.367 33.7671 707.553 L28.3562 707.553 L28.3562 701.697 L59.58 701.697 Z" fill="#000000" fill-rule="nonzero" fill-opacity="1" /><path clip-path="url(#clip860)" d="M44.7161 638.421 L47.5806 638.421 L47.5806 665.348 Q53.6281 664.966 56.8109 661.72 Q59.9619 658.442 59.9619 652.617 Q59.9619 649.243 59.1344 646.092 Q58.3069 642.909 56.6518 639.79 L62.1899 639.79 Q63.5267 642.941 64.227 646.251 Q64.9272 649.561 64.9272 652.967 Q64.9272 661.497 59.9619 666.494 Q54.9967 671.459 46.5303 671.459 Q37.7774 671.459 32.6531 666.749 Q27.4968 662.006 27.4968 653.986 Q27.4968 646.792 32.1438 642.623 Q36.7589 638.421 44.7161 638.421 M42.9973 644.278 Q38.1912 644.342 35.3266 646.983 Q32.4621 649.593 32.4621 653.922 Q32.4621 658.823 35.2312 661.784 Q38.0002 664.712 43.0292 665.157 L42.9973 644.278 Z" fill="#000000" fill-rule="nonzero" fill-opacity="1" /><path clip-path="url(#clip860)" d="M33.8307 608.152 Q33.2578 609.139 33.0032 610.317 Q32.7167 611.463 32.7167 612.863 Q32.7167 617.828 35.9632 620.502 Q39.1779 623.144 45.2253 623.144 L64.0042 623.144 L64.0042 629.032 L28.3562 629.032 L28.3562 623.144 L33.8944 623.144 Q30.6479 621.298 29.0883 618.338 Q27.4968 615.378 27.4968 611.144 Q27.4968 610.54 27.5923 609.808 Q27.656 609.075 27.8151 608.184 L33.8307 608.152 Z" fill="#000000" fill-rule="nonzero" fill-opacity="1" /><path clip-path="url(#clip860)" d="M33.8307 582.499 Q33.2578 583.485 33.0032 584.663 Q32.7167 585.809 32.7167 587.209 Q32.7167 592.175 35.9632 594.848 Q39.1779 597.49 45.2253 597.49 L64.0042 597.49 L64.0042 603.378 L28.3562 603.378 L28.3562 597.49 L33.8944 597.49 Q30.6479 595.644 29.0883 592.684 Q27.4968 589.724 27.4968 585.491 Q27.4968 584.886 27.5923 584.154 Q27.656 583.422 27.8151 582.53 L33.8307 582.499 Z" fill="#000000" fill-rule="nonzero" fill-opacity="1" /><path clip-path="url(#clip860)" d="M32.4621 563.974 Q32.4621 568.685 36.1542 571.422 Q39.8145 574.16 46.212 574.16 Q52.6095 574.16 56.3017 571.454 Q59.9619 568.717 59.9619 563.974 Q59.9619 559.296 56.2698 556.558 Q52.5777 553.821 46.212 553.821 Q39.8781 553.821 36.186 556.558 Q32.4621 559.296 32.4621 563.974 M27.4968 563.974 Q27.4968 556.336 32.4621 551.975 Q37.4273 547.615 46.212 547.615 Q54.9649 547.615 59.9619 551.975 Q64.9272 556.336 64.9272 563.974 Q64.9272 571.645 59.9619 576.006 Q54.9649 580.334 46.212 580.334 Q37.4273 580.334 32.4621 576.006 Q27.4968 571.645 27.4968 563.974 Z" fill="#000000" fill-rule="nonzero" fill-opacity="1" /><path clip-path="url(#clip860)" d="M33.8307 517.25 Q33.2578 518.237 33.0032 519.415 Q32.7167 520.56 32.7167 521.961 Q32.7167 526.926 35.9632 529.6 Q39.1779 532.241 45.2253 532.241 L64.0042 532.241 L64.0042 538.13 L28.3562 538.13 L28.3562 532.241 L33.8944 532.241 Q30.6479 530.395 29.0883 527.435 Q27.4968 524.475 27.4968 520.242 Q27.4968 519.637 27.5923 518.905 Q27.656 518.173 27.8151 517.282 L33.8307 517.25 Z" fill="#000000" fill-rule="nonzero" fill-opacity="1" /><polyline clip-path="url(#clip862)" style="stroke:#3da44d; stroke-linecap:round; stroke-linejoin:round; stroke-width:4; stroke-opacity:1; fill:none" points="310.553,468.573 317.184,477.199 323.815,484.632 330.446,493.289 337.078,501.644 343.709,508.611 350.34,515.747 356.971,522.455 363.602,531.136 370.233,540.031 376.865,550.634 383.496,562.768 390.127,577.364 396.758,595.738 403.389,616.928 410.021,645.572 416.652,686.305 423.283,751.788 429.914,867.817 436.545,901.73 443.176,1005.12 449.808,1045.5 456.439,1061.41 463.07,1079.57 469.701,1083.72 476.332,1086.87 482.963,1086.65 489.595,1088.94 496.226,1090.33 502.857,1093.09 509.488,1094.05 516.119,1094.62 522.75,1092.85 529.382,1094.53 536.013,1094.13 542.644,1093.81 549.275,1096.48 555.906,1099.88 562.538,1104.5 569.169,1104.24 575.8,1104.24 582.431,1107.31 589.062,1108.47 595.693,1115.39 602.325,1120.81 608.956,1125.85 615.587,1128.97 622.218,1132.6 628.849,1135.33 635.48,1137.34 642.112,1144.98 648.743,1151.33 655.374,1148.24 662.005,1157.09 668.636,1166.12 675.268,1171.2 681.899,1179.9 688.53,1187.3 695.161,1186.89 701.792,1195.86 708.423,1201.1 715.055,1210.97 721.686,1217.93 728.317,1224.06 734.948,1230.74 741.579,1244.19 748.21,1250.39 754.842,1238.76 761.473,1239.5 768.104,1225.06 774.735,1224.72 781.366,1236.68 787.998,1244.7 794.629,1223.51 801.26,1256.06 807.891,1283.01 814.522,1286.01 821.153,1285.12 827.785,1294.02 834.416,1286.01 841.047,1240.38 847.678,1252.92 854.309,1267.67 860.94,1235.11 867.572,1282.49 874.203,1300.34 880.834,1306.99 887.465,1304.29 894.096,1310.51 900.727,1315.46 907.359,1317.15 913.99,1311.48 920.621,1305.95 927.252,1296.7 933.883,1311.81 940.515,1313.12 947.146,1311.16 953.777,1313.12 960.408,1306.05 967.039,1299.05 973.67,1310.18 980.302,1291.02 986.933,1282.41 993.564,1279.07 1000.2,1255.01 1006.83,1250.6 1013.46,1277.89 1020.09,1324.52 1026.72,1338.22 1033.35,1333.88 1039.98,1337.02 1046.61,1312.14 1053.24,1334.39 1059.88,1289.26 1066.51,1247.85 1073.14,1260.08 1079.77,1249.45 1086.4,1271.91 1093.03,1322.25 1099.66,1324.64 1106.29,1327.56 1112.93,1294.97 1119.56,1332.4 1126.19,1335.44 1132.82,1334.39 1139.45,1338.09 1146.08,1342.09 1152.71,1334.85 1159.34,1342.44 1165.97,1341.95 1172.61,1340.04 1179.24,1340.79 1185.87,1334.46 1192.5,1350.72 1199.13,1355.84 1205.76,1353.56 1212.39,1352.13 1219.02,1317.95 1225.66,1335.9 1232.29,1343.69 1238.92,1357.69 1245.55,1351.61 1252.18,1337.02 1258.81,1255.15 1265.44,1276.64 1272.07,1271.2 1278.7,1293.92 1285.34,1352.88 1291.97,1354.62 1298.6,1350.65 1305.23,1286.55 1311.86,1262.96 1318.49,1262.44 1325.12,1257.41 1331.75,1258.78 1338.39,1267.67 1345.02,1272.48 1351.65,1267.59 1358.28,1278.06 1364.91,1273.36 1371.54,1252.92 1378.17,1264.46 1384.8,1248.91 1391.43,1249.79 1398.07,1258.7 1404.7,1268.21 1411.33,1266.05 1417.96,1263.48 1424.59,1259.57 1431.22,1261.48 1437.85,1264.31 1444.48,1263.33 1451.12,1267.82 1457.75,1265.67 1464.38,1263.26 1471.01,1267.2 1477.64,1266.28 1484.27,1268.13 1490.9,1250.26 1497.53,1228.89 1504.16,1254.8 1510.8,1240.88 1517.43,1216.26 1524.06,1244.19 1530.69,1234.27 1537.32,1319.21 1543.95,1357.07 1550.58,1356.15 1557.21,1365.56 1563.84,1367.4 1570.48,1376.62 1577.11,1359.26 1583.74,1362.29 1590.37,1353.48 1597,1375.72 1603.63,1377.89 1610.26,1377.8 1616.89,1369.09 1623.53,1361.09 1630.16,1369.17 1636.79,1368.24 1643.42,1370.97 1650.05,1372.89 1656.68,1380.19 1663.31,1384.24 1669.94,1358.95 1676.57,1357.15 1683.21,1351.76 1689.84,1320.84 1696.47,1318.98 1703.1,1277.14 1709.73,1285.39 1716.36,1261.18 1722.99,1224.95 1729.62,1288.63 1736.26,1351.61 1742.89,1359.66 1749.52,1361.65 1756.15,1360.85 1762.78,1375.36 1769.41,1381.02 1776.04,1378.62 1782.67,1382.15 1789.3,1376.44 1795.94,1379.35 1802.57,1373.41 1809.2,1375.27 1815.83,1362.61 1822.46,1364.82 1829.09,1362.86 1835.72,1371.66 1842.35,1373.94 1848.99,1382.43 1855.62,1370.8 1862.25,1370.2 1868.88,1374.03 1875.51,1380.84 1882.14,1381.87 1888.77,1377.16 1895.4,1369.09 1902.03,1374.65 1908.67,1365.15 1915.3,1372.53 1921.93,1359.89 1928.56,1307.31 1935.19,1256.56 1941.82,1239.75 1948.45,1236.68 1955.08,1222.09 1961.72,1224.5 1968.35,1234.87 1974.98,1225.95 1981.61,1228.78 1988.24,1250.12 1994.87,1325.48 2001.5,1345.52 2008.13,1358.87 2014.76,1361.73 2021.4,1363.43 2028.03,1361.25 2034.66,1368.41 2041.29,1368.66 2047.92,1379.91 2054.55,1374.65 2061.18,1371.49 2067.81,1374.12 2074.45,1374.56 2081.08,1379.35 2087.71,1374.21 2094.34,1364.74 2100.97,1366.22 2107.6,1366.47 2114.23,1373.06 2120.86,1360.21 2127.49,1364.08 2134.13,1350.57 2140.76,1364 2147.39,1380.19 2154.02,1381.02 2160.65,1377.34 2167.28,1377.8 2173.91,1375.01 2180.54,1382.81 2187.18,1363.92 2193.81,1273.6 2200.44,1264.91 2207.07,1279.91 2213.7,1287 2220.33,1272.64 2226.96,1262.44 2233.59,1244.06 2240.22,1256.63 2246.86,1238.02 2253.49,1224.39 2260.12,1236.19 2266.75,1236.31 2273.38,1213.28 2280.01,1219.19 2286.64,1289.36 2293.27,1345.66 "/>
<polyline clip-path="url(#clip862)" style="stroke:#e26f46; stroke-linecap:round; stroke-linejoin:round; stroke-width:4; stroke-opacity:1; fill:none" points="310.553,86.1857 317.184,94.0337 323.815,99.545 330.446,105.605 337.078,109.524 343.709,115.104 350.34,120.427 356.971,125.361 363.602,130.491 370.233,134.976 376.865,140.315 383.496,145.885 390.127,150.844 396.758,156.225 403.389,161.608 410.021,166.86 416.652,170.567 423.283,176.863 429.914,181.556 436.545,187.71 443.176,192.675 449.808,199.086 456.439,205.175 463.07,211.567 469.701,218.657 476.332,226.064 482.963,233.923 489.595,242.404 496.226,251.248 502.857,259.99 509.488,269.099 516.119,276.953 522.75,282.744 529.382,288.807 536.013,293.937 542.644,297.587 549.275,301.517 555.906,304.856 562.538,306.74 569.169,308.376 575.8,310.034 582.431,310.684 589.062,312.278 595.693,312.561 602.325,314.561 608.956,314.561 615.587,315.913 622.218,316.594 628.849,316.496 635.48,317.474 642.112,318.857 648.743,319.853 655.374,320.757 662.005,321.16 668.636,322.481 675.268,323.403 681.899,325.372 688.53,326.315 695.161,326.42 701.792,329.187 708.423,329.295 715.055,330.92 721.686,331.685 728.317,333.23 734.948,334.569 741.579,334.681 748.21,336.832 754.842,338.094 761.473,339.951 768.104,341.126 774.735,341.126 781.366,343.749 787.998,344.595 794.629,345.203 801.26,347.167 807.891,348.66 814.522,351.188 821.153,350.615 827.785,352.084 834.416,354.549 841.047,355.075 847.678,356.729 854.309,358.811 860.94,359.968 867.572,361.066 874.203,362.8 880.834,363.57 887.465,365.553 894.096,366.988 900.727,368.658 907.359,369.391 913.99,371.915 920.621,372.516 927.252,374.413 933.883,375.874 940.515,377.273 947.146,379.242 953.777,380.438 960.408,382.456 967.039,383.355 973.67,386.171 980.302,386.339 986.933,388.794 993.564,390.169 1000.2,391.909 1006.83,393.584 1013.46,394.028 1020.09,398.006 1026.72,398.651 1033.35,400.885 1039.98,402.111 1046.61,404.504 1053.24,405.96 1059.88,408.128 1066.51,410.029 1073.14,411.959 1079.77,413.815 1086.4,415.487 1093.03,419.006 1099.66,420.747 1106.29,422.401 1112.93,424.528 1119.56,427.843 1126.19,430.416 1132.82,432.56 1139.45,434.497 1146.08,437.957 1152.71,439.469 1159.34,442.547 1165.97,445.104 1172.61,448.186 1179.24,452.883 1185.87,454.725 1192.5,457.757 1199.13,461.012 1205.76,464.352 1212.39,467.938 1219.02,470.736 1225.66,475.092 1232.29,478.824 1238.92,482.489 1245.55,486.354 1252.18,490.15 1258.81,493.772 1265.44,497.002 1272.07,501.541 1278.7,506.14 1285.34,510.358 1291.97,515.518 1298.6,520.18 1305.23,523.668 1311.86,528.641 1318.49,534.276 1325.12,539.065 1331.75,544.468 1338.39,549.511 1345.02,555.382 1351.65,560.718 1358.28,566.286 1364.91,571.484 1371.54,577.086 1378.17,582.847 1384.8,589.182 1391.43,594.992 1398.07,600.412 1404.7,606.767 1411.33,611.747 1417.96,617.37 1424.59,623.183 1431.22,628.856 1437.85,634.431 1444.48,640.635 1451.12,645.415 1457.75,648.918 1464.38,654.527 1471.01,659.775 1477.64,664.88 1484.27,669.911 1490.9,673.573 1497.53,678.252 1504.16,683.318 1510.8,686.305 1517.43,691.143 1524.06,695.242 1530.69,698.286 1537.32,703.73 1543.95,708.002 1550.58,712.157 1557.21,716.928 1563.84,721.245 1570.48,727.111 1577.11,729.883 1583.74,735.374 1590.37,739.878 1597,744.205 1603.63,749.122 1610.26,753.505 1616.89,757.196 1623.53,762.16 1630.16,766.012 1636.79,769.777 1643.42,772.912 1650.05,775.584 1656.68,778.977 1663.31,781.328 1669.94,783.492 1676.57,785.343 1683.21,788.528 1689.84,789.487 1696.47,791.55 1703.1,793.521 1709.73,795.02 1716.36,795.776 1722.99,797.814 1729.62,800.867 1736.26,801.99 1742.89,804.129 1749.52,806.237 1756.15,806.924 1762.78,809.64 1769.41,810.345 1776.04,812.558 1782.67,814.225 1789.3,816.209 1795.94,818.752 1802.57,820.578 1809.2,822.12 1815.83,824.546 1822.46,825.897 1829.09,828.396 1835.72,829.706 1842.35,832.617 1848.99,834.226 1855.62,835.081 1862.25,837.156 1868.88,839.265 1875.51,842.95 1882.14,843.589 1888.77,846.275 1895.4,847.875 1902.03,850.846 1908.67,852.014 1915.3,854.185 1921.93,855.787 1928.56,858.433 1935.19,861.24 1941.82,862.084 1948.45,864.864 1955.08,866.825 1961.72,869.151 1968.35,870.952 1974.98,874.398 1981.61,876.629 1988.24,877.461 1994.87,880.233 2001.5,882.321 2008.13,884.885 2014.76,887.243 2021.4,890.039 2028.03,892.361 2034.66,894.657 2041.29,896.717 2047.92,898.741 2054.55,900.797 2061.18,904.128 2067.81,908.075 2074.45,909.673 2081.08,911.757 2087.71,914.352 2094.34,916.03 2100.97,919.289 2107.6,921.789 2114.23,925.199 2120.86,927.73 2127.49,929.593 2134.13,932.578 2140.76,934.607 2147.39,937.331 2154.02,940.017 2160.65,942.464 2167.28,945.767 2173.91,949.157 2180.54,951.15 2187.18,951.679 2193.81,956.216 2200.44,960.578 2207.07,963.221 2213.7,966.276 2220.33,970.875 2226.96,973.112 2233.59,976.093 2240.22,979.804 2246.86,983.013 2253.49,986.792 2260.12,989.47 2266.75,992.714 2273.38,996.718 2280.01,1000.93 2286.64,1005.12 2293.27,1007.39 "/>
<path clip-path="url(#clip860)" d="M1784.69 248.629 L2282.7 248.629 L2282.7 93.1086 L1784.69 93.1086  Z" fill="#ffffff" fill-rule="evenodd" fill-opacity="1"/>
<polyline clip-path="url(#clip860)" style="stroke:#000000; stroke-linecap:round; stroke-linejoin:round; stroke-width:4; stroke-opacity:1; fill:none" points="1784.69,248.629 2282.7,248.629 2282.7,93.1086 1784.69,93.1086 1784.69,248.629 "/>
<polyline clip-path="url(#clip860)" style="stroke:#3da44d; stroke-linecap:round; stroke-linejoin:round; stroke-width:4; stroke-opacity:1; fill:none" points="1808.04,144.949 1948.15,144.949 "/>
<path clip-path="url(#clip860)" d="M1997.06 157.298 L1997.06 148.016 L1989.42 148.016 L1989.42 144.173 L2001.69 144.173 L2001.69 159.011 Q1998.98 160.932 1995.71 161.928 Q1992.45 162.9 1988.75 162.9 Q1980.65 162.9 1976.06 158.178 Q1971.5 153.432 1971.5 144.983 Q1971.5 136.511 1976.06 131.789 Q1980.65 127.044 1988.75 127.044 Q1992.13 127.044 1995.16 127.877 Q1998.21 128.71 2000.78 130.331 L2000.78 135.307 Q1998.19 133.108 1995.28 131.997 Q1992.36 130.886 1989.14 130.886 Q1982.8 130.886 1979.6 134.428 Q1976.43 137.969 1976.43 144.983 Q1976.43 151.974 1979.6 155.516 Q1982.8 159.057 1989.14 159.057 Q1991.62 159.057 1993.56 158.641 Q1995.51 158.201 1997.06 157.298 Z" fill="#000000" fill-rule="nonzero" fill-opacity="1" /><path clip-path="url(#clip860)" d="M2007.89 147.344 L2020.37 147.344 L2020.37 151.141 L2007.89 151.141 L2007.89 147.344 Z" fill="#000000" fill-rule="nonzero" fill-opacity="1" /><path clip-path="url(#clip860)" d="M2048.05 128.803 L2048.05 133.363 Q2045.39 132.09 2043.03 131.465 Q2040.67 130.84 2038.47 130.84 Q2034.65 130.84 2032.57 132.321 Q2030.51 133.803 2030.51 136.534 Q2030.51 138.826 2031.87 140.007 Q2033.26 141.164 2037.1 141.882 L2039.93 142.46 Q2045.16 143.456 2047.64 145.979 Q2050.14 148.479 2050.14 152.692 Q2050.14 157.715 2046.76 160.307 Q2043.4 162.9 2036.9 162.9 Q2034.44 162.9 2031.66 162.344 Q2028.91 161.789 2025.95 160.701 L2025.95 155.886 Q2028.79 157.483 2031.52 158.293 Q2034.26 159.104 2036.9 159.104 Q2040.9 159.104 2043.08 157.53 Q2045.25 155.956 2045.25 153.039 Q2045.25 150.493 2043.68 149.057 Q2042.13 147.622 2038.56 146.905 L2035.71 146.349 Q2030.48 145.307 2028.15 143.085 Q2025.81 140.863 2025.81 136.905 Q2025.81 132.321 2029.02 129.682 Q2032.27 127.044 2037.94 127.044 Q2040.37 127.044 2042.89 127.483 Q2045.41 127.923 2048.05 128.803 Z" fill="#000000" fill-rule="nonzero" fill-opacity="1" /><path clip-path="url(#clip860)" d="M2068.03 164.636 Q2066.22 169.266 2064.51 170.678 Q2062.8 172.09 2059.93 172.09 L2056.52 172.09 L2056.52 168.525 L2059.02 168.525 Q2060.78 168.525 2061.76 167.692 Q2062.73 166.858 2063.91 163.756 L2064.67 161.812 L2054.19 136.303 L2058.7 136.303 L2066.8 156.581 L2074.9 136.303 L2079.42 136.303 L2068.03 164.636 Z" fill="#000000" fill-rule="nonzero" fill-opacity="1" /><path clip-path="url(#clip860)" d="M2105.48 141.28 Q2107.08 138.409 2109.3 137.044 Q2111.52 135.678 2114.53 135.678 Q2118.58 135.678 2120.78 138.525 Q2122.98 141.349 2122.98 146.581 L2122.98 162.229 L2118.7 162.229 L2118.7 146.719 Q2118.7 142.993 2117.38 141.187 Q2116.06 139.382 2113.35 139.382 Q2110.04 139.382 2108.12 141.581 Q2106.2 143.78 2106.2 147.576 L2106.2 162.229 L2101.92 162.229 L2101.92 146.719 Q2101.92 142.969 2100.6 141.187 Q2099.28 139.382 2096.52 139.382 Q2093.26 139.382 2091.34 141.604 Q2089.42 143.803 2089.42 147.576 L2089.42 162.229 L2085.14 162.229 L2085.14 136.303 L2089.42 136.303 L2089.42 140.331 Q2090.88 137.946 2092.91 136.812 Q2094.95 135.678 2097.75 135.678 Q2100.58 135.678 2102.54 137.113 Q2104.53 138.548 2105.48 141.28 Z" fill="#000000" fill-rule="nonzero" fill-opacity="1" /><path clip-path="url(#clip860)" d="M2135.6 158.34 L2135.6 172.09 L2131.32 172.09 L2131.32 136.303 L2135.6 136.303 L2135.6 140.238 Q2136.94 137.923 2138.98 136.812 Q2141.04 135.678 2143.89 135.678 Q2148.61 135.678 2151.55 139.428 Q2154.51 143.178 2154.51 149.289 Q2154.51 155.4 2151.55 159.15 Q2148.61 162.9 2143.89 162.9 Q2141.04 162.9 2138.98 161.789 Q2136.94 160.655 2135.6 158.34 M2150.09 149.289 Q2150.09 144.59 2148.14 141.928 Q2146.22 139.243 2142.84 139.243 Q2139.46 139.243 2137.52 141.928 Q2135.6 144.59 2135.6 149.289 Q2135.6 153.988 2137.52 156.673 Q2139.46 159.335 2142.84 159.335 Q2146.22 159.335 2148.14 156.673 Q2150.09 153.988 2150.09 149.289 Z" fill="#000000" fill-rule="nonzero" fill-opacity="1" /><path clip-path="url(#clip860)" d="M2161.76 127.669 L2168.05 127.669 L2183.38 156.581 L2183.38 127.669 L2187.91 127.669 L2187.91 162.229 L2181.62 162.229 L2166.29 133.317 L2166.29 162.229 L2161.76 162.229 L2161.76 127.669 Z" fill="#000000" fill-rule="nonzero" fill-opacity="1" /><path clip-path="url(#clip860)" d="M2219.21 148.201 L2219.21 150.284 L2199.63 150.284 Q2199.9 154.682 2202.26 156.997 Q2204.65 159.289 2208.89 159.289 Q2211.34 159.289 2213.63 158.687 Q2215.95 158.085 2218.21 156.881 L2218.21 160.909 Q2215.92 161.881 2213.51 162.391 Q2211.11 162.9 2208.63 162.9 Q2202.43 162.9 2198.79 159.289 Q2195.18 155.678 2195.18 149.52 Q2195.18 143.155 2198.61 139.428 Q2202.06 135.678 2207.89 135.678 Q2213.12 135.678 2216.15 139.057 Q2219.21 142.414 2219.21 148.201 M2214.95 146.951 Q2214.9 143.456 2212.98 141.372 Q2211.08 139.289 2207.94 139.289 Q2204.37 139.289 2202.22 141.303 Q2200.09 143.317 2199.76 146.974 L2214.95 146.951 Z" fill="#000000" fill-rule="nonzero" fill-opacity="1" /><path clip-path="url(#clip860)" d="M2230.41 128.942 L2230.41 136.303 L2239.19 136.303 L2239.19 139.613 L2230.41 139.613 L2230.41 153.687 Q2230.41 156.858 2231.27 157.761 Q2232.15 158.664 2234.81 158.664 L2239.19 158.664 L2239.19 162.229 L2234.81 162.229 Q2229.88 162.229 2228.01 160.4 Q2226.13 158.548 2226.13 153.687 L2226.13 139.613 L2223.01 139.613 L2223.01 136.303 L2226.13 136.303 L2226.13 128.942 L2230.41 128.942 Z" fill="#000000" fill-rule="nonzero" fill-opacity="1" /><polyline clip-path="url(#clip860)" style="stroke:#e26f46; stroke-linecap:round; stroke-linejoin:round; stroke-width:4; stroke-opacity:1; fill:none" points="1808.04,196.789 1948.15,196.789 "/>
<path clip-path="url(#clip860)" d="M1971.5 179.509 L1976.18 179.509 L1976.18 210.133 L1993.01 210.133 L1993.01 214.069 L1971.5 214.069 L1971.5 179.509 Z" fill="#000000" fill-rule="nonzero" fill-opacity="1" /><path clip-path="url(#clip860)" d="M2010.55 184.115 L2004.21 201.314 L2016.92 201.314 L2010.55 184.115 M2007.91 179.509 L2013.21 179.509 L2026.39 214.069 L2021.52 214.069 L2018.38 205.203 L2002.8 205.203 L1999.65 214.069 L1994.72 214.069 L2007.91 179.509 Z" fill="#000000" fill-rule="nonzero" fill-opacity="1" /><path clip-path="url(#clip860)" d="M2028.05 199.184 L2040.53 199.184 L2040.53 202.981 L2028.05 202.981 L2028.05 199.184 Z" fill="#000000" fill-rule="nonzero" fill-opacity="1" /><path clip-path="url(#clip860)" d="M2068.21 180.643 L2068.21 185.203 Q2065.55 183.93 2063.19 183.305 Q2060.83 182.68 2058.63 182.68 Q2054.81 182.68 2052.73 184.161 Q2050.67 185.643 2050.67 188.374 Q2050.67 190.666 2052.03 191.847 Q2053.42 193.004 2057.27 193.722 L2060.09 194.3 Q2065.32 195.296 2067.8 197.819 Q2070.3 200.319 2070.3 204.532 Q2070.3 209.555 2066.92 212.147 Q2063.56 214.74 2057.06 214.74 Q2054.6 214.74 2051.83 214.184 Q2049.07 213.629 2046.11 212.541 L2046.11 207.726 Q2048.96 209.323 2051.69 210.133 Q2054.42 210.944 2057.06 210.944 Q2061.06 210.944 2063.24 209.37 Q2065.41 207.796 2065.41 204.879 Q2065.41 202.333 2063.84 200.897 Q2062.29 199.462 2058.72 198.745 L2055.88 198.189 Q2050.65 197.147 2048.31 194.925 Q2045.97 192.703 2045.97 188.745 Q2045.97 184.161 2049.19 181.522 Q2052.43 178.884 2058.1 178.884 Q2060.53 178.884 2063.05 179.323 Q2065.58 179.763 2068.21 180.643 Z" fill="#000000" fill-rule="nonzero" fill-opacity="1" /><path clip-path="url(#clip860)" d="M2088.19 216.476 Q2086.39 221.106 2084.67 222.518 Q2082.96 223.93 2080.09 223.93 L2076.69 223.93 L2076.69 220.365 L2079.19 220.365 Q2080.95 220.365 2081.92 219.532 Q2082.89 218.698 2084.07 215.596 L2084.83 213.652 L2074.35 188.143 L2078.86 188.143 L2086.96 208.421 L2095.07 188.143 L2099.58 188.143 L2088.19 216.476 Z" fill="#000000" fill-rule="nonzero" fill-opacity="1" /><path clip-path="url(#clip860)" d="M2125.64 193.12 Q2127.24 190.249 2129.46 188.884 Q2131.69 187.518 2134.7 187.518 Q2138.75 187.518 2140.95 190.365 Q2143.14 193.189 2143.14 198.421 L2143.14 214.069 L2138.86 214.069 L2138.86 198.559 Q2138.86 194.833 2137.54 193.027 Q2136.22 191.222 2133.52 191.222 Q2130.2 191.222 2128.28 193.421 Q2126.36 195.62 2126.36 199.416 L2126.36 214.069 L2122.08 214.069 L2122.08 198.559 Q2122.08 194.809 2120.76 193.027 Q2119.44 191.222 2116.69 191.222 Q2113.42 191.222 2111.5 193.444 Q2109.58 195.643 2109.58 199.416 L2109.58 214.069 L2105.3 214.069 L2105.3 188.143 L2109.58 188.143 L2109.58 192.171 Q2111.04 189.786 2113.08 188.652 Q2115.11 187.518 2117.91 187.518 Q2120.74 187.518 2122.7 188.953 Q2124.7 190.388 2125.64 193.12 Z" fill="#000000" fill-rule="nonzero" fill-opacity="1" /><path clip-path="url(#clip860)" d="M2155.76 210.18 L2155.76 223.93 L2151.48 223.93 L2151.48 188.143 L2155.76 188.143 L2155.76 192.078 Q2157.1 189.763 2159.14 188.652 Q2161.2 187.518 2164.05 187.518 Q2168.77 187.518 2171.71 191.268 Q2174.67 195.018 2174.67 201.129 Q2174.67 207.24 2171.71 210.99 Q2168.77 214.74 2164.05 214.74 Q2161.2 214.74 2159.14 213.629 Q2157.1 212.495 2155.76 210.18 M2170.25 201.129 Q2170.25 196.43 2168.31 193.768 Q2166.39 191.083 2163.01 191.083 Q2159.63 191.083 2157.68 193.768 Q2155.76 196.43 2155.76 201.129 Q2155.76 205.828 2157.68 208.513 Q2159.63 211.175 2163.01 211.175 Q2166.39 211.175 2168.31 208.513 Q2170.25 205.828 2170.25 201.129 Z" fill="#000000" fill-rule="nonzero" fill-opacity="1" /><path clip-path="url(#clip860)" d="M2181.92 179.509 L2188.21 179.509 L2203.54 208.421 L2203.54 179.509 L2208.07 179.509 L2208.07 214.069 L2201.78 214.069 L2186.45 185.157 L2186.45 214.069 L2181.92 214.069 L2181.92 179.509 Z" fill="#000000" fill-rule="nonzero" fill-opacity="1" /><path clip-path="url(#clip860)" d="M2239.37 200.041 L2239.37 202.124 L2219.79 202.124 Q2220.07 206.522 2222.43 208.837 Q2224.81 211.129 2229.05 211.129 Q2231.5 211.129 2233.79 210.527 Q2236.11 209.925 2238.38 208.721 L2238.38 212.749 Q2236.08 213.721 2233.68 214.231 Q2231.27 214.74 2228.79 214.74 Q2222.59 214.74 2218.95 211.129 Q2215.34 207.518 2215.34 201.36 Q2215.34 194.995 2218.77 191.268 Q2222.22 187.518 2228.05 187.518 Q2233.28 187.518 2236.32 190.897 Q2239.37 194.254 2239.37 200.041 M2235.11 198.791 Q2235.07 195.296 2233.14 193.212 Q2231.25 191.129 2228.1 191.129 Q2224.53 191.129 2222.38 193.143 Q2220.25 195.157 2219.93 198.814 L2235.11 198.791 Z" fill="#000000" fill-rule="nonzero" fill-opacity="1" /><path clip-path="url(#clip860)" d="M2250.57 180.782 L2250.57 188.143 L2259.35 188.143 L2259.35 191.453 L2250.57 191.453 L2250.57 205.527 Q2250.57 208.698 2251.43 209.601 Q2252.31 210.504 2254.97 210.504 L2259.35 210.504 L2259.35 214.069 L2254.97 214.069 Q2250.04 214.069 2248.17 212.24 Q2246.29 210.388 2246.29 205.527 L2246.29 191.453 L2243.17 191.453 L2243.17 188.143 L2246.29 188.143 L2246.29 180.782 L2250.57 180.782 Z" fill="#000000" fill-rule="nonzero" fill-opacity="1" /></svg>
