<?xml version="1.0" encoding="utf-8"?>
<svg xmlns="http://www.w3.org/2000/svg" xmlns:xlink="http://www.w3.org/1999/xlink" width="600" height="400" viewBox="0 0 2400 1600">
<defs>
  <clipPath id="clip850">
    <rect x="0" y="0" width="2400" height="1600"/>
  </clipPath>
</defs>
<path clip-path="url(#clip850)" d="M0 1600 L2400 1600 L2400 0 L0 0  Z" fill="#ffffff" fill-rule="evenodd" fill-opacity="1"/>
<defs>
  <clipPath id="clip851">
    <rect x="480" y="0" width="1681" height="1600"/>
  </clipPath>
</defs>
<path clip-path="url(#clip850)" d="M304.699 1486.45 L2352.76 1486.45 L2352.76 47.2441 L304.699 47.2441  Z" fill="#ffffff" fill-rule="evenodd" fill-opacity="1"/>
<defs>
  <clipPath id="clip852">
    <rect x="304" y="47" width="2049" height="1440"/>
  </clipPath>
</defs>
<polyline clip-path="url(#clip852)" style="stroke:#000000; stroke-linecap:round; stroke-linejoin:round; stroke-width:2; stroke-opacity:0.1; fill:none" points="505.761,1486.45 505.761,47.2441 "/>
<polyline clip-path="url(#clip852)" style="stroke:#000000; stroke-linecap:round; stroke-linejoin:round; stroke-width:2; stroke-opacity:0.1; fill:none" points="803.881,1486.45 803.881,47.2441 "/>
<polyline clip-path="url(#clip852)" style="stroke:#000000; stroke-linecap:round; stroke-linejoin:round; stroke-width:2; stroke-opacity:0.1; fill:none" points="1102,1486.45 1102,47.2441 "/>
<polyline clip-path="url(#clip852)" style="stroke:#000000; stroke-linecap:round; stroke-linejoin:round; stroke-width:2; stroke-opacity:0.1; fill:none" points="1400.12,1486.45 1400.12,47.2441 "/>
<polyline clip-path="url(#clip852)" style="stroke:#000000; stroke-linecap:round; stroke-linejoin:round; stroke-width:2; stroke-opacity:0.1; fill:none" points="1698.24,1486.45 1698.24,47.2441 "/>
<polyline clip-path="url(#clip852)" style="stroke:#000000; stroke-linecap:round; stroke-linejoin:round; stroke-width:2; stroke-opacity:0.1; fill:none" points="1996.36,1486.45 1996.36,47.2441 "/>
<polyline clip-path="url(#clip852)" style="stroke:#000000; stroke-linecap:round; stroke-linejoin:round; stroke-width:2; stroke-opacity:0.1; fill:none" points="2294.48,1486.45 2294.48,47.2441 "/>
<polyline clip-path="url(#clip850)" style="stroke:#000000; stroke-linecap:round; stroke-linejoin:round; stroke-width:4; stroke-opacity:1; fill:none" points="304.699,1486.45 2352.76,1486.45 "/>
<polyline clip-path="url(#clip850)" style="stroke:#000000; stroke-linecap:round; stroke-linejoin:round; stroke-width:4; stroke-opacity:1; fill:none" points="505.761,1486.45 505.761,1467.55 "/>
<polyline clip-path="url(#clip850)" style="stroke:#000000; stroke-linecap:round; stroke-linejoin:round; stroke-width:4; stroke-opacity:1; fill:none" points="803.881,1486.45 803.881,1467.55 "/>
<polyline clip-path="url(#clip850)" style="stroke:#000000; stroke-linecap:round; stroke-linejoin:round; stroke-width:4; stroke-opacity:1; fill:none" points="1102,1486.45 1102,1467.55 "/>
<polyline clip-path="url(#clip850)" style="stroke:#000000; stroke-linecap:round; stroke-linejoin:round; stroke-width:4; stroke-opacity:1; fill:none" points="1400.12,1486.45 1400.12,1467.55 "/>
<polyline clip-path="url(#clip850)" style="stroke:#000000; stroke-linecap:round; stroke-linejoin:round; stroke-width:4; stroke-opacity:1; fill:none" points="1698.24,1486.45 1698.24,1467.55 "/>
<polyline clip-path="url(#clip850)" style="stroke:#000000; stroke-linecap:round; stroke-linejoin:round; stroke-width:4; stroke-opacity:1; fill:none" points="1996.36,1486.45 1996.36,1467.55 "/>
<polyline clip-path="url(#clip850)" style="stroke:#000000; stroke-linecap:round; stroke-linejoin:round; stroke-width:4; stroke-opacity:1; fill:none" points="2294.48,1486.45 2294.48,1467.55 "/>
<path clip-path="url(#clip850)" d="M429.662 1532.02 L459.337 1532.02 L459.337 1535.95 L429.662 1535.95 L429.662 1532.02 Z" fill="#000000" fill-rule="nonzero" fill-opacity="1" /><path clip-path="url(#clip850)" d="M480.009 1529.7 Q476.86 1529.7 475.009 1531.86 Q473.18 1534.01 473.18 1537.76 Q473.18 1541.49 475.009 1543.66 Q476.86 1545.82 480.009 1545.82 Q483.157 1545.82 484.985 1543.66 Q486.837 1541.49 486.837 1537.76 Q486.837 1534.01 484.985 1531.86 Q483.157 1529.7 480.009 1529.7 M489.291 1515.05 L489.291 1519.31 Q487.532 1518.48 485.726 1518.04 Q483.944 1517.6 482.184 1517.6 Q477.555 1517.6 475.101 1520.72 Q472.671 1523.85 472.323 1530.17 Q473.689 1528.15 475.749 1527.09 Q477.809 1526 480.286 1526 Q485.495 1526 488.504 1529.17 Q491.536 1532.32 491.536 1537.76 Q491.536 1543.08 488.388 1546.3 Q485.24 1549.52 480.009 1549.52 Q474.013 1549.52 470.842 1544.94 Q467.671 1540.33 467.671 1531.6 Q467.671 1523.41 471.559 1518.55 Q475.448 1513.66 481.999 1513.66 Q483.759 1513.66 485.541 1514.01 Q487.346 1514.36 489.291 1515.05 Z" fill="#000000" fill-rule="nonzero" fill-opacity="1" /><path clip-path="url(#clip850)" d="M509.592 1517.37 Q505.981 1517.37 504.152 1520.93 Q502.346 1524.47 502.346 1531.6 Q502.346 1538.71 504.152 1542.27 Q505.981 1545.82 509.592 1545.82 Q513.226 1545.82 515.031 1542.27 Q516.86 1538.71 516.86 1531.6 Q516.86 1524.47 515.031 1520.93 Q513.226 1517.37 509.592 1517.37 M509.592 1513.66 Q515.402 1513.66 518.457 1518.27 Q521.536 1522.85 521.536 1531.6 Q521.536 1540.33 518.457 1544.94 Q515.402 1549.52 509.592 1549.52 Q503.782 1549.52 500.703 1544.94 Q497.647 1540.33 497.647 1531.6 Q497.647 1522.85 500.703 1518.27 Q503.782 1513.66 509.592 1513.66 Z" fill="#000000" fill-rule="nonzero" fill-opacity="1" /><path clip-path="url(#clip850)" d="M539.754 1517.37 Q536.142 1517.37 534.314 1520.93 Q532.508 1524.47 532.508 1531.6 Q532.508 1538.71 534.314 1542.27 Q536.142 1545.82 539.754 1545.82 Q543.388 1545.82 545.193 1542.27 Q547.022 1538.71 547.022 1531.6 Q547.022 1524.47 545.193 1520.93 Q543.388 1517.37 539.754 1517.37 M539.754 1513.66 Q545.564 1513.66 548.619 1518.27 Q551.698 1522.85 551.698 1531.6 Q551.698 1540.33 548.619 1544.94 Q545.564 1549.52 539.754 1549.52 Q533.943 1549.52 530.865 1544.94 Q527.809 1540.33 527.809 1531.6 Q527.809 1522.85 530.865 1518.27 Q533.943 1513.66 539.754 1513.66 Z" fill="#000000" fill-rule="nonzero" fill-opacity="1" /><path clip-path="url(#clip850)" d="M569.915 1517.37 Q566.304 1517.37 564.476 1520.93 Q562.67 1524.47 562.67 1531.6 Q562.67 1538.71 564.476 1542.27 Q566.304 1545.82 569.915 1545.82 Q573.55 1545.82 575.355 1542.27 Q577.184 1538.71 577.184 1531.6 Q577.184 1524.47 575.355 1520.93 Q573.55 1517.37 569.915 1517.37 M569.915 1513.66 Q575.726 1513.66 578.781 1518.27 Q581.86 1522.85 581.86 1531.6 Q581.86 1540.33 578.781 1544.94 Q575.726 1549.52 569.915 1549.52 Q564.105 1549.52 561.027 1544.94 Q557.971 1540.33 557.971 1531.6 Q557.971 1522.85 561.027 1518.27 Q564.105 1513.66 569.915 1513.66 Z" fill="#000000" fill-rule="nonzero" fill-opacity="1" /><path clip-path="url(#clip850)" d="M727.781 1532.02 L757.457 1532.02 L757.457 1535.95 L727.781 1535.95 L727.781 1532.02 Z" fill="#000000" fill-rule="nonzero" fill-opacity="1" /><path clip-path="url(#clip850)" d="M767.596 1514.29 L785.952 1514.29 L785.952 1518.22 L771.878 1518.22 L771.878 1526.7 Q772.897 1526.35 773.915 1526.19 Q774.934 1526 775.952 1526 Q781.739 1526 785.119 1529.17 Q788.499 1532.34 788.499 1537.76 Q788.499 1543.34 785.027 1546.44 Q781.554 1549.52 775.235 1549.52 Q773.059 1549.52 770.79 1549.15 Q768.545 1548.78 766.138 1548.04 L766.138 1543.34 Q768.221 1544.47 770.443 1545.03 Q772.665 1545.58 775.142 1545.58 Q779.147 1545.58 781.485 1543.48 Q783.823 1541.37 783.823 1537.76 Q783.823 1534.15 781.485 1532.04 Q779.147 1529.94 775.142 1529.94 Q773.267 1529.94 771.392 1530.35 Q769.54 1530.77 767.596 1531.65 L767.596 1514.29 Z" fill="#000000" fill-rule="nonzero" fill-opacity="1" /><path clip-path="url(#clip850)" d="M807.712 1517.37 Q804.1 1517.37 802.272 1520.93 Q800.466 1524.47 800.466 1531.6 Q800.466 1538.71 802.272 1542.27 Q804.1 1545.82 807.712 1545.82 Q811.346 1545.82 813.151 1542.27 Q814.98 1538.71 814.98 1531.6 Q814.98 1524.47 813.151 1520.93 Q811.346 1517.37 807.712 1517.37 M807.712 1513.66 Q813.522 1513.66 816.577 1518.27 Q819.656 1522.85 819.656 1531.6 Q819.656 1540.33 816.577 1544.94 Q813.522 1549.52 807.712 1549.52 Q801.901 1549.52 798.823 1544.94 Q795.767 1540.33 795.767 1531.6 Q795.767 1522.85 798.823 1518.27 Q801.901 1513.66 807.712 1513.66 Z" fill="#000000" fill-rule="nonzero" fill-opacity="1" /><path clip-path="url(#clip850)" d="M837.873 1517.37 Q834.262 1517.37 832.434 1520.93 Q830.628 1524.47 830.628 1531.6 Q830.628 1538.71 832.434 1542.27 Q834.262 1545.82 837.873 1545.82 Q841.508 1545.82 843.313 1542.27 Q845.142 1538.71 845.142 1531.6 Q845.142 1524.47 843.313 1520.93 Q841.508 1517.37 837.873 1517.37 M837.873 1513.66 Q843.684 1513.66 846.739 1518.27 Q849.818 1522.85 849.818 1531.6 Q849.818 1540.33 846.739 1544.94 Q843.684 1549.52 837.873 1549.52 Q832.063 1549.52 828.985 1544.94 Q825.929 1540.33 825.929 1531.6 Q825.929 1522.85 828.985 1518.27 Q832.063 1513.66 837.873 1513.66 Z" fill="#000000" fill-rule="nonzero" fill-opacity="1" /><path clip-path="url(#clip850)" d="M868.035 1517.37 Q864.424 1517.37 862.596 1520.93 Q860.79 1524.47 860.79 1531.6 Q860.79 1538.71 862.596 1542.27 Q864.424 1545.82 868.035 1545.82 Q871.67 1545.82 873.475 1542.27 Q875.304 1538.71 875.304 1531.6 Q875.304 1524.47 873.475 1520.93 Q871.67 1517.37 868.035 1517.37 M868.035 1513.66 Q873.845 1513.66 876.901 1518.27 Q879.98 1522.85 879.98 1531.6 Q879.98 1540.33 876.901 1544.94 Q873.845 1549.52 868.035 1549.52 Q862.225 1549.52 859.146 1544.94 Q856.091 1540.33 856.091 1531.6 Q856.091 1522.85 859.146 1518.27 Q862.225 1513.66 868.035 1513.66 Z" fill="#000000" fill-rule="nonzero" fill-opacity="1" /><path clip-path="url(#clip850)" d="M1025.9 1532.02 L1055.58 1532.02 L1055.58 1535.95 L1025.9 1535.95 L1025.9 1532.02 Z" fill="#000000" fill-rule="nonzero" fill-opacity="1" /><path clip-path="url(#clip850)" d="M1078.52 1518.36 L1066.71 1536.81 L1078.52 1536.81 L1078.52 1518.36 M1077.29 1514.29 L1083.17 1514.29 L1083.17 1536.81 L1088.1 1536.81 L1088.1 1540.7 L1083.17 1540.7 L1083.17 1548.85 L1078.52 1548.85 L1078.52 1540.7 L1062.92 1540.7 L1062.92 1536.19 L1077.29 1514.29 Z" fill="#000000" fill-rule="nonzero" fill-opacity="1" /><path clip-path="url(#clip850)" d="M1105.83 1517.37 Q1102.22 1517.37 1100.39 1520.93 Q1098.59 1524.47 1098.59 1531.6 Q1098.59 1538.71 1100.39 1542.27 Q1102.22 1545.82 1105.83 1545.82 Q1109.47 1545.82 1111.27 1542.27 Q1113.1 1538.71 1113.1 1531.6 Q1113.1 1524.47 1111.27 1520.93 Q1109.47 1517.37 1105.83 1517.37 M1105.83 1513.66 Q1111.64 1513.66 1114.7 1518.27 Q1117.78 1522.85 1117.78 1531.6 Q1117.78 1540.33 1114.7 1544.94 Q1111.64 1549.52 1105.83 1549.52 Q1100.02 1549.52 1096.94 1544.94 Q1093.89 1540.33 1093.89 1531.6 Q1093.89 1522.85 1096.94 1518.27 Q1100.02 1513.66 1105.83 1513.66 Z" fill="#000000" fill-rule="nonzero" fill-opacity="1" /><path clip-path="url(#clip850)" d="M1135.99 1517.37 Q1132.38 1517.37 1130.55 1520.93 Q1128.75 1524.47 1128.75 1531.6 Q1128.75 1538.71 1130.55 1542.27 Q1132.38 1545.82 1135.99 1545.82 Q1139.63 1545.82 1141.43 1542.27 Q1143.26 1538.71 1143.26 1531.6 Q1143.26 1524.47 1141.43 1520.93 Q1139.63 1517.37 1135.99 1517.37 M1135.99 1513.66 Q1141.8 1513.66 1144.86 1518.27 Q1147.94 1522.85 1147.94 1531.6 Q1147.94 1540.33 1144.86 1544.94 Q1141.8 1549.52 1135.99 1549.52 Q1130.18 1549.52 1127.1 1544.94 Q1124.05 1540.33 1124.05 1531.6 Q1124.05 1522.85 1127.1 1518.27 Q1130.18 1513.66 1135.99 1513.66 Z" fill="#000000" fill-rule="nonzero" fill-opacity="1" /><path clip-path="url(#clip850)" d="M1166.16 1517.37 Q1162.54 1517.37 1160.72 1520.93 Q1158.91 1524.47 1158.91 1531.6 Q1158.91 1538.71 1160.72 1542.27 Q1162.54 1545.82 1166.16 1545.82 Q1169.79 1545.82 1171.59 1542.27 Q1173.42 1538.71 1173.42 1531.6 Q1173.42 1524.47 1171.59 1520.93 Q1169.79 1517.37 1166.16 1517.37 M1166.16 1513.66 Q1171.97 1513.66 1175.02 1518.27 Q1178.1 1522.85 1178.1 1531.6 Q1178.1 1540.33 1175.02 1544.94 Q1171.97 1549.52 1166.16 1549.52 Q1160.35 1549.52 1157.27 1544.94 Q1154.21 1540.33 1154.21 1531.6 Q1154.21 1522.85 1157.27 1518.27 Q1160.35 1513.66 1166.16 1513.66 Z" fill="#000000" fill-rule="nonzero" fill-opacity="1" /><path clip-path="url(#clip850)" d="M1324.02 1532.02 L1353.7 1532.02 L1353.7 1535.95 L1324.02 1535.95 L1324.02 1532.02 Z" fill="#000000" fill-rule="nonzero" fill-opacity="1" /><path clip-path="url(#clip850)" d="M1377.96 1530.21 Q1381.31 1530.93 1383.19 1533.2 Q1385.09 1535.47 1385.09 1538.8 Q1385.09 1543.92 1381.57 1546.72 Q1378.05 1549.52 1371.57 1549.52 Q1369.39 1549.52 1367.08 1549.08 Q1364.78 1548.66 1362.33 1547.81 L1362.33 1543.29 Q1364.28 1544.43 1366.59 1545.01 Q1368.91 1545.58 1371.43 1545.58 Q1375.83 1545.58 1378.12 1543.85 Q1380.43 1542.11 1380.43 1538.8 Q1380.43 1535.75 1378.28 1534.03 Q1376.15 1532.3 1372.33 1532.3 L1368.3 1532.3 L1368.3 1528.45 L1372.52 1528.45 Q1375.97 1528.45 1377.79 1527.09 Q1379.62 1525.7 1379.62 1523.11 Q1379.62 1520.45 1377.72 1519.03 Q1375.85 1517.6 1372.33 1517.6 Q1370.41 1517.6 1368.21 1518.01 Q1366.01 1518.43 1363.37 1519.31 L1363.37 1515.14 Q1366.03 1514.4 1368.35 1514.03 Q1370.69 1513.66 1372.75 1513.66 Q1378.07 1513.66 1381.17 1516.09 Q1384.28 1518.5 1384.28 1522.62 Q1384.28 1525.49 1382.63 1527.48 Q1380.99 1529.45 1377.96 1530.21 Z" fill="#000000" fill-rule="nonzero" fill-opacity="1" /><path clip-path="url(#clip850)" d="M1403.95 1517.37 Q1400.34 1517.37 1398.51 1520.93 Q1396.71 1524.47 1396.71 1531.6 Q1396.71 1538.71 1398.51 1542.27 Q1400.34 1545.82 1403.95 1545.82 Q1407.59 1545.82 1409.39 1542.27 Q1411.22 1538.71 1411.22 1531.6 Q1411.22 1524.47 1409.39 1520.93 Q1407.59 1517.37 1403.95 1517.37 M1403.95 1513.66 Q1409.76 1513.66 1412.82 1518.27 Q1415.9 1522.85 1415.9 1531.6 Q1415.9 1540.33 1412.82 1544.94 Q1409.76 1549.52 1403.95 1549.52 Q1398.14 1549.52 1395.06 1544.94 Q1392.01 1540.33 1392.01 1531.6 Q1392.01 1522.85 1395.06 1518.27 Q1398.14 1513.66 1403.95 1513.66 Z" fill="#000000" fill-rule="nonzero" fill-opacity="1" /><path clip-path="url(#clip850)" d="M1434.11 1517.37 Q1430.5 1517.37 1428.67 1520.93 Q1426.87 1524.47 1426.87 1531.6 Q1426.87 1538.71 1428.67 1542.27 Q1430.5 1545.82 1434.11 1545.82 Q1437.75 1545.82 1439.55 1542.27 Q1441.38 1538.71 1441.38 1531.6 Q1441.38 1524.47 1439.55 1520.93 Q1437.75 1517.37 1434.11 1517.37 M1434.11 1513.66 Q1439.92 1513.66 1442.98 1518.27 Q1446.06 1522.85 1446.06 1531.6 Q1446.06 1540.33 1442.98 1544.94 Q1439.92 1549.52 1434.11 1549.52 Q1428.3 1549.52 1425.22 1544.94 Q1422.17 1540.33 1422.17 1531.6 Q1422.17 1522.85 1425.22 1518.27 Q1428.3 1513.66 1434.11 1513.66 Z" fill="#000000" fill-rule="nonzero" fill-opacity="1" /><path clip-path="url(#clip850)" d="M1464.28 1517.37 Q1460.66 1517.37 1458.84 1520.93 Q1457.03 1524.47 1457.03 1531.6 Q1457.03 1538.71 1458.84 1542.27 Q1460.66 1545.82 1464.28 1545.82 Q1467.91 1545.82 1469.71 1542.27 Q1471.54 1538.71 1471.54 1531.6 Q1471.54 1524.47 1469.71 1520.93 Q1467.91 1517.37 1464.28 1517.37 M1464.28 1513.66 Q1470.09 1513.66 1473.14 1518.27 Q1476.22 1522.85 1476.22 1531.6 Q1476.22 1540.33 1473.14 1544.94 Q1470.09 1549.52 1464.28 1549.52 Q1458.46 1549.52 1455.39 1544.94 Q1452.33 1540.33 1452.33 1531.6 Q1452.33 1522.85 1455.39 1518.27 Q1458.46 1513.66 1464.28 1513.66 Z" fill="#000000" fill-rule="nonzero" fill-opacity="1" /><path clip-path="url(#clip850)" d="M1622.14 1532.02 L1651.82 1532.02 L1651.82 1535.95 L1622.14 1535.95 L1622.14 1532.02 Z" fill="#000000" fill-rule="nonzero" fill-opacity="1" /><path clip-path="url(#clip850)" d="M1665.94 1544.91 L1682.26 1544.91 L1682.26 1548.85 L1660.31 1548.85 L1660.31 1544.91 Q1662.97 1542.16 1667.56 1537.53 Q1672.16 1532.88 1673.34 1531.53 Q1675.59 1529.01 1676.47 1527.27 Q1677.37 1525.51 1677.37 1523.82 Q1677.37 1521.07 1675.43 1519.33 Q1673.51 1517.6 1670.4 1517.6 Q1668.21 1517.6 1665.75 1518.36 Q1663.32 1519.13 1660.54 1520.68 L1660.54 1515.95 Q1663.37 1514.82 1665.82 1514.24 Q1668.28 1513.66 1670.31 1513.66 Q1675.68 1513.66 1678.88 1516.35 Q1682.07 1519.03 1682.07 1523.52 Q1682.07 1525.65 1681.26 1527.57 Q1680.47 1529.47 1678.37 1532.07 Q1677.79 1532.74 1674.69 1535.95 Q1671.59 1539.15 1665.94 1544.91 Z" fill="#000000" fill-rule="nonzero" fill-opacity="1" /><path clip-path="url(#clip850)" d="M1702.07 1517.37 Q1698.46 1517.37 1696.63 1520.93 Q1694.83 1524.47 1694.83 1531.6 Q1694.83 1538.71 1696.63 1542.27 Q1698.46 1545.82 1702.07 1545.82 Q1705.71 1545.82 1707.51 1542.27 Q1709.34 1538.71 1709.34 1531.6 Q1709.34 1524.47 1707.51 1520.93 Q1705.71 1517.37 1702.07 1517.37 M1702.07 1513.66 Q1707.88 1513.66 1710.94 1518.27 Q1714.02 1522.85 1714.02 1531.6 Q1714.02 1540.33 1710.94 1544.94 Q1707.88 1549.52 1702.07 1549.52 Q1696.26 1549.52 1693.18 1544.94 Q1690.13 1540.33 1690.13 1531.6 Q1690.13 1522.85 1693.18 1518.27 Q1696.26 1513.66 1702.07 1513.66 Z" fill="#000000" fill-rule="nonzero" fill-opacity="1" /><path clip-path="url(#clip850)" d="M1732.23 1517.37 Q1728.62 1517.37 1726.79 1520.93 Q1724.99 1524.47 1724.99 1531.6 Q1724.99 1538.71 1726.79 1542.27 Q1728.62 1545.82 1732.23 1545.82 Q1735.87 1545.82 1737.67 1542.27 Q1739.5 1538.71 1739.5 1531.6 Q1739.5 1524.47 1737.67 1520.93 Q1735.87 1517.37 1732.23 1517.37 M1732.23 1513.66 Q1738.04 1513.66 1741.1 1518.27 Q1744.18 1522.85 1744.18 1531.6 Q1744.18 1540.33 1741.1 1544.94 Q1738.04 1549.52 1732.23 1549.52 Q1726.42 1549.52 1723.34 1544.94 Q1720.29 1540.33 1720.29 1531.6 Q1720.29 1522.85 1723.34 1518.27 Q1726.42 1513.66 1732.23 1513.66 Z" fill="#000000" fill-rule="nonzero" fill-opacity="1" /><path clip-path="url(#clip850)" d="M1762.39 1517.37 Q1758.78 1517.37 1756.96 1520.93 Q1755.15 1524.47 1755.15 1531.6 Q1755.15 1538.71 1756.96 1542.27 Q1758.78 1545.82 1762.39 1545.82 Q1766.03 1545.82 1767.83 1542.27 Q1769.66 1538.71 1769.66 1531.6 Q1769.66 1524.47 1767.83 1520.93 Q1766.03 1517.37 1762.39 1517.37 M1762.39 1513.66 Q1768.21 1513.66 1771.26 1518.27 Q1774.34 1522.85 1774.34 1531.6 Q1774.34 1540.33 1771.26 1544.94 Q1768.21 1549.52 1762.39 1549.52 Q1756.58 1549.52 1753.51 1544.94 Q1750.45 1540.33 1750.45 1531.6 Q1750.45 1522.85 1753.51 1518.27 Q1756.58 1513.66 1762.39 1513.66 Z" fill="#000000" fill-rule="nonzero" fill-opacity="1" /><path clip-path="url(#clip850)" d="M1920.26 1532.02 L1949.94 1532.02 L1949.94 1535.95 L1920.26 1535.95 L1920.26 1532.02 Z" fill="#000000" fill-rule="nonzero" fill-opacity="1" /><path clip-path="url(#clip850)" d="M1960.84 1544.91 L1968.48 1544.91 L1968.48 1518.55 L1960.17 1520.21 L1960.17 1515.95 L1968.43 1514.29 L1973.11 1514.29 L1973.11 1544.91 L1980.75 1544.91 L1980.75 1548.85 L1960.84 1548.85 L1960.84 1544.91 Z" fill="#000000" fill-rule="nonzero" fill-opacity="1" /><path clip-path="url(#clip850)" d="M2000.19 1517.37 Q1996.58 1517.37 1994.75 1520.93 Q1992.95 1524.47 1992.95 1531.6 Q1992.95 1538.71 1994.75 1542.27 Q1996.58 1545.82 2000.19 1545.82 Q2003.83 1545.82 2005.63 1542.27 Q2007.46 1538.71 2007.46 1531.6 Q2007.46 1524.47 2005.63 1520.93 Q2003.83 1517.37 2000.19 1517.37 M2000.19 1513.66 Q2006 1513.66 2009.06 1518.27 Q2012.14 1522.85 2012.14 1531.6 Q2012.14 1540.33 2009.06 1544.94 Q2006 1549.52 2000.19 1549.52 Q1994.38 1549.52 1991.3 1544.94 Q1988.25 1540.33 1988.25 1531.6 Q1988.25 1522.85 1991.3 1518.27 Q1994.38 1513.66 2000.19 1513.66 Z" fill="#000000" fill-rule="nonzero" fill-opacity="1" /><path clip-path="url(#clip850)" d="M2030.35 1517.37 Q2026.74 1517.37 2024.91 1520.93 Q2023.11 1524.47 2023.11 1531.6 Q2023.11 1538.71 2024.91 1542.27 Q2026.74 1545.82 2030.35 1545.82 Q2033.99 1545.82 2035.79 1542.27 Q2037.62 1538.71 2037.62 1531.6 Q2037.62 1524.47 2035.79 1520.93 Q2033.99 1517.37 2030.35 1517.37 M2030.35 1513.66 Q2036.16 1513.66 2039.22 1518.27 Q2042.3 1522.85 2042.3 1531.6 Q2042.3 1540.33 2039.22 1544.94 Q2036.16 1549.52 2030.35 1549.52 Q2024.54 1549.52 2021.46 1544.94 Q2018.41 1540.33 2018.41 1531.6 Q2018.41 1522.85 2021.46 1518.27 Q2024.54 1513.66 2030.35 1513.66 Z" fill="#000000" fill-rule="nonzero" fill-opacity="1" /><path clip-path="url(#clip850)" d="M2060.51 1517.37 Q2056.9 1517.37 2055.08 1520.93 Q2053.27 1524.47 2053.27 1531.6 Q2053.27 1538.71 2055.08 1542.27 Q2056.9 1545.82 2060.51 1545.82 Q2064.15 1545.82 2065.95 1542.27 Q2067.78 1538.71 2067.78 1531.6 Q2067.78 1524.47 2065.95 1520.93 Q2064.15 1517.37 2060.51 1517.37 M2060.51 1513.66 Q2066.32 1513.66 2069.38 1518.27 Q2072.46 1522.85 2072.46 1531.6 Q2072.46 1540.33 2069.38 1544.94 Q2066.32 1549.52 2060.51 1549.52 Q2054.7 1549.52 2051.63 1544.94 Q2048.57 1540.33 2048.57 1531.6 Q2048.57 1522.85 2051.63 1518.27 Q2054.7 1513.66 2060.51 1513.66 Z" fill="#000000" fill-rule="nonzero" fill-opacity="1" /><path clip-path="url(#clip850)" d="M2294.48 1517.37 Q2290.87 1517.37 2289.04 1520.93 Q2287.23 1524.47 2287.23 1531.6 Q2287.23 1538.71 2289.04 1542.27 Q2290.87 1545.82 2294.48 1545.82 Q2298.11 1545.82 2299.92 1542.27 Q2301.75 1538.71 2301.75 1531.6 Q2301.75 1524.47 2299.92 1520.93 Q2298.11 1517.37 2294.48 1517.37 M2294.48 1513.66 Q2300.29 1513.66 2303.35 1518.27 Q2306.42 1522.85 2306.42 1531.6 Q2306.42 1540.33 2303.35 1544.94 Q2300.29 1549.52 2294.48 1549.52 Q2288.67 1549.52 2285.59 1544.94 Q2282.54 1540.33 2282.54 1531.6 Q2282.54 1522.85 2285.59 1518.27 Q2288.67 1513.66 2294.48 1513.66 Z" fill="#000000" fill-rule="nonzero" fill-opacity="1" /><polyline clip-path="url(#clip852)" style="stroke:#000000; stroke-linecap:round; stroke-linejoin:round; stroke-width:2; stroke-opacity:0.1; fill:none" points="304.699,1445.63 2352.76,1445.63 "/>
<polyline clip-path="url(#clip852)" style="stroke:#000000; stroke-linecap:round; stroke-linejoin:round; stroke-width:2; stroke-opacity:0.1; fill:none" points="304.699,997.142 2352.76,997.142 "/>
<polyline clip-path="url(#clip852)" style="stroke:#000000; stroke-linecap:round; stroke-linejoin:round; stroke-width:2; stroke-opacity:0.1; fill:none" points="304.699,548.659 2352.76,548.659 "/>
<polyline clip-path="url(#clip852)" style="stroke:#000000; stroke-linecap:round; stroke-linejoin:round; stroke-width:2; stroke-opacity:0.1; fill:none" points="304.699,100.175 2352.76,100.175 "/>
<polyline clip-path="url(#clip850)" style="stroke:#000000; stroke-linecap:round; stroke-linejoin:round; stroke-width:4; stroke-opacity:1; fill:none" points="304.699,1486.45 304.699,47.2441 "/>
<polyline clip-path="url(#clip850)" style="stroke:#000000; stroke-linecap:round; stroke-linejoin:round; stroke-width:4; stroke-opacity:1; fill:none" points="304.699,1445.63 323.597,1445.63 "/>
<polyline clip-path="url(#clip850)" style="stroke:#000000; stroke-linecap:round; stroke-linejoin:round; stroke-width:4; stroke-opacity:1; fill:none" points="304.699,997.142 323.597,997.142 "/>
<polyline clip-path="url(#clip850)" style="stroke:#000000; stroke-linecap:round; stroke-linejoin:round; stroke-width:4; stroke-opacity:1; fill:none" points="304.699,548.659 323.597,548.659 "/>
<polyline clip-path="url(#clip850)" style="stroke:#000000; stroke-linecap:round; stroke-linejoin:round; stroke-width:4; stroke-opacity:1; fill:none" points="304.699,100.175 323.597,100.175 "/>
<path clip-path="url(#clip850)" d="M256.755 1431.42 Q253.144 1431.42 251.315 1434.99 Q249.51 1438.53 249.51 1445.66 Q249.51 1452.77 251.315 1456.33 Q253.144 1459.87 256.755 1459.87 Q260.389 1459.87 262.195 1456.33 Q264.023 1452.77 264.023 1445.66 Q264.023 1438.53 262.195 1434.99 Q260.389 1431.42 256.755 1431.42 M256.755 1427.72 Q262.565 1427.72 265.621 1432.33 Q268.699 1436.91 268.699 1445.66 Q268.699 1454.39 265.621 1458.99 Q262.565 1463.58 256.755 1463.58 Q250.945 1463.58 247.866 1458.99 Q244.811 1454.39 244.811 1445.66 Q244.811 1436.91 247.866 1432.33 Q250.945 1427.72 256.755 1427.72 Z" fill="#000000" fill-rule="nonzero" fill-opacity="1" /><path clip-path="url(#clip850)" d="M52.8743 986.31 L71.2307 986.31 L71.2307 990.245 L57.1567 990.245 L57.1567 998.717 Q58.1752 998.37 59.1938 998.208 Q60.2123 998.023 61.2308 998.023 Q67.0178 998.023 70.3974 1001.19 Q73.777 1004.37 73.777 1009.78 Q73.777 1015.36 70.3048 1018.46 Q66.8326 1021.54 60.5132 1021.54 Q58.3373 1021.54 56.0688 1021.17 Q53.8234 1020.8 51.416 1020.06 L51.416 1015.36 Q53.4993 1016.49 55.7216 1017.05 Q57.9438 1017.61 60.4206 1017.61 Q64.4252 1017.61 66.7632 1015.5 Q69.1011 1013.39 69.1011 1009.78 Q69.1011 1006.17 66.7632 1004.06 Q64.4252 1001.96 60.4206 1001.96 Q58.5456 1001.96 56.6706 1002.37 Q54.8188 1002.79 52.8743 1003.67 L52.8743 986.31 Z" fill="#000000" fill-rule="nonzero" fill-opacity="1" /><path clip-path="url(#clip850)" d="M82.9899 1014.99 L87.8742 1014.99 L87.8742 1020.87 L82.9899 1020.87 L82.9899 1014.99 Z" fill="#000000" fill-rule="nonzero" fill-opacity="1" /><path clip-path="url(#clip850)" d="M108.059 989.388 Q104.448 989.388 102.619 992.953 Q100.814 996.495 100.814 1003.62 Q100.814 1010.73 102.619 1014.3 Q104.448 1017.84 108.059 1017.84 Q111.693 1017.84 113.499 1014.3 Q115.328 1010.73 115.328 1003.62 Q115.328 996.495 113.499 992.953 Q111.693 989.388 108.059 989.388 M108.059 985.685 Q113.869 985.685 116.925 990.291 Q120.004 994.875 120.004 1003.62 Q120.004 1012.35 116.925 1016.96 Q113.869 1021.54 108.059 1021.54 Q102.249 1021.54 99.1704 1016.96 Q96.1149 1012.35 96.1149 1003.62 Q96.1149 994.875 99.1704 990.291 Q102.249 985.685 108.059 985.685 Z" fill="#000000" fill-rule="nonzero" fill-opacity="1" /><path clip-path="url(#clip850)" d="M138.221 989.388 Q134.61 989.388 132.781 992.953 Q130.976 996.495 130.976 1003.62 Q130.976 1010.73 132.781 1014.3 Q134.61 1017.84 138.221 1017.84 Q141.855 1017.84 143.661 1014.3 Q145.49 1010.73 145.49 1003.62 Q145.49 996.495 143.661 992.953 Q141.855 989.388 138.221 989.388 M138.221 985.685 Q144.031 985.685 147.087 990.291 Q150.165 994.875 150.165 1003.62 Q150.165 1012.35 147.087 1016.96 Q144.031 1021.54 138.221 1021.54 Q132.411 1021.54 129.332 1016.96 Q126.277 1012.35 126.277 1003.62 Q126.277 994.875 129.332 990.291 Q132.411 985.685 138.221 985.685 Z" fill="#000000" fill-rule="nonzero" fill-opacity="1" /><path clip-path="url(#clip850)" d="M186.554 995.407 L175.976 1006.03 L186.554 1016.61 L183.8 1019.41 L173.175 1008.79 L162.55 1019.41 L159.818 1016.61 L170.374 1006.03 L159.818 995.407 L162.55 992.606 L173.175 1003.23 L183.8 992.606 L186.554 995.407 Z" fill="#000000" fill-rule="nonzero" fill-opacity="1" /><path clip-path="url(#clip850)" d="M198.915 1016.93 L206.554 1016.93 L206.554 990.569 L198.244 992.236 L198.244 987.976 L206.508 986.31 L211.184 986.31 L211.184 1016.93 L218.823 1016.93 L218.823 1020.87 L198.915 1020.87 L198.915 1016.93 Z" fill="#000000" fill-rule="nonzero" fill-opacity="1" /><path clip-path="url(#clip850)" d="M238.267 989.388 Q234.656 989.388 232.827 992.953 Q231.022 996.495 231.022 1003.62 Q231.022 1010.73 232.827 1014.3 Q234.656 1017.84 238.267 1017.84 Q241.901 1017.84 243.707 1014.3 Q245.535 1010.73 245.535 1003.62 Q245.535 996.495 243.707 992.953 Q241.901 989.388 238.267 989.388 M238.267 985.685 Q244.077 985.685 247.133 990.291 Q250.211 994.875 250.211 1003.62 Q250.211 1012.35 247.133 1016.96 Q244.077 1021.54 238.267 1021.54 Q232.457 1021.54 229.378 1016.96 Q226.322 1012.35 226.322 1003.62 Q226.322 994.875 229.378 990.291 Q232.457 985.685 238.267 985.685 Z" fill="#000000" fill-rule="nonzero" fill-opacity="1" /><path clip-path="url(#clip850)" d="M262.906 978.319 Q265.634 978.902 267.157 980.745 Q268.699 982.588 268.699 985.297 Q268.699 989.453 265.841 991.729 Q262.982 994.005 257.716 994.005 Q255.948 994.005 254.067 993.647 Q252.205 993.309 250.211 992.613 L250.211 988.946 Q251.791 989.867 253.672 990.337 Q255.553 990.807 257.603 990.807 Q261.176 990.807 263.038 989.397 Q264.919 987.986 264.919 985.297 Q264.919 982.814 263.17 981.422 Q261.439 980.012 258.336 980.012 L255.064 980.012 L255.064 976.89 L258.487 976.89 Q261.289 976.89 262.775 975.78 Q264.261 974.652 264.261 972.545 Q264.261 970.382 262.718 969.235 Q261.195 968.069 258.336 968.069 Q256.775 968.069 254.988 968.407 Q253.202 968.746 251.058 969.461 L251.058 966.075 Q253.22 965.473 255.101 965.172 Q257.001 964.872 258.675 964.872 Q263.001 964.872 265.521 966.846 Q268.041 968.802 268.041 972.15 Q268.041 974.482 266.706 976.1 Q265.37 977.698 262.906 978.319 Z" fill="#000000" fill-rule="nonzero" fill-opacity="1" /><path clip-path="url(#clip850)" d="M51.6634 568.451 L59.3023 568.451 L59.3023 542.085 L50.9921 543.752 L50.9921 539.493 L59.256 537.826 L63.9319 537.826 L63.9319 568.451 L71.5707 568.451 L71.5707 572.386 L51.6634 572.386 L51.6634 568.451 Z" fill="#000000" fill-rule="nonzero" fill-opacity="1" /><path clip-path="url(#clip850)" d="M81.0151 566.507 L85.8993 566.507 L85.8993 572.386 L81.0151 572.386 L81.0151 566.507 Z" fill="#000000" fill-rule="nonzero" fill-opacity="1" /><path clip-path="url(#clip850)" d="M106.084 540.905 Q102.473 540.905 100.645 544.47 Q98.8391 548.011 98.8391 555.141 Q98.8391 562.247 100.645 565.812 Q102.473 569.354 106.084 569.354 Q109.719 569.354 111.524 565.812 Q113.353 562.247 113.353 555.141 Q113.353 548.011 111.524 544.47 Q109.719 540.905 106.084 540.905 M106.084 537.201 Q111.895 537.201 114.95 541.808 Q118.029 546.391 118.029 555.141 Q118.029 563.868 114.95 568.474 Q111.895 573.057 106.084 573.057 Q100.274 573.057 97.1956 568.474 Q94.14 563.868 94.14 555.141 Q94.14 546.391 97.1956 541.808 Q100.274 537.201 106.084 537.201 Z" fill="#000000" fill-rule="nonzero" fill-opacity="1" /><path clip-path="url(#clip850)" d="M136.246 540.905 Q132.635 540.905 130.807 544.47 Q129.001 548.011 129.001 555.141 Q129.001 562.247 130.807 565.812 Q132.635 569.354 136.246 569.354 Q139.881 569.354 141.686 565.812 Q143.515 562.247 143.515 555.141 Q143.515 548.011 141.686 544.47 Q139.881 540.905 136.246 540.905 M136.246 537.201 Q142.056 537.201 145.112 541.808 Q148.191 546.391 148.191 555.141 Q148.191 563.868 145.112 568.474 Q142.056 573.057 136.246 573.057 Q130.436 573.057 127.357 568.474 Q124.302 563.868 124.302 555.141 Q124.302 546.391 127.357 541.808 Q130.436 537.201 136.246 537.201 Z" fill="#000000" fill-rule="nonzero" fill-opacity="1" /><path clip-path="url(#clip850)" d="M184.579 546.923 L174.001 557.548 L184.579 568.127 L181.825 570.928 L171.2 560.303 L160.575 570.928 L157.843 568.127 L168.399 557.548 L157.843 546.923 L160.575 544.122 L171.2 554.747 L181.825 544.122 L184.579 546.923 Z" fill="#000000" fill-rule="nonzero" fill-opacity="1" /><path clip-path="url(#clip850)" d="M196.94 568.451 L204.579 568.451 L204.579 542.085 L196.269 543.752 L196.269 539.493 L204.533 537.826 L209.209 537.826 L209.209 568.451 L216.848 568.451 L216.848 572.386 L196.94 572.386 L196.94 568.451 Z" fill="#000000" fill-rule="nonzero" fill-opacity="1" /><path clip-path="url(#clip850)" d="M236.292 540.905 Q232.681 540.905 230.852 544.47 Q229.047 548.011 229.047 555.141 Q229.047 562.247 230.852 565.812 Q232.681 569.354 236.292 569.354 Q239.926 569.354 241.732 565.812 Q243.561 562.247 243.561 555.141 Q243.561 548.011 241.732 544.47 Q239.926 540.905 236.292 540.905 M236.292 537.201 Q242.102 537.201 245.158 541.808 Q248.236 546.391 248.236 555.141 Q248.236 563.868 245.158 568.474 Q242.102 573.057 236.292 573.057 Q230.482 573.057 227.403 568.474 Q224.348 563.868 224.348 555.141 Q224.348 546.391 227.403 541.808 Q230.482 537.201 236.292 537.201 Z" fill="#000000" fill-rule="nonzero" fill-opacity="1" /><path clip-path="url(#clip850)" d="M260.913 520.206 L251.321 535.196 L260.913 535.196 L260.913 520.206 M259.916 516.896 L264.693 516.896 L264.693 535.196 L268.699 535.196 L268.699 538.355 L264.693 538.355 L264.693 544.976 L260.913 544.976 L260.913 538.355 L248.236 538.355 L248.236 534.688 L259.916 516.896 Z" fill="#000000" fill-rule="nonzero" fill-opacity="1" /><path clip-path="url(#clip850)" d="M51.6634 119.967 L59.3023 119.967 L59.3023 93.6019 L50.9921 95.2685 L50.9921 91.0093 L59.256 89.3426 L63.9319 89.3426 L63.9319 119.967 L71.5707 119.967 L71.5707 123.903 L51.6634 123.903 L51.6634 119.967 Z" fill="#000000" fill-rule="nonzero" fill-opacity="1" /><path clip-path="url(#clip850)" d="M81.0151 118.023 L85.8993 118.023 L85.8993 123.903 L81.0151 123.903 L81.0151 118.023 Z" fill="#000000" fill-rule="nonzero" fill-opacity="1" /><path clip-path="url(#clip850)" d="M96.1308 89.3426 L114.487 89.3426 L114.487 93.2778 L100.413 93.2778 L100.413 101.75 Q101.432 101.403 102.45 101.241 Q103.469 101.056 104.487 101.056 Q110.274 101.056 113.654 104.227 Q117.033 107.398 117.033 112.815 Q117.033 118.393 113.561 121.495 Q110.089 124.574 103.77 124.574 Q101.594 124.574 99.3252 124.204 Q97.0798 123.833 94.6724 123.092 L94.6724 118.393 Q96.7558 119.528 98.978 120.083 Q101.2 120.639 103.677 120.639 Q107.682 120.639 110.02 118.532 Q112.358 116.426 112.358 112.815 Q112.358 109.204 110.02 107.097 Q107.682 104.991 103.677 104.991 Q101.802 104.991 99.927 105.407 Q98.0752 105.824 96.1308 106.704 L96.1308 89.3426 Z" fill="#000000" fill-rule="nonzero" fill-opacity="1" /><path clip-path="url(#clip850)" d="M136.246 92.4213 Q132.635 92.4213 130.807 95.9861 Q129.001 99.5278 129.001 106.657 Q129.001 113.764 130.807 117.329 Q132.635 120.87 136.246 120.87 Q139.881 120.87 141.686 117.329 Q143.515 113.764 143.515 106.657 Q143.515 99.5278 141.686 95.9861 Q139.881 92.4213 136.246 92.4213 M136.246 88.7176 Q142.056 88.7176 145.112 93.3241 Q148.191 97.9074 148.191 106.657 Q148.191 115.384 145.112 119.991 Q142.056 124.574 136.246 124.574 Q130.436 124.574 127.357 119.991 Q124.302 115.384 124.302 106.657 Q124.302 97.9074 127.357 93.3241 Q130.436 88.7176 136.246 88.7176 Z" fill="#000000" fill-rule="nonzero" fill-opacity="1" /><path clip-path="url(#clip850)" d="M184.579 98.4398 L174.001 109.065 L184.579 119.643 L181.825 122.444 L171.2 111.819 L160.575 122.444 L157.843 119.643 L168.399 109.065 L157.843 98.4398 L160.575 95.6389 L171.2 106.264 L181.825 95.6389 L184.579 98.4398 Z" fill="#000000" fill-rule="nonzero" fill-opacity="1" /><path clip-path="url(#clip850)" d="M196.94 119.967 L204.579 119.967 L204.579 93.6019 L196.269 95.2685 L196.269 91.0093 L204.533 89.3426 L209.209 89.3426 L209.209 119.967 L216.848 119.967 L216.848 123.903 L196.94 123.903 L196.94 119.967 Z" fill="#000000" fill-rule="nonzero" fill-opacity="1" /><path clip-path="url(#clip850)" d="M236.292 92.4213 Q232.681 92.4213 230.852 95.9861 Q229.047 99.5278 229.047 106.657 Q229.047 113.764 230.852 117.329 Q232.681 120.87 236.292 120.87 Q239.926 120.87 241.732 117.329 Q243.561 113.764 243.561 106.657 Q243.561 99.5278 241.732 95.9861 Q239.926 92.4213 236.292 92.4213 M236.292 88.7176 Q242.102 88.7176 245.158 93.3241 Q248.236 97.9074 248.236 106.657 Q248.236 115.384 245.158 119.991 Q242.102 124.574 236.292 124.574 Q230.482 124.574 227.403 119.991 Q224.348 115.384 224.348 106.657 Q224.348 97.9074 227.403 93.3241 Q230.482 88.7176 236.292 88.7176 Z" fill="#000000" fill-rule="nonzero" fill-opacity="1" /><path clip-path="url(#clip850)" d="M260.913 71.7224 L251.321 86.7122 L260.913 86.7122 L260.913 71.7224 M259.916 68.4122 L264.693 68.4122 L264.693 86.7122 L268.699 86.7122 L268.699 89.8719 L264.693 89.8719 L264.693 96.4922 L260.913 96.4922 L260.913 89.8719 L248.236 89.8719 L248.236 86.2044 L259.916 68.4122 Z" fill="#000000" fill-rule="nonzero" fill-opacity="1" /><polyline clip-path="url(#clip852)" style="stroke:#009af9; stroke-linecap:round; stroke-linejoin:round; stroke-width:4; stroke-opacity:1; fill:none" points="2294.48,1445.54 2294.51,1445.54 2294.54,1445.54 2294.57,1445.54 2294.6,1445.54 2294.62,1445.55 2294.65,1445.55 2294.67,1445.56 2294.69,1445.56 2294.71,1445.57 2294.73,1445.57 2294.75,1445.58 2294.76,1445.59 2294.77,1445.6 2294.78,1445.6 2294.79,1445.61 2294.79,1445.62 2294.79,1445.63 2294.79,1445.63 2294.79,1445.64 2294.78,1445.65 2294.77,1445.66 2294.76,1445.66 2294.74,1445.67 2294.73,1445.68 2294.71,1445.68 2294.69,1445.69 2294.67,1445.7 2294.64,1445.7 2294.62,1445.71 2294.59,1445.71 2294.56,1445.71 2294.53,1445.71 2294.5,1445.72 2294.47,1445.72 2294.44,1445.71 2294.41,1445.71 2294.38,1445.71 2294.36,1445.71 2294.33,1445.7 2294.3,1445.7 2294.28,1445.69 2294.26,1445.69 2294.24,1445.68 2294.22,1445.67 2294.21,1445.67 2294.19,1445.66 2294.18,1445.65 2294.18,1445.65 2294.17,1445.64 2294.17,1445.63 2294.17,1445.62 2294.17,1445.61 2294.18,1445.61 2294.18,1445.6 2294.19,1445.59 2294.2,1445.58 2294.22,1445.58 2294.24,1445.57 2294.26,1445.56 2294.28,1445.56 2294.3,1445.55 2294.32,1445.55 2294.35,1445.54 2294.38,1445.54 2294.41,1445.54 2294.44,1445.54 2294.47,1445.54 2294.5,1445.54 2294.53,1445.54 2294.55,1445.54 2294.58,1445.54 2294.61,1445.54 2294.64,1445.55 2294.66,1445.55 2294.68,1445.56 2294.71,1445.57 2294.72,1445.57 2294.74,1445.58 2294.76,1445.59 2294.77,1445.59 2294.78,1445.6 2294.79,1445.61 2294.79,1445.62 2294.79,1445.62 2294.79,1445.63 2294.79,1445.64 2294.78,1445.65 2294.77,1445.65 2294.76,1445.66 2294.75,1445.67 2294.74,1445.68 2294.72,1445.68 2294.7,1445.69 2294.68,1445.69 2294.65,1445.7 2294.63,1445.7 2294.6,1445.71 2294.57,1445.71 2294.54,1445.71 2294.52,1445.71 2294.49,1445.72 2294.46,1445.72 2294.43,1445.71 2294.4,1445.71 2294.37,1445.71 2294.34,1445.71 2294.32,1445.7 2294.29,1445.7 2294.27,1445.69 2294.25,1445.68 2294.23,1445.68 2294.21,1445.67 2294.2,1445.66 2294.19,1445.66 2294.18,1445.65 2294.17,1445.64 2294.17,1445.63 2294.17,1445.63 2294.17,1445.62 2294.17,1445.61 2294.18,1445.6 2294.19,1445.6 2294.2,1445.59 2294.21,1445.58 2294.23,1445.57 2294.25,1445.57 2294.27,1445.56 2294.29,1445.56 2294.31,1445.55 2294.34,1445.55 2294.37,1445.54 2294.39,1445.54 2294.42,1445.54 2294.45,1445.54 2294.48,1445.54 2294.51,1445.54 2294.54,1445.54 2294.57,1445.54 2294.6,1445.54 2294.62,1445.55 2294.65,1445.55 2294.67,1445.56 2294.7,1445.56 2294.72,1445.57 2294.73,1445.58 2294.75,1445.58 2294.76,1445.59 2294.77,1445.6 2294.78,1445.6 2294.79,1445.61 2294.79,1445.62 2294.79,1445.63 2294.79,1445.64 2294.79,1445.64 2294.78,1445.65 2294.77,1445.66 2294.76,1445.67 2294.74,1445.67 2294.73,1445.68 2294.71,1445.69 2294.69,1445.69 2294.66,1445.7 2294.64,1445.7 2294.61,1445.71 2294.59,1445.71 2294.56,1445.71 2294.53,1445.71 2294.5,1445.72 2294.47,1445.72 2294.44,1445.71 2294.41,1445.71 2294.38,1445.71 2294.35,1445.71 2294.33,1445.7 2294.3,1445.7 2294.28,1445.69 2294.26,1445.69 2294.24,1445.68 2294.22,1445.67 2294.21,1445.67 2294.19,1445.66 2294.18,1445.65 2294.18,1445.65 2294.17,1445.64 2294.17,1445.63 2294.17,1445.62 2294.17,1445.61 2294.18,1445.61 2294.18,1445.6 2294.19,1445.59 2294.21,1445.58 2294.22,1445.58 2294.24,1445.57 2294.26,1445.56 2294.28,1445.56 2294.3,1445.55 2294.33,1445.55 2294.35,1445.54 2294.38,1445.54 "/>
<polyline clip-path="url(#clip852)" style="stroke:#e26f46; stroke-linecap:round; stroke-linejoin:round; stroke-width:4; stroke-opacity:1; fill:none" points="2294.48,1445.54 2294.5,1445.54 2294.52,1445.53 2294.53,1445.53 2294.53,1445.52 2294.53,1445.51 2294.52,1445.5 2294.5,1445.49 2294.48,1445.48 2294.44,1445.46 2294.39,1445.44 2294.34,1445.42 2294.27,1445.39 2294.18,1445.35 2294.04,1445.28 2293.78,1445.13 2293.27,1444.79 2292.13,1444 2289.39,1442.1 2283.02,1437.61 2268.02,1427.04 2232.32,1402.03 2147.51,1342.74 1949.26,1203.09 1476.44,871.567 362.663,87.9763 "/>
<polyline clip-path="url(#clip852)" style="stroke:#3da44d; stroke-linecap:round; stroke-linejoin:round; stroke-width:4; stroke-opacity:1; fill:none" points="2294.48,1445.54 2294.51,1445.54 2294.54,1445.54 2294.57,1445.54 2294.6,1445.54 2294.62,1445.55 2294.65,1445.55 2294.67,1445.56 2294.69,1445.56 2294.71,1445.57 2294.73,1445.57 2294.75,1445.58 2294.76,1445.59 2294.77,1445.6 2294.78,1445.6 2294.79,1445.61 2294.79,1445.62 2294.79,1445.63 2294.79,1445.63 2294.79,1445.64 2294.78,1445.65 2294.77,1445.66 2294.76,1445.67 2294.74,1445.67 2294.73,1445.68 2294.71,1445.69 2294.69,1445.69 2294.67,1445.7 2294.64,1445.7 2294.61,1445.71 2294.59,1445.71 2294.56,1445.71 2294.53,1445.71 2294.5,1445.72 2294.47,1445.72 2294.44,1445.71 2294.41,1445.71 2294.38,1445.71 2294.35,1445.71 2294.33,1445.7 2294.3,1445.7 2294.28,1445.69 2294.26,1445.69 2294.24,1445.68 2294.22,1445.68 2294.21,1445.67 2294.19,1445.66 2294.18,1445.65 2294.17,1445.65 2294.17,1445.64 2294.17,1445.63 2294.17,1445.62 2294.17,1445.61 2294.17,1445.61 2294.18,1445.6 2294.19,1445.59 2294.2,1445.58 2294.22,1445.58 2294.24,1445.57 2294.25,1445.56 2294.28,1445.56 2294.3,1445.55 2294.32,1445.55 2294.35,1445.54 2294.38,1445.54 2294.41,1445.54 2294.44,1445.54 2294.47,1445.54 2294.5,1445.54 2294.53,1445.54 2294.55,1445.54 2294.58,1445.54 2294.61,1445.55 2294.64,1445.55 2294.66,1445.55 2294.68,1445.56 2294.71,1445.57 2294.72,1445.57 2294.74,1445.58 2294.76,1445.59 2294.77,1445.59 2294.78,1445.6 2294.79,1445.61 2294.79,1445.62 2294.79,1445.62 2294.79,1445.63 2294.79,1445.64 2294.78,1445.65 2294.77,1445.65 2294.76,1445.66 2294.75,1445.67 2294.73,1445.68 2294.72,1445.68 2294.7,1445.69 2294.68,1445.69 2294.65,1445.7 2294.63,1445.7 2294.6,1445.71 2294.57,1445.71 2294.54,1445.71 2294.51,1445.72 2294.48,1445.72 2294.45,1445.72 2294.42,1445.71 2294.39,1445.71 2294.37,1445.71 2294.34,1445.71 2294.31,1445.7 2294.29,1445.7 2294.27,1445.69 2294.25,1445.68 2294.23,1445.68 2294.21,1445.67 2294.2,1445.66 2294.19,1445.66 2294.18,1445.65 2294.17,1445.64 2294.17,1445.63 2294.17,1445.63 2294.17,1445.62 2294.17,1445.61 2294.18,1445.6 2294.19,1445.6 2294.2,1445.59 2294.21,1445.58 2294.23,1445.57 2294.25,1445.57 2294.27,1445.56 2294.29,1445.56 2294.31,1445.55 2294.34,1445.55 2294.37,1445.54 2294.4,1445.54 2294.42,1445.54 2294.45,1445.54 2294.48,1445.54 2294.51,1445.54 2294.54,1445.54 2294.57,1445.54 2294.6,1445.54 2294.63,1445.55 2294.65,1445.55 2294.67,1445.56 2294.7,1445.56 2294.72,1445.57 2294.73,1445.58 2294.75,1445.58 2294.76,1445.59 2294.77,1445.6 2294.78,1445.6 2294.79,1445.61 2294.79,1445.62 2294.79,1445.63 2294.79,1445.64 2294.79,1445.64 2294.78,1445.65 2294.77,1445.66 2294.76,1445.67 2294.74,1445.67 2294.73,1445.68 2294.71,1445.69 2294.69,1445.69 2294.66,1445.7 2294.64,1445.7 2294.61,1445.71 2294.58,1445.71 2294.56,1445.71 2294.53,1445.71 2294.5,1445.72 2294.47,1445.72 2294.44,1445.71 2294.41,1445.71 2294.38,1445.71 2294.35,1445.71 2294.33,1445.7 2294.3,1445.7 2294.28,1445.69 2294.26,1445.69 2294.24,1445.68 2294.22,1445.67 2294.2,1445.67 2294.19,1445.66 2294.18,1445.65 2294.17,1445.64 2294.17,1445.64 2294.17,1445.63 2294.17,1445.62 2294.17,1445.61 2294.17,1445.61 2294.18,1445.6 2294.19,1445.59 2294.21,1445.58 2294.22,1445.58 2294.24,1445.57 2294.26,1445.56 2294.28,1445.56 2294.3,1445.55 2294.33,1445.55 2294.35,1445.54 2294.38,1445.54 "/>
<path clip-path="url(#clip850)" d="M1779.75 302.578 L2284.49 302.578 L2284.49 95.2176 L1779.75 95.2176  Z" fill="#ffffff" fill-rule="evenodd" fill-opacity="1"/>
<polyline clip-path="url(#clip850)" style="stroke:#000000; stroke-linecap:round; stroke-linejoin:round; stroke-width:4; stroke-opacity:1; fill:none" points="1779.75,302.578 2284.49,302.578 2284.49,95.2176 1779.75,95.2176 1779.75,302.578 "/>
<polyline clip-path="url(#clip850)" style="stroke:#009af9; stroke-linecap:round; stroke-linejoin:round; stroke-width:4; stroke-opacity:1; fill:none" points="1802.51,147.058 1939.05,147.058 "/>
<path clip-path="url(#clip850)" d="M1969.21 131.051 L1969.21 138.412 L1977.98 138.412 L1977.98 141.722 L1969.21 141.722 L1969.21 155.796 Q1969.21 158.967 1970.07 159.87 Q1970.95 160.773 1973.61 160.773 L1977.98 160.773 L1977.98 164.338 L1973.61 164.338 Q1968.68 164.338 1966.8 162.509 Q1964.93 160.657 1964.93 155.796 L1964.93 141.722 L1961.8 141.722 L1961.8 138.412 L1964.93 138.412 L1964.93 131.051 L1969.21 131.051 Z" fill="#000000" fill-rule="nonzero" fill-opacity="1" /><path clip-path="url(#clip850)" d="M1998.61 142.393 Q1997.89 141.977 1997.03 141.791 Q1996.2 141.583 1995.18 141.583 Q1991.57 141.583 1989.63 143.944 Q1987.7 146.282 1987.7 150.68 L1987.7 164.338 L1983.42 164.338 L1983.42 138.412 L1987.7 138.412 L1987.7 142.44 Q1989.05 140.078 1991.2 138.944 Q1993.35 137.787 1996.43 137.787 Q1996.87 137.787 1997.4 137.856 Q1997.94 137.903 1998.58 138.018 L1998.61 142.393 Z" fill="#000000" fill-rule="nonzero" fill-opacity="1" /><path clip-path="url(#clip850)" d="M2014.86 151.305 Q2009.7 151.305 2007.7 152.486 Q2005.71 153.666 2005.71 156.514 Q2005.71 158.782 2007.2 160.125 Q2008.7 161.444 2011.27 161.444 Q2014.81 161.444 2016.94 158.944 Q2019.09 156.421 2019.09 152.254 L2019.09 151.305 L2014.86 151.305 M2023.35 149.546 L2023.35 164.338 L2019.09 164.338 L2019.09 160.402 Q2017.64 162.763 2015.46 163.898 Q2013.28 165.009 2010.14 165.009 Q2006.15 165.009 2003.79 162.787 Q2001.45 160.541 2001.45 156.791 Q2001.45 152.416 2004.37 150.194 Q2007.31 147.972 2013.12 147.972 L2019.09 147.972 L2019.09 147.555 Q2019.09 144.615 2017.15 143.018 Q2015.23 141.398 2011.73 141.398 Q2009.51 141.398 2007.4 141.93 Q2005.3 142.463 2003.35 143.527 L2003.35 139.592 Q2005.69 138.69 2007.89 138.25 Q2010.09 137.787 2012.17 137.787 Q2017.8 137.787 2020.58 140.703 Q2023.35 143.62 2023.35 149.546 Z" fill="#000000" fill-rule="nonzero" fill-opacity="1" /><path clip-path="url(#clip850)" d="M2032.13 138.412 L2036.39 138.412 L2036.39 164.338 L2032.13 164.338 L2032.13 138.412 M2032.13 128.319 L2036.39 128.319 L2036.39 133.713 L2032.13 133.713 L2032.13 128.319 Z" fill="#000000" fill-rule="nonzero" fill-opacity="1" /><path clip-path="url(#clip850)" d="M2066.85 148.689 L2066.85 164.338 L2062.59 164.338 L2062.59 148.828 Q2062.59 145.148 2061.15 143.319 Q2059.72 141.49 2056.85 141.49 Q2053.4 141.49 2051.41 143.69 Q2049.42 145.889 2049.42 149.685 L2049.42 164.338 L2045.14 164.338 L2045.14 138.412 L2049.42 138.412 L2049.42 142.44 Q2050.95 140.102 2053.01 138.944 Q2055.09 137.787 2057.8 137.787 Q2062.26 137.787 2064.56 140.565 Q2066.85 143.319 2066.85 148.689 Z" fill="#000000" fill-rule="nonzero" fill-opacity="1" /><path clip-path="url(#clip850)" d="M2075.34 138.412 L2079.6 138.412 L2079.6 164.338 L2075.34 164.338 L2075.34 138.412 M2075.34 128.319 L2079.6 128.319 L2079.6 133.713 L2075.34 133.713 L2075.34 128.319 Z" fill="#000000" fill-rule="nonzero" fill-opacity="1" /><path clip-path="url(#clip850)" d="M2110.07 148.689 L2110.07 164.338 L2105.81 164.338 L2105.81 148.828 Q2105.81 145.148 2104.37 143.319 Q2102.94 141.49 2100.07 141.49 Q2096.62 141.49 2094.63 143.69 Q2092.63 145.889 2092.63 149.685 L2092.63 164.338 L2088.35 164.338 L2088.35 138.412 L2092.63 138.412 L2092.63 142.44 Q2094.16 140.102 2096.22 138.944 Q2098.31 137.787 2101.01 137.787 Q2105.48 137.787 2107.77 140.565 Q2110.07 143.319 2110.07 148.689 Z" fill="#000000" fill-rule="nonzero" fill-opacity="1" /><path clip-path="url(#clip850)" d="M2135.62 151.074 Q2135.62 146.444 2133.7 143.898 Q2131.8 141.352 2128.35 141.352 Q2124.93 141.352 2123.01 143.898 Q2121.11 146.444 2121.11 151.074 Q2121.11 155.68 2123.01 158.226 Q2124.93 160.773 2128.35 160.773 Q2131.8 160.773 2133.7 158.226 Q2135.62 155.68 2135.62 151.074 M2139.88 161.12 Q2139.88 167.74 2136.94 170.958 Q2134 174.199 2127.94 174.199 Q2125.69 174.199 2123.7 173.851 Q2121.71 173.527 2119.83 172.833 L2119.83 168.689 Q2121.71 169.708 2123.54 170.194 Q2125.37 170.68 2127.26 170.68 Q2131.45 170.68 2133.54 168.481 Q2135.62 166.305 2135.62 161.884 L2135.62 159.777 Q2134.3 162.069 2132.24 163.203 Q2130.18 164.338 2127.31 164.338 Q2122.54 164.338 2119.63 160.703 Q2116.71 157.069 2116.71 151.074 Q2116.71 145.055 2119.63 141.421 Q2122.54 137.787 2127.31 137.787 Q2130.18 137.787 2132.24 138.921 Q2134.3 140.055 2135.62 142.347 L2135.62 138.412 L2139.88 138.412 L2139.88 161.12 Z" fill="#000000" fill-rule="nonzero" fill-opacity="1" /><path clip-path="url(#clip850)" d="M2180.78 142.347 L2180.78 128.319 L2185.04 128.319 L2185.04 164.338 L2180.78 164.338 L2180.78 160.449 Q2179.44 162.763 2177.38 163.898 Q2175.34 165.009 2172.47 165.009 Q2167.77 165.009 2164.81 161.259 Q2161.87 157.509 2161.87 151.398 Q2161.87 145.287 2164.81 141.537 Q2167.77 137.787 2172.47 137.787 Q2175.34 137.787 2177.38 138.921 Q2179.44 140.032 2180.78 142.347 M2166.27 151.398 Q2166.27 156.097 2168.19 158.782 Q2170.13 161.444 2173.51 161.444 Q2176.89 161.444 2178.84 158.782 Q2180.78 156.097 2180.78 151.398 Q2180.78 146.699 2178.84 144.037 Q2176.89 141.352 2173.51 141.352 Q2170.13 141.352 2168.19 144.037 Q2166.27 146.699 2166.27 151.398 Z" fill="#000000" fill-rule="nonzero" fill-opacity="1" /><path clip-path="url(#clip850)" d="M2205.6 151.305 Q2200.44 151.305 2198.44 152.486 Q2196.45 153.666 2196.45 156.514 Q2196.45 158.782 2197.94 160.125 Q2199.44 161.444 2202.01 161.444 Q2205.55 161.444 2207.68 158.944 Q2209.83 156.421 2209.83 152.254 L2209.83 151.305 L2205.6 151.305 M2214.09 149.546 L2214.09 164.338 L2209.83 164.338 L2209.83 160.402 Q2208.37 162.763 2206.2 163.898 Q2204.02 165.009 2200.88 165.009 Q2196.89 165.009 2194.53 162.787 Q2192.19 160.541 2192.19 156.791 Q2192.19 152.416 2195.11 150.194 Q2198.05 147.972 2203.86 147.972 L2209.83 147.972 L2209.83 147.555 Q2209.83 144.615 2207.89 143.018 Q2205.97 141.398 2202.47 141.398 Q2200.25 141.398 2198.14 141.93 Q2196.04 142.463 2194.09 143.527 L2194.09 139.592 Q2196.43 138.69 2198.63 138.25 Q2200.83 137.787 2202.91 137.787 Q2208.54 137.787 2211.31 140.703 Q2214.09 143.62 2214.09 149.546 Z" fill="#000000" fill-rule="nonzero" fill-opacity="1" /><path clip-path="url(#clip850)" d="M2227.08 131.051 L2227.08 138.412 L2235.85 138.412 L2235.85 141.722 L2227.08 141.722 L2227.08 155.796 Q2227.08 158.967 2227.94 159.87 Q2228.81 160.773 2231.48 160.773 L2235.85 160.773 L2235.85 164.338 L2231.48 164.338 Q2226.55 164.338 2224.67 162.509 Q2222.8 160.657 2222.8 155.796 L2222.8 141.722 L2219.67 141.722 L2219.67 138.412 L2222.8 138.412 L2222.8 131.051 L2227.08 131.051 Z" fill="#000000" fill-rule="nonzero" fill-opacity="1" /><path clip-path="url(#clip850)" d="M2253.24 151.305 Q2248.07 151.305 2246.08 152.486 Q2244.09 153.666 2244.09 156.514 Q2244.09 158.782 2245.57 160.125 Q2247.08 161.444 2249.65 161.444 Q2253.19 161.444 2255.32 158.944 Q2257.47 156.421 2257.47 152.254 L2257.47 151.305 L2253.24 151.305 M2261.73 149.546 L2261.73 164.338 L2257.47 164.338 L2257.47 160.402 Q2256.01 162.763 2253.84 163.898 Q2251.66 165.009 2248.51 165.009 Q2244.53 165.009 2242.17 162.787 Q2239.83 160.541 2239.83 156.791 Q2239.83 152.416 2242.75 150.194 Q2245.69 147.972 2251.5 147.972 L2257.47 147.972 L2257.47 147.555 Q2257.47 144.615 2255.53 143.018 Q2253.61 141.398 2250.11 141.398 Q2247.89 141.398 2245.78 141.93 Q2243.68 142.463 2241.73 143.527 L2241.73 139.592 Q2244.07 138.69 2246.27 138.25 Q2248.47 137.787 2250.55 137.787 Q2256.18 137.787 2258.95 140.703 Q2261.73 143.62 2261.73 149.546 Z" fill="#000000" fill-rule="nonzero" fill-opacity="1" /><polyline clip-path="url(#clip850)" style="stroke:#e26f46; stroke-linecap:round; stroke-linejoin:round; stroke-width:4; stroke-opacity:1; fill:none" points="1802.51,198.898 1939.05,198.898 "/>
<path clip-path="url(#clip850)" d="M1961.8 181.618 L1966.48 181.618 L1966.48 212.242 L1983.31 212.242 L1983.31 216.178 L1961.8 216.178 L1961.8 181.618 Z" fill="#000000" fill-rule="nonzero" fill-opacity="1" /><path clip-path="url(#clip850)" d="M2000.85 186.224 L1994.51 203.423 L2007.22 203.423 L2000.85 186.224 M1998.21 181.618 L2003.51 181.618 L2016.69 216.178 L2011.83 216.178 L2008.68 207.312 L1993.1 207.312 L1989.95 216.178 L1985.02 216.178 L1998.21 181.618 Z" fill="#000000" fill-rule="nonzero" fill-opacity="1" /><path clip-path="url(#clip850)" d="M2057.52 182.752 L2057.52 187.312 Q2054.86 186.039 2052.5 185.414 Q2050.14 184.789 2047.94 184.789 Q2044.12 184.789 2042.03 186.27 Q2039.97 187.752 2039.97 190.483 Q2039.97 192.775 2041.34 193.955 Q2042.73 195.113 2046.57 195.83 L2049.39 196.409 Q2054.63 197.405 2057.1 199.928 Q2059.6 202.428 2059.6 206.641 Q2059.6 211.664 2056.22 214.256 Q2052.87 216.849 2046.36 216.849 Q2043.91 216.849 2041.13 216.293 Q2038.38 215.738 2035.41 214.65 L2035.41 209.835 Q2038.26 211.432 2040.99 212.242 Q2043.72 213.053 2046.36 213.053 Q2050.37 213.053 2052.54 211.479 Q2054.72 209.904 2054.72 206.988 Q2054.72 204.442 2053.14 203.006 Q2051.59 201.571 2048.03 200.854 L2045.18 200.298 Q2039.95 199.256 2037.61 197.034 Q2035.27 194.812 2035.27 190.854 Q2035.27 186.27 2038.49 183.631 Q2041.73 180.993 2047.4 180.993 Q2049.83 180.993 2052.36 181.432 Q2054.88 181.872 2057.52 182.752 Z" fill="#000000" fill-rule="nonzero" fill-opacity="1" /><path clip-path="url(#clip850)" d="M2077.5 218.585 Q2075.69 223.215 2073.98 224.627 Q2072.26 226.039 2069.39 226.039 L2065.99 226.039 L2065.99 222.474 L2068.49 222.474 Q2070.25 222.474 2071.22 221.64 Q2072.2 220.807 2073.38 217.705 L2074.14 215.761 L2063.65 190.252 L2068.17 190.252 L2076.27 210.529 L2084.37 190.252 L2088.88 190.252 L2077.5 218.585 Z" fill="#000000" fill-rule="nonzero" fill-opacity="1" /><path clip-path="url(#clip850)" d="M2114.95 195.229 Q2116.55 192.358 2118.77 190.993 Q2120.99 189.627 2124 189.627 Q2128.05 189.627 2130.25 192.474 Q2132.45 195.298 2132.45 200.529 L2132.45 216.178 L2128.17 216.178 L2128.17 200.668 Q2128.17 196.942 2126.85 195.136 Q2125.53 193.33 2122.82 193.33 Q2119.51 193.33 2117.59 195.53 Q2115.67 197.729 2115.67 201.525 L2115.67 216.178 L2111.38 216.178 L2111.38 200.668 Q2111.38 196.918 2110.07 195.136 Q2108.75 193.33 2105.99 193.33 Q2102.73 193.33 2100.81 195.553 Q2098.88 197.752 2098.88 201.525 L2098.88 216.178 L2094.6 216.178 L2094.6 190.252 L2098.88 190.252 L2098.88 194.28 Q2100.34 191.895 2102.38 190.761 Q2104.42 189.627 2107.22 189.627 Q2110.04 189.627 2112.01 191.062 Q2114 192.497 2114.95 195.229 Z" fill="#000000" fill-rule="nonzero" fill-opacity="1" /><path clip-path="url(#clip850)" d="M2145.07 212.289 L2145.07 226.039 L2140.78 226.039 L2140.78 190.252 L2145.07 190.252 L2145.07 194.187 Q2146.41 191.872 2148.44 190.761 Q2150.5 189.627 2153.35 189.627 Q2158.07 189.627 2161.01 193.377 Q2163.98 197.127 2163.98 203.238 Q2163.98 209.349 2161.01 213.099 Q2158.07 216.849 2153.35 216.849 Q2150.5 216.849 2148.44 215.738 Q2146.41 214.603 2145.07 212.289 M2159.56 203.238 Q2159.56 198.539 2157.61 195.877 Q2155.69 193.192 2152.31 193.192 Q2148.93 193.192 2146.99 195.877 Q2145.07 198.539 2145.07 203.238 Q2145.07 207.937 2146.99 210.622 Q2148.93 213.284 2152.31 213.284 Q2155.69 213.284 2157.61 210.622 Q2159.56 207.937 2159.56 203.238 Z" fill="#000000" fill-rule="nonzero" fill-opacity="1" /><path clip-path="url(#clip850)" d="M2192.59 200.529 L2192.59 216.178 L2188.33 216.178 L2188.33 200.668 Q2188.33 196.988 2186.89 195.159 Q2185.46 193.33 2182.59 193.33 Q2179.14 193.33 2177.15 195.53 Q2175.16 197.729 2175.16 201.525 L2175.16 216.178 L2170.88 216.178 L2170.88 190.252 L2175.16 190.252 L2175.16 194.28 Q2176.69 191.942 2178.75 190.784 Q2180.83 189.627 2183.54 189.627 Q2188 189.627 2190.3 192.405 Q2192.59 195.159 2192.59 200.529 Z" fill="#000000" fill-rule="nonzero" fill-opacity="1" /><path clip-path="url(#clip850)" d="M2223.26 202.15 L2223.26 204.233 L2203.68 204.233 Q2203.95 208.631 2206.31 210.946 Q2208.7 213.238 2212.94 213.238 Q2215.39 213.238 2217.68 212.636 Q2220 212.034 2222.26 210.83 L2222.26 214.858 Q2219.97 215.83 2217.56 216.34 Q2215.16 216.849 2212.68 216.849 Q2206.48 216.849 2202.84 213.238 Q2199.23 209.627 2199.23 203.469 Q2199.23 197.104 2202.66 193.377 Q2206.11 189.627 2211.94 189.627 Q2217.17 189.627 2220.2 193.006 Q2223.26 196.363 2223.26 202.15 M2219 200.9 Q2218.95 197.405 2217.03 195.321 Q2215.13 193.238 2211.99 193.238 Q2208.42 193.238 2206.27 195.252 Q2204.14 197.266 2203.81 200.923 L2219 200.9 Z" fill="#000000" fill-rule="nonzero" fill-opacity="1" /><path clip-path="url(#clip850)" d="M2234.46 182.891 L2234.46 190.252 L2243.24 190.252 L2243.24 193.562 L2234.46 193.562 L2234.46 207.636 Q2234.46 210.807 2235.32 211.71 Q2236.2 212.613 2238.86 212.613 L2243.24 212.613 L2243.24 216.178 L2238.86 216.178 Q2233.93 216.178 2232.06 214.349 Q2230.18 212.497 2230.18 207.636 L2230.18 193.562 L2227.06 193.562 L2227.06 190.252 L2230.18 190.252 L2230.18 182.891 L2234.46 182.891 Z" fill="#000000" fill-rule="nonzero" fill-opacity="1" /><polyline clip-path="url(#clip850)" style="stroke:#3da44d; stroke-linecap:round; stroke-linejoin:round; stroke-width:4; stroke-opacity:1; fill:none" points="1802.51,250.738 1939.05,250.738 "/>
<path clip-path="url(#clip850)" d="M1987.36 263.087 L1987.36 253.805 L1979.72 253.805 L1979.72 249.962 L1991.99 249.962 L1991.99 264.8 Q1989.28 266.721 1986.02 267.717 Q1982.75 268.689 1979.05 268.689 Q1970.95 268.689 1966.36 263.967 Q1961.8 259.221 1961.8 250.772 Q1961.8 242.3 1966.36 237.578 Q1970.95 232.833 1979.05 232.833 Q1982.43 232.833 1985.46 233.666 Q1988.52 234.499 1991.08 236.12 L1991.08 241.096 Q1988.49 238.897 1985.58 237.786 Q1982.66 236.675 1979.44 236.675 Q1973.1 236.675 1969.9 240.217 Q1966.73 243.758 1966.73 250.772 Q1966.73 257.763 1969.9 261.305 Q1973.1 264.846 1979.44 264.846 Q1981.92 264.846 1983.86 264.43 Q1985.81 263.99 1987.36 263.087 Z" fill="#000000" fill-rule="nonzero" fill-opacity="1" /><path clip-path="url(#clip850)" d="M2036.32 234.592 L2036.32 239.152 Q2033.65 237.879 2031.29 237.254 Q2028.93 236.629 2026.73 236.629 Q2022.91 236.629 2020.83 238.11 Q2018.77 239.592 2018.77 242.323 Q2018.77 244.615 2020.14 245.795 Q2021.52 246.953 2025.37 247.67 L2028.19 248.249 Q2033.42 249.245 2035.9 251.768 Q2038.4 254.268 2038.4 258.481 Q2038.4 263.504 2035.02 266.096 Q2031.66 268.689 2025.16 268.689 Q2022.7 268.689 2019.93 268.133 Q2017.17 267.578 2014.21 266.49 L2014.21 261.675 Q2017.06 263.272 2019.79 264.082 Q2022.52 264.893 2025.16 264.893 Q2029.16 264.893 2031.34 263.319 Q2033.51 261.744 2033.51 258.828 Q2033.51 256.282 2031.94 254.846 Q2030.39 253.411 2026.83 252.694 L2023.98 252.138 Q2018.75 251.096 2016.41 248.874 Q2014.07 246.652 2014.07 242.694 Q2014.07 238.11 2017.29 235.471 Q2020.53 232.833 2026.2 232.833 Q2028.63 232.833 2031.15 233.272 Q2033.68 233.712 2036.32 234.592 Z" fill="#000000" fill-rule="nonzero" fill-opacity="1" /><path clip-path="url(#clip850)" d="M2056.29 270.425 Q2054.49 275.055 2052.77 276.467 Q2051.06 277.879 2048.19 277.879 L2044.79 277.879 L2044.79 274.314 L2047.29 274.314 Q2049.05 274.314 2050.02 273.48 Q2050.99 272.647 2052.17 269.545 L2052.94 267.601 L2042.45 242.092 L2046.96 242.092 L2055.07 262.369 L2063.17 242.092 L2067.68 242.092 L2056.29 270.425 Z" fill="#000000" fill-rule="nonzero" fill-opacity="1" /><path clip-path="url(#clip850)" d="M2093.75 247.069 Q2095.34 244.198 2097.57 242.833 Q2099.79 241.467 2102.8 241.467 Q2106.85 241.467 2109.05 244.314 Q2111.25 247.138 2111.25 252.369 L2111.25 268.018 L2106.96 268.018 L2106.96 252.508 Q2106.96 248.782 2105.64 246.976 Q2104.32 245.17 2101.62 245.17 Q2098.31 245.17 2096.38 247.37 Q2094.46 249.569 2094.46 253.365 L2094.46 268.018 L2090.18 268.018 L2090.18 252.508 Q2090.18 248.758 2088.86 246.976 Q2087.54 245.17 2084.79 245.17 Q2081.52 245.17 2079.6 247.393 Q2077.68 249.592 2077.68 253.365 L2077.68 268.018 L2073.4 268.018 L2073.4 242.092 L2077.68 242.092 L2077.68 246.12 Q2079.14 243.735 2081.18 242.601 Q2083.21 241.467 2086.01 241.467 Q2088.84 241.467 2090.81 242.902 Q2092.8 244.337 2093.75 247.069 Z" fill="#000000" fill-rule="nonzero" fill-opacity="1" /><path clip-path="url(#clip850)" d="M2123.86 264.129 L2123.86 277.879 L2119.58 277.879 L2119.58 242.092 L2123.86 242.092 L2123.86 246.027 Q2125.2 243.712 2127.24 242.601 Q2129.3 241.467 2132.15 241.467 Q2136.87 241.467 2139.81 245.217 Q2142.77 248.967 2142.77 255.078 Q2142.77 261.189 2139.81 264.939 Q2136.87 268.689 2132.15 268.689 Q2129.3 268.689 2127.24 267.578 Q2125.2 266.443 2123.86 264.129 M2138.35 255.078 Q2138.35 250.379 2136.41 247.717 Q2134.49 245.032 2131.11 245.032 Q2127.73 245.032 2125.78 247.717 Q2123.86 250.379 2123.86 255.078 Q2123.86 259.777 2125.78 262.462 Q2127.73 265.124 2131.11 265.124 Q2134.49 265.124 2136.41 262.462 Q2138.35 259.777 2138.35 255.078 Z" fill="#000000" fill-rule="nonzero" fill-opacity="1" /><path clip-path="url(#clip850)" d="M2171.38 252.369 L2171.38 268.018 L2167.13 268.018 L2167.13 252.508 Q2167.13 248.828 2165.69 246.999 Q2164.25 245.17 2161.38 245.17 Q2157.94 245.17 2155.94 247.37 Q2153.95 249.569 2153.95 253.365 L2153.95 268.018 L2149.67 268.018 L2149.67 242.092 L2153.95 242.092 L2153.95 246.12 Q2155.48 243.782 2157.54 242.624 Q2159.63 241.467 2162.33 241.467 Q2166.8 241.467 2169.09 244.245 Q2171.38 246.999 2171.38 252.369 Z" fill="#000000" fill-rule="nonzero" fill-opacity="1" /><path clip-path="url(#clip850)" d="M2202.06 253.99 L2202.06 256.073 L2182.47 256.073 Q2182.75 260.471 2185.11 262.786 Q2187.5 265.078 2191.73 265.078 Q2194.19 265.078 2196.48 264.476 Q2198.79 263.874 2201.06 262.67 L2201.06 266.698 Q2198.77 267.67 2196.36 268.18 Q2193.95 268.689 2191.48 268.689 Q2185.27 268.689 2181.64 265.078 Q2178.03 261.467 2178.03 255.309 Q2178.03 248.944 2181.45 245.217 Q2184.9 241.467 2190.74 241.467 Q2195.97 241.467 2199 244.846 Q2202.06 248.203 2202.06 253.99 M2197.8 252.74 Q2197.75 249.245 2195.83 247.161 Q2193.93 245.078 2190.78 245.078 Q2187.22 245.078 2185.06 247.092 Q2182.94 249.106 2182.61 252.763 L2197.8 252.74 Z" fill="#000000" fill-rule="nonzero" fill-opacity="1" /><path clip-path="url(#clip850)" d="M2213.26 234.731 L2213.26 242.092 L2222.03 242.092 L2222.03 245.402 L2213.26 245.402 L2213.26 259.476 Q2213.26 262.647 2214.12 263.55 Q2215 264.453 2217.66 264.453 L2222.03 264.453 L2222.03 268.018 L2217.66 268.018 Q2212.73 268.018 2210.85 266.189 Q2208.98 264.337 2208.98 259.476 L2208.98 245.402 L2205.85 245.402 L2205.85 242.092 L2208.98 242.092 L2208.98 234.731 L2213.26 234.731 Z" fill="#000000" fill-rule="nonzero" fill-opacity="1" /></svg>
