<?xml version="1.0" encoding="utf-8"?>
<svg xmlns="http://www.w3.org/2000/svg" xmlns:xlink="http://www.w3.org/1999/xlink" width="600" height="400" viewBox="0 0 2400 1600">
<defs>
  <clipPath id="clip800">
    <rect x="0" y="0" width="2400" height="1600"/>
  </clipPath>
</defs>
<path clip-path="url(#clip800)" d="M0 1600 L2400 1600 L2400 0 L0 0  Z" fill="#ffffff" fill-rule="evenodd" fill-opacity="1"/>
<defs>
  <clipPath id="clip801">
    <rect x="480" y="0" width="1681" height="1600"/>
  </clipPath>
</defs>
<path clip-path="url(#clip800)" d="M251.071 1423.18 L2352.76 1423.18 L2352.76 47.2441 L251.071 47.2441  Z" fill="#ffffff" fill-rule="evenodd" fill-opacity="1"/>
<defs>
  <clipPath id="clip802">
    <rect x="251" y="47" width="2103" height="1377"/>
  </clipPath>
</defs>
<polyline clip-path="url(#clip802)" style="stroke:#000000; stroke-linecap:round; stroke-linejoin:round; stroke-width:2; stroke-opacity:0.1; fill:none" points="303.922,1423.18 303.922,47.2441 "/>
<polyline clip-path="url(#clip802)" style="stroke:#000000; stroke-linecap:round; stroke-linejoin:round; stroke-width:2; stroke-opacity:0.1; fill:none" points="967.039,1423.18 967.039,47.2441 "/>
<polyline clip-path="url(#clip802)" style="stroke:#000000; stroke-linecap:round; stroke-linejoin:round; stroke-width:2; stroke-opacity:0.1; fill:none" points="1630.16,1423.18 1630.16,47.2441 "/>
<polyline clip-path="url(#clip802)" style="stroke:#000000; stroke-linecap:round; stroke-linejoin:round; stroke-width:2; stroke-opacity:0.1; fill:none" points="2293.27,1423.18 2293.27,47.2441 "/>
<polyline clip-path="url(#clip800)" style="stroke:#000000; stroke-linecap:round; stroke-linejoin:round; stroke-width:4; stroke-opacity:1; fill:none" points="251.071,1423.18 2352.76,1423.18 "/>
<polyline clip-path="url(#clip800)" style="stroke:#000000; stroke-linecap:round; stroke-linejoin:round; stroke-width:4; stroke-opacity:1; fill:none" points="303.922,1423.18 303.922,1404.28 "/>
<polyline clip-path="url(#clip800)" style="stroke:#000000; stroke-linecap:round; stroke-linejoin:round; stroke-width:4; stroke-opacity:1; fill:none" points="967.039,1423.18 967.039,1404.28 "/>
<polyline clip-path="url(#clip800)" style="stroke:#000000; stroke-linecap:round; stroke-linejoin:round; stroke-width:4; stroke-opacity:1; fill:none" points="1630.16,1423.18 1630.16,1404.28 "/>
<polyline clip-path="url(#clip800)" style="stroke:#000000; stroke-linecap:round; stroke-linejoin:round; stroke-width:4; stroke-opacity:1; fill:none" points="2293.27,1423.18 2293.27,1404.28 "/>
<path clip-path="url(#clip800)" d="M303.922 1454.1 Q300.311 1454.1 298.482 1457.66 Q296.676 1461.2 296.676 1468.33 Q296.676 1475.44 298.482 1479.01 Q300.311 1482.55 303.922 1482.55 Q307.556 1482.55 309.362 1479.01 Q311.19 1475.44 311.19 1468.33 Q311.19 1461.2 309.362 1457.66 Q307.556 1454.1 303.922 1454.1 M303.922 1450.39 Q309.732 1450.39 312.787 1455 Q315.866 1459.58 315.866 1468.33 Q315.866 1477.06 312.787 1481.67 Q309.732 1486.25 303.922 1486.25 Q298.112 1486.25 295.033 1481.67 Q291.977 1477.06 291.977 1468.33 Q291.977 1459.58 295.033 1455 Q298.112 1450.39 303.922 1450.39 Z" fill="#000000" fill-rule="nonzero" fill-opacity="1" /><path clip-path="url(#clip800)" d="M926.646 1481.64 L934.285 1481.64 L934.285 1455.28 L925.975 1456.95 L925.975 1452.69 L934.238 1451.02 L938.914 1451.02 L938.914 1481.64 L946.553 1481.64 L946.553 1485.58 L926.646 1485.58 L926.646 1481.64 Z" fill="#000000" fill-rule="nonzero" fill-opacity="1" /><path clip-path="url(#clip800)" d="M965.998 1454.1 Q962.386 1454.1 960.558 1457.66 Q958.752 1461.2 958.752 1468.33 Q958.752 1475.44 960.558 1479.01 Q962.386 1482.55 965.998 1482.55 Q969.632 1482.55 971.437 1479.01 Q973.266 1475.44 973.266 1468.33 Q973.266 1461.2 971.437 1457.66 Q969.632 1454.1 965.998 1454.1 M965.998 1450.39 Q971.808 1450.39 974.863 1455 Q977.942 1459.58 977.942 1468.33 Q977.942 1477.06 974.863 1481.67 Q971.808 1486.25 965.998 1486.25 Q960.187 1486.25 957.109 1481.67 Q954.053 1477.06 954.053 1468.33 Q954.053 1459.58 957.109 1455 Q960.187 1450.39 965.998 1450.39 Z" fill="#000000" fill-rule="nonzero" fill-opacity="1" /><path clip-path="url(#clip800)" d="M996.159 1454.1 Q992.548 1454.1 990.72 1457.66 Q988.914 1461.2 988.914 1468.33 Q988.914 1475.44 990.72 1479.01 Q992.548 1482.55 996.159 1482.55 Q999.794 1482.55 1001.6 1479.01 Q1003.43 1475.44 1003.43 1468.33 Q1003.43 1461.2 1001.6 1457.66 Q999.794 1454.1 996.159 1454.1 M996.159 1450.39 Q1001.97 1450.39 1005.03 1455 Q1008.1 1459.58 1008.1 1468.33 Q1008.1 1477.06 1005.03 1481.67 Q1001.97 1486.25 996.159 1486.25 Q990.349 1486.25 987.271 1481.67 Q984.215 1477.06 984.215 1468.33 Q984.215 1459.58 987.271 1455 Q990.349 1450.39 996.159 1450.39 Z" fill="#000000" fill-rule="nonzero" fill-opacity="1" /><path clip-path="url(#clip800)" d="M1593.85 1481.64 L1610.17 1481.64 L1610.17 1485.58 L1588.22 1485.58 L1588.22 1481.64 Q1590.89 1478.89 1595.47 1474.26 Q1600.08 1469.61 1601.26 1468.27 Q1603.5 1465.74 1604.38 1464.01 Q1605.28 1462.25 1605.28 1460.56 Q1605.28 1457.8 1603.34 1456.07 Q1601.42 1454.33 1598.32 1454.33 Q1596.12 1454.33 1593.66 1455.09 Q1591.23 1455.86 1588.46 1457.41 L1588.46 1452.69 Q1591.28 1451.55 1593.73 1450.97 Q1596.19 1450.39 1598.22 1450.39 Q1603.59 1450.39 1606.79 1453.08 Q1609.98 1455.77 1609.98 1460.26 Q1609.98 1462.39 1609.17 1464.31 Q1608.39 1466.2 1606.28 1468.8 Q1605.7 1469.47 1602.6 1472.69 Q1599.5 1475.88 1593.85 1481.64 Z" fill="#000000" fill-rule="nonzero" fill-opacity="1" /><path clip-path="url(#clip800)" d="M1629.98 1454.1 Q1626.37 1454.1 1624.54 1457.66 Q1622.74 1461.2 1622.74 1468.33 Q1622.74 1475.44 1624.54 1479.01 Q1626.37 1482.55 1629.98 1482.55 Q1633.62 1482.55 1635.42 1479.01 Q1637.25 1475.44 1637.25 1468.33 Q1637.25 1461.2 1635.42 1457.66 Q1633.62 1454.1 1629.98 1454.1 M1629.98 1450.39 Q1635.79 1450.39 1638.85 1455 Q1641.93 1459.58 1641.93 1468.33 Q1641.93 1477.06 1638.85 1481.67 Q1635.79 1486.25 1629.98 1486.25 Q1624.17 1486.25 1621.09 1481.67 Q1618.04 1477.06 1618.04 1468.33 Q1618.04 1459.58 1621.09 1455 Q1624.17 1450.39 1629.98 1450.39 Z" fill="#000000" fill-rule="nonzero" fill-opacity="1" /><path clip-path="url(#clip800)" d="M1660.15 1454.1 Q1656.53 1454.1 1654.71 1457.66 Q1652.9 1461.2 1652.9 1468.33 Q1652.9 1475.44 1654.71 1479.01 Q1656.53 1482.55 1660.15 1482.55 Q1663.78 1482.55 1665.58 1479.01 Q1667.41 1475.44 1667.41 1468.33 Q1667.41 1461.2 1665.58 1457.66 Q1663.78 1454.1 1660.15 1454.1 M1660.15 1450.39 Q1665.96 1450.39 1669.01 1455 Q1672.09 1459.58 1672.09 1468.33 Q1672.09 1477.06 1669.01 1481.67 Q1665.96 1486.25 1660.15 1486.25 Q1654.33 1486.25 1651.26 1481.67 Q1648.2 1477.06 1648.2 1468.33 Q1648.2 1459.58 1651.26 1455 Q1654.33 1450.39 1660.15 1450.39 Z" fill="#000000" fill-rule="nonzero" fill-opacity="1" /><path clip-path="url(#clip800)" d="M2267.04 1466.95 Q2270.39 1467.66 2272.27 1469.93 Q2274.17 1472.2 2274.17 1475.53 Q2274.17 1480.65 2270.65 1483.45 Q2267.13 1486.25 2260.65 1486.25 Q2258.47 1486.25 2256.16 1485.81 Q2253.86 1485.39 2251.41 1484.54 L2251.41 1480.02 Q2253.36 1481.16 2255.67 1481.74 Q2257.99 1482.32 2260.51 1482.32 Q2264.91 1482.32 2267.2 1480.58 Q2269.51 1478.84 2269.51 1475.53 Q2269.51 1472.48 2267.36 1470.77 Q2265.23 1469.03 2261.41 1469.03 L2257.38 1469.03 L2257.38 1465.19 L2261.6 1465.19 Q2265.05 1465.19 2266.87 1463.82 Q2268.7 1462.43 2268.7 1459.84 Q2268.7 1457.18 2266.8 1455.77 Q2264.93 1454.33 2261.41 1454.33 Q2259.49 1454.33 2257.29 1454.75 Q2255.09 1455.16 2252.45 1456.04 L2252.45 1451.88 Q2255.11 1451.14 2257.43 1450.77 Q2259.77 1450.39 2261.83 1450.39 Q2267.15 1450.39 2270.25 1452.83 Q2273.36 1455.23 2273.36 1459.35 Q2273.36 1462.22 2271.71 1464.21 Q2270.07 1466.18 2267.04 1466.95 Z" fill="#000000" fill-rule="nonzero" fill-opacity="1" /><path clip-path="url(#clip800)" d="M2293.03 1454.1 Q2289.42 1454.1 2287.59 1457.66 Q2285.79 1461.2 2285.79 1468.33 Q2285.79 1475.44 2287.59 1479.01 Q2289.42 1482.55 2293.03 1482.55 Q2296.67 1482.55 2298.47 1479.01 Q2300.3 1475.44 2300.3 1468.33 Q2300.3 1461.2 2298.47 1457.66 Q2296.67 1454.1 2293.03 1454.1 M2293.03 1450.39 Q2298.84 1450.39 2301.9 1455 Q2304.98 1459.58 2304.98 1468.33 Q2304.98 1477.06 2301.9 1481.67 Q2298.84 1486.25 2293.03 1486.25 Q2287.22 1486.25 2284.14 1481.67 Q2281.09 1477.06 2281.09 1468.33 Q2281.09 1459.58 2284.14 1455 Q2287.22 1450.39 2293.03 1450.39 Z" fill="#000000" fill-rule="nonzero" fill-opacity="1" /><path clip-path="url(#clip800)" d="M2323.19 1454.1 Q2319.58 1454.1 2317.75 1457.66 Q2315.95 1461.2 2315.95 1468.33 Q2315.95 1475.44 2317.75 1479.01 Q2319.58 1482.55 2323.19 1482.55 Q2326.83 1482.55 2328.63 1479.01 Q2330.46 1475.44 2330.46 1468.33 Q2330.46 1461.2 2328.63 1457.66 Q2326.83 1454.1 2323.19 1454.1 M2323.19 1450.39 Q2329 1450.39 2332.06 1455 Q2335.14 1459.58 2335.14 1468.33 Q2335.14 1477.06 2332.06 1481.67 Q2329 1486.25 2323.19 1486.25 Q2317.38 1486.25 2314.3 1481.67 Q2311.25 1477.06 2311.25 1468.33 Q2311.25 1459.58 2314.3 1455 Q2317.38 1450.39 2323.19 1450.39 Z" fill="#000000" fill-rule="nonzero" fill-opacity="1" /><path clip-path="url(#clip800)" d="M1208.08 1520.52 L1238.13 1520.52 L1238.13 1525.93 L1214.51 1525.93 L1214.51 1540 L1237.14 1540 L1237.14 1545.41 L1214.51 1545.41 L1214.51 1562.63 L1238.7 1562.63 L1238.7 1568.04 L1208.08 1568.04 L1208.08 1520.52 Z" fill="#000000" fill-rule="nonzero" fill-opacity="1" /><path clip-path="url(#clip800)" d="M1254.68 1562.7 L1254.68 1581.6 L1248.79 1581.6 L1248.79 1532.4 L1254.68 1532.4 L1254.68 1537.81 Q1256.53 1534.62 1259.33 1533.1 Q1262.16 1531.54 1266.07 1531.54 Q1272.57 1531.54 1276.61 1536.69 Q1280.68 1541.85 1280.68 1550.25 Q1280.68 1558.65 1276.61 1563.81 Q1272.57 1568.97 1266.07 1568.97 Q1262.16 1568.97 1259.33 1567.44 Q1256.53 1565.88 1254.68 1562.7 M1274.6 1550.25 Q1274.6 1543.79 1271.93 1540.13 Q1269.29 1536.44 1264.64 1536.44 Q1260 1536.44 1257.32 1540.13 Q1254.68 1543.79 1254.68 1550.25 Q1254.68 1556.71 1257.32 1560.4 Q1260 1564.07 1264.64 1564.07 Q1269.29 1564.07 1271.93 1560.4 Q1274.6 1556.71 1274.6 1550.25 Z" fill="#000000" fill-rule="nonzero" fill-opacity="1" /><path clip-path="url(#clip800)" d="M1304.21 1536.5 Q1299.49 1536.5 1296.76 1540.19 Q1294.02 1543.85 1294.02 1550.25 Q1294.02 1556.65 1296.73 1560.34 Q1299.46 1564 1304.21 1564 Q1308.88 1564 1311.62 1560.31 Q1314.36 1556.62 1314.36 1550.25 Q1314.36 1543.92 1311.62 1540.23 Q1308.88 1536.5 1304.21 1536.5 M1304.21 1531.54 Q1311.84 1531.54 1316.2 1536.5 Q1320.57 1541.47 1320.57 1550.25 Q1320.57 1559 1316.2 1564 Q1311.84 1568.97 1304.21 1568.97 Q1296.53 1568.97 1292.17 1564 Q1287.85 1559 1287.85 1550.25 Q1287.85 1541.47 1292.17 1536.5 Q1296.53 1531.54 1304.21 1531.54 Z" fill="#000000" fill-rule="nonzero" fill-opacity="1" /><path clip-path="url(#clip800)" d="M1355.93 1533.76 L1355.93 1539.24 Q1353.44 1537.87 1350.93 1537.2 Q1348.45 1536.5 1345.9 1536.5 Q1340.2 1536.5 1337.05 1540.13 Q1333.9 1543.73 1333.9 1550.25 Q1333.9 1556.78 1337.05 1560.4 Q1340.2 1564 1345.9 1564 Q1348.45 1564 1350.93 1563.33 Q1353.44 1562.63 1355.93 1561.26 L1355.93 1566.68 Q1353.48 1567.82 1350.83 1568.39 Q1348.22 1568.97 1345.26 1568.97 Q1337.21 1568.97 1332.47 1563.91 Q1327.73 1558.85 1327.73 1550.25 Q1327.73 1541.53 1332.5 1536.53 Q1337.31 1531.54 1345.65 1531.54 Q1348.35 1531.54 1350.93 1532.11 Q1353.51 1532.65 1355.93 1533.76 Z" fill="#000000" fill-rule="nonzero" fill-opacity="1" /><path clip-path="url(#clip800)" d="M1395.74 1546.53 L1395.74 1568.04 L1389.89 1568.04 L1389.89 1546.72 Q1389.89 1541.66 1387.91 1539.14 Q1385.94 1536.63 1381.99 1536.63 Q1377.25 1536.63 1374.51 1539.65 Q1371.78 1542.68 1371.78 1547.9 L1371.78 1568.04 L1365.89 1568.04 L1365.89 1518.52 L1371.78 1518.52 L1371.78 1537.93 Q1373.88 1534.72 1376.71 1533.13 Q1379.58 1531.54 1383.3 1531.54 Q1389.44 1531.54 1392.59 1535.36 Q1395.74 1539.14 1395.74 1546.53 Z" fill="#000000" fill-rule="nonzero" fill-opacity="1" /><polyline clip-path="url(#clip802)" style="stroke:#000000; stroke-linecap:round; stroke-linejoin:round; stroke-width:2; stroke-opacity:0.1; fill:none" points="251.071,1063.67 2352.76,1063.67 "/>
<polyline clip-path="url(#clip802)" style="stroke:#000000; stroke-linecap:round; stroke-linejoin:round; stroke-width:2; stroke-opacity:0.1; fill:none" points="251.071,456.448 2352.76,456.448 "/>
<polyline clip-path="url(#clip800)" style="stroke:#000000; stroke-linecap:round; stroke-linejoin:round; stroke-width:4; stroke-opacity:1; fill:none" points="251.071,1423.18 251.071,47.2441 "/>
<polyline clip-path="url(#clip800)" style="stroke:#000000; stroke-linecap:round; stroke-linejoin:round; stroke-width:4; stroke-opacity:1; fill:none" points="251.071,1063.67 269.969,1063.67 "/>
<polyline clip-path="url(#clip800)" style="stroke:#000000; stroke-linecap:round; stroke-linejoin:round; stroke-width:4; stroke-opacity:1; fill:none" points="251.071,456.448 269.969,456.448 "/>
<path clip-path="url(#clip800)" d="M114.931 1083.46 L122.57 1083.46 L122.57 1057.09 L114.26 1058.76 L114.26 1054.5 L122.524 1052.83 L127.2 1052.83 L127.2 1083.46 L134.839 1083.46 L134.839 1087.39 L114.931 1087.39 L114.931 1083.46 Z" fill="#000000" fill-rule="nonzero" fill-opacity="1" /><path clip-path="url(#clip800)" d="M154.283 1055.91 Q150.672 1055.91 148.843 1059.48 Q147.038 1063.02 147.038 1070.15 Q147.038 1077.26 148.843 1080.82 Q150.672 1084.36 154.283 1084.36 Q157.917 1084.36 159.723 1080.82 Q161.552 1077.26 161.552 1070.15 Q161.552 1063.02 159.723 1059.48 Q157.917 1055.91 154.283 1055.91 M154.283 1052.21 Q160.093 1052.21 163.149 1056.82 Q166.227 1061.4 166.227 1070.15 Q166.227 1078.88 163.149 1083.48 Q160.093 1088.07 154.283 1088.07 Q148.473 1088.07 145.394 1083.48 Q142.339 1078.88 142.339 1070.15 Q142.339 1061.4 145.394 1056.82 Q148.473 1052.21 154.283 1052.21 Z" fill="#000000" fill-rule="nonzero" fill-opacity="1" /><path clip-path="url(#clip800)" d="M166.227 1046.31 L190.339 1046.31 L190.339 1049.51 L166.227 1049.51 L166.227 1046.31 Z" fill="#000000" fill-rule="nonzero" fill-opacity="1" /><path clip-path="url(#clip800)" d="M201.812 1056.79 L215.071 1056.79 L215.071 1059.98 L197.241 1059.98 L197.241 1056.79 Q199.404 1054.55 203.128 1050.79 Q206.871 1047.01 207.83 1045.92 Q209.655 1043.87 210.369 1042.45 Q211.103 1041.03 211.103 1039.65 Q211.103 1037.41 209.523 1036 Q207.962 1034.59 205.442 1034.59 Q203.655 1034.59 201.661 1035.21 Q199.686 1035.83 197.43 1037.09 L197.43 1033.26 Q199.724 1032.34 201.718 1031.87 Q203.711 1031.4 205.366 1031.4 Q209.73 1031.4 212.325 1033.58 Q214.921 1035.76 214.921 1039.41 Q214.921 1041.14 214.263 1042.7 Q213.623 1044.24 211.912 1046.35 Q211.441 1046.89 208.921 1049.51 Q206.401 1052.1 201.812 1056.79 Z" fill="#000000" fill-rule="nonzero" fill-opacity="1" /><path clip-path="url(#clip800)" d="M144.366 476.24 L152.004 476.24 L152.004 449.875 L143.694 451.541 L143.694 447.282 L151.958 445.616 L156.634 445.616 L156.634 476.24 L164.273 476.24 L164.273 480.176 L144.366 480.176 L144.366 476.24 Z" fill="#000000" fill-rule="nonzero" fill-opacity="1" /><path clip-path="url(#clip800)" d="M183.717 448.694 Q180.106 448.694 178.277 452.259 Q176.472 455.801 176.472 462.93 Q176.472 470.037 178.277 473.602 Q180.106 477.143 183.717 477.143 Q187.351 477.143 189.157 473.602 Q190.986 470.037 190.986 462.93 Q190.986 455.801 189.157 452.259 Q187.351 448.694 183.717 448.694 M183.717 444.991 Q189.527 444.991 192.583 449.597 Q195.662 454.18 195.662 462.93 Q195.662 471.657 192.583 476.264 Q189.527 480.847 183.717 480.847 Q177.907 480.847 174.828 476.264 Q171.773 471.657 171.773 462.93 Q171.773 454.18 174.828 449.597 Q177.907 444.991 183.717 444.991 Z" fill="#000000" fill-rule="nonzero" fill-opacity="1" /><path clip-path="url(#clip800)" d="M205.366 427.187 Q202.432 427.187 200.947 430.083 Q199.48 432.961 199.48 438.753 Q199.48 444.527 200.947 447.424 Q202.432 450.301 205.366 450.301 Q208.319 450.301 209.786 447.424 Q211.272 444.527 211.272 438.753 Q211.272 432.961 209.786 430.083 Q208.319 427.187 205.366 427.187 M205.366 424.177 Q210.087 424.177 212.57 427.92 Q215.071 431.644 215.071 438.753 Q215.071 445.844 212.57 449.587 Q210.087 453.311 205.366 453.311 Q200.646 453.311 198.144 449.587 Q195.662 445.844 195.662 438.753 Q195.662 431.644 198.144 427.92 Q200.646 424.177 205.366 424.177 Z" fill="#000000" fill-rule="nonzero" fill-opacity="1" /><path clip-path="url(#clip800)" d="M16.4842 953.174 L16.4842 912.974 L21.895 912.974 L21.895 929.843 L64.0042 929.843 L64.0042 936.305 L21.895 936.305 L21.895 953.174 L16.4842 953.174 Z" fill="#000000" fill-rule="nonzero" fill-opacity="1" /><path clip-path="url(#clip800)" d="M33.8307 895.946 Q33.2578 896.933 33.0032 898.11 Q32.7167 899.256 32.7167 900.657 Q32.7167 905.622 35.9632 908.296 Q39.1779 910.937 45.2253 910.937 L64.0042 910.937 L64.0042 916.826 L28.3562 916.826 L28.3562 910.937 L33.8944 910.937 Q30.6479 909.091 29.0883 906.131 Q27.4968 903.171 27.4968 898.938 Q27.4968 898.333 27.5923 897.601 Q27.656 896.869 27.8151 895.978 L33.8307 895.946 Z" fill="#000000" fill-rule="nonzero" fill-opacity="1" /><path clip-path="url(#clip800)" d="M46.0847 873.602 Q46.0847 880.7 47.7079 883.437 Q49.3312 886.175 53.2461 886.175 Q56.3653 886.175 58.2114 884.138 Q60.0256 882.069 60.0256 878.536 Q60.0256 873.666 56.5881 870.738 Q53.1188 867.778 47.3897 867.778 L46.0847 867.778 L46.0847 873.602 M43.6657 861.921 L64.0042 861.921 L64.0042 867.778 L58.5933 867.778 Q61.8398 869.783 63.3994 872.775 Q64.9272 875.767 64.9272 880.095 Q64.9272 885.57 61.8716 888.816 Q58.7843 892.031 53.6281 892.031 Q47.6125 892.031 44.5569 888.021 Q41.5014 883.979 41.5014 875.99 L41.5014 867.778 L40.9285 867.778 Q36.8862 867.778 34.6901 870.451 Q32.4621 873.093 32.4621 877.899 Q32.4621 880.955 33.1941 883.851 Q33.9262 886.748 35.3903 889.421 L29.9795 889.421 Q28.7381 886.207 28.1334 883.183 Q27.4968 880.159 27.4968 877.295 Q27.4968 869.56 31.5072 865.741 Q35.5176 861.921 43.6657 861.921 Z" fill="#000000" fill-rule="nonzero" fill-opacity="1" /><path clip-path="url(#clip800)" d="M28.3562 849.858 L28.3562 844.002 L64.0042 844.002 L64.0042 849.858 L28.3562 849.858 M14.479 849.858 L14.479 844.002 L21.895 844.002 L21.895 849.858 L14.479 849.858 Z" fill="#000000" fill-rule="nonzero" fill-opacity="1" /><path clip-path="url(#clip800)" d="M42.4881 802.116 L64.0042 802.116 L64.0042 807.972 L42.679 807.972 Q37.6183 807.972 35.1038 809.945 Q32.5894 811.919 32.5894 815.865 Q32.5894 820.608 35.6131 823.345 Q38.6368 826.082 43.8567 826.082 L64.0042 826.082 L64.0042 831.971 L28.3562 831.971 L28.3562 826.082 L33.8944 826.082 Q30.6797 823.982 29.0883 821.149 Q27.4968 818.284 27.4968 814.561 Q27.4968 808.418 31.3163 805.267 Q35.1038 802.116 42.4881 802.116 Z" fill="#000000" fill-rule="nonzero" fill-opacity="1" /><path clip-path="url(#clip800)" d="M28.3562 790.434 L28.3562 784.578 L64.0042 784.578 L64.0042 790.434 L28.3562 790.434 M14.479 790.434 L14.479 784.578 L21.895 784.578 L21.895 790.434 L14.479 790.434 Z" fill="#000000" fill-rule="nonzero" fill-opacity="1" /><path clip-path="url(#clip800)" d="M42.4881 742.692 L64.0042 742.692 L64.0042 748.548 L42.679 748.548 Q37.6183 748.548 35.1038 750.521 Q32.5894 752.495 32.5894 756.442 Q32.5894 761.184 35.6131 763.921 Q38.6368 766.659 43.8567 766.659 L64.0042 766.659 L64.0042 772.547 L28.3562 772.547 L28.3562 766.659 L33.8944 766.659 Q30.6797 764.558 29.0883 761.725 Q27.4968 758.861 27.4968 755.137 Q27.4968 748.994 31.3163 745.843 Q35.1038 742.692 42.4881 742.692 Z" fill="#000000" fill-rule="nonzero" fill-opacity="1" /><path clip-path="url(#clip800)" d="M45.7664 707.553 Q39.4007 707.553 35.8996 710.195 Q32.3984 712.805 32.3984 717.547 Q32.3984 722.258 35.8996 724.9 Q39.4007 727.509 45.7664 727.509 Q52.1003 727.509 55.6014 724.9 Q59.1026 722.258 59.1026 717.547 Q59.1026 712.805 55.6014 710.195 Q52.1003 707.553 45.7664 707.553 M59.58 701.697 Q68.683 701.697 73.1071 705.739 Q77.5631 709.781 77.5631 718.12 Q77.5631 721.207 77.0857 723.945 Q76.6401 726.682 75.6852 729.26 L69.9879 729.26 Q71.3884 726.682 72.0568 724.167 Q72.7252 721.653 72.7252 719.043 Q72.7252 713.282 69.7015 710.418 Q66.7096 707.553 60.6303 707.553 L57.7339 707.553 Q60.885 709.367 62.4446 712.2 Q64.0042 715.033 64.0042 718.979 Q64.0042 725.536 59.0071 729.546 Q54.01 733.557 45.7664 733.557 Q37.491 733.557 32.4939 729.546 Q27.4968 725.536 27.4968 718.979 Q27.4968 715.033 29.0564 712.2 Q30.616 709.367 33.7671 707.553 L28.3562 707.553 L28.3562 701.697 L59.58 701.697 Z" fill="#000000" fill-rule="nonzero" fill-opacity="1" /><path clip-path="url(#clip800)" d="M44.7161 638.421 L47.5806 638.421 L47.5806 665.348 Q53.6281 664.966 56.8109 661.72 Q59.9619 658.442 59.9619 652.617 Q59.9619 649.243 59.1344 646.092 Q58.3069 642.909 56.6518 639.79 L62.1899 639.79 Q63.5267 642.941 64.227 646.251 Q64.9272 649.561 64.9272 652.967 Q64.9272 661.497 59.9619 666.494 Q54.9967 671.459 46.5303 671.459 Q37.7774 671.459 32.6531 666.749 Q27.4968 662.006 27.4968 653.986 Q27.4968 646.792 32.1438 642.623 Q36.7589 638.421 44.7161 638.421 M42.9973 644.278 Q38.1912 644.342 35.3266 646.983 Q32.4621 649.593 32.4621 653.922 Q32.4621 658.823 35.2312 661.784 Q38.0002 664.712 43.0292 665.157 L42.9973 644.278 Z" fill="#000000" fill-rule="nonzero" fill-opacity="1" /><path clip-path="url(#clip800)" d="M33.8307 608.152 Q33.2578 609.139 33.0032 610.317 Q32.7167 611.463 32.7167 612.863 Q32.7167 617.828 35.9632 620.502 Q39.1779 623.144 45.2253 623.144 L64.0042 623.144 L64.0042 629.032 L28.3562 629.032 L28.3562 623.144 L33.8944 623.144 Q30.6479 621.298 29.0883 618.338 Q27.4968 615.378 27.4968 611.144 Q27.4968 610.54 27.5923 609.808 Q27.656 609.075 27.8151 608.184 L33.8307 608.152 Z" fill="#000000" fill-rule="nonzero" fill-opacity="1" /><path clip-path="url(#clip800)" d="M33.8307 582.499 Q33.2578 583.485 33.0032 584.663 Q32.7167 585.809 32.7167 587.209 Q32.7167 592.175 35.9632 594.848 Q39.1779 597.49 45.2253 597.49 L64.0042 597.49 L64.0042 603.378 L28.3562 603.378 L28.3562 597.49 L33.8944 597.49 Q30.6479 595.644 29.0883 592.684 Q27.4968 589.724 27.4968 585.491 Q27.4968 584.886 27.5923 584.154 Q27.656 583.422 27.8151 582.53 L33.8307 582.499 Z" fill="#000000" fill-rule="nonzero" fill-opacity="1" /><path clip-path="url(#clip800)" d="M32.4621 563.974 Q32.4621 568.685 36.1542 571.422 Q39.8145 574.16 46.212 574.16 Q52.6095 574.16 56.3017 571.454 Q59.9619 568.717 59.9619 563.974 Q59.9619 559.296 56.2698 556.558 Q52.5777 553.821 46.212 553.821 Q39.8781 553.821 36.186 556.558 Q32.4621 559.296 32.4621 563.974 M27.4968 563.974 Q27.4968 556.336 32.4621 551.975 Q37.4273 547.615 46.212 547.615 Q54.9649 547.615 59.9619 551.975 Q64.9272 556.336 64.9272 563.974 Q64.9272 571.645 59.9619 576.006 Q54.9649 580.334 46.212 580.334 Q37.4273 580.334 32.4621 576.006 Q27.4968 571.645 27.4968 563.974 Z" fill="#000000" fill-rule="nonzero" fill-opacity="1" /><path clip-path="url(#clip800)" d="M33.8307 517.25 Q33.2578 518.237 33.0032 519.415 Q32.7167 520.56 32.7167 521.961 Q32.7167 526.926 35.9632 529.6 Q39.1779 532.241 45.2253 532.241 L64.0042 532.241 L64.0042 538.13 L28.3562 538.13 L28.3562 532.241 L33.8944 532.241 Q30.6479 530.395 29.0883 527.435 Q27.4968 524.475 27.4968 520.242 Q27.4968 519.637 27.5923 518.905 Q27.656 518.173 27.8151 517.282 L33.8307 517.25 Z" fill="#000000" fill-rule="nonzero" fill-opacity="1" /><polyline clip-path="url(#clip802)" style="stroke:#3da44d; stroke-linecap:round; stroke-linejoin:round; stroke-width:4; stroke-opacity:1; fill:none" points="310.553,417.107 317.184,423.468 323.815,430.047 330.446,437.082 337.078,444.162 343.709,451.892 350.34,459.707 356.971,467.454 363.602,475.535 370.233,484.303 376.865,494.552 383.496,503.074 390.127,512.38 396.758,523.14 403.389,531.856 410.021,540.335 416.652,548.748 423.283,557.734 429.914,567.228 436.545,576.416 443.176,585.776 449.808,593.92 456.439,604.368 463.07,613.79 469.701,624.743 476.332,635.182 482.963,646.382 489.595,658.326 496.226,672.533 502.857,686.232 509.488,702.662 516.119,719.764 522.75,740.109 529.382,761.546 536.013,788.55 542.644,821.516 549.275,866.113 555.906,933.708 562.538,1062.74 569.169,1092.78 575.8,1129.84 582.431,1143.03 589.062,1161.74 595.693,1161.42 602.325,1163.23 608.956,1163.98 615.587,1165.28 622.218,1167.47 628.849,1168.69 635.48,1168.47 642.112,1168.92 648.743,1167.91 655.374,1170.04 662.005,1170.49 668.636,1170.04 675.268,1170.72 681.899,1172.43 688.53,1172.2 695.161,1169.92 701.792,1170.26 708.423,1173.35 715.055,1174.16 721.686,1173.12 728.317,1172.54 734.948,1172.43 741.579,1173.58 748.21,1175.68 754.842,1175.56 761.473,1177.1 768.104,1176.27 774.735,1177.93 781.366,1178.53 787.998,1178.77 794.629,1179.62 801.26,1181.94 807.891,1183.43 814.522,1183.06 821.153,1179.62 827.785,1180.23 834.416,1179.13 841.047,1182.44 847.678,1187.1 854.309,1190.48 860.94,1194.42 867.572,1196.12 874.203,1198.97 880.834,1199.74 887.465,1201.45 894.096,1203.97 900.727,1206.48 907.359,1207.74 913.99,1207.89 920.621,1211.55 927.252,1213.49 933.883,1214.99 940.515,1217.55 947.146,1212.56 953.777,1210.32 960.408,1219.75 967.039,1224.6 973.67,1226.93 980.302,1225.2 986.933,1228.23 993.564,1232.15 1000.2,1233.87 1006.83,1235.34 1013.46,1236.83 1020.09,1240.63 1026.72,1242.17 1033.35,1243.05 1039.98,1245.83 1046.61,1246.73 1053.24,1250.31 1059.88,1241.4 1066.51,1231.97 1073.14,1251.66 1079.77,1254.41 1086.4,1259.31 1093.03,1260.98 1099.66,1264.74 1106.29,1265.9 1112.93,1265.21 1119.56,1271.62 1126.19,1271.99 1132.82,1274.45 1139.45,1276.96 1146.08,1276.71 1152.71,1277.6 1159.34,1274.7 1165.97,1266.84 1172.61,1266.96 1179.24,1274.2 1185.87,1284.53 1192.5,1287.65 1199.13,1287.17 1205.76,1288.76 1212.39,1293.42 1219.02,1294.14 1225.66,1293.42 1232.29,1298.17 1238.92,1299.67 1245.55,1299.07 1252.18,1294.64 1258.81,1300.8 1265.44,1305.2 1272.07,1307.82 1278.7,1309.43 1285.34,1310.25 1291.97,1314.14 1298.6,1314.39 1305.23,1316.68 1311.86,1311.31 1318.49,1317.72 1325.12,1321.3 1331.75,1316.77 1338.39,1327.67 1345.02,1329.45 1351.65,1326.55 1358.28,1323.54 1364.91,1329.16 1371.54,1329.92 1378.17,1321.75 1384.8,1311.06 1391.43,1322.1 1398.07,1330.97 1404.7,1329.54 1411.33,1322.1 1417.96,1325.82 1424.59,1329.54 1431.22,1339.34 1437.85,1342.53 1444.48,1339.55 1451.12,1339.14 1457.75,1344 1464.38,1325.82 1471.01,1317.28 1477.64,1318.06 1484.27,1319.72 1490.9,1317.28 1497.53,1301.87 1504.16,1334.65 1510.8,1347.09 1517.43,1350.04 1524.06,1355.22 1530.69,1353.51 1537.32,1350.82 1543.95,1336.52 1550.58,1344.74 1557.21,1336.42 1563.84,1332.79 1570.48,1328.79 1577.11,1327.11 1583.74,1339.85 1590.37,1332.31 1597,1349.38 1603.63,1330.78 1610.26,1347.74 1616.89,1339.95 1623.53,1345.17 1630.16,1334.94 1636.79,1362.41 1643.42,1365.1 1650.05,1363.5 1656.68,1363.87 1663.31,1365.23 1669.94,1365.6 1676.57,1365.85 1683.21,1367.73 1689.84,1366.85 1696.47,1366.85 1703.1,1352.04 1709.73,1339.04 1716.36,1360.96 1722.99,1371.76 1729.62,1364.98 1736.26,1362.65 1742.89,1351.04 1749.52,1325.63 1756.15,1360.72 1762.78,1366.1 1769.41,1370.02 1776.04,1370.4 1782.67,1372.22 1789.3,1372.22 1795.94,1370.73 1802.57,1368.11 1809.2,1367.35 1815.83,1366.47 1822.46,1364.73 1829.09,1365.72 1835.72,1368.36 1842.35,1360.96 1848.99,1343.58 1855.62,1343.27 1862.25,1341.7 1868.88,1334.55 1875.51,1343.9 1882.14,1346.56 1888.77,1307.74 1895.4,1337.12 1902.03,1346.45 1908.67,1356.6 1915.3,1345.7 1921.93,1356.72 1928.56,1367.47 1935.19,1367.73 1941.82,1372.74 1948.45,1375.32 1955.08,1375.99 1961.72,1376.73 1968.35,1376.13 1974.98,1377.55 1981.61,1378.57 1988.24,1379.88 1994.87,1376.13 2001.5,1372.35 2008.13,1368.61 2014.76,1370.15 2021.4,1372.81 2028.03,1374.92 2034.66,1376.13 2041.29,1379.19 2047.92,1367.98 2054.55,1371.76 2061.18,1374.86 2067.81,1376.73 2074.45,1378.64 2081.08,1377.34 2087.71,1376.46 2094.34,1341.39 2100.97,1354.64 2107.6,1378.16 2114.23,1377.55 2120.86,1374.92 2127.49,1381.27 2134.13,1379.88 2140.76,1377.68 2147.39,1353.85 2154.02,1349.93 2160.65,1346.99 2167.28,1355.68 2173.91,1374.32 2180.54,1379.67 2187.18,1378.78 2193.81,1379.67 2200.44,1380.36 2207.07,1383.53 2213.7,1378.91 2220.33,1374.12 2226.96,1357.65 2233.59,1372.22 2240.22,1371.7 2246.86,1371.76 2253.49,1380.99 2260.12,1383.88 2266.75,1384.24 2273.38,1383.38 2280.01,1377.68 2286.64,1377.07 2293.27,1374.86 "/>
<polyline clip-path="url(#clip802)" style="stroke:#e26f46; stroke-linecap:round; stroke-linejoin:round; stroke-width:4; stroke-opacity:1; fill:none" points="310.553,86.1857 317.184,99.3757 323.815,111.074 330.446,118.88 337.078,127.858 343.709,136.487 350.34,144.651 356.971,155.229 363.602,162.452 370.233,172.223 376.865,179.964 383.496,190.497 390.127,198.915 396.758,210.355 403.389,218.404 410.021,228.704 416.652,239.182 423.283,247.996 429.914,256.874 436.545,264.697 443.176,268.728 449.808,272.503 456.439,277.71 463.07,282.511 469.701,287.135 476.332,291.78 482.963,296.671 489.595,302.55 496.226,307.117 502.857,312.624 509.488,317.47 516.119,323.908 522.75,328.609 529.382,333.788 536.013,339.179 542.644,344.03 549.275,350.096 555.906,355.373 562.538,360.372 569.169,366.216 575.8,371.045 582.431,374.804 589.062,379.965 595.693,384.512 602.325,388.374 608.956,393.865 615.587,398.595 622.218,403.243 628.849,408.239 635.48,411.953 642.112,415.965 648.743,419.128 655.374,423.468 662.005,427.852 668.636,430.575 675.268,435.096 681.899,438.423 688.53,442.183 695.161,444.868 701.792,449.305 708.423,452.891 715.055,456.706 721.686,460.302 728.317,464.204 734.948,468.578 741.579,471.866 748.21,473.614 754.842,474.793 761.473,478.013 768.104,481.004 774.735,482.958 781.366,486.064 787.998,487.604 794.629,490.157 801.26,494.209 807.891,495.675 814.522,497.508 821.153,500.261 827.785,503.257 834.416,506.041 841.047,507.835 847.678,508.981 854.309,511.987 860.94,513.368 867.572,514.263 874.203,516.072 880.834,517.907 887.465,519.351 894.096,520.393 900.727,521.337 907.359,523.033 913.99,523.889 920.621,525.293 927.252,525.836 933.883,527.481 940.515,528.812 947.146,530.044 953.777,532.428 960.408,534.157 967.039,535.91 973.67,538.284 980.302,540.701 986.933,542.667 993.564,545.926 1000.2,548.618 1006.83,550.971 1013.46,552.362 1020.09,555.6 1026.72,557.803 1033.35,560.469 1039.98,562.828 1046.61,566.114 1053.24,569.941 1059.88,573.803 1066.51,577.298 1073.14,581.386 1079.77,586.206 1086.4,591.209 1093.03,596.782 1099.66,602.796 1106.29,607.772 1112.93,614.322 1119.56,621.439 1126.19,628.013 1132.82,636.31 1139.45,645.097 1146.08,654.151 1152.71,665.277 1159.34,677.343 1165.97,691.389 1172.61,708.845 1179.24,730.635 1185.87,759.127 1192.5,792.196 1199.13,826.216 1205.76,838.173 1212.39,838.319 1219.02,838.976 1225.66,840.597 1232.29,841.639 1238.92,841.639 1245.55,842.163 1252.18,841.713 1258.81,842.313 1265.44,842.463 1272.07,842.613 1278.7,842.764 1285.34,842.463 1291.97,844.127 1298.6,843.52 1305.23,844.738 1311.86,845.274 1318.49,845.505 1325.12,845.582 1331.75,845.736 1338.39,846.199 1345.02,846.897 1351.65,846.819 1358.28,847.286 1364.91,846.276 1371.54,847.833 1378.17,847.833 1384.8,847.677 1391.43,849.092 1398.07,850.203 1404.7,850.363 1411.33,851.083 1417.96,851.727 1424.59,851.727 1431.22,852.698 1437.85,852.942 1444.48,853.35 1451.12,854.169 1457.75,854.58 1464.38,854.498 1471.01,855.241 1477.64,855.573 1484.27,856.489 1490.9,856.656 1497.53,857.328 1504.16,858.257 1510.8,858.851 1517.43,858.681 1524.06,859.022 1530.69,860.306 1537.32,859.62 1543.95,861.517 1550.58,862.914 1557.21,863.266 1563.84,864.593 1570.48,865.038 1577.11,864.949 1583.74,866.113 1590.37,866.383 1597,867.378 1603.63,868.472 1610.26,869.576 1616.89,869.299 1623.53,870.131 1630.16,871.999 1636.79,871.529 1643.42,872.753 1650.05,873.037 1656.68,873.132 1663.31,874.467 1669.94,875.815 1676.57,876.397 1683.21,876.885 1689.84,877.08 1696.47,878.357 1703.1,880.345 1709.73,880.345 1716.36,881.149 1722.99,881.958 1729.62,882.568 1736.26,883.591 1742.89,884.312 1749.52,884.933 1756.15,885.661 1762.78,887.13 1769.41,887.553 1776.04,888.615 1782.67,889.579 1789.3,889.901 1795.94,891.418 1802.57,893.173 1809.2,893.063 1815.83,894.617 1822.46,895.851 1829.09,895.964 1835.72,896.756 1842.35,897.552 1848.99,899.276 1855.62,900.438 1862.25,901.492 1868.88,901.727 1875.51,903.268 1882.14,903.746 1888.77,903.985 1895.4,906.039 1902.03,906.527 1908.67,907.508 1915.3,908.002 1921.93,910.497 1928.56,911.381 1935.19,912.144 1941.82,912.911 1948.45,912.911 1955.08,913.748 1961.72,914.59 1968.35,918.679 1974.98,918.948 1981.61,919.486 1988.24,920.365 1994.87,921.114 2001.5,921.182 2008.13,922.9 2014.76,923.663 2021.4,925.626 2028.03,926.904 2034.66,926.263 2041.29,927.189 2047.92,930.226 2054.55,930.592 2061.18,931.844 2067.81,932.364 2074.45,934.084 2081.08,935.98 2087.71,934.537 2094.34,934.31 2100.97,938.059 2107.6,940.646 2114.23,941.36 2120.86,941.121 2127.49,941.918 2134.13,943.688 2140.76,945.318 2147.39,944.5 2154.02,946.306 2160.65,948.136 2167.28,947.134 2173.91,947.885 2180.54,946.968 2187.18,949.907 2193.81,954.485 2200.44,954.749 2207.07,954.573 2213.7,955.19 2220.33,957.149 2226.96,959.228 2233.59,960.235 2240.22,961.434 2246.86,960.787 2253.49,961.712 2260.12,962.177 2266.75,964.717 2273.38,964.622 2280.01,966.246 2286.64,967.502 2293.27,968.475 "/>
<path clip-path="url(#clip800)" d="M1784.69 248.629 L2282.7 248.629 L2282.7 93.1086 L1784.69 93.1086  Z" fill="#ffffff" fill-rule="evenodd" fill-opacity="1"/>
<polyline clip-path="url(#clip800)" style="stroke:#000000; stroke-linecap:round; stroke-linejoin:round; stroke-width:4; stroke-opacity:1; fill:none" points="1784.69,248.629 2282.7,248.629 2282.7,93.1086 1784.69,93.1086 1784.69,248.629 "/>
<polyline clip-path="url(#clip800)" style="stroke:#3da44d; stroke-linecap:round; stroke-linejoin:round; stroke-width:4; stroke-opacity:1; fill:none" points="1808.04,144.949 1948.15,144.949 "/>
<path clip-path="url(#clip800)" d="M1997.06 157.298 L1997.06 148.016 L1989.42 148.016 L1989.42 144.173 L2001.69 144.173 L2001.69 159.011 Q1998.98 160.932 1995.71 161.928 Q1992.45 162.9 1988.75 162.9 Q1980.65 162.9 1976.06 158.178 Q1971.5 153.432 1971.5 144.983 Q1971.5 136.511 1976.06 131.789 Q1980.65 127.044 1988.75 127.044 Q1992.13 127.044 1995.16 127.877 Q1998.21 128.71 2000.78 130.331 L2000.78 135.307 Q1998.19 133.108 1995.28 131.997 Q1992.36 130.886 1989.14 130.886 Q1982.8 130.886 1979.6 134.428 Q1976.43 137.969 1976.43 144.983 Q1976.43 151.974 1979.6 155.516 Q1982.8 159.057 1989.14 159.057 Q1991.62 159.057 1993.56 158.641 Q1995.51 158.201 1997.06 157.298 Z" fill="#000000" fill-rule="nonzero" fill-opacity="1" /><path clip-path="url(#clip800)" d="M2007.89 147.344 L2020.37 147.344 L2020.37 151.141 L2007.89 151.141 L2007.89 147.344 Z" fill="#000000" fill-rule="nonzero" fill-opacity="1" /><path clip-path="url(#clip800)" d="M2048.05 128.803 L2048.05 133.363 Q2045.39 132.09 2043.03 131.465 Q2040.67 130.84 2038.47 130.84 Q2034.65 130.84 2032.57 132.321 Q2030.51 133.803 2030.51 136.534 Q2030.51 138.826 2031.87 140.007 Q2033.26 141.164 2037.1 141.882 L2039.93 142.46 Q2045.16 143.456 2047.64 145.979 Q2050.14 148.479 2050.14 152.692 Q2050.14 157.715 2046.76 160.307 Q2043.4 162.9 2036.9 162.9 Q2034.44 162.9 2031.66 162.344 Q2028.91 161.789 2025.95 160.701 L2025.95 155.886 Q2028.79 157.483 2031.52 158.293 Q2034.26 159.104 2036.9 159.104 Q2040.9 159.104 2043.08 157.53 Q2045.25 155.956 2045.25 153.039 Q2045.25 150.493 2043.68 149.057 Q2042.13 147.622 2038.56 146.905 L2035.71 146.349 Q2030.48 145.307 2028.15 143.085 Q2025.81 140.863 2025.81 136.905 Q2025.81 132.321 2029.02 129.682 Q2032.27 127.044 2037.94 127.044 Q2040.37 127.044 2042.89 127.483 Q2045.41 127.923 2048.05 128.803 Z" fill="#000000" fill-rule="nonzero" fill-opacity="1" /><path clip-path="url(#clip800)" d="M2068.03 164.636 Q2066.22 169.266 2064.51 170.678 Q2062.8 172.09 2059.93 172.09 L2056.52 172.09 L2056.52 168.525 L2059.02 168.525 Q2060.78 168.525 2061.76 167.692 Q2062.73 166.858 2063.91 163.756 L2064.67 161.812 L2054.19 136.303 L2058.7 136.303 L2066.8 156.581 L2074.9 136.303 L2079.42 136.303 L2068.03 164.636 Z" fill="#000000" fill-rule="nonzero" fill-opacity="1" /><path clip-path="url(#clip800)" d="M2105.48 141.28 Q2107.08 138.409 2109.3 137.044 Q2111.52 135.678 2114.53 135.678 Q2118.58 135.678 2120.78 138.525 Q2122.98 141.349 2122.98 146.581 L2122.98 162.229 L2118.7 162.229 L2118.7 146.719 Q2118.7 142.993 2117.38 141.187 Q2116.06 139.382 2113.35 139.382 Q2110.04 139.382 2108.12 141.581 Q2106.2 143.78 2106.2 147.576 L2106.2 162.229 L2101.92 162.229 L2101.92 146.719 Q2101.92 142.969 2100.6 141.187 Q2099.28 139.382 2096.52 139.382 Q2093.26 139.382 2091.34 141.604 Q2089.42 143.803 2089.42 147.576 L2089.42 162.229 L2085.14 162.229 L2085.14 136.303 L2089.42 136.303 L2089.42 140.331 Q2090.88 137.946 2092.91 136.812 Q2094.95 135.678 2097.75 135.678 Q2100.58 135.678 2102.54 137.113 Q2104.53 138.548 2105.48 141.28 Z" fill="#000000" fill-rule="nonzero" fill-opacity="1" /><path clip-path="url(#clip800)" d="M2135.6 158.34 L2135.6 172.09 L2131.32 172.09 L2131.32 136.303 L2135.6 136.303 L2135.6 140.238 Q2136.94 137.923 2138.98 136.812 Q2141.04 135.678 2143.89 135.678 Q2148.61 135.678 2151.55 139.428 Q2154.51 143.178 2154.51 149.289 Q2154.51 155.4 2151.55 159.15 Q2148.61 162.9 2143.89 162.9 Q2141.04 162.9 2138.98 161.789 Q2136.94 160.655 2135.6 158.34 M2150.09 149.289 Q2150.09 144.59 2148.14 141.928 Q2146.22 139.243 2142.84 139.243 Q2139.46 139.243 2137.52 141.928 Q2135.6 144.59 2135.6 149.289 Q2135.6 153.988 2137.52 156.673 Q2139.46 159.335 2142.84 159.335 Q2146.22 159.335 2148.14 156.673 Q2150.09 153.988 2150.09 149.289 Z" fill="#000000" fill-rule="nonzero" fill-opacity="1" /><path clip-path="url(#clip800)" d="M2161.76 127.669 L2168.05 127.669 L2183.38 156.581 L2183.38 127.669 L2187.91 127.669 L2187.91 162.229 L2181.62 162.229 L2166.29 133.317 L2166.29 162.229 L2161.76 162.229 L2161.76 127.669 Z" fill="#000000" fill-rule="nonzero" fill-opacity="1" /><path clip-path="url(#clip800)" d="M2219.21 148.201 L2219.21 150.284 L2199.63 150.284 Q2199.9 154.682 2202.26 156.997 Q2204.65 159.289 2208.89 159.289 Q2211.34 159.289 2213.63 158.687 Q2215.95 158.085 2218.21 156.881 L2218.21 160.909 Q2215.92 161.881 2213.51 162.391 Q2211.11 162.9 2208.63 162.9 Q2202.43 162.9 2198.79 159.289 Q2195.18 155.678 2195.18 149.52 Q2195.18 143.155 2198.61 139.428 Q2202.06 135.678 2207.89 135.678 Q2213.12 135.678 2216.15 139.057 Q2219.21 142.414 2219.21 148.201 M2214.95 146.951 Q2214.9 143.456 2212.98 141.372 Q2211.08 139.289 2207.94 139.289 Q2204.37 139.289 2202.22 141.303 Q2200.09 143.317 2199.76 146.974 L2214.95 146.951 Z" fill="#000000" fill-rule="nonzero" fill-opacity="1" /><path clip-path="url(#clip800)" d="M2230.41 128.942 L2230.41 136.303 L2239.19 136.303 L2239.19 139.613 L2230.41 139.613 L2230.41 153.687 Q2230.41 156.858 2231.27 157.761 Q2232.15 158.664 2234.81 158.664 L2239.19 158.664 L2239.19 162.229 L2234.81 162.229 Q2229.88 162.229 2228.01 160.4 Q2226.13 158.548 2226.13 153.687 L2226.13 139.613 L2223.01 139.613 L2223.01 136.303 L2226.13 136.303 L2226.13 128.942 L2230.41 128.942 Z" fill="#000000" fill-rule="nonzero" fill-opacity="1" /><polyline clip-path="url(#clip800)" style="stroke:#e26f46; stroke-linecap:round; stroke-linejoin:round; stroke-width:4; stroke-opacity:1; fill:none" points="1808.04,196.789 1948.15,196.789 "/>
<path clip-path="url(#clip800)" d="M1971.5 179.509 L1976.18 179.509 L1976.18 210.133 L1993.01 210.133 L1993.01 214.069 L1971.5 214.069 L1971.5 179.509 Z" fill="#000000" fill-rule="nonzero" fill-opacity="1" /><path clip-path="url(#clip800)" d="M2010.55 184.115 L2004.21 201.314 L2016.92 201.314 L2010.55 184.115 M2007.91 179.509 L2013.21 179.509 L2026.39 214.069 L2021.52 214.069 L2018.38 205.203 L2002.8 205.203 L1999.65 214.069 L1994.72 214.069 L2007.91 179.509 Z" fill="#000000" fill-rule="nonzero" fill-opacity="1" /><path clip-path="url(#clip800)" d="M2028.05 199.184 L2040.53 199.184 L2040.53 202.981 L2028.05 202.981 L2028.05 199.184 Z" fill="#000000" fill-rule="nonzero" fill-opacity="1" /><path clip-path="url(#clip800)" d="M2068.21 180.643 L2068.21 185.203 Q2065.55 183.93 2063.19 183.305 Q2060.83 182.68 2058.63 182.68 Q2054.81 182.68 2052.73 184.161 Q2050.67 185.643 2050.67 188.374 Q2050.67 190.666 2052.03 191.847 Q2053.42 193.004 2057.27 193.722 L2060.09 194.3 Q2065.32 195.296 2067.8 197.819 Q2070.3 200.319 2070.3 204.532 Q2070.3 209.555 2066.92 212.147 Q2063.56 214.74 2057.06 214.74 Q2054.6 214.74 2051.83 214.184 Q2049.07 213.629 2046.11 212.541 L2046.11 207.726 Q2048.96 209.323 2051.69 210.133 Q2054.42 210.944 2057.06 210.944 Q2061.06 210.944 2063.24 209.37 Q2065.41 207.796 2065.41 204.879 Q2065.41 202.333 2063.84 200.897 Q2062.29 199.462 2058.72 198.745 L2055.88 198.189 Q2050.65 197.147 2048.31 194.925 Q2045.97 192.703 2045.97 188.745 Q2045.97 184.161 2049.19 181.522 Q2052.43 178.884 2058.1 178.884 Q2060.53 178.884 2063.05 179.323 Q2065.58 179.763 2068.21 180.643 Z" fill="#000000" fill-rule="nonzero" fill-opacity="1" /><path clip-path="url(#clip800)" d="M2088.19 216.476 Q2086.39 221.106 2084.67 222.518 Q2082.96 223.93 2080.09 223.93 L2076.69 223.93 L2076.69 220.365 L2079.19 220.365 Q2080.95 220.365 2081.92 219.532 Q2082.89 218.698 2084.07 215.596 L2084.83 213.652 L2074.35 188.143 L2078.86 188.143 L2086.96 208.421 L2095.07 188.143 L2099.58 188.143 L2088.19 216.476 Z" fill="#000000" fill-rule="nonzero" fill-opacity="1" /><path clip-path="url(#clip800)" d="M2125.64 193.12 Q2127.24 190.249 2129.46 188.884 Q2131.69 187.518 2134.7 187.518 Q2138.75 187.518 2140.95 190.365 Q2143.14 193.189 2143.14 198.421 L2143.14 214.069 L2138.86 214.069 L2138.86 198.559 Q2138.86 194.833 2137.54 193.027 Q2136.22 191.222 2133.52 191.222 Q2130.2 191.222 2128.28 193.421 Q2126.36 195.62 2126.36 199.416 L2126.36 214.069 L2122.08 214.069 L2122.08 198.559 Q2122.08 194.809 2120.76 193.027 Q2119.44 191.222 2116.69 191.222 Q2113.42 191.222 2111.5 193.444 Q2109.58 195.643 2109.58 199.416 L2109.58 214.069 L2105.3 214.069 L2105.3 188.143 L2109.58 188.143 L2109.58 192.171 Q2111.04 189.786 2113.08 188.652 Q2115.11 187.518 2117.91 187.518 Q2120.74 187.518 2122.7 188.953 Q2124.7 190.388 2125.64 193.12 Z" fill="#000000" fill-rule="nonzero" fill-opacity="1" /><path clip-path="url(#clip800)" d="M2155.76 210.18 L2155.76 223.93 L2151.48 223.93 L2151.48 188.143 L2155.76 188.143 L2155.76 192.078 Q2157.1 189.763 2159.14 188.652 Q2161.2 187.518 2164.05 187.518 Q2168.77 187.518 2171.71 191.268 Q2174.67 195.018 2174.67 201.129 Q2174.67 207.24 2171.71 210.99 Q2168.77 214.74 2164.05 214.74 Q2161.2 214.74 2159.14 213.629 Q2157.1 212.495 2155.76 210.18 M2170.25 201.129 Q2170.25 196.43 2168.31 193.768 Q2166.39 191.083 2163.01 191.083 Q2159.63 191.083 2157.68 193.768 Q2155.76 196.43 2155.76 201.129 Q2155.76 205.828 2157.68 208.513 Q2159.63 211.175 2163.01 211.175 Q2166.39 211.175 2168.31 208.513 Q2170.25 205.828 2170.25 201.129 Z" fill="#000000" fill-rule="nonzero" fill-opacity="1" /><path clip-path="url(#clip800)" d="M2181.92 179.509 L2188.21 179.509 L2203.54 208.421 L2203.54 179.509 L2208.07 179.509 L2208.07 214.069 L2201.78 214.069 L2186.45 185.157 L2186.45 214.069 L2181.92 214.069 L2181.92 179.509 Z" fill="#000000" fill-rule="nonzero" fill-opacity="1" /><path clip-path="url(#clip800)" d="M2239.37 200.041 L2239.37 202.124 L2219.79 202.124 Q2220.07 206.522 2222.43 208.837 Q2224.81 211.129 2229.05 211.129 Q2231.5 211.129 2233.79 210.527 Q2236.11 209.925 2238.38 208.721 L2238.38 212.749 Q2236.08 213.721 2233.68 214.231 Q2231.27 214.74 2228.79 214.74 Q2222.59 214.74 2218.95 211.129 Q2215.34 207.518 2215.34 201.36 Q2215.34 194.995 2218.77 191.268 Q2222.22 187.518 2228.05 187.518 Q2233.28 187.518 2236.32 190.897 Q2239.37 194.254 2239.37 200.041 M2235.11 198.791 Q2235.07 195.296 2233.14 193.212 Q2231.25 191.129 2228.1 191.129 Q2224.53 191.129 2222.38 193.143 Q2220.25 195.157 2219.93 198.814 L2235.11 198.791 Z" fill="#000000" fill-rule="nonzero" fill-opacity="1" /><path clip-path="url(#clip800)" d="M2250.57 180.782 L2250.57 188.143 L2259.35 188.143 L2259.35 191.453 L2250.57 191.453 L2250.57 205.527 Q2250.57 208.698 2251.43 209.601 Q2252.31 210.504 2254.97 210.504 L2259.35 210.504 L2259.35 214.069 L2254.97 214.069 Q2250.04 214.069 2248.17 212.24 Q2246.29 210.388 2246.29 205.527 L2246.29 191.453 L2243.17 191.453 L2243.17 188.143 L2246.29 188.143 L2246.29 180.782 L2250.57 180.782 Z" fill="#000000" fill-rule="nonzero" fill-opacity="1" /></svg>
