<?xml version="1.0" encoding="utf-8"?>
<svg xmlns="http://www.w3.org/2000/svg" xmlns:xlink="http://www.w3.org/1999/xlink" width="600" height="400" viewBox="0 0 2400 1600">
<defs>
  <clipPath id="clip870">
    <rect x="0" y="0" width="2400" height="1600"/>
  </clipPath>
</defs>
<path clip-path="url(#clip870)" d="M0 1600 L2400 1600 L2400 0 L0 0  Z" fill="#ffffff" fill-rule="evenodd" fill-opacity="1"/>
<defs>
  <clipPath id="clip871">
    <rect x="480" y="0" width="1681" height="1600"/>
  </clipPath>
</defs>
<path clip-path="url(#clip870)" d="M193.936 1486.45 L2352.76 1486.45 L2352.76 47.2441 L193.936 47.2441  Z" fill="#ffffff" fill-rule="evenodd" fill-opacity="1"/>
<defs>
  <clipPath id="clip872">
    <rect x="193" y="47" width="2160" height="1440"/>
  </clipPath>
</defs>
<polyline clip-path="url(#clip872)" style="stroke:#000000; stroke-linecap:round; stroke-linejoin:round; stroke-width:2; stroke-opacity:0.1; fill:none" points="327.275,1486.45 327.275,47.2441 "/>
<polyline clip-path="url(#clip872)" style="stroke:#000000; stroke-linecap:round; stroke-linejoin:round; stroke-width:2; stroke-opacity:0.1; fill:none" points="801.468,1486.45 801.468,47.2441 "/>
<polyline clip-path="url(#clip872)" style="stroke:#000000; stroke-linecap:round; stroke-linejoin:round; stroke-width:2; stroke-opacity:0.1; fill:none" points="1275.66,1486.45 1275.66,47.2441 "/>
<polyline clip-path="url(#clip872)" style="stroke:#000000; stroke-linecap:round; stroke-linejoin:round; stroke-width:2; stroke-opacity:0.1; fill:none" points="1749.85,1486.45 1749.85,47.2441 "/>
<polyline clip-path="url(#clip872)" style="stroke:#000000; stroke-linecap:round; stroke-linejoin:round; stroke-width:2; stroke-opacity:0.1; fill:none" points="2224.05,1486.45 2224.05,47.2441 "/>
<polyline clip-path="url(#clip870)" style="stroke:#000000; stroke-linecap:round; stroke-linejoin:round; stroke-width:4; stroke-opacity:1; fill:none" points="193.936,1486.45 2352.76,1486.45 "/>
<polyline clip-path="url(#clip870)" style="stroke:#000000; stroke-linecap:round; stroke-linejoin:round; stroke-width:4; stroke-opacity:1; fill:none" points="327.275,1486.45 327.275,1467.55 "/>
<polyline clip-path="url(#clip870)" style="stroke:#000000; stroke-linecap:round; stroke-linejoin:round; stroke-width:4; stroke-opacity:1; fill:none" points="801.468,1486.45 801.468,1467.55 "/>
<polyline clip-path="url(#clip870)" style="stroke:#000000; stroke-linecap:round; stroke-linejoin:round; stroke-width:4; stroke-opacity:1; fill:none" points="1275.66,1486.45 1275.66,1467.55 "/>
<polyline clip-path="url(#clip870)" style="stroke:#000000; stroke-linecap:round; stroke-linejoin:round; stroke-width:4; stroke-opacity:1; fill:none" points="1749.85,1486.45 1749.85,1467.55 "/>
<polyline clip-path="url(#clip870)" style="stroke:#000000; stroke-linecap:round; stroke-linejoin:round; stroke-width:4; stroke-opacity:1; fill:none" points="2224.05,1486.45 2224.05,1467.55 "/>
<path clip-path="url(#clip870)" d="M273.803 1532.02 L303.479 1532.02 L303.479 1535.95 L273.803 1535.95 L273.803 1532.02 Z" fill="#000000" fill-rule="nonzero" fill-opacity="1" /><path clip-path="url(#clip870)" d="M314.382 1544.91 L322.02 1544.91 L322.02 1518.55 L313.71 1520.21 L313.71 1515.95 L321.974 1514.29 L326.65 1514.29 L326.65 1544.91 L334.289 1544.91 L334.289 1548.85 L314.382 1548.85 L314.382 1544.91 Z" fill="#000000" fill-rule="nonzero" fill-opacity="1" /><path clip-path="url(#clip870)" d="M343.733 1542.97 L348.618 1542.97 L348.618 1548.85 L343.733 1548.85 L343.733 1542.97 Z" fill="#000000" fill-rule="nonzero" fill-opacity="1" /><path clip-path="url(#clip870)" d="M368.803 1517.37 Q365.192 1517.37 363.363 1520.93 Q361.557 1524.47 361.557 1531.6 Q361.557 1538.71 363.363 1542.27 Q365.192 1545.82 368.803 1545.82 Q372.437 1545.82 374.242 1542.27 Q376.071 1538.71 376.071 1531.6 Q376.071 1524.47 374.242 1520.93 Q372.437 1517.37 368.803 1517.37 M368.803 1513.66 Q374.613 1513.66 377.668 1518.27 Q380.747 1522.85 380.747 1531.6 Q380.747 1540.33 377.668 1544.94 Q374.613 1549.52 368.803 1549.52 Q362.992 1549.52 359.914 1544.94 Q356.858 1540.33 356.858 1531.6 Q356.858 1522.85 359.914 1518.27 Q362.992 1513.66 368.803 1513.66 Z" fill="#000000" fill-rule="nonzero" fill-opacity="1" /><path clip-path="url(#clip870)" d="M748.494 1532.02 L778.17 1532.02 L778.17 1535.95 L748.494 1535.95 L748.494 1532.02 Z" fill="#000000" fill-rule="nonzero" fill-opacity="1" /><path clip-path="url(#clip870)" d="M798.262 1517.37 Q794.651 1517.37 792.822 1520.93 Q791.017 1524.47 791.017 1531.6 Q791.017 1538.71 792.822 1542.27 Q794.651 1545.82 798.262 1545.82 Q801.896 1545.82 803.702 1542.27 Q805.531 1538.71 805.531 1531.6 Q805.531 1524.47 803.702 1520.93 Q801.896 1517.37 798.262 1517.37 M798.262 1513.66 Q804.072 1513.66 807.128 1518.27 Q810.207 1522.85 810.207 1531.6 Q810.207 1540.33 807.128 1544.94 Q804.072 1549.52 798.262 1549.52 Q792.452 1549.52 789.373 1544.94 Q786.318 1540.33 786.318 1531.6 Q786.318 1522.85 789.373 1518.27 Q792.452 1513.66 798.262 1513.66 Z" fill="#000000" fill-rule="nonzero" fill-opacity="1" /><path clip-path="url(#clip870)" d="M818.424 1542.97 L823.308 1542.97 L823.308 1548.85 L818.424 1548.85 L818.424 1542.97 Z" fill="#000000" fill-rule="nonzero" fill-opacity="1" /><path clip-path="url(#clip870)" d="M833.54 1514.29 L851.896 1514.29 L851.896 1518.22 L837.822 1518.22 L837.822 1526.7 Q838.841 1526.35 839.859 1526.19 Q840.878 1526 841.896 1526 Q847.683 1526 851.063 1529.17 Q854.442 1532.34 854.442 1537.76 Q854.442 1543.34 850.97 1546.44 Q847.498 1549.52 841.179 1549.52 Q839.003 1549.52 836.734 1549.15 Q834.489 1548.78 832.081 1548.04 L832.081 1543.34 Q834.165 1544.47 836.387 1545.03 Q838.609 1545.58 841.086 1545.58 Q845.091 1545.58 847.429 1543.48 Q849.767 1541.37 849.767 1537.76 Q849.767 1534.15 847.429 1532.04 Q845.091 1529.94 841.086 1529.94 Q839.211 1529.94 837.336 1530.35 Q835.484 1530.77 833.54 1531.65 L833.54 1514.29 Z" fill="#000000" fill-rule="nonzero" fill-opacity="1" /><path clip-path="url(#clip870)" d="M1253.05 1517.37 Q1249.43 1517.37 1247.61 1520.93 Q1245.8 1524.47 1245.8 1531.6 Q1245.8 1538.71 1247.61 1542.27 Q1249.43 1545.82 1253.05 1545.82 Q1256.68 1545.82 1258.49 1542.27 Q1260.31 1538.71 1260.31 1531.6 Q1260.31 1524.47 1258.49 1520.93 Q1256.68 1517.37 1253.05 1517.37 M1253.05 1513.66 Q1258.86 1513.66 1261.91 1518.27 Q1264.99 1522.85 1264.99 1531.6 Q1264.99 1540.33 1261.91 1544.94 Q1258.86 1549.52 1253.05 1549.52 Q1247.24 1549.52 1244.16 1544.94 Q1241.1 1540.33 1241.1 1531.6 Q1241.1 1522.85 1244.16 1518.27 Q1247.24 1513.66 1253.05 1513.66 Z" fill="#000000" fill-rule="nonzero" fill-opacity="1" /><path clip-path="url(#clip870)" d="M1273.21 1542.97 L1278.09 1542.97 L1278.09 1548.85 L1273.21 1548.85 L1273.21 1542.97 Z" fill="#000000" fill-rule="nonzero" fill-opacity="1" /><path clip-path="url(#clip870)" d="M1298.28 1517.37 Q1294.67 1517.37 1292.84 1520.93 Q1291.03 1524.47 1291.03 1531.6 Q1291.03 1538.71 1292.84 1542.27 Q1294.67 1545.82 1298.28 1545.82 Q1301.91 1545.82 1303.72 1542.27 Q1305.55 1538.71 1305.55 1531.6 Q1305.55 1524.47 1303.72 1520.93 Q1301.91 1517.37 1298.28 1517.37 M1298.28 1513.66 Q1304.09 1513.66 1307.14 1518.27 Q1310.22 1522.85 1310.22 1531.6 Q1310.22 1540.33 1307.14 1544.94 Q1304.09 1549.52 1298.28 1549.52 Q1292.47 1549.52 1289.39 1544.94 Q1286.33 1540.33 1286.33 1531.6 Q1286.33 1522.85 1289.39 1518.27 Q1292.47 1513.66 1298.28 1513.66 Z" fill="#000000" fill-rule="nonzero" fill-opacity="1" /><path clip-path="url(#clip870)" d="M1727.74 1517.37 Q1724.13 1517.37 1722.3 1520.93 Q1720.49 1524.47 1720.49 1531.6 Q1720.49 1538.71 1722.3 1542.27 Q1724.13 1545.82 1727.74 1545.82 Q1731.37 1545.82 1733.18 1542.27 Q1735.01 1538.71 1735.01 1531.6 Q1735.01 1524.47 1733.18 1520.93 Q1731.37 1517.37 1727.74 1517.37 M1727.74 1513.66 Q1733.55 1513.66 1736.6 1518.27 Q1739.68 1522.85 1739.68 1531.6 Q1739.68 1540.33 1736.6 1544.94 Q1733.55 1549.52 1727.74 1549.52 Q1721.93 1549.52 1718.85 1544.94 Q1715.79 1540.33 1715.79 1531.6 Q1715.79 1522.85 1718.85 1518.27 Q1721.93 1513.66 1727.74 1513.66 Z" fill="#000000" fill-rule="nonzero" fill-opacity="1" /><path clip-path="url(#clip870)" d="M1747.9 1542.97 L1752.78 1542.97 L1752.78 1548.85 L1747.9 1548.85 L1747.9 1542.97 Z" fill="#000000" fill-rule="nonzero" fill-opacity="1" /><path clip-path="url(#clip870)" d="M1763.01 1514.29 L1781.37 1514.29 L1781.37 1518.22 L1767.3 1518.22 L1767.3 1526.7 Q1768.32 1526.35 1769.33 1526.19 Q1770.35 1526 1771.37 1526 Q1777.16 1526 1780.54 1529.17 Q1783.92 1532.34 1783.92 1537.76 Q1783.92 1543.34 1780.44 1546.44 Q1776.97 1549.52 1770.65 1549.52 Q1768.48 1549.52 1766.21 1549.15 Q1763.96 1548.78 1761.56 1548.04 L1761.56 1543.34 Q1763.64 1544.47 1765.86 1545.03 Q1768.08 1545.58 1770.56 1545.58 Q1774.57 1545.58 1776.9 1543.48 Q1779.24 1541.37 1779.24 1537.76 Q1779.24 1534.15 1776.9 1532.04 Q1774.57 1529.94 1770.56 1529.94 Q1768.69 1529.94 1766.81 1530.35 Q1764.96 1530.77 1763.01 1531.65 L1763.01 1514.29 Z" fill="#000000" fill-rule="nonzero" fill-opacity="1" /><path clip-path="url(#clip870)" d="M2191.2 1544.91 L2198.84 1544.91 L2198.84 1518.55 L2190.53 1520.21 L2190.53 1515.95 L2198.79 1514.29 L2203.47 1514.29 L2203.47 1544.91 L2211.11 1544.91 L2211.11 1548.85 L2191.2 1548.85 L2191.2 1544.91 Z" fill="#000000" fill-rule="nonzero" fill-opacity="1" /><path clip-path="url(#clip870)" d="M2220.55 1542.97 L2225.44 1542.97 L2225.44 1548.85 L2220.55 1548.85 L2220.55 1542.97 Z" fill="#000000" fill-rule="nonzero" fill-opacity="1" /><path clip-path="url(#clip870)" d="M2245.62 1517.37 Q2242.01 1517.37 2240.18 1520.93 Q2238.38 1524.47 2238.38 1531.6 Q2238.38 1538.71 2240.18 1542.27 Q2242.01 1545.82 2245.62 1545.82 Q2249.26 1545.82 2251.06 1542.27 Q2252.89 1538.71 2252.89 1531.6 Q2252.89 1524.47 2251.06 1520.93 Q2249.26 1517.37 2245.62 1517.37 M2245.62 1513.66 Q2251.43 1513.66 2254.49 1518.27 Q2257.57 1522.85 2257.57 1531.6 Q2257.57 1540.33 2254.49 1544.94 Q2251.43 1549.52 2245.62 1549.52 Q2239.81 1549.52 2236.73 1544.94 Q2233.68 1540.33 2233.68 1531.6 Q2233.68 1522.85 2236.73 1518.27 Q2239.81 1513.66 2245.62 1513.66 Z" fill="#000000" fill-rule="nonzero" fill-opacity="1" /><polyline clip-path="url(#clip872)" style="stroke:#000000; stroke-linecap:round; stroke-linejoin:round; stroke-width:2; stroke-opacity:0.1; fill:none" points="193.936,1432.6 2352.76,1432.6 "/>
<polyline clip-path="url(#clip872)" style="stroke:#000000; stroke-linecap:round; stroke-linejoin:round; stroke-width:2; stroke-opacity:0.1; fill:none" points="193.936,1096.77 2352.76,1096.77 "/>
<polyline clip-path="url(#clip872)" style="stroke:#000000; stroke-linecap:round; stroke-linejoin:round; stroke-width:2; stroke-opacity:0.1; fill:none" points="193.936,760.943 2352.76,760.943 "/>
<polyline clip-path="url(#clip872)" style="stroke:#000000; stroke-linecap:round; stroke-linejoin:round; stroke-width:2; stroke-opacity:0.1; fill:none" points="193.936,425.115 2352.76,425.115 "/>
<polyline clip-path="url(#clip872)" style="stroke:#000000; stroke-linecap:round; stroke-linejoin:round; stroke-width:2; stroke-opacity:0.1; fill:none" points="193.936,89.2881 2352.76,89.2881 "/>
<polyline clip-path="url(#clip870)" style="stroke:#000000; stroke-linecap:round; stroke-linejoin:round; stroke-width:4; stroke-opacity:1; fill:none" points="193.936,1486.45 193.936,47.2441 "/>
<polyline clip-path="url(#clip870)" style="stroke:#000000; stroke-linecap:round; stroke-linejoin:round; stroke-width:4; stroke-opacity:1; fill:none" points="193.936,1432.6 212.834,1432.6 "/>
<polyline clip-path="url(#clip870)" style="stroke:#000000; stroke-linecap:round; stroke-linejoin:round; stroke-width:4; stroke-opacity:1; fill:none" points="193.936,1096.77 212.834,1096.77 "/>
<polyline clip-path="url(#clip870)" style="stroke:#000000; stroke-linecap:round; stroke-linejoin:round; stroke-width:4; stroke-opacity:1; fill:none" points="193.936,760.943 212.834,760.943 "/>
<polyline clip-path="url(#clip870)" style="stroke:#000000; stroke-linecap:round; stroke-linejoin:round; stroke-width:4; stroke-opacity:1; fill:none" points="193.936,425.115 212.834,425.115 "/>
<polyline clip-path="url(#clip870)" style="stroke:#000000; stroke-linecap:round; stroke-linejoin:round; stroke-width:4; stroke-opacity:1; fill:none" points="193.936,89.2881 212.834,89.2881 "/>
<path clip-path="url(#clip870)" d="M50.9921 1433.05 L80.6679 1433.05 L80.6679 1436.98 L50.9921 1436.98 L50.9921 1433.05 Z" fill="#000000" fill-rule="nonzero" fill-opacity="1" /><path clip-path="url(#clip870)" d="M91.5706 1445.94 L99.2095 1445.94 L99.2095 1419.58 L90.8993 1421.24 L90.8993 1416.98 L99.1632 1415.32 L103.839 1415.32 L103.839 1445.94 L111.478 1445.94 L111.478 1449.88 L91.5706 1449.88 L91.5706 1445.94 Z" fill="#000000" fill-rule="nonzero" fill-opacity="1" /><path clip-path="url(#clip870)" d="M120.922 1444 L125.807 1444 L125.807 1449.88 L120.922 1449.88 L120.922 1444 Z" fill="#000000" fill-rule="nonzero" fill-opacity="1" /><path clip-path="url(#clip870)" d="M145.992 1418.4 Q142.381 1418.4 140.552 1421.96 Q138.746 1425.5 138.746 1432.63 Q138.746 1439.74 140.552 1443.3 Q142.381 1446.85 145.992 1446.85 Q149.626 1446.85 151.431 1443.3 Q153.26 1439.74 153.26 1432.63 Q153.26 1425.5 151.431 1421.96 Q149.626 1418.4 145.992 1418.4 M145.992 1414.69 Q151.802 1414.69 154.857 1419.3 Q157.936 1423.88 157.936 1432.63 Q157.936 1441.36 154.857 1445.97 Q151.802 1450.55 145.992 1450.55 Q140.181 1450.55 137.103 1445.97 Q134.047 1441.36 134.047 1432.63 Q134.047 1423.88 137.103 1419.3 Q140.181 1414.69 145.992 1414.69 Z" fill="#000000" fill-rule="nonzero" fill-opacity="1" /><path clip-path="url(#clip870)" d="M51.9875 1097.22 L81.6633 1097.22 L81.6633 1101.16 L51.9875 1101.16 L51.9875 1097.22 Z" fill="#000000" fill-rule="nonzero" fill-opacity="1" /><path clip-path="url(#clip870)" d="M101.756 1082.57 Q98.1447 1082.57 96.316 1086.13 Q94.5104 1089.68 94.5104 1096.8 Q94.5104 1103.91 96.316 1107.48 Q98.1447 1111.02 101.756 1111.02 Q105.39 1111.02 107.196 1107.48 Q109.024 1103.91 109.024 1096.8 Q109.024 1089.68 107.196 1086.13 Q105.39 1082.57 101.756 1082.57 M101.756 1078.87 Q107.566 1078.87 110.621 1083.47 Q113.7 1088.05 113.7 1096.8 Q113.7 1105.53 110.621 1110.14 Q107.566 1114.72 101.756 1114.72 Q95.9456 1114.72 92.8669 1110.14 Q89.8114 1105.53 89.8114 1096.8 Q89.8114 1088.05 92.8669 1083.47 Q95.9456 1078.87 101.756 1078.87 Z" fill="#000000" fill-rule="nonzero" fill-opacity="1" /><path clip-path="url(#clip870)" d="M121.918 1108.17 L126.802 1108.17 L126.802 1114.05 L121.918 1114.05 L121.918 1108.17 Z" fill="#000000" fill-rule="nonzero" fill-opacity="1" /><path clip-path="url(#clip870)" d="M137.033 1079.49 L155.39 1079.49 L155.39 1083.43 L141.316 1083.43 L141.316 1091.9 Q142.334 1091.55 143.353 1091.39 Q144.371 1091.2 145.39 1091.2 Q151.177 1091.2 154.556 1094.37 Q157.936 1097.55 157.936 1102.96 Q157.936 1108.54 154.464 1111.64 Q150.992 1114.72 144.672 1114.72 Q142.496 1114.72 140.228 1114.35 Q137.982 1113.98 135.575 1113.24 L135.575 1108.54 Q137.658 1109.68 139.881 1110.23 Q142.103 1110.79 144.58 1110.79 Q148.584 1110.79 150.922 1108.68 Q153.26 1106.57 153.26 1102.96 Q153.26 1099.35 150.922 1097.24 Q148.584 1095.14 144.58 1095.14 Q142.705 1095.14 140.83 1095.55 Q138.978 1095.97 137.033 1096.85 L137.033 1079.49 Z" fill="#000000" fill-rule="nonzero" fill-opacity="1" /><path clip-path="url(#clip870)" d="M100.76 746.741 Q97.1493 746.741 95.3206 750.306 Q93.515 753.848 93.515 760.977 Q93.515 768.084 95.3206 771.649 Q97.1493 775.19 100.76 775.19 Q104.395 775.19 106.2 771.649 Q108.029 768.084 108.029 760.977 Q108.029 753.848 106.2 750.306 Q104.395 746.741 100.76 746.741 M100.76 743.038 Q106.571 743.038 109.626 747.644 Q112.705 752.228 112.705 760.977 Q112.705 769.704 109.626 774.311 Q106.571 778.894 100.76 778.894 Q94.9502 778.894 91.8715 774.311 Q88.816 769.704 88.816 760.977 Q88.816 752.228 91.8715 747.644 Q94.9502 743.038 100.76 743.038 Z" fill="#000000" fill-rule="nonzero" fill-opacity="1" /><path clip-path="url(#clip870)" d="M120.922 772.343 L125.807 772.343 L125.807 778.223 L120.922 778.223 L120.922 772.343 Z" fill="#000000" fill-rule="nonzero" fill-opacity="1" /><path clip-path="url(#clip870)" d="M145.992 746.741 Q142.381 746.741 140.552 750.306 Q138.746 753.848 138.746 760.977 Q138.746 768.084 140.552 771.649 Q142.381 775.19 145.992 775.19 Q149.626 775.19 151.431 771.649 Q153.26 768.084 153.26 760.977 Q153.26 753.848 151.431 750.306 Q149.626 746.741 145.992 746.741 M145.992 743.038 Q151.802 743.038 154.857 747.644 Q157.936 752.228 157.936 760.977 Q157.936 769.704 154.857 774.311 Q151.802 778.894 145.992 778.894 Q140.181 778.894 137.103 774.311 Q134.047 769.704 134.047 760.977 Q134.047 752.228 137.103 747.644 Q140.181 743.038 145.992 743.038 Z" fill="#000000" fill-rule="nonzero" fill-opacity="1" /><path clip-path="url(#clip870)" d="M101.756 410.914 Q98.1447 410.914 96.316 414.479 Q94.5104 418.021 94.5104 425.15 Q94.5104 432.257 96.316 435.821 Q98.1447 439.363 101.756 439.363 Q105.39 439.363 107.196 435.821 Q109.024 432.257 109.024 425.15 Q109.024 418.021 107.196 414.479 Q105.39 410.914 101.756 410.914 M101.756 407.21 Q107.566 407.21 110.621 411.817 Q113.7 416.4 113.7 425.15 Q113.7 433.877 110.621 438.483 Q107.566 443.067 101.756 443.067 Q95.9456 443.067 92.8669 438.483 Q89.8114 433.877 89.8114 425.15 Q89.8114 416.4 92.8669 411.817 Q95.9456 407.21 101.756 407.21 Z" fill="#000000" fill-rule="nonzero" fill-opacity="1" /><path clip-path="url(#clip870)" d="M121.918 436.516 L126.802 436.516 L126.802 442.395 L121.918 442.395 L121.918 436.516 Z" fill="#000000" fill-rule="nonzero" fill-opacity="1" /><path clip-path="url(#clip870)" d="M137.033 407.835 L155.39 407.835 L155.39 411.771 L141.316 411.771 L141.316 420.243 Q142.334 419.896 143.353 419.734 Q144.371 419.548 145.39 419.548 Q151.177 419.548 154.556 422.72 Q157.936 425.891 157.936 431.308 Q157.936 436.886 154.464 439.988 Q150.992 443.067 144.672 443.067 Q142.496 443.067 140.228 442.696 Q137.982 442.326 135.575 441.585 L135.575 436.886 Q137.658 438.02 139.881 438.576 Q142.103 439.132 144.58 439.132 Q148.584 439.132 150.922 437.025 Q153.26 434.919 153.26 431.308 Q153.26 427.696 150.922 425.59 Q148.584 423.484 144.58 423.484 Q142.705 423.484 140.83 423.9 Q138.978 424.317 137.033 425.196 L137.033 407.835 Z" fill="#000000" fill-rule="nonzero" fill-opacity="1" /><path clip-path="url(#clip870)" d="M91.5706 102.633 L99.2095 102.633 L99.2095 76.2673 L90.8993 77.934 L90.8993 73.6748 L99.1632 72.0081 L103.839 72.0081 L103.839 102.633 L111.478 102.633 L111.478 106.568 L91.5706 106.568 L91.5706 102.633 Z" fill="#000000" fill-rule="nonzero" fill-opacity="1" /><path clip-path="url(#clip870)" d="M120.922 100.689 L125.807 100.689 L125.807 106.568 L120.922 106.568 L120.922 100.689 Z" fill="#000000" fill-rule="nonzero" fill-opacity="1" /><path clip-path="url(#clip870)" d="M145.992 75.0868 Q142.381 75.0868 140.552 78.6516 Q138.746 82.1932 138.746 89.3228 Q138.746 96.4293 140.552 99.9941 Q142.381 103.536 145.992 103.536 Q149.626 103.536 151.431 99.9941 Q153.26 96.4293 153.26 89.3228 Q153.26 82.1932 151.431 78.6516 Q149.626 75.0868 145.992 75.0868 M145.992 71.3831 Q151.802 71.3831 154.857 75.9896 Q157.936 80.5729 157.936 89.3228 Q157.936 98.0496 154.857 102.656 Q151.802 107.239 145.992 107.239 Q140.181 107.239 137.103 102.656 Q134.047 98.0496 134.047 89.3228 Q134.047 80.5729 137.103 75.9896 Q140.181 71.3831 145.992 71.3831 Z" fill="#000000" fill-rule="nonzero" fill-opacity="1" /><polyline clip-path="url(#clip872)" style="stroke:#009af9; stroke-linecap:round; stroke-linejoin:round; stroke-width:4; stroke-opacity:1; fill:none" points="1275.66,89.2881 1370.25,92.5677 1463.9,102.734 1555.82,119.132 1644.74,141.433 1730.17,169.965 1811.44,203.417 1887.39,241.46 1957.78,283.766 2021.68,329.68 2079.1,378.874 2129.58,430.199 2172.65,483.82 2207.84,539.08 2235.16,595.407 2254.61,652.717 2265.72,710.56 2268.5,768.686 2263.87,826.739 2249.98,884.5 2228.68,941.647 2199.04,997.727 2162,1052.5 2117.08,1105.62 2064.75,1156.46 2005.47,1204.67 1939.72,1249.6 1867.48,1290.92 1790.14,1327.98 1707.95,1360.12 1621.35,1387.01 1531.51,1408 1439.13,1422.43 1345.12,1430.96 1250.42,1432.27 1155.96,1427.35 1062.76,1415.54 971.65,1397.51 883.433,1373.24 799.153,1343.72 719.04,1308.96 644.484,1269.6 575.949,1225.98 513.433,1179.42 457.863,1129.57 409.703,1077.58 368.489,1023.47 335.61,967.883 310.604,911.229 293.007,853.754 283.746,795.829 283.746,737.719 290.229,679.692 305.973,622.135 329.59,565.317 361.543,509.4 400.905,455.123 447.676,402.486 501.856,352.309 562.982,304.755 630.129,260.809 703.758,220.471 782.482,184.723 866.068,154.223 953.59,128.971 1044.24,109.621 1137.08,96.5031 1231.41,89.944 1326.14,90.272 1420.37,97.1591 1513.22,110.605 1603.52,130.283 1690.81,155.863 1773.93,187.019 1852.66,223.094 1925.82,263.761 1992.51,308.035 2053.17,355.589 2106.89,405.766 2153.2,458.567 2192.1,513.008 2223.12,568.924 2246.28,625.907 2261.09,683.504 2268.5,741.532 2266.65,799.662 2257.39,857.608 2239.79,915 2213.86,971.655 2180.06,1027.08 2138.84,1081.03 2089.75,1132.85 2033.72,1182.37 1971.21,1228.94 1901.74,1272.23 1827.19,1311.25 1746.84,1345.69 1662.33,1375.21 1573.88,1398.82 1482.54,1416.53 1389.17,1427.68 1294.68,1432.6 1200.01,1430.3 1106.06,1421.77 1013.79,1406.69 924.184,1385.37 837.82,1358.15 756.086,1325.68 678.752,1288.3 607.438,1246.97 541.681,1201.72 482.87,1153.18 431.468,1102.02 387.012,1048.89 349.966,994.12 320.792,937.875 300.416,880.729 287.45,822.927 282.819,764.868 286.524,706.748 297.638,648.946 318.013,591.717 345.798,535.309 381.455,480.212 424.985,426.755 475.46,375.594 533.345,326.729 598.176,280.815 668.564,238.836 744.973,201.121 826.474,167.67 912.376,139.793 1001.52,117.82 1093.56,101.75 1187.27,92.2397 1281.89,89.2881 1376.44,93.2236 1470.04,103.39 1561.61,120.444 1650.52,143.401 1735.73,171.933 1816.54,205.713 1892.02,244.084 1961.94,286.718 2025.85,332.96 2082.81,382.153 2132.82,433.806 2174.96,487.427 2209.69,542.688 2237.01,599.178 2255.54,656.489 2265.72,714.414 2268.5,772.503 2262.95,830.552 2249.05,888.272 2226.83,945.254 2196.73,1001.33 2159.22,1056.1 2113.83,1108.9 2061.04,1159.74 2001.31,1207.62 1935.09,1252.55 1862.85,1293.54 1785.05,1330.28 1702.39,1362.09 1615.56,1388.32 1525.49,1408.98 1432.99,1423.41 1338.87,1430.96 1244.2,1432.27 1149.82,1426.69 1056.62,1414.56 965.63,1395.87 877.645,1371.6 793.596,1341.43 713.946,1306.33 639.854,1266.65 571.781,1223.03 509.728,1176.14 454.622,1126.29 406.462,1073.98 366.174,1019.86 333.758,964.276 308.752,907.539 292.081,849.983 283.746,792.017 283.746,733.886 291.155,675.92 307.826,618.364 331.443,561.545 363.858,505.793 403.683,451.516 450.917,399.207 505.561,349.03 567.15,301.804 635.223,258.186 708.852,218.175 788.039,182.756 871.856,152.256 959.378,127.331 "/>
<polyline clip-path="url(#clip872)" style="stroke:#e26f46; stroke-linecap:round; stroke-linejoin:round; stroke-width:4; stroke-opacity:1; fill:none" points="1275.66,89.2881 1365.5,91.5838 1458.11,100.767 1553.05,116.836 1649.37,138.81 1745.69,167.998 1839.69,203.417 1930.92,245.395 2016.13,293.277 2093.92,345.094 2160.61,404.126 2215.25,466.11 2255.54,530.717 2280.54,598.276 2291.66,664.524 2290.73,728.147 2279.62,789.147 2255.54,850.147 2224.05,907.211 2182.37,964.276 2135.14,1018.72 2085.12,1069.22 2033.26,1116.45 1978.62,1161.05 1918.88,1206.31 1856.83,1250.25 1792.92,1290.92 1730.41,1323.72 1660.94,1355.86 1589.63,1382.09 1516.46,1402.43 1438.67,1417.51 1357.16,1427.35 1272.88,1429.97 1184.9,1426.37 1092.28,1417.51 998.74,1401.44 902.419,1380.12 806.099,1351.92 711.631,1317.16 620.867,1275.51 536.587,1227.3 458.79,1175.15 392.569,1116.78 339.315,1053.81 296.712,990.84 269.853,924.921 255.035,861.297 255.961,797.674 267.075,736.674 289.303,677.642 321.718,621.233 363.395,563.513 408.777,510.384 460.179,456.599 514.359,406.094 570.392,358.868 627.813,316.234 689.403,274.256 750.066,236.868 813.508,202.761 883.896,167.998 953.358,143.073 1028.38,120.772 1108.03,103.062 1190.45,93.2236 1276.59,89.2881 1365.5,92.5677 1457.19,102.406 1551.66,117.82 1646.12,141.105 1741.52,170.293 1835.06,205.385 1926.29,246.051 2011.03,293.933 2086.51,347.39 2152.73,404.782 2207.84,463.814 2249.98,527.11 2276.84,593.357 2290.73,657.309 2288.88,722.9 2279.62,783.244 2259.24,842.276 2227.75,899.34 2187.46,955.749 2141.62,1010.19 2093.46,1059.38 2040.21,1109.23 1984.17,1155.8 1925.36,1201.06 1864.24,1245.01 1801.72,1283.71 1735.5,1319.78 1669.28,1350.61 1597.96,1378.81 1522.95,1401.11 1443.3,1418.82 1360.87,1428.66 1274.74,1432.6 1185.82,1429.32 1094.13,1419.48 999.666,1404.07 905.198,1380.78 809.804,1351.59 716.262,1316.5 625.035,1275.83 540.291,1227.95 464.81,1174.5 398.589,1117.1 343.483,1058.07 301.343,994.776 274.484,928.528 260.592,864.577 262.444,798.986 271.706,738.642 292.081,679.61 323.57,622.545 363.858,566.137 409.703,511.696 457.863,462.502 511.118,412.653 567.15,366.083 625.961,320.825 687.088,276.879 749.603,238.18 815.824,202.105 882.044,171.277 953.358,143.073 1028.38,120.772 1108.03,103.062 1190.45,93.2236 1276.59,89.2881 1365.5,92.5677 1457.19,102.406 1551.66,117.82 1646.12,141.105 1741.52,170.293 1835.06,205.385 1926.29,246.051 2011.03,293.933 2086.51,347.39 2152.73,404.782 2207.84,463.814 2249.98,527.11 2276.84,593.357 2290.73,657.309 2288.88,722.9 2279.62,783.244 2259.24,842.276 2227.75,899.34 2187.46,955.749 2141.62,1010.19 2093.46,1059.38 2040.21,1109.23 1984.17,1155.8 1925.36,1201.06 1864.24,1245.01 1801.72,1283.71 1735.5,1319.78 1669.28,1350.61 1597.96,1378.81 1522.95,1401.11 1443.3,1418.82 1360.87,1428.66 1274.74,1432.6 1185.82,1429.32 1094.13,1419.48 999.666,1404.07 905.198,1380.78 809.804,1351.59 716.262,1316.5 625.035,1275.83 540.291,1227.95 464.81,1174.5 398.589,1117.1 343.483,1058.07 301.343,994.776 274.484,928.528 260.592,864.577 262.444,798.986 271.706,738.642 292.081,679.61 323.57,622.545 363.858,566.137 409.703,511.696 457.863,462.502 511.118,412.653 567.15,366.083 625.961,320.825 687.088,276.879 749.603,238.18 815.824,202.105 882.044,171.277 953.358,143.073 1028.38,120.772 1108.03,103.062 1190.45,93.2236 1276.59,89.2881 1365.5,92.5677 "/>
<polyline clip-path="url(#clip872)" style="stroke:#3da44d; stroke-linecap:round; stroke-linejoin:round; stroke-width:4; stroke-opacity:1; fill:none" points="1275.66,89.2881 1367.58,93.2236 1459.27,103.062 1549.57,119.132 1638.25,141.761 1723.92,169.309 1805.42,202.105 1883.22,240.148 1955,282.126 2021.22,327.384 2080.49,375.594 2132.36,427.083 2175.89,480.212 2212.47,535.637 2240.72,592.045 2260.17,649.766 2270.36,708.306 2272.21,766.846 2264.8,825.14 2249.98,883.189 2227.75,940.991 2197.19,997.399 2159.68,1052.82 2115.22,1105.95 2063.82,1157.11 2006.4,1205.65 1942.96,1250.91 1874.42,1292.89 1800.79,1330.93 1722.3,1364.05 1640.34,1391.93 1554.9,1414.56 1466.45,1431.29 1375.34,1441.12 1283.53,1445.06 1191.27,1442.44 1099,1432.6 1008.23,1416.53 919.09,1395.21 832.263,1367.66 750.066,1335.52 672.269,1298.14 599.103,1256.81 531.956,1211.55 471.756,1163.35 418.965,1111.86 373.583,1058.4 336.537,1003.3 307.826,946.894 287.45,889.174 276.336,830.47 274.484,771.437 280.041,712.733 293.933,654.521 316.161,596.965 346.261,540.228 383.771,484.967 428.226,431.183 479.165,379.857 535.661,331.32 598.639,286.062 666.712,243.756 739.879,205.713 817.676,171.933 899.409,143.729 984.848,120.772 1073.18,103.718 1163.31,92.5677 1255.08,87.9763 1347.09,90.272 1439.48,99.1268 1530.82,114.213 1619.96,135.202 1706.33,162.094 1788.75,193.906 1867.48,230.965 1940.64,271.96 2008.25,316.562 2068.45,364.771 2122.17,415.277 2168.48,468.406 2206.45,523.174 2236.09,579.911 2257.39,637.303 2269.43,695.188 2273.13,753.728 2268.5,812.432 2255.54,870.808 2234.24,928.283 2205.52,985.593 2169.4,1040.85 2126.34,1094.97 2076.33,1146.29 2020.29,1195.48 1958.24,1241.73 1890.63,1284.36 1818.39,1323.06 1741.75,1357.5 1660.25,1386.68 1575.74,1410.62 1488.21,1428.66 1397.68,1440.47 1305.56,1445.72 1213.26,1444.4 1120.76,1436.53 1028.84,1422.1 938.54,1402.1 851.481,1376.19 767.663,1345.03 688.477,1309.29 613.921,1268.62 545.385,1224.35 482.87,1176.79 428.226,1125.96 380.992,1073.16 342.094,1018.39 311.53,962.308 290.229,904.916 277.262,846.539 272.632,787.507 276.336,728.475 288.376,669.771 308.752,612.133 337,555.642 372.194,500.381 414.334,446.761 463.42,394.615 518.527,345.094 579.653,299.18 646.8,256.546 718.114,217.191 794.059,182.428 874.635,152.256 958.915,127.331 1045.97,108.31 1135.7,95.5193 1227.15,89.2881 1319.42,89.2881 1411.58,95.8472 1502.57,108.965 1592.41,128.315 1679.47,152.912 1763.75,183.084 1843.86,218.503 1919.34,258.186 1988.8,301.804 2052.25,348.374 2108.28,398.223 2156.44,451.188 2196.73,505.465 2229.6,561.873 2252.76,618.774 2267.58,676.658 2274.06,735.034 2272.21,793.738 2262.02,852.115 2243.5,910.163 2217.56,967.063 2183.76,1022.65 2143.01,1077.09 2095.31,1129.57 2041.59,1179.09 1981.86,1225.98 1917.03,1269.93 1846.17,1310.27 1770.69,1346.02 1690.58,1377.17 1606.99,1403.08 1520.17,1423.41 1430.56,1437.84 1339.28,1445.06 1246.78,1445.72 1154.1,1439.81 1061.95,1428.01 971.418,1409.64 883.433,1385.37 798.227,1355.86 717.188,1321.42 640.78,1282.39 570.392,1239.43 506.024,1193.19 448.602,1144 398.589,1091.85 356.449,1038.07 322.644,982.149 297.638,925.249 281.893,866.873 273.558,807.513 274.484,748.972 283.746,690.514 301.343,632.63 326.349,575.155 359.691,519.075 399.978,464.634 446.749,411.997 500.467,361.82 559.741,314.922 624.572,270.976 694.497,230.965 769.516,194.89 "/>
<path clip-path="url(#clip870)" d="M1764.98 1438.47 L2280.8 1438.47 L2280.8 1231.11 L1764.98 1231.11  Z" fill="#ffffff" fill-rule="evenodd" fill-opacity="1"/>
<polyline clip-path="url(#clip870)" style="stroke:#000000; stroke-linecap:round; stroke-linejoin:round; stroke-width:4; stroke-opacity:1; fill:none" points="1764.98,1438.47 2280.8,1438.47 2280.8,1231.11 1764.98,1231.11 1764.98,1438.47 "/>
<polyline clip-path="url(#clip870)" style="stroke:#009af9; stroke-linecap:round; stroke-linejoin:round; stroke-width:4; stroke-opacity:1; fill:none" points="1788.97,1282.95 1932.89,1282.95 "/>
<path clip-path="url(#clip870)" d="M1964.29 1266.95 L1964.29 1274.31 L1973.06 1274.31 L1973.06 1277.62 L1964.29 1277.62 L1964.29 1291.69 Q1964.29 1294.86 1965.14 1295.77 Q1966.02 1296.67 1968.68 1296.67 L1973.06 1296.67 L1973.06 1300.23 L1968.68 1300.23 Q1963.75 1300.23 1961.88 1298.41 Q1960 1296.55 1960 1291.69 L1960 1277.62 L1956.88 1277.62 L1956.88 1274.31 L1960 1274.31 L1960 1266.95 L1964.29 1266.95 Z" fill="#000000" fill-rule="nonzero" fill-opacity="1" /><path clip-path="url(#clip870)" d="M1993.68 1278.29 Q1992.97 1277.87 1992.11 1277.69 Q1991.28 1277.48 1990.26 1277.48 Q1986.65 1277.48 1984.7 1279.84 Q1982.78 1282.18 1982.78 1286.58 L1982.78 1300.23 L1978.5 1300.23 L1978.5 1274.31 L1982.78 1274.31 L1982.78 1278.34 Q1984.12 1275.98 1986.28 1274.84 Q1988.43 1273.68 1991.51 1273.68 Q1991.95 1273.68 1992.48 1273.75 Q1993.01 1273.8 1993.66 1273.92 L1993.68 1278.29 Z" fill="#000000" fill-rule="nonzero" fill-opacity="1" /><path clip-path="url(#clip870)" d="M2009.93 1287.2 Q2004.77 1287.2 2002.78 1288.38 Q2000.79 1289.56 2000.79 1292.41 Q2000.79 1294.68 2002.27 1296.02 Q2003.78 1297.34 2006.35 1297.34 Q2009.89 1297.34 2012.02 1294.84 Q2014.17 1292.32 2014.17 1288.15 L2014.17 1287.2 L2009.93 1287.2 M2018.43 1285.44 L2018.43 1300.23 L2014.17 1300.23 L2014.17 1296.3 Q2012.71 1298.66 2010.54 1299.79 Q2008.36 1300.91 2005.21 1300.91 Q2001.23 1300.91 1998.87 1298.68 Q1996.53 1296.44 1996.53 1292.69 Q1996.53 1288.31 1999.45 1286.09 Q2002.39 1283.87 2008.2 1283.87 L2014.17 1283.87 L2014.17 1283.45 Q2014.17 1280.51 2012.23 1278.92 Q2010.31 1277.29 2006.81 1277.29 Q2004.59 1277.29 2002.48 1277.83 Q2000.37 1278.36 1998.43 1279.42 L1998.43 1275.49 Q2000.77 1274.59 2002.97 1274.15 Q2005.17 1273.68 2007.25 1273.68 Q2012.87 1273.68 2015.65 1276.6 Q2018.43 1279.52 2018.43 1285.44 Z" fill="#000000" fill-rule="nonzero" fill-opacity="1" /><path clip-path="url(#clip870)" d="M2027.2 1274.31 L2031.46 1274.31 L2031.46 1300.23 L2027.2 1300.23 L2027.2 1274.31 M2027.2 1264.22 L2031.46 1264.22 L2031.46 1269.61 L2027.2 1269.61 L2027.2 1264.22 Z" fill="#000000" fill-rule="nonzero" fill-opacity="1" /><path clip-path="url(#clip870)" d="M2061.93 1284.59 L2061.93 1300.23 L2057.67 1300.23 L2057.67 1284.73 Q2057.67 1281.04 2056.23 1279.22 Q2054.8 1277.39 2051.93 1277.39 Q2048.48 1277.39 2046.49 1279.59 Q2044.49 1281.79 2044.49 1285.58 L2044.49 1300.23 L2040.21 1300.23 L2040.21 1274.31 L2044.49 1274.31 L2044.49 1278.34 Q2046.02 1276 2048.08 1274.84 Q2050.17 1273.68 2052.87 1273.68 Q2057.34 1273.68 2059.63 1276.46 Q2061.93 1279.22 2061.93 1284.59 Z" fill="#000000" fill-rule="nonzero" fill-opacity="1" /><path clip-path="url(#clip870)" d="M2070.42 1274.31 L2074.68 1274.31 L2074.68 1300.23 L2070.42 1300.23 L2070.42 1274.31 M2070.42 1264.22 L2074.68 1264.22 L2074.68 1269.61 L2070.42 1269.61 L2070.42 1264.22 Z" fill="#000000" fill-rule="nonzero" fill-opacity="1" /><path clip-path="url(#clip870)" d="M2105.14 1284.59 L2105.14 1300.23 L2100.88 1300.23 L2100.88 1284.73 Q2100.88 1281.04 2099.45 1279.22 Q2098.01 1277.39 2095.14 1277.39 Q2091.69 1277.39 2089.7 1279.59 Q2087.71 1281.79 2087.71 1285.58 L2087.71 1300.23 L2083.43 1300.23 L2083.43 1274.31 L2087.71 1274.31 L2087.71 1278.34 Q2089.24 1276 2091.3 1274.84 Q2093.38 1273.68 2096.09 1273.68 Q2100.56 1273.68 2102.85 1276.46 Q2105.14 1279.22 2105.14 1284.59 Z" fill="#000000" fill-rule="nonzero" fill-opacity="1" /><path clip-path="url(#clip870)" d="M2130.7 1286.97 Q2130.7 1282.34 2128.78 1279.79 Q2126.88 1277.25 2123.43 1277.25 Q2120 1277.25 2118.08 1279.79 Q2116.18 1282.34 2116.18 1286.97 Q2116.18 1291.58 2118.08 1294.12 Q2120 1296.67 2123.43 1296.67 Q2126.88 1296.67 2128.78 1294.12 Q2130.7 1291.58 2130.7 1286.97 M2134.96 1297.02 Q2134.96 1303.64 2132.02 1306.85 Q2129.08 1310.1 2123.01 1310.1 Q2120.77 1310.1 2118.78 1309.75 Q2116.79 1309.42 2114.91 1308.73 L2114.91 1304.59 Q2116.79 1305.6 2118.61 1306.09 Q2120.44 1306.58 2122.34 1306.58 Q2126.53 1306.58 2128.61 1304.38 Q2130.7 1302.2 2130.7 1297.78 L2130.7 1295.67 Q2129.38 1297.97 2127.32 1299.1 Q2125.26 1300.23 2122.39 1300.23 Q2117.62 1300.23 2114.7 1296.6 Q2111.79 1292.97 2111.79 1286.97 Q2111.79 1280.95 2114.7 1277.32 Q2117.62 1273.68 2122.39 1273.68 Q2125.26 1273.68 2127.32 1274.82 Q2129.38 1275.95 2130.7 1278.24 L2130.7 1274.31 L2134.96 1274.31 L2134.96 1297.02 Z" fill="#000000" fill-rule="nonzero" fill-opacity="1" /><path clip-path="url(#clip870)" d="M2175.86 1278.24 L2175.86 1264.22 L2180.12 1264.22 L2180.12 1300.23 L2175.86 1300.23 L2175.86 1296.35 Q2174.52 1298.66 2172.46 1299.79 Q2170.42 1300.91 2167.55 1300.91 Q2162.85 1300.91 2159.89 1297.16 Q2156.95 1293.41 2156.95 1287.29 Q2156.95 1281.18 2159.89 1277.43 Q2162.85 1273.68 2167.55 1273.68 Q2170.42 1273.68 2172.46 1274.82 Q2174.52 1275.93 2175.86 1278.24 M2161.35 1287.29 Q2161.35 1291.99 2163.27 1294.68 Q2165.21 1297.34 2168.59 1297.34 Q2171.97 1297.34 2173.92 1294.68 Q2175.86 1291.99 2175.86 1287.29 Q2175.86 1282.6 2173.92 1279.93 Q2171.97 1277.25 2168.59 1277.25 Q2165.21 1277.25 2163.27 1279.93 Q2161.35 1282.6 2161.35 1287.29 Z" fill="#000000" fill-rule="nonzero" fill-opacity="1" /><path clip-path="url(#clip870)" d="M2200.67 1287.2 Q2195.51 1287.2 2193.52 1288.38 Q2191.53 1289.56 2191.53 1292.41 Q2191.53 1294.68 2193.01 1296.02 Q2194.52 1297.34 2197.09 1297.34 Q2200.63 1297.34 2202.76 1294.84 Q2204.91 1292.32 2204.91 1288.15 L2204.91 1287.2 L2200.67 1287.2 M2209.17 1285.44 L2209.17 1300.23 L2204.91 1300.23 L2204.91 1296.3 Q2203.45 1298.66 2201.28 1299.79 Q2199.1 1300.91 2195.95 1300.91 Q2191.97 1300.91 2189.61 1298.68 Q2187.27 1296.44 2187.27 1292.69 Q2187.27 1288.31 2190.19 1286.09 Q2193.13 1283.87 2198.94 1283.87 L2204.91 1283.87 L2204.91 1283.45 Q2204.91 1280.51 2202.97 1278.92 Q2201.04 1277.29 2197.55 1277.29 Q2195.33 1277.29 2193.22 1277.83 Q2191.11 1278.36 2189.17 1279.42 L2189.17 1275.49 Q2191.51 1274.59 2193.71 1274.15 Q2195.91 1273.68 2197.99 1273.68 Q2203.61 1273.68 2206.39 1276.6 Q2209.17 1279.52 2209.17 1285.44 Z" fill="#000000" fill-rule="nonzero" fill-opacity="1" /><path clip-path="url(#clip870)" d="M2222.16 1266.95 L2222.16 1274.31 L2230.93 1274.31 L2230.93 1277.62 L2222.16 1277.62 L2222.16 1291.69 Q2222.16 1294.86 2223.01 1295.77 Q2223.89 1296.67 2226.55 1296.67 L2230.93 1296.67 L2230.93 1300.23 L2226.55 1300.23 Q2221.62 1300.23 2219.75 1298.41 Q2217.87 1296.55 2217.87 1291.69 L2217.87 1277.62 L2214.75 1277.62 L2214.75 1274.31 L2217.87 1274.31 L2217.87 1266.95 L2222.16 1266.95 Z" fill="#000000" fill-rule="nonzero" fill-opacity="1" /><path clip-path="url(#clip870)" d="M2248.31 1287.2 Q2243.15 1287.2 2241.16 1288.38 Q2239.17 1289.56 2239.17 1292.41 Q2239.17 1294.68 2240.65 1296.02 Q2242.16 1297.34 2244.73 1297.34 Q2248.27 1297.34 2250.4 1294.84 Q2252.55 1292.32 2252.55 1288.15 L2252.55 1287.2 L2248.31 1287.2 M2256.81 1285.44 L2256.81 1300.23 L2252.55 1300.23 L2252.55 1296.3 Q2251.09 1298.66 2248.91 1299.79 Q2246.74 1300.91 2243.59 1300.91 Q2239.61 1300.91 2237.25 1298.68 Q2234.91 1296.44 2234.91 1292.69 Q2234.91 1288.31 2237.83 1286.09 Q2240.77 1283.87 2246.58 1283.87 L2252.55 1283.87 L2252.55 1283.45 Q2252.55 1280.51 2250.6 1278.92 Q2248.68 1277.29 2245.19 1277.29 Q2242.97 1277.29 2240.86 1277.83 Q2238.75 1278.36 2236.81 1279.42 L2236.81 1275.49 Q2239.15 1274.59 2241.35 1274.15 Q2243.54 1273.68 2245.63 1273.68 Q2251.25 1273.68 2254.03 1276.6 Q2256.81 1279.52 2256.81 1285.44 Z" fill="#000000" fill-rule="nonzero" fill-opacity="1" /><polyline clip-path="url(#clip870)" style="stroke:#e26f46; stroke-linecap:round; stroke-linejoin:round; stroke-width:4; stroke-opacity:1; fill:none" points="1788.97,1334.79 1932.89,1334.79 "/>
<path clip-path="url(#clip870)" d="M1956.88 1317.51 L1961.56 1317.51 L1961.56 1348.14 L1978.38 1348.14 L1978.38 1352.07 L1956.88 1352.07 L1956.88 1317.51 Z" fill="#000000" fill-rule="nonzero" fill-opacity="1" /><path clip-path="url(#clip870)" d="M1995.93 1322.12 L1989.59 1339.32 L2002.3 1339.32 L1995.93 1322.12 M1993.29 1317.51 L1998.59 1317.51 L2011.76 1352.07 L2006.9 1352.07 L2003.75 1343.21 L1988.18 1343.21 L1985.03 1352.07 L1980.1 1352.07 L1993.29 1317.51 Z" fill="#000000" fill-rule="nonzero" fill-opacity="1" /><path clip-path="url(#clip870)" d="M2052.6 1318.65 L2052.6 1323.21 Q2049.93 1321.94 2047.57 1321.31 Q2045.21 1320.69 2043.01 1320.69 Q2039.19 1320.69 2037.11 1322.17 Q2035.05 1323.65 2035.05 1326.38 Q2035.05 1328.67 2036.42 1329.85 Q2037.8 1331.01 2041.65 1331.73 L2044.47 1332.31 Q2049.7 1333.3 2052.18 1335.82 Q2054.68 1338.32 2054.68 1342.54 Q2054.68 1347.56 2051.3 1350.15 Q2047.94 1352.75 2041.44 1352.75 Q2038.99 1352.75 2036.21 1352.19 Q2033.45 1351.63 2030.49 1350.55 L2030.49 1345.73 Q2033.34 1347.33 2036.07 1348.14 Q2038.8 1348.95 2041.44 1348.95 Q2045.44 1348.95 2047.62 1347.38 Q2049.8 1345.8 2049.8 1342.88 Q2049.8 1340.34 2048.22 1338.9 Q2046.67 1337.47 2043.11 1336.75 L2040.26 1336.19 Q2035.03 1335.15 2032.69 1332.93 Q2030.35 1330.71 2030.35 1326.75 Q2030.35 1322.17 2033.57 1319.53 Q2036.81 1316.89 2042.48 1316.89 Q2044.91 1316.89 2047.43 1317.33 Q2049.96 1317.77 2052.6 1318.65 Z" fill="#000000" fill-rule="nonzero" fill-opacity="1" /><path clip-path="url(#clip870)" d="M2072.57 1354.48 Q2070.77 1359.11 2069.05 1360.52 Q2067.34 1361.94 2064.47 1361.94 L2061.07 1361.94 L2061.07 1358.37 L2063.57 1358.37 Q2065.33 1358.37 2066.3 1357.54 Q2067.27 1356.7 2068.45 1353.6 L2069.22 1351.66 L2058.73 1326.15 L2063.24 1326.15 L2071.35 1346.43 L2079.45 1326.15 L2083.96 1326.15 L2072.57 1354.48 Z" fill="#000000" fill-rule="nonzero" fill-opacity="1" /><path clip-path="url(#clip870)" d="M2110.03 1331.13 Q2111.62 1328.26 2113.85 1326.89 Q2116.07 1325.52 2119.08 1325.52 Q2123.13 1325.52 2125.33 1328.37 Q2127.53 1331.19 2127.53 1336.43 L2127.53 1352.07 L2123.24 1352.07 L2123.24 1336.57 Q2123.24 1332.84 2121.92 1331.03 Q2120.61 1329.23 2117.9 1329.23 Q2114.59 1329.23 2112.67 1331.43 Q2110.74 1333.63 2110.74 1337.42 L2110.74 1352.07 L2106.46 1352.07 L2106.46 1336.57 Q2106.46 1332.82 2105.14 1331.03 Q2103.82 1329.23 2101.07 1329.23 Q2097.8 1329.23 2095.88 1331.45 Q2093.96 1333.65 2093.96 1337.42 L2093.96 1352.07 L2089.68 1352.07 L2089.68 1326.15 L2093.96 1326.15 L2093.96 1330.18 Q2095.42 1327.79 2097.46 1326.66 Q2099.49 1325.52 2102.3 1325.52 Q2105.12 1325.52 2107.09 1326.96 Q2109.08 1328.39 2110.03 1331.13 Z" fill="#000000" fill-rule="nonzero" fill-opacity="1" /><path clip-path="url(#clip870)" d="M2140.14 1348.19 L2140.14 1361.94 L2135.86 1361.94 L2135.86 1326.15 L2140.14 1326.15 L2140.14 1330.08 Q2141.48 1327.77 2143.52 1326.66 Q2145.58 1325.52 2148.43 1325.52 Q2153.15 1325.52 2156.09 1329.27 Q2159.05 1333.02 2159.05 1339.13 Q2159.05 1345.25 2156.09 1349 Q2153.15 1352.75 2148.43 1352.75 Q2145.58 1352.75 2143.52 1351.63 Q2141.48 1350.5 2140.14 1348.19 M2154.63 1339.13 Q2154.63 1334.44 2152.69 1331.77 Q2150.77 1329.09 2147.39 1329.09 Q2144.01 1329.09 2142.06 1331.77 Q2140.14 1334.44 2140.14 1339.13 Q2140.14 1343.83 2142.06 1346.52 Q2144.01 1349.18 2147.39 1349.18 Q2150.77 1349.18 2152.69 1346.52 Q2154.63 1343.83 2154.63 1339.13 Z" fill="#000000" fill-rule="nonzero" fill-opacity="1" /><path clip-path="url(#clip870)" d="M2187.67 1336.43 L2187.67 1352.07 L2183.41 1352.07 L2183.41 1336.57 Q2183.41 1332.88 2181.97 1331.06 Q2180.54 1329.23 2177.67 1329.23 Q2174.22 1329.23 2172.23 1331.43 Q2170.23 1333.63 2170.23 1337.42 L2170.23 1352.07 L2165.95 1352.07 L2165.95 1326.15 L2170.23 1326.15 L2170.23 1330.18 Q2171.76 1327.84 2173.82 1326.68 Q2175.91 1325.52 2178.61 1325.52 Q2183.08 1325.52 2185.37 1328.3 Q2187.67 1331.06 2187.67 1336.43 Z" fill="#000000" fill-rule="nonzero" fill-opacity="1" /><path clip-path="url(#clip870)" d="M2218.34 1338.05 L2218.34 1340.13 L2198.75 1340.13 Q2199.03 1344.53 2201.39 1346.84 Q2203.78 1349.13 2208.01 1349.13 Q2210.47 1349.13 2212.76 1348.53 Q2215.07 1347.93 2217.34 1346.73 L2217.34 1350.75 Q2215.05 1351.73 2212.64 1352.24 Q2210.23 1352.75 2207.76 1352.75 Q2201.55 1352.75 2197.92 1349.13 Q2194.31 1345.52 2194.31 1339.37 Q2194.31 1333 2197.73 1329.27 Q2201.18 1325.52 2207.02 1325.52 Q2212.25 1325.52 2215.28 1328.9 Q2218.34 1332.26 2218.34 1338.05 M2214.08 1336.8 Q2214.03 1333.3 2212.11 1331.22 Q2210.21 1329.13 2207.06 1329.13 Q2203.5 1329.13 2201.35 1331.15 Q2199.22 1333.16 2198.89 1336.82 L2214.08 1336.8 Z" fill="#000000" fill-rule="nonzero" fill-opacity="1" /><path clip-path="url(#clip870)" d="M2229.54 1318.79 L2229.54 1326.15 L2238.31 1326.15 L2238.31 1329.46 L2229.54 1329.46 L2229.54 1343.53 Q2229.54 1346.7 2230.4 1347.61 Q2231.28 1348.51 2233.94 1348.51 L2238.31 1348.51 L2238.31 1352.07 L2233.94 1352.07 Q2229.01 1352.07 2227.13 1350.25 Q2225.26 1348.39 2225.26 1343.53 L2225.26 1329.46 L2222.13 1329.46 L2222.13 1326.15 L2225.26 1326.15 L2225.26 1318.79 L2229.54 1318.79 Z" fill="#000000" fill-rule="nonzero" fill-opacity="1" /><polyline clip-path="url(#clip870)" style="stroke:#3da44d; stroke-linecap:round; stroke-linejoin:round; stroke-width:4; stroke-opacity:1; fill:none" points="1788.97,1386.63 1932.89,1386.63 "/>
<path clip-path="url(#clip870)" d="M1982.43 1398.98 L1982.43 1389.7 L1974.8 1389.7 L1974.8 1385.86 L1987.06 1385.86 L1987.06 1400.7 Q1984.36 1402.62 1981.09 1403.61 Q1977.83 1404.59 1974.12 1404.59 Q1966.02 1404.59 1961.44 1399.86 Q1956.88 1395.12 1956.88 1386.67 Q1956.88 1378.2 1961.44 1373.47 Q1966.02 1368.73 1974.12 1368.73 Q1977.5 1368.73 1980.54 1369.56 Q1983.59 1370.4 1986.16 1372.02 L1986.16 1376.99 Q1983.57 1374.79 1980.65 1373.68 Q1977.74 1372.57 1974.52 1372.57 Q1968.18 1372.57 1964.98 1376.11 Q1961.81 1379.66 1961.81 1386.67 Q1961.81 1393.66 1964.98 1397.2 Q1968.18 1400.74 1974.52 1400.74 Q1977 1400.74 1978.94 1400.33 Q1980.88 1399.89 1982.43 1398.98 Z" fill="#000000" fill-rule="nonzero" fill-opacity="1" /><path clip-path="url(#clip870)" d="M2031.39 1370.49 L2031.39 1375.05 Q2028.73 1373.78 2026.37 1373.15 Q2024.01 1372.53 2021.81 1372.53 Q2017.99 1372.53 2015.91 1374.01 Q2013.85 1375.49 2013.85 1378.22 Q2013.85 1380.51 2015.21 1381.69 Q2016.6 1382.85 2020.44 1383.57 L2023.27 1384.15 Q2028.5 1385.14 2030.98 1387.66 Q2033.48 1390.16 2033.48 1394.38 Q2033.48 1399.4 2030.1 1401.99 Q2026.74 1404.59 2020.24 1404.59 Q2017.78 1404.59 2015 1404.03 Q2012.25 1403.47 2009.29 1402.39 L2009.29 1397.57 Q2012.13 1399.17 2014.87 1399.98 Q2017.6 1400.79 2020.24 1400.79 Q2024.24 1400.79 2026.42 1399.22 Q2028.59 1397.64 2028.59 1394.72 Q2028.59 1392.18 2027.02 1390.74 Q2025.47 1389.31 2021.9 1388.59 L2019.05 1388.03 Q2013.82 1386.99 2011.49 1384.77 Q2009.15 1382.55 2009.15 1378.59 Q2009.15 1374.01 2012.37 1371.37 Q2015.61 1368.73 2021.28 1368.73 Q2023.71 1368.73 2026.23 1369.17 Q2028.75 1369.61 2031.39 1370.49 Z" fill="#000000" fill-rule="nonzero" fill-opacity="1" /><path clip-path="url(#clip870)" d="M2051.37 1406.32 Q2049.56 1410.95 2047.85 1412.36 Q2046.14 1413.78 2043.27 1413.78 L2039.87 1413.78 L2039.87 1410.21 L2042.37 1410.21 Q2044.12 1410.21 2045.1 1409.38 Q2046.07 1408.54 2047.25 1405.44 L2048.01 1403.5 L2037.53 1377.99 L2042.04 1377.99 L2050.14 1398.27 L2058.24 1377.99 L2062.76 1377.99 L2051.37 1406.32 Z" fill="#000000" fill-rule="nonzero" fill-opacity="1" /><path clip-path="url(#clip870)" d="M2088.82 1382.97 Q2090.42 1380.1 2092.64 1378.73 Q2094.86 1377.36 2097.87 1377.36 Q2101.92 1377.36 2104.12 1380.21 Q2106.32 1383.03 2106.32 1388.27 L2106.32 1403.91 L2102.04 1403.91 L2102.04 1388.41 Q2102.04 1384.68 2100.72 1382.87 Q2099.4 1381.07 2096.69 1381.07 Q2093.38 1381.07 2091.46 1383.27 Q2089.54 1385.47 2089.54 1389.26 L2089.54 1403.91 L2085.26 1403.91 L2085.26 1388.41 Q2085.26 1384.66 2083.94 1382.87 Q2082.62 1381.07 2079.86 1381.07 Q2076.6 1381.07 2074.68 1383.29 Q2072.76 1385.49 2072.76 1389.26 L2072.76 1403.91 L2068.48 1403.91 L2068.48 1377.99 L2072.76 1377.99 L2072.76 1382.02 Q2074.22 1379.63 2076.25 1378.5 Q2078.29 1377.36 2081.09 1377.36 Q2083.92 1377.36 2085.88 1378.8 Q2087.87 1380.23 2088.82 1382.97 Z" fill="#000000" fill-rule="nonzero" fill-opacity="1" /><path clip-path="url(#clip870)" d="M2118.94 1400.03 L2118.94 1413.78 L2114.66 1413.78 L2114.66 1377.99 L2118.94 1377.99 L2118.94 1381.92 Q2120.28 1379.61 2122.32 1378.5 Q2124.38 1377.36 2127.23 1377.36 Q2131.95 1377.36 2134.89 1381.11 Q2137.85 1384.86 2137.85 1390.97 Q2137.85 1397.09 2134.89 1400.84 Q2131.95 1404.59 2127.23 1404.59 Q2124.38 1404.59 2122.32 1403.47 Q2120.28 1402.34 2118.94 1400.03 M2133.43 1390.97 Q2133.43 1386.28 2131.48 1383.61 Q2129.56 1380.93 2126.18 1380.93 Q2122.8 1380.93 2120.86 1383.61 Q2118.94 1386.28 2118.94 1390.97 Q2118.94 1395.67 2120.86 1398.36 Q2122.8 1401.02 2126.18 1401.02 Q2129.56 1401.02 2131.48 1398.36 Q2133.43 1395.67 2133.43 1390.97 Z" fill="#000000" fill-rule="nonzero" fill-opacity="1" /><path clip-path="url(#clip870)" d="M2166.46 1388.27 L2166.46 1403.91 L2162.2 1403.91 L2162.2 1388.41 Q2162.2 1384.72 2160.77 1382.9 Q2159.33 1381.07 2156.46 1381.07 Q2153.01 1381.07 2151.02 1383.27 Q2149.03 1385.47 2149.03 1389.26 L2149.03 1403.91 L2144.75 1403.91 L2144.75 1377.99 L2149.03 1377.99 L2149.03 1382.02 Q2150.56 1379.68 2152.62 1378.52 Q2154.7 1377.36 2157.41 1377.36 Q2161.88 1377.36 2164.17 1380.14 Q2166.46 1382.9 2166.46 1388.27 Z" fill="#000000" fill-rule="nonzero" fill-opacity="1" /><path clip-path="url(#clip870)" d="M2197.13 1389.89 L2197.13 1391.97 L2177.55 1391.97 Q2177.83 1396.37 2180.19 1398.68 Q2182.57 1400.97 2186.81 1400.97 Q2189.26 1400.97 2191.55 1400.37 Q2193.87 1399.77 2196.14 1398.57 L2196.14 1402.59 Q2193.85 1403.57 2191.44 1404.08 Q2189.03 1404.59 2186.55 1404.59 Q2180.35 1404.59 2176.72 1400.97 Q2173.11 1397.36 2173.11 1391.21 Q2173.11 1384.84 2176.53 1381.11 Q2179.98 1377.36 2185.81 1377.36 Q2191.04 1377.36 2194.08 1380.74 Q2197.13 1384.1 2197.13 1389.89 M2192.87 1388.64 Q2192.83 1385.14 2190.91 1383.06 Q2189.01 1380.97 2185.86 1380.97 Q2182.29 1380.97 2180.14 1382.99 Q2178.01 1385 2177.69 1388.66 L2192.87 1388.64 Z" fill="#000000" fill-rule="nonzero" fill-opacity="1" /><path clip-path="url(#clip870)" d="M2208.34 1370.63 L2208.34 1377.99 L2217.11 1377.99 L2217.11 1381.3 L2208.34 1381.3 L2208.34 1395.37 Q2208.34 1398.54 2209.19 1399.45 Q2210.07 1400.35 2212.73 1400.35 L2217.11 1400.35 L2217.11 1403.91 L2212.73 1403.91 Q2207.8 1403.91 2205.93 1402.09 Q2204.05 1400.23 2204.05 1395.37 L2204.05 1381.3 L2200.93 1381.3 L2200.93 1377.99 L2204.05 1377.99 L2204.05 1370.63 L2208.34 1370.63 Z" fill="#000000" fill-rule="nonzero" fill-opacity="1" /></svg>
