<?xml version="1.0" encoding="utf-8"?>
<svg xmlns="http://www.w3.org/2000/svg" xmlns:xlink="http://www.w3.org/1999/xlink" width="600" height="400" viewBox="0 0 2400 1600">
<defs>
  <clipPath id="clip860">
    <rect x="0" y="0" width="2400" height="1600"/>
  </clipPath>
</defs>
<path clip-path="url(#clip860)" d="M0 1600 L2400 1600 L2400 0 L0 0  Z" fill="#ffffff" fill-rule="evenodd" fill-opacity="1"/>
<defs>
  <clipPath id="clip861">
    <rect x="480" y="0" width="1681" height="1600"/>
  </clipPath>
</defs>
<path clip-path="url(#clip860)" d="M193.936 1486.45 L2352.76 1486.45 L2352.76 47.2441 L193.936 47.2441  Z" fill="#ffffff" fill-rule="evenodd" fill-opacity="1"/>
<defs>
  <clipPath id="clip862">
    <rect x="193" y="47" width="2160" height="1440"/>
  </clipPath>
</defs>
<polyline clip-path="url(#clip862)" style="stroke:#000000; stroke-linecap:round; stroke-linejoin:round; stroke-width:2; stroke-opacity:0.1; fill:none" points="306.045,1486.45 306.045,47.2441 "/>
<polyline clip-path="url(#clip862)" style="stroke:#000000; stroke-linecap:round; stroke-linejoin:round; stroke-width:2; stroke-opacity:0.1; fill:none" points="789.695,1486.45 789.695,47.2441 "/>
<polyline clip-path="url(#clip862)" style="stroke:#000000; stroke-linecap:round; stroke-linejoin:round; stroke-width:2; stroke-opacity:0.1; fill:none" points="1273.35,1486.45 1273.35,47.2441 "/>
<polyline clip-path="url(#clip862)" style="stroke:#000000; stroke-linecap:round; stroke-linejoin:round; stroke-width:2; stroke-opacity:0.1; fill:none" points="1757,1486.45 1757,47.2441 "/>
<polyline clip-path="url(#clip862)" style="stroke:#000000; stroke-linecap:round; stroke-linejoin:round; stroke-width:2; stroke-opacity:0.1; fill:none" points="2240.65,1486.45 2240.65,47.2441 "/>
<polyline clip-path="url(#clip860)" style="stroke:#000000; stroke-linecap:round; stroke-linejoin:round; stroke-width:4; stroke-opacity:1; fill:none" points="193.936,1486.45 2352.76,1486.45 "/>
<polyline clip-path="url(#clip860)" style="stroke:#000000; stroke-linecap:round; stroke-linejoin:round; stroke-width:4; stroke-opacity:1; fill:none" points="306.045,1486.45 306.045,1467.55 "/>
<polyline clip-path="url(#clip860)" style="stroke:#000000; stroke-linecap:round; stroke-linejoin:round; stroke-width:4; stroke-opacity:1; fill:none" points="789.695,1486.45 789.695,1467.55 "/>
<polyline clip-path="url(#clip860)" style="stroke:#000000; stroke-linecap:round; stroke-linejoin:round; stroke-width:4; stroke-opacity:1; fill:none" points="1273.35,1486.45 1273.35,1467.55 "/>
<polyline clip-path="url(#clip860)" style="stroke:#000000; stroke-linecap:round; stroke-linejoin:round; stroke-width:4; stroke-opacity:1; fill:none" points="1757,1486.45 1757,1467.55 "/>
<polyline clip-path="url(#clip860)" style="stroke:#000000; stroke-linecap:round; stroke-linejoin:round; stroke-width:4; stroke-opacity:1; fill:none" points="2240.65,1486.45 2240.65,1467.55 "/>
<path clip-path="url(#clip860)" d="M252.573 1532.02 L282.249 1532.02 L282.249 1535.95 L252.573 1535.95 L252.573 1532.02 Z" fill="#000000" fill-rule="nonzero" fill-opacity="1" /><path clip-path="url(#clip860)" d="M293.151 1544.91 L300.79 1544.91 L300.79 1518.55 L292.48 1520.21 L292.48 1515.95 L300.744 1514.29 L305.42 1514.29 L305.42 1544.91 L313.059 1544.91 L313.059 1548.85 L293.151 1548.85 L293.151 1544.91 Z" fill="#000000" fill-rule="nonzero" fill-opacity="1" /><path clip-path="url(#clip860)" d="M322.503 1542.97 L327.387 1542.97 L327.387 1548.85 L322.503 1548.85 L322.503 1542.97 Z" fill="#000000" fill-rule="nonzero" fill-opacity="1" /><path clip-path="url(#clip860)" d="M347.572 1517.37 Q343.961 1517.37 342.132 1520.93 Q340.327 1524.47 340.327 1531.6 Q340.327 1538.71 342.132 1542.27 Q343.961 1545.82 347.572 1545.82 Q351.206 1545.82 353.012 1542.27 Q354.841 1538.71 354.841 1531.6 Q354.841 1524.47 353.012 1520.93 Q351.206 1517.37 347.572 1517.37 M347.572 1513.66 Q353.382 1513.66 356.438 1518.27 Q359.517 1522.85 359.517 1531.6 Q359.517 1540.33 356.438 1544.94 Q353.382 1549.52 347.572 1549.52 Q341.762 1549.52 338.683 1544.94 Q335.628 1540.33 335.628 1531.6 Q335.628 1522.85 338.683 1518.27 Q341.762 1513.66 347.572 1513.66 Z" fill="#000000" fill-rule="nonzero" fill-opacity="1" /><path clip-path="url(#clip860)" d="M736.721 1532.02 L766.397 1532.02 L766.397 1535.95 L736.721 1535.95 L736.721 1532.02 Z" fill="#000000" fill-rule="nonzero" fill-opacity="1" /><path clip-path="url(#clip860)" d="M786.489 1517.37 Q782.878 1517.37 781.05 1520.93 Q779.244 1524.47 779.244 1531.6 Q779.244 1538.71 781.05 1542.27 Q782.878 1545.82 786.489 1545.82 Q790.124 1545.82 791.929 1542.27 Q793.758 1538.71 793.758 1531.6 Q793.758 1524.47 791.929 1520.93 Q790.124 1517.37 786.489 1517.37 M786.489 1513.66 Q792.299 1513.66 795.355 1518.27 Q798.434 1522.85 798.434 1531.6 Q798.434 1540.33 795.355 1544.94 Q792.299 1549.52 786.489 1549.52 Q780.679 1549.52 777.6 1544.94 Q774.545 1540.33 774.545 1531.6 Q774.545 1522.85 777.6 1518.27 Q780.679 1513.66 786.489 1513.66 Z" fill="#000000" fill-rule="nonzero" fill-opacity="1" /><path clip-path="url(#clip860)" d="M806.651 1542.97 L811.535 1542.97 L811.535 1548.85 L806.651 1548.85 L806.651 1542.97 Z" fill="#000000" fill-rule="nonzero" fill-opacity="1" /><path clip-path="url(#clip860)" d="M821.767 1514.29 L840.123 1514.29 L840.123 1518.22 L826.049 1518.22 L826.049 1526.7 Q827.068 1526.35 828.086 1526.19 Q829.105 1526 830.123 1526 Q835.91 1526 839.29 1529.17 Q842.67 1532.34 842.67 1537.76 Q842.67 1543.34 839.197 1546.44 Q835.725 1549.52 829.406 1549.52 Q827.23 1549.52 824.961 1549.15 Q822.716 1548.78 820.309 1548.04 L820.309 1543.34 Q822.392 1544.47 824.614 1545.03 Q826.836 1545.58 829.313 1545.58 Q833.318 1545.58 835.656 1543.48 Q837.994 1541.37 837.994 1537.76 Q837.994 1534.15 835.656 1532.04 Q833.318 1529.94 829.313 1529.94 Q827.438 1529.94 825.563 1530.35 Q823.711 1530.77 821.767 1531.65 L821.767 1514.29 Z" fill="#000000" fill-rule="nonzero" fill-opacity="1" /><path clip-path="url(#clip860)" d="M1250.73 1517.37 Q1247.12 1517.37 1245.29 1520.93 Q1243.49 1524.47 1243.49 1531.6 Q1243.49 1538.71 1245.29 1542.27 Q1247.12 1545.82 1250.73 1545.82 Q1254.36 1545.82 1256.17 1542.27 Q1258 1538.71 1258 1531.6 Q1258 1524.47 1256.17 1520.93 Q1254.36 1517.37 1250.73 1517.37 M1250.73 1513.66 Q1256.54 1513.66 1259.6 1518.27 Q1262.67 1522.85 1262.67 1531.6 Q1262.67 1540.33 1259.6 1544.94 Q1256.54 1549.52 1250.73 1549.52 Q1244.92 1549.52 1241.84 1544.94 Q1238.79 1540.33 1238.79 1531.6 Q1238.79 1522.85 1241.84 1518.27 Q1244.92 1513.66 1250.73 1513.66 Z" fill="#000000" fill-rule="nonzero" fill-opacity="1" /><path clip-path="url(#clip860)" d="M1270.89 1542.97 L1275.78 1542.97 L1275.78 1548.85 L1270.89 1548.85 L1270.89 1542.97 Z" fill="#000000" fill-rule="nonzero" fill-opacity="1" /><path clip-path="url(#clip860)" d="M1295.96 1517.37 Q1292.35 1517.37 1290.52 1520.93 Q1288.72 1524.47 1288.72 1531.6 Q1288.72 1538.71 1290.52 1542.27 Q1292.35 1545.82 1295.96 1545.82 Q1299.6 1545.82 1301.4 1542.27 Q1303.23 1538.71 1303.23 1531.6 Q1303.23 1524.47 1301.4 1520.93 Q1299.6 1517.37 1295.96 1517.37 M1295.96 1513.66 Q1301.77 1513.66 1304.83 1518.27 Q1307.91 1522.85 1307.91 1531.6 Q1307.91 1540.33 1304.83 1544.94 Q1301.77 1549.52 1295.96 1549.52 Q1290.15 1549.52 1287.07 1544.94 Q1284.02 1540.33 1284.02 1531.6 Q1284.02 1522.85 1287.07 1518.27 Q1290.15 1513.66 1295.96 1513.66 Z" fill="#000000" fill-rule="nonzero" fill-opacity="1" /><path clip-path="url(#clip860)" d="M1734.88 1517.37 Q1731.27 1517.37 1729.44 1520.93 Q1727.63 1524.47 1727.63 1531.6 Q1727.63 1538.71 1729.44 1542.27 Q1731.27 1545.82 1734.88 1545.82 Q1738.51 1545.82 1740.32 1542.27 Q1742.15 1538.71 1742.15 1531.6 Q1742.15 1524.47 1740.32 1520.93 Q1738.51 1517.37 1734.88 1517.37 M1734.88 1513.66 Q1740.69 1513.66 1743.74 1518.27 Q1746.82 1522.85 1746.82 1531.6 Q1746.82 1540.33 1743.74 1544.94 Q1740.69 1549.52 1734.88 1549.52 Q1729.07 1549.52 1725.99 1544.94 Q1722.93 1540.33 1722.93 1531.6 Q1722.93 1522.85 1725.99 1518.27 Q1729.07 1513.66 1734.88 1513.66 Z" fill="#000000" fill-rule="nonzero" fill-opacity="1" /><path clip-path="url(#clip860)" d="M1755.04 1542.97 L1759.92 1542.97 L1759.92 1548.85 L1755.04 1548.85 L1755.04 1542.97 Z" fill="#000000" fill-rule="nonzero" fill-opacity="1" /><path clip-path="url(#clip860)" d="M1770.16 1514.29 L1788.51 1514.29 L1788.51 1518.22 L1774.44 1518.22 L1774.44 1526.7 Q1775.46 1526.35 1776.48 1526.19 Q1777.49 1526 1778.51 1526 Q1784.3 1526 1787.68 1529.17 Q1791.06 1532.34 1791.06 1537.76 Q1791.06 1543.34 1787.59 1546.44 Q1784.11 1549.52 1777.8 1549.52 Q1775.62 1549.52 1773.35 1549.15 Q1771.11 1548.78 1768.7 1548.04 L1768.7 1543.34 Q1770.78 1544.47 1773 1545.03 Q1775.23 1545.58 1777.7 1545.58 Q1781.71 1545.58 1784.05 1543.48 Q1786.38 1541.37 1786.38 1537.76 Q1786.38 1534.15 1784.05 1532.04 Q1781.71 1529.94 1777.7 1529.94 Q1775.83 1529.94 1773.95 1530.35 Q1772.1 1530.77 1770.16 1531.65 L1770.16 1514.29 Z" fill="#000000" fill-rule="nonzero" fill-opacity="1" /><path clip-path="url(#clip860)" d="M2207.8 1544.91 L2215.44 1544.91 L2215.44 1518.55 L2207.13 1520.21 L2207.13 1515.95 L2215.39 1514.29 L2220.07 1514.29 L2220.07 1544.91 L2227.71 1544.91 L2227.71 1548.85 L2207.8 1548.85 L2207.8 1544.91 Z" fill="#000000" fill-rule="nonzero" fill-opacity="1" /><path clip-path="url(#clip860)" d="M2237.15 1542.97 L2242.04 1542.97 L2242.04 1548.85 L2237.15 1548.85 L2237.15 1542.97 Z" fill="#000000" fill-rule="nonzero" fill-opacity="1" /><path clip-path="url(#clip860)" d="M2262.22 1517.37 Q2258.61 1517.37 2256.78 1520.93 Q2254.98 1524.47 2254.98 1531.6 Q2254.98 1538.71 2256.78 1542.27 Q2258.61 1545.82 2262.22 1545.82 Q2265.86 1545.82 2267.66 1542.27 Q2269.49 1538.71 2269.49 1531.6 Q2269.49 1524.47 2267.66 1520.93 Q2265.86 1517.37 2262.22 1517.37 M2262.22 1513.66 Q2268.03 1513.66 2271.09 1518.27 Q2274.17 1522.85 2274.17 1531.6 Q2274.17 1540.33 2271.09 1544.94 Q2268.03 1549.52 2262.22 1549.52 Q2256.41 1549.52 2253.33 1544.94 Q2250.28 1540.33 2250.28 1531.6 Q2250.28 1522.85 2253.33 1518.27 Q2256.41 1513.66 2262.22 1513.66 Z" fill="#000000" fill-rule="nonzero" fill-opacity="1" /><polyline clip-path="url(#clip862)" style="stroke:#000000; stroke-linecap:round; stroke-linejoin:round; stroke-width:2; stroke-opacity:0.1; fill:none" points="193.936,1435.88 2352.76,1435.88 "/>
<polyline clip-path="url(#clip862)" style="stroke:#000000; stroke-linecap:round; stroke-linejoin:round; stroke-width:2; stroke-opacity:0.1; fill:none" points="193.936,1100.05 2352.76,1100.05 "/>
<polyline clip-path="url(#clip862)" style="stroke:#000000; stroke-linecap:round; stroke-linejoin:round; stroke-width:2; stroke-opacity:0.1; fill:none" points="193.936,764.222 2352.76,764.222 "/>
<polyline clip-path="url(#clip862)" style="stroke:#000000; stroke-linecap:round; stroke-linejoin:round; stroke-width:2; stroke-opacity:0.1; fill:none" points="193.936,428.395 2352.76,428.395 "/>
<polyline clip-path="url(#clip862)" style="stroke:#000000; stroke-linecap:round; stroke-linejoin:round; stroke-width:2; stroke-opacity:0.1; fill:none" points="193.936,92.5677 2352.76,92.5677 "/>
<polyline clip-path="url(#clip860)" style="stroke:#000000; stroke-linecap:round; stroke-linejoin:round; stroke-width:4; stroke-opacity:1; fill:none" points="193.936,1486.45 193.936,47.2441 "/>
<polyline clip-path="url(#clip860)" style="stroke:#000000; stroke-linecap:round; stroke-linejoin:round; stroke-width:4; stroke-opacity:1; fill:none" points="193.936,1435.88 212.834,1435.88 "/>
<polyline clip-path="url(#clip860)" style="stroke:#000000; stroke-linecap:round; stroke-linejoin:round; stroke-width:4; stroke-opacity:1; fill:none" points="193.936,1100.05 212.834,1100.05 "/>
<polyline clip-path="url(#clip860)" style="stroke:#000000; stroke-linecap:round; stroke-linejoin:round; stroke-width:4; stroke-opacity:1; fill:none" points="193.936,764.222 212.834,764.222 "/>
<polyline clip-path="url(#clip860)" style="stroke:#000000; stroke-linecap:round; stroke-linejoin:round; stroke-width:4; stroke-opacity:1; fill:none" points="193.936,428.395 212.834,428.395 "/>
<polyline clip-path="url(#clip860)" style="stroke:#000000; stroke-linecap:round; stroke-linejoin:round; stroke-width:4; stroke-opacity:1; fill:none" points="193.936,92.5677 212.834,92.5677 "/>
<path clip-path="url(#clip860)" d="M50.9921 1436.33 L80.6679 1436.33 L80.6679 1440.26 L50.9921 1440.26 L50.9921 1436.33 Z" fill="#000000" fill-rule="nonzero" fill-opacity="1" /><path clip-path="url(#clip860)" d="M91.5706 1449.22 L99.2095 1449.22 L99.2095 1422.86 L90.8993 1424.52 L90.8993 1420.26 L99.1632 1418.6 L103.839 1418.6 L103.839 1449.22 L111.478 1449.22 L111.478 1453.16 L91.5706 1453.16 L91.5706 1449.22 Z" fill="#000000" fill-rule="nonzero" fill-opacity="1" /><path clip-path="url(#clip860)" d="M120.922 1447.28 L125.807 1447.28 L125.807 1453.16 L120.922 1453.16 L120.922 1447.28 Z" fill="#000000" fill-rule="nonzero" fill-opacity="1" /><path clip-path="url(#clip860)" d="M145.992 1421.68 Q142.381 1421.68 140.552 1425.24 Q138.746 1428.78 138.746 1435.91 Q138.746 1443.02 140.552 1446.58 Q142.381 1450.12 145.992 1450.12 Q149.626 1450.12 151.431 1446.58 Q153.26 1443.02 153.26 1435.91 Q153.26 1428.78 151.431 1425.24 Q149.626 1421.68 145.992 1421.68 M145.992 1417.97 Q151.802 1417.97 154.857 1422.58 Q157.936 1427.16 157.936 1435.91 Q157.936 1444.64 154.857 1449.24 Q151.802 1453.83 145.992 1453.83 Q140.181 1453.83 137.103 1449.24 Q134.047 1444.64 134.047 1435.91 Q134.047 1427.16 137.103 1422.58 Q140.181 1417.97 145.992 1417.97 Z" fill="#000000" fill-rule="nonzero" fill-opacity="1" /><path clip-path="url(#clip860)" d="M51.9875 1100.5 L81.6633 1100.5 L81.6633 1104.44 L51.9875 1104.44 L51.9875 1100.5 Z" fill="#000000" fill-rule="nonzero" fill-opacity="1" /><path clip-path="url(#clip860)" d="M101.756 1085.85 Q98.1447 1085.85 96.316 1089.41 Q94.5104 1092.95 94.5104 1100.08 Q94.5104 1107.19 96.316 1110.76 Q98.1447 1114.3 101.756 1114.3 Q105.39 1114.3 107.196 1110.76 Q109.024 1107.19 109.024 1100.08 Q109.024 1092.95 107.196 1089.41 Q105.39 1085.85 101.756 1085.85 M101.756 1082.14 Q107.566 1082.14 110.621 1086.75 Q113.7 1091.33 113.7 1100.08 Q113.7 1108.81 110.621 1113.42 Q107.566 1118 101.756 1118 Q95.9456 1118 92.8669 1113.42 Q89.8114 1108.81 89.8114 1100.08 Q89.8114 1091.33 92.8669 1086.75 Q95.9456 1082.14 101.756 1082.14 Z" fill="#000000" fill-rule="nonzero" fill-opacity="1" /><path clip-path="url(#clip860)" d="M121.918 1111.45 L126.802 1111.45 L126.802 1117.33 L121.918 1117.33 L121.918 1111.45 Z" fill="#000000" fill-rule="nonzero" fill-opacity="1" /><path clip-path="url(#clip860)" d="M137.033 1082.77 L155.39 1082.77 L155.39 1086.7 L141.316 1086.7 L141.316 1095.18 Q142.334 1094.83 143.353 1094.67 Q144.371 1094.48 145.39 1094.48 Q151.177 1094.48 154.556 1097.65 Q157.936 1100.83 157.936 1106.24 Q157.936 1111.82 154.464 1114.92 Q150.992 1118 144.672 1118 Q142.496 1118 140.228 1117.63 Q137.982 1117.26 135.575 1116.52 L135.575 1111.82 Q137.658 1112.95 139.881 1113.51 Q142.103 1114.07 144.58 1114.07 Q148.584 1114.07 150.922 1111.96 Q153.26 1109.85 153.26 1106.24 Q153.26 1102.63 150.922 1100.52 Q148.584 1098.42 144.58 1098.42 Q142.705 1098.42 140.83 1098.83 Q138.978 1099.25 137.033 1100.13 L137.033 1082.77 Z" fill="#000000" fill-rule="nonzero" fill-opacity="1" /><path clip-path="url(#clip860)" d="M100.76 750.021 Q97.1493 750.021 95.3206 753.586 Q93.515 757.127 93.515 764.257 Q93.515 771.363 95.3206 774.928 Q97.1493 778.47 100.76 778.47 Q104.395 778.47 106.2 774.928 Q108.029 771.363 108.029 764.257 Q108.029 757.127 106.2 753.586 Q104.395 750.021 100.76 750.021 M100.76 746.317 Q106.571 746.317 109.626 750.924 Q112.705 755.507 112.705 764.257 Q112.705 772.984 109.626 777.59 Q106.571 782.174 100.76 782.174 Q94.9502 782.174 91.8715 777.59 Q88.816 772.984 88.816 764.257 Q88.816 755.507 91.8715 750.924 Q94.9502 746.317 100.76 746.317 Z" fill="#000000" fill-rule="nonzero" fill-opacity="1" /><path clip-path="url(#clip860)" d="M120.922 775.623 L125.807 775.623 L125.807 781.502 L120.922 781.502 L120.922 775.623 Z" fill="#000000" fill-rule="nonzero" fill-opacity="1" /><path clip-path="url(#clip860)" d="M145.992 750.021 Q142.381 750.021 140.552 753.586 Q138.746 757.127 138.746 764.257 Q138.746 771.363 140.552 774.928 Q142.381 778.47 145.992 778.47 Q149.626 778.47 151.431 774.928 Q153.26 771.363 153.26 764.257 Q153.26 757.127 151.431 753.586 Q149.626 750.021 145.992 750.021 M145.992 746.317 Q151.802 746.317 154.857 750.924 Q157.936 755.507 157.936 764.257 Q157.936 772.984 154.857 777.59 Q151.802 782.174 145.992 782.174 Q140.181 782.174 137.103 777.59 Q134.047 772.984 134.047 764.257 Q134.047 755.507 137.103 750.924 Q140.181 746.317 145.992 746.317 Z" fill="#000000" fill-rule="nonzero" fill-opacity="1" /><path clip-path="url(#clip860)" d="M101.756 414.194 Q98.1447 414.194 96.316 417.758 Q94.5104 421.3 94.5104 428.43 Q94.5104 435.536 96.316 439.101 Q98.1447 442.643 101.756 442.643 Q105.39 442.643 107.196 439.101 Q109.024 435.536 109.024 428.43 Q109.024 421.3 107.196 417.758 Q105.39 414.194 101.756 414.194 M101.756 410.49 Q107.566 410.49 110.621 415.096 Q113.7 419.68 113.7 428.43 Q113.7 437.157 110.621 441.763 Q107.566 446.346 101.756 446.346 Q95.9456 446.346 92.8669 441.763 Q89.8114 437.157 89.8114 428.43 Q89.8114 419.68 92.8669 415.096 Q95.9456 410.49 101.756 410.49 Z" fill="#000000" fill-rule="nonzero" fill-opacity="1" /><path clip-path="url(#clip860)" d="M121.918 439.795 L126.802 439.795 L126.802 445.675 L121.918 445.675 L121.918 439.795 Z" fill="#000000" fill-rule="nonzero" fill-opacity="1" /><path clip-path="url(#clip860)" d="M137.033 411.115 L155.39 411.115 L155.39 415.05 L141.316 415.05 L141.316 423.522 Q142.334 423.175 143.353 423.013 Q144.371 422.828 145.39 422.828 Q151.177 422.828 154.556 425.999 Q157.936 429.17 157.936 434.587 Q157.936 440.166 154.464 443.268 Q150.992 446.346 144.672 446.346 Q142.496 446.346 140.228 445.976 Q137.982 445.606 135.575 444.865 L135.575 440.166 Q137.658 441.3 139.881 441.856 Q142.103 442.411 144.58 442.411 Q148.584 442.411 150.922 440.305 Q153.26 438.198 153.26 434.587 Q153.26 430.976 150.922 428.87 Q148.584 426.763 144.58 426.763 Q142.705 426.763 140.83 427.18 Q138.978 427.596 137.033 428.476 L137.033 411.115 Z" fill="#000000" fill-rule="nonzero" fill-opacity="1" /><path clip-path="url(#clip860)" d="M91.5706 105.913 L99.2095 105.913 L99.2095 79.5469 L90.8993 81.2136 L90.8993 76.9543 L99.1632 75.2877 L103.839 75.2877 L103.839 105.913 L111.478 105.913 L111.478 109.848 L91.5706 109.848 L91.5706 105.913 Z" fill="#000000" fill-rule="nonzero" fill-opacity="1" /><path clip-path="url(#clip860)" d="M120.922 103.968 L125.807 103.968 L125.807 109.848 L120.922 109.848 L120.922 103.968 Z" fill="#000000" fill-rule="nonzero" fill-opacity="1" /><path clip-path="url(#clip860)" d="M145.992 78.3664 Q142.381 78.3664 140.552 81.9311 Q138.746 85.4728 138.746 92.6024 Q138.746 99.7088 140.552 103.274 Q142.381 106.815 145.992 106.815 Q149.626 106.815 151.431 103.274 Q153.26 99.7088 153.26 92.6024 Q153.26 85.4728 151.431 81.9311 Q149.626 78.3664 145.992 78.3664 M145.992 74.6627 Q151.802 74.6627 154.857 79.2691 Q157.936 83.8524 157.936 92.6024 Q157.936 101.329 154.857 105.936 Q151.802 110.519 145.992 110.519 Q140.181 110.519 137.103 105.936 Q134.047 101.329 134.047 92.6024 Q134.047 83.8524 137.103 79.2691 Q140.181 74.6627 145.992 74.6627 Z" fill="#000000" fill-rule="nonzero" fill-opacity="1" /><polyline clip-path="url(#clip862)" style="stroke:#009af9; stroke-linecap:round; stroke-linejoin:round; stroke-width:4; stroke-opacity:1; fill:none" points="1273.35,92.5677 1369.82,95.8472 1465.34,106.014 1559.1,122.412 1649.78,144.713 1736.92,173.245 1819.81,206.696 1897.27,244.739 1969.07,287.046 2034.25,332.96 2092.81,382.153 2144.29,433.478 2188.22,487.099 2224.12,542.36 2251.98,598.686 2271.82,655.997 2283.16,713.84 2285.99,771.965 2281.27,830.019 2267.1,887.78 2245.37,944.926 2215.14,1001.01 2177.36,1055.78 2131.54,1108.9 2078.17,1159.74 2017.71,1207.95 1950.65,1252.88 1876.96,1294.2 1798.09,1331.26 1714.25,1363.4 1625.93,1390.29 1534.3,1411.28 1440.07,1425.71 1344.19,1434.24 1247.6,1435.55 1151.25,1430.63 1056.2,1418.82 963.271,1400.79 873.295,1376.52 787.334,1347 705.623,1312.24 629.581,1272.88 559.678,1229.26 495.915,1182.69 439.238,1132.85 390.117,1080.86 348.081,1026.75 314.546,971.163 289.041,914.508 271.093,857.034 261.647,799.109 261.647,740.999 268.259,682.971 284.318,625.415 308.406,568.596 340.996,512.68 381.143,458.403 428.847,405.766 484.107,355.589 546.453,308.035 614.939,264.089 690.037,223.75 770.33,188.003 855.583,157.503 944.851,132.25 1037.31,112.901 1132.01,99.7827 1228.21,93.2236 1324.83,93.5515 1420.94,100.439 1515.64,113.885 1607.75,133.562 1696.78,159.143 1781.56,190.299 1861.85,226.374 1936.48,267.04 2004.49,311.315 2066.36,358.868 2121.15,409.046 2168.38,461.847 2208.06,516.287 2239.7,572.204 2263.32,629.186 2278.43,686.784 2285.99,744.811 2284.1,802.942 2274.65,860.887 2256.71,918.28 2230.26,974.934 2195.78,1030.36 2153.74,1084.31 2103.68,1136.12 2046.53,1185.65 1982.76,1232.22 1911.92,1275.51 1835.87,1314.53 1753.93,1348.97 1667.73,1378.48 1577.52,1402.1 1484.35,1419.81 1389.12,1430.96 1292.74,1435.88 1196.18,1433.58 1100.36,1425.05 1006.25,1409.97 914.859,1388.65 826.772,1361.43 743.408,1328.96 664.532,1291.58 591.795,1250.25 524.727,1205 464.743,1156.46 412.316,1105.3 366.973,1052.17 329.188,997.399 299.432,941.155 278.65,884.008 265.426,826.206 260.702,768.148 264.481,710.028 275.817,652.225 296.598,594.997 324.937,538.588 361.306,483.492 405.703,430.035 457.186,378.874 516.225,330.008 582.349,284.094 654.141,242.116 732.073,204.401 815.2,170.949 902.815,143.073 993.735,121.1 1087.61,105.03 1183.19,95.5193 1279.7,92.5677 1376.13,96.5031 1471.6,106.67 1565,123.724 1655.68,146.68 1742.59,175.213 1825.01,208.992 1902,247.363 1973.32,289.997 2038.5,336.239 2096.59,385.433 2147.6,437.086 2190.58,490.707 2226.01,545.967 2253.87,602.458 2272.76,659.768 2283.16,717.694 2285.99,775.783 2280.32,833.831 2266.15,891.551 2243.48,948.534 2212.78,1004.61 2174.52,1059.38 2128.24,1112.18 2074.39,1163.02 2013.46,1210.9 1945.92,1255.83 1872.24,1296.82 1792.89,1333.55 1708.58,1365.37 1620.03,1391.6 1528.16,1412.26 1433.81,1426.69 1337.82,1434.24 1241.26,1435.55 1144.99,1429.97 1049.94,1417.84 957.131,1399.15 867.391,1374.88 781.666,1344.71 700.428,1309.61 624.857,1269.93 555.427,1226.31 492.137,1179.42 435.931,1129.57 386.811,1077.26 345.719,1023.14 312.657,967.555 287.152,910.819 270.149,853.262 261.647,795.296 261.647,737.166 269.204,679.2 286.207,621.643 310.296,564.825 343.358,509.072 383.977,454.795 432.153,402.486 487.886,352.309 550.704,305.083 620.134,261.465 695.232,221.455 775.998,186.035 861.487,155.535 950.755,130.611 "/>
<polyline clip-path="url(#clip862)" style="stroke:#e26f46; stroke-linecap:round; stroke-linejoin:round; stroke-width:4; stroke-opacity:1; fill:none" points="1273.35,92.5677 1367.81,106.998 1456.13,131.267 1533.59,161.439 1602.55,195.546 1665.84,232.933 1724.17,271.632 1780.61,311.643 1837.29,352.965 1892.55,394.288 1944.03,435.61 1996.93,476.933 2045.11,515.631 2091.4,554.986 2137.68,596.309 2176.41,636.975 2216.09,682.233 2247.26,729.459 2270.88,780.62 2285.04,835.717 2285.99,895.405 2269.93,957.717 2241.59,1024.95 2196.25,1095.13 2132.01,1165.64 2050.78,1234.51 1950.65,1296.82 1838.71,1349.95 1717.79,1390.62 1592.63,1417.51 1473.14,1431.61 1361.67,1434.57 1261.54,1427.35 1171.33,1412.26 1087.73,1388.65 1013.57,1359.79 950.755,1327.65 888.409,1291.58 830.078,1252.88 776.471,1214.18 716.959,1171.54 665.949,1132.19 611.16,1090.87 562.039,1051.51 512.446,1012.16 467.576,973.459 420.345,932.136 375.947,889.502 340.524,846.867 312.657,801.609 288.097,751.76 272.983,697.975 270.149,639.599 280.54,577.287 306.045,510.384 349.025,440.529 409.954,370.019 490.248,301.804 587.544,238.836 699.483,185.379 818.034,143.073 939.892,113.885 1055.14,95.5193 1168.96,89.944 1270.98,95.1913 1363.09,108.965 1447.16,130.611 1522.73,158.159 1590.27,190.955 1653.56,227.03 1713.54,265.729 1770.22,305.739 1826.9,347.062 1881.22,388.384 1929.39,428.395 1978.04,467.75 2032.83,509.728 2086.67,551.051 2132.01,591.061 2175.47,633.04 2213.25,676.986 2243.48,722.9 2267.1,772.749 2284.1,827.846 2288.82,887.534 2278.43,951.157 2250.09,1018.72 2205.22,1088.9 2143.35,1160.39 2061.17,1229.26 1961.98,1292.89 1850.99,1347.66 1730.55,1390.62 1607.75,1421.12 1488.25,1439.16 1376.31,1445.72 1268.62,1439.81 1172.27,1424.07 1083.95,1399.15 1004.13,1368.32 935.168,1334.21 870.934,1296.17 809.06,1255.5 748.604,1213.52 696.177,1174.17 645.167,1133.5 595.574,1094.15 545.981,1054.79 493.554,1014.13 446.795,974.114 400.98,932.792 357.999,890.158 319.742,844.9 288.097,796.362 266.37,745.857 255.035,690.76 255.979,631.072 271.093,567.449 300.377,499.234 348.553,428.723 415.149,357.556 498.749,289.014 599.825,227.03 713.18,173.573 834.565,133.234 956.895,104.374 1079.22,91.2558 1188.8,87.9763 1289.4,94.5354 1380.56,109.621 1463.69,131.922 1536.43,159.471 1600.66,190.955 1664.9,227.03 1727.24,267.04 1785.34,307.707 1837.29,347.062 1892.08,389.04 1945.45,430.363 1997.88,471.029 2047,510.384 2095.17,550.395 2138.63,590.405 2182.55,633.696 2219.39,677.642 2251.04,725.523 2274.65,776.029 2290.71,831.781 2291.66,890.813 2279.38,954.437 2251.04,1022 2204.75,1092.51 2139.57,1163.67 2058.33,1233.2 1960.09,1296.82 1846.26,1350.28 1724.41,1391.93 1597.83,1419.81 1473.61,1432.93 1362.14,1435.88 1262.96,1429.97 1169.44,1413.58 1084.89,1389.31 1012.16,1361.1 944.142,1327 879.908,1289.61 821.34,1251.57 767.969,1212.21 711.291,1170.89 658.392,1130.22 609.271,1090.87 562.039,1052.82 512.919,1013.47 462.381,972.803 414.677,931.48 367.918,886.878 329.188,840.964 300.377,794.394 277.706,743.889 265.426,690.104 266.37,631.728 280.54,568.76 308.879,501.857 355.165,432.33 418.456,362.148 500.639,294.589 599.825,233.261 713.18,182.428 829.842,141.433 951.227,113.885 1067.42,98.4709 1176.52,93.8795 1278.07,100.439 1370.17,115.525 1453.3,139.137 1528.4,167.998 1593.1,199.481 1658.28,236.868 1716.61,275.567 1770.22,314.266 "/>
<polyline clip-path="url(#clip862)" style="stroke:#3da44d; stroke-linecap:round; stroke-linejoin:round; stroke-width:4; stroke-opacity:1; fill:none" points="1273.35,92.5677 1368.05,96.1752 1462.04,106.014 1554.37,122.74 1644.35,145.041 1731.02,172.917 1813.67,205.713 1891.13,243.428 1962.93,285.078 2028.58,330.664 2087.62,379.202 2139.1,430.199 2183.5,483.328 2219.39,537.932 2247.26,594.177 2267.1,651.323 2278.43,709.044 2281.27,767.01 2275.6,824.894 2262.37,882.533 2240.65,939.843 2211.36,996.087 2174.52,1051.18 2130.13,1104.64 2078.64,1155.8 2020.55,1204.34 1955.37,1249.93 1884.52,1291.9 1807.53,1329.62 1726.3,1362.74 1641.04,1390.29 1552.01,1412.26 1460.03,1428.01 1366.1,1437.19 1271.22,1439.81 1176.17,1435.55 1082.06,1425.38 989.248,1408.66 899.745,1386.03 813.311,1357.82 731.128,1324.7 653.669,1286.98 581.877,1245.01 516.225,1199.75 457.658,1151.21 406.175,1100.05 362.723,1046.92 326.827,991.988 298.488,935.744 279.595,878.515 268.259,820.877 265.426,762.992 271.093,705.067 284.318,647.47 306.045,590.241 335.328,533.997 372.641,479.064 417.511,425.771 469.466,374.61 528.505,326.073 593.685,280.815 665.004,238.836 741.519,201.121 823.23,168.326 908.719,140.449 997.986,118.476 1089.97,102.734 1183.84,93.2236 1278.51,89.944 1373.36,93.5515 1467.59,104.046 1560.51,120.772 1650.73,143.729 1737.4,172.261 1819.81,206.041 1897.27,244.084 1969.07,286.39 2034.72,332.304 2093.28,380.841 2144.77,432.166 2188.69,485.623 2224.59,540.884 2251.98,597.293 2270.88,654.603 2281.27,712.405 2283.16,770.372 2277.49,828.543 2263.32,886.632 2240.65,943.942 2210.42,1000.02 2173.11,1054.79 2128.24,1108.25 2075.81,1159.41 2016.77,1207.62 1951.59,1252.88 1879.8,1294.53 1802.34,1331.91 1720.63,1364.71 1634.43,1391.93 1544.69,1413.25 1452.83,1428.66 1358.83,1437.19 1264.02,1439.81 1169.08,1435.55 1074.97,1424.4 982.636,1407.02 892.896,1384.06 806.935,1355.2 724.988,1321.75 648.001,1283.71 576.681,1241.73 511.974,1195.81 453.879,1146.95 403.342,1095.79 360.361,1042.49 325.882,987.561 298.488,931.398 279.595,874.252 269.204,816.695 267.315,758.565 272.983,700.435 287.152,642.551 309.823,585.486 340.051,529.406 377.837,474.637 423.179,421.508 475.606,370.675 534.645,322.465 600.769,277.535 672.089,236.213 749.076,199.153 831.023,166.686 916.984,139.465 1005.78,118.148 1097.88,103.062 1191.87,94.2074 1286.31,91.9118 1380.97,96.5031 1475.02,107.654 1567.13,124.707 1656.87,147.992 1742.83,176.852 1824.07,210.632 1901.05,249.003 1972.37,291.309 2037.55,337.223 2096.12,386.089 2147.13,437.25 2190.11,490.707 2225.06,545.967 2251.04,602.294 2269.93,659.44 2280.32,717.243 2282.21,775.209 2275.6,833.134 2260.48,890.568 2237.81,947.714 2207.11,1003.96 2168.86,1058.89 2123.51,1111.86 2070.61,1162.69 2011.1,1210.9 1945.45,1255.83 1874.13,1297.15 1796.67,1334.21 1714.49,1366.68 1628.53,1393.57 1539.02,1414.56 1446.8,1429.32 1352.69,1437.84 1258,1439.16 1163.77,1434.89 1069.78,1423.74 977.677,1406.69 887.701,1383.4 801.267,1354.22 719.32,1320.11 642.805,1281.41 571.486,1238.78 506.779,1192.86 449.156,1144 398.618,1092.51 355.638,1039.05 321.631,983.953 295.654,927.709 277.706,870.644 267.315,812.842 265.426,755.04 272.038,697.155 286.207,639.271 308.879,581.879 339.579,525.798 377.837,470.701 423.651,417.9 477.023,367.067 536.534,318.53 603.131,273.272 675.395,232.277 752.382,195.546 834.565,163.406 "/>
<path clip-path="url(#clip860)" d="M265.897 1438.47 L781.708 1438.47 L781.708 1231.11 L265.897 1231.11  Z" fill="#ffffff" fill-rule="evenodd" fill-opacity="1"/>
<polyline clip-path="url(#clip860)" style="stroke:#000000; stroke-linecap:round; stroke-linejoin:round; stroke-width:4; stroke-opacity:1; fill:none" points="265.897,1438.47 781.708,1438.47 781.708,1231.11 265.897,1231.11 265.897,1438.47 "/>
<polyline clip-path="url(#clip860)" style="stroke:#009af9; stroke-linecap:round; stroke-linejoin:round; stroke-width:4; stroke-opacity:1; fill:none" points="289.884,1282.95 433.805,1282.95 "/>
<path clip-path="url(#clip860)" d="M465.199 1266.95 L465.199 1274.31 L473.972 1274.31 L473.972 1277.62 L465.199 1277.62 L465.199 1291.69 Q465.199 1294.86 466.056 1295.77 Q466.935 1296.67 469.597 1296.67 L473.972 1296.67 L473.972 1300.23 L469.597 1300.23 Q464.667 1300.23 462.792 1298.41 Q460.917 1296.55 460.917 1291.69 L460.917 1277.62 L457.792 1277.62 L457.792 1274.31 L460.917 1274.31 L460.917 1266.95 L465.199 1266.95 Z" fill="#000000" fill-rule="nonzero" fill-opacity="1" /><path clip-path="url(#clip860)" d="M494.597 1278.29 Q493.88 1277.87 493.023 1277.69 Q492.19 1277.48 491.171 1277.48 Q487.56 1277.48 485.616 1279.84 Q483.694 1282.18 483.694 1286.58 L483.694 1300.23 L479.412 1300.23 L479.412 1274.31 L483.694 1274.31 L483.694 1278.34 Q485.037 1275.98 487.19 1274.84 Q489.343 1273.68 492.421 1273.68 Q492.861 1273.68 493.393 1273.75 Q493.926 1273.8 494.574 1273.92 L494.597 1278.29 Z" fill="#000000" fill-rule="nonzero" fill-opacity="1" /><path clip-path="url(#clip860)" d="M510.847 1287.2 Q505.685 1287.2 503.694 1288.38 Q501.704 1289.56 501.704 1292.41 Q501.704 1294.68 503.185 1296.02 Q504.69 1297.34 507.259 1297.34 Q510.801 1297.34 512.93 1294.84 Q515.083 1292.32 515.083 1288.15 L515.083 1287.2 L510.847 1287.2 M519.342 1285.44 L519.342 1300.23 L515.083 1300.23 L515.083 1296.3 Q513.625 1298.66 511.449 1299.79 Q509.273 1300.91 506.125 1300.91 Q502.143 1300.91 499.782 1298.68 Q497.444 1296.44 497.444 1292.69 Q497.444 1288.31 500.361 1286.09 Q503.301 1283.87 509.111 1283.87 L515.083 1283.87 L515.083 1283.45 Q515.083 1280.51 513.139 1278.92 Q511.217 1277.29 507.722 1277.29 Q505.5 1277.29 503.393 1277.83 Q501.287 1278.36 499.342 1279.42 L499.342 1275.49 Q501.68 1274.59 503.879 1274.15 Q506.079 1273.68 508.162 1273.68 Q513.787 1273.68 516.565 1276.6 Q519.342 1279.52 519.342 1285.44 Z" fill="#000000" fill-rule="nonzero" fill-opacity="1" /><path clip-path="url(#clip860)" d="M528.115 1274.31 L532.375 1274.31 L532.375 1300.23 L528.115 1300.23 L528.115 1274.31 M528.115 1264.22 L532.375 1264.22 L532.375 1269.61 L528.115 1269.61 L528.115 1264.22 Z" fill="#000000" fill-rule="nonzero" fill-opacity="1" /><path clip-path="url(#clip860)" d="M562.837 1284.59 L562.837 1300.23 L558.578 1300.23 L558.578 1284.73 Q558.578 1281.04 557.143 1279.22 Q555.708 1277.39 552.838 1277.39 Q549.388 1277.39 547.398 1279.59 Q545.407 1281.79 545.407 1285.58 L545.407 1300.23 L541.125 1300.23 L541.125 1274.31 L545.407 1274.31 L545.407 1278.34 Q546.935 1276 548.995 1274.84 Q551.078 1273.68 553.787 1273.68 Q558.254 1273.68 560.546 1276.46 Q562.837 1279.22 562.837 1284.59 Z" fill="#000000" fill-rule="nonzero" fill-opacity="1" /><path clip-path="url(#clip860)" d="M571.333 1274.31 L575.592 1274.31 L575.592 1300.23 L571.333 1300.23 L571.333 1274.31 M571.333 1264.22 L575.592 1264.22 L575.592 1269.61 L571.333 1269.61 L571.333 1264.22 Z" fill="#000000" fill-rule="nonzero" fill-opacity="1" /><path clip-path="url(#clip860)" d="M606.055 1284.59 L606.055 1300.23 L601.796 1300.23 L601.796 1284.73 Q601.796 1281.04 600.36 1279.22 Q598.925 1277.39 596.055 1277.39 Q592.606 1277.39 590.615 1279.59 Q588.624 1281.79 588.624 1285.58 L588.624 1300.23 L584.342 1300.23 L584.342 1274.31 L588.624 1274.31 L588.624 1278.34 Q590.152 1276 592.212 1274.84 Q594.296 1273.68 597.004 1273.68 Q601.472 1273.68 603.763 1276.46 Q606.055 1279.22 606.055 1284.59 Z" fill="#000000" fill-rule="nonzero" fill-opacity="1" /><path clip-path="url(#clip860)" d="M631.61 1286.97 Q631.61 1282.34 629.689 1279.79 Q627.791 1277.25 624.342 1277.25 Q620.916 1277.25 618.995 1279.79 Q617.096 1282.34 617.096 1286.97 Q617.096 1291.58 618.995 1294.12 Q620.916 1296.67 624.342 1296.67 Q627.791 1296.67 629.689 1294.12 Q631.61 1291.58 631.61 1286.97 M635.87 1297.02 Q635.87 1303.64 632.93 1306.85 Q629.99 1310.1 623.925 1310.1 Q621.68 1310.1 619.689 1309.75 Q617.698 1309.42 615.823 1308.73 L615.823 1304.59 Q617.698 1305.6 619.527 1306.09 Q621.356 1306.58 623.254 1306.58 Q627.444 1306.58 629.527 1304.38 Q631.61 1302.2 631.61 1297.78 L631.61 1295.67 Q630.291 1297.97 628.231 1299.1 Q626.17 1300.23 623.3 1300.23 Q618.532 1300.23 615.615 1296.6 Q612.698 1292.97 612.698 1286.97 Q612.698 1280.95 615.615 1277.32 Q618.532 1273.68 623.3 1273.68 Q626.17 1273.68 628.231 1274.82 Q630.291 1275.95 631.61 1278.24 L631.61 1274.31 L635.87 1274.31 L635.87 1297.02 Z" fill="#000000" fill-rule="nonzero" fill-opacity="1" /><path clip-path="url(#clip860)" d="M676.772 1278.24 L676.772 1264.22 L681.031 1264.22 L681.031 1300.23 L676.772 1300.23 L676.772 1296.35 Q675.429 1298.66 673.369 1299.79 Q671.332 1300.91 668.462 1300.91 Q663.763 1300.91 660.8 1297.16 Q657.86 1293.41 657.86 1287.29 Q657.86 1281.18 660.8 1277.43 Q663.763 1273.68 668.462 1273.68 Q671.332 1273.68 673.369 1274.82 Q675.429 1275.93 676.772 1278.24 M662.258 1287.29 Q662.258 1291.99 664.18 1294.68 Q666.124 1297.34 669.504 1297.34 Q672.883 1297.34 674.828 1294.68 Q676.772 1291.99 676.772 1287.29 Q676.772 1282.6 674.828 1279.93 Q672.883 1277.25 669.504 1277.25 Q666.124 1277.25 664.18 1279.93 Q662.258 1282.6 662.258 1287.29 Z" fill="#000000" fill-rule="nonzero" fill-opacity="1" /><path clip-path="url(#clip860)" d="M701.587 1287.2 Q696.425 1287.2 694.434 1288.38 Q692.443 1289.56 692.443 1292.41 Q692.443 1294.68 693.925 1296.02 Q695.429 1297.34 697.999 1297.34 Q701.54 1297.34 703.67 1294.84 Q705.823 1292.32 705.823 1288.15 L705.823 1287.2 L701.587 1287.2 M710.082 1285.44 L710.082 1300.23 L705.823 1300.23 L705.823 1296.3 Q704.365 1298.66 702.189 1299.79 Q700.013 1300.91 696.865 1300.91 Q692.883 1300.91 690.522 1298.68 Q688.184 1296.44 688.184 1292.69 Q688.184 1288.31 691.101 1286.09 Q694.04 1283.87 699.851 1283.87 L705.823 1283.87 L705.823 1283.45 Q705.823 1280.51 703.878 1278.92 Q701.957 1277.29 698.462 1277.29 Q696.24 1277.29 694.133 1277.83 Q692.027 1278.36 690.082 1279.42 L690.082 1275.49 Q692.42 1274.59 694.619 1274.15 Q696.818 1273.68 698.902 1273.68 Q704.527 1273.68 707.304 1276.6 Q710.082 1279.52 710.082 1285.44 Z" fill="#000000" fill-rule="nonzero" fill-opacity="1" /><path clip-path="url(#clip860)" d="M723.068 1266.95 L723.068 1274.31 L731.841 1274.31 L731.841 1277.62 L723.068 1277.62 L723.068 1291.69 Q723.068 1294.86 723.925 1295.77 Q724.804 1296.67 727.466 1296.67 L731.841 1296.67 L731.841 1300.23 L727.466 1300.23 Q722.536 1300.23 720.661 1298.41 Q718.786 1296.55 718.786 1291.69 L718.786 1277.62 L715.661 1277.62 L715.661 1274.31 L718.786 1274.31 L718.786 1266.95 L723.068 1266.95 Z" fill="#000000" fill-rule="nonzero" fill-opacity="1" /><path clip-path="url(#clip860)" d="M749.225 1287.2 Q744.063 1287.2 742.073 1288.38 Q740.082 1289.56 740.082 1292.41 Q740.082 1294.68 741.563 1296.02 Q743.068 1297.34 745.637 1297.34 Q749.179 1297.34 751.309 1294.84 Q753.461 1292.32 753.461 1288.15 L753.461 1287.2 L749.225 1287.2 M757.721 1285.44 L757.721 1300.23 L753.461 1300.23 L753.461 1296.3 Q752.003 1298.66 749.827 1299.79 Q747.651 1300.91 744.503 1300.91 Q740.522 1300.91 738.161 1298.68 Q735.823 1296.44 735.823 1292.69 Q735.823 1288.31 738.739 1286.09 Q741.679 1283.87 747.489 1283.87 L753.461 1283.87 L753.461 1283.45 Q753.461 1280.51 751.517 1278.92 Q749.596 1277.29 746.1 1277.29 Q743.878 1277.29 741.772 1277.83 Q739.665 1278.36 737.721 1279.42 L737.721 1275.49 Q740.059 1274.59 742.258 1274.15 Q744.457 1273.68 746.54 1273.68 Q752.165 1273.68 754.943 1276.6 Q757.721 1279.52 757.721 1285.44 Z" fill="#000000" fill-rule="nonzero" fill-opacity="1" /><polyline clip-path="url(#clip860)" style="stroke:#e26f46; stroke-linecap:round; stroke-linejoin:round; stroke-width:4; stroke-opacity:1; fill:none" points="289.884,1334.79 433.805,1334.79 "/>
<path clip-path="url(#clip860)" d="M457.792 1317.51 L462.468 1317.51 L462.468 1348.14 L479.296 1348.14 L479.296 1352.07 L457.792 1352.07 L457.792 1317.51 Z" fill="#000000" fill-rule="nonzero" fill-opacity="1" /><path clip-path="url(#clip860)" d="M496.842 1322.12 L490.5 1339.32 L503.208 1339.32 L496.842 1322.12 M494.204 1317.51 L499.505 1317.51 L512.676 1352.07 L507.815 1352.07 L504.667 1343.21 L489.088 1343.21 L485.94 1352.07 L481.009 1352.07 L494.204 1317.51 Z" fill="#000000" fill-rule="nonzero" fill-opacity="1" /><path clip-path="url(#clip860)" d="M553.509 1318.65 L553.509 1323.21 Q550.847 1321.94 548.486 1321.31 Q546.125 1320.69 543.926 1320.69 Q540.106 1320.69 538.023 1322.17 Q535.963 1323.65 535.963 1326.38 Q535.963 1328.67 537.328 1329.85 Q538.717 1331.01 542.56 1331.73 L545.384 1332.31 Q550.615 1333.3 553.092 1335.82 Q555.592 1338.32 555.592 1342.54 Q555.592 1347.56 552.213 1350.15 Q548.856 1352.75 542.351 1352.75 Q539.898 1352.75 537.12 1352.19 Q534.365 1351.63 531.402 1350.55 L531.402 1345.73 Q534.25 1347.33 536.981 1348.14 Q539.713 1348.95 542.351 1348.95 Q546.356 1348.95 548.532 1347.38 Q550.708 1345.8 550.708 1342.88 Q550.708 1340.34 549.134 1338.9 Q547.583 1337.47 544.018 1336.75 L541.171 1336.19 Q535.939 1335.15 533.602 1332.93 Q531.264 1330.71 531.264 1326.75 Q531.264 1322.17 534.481 1319.53 Q537.722 1316.89 543.393 1316.89 Q545.824 1316.89 548.347 1317.33 Q550.87 1317.77 553.509 1318.65 Z" fill="#000000" fill-rule="nonzero" fill-opacity="1" /><path clip-path="url(#clip860)" d="M573.486 1354.48 Q571.68 1359.11 569.967 1360.52 Q568.254 1361.94 565.384 1361.94 L561.981 1361.94 L561.981 1358.37 L564.481 1358.37 Q566.24 1358.37 567.212 1357.54 Q568.185 1356.7 569.365 1353.6 L570.129 1351.66 L559.643 1326.15 L564.157 1326.15 L572.259 1346.43 L580.361 1326.15 L584.874 1326.15 L573.486 1354.48 Z" fill="#000000" fill-rule="nonzero" fill-opacity="1" /><path clip-path="url(#clip860)" d="M610.939 1331.13 Q612.536 1328.26 614.759 1326.89 Q616.981 1325.52 619.99 1325.52 Q624.041 1325.52 626.24 1328.37 Q628.439 1331.19 628.439 1336.43 L628.439 1352.07 L624.157 1352.07 L624.157 1336.57 Q624.157 1332.84 622.837 1331.03 Q621.518 1329.23 618.809 1329.23 Q615.499 1329.23 613.578 1331.43 Q611.657 1333.63 611.657 1337.42 L611.657 1352.07 L607.374 1352.07 L607.374 1336.57 Q607.374 1332.82 606.055 1331.03 Q604.735 1329.23 601.981 1329.23 Q598.717 1329.23 596.796 1331.45 Q594.874 1333.65 594.874 1337.42 L594.874 1352.07 L590.592 1352.07 L590.592 1326.15 L594.874 1326.15 L594.874 1330.18 Q596.333 1327.79 598.37 1326.66 Q600.407 1325.52 603.208 1325.52 Q606.032 1325.52 607.999 1326.96 Q609.99 1328.39 610.939 1331.13 Z" fill="#000000" fill-rule="nonzero" fill-opacity="1" /><path clip-path="url(#clip860)" d="M641.055 1348.19 L641.055 1361.94 L636.772 1361.94 L636.772 1326.15 L641.055 1326.15 L641.055 1330.08 Q642.397 1327.77 644.434 1326.66 Q646.494 1325.52 649.342 1325.52 Q654.064 1325.52 657.004 1329.27 Q659.967 1333.02 659.967 1339.13 Q659.967 1345.25 657.004 1349 Q654.064 1352.75 649.342 1352.75 Q646.494 1352.75 644.434 1351.63 Q642.397 1350.5 641.055 1348.19 M655.545 1339.13 Q655.545 1334.44 653.601 1331.77 Q651.68 1329.09 648.3 1329.09 Q644.92 1329.09 642.976 1331.77 Q641.055 1334.44 641.055 1339.13 Q641.055 1343.83 642.976 1346.52 Q644.92 1349.18 648.3 1349.18 Q651.68 1349.18 653.601 1346.52 Q655.545 1343.83 655.545 1339.13 Z" fill="#000000" fill-rule="nonzero" fill-opacity="1" /><path clip-path="url(#clip860)" d="M688.578 1336.43 L688.578 1352.07 L684.318 1352.07 L684.318 1336.57 Q684.318 1332.88 682.883 1331.06 Q681.448 1329.23 678.578 1329.23 Q675.129 1329.23 673.138 1331.43 Q671.147 1333.63 671.147 1337.42 L671.147 1352.07 L666.865 1352.07 L666.865 1326.15 L671.147 1326.15 L671.147 1330.18 Q672.675 1327.84 674.735 1326.68 Q676.818 1325.52 679.527 1325.52 Q683.994 1325.52 686.286 1328.3 Q688.578 1331.06 688.578 1336.43 Z" fill="#000000" fill-rule="nonzero" fill-opacity="1" /><path clip-path="url(#clip860)" d="M719.249 1338.05 L719.249 1340.13 L699.665 1340.13 Q699.943 1344.53 702.304 1346.84 Q704.689 1349.13 708.925 1349.13 Q711.378 1349.13 713.67 1348.53 Q715.985 1347.93 718.253 1346.73 L718.253 1350.75 Q715.962 1351.73 713.554 1352.24 Q711.147 1352.75 708.67 1352.75 Q702.466 1352.75 698.832 1349.13 Q695.221 1345.52 695.221 1339.37 Q695.221 1333 698.647 1329.27 Q702.096 1325.52 707.929 1325.52 Q713.161 1325.52 716.193 1328.9 Q719.249 1332.26 719.249 1338.05 M714.989 1336.8 Q714.943 1333.3 713.022 1331.22 Q711.124 1329.13 707.976 1329.13 Q704.411 1329.13 702.258 1331.15 Q700.128 1333.16 699.804 1336.82 L714.989 1336.8 Z" fill="#000000" fill-rule="nonzero" fill-opacity="1" /><path clip-path="url(#clip860)" d="M730.452 1318.79 L730.452 1326.15 L739.225 1326.15 L739.225 1329.46 L730.452 1329.46 L730.452 1343.53 Q730.452 1346.7 731.309 1347.61 Q732.188 1348.51 734.85 1348.51 L739.225 1348.51 L739.225 1352.07 L734.85 1352.07 Q729.92 1352.07 728.045 1350.25 Q726.17 1348.39 726.17 1343.53 L726.17 1329.46 L723.045 1329.46 L723.045 1326.15 L726.17 1326.15 L726.17 1318.79 L730.452 1318.79 Z" fill="#000000" fill-rule="nonzero" fill-opacity="1" /><polyline clip-path="url(#clip860)" style="stroke:#3da44d; stroke-linecap:round; stroke-linejoin:round; stroke-width:4; stroke-opacity:1; fill:none" points="289.884,1386.63 433.805,1386.63 "/>
<path clip-path="url(#clip860)" d="M483.347 1398.98 L483.347 1389.7 L475.708 1389.7 L475.708 1385.86 L487.977 1385.86 L487.977 1400.7 Q485.268 1402.62 482.005 1403.61 Q478.741 1404.59 475.037 1404.59 Q466.935 1404.59 462.352 1399.86 Q457.792 1395.12 457.792 1386.67 Q457.792 1378.2 462.352 1373.47 Q466.935 1368.73 475.037 1368.73 Q478.417 1368.73 481.449 1369.56 Q484.505 1370.4 487.074 1372.02 L487.074 1376.99 Q484.481 1374.79 481.565 1373.68 Q478.648 1372.57 475.431 1372.57 Q469.088 1372.57 465.894 1376.11 Q462.722 1379.66 462.722 1386.67 Q462.722 1393.66 465.894 1397.2 Q469.088 1400.74 475.431 1400.74 Q477.907 1400.74 479.852 1400.33 Q481.796 1399.89 483.347 1398.98 Z" fill="#000000" fill-rule="nonzero" fill-opacity="1" /><path clip-path="url(#clip860)" d="M532.305 1370.49 L532.305 1375.05 Q529.643 1373.78 527.282 1373.15 Q524.921 1372.53 522.722 1372.53 Q518.903 1372.53 516.819 1374.01 Q514.759 1375.49 514.759 1378.22 Q514.759 1380.51 516.125 1381.69 Q517.514 1382.85 521.356 1383.57 L524.18 1384.15 Q529.412 1385.14 531.889 1387.66 Q534.389 1390.16 534.389 1394.38 Q534.389 1399.4 531.009 1401.99 Q527.653 1404.59 521.148 1404.59 Q518.694 1404.59 515.916 1404.03 Q513.162 1403.47 510.199 1402.39 L510.199 1397.57 Q513.046 1399.17 515.778 1399.98 Q518.509 1400.79 521.148 1400.79 Q525.153 1400.79 527.328 1399.22 Q529.504 1397.64 529.504 1394.72 Q529.504 1392.18 527.93 1390.74 Q526.379 1389.31 522.815 1388.59 L519.967 1388.03 Q514.736 1386.99 512.398 1384.77 Q510.06 1382.55 510.06 1378.59 Q510.06 1374.01 513.278 1371.37 Q516.518 1368.73 522.19 1368.73 Q524.62 1368.73 527.143 1369.17 Q529.666 1369.61 532.305 1370.49 Z" fill="#000000" fill-rule="nonzero" fill-opacity="1" /><path clip-path="url(#clip860)" d="M552.282 1406.32 Q550.476 1410.95 548.763 1412.36 Q547.051 1413.78 544.18 1413.78 L540.777 1413.78 L540.777 1410.21 L543.277 1410.21 Q545.037 1410.21 546.009 1409.38 Q546.981 1408.54 548.162 1405.44 L548.926 1403.5 L538.439 1377.99 L542.953 1377.99 L551.055 1398.27 L559.157 1377.99 L563.671 1377.99 L552.282 1406.32 Z" fill="#000000" fill-rule="nonzero" fill-opacity="1" /><path clip-path="url(#clip860)" d="M589.736 1382.97 Q591.333 1380.1 593.555 1378.73 Q595.777 1377.36 598.786 1377.36 Q602.837 1377.36 605.036 1380.21 Q607.235 1383.03 607.235 1388.27 L607.235 1403.91 L602.953 1403.91 L602.953 1388.41 Q602.953 1384.68 601.634 1382.87 Q600.314 1381.07 597.606 1381.07 Q594.296 1381.07 592.374 1383.27 Q590.453 1385.47 590.453 1389.26 L590.453 1403.91 L586.171 1403.91 L586.171 1388.41 Q586.171 1384.66 584.851 1382.87 Q583.532 1381.07 580.777 1381.07 Q577.513 1381.07 575.592 1383.29 Q573.671 1385.49 573.671 1389.26 L573.671 1403.91 L569.388 1403.91 L569.388 1377.99 L573.671 1377.99 L573.671 1382.02 Q575.129 1379.63 577.166 1378.5 Q579.203 1377.36 582.004 1377.36 Q584.828 1377.36 586.796 1378.8 Q588.786 1380.23 589.736 1382.97 Z" fill="#000000" fill-rule="nonzero" fill-opacity="1" /><path clip-path="url(#clip860)" d="M619.851 1400.03 L619.851 1413.78 L615.569 1413.78 L615.569 1377.99 L619.851 1377.99 L619.851 1381.92 Q621.194 1379.61 623.231 1378.5 Q625.291 1377.36 628.138 1377.36 Q632.86 1377.36 635.8 1381.11 Q638.763 1384.86 638.763 1390.97 Q638.763 1397.09 635.8 1400.84 Q632.86 1404.59 628.138 1404.59 Q625.291 1404.59 623.231 1403.47 Q621.194 1402.34 619.851 1400.03 M634.342 1390.97 Q634.342 1386.28 632.397 1383.61 Q630.476 1380.93 627.096 1380.93 Q623.717 1380.93 621.772 1383.61 Q619.851 1386.28 619.851 1390.97 Q619.851 1395.67 621.772 1398.36 Q623.717 1401.02 627.096 1401.02 Q630.476 1401.02 632.397 1398.36 Q634.342 1395.67 634.342 1390.97 Z" fill="#000000" fill-rule="nonzero" fill-opacity="1" /><path clip-path="url(#clip860)" d="M667.374 1388.27 L667.374 1403.91 L663.115 1403.91 L663.115 1388.41 Q663.115 1384.72 661.68 1382.9 Q660.244 1381.07 657.374 1381.07 Q653.925 1381.07 651.934 1383.27 Q649.944 1385.47 649.944 1389.26 L649.944 1403.91 L645.661 1403.91 L645.661 1377.99 L649.944 1377.99 L649.944 1382.02 Q651.471 1379.68 653.531 1378.52 Q655.615 1377.36 658.323 1377.36 Q662.791 1377.36 665.082 1380.14 Q667.374 1382.9 667.374 1388.27 Z" fill="#000000" fill-rule="nonzero" fill-opacity="1" /><path clip-path="url(#clip860)" d="M698.045 1389.89 L698.045 1391.97 L678.462 1391.97 Q678.74 1396.37 681.101 1398.68 Q683.485 1400.97 687.721 1400.97 Q690.175 1400.97 692.466 1400.37 Q694.781 1399.77 697.05 1398.57 L697.05 1402.59 Q694.758 1403.57 692.351 1404.08 Q689.943 1404.59 687.466 1404.59 Q681.263 1404.59 677.629 1400.97 Q674.017 1397.36 674.017 1391.21 Q674.017 1384.84 677.443 1381.11 Q680.892 1377.36 686.726 1377.36 Q691.957 1377.36 694.99 1380.74 Q698.045 1384.1 698.045 1389.89 M693.786 1388.64 Q693.74 1385.14 691.818 1383.06 Q689.92 1380.97 686.772 1380.97 Q683.207 1380.97 681.054 1382.99 Q678.925 1385 678.601 1388.66 L693.786 1388.64 Z" fill="#000000" fill-rule="nonzero" fill-opacity="1" /><path clip-path="url(#clip860)" d="M709.249 1370.63 L709.249 1377.99 L718.022 1377.99 L718.022 1381.3 L709.249 1381.3 L709.249 1395.37 Q709.249 1398.54 710.105 1399.45 Q710.985 1400.35 713.647 1400.35 L718.022 1400.35 L718.022 1403.91 L713.647 1403.91 Q708.716 1403.91 706.841 1402.09 Q704.966 1400.23 704.966 1395.37 L704.966 1381.3 L701.841 1381.3 L701.841 1377.99 L704.966 1377.99 L704.966 1370.63 L709.249 1370.63 Z" fill="#000000" fill-rule="nonzero" fill-opacity="1" /></svg>
