<?xml version="1.0" encoding="utf-8"?>
<svg xmlns="http://www.w3.org/2000/svg" xmlns:xlink="http://www.w3.org/1999/xlink" width="600" height="400" viewBox="0 0 2400 1600">
<defs>
  <clipPath id="clip740">
    <rect x="0" y="0" width="2400" height="1600"/>
  </clipPath>
</defs>
<path clip-path="url(#clip740)" d="M0 1600 L2400 1600 L2400 0 L0 0  Z" fill="#ffffff" fill-rule="evenodd" fill-opacity="1"/>
<defs>
  <clipPath id="clip741">
    <rect x="480" y="0" width="1681" height="1600"/>
  </clipPath>
</defs>
<path clip-path="url(#clip740)" d="M251.842 1423.18 L2352.76 1423.18 L2352.76 47.2441 L251.842 47.2441  Z" fill="#ffffff" fill-rule="evenodd" fill-opacity="1"/>
<defs>
  <clipPath id="clip742">
    <rect x="251" y="47" width="2102" height="1377"/>
  </clipPath>
</defs>
<polyline clip-path="url(#clip742)" style="stroke:#000000; stroke-linecap:round; stroke-linejoin:round; stroke-width:2; stroke-opacity:0.1; fill:none" points="304.673,1423.18 304.673,47.2441 "/>
<polyline clip-path="url(#clip742)" style="stroke:#000000; stroke-linecap:round; stroke-linejoin:round; stroke-width:2; stroke-opacity:0.1; fill:none" points="967.548,1423.18 967.548,47.2441 "/>
<polyline clip-path="url(#clip742)" style="stroke:#000000; stroke-linecap:round; stroke-linejoin:round; stroke-width:2; stroke-opacity:0.1; fill:none" points="1630.42,1423.18 1630.42,47.2441 "/>
<polyline clip-path="url(#clip742)" style="stroke:#000000; stroke-linecap:round; stroke-linejoin:round; stroke-width:2; stroke-opacity:0.1; fill:none" points="2293.3,1423.18 2293.3,47.2441 "/>
<polyline clip-path="url(#clip740)" style="stroke:#000000; stroke-linecap:round; stroke-linejoin:round; stroke-width:4; stroke-opacity:1; fill:none" points="251.842,1423.18 2352.76,1423.18 "/>
<polyline clip-path="url(#clip740)" style="stroke:#000000; stroke-linecap:round; stroke-linejoin:round; stroke-width:4; stroke-opacity:1; fill:none" points="304.673,1423.18 304.673,1404.28 "/>
<polyline clip-path="url(#clip740)" style="stroke:#000000; stroke-linecap:round; stroke-linejoin:round; stroke-width:4; stroke-opacity:1; fill:none" points="967.548,1423.18 967.548,1404.28 "/>
<polyline clip-path="url(#clip740)" style="stroke:#000000; stroke-linecap:round; stroke-linejoin:round; stroke-width:4; stroke-opacity:1; fill:none" points="1630.42,1423.18 1630.42,1404.28 "/>
<polyline clip-path="url(#clip740)" style="stroke:#000000; stroke-linecap:round; stroke-linejoin:round; stroke-width:4; stroke-opacity:1; fill:none" points="2293.3,1423.18 2293.3,1404.28 "/>
<path clip-path="url(#clip740)" d="M304.673 1454.1 Q301.062 1454.1 299.234 1457.66 Q297.428 1461.2 297.428 1468.33 Q297.428 1475.44 299.234 1479.01 Q301.062 1482.55 304.673 1482.55 Q308.308 1482.55 310.113 1479.01 Q311.942 1475.44 311.942 1468.33 Q311.942 1461.2 310.113 1457.66 Q308.308 1454.1 304.673 1454.1 M304.673 1450.39 Q310.484 1450.39 313.539 1455 Q316.618 1459.58 316.618 1468.33 Q316.618 1477.06 313.539 1481.67 Q310.484 1486.25 304.673 1486.25 Q298.863 1486.25 295.785 1481.67 Q292.729 1477.06 292.729 1468.33 Q292.729 1459.58 295.785 1455 Q298.863 1450.39 304.673 1450.39 Z" fill="#000000" fill-rule="nonzero" fill-opacity="1" /><path clip-path="url(#clip740)" d="M927.154 1481.64 L934.793 1481.64 L934.793 1455.28 L926.483 1456.95 L926.483 1452.69 L934.747 1451.02 L939.423 1451.02 L939.423 1481.64 L947.062 1481.64 L947.062 1485.58 L927.154 1485.58 L927.154 1481.64 Z" fill="#000000" fill-rule="nonzero" fill-opacity="1" /><path clip-path="url(#clip740)" d="M966.506 1454.1 Q962.895 1454.1 961.066 1457.66 Q959.261 1461.2 959.261 1468.33 Q959.261 1475.44 961.066 1479.01 Q962.895 1482.55 966.506 1482.55 Q970.14 1482.55 971.946 1479.01 Q973.774 1475.44 973.774 1468.33 Q973.774 1461.2 971.946 1457.66 Q970.14 1454.1 966.506 1454.1 M966.506 1450.39 Q972.316 1450.39 975.372 1455 Q978.45 1459.58 978.45 1468.33 Q978.45 1477.06 975.372 1481.67 Q972.316 1486.25 966.506 1486.25 Q960.696 1486.25 957.617 1481.67 Q954.562 1477.06 954.562 1468.33 Q954.562 1459.58 957.617 1455 Q960.696 1450.39 966.506 1450.39 Z" fill="#000000" fill-rule="nonzero" fill-opacity="1" /><path clip-path="url(#clip740)" d="M996.668 1454.1 Q993.057 1454.1 991.228 1457.66 Q989.423 1461.2 989.423 1468.33 Q989.423 1475.44 991.228 1479.01 Q993.057 1482.55 996.668 1482.55 Q1000.3 1482.55 1002.11 1479.01 Q1003.94 1475.44 1003.94 1468.33 Q1003.94 1461.2 1002.11 1457.66 Q1000.3 1454.1 996.668 1454.1 M996.668 1450.39 Q1002.48 1450.39 1005.53 1455 Q1008.61 1459.58 1008.61 1468.33 Q1008.61 1477.06 1005.53 1481.67 Q1002.48 1486.25 996.668 1486.25 Q990.858 1486.25 987.779 1481.67 Q984.723 1477.06 984.723 1468.33 Q984.723 1459.58 987.779 1455 Q990.858 1450.39 996.668 1450.39 Z" fill="#000000" fill-rule="nonzero" fill-opacity="1" /><path clip-path="url(#clip740)" d="M1594.11 1481.64 L1610.43 1481.64 L1610.43 1485.58 L1588.49 1485.58 L1588.49 1481.64 Q1591.15 1478.89 1595.73 1474.26 Q1600.34 1469.61 1601.52 1468.27 Q1603.77 1465.74 1604.65 1464.01 Q1605.55 1462.25 1605.55 1460.56 Q1605.55 1457.8 1603.6 1456.07 Q1601.68 1454.33 1598.58 1454.33 Q1596.38 1454.33 1593.93 1455.09 Q1591.5 1455.86 1588.72 1457.41 L1588.72 1452.69 Q1591.54 1451.55 1594 1450.97 Q1596.45 1450.39 1598.49 1450.39 Q1603.86 1450.39 1607.05 1453.08 Q1610.25 1455.77 1610.25 1460.26 Q1610.25 1462.39 1609.44 1464.31 Q1608.65 1466.2 1606.54 1468.8 Q1605.97 1469.47 1602.86 1472.69 Q1599.76 1475.88 1594.11 1481.64 Z" fill="#000000" fill-rule="nonzero" fill-opacity="1" /><path clip-path="url(#clip740)" d="M1630.25 1454.1 Q1626.64 1454.1 1624.81 1457.66 Q1623 1461.2 1623 1468.33 Q1623 1475.44 1624.81 1479.01 Q1626.64 1482.55 1630.25 1482.55 Q1633.88 1482.55 1635.69 1479.01 Q1637.52 1475.44 1637.52 1468.33 Q1637.52 1461.2 1635.69 1457.66 Q1633.88 1454.1 1630.25 1454.1 M1630.25 1450.39 Q1636.06 1450.39 1639.11 1455 Q1642.19 1459.58 1642.19 1468.33 Q1642.19 1477.06 1639.11 1481.67 Q1636.06 1486.25 1630.25 1486.25 Q1624.44 1486.25 1621.36 1481.67 Q1618.3 1477.06 1618.3 1468.33 Q1618.3 1459.58 1621.36 1455 Q1624.44 1450.39 1630.25 1450.39 Z" fill="#000000" fill-rule="nonzero" fill-opacity="1" /><path clip-path="url(#clip740)" d="M1660.41 1454.1 Q1656.8 1454.1 1654.97 1457.66 Q1653.16 1461.2 1653.16 1468.33 Q1653.16 1475.44 1654.97 1479.01 Q1656.8 1482.55 1660.41 1482.55 Q1664.04 1482.55 1665.85 1479.01 Q1667.68 1475.44 1667.68 1468.33 Q1667.68 1461.2 1665.85 1457.66 Q1664.04 1454.1 1660.41 1454.1 M1660.41 1450.39 Q1666.22 1450.39 1669.28 1455 Q1672.35 1459.58 1672.35 1468.33 Q1672.35 1477.06 1669.28 1481.67 Q1666.22 1486.25 1660.41 1486.25 Q1654.6 1486.25 1651.52 1481.67 Q1648.47 1477.06 1648.47 1468.33 Q1648.47 1459.58 1651.52 1455 Q1654.6 1450.39 1660.41 1450.39 Z" fill="#000000" fill-rule="nonzero" fill-opacity="1" /><path clip-path="url(#clip740)" d="M2267.06 1466.95 Q2270.41 1467.66 2272.29 1469.93 Q2274.19 1472.2 2274.19 1475.53 Q2274.19 1480.65 2270.67 1483.45 Q2267.15 1486.25 2260.67 1486.25 Q2258.49 1486.25 2256.18 1485.81 Q2253.89 1485.39 2251.43 1484.54 L2251.43 1480.02 Q2253.38 1481.16 2255.69 1481.74 Q2258.01 1482.32 2260.53 1482.32 Q2264.93 1482.32 2267.22 1480.58 Q2269.53 1478.84 2269.53 1475.53 Q2269.53 1472.48 2267.38 1470.77 Q2265.25 1469.03 2261.43 1469.03 L2257.41 1469.03 L2257.41 1465.19 L2261.62 1465.19 Q2265.07 1465.19 2266.9 1463.82 Q2268.72 1462.43 2268.72 1459.84 Q2268.72 1457.18 2266.83 1455.77 Q2264.95 1454.33 2261.43 1454.33 Q2259.51 1454.33 2257.31 1454.75 Q2255.11 1455.16 2252.47 1456.04 L2252.47 1451.88 Q2255.14 1451.14 2257.45 1450.77 Q2259.79 1450.39 2261.85 1450.39 Q2267.17 1450.39 2270.28 1452.83 Q2273.38 1455.23 2273.38 1459.35 Q2273.38 1462.22 2271.73 1464.21 Q2270.09 1466.18 2267.06 1466.95 Z" fill="#000000" fill-rule="nonzero" fill-opacity="1" /><path clip-path="url(#clip740)" d="M2293.05 1454.1 Q2289.44 1454.1 2287.61 1457.66 Q2285.81 1461.2 2285.81 1468.33 Q2285.81 1475.44 2287.61 1479.01 Q2289.44 1482.55 2293.05 1482.55 Q2296.69 1482.55 2298.49 1479.01 Q2300.32 1475.44 2300.32 1468.33 Q2300.32 1461.2 2298.49 1457.66 Q2296.69 1454.1 2293.05 1454.1 M2293.05 1450.39 Q2298.86 1450.39 2301.92 1455 Q2305 1459.58 2305 1468.33 Q2305 1477.06 2301.92 1481.67 Q2298.86 1486.25 2293.05 1486.25 Q2287.24 1486.25 2284.16 1481.67 Q2281.11 1477.06 2281.11 1468.33 Q2281.11 1459.58 2284.16 1455 Q2287.24 1450.39 2293.05 1450.39 Z" fill="#000000" fill-rule="nonzero" fill-opacity="1" /><path clip-path="url(#clip740)" d="M2323.21 1454.1 Q2319.6 1454.1 2317.78 1457.66 Q2315.97 1461.2 2315.97 1468.33 Q2315.97 1475.44 2317.78 1479.01 Q2319.6 1482.55 2323.21 1482.55 Q2326.85 1482.55 2328.65 1479.01 Q2330.48 1475.44 2330.48 1468.33 Q2330.48 1461.2 2328.65 1457.66 Q2326.85 1454.1 2323.21 1454.1 M2323.21 1450.39 Q2329.03 1450.39 2332.08 1455 Q2335.16 1459.58 2335.16 1468.33 Q2335.16 1477.06 2332.08 1481.67 Q2329.03 1486.25 2323.21 1486.25 Q2317.4 1486.25 2314.33 1481.67 Q2311.27 1477.06 2311.27 1468.33 Q2311.27 1459.58 2314.33 1455 Q2317.4 1450.39 2323.21 1450.39 Z" fill="#000000" fill-rule="nonzero" fill-opacity="1" /><path clip-path="url(#clip740)" d="M1208.47 1520.52 L1238.51 1520.52 L1238.51 1525.93 L1214.9 1525.93 L1214.9 1540 L1237.53 1540 L1237.53 1545.41 L1214.9 1545.41 L1214.9 1562.63 L1239.09 1562.63 L1239.09 1568.04 L1208.47 1568.04 L1208.47 1520.52 Z" fill="#000000" fill-rule="nonzero" fill-opacity="1" /><path clip-path="url(#clip740)" d="M1255.07 1562.7 L1255.07 1581.6 L1249.18 1581.6 L1249.18 1532.4 L1255.07 1532.4 L1255.07 1537.81 Q1256.91 1534.62 1259.71 1533.1 Q1262.55 1531.54 1266.46 1531.54 Q1272.95 1531.54 1277 1536.69 Q1281.07 1541.85 1281.07 1550.25 Q1281.07 1558.65 1277 1563.81 Q1272.95 1568.97 1266.46 1568.97 Q1262.55 1568.97 1259.71 1567.44 Q1256.91 1565.88 1255.07 1562.7 M1274.99 1550.25 Q1274.99 1543.79 1272.32 1540.13 Q1269.67 1536.44 1265.03 1536.44 Q1260.38 1536.44 1257.71 1540.13 Q1255.07 1543.79 1255.07 1550.25 Q1255.07 1556.71 1257.71 1560.4 Q1260.38 1564.07 1265.03 1564.07 Q1269.67 1564.07 1272.32 1560.4 Q1274.99 1556.71 1274.99 1550.25 Z" fill="#000000" fill-rule="nonzero" fill-opacity="1" /><path clip-path="url(#clip740)" d="M1304.59 1536.5 Q1299.88 1536.5 1297.14 1540.19 Q1294.41 1543.85 1294.41 1550.25 Q1294.41 1556.65 1297.11 1560.34 Q1299.85 1564 1304.59 1564 Q1309.27 1564 1312.01 1560.31 Q1314.74 1556.62 1314.74 1550.25 Q1314.74 1543.92 1312.01 1540.23 Q1309.27 1536.5 1304.59 1536.5 M1304.59 1531.54 Q1312.23 1531.54 1316.59 1536.5 Q1320.95 1541.47 1320.95 1550.25 Q1320.95 1559 1316.59 1564 Q1312.23 1568.97 1304.59 1568.97 Q1296.92 1568.97 1292.56 1564 Q1288.23 1559 1288.23 1550.25 Q1288.23 1541.47 1292.56 1536.5 Q1296.92 1531.54 1304.59 1531.54 Z" fill="#000000" fill-rule="nonzero" fill-opacity="1" /><path clip-path="url(#clip740)" d="M1356.31 1533.76 L1356.31 1539.24 Q1353.83 1537.87 1351.32 1537.2 Q1348.83 1536.5 1346.29 1536.5 Q1340.59 1536.5 1337.44 1540.13 Q1334.29 1543.73 1334.29 1550.25 Q1334.29 1556.78 1337.44 1560.4 Q1340.59 1564 1346.29 1564 Q1348.83 1564 1351.32 1563.33 Q1353.83 1562.63 1356.31 1561.26 L1356.31 1566.68 Q1353.86 1567.82 1351.22 1568.39 Q1348.61 1568.97 1345.65 1568.97 Q1337.6 1568.97 1332.85 1563.91 Q1328.11 1558.85 1328.11 1550.25 Q1328.11 1541.53 1332.89 1536.53 Q1337.69 1531.54 1346.03 1531.54 Q1348.74 1531.54 1351.32 1532.11 Q1353.89 1532.65 1356.31 1533.76 Z" fill="#000000" fill-rule="nonzero" fill-opacity="1" /><path clip-path="url(#clip740)" d="M1396.13 1546.53 L1396.13 1568.04 L1390.27 1568.04 L1390.27 1546.72 Q1390.27 1541.66 1388.3 1539.14 Q1386.33 1536.63 1382.38 1536.63 Q1377.64 1536.63 1374.9 1539.65 Q1372.16 1542.68 1372.16 1547.9 L1372.16 1568.04 L1366.27 1568.04 L1366.27 1518.52 L1372.16 1518.52 L1372.16 1537.93 Q1374.26 1534.72 1377.1 1533.13 Q1379.96 1531.54 1383.68 1531.54 Q1389.83 1531.54 1392.98 1535.36 Q1396.13 1539.14 1396.13 1546.53 Z" fill="#000000" fill-rule="nonzero" fill-opacity="1" /><polyline clip-path="url(#clip742)" style="stroke:#000000; stroke-linecap:round; stroke-linejoin:round; stroke-width:2; stroke-opacity:0.1; fill:none" points="251.842,1358.94 2352.76,1358.94 "/>
<polyline clip-path="url(#clip742)" style="stroke:#000000; stroke-linecap:round; stroke-linejoin:round; stroke-width:2; stroke-opacity:0.1; fill:none" points="251.842,626.374 2352.76,626.374 "/>
<polyline clip-path="url(#clip740)" style="stroke:#000000; stroke-linecap:round; stroke-linejoin:round; stroke-width:4; stroke-opacity:1; fill:none" points="251.842,1423.18 251.842,47.2441 "/>
<polyline clip-path="url(#clip740)" style="stroke:#000000; stroke-linecap:round; stroke-linejoin:round; stroke-width:4; stroke-opacity:1; fill:none" points="251.842,1358.94 270.74,1358.94 "/>
<polyline clip-path="url(#clip740)" style="stroke:#000000; stroke-linecap:round; stroke-linejoin:round; stroke-width:4; stroke-opacity:1; fill:none" points="251.842,626.374 270.74,626.374 "/>
<path clip-path="url(#clip740)" d="M114.931 1378.73 L122.57 1378.73 L122.57 1352.36 L114.26 1354.03 L114.26 1349.77 L122.524 1348.1 L127.2 1348.1 L127.2 1378.73 L134.839 1378.73 L134.839 1382.66 L114.931 1382.66 L114.931 1378.73 Z" fill="#000000" fill-rule="nonzero" fill-opacity="1" /><path clip-path="url(#clip740)" d="M154.283 1351.18 Q150.672 1351.18 148.843 1354.75 Q147.038 1358.29 147.038 1365.42 Q147.038 1372.52 148.843 1376.09 Q150.672 1379.63 154.283 1379.63 Q157.917 1379.63 159.723 1376.09 Q161.552 1372.52 161.552 1365.42 Q161.552 1358.29 159.723 1354.75 Q157.917 1351.18 154.283 1351.18 M154.283 1347.48 Q160.093 1347.48 163.149 1352.08 Q166.227 1356.67 166.227 1365.42 Q166.227 1374.14 163.149 1378.75 Q160.093 1383.33 154.283 1383.33 Q148.473 1383.33 145.394 1378.75 Q142.339 1374.14 142.339 1365.42 Q142.339 1356.67 145.394 1352.08 Q148.473 1347.48 154.283 1347.48 Z" fill="#000000" fill-rule="nonzero" fill-opacity="1" /><path clip-path="url(#clip740)" d="M166.227 1341.58 L190.339 1341.58 L190.339 1344.78 L166.227 1344.78 L166.227 1341.58 Z" fill="#000000" fill-rule="nonzero" fill-opacity="1" /><path clip-path="url(#clip740)" d="M210.05 1340.11 Q212.777 1340.7 214.3 1342.54 Q215.842 1344.38 215.842 1347.09 Q215.842 1351.25 212.984 1353.52 Q210.125 1355.8 204.859 1355.8 Q203.091 1355.8 201.21 1355.44 Q199.348 1355.1 197.354 1354.41 L197.354 1350.74 Q198.934 1351.66 200.815 1352.13 Q202.696 1352.6 204.746 1352.6 Q208.319 1352.6 210.181 1351.19 Q212.062 1349.78 212.062 1347.09 Q212.062 1344.61 210.313 1343.22 Q208.583 1341.81 205.479 1341.81 L202.207 1341.81 L202.207 1338.68 L205.63 1338.68 Q208.432 1338.68 209.918 1337.57 Q211.404 1336.45 211.404 1334.34 Q211.404 1332.18 209.861 1331.03 Q208.338 1329.86 205.479 1329.86 Q203.918 1329.86 202.132 1330.2 Q200.345 1330.54 198.201 1331.25 L198.201 1327.87 Q200.364 1327.27 202.244 1326.97 Q204.144 1326.67 205.818 1326.67 Q210.144 1326.67 212.664 1328.64 Q215.184 1330.6 215.184 1333.94 Q215.184 1336.28 213.849 1337.89 Q212.513 1339.49 210.05 1340.11 Z" fill="#000000" fill-rule="nonzero" fill-opacity="1" /><path clip-path="url(#clip740)" d="M145.137 646.166 L152.776 646.166 L152.776 619.801 L144.465 621.467 L144.465 617.208 L152.729 615.541 L157.405 615.541 L157.405 646.166 L165.044 646.166 L165.044 650.101 L145.137 650.101 L145.137 646.166 Z" fill="#000000" fill-rule="nonzero" fill-opacity="1" /><path clip-path="url(#clip740)" d="M184.488 618.62 Q180.877 618.62 179.049 622.185 Q177.243 625.726 177.243 632.856 Q177.243 639.963 179.049 643.527 Q180.877 647.069 184.488 647.069 Q188.123 647.069 189.928 643.527 Q191.757 639.963 191.757 632.856 Q191.757 625.726 189.928 622.185 Q188.123 618.62 184.488 618.62 M184.488 614.916 Q190.299 614.916 193.354 619.523 Q196.433 624.106 196.433 632.856 Q196.433 641.583 193.354 646.189 Q190.299 650.773 184.488 650.773 Q178.678 650.773 175.6 646.189 Q172.544 641.583 172.544 632.856 Q172.544 624.106 175.6 619.523 Q178.678 614.916 184.488 614.916 Z" fill="#000000" fill-rule="nonzero" fill-opacity="1" /><path clip-path="url(#clip740)" d="M206.138 597.112 Q203.204 597.112 201.718 600.009 Q200.251 602.886 200.251 608.679 Q200.251 614.453 201.718 617.35 Q203.204 620.227 206.138 620.227 Q209.09 620.227 210.557 617.35 Q212.043 614.453 212.043 608.679 Q212.043 602.886 210.557 600.009 Q209.09 597.112 206.138 597.112 M206.138 594.103 Q210.858 594.103 213.341 597.846 Q215.842 601.57 215.842 608.679 Q215.842 615.77 213.341 619.512 Q210.858 623.236 206.138 623.236 Q201.417 623.236 198.915 619.512 Q196.433 615.77 196.433 608.679 Q196.433 601.57 198.915 597.846 Q201.417 594.103 206.138 594.103 Z" fill="#000000" fill-rule="nonzero" fill-opacity="1" /><path clip-path="url(#clip740)" d="M16.4842 953.174 L16.4842 912.974 L21.895 912.974 L21.895 929.843 L64.0042 929.843 L64.0042 936.305 L21.895 936.305 L21.895 953.174 L16.4842 953.174 Z" fill="#000000" fill-rule="nonzero" fill-opacity="1" /><path clip-path="url(#clip740)" d="M33.8307 895.946 Q33.2578 896.933 33.0032 898.11 Q32.7167 899.256 32.7167 900.657 Q32.7167 905.622 35.9632 908.296 Q39.1779 910.937 45.2253 910.937 L64.0042 910.937 L64.0042 916.826 L28.3562 916.826 L28.3562 910.937 L33.8944 910.937 Q30.6479 909.091 29.0883 906.131 Q27.4968 903.171 27.4968 898.938 Q27.4968 898.333 27.5923 897.601 Q27.656 896.869 27.8151 895.978 L33.8307 895.946 Z" fill="#000000" fill-rule="nonzero" fill-opacity="1" /><path clip-path="url(#clip740)" d="M46.0847 873.602 Q46.0847 880.7 47.7079 883.437 Q49.3312 886.175 53.2461 886.175 Q56.3653 886.175 58.2114 884.138 Q60.0256 882.069 60.0256 878.536 Q60.0256 873.666 56.5881 870.738 Q53.1188 867.778 47.3897 867.778 L46.0847 867.778 L46.0847 873.602 M43.6657 861.921 L64.0042 861.921 L64.0042 867.778 L58.5933 867.778 Q61.8398 869.783 63.3994 872.775 Q64.9272 875.767 64.9272 880.095 Q64.9272 885.57 61.8716 888.816 Q58.7843 892.031 53.6281 892.031 Q47.6125 892.031 44.5569 888.021 Q41.5014 883.979 41.5014 875.99 L41.5014 867.778 L40.9285 867.778 Q36.8862 867.778 34.6901 870.451 Q32.4621 873.093 32.4621 877.899 Q32.4621 880.955 33.1941 883.851 Q33.9262 886.748 35.3903 889.421 L29.9795 889.421 Q28.7381 886.207 28.1334 883.183 Q27.4968 880.159 27.4968 877.295 Q27.4968 869.56 31.5072 865.741 Q35.5176 861.921 43.6657 861.921 Z" fill="#000000" fill-rule="nonzero" fill-opacity="1" /><path clip-path="url(#clip740)" d="M28.3562 849.858 L28.3562 844.002 L64.0042 844.002 L64.0042 849.858 L28.3562 849.858 M14.479 849.858 L14.479 844.002 L21.895 844.002 L21.895 849.858 L14.479 849.858 Z" fill="#000000" fill-rule="nonzero" fill-opacity="1" /><path clip-path="url(#clip740)" d="M42.4881 802.116 L64.0042 802.116 L64.0042 807.972 L42.679 807.972 Q37.6183 807.972 35.1038 809.945 Q32.5894 811.919 32.5894 815.865 Q32.5894 820.608 35.6131 823.345 Q38.6368 826.082 43.8567 826.082 L64.0042 826.082 L64.0042 831.971 L28.3562 831.971 L28.3562 826.082 L33.8944 826.082 Q30.6797 823.982 29.0883 821.149 Q27.4968 818.284 27.4968 814.561 Q27.4968 808.418 31.3163 805.267 Q35.1038 802.116 42.4881 802.116 Z" fill="#000000" fill-rule="nonzero" fill-opacity="1" /><path clip-path="url(#clip740)" d="M28.3562 790.434 L28.3562 784.578 L64.0042 784.578 L64.0042 790.434 L28.3562 790.434 M14.479 790.434 L14.479 784.578 L21.895 784.578 L21.895 790.434 L14.479 790.434 Z" fill="#000000" fill-rule="nonzero" fill-opacity="1" /><path clip-path="url(#clip740)" d="M42.4881 742.692 L64.0042 742.692 L64.0042 748.548 L42.679 748.548 Q37.6183 748.548 35.1038 750.521 Q32.5894 752.495 32.5894 756.442 Q32.5894 761.184 35.6131 763.921 Q38.6368 766.659 43.8567 766.659 L64.0042 766.659 L64.0042 772.547 L28.3562 772.547 L28.3562 766.659 L33.8944 766.659 Q30.6797 764.558 29.0883 761.725 Q27.4968 758.861 27.4968 755.137 Q27.4968 748.994 31.3163 745.843 Q35.1038 742.692 42.4881 742.692 Z" fill="#000000" fill-rule="nonzero" fill-opacity="1" /><path clip-path="url(#clip740)" d="M45.7664 707.553 Q39.4007 707.553 35.8996 710.195 Q32.3984 712.805 32.3984 717.547 Q32.3984 722.258 35.8996 724.9 Q39.4007 727.509 45.7664 727.509 Q52.1003 727.509 55.6014 724.9 Q59.1026 722.258 59.1026 717.547 Q59.1026 712.805 55.6014 710.195 Q52.1003 707.553 45.7664 707.553 M59.58 701.697 Q68.683 701.697 73.1071 705.739 Q77.5631 709.781 77.5631 718.12 Q77.5631 721.207 77.0857 723.945 Q76.6401 726.682 75.6852 729.26 L69.9879 729.26 Q71.3884 726.682 72.0568 724.167 Q72.7252 721.653 72.7252 719.043 Q72.7252 713.282 69.7015 710.418 Q66.7096 707.553 60.6303 707.553 L57.7339 707.553 Q60.885 709.367 62.4446 712.2 Q64.0042 715.033 64.0042 718.979 Q64.0042 725.536 59.0071 729.546 Q54.01 733.557 45.7664 733.557 Q37.491 733.557 32.4939 729.546 Q27.4968 725.536 27.4968 718.979 Q27.4968 715.033 29.0564 712.2 Q30.616 709.367 33.7671 707.553 L28.3562 707.553 L28.3562 701.697 L59.58 701.697 Z" fill="#000000" fill-rule="nonzero" fill-opacity="1" /><path clip-path="url(#clip740)" d="M44.7161 638.421 L47.5806 638.421 L47.5806 665.348 Q53.6281 664.966 56.8109 661.72 Q59.9619 658.442 59.9619 652.617 Q59.9619 649.243 59.1344 646.092 Q58.3069 642.909 56.6518 639.79 L62.1899 639.79 Q63.5267 642.941 64.227 646.251 Q64.9272 649.561 64.9272 652.967 Q64.9272 661.497 59.9619 666.494 Q54.9967 671.459 46.5303 671.459 Q37.7774 671.459 32.6531 666.749 Q27.4968 662.006 27.4968 653.986 Q27.4968 646.792 32.1438 642.623 Q36.7589 638.421 44.7161 638.421 M42.9973 644.278 Q38.1912 644.342 35.3266 646.983 Q32.4621 649.593 32.4621 653.922 Q32.4621 658.823 35.2312 661.784 Q38.0002 664.712 43.0292 665.157 L42.9973 644.278 Z" fill="#000000" fill-rule="nonzero" fill-opacity="1" /><path clip-path="url(#clip740)" d="M33.8307 608.152 Q33.2578 609.139 33.0032 610.317 Q32.7167 611.463 32.7167 612.863 Q32.7167 617.828 35.9632 620.502 Q39.1779 623.144 45.2253 623.144 L64.0042 623.144 L64.0042 629.032 L28.3562 629.032 L28.3562 623.144 L33.8944 623.144 Q30.6479 621.298 29.0883 618.338 Q27.4968 615.378 27.4968 611.144 Q27.4968 610.54 27.5923 609.808 Q27.656 609.075 27.8151 608.184 L33.8307 608.152 Z" fill="#000000" fill-rule="nonzero" fill-opacity="1" /><path clip-path="url(#clip740)" d="M33.8307 582.499 Q33.2578 583.485 33.0032 584.663 Q32.7167 585.809 32.7167 587.209 Q32.7167 592.175 35.9632 594.848 Q39.1779 597.49 45.2253 597.49 L64.0042 597.49 L64.0042 603.378 L28.3562 603.378 L28.3562 597.49 L33.8944 597.49 Q30.6479 595.644 29.0883 592.684 Q27.4968 589.724 27.4968 585.491 Q27.4968 584.886 27.5923 584.154 Q27.656 583.422 27.8151 582.53 L33.8307 582.499 Z" fill="#000000" fill-rule="nonzero" fill-opacity="1" /><path clip-path="url(#clip740)" d="M32.4621 563.974 Q32.4621 568.685 36.1542 571.422 Q39.8145 574.16 46.212 574.16 Q52.6095 574.16 56.3017 571.454 Q59.9619 568.717 59.9619 563.974 Q59.9619 559.296 56.2698 556.558 Q52.5777 553.821 46.212 553.821 Q39.8781 553.821 36.186 556.558 Q32.4621 559.296 32.4621 563.974 M27.4968 563.974 Q27.4968 556.336 32.4621 551.975 Q37.4273 547.615 46.212 547.615 Q54.9649 547.615 59.9619 551.975 Q64.9272 556.336 64.9272 563.974 Q64.9272 571.645 59.9619 576.006 Q54.9649 580.334 46.212 580.334 Q37.4273 580.334 32.4621 576.006 Q27.4968 571.645 27.4968 563.974 Z" fill="#000000" fill-rule="nonzero" fill-opacity="1" /><path clip-path="url(#clip740)" d="M33.8307 517.25 Q33.2578 518.237 33.0032 519.415 Q32.7167 520.56 32.7167 521.961 Q32.7167 526.926 35.9632 529.6 Q39.1779 532.241 45.2253 532.241 L64.0042 532.241 L64.0042 538.13 L28.3562 538.13 L28.3562 532.241 L33.8944 532.241 Q30.6479 530.395 29.0883 527.435 Q27.4968 524.475 27.4968 520.242 Q27.4968 519.637 27.5923 518.905 Q27.656 518.173 27.8151 517.282 L33.8307 517.25 Z" fill="#000000" fill-rule="nonzero" fill-opacity="1" /><polyline clip-path="url(#clip742)" style="stroke:#3da44d; stroke-linecap:round; stroke-linejoin:round; stroke-width:4; stroke-opacity:1; fill:none" points="311.302,646.624 317.931,655.783 324.56,665.809 331.188,676.3 337.817,687.76 344.446,700.713 351.075,714.755 357.703,731.222 364.332,749.642 370.961,771.949 377.59,800.367 384.218,840.565 390.847,886.482 397.476,956.149 404.105,1076.72 410.733,1072.62 417.362,1127.7 423.991,1152.98 430.62,1165.33 437.248,1174.95 443.877,1182.26 450.506,1185.83 457.135,1191.94 463.763,1193.97 470.392,1192.78 477.021,1194.05 483.649,1196.56 490.278,1198.06 496.907,1199.67 503.536,1200.85 510.164,1202.04 516.793,1201.94 523.422,1203.06 530.051,1202.59 536.679,1205.12 543.308,1207.91 549.937,1209.87 556.566,1210.97 563.194,1214.23 569.823,1218.45 576.452,1221.78 583.081,1226.72 589.709,1230.27 596.338,1233.63 602.967,1238.51 609.596,1238.19 616.224,1232.02 622.853,1246.33 629.482,1241.81 636.111,1252.97 642.739,1256.84 649.368,1261.34 655.997,1261.74 662.626,1268.94 669.254,1271.74 675.883,1271.92 682.512,1274.17 689.14,1277.4 695.769,1279.49 702.398,1283.98 709.027,1279.68 715.655,1263.62 722.284,1277.5 728.913,1280.83 735.542,1289.98 742.17,1291.42 748.799,1298.38 755.428,1300.11 762.057,1301.04 768.685,1303.89 775.314,1306.21 781.943,1309.77 788.572,1311.7 795.2,1314.06 801.829,1318.18 808.458,1316.06 815.087,1316.26 821.715,1316.54 828.344,1316.81 834.973,1313.07 841.602,1309.14 848.23,1315.86 854.859,1319.42 861.488,1324.85 868.117,1331.2 874.745,1330.43 881.374,1326.56 888.003,1333.17 894.631,1312.8 901.26,1286.71 907.889,1326.48 914.518,1331.44 921.146,1338.87 927.775,1336.47 934.404,1333.56 941.033,1333.17 947.661,1332.93 954.29,1331.44 960.919,1338.79 967.548,1341.75 974.176,1336.96 980.805,1331.2 987.434,1330.43 994.063,1340.47 1000.69,1303.11 1007.32,1298.67 1013.95,1346.59 1020.58,1349.51 1027.21,1345.25 1033.84,1351.29 1040.46,1349.33 1047.09,1351 1053.72,1350.16 1060.35,1353.09 1066.98,1350.91 1073.61,1354.83 1080.24,1356.1 1086.87,1353.38 1093.49,1349.7 1100.12,1356.59 1106.75,1332.77 1113.38,1305.29 1120.01,1320.47 1126.64,1297.98 1133.27,1298.78 1139.89,1306.27 1146.52,1304.98 1153.15,1298.38 1159.78,1303 1166.41,1310.6 1173.04,1312.22 1179.67,1306.08 1186.3,1293.14 1192.92,1295.9 1199.55,1303.06 1206.18,1302.82 1212.81,1303.29 1219.44,1302.52 1226.07,1300.23 1232.7,1298.1 1239.33,1302.94 1245.95,1299.3 1252.58,1301.81 1259.21,1306.21 1265.84,1302.76 1272.47,1303.95 1279.1,1302.46 1285.73,1302.22 1292.36,1299.82 1298.98,1305.04 1305.61,1307.76 1312.24,1305.78 1318.87,1304.92 1325.5,1305.65 1332.13,1308.89 1338.76,1308.32 1345.39,1305.84 1352.01,1303.89 1358.64,1304.08 1365.27,1307.76 1371.9,1315.05 1378.53,1306.82 1385.16,1296.18 1391.79,1351.76 1398.42,1356.99 1405.04,1366.54 1411.67,1369.68 1418.3,1367.31 1424.93,1361.66 1431.56,1363.33 1438.19,1364.34 1444.82,1355.12 1451.45,1349.98 1458.07,1361.04 1464.7,1366.05 1471.33,1346.32 1477.96,1358.89 1484.59,1360.22 1491.22,1362.02 1497.85,1374.14 1504.48,1376.38 1511.1,1371.6 1517.73,1376.62 1524.36,1381.51 1530.99,1377.16 1537.62,1376.15 1544.25,1373.44 1550.88,1373.44 1557.51,1381.08 1564.13,1378.92 1570.76,1379.16 1577.39,1363.33 1584.02,1379.71 1590.65,1376.03 1597.28,1346.77 1603.91,1373.44 1610.54,1372.12 1617.16,1371.26 1623.79,1342.96 1630.42,1306.33 1637.05,1321.89 1643.68,1360.01 1650.31,1367.91 1656.94,1366.54 1663.57,1363.7 1670.19,1368.29 1676.82,1379.1 1683.45,1379.35 1690.08,1382.01 1696.71,1377.34 1703.34,1372.18 1709.97,1376.26 1716.6,1363.75 1723.22,1367.31 1729.85,1367.52 1736.48,1358.09 1743.11,1367.8 1749.74,1375.91 1756.37,1375.85 1763,1376.15 1769.63,1367.2 1776.25,1375.02 1782.88,1379.59 1789.51,1372.69 1796.14,1374.79 1802.77,1372.58 1809.4,1374.03 1816.03,1365.78 1822.66,1345.43 1829.28,1314.99 1835.91,1324.12 1842.54,1325 1849.17,1322.03 1855.8,1314.59 1862.43,1348.32 1869.06,1352.42 1875.69,1363.7 1882.31,1368.18 1888.94,1374.49 1895.57,1376.86 1902.2,1380.45 1908.83,1378.31 1915.46,1379.96 1922.09,1372.52 1928.72,1374.55 1935.34,1380.7 1941.97,1367.8 1948.6,1368.41 1955.23,1372.58 1961.86,1360.22 1968.49,1354.05 1975.12,1366.65 1981.75,1371.6 1988.37,1369.57 1995,1370.47 2001.63,1367.52 2008.26,1368.57 2014.89,1374.9 2021.52,1381.58 2028.15,1380.64 2034.78,1373.62 2041.4,1373.04 2048.03,1373.85 2054.66,1367.14 2061.29,1366.81 2067.92,1366.32 2074.55,1363.7 2081.18,1374.38 2087.81,1376.21 2094.43,1379.71 2101.06,1377.52 2107.69,1378.61 2114.32,1362.02 2120.95,1356 2127.58,1368.02 2134.21,1372.92 2140.84,1375.38 2147.46,1373.21 2154.09,1367.91 2160.72,1369.85 2167.35,1364.44 2173.98,1353.57 2180.61,1349.42 2187.24,1357.79 2193.86,1373.33 2200.49,1381.7 2207.12,1375.08 2213.75,1377.46 2220.38,1384.24 2227.01,1379.84 2233.64,1378.25 2240.27,1347.95 2246.89,1366.43 2253.52,1366.16 2260.15,1368.68 2266.78,1378.8 2273.41,1376.5 2280.04,1370.98 2286.67,1376.44 2293.3,1360.32 "/>
<polyline clip-path="url(#clip742)" style="stroke:#e26f46; stroke-linecap:round; stroke-linejoin:round; stroke-width:4; stroke-opacity:1; fill:none" points="311.302,86.1857 317.931,90.9256 324.56,95.7093 331.188,99.9754 337.817,102.506 344.446,105.586 351.075,109.161 357.703,112.756 364.332,115.776 370.961,119.051 377.59,121.974 384.218,125.744 390.847,128.739 397.476,131.882 404.105,135.251 410.733,138.597 417.362,141.503 423.991,144.702 430.62,148.001 437.248,150.581 443.877,154.535 450.506,156.253 457.135,159.938 463.763,163.671 470.392,166.668 477.021,169.931 483.649,171.102 490.278,174.788 496.907,178.218 503.536,180.371 510.164,183.581 516.793,186.368 523.422,188.321 530.051,190.8 536.679,193.73 543.308,196.053 549.937,200.559 556.566,202.186 563.194,204.953 569.823,207.731 576.452,211.044 583.081,214.192 589.709,217.576 596.338,219.99 602.967,222.386 609.596,225.895 616.224,228.43 622.853,231.267 629.482,234.84 636.111,237.517 642.739,240.698 649.368,243.528 655.997,246.344 662.626,249.806 669.254,252.309 675.883,255.572 682.512,257.805 689.14,261.244 695.769,264.199 702.398,266.456 709.027,269.675 715.655,272.76 722.284,275.451 728.913,277.963 735.542,281.11 742.17,284.486 748.799,287.904 755.428,290.944 762.057,293.354 768.685,296.409 775.314,299.707 781.943,302.406 788.572,305.496 795.2,308.596 801.829,310.94 808.458,313.857 815.087,316.41 821.715,319.485 828.344,322.273 834.973,324.944 841.602,327.683 848.23,330.903 854.859,333.803 861.488,336.676 868.117,339.298 874.745,342.782 881.374,345.327 888.003,348.777 894.631,351.719 901.26,354.81 907.889,357.664 914.518,360.936 921.146,363.405 927.775,366.718 934.404,369.475 941.033,372.607 947.661,376.697 954.29,379.487 960.919,382.518 967.548,385.468 974.176,389.208 980.805,391.263 987.434,394.936 994.063,397.49 1000.69,400.302 1007.32,403.293 1013.95,406.318 1020.58,409.111 1027.21,412.474 1033.84,416.978 1040.46,419.304 1047.09,422.648 1053.72,426.226 1060.35,429.153 1066.98,432.828 1073.61,436.705 1080.24,439.441 1086.87,442.469 1093.49,446.039 1100.12,449.969 1106.75,453.156 1113.38,456.693 1120.01,459.404 1126.64,463.604 1133.27,467.236 1139.89,471.189 1146.52,475.096 1153.15,478.43 1159.78,482.245 1166.41,486.313 1173.04,489.513 1179.67,493.283 1186.3,496.825 1192.92,499.671 1199.55,503.113 1206.18,506.604 1212.81,510.005 1219.44,512.382 1226.07,515.248 1232.7,517.822 1239.33,520.459 1245.95,522.228 1252.58,524.581 1259.21,525.939 1265.84,528.212 1272.47,529.783 1279.1,531.632 1285.73,533.859 1292.36,535.166 1298.98,536.667 1305.61,537.918 1312.24,539.276 1318.87,540.191 1325.5,541.486 1332.13,542.702 1338.76,543.457 1345.39,544.314 1352.01,545.274 1358.64,545.951 1365.27,546.827 1371.9,547.613 1378.53,548.107 1385.16,549.002 1391.79,549.703 1398.42,550.005 1405.04,551.12 1411.67,551.938 1418.3,552.453 1424.93,552.556 1431.56,553.437 1438.19,554.169 1444.82,554.536 1451.45,555.011 1458.07,555.487 1464.7,556.019 1471.33,556.823 1477.96,557.092 1484.59,558.175 1491.22,558.611 1497.85,559.49 1504.48,560.598 1511.1,561.268 1517.73,562.112 1524.36,563.191 1530.99,564.744 1537.62,566.084 1544.25,567.383 1550.88,569.179 1557.51,571.561 1564.13,574.124 1570.76,577.728 1577.39,582.003 1584.02,586.741 1590.65,594.119 1597.28,603.374 1603.91,614.993 1610.54,630.33 1617.16,647.505 1623.79,667.017 1630.42,678.648 1637.05,684.485 1643.68,689.342 1650.31,693.843 1656.94,698.237 1663.57,702.875 1670.19,706.615 1676.82,710.435 1683.45,713.688 1690.08,717.348 1696.71,720.634 1703.34,723.766 1709.97,727.596 1716.6,729.839 1723.22,733.188 1729.85,736.5 1736.48,739.317 1743.11,742.751 1749.74,745.502 1756.37,748.081 1763,751.395 1769.63,753.692 1776.25,756.923 1782.88,760.531 1789.51,763.131 1796.14,766.668 1802.77,769.725 1809.4,772.461 1816.03,776.489 1822.66,779.628 1829.28,782.635 1835.91,786.139 1842.54,789.22 1849.17,792.517 1855.8,796.498 1862.43,799.568 1869.06,802.118 1875.69,805.778 1882.31,808.844 1888.94,811.704 1895.57,814.795 1902.2,818.93 1908.83,821.752 1915.46,824.735 1922.09,828.934 1928.72,831.949 1935.34,835.331 1941.97,838.536 1948.6,842.336 1955.23,845.457 1961.86,848.778 1968.49,852.587 1975.12,854.406 1981.75,857.451 1988.37,861.711 1995,864.608 2001.63,868.408 2008.26,870.717 2014.89,873.941 2021.52,877.198 2028.15,881.272 2034.78,884.102 2041.4,887.616 2048.03,890.545 2054.66,893.96 2061.29,897.907 2067.92,900.88 2074.55,903.939 2081.18,907.454 2087.81,910.712 2094.43,913.878 2101.06,917.746 2107.69,919.888 2114.32,923.185 2120.95,926.973 2127.58,930.217 2134.21,933.388 2140.84,936.115 2147.46,940.217 2154.09,942.936 2160.72,946.849 2167.35,950.156 2173.98,953.287 2180.61,956.731 2187.24,960.518 2193.86,963.274 2200.49,965.628 2207.12,969.917 2213.75,972.594 2220.38,976.125 2227.01,978.965 2233.64,982.439 2240.27,986.32 2246.89,988.462 2253.52,991.253 2260.15,995.372 2266.78,998.03 2273.41,1001.37 2280.04,1004.64 2286.67,1008.31 2293.3,1011.26 "/>
<path clip-path="url(#clip740)" d="M1784.79 248.629 L2282.73 248.629 L2282.73 93.1086 L1784.79 93.1086  Z" fill="#ffffff" fill-rule="evenodd" fill-opacity="1"/>
<polyline clip-path="url(#clip740)" style="stroke:#000000; stroke-linecap:round; stroke-linejoin:round; stroke-width:4; stroke-opacity:1; fill:none" points="1784.79,248.629 2282.73,248.629 2282.73,93.1086 1784.79,93.1086 1784.79,248.629 "/>
<polyline clip-path="url(#clip740)" style="stroke:#3da44d; stroke-linecap:round; stroke-linejoin:round; stroke-width:4; stroke-opacity:1; fill:none" points="1808.13,144.949 1948.19,144.949 "/>
<path clip-path="url(#clip740)" d="M1997.09 157.298 L1997.09 148.016 L1989.45 148.016 L1989.45 144.173 L2001.72 144.173 L2001.72 159.011 Q1999.01 160.932 1995.75 161.928 Q1992.49 162.9 1988.78 162.9 Q1980.68 162.9 1976.1 158.178 Q1971.54 153.432 1971.54 144.983 Q1971.54 136.511 1976.1 131.789 Q1980.68 127.044 1988.78 127.044 Q1992.16 127.044 1995.19 127.877 Q1998.25 128.71 2000.82 130.331 L2000.82 135.307 Q1998.23 133.108 1995.31 131.997 Q1992.39 130.886 1989.18 130.886 Q1982.83 130.886 1979.64 134.428 Q1976.47 137.969 1976.47 144.983 Q1976.47 151.974 1979.64 155.516 Q1982.83 159.057 1989.18 159.057 Q1991.65 159.057 1993.6 158.641 Q1995.54 158.201 1997.09 157.298 Z" fill="#000000" fill-rule="nonzero" fill-opacity="1" /><path clip-path="url(#clip740)" d="M2007.92 147.344 L2020.4 147.344 L2020.4 151.141 L2007.92 151.141 L2007.92 147.344 Z" fill="#000000" fill-rule="nonzero" fill-opacity="1" /><path clip-path="url(#clip740)" d="M2048.09 128.803 L2048.09 133.363 Q2045.42 132.09 2043.06 131.465 Q2040.7 130.84 2038.5 130.84 Q2034.68 130.84 2032.6 132.321 Q2030.54 133.803 2030.54 136.534 Q2030.54 138.826 2031.91 140.007 Q2033.3 141.164 2037.14 141.882 L2039.96 142.46 Q2045.19 143.456 2047.67 145.979 Q2050.17 148.479 2050.17 152.692 Q2050.17 157.715 2046.79 160.307 Q2043.43 162.9 2036.93 162.9 Q2034.48 162.9 2031.7 162.344 Q2028.94 161.789 2025.98 160.701 L2025.98 155.886 Q2028.83 157.483 2031.56 158.293 Q2034.29 159.104 2036.93 159.104 Q2040.93 159.104 2043.11 157.53 Q2045.29 155.956 2045.29 153.039 Q2045.29 150.493 2043.71 149.057 Q2042.16 147.622 2038.6 146.905 L2035.75 146.349 Q2030.52 145.307 2028.18 143.085 Q2025.84 140.863 2025.84 136.905 Q2025.84 132.321 2029.06 129.682 Q2032.3 127.044 2037.97 127.044 Q2040.4 127.044 2042.92 127.483 Q2045.45 127.923 2048.09 128.803 Z" fill="#000000" fill-rule="nonzero" fill-opacity="1" /><path clip-path="url(#clip740)" d="M2068.06 164.636 Q2066.26 169.266 2064.55 170.678 Q2062.83 172.09 2059.96 172.09 L2056.56 172.09 L2056.56 168.525 L2059.06 168.525 Q2060.82 168.525 2061.79 167.692 Q2062.76 166.858 2063.94 163.756 L2064.71 161.812 L2054.22 136.303 L2058.73 136.303 L2066.84 156.581 L2074.94 136.303 L2079.45 136.303 L2068.06 164.636 Z" fill="#000000" fill-rule="nonzero" fill-opacity="1" /><path clip-path="url(#clip740)" d="M2105.52 141.28 Q2107.11 138.409 2109.34 137.044 Q2111.56 135.678 2114.57 135.678 Q2118.62 135.678 2120.82 138.525 Q2123.02 141.349 2123.02 146.581 L2123.02 162.229 L2118.73 162.229 L2118.73 146.719 Q2118.73 142.993 2117.42 141.187 Q2116.1 139.382 2113.39 139.382 Q2110.08 139.382 2108.16 141.581 Q2106.23 143.78 2106.23 147.576 L2106.23 162.229 L2101.95 162.229 L2101.95 146.719 Q2101.95 142.969 2100.63 141.187 Q2099.31 139.382 2096.56 139.382 Q2093.29 139.382 2091.37 141.604 Q2089.45 143.803 2089.45 147.576 L2089.45 162.229 L2085.17 162.229 L2085.17 136.303 L2089.45 136.303 L2089.45 140.331 Q2090.91 137.946 2092.95 136.812 Q2094.98 135.678 2097.79 135.678 Q2100.61 135.678 2102.58 137.113 Q2104.57 138.548 2105.52 141.28 Z" fill="#000000" fill-rule="nonzero" fill-opacity="1" /><path clip-path="url(#clip740)" d="M2135.63 158.34 L2135.63 172.09 L2131.35 172.09 L2131.35 136.303 L2135.63 136.303 L2135.63 140.238 Q2136.98 137.923 2139.01 136.812 Q2141.07 135.678 2143.92 135.678 Q2148.64 135.678 2151.58 139.428 Q2154.54 143.178 2154.54 149.289 Q2154.54 155.4 2151.58 159.15 Q2148.64 162.9 2143.92 162.9 Q2141.07 162.9 2139.01 161.789 Q2136.98 160.655 2135.63 158.34 M2150.12 149.289 Q2150.12 144.59 2148.18 141.928 Q2146.26 139.243 2142.88 139.243 Q2139.5 139.243 2137.55 141.928 Q2135.63 144.59 2135.63 149.289 Q2135.63 153.988 2137.55 156.673 Q2139.5 159.335 2142.88 159.335 Q2146.26 159.335 2148.18 156.673 Q2150.12 153.988 2150.12 149.289 Z" fill="#000000" fill-rule="nonzero" fill-opacity="1" /><path clip-path="url(#clip740)" d="M2161.79 127.669 L2168.09 127.669 L2183.41 156.581 L2183.41 127.669 L2187.95 127.669 L2187.95 162.229 L2181.65 162.229 L2166.33 133.317 L2166.33 162.229 L2161.79 162.229 L2161.79 127.669 Z" fill="#000000" fill-rule="nonzero" fill-opacity="1" /><path clip-path="url(#clip740)" d="M2219.24 148.201 L2219.24 150.284 L2199.66 150.284 Q2199.94 154.682 2202.3 156.997 Q2204.68 159.289 2208.92 159.289 Q2211.37 159.289 2213.66 158.687 Q2215.98 158.085 2218.25 156.881 L2218.25 160.909 Q2215.96 161.881 2213.55 162.391 Q2211.14 162.9 2208.66 162.9 Q2202.46 162.9 2198.83 159.289 Q2195.22 155.678 2195.22 149.52 Q2195.22 143.155 2198.64 139.428 Q2202.09 135.678 2207.92 135.678 Q2213.16 135.678 2216.19 139.057 Q2219.24 142.414 2219.24 148.201 M2214.98 146.951 Q2214.94 143.456 2213.02 141.372 Q2211.12 139.289 2207.97 139.289 Q2204.41 139.289 2202.25 141.303 Q2200.12 143.317 2199.8 146.974 L2214.98 146.951 Z" fill="#000000" fill-rule="nonzero" fill-opacity="1" /><path clip-path="url(#clip740)" d="M2230.45 128.942 L2230.45 136.303 L2239.22 136.303 L2239.22 139.613 L2230.45 139.613 L2230.45 153.687 Q2230.45 156.858 2231.3 157.761 Q2232.18 158.664 2234.85 158.664 L2239.22 158.664 L2239.22 162.229 L2234.85 162.229 Q2229.91 162.229 2228.04 160.4 Q2226.16 158.548 2226.16 153.687 L2226.16 139.613 L2223.04 139.613 L2223.04 136.303 L2226.16 136.303 L2226.16 128.942 L2230.45 128.942 Z" fill="#000000" fill-rule="nonzero" fill-opacity="1" /><polyline clip-path="url(#clip740)" style="stroke:#e26f46; stroke-linecap:round; stroke-linejoin:round; stroke-width:4; stroke-opacity:1; fill:none" points="1808.13,196.789 1948.19,196.789 "/>
<path clip-path="url(#clip740)" d="M1971.54 179.509 L1976.21 179.509 L1976.21 210.133 L1993.04 210.133 L1993.04 214.069 L1971.54 214.069 L1971.54 179.509 Z" fill="#000000" fill-rule="nonzero" fill-opacity="1" /><path clip-path="url(#clip740)" d="M2010.59 184.115 L2004.24 201.314 L2016.95 201.314 L2010.59 184.115 M2007.95 179.509 L2013.25 179.509 L2026.42 214.069 L2021.56 214.069 L2018.41 205.203 L2002.83 205.203 L1999.68 214.069 L1994.75 214.069 L2007.95 179.509 Z" fill="#000000" fill-rule="nonzero" fill-opacity="1" /><path clip-path="url(#clip740)" d="M2028.09 199.184 L2040.56 199.184 L2040.56 202.981 L2028.09 202.981 L2028.09 199.184 Z" fill="#000000" fill-rule="nonzero" fill-opacity="1" /><path clip-path="url(#clip740)" d="M2068.25 180.643 L2068.25 185.203 Q2065.59 183.93 2063.23 183.305 Q2060.86 182.68 2058.67 182.68 Q2054.85 182.68 2052.76 184.161 Q2050.7 185.643 2050.7 188.374 Q2050.7 190.666 2052.07 191.847 Q2053.46 193.004 2057.3 193.722 L2060.12 194.3 Q2065.36 195.296 2067.83 197.819 Q2070.33 200.319 2070.33 204.532 Q2070.33 209.555 2066.95 212.147 Q2063.6 214.74 2057.09 214.74 Q2054.64 214.74 2051.86 214.184 Q2049.11 213.629 2046.14 212.541 L2046.14 207.726 Q2048.99 209.323 2051.72 210.133 Q2054.45 210.944 2057.09 210.944 Q2061.1 210.944 2063.27 209.37 Q2065.45 207.796 2065.45 204.879 Q2065.45 202.333 2063.87 200.897 Q2062.32 199.462 2058.76 198.745 L2055.91 198.189 Q2050.68 197.147 2048.34 194.925 Q2046 192.703 2046 188.745 Q2046 184.161 2049.22 181.522 Q2052.46 178.884 2058.13 178.884 Q2060.56 178.884 2063.09 179.323 Q2065.61 179.763 2068.25 180.643 Z" fill="#000000" fill-rule="nonzero" fill-opacity="1" /><path clip-path="url(#clip740)" d="M2088.23 216.476 Q2086.42 221.106 2084.71 222.518 Q2082.99 223.93 2080.12 223.93 L2076.72 223.93 L2076.72 220.365 L2079.22 220.365 Q2080.98 220.365 2081.95 219.532 Q2082.92 218.698 2084.11 215.596 L2084.87 213.652 L2074.38 188.143 L2078.9 188.143 L2087 208.421 L2095.1 188.143 L2099.61 188.143 L2088.23 216.476 Z" fill="#000000" fill-rule="nonzero" fill-opacity="1" /><path clip-path="url(#clip740)" d="M2125.68 193.12 Q2127.28 190.249 2129.5 188.884 Q2131.72 187.518 2134.73 187.518 Q2138.78 187.518 2140.98 190.365 Q2143.18 193.189 2143.18 198.421 L2143.18 214.069 L2138.9 214.069 L2138.9 198.559 Q2138.9 194.833 2137.58 193.027 Q2136.26 191.222 2133.55 191.222 Q2130.24 191.222 2128.32 193.421 Q2126.4 195.62 2126.4 199.416 L2126.4 214.069 L2122.11 214.069 L2122.11 198.559 Q2122.11 194.809 2120.79 193.027 Q2119.48 191.222 2116.72 191.222 Q2113.46 191.222 2111.54 193.444 Q2109.61 195.643 2109.61 199.416 L2109.61 214.069 L2105.33 214.069 L2105.33 188.143 L2109.61 188.143 L2109.61 192.171 Q2111.07 189.786 2113.11 188.652 Q2115.15 187.518 2117.95 187.518 Q2120.77 187.518 2122.74 188.953 Q2124.73 190.388 2125.68 193.12 Z" fill="#000000" fill-rule="nonzero" fill-opacity="1" /><path clip-path="url(#clip740)" d="M2155.79 210.18 L2155.79 223.93 L2151.51 223.93 L2151.51 188.143 L2155.79 188.143 L2155.79 192.078 Q2157.14 189.763 2159.17 188.652 Q2161.23 187.518 2164.08 187.518 Q2168.8 187.518 2171.74 191.268 Q2174.71 195.018 2174.71 201.129 Q2174.71 207.24 2171.74 210.99 Q2168.8 214.74 2164.08 214.74 Q2161.23 214.74 2159.17 213.629 Q2157.14 212.495 2155.79 210.18 M2170.29 201.129 Q2170.29 196.43 2168.34 193.768 Q2166.42 191.083 2163.04 191.083 Q2159.66 191.083 2157.72 193.768 Q2155.79 196.43 2155.79 201.129 Q2155.79 205.828 2157.72 208.513 Q2159.66 211.175 2163.04 211.175 Q2166.42 211.175 2168.34 208.513 Q2170.29 205.828 2170.29 201.129 Z" fill="#000000" fill-rule="nonzero" fill-opacity="1" /><path clip-path="url(#clip740)" d="M2181.95 179.509 L2188.25 179.509 L2203.57 208.421 L2203.57 179.509 L2208.11 179.509 L2208.11 214.069 L2201.81 214.069 L2186.49 185.157 L2186.49 214.069 L2181.95 214.069 L2181.95 179.509 Z" fill="#000000" fill-rule="nonzero" fill-opacity="1" /><path clip-path="url(#clip740)" d="M2239.41 200.041 L2239.41 202.124 L2219.82 202.124 Q2220.1 206.522 2222.46 208.837 Q2224.85 211.129 2229.08 211.129 Q2231.53 211.129 2233.83 210.527 Q2236.14 209.925 2238.41 208.721 L2238.41 212.749 Q2236.12 213.721 2233.71 214.231 Q2231.3 214.74 2228.83 214.74 Q2222.62 214.74 2218.99 211.129 Q2215.38 207.518 2215.38 201.36 Q2215.38 194.995 2218.8 191.268 Q2222.25 187.518 2228.09 187.518 Q2233.32 187.518 2236.35 190.897 Q2239.41 194.254 2239.41 200.041 M2235.15 198.791 Q2235.1 195.296 2233.18 193.212 Q2231.28 191.129 2228.13 191.129 Q2224.57 191.129 2222.41 193.143 Q2220.28 195.157 2219.96 198.814 L2235.15 198.791 Z" fill="#000000" fill-rule="nonzero" fill-opacity="1" /><path clip-path="url(#clip740)" d="M2250.61 180.782 L2250.61 188.143 L2259.38 188.143 L2259.38 191.453 L2250.61 191.453 L2250.61 205.527 Q2250.61 208.698 2251.47 209.601 Q2252.34 210.504 2255.01 210.504 L2259.38 210.504 L2259.38 214.069 L2255.01 214.069 Q2250.08 214.069 2248.2 212.24 Q2246.33 210.388 2246.33 205.527 L2246.33 191.453 L2243.2 191.453 L2243.2 188.143 L2246.33 188.143 L2246.33 180.782 L2250.61 180.782 Z" fill="#000000" fill-rule="nonzero" fill-opacity="1" /></svg>
