<?xml version="1.0" encoding="utf-8"?>
<svg xmlns="http://www.w3.org/2000/svg" xmlns:xlink="http://www.w3.org/1999/xlink" width="600" height="400" viewBox="0 0 2400 1600">
<defs>
  <clipPath id="clip720">
    <rect x="0" y="0" width="2400" height="1600"/>
  </clipPath>
</defs>
<path clip-path="url(#clip720)" d="M0 1600 L2400 1600 L2400 0 L0 0  Z" fill="#ffffff" fill-rule="evenodd" fill-opacity="1"/>
<defs>
  <clipPath id="clip721">
    <rect x="480" y="0" width="1681" height="1600"/>
  </clipPath>
</defs>
<path clip-path="url(#clip720)" d="M193.936 1486.45 L2352.76 1486.45 L2352.76 47.2441 L193.936 47.2441  Z" fill="#ffffff" fill-rule="evenodd" fill-opacity="1"/>
<defs>
  <clipPath id="clip722">
    <rect x="193" y="47" width="2160" height="1440"/>
  </clipPath>
</defs>
<polyline clip-path="url(#clip722)" style="stroke:#000000; stroke-linecap:round; stroke-linejoin:round; stroke-width:2; stroke-opacity:0.1; fill:none" points="301.559,1486.45 301.559,47.2441 "/>
<polyline clip-path="url(#clip722)" style="stroke:#000000; stroke-linecap:round; stroke-linejoin:round; stroke-width:2; stroke-opacity:0.1; fill:none" points="787.69,1486.45 787.69,47.2441 "/>
<polyline clip-path="url(#clip722)" style="stroke:#000000; stroke-linecap:round; stroke-linejoin:round; stroke-width:2; stroke-opacity:0.1; fill:none" points="1273.82,1486.45 1273.82,47.2441 "/>
<polyline clip-path="url(#clip722)" style="stroke:#000000; stroke-linecap:round; stroke-linejoin:round; stroke-width:2; stroke-opacity:0.1; fill:none" points="1759.95,1486.45 1759.95,47.2441 "/>
<polyline clip-path="url(#clip722)" style="stroke:#000000; stroke-linecap:round; stroke-linejoin:round; stroke-width:2; stroke-opacity:0.1; fill:none" points="2246.08,1486.45 2246.08,47.2441 "/>
<polyline clip-path="url(#clip720)" style="stroke:#000000; stroke-linecap:round; stroke-linejoin:round; stroke-width:4; stroke-opacity:1; fill:none" points="193.936,1486.45 2352.76,1486.45 "/>
<polyline clip-path="url(#clip720)" style="stroke:#000000; stroke-linecap:round; stroke-linejoin:round; stroke-width:4; stroke-opacity:1; fill:none" points="301.559,1486.45 301.559,1467.55 "/>
<polyline clip-path="url(#clip720)" style="stroke:#000000; stroke-linecap:round; stroke-linejoin:round; stroke-width:4; stroke-opacity:1; fill:none" points="787.69,1486.45 787.69,1467.55 "/>
<polyline clip-path="url(#clip720)" style="stroke:#000000; stroke-linecap:round; stroke-linejoin:round; stroke-width:4; stroke-opacity:1; fill:none" points="1273.82,1486.45 1273.82,1467.55 "/>
<polyline clip-path="url(#clip720)" style="stroke:#000000; stroke-linecap:round; stroke-linejoin:round; stroke-width:4; stroke-opacity:1; fill:none" points="1759.95,1486.45 1759.95,1467.55 "/>
<polyline clip-path="url(#clip720)" style="stroke:#000000; stroke-linecap:round; stroke-linejoin:round; stroke-width:4; stroke-opacity:1; fill:none" points="2246.08,1486.45 2246.08,1467.55 "/>
<path clip-path="url(#clip720)" d="M248.087 1532.02 L277.763 1532.02 L277.763 1535.95 L248.087 1535.95 L248.087 1532.02 Z" fill="#000000" fill-rule="nonzero" fill-opacity="1" /><path clip-path="url(#clip720)" d="M288.665 1544.91 L296.304 1544.91 L296.304 1518.55 L287.994 1520.21 L287.994 1515.95 L296.258 1514.29 L300.934 1514.29 L300.934 1544.91 L308.573 1544.91 L308.573 1548.85 L288.665 1548.85 L288.665 1544.91 Z" fill="#000000" fill-rule="nonzero" fill-opacity="1" /><path clip-path="url(#clip720)" d="M318.017 1542.97 L322.901 1542.97 L322.901 1548.85 L318.017 1548.85 L318.017 1542.97 Z" fill="#000000" fill-rule="nonzero" fill-opacity="1" /><path clip-path="url(#clip720)" d="M343.086 1517.37 Q339.475 1517.37 337.647 1520.93 Q335.841 1524.47 335.841 1531.6 Q335.841 1538.71 337.647 1542.27 Q339.475 1545.82 343.086 1545.82 Q346.721 1545.82 348.526 1542.27 Q350.355 1538.71 350.355 1531.6 Q350.355 1524.47 348.526 1520.93 Q346.721 1517.37 343.086 1517.37 M343.086 1513.66 Q348.897 1513.66 351.952 1518.27 Q355.031 1522.85 355.031 1531.6 Q355.031 1540.33 351.952 1544.94 Q348.897 1549.52 343.086 1549.52 Q337.276 1549.52 334.198 1544.94 Q331.142 1540.33 331.142 1531.6 Q331.142 1522.85 334.198 1518.27 Q337.276 1513.66 343.086 1513.66 Z" fill="#000000" fill-rule="nonzero" fill-opacity="1" /><path clip-path="url(#clip720)" d="M734.716 1532.02 L764.391 1532.02 L764.391 1535.95 L734.716 1535.95 L734.716 1532.02 Z" fill="#000000" fill-rule="nonzero" fill-opacity="1" /><path clip-path="url(#clip720)" d="M784.484 1517.37 Q780.873 1517.37 779.044 1520.93 Q777.238 1524.47 777.238 1531.6 Q777.238 1538.71 779.044 1542.27 Q780.873 1545.82 784.484 1545.82 Q788.118 1545.82 789.924 1542.27 Q791.752 1538.71 791.752 1531.6 Q791.752 1524.47 789.924 1520.93 Q788.118 1517.37 784.484 1517.37 M784.484 1513.66 Q790.294 1513.66 793.349 1518.27 Q796.428 1522.85 796.428 1531.6 Q796.428 1540.33 793.349 1544.94 Q790.294 1549.52 784.484 1549.52 Q778.674 1549.52 775.595 1544.94 Q772.539 1540.33 772.539 1531.6 Q772.539 1522.85 775.595 1518.27 Q778.674 1513.66 784.484 1513.66 Z" fill="#000000" fill-rule="nonzero" fill-opacity="1" /><path clip-path="url(#clip720)" d="M804.646 1542.97 L809.53 1542.97 L809.53 1548.85 L804.646 1548.85 L804.646 1542.97 Z" fill="#000000" fill-rule="nonzero" fill-opacity="1" /><path clip-path="url(#clip720)" d="M819.761 1514.29 L838.118 1514.29 L838.118 1518.22 L824.044 1518.22 L824.044 1526.7 Q825.062 1526.35 826.081 1526.19 Q827.099 1526 828.118 1526 Q833.905 1526 837.284 1529.17 Q840.664 1532.34 840.664 1537.76 Q840.664 1543.34 837.192 1546.44 Q833.72 1549.52 827.4 1549.52 Q825.224 1549.52 822.956 1549.15 Q820.71 1548.78 818.303 1548.04 L818.303 1543.34 Q820.386 1544.47 822.609 1545.03 Q824.831 1545.58 827.308 1545.58 Q831.312 1545.58 833.65 1543.48 Q835.988 1541.37 835.988 1537.76 Q835.988 1534.15 833.65 1532.04 Q831.312 1529.94 827.308 1529.94 Q825.433 1529.94 823.558 1530.35 Q821.706 1530.77 819.761 1531.65 L819.761 1514.29 Z" fill="#000000" fill-rule="nonzero" fill-opacity="1" /><path clip-path="url(#clip720)" d="M1251.21 1517.37 Q1247.59 1517.37 1245.77 1520.93 Q1243.96 1524.47 1243.96 1531.6 Q1243.96 1538.71 1245.77 1542.27 Q1247.59 1545.82 1251.21 1545.82 Q1254.84 1545.82 1256.64 1542.27 Q1258.47 1538.71 1258.47 1531.6 Q1258.47 1524.47 1256.64 1520.93 Q1254.84 1517.37 1251.21 1517.37 M1251.21 1513.66 Q1257.02 1513.66 1260.07 1518.27 Q1263.15 1522.85 1263.15 1531.6 Q1263.15 1540.33 1260.07 1544.94 Q1257.02 1549.52 1251.21 1549.52 Q1245.39 1549.52 1242.32 1544.94 Q1239.26 1540.33 1239.26 1531.6 Q1239.26 1522.85 1242.32 1518.27 Q1245.39 1513.66 1251.21 1513.66 Z" fill="#000000" fill-rule="nonzero" fill-opacity="1" /><path clip-path="url(#clip720)" d="M1271.37 1542.97 L1276.25 1542.97 L1276.25 1548.85 L1271.37 1548.85 L1271.37 1542.97 Z" fill="#000000" fill-rule="nonzero" fill-opacity="1" /><path clip-path="url(#clip720)" d="M1296.44 1517.37 Q1292.83 1517.37 1291 1520.93 Q1289.19 1524.47 1289.19 1531.6 Q1289.19 1538.71 1291 1542.27 Q1292.83 1545.82 1296.44 1545.82 Q1300.07 1545.82 1301.88 1542.27 Q1303.7 1538.71 1303.7 1531.6 Q1303.7 1524.47 1301.88 1520.93 Q1300.07 1517.37 1296.44 1517.37 M1296.44 1513.66 Q1302.25 1513.66 1305.3 1518.27 Q1308.38 1522.85 1308.38 1531.6 Q1308.38 1540.33 1305.3 1544.94 Q1302.25 1549.52 1296.44 1549.52 Q1290.63 1549.52 1287.55 1544.94 Q1284.49 1540.33 1284.49 1531.6 Q1284.49 1522.85 1287.55 1518.27 Q1290.63 1513.66 1296.44 1513.66 Z" fill="#000000" fill-rule="nonzero" fill-opacity="1" /><path clip-path="url(#clip720)" d="M1737.83 1517.37 Q1734.22 1517.37 1732.39 1520.93 Q1730.59 1524.47 1730.59 1531.6 Q1730.59 1538.71 1732.39 1542.27 Q1734.22 1545.82 1737.83 1545.82 Q1741.47 1545.82 1743.27 1542.27 Q1745.1 1538.71 1745.1 1531.6 Q1745.1 1524.47 1743.27 1520.93 Q1741.47 1517.37 1737.83 1517.37 M1737.83 1513.66 Q1743.64 1513.66 1746.7 1518.27 Q1749.78 1522.85 1749.78 1531.6 Q1749.78 1540.33 1746.7 1544.94 Q1743.64 1549.52 1737.83 1549.52 Q1732.02 1549.52 1728.94 1544.94 Q1725.89 1540.33 1725.89 1531.6 Q1725.89 1522.85 1728.94 1518.27 Q1732.02 1513.66 1737.83 1513.66 Z" fill="#000000" fill-rule="nonzero" fill-opacity="1" /><path clip-path="url(#clip720)" d="M1758 1542.97 L1762.88 1542.97 L1762.88 1548.85 L1758 1548.85 L1758 1542.97 Z" fill="#000000" fill-rule="nonzero" fill-opacity="1" /><path clip-path="url(#clip720)" d="M1773.11 1514.29 L1791.47 1514.29 L1791.47 1518.22 L1777.39 1518.22 L1777.39 1526.7 Q1778.41 1526.35 1779.43 1526.19 Q1780.45 1526 1781.47 1526 Q1787.25 1526 1790.63 1529.17 Q1794.01 1532.34 1794.01 1537.76 Q1794.01 1543.34 1790.54 1546.44 Q1787.07 1549.52 1780.75 1549.52 Q1778.57 1549.52 1776.31 1549.15 Q1774.06 1548.78 1771.65 1548.04 L1771.65 1543.34 Q1773.74 1544.47 1775.96 1545.03 Q1778.18 1545.58 1780.66 1545.58 Q1784.66 1545.58 1787 1543.48 Q1789.34 1541.37 1789.34 1537.76 Q1789.34 1534.15 1787 1532.04 Q1784.66 1529.94 1780.66 1529.94 Q1778.78 1529.94 1776.91 1530.35 Q1775.06 1530.77 1773.11 1531.65 L1773.11 1514.29 Z" fill="#000000" fill-rule="nonzero" fill-opacity="1" /><path clip-path="url(#clip720)" d="M2213.24 1544.91 L2220.87 1544.91 L2220.87 1518.55 L2212.56 1520.21 L2212.56 1515.95 L2220.83 1514.29 L2225.5 1514.29 L2225.5 1544.91 L2233.14 1544.91 L2233.14 1548.85 L2213.24 1548.85 L2213.24 1544.91 Z" fill="#000000" fill-rule="nonzero" fill-opacity="1" /><path clip-path="url(#clip720)" d="M2242.59 1542.97 L2247.47 1542.97 L2247.47 1548.85 L2242.59 1548.85 L2242.59 1542.97 Z" fill="#000000" fill-rule="nonzero" fill-opacity="1" /><path clip-path="url(#clip720)" d="M2267.66 1517.37 Q2264.05 1517.37 2262.22 1520.93 Q2260.41 1524.47 2260.41 1531.6 Q2260.41 1538.71 2262.22 1542.27 Q2264.05 1545.82 2267.66 1545.82 Q2271.29 1545.82 2273.1 1542.27 Q2274.92 1538.71 2274.92 1531.6 Q2274.92 1524.47 2273.1 1520.93 Q2271.29 1517.37 2267.66 1517.37 M2267.66 1513.66 Q2273.47 1513.66 2276.52 1518.27 Q2279.6 1522.85 2279.6 1531.6 Q2279.6 1540.33 2276.52 1544.94 Q2273.47 1549.52 2267.66 1549.52 Q2261.85 1549.52 2258.77 1544.94 Q2255.71 1540.33 2255.71 1531.6 Q2255.71 1522.85 2258.77 1518.27 Q2261.85 1513.66 2267.66 1513.66 Z" fill="#000000" fill-rule="nonzero" fill-opacity="1" /><polyline clip-path="url(#clip722)" style="stroke:#000000; stroke-linecap:round; stroke-linejoin:round; stroke-width:2; stroke-opacity:0.1; fill:none" points="193.936,1445.72 2352.76,1445.72 "/>
<polyline clip-path="url(#clip722)" style="stroke:#000000; stroke-linecap:round; stroke-linejoin:round; stroke-width:2; stroke-opacity:0.1; fill:none" points="193.936,1106.28 2352.76,1106.28 "/>
<polyline clip-path="url(#clip722)" style="stroke:#000000; stroke-linecap:round; stroke-linejoin:round; stroke-width:2; stroke-opacity:0.1; fill:none" points="193.936,766.846 2352.76,766.846 "/>
<polyline clip-path="url(#clip722)" style="stroke:#000000; stroke-linecap:round; stroke-linejoin:round; stroke-width:2; stroke-opacity:0.1; fill:none" points="193.936,427.411 2352.76,427.411 "/>
<polyline clip-path="url(#clip722)" style="stroke:#000000; stroke-linecap:round; stroke-linejoin:round; stroke-width:2; stroke-opacity:0.1; fill:none" points="193.936,87.9763 2352.76,87.9763 "/>
<polyline clip-path="url(#clip720)" style="stroke:#000000; stroke-linecap:round; stroke-linejoin:round; stroke-width:4; stroke-opacity:1; fill:none" points="193.936,1486.45 193.936,47.2441 "/>
<polyline clip-path="url(#clip720)" style="stroke:#000000; stroke-linecap:round; stroke-linejoin:round; stroke-width:4; stroke-opacity:1; fill:none" points="193.936,1445.72 212.834,1445.72 "/>
<polyline clip-path="url(#clip720)" style="stroke:#000000; stroke-linecap:round; stroke-linejoin:round; stroke-width:4; stroke-opacity:1; fill:none" points="193.936,1106.28 212.834,1106.28 "/>
<polyline clip-path="url(#clip720)" style="stroke:#000000; stroke-linecap:round; stroke-linejoin:round; stroke-width:4; stroke-opacity:1; fill:none" points="193.936,766.846 212.834,766.846 "/>
<polyline clip-path="url(#clip720)" style="stroke:#000000; stroke-linecap:round; stroke-linejoin:round; stroke-width:4; stroke-opacity:1; fill:none" points="193.936,427.411 212.834,427.411 "/>
<polyline clip-path="url(#clip720)" style="stroke:#000000; stroke-linecap:round; stroke-linejoin:round; stroke-width:4; stroke-opacity:1; fill:none" points="193.936,87.9763 212.834,87.9763 "/>
<path clip-path="url(#clip720)" d="M50.9921 1446.17 L80.6679 1446.17 L80.6679 1450.1 L50.9921 1450.1 L50.9921 1446.17 Z" fill="#000000" fill-rule="nonzero" fill-opacity="1" /><path clip-path="url(#clip720)" d="M91.5706 1459.06 L99.2095 1459.06 L99.2095 1432.69 L90.8993 1434.36 L90.8993 1430.1 L99.1632 1428.44 L103.839 1428.44 L103.839 1459.06 L111.478 1459.06 L111.478 1463 L91.5706 1463 L91.5706 1459.06 Z" fill="#000000" fill-rule="nonzero" fill-opacity="1" /><path clip-path="url(#clip720)" d="M120.922 1457.12 L125.807 1457.12 L125.807 1463 L120.922 1463 L120.922 1457.12 Z" fill="#000000" fill-rule="nonzero" fill-opacity="1" /><path clip-path="url(#clip720)" d="M145.992 1431.51 Q142.381 1431.51 140.552 1435.08 Q138.746 1438.62 138.746 1445.75 Q138.746 1452.86 140.552 1456.42 Q142.381 1459.96 145.992 1459.96 Q149.626 1459.96 151.431 1456.42 Q153.26 1452.86 153.26 1445.75 Q153.26 1438.62 151.431 1435.08 Q149.626 1431.51 145.992 1431.51 M145.992 1427.81 Q151.802 1427.81 154.857 1432.42 Q157.936 1437 157.936 1445.75 Q157.936 1454.48 154.857 1459.08 Q151.802 1463.67 145.992 1463.67 Q140.181 1463.67 137.103 1459.08 Q134.047 1454.48 134.047 1445.75 Q134.047 1437 137.103 1432.42 Q140.181 1427.81 145.992 1427.81 Z" fill="#000000" fill-rule="nonzero" fill-opacity="1" /><path clip-path="url(#clip720)" d="M51.9875 1106.73 L81.6633 1106.73 L81.6633 1110.67 L51.9875 1110.67 L51.9875 1106.73 Z" fill="#000000" fill-rule="nonzero" fill-opacity="1" /><path clip-path="url(#clip720)" d="M101.756 1092.08 Q98.1447 1092.08 96.316 1095.64 Q94.5104 1099.19 94.5104 1106.32 Q94.5104 1113.42 96.316 1116.99 Q98.1447 1120.53 101.756 1120.53 Q105.39 1120.53 107.196 1116.99 Q109.024 1113.42 109.024 1106.32 Q109.024 1099.19 107.196 1095.64 Q105.39 1092.08 101.756 1092.08 M101.756 1088.38 Q107.566 1088.38 110.621 1092.98 Q113.7 1097.57 113.7 1106.32 Q113.7 1115.04 110.621 1119.65 Q107.566 1124.23 101.756 1124.23 Q95.9456 1124.23 92.8669 1119.65 Q89.8114 1115.04 89.8114 1106.32 Q89.8114 1097.57 92.8669 1092.98 Q95.9456 1088.38 101.756 1088.38 Z" fill="#000000" fill-rule="nonzero" fill-opacity="1" /><path clip-path="url(#clip720)" d="M121.918 1117.68 L126.802 1117.68 L126.802 1123.56 L121.918 1123.56 L121.918 1117.68 Z" fill="#000000" fill-rule="nonzero" fill-opacity="1" /><path clip-path="url(#clip720)" d="M137.033 1089 L155.39 1089 L155.39 1092.94 L141.316 1092.94 L141.316 1101.41 Q142.334 1101.06 143.353 1100.9 Q144.371 1100.71 145.39 1100.71 Q151.177 1100.71 154.556 1103.89 Q157.936 1107.06 157.936 1112.47 Q157.936 1118.05 154.464 1121.15 Q150.992 1124.23 144.672 1124.23 Q142.496 1124.23 140.228 1123.86 Q137.982 1123.49 135.575 1122.75 L135.575 1118.05 Q137.658 1119.19 139.881 1119.74 Q142.103 1120.3 144.58 1120.3 Q148.584 1120.3 150.922 1118.19 Q153.26 1116.08 153.26 1112.47 Q153.26 1108.86 150.922 1106.76 Q148.584 1104.65 144.58 1104.65 Q142.705 1104.65 140.83 1105.07 Q138.978 1105.48 137.033 1106.36 L137.033 1089 Z" fill="#000000" fill-rule="nonzero" fill-opacity="1" /><path clip-path="url(#clip720)" d="M100.76 752.645 Q97.1493 752.645 95.3206 756.209 Q93.515 759.751 93.515 766.881 Q93.515 773.987 95.3206 777.552 Q97.1493 781.094 100.76 781.094 Q104.395 781.094 106.2 777.552 Q108.029 773.987 108.029 766.881 Q108.029 759.751 106.2 756.209 Q104.395 752.645 100.76 752.645 M100.76 748.941 Q106.571 748.941 109.626 753.547 Q112.705 758.131 112.705 766.881 Q112.705 775.608 109.626 780.214 Q106.571 784.797 100.76 784.797 Q94.9502 784.797 91.8715 780.214 Q88.816 775.608 88.816 766.881 Q88.816 758.131 91.8715 753.547 Q94.9502 748.941 100.76 748.941 Z" fill="#000000" fill-rule="nonzero" fill-opacity="1" /><path clip-path="url(#clip720)" d="M120.922 778.246 L125.807 778.246 L125.807 784.126 L120.922 784.126 L120.922 778.246 Z" fill="#000000" fill-rule="nonzero" fill-opacity="1" /><path clip-path="url(#clip720)" d="M145.992 752.645 Q142.381 752.645 140.552 756.209 Q138.746 759.751 138.746 766.881 Q138.746 773.987 140.552 777.552 Q142.381 781.094 145.992 781.094 Q149.626 781.094 151.431 777.552 Q153.26 773.987 153.26 766.881 Q153.26 759.751 151.431 756.209 Q149.626 752.645 145.992 752.645 M145.992 748.941 Q151.802 748.941 154.857 753.547 Q157.936 758.131 157.936 766.881 Q157.936 775.608 154.857 780.214 Q151.802 784.797 145.992 784.797 Q140.181 784.797 137.103 780.214 Q134.047 775.608 134.047 766.881 Q134.047 758.131 137.103 753.547 Q140.181 748.941 145.992 748.941 Z" fill="#000000" fill-rule="nonzero" fill-opacity="1" /><path clip-path="url(#clip720)" d="M101.756 413.21 Q98.1447 413.21 96.316 416.775 Q94.5104 420.316 94.5104 427.446 Q94.5104 434.552 96.316 438.117 Q98.1447 441.659 101.756 441.659 Q105.39 441.659 107.196 438.117 Q109.024 434.552 109.024 427.446 Q109.024 420.316 107.196 416.775 Q105.39 413.21 101.756 413.21 M101.756 409.506 Q107.566 409.506 110.621 414.113 Q113.7 418.696 113.7 427.446 Q113.7 436.173 110.621 440.779 Q107.566 445.362 101.756 445.362 Q95.9456 445.362 92.8669 440.779 Q89.8114 436.173 89.8114 427.446 Q89.8114 418.696 92.8669 414.113 Q95.9456 409.506 101.756 409.506 Z" fill="#000000" fill-rule="nonzero" fill-opacity="1" /><path clip-path="url(#clip720)" d="M121.918 438.812 L126.802 438.812 L126.802 444.691 L121.918 444.691 L121.918 438.812 Z" fill="#000000" fill-rule="nonzero" fill-opacity="1" /><path clip-path="url(#clip720)" d="M137.033 410.131 L155.39 410.131 L155.39 414.066 L141.316 414.066 L141.316 422.538 Q142.334 422.191 143.353 422.029 Q144.371 421.844 145.39 421.844 Q151.177 421.844 154.556 425.015 Q157.936 428.187 157.936 433.603 Q157.936 439.182 154.464 442.284 Q150.992 445.362 144.672 445.362 Q142.496 445.362 140.228 444.992 Q137.982 444.622 135.575 443.881 L135.575 439.182 Q137.658 440.316 139.881 440.872 Q142.103 441.427 144.58 441.427 Q148.584 441.427 150.922 439.321 Q153.26 437.214 153.26 433.603 Q153.26 429.992 150.922 427.886 Q148.584 425.779 144.58 425.779 Q142.705 425.779 140.83 426.196 Q138.978 426.613 137.033 427.492 L137.033 410.131 Z" fill="#000000" fill-rule="nonzero" fill-opacity="1" /><path clip-path="url(#clip720)" d="M91.5706 101.321 L99.2095 101.321 L99.2095 74.9555 L90.8993 76.6222 L90.8993 72.3629 L99.1632 70.6963 L103.839 70.6963 L103.839 101.321 L111.478 101.321 L111.478 105.256 L91.5706 105.256 L91.5706 101.321 Z" fill="#000000" fill-rule="nonzero" fill-opacity="1" /><path clip-path="url(#clip720)" d="M120.922 99.3767 L125.807 99.3767 L125.807 105.256 L120.922 105.256 L120.922 99.3767 Z" fill="#000000" fill-rule="nonzero" fill-opacity="1" /><path clip-path="url(#clip720)" d="M145.992 73.775 Q142.381 73.775 140.552 77.3398 Q138.746 80.8814 138.746 88.011 Q138.746 95.1174 140.552 98.6822 Q142.381 102.224 145.992 102.224 Q149.626 102.224 151.431 98.6822 Q153.26 95.1174 153.26 88.011 Q153.26 80.8814 151.431 77.3398 Q149.626 73.775 145.992 73.775 M145.992 70.0713 Q151.802 70.0713 154.857 74.6777 Q157.936 79.261 157.936 88.011 Q157.936 96.7378 154.857 101.344 Q151.802 105.928 145.992 105.928 Q140.181 105.928 137.103 101.344 Q134.047 96.7378 134.047 88.011 Q134.047 79.261 137.103 74.6777 Q140.181 70.0713 145.992 70.0713 Z" fill="#000000" fill-rule="nonzero" fill-opacity="1" /><polyline clip-path="url(#clip722)" style="stroke:#009af9; stroke-linecap:round; stroke-linejoin:round; stroke-width:4; stroke-opacity:1; fill:none" points="1273.82,87.9763 1370.79,91.2911 1466.8,101.567 1561.04,118.141 1652.19,140.681 1739.78,169.52 1823.09,203.331 1900.95,241.783 1973.11,284.544 2038.62,330.951 2097.49,380.673 2149.24,432.549 2193.39,486.746 2229.47,542.6 2257.48,599.532 2277.42,657.458 2288.81,715.922 2291.66,774.672 2286.91,833.349 2272.67,891.731 2250.83,949.491 2220.45,1006.17 2182.47,1061.53 2136.42,1115.23 2082.77,1166.61 2022.01,1215.34 1954.59,1260.75 1880.53,1302.52 1801.25,1339.97 1716.99,1372.46 1628.21,1399.64 1536.11,1420.85 1441.4,1435.44 1345.03,1444.06 1247.95,1445.38 1151.1,1440.41 1055.56,1428.48 962.156,1410.25 871.718,1385.72 785.316,1355.88 703.187,1320.75 626.754,1280.97 556.493,1236.88 492.403,1189.81 435.435,1139.43 386.062,1086.89 343.811,1032.2 310.104,976.009 284.468,918.746 266.428,860.655 256.934,802.107 256.934,743.373 263.58,684.722 279.721,626.547 303.933,569.119 336.689,512.601 377.042,457.741 424.991,404.539 480.535,353.823 543.2,305.758 612.037,261.34 687.52,220.568 768.226,184.437 853.916,153.609 943.641,128.085 1036.57,108.528 1131.76,95.2688 1228.45,88.6392 1325.57,88.9707 1422.18,95.9318 1517.36,109.522 1609.93,129.411 1699.42,155.267 1784.64,186.757 1865.34,223.22 1940.35,264.323 2008.71,309.073 2070.9,357.138 2125.97,407.854 2173.45,461.222 2213.33,516.248 2245.13,572.765 2268.87,630.359 2284.06,688.575 2291.66,747.227 2289.76,805.981 2280.26,864.55 2262.22,922.558 2235.64,979.821 2200.98,1035.84 2158.73,1090.37 2108.41,1142.74 2050.97,1192.8 1986.88,1239.87 1915.67,1283.62 1839.23,1323.07 1756.87,1357.87 1670.23,1387.71 1579.55,1411.57 1485.91,1429.47 1390.19,1440.74 1293.31,1445.72 1196.26,1443.4 1099.95,1434.78 1005.36,1419.53 913.495,1397.98 824.957,1370.47 741.166,1337.65 661.884,1299.86 588.775,1258.1 521.362,1212.35 461.071,1163.3 408.375,1111.58 362.8,1057.88 324.821,1002.53 294.913,945.679 274.024,887.919 260.732,829.496 255.984,770.813 259.782,712.069 271.176,653.646 292.064,595.803 320.548,538.788 357.103,483.1 401.728,429.069 453.475,377.358 512.817,327.967 579.28,281.56 651.44,239.131 729.772,201.011 813.326,167.2 901.389,139.024 992.776,116.815 1087.13,100.572 1183.21,90.9596 1280.2,87.9763 1377.14,91.954 1473.09,102.23 1566.97,119.467 1658.12,142.67 1745.47,171.509 1828.31,205.651 1905.7,244.435 1977.38,287.527 2042.89,334.265 2101.29,383.987 2152.56,436.195 2195.76,490.392 2231.37,546.246 2259.38,603.344 2278.36,661.27 2288.81,719.817 2291.66,778.531 2285.96,837.202 2271.72,895.543 2248.93,953.137 2218.07,1009.82 2179.62,1065.18 2133.1,1118.55 2078.97,1169.92 2017.73,1218.32 1949.85,1263.73 1875.79,1305.17 1796.03,1342.29 1711.29,1374.45 1622.28,1400.97 1529.94,1421.85 1435.11,1436.43 1338.62,1444.06 1241.57,1445.38 1144.81,1439.75 1049.27,1427.48 955.984,1408.59 865.784,1384.06 779.619,1353.56 697.964,1318.1 622.007,1277.99 552.22,1233.9 488.605,1186.5 432.112,1136.11 382.739,1083.24 341.437,1028.55 308.205,972.363 282.569,915.017 265.479,856.843 256.934,798.254 256.934,739.499 264.529,680.91 281.62,622.735 305.832,565.307 339.063,508.955 379.891,454.095 428.314,401.224 484.333,350.508 547.473,302.775 617.259,258.688 692.742,218.248 773.922,182.448 859.85,151.62 949.575,126.428 "/>
<polyline clip-path="url(#clip722)" style="stroke:#e26f46; stroke-linecap:round; stroke-linejoin:round; stroke-width:4; stroke-opacity:1; fill:none" points="1273.82,87.9763 1375.18,92.2855 1474.87,104.219 1571.01,123.776 1665.48,148.637 1751.64,181.453 1831.16,218.579 1904.27,260.014 1972.63,304.101 2034.35,350.508 2089.89,398.904 2138.32,449.289 2177.72,501.663 2210.48,554.036 2238.01,606.41 2255.58,660.11 2264.12,715.135 2265.07,769.498 2252.73,827.838 2238.96,882.201 2219.97,936.563 2192.44,990.926 2153.98,1046.61 2112.21,1099.65 2058.09,1154.01 2003.02,1203.07 1935.13,1252.13 1868.67,1294.56 1798.88,1330.36 1727.43,1361.52 1644.83,1389.36 1555.34,1413.23 1462.77,1428.48 1367.82,1437.76 1270.02,1439.09 1171.99,1434.11 1073.48,1423.18 979.246,1403.62 888.571,1378.09 801.695,1347.6 723.126,1311.14 650.965,1270.36 584.502,1226.61 524.211,1180.53 469.616,1132.8 422.617,1083.08 382.264,1032.69 350.457,980.319 324.346,927.945 305.357,875.571 295.862,821.872 293.963,768.172 301.559,712.483 317.225,656.795 342.861,599.78 372.295,545.418 408.85,491.055 450.626,439.344 499.05,387.634 552.22,339.901 613.461,293.493 676.127,253.716 742.59,216.59 818.785,182.116 901.389,151.62 987.554,129.743 1078.23,113.169 1172.23,102.561 1269.55,100.572 1365.68,105.545 1462.05,116.815 1556.53,134.383 1646.49,158.581 1729.09,189.74 1806.48,225.209 1879.59,263.992 1947,306.09 2007.76,351.171 2062.36,397.578 2110.31,445.974 2152.08,495.033 2186.74,545.418 2216.65,595.803 2237.06,647.513 2248.93,700.55 2252.73,754.913 2249.88,809.275 2238.01,863.638 2219.02,918.001 2186.74,976.341 2153.03,1029.38 2113.16,1081.09 2066.63,1131.47 2012.51,1181.86 1949.85,1229.59 1882.91,1273.35 1812.65,1311.8 1736.93,1348.26 1657.65,1376.77 1571.72,1401.3 1477.96,1420.52 1385.86,1429.8 1290.44,1433.12 1195.25,1429.47 1101.02,1417.87 1008.68,1401.3 919.904,1377.43 836.825,1347.6 758.256,1313.79 684.197,1276.33 616.784,1234.89 555.543,1190.48 499.524,1144.73 450.626,1096.67 408.85,1047.28 372.295,998.219 342.386,947.834 320.548,896.123 306.306,843.749 303.458,789.387 309.155,733.698 320.548,679.335 341.912,623.647 366.598,570.61 399.355,517.574 435.435,465.863 478.161,415.478 527.534,366.419 581.654,321.338 644.794,277.582 715.055,236.479 795.048,196.702 871.481,166.868 962.156,138.361 1053.54,118.472 1146.59,106.539 1239.16,103.224 1335.77,104.882 1432.15,113.5 1522.58,130.406 1613.73,151.952 1698.24,180.459 1778.94,213.607 1852.53,251.727 1922.31,291.836 1984.03,336.254 2041,381.998 2092.27,428.737 2136.42,477.796 2172.02,528.844 2202.41,579.229 2222.82,632.265 2238.49,683.976 2244.18,737.676 2238.49,793.364 2225.19,849.053 2208.58,902.09 2185.79,955.126 2149.24,1010.81 2109.36,1063.85 2068.53,1112.91 2021.06,1160.64 1964.09,1208.38 1900.95,1253.46 1830.69,1294.56 1754.49,1331.69 1672.36,1364.17 1587.38,1390.03 1500.75,1407.26 1407.7,1420.52 1318.45,1424.5 1221.84,1424.17 1126.65,1416.55 1033.37,1401.3 945.065,1379.42 863.173,1351.24 783.892,1319.09 709.833,1282.96 641.471,1243.18 579.755,1200.09 522.786,1155.34 472.939,1108.27 428.314,1060.54 391.759,1010.81 361.851,960.43 337.639,910.045 323.397,858.334 314.852,806.624 315.801,753.587 327.195,697.898 346.659,643.536 368.497,590.499 402.678,534.81 438.283,483.1 484.807,430.063 529.433,383.656 586.401,335.923 645.743,293.493 712.207,253.716 776.296,219.905 "/>
<polyline clip-path="url(#clip722)" style="stroke:#3da44d; stroke-linecap:round; stroke-linejoin:round; stroke-width:4; stroke-opacity:1; fill:none" points="1273.82,87.9763 1370.79,91.954 1466.8,102.893 1560.8,119.798 1652.19,143.002 1740.01,171.509 1823.57,205.32 1901.9,243.772 1974.06,286.201 2041,332.277 2100.34,381.667 2152.08,433.046 2196.24,487.077 2232.32,542.434 2259.38,599.283 2278.36,657.126 2289.76,715.467 2291.66,774.139 2285.01,833.308 2270.77,891.648 2247.98,949.491 2217.12,1006.17 2178.67,1061.53 2132.15,1115.23 2078.5,1166.61 2017.73,1215.01 1950.8,1260.42 1877.69,1302.19 1798.88,1339.31 1715.09,1371.46 1627.26,1398.31 1535.88,1419.2 1441.64,1433.78 1346.1,1441.74 1249.61,1442.73 1153.24,1437.43 1057.7,1425.5 964.529,1407.26 873.617,1382.73 787.69,1352.9 705.56,1318.1 628.653,1278.65 557.442,1235.23 492.878,1188.49 435.435,1138.77 385.113,1086.39 342.861,1032.03 309.155,976.507 283.519,919.575 265.479,861.318 255.984,802.646 255.035,743.684 263.58,684.846 279.721,626.299 304.407,568.621 337.164,511.938 377.992,456.913 426.415,403.876 481.959,353.16 544.15,305.095 613.461,260.677 688.47,220.237 768.7,184.105 853.916,152.946 942.929,127.754 1035.03,108.197 1129.74,95.2688 1225.87,88.9707 1322.24,89.6337 1418.5,96.5947 1513.56,110.848 1606.37,130.737 1696.34,156.593 1781.79,187.752 1862.97,224.214 1938.45,264.655 2008.24,309.404 2071.38,357.138 2126.92,407.522 2175.35,460.228 2215.22,515.087 2246.08,570.942 2269.82,628.288 2284.06,686.379 2289.76,744.803 2287.86,803.35 2277.42,861.981 2258.43,920.238 2231.37,977.667 2196.71,1034.02 2153.98,1088.71 2104.14,1141.42 2046.69,1191.47 1982.6,1238.54 1912.34,1281.63 1835.91,1320.75 1754.49,1355.55 1669.04,1385.05 1579.31,1408.59 1486.74,1426.16 1391.91,1437.43 1295.78,1441.74 1199.23,1439.42 1103.27,1430.47 1008.92,1415.22 917.293,1393.67 828.755,1366.82 744.014,1334.01 664.258,1296.22 590.199,1254.45 522.786,1209.04 462.495,1160.64 409.324,1109.6 363.749,1056.23 326.245,1001.2 296.812,944.519 274.974,886.924 261.681,828.418 256.934,769.664 261.681,710.702 274.974,652.071 295.862,593.648 325.296,536.468 362.325,480.779 406.951,426.748 459.172,374.706 518.514,325.315 584.502,278.908 657.137,236.479 735.469,198.359 818.548,165.211 905.899,137.698 997.049,116.152 1090.57,100.572 1185.82,91.2911 1282.37,89.3022 1378.62,93.6114 1474.4,104.882 1568.16,122.119 1659.31,145.654 1746.66,174.824 1829.26,208.966 1907.12,247.749 1979.28,290.51 2044.79,336.917 2103.66,385.976 2154.93,437.687 2198.61,491.718 2233.74,547.241 2260.32,604.255 2278.36,662.099 2287.86,720.273 2289.76,778.945 2283.11,837.451 2267.92,895.874 2244.66,953.8 2213.33,1010.65 2173.45,1066.01 2126.45,1119.54 2071.85,1170.59 2010.61,1218.98 1943.2,1264.07 1869.62,1305.17 1790.33,1341.96 1706.31,1373.78 1618.01,1399.97 1526.14,1420.52 1431.91,1434.45 1336.01,1441.74 1239.4,1442.07 1143.15,1435.77 1048.08,1423.18 954.797,1404.28 865.072,1379.42 779.145,1348.92 697.49,1313.46 621.057,1273.68 550.796,1229.92 487.181,1182.85 430.687,1132.8 381.315,1080.43 340.013,1026.06 306.781,970.374 281.62,913.443 265.479,855.185 257.883,796.679 258.833,737.676 267.378,679.17 284.468,620.912 310.104,563.483 343.336,506.966 384.638,452.106 433.536,399.235 489.555,348.519 553.17,301.117 622.956,256.699 698.439,216.59 779.145,181.122 864.597,150.957 953.848,126.096 "/>
<path clip-path="url(#clip720)" d="M1764.98 1438.47 L2280.8 1438.47 L2280.8 1231.11 L1764.98 1231.11  Z" fill="#ffffff" fill-rule="evenodd" fill-opacity="1"/>
<polyline clip-path="url(#clip720)" style="stroke:#000000; stroke-linecap:round; stroke-linejoin:round; stroke-width:4; stroke-opacity:1; fill:none" points="1764.98,1438.47 2280.8,1438.47 2280.8,1231.11 1764.98,1231.11 1764.98,1438.47 "/>
<polyline clip-path="url(#clip720)" style="stroke:#009af9; stroke-linecap:round; stroke-linejoin:round; stroke-width:4; stroke-opacity:1; fill:none" points="1788.97,1282.95 1932.89,1282.95 "/>
<path clip-path="url(#clip720)" d="M1964.29 1266.95 L1964.29 1274.31 L1973.06 1274.31 L1973.06 1277.62 L1964.29 1277.62 L1964.29 1291.69 Q1964.29 1294.86 1965.14 1295.77 Q1966.02 1296.67 1968.68 1296.67 L1973.06 1296.67 L1973.06 1300.23 L1968.68 1300.23 Q1963.75 1300.23 1961.88 1298.41 Q1960 1296.55 1960 1291.69 L1960 1277.62 L1956.88 1277.62 L1956.88 1274.31 L1960 1274.31 L1960 1266.95 L1964.29 1266.95 Z" fill="#000000" fill-rule="nonzero" fill-opacity="1" /><path clip-path="url(#clip720)" d="M1993.68 1278.29 Q1992.97 1277.87 1992.11 1277.69 Q1991.28 1277.48 1990.26 1277.48 Q1986.65 1277.48 1984.7 1279.84 Q1982.78 1282.18 1982.78 1286.58 L1982.78 1300.23 L1978.5 1300.23 L1978.5 1274.31 L1982.78 1274.31 L1982.78 1278.34 Q1984.12 1275.98 1986.28 1274.84 Q1988.43 1273.68 1991.51 1273.68 Q1991.95 1273.68 1992.48 1273.75 Q1993.01 1273.8 1993.66 1273.92 L1993.68 1278.29 Z" fill="#000000" fill-rule="nonzero" fill-opacity="1" /><path clip-path="url(#clip720)" d="M2009.93 1287.2 Q2004.77 1287.2 2002.78 1288.38 Q2000.79 1289.56 2000.79 1292.41 Q2000.79 1294.68 2002.27 1296.02 Q2003.78 1297.34 2006.35 1297.34 Q2009.89 1297.34 2012.02 1294.84 Q2014.17 1292.32 2014.17 1288.15 L2014.17 1287.2 L2009.93 1287.2 M2018.43 1285.44 L2018.43 1300.23 L2014.17 1300.23 L2014.17 1296.3 Q2012.71 1298.66 2010.54 1299.79 Q2008.36 1300.91 2005.21 1300.91 Q2001.23 1300.91 1998.87 1298.68 Q1996.53 1296.44 1996.53 1292.69 Q1996.53 1288.31 1999.45 1286.09 Q2002.39 1283.87 2008.2 1283.87 L2014.17 1283.87 L2014.17 1283.45 Q2014.17 1280.51 2012.23 1278.92 Q2010.31 1277.29 2006.81 1277.29 Q2004.59 1277.29 2002.48 1277.83 Q2000.37 1278.36 1998.43 1279.42 L1998.43 1275.49 Q2000.77 1274.59 2002.97 1274.15 Q2005.17 1273.68 2007.25 1273.68 Q2012.87 1273.68 2015.65 1276.6 Q2018.43 1279.52 2018.43 1285.44 Z" fill="#000000" fill-rule="nonzero" fill-opacity="1" /><path clip-path="url(#clip720)" d="M2027.2 1274.31 L2031.46 1274.31 L2031.46 1300.23 L2027.2 1300.23 L2027.2 1274.31 M2027.2 1264.22 L2031.46 1264.22 L2031.46 1269.61 L2027.2 1269.61 L2027.2 1264.22 Z" fill="#000000" fill-rule="nonzero" fill-opacity="1" /><path clip-path="url(#clip720)" d="M2061.93 1284.59 L2061.93 1300.23 L2057.67 1300.23 L2057.67 1284.73 Q2057.67 1281.04 2056.23 1279.22 Q2054.8 1277.39 2051.93 1277.39 Q2048.48 1277.39 2046.49 1279.59 Q2044.49 1281.79 2044.49 1285.58 L2044.49 1300.23 L2040.21 1300.23 L2040.21 1274.31 L2044.49 1274.31 L2044.49 1278.34 Q2046.02 1276 2048.08 1274.84 Q2050.17 1273.68 2052.87 1273.68 Q2057.34 1273.68 2059.63 1276.46 Q2061.93 1279.22 2061.93 1284.59 Z" fill="#000000" fill-rule="nonzero" fill-opacity="1" /><path clip-path="url(#clip720)" d="M2070.42 1274.31 L2074.68 1274.31 L2074.68 1300.23 L2070.42 1300.23 L2070.42 1274.31 M2070.42 1264.22 L2074.68 1264.22 L2074.68 1269.61 L2070.42 1269.61 L2070.42 1264.22 Z" fill="#000000" fill-rule="nonzero" fill-opacity="1" /><path clip-path="url(#clip720)" d="M2105.14 1284.59 L2105.14 1300.23 L2100.88 1300.23 L2100.88 1284.73 Q2100.88 1281.04 2099.45 1279.22 Q2098.01 1277.39 2095.14 1277.39 Q2091.69 1277.39 2089.7 1279.59 Q2087.71 1281.79 2087.71 1285.58 L2087.71 1300.23 L2083.43 1300.23 L2083.43 1274.31 L2087.71 1274.31 L2087.71 1278.34 Q2089.24 1276 2091.3 1274.84 Q2093.38 1273.68 2096.09 1273.68 Q2100.56 1273.68 2102.85 1276.46 Q2105.14 1279.22 2105.14 1284.59 Z" fill="#000000" fill-rule="nonzero" fill-opacity="1" /><path clip-path="url(#clip720)" d="M2130.7 1286.97 Q2130.7 1282.34 2128.78 1279.79 Q2126.88 1277.25 2123.43 1277.25 Q2120 1277.25 2118.08 1279.79 Q2116.18 1282.34 2116.18 1286.97 Q2116.18 1291.58 2118.08 1294.12 Q2120 1296.67 2123.43 1296.67 Q2126.88 1296.67 2128.78 1294.12 Q2130.7 1291.58 2130.7 1286.97 M2134.96 1297.02 Q2134.96 1303.64 2132.02 1306.85 Q2129.08 1310.1 2123.01 1310.1 Q2120.77 1310.1 2118.78 1309.75 Q2116.79 1309.42 2114.91 1308.73 L2114.91 1304.59 Q2116.79 1305.6 2118.61 1306.09 Q2120.44 1306.58 2122.34 1306.58 Q2126.53 1306.58 2128.61 1304.38 Q2130.7 1302.2 2130.7 1297.78 L2130.7 1295.67 Q2129.38 1297.97 2127.32 1299.1 Q2125.26 1300.23 2122.39 1300.23 Q2117.62 1300.23 2114.7 1296.6 Q2111.79 1292.97 2111.79 1286.97 Q2111.79 1280.95 2114.7 1277.32 Q2117.62 1273.68 2122.39 1273.68 Q2125.26 1273.68 2127.32 1274.82 Q2129.38 1275.95 2130.7 1278.24 L2130.7 1274.31 L2134.96 1274.31 L2134.96 1297.02 Z" fill="#000000" fill-rule="nonzero" fill-opacity="1" /><path clip-path="url(#clip720)" d="M2175.86 1278.24 L2175.86 1264.22 L2180.12 1264.22 L2180.12 1300.23 L2175.86 1300.23 L2175.86 1296.35 Q2174.52 1298.66 2172.46 1299.79 Q2170.42 1300.91 2167.55 1300.91 Q2162.85 1300.91 2159.89 1297.16 Q2156.95 1293.41 2156.95 1287.29 Q2156.95 1281.18 2159.89 1277.43 Q2162.85 1273.68 2167.55 1273.68 Q2170.42 1273.68 2172.46 1274.82 Q2174.52 1275.93 2175.86 1278.24 M2161.35 1287.29 Q2161.35 1291.99 2163.27 1294.68 Q2165.21 1297.34 2168.59 1297.34 Q2171.97 1297.34 2173.92 1294.68 Q2175.86 1291.99 2175.86 1287.29 Q2175.86 1282.6 2173.92 1279.93 Q2171.97 1277.25 2168.59 1277.25 Q2165.21 1277.25 2163.27 1279.93 Q2161.35 1282.6 2161.35 1287.29 Z" fill="#000000" fill-rule="nonzero" fill-opacity="1" /><path clip-path="url(#clip720)" d="M2200.67 1287.2 Q2195.51 1287.2 2193.52 1288.38 Q2191.53 1289.56 2191.53 1292.41 Q2191.53 1294.68 2193.01 1296.02 Q2194.52 1297.34 2197.09 1297.34 Q2200.63 1297.34 2202.76 1294.84 Q2204.91 1292.32 2204.91 1288.15 L2204.91 1287.2 L2200.67 1287.2 M2209.17 1285.44 L2209.17 1300.23 L2204.91 1300.23 L2204.91 1296.3 Q2203.45 1298.66 2201.28 1299.79 Q2199.1 1300.91 2195.95 1300.91 Q2191.97 1300.91 2189.61 1298.68 Q2187.27 1296.44 2187.27 1292.69 Q2187.27 1288.31 2190.19 1286.09 Q2193.13 1283.87 2198.94 1283.87 L2204.91 1283.87 L2204.91 1283.45 Q2204.91 1280.51 2202.97 1278.92 Q2201.04 1277.29 2197.55 1277.29 Q2195.33 1277.29 2193.22 1277.83 Q2191.11 1278.36 2189.17 1279.42 L2189.17 1275.49 Q2191.51 1274.59 2193.71 1274.15 Q2195.91 1273.68 2197.99 1273.68 Q2203.61 1273.68 2206.39 1276.6 Q2209.17 1279.52 2209.17 1285.44 Z" fill="#000000" fill-rule="nonzero" fill-opacity="1" /><path clip-path="url(#clip720)" d="M2222.16 1266.95 L2222.16 1274.31 L2230.93 1274.31 L2230.93 1277.62 L2222.16 1277.62 L2222.16 1291.69 Q2222.16 1294.86 2223.01 1295.77 Q2223.89 1296.67 2226.55 1296.67 L2230.93 1296.67 L2230.93 1300.23 L2226.55 1300.23 Q2221.62 1300.23 2219.75 1298.41 Q2217.87 1296.55 2217.87 1291.69 L2217.87 1277.62 L2214.75 1277.62 L2214.75 1274.31 L2217.87 1274.31 L2217.87 1266.95 L2222.16 1266.95 Z" fill="#000000" fill-rule="nonzero" fill-opacity="1" /><path clip-path="url(#clip720)" d="M2248.31 1287.2 Q2243.15 1287.2 2241.16 1288.38 Q2239.17 1289.56 2239.17 1292.41 Q2239.17 1294.68 2240.65 1296.02 Q2242.16 1297.34 2244.73 1297.34 Q2248.27 1297.34 2250.4 1294.84 Q2252.55 1292.32 2252.55 1288.15 L2252.55 1287.2 L2248.31 1287.2 M2256.81 1285.44 L2256.81 1300.23 L2252.55 1300.23 L2252.55 1296.3 Q2251.09 1298.66 2248.91 1299.79 Q2246.74 1300.91 2243.59 1300.91 Q2239.61 1300.91 2237.25 1298.68 Q2234.91 1296.44 2234.91 1292.69 Q2234.91 1288.31 2237.83 1286.09 Q2240.77 1283.87 2246.58 1283.87 L2252.55 1283.87 L2252.55 1283.45 Q2252.55 1280.51 2250.6 1278.92 Q2248.68 1277.29 2245.19 1277.29 Q2242.97 1277.29 2240.86 1277.83 Q2238.75 1278.36 2236.81 1279.42 L2236.81 1275.49 Q2239.15 1274.59 2241.35 1274.15 Q2243.54 1273.68 2245.63 1273.68 Q2251.25 1273.68 2254.03 1276.6 Q2256.81 1279.52 2256.81 1285.44 Z" fill="#000000" fill-rule="nonzero" fill-opacity="1" /><polyline clip-path="url(#clip720)" style="stroke:#e26f46; stroke-linecap:round; stroke-linejoin:round; stroke-width:4; stroke-opacity:1; fill:none" points="1788.97,1334.79 1932.89,1334.79 "/>
<path clip-path="url(#clip720)" d="M1956.88 1317.51 L1961.56 1317.51 L1961.56 1348.14 L1978.38 1348.14 L1978.38 1352.07 L1956.88 1352.07 L1956.88 1317.51 Z" fill="#000000" fill-rule="nonzero" fill-opacity="1" /><path clip-path="url(#clip720)" d="M1995.93 1322.12 L1989.59 1339.32 L2002.3 1339.32 L1995.93 1322.12 M1993.29 1317.51 L1998.59 1317.51 L2011.76 1352.07 L2006.9 1352.07 L2003.75 1343.21 L1988.18 1343.21 L1985.03 1352.07 L1980.1 1352.07 L1993.29 1317.51 Z" fill="#000000" fill-rule="nonzero" fill-opacity="1" /><path clip-path="url(#clip720)" d="M2052.6 1318.65 L2052.6 1323.21 Q2049.93 1321.94 2047.57 1321.31 Q2045.21 1320.69 2043.01 1320.69 Q2039.19 1320.69 2037.11 1322.17 Q2035.05 1323.65 2035.05 1326.38 Q2035.05 1328.67 2036.42 1329.85 Q2037.8 1331.01 2041.65 1331.73 L2044.47 1332.31 Q2049.7 1333.3 2052.18 1335.82 Q2054.68 1338.32 2054.68 1342.54 Q2054.68 1347.56 2051.3 1350.15 Q2047.94 1352.75 2041.44 1352.75 Q2038.99 1352.75 2036.21 1352.19 Q2033.45 1351.63 2030.49 1350.55 L2030.49 1345.73 Q2033.34 1347.33 2036.07 1348.14 Q2038.8 1348.95 2041.44 1348.95 Q2045.44 1348.95 2047.62 1347.38 Q2049.8 1345.8 2049.8 1342.88 Q2049.8 1340.34 2048.22 1338.9 Q2046.67 1337.47 2043.11 1336.75 L2040.26 1336.19 Q2035.03 1335.15 2032.69 1332.93 Q2030.35 1330.71 2030.35 1326.75 Q2030.35 1322.17 2033.57 1319.53 Q2036.81 1316.89 2042.48 1316.89 Q2044.91 1316.89 2047.43 1317.33 Q2049.96 1317.77 2052.6 1318.65 Z" fill="#000000" fill-rule="nonzero" fill-opacity="1" /><path clip-path="url(#clip720)" d="M2072.57 1354.48 Q2070.77 1359.11 2069.05 1360.52 Q2067.34 1361.94 2064.47 1361.94 L2061.07 1361.94 L2061.07 1358.37 L2063.57 1358.37 Q2065.33 1358.37 2066.3 1357.54 Q2067.27 1356.7 2068.45 1353.6 L2069.22 1351.66 L2058.73 1326.15 L2063.24 1326.15 L2071.35 1346.43 L2079.45 1326.15 L2083.96 1326.15 L2072.57 1354.48 Z" fill="#000000" fill-rule="nonzero" fill-opacity="1" /><path clip-path="url(#clip720)" d="M2110.03 1331.13 Q2111.62 1328.26 2113.85 1326.89 Q2116.07 1325.52 2119.08 1325.52 Q2123.13 1325.52 2125.33 1328.37 Q2127.53 1331.19 2127.53 1336.43 L2127.53 1352.07 L2123.24 1352.07 L2123.24 1336.57 Q2123.24 1332.84 2121.92 1331.03 Q2120.61 1329.23 2117.9 1329.23 Q2114.59 1329.23 2112.67 1331.43 Q2110.74 1333.63 2110.74 1337.42 L2110.74 1352.07 L2106.46 1352.07 L2106.46 1336.57 Q2106.46 1332.82 2105.14 1331.03 Q2103.82 1329.23 2101.07 1329.23 Q2097.8 1329.23 2095.88 1331.45 Q2093.96 1333.65 2093.96 1337.42 L2093.96 1352.07 L2089.68 1352.07 L2089.68 1326.15 L2093.96 1326.15 L2093.96 1330.18 Q2095.42 1327.79 2097.46 1326.66 Q2099.49 1325.52 2102.3 1325.52 Q2105.12 1325.52 2107.09 1326.96 Q2109.08 1328.39 2110.03 1331.13 Z" fill="#000000" fill-rule="nonzero" fill-opacity="1" /><path clip-path="url(#clip720)" d="M2140.14 1348.19 L2140.14 1361.94 L2135.86 1361.94 L2135.86 1326.15 L2140.14 1326.15 L2140.14 1330.08 Q2141.48 1327.77 2143.52 1326.66 Q2145.58 1325.52 2148.43 1325.52 Q2153.15 1325.52 2156.09 1329.27 Q2159.05 1333.02 2159.05 1339.13 Q2159.05 1345.25 2156.09 1349 Q2153.15 1352.75 2148.43 1352.75 Q2145.58 1352.75 2143.52 1351.63 Q2141.48 1350.5 2140.14 1348.19 M2154.63 1339.13 Q2154.63 1334.44 2152.69 1331.77 Q2150.77 1329.09 2147.39 1329.09 Q2144.01 1329.09 2142.06 1331.77 Q2140.14 1334.44 2140.14 1339.13 Q2140.14 1343.83 2142.06 1346.52 Q2144.01 1349.18 2147.39 1349.18 Q2150.77 1349.18 2152.69 1346.52 Q2154.63 1343.83 2154.63 1339.13 Z" fill="#000000" fill-rule="nonzero" fill-opacity="1" /><path clip-path="url(#clip720)" d="M2187.67 1336.43 L2187.67 1352.07 L2183.41 1352.07 L2183.41 1336.57 Q2183.41 1332.88 2181.97 1331.06 Q2180.54 1329.23 2177.67 1329.23 Q2174.22 1329.23 2172.23 1331.43 Q2170.23 1333.63 2170.23 1337.42 L2170.23 1352.07 L2165.95 1352.07 L2165.95 1326.15 L2170.23 1326.15 L2170.23 1330.18 Q2171.76 1327.84 2173.82 1326.68 Q2175.91 1325.52 2178.61 1325.52 Q2183.08 1325.52 2185.37 1328.3 Q2187.67 1331.06 2187.67 1336.43 Z" fill="#000000" fill-rule="nonzero" fill-opacity="1" /><path clip-path="url(#clip720)" d="M2218.34 1338.05 L2218.34 1340.13 L2198.75 1340.13 Q2199.03 1344.53 2201.39 1346.84 Q2203.78 1349.13 2208.01 1349.13 Q2210.47 1349.13 2212.76 1348.53 Q2215.07 1347.93 2217.34 1346.73 L2217.34 1350.75 Q2215.05 1351.73 2212.64 1352.24 Q2210.23 1352.75 2207.76 1352.75 Q2201.55 1352.75 2197.92 1349.13 Q2194.31 1345.52 2194.31 1339.37 Q2194.31 1333 2197.73 1329.27 Q2201.18 1325.52 2207.02 1325.52 Q2212.25 1325.52 2215.28 1328.9 Q2218.34 1332.26 2218.34 1338.05 M2214.08 1336.8 Q2214.03 1333.3 2212.11 1331.22 Q2210.21 1329.13 2207.06 1329.13 Q2203.5 1329.13 2201.35 1331.15 Q2199.22 1333.16 2198.89 1336.82 L2214.08 1336.8 Z" fill="#000000" fill-rule="nonzero" fill-opacity="1" /><path clip-path="url(#clip720)" d="M2229.54 1318.79 L2229.54 1326.15 L2238.31 1326.15 L2238.31 1329.46 L2229.54 1329.46 L2229.54 1343.53 Q2229.54 1346.7 2230.4 1347.61 Q2231.28 1348.51 2233.94 1348.51 L2238.31 1348.51 L2238.31 1352.07 L2233.94 1352.07 Q2229.01 1352.07 2227.13 1350.25 Q2225.26 1348.39 2225.26 1343.53 L2225.26 1329.46 L2222.13 1329.46 L2222.13 1326.15 L2225.26 1326.15 L2225.26 1318.79 L2229.54 1318.79 Z" fill="#000000" fill-rule="nonzero" fill-opacity="1" /><polyline clip-path="url(#clip720)" style="stroke:#3da44d; stroke-linecap:round; stroke-linejoin:round; stroke-width:4; stroke-opacity:1; fill:none" points="1788.97,1386.63 1932.89,1386.63 "/>
<path clip-path="url(#clip720)" d="M1982.43 1398.98 L1982.43 1389.7 L1974.8 1389.7 L1974.8 1385.86 L1987.06 1385.86 L1987.06 1400.7 Q1984.36 1402.62 1981.09 1403.61 Q1977.83 1404.59 1974.12 1404.59 Q1966.02 1404.59 1961.44 1399.86 Q1956.88 1395.12 1956.88 1386.67 Q1956.88 1378.2 1961.44 1373.47 Q1966.02 1368.73 1974.12 1368.73 Q1977.5 1368.73 1980.54 1369.56 Q1983.59 1370.4 1986.16 1372.02 L1986.16 1376.99 Q1983.57 1374.79 1980.65 1373.68 Q1977.74 1372.57 1974.52 1372.57 Q1968.18 1372.57 1964.98 1376.11 Q1961.81 1379.66 1961.81 1386.67 Q1961.81 1393.66 1964.98 1397.2 Q1968.18 1400.74 1974.52 1400.74 Q1977 1400.74 1978.94 1400.33 Q1980.88 1399.89 1982.43 1398.98 Z" fill="#000000" fill-rule="nonzero" fill-opacity="1" /><path clip-path="url(#clip720)" d="M2031.39 1370.49 L2031.39 1375.05 Q2028.73 1373.78 2026.37 1373.15 Q2024.01 1372.53 2021.81 1372.53 Q2017.99 1372.53 2015.91 1374.01 Q2013.85 1375.49 2013.85 1378.22 Q2013.85 1380.51 2015.21 1381.69 Q2016.6 1382.85 2020.44 1383.57 L2023.27 1384.15 Q2028.5 1385.14 2030.98 1387.66 Q2033.48 1390.16 2033.48 1394.38 Q2033.48 1399.4 2030.1 1401.99 Q2026.74 1404.59 2020.24 1404.59 Q2017.78 1404.59 2015 1404.03 Q2012.25 1403.47 2009.29 1402.39 L2009.29 1397.57 Q2012.13 1399.17 2014.87 1399.98 Q2017.6 1400.79 2020.24 1400.79 Q2024.24 1400.79 2026.42 1399.22 Q2028.59 1397.64 2028.59 1394.72 Q2028.59 1392.18 2027.02 1390.74 Q2025.47 1389.31 2021.9 1388.59 L2019.05 1388.03 Q2013.82 1386.99 2011.49 1384.77 Q2009.15 1382.55 2009.15 1378.59 Q2009.15 1374.01 2012.37 1371.37 Q2015.61 1368.73 2021.28 1368.73 Q2023.71 1368.73 2026.23 1369.17 Q2028.75 1369.61 2031.39 1370.49 Z" fill="#000000" fill-rule="nonzero" fill-opacity="1" /><path clip-path="url(#clip720)" d="M2051.37 1406.32 Q2049.56 1410.95 2047.85 1412.36 Q2046.14 1413.78 2043.27 1413.78 L2039.87 1413.78 L2039.87 1410.21 L2042.37 1410.21 Q2044.12 1410.21 2045.1 1409.38 Q2046.07 1408.54 2047.25 1405.44 L2048.01 1403.5 L2037.53 1377.99 L2042.04 1377.99 L2050.14 1398.27 L2058.24 1377.99 L2062.76 1377.99 L2051.37 1406.32 Z" fill="#000000" fill-rule="nonzero" fill-opacity="1" /><path clip-path="url(#clip720)" d="M2088.82 1382.97 Q2090.42 1380.1 2092.64 1378.73 Q2094.86 1377.36 2097.87 1377.36 Q2101.92 1377.36 2104.12 1380.21 Q2106.32 1383.03 2106.32 1388.27 L2106.32 1403.91 L2102.04 1403.91 L2102.04 1388.41 Q2102.04 1384.68 2100.72 1382.87 Q2099.4 1381.07 2096.69 1381.07 Q2093.38 1381.07 2091.46 1383.27 Q2089.54 1385.47 2089.54 1389.26 L2089.54 1403.91 L2085.26 1403.91 L2085.26 1388.41 Q2085.26 1384.66 2083.94 1382.87 Q2082.62 1381.07 2079.86 1381.07 Q2076.6 1381.07 2074.68 1383.29 Q2072.76 1385.49 2072.76 1389.26 L2072.76 1403.91 L2068.48 1403.91 L2068.48 1377.99 L2072.76 1377.99 L2072.76 1382.02 Q2074.22 1379.63 2076.25 1378.5 Q2078.29 1377.36 2081.09 1377.36 Q2083.92 1377.36 2085.88 1378.8 Q2087.87 1380.23 2088.82 1382.97 Z" fill="#000000" fill-rule="nonzero" fill-opacity="1" /><path clip-path="url(#clip720)" d="M2118.94 1400.03 L2118.94 1413.78 L2114.66 1413.78 L2114.66 1377.99 L2118.94 1377.99 L2118.94 1381.92 Q2120.28 1379.61 2122.32 1378.5 Q2124.38 1377.36 2127.23 1377.36 Q2131.95 1377.36 2134.89 1381.11 Q2137.85 1384.86 2137.85 1390.97 Q2137.85 1397.09 2134.89 1400.84 Q2131.95 1404.59 2127.23 1404.59 Q2124.38 1404.59 2122.32 1403.47 Q2120.28 1402.34 2118.94 1400.03 M2133.43 1390.97 Q2133.43 1386.28 2131.48 1383.61 Q2129.56 1380.93 2126.18 1380.93 Q2122.8 1380.93 2120.86 1383.61 Q2118.94 1386.28 2118.94 1390.97 Q2118.94 1395.67 2120.86 1398.36 Q2122.8 1401.02 2126.18 1401.02 Q2129.56 1401.02 2131.48 1398.36 Q2133.43 1395.67 2133.43 1390.97 Z" fill="#000000" fill-rule="nonzero" fill-opacity="1" /><path clip-path="url(#clip720)" d="M2166.46 1388.27 L2166.46 1403.91 L2162.2 1403.91 L2162.2 1388.41 Q2162.2 1384.72 2160.77 1382.9 Q2159.33 1381.07 2156.46 1381.07 Q2153.01 1381.07 2151.02 1383.27 Q2149.03 1385.47 2149.03 1389.26 L2149.03 1403.91 L2144.75 1403.91 L2144.75 1377.99 L2149.03 1377.99 L2149.03 1382.02 Q2150.56 1379.68 2152.62 1378.52 Q2154.7 1377.36 2157.41 1377.36 Q2161.88 1377.36 2164.17 1380.14 Q2166.46 1382.9 2166.46 1388.27 Z" fill="#000000" fill-rule="nonzero" fill-opacity="1" /><path clip-path="url(#clip720)" d="M2197.13 1389.89 L2197.13 1391.97 L2177.55 1391.97 Q2177.83 1396.37 2180.19 1398.68 Q2182.57 1400.97 2186.81 1400.97 Q2189.26 1400.97 2191.55 1400.37 Q2193.87 1399.77 2196.14 1398.57 L2196.14 1402.59 Q2193.85 1403.57 2191.44 1404.08 Q2189.03 1404.59 2186.55 1404.59 Q2180.35 1404.59 2176.72 1400.97 Q2173.11 1397.36 2173.11 1391.21 Q2173.11 1384.84 2176.53 1381.11 Q2179.98 1377.36 2185.81 1377.36 Q2191.04 1377.36 2194.08 1380.74 Q2197.13 1384.1 2197.13 1389.89 M2192.87 1388.64 Q2192.83 1385.14 2190.91 1383.06 Q2189.01 1380.97 2185.86 1380.97 Q2182.29 1380.97 2180.14 1382.99 Q2178.01 1385 2177.69 1388.66 L2192.87 1388.64 Z" fill="#000000" fill-rule="nonzero" fill-opacity="1" /><path clip-path="url(#clip720)" d="M2208.34 1370.63 L2208.34 1377.99 L2217.11 1377.99 L2217.11 1381.3 L2208.34 1381.3 L2208.34 1395.37 Q2208.34 1398.54 2209.19 1399.45 Q2210.07 1400.35 2212.73 1400.35 L2217.11 1400.35 L2217.11 1403.91 L2212.73 1403.91 Q2207.8 1403.91 2205.93 1402.09 Q2204.05 1400.23 2204.05 1395.37 L2204.05 1381.3 L2200.93 1381.3 L2200.93 1377.99 L2204.05 1377.99 L2204.05 1370.63 L2208.34 1370.63 Z" fill="#000000" fill-rule="nonzero" fill-opacity="1" /></svg>
