<?xml version="1.0" encoding="utf-8"?>
<svg xmlns="http://www.w3.org/2000/svg" xmlns:xlink="http://www.w3.org/1999/xlink" width="600" height="400" viewBox="0 0 2400 1600">
<defs>
  <clipPath id="clip570">
    <rect x="0" y="0" width="2400" height="1600"/>
  </clipPath>
</defs>
<path clip-path="url(#clip570)" d="M0 1600 L2400 1600 L2400 0 L0 0  Z" fill="#ffffff" fill-rule="evenodd" fill-opacity="1"/>
<defs>
  <clipPath id="clip571">
    <rect x="480" y="0" width="1681" height="1600"/>
  </clipPath>
</defs>
<path clip-path="url(#clip570)" d="M193.936 1486.45 L2352.76 1486.45 L2352.76 47.2441 L193.936 47.2441  Z" fill="#ffffff" fill-rule="evenodd" fill-opacity="1"/>
<defs>
  <clipPath id="clip572">
    <rect x="193" y="47" width="2160" height="1440"/>
  </clipPath>
</defs>
<polyline clip-path="url(#clip572)" style="stroke:#000000; stroke-linecap:round; stroke-linejoin:round; stroke-width:2; stroke-opacity:0.1; fill:none" points="300.503,1486.45 300.503,47.2441 "/>
<polyline clip-path="url(#clip572)" style="stroke:#000000; stroke-linecap:round; stroke-linejoin:round; stroke-width:2; stroke-opacity:0.1; fill:none" points="785.504,1486.45 785.504,47.2441 "/>
<polyline clip-path="url(#clip572)" style="stroke:#000000; stroke-linecap:round; stroke-linejoin:round; stroke-width:2; stroke-opacity:0.1; fill:none" points="1270.5,1486.45 1270.5,47.2441 "/>
<polyline clip-path="url(#clip572)" style="stroke:#000000; stroke-linecap:round; stroke-linejoin:round; stroke-width:2; stroke-opacity:0.1; fill:none" points="1755.5,1486.45 1755.5,47.2441 "/>
<polyline clip-path="url(#clip572)" style="stroke:#000000; stroke-linecap:round; stroke-linejoin:round; stroke-width:2; stroke-opacity:0.1; fill:none" points="2240.5,1486.45 2240.5,47.2441 "/>
<polyline clip-path="url(#clip570)" style="stroke:#000000; stroke-linecap:round; stroke-linejoin:round; stroke-width:4; stroke-opacity:1; fill:none" points="193.936,1486.45 2352.76,1486.45 "/>
<polyline clip-path="url(#clip570)" style="stroke:#000000; stroke-linecap:round; stroke-linejoin:round; stroke-width:4; stroke-opacity:1; fill:none" points="300.503,1486.45 300.503,1467.55 "/>
<polyline clip-path="url(#clip570)" style="stroke:#000000; stroke-linecap:round; stroke-linejoin:round; stroke-width:4; stroke-opacity:1; fill:none" points="785.504,1486.45 785.504,1467.55 "/>
<polyline clip-path="url(#clip570)" style="stroke:#000000; stroke-linecap:round; stroke-linejoin:round; stroke-width:4; stroke-opacity:1; fill:none" points="1270.5,1486.45 1270.5,1467.55 "/>
<polyline clip-path="url(#clip570)" style="stroke:#000000; stroke-linecap:round; stroke-linejoin:round; stroke-width:4; stroke-opacity:1; fill:none" points="1755.5,1486.45 1755.5,1467.55 "/>
<polyline clip-path="url(#clip570)" style="stroke:#000000; stroke-linecap:round; stroke-linejoin:round; stroke-width:4; stroke-opacity:1; fill:none" points="2240.5,1486.45 2240.5,1467.55 "/>
<path clip-path="url(#clip570)" d="M247.032 1532.02 L276.707 1532.02 L276.707 1535.95 L247.032 1535.95 L247.032 1532.02 Z" fill="#000000" fill-rule="nonzero" fill-opacity="1" /><path clip-path="url(#clip570)" d="M287.61 1544.91 L295.249 1544.91 L295.249 1518.55 L286.939 1520.21 L286.939 1515.95 L295.203 1514.29 L299.878 1514.29 L299.878 1544.91 L307.517 1544.91 L307.517 1548.85 L287.61 1548.85 L287.61 1544.91 Z" fill="#000000" fill-rule="nonzero" fill-opacity="1" /><path clip-path="url(#clip570)" d="M316.962 1542.97 L321.846 1542.97 L321.846 1548.85 L316.962 1548.85 L316.962 1542.97 Z" fill="#000000" fill-rule="nonzero" fill-opacity="1" /><path clip-path="url(#clip570)" d="M342.031 1517.37 Q338.42 1517.37 336.591 1520.93 Q334.786 1524.47 334.786 1531.6 Q334.786 1538.71 336.591 1542.27 Q338.42 1545.82 342.031 1545.82 Q345.665 1545.82 347.471 1542.27 Q349.299 1538.71 349.299 1531.6 Q349.299 1524.47 347.471 1520.93 Q345.665 1517.37 342.031 1517.37 M342.031 1513.66 Q347.841 1513.66 350.897 1518.27 Q353.975 1522.85 353.975 1531.6 Q353.975 1540.33 350.897 1544.94 Q347.841 1549.52 342.031 1549.52 Q336.221 1549.52 333.142 1544.94 Q330.087 1540.33 330.087 1531.6 Q330.087 1522.85 333.142 1518.27 Q336.221 1513.66 342.031 1513.66 Z" fill="#000000" fill-rule="nonzero" fill-opacity="1" /><path clip-path="url(#clip570)" d="M732.53 1532.02 L762.205 1532.02 L762.205 1535.95 L732.53 1535.95 L732.53 1532.02 Z" fill="#000000" fill-rule="nonzero" fill-opacity="1" /><path clip-path="url(#clip570)" d="M782.298 1517.37 Q778.687 1517.37 776.858 1520.93 Q775.052 1524.47 775.052 1531.6 Q775.052 1538.71 776.858 1542.27 Q778.687 1545.82 782.298 1545.82 Q785.932 1545.82 787.738 1542.27 Q789.566 1538.71 789.566 1531.6 Q789.566 1524.47 787.738 1520.93 Q785.932 1517.37 782.298 1517.37 M782.298 1513.66 Q788.108 1513.66 791.163 1518.27 Q794.242 1522.85 794.242 1531.6 Q794.242 1540.33 791.163 1544.94 Q788.108 1549.52 782.298 1549.52 Q776.488 1549.52 773.409 1544.94 Q770.353 1540.33 770.353 1531.6 Q770.353 1522.85 773.409 1518.27 Q776.488 1513.66 782.298 1513.66 Z" fill="#000000" fill-rule="nonzero" fill-opacity="1" /><path clip-path="url(#clip570)" d="M802.46 1542.97 L807.344 1542.97 L807.344 1548.85 L802.46 1548.85 L802.46 1542.97 Z" fill="#000000" fill-rule="nonzero" fill-opacity="1" /><path clip-path="url(#clip570)" d="M817.575 1514.29 L835.932 1514.29 L835.932 1518.22 L821.858 1518.22 L821.858 1526.7 Q822.876 1526.35 823.895 1526.19 Q824.913 1526 825.932 1526 Q831.719 1526 835.098 1529.17 Q838.478 1532.34 838.478 1537.76 Q838.478 1543.34 835.006 1546.44 Q831.534 1549.52 825.214 1549.52 Q823.038 1549.52 820.77 1549.15 Q818.524 1548.78 816.117 1548.04 L816.117 1543.34 Q818.2 1544.47 820.423 1545.03 Q822.645 1545.58 825.122 1545.58 Q829.126 1545.58 831.464 1543.48 Q833.802 1541.37 833.802 1537.76 Q833.802 1534.15 831.464 1532.04 Q829.126 1529.94 825.122 1529.94 Q823.247 1529.94 821.372 1530.35 Q819.52 1530.77 817.575 1531.65 L817.575 1514.29 Z" fill="#000000" fill-rule="nonzero" fill-opacity="1" /><path clip-path="url(#clip570)" d="M1247.89 1517.37 Q1244.28 1517.37 1242.45 1520.93 Q1240.64 1524.47 1240.64 1531.6 Q1240.64 1538.71 1242.45 1542.27 Q1244.28 1545.82 1247.89 1545.82 Q1251.52 1545.82 1253.33 1542.27 Q1255.16 1538.71 1255.16 1531.6 Q1255.16 1524.47 1253.33 1520.93 Q1251.52 1517.37 1247.89 1517.37 M1247.89 1513.66 Q1253.7 1513.66 1256.75 1518.27 Q1259.83 1522.85 1259.83 1531.6 Q1259.83 1540.33 1256.75 1544.94 Q1253.7 1549.52 1247.89 1549.52 Q1242.08 1549.52 1239 1544.94 Q1235.94 1540.33 1235.94 1531.6 Q1235.94 1522.85 1239 1518.27 Q1242.08 1513.66 1247.89 1513.66 Z" fill="#000000" fill-rule="nonzero" fill-opacity="1" /><path clip-path="url(#clip570)" d="M1268.05 1542.97 L1272.93 1542.97 L1272.93 1548.85 L1268.05 1548.85 L1268.05 1542.97 Z" fill="#000000" fill-rule="nonzero" fill-opacity="1" /><path clip-path="url(#clip570)" d="M1293.12 1517.37 Q1289.51 1517.37 1287.68 1520.93 Q1285.87 1524.47 1285.87 1531.6 Q1285.87 1538.71 1287.68 1542.27 Q1289.51 1545.82 1293.12 1545.82 Q1296.75 1545.82 1298.56 1542.27 Q1300.39 1538.71 1300.39 1531.6 Q1300.39 1524.47 1298.56 1520.93 Q1296.75 1517.37 1293.12 1517.37 M1293.12 1513.66 Q1298.93 1513.66 1301.99 1518.27 Q1305.06 1522.85 1305.06 1531.6 Q1305.06 1540.33 1301.99 1544.94 Q1298.93 1549.52 1293.12 1549.52 Q1287.31 1549.52 1284.23 1544.94 Q1281.18 1540.33 1281.18 1531.6 Q1281.18 1522.85 1284.23 1518.27 Q1287.31 1513.66 1293.12 1513.66 Z" fill="#000000" fill-rule="nonzero" fill-opacity="1" /><path clip-path="url(#clip570)" d="M1733.39 1517.37 Q1729.78 1517.37 1727.95 1520.93 Q1726.14 1524.47 1726.14 1531.6 Q1726.14 1538.71 1727.95 1542.27 Q1729.78 1545.82 1733.39 1545.82 Q1737.02 1545.82 1738.83 1542.27 Q1740.66 1538.71 1740.66 1531.6 Q1740.66 1524.47 1738.83 1520.93 Q1737.02 1517.37 1733.39 1517.37 M1733.39 1513.66 Q1739.2 1513.66 1742.25 1518.27 Q1745.33 1522.85 1745.33 1531.6 Q1745.33 1540.33 1742.25 1544.94 Q1739.2 1549.52 1733.39 1549.52 Q1727.58 1549.52 1724.5 1544.94 Q1721.44 1540.33 1721.44 1531.6 Q1721.44 1522.85 1724.5 1518.27 Q1727.58 1513.66 1733.39 1513.66 Z" fill="#000000" fill-rule="nonzero" fill-opacity="1" /><path clip-path="url(#clip570)" d="M1753.55 1542.97 L1758.43 1542.97 L1758.43 1548.85 L1753.55 1548.85 L1753.55 1542.97 Z" fill="#000000" fill-rule="nonzero" fill-opacity="1" /><path clip-path="url(#clip570)" d="M1768.66 1514.29 L1787.02 1514.29 L1787.02 1518.22 L1772.95 1518.22 L1772.95 1526.7 Q1773.97 1526.35 1774.98 1526.19 Q1776 1526 1777.02 1526 Q1782.81 1526 1786.19 1529.17 Q1789.57 1532.34 1789.57 1537.76 Q1789.57 1543.34 1786.09 1546.44 Q1782.62 1549.52 1776.3 1549.52 Q1774.13 1549.52 1771.86 1549.15 Q1769.61 1548.78 1767.21 1548.04 L1767.21 1543.34 Q1769.29 1544.47 1771.51 1545.03 Q1773.73 1545.58 1776.21 1545.58 Q1780.22 1545.58 1782.55 1543.48 Q1784.89 1541.37 1784.89 1537.76 Q1784.89 1534.15 1782.55 1532.04 Q1780.22 1529.94 1776.21 1529.94 Q1774.34 1529.94 1772.46 1530.35 Q1770.61 1530.77 1768.66 1531.65 L1768.66 1514.29 Z" fill="#000000" fill-rule="nonzero" fill-opacity="1" /><path clip-path="url(#clip570)" d="M2207.66 1544.91 L2215.3 1544.91 L2215.3 1518.55 L2206.99 1520.21 L2206.99 1515.95 L2215.25 1514.29 L2219.93 1514.29 L2219.93 1544.91 L2227.57 1544.91 L2227.57 1548.85 L2207.66 1548.85 L2207.66 1544.91 Z" fill="#000000" fill-rule="nonzero" fill-opacity="1" /><path clip-path="url(#clip570)" d="M2237.01 1542.97 L2241.89 1542.97 L2241.89 1548.85 L2237.01 1548.85 L2237.01 1542.97 Z" fill="#000000" fill-rule="nonzero" fill-opacity="1" /><path clip-path="url(#clip570)" d="M2262.08 1517.37 Q2258.47 1517.37 2256.64 1520.93 Q2254.83 1524.47 2254.83 1531.6 Q2254.83 1538.71 2256.64 1542.27 Q2258.47 1545.82 2262.08 1545.82 Q2265.71 1545.82 2267.52 1542.27 Q2269.35 1538.71 2269.35 1531.6 Q2269.35 1524.47 2267.52 1520.93 Q2265.71 1517.37 2262.08 1517.37 M2262.08 1513.66 Q2267.89 1513.66 2270.94 1518.27 Q2274.02 1522.85 2274.02 1531.6 Q2274.02 1540.33 2270.94 1544.94 Q2267.89 1549.52 2262.08 1549.52 Q2256.27 1549.52 2253.19 1544.94 Q2250.13 1540.33 2250.13 1531.6 Q2250.13 1522.85 2253.19 1518.27 Q2256.27 1513.66 2262.08 1513.66 Z" fill="#000000" fill-rule="nonzero" fill-opacity="1" /><polyline clip-path="url(#clip572)" style="stroke:#000000; stroke-linecap:round; stroke-linejoin:round; stroke-width:2; stroke-opacity:0.1; fill:none" points="193.936,1441.75 2352.76,1441.75 "/>
<polyline clip-path="url(#clip572)" style="stroke:#000000; stroke-linecap:round; stroke-linejoin:round; stroke-width:2; stroke-opacity:0.1; fill:none" points="193.936,1103.31 2352.76,1103.31 "/>
<polyline clip-path="url(#clip572)" style="stroke:#000000; stroke-linecap:round; stroke-linejoin:round; stroke-width:2; stroke-opacity:0.1; fill:none" points="193.936,764.863 2352.76,764.863 "/>
<polyline clip-path="url(#clip572)" style="stroke:#000000; stroke-linecap:round; stroke-linejoin:round; stroke-width:2; stroke-opacity:0.1; fill:none" points="193.936,426.42 2352.76,426.42 "/>
<polyline clip-path="url(#clip572)" style="stroke:#000000; stroke-linecap:round; stroke-linejoin:round; stroke-width:2; stroke-opacity:0.1; fill:none" points="193.936,87.9763 2352.76,87.9763 "/>
<polyline clip-path="url(#clip570)" style="stroke:#000000; stroke-linecap:round; stroke-linejoin:round; stroke-width:4; stroke-opacity:1; fill:none" points="193.936,1486.45 193.936,47.2441 "/>
<polyline clip-path="url(#clip570)" style="stroke:#000000; stroke-linecap:round; stroke-linejoin:round; stroke-width:4; stroke-opacity:1; fill:none" points="193.936,1441.75 212.834,1441.75 "/>
<polyline clip-path="url(#clip570)" style="stroke:#000000; stroke-linecap:round; stroke-linejoin:round; stroke-width:4; stroke-opacity:1; fill:none" points="193.936,1103.31 212.834,1103.31 "/>
<polyline clip-path="url(#clip570)" style="stroke:#000000; stroke-linecap:round; stroke-linejoin:round; stroke-width:4; stroke-opacity:1; fill:none" points="193.936,764.863 212.834,764.863 "/>
<polyline clip-path="url(#clip570)" style="stroke:#000000; stroke-linecap:round; stroke-linejoin:round; stroke-width:4; stroke-opacity:1; fill:none" points="193.936,426.42 212.834,426.42 "/>
<polyline clip-path="url(#clip570)" style="stroke:#000000; stroke-linecap:round; stroke-linejoin:round; stroke-width:4; stroke-opacity:1; fill:none" points="193.936,87.9763 212.834,87.9763 "/>
<path clip-path="url(#clip570)" d="M50.9921 1442.2 L80.6679 1442.2 L80.6679 1446.14 L50.9921 1446.14 L50.9921 1442.2 Z" fill="#000000" fill-rule="nonzero" fill-opacity="1" /><path clip-path="url(#clip570)" d="M91.5706 1455.09 L99.2095 1455.09 L99.2095 1428.73 L90.8993 1430.4 L90.8993 1426.14 L99.1632 1424.47 L103.839 1424.47 L103.839 1455.09 L111.478 1455.09 L111.478 1459.03 L91.5706 1459.03 L91.5706 1455.09 Z" fill="#000000" fill-rule="nonzero" fill-opacity="1" /><path clip-path="url(#clip570)" d="M120.922 1453.15 L125.807 1453.15 L125.807 1459.03 L120.922 1459.03 L120.922 1453.15 Z" fill="#000000" fill-rule="nonzero" fill-opacity="1" /><path clip-path="url(#clip570)" d="M145.992 1427.55 Q142.381 1427.55 140.552 1431.11 Q138.746 1434.65 138.746 1441.78 Q138.746 1448.89 140.552 1452.46 Q142.381 1456 145.992 1456 Q149.626 1456 151.431 1452.46 Q153.26 1448.89 153.26 1441.78 Q153.26 1434.65 151.431 1431.11 Q149.626 1427.55 145.992 1427.55 M145.992 1423.84 Q151.802 1423.84 154.857 1428.45 Q157.936 1433.03 157.936 1441.78 Q157.936 1450.51 154.857 1455.12 Q151.802 1459.7 145.992 1459.7 Q140.181 1459.7 137.103 1455.12 Q134.047 1450.51 134.047 1441.78 Q134.047 1433.03 137.103 1428.45 Q140.181 1423.84 145.992 1423.84 Z" fill="#000000" fill-rule="nonzero" fill-opacity="1" /><path clip-path="url(#clip570)" d="M51.9875 1103.76 L81.6633 1103.76 L81.6633 1107.69 L51.9875 1107.69 L51.9875 1103.76 Z" fill="#000000" fill-rule="nonzero" fill-opacity="1" /><path clip-path="url(#clip570)" d="M101.756 1089.1 Q98.1447 1089.1 96.316 1092.67 Q94.5104 1096.21 94.5104 1103.34 Q94.5104 1110.45 96.316 1114.01 Q98.1447 1117.55 101.756 1117.55 Q105.39 1117.55 107.196 1114.01 Q109.024 1110.45 109.024 1103.34 Q109.024 1096.21 107.196 1092.67 Q105.39 1089.1 101.756 1089.1 M101.756 1085.4 Q107.566 1085.4 110.621 1090.01 Q113.7 1094.59 113.7 1103.34 Q113.7 1112.07 110.621 1116.67 Q107.566 1121.26 101.756 1121.26 Q95.9456 1121.26 92.8669 1116.67 Q89.8114 1112.07 89.8114 1103.34 Q89.8114 1094.59 92.8669 1090.01 Q95.9456 1085.4 101.756 1085.4 Z" fill="#000000" fill-rule="nonzero" fill-opacity="1" /><path clip-path="url(#clip570)" d="M121.918 1114.71 L126.802 1114.71 L126.802 1120.59 L121.918 1120.59 L121.918 1114.71 Z" fill="#000000" fill-rule="nonzero" fill-opacity="1" /><path clip-path="url(#clip570)" d="M137.033 1086.03 L155.39 1086.03 L155.39 1089.96 L141.316 1089.96 L141.316 1098.43 Q142.334 1098.09 143.353 1097.92 Q144.371 1097.74 145.39 1097.74 Q151.177 1097.74 154.556 1100.91 Q157.936 1104.08 157.936 1109.5 Q157.936 1115.08 154.464 1118.18 Q150.992 1121.26 144.672 1121.26 Q142.496 1121.26 140.228 1120.89 Q137.982 1120.52 135.575 1119.78 L135.575 1115.08 Q137.658 1116.21 139.881 1116.77 Q142.103 1117.32 144.58 1117.32 Q148.584 1117.32 150.922 1115.22 Q153.26 1113.11 153.26 1109.5 Q153.26 1105.89 150.922 1103.78 Q148.584 1101.67 144.58 1101.67 Q142.705 1101.67 140.83 1102.09 Q138.978 1102.51 137.033 1103.39 L137.033 1086.03 Z" fill="#000000" fill-rule="nonzero" fill-opacity="1" /><path clip-path="url(#clip570)" d="M100.76 750.662 Q97.1493 750.662 95.3206 754.226 Q93.515 757.768 93.515 764.898 Q93.515 772.004 95.3206 775.569 Q97.1493 779.111 100.76 779.111 Q104.395 779.111 106.2 775.569 Q108.029 772.004 108.029 764.898 Q108.029 757.768 106.2 754.226 Q104.395 750.662 100.76 750.662 M100.76 746.958 Q106.571 746.958 109.626 751.564 Q112.705 756.148 112.705 764.898 Q112.705 773.624 109.626 778.231 Q106.571 782.814 100.76 782.814 Q94.9502 782.814 91.8715 778.231 Q88.816 773.624 88.816 764.898 Q88.816 756.148 91.8715 751.564 Q94.9502 746.958 100.76 746.958 Z" fill="#000000" fill-rule="nonzero" fill-opacity="1" /><path clip-path="url(#clip570)" d="M120.922 776.263 L125.807 776.263 L125.807 782.143 L120.922 782.143 L120.922 776.263 Z" fill="#000000" fill-rule="nonzero" fill-opacity="1" /><path clip-path="url(#clip570)" d="M145.992 750.662 Q142.381 750.662 140.552 754.226 Q138.746 757.768 138.746 764.898 Q138.746 772.004 140.552 775.569 Q142.381 779.111 145.992 779.111 Q149.626 779.111 151.431 775.569 Q153.26 772.004 153.26 764.898 Q153.26 757.768 151.431 754.226 Q149.626 750.662 145.992 750.662 M145.992 746.958 Q151.802 746.958 154.857 751.564 Q157.936 756.148 157.936 764.898 Q157.936 773.624 154.857 778.231 Q151.802 782.814 145.992 782.814 Q140.181 782.814 137.103 778.231 Q134.047 773.624 134.047 764.898 Q134.047 756.148 137.103 751.564 Q140.181 746.958 145.992 746.958 Z" fill="#000000" fill-rule="nonzero" fill-opacity="1" /><path clip-path="url(#clip570)" d="M101.756 412.218 Q98.1447 412.218 96.316 415.783 Q94.5104 419.325 94.5104 426.454 Q94.5104 433.561 96.316 437.126 Q98.1447 440.667 101.756 440.667 Q105.39 440.667 107.196 437.126 Q109.024 433.561 109.024 426.454 Q109.024 419.325 107.196 415.783 Q105.39 412.218 101.756 412.218 M101.756 408.515 Q107.566 408.515 110.621 413.121 Q113.7 417.704 113.7 426.454 Q113.7 435.181 110.621 439.788 Q107.566 444.371 101.756 444.371 Q95.9456 444.371 92.8669 439.788 Q89.8114 435.181 89.8114 426.454 Q89.8114 417.704 92.8669 413.121 Q95.9456 408.515 101.756 408.515 Z" fill="#000000" fill-rule="nonzero" fill-opacity="1" /><path clip-path="url(#clip570)" d="M121.918 437.82 L126.802 437.82 L126.802 443.7 L121.918 443.7 L121.918 437.82 Z" fill="#000000" fill-rule="nonzero" fill-opacity="1" /><path clip-path="url(#clip570)" d="M137.033 409.14 L155.39 409.14 L155.39 413.075 L141.316 413.075 L141.316 421.547 Q142.334 421.2 143.353 421.038 Q144.371 420.852 145.39 420.852 Q151.177 420.852 154.556 424.024 Q157.936 427.195 157.936 432.612 Q157.936 438.19 154.464 441.292 Q150.992 444.371 144.672 444.371 Q142.496 444.371 140.228 444.001 Q137.982 443.63 135.575 442.889 L135.575 438.19 Q137.658 439.325 139.881 439.88 Q142.103 440.436 144.58 440.436 Q148.584 440.436 150.922 438.329 Q153.26 436.223 153.26 432.612 Q153.26 429.001 150.922 426.894 Q148.584 424.788 144.58 424.788 Q142.705 424.788 140.83 425.204 Q138.978 425.621 137.033 426.501 L137.033 409.14 Z" fill="#000000" fill-rule="nonzero" fill-opacity="1" /><path clip-path="url(#clip570)" d="M91.5706 101.321 L99.2095 101.321 L99.2095 74.9555 L90.8993 76.6222 L90.8993 72.3629 L99.1632 70.6963 L103.839 70.6963 L103.839 101.321 L111.478 101.321 L111.478 105.256 L91.5706 105.256 L91.5706 101.321 Z" fill="#000000" fill-rule="nonzero" fill-opacity="1" /><path clip-path="url(#clip570)" d="M120.922 99.3767 L125.807 99.3767 L125.807 105.256 L120.922 105.256 L120.922 99.3767 Z" fill="#000000" fill-rule="nonzero" fill-opacity="1" /><path clip-path="url(#clip570)" d="M145.992 73.775 Q142.381 73.775 140.552 77.3398 Q138.746 80.8814 138.746 88.011 Q138.746 95.1174 140.552 98.6822 Q142.381 102.224 145.992 102.224 Q149.626 102.224 151.431 98.6822 Q153.26 95.1174 153.26 88.011 Q153.26 80.8814 151.431 77.3398 Q149.626 73.775 145.992 73.775 M145.992 70.0713 Q151.802 70.0713 154.857 74.6777 Q157.936 79.261 157.936 88.011 Q157.936 96.7378 154.857 101.344 Q151.802 105.928 145.992 105.928 Q140.181 105.928 137.103 101.344 Q134.047 96.7378 134.047 88.011 Q134.047 79.261 137.103 74.6777 Q140.181 70.0713 145.992 70.0713 Z" fill="#000000" fill-rule="nonzero" fill-opacity="1" /><polyline clip-path="url(#clip572)" style="stroke:#009af9; stroke-linecap:round; stroke-linejoin:round; stroke-width:4; stroke-opacity:1; fill:none" points="1270.5,87.9763 1367.24,91.2814 1463.04,101.527 1557.05,118.053 1647.99,140.528 1735.38,169.282 1818.5,202.994 1896.17,241.333 1968.17,283.969 2033.53,330.241 2092.26,379.818 2143.88,431.543 2187.93,485.581 2223.93,541.272 2251.87,598.037 2271.76,655.794 2283.13,714.088 2285.97,772.666 2281.24,831.172 2267.03,889.383 2245.24,946.975 2214.93,1003.49 2177.04,1058.69 2131.1,1112.23 2077.58,1163.46 2016.95,1212.04 1949.69,1257.32 1875.81,1298.97 1796.71,1336.32 1712.64,1368.71 1624.07,1395.81 1532.19,1416.96 1437.7,1431.5 1341.55,1440.1 1244.69,1441.42 1148.07,1436.46 1052.75,1424.56 959.564,1406.38 869.337,1381.93 783.136,1352.18 701.197,1317.15 624.942,1277.49 554.844,1233.53 490.904,1186.6 434.068,1136.36 384.81,1083.97 342.657,1029.44 309.029,973.415 283.453,916.32 265.455,858.398 255.982,800.021 255.982,741.459 262.613,682.979 278.716,624.974 302.872,567.713 335.552,511.361 375.811,456.661 423.648,403.614 479.063,353.046 541.583,305.122 610.26,260.834 685.567,220.181 766.085,184.155 851.576,153.417 941.092,127.968 1033.81,108.468 1128.77,95.2475 1225.24,88.6373 1322.13,88.9678 1418.51,95.9085 1513.48,109.459 1605.84,129.29 1695.12,155.07 1780.13,186.469 1860.65,222.825 1935.49,263.808 2003.69,308.427 2065.73,356.351 2120.68,406.919 2168.04,460.132 2207.82,514.997 2239.56,571.349 2263.24,628.775 2278.4,686.821 2285.97,745.301 2284.08,803.884 2274.61,862.281 2256.61,920.12 2230.08,977.216 2195.51,1033.07 2153.36,1087.44 2103.15,1139.66 2045.84,1189.57 1981.9,1236.5 1910.86,1280.13 1834.6,1319.46 1752.43,1354.16 1665.99,1383.91 1575.52,1407.71 1482.1,1425.55 1386.6,1436.79 1289.95,1441.75 1193.12,1439.44 1097.04,1430.84 1002.66,1415.64 911.017,1394.16 822.684,1366.72 739.088,1334 659.991,1296.32 587.052,1254.68 519.796,1209.07 459.644,1160.15 407.071,1108.59 361.602,1055.05 323.711,999.856 293.873,943.174 273.033,885.582 259.771,827.33 255.035,768.819 258.824,710.246 270.191,651.993 291.031,594.319 319.449,537.471 355.919,481.945 400.44,428.072 452.066,376.512 511.27,327.266 577.579,280.995 649.571,238.689 727.721,200.681 811.08,166.968 898.939,138.875 990.113,116.731 1084.25,100.536 1180.1,90.9509 1276.87,87.9763 1373.58,91.9424 1469.31,102.188 1562.97,119.375 1653.91,142.511 1741.06,171.265 1823.71,205.308 1900.91,243.977 1972.43,286.944 2037.79,333.546 2096.05,383.123 2147.2,435.178 2190.3,489.217 2225.82,544.908 2253.77,601.838 2272.71,659.595 2283.13,717.972 2285.97,776.513 2280.29,835.014 2266.08,893.184 2243.35,950.61 2212.56,1007.13 2174.2,1062.32 2127.78,1115.54 2073.79,1166.76 2012.69,1215.02 1944.96,1260.3 1871.07,1301.61 1791.5,1338.63 1706.96,1370.69 1618.15,1397.13 1526.03,1417.95 1431.42,1432.5 1335.16,1440.1 1238.33,1441.42 1141.79,1435.8 1046.48,1423.57 953.407,1404.73 863.416,1380.27 777.452,1349.87 695.987,1314.5 620.206,1274.51 550.582,1230.55 487.115,1183.29 430.753,1133.05 381.495,1080.34 340.289,1025.8 307.134,969.78 281.558,912.601 264.507,854.597 255.982,796.179 255.982,737.596 263.56,679.178 280.611,621.173 304.766,563.912 337.92,507.725 378.653,453.026 426.964,400.309 482.852,349.741 545.845,302.147 615.47,258.189 690.777,217.867 771.768,182.172 857.496,151.434 947.013,126.316 "/>
<polyline clip-path="url(#clip572)" style="stroke:#e26f46; stroke-linecap:round; stroke-linejoin:round; stroke-width:4; stroke-opacity:1; fill:none" points="1270.5,87.9763 1367.13,91.9424 1462.33,103.51 1556.1,121.688 1646.1,144.163 1733.24,173.579 1815.66,207.621 1892.86,245.3 1964.85,289.919 2029.26,339.165 2085.63,388.08 2135.36,442.284 2177.99,497.81 2212.09,554.327 2238.61,613.489 2256.61,674.303 2266.08,731.647 2267.03,786.842 2260.4,843.029 2245.24,898.885 2223.45,954.576 2193.14,1009.44 2154.78,1064.31 2108.83,1115.87 2054.84,1165.77 1995.16,1214.36 1928.38,1257.32 1854.97,1298.97 1775.4,1333.67 1691.56,1366.06 1602.99,1392.83 1511.58,1412.66 1418.28,1427.21 1323.08,1435.8 1226.93,1436.46 1131.26,1429.19 1036.53,1414.98 945.118,1394.16 857.496,1369.04 773.663,1338.3 694.566,1299.96 621.153,1261.62 552.476,1220.64 490.43,1171.06 435.963,1119.83 389.073,1067.61 349.288,1013.08 317.554,957.881 293.873,903.347 278.716,843.194 272.085,783.041 273.98,721.566 284.4,661.082 303.345,599.277 330.342,541.603 364.918,487.564 407.545,434.352 457.276,383.123 514.112,333.877 579.947,290.91 650.518,250.588 727.247,211.587 809.185,176.884 894.913,148.79 984.903,123.341 1078.21,105.824 1172.94,93.9255 1269.56,89.9593 1365.7,93.595 1460.9,104.502 1554.21,121.027 1644.2,144.824 1730.4,175.562 1812.34,208.613 1889.54,245.63 1960.59,284.3 2025.48,329.249 2084.21,377.173 2135.36,431.047 2179.88,483.267 2215.88,537.802 2244.29,596.302 2265.13,651.828 2278.4,712.146 2282.18,770.316 2278.4,827.164 2266.08,883.847 2245.24,944.991 2216.35,996.716 2180.35,1050.42 2136.78,1101.65 2085.15,1154.2 2025.48,1203.45 1959.64,1246.75 1887.65,1289.05 1809.97,1325.74 1727.56,1360.11 1640.89,1389.53 1549.95,1412.66 1456.17,1430.51 1360.02,1442.41 1261.98,1445.72 1164.41,1441.09 1068.74,1429.19 974.957,1409.69 884.493,1384.9 798.292,1354.16 716.353,1321.11 639.625,1284.43 568.106,1242.12 503.218,1195.19 445.909,1144.29 395.23,1091.74 352.603,1034.89 318.028,975.729 291.978,922.186 273.98,863.025 263.56,805.516 260.718,749.825 266.402,694.795 280.611,636.955 302.398,579.611 332.711,522.764 370.601,467.733 416.544,419.148 469.59,371.555 529.742,323.3 595.577,278.351 668.516,237.037 746.666,201.342 830.499,169.282 918.121,142.18 1009.53,121.027 1102.84,103.841 1198.51,94.5865 1295.13,91.9424 1391.75,97.2306 1486.48,110.782 1578.37,131.273 1666.94,156.392 1751.72,185.808 1832.23,222.494 1907.07,261.164 1976.22,307.105 2037.79,355.029 2092.73,405.928 2140.09,456.827 2180.35,513.344 2212.09,568.539 2236.72,624.396 2252.82,685.54 2260.4,744.371 2259.45,800.558 2250.92,856.414 2234.35,915.411 2209.72,971.763 2177.04,1028.28 2136.31,1082.15 2087.99,1130.08 2033.05,1178 1970.53,1224.27 1902.33,1266.58 1827.97,1303.6 1747.93,1337.97 1664.09,1368.38 1576,1393.49 1484.11,1412.33 1390.33,1425.22 1295.61,1431.5 1200.41,1430.51 1106.15,1420.93 1013.32,1405.39 924.278,1384.24 837.603,1357.14 754.718,1323.43 677.042,1286.08 605.523,1245.76 538.741,1200.81 479.537,1154.54 427.911,1105.62 383.389,1051.75 345.972,995.229 316.607,937.39 294.82,883.516 281.558,826.503 275.875,766.35 278.716,705.371 291.031,648.854 312.818,593.162 341.236,535.819 377.232,482.111 421.28,429.394 471.485,380.148 530.689,333.546 595.103,288.266 666.622,246.291 743.35,209.935 824.815,177.214 911.017,148.129 1001.48,124.994 "/>
<polyline clip-path="url(#clip572)" style="stroke:#3da44d; stroke-linecap:round; stroke-linejoin:round; stroke-width:4; stroke-opacity:1; fill:none" points="1270.5,87.9763 1367.6,91.2814 1463.75,101.527 1558.71,118.053 1651.31,140.858 1740.35,169.282 1825.6,203.325 1905.17,241.994 1979.06,284.961 2046.32,331.563 2105.99,381.14 2157.15,433.36 2200.72,487.729 2235.77,543.751 2262.29,600.847 2280.29,658.934 2290.71,717.559 2291.66,776.224 2285.03,834.931 2269.87,893.184 2247.14,950.775 2215.88,1007.13 2177.04,1061.99 2130.15,1115.2 2075.68,1166.1 2014.11,1214.36 1945.43,1259.31 1871.07,1300.29 1791.03,1336.98 1706.25,1369.04 1617.2,1395.48 1525.08,1415.97 1430.36,1429.85 1334.33,1437.45 1237.47,1438.11 1140.61,1432.16 1044.94,1419.61 951.275,1400.44 860.338,1375.65 773.189,1345.24 690.777,1309.55 613.101,1269.22 542.056,1224.6 477.642,1176.68 420.806,1125.78 372.022,1072.57 331.763,1017.54 300.503,961.186 276.822,903.678 262.613,845.466 256.929,787.007 258.824,728.383 268.296,670.006 286.294,612.084 312.344,554.988 346.446,499.297 388.126,445.259 437.857,393.038 494.693,343.131 559.107,296.198 629.678,252.901 705.933,213.57 787.398,178.536 874.073,148.79 964.064,124.663 1057.61,106.485 1152.81,94.917 1249.43,89.9593 1346.4,91.9424 1442.67,100.205 1537.4,115.078 1630.47,136.561 1720.22,163.994 1806.18,196.714 1887.17,234.723 1962.48,276.698 2031.16,322.639 2091.78,371.555 2144.83,423.114 2190.3,476.988 2227.24,532.514 2255.66,589.362 2275.55,647.201 2286.92,705.536 2290.71,764.161 2285.03,822.62 2271.76,880.872 2249.98,938.546 2220.61,995.064 2183.2,1050.42 2138.2,1103.97 2085.15,1155.2 2025,1203.78 1957.75,1249.39 1884.33,1291.04 1805.71,1328.38 1722.11,1361.1 1634.02,1388.54 1542.84,1410.02 1448.71,1425.22 1353.39,1434.15 1257.12,1436.46 1160.5,1432.16 1064.95,1420.93 971.168,1403.08 879.757,1379.28 791.661,1349.87 708.302,1315.16 630.152,1275.83 557.686,1232.21 492.325,1185.27 434.542,1135.04 384.337,1082.65 342.183,1027.95 308.555,971.763 283.453,914.419 267.349,856.414 259.771,798.038 259.771,739.414 267.349,681.078 283.453,623.074 308.082,565.895 340.289,510.039 380.074,455.505 427.911,402.623 483.326,352.385 545.845,304.792 614.996,260.503 690.304,220.181 771.295,184.155 857.022,153.417 946.539,128.299 1039.49,109.129 1134.22,96.5696 1230.48,90.2899 1327.34,90.9509 1423.72,98.2221 1519.16,112.104 1612.23,132.265 1702.69,158.375 1789.13,190.104 1870.6,226.791 1946.85,268.105 2016.95,313.054 2079.47,361.309 2134.41,412.538 2181.3,465.916 2219.66,520.946 2249.98,577.463 2271.76,634.972 2285.03,693.349 2289.76,751.932 2285.97,810.432 2274.61,868.726 2254.71,926.648 2226.77,983.331 2190.77,1038.69 2147.2,1092.56 2095.57,1143.96 2036.84,1192.87 1971.48,1238.82 1899.49,1281.45 1821.81,1319.79 1739.16,1353.5 1652.73,1381.93 1562.26,1404.73 1468.96,1421.59 1373.76,1431.83 1277.49,1435.47 1181.22,1432.5 1085.31,1422.58 991.061,1406.38 899.176,1383.91 810.606,1355.82 726.3,1322.1 646.729,1283.77 572.369,1241.13 505.113,1194.86 445.435,1145.28 393.809,1093.23 349.761,1039.02 314.239,983.165 287.242,926.07 269.244,868.313 259.771,809.936 258.824,751.312 265.455,692.853 279.664,634.642 302.398,577.298 333.184,520.946 371.548,466.081 417.964,413.199 471.959,362.3 533.057,314.376 600.787,269.427 674.674,228.443 754.244,191.757 839.024,160.028 927.594,133.587 1019.95,113.095 "/>
<path clip-path="url(#clip570)" d="M1764.98 1438.47 L2280.8 1438.47 L2280.8 1231.11 L1764.98 1231.11  Z" fill="#ffffff" fill-rule="evenodd" fill-opacity="1"/>
<polyline clip-path="url(#clip570)" style="stroke:#000000; stroke-linecap:round; stroke-linejoin:round; stroke-width:4; stroke-opacity:1; fill:none" points="1764.98,1438.47 2280.8,1438.47 2280.8,1231.11 1764.98,1231.11 1764.98,1438.47 "/>
<polyline clip-path="url(#clip570)" style="stroke:#009af9; stroke-linecap:round; stroke-linejoin:round; stroke-width:4; stroke-opacity:1; fill:none" points="1788.97,1282.95 1932.89,1282.95 "/>
<path clip-path="url(#clip570)" d="M1964.29 1266.95 L1964.29 1274.31 L1973.06 1274.31 L1973.06 1277.62 L1964.29 1277.62 L1964.29 1291.69 Q1964.29 1294.86 1965.14 1295.77 Q1966.02 1296.67 1968.68 1296.67 L1973.06 1296.67 L1973.06 1300.23 L1968.68 1300.23 Q1963.75 1300.23 1961.88 1298.41 Q1960 1296.55 1960 1291.69 L1960 1277.62 L1956.88 1277.62 L1956.88 1274.31 L1960 1274.31 L1960 1266.95 L1964.29 1266.95 Z" fill="#000000" fill-rule="nonzero" fill-opacity="1" /><path clip-path="url(#clip570)" d="M1993.68 1278.29 Q1992.97 1277.87 1992.11 1277.69 Q1991.28 1277.48 1990.26 1277.48 Q1986.65 1277.48 1984.7 1279.84 Q1982.78 1282.18 1982.78 1286.58 L1982.78 1300.23 L1978.5 1300.23 L1978.5 1274.31 L1982.78 1274.31 L1982.78 1278.34 Q1984.12 1275.98 1986.28 1274.84 Q1988.43 1273.68 1991.51 1273.68 Q1991.95 1273.68 1992.48 1273.75 Q1993.01 1273.8 1993.66 1273.92 L1993.68 1278.29 Z" fill="#000000" fill-rule="nonzero" fill-opacity="1" /><path clip-path="url(#clip570)" d="M2009.93 1287.2 Q2004.77 1287.2 2002.78 1288.38 Q2000.79 1289.56 2000.79 1292.41 Q2000.79 1294.68 2002.27 1296.02 Q2003.78 1297.34 2006.35 1297.34 Q2009.89 1297.34 2012.02 1294.84 Q2014.17 1292.32 2014.17 1288.15 L2014.17 1287.2 L2009.93 1287.2 M2018.43 1285.44 L2018.43 1300.23 L2014.17 1300.23 L2014.17 1296.3 Q2012.71 1298.66 2010.54 1299.79 Q2008.36 1300.91 2005.21 1300.91 Q2001.23 1300.91 1998.87 1298.68 Q1996.53 1296.44 1996.53 1292.69 Q1996.53 1288.31 1999.45 1286.09 Q2002.39 1283.87 2008.2 1283.87 L2014.17 1283.87 L2014.17 1283.45 Q2014.17 1280.51 2012.23 1278.92 Q2010.31 1277.29 2006.81 1277.29 Q2004.59 1277.29 2002.48 1277.83 Q2000.37 1278.36 1998.43 1279.42 L1998.43 1275.49 Q2000.77 1274.59 2002.97 1274.15 Q2005.17 1273.68 2007.25 1273.68 Q2012.87 1273.68 2015.65 1276.6 Q2018.43 1279.52 2018.43 1285.44 Z" fill="#000000" fill-rule="nonzero" fill-opacity="1" /><path clip-path="url(#clip570)" d="M2027.2 1274.31 L2031.46 1274.31 L2031.46 1300.23 L2027.2 1300.23 L2027.2 1274.31 M2027.2 1264.22 L2031.46 1264.22 L2031.46 1269.61 L2027.2 1269.61 L2027.2 1264.22 Z" fill="#000000" fill-rule="nonzero" fill-opacity="1" /><path clip-path="url(#clip570)" d="M2061.93 1284.59 L2061.93 1300.23 L2057.67 1300.23 L2057.67 1284.73 Q2057.67 1281.04 2056.23 1279.22 Q2054.8 1277.39 2051.93 1277.39 Q2048.48 1277.39 2046.49 1279.59 Q2044.49 1281.79 2044.49 1285.58 L2044.49 1300.23 L2040.21 1300.23 L2040.21 1274.31 L2044.49 1274.31 L2044.49 1278.34 Q2046.02 1276 2048.08 1274.84 Q2050.17 1273.68 2052.87 1273.68 Q2057.34 1273.68 2059.63 1276.46 Q2061.93 1279.22 2061.93 1284.59 Z" fill="#000000" fill-rule="nonzero" fill-opacity="1" /><path clip-path="url(#clip570)" d="M2070.42 1274.31 L2074.68 1274.31 L2074.68 1300.23 L2070.42 1300.23 L2070.42 1274.31 M2070.42 1264.22 L2074.68 1264.22 L2074.68 1269.61 L2070.42 1269.61 L2070.42 1264.22 Z" fill="#000000" fill-rule="nonzero" fill-opacity="1" /><path clip-path="url(#clip570)" d="M2105.14 1284.59 L2105.14 1300.23 L2100.88 1300.23 L2100.88 1284.73 Q2100.88 1281.04 2099.45 1279.22 Q2098.01 1277.39 2095.14 1277.39 Q2091.69 1277.39 2089.7 1279.59 Q2087.71 1281.79 2087.71 1285.58 L2087.71 1300.23 L2083.43 1300.23 L2083.43 1274.31 L2087.71 1274.31 L2087.71 1278.34 Q2089.24 1276 2091.3 1274.84 Q2093.38 1273.68 2096.09 1273.68 Q2100.56 1273.68 2102.85 1276.46 Q2105.14 1279.22 2105.14 1284.59 Z" fill="#000000" fill-rule="nonzero" fill-opacity="1" /><path clip-path="url(#clip570)" d="M2130.7 1286.97 Q2130.7 1282.34 2128.78 1279.79 Q2126.88 1277.25 2123.43 1277.25 Q2120 1277.25 2118.08 1279.79 Q2116.18 1282.34 2116.18 1286.97 Q2116.18 1291.58 2118.08 1294.12 Q2120 1296.67 2123.43 1296.67 Q2126.88 1296.67 2128.78 1294.12 Q2130.7 1291.58 2130.7 1286.97 M2134.96 1297.02 Q2134.96 1303.64 2132.02 1306.85 Q2129.08 1310.1 2123.01 1310.1 Q2120.77 1310.1 2118.78 1309.75 Q2116.79 1309.42 2114.91 1308.73 L2114.91 1304.59 Q2116.79 1305.6 2118.61 1306.09 Q2120.44 1306.58 2122.34 1306.58 Q2126.53 1306.58 2128.61 1304.38 Q2130.7 1302.2 2130.7 1297.78 L2130.7 1295.67 Q2129.38 1297.97 2127.32 1299.1 Q2125.26 1300.23 2122.39 1300.23 Q2117.62 1300.23 2114.7 1296.6 Q2111.79 1292.97 2111.79 1286.97 Q2111.79 1280.95 2114.7 1277.32 Q2117.62 1273.68 2122.39 1273.68 Q2125.26 1273.68 2127.32 1274.82 Q2129.38 1275.95 2130.7 1278.24 L2130.7 1274.31 L2134.96 1274.31 L2134.96 1297.02 Z" fill="#000000" fill-rule="nonzero" fill-opacity="1" /><path clip-path="url(#clip570)" d="M2175.86 1278.24 L2175.86 1264.22 L2180.12 1264.22 L2180.12 1300.23 L2175.86 1300.23 L2175.86 1296.35 Q2174.52 1298.66 2172.46 1299.79 Q2170.42 1300.91 2167.55 1300.91 Q2162.85 1300.91 2159.89 1297.16 Q2156.95 1293.41 2156.95 1287.29 Q2156.95 1281.18 2159.89 1277.43 Q2162.85 1273.68 2167.55 1273.68 Q2170.42 1273.68 2172.46 1274.82 Q2174.52 1275.93 2175.86 1278.24 M2161.35 1287.29 Q2161.35 1291.99 2163.27 1294.68 Q2165.21 1297.34 2168.59 1297.34 Q2171.97 1297.34 2173.92 1294.68 Q2175.86 1291.99 2175.86 1287.29 Q2175.86 1282.6 2173.92 1279.93 Q2171.97 1277.25 2168.59 1277.25 Q2165.21 1277.25 2163.27 1279.93 Q2161.35 1282.6 2161.35 1287.29 Z" fill="#000000" fill-rule="nonzero" fill-opacity="1" /><path clip-path="url(#clip570)" d="M2200.67 1287.2 Q2195.51 1287.2 2193.52 1288.38 Q2191.53 1289.56 2191.53 1292.41 Q2191.53 1294.68 2193.01 1296.02 Q2194.52 1297.34 2197.09 1297.34 Q2200.63 1297.34 2202.76 1294.84 Q2204.91 1292.32 2204.91 1288.15 L2204.91 1287.2 L2200.67 1287.2 M2209.17 1285.44 L2209.17 1300.23 L2204.91 1300.23 L2204.91 1296.3 Q2203.45 1298.66 2201.28 1299.79 Q2199.1 1300.91 2195.95 1300.91 Q2191.97 1300.91 2189.61 1298.68 Q2187.27 1296.44 2187.27 1292.69 Q2187.27 1288.31 2190.19 1286.09 Q2193.13 1283.87 2198.94 1283.87 L2204.91 1283.87 L2204.91 1283.45 Q2204.91 1280.51 2202.97 1278.92 Q2201.04 1277.29 2197.55 1277.29 Q2195.33 1277.29 2193.22 1277.83 Q2191.11 1278.36 2189.17 1279.42 L2189.17 1275.49 Q2191.51 1274.59 2193.71 1274.15 Q2195.91 1273.68 2197.99 1273.68 Q2203.61 1273.68 2206.39 1276.6 Q2209.17 1279.52 2209.17 1285.44 Z" fill="#000000" fill-rule="nonzero" fill-opacity="1" /><path clip-path="url(#clip570)" d="M2222.16 1266.95 L2222.16 1274.31 L2230.93 1274.31 L2230.93 1277.62 L2222.16 1277.62 L2222.16 1291.69 Q2222.16 1294.86 2223.01 1295.77 Q2223.89 1296.67 2226.55 1296.67 L2230.93 1296.67 L2230.93 1300.23 L2226.55 1300.23 Q2221.62 1300.23 2219.75 1298.41 Q2217.87 1296.55 2217.87 1291.69 L2217.87 1277.62 L2214.75 1277.62 L2214.75 1274.31 L2217.87 1274.31 L2217.87 1266.95 L2222.16 1266.95 Z" fill="#000000" fill-rule="nonzero" fill-opacity="1" /><path clip-path="url(#clip570)" d="M2248.31 1287.2 Q2243.15 1287.2 2241.16 1288.38 Q2239.17 1289.56 2239.17 1292.41 Q2239.17 1294.68 2240.65 1296.02 Q2242.16 1297.34 2244.73 1297.34 Q2248.27 1297.34 2250.4 1294.84 Q2252.55 1292.32 2252.55 1288.15 L2252.55 1287.2 L2248.31 1287.2 M2256.81 1285.44 L2256.81 1300.23 L2252.55 1300.23 L2252.55 1296.3 Q2251.09 1298.66 2248.91 1299.79 Q2246.74 1300.91 2243.59 1300.91 Q2239.61 1300.91 2237.25 1298.68 Q2234.91 1296.44 2234.91 1292.69 Q2234.91 1288.31 2237.83 1286.09 Q2240.77 1283.87 2246.58 1283.87 L2252.55 1283.87 L2252.55 1283.45 Q2252.55 1280.51 2250.6 1278.92 Q2248.68 1277.29 2245.19 1277.29 Q2242.97 1277.29 2240.86 1277.83 Q2238.75 1278.36 2236.81 1279.42 L2236.81 1275.49 Q2239.15 1274.59 2241.35 1274.15 Q2243.54 1273.68 2245.63 1273.68 Q2251.25 1273.68 2254.03 1276.6 Q2256.81 1279.52 2256.81 1285.44 Z" fill="#000000" fill-rule="nonzero" fill-opacity="1" /><polyline clip-path="url(#clip570)" style="stroke:#e26f46; stroke-linecap:round; stroke-linejoin:round; stroke-width:4; stroke-opacity:1; fill:none" points="1788.97,1334.79 1932.89,1334.79 "/>
<path clip-path="url(#clip570)" d="M1956.88 1317.51 L1961.56 1317.51 L1961.56 1348.14 L1978.38 1348.14 L1978.38 1352.07 L1956.88 1352.07 L1956.88 1317.51 Z" fill="#000000" fill-rule="nonzero" fill-opacity="1" /><path clip-path="url(#clip570)" d="M1995.93 1322.12 L1989.59 1339.32 L2002.3 1339.32 L1995.93 1322.12 M1993.29 1317.51 L1998.59 1317.51 L2011.76 1352.07 L2006.9 1352.07 L2003.75 1343.21 L1988.18 1343.21 L1985.03 1352.07 L1980.1 1352.07 L1993.29 1317.51 Z" fill="#000000" fill-rule="nonzero" fill-opacity="1" /><path clip-path="url(#clip570)" d="M2052.6 1318.65 L2052.6 1323.21 Q2049.93 1321.94 2047.57 1321.31 Q2045.21 1320.69 2043.01 1320.69 Q2039.19 1320.69 2037.11 1322.17 Q2035.05 1323.65 2035.05 1326.38 Q2035.05 1328.67 2036.42 1329.85 Q2037.8 1331.01 2041.65 1331.73 L2044.47 1332.31 Q2049.7 1333.3 2052.18 1335.82 Q2054.68 1338.32 2054.68 1342.54 Q2054.68 1347.56 2051.3 1350.15 Q2047.94 1352.75 2041.44 1352.75 Q2038.99 1352.75 2036.21 1352.19 Q2033.45 1351.63 2030.49 1350.55 L2030.49 1345.73 Q2033.34 1347.33 2036.07 1348.14 Q2038.8 1348.95 2041.44 1348.95 Q2045.44 1348.95 2047.62 1347.38 Q2049.8 1345.8 2049.8 1342.88 Q2049.8 1340.34 2048.22 1338.9 Q2046.67 1337.47 2043.11 1336.75 L2040.26 1336.19 Q2035.03 1335.15 2032.69 1332.93 Q2030.35 1330.71 2030.35 1326.75 Q2030.35 1322.17 2033.57 1319.53 Q2036.81 1316.89 2042.48 1316.89 Q2044.91 1316.89 2047.43 1317.33 Q2049.96 1317.77 2052.6 1318.65 Z" fill="#000000" fill-rule="nonzero" fill-opacity="1" /><path clip-path="url(#clip570)" d="M2072.57 1354.48 Q2070.77 1359.11 2069.05 1360.52 Q2067.34 1361.94 2064.47 1361.94 L2061.07 1361.94 L2061.07 1358.37 L2063.57 1358.37 Q2065.33 1358.37 2066.3 1357.54 Q2067.27 1356.7 2068.45 1353.6 L2069.22 1351.66 L2058.73 1326.15 L2063.24 1326.15 L2071.35 1346.43 L2079.45 1326.15 L2083.96 1326.15 L2072.57 1354.48 Z" fill="#000000" fill-rule="nonzero" fill-opacity="1" /><path clip-path="url(#clip570)" d="M2110.03 1331.13 Q2111.62 1328.26 2113.85 1326.89 Q2116.07 1325.52 2119.08 1325.52 Q2123.13 1325.52 2125.33 1328.37 Q2127.53 1331.19 2127.53 1336.43 L2127.53 1352.07 L2123.24 1352.07 L2123.24 1336.57 Q2123.24 1332.84 2121.92 1331.03 Q2120.61 1329.23 2117.9 1329.23 Q2114.59 1329.23 2112.67 1331.43 Q2110.74 1333.63 2110.74 1337.42 L2110.74 1352.07 L2106.46 1352.07 L2106.46 1336.57 Q2106.46 1332.82 2105.14 1331.03 Q2103.82 1329.23 2101.07 1329.23 Q2097.8 1329.23 2095.88 1331.45 Q2093.96 1333.65 2093.96 1337.42 L2093.96 1352.07 L2089.68 1352.07 L2089.68 1326.15 L2093.96 1326.15 L2093.96 1330.18 Q2095.42 1327.79 2097.46 1326.66 Q2099.49 1325.52 2102.3 1325.52 Q2105.12 1325.52 2107.09 1326.96 Q2109.08 1328.39 2110.03 1331.13 Z" fill="#000000" fill-rule="nonzero" fill-opacity="1" /><path clip-path="url(#clip570)" d="M2140.14 1348.19 L2140.14 1361.94 L2135.86 1361.94 L2135.86 1326.15 L2140.14 1326.15 L2140.14 1330.08 Q2141.48 1327.77 2143.52 1326.66 Q2145.58 1325.52 2148.43 1325.52 Q2153.15 1325.52 2156.09 1329.27 Q2159.05 1333.02 2159.05 1339.13 Q2159.05 1345.25 2156.09 1349 Q2153.15 1352.75 2148.43 1352.75 Q2145.58 1352.75 2143.52 1351.63 Q2141.48 1350.5 2140.14 1348.19 M2154.63 1339.13 Q2154.63 1334.44 2152.69 1331.77 Q2150.77 1329.09 2147.39 1329.09 Q2144.01 1329.09 2142.06 1331.77 Q2140.14 1334.44 2140.14 1339.13 Q2140.14 1343.83 2142.06 1346.52 Q2144.01 1349.18 2147.39 1349.18 Q2150.77 1349.18 2152.69 1346.52 Q2154.63 1343.83 2154.63 1339.13 Z" fill="#000000" fill-rule="nonzero" fill-opacity="1" /><path clip-path="url(#clip570)" d="M2187.67 1336.43 L2187.67 1352.07 L2183.41 1352.07 L2183.41 1336.57 Q2183.41 1332.88 2181.97 1331.06 Q2180.54 1329.23 2177.67 1329.23 Q2174.22 1329.23 2172.23 1331.43 Q2170.23 1333.63 2170.23 1337.42 L2170.23 1352.07 L2165.95 1352.07 L2165.95 1326.15 L2170.23 1326.15 L2170.23 1330.18 Q2171.76 1327.84 2173.82 1326.68 Q2175.91 1325.52 2178.61 1325.52 Q2183.08 1325.52 2185.37 1328.3 Q2187.67 1331.06 2187.67 1336.43 Z" fill="#000000" fill-rule="nonzero" fill-opacity="1" /><path clip-path="url(#clip570)" d="M2218.34 1338.05 L2218.34 1340.13 L2198.75 1340.13 Q2199.03 1344.53 2201.39 1346.84 Q2203.78 1349.13 2208.01 1349.13 Q2210.47 1349.13 2212.76 1348.53 Q2215.07 1347.93 2217.34 1346.73 L2217.34 1350.75 Q2215.05 1351.73 2212.64 1352.24 Q2210.23 1352.75 2207.76 1352.75 Q2201.55 1352.75 2197.92 1349.13 Q2194.31 1345.52 2194.31 1339.37 Q2194.31 1333 2197.73 1329.27 Q2201.18 1325.52 2207.02 1325.52 Q2212.25 1325.52 2215.28 1328.9 Q2218.34 1332.26 2218.34 1338.05 M2214.08 1336.8 Q2214.03 1333.3 2212.11 1331.22 Q2210.21 1329.13 2207.06 1329.13 Q2203.5 1329.13 2201.35 1331.15 Q2199.22 1333.16 2198.89 1336.82 L2214.08 1336.8 Z" fill="#000000" fill-rule="nonzero" fill-opacity="1" /><path clip-path="url(#clip570)" d="M2229.54 1318.79 L2229.54 1326.15 L2238.31 1326.15 L2238.31 1329.46 L2229.54 1329.46 L2229.54 1343.53 Q2229.54 1346.7 2230.4 1347.61 Q2231.28 1348.51 2233.94 1348.51 L2238.31 1348.51 L2238.31 1352.07 L2233.94 1352.07 Q2229.01 1352.07 2227.13 1350.25 Q2225.26 1348.39 2225.26 1343.53 L2225.26 1329.46 L2222.13 1329.46 L2222.13 1326.15 L2225.26 1326.15 L2225.26 1318.79 L2229.54 1318.79 Z" fill="#000000" fill-rule="nonzero" fill-opacity="1" /><polyline clip-path="url(#clip570)" style="stroke:#3da44d; stroke-linecap:round; stroke-linejoin:round; stroke-width:4; stroke-opacity:1; fill:none" points="1788.97,1386.63 1932.89,1386.63 "/>
<path clip-path="url(#clip570)" d="M1982.43 1398.98 L1982.43 1389.7 L1974.8 1389.7 L1974.8 1385.86 L1987.06 1385.86 L1987.06 1400.7 Q1984.36 1402.62 1981.09 1403.61 Q1977.83 1404.59 1974.12 1404.59 Q1966.02 1404.59 1961.44 1399.86 Q1956.88 1395.12 1956.88 1386.67 Q1956.88 1378.2 1961.44 1373.47 Q1966.02 1368.73 1974.12 1368.73 Q1977.5 1368.73 1980.54 1369.56 Q1983.59 1370.4 1986.16 1372.02 L1986.16 1376.99 Q1983.57 1374.79 1980.65 1373.68 Q1977.74 1372.57 1974.52 1372.57 Q1968.18 1372.57 1964.98 1376.11 Q1961.81 1379.66 1961.81 1386.67 Q1961.81 1393.66 1964.98 1397.2 Q1968.18 1400.74 1974.52 1400.74 Q1977 1400.74 1978.94 1400.33 Q1980.88 1399.89 1982.43 1398.98 Z" fill="#000000" fill-rule="nonzero" fill-opacity="1" /><path clip-path="url(#clip570)" d="M2031.39 1370.49 L2031.39 1375.05 Q2028.73 1373.78 2026.37 1373.15 Q2024.01 1372.53 2021.81 1372.53 Q2017.99 1372.53 2015.91 1374.01 Q2013.85 1375.49 2013.85 1378.22 Q2013.85 1380.51 2015.21 1381.69 Q2016.6 1382.85 2020.44 1383.57 L2023.27 1384.15 Q2028.5 1385.14 2030.98 1387.66 Q2033.48 1390.16 2033.48 1394.38 Q2033.48 1399.4 2030.1 1401.99 Q2026.74 1404.59 2020.24 1404.59 Q2017.78 1404.59 2015 1404.03 Q2012.25 1403.47 2009.29 1402.39 L2009.29 1397.57 Q2012.13 1399.17 2014.87 1399.98 Q2017.6 1400.79 2020.24 1400.79 Q2024.24 1400.79 2026.42 1399.22 Q2028.59 1397.64 2028.59 1394.72 Q2028.59 1392.18 2027.02 1390.74 Q2025.47 1389.31 2021.9 1388.59 L2019.05 1388.03 Q2013.82 1386.99 2011.49 1384.77 Q2009.15 1382.55 2009.15 1378.59 Q2009.15 1374.01 2012.37 1371.37 Q2015.61 1368.73 2021.28 1368.73 Q2023.71 1368.73 2026.23 1369.17 Q2028.75 1369.61 2031.39 1370.49 Z" fill="#000000" fill-rule="nonzero" fill-opacity="1" /><path clip-path="url(#clip570)" d="M2051.37 1406.32 Q2049.56 1410.95 2047.85 1412.36 Q2046.14 1413.78 2043.27 1413.78 L2039.87 1413.78 L2039.87 1410.21 L2042.37 1410.21 Q2044.12 1410.21 2045.1 1409.38 Q2046.07 1408.54 2047.25 1405.44 L2048.01 1403.5 L2037.53 1377.99 L2042.04 1377.99 L2050.14 1398.27 L2058.24 1377.99 L2062.76 1377.99 L2051.37 1406.32 Z" fill="#000000" fill-rule="nonzero" fill-opacity="1" /><path clip-path="url(#clip570)" d="M2088.82 1382.97 Q2090.42 1380.1 2092.64 1378.73 Q2094.86 1377.36 2097.87 1377.36 Q2101.92 1377.36 2104.12 1380.21 Q2106.32 1383.03 2106.32 1388.27 L2106.32 1403.91 L2102.04 1403.91 L2102.04 1388.41 Q2102.04 1384.68 2100.72 1382.87 Q2099.4 1381.07 2096.69 1381.07 Q2093.38 1381.07 2091.46 1383.27 Q2089.54 1385.47 2089.54 1389.26 L2089.54 1403.91 L2085.26 1403.91 L2085.26 1388.41 Q2085.26 1384.66 2083.94 1382.87 Q2082.62 1381.07 2079.86 1381.07 Q2076.6 1381.07 2074.68 1383.29 Q2072.76 1385.49 2072.76 1389.26 L2072.76 1403.91 L2068.48 1403.91 L2068.48 1377.99 L2072.76 1377.99 L2072.76 1382.02 Q2074.22 1379.63 2076.25 1378.5 Q2078.29 1377.36 2081.09 1377.36 Q2083.92 1377.36 2085.88 1378.8 Q2087.87 1380.23 2088.82 1382.97 Z" fill="#000000" fill-rule="nonzero" fill-opacity="1" /><path clip-path="url(#clip570)" d="M2118.94 1400.03 L2118.94 1413.78 L2114.66 1413.78 L2114.66 1377.99 L2118.94 1377.99 L2118.94 1381.92 Q2120.28 1379.61 2122.32 1378.5 Q2124.38 1377.36 2127.23 1377.36 Q2131.95 1377.36 2134.89 1381.11 Q2137.85 1384.86 2137.85 1390.97 Q2137.85 1397.09 2134.89 1400.84 Q2131.95 1404.59 2127.23 1404.59 Q2124.38 1404.59 2122.32 1403.47 Q2120.28 1402.34 2118.94 1400.03 M2133.43 1390.97 Q2133.43 1386.28 2131.48 1383.61 Q2129.56 1380.93 2126.18 1380.93 Q2122.8 1380.93 2120.86 1383.61 Q2118.94 1386.28 2118.94 1390.97 Q2118.94 1395.67 2120.86 1398.36 Q2122.8 1401.02 2126.18 1401.02 Q2129.56 1401.02 2131.48 1398.36 Q2133.43 1395.67 2133.43 1390.97 Z" fill="#000000" fill-rule="nonzero" fill-opacity="1" /><path clip-path="url(#clip570)" d="M2166.46 1388.27 L2166.46 1403.91 L2162.2 1403.91 L2162.2 1388.41 Q2162.2 1384.72 2160.77 1382.9 Q2159.33 1381.07 2156.46 1381.07 Q2153.01 1381.07 2151.02 1383.27 Q2149.03 1385.47 2149.03 1389.26 L2149.03 1403.91 L2144.75 1403.91 L2144.75 1377.99 L2149.03 1377.99 L2149.03 1382.02 Q2150.56 1379.68 2152.62 1378.52 Q2154.7 1377.36 2157.41 1377.36 Q2161.88 1377.36 2164.17 1380.14 Q2166.46 1382.9 2166.46 1388.27 Z" fill="#000000" fill-rule="nonzero" fill-opacity="1" /><path clip-path="url(#clip570)" d="M2197.13 1389.89 L2197.13 1391.97 L2177.55 1391.97 Q2177.83 1396.37 2180.19 1398.68 Q2182.57 1400.97 2186.81 1400.97 Q2189.26 1400.97 2191.55 1400.37 Q2193.87 1399.77 2196.14 1398.57 L2196.14 1402.59 Q2193.85 1403.57 2191.44 1404.08 Q2189.03 1404.59 2186.55 1404.59 Q2180.35 1404.59 2176.72 1400.97 Q2173.11 1397.36 2173.11 1391.21 Q2173.11 1384.84 2176.53 1381.11 Q2179.98 1377.36 2185.81 1377.36 Q2191.04 1377.36 2194.08 1380.74 Q2197.13 1384.1 2197.13 1389.89 M2192.87 1388.64 Q2192.83 1385.14 2190.91 1383.06 Q2189.01 1380.97 2185.86 1380.97 Q2182.29 1380.97 2180.14 1382.99 Q2178.01 1385 2177.69 1388.66 L2192.87 1388.64 Z" fill="#000000" fill-rule="nonzero" fill-opacity="1" /><path clip-path="url(#clip570)" d="M2208.34 1370.63 L2208.34 1377.99 L2217.11 1377.99 L2217.11 1381.3 L2208.34 1381.3 L2208.34 1395.37 Q2208.34 1398.54 2209.19 1399.45 Q2210.07 1400.35 2212.73 1400.35 L2217.11 1400.35 L2217.11 1403.91 L2212.73 1403.91 Q2207.8 1403.91 2205.93 1402.09 Q2204.05 1400.23 2204.05 1395.37 L2204.05 1381.3 L2200.93 1381.3 L2200.93 1377.99 L2204.05 1377.99 L2204.05 1370.63 L2208.34 1370.63 Z" fill="#000000" fill-rule="nonzero" fill-opacity="1" /></svg>
