<?xml version="1.0" encoding="utf-8"?>
<svg xmlns="http://www.w3.org/2000/svg" xmlns:xlink="http://www.w3.org/1999/xlink" width="600" height="400" viewBox="0 0 2400 1600">
<defs>
  <clipPath id="clip910">
    <rect x="0" y="0" width="2400" height="1600"/>
  </clipPath>
</defs>
<path clip-path="url(#clip910)" d="M0 1600 L2400 1600 L2400 0 L0 0  Z" fill="#ffffff" fill-rule="evenodd" fill-opacity="1"/>
<defs>
  <clipPath id="clip911">
    <rect x="480" y="0" width="1681" height="1600"/>
  </clipPath>
</defs>
<path clip-path="url(#clip910)" d="M193.936 1486.45 L2352.76 1486.45 L2352.76 47.2441 L193.936 47.2441  Z" fill="#ffffff" fill-rule="evenodd" fill-opacity="1"/>
<defs>
  <clipPath id="clip912">
    <rect x="193" y="47" width="2160" height="1440"/>
  </clipPath>
</defs>
<polyline clip-path="url(#clip912)" style="stroke:#000000; stroke-linecap:round; stroke-linejoin:round; stroke-width:2; stroke-opacity:0.1; fill:none" points="348.88,1486.45 348.88,47.2441 "/>
<polyline clip-path="url(#clip912)" style="stroke:#000000; stroke-linecap:round; stroke-linejoin:round; stroke-width:2; stroke-opacity:0.1; fill:none" points="810.887,1486.45 810.887,47.2441 "/>
<polyline clip-path="url(#clip912)" style="stroke:#000000; stroke-linecap:round; stroke-linejoin:round; stroke-width:2; stroke-opacity:0.1; fill:none" points="1272.89,1486.45 1272.89,47.2441 "/>
<polyline clip-path="url(#clip912)" style="stroke:#000000; stroke-linecap:round; stroke-linejoin:round; stroke-width:2; stroke-opacity:0.1; fill:none" points="1734.9,1486.45 1734.9,47.2441 "/>
<polyline clip-path="url(#clip912)" style="stroke:#000000; stroke-linecap:round; stroke-linejoin:round; stroke-width:2; stroke-opacity:0.1; fill:none" points="2196.91,1486.45 2196.91,47.2441 "/>
<polyline clip-path="url(#clip910)" style="stroke:#000000; stroke-linecap:round; stroke-linejoin:round; stroke-width:4; stroke-opacity:1; fill:none" points="193.936,1486.45 2352.76,1486.45 "/>
<polyline clip-path="url(#clip910)" style="stroke:#000000; stroke-linecap:round; stroke-linejoin:round; stroke-width:4; stroke-opacity:1; fill:none" points="348.88,1486.45 348.88,1467.55 "/>
<polyline clip-path="url(#clip910)" style="stroke:#000000; stroke-linecap:round; stroke-linejoin:round; stroke-width:4; stroke-opacity:1; fill:none" points="810.887,1486.45 810.887,1467.55 "/>
<polyline clip-path="url(#clip910)" style="stroke:#000000; stroke-linecap:round; stroke-linejoin:round; stroke-width:4; stroke-opacity:1; fill:none" points="1272.89,1486.45 1272.89,1467.55 "/>
<polyline clip-path="url(#clip910)" style="stroke:#000000; stroke-linecap:round; stroke-linejoin:round; stroke-width:4; stroke-opacity:1; fill:none" points="1734.9,1486.45 1734.9,1467.55 "/>
<polyline clip-path="url(#clip910)" style="stroke:#000000; stroke-linecap:round; stroke-linejoin:round; stroke-width:4; stroke-opacity:1; fill:none" points="2196.91,1486.45 2196.91,1467.55 "/>
<path clip-path="url(#clip910)" d="M295.408 1532.02 L325.084 1532.02 L325.084 1535.95 L295.408 1535.95 L295.408 1532.02 Z" fill="#000000" fill-rule="nonzero" fill-opacity="1" /><path clip-path="url(#clip910)" d="M335.986 1544.91 L343.625 1544.91 L343.625 1518.55 L335.315 1520.21 L335.315 1515.95 L343.579 1514.29 L348.255 1514.29 L348.255 1544.91 L355.894 1544.91 L355.894 1548.85 L335.986 1548.85 L335.986 1544.91 Z" fill="#000000" fill-rule="nonzero" fill-opacity="1" /><path clip-path="url(#clip910)" d="M365.338 1542.97 L370.222 1542.97 L370.222 1548.85 L365.338 1548.85 L365.338 1542.97 Z" fill="#000000" fill-rule="nonzero" fill-opacity="1" /><path clip-path="url(#clip910)" d="M390.407 1517.37 Q386.796 1517.37 384.968 1520.93 Q383.162 1524.47 383.162 1531.6 Q383.162 1538.71 384.968 1542.27 Q386.796 1545.82 390.407 1545.82 Q394.042 1545.82 395.847 1542.27 Q397.676 1538.71 397.676 1531.6 Q397.676 1524.47 395.847 1520.93 Q394.042 1517.37 390.407 1517.37 M390.407 1513.66 Q396.218 1513.66 399.273 1518.27 Q402.352 1522.85 402.352 1531.6 Q402.352 1540.33 399.273 1544.94 Q396.218 1549.52 390.407 1549.52 Q384.597 1549.52 381.519 1544.94 Q378.463 1540.33 378.463 1531.6 Q378.463 1522.85 381.519 1518.27 Q384.597 1513.66 390.407 1513.66 Z" fill="#000000" fill-rule="nonzero" fill-opacity="1" /><path clip-path="url(#clip910)" d="M757.913 1532.02 L787.589 1532.02 L787.589 1535.95 L757.913 1535.95 L757.913 1532.02 Z" fill="#000000" fill-rule="nonzero" fill-opacity="1" /><path clip-path="url(#clip910)" d="M807.681 1517.37 Q804.07 1517.37 802.242 1520.93 Q800.436 1524.47 800.436 1531.6 Q800.436 1538.71 802.242 1542.27 Q804.07 1545.82 807.681 1545.82 Q811.316 1545.82 813.121 1542.27 Q814.95 1538.71 814.95 1531.6 Q814.95 1524.47 813.121 1520.93 Q811.316 1517.37 807.681 1517.37 M807.681 1513.66 Q813.492 1513.66 816.547 1518.27 Q819.626 1522.85 819.626 1531.6 Q819.626 1540.33 816.547 1544.94 Q813.492 1549.52 807.681 1549.52 Q801.871 1549.52 798.793 1544.94 Q795.737 1540.33 795.737 1531.6 Q795.737 1522.85 798.793 1518.27 Q801.871 1513.66 807.681 1513.66 Z" fill="#000000" fill-rule="nonzero" fill-opacity="1" /><path clip-path="url(#clip910)" d="M827.843 1542.97 L832.728 1542.97 L832.728 1548.85 L827.843 1548.85 L827.843 1542.97 Z" fill="#000000" fill-rule="nonzero" fill-opacity="1" /><path clip-path="url(#clip910)" d="M842.959 1514.29 L861.315 1514.29 L861.315 1518.22 L847.241 1518.22 L847.241 1526.7 Q848.26 1526.35 849.278 1526.19 Q850.297 1526 851.315 1526 Q857.102 1526 860.482 1529.17 Q863.862 1532.34 863.862 1537.76 Q863.862 1543.34 860.389 1546.44 Q856.917 1549.52 850.598 1549.52 Q848.422 1549.52 846.153 1549.15 Q843.908 1548.78 841.501 1548.04 L841.501 1543.34 Q843.584 1544.47 845.806 1545.03 Q848.028 1545.58 850.505 1545.58 Q854.51 1545.58 856.848 1543.48 Q859.186 1541.37 859.186 1537.76 Q859.186 1534.15 856.848 1532.04 Q854.51 1529.94 850.505 1529.94 Q848.63 1529.94 846.755 1530.35 Q844.903 1530.77 842.959 1531.65 L842.959 1514.29 Z" fill="#000000" fill-rule="nonzero" fill-opacity="1" /><path clip-path="url(#clip910)" d="M1250.28 1517.37 Q1246.67 1517.37 1244.84 1520.93 Q1243.03 1524.47 1243.03 1531.6 Q1243.03 1538.71 1244.84 1542.27 Q1246.67 1545.82 1250.28 1545.82 Q1253.91 1545.82 1255.72 1542.27 Q1257.55 1538.71 1257.55 1531.6 Q1257.55 1524.47 1255.72 1520.93 Q1253.91 1517.37 1250.28 1517.37 M1250.28 1513.66 Q1256.09 1513.66 1259.14 1518.27 Q1262.22 1522.85 1262.22 1531.6 Q1262.22 1540.33 1259.14 1544.94 Q1256.09 1549.52 1250.28 1549.52 Q1244.47 1549.52 1241.39 1544.94 Q1238.33 1540.33 1238.33 1531.6 Q1238.33 1522.85 1241.39 1518.27 Q1244.47 1513.66 1250.28 1513.66 Z" fill="#000000" fill-rule="nonzero" fill-opacity="1" /><path clip-path="url(#clip910)" d="M1270.44 1542.97 L1275.33 1542.97 L1275.33 1548.85 L1270.44 1548.85 L1270.44 1542.97 Z" fill="#000000" fill-rule="nonzero" fill-opacity="1" /><path clip-path="url(#clip910)" d="M1295.51 1517.37 Q1291.9 1517.37 1290.07 1520.93 Q1288.27 1524.47 1288.27 1531.6 Q1288.27 1538.71 1290.07 1542.27 Q1291.9 1545.82 1295.51 1545.82 Q1299.14 1545.82 1300.95 1542.27 Q1302.78 1538.71 1302.78 1531.6 Q1302.78 1524.47 1300.95 1520.93 Q1299.14 1517.37 1295.51 1517.37 M1295.51 1513.66 Q1301.32 1513.66 1304.38 1518.27 Q1307.45 1522.85 1307.45 1531.6 Q1307.45 1540.33 1304.38 1544.94 Q1301.32 1549.52 1295.51 1549.52 Q1289.7 1549.52 1286.62 1544.94 Q1283.57 1540.33 1283.57 1531.6 Q1283.57 1522.85 1286.62 1518.27 Q1289.7 1513.66 1295.51 1513.66 Z" fill="#000000" fill-rule="nonzero" fill-opacity="1" /><path clip-path="url(#clip910)" d="M1712.78 1517.37 Q1709.17 1517.37 1707.34 1520.93 Q1705.54 1524.47 1705.54 1531.6 Q1705.54 1538.71 1707.34 1542.27 Q1709.17 1545.82 1712.78 1545.82 Q1716.42 1545.82 1718.22 1542.27 Q1720.05 1538.71 1720.05 1531.6 Q1720.05 1524.47 1718.22 1520.93 Q1716.42 1517.37 1712.78 1517.37 M1712.78 1513.66 Q1718.59 1513.66 1721.65 1518.27 Q1724.73 1522.85 1724.73 1531.6 Q1724.73 1540.33 1721.65 1544.94 Q1718.59 1549.52 1712.78 1549.52 Q1706.97 1549.52 1703.9 1544.94 Q1700.84 1540.33 1700.84 1531.6 Q1700.84 1522.85 1703.9 1518.27 Q1706.97 1513.66 1712.78 1513.66 Z" fill="#000000" fill-rule="nonzero" fill-opacity="1" /><path clip-path="url(#clip910)" d="M1732.95 1542.97 L1737.83 1542.97 L1737.83 1548.85 L1732.95 1548.85 L1732.95 1542.97 Z" fill="#000000" fill-rule="nonzero" fill-opacity="1" /><path clip-path="url(#clip910)" d="M1748.06 1514.29 L1766.42 1514.29 L1766.42 1518.22 L1752.34 1518.22 L1752.34 1526.7 Q1753.36 1526.35 1754.38 1526.19 Q1755.4 1526 1756.42 1526 Q1762.21 1526 1765.58 1529.17 Q1768.96 1532.34 1768.96 1537.76 Q1768.96 1543.34 1765.49 1546.44 Q1762.02 1549.52 1755.7 1549.52 Q1753.52 1549.52 1751.26 1549.15 Q1749.01 1548.78 1746.6 1548.04 L1746.6 1543.34 Q1748.69 1544.47 1750.91 1545.03 Q1753.13 1545.58 1755.61 1545.58 Q1759.61 1545.58 1761.95 1543.48 Q1764.29 1541.37 1764.29 1537.76 Q1764.29 1534.15 1761.95 1532.04 Q1759.61 1529.94 1755.61 1529.94 Q1753.73 1529.94 1751.86 1530.35 Q1750.01 1530.77 1748.06 1531.65 L1748.06 1514.29 Z" fill="#000000" fill-rule="nonzero" fill-opacity="1" /><path clip-path="url(#clip910)" d="M2164.06 1544.91 L2171.7 1544.91 L2171.7 1518.55 L2163.39 1520.21 L2163.39 1515.95 L2171.66 1514.29 L2176.33 1514.29 L2176.33 1544.91 L2183.97 1544.91 L2183.97 1548.85 L2164.06 1548.85 L2164.06 1544.91 Z" fill="#000000" fill-rule="nonzero" fill-opacity="1" /><path clip-path="url(#clip910)" d="M2193.41 1542.97 L2198.3 1542.97 L2198.3 1548.85 L2193.41 1548.85 L2193.41 1542.97 Z" fill="#000000" fill-rule="nonzero" fill-opacity="1" /><path clip-path="url(#clip910)" d="M2218.48 1517.37 Q2214.87 1517.37 2213.04 1520.93 Q2211.24 1524.47 2211.24 1531.6 Q2211.24 1538.71 2213.04 1542.27 Q2214.87 1545.82 2218.48 1545.82 Q2222.12 1545.82 2223.92 1542.27 Q2225.75 1538.71 2225.75 1531.6 Q2225.75 1524.47 2223.92 1520.93 Q2222.12 1517.37 2218.48 1517.37 M2218.48 1513.66 Q2224.29 1513.66 2227.35 1518.27 Q2230.43 1522.85 2230.43 1531.6 Q2230.43 1540.33 2227.35 1544.94 Q2224.29 1549.52 2218.48 1549.52 Q2212.67 1549.52 2209.59 1544.94 Q2206.54 1540.33 2206.54 1531.6 Q2206.54 1522.85 2209.59 1518.27 Q2212.67 1513.66 2218.48 1513.66 Z" fill="#000000" fill-rule="nonzero" fill-opacity="1" /><polyline clip-path="url(#clip912)" style="stroke:#000000; stroke-linecap:round; stroke-linejoin:round; stroke-width:2; stroke-opacity:0.1; fill:none" points="193.936,1432.05 2352.76,1432.05 "/>
<polyline clip-path="url(#clip912)" style="stroke:#000000; stroke-linecap:round; stroke-linejoin:round; stroke-width:2; stroke-opacity:0.1; fill:none" points="193.936,1098.96 2352.76,1098.96 "/>
<polyline clip-path="url(#clip912)" style="stroke:#000000; stroke-linecap:round; stroke-linejoin:round; stroke-width:2; stroke-opacity:0.1; fill:none" points="193.936,765.87 2352.76,765.87 "/>
<polyline clip-path="url(#clip912)" style="stroke:#000000; stroke-linecap:round; stroke-linejoin:round; stroke-width:2; stroke-opacity:0.1; fill:none" points="193.936,432.778 2352.76,432.778 "/>
<polyline clip-path="url(#clip912)" style="stroke:#000000; stroke-linecap:round; stroke-linejoin:round; stroke-width:2; stroke-opacity:0.1; fill:none" points="193.936,99.6865 2352.76,99.6865 "/>
<polyline clip-path="url(#clip910)" style="stroke:#000000; stroke-linecap:round; stroke-linejoin:round; stroke-width:4; stroke-opacity:1; fill:none" points="193.936,1486.45 193.936,47.2441 "/>
<polyline clip-path="url(#clip910)" style="stroke:#000000; stroke-linecap:round; stroke-linejoin:round; stroke-width:4; stroke-opacity:1; fill:none" points="193.936,1432.05 212.834,1432.05 "/>
<polyline clip-path="url(#clip910)" style="stroke:#000000; stroke-linecap:round; stroke-linejoin:round; stroke-width:4; stroke-opacity:1; fill:none" points="193.936,1098.96 212.834,1098.96 "/>
<polyline clip-path="url(#clip910)" style="stroke:#000000; stroke-linecap:round; stroke-linejoin:round; stroke-width:4; stroke-opacity:1; fill:none" points="193.936,765.87 212.834,765.87 "/>
<polyline clip-path="url(#clip910)" style="stroke:#000000; stroke-linecap:round; stroke-linejoin:round; stroke-width:4; stroke-opacity:1; fill:none" points="193.936,432.778 212.834,432.778 "/>
<polyline clip-path="url(#clip910)" style="stroke:#000000; stroke-linecap:round; stroke-linejoin:round; stroke-width:4; stroke-opacity:1; fill:none" points="193.936,99.6865 212.834,99.6865 "/>
<path clip-path="url(#clip910)" d="M50.9921 1432.51 L80.6679 1432.51 L80.6679 1436.44 L50.9921 1436.44 L50.9921 1432.51 Z" fill="#000000" fill-rule="nonzero" fill-opacity="1" /><path clip-path="url(#clip910)" d="M91.5706 1445.4 L99.2095 1445.4 L99.2095 1419.03 L90.8993 1420.7 L90.8993 1416.44 L99.1632 1414.77 L103.839 1414.77 L103.839 1445.4 L111.478 1445.4 L111.478 1449.33 L91.5706 1449.33 L91.5706 1445.4 Z" fill="#000000" fill-rule="nonzero" fill-opacity="1" /><path clip-path="url(#clip910)" d="M120.922 1443.45 L125.807 1443.45 L125.807 1449.33 L120.922 1449.33 L120.922 1443.45 Z" fill="#000000" fill-rule="nonzero" fill-opacity="1" /><path clip-path="url(#clip910)" d="M145.992 1417.85 Q142.381 1417.85 140.552 1421.42 Q138.746 1424.96 138.746 1432.09 Q138.746 1439.19 140.552 1442.76 Q142.381 1446.3 145.992 1446.3 Q149.626 1446.3 151.431 1442.76 Q153.26 1439.19 153.26 1432.09 Q153.26 1424.96 151.431 1421.42 Q149.626 1417.85 145.992 1417.85 M145.992 1414.15 Q151.802 1414.15 154.857 1418.76 Q157.936 1423.34 157.936 1432.09 Q157.936 1440.82 154.857 1445.42 Q151.802 1450.01 145.992 1450.01 Q140.181 1450.01 137.103 1445.42 Q134.047 1440.82 134.047 1432.09 Q134.047 1423.34 137.103 1418.76 Q140.181 1414.15 145.992 1414.15 Z" fill="#000000" fill-rule="nonzero" fill-opacity="1" /><path clip-path="url(#clip910)" d="M51.9875 1099.41 L81.6633 1099.41 L81.6633 1103.35 L51.9875 1103.35 L51.9875 1099.41 Z" fill="#000000" fill-rule="nonzero" fill-opacity="1" /><path clip-path="url(#clip910)" d="M101.756 1084.76 Q98.1447 1084.76 96.316 1088.33 Q94.5104 1091.87 94.5104 1099 Q94.5104 1106.1 96.316 1109.67 Q98.1447 1113.21 101.756 1113.21 Q105.39 1113.21 107.196 1109.67 Q109.024 1106.1 109.024 1099 Q109.024 1091.87 107.196 1088.33 Q105.39 1084.76 101.756 1084.76 M101.756 1081.06 Q107.566 1081.06 110.621 1085.66 Q113.7 1090.25 113.7 1099 Q113.7 1107.72 110.621 1112.33 Q107.566 1116.91 101.756 1116.91 Q95.9456 1116.91 92.8669 1112.33 Q89.8114 1107.72 89.8114 1099 Q89.8114 1090.25 92.8669 1085.66 Q95.9456 1081.06 101.756 1081.06 Z" fill="#000000" fill-rule="nonzero" fill-opacity="1" /><path clip-path="url(#clip910)" d="M121.918 1110.36 L126.802 1110.36 L126.802 1116.24 L121.918 1116.24 L121.918 1110.36 Z" fill="#000000" fill-rule="nonzero" fill-opacity="1" /><path clip-path="url(#clip910)" d="M137.033 1081.68 L155.39 1081.68 L155.39 1085.62 L141.316 1085.62 L141.316 1094.09 Q142.334 1093.74 143.353 1093.58 Q144.371 1093.39 145.39 1093.39 Q151.177 1093.39 154.556 1096.57 Q157.936 1099.74 157.936 1105.15 Q157.936 1110.73 154.464 1113.83 Q150.992 1116.91 144.672 1116.91 Q142.496 1116.91 140.228 1116.54 Q137.982 1116.17 135.575 1115.43 L135.575 1110.73 Q137.658 1111.87 139.881 1112.42 Q142.103 1112.98 144.58 1112.98 Q148.584 1112.98 150.922 1110.87 Q153.26 1108.77 153.26 1105.15 Q153.26 1101.54 150.922 1099.44 Q148.584 1097.33 144.58 1097.33 Q142.705 1097.33 140.83 1097.75 Q138.978 1098.16 137.033 1099.04 L137.033 1081.68 Z" fill="#000000" fill-rule="nonzero" fill-opacity="1" /><path clip-path="url(#clip910)" d="M100.76 751.669 Q97.1493 751.669 95.3206 755.234 Q93.515 758.775 93.515 765.905 Q93.515 773.011 95.3206 776.576 Q97.1493 780.118 100.76 780.118 Q104.395 780.118 106.2 776.576 Q108.029 773.011 108.029 765.905 Q108.029 758.775 106.2 755.234 Q104.395 751.669 100.76 751.669 M100.76 747.965 Q106.571 747.965 109.626 752.572 Q112.705 757.155 112.705 765.905 Q112.705 774.632 109.626 779.238 Q106.571 783.821 100.76 783.821 Q94.9502 783.821 91.8715 779.238 Q88.816 774.632 88.816 765.905 Q88.816 757.155 91.8715 752.572 Q94.9502 747.965 100.76 747.965 Z" fill="#000000" fill-rule="nonzero" fill-opacity="1" /><path clip-path="url(#clip910)" d="M120.922 777.271 L125.807 777.271 L125.807 783.15 L120.922 783.15 L120.922 777.271 Z" fill="#000000" fill-rule="nonzero" fill-opacity="1" /><path clip-path="url(#clip910)" d="M145.992 751.669 Q142.381 751.669 140.552 755.234 Q138.746 758.775 138.746 765.905 Q138.746 773.011 140.552 776.576 Q142.381 780.118 145.992 780.118 Q149.626 780.118 151.431 776.576 Q153.26 773.011 153.26 765.905 Q153.26 758.775 151.431 755.234 Q149.626 751.669 145.992 751.669 M145.992 747.965 Q151.802 747.965 154.857 752.572 Q157.936 757.155 157.936 765.905 Q157.936 774.632 154.857 779.238 Q151.802 783.821 145.992 783.821 Q140.181 783.821 137.103 779.238 Q134.047 774.632 134.047 765.905 Q134.047 757.155 137.103 752.572 Q140.181 747.965 145.992 747.965 Z" fill="#000000" fill-rule="nonzero" fill-opacity="1" /><path clip-path="url(#clip910)" d="M101.756 418.577 Q98.1447 418.577 96.316 422.142 Q94.5104 425.683 94.5104 432.813 Q94.5104 439.919 96.316 443.484 Q98.1447 447.026 101.756 447.026 Q105.39 447.026 107.196 443.484 Q109.024 439.919 109.024 432.813 Q109.024 425.683 107.196 422.142 Q105.39 418.577 101.756 418.577 M101.756 414.873 Q107.566 414.873 110.621 419.48 Q113.7 424.063 113.7 432.813 Q113.7 441.54 110.621 446.146 Q107.566 450.73 101.756 450.73 Q95.9456 450.73 92.8669 446.146 Q89.8114 441.54 89.8114 432.813 Q89.8114 424.063 92.8669 419.48 Q95.9456 414.873 101.756 414.873 Z" fill="#000000" fill-rule="nonzero" fill-opacity="1" /><path clip-path="url(#clip910)" d="M121.918 444.179 L126.802 444.179 L126.802 450.058 L121.918 450.058 L121.918 444.179 Z" fill="#000000" fill-rule="nonzero" fill-opacity="1" /><path clip-path="url(#clip910)" d="M137.033 415.498 L155.39 415.498 L155.39 419.433 L141.316 419.433 L141.316 427.906 Q142.334 427.558 143.353 427.396 Q144.371 427.211 145.39 427.211 Q151.177 427.211 154.556 430.383 Q157.936 433.554 157.936 438.97 Q157.936 444.549 154.464 447.651 Q150.992 450.73 144.672 450.73 Q142.496 450.73 140.228 450.359 Q137.982 449.989 135.575 449.248 L135.575 444.549 Q137.658 445.683 139.881 446.239 Q142.103 446.794 144.58 446.794 Q148.584 446.794 150.922 444.688 Q153.26 442.582 153.26 438.97 Q153.26 435.359 150.922 433.253 Q148.584 431.146 144.58 431.146 Q142.705 431.146 140.83 431.563 Q138.978 431.98 137.033 432.859 L137.033 415.498 Z" fill="#000000" fill-rule="nonzero" fill-opacity="1" /><path clip-path="url(#clip910)" d="M91.5706 113.031 L99.2095 113.031 L99.2095 86.6658 L90.8993 88.3324 L90.8993 84.0732 L99.1632 82.4065 L103.839 82.4065 L103.839 113.031 L111.478 113.031 L111.478 116.967 L91.5706 116.967 L91.5706 113.031 Z" fill="#000000" fill-rule="nonzero" fill-opacity="1" /><path clip-path="url(#clip910)" d="M120.922 111.087 L125.807 111.087 L125.807 116.967 L120.922 116.967 L120.922 111.087 Z" fill="#000000" fill-rule="nonzero" fill-opacity="1" /><path clip-path="url(#clip910)" d="M145.992 85.4852 Q142.381 85.4852 140.552 89.05 Q138.746 92.5917 138.746 99.7213 Q138.746 106.828 140.552 110.392 Q142.381 113.934 145.992 113.934 Q149.626 113.934 151.431 110.392 Q153.26 106.828 153.26 99.7213 Q153.26 92.5917 151.431 89.05 Q149.626 85.4852 145.992 85.4852 M145.992 81.7815 Q151.802 81.7815 154.857 86.388 Q157.936 90.9713 157.936 99.7213 Q157.936 108.448 154.857 113.055 Q151.802 117.638 145.992 117.638 Q140.181 117.638 137.103 113.055 Q134.047 108.448 134.047 99.7213 Q134.047 90.9713 137.103 86.388 Q140.181 81.7815 145.992 81.7815 Z" fill="#000000" fill-rule="nonzero" fill-opacity="1" /><polyline clip-path="url(#clip912)" style="stroke:#009af9; stroke-linecap:round; stroke-linejoin:round; stroke-width:4; stroke-opacity:1; fill:none" points="1272.89,99.6865 1365.05,102.939 1456.3,113.023 1545.86,129.287 1632.48,151.407 1715.73,179.707 1794.91,212.886 1868.9,250.619 1937.48,292.581 1999.74,338.12 2055.69,386.913 2104.87,437.82 2146.83,491.004 2181.12,545.815 2207.74,601.683 2226.69,658.526 2237.52,715.898 2240.22,773.55 2235.71,831.13 2222.18,888.421 2201.42,945.102 2172.55,1000.73 2136.45,1055.05 2092.69,1107.74 2041.7,1158.16 1983.95,1205.98 1919.89,1250.54 1849.5,1291.53 1774.15,1328.29 1694.07,1360.17 1609.7,1386.84 1522.17,1407.66 1432.16,1421.97 1340.57,1430.43 1248.31,1431.73 1156.26,1426.85 1065.47,1415.14 976.696,1397.25 890.746,1373.18 808.631,1343.9 730.577,1309.42 657.938,1270.39 591.163,1227.12 530.254,1180.93 476.112,1131.49 429.19,1079.93 389.035,1026.26 357.001,971.125 332.637,914.932 315.493,857.926 306.469,800.472 306.469,742.836 312.786,685.281 328.126,628.193 351.136,571.838 382.267,516.377 420.617,462.542 466.187,410.334 518.974,360.565 578.53,313.399 643.951,269.811 715.689,229.801 792.389,194.344 873.827,164.093 959.1,139.046 1047.42,119.854 1137.88,106.843 1229.78,100.337 1322.07,100.662 1413.89,107.493 1504.35,120.83 1592.33,140.347 1677.38,165.719 1758.36,196.621 1835.06,232.403 1906.35,272.738 1971.32,316.652 2030.42,363.818 2082.76,413.587 2127.88,465.957 2165.78,519.955 2196.01,575.416 2218.57,631.934 2233,689.062 2240.22,746.617 2238.42,804.274 2229.39,861.748 2212.25,918.673 2186.98,974.866 2154.05,1029.84 2113.89,1083.35 2066.07,1134.74 2011.47,1183.86 1950.57,1230.05 1882.89,1272.99 1810.25,1311.7 1731.97,1345.85 1649.63,1375.13 1563.45,1398.55 1474.46,1416.11 1383.49,1427.17 1291.42,1432.05 1199.18,1429.78 1107.65,1421.32 1017.75,1406.36 930.45,1385.21 846.305,1358.21 766.672,1326.01 691.325,1288.93 621.843,1247.94 557.776,1203.05 500.476,1154.91 450.395,1104.17 407.082,1051.47 370.988,997.148 342.563,941.361 322.712,884.68 310.079,827.349 305.567,769.763 309.176,712.117 320.004,654.785 339.856,598.023 366.927,542.074 401.668,487.426 444.079,434.405 493.257,383.66 549.655,335.193 612.82,289.653 681.399,248.016 755.843,210.609 835.251,177.43 918.945,149.78 1005.8,127.986 1095.47,112.047 1186.78,102.614 1278.96,99.6865 1371.08,103.59 1462.28,113.674 1551.5,130.589 1638.12,153.359 1721.14,181.658 1799.87,215.163 1873.41,253.221 1941.54,295.508 2003.8,341.373 2059.3,390.166 2108.03,441.398 2149.08,494.582 2182.92,549.393 2209.54,605.423 2227.59,662.267 2237.52,719.72 2240.22,777.336 2234.81,834.912 2221.27,892.162 2199.62,948.68 2170.29,1004.3 2133.74,1058.63 2089.53,1111 2038.09,1161.42 1979.89,1208.91 1915.37,1253.47 1844.99,1294.13 1769.19,1330.56 1688.66,1362.12 1604.06,1388.14 1516.31,1408.63 1426.18,1422.95 1334.48,1430.43 1242.24,1431.73 1150.29,1426.2 1059.49,1414.16 970.83,1395.62 885.106,1371.55 803.217,1341.62 725.614,1306.82 653.426,1267.46 587.103,1224.2 526.645,1177.68 472.954,1128.24 426.032,1076.35 386.779,1022.68 355.196,967.547 330.833,911.273 314.59,854.185 306.469,796.691 306.469,739.034 313.688,681.54 329.93,624.452 352.941,568.097 384.523,512.798 423.324,458.964 469.345,407.081 522.584,357.312 582.591,310.471 648.914,267.208 720.652,227.524 797.803,192.393 879.467,162.141 964.739,137.42 "/>
<polyline clip-path="url(#clip912)" style="stroke:#e26f46; stroke-linecap:round; stroke-linejoin:round; stroke-width:4; stroke-opacity:1; fill:none" points="1272.89,99.6865 1362.23,113.999 1448.85,131.239 1533.68,151.732 1613.54,173.526 1690.69,195.971 1766.94,220.042 1839.58,244.764 1908.15,270.786 1972.22,298.761 2033.13,329.988 2088.18,364.468 2136.9,402.202 2179.76,444.651 2215.86,492.305 2245.64,544.351 2269.1,602.252 2283.54,664.381 2291.66,730.414 2290.75,801.326 2281.73,875.816 2260.07,952.584 2225.79,1030.16 2176.16,1107.42 2113.89,1180.93 2039,1248.59 1954.63,1308.45 1862.13,1357.89 1765.13,1396.6 1664.97,1422.95 1565.26,1439.21 1466.9,1445.72 1371.25,1443.76 1276.5,1434.01 1187.17,1420.02 1099.19,1402.13 1014.82,1382.29 934.059,1360.17 856.005,1337.07 780.658,1313 706.665,1288.6 637.635,1261.6 572.214,1232.65 511.304,1202.08 456.712,1167.92 407.533,1129.21 365.122,1086.44 329.028,1039.11 301.055,987.064 278.496,930.79 264.058,869.961 255.035,804.254 255.035,733.992 264.961,659.827 285.715,583.223 320.004,505.805 367.829,428.875 430.092,354.71 504.086,287.051 588.456,227.524 679.594,178.405 775.695,140.022 874.955,112.047 975.117,95.1325 1071.67,88.6268 1167.32,90.5786 1259.36,99.036 1350.5,112.698 1437.58,130.263 1520.14,150.106 1602.26,171.249 1678.5,193.043 1753.4,216.789 1826.49,241.511 1895.52,267.534 1961.39,295.183 2021.85,326.085 2077.8,359.915 2128.33,397.648 2172.55,439.609 2209.54,485.8 2239.32,536.544 2262.78,593.144 2279.02,653.647 2288.05,718.379 2289.85,787.664 2281.73,860.853 2261.88,936.97 2230.3,1014.06 2184.28,1091.48 2124.27,1165.32 2052.53,1233.96 1970.42,1294.46 1879.73,1345.53 1783.18,1385.21 1686.17,1413.84 1587.82,1431.4 1490.81,1439.86 1394.71,1438.56 1302.67,1431.4 1213.34,1419.04 1127.16,1402.78 1042.34,1383.26 959.776,1362.44 881.722,1340 806.827,1317.23 734.187,1293.16 664.705,1267.46 598.382,1240.14 536.57,1210.21 480.173,1177.68 430.092,1140.92 383.621,1099.94 345.27,1054.4 312.786,1004.95 287.52,949.656 270.375,891.105 259.546,827.024 255.937,758.389 261.351,685.85 278.496,610.384 308.274,532.966 350.685,455.874 407.533,381.383 477.015,311.447 557.776,248.992 646.658,195.971 741.406,153.033 837.958,121.806 937.218,101.638 1036.03,91.8797 1133.93,90.5786 1226.42,95.7831 1317.11,106.843 1405.54,122.456 1488.56,141.323 1572.03,162.792 1650.98,184.586 1727.23,207.356 1801.68,231.752 1872.96,257.45 1941.09,284.774 2004.71,315.35 2062.46,348.53 2113.44,384.636 2158.56,424.321 2197.81,470.023 2229.39,519.304 2255.56,573.627 2274.51,632.503 2286.24,695.934 2289.85,763.593 2284.44,835.806 2269.1,910.947 2242.93,987.714 2202.32,1064.81 2147.28,1140.6 2079.15,1211.84 1999.74,1275.27 1913.12,1329.91 1819.72,1374.8 1721.37,1408.63 1621.21,1430.75 1521.95,1442.46 1424.49,1445.07 1329.29,1439.86 1237.7,1428.8 1150.17,1413.51 1063.1,1394.65 979.177,1373.18 900.221,1351.06 823.972,1327.96 749.527,1303.24 678.692,1277.87 611.917,1250.87 547.85,1221.27 489.648,1188.74 435.958,1152.63 389.937,1112.62 351.136,1069.04 318.2,1019.92 292.031,966.571 273.082,908.345 259.546,845.89 255.035,779.207 257.742,707.644 270.375,632.829 295.641,555.573 335.345,477.993 387.681,402.202 454.456,329.663 532.961,264.281 621.392,207.031 714.786,162.141 813.143,127.661 910.598,104.241 1008.95,91.2291 1107.76,87.9763 1203.41,92.5303 1294.55,102.939 "/>
<polyline clip-path="url(#clip912)" style="stroke:#3da44d; stroke-linecap:round; stroke-linejoin:round; stroke-width:4; stroke-opacity:1; fill:none" points="1272.89,99.6865 1361.95,106.192 1450.21,118.878 1537.29,137.745 1622.56,162.467 1705.58,192.393 1785.43,227.198 1861.23,266.558 1932.52,309.821 1998.39,356.662 2058.85,406.43 2112.54,458.638 2159.01,512.961 2197.81,568.91 2228.49,625.998 2250.15,684.102 2263.68,742.694 2268.2,801.489 2263.68,860.04 2249.25,918.103 2225.79,975.191 2194.2,1030.98 2154.05,1084.97 2106.67,1137.02 2052.08,1186.46 1990.72,1232.98 1923.95,1275.92 1851.76,1314.63 1775.06,1348.78 1694.75,1378.06 1611.5,1401.8 1525.56,1419.69 1437.91,1431.73 1349.37,1437.26 1260.04,1436.61 1170.98,1429.13 1082.61,1415.46 995.42,1395.62 910.372,1370.25 827.581,1339.67 748.173,1303.89 672.827,1263.88 602.443,1219.97 537.022,1172.8 477.917,1122.71 425.129,1070.17 379.56,1015.69 341.661,959.415 312.786,902.002 292.031,843.979 280.301,785.469 277.594,726.836 283.91,668.447 299.25,610.709 323.614,553.947 356.099,498.486 397.156,444.651 445.432,393.094 500.927,343.976 562.739,298.11 630.416,255.823 703.056,217.44 780.207,183.61 860.968,154.985 944.888,131.89 1030.61,114.65 1118.25,103.59 1207.02,99.036 1296.13,100.662 1385.07,108.795 1473.22,123.107 1559.84,143.6 1644.67,169.623 1726.78,200.85 1805.74,236.957 1880.63,277.292 1950.57,321.531 2015.08,369.022 2073.74,419.442 2125.62,472.3 2169.84,527.111 2206.84,583.385 2234.81,640.798 2254.66,699.065 2265.49,757.738 2267.29,816.493 2260.07,875.003 2242.93,932.741 2217.66,989.504 2183.83,1044.8 2142.32,1098.31 2093.14,1149.71 2036.74,1198.5 1974.03,1244.04 1905.9,1286 1832.81,1323.73 1755.66,1356.91 1674.44,1384.89 1590.07,1407.33 1503.67,1423.92 1415.47,1434.01 1326.59,1437.91 1237.36,1435.31 1148.37,1426.2 1060.16,1410.91 973.312,1389.77 888.716,1363.09 807.278,1331.22 728.773,1294.46 654.779,1253.47 585.298,1208.58 521.23,1160.44 463.479,1109.7 412.496,1056.67 369.183,1001.7 333.54,945.265 306.469,887.689 287.52,829.423 277.594,770.79 276.691,712.157 284.812,653.809 302.86,596.234 329.028,539.472 363.769,484.173 406.18,430.827 456.261,379.757 513.56,331.289 577.177,286.075 646.207,244.438 720.2,207.031 798.254,174.502 879.918,147.178 964.739,125.384 1051.37,109.445 1139.46,99.6865 1228.57,96.4337 1317.79,99.6865 1406.89,109.445 1494.99,125.384 1581.5,147.178 1665.87,174.502 1747.54,207.031 1825.59,244.438 1899.58,286.075 1968.61,331.289 2032.23,379.757 2089.53,430.827 2139.61,484.173 2182.47,539.472 2216.76,596.071 2242.93,653.809 2260.98,712.32 2270,771.156 2269.1,829.951 2259.17,888.34 2240.22,946.078 2213.15,1002.51 2177.96,1057.65 2134.2,1110.67 2083.21,1161.42 2025.46,1209.56 1961.39,1254.45 1891.91,1295.43 1817.47,1332.19 1738.96,1364.39 1656.85,1391.39 1572.03,1412.54 1485.29,1427.83 1396.97,1436.61 1307.86,1439.21 1218.41,1435.31 1129.42,1424.9 1041.44,1408.31 954.813,1385.86 870.894,1357.89 789.682,1324.71 712.079,1286.98 638.537,1245.01 569.958,1199.47 507.244,1150.68 450.846,1099.29 401.217,1045.62 359.257,990.154 325.419,933.392 300.153,875.572 283.91,817.184 276.691,758.551 278.496,699.959 289.324,641.774 309.176,584.361 337.149,528.087 374.146,473.276 418.362,420.418 470.247,369.998 528.449,322.181 592.968,277.943 662.901,237.282 737.796,201.175 816.302,169.623 898.416,143.275 "/>
<path clip-path="url(#clip910)" d="M1764.98 302.578 L2280.8 302.578 L2280.8 95.2176 L1764.98 95.2176  Z" fill="#ffffff" fill-rule="evenodd" fill-opacity="1"/>
<polyline clip-path="url(#clip910)" style="stroke:#000000; stroke-linecap:round; stroke-linejoin:round; stroke-width:4; stroke-opacity:1; fill:none" points="1764.98,302.578 2280.8,302.578 2280.8,95.2176 1764.98,95.2176 1764.98,302.578 "/>
<polyline clip-path="url(#clip910)" style="stroke:#009af9; stroke-linecap:round; stroke-linejoin:round; stroke-width:4; stroke-opacity:1; fill:none" points="1788.97,147.058 1932.89,147.058 "/>
<path clip-path="url(#clip910)" d="M1964.29 131.051 L1964.29 138.412 L1973.06 138.412 L1973.06 141.722 L1964.29 141.722 L1964.29 155.796 Q1964.29 158.967 1965.14 159.87 Q1966.02 160.773 1968.68 160.773 L1973.06 160.773 L1973.06 164.338 L1968.68 164.338 Q1963.75 164.338 1961.88 162.509 Q1960 160.657 1960 155.796 L1960 141.722 L1956.88 141.722 L1956.88 138.412 L1960 138.412 L1960 131.051 L1964.29 131.051 Z" fill="#000000" fill-rule="nonzero" fill-opacity="1" /><path clip-path="url(#clip910)" d="M1993.68 142.393 Q1992.97 141.977 1992.11 141.791 Q1991.28 141.583 1990.26 141.583 Q1986.65 141.583 1984.7 143.944 Q1982.78 146.282 1982.78 150.68 L1982.78 164.338 L1978.5 164.338 L1978.5 138.412 L1982.78 138.412 L1982.78 142.44 Q1984.12 140.078 1986.28 138.944 Q1988.43 137.787 1991.51 137.787 Q1991.95 137.787 1992.48 137.856 Q1993.01 137.903 1993.66 138.018 L1993.68 142.393 Z" fill="#000000" fill-rule="nonzero" fill-opacity="1" /><path clip-path="url(#clip910)" d="M2009.93 151.305 Q2004.77 151.305 2002.78 152.486 Q2000.79 153.666 2000.79 156.514 Q2000.79 158.782 2002.27 160.125 Q2003.78 161.444 2006.35 161.444 Q2009.89 161.444 2012.02 158.944 Q2014.17 156.421 2014.17 152.254 L2014.17 151.305 L2009.93 151.305 M2018.43 149.546 L2018.43 164.338 L2014.17 164.338 L2014.17 160.402 Q2012.71 162.763 2010.54 163.898 Q2008.36 165.009 2005.21 165.009 Q2001.23 165.009 1998.87 162.787 Q1996.53 160.541 1996.53 156.791 Q1996.53 152.416 1999.45 150.194 Q2002.39 147.972 2008.2 147.972 L2014.17 147.972 L2014.17 147.555 Q2014.17 144.615 2012.23 143.018 Q2010.31 141.398 2006.81 141.398 Q2004.59 141.398 2002.48 141.93 Q2000.37 142.463 1998.43 143.527 L1998.43 139.592 Q2000.77 138.69 2002.97 138.25 Q2005.17 137.787 2007.25 137.787 Q2012.87 137.787 2015.65 140.703 Q2018.43 143.62 2018.43 149.546 Z" fill="#000000" fill-rule="nonzero" fill-opacity="1" /><path clip-path="url(#clip910)" d="M2027.2 138.412 L2031.46 138.412 L2031.46 164.338 L2027.2 164.338 L2027.2 138.412 M2027.2 128.319 L2031.46 128.319 L2031.46 133.713 L2027.2 133.713 L2027.2 128.319 Z" fill="#000000" fill-rule="nonzero" fill-opacity="1" /><path clip-path="url(#clip910)" d="M2061.93 148.689 L2061.93 164.338 L2057.67 164.338 L2057.67 148.828 Q2057.67 145.148 2056.23 143.319 Q2054.8 141.49 2051.93 141.49 Q2048.48 141.49 2046.49 143.69 Q2044.49 145.889 2044.49 149.685 L2044.49 164.338 L2040.21 164.338 L2040.21 138.412 L2044.49 138.412 L2044.49 142.44 Q2046.02 140.102 2048.08 138.944 Q2050.17 137.787 2052.87 137.787 Q2057.34 137.787 2059.63 140.565 Q2061.93 143.319 2061.93 148.689 Z" fill="#000000" fill-rule="nonzero" fill-opacity="1" /><path clip-path="url(#clip910)" d="M2070.42 138.412 L2074.68 138.412 L2074.68 164.338 L2070.42 164.338 L2070.42 138.412 M2070.42 128.319 L2074.68 128.319 L2074.68 133.713 L2070.42 133.713 L2070.42 128.319 Z" fill="#000000" fill-rule="nonzero" fill-opacity="1" /><path clip-path="url(#clip910)" d="M2105.14 148.689 L2105.14 164.338 L2100.88 164.338 L2100.88 148.828 Q2100.88 145.148 2099.45 143.319 Q2098.01 141.49 2095.14 141.49 Q2091.69 141.49 2089.7 143.69 Q2087.71 145.889 2087.71 149.685 L2087.71 164.338 L2083.43 164.338 L2083.43 138.412 L2087.71 138.412 L2087.71 142.44 Q2089.24 140.102 2091.3 138.944 Q2093.38 137.787 2096.09 137.787 Q2100.56 137.787 2102.85 140.565 Q2105.14 143.319 2105.14 148.689 Z" fill="#000000" fill-rule="nonzero" fill-opacity="1" /><path clip-path="url(#clip910)" d="M2130.7 151.074 Q2130.7 146.444 2128.78 143.898 Q2126.88 141.352 2123.43 141.352 Q2120 141.352 2118.08 143.898 Q2116.18 146.444 2116.18 151.074 Q2116.18 155.68 2118.08 158.226 Q2120 160.773 2123.43 160.773 Q2126.88 160.773 2128.78 158.226 Q2130.7 155.68 2130.7 151.074 M2134.96 161.12 Q2134.96 167.74 2132.02 170.958 Q2129.08 174.199 2123.01 174.199 Q2120.77 174.199 2118.78 173.851 Q2116.79 173.527 2114.91 172.833 L2114.91 168.689 Q2116.79 169.708 2118.61 170.194 Q2120.44 170.68 2122.34 170.68 Q2126.53 170.68 2128.61 168.481 Q2130.7 166.305 2130.7 161.884 L2130.7 159.777 Q2129.38 162.069 2127.32 163.203 Q2125.26 164.338 2122.39 164.338 Q2117.62 164.338 2114.7 160.703 Q2111.79 157.069 2111.79 151.074 Q2111.79 145.055 2114.7 141.421 Q2117.62 137.787 2122.39 137.787 Q2125.26 137.787 2127.32 138.921 Q2129.38 140.055 2130.7 142.347 L2130.7 138.412 L2134.96 138.412 L2134.96 161.12 Z" fill="#000000" fill-rule="nonzero" fill-opacity="1" /><path clip-path="url(#clip910)" d="M2175.86 142.347 L2175.86 128.319 L2180.12 128.319 L2180.12 164.338 L2175.86 164.338 L2175.86 160.449 Q2174.52 162.763 2172.46 163.898 Q2170.42 165.009 2167.55 165.009 Q2162.85 165.009 2159.89 161.259 Q2156.95 157.509 2156.95 151.398 Q2156.95 145.287 2159.89 141.537 Q2162.85 137.787 2167.55 137.787 Q2170.42 137.787 2172.46 138.921 Q2174.52 140.032 2175.86 142.347 M2161.35 151.398 Q2161.35 156.097 2163.27 158.782 Q2165.21 161.444 2168.59 161.444 Q2171.97 161.444 2173.92 158.782 Q2175.86 156.097 2175.86 151.398 Q2175.86 146.699 2173.92 144.037 Q2171.97 141.352 2168.59 141.352 Q2165.21 141.352 2163.27 144.037 Q2161.35 146.699 2161.35 151.398 Z" fill="#000000" fill-rule="nonzero" fill-opacity="1" /><path clip-path="url(#clip910)" d="M2200.67 151.305 Q2195.51 151.305 2193.52 152.486 Q2191.53 153.666 2191.53 156.514 Q2191.53 158.782 2193.01 160.125 Q2194.52 161.444 2197.09 161.444 Q2200.63 161.444 2202.76 158.944 Q2204.91 156.421 2204.91 152.254 L2204.91 151.305 L2200.67 151.305 M2209.17 149.546 L2209.17 164.338 L2204.91 164.338 L2204.91 160.402 Q2203.45 162.763 2201.28 163.898 Q2199.1 165.009 2195.95 165.009 Q2191.97 165.009 2189.61 162.787 Q2187.27 160.541 2187.27 156.791 Q2187.27 152.416 2190.19 150.194 Q2193.13 147.972 2198.94 147.972 L2204.91 147.972 L2204.91 147.555 Q2204.91 144.615 2202.97 143.018 Q2201.04 141.398 2197.55 141.398 Q2195.33 141.398 2193.22 141.93 Q2191.11 142.463 2189.17 143.527 L2189.17 139.592 Q2191.51 138.69 2193.71 138.25 Q2195.91 137.787 2197.99 137.787 Q2203.61 137.787 2206.39 140.703 Q2209.17 143.62 2209.17 149.546 Z" fill="#000000" fill-rule="nonzero" fill-opacity="1" /><path clip-path="url(#clip910)" d="M2222.16 131.051 L2222.16 138.412 L2230.93 138.412 L2230.93 141.722 L2222.16 141.722 L2222.16 155.796 Q2222.16 158.967 2223.01 159.87 Q2223.89 160.773 2226.55 160.773 L2230.93 160.773 L2230.93 164.338 L2226.55 164.338 Q2221.62 164.338 2219.75 162.509 Q2217.87 160.657 2217.87 155.796 L2217.87 141.722 L2214.75 141.722 L2214.75 138.412 L2217.87 138.412 L2217.87 131.051 L2222.16 131.051 Z" fill="#000000" fill-rule="nonzero" fill-opacity="1" /><path clip-path="url(#clip910)" d="M2248.31 151.305 Q2243.15 151.305 2241.16 152.486 Q2239.17 153.666 2239.17 156.514 Q2239.17 158.782 2240.65 160.125 Q2242.16 161.444 2244.73 161.444 Q2248.27 161.444 2250.4 158.944 Q2252.55 156.421 2252.55 152.254 L2252.55 151.305 L2248.31 151.305 M2256.81 149.546 L2256.81 164.338 L2252.55 164.338 L2252.55 160.402 Q2251.09 162.763 2248.91 163.898 Q2246.74 165.009 2243.59 165.009 Q2239.61 165.009 2237.25 162.787 Q2234.91 160.541 2234.91 156.791 Q2234.91 152.416 2237.83 150.194 Q2240.77 147.972 2246.58 147.972 L2252.55 147.972 L2252.55 147.555 Q2252.55 144.615 2250.6 143.018 Q2248.68 141.398 2245.19 141.398 Q2242.97 141.398 2240.86 141.93 Q2238.75 142.463 2236.81 143.527 L2236.81 139.592 Q2239.15 138.69 2241.35 138.25 Q2243.54 137.787 2245.63 137.787 Q2251.25 137.787 2254.03 140.703 Q2256.81 143.62 2256.81 149.546 Z" fill="#000000" fill-rule="nonzero" fill-opacity="1" /><polyline clip-path="url(#clip910)" style="stroke:#e26f46; stroke-linecap:round; stroke-linejoin:round; stroke-width:4; stroke-opacity:1; fill:none" points="1788.97,198.898 1932.89,198.898 "/>
<path clip-path="url(#clip910)" d="M1956.88 181.618 L1961.56 181.618 L1961.56 212.242 L1978.38 212.242 L1978.38 216.178 L1956.88 216.178 L1956.88 181.618 Z" fill="#000000" fill-rule="nonzero" fill-opacity="1" /><path clip-path="url(#clip910)" d="M1995.93 186.224 L1989.59 203.423 L2002.3 203.423 L1995.93 186.224 M1993.29 181.618 L1998.59 181.618 L2011.76 216.178 L2006.9 216.178 L2003.75 207.312 L1988.18 207.312 L1985.03 216.178 L1980.1 216.178 L1993.29 181.618 Z" fill="#000000" fill-rule="nonzero" fill-opacity="1" /><path clip-path="url(#clip910)" d="M2052.6 182.752 L2052.6 187.312 Q2049.93 186.039 2047.57 185.414 Q2045.21 184.789 2043.01 184.789 Q2039.19 184.789 2037.11 186.27 Q2035.05 187.752 2035.05 190.483 Q2035.05 192.775 2036.42 193.955 Q2037.8 195.113 2041.65 195.83 L2044.47 196.409 Q2049.7 197.405 2052.18 199.928 Q2054.68 202.428 2054.68 206.641 Q2054.68 211.664 2051.3 214.256 Q2047.94 216.849 2041.44 216.849 Q2038.99 216.849 2036.21 216.293 Q2033.45 215.738 2030.49 214.65 L2030.49 209.835 Q2033.34 211.432 2036.07 212.242 Q2038.8 213.053 2041.44 213.053 Q2045.44 213.053 2047.62 211.479 Q2049.8 209.904 2049.8 206.988 Q2049.8 204.442 2048.22 203.006 Q2046.67 201.571 2043.11 200.854 L2040.26 200.298 Q2035.03 199.256 2032.69 197.034 Q2030.35 194.812 2030.35 190.854 Q2030.35 186.27 2033.57 183.631 Q2036.81 180.993 2042.48 180.993 Q2044.91 180.993 2047.43 181.432 Q2049.96 181.872 2052.6 182.752 Z" fill="#000000" fill-rule="nonzero" fill-opacity="1" /><path clip-path="url(#clip910)" d="M2072.57 218.585 Q2070.77 223.215 2069.05 224.627 Q2067.34 226.039 2064.47 226.039 L2061.07 226.039 L2061.07 222.474 L2063.57 222.474 Q2065.33 222.474 2066.3 221.64 Q2067.27 220.807 2068.45 217.705 L2069.22 215.761 L2058.73 190.252 L2063.24 190.252 L2071.35 210.529 L2079.45 190.252 L2083.96 190.252 L2072.57 218.585 Z" fill="#000000" fill-rule="nonzero" fill-opacity="1" /><path clip-path="url(#clip910)" d="M2110.03 195.229 Q2111.62 192.358 2113.85 190.993 Q2116.07 189.627 2119.08 189.627 Q2123.13 189.627 2125.33 192.474 Q2127.53 195.298 2127.53 200.529 L2127.53 216.178 L2123.24 216.178 L2123.24 200.668 Q2123.24 196.942 2121.92 195.136 Q2120.61 193.33 2117.9 193.33 Q2114.59 193.33 2112.67 195.53 Q2110.74 197.729 2110.74 201.525 L2110.74 216.178 L2106.46 216.178 L2106.46 200.668 Q2106.46 196.918 2105.14 195.136 Q2103.82 193.33 2101.07 193.33 Q2097.8 193.33 2095.88 195.553 Q2093.96 197.752 2093.96 201.525 L2093.96 216.178 L2089.68 216.178 L2089.68 190.252 L2093.96 190.252 L2093.96 194.28 Q2095.42 191.895 2097.46 190.761 Q2099.49 189.627 2102.3 189.627 Q2105.12 189.627 2107.09 191.062 Q2109.08 192.497 2110.03 195.229 Z" fill="#000000" fill-rule="nonzero" fill-opacity="1" /><path clip-path="url(#clip910)" d="M2140.14 212.289 L2140.14 226.039 L2135.86 226.039 L2135.86 190.252 L2140.14 190.252 L2140.14 194.187 Q2141.48 191.872 2143.52 190.761 Q2145.58 189.627 2148.43 189.627 Q2153.15 189.627 2156.09 193.377 Q2159.05 197.127 2159.05 203.238 Q2159.05 209.349 2156.09 213.099 Q2153.15 216.849 2148.43 216.849 Q2145.58 216.849 2143.52 215.738 Q2141.48 214.603 2140.14 212.289 M2154.63 203.238 Q2154.63 198.539 2152.69 195.877 Q2150.77 193.192 2147.39 193.192 Q2144.01 193.192 2142.06 195.877 Q2140.14 198.539 2140.14 203.238 Q2140.14 207.937 2142.06 210.622 Q2144.01 213.284 2147.39 213.284 Q2150.77 213.284 2152.69 210.622 Q2154.63 207.937 2154.63 203.238 Z" fill="#000000" fill-rule="nonzero" fill-opacity="1" /><path clip-path="url(#clip910)" d="M2187.67 200.529 L2187.67 216.178 L2183.41 216.178 L2183.41 200.668 Q2183.41 196.988 2181.97 195.159 Q2180.54 193.33 2177.67 193.33 Q2174.22 193.33 2172.23 195.53 Q2170.23 197.729 2170.23 201.525 L2170.23 216.178 L2165.95 216.178 L2165.95 190.252 L2170.23 190.252 L2170.23 194.28 Q2171.76 191.942 2173.82 190.784 Q2175.91 189.627 2178.61 189.627 Q2183.08 189.627 2185.37 192.405 Q2187.67 195.159 2187.67 200.529 Z" fill="#000000" fill-rule="nonzero" fill-opacity="1" /><path clip-path="url(#clip910)" d="M2218.34 202.15 L2218.34 204.233 L2198.75 204.233 Q2199.03 208.631 2201.39 210.946 Q2203.78 213.238 2208.01 213.238 Q2210.47 213.238 2212.76 212.636 Q2215.07 212.034 2217.34 210.83 L2217.34 214.858 Q2215.05 215.83 2212.64 216.34 Q2210.23 216.849 2207.76 216.849 Q2201.55 216.849 2197.92 213.238 Q2194.31 209.627 2194.31 203.469 Q2194.31 197.104 2197.73 193.377 Q2201.18 189.627 2207.02 189.627 Q2212.25 189.627 2215.28 193.006 Q2218.34 196.363 2218.34 202.15 M2214.08 200.9 Q2214.03 197.405 2212.11 195.321 Q2210.21 193.238 2207.06 193.238 Q2203.5 193.238 2201.35 195.252 Q2199.22 197.266 2198.89 200.923 L2214.08 200.9 Z" fill="#000000" fill-rule="nonzero" fill-opacity="1" /><path clip-path="url(#clip910)" d="M2229.54 182.891 L2229.54 190.252 L2238.31 190.252 L2238.31 193.562 L2229.54 193.562 L2229.54 207.636 Q2229.54 210.807 2230.4 211.71 Q2231.28 212.613 2233.94 212.613 L2238.31 212.613 L2238.31 216.178 L2233.94 216.178 Q2229.01 216.178 2227.13 214.349 Q2225.26 212.497 2225.26 207.636 L2225.26 193.562 L2222.13 193.562 L2222.13 190.252 L2225.26 190.252 L2225.26 182.891 L2229.54 182.891 Z" fill="#000000" fill-rule="nonzero" fill-opacity="1" /><polyline clip-path="url(#clip910)" style="stroke:#3da44d; stroke-linecap:round; stroke-linejoin:round; stroke-width:4; stroke-opacity:1; fill:none" points="1788.97,250.738 1932.89,250.738 "/>
<path clip-path="url(#clip910)" d="M1982.43 263.087 L1982.43 253.805 L1974.8 253.805 L1974.8 249.962 L1987.06 249.962 L1987.06 264.8 Q1984.36 266.721 1981.09 267.717 Q1977.83 268.689 1974.12 268.689 Q1966.02 268.689 1961.44 263.967 Q1956.88 259.221 1956.88 250.772 Q1956.88 242.3 1961.44 237.578 Q1966.02 232.833 1974.12 232.833 Q1977.5 232.833 1980.54 233.666 Q1983.59 234.499 1986.16 236.12 L1986.16 241.096 Q1983.57 238.897 1980.65 237.786 Q1977.74 236.675 1974.52 236.675 Q1968.18 236.675 1964.98 240.217 Q1961.81 243.758 1961.81 250.772 Q1961.81 257.763 1964.98 261.305 Q1968.18 264.846 1974.52 264.846 Q1977 264.846 1978.94 264.43 Q1980.88 263.99 1982.43 263.087 Z" fill="#000000" fill-rule="nonzero" fill-opacity="1" /><path clip-path="url(#clip910)" d="M2031.39 234.592 L2031.39 239.152 Q2028.73 237.879 2026.37 237.254 Q2024.01 236.629 2021.81 236.629 Q2017.99 236.629 2015.91 238.11 Q2013.85 239.592 2013.85 242.323 Q2013.85 244.615 2015.21 245.795 Q2016.6 246.953 2020.44 247.67 L2023.27 248.249 Q2028.5 249.245 2030.98 251.768 Q2033.48 254.268 2033.48 258.481 Q2033.48 263.504 2030.1 266.096 Q2026.74 268.689 2020.24 268.689 Q2017.78 268.689 2015 268.133 Q2012.25 267.578 2009.29 266.49 L2009.29 261.675 Q2012.13 263.272 2014.87 264.082 Q2017.6 264.893 2020.24 264.893 Q2024.24 264.893 2026.42 263.319 Q2028.59 261.744 2028.59 258.828 Q2028.59 256.282 2027.02 254.846 Q2025.47 253.411 2021.9 252.694 L2019.05 252.138 Q2013.82 251.096 2011.49 248.874 Q2009.15 246.652 2009.15 242.694 Q2009.15 238.11 2012.37 235.471 Q2015.61 232.833 2021.28 232.833 Q2023.71 232.833 2026.23 233.272 Q2028.75 233.712 2031.39 234.592 Z" fill="#000000" fill-rule="nonzero" fill-opacity="1" /><path clip-path="url(#clip910)" d="M2051.37 270.425 Q2049.56 275.055 2047.85 276.467 Q2046.14 277.879 2043.27 277.879 L2039.87 277.879 L2039.87 274.314 L2042.37 274.314 Q2044.12 274.314 2045.1 273.48 Q2046.07 272.647 2047.25 269.545 L2048.01 267.601 L2037.53 242.092 L2042.04 242.092 L2050.14 262.369 L2058.24 242.092 L2062.76 242.092 L2051.37 270.425 Z" fill="#000000" fill-rule="nonzero" fill-opacity="1" /><path clip-path="url(#clip910)" d="M2088.82 247.069 Q2090.42 244.198 2092.64 242.833 Q2094.86 241.467 2097.87 241.467 Q2101.92 241.467 2104.12 244.314 Q2106.32 247.138 2106.32 252.369 L2106.32 268.018 L2102.04 268.018 L2102.04 252.508 Q2102.04 248.782 2100.72 246.976 Q2099.4 245.17 2096.69 245.17 Q2093.38 245.17 2091.46 247.37 Q2089.54 249.569 2089.54 253.365 L2089.54 268.018 L2085.26 268.018 L2085.26 252.508 Q2085.26 248.758 2083.94 246.976 Q2082.62 245.17 2079.86 245.17 Q2076.6 245.17 2074.68 247.393 Q2072.76 249.592 2072.76 253.365 L2072.76 268.018 L2068.48 268.018 L2068.48 242.092 L2072.76 242.092 L2072.76 246.12 Q2074.22 243.735 2076.25 242.601 Q2078.29 241.467 2081.09 241.467 Q2083.92 241.467 2085.88 242.902 Q2087.87 244.337 2088.82 247.069 Z" fill="#000000" fill-rule="nonzero" fill-opacity="1" /><path clip-path="url(#clip910)" d="M2118.94 264.129 L2118.94 277.879 L2114.66 277.879 L2114.66 242.092 L2118.94 242.092 L2118.94 246.027 Q2120.28 243.712 2122.32 242.601 Q2124.38 241.467 2127.23 241.467 Q2131.95 241.467 2134.89 245.217 Q2137.85 248.967 2137.85 255.078 Q2137.85 261.189 2134.89 264.939 Q2131.95 268.689 2127.23 268.689 Q2124.38 268.689 2122.32 267.578 Q2120.28 266.443 2118.94 264.129 M2133.43 255.078 Q2133.43 250.379 2131.48 247.717 Q2129.56 245.032 2126.18 245.032 Q2122.8 245.032 2120.86 247.717 Q2118.94 250.379 2118.94 255.078 Q2118.94 259.777 2120.86 262.462 Q2122.8 265.124 2126.18 265.124 Q2129.56 265.124 2131.48 262.462 Q2133.43 259.777 2133.43 255.078 Z" fill="#000000" fill-rule="nonzero" fill-opacity="1" /><path clip-path="url(#clip910)" d="M2166.46 252.369 L2166.46 268.018 L2162.2 268.018 L2162.2 252.508 Q2162.2 248.828 2160.77 246.999 Q2159.33 245.17 2156.46 245.17 Q2153.01 245.17 2151.02 247.37 Q2149.03 249.569 2149.03 253.365 L2149.03 268.018 L2144.75 268.018 L2144.75 242.092 L2149.03 242.092 L2149.03 246.12 Q2150.56 243.782 2152.62 242.624 Q2154.7 241.467 2157.41 241.467 Q2161.88 241.467 2164.17 244.245 Q2166.46 246.999 2166.46 252.369 Z" fill="#000000" fill-rule="nonzero" fill-opacity="1" /><path clip-path="url(#clip910)" d="M2197.13 253.99 L2197.13 256.073 L2177.55 256.073 Q2177.83 260.471 2180.19 262.786 Q2182.57 265.078 2186.81 265.078 Q2189.26 265.078 2191.55 264.476 Q2193.87 263.874 2196.14 262.67 L2196.14 266.698 Q2193.85 267.67 2191.44 268.18 Q2189.03 268.689 2186.55 268.689 Q2180.35 268.689 2176.72 265.078 Q2173.11 261.467 2173.11 255.309 Q2173.11 248.944 2176.53 245.217 Q2179.98 241.467 2185.81 241.467 Q2191.04 241.467 2194.08 244.846 Q2197.13 248.203 2197.13 253.99 M2192.87 252.74 Q2192.83 249.245 2190.91 247.161 Q2189.01 245.078 2185.86 245.078 Q2182.29 245.078 2180.14 247.092 Q2178.01 249.106 2177.69 252.763 L2192.87 252.74 Z" fill="#000000" fill-rule="nonzero" fill-opacity="1" /><path clip-path="url(#clip910)" d="M2208.34 234.731 L2208.34 242.092 L2217.11 242.092 L2217.11 245.402 L2208.34 245.402 L2208.34 259.476 Q2208.34 262.647 2209.19 263.55 Q2210.07 264.453 2212.73 264.453 L2217.11 264.453 L2217.11 268.018 L2212.73 268.018 Q2207.8 268.018 2205.93 266.189 Q2204.05 264.337 2204.05 259.476 L2204.05 245.402 L2200.93 245.402 L2200.93 242.092 L2204.05 242.092 L2204.05 234.731 L2208.34 234.731 Z" fill="#000000" fill-rule="nonzero" fill-opacity="1" /></svg>
