<?xml version="1.0" encoding="utf-8"?>
<svg xmlns="http://www.w3.org/2000/svg" xmlns:xlink="http://www.w3.org/1999/xlink" width="600" height="400" viewBox="0 0 2400 1600">
<defs>
  <clipPath id="clip910">
    <rect x="0" y="0" width="2400" height="1600"/>
  </clipPath>
</defs>
<path clip-path="url(#clip910)" d="M0 1600 L2400 1600 L2400 0 L0 0  Z" fill="#ffffff" fill-rule="evenodd" fill-opacity="1"/>
<defs>
  <clipPath id="clip911">
    <rect x="480" y="0" width="1681" height="1600"/>
  </clipPath>
</defs>
<path clip-path="url(#clip910)" d="M251.071 1423.18 L2352.76 1423.18 L2352.76 47.2441 L251.071 47.2441  Z" fill="#ffffff" fill-rule="evenodd" fill-opacity="1"/>
<defs>
  <clipPath id="clip912">
    <rect x="251" y="47" width="2103" height="1377"/>
  </clipPath>
</defs>
<polyline clip-path="url(#clip912)" style="stroke:#000000; stroke-linecap:round; stroke-linejoin:round; stroke-width:2; stroke-opacity:0.1; fill:none" points="306.58,1423.18 306.58,47.2441 "/>
<polyline clip-path="url(#clip912)" style="stroke:#000000; stroke-linecap:round; stroke-linejoin:round; stroke-width:2; stroke-opacity:0.1; fill:none" points="703.918,1423.18 703.918,47.2441 "/>
<polyline clip-path="url(#clip912)" style="stroke:#000000; stroke-linecap:round; stroke-linejoin:round; stroke-width:2; stroke-opacity:0.1; fill:none" points="1101.26,1423.18 1101.26,47.2441 "/>
<polyline clip-path="url(#clip912)" style="stroke:#000000; stroke-linecap:round; stroke-linejoin:round; stroke-width:2; stroke-opacity:0.1; fill:none" points="1498.6,1423.18 1498.6,47.2441 "/>
<polyline clip-path="url(#clip912)" style="stroke:#000000; stroke-linecap:round; stroke-linejoin:round; stroke-width:2; stroke-opacity:0.1; fill:none" points="1895.94,1423.18 1895.94,47.2441 "/>
<polyline clip-path="url(#clip912)" style="stroke:#000000; stroke-linecap:round; stroke-linejoin:round; stroke-width:2; stroke-opacity:0.1; fill:none" points="2293.27,1423.18 2293.27,47.2441 "/>
<polyline clip-path="url(#clip910)" style="stroke:#000000; stroke-linecap:round; stroke-linejoin:round; stroke-width:4; stroke-opacity:1; fill:none" points="251.071,1423.18 2352.76,1423.18 "/>
<polyline clip-path="url(#clip910)" style="stroke:#000000; stroke-linecap:round; stroke-linejoin:round; stroke-width:4; stroke-opacity:1; fill:none" points="306.58,1423.18 306.58,1404.28 "/>
<polyline clip-path="url(#clip910)" style="stroke:#000000; stroke-linecap:round; stroke-linejoin:round; stroke-width:4; stroke-opacity:1; fill:none" points="703.918,1423.18 703.918,1404.28 "/>
<polyline clip-path="url(#clip910)" style="stroke:#000000; stroke-linecap:round; stroke-linejoin:round; stroke-width:4; stroke-opacity:1; fill:none" points="1101.26,1423.18 1101.26,1404.28 "/>
<polyline clip-path="url(#clip910)" style="stroke:#000000; stroke-linecap:round; stroke-linejoin:round; stroke-width:4; stroke-opacity:1; fill:none" points="1498.6,1423.18 1498.6,1404.28 "/>
<polyline clip-path="url(#clip910)" style="stroke:#000000; stroke-linecap:round; stroke-linejoin:round; stroke-width:4; stroke-opacity:1; fill:none" points="1895.94,1423.18 1895.94,1404.28 "/>
<polyline clip-path="url(#clip910)" style="stroke:#000000; stroke-linecap:round; stroke-linejoin:round; stroke-width:4; stroke-opacity:1; fill:none" points="2293.27,1423.18 2293.27,1404.28 "/>
<path clip-path="url(#clip910)" d="M306.58 1454.1 Q302.968 1454.1 301.14 1457.66 Q299.334 1461.2 299.334 1468.33 Q299.334 1475.44 301.14 1479.01 Q302.968 1482.55 306.58 1482.55 Q310.214 1482.55 312.019 1479.01 Q313.848 1475.44 313.848 1468.33 Q313.848 1461.2 312.019 1457.66 Q310.214 1454.1 306.58 1454.1 M306.58 1450.39 Q312.39 1450.39 315.445 1455 Q318.524 1459.58 318.524 1468.33 Q318.524 1477.06 315.445 1481.67 Q312.39 1486.25 306.58 1486.25 Q300.769 1486.25 297.691 1481.67 Q294.635 1477.06 294.635 1468.33 Q294.635 1459.58 297.691 1455 Q300.769 1450.39 306.58 1450.39 Z" fill="#000000" fill-rule="nonzero" fill-opacity="1" /><path clip-path="url(#clip910)" d="M663.525 1481.64 L671.164 1481.64 L671.164 1455.28 L662.854 1456.95 L662.854 1452.69 L671.118 1451.02 L675.794 1451.02 L675.794 1481.64 L683.432 1481.64 L683.432 1485.58 L663.525 1485.58 L663.525 1481.64 Z" fill="#000000" fill-rule="nonzero" fill-opacity="1" /><path clip-path="url(#clip910)" d="M702.877 1454.1 Q699.266 1454.1 697.437 1457.66 Q695.631 1461.2 695.631 1468.33 Q695.631 1475.44 697.437 1479.01 Q699.266 1482.55 702.877 1482.55 Q706.511 1482.55 708.317 1479.01 Q710.145 1475.44 710.145 1468.33 Q710.145 1461.2 708.317 1457.66 Q706.511 1454.1 702.877 1454.1 M702.877 1450.39 Q708.687 1450.39 711.742 1455 Q714.821 1459.58 714.821 1468.33 Q714.821 1477.06 711.742 1481.67 Q708.687 1486.25 702.877 1486.25 Q697.067 1486.25 693.988 1481.67 Q690.932 1477.06 690.932 1468.33 Q690.932 1459.58 693.988 1455 Q697.067 1450.39 702.877 1450.39 Z" fill="#000000" fill-rule="nonzero" fill-opacity="1" /><path clip-path="url(#clip910)" d="M733.039 1454.1 Q729.428 1454.1 727.599 1457.66 Q725.793 1461.2 725.793 1468.33 Q725.793 1475.44 727.599 1479.01 Q729.428 1482.55 733.039 1482.55 Q736.673 1482.55 738.478 1479.01 Q740.307 1475.44 740.307 1468.33 Q740.307 1461.2 738.478 1457.66 Q736.673 1454.1 733.039 1454.1 M733.039 1450.39 Q738.849 1450.39 741.904 1455 Q744.983 1459.58 744.983 1468.33 Q744.983 1477.06 741.904 1481.67 Q738.849 1486.25 733.039 1486.25 Q727.229 1486.25 724.15 1481.67 Q721.094 1477.06 721.094 1468.33 Q721.094 1459.58 724.15 1455 Q727.229 1450.39 733.039 1450.39 Z" fill="#000000" fill-rule="nonzero" fill-opacity="1" /><path clip-path="url(#clip910)" d="M1064.95 1481.64 L1081.27 1481.64 L1081.27 1485.58 L1059.32 1485.58 L1059.32 1481.64 Q1061.99 1478.89 1066.57 1474.26 Q1071.18 1469.61 1072.36 1468.27 Q1074.6 1465.74 1075.48 1464.01 Q1076.38 1462.25 1076.38 1460.56 Q1076.38 1457.8 1074.44 1456.07 Q1072.52 1454.33 1069.42 1454.33 Q1067.22 1454.33 1064.76 1455.09 Q1062.33 1455.86 1059.56 1457.41 L1059.56 1452.69 Q1062.38 1451.55 1064.83 1450.97 Q1067.29 1450.39 1069.32 1450.39 Q1074.7 1450.39 1077.89 1453.08 Q1081.08 1455.77 1081.08 1460.26 Q1081.08 1462.39 1080.27 1464.31 Q1079.49 1466.2 1077.38 1468.8 Q1076.8 1469.47 1073.7 1472.69 Q1070.6 1475.88 1064.95 1481.64 Z" fill="#000000" fill-rule="nonzero" fill-opacity="1" /><path clip-path="url(#clip910)" d="M1101.08 1454.1 Q1097.47 1454.1 1095.64 1457.66 Q1093.84 1461.2 1093.84 1468.33 Q1093.84 1475.44 1095.64 1479.01 Q1097.47 1482.55 1101.08 1482.55 Q1104.72 1482.55 1106.52 1479.01 Q1108.35 1475.44 1108.35 1468.33 Q1108.35 1461.2 1106.52 1457.66 Q1104.72 1454.1 1101.08 1454.1 M1101.08 1450.39 Q1106.89 1450.39 1109.95 1455 Q1113.03 1459.58 1113.03 1468.33 Q1113.03 1477.06 1109.95 1481.67 Q1106.89 1486.25 1101.08 1486.25 Q1095.27 1486.25 1092.19 1481.67 Q1089.14 1477.06 1089.14 1468.33 Q1089.14 1459.58 1092.19 1455 Q1095.27 1450.39 1101.08 1450.39 Z" fill="#000000" fill-rule="nonzero" fill-opacity="1" /><path clip-path="url(#clip910)" d="M1131.25 1454.1 Q1127.63 1454.1 1125.81 1457.66 Q1124 1461.2 1124 1468.33 Q1124 1475.44 1125.81 1479.01 Q1127.63 1482.55 1131.25 1482.55 Q1134.88 1482.55 1136.69 1479.01 Q1138.51 1475.44 1138.51 1468.33 Q1138.51 1461.2 1136.69 1457.66 Q1134.88 1454.1 1131.25 1454.1 M1131.25 1450.39 Q1137.06 1450.39 1140.11 1455 Q1143.19 1459.58 1143.19 1468.33 Q1143.19 1477.06 1140.11 1481.67 Q1137.06 1486.25 1131.25 1486.25 Q1125.44 1486.25 1122.36 1481.67 Q1119.3 1477.06 1119.3 1468.33 Q1119.3 1459.58 1122.36 1455 Q1125.44 1450.39 1131.25 1450.39 Z" fill="#000000" fill-rule="nonzero" fill-opacity="1" /><path clip-path="url(#clip910)" d="M1472.36 1466.95 Q1475.71 1467.66 1477.59 1469.93 Q1479.49 1472.2 1479.49 1475.53 Q1479.49 1480.65 1475.97 1483.45 Q1472.45 1486.25 1465.97 1486.25 Q1463.79 1486.25 1461.48 1485.81 Q1459.19 1485.39 1456.73 1484.54 L1456.73 1480.02 Q1458.68 1481.16 1460.99 1481.74 Q1463.31 1482.32 1465.83 1482.32 Q1470.23 1482.32 1472.52 1480.58 Q1474.83 1478.84 1474.83 1475.53 Q1474.83 1472.48 1472.68 1470.77 Q1470.55 1469.03 1466.73 1469.03 L1462.71 1469.03 L1462.71 1465.19 L1466.92 1465.19 Q1470.37 1465.19 1472.2 1463.82 Q1474.02 1462.43 1474.02 1459.84 Q1474.02 1457.18 1472.13 1455.77 Q1470.25 1454.33 1466.73 1454.33 Q1464.81 1454.33 1462.61 1454.75 Q1460.41 1455.16 1457.77 1456.04 L1457.77 1451.88 Q1460.44 1451.14 1462.75 1450.77 Q1465.09 1450.39 1467.15 1450.39 Q1472.47 1450.39 1475.58 1452.83 Q1478.68 1455.23 1478.68 1459.35 Q1478.68 1462.22 1477.03 1464.21 Q1475.39 1466.18 1472.36 1466.95 Z" fill="#000000" fill-rule="nonzero" fill-opacity="1" /><path clip-path="url(#clip910)" d="M1498.35 1454.1 Q1494.74 1454.1 1492.91 1457.66 Q1491.11 1461.2 1491.11 1468.33 Q1491.11 1475.44 1492.91 1479.01 Q1494.74 1482.55 1498.35 1482.55 Q1501.99 1482.55 1503.79 1479.01 Q1505.62 1475.44 1505.62 1468.33 Q1505.62 1461.2 1503.79 1457.66 Q1501.99 1454.1 1498.35 1454.1 M1498.35 1450.39 Q1504.16 1450.39 1507.22 1455 Q1510.3 1459.58 1510.3 1468.33 Q1510.3 1477.06 1507.22 1481.67 Q1504.16 1486.25 1498.35 1486.25 Q1492.54 1486.25 1489.46 1481.67 Q1486.41 1477.06 1486.41 1468.33 Q1486.41 1459.58 1489.46 1455 Q1492.54 1450.39 1498.35 1450.39 Z" fill="#000000" fill-rule="nonzero" fill-opacity="1" /><path clip-path="url(#clip910)" d="M1528.52 1454.1 Q1524.9 1454.1 1523.08 1457.66 Q1521.27 1461.2 1521.27 1468.33 Q1521.27 1475.44 1523.08 1479.01 Q1524.9 1482.55 1528.52 1482.55 Q1532.15 1482.55 1533.95 1479.01 Q1535.78 1475.44 1535.78 1468.33 Q1535.78 1461.2 1533.95 1457.66 Q1532.15 1454.1 1528.52 1454.1 M1528.52 1450.39 Q1534.33 1450.39 1537.38 1455 Q1540.46 1459.58 1540.46 1468.33 Q1540.46 1477.06 1537.38 1481.67 Q1534.33 1486.25 1528.52 1486.25 Q1522.71 1486.25 1519.63 1481.67 Q1516.57 1477.06 1516.57 1468.33 Q1516.57 1459.58 1519.63 1455 Q1522.71 1450.39 1528.52 1450.39 Z" fill="#000000" fill-rule="nonzero" fill-opacity="1" /><path clip-path="url(#clip910)" d="M1869.03 1455.09 L1857.22 1473.54 L1869.03 1473.54 L1869.03 1455.09 M1867.8 1451.02 L1873.68 1451.02 L1873.68 1473.54 L1878.61 1473.54 L1878.61 1477.43 L1873.68 1477.43 L1873.68 1485.58 L1869.03 1485.58 L1869.03 1477.43 L1853.42 1477.43 L1853.42 1472.92 L1867.8 1451.02 Z" fill="#000000" fill-rule="nonzero" fill-opacity="1" /><path clip-path="url(#clip910)" d="M1896.34 1454.1 Q1892.73 1454.1 1890.9 1457.66 Q1889.1 1461.2 1889.1 1468.33 Q1889.1 1475.44 1890.9 1479.01 Q1892.73 1482.55 1896.34 1482.55 Q1899.97 1482.55 1901.78 1479.01 Q1903.61 1475.44 1903.61 1468.33 Q1903.61 1461.2 1901.78 1457.66 Q1899.97 1454.1 1896.34 1454.1 M1896.34 1450.39 Q1902.15 1450.39 1905.21 1455 Q1908.28 1459.58 1908.28 1468.33 Q1908.28 1477.06 1905.21 1481.67 Q1902.15 1486.25 1896.34 1486.25 Q1890.53 1486.25 1887.45 1481.67 Q1884.4 1477.06 1884.4 1468.33 Q1884.4 1459.58 1887.45 1455 Q1890.53 1450.39 1896.34 1450.39 Z" fill="#000000" fill-rule="nonzero" fill-opacity="1" /><path clip-path="url(#clip910)" d="M1926.5 1454.1 Q1922.89 1454.1 1921.06 1457.66 Q1919.26 1461.2 1919.26 1468.33 Q1919.26 1475.44 1921.06 1479.01 Q1922.89 1482.55 1926.5 1482.55 Q1930.14 1482.55 1931.94 1479.01 Q1933.77 1475.44 1933.77 1468.33 Q1933.77 1461.2 1931.94 1457.66 Q1930.14 1454.1 1926.5 1454.1 M1926.5 1450.39 Q1932.31 1450.39 1935.37 1455 Q1938.45 1459.58 1938.45 1468.33 Q1938.45 1477.06 1935.37 1481.67 Q1932.31 1486.25 1926.5 1486.25 Q1920.69 1486.25 1917.61 1481.67 Q1914.56 1477.06 1914.56 1468.33 Q1914.56 1459.58 1917.61 1455 Q1920.69 1450.39 1926.5 1450.39 Z" fill="#000000" fill-rule="nonzero" fill-opacity="1" /><path clip-path="url(#clip910)" d="M2252.89 1451.02 L2271.25 1451.02 L2271.25 1454.96 L2257.17 1454.96 L2257.17 1463.43 Q2258.19 1463.08 2259.21 1462.92 Q2260.23 1462.73 2261.25 1462.73 Q2267.04 1462.73 2270.42 1465.9 Q2273.8 1469.08 2273.8 1474.49 Q2273.8 1480.07 2270.32 1483.17 Q2266.85 1486.25 2260.53 1486.25 Q2258.36 1486.25 2256.09 1485.88 Q2253.84 1485.51 2251.43 1484.77 L2251.43 1480.07 Q2253.52 1481.2 2255.74 1481.76 Q2257.96 1482.32 2260.44 1482.32 Q2264.44 1482.32 2266.78 1480.21 Q2269.12 1478.1 2269.12 1474.49 Q2269.12 1470.88 2266.78 1468.77 Q2264.44 1466.67 2260.44 1466.67 Q2258.56 1466.67 2256.69 1467.08 Q2254.84 1467.5 2252.89 1468.38 L2252.89 1451.02 Z" fill="#000000" fill-rule="nonzero" fill-opacity="1" /><path clip-path="url(#clip910)" d="M2293.01 1454.1 Q2289.4 1454.1 2287.57 1457.66 Q2285.76 1461.2 2285.76 1468.33 Q2285.76 1475.44 2287.57 1479.01 Q2289.4 1482.55 2293.01 1482.55 Q2296.64 1482.55 2298.45 1479.01 Q2300.28 1475.44 2300.28 1468.33 Q2300.28 1461.2 2298.45 1457.66 Q2296.64 1454.1 2293.01 1454.1 M2293.01 1450.39 Q2298.82 1450.39 2301.87 1455 Q2304.95 1459.58 2304.95 1468.33 Q2304.95 1477.06 2301.87 1481.67 Q2298.82 1486.25 2293.01 1486.25 Q2287.2 1486.25 2284.12 1481.67 Q2281.06 1477.06 2281.06 1468.33 Q2281.06 1459.58 2284.12 1455 Q2287.2 1450.39 2293.01 1450.39 Z" fill="#000000" fill-rule="nonzero" fill-opacity="1" /><path clip-path="url(#clip910)" d="M2323.17 1454.1 Q2319.56 1454.1 2317.73 1457.66 Q2315.92 1461.2 2315.92 1468.33 Q2315.92 1475.44 2317.73 1479.01 Q2319.56 1482.55 2323.17 1482.55 Q2326.8 1482.55 2328.61 1479.01 Q2330.44 1475.44 2330.44 1468.33 Q2330.44 1461.2 2328.61 1457.66 Q2326.8 1454.1 2323.17 1454.1 M2323.17 1450.39 Q2328.98 1450.39 2332.04 1455 Q2335.11 1459.58 2335.11 1468.33 Q2335.11 1477.06 2332.04 1481.67 Q2328.98 1486.25 2323.17 1486.25 Q2317.36 1486.25 2314.28 1481.67 Q2311.23 1477.06 2311.23 1468.33 Q2311.23 1459.58 2314.28 1455 Q2317.36 1450.39 2323.17 1450.39 Z" fill="#000000" fill-rule="nonzero" fill-opacity="1" /><path clip-path="url(#clip910)" d="M1208.08 1520.52 L1238.13 1520.52 L1238.13 1525.93 L1214.51 1525.93 L1214.51 1540 L1237.14 1540 L1237.14 1545.41 L1214.51 1545.41 L1214.51 1562.63 L1238.7 1562.63 L1238.7 1568.04 L1208.08 1568.04 L1208.08 1520.52 Z" fill="#000000" fill-rule="nonzero" fill-opacity="1" /><path clip-path="url(#clip910)" d="M1254.68 1562.7 L1254.68 1581.6 L1248.79 1581.6 L1248.79 1532.4 L1254.68 1532.4 L1254.68 1537.81 Q1256.53 1534.62 1259.33 1533.1 Q1262.16 1531.54 1266.07 1531.54 Q1272.57 1531.54 1276.61 1536.69 Q1280.68 1541.85 1280.68 1550.25 Q1280.68 1558.65 1276.61 1563.81 Q1272.57 1568.97 1266.07 1568.97 Q1262.16 1568.97 1259.33 1567.44 Q1256.53 1565.88 1254.68 1562.7 M1274.6 1550.25 Q1274.6 1543.79 1271.93 1540.13 Q1269.29 1536.44 1264.64 1536.44 Q1260 1536.44 1257.32 1540.13 Q1254.68 1543.79 1254.68 1550.25 Q1254.68 1556.71 1257.32 1560.4 Q1260 1564.07 1264.64 1564.07 Q1269.29 1564.07 1271.93 1560.4 Q1274.6 1556.71 1274.6 1550.25 Z" fill="#000000" fill-rule="nonzero" fill-opacity="1" /><path clip-path="url(#clip910)" d="M1304.21 1536.5 Q1299.49 1536.5 1296.76 1540.19 Q1294.02 1543.85 1294.02 1550.25 Q1294.02 1556.65 1296.73 1560.34 Q1299.46 1564 1304.21 1564 Q1308.88 1564 1311.62 1560.31 Q1314.36 1556.62 1314.36 1550.25 Q1314.36 1543.92 1311.62 1540.23 Q1308.88 1536.5 1304.21 1536.5 M1304.21 1531.54 Q1311.84 1531.54 1316.2 1536.5 Q1320.57 1541.47 1320.57 1550.25 Q1320.57 1559 1316.2 1564 Q1311.84 1568.97 1304.21 1568.97 Q1296.53 1568.97 1292.17 1564 Q1287.85 1559 1287.85 1550.25 Q1287.85 1541.47 1292.17 1536.5 Q1296.53 1531.54 1304.21 1531.54 Z" fill="#000000" fill-rule="nonzero" fill-opacity="1" /><path clip-path="url(#clip910)" d="M1355.93 1533.76 L1355.93 1539.24 Q1353.44 1537.87 1350.93 1537.2 Q1348.45 1536.5 1345.9 1536.5 Q1340.2 1536.5 1337.05 1540.13 Q1333.9 1543.73 1333.9 1550.25 Q1333.9 1556.78 1337.05 1560.4 Q1340.2 1564 1345.9 1564 Q1348.45 1564 1350.93 1563.33 Q1353.44 1562.63 1355.93 1561.26 L1355.93 1566.68 Q1353.48 1567.82 1350.83 1568.39 Q1348.22 1568.97 1345.26 1568.97 Q1337.21 1568.97 1332.47 1563.91 Q1327.73 1558.85 1327.73 1550.25 Q1327.73 1541.53 1332.5 1536.53 Q1337.31 1531.54 1345.65 1531.54 Q1348.35 1531.54 1350.93 1532.11 Q1353.51 1532.65 1355.93 1533.76 Z" fill="#000000" fill-rule="nonzero" fill-opacity="1" /><path clip-path="url(#clip910)" d="M1395.74 1546.53 L1395.74 1568.04 L1389.89 1568.04 L1389.89 1546.72 Q1389.89 1541.66 1387.91 1539.14 Q1385.94 1536.63 1381.99 1536.63 Q1377.25 1536.63 1374.51 1539.65 Q1371.78 1542.68 1371.78 1547.9 L1371.78 1568.04 L1365.89 1568.04 L1365.89 1518.52 L1371.78 1518.52 L1371.78 1537.93 Q1373.88 1534.72 1376.71 1533.13 Q1379.58 1531.54 1383.3 1531.54 Q1389.44 1531.54 1392.59 1535.36 Q1395.74 1539.14 1395.74 1546.53 Z" fill="#000000" fill-rule="nonzero" fill-opacity="1" /><polyline clip-path="url(#clip912)" style="stroke:#000000; stroke-linecap:round; stroke-linejoin:round; stroke-width:2; stroke-opacity:0.1; fill:none" points="251.071,1068.05 2352.76,1068.05 "/>
<polyline clip-path="url(#clip912)" style="stroke:#000000; stroke-linecap:round; stroke-linejoin:round; stroke-width:2; stroke-opacity:0.1; fill:none" points="251.071,521.235 2352.76,521.235 "/>
<polyline clip-path="url(#clip910)" style="stroke:#000000; stroke-linecap:round; stroke-linejoin:round; stroke-width:4; stroke-opacity:1; fill:none" points="251.071,1423.18 251.071,47.2441 "/>
<polyline clip-path="url(#clip910)" style="stroke:#000000; stroke-linecap:round; stroke-linejoin:round; stroke-width:4; stroke-opacity:1; fill:none" points="251.071,1068.05 269.969,1068.05 "/>
<polyline clip-path="url(#clip910)" style="stroke:#000000; stroke-linecap:round; stroke-linejoin:round; stroke-width:4; stroke-opacity:1; fill:none" points="251.071,521.235 269.969,521.235 "/>
<path clip-path="url(#clip910)" d="M114.931 1087.84 L122.57 1087.84 L122.57 1061.48 L114.26 1063.15 L114.26 1058.89 L122.524 1057.22 L127.2 1057.22 L127.2 1087.84 L134.839 1087.84 L134.839 1091.78 L114.931 1091.78 L114.931 1087.84 Z" fill="#000000" fill-rule="nonzero" fill-opacity="1" /><path clip-path="url(#clip910)" d="M154.283 1060.3 Q150.672 1060.3 148.843 1063.86 Q147.038 1067.4 147.038 1074.53 Q147.038 1081.64 148.843 1085.21 Q150.672 1088.75 154.283 1088.75 Q157.917 1088.75 159.723 1085.21 Q161.552 1081.64 161.552 1074.53 Q161.552 1067.4 159.723 1063.86 Q157.917 1060.3 154.283 1060.3 M154.283 1056.59 Q160.093 1056.59 163.149 1061.2 Q166.227 1065.78 166.227 1074.53 Q166.227 1083.26 163.149 1087.87 Q160.093 1092.45 154.283 1092.45 Q148.473 1092.45 145.394 1087.87 Q142.339 1083.26 142.339 1074.53 Q142.339 1065.78 145.394 1061.2 Q148.473 1056.59 154.283 1056.59 Z" fill="#000000" fill-rule="nonzero" fill-opacity="1" /><path clip-path="url(#clip910)" d="M166.227 1050.7 L190.339 1050.7 L190.339 1053.89 L166.227 1053.89 L166.227 1050.7 Z" fill="#000000" fill-rule="nonzero" fill-opacity="1" /><path clip-path="url(#clip910)" d="M201.812 1061.17 L215.071 1061.17 L215.071 1064.37 L197.241 1064.37 L197.241 1061.17 Q199.404 1058.93 203.128 1055.17 Q206.871 1051.39 207.83 1050.3 Q209.655 1048.25 210.369 1046.84 Q211.103 1045.41 211.103 1044.04 Q211.103 1041.8 209.523 1040.39 Q207.962 1038.98 205.442 1038.98 Q203.655 1038.98 201.661 1039.6 Q199.686 1040.22 197.43 1041.48 L197.43 1037.64 Q199.724 1036.72 201.718 1036.25 Q203.711 1035.78 205.366 1035.78 Q209.73 1035.78 212.325 1037.96 Q214.921 1040.14 214.921 1043.79 Q214.921 1045.52 214.263 1047.08 Q213.623 1048.63 211.912 1050.73 Q211.441 1051.28 208.921 1053.89 Q206.401 1056.49 201.812 1061.17 Z" fill="#000000" fill-rule="nonzero" fill-opacity="1" /><path clip-path="url(#clip910)" d="M144.366 541.027 L152.004 541.027 L152.004 514.661 L143.694 516.328 L143.694 512.069 L151.958 510.402 L156.634 510.402 L156.634 541.027 L164.273 541.027 L164.273 544.962 L144.366 544.962 L144.366 541.027 Z" fill="#000000" fill-rule="nonzero" fill-opacity="1" /><path clip-path="url(#clip910)" d="M183.717 513.481 Q180.106 513.481 178.277 517.046 Q176.472 520.587 176.472 527.717 Q176.472 534.823 178.277 538.388 Q180.106 541.93 183.717 541.93 Q187.351 541.93 189.157 538.388 Q190.986 534.823 190.986 527.717 Q190.986 520.587 189.157 517.046 Q187.351 513.481 183.717 513.481 M183.717 509.777 Q189.527 509.777 192.583 514.384 Q195.662 518.967 195.662 527.717 Q195.662 536.444 192.583 541.05 Q189.527 545.633 183.717 545.633 Q177.907 545.633 174.828 541.05 Q171.773 536.444 171.773 527.717 Q171.773 518.967 174.828 514.384 Q177.907 509.777 183.717 509.777 Z" fill="#000000" fill-rule="nonzero" fill-opacity="1" /><path clip-path="url(#clip910)" d="M205.366 491.973 Q202.432 491.973 200.947 494.87 Q199.48 497.747 199.48 503.54 Q199.48 509.314 200.947 512.21 Q202.432 515.088 205.366 515.088 Q208.319 515.088 209.786 512.21 Q211.272 509.314 211.272 503.54 Q211.272 497.747 209.786 494.87 Q208.319 491.973 205.366 491.973 M205.366 488.964 Q210.087 488.964 212.57 492.707 Q215.071 496.431 215.071 503.54 Q215.071 510.63 212.57 514.373 Q210.087 518.097 205.366 518.097 Q200.646 518.097 198.144 514.373 Q195.662 510.63 195.662 503.54 Q195.662 496.431 198.144 492.707 Q200.646 488.964 205.366 488.964 Z" fill="#000000" fill-rule="nonzero" fill-opacity="1" /><path clip-path="url(#clip910)" d="M16.4842 953.174 L16.4842 912.974 L21.895 912.974 L21.895 929.843 L64.0042 929.843 L64.0042 936.305 L21.895 936.305 L21.895 953.174 L16.4842 953.174 Z" fill="#000000" fill-rule="nonzero" fill-opacity="1" /><path clip-path="url(#clip910)" d="M33.8307 895.946 Q33.2578 896.933 33.0032 898.11 Q32.7167 899.256 32.7167 900.657 Q32.7167 905.622 35.9632 908.296 Q39.1779 910.937 45.2253 910.937 L64.0042 910.937 L64.0042 916.826 L28.3562 916.826 L28.3562 910.937 L33.8944 910.937 Q30.6479 909.091 29.0883 906.131 Q27.4968 903.171 27.4968 898.938 Q27.4968 898.333 27.5923 897.601 Q27.656 896.869 27.8151 895.978 L33.8307 895.946 Z" fill="#000000" fill-rule="nonzero" fill-opacity="1" /><path clip-path="url(#clip910)" d="M46.0847 873.602 Q46.0847 880.7 47.7079 883.437 Q49.3312 886.175 53.2461 886.175 Q56.3653 886.175 58.2114 884.138 Q60.0256 882.069 60.0256 878.536 Q60.0256 873.666 56.5881 870.738 Q53.1188 867.778 47.3897 867.778 L46.0847 867.778 L46.0847 873.602 M43.6657 861.921 L64.0042 861.921 L64.0042 867.778 L58.5933 867.778 Q61.8398 869.783 63.3994 872.775 Q64.9272 875.767 64.9272 880.095 Q64.9272 885.57 61.8716 888.816 Q58.7843 892.031 53.6281 892.031 Q47.6125 892.031 44.5569 888.021 Q41.5014 883.979 41.5014 875.99 L41.5014 867.778 L40.9285 867.778 Q36.8862 867.778 34.6901 870.451 Q32.4621 873.093 32.4621 877.899 Q32.4621 880.955 33.1941 883.851 Q33.9262 886.748 35.3903 889.421 L29.9795 889.421 Q28.7381 886.207 28.1334 883.183 Q27.4968 880.159 27.4968 877.295 Q27.4968 869.56 31.5072 865.741 Q35.5176 861.921 43.6657 861.921 Z" fill="#000000" fill-rule="nonzero" fill-opacity="1" /><path clip-path="url(#clip910)" d="M28.3562 849.858 L28.3562 844.002 L64.0042 844.002 L64.0042 849.858 L28.3562 849.858 M14.479 849.858 L14.479 844.002 L21.895 844.002 L21.895 849.858 L14.479 849.858 Z" fill="#000000" fill-rule="nonzero" fill-opacity="1" /><path clip-path="url(#clip910)" d="M42.4881 802.116 L64.0042 802.116 L64.0042 807.972 L42.679 807.972 Q37.6183 807.972 35.1038 809.945 Q32.5894 811.919 32.5894 815.865 Q32.5894 820.608 35.6131 823.345 Q38.6368 826.082 43.8567 826.082 L64.0042 826.082 L64.0042 831.971 L28.3562 831.971 L28.3562 826.082 L33.8944 826.082 Q30.6797 823.982 29.0883 821.149 Q27.4968 818.284 27.4968 814.561 Q27.4968 808.418 31.3163 805.267 Q35.1038 802.116 42.4881 802.116 Z" fill="#000000" fill-rule="nonzero" fill-opacity="1" /><path clip-path="url(#clip910)" d="M28.3562 790.434 L28.3562 784.578 L64.0042 784.578 L64.0042 790.434 L28.3562 790.434 M14.479 790.434 L14.479 784.578 L21.895 784.578 L21.895 790.434 L14.479 790.434 Z" fill="#000000" fill-rule="nonzero" fill-opacity="1" /><path clip-path="url(#clip910)" d="M42.4881 742.692 L64.0042 742.692 L64.0042 748.548 L42.679 748.548 Q37.6183 748.548 35.1038 750.521 Q32.5894 752.495 32.5894 756.442 Q32.5894 761.184 35.6131 763.921 Q38.6368 766.659 43.8567 766.659 L64.0042 766.659 L64.0042 772.547 L28.3562 772.547 L28.3562 766.659 L33.8944 766.659 Q30.6797 764.558 29.0883 761.725 Q27.4968 758.861 27.4968 755.137 Q27.4968 748.994 31.3163 745.843 Q35.1038 742.692 42.4881 742.692 Z" fill="#000000" fill-rule="nonzero" fill-opacity="1" /><path clip-path="url(#clip910)" d="M45.7664 707.553 Q39.4007 707.553 35.8996 710.195 Q32.3984 712.805 32.3984 717.547 Q32.3984 722.258 35.8996 724.9 Q39.4007 727.509 45.7664 727.509 Q52.1003 727.509 55.6014 724.9 Q59.1026 722.258 59.1026 717.547 Q59.1026 712.805 55.6014 710.195 Q52.1003 707.553 45.7664 707.553 M59.58 701.697 Q68.683 701.697 73.1071 705.739 Q77.5631 709.781 77.5631 718.12 Q77.5631 721.207 77.0857 723.945 Q76.6401 726.682 75.6852 729.26 L69.9879 729.26 Q71.3884 726.682 72.0568 724.167 Q72.7252 721.653 72.7252 719.043 Q72.7252 713.282 69.7015 710.418 Q66.7096 707.553 60.6303 707.553 L57.7339 707.553 Q60.885 709.367 62.4446 712.2 Q64.0042 715.033 64.0042 718.979 Q64.0042 725.536 59.0071 729.546 Q54.01 733.557 45.7664 733.557 Q37.491 733.557 32.4939 729.546 Q27.4968 725.536 27.4968 718.979 Q27.4968 715.033 29.0564 712.2 Q30.616 709.367 33.7671 707.553 L28.3562 707.553 L28.3562 701.697 L59.58 701.697 Z" fill="#000000" fill-rule="nonzero" fill-opacity="1" /><path clip-path="url(#clip910)" d="M44.7161 638.421 L47.5806 638.421 L47.5806 665.348 Q53.6281 664.966 56.8109 661.72 Q59.9619 658.442 59.9619 652.617 Q59.9619 649.243 59.1344 646.092 Q58.3069 642.909 56.6518 639.79 L62.1899 639.79 Q63.5267 642.941 64.227 646.251 Q64.9272 649.561 64.9272 652.967 Q64.9272 661.497 59.9619 666.494 Q54.9967 671.459 46.5303 671.459 Q37.7774 671.459 32.6531 666.749 Q27.4968 662.006 27.4968 653.986 Q27.4968 646.792 32.1438 642.623 Q36.7589 638.421 44.7161 638.421 M42.9973 644.278 Q38.1912 644.342 35.3266 646.983 Q32.4621 649.593 32.4621 653.922 Q32.4621 658.823 35.2312 661.784 Q38.0002 664.712 43.0292 665.157 L42.9973 644.278 Z" fill="#000000" fill-rule="nonzero" fill-opacity="1" /><path clip-path="url(#clip910)" d="M33.8307 608.152 Q33.2578 609.139 33.0032 610.317 Q32.7167 611.463 32.7167 612.863 Q32.7167 617.828 35.9632 620.502 Q39.1779 623.144 45.2253 623.144 L64.0042 623.144 L64.0042 629.032 L28.3562 629.032 L28.3562 623.144 L33.8944 623.144 Q30.6479 621.298 29.0883 618.338 Q27.4968 615.378 27.4968 611.144 Q27.4968 610.54 27.5923 609.808 Q27.656 609.075 27.8151 608.184 L33.8307 608.152 Z" fill="#000000" fill-rule="nonzero" fill-opacity="1" /><path clip-path="url(#clip910)" d="M33.8307 582.499 Q33.2578 583.485 33.0032 584.663 Q32.7167 585.809 32.7167 587.209 Q32.7167 592.175 35.9632 594.848 Q39.1779 597.49 45.2253 597.49 L64.0042 597.49 L64.0042 603.378 L28.3562 603.378 L28.3562 597.49 L33.8944 597.49 Q30.6479 595.644 29.0883 592.684 Q27.4968 589.724 27.4968 585.491 Q27.4968 584.886 27.5923 584.154 Q27.656 583.422 27.8151 582.53 L33.8307 582.499 Z" fill="#000000" fill-rule="nonzero" fill-opacity="1" /><path clip-path="url(#clip910)" d="M32.4621 563.974 Q32.4621 568.685 36.1542 571.422 Q39.8145 574.16 46.212 574.16 Q52.6095 574.16 56.3017 571.454 Q59.9619 568.717 59.9619 563.974 Q59.9619 559.296 56.2698 556.558 Q52.5777 553.821 46.212 553.821 Q39.8781 553.821 36.186 556.558 Q32.4621 559.296 32.4621 563.974 M27.4968 563.974 Q27.4968 556.336 32.4621 551.975 Q37.4273 547.615 46.212 547.615 Q54.9649 547.615 59.9619 551.975 Q64.9272 556.336 64.9272 563.974 Q64.9272 571.645 59.9619 576.006 Q54.9649 580.334 46.212 580.334 Q37.4273 580.334 32.4621 576.006 Q27.4968 571.645 27.4968 563.974 Z" fill="#000000" fill-rule="nonzero" fill-opacity="1" /><path clip-path="url(#clip910)" d="M33.8307 517.25 Q33.2578 518.237 33.0032 519.415 Q32.7167 520.56 32.7167 521.961 Q32.7167 526.926 35.9632 529.6 Q39.1779 532.241 45.2253 532.241 L64.0042 532.241 L64.0042 538.13 L28.3562 538.13 L28.3562 532.241 L33.8944 532.241 Q30.6479 530.395 29.0883 527.435 Q27.4968 524.475 27.4968 520.242 Q27.4968 519.637 27.5923 518.905 Q27.656 518.173 27.8151 517.282 L33.8307 517.25 Z" fill="#000000" fill-rule="nonzero" fill-opacity="1" /><polyline clip-path="url(#clip912)" style="stroke:#3da44d; stroke-linecap:round; stroke-linejoin:round; stroke-width:4; stroke-opacity:1; fill:none" points="310.553,449.735 314.526,452.743 318.5,455.69 322.473,458.703 326.446,461.807 330.42,464.904 334.393,468.033 338.367,471.25 342.34,474.376 346.313,477.547 350.287,480.978 354.26,484.122 358.234,487.438 362.207,490.795 366.18,494.122 370.154,497.414 374.127,500.799 378.101,504.017 382.074,507.392 386.047,510.644 390.021,513.818 393.994,517.06 397.967,520.145 401.941,523.093 405.914,525.998 409.888,528.82 413.861,531.706 417.834,534.521 421.808,537.489 425.781,540.369 429.755,543.362 433.728,546.295 437.701,549.346 441.675,552.403 445.648,555.583 449.622,558.785 453.595,561.994 457.568,565.309 461.542,568.624 465.515,571.972 469.488,575.412 473.462,578.91 477.435,582.378 481.409,586.043 485.382,589.659 489.355,593.282 493.329,596.984 497.302,600.781 501.276,604.673 505.249,608.603 509.222,612.593 513.196,616.559 517.169,620.677 521.143,624.843 525.116,629.029 529.089,633.259 533.063,637.633 537.036,642.025 541.009,646.561 544.983,651.098 548.956,655.646 552.93,660.228 556.903,664.783 560.876,669.579 564.85,674.404 568.823,679.29 572.797,684.248 576.77,689.383 580.743,694.582 584.717,699.891 588.69,705.335 592.664,710.912 596.637,716.545 600.61,722.365 604.584,727.844 608.557,733.162 612.53,738.603 616.504,744.252 620.477,750.07 624.451,755.985 628.424,761.993 632.397,768.244 636.371,774.591 640.344,781.217 644.318,787.91 648.291,794.861 652.264,801.979 656.238,809.452 660.211,817.137 664.185,825.133 668.158,833.528 672.131,842.233 676.105,851.441 680.078,861.09 684.052,871.245 688.025,881.843 691.998,891.341 695.972,900.542 699.945,910.175 703.918,920.702 707.892,931.772 711.865,943.624 715.839,956.478 719.812,970.779 723.785,986.55 727.759,1004.14 731.732,1024.27 735.706,1047.78 739.679,1078.04 743.652,1115.54 747.626,1160.43 751.599,1195.13 755.573,1198.09 759.546,1202.37 763.519,1207.66 767.493,1210.56 771.466,1211.79 775.439,1212.95 779.413,1213.1 783.386,1215.17 787.36,1215.88 791.333,1214.98 795.306,1216.81 799.28,1216.59 803.253,1217.27 807.227,1217.46 811.2,1217.72 815.173,1218.36 819.147,1218.76 823.12,1218.57 827.094,1218.13 831.067,1218.94 835.04,1220.16 839.014,1219.47 842.987,1219.18 846.96,1220.38 850.934,1221.49 854.907,1221.44 858.881,1222.21 862.854,1222.5 866.827,1222.98 870.801,1223.57 874.774,1223.84 878.748,1223.61 882.721,1225.24 886.694,1224.94 890.668,1226.38 894.641,1226.56 898.615,1226.05 902.588,1226.52 906.561,1227.47 910.535,1227.88 914.508,1228.42 918.481,1229.29 922.455,1229.75 926.428,1231.03 930.402,1232.53 934.375,1233.26 938.348,1235.03 942.322,1236.25 946.295,1236.44 950.269,1237.66 954.242,1237.9 958.215,1239.54 962.189,1242.11 966.162,1242.52 970.136,1243.54 974.109,1244.96 978.082,1246.08 982.056,1247.49 986.029,1248.23 990.002,1248.72 993.976,1250.42 997.949,1252.57 1001.92,1254.57 1005.9,1254.82 1009.87,1256.39 1013.84,1258.2 1017.82,1259.68 1021.79,1261.34 1025.76,1262.81 1029.74,1263.58 1033.71,1264.2 1037.68,1266.92 1041.66,1268.05 1045.63,1269.49 1049.6,1271.38 1053.58,1272.35 1057.55,1272.53 1061.52,1275.76 1065.5,1276.5 1069.47,1278.08 1073.44,1279.14 1077.42,1279.13 1081.39,1279.14 1085.36,1283.31 1089.34,1283.05 1093.31,1283.17 1097.28,1287.67 1101.26,1287.94 1105.23,1288.7 1109.2,1288.99 1113.18,1290.42 1117.15,1292.8 1121.12,1294.35 1125.1,1295.46 1129.07,1296.09 1133.04,1296.19 1137.02,1298.43 1140.99,1298.98 1144.96,1301.12 1148.94,1301.79 1152.91,1301.9 1156.88,1304.74 1160.86,1305.14 1164.83,1307.15 1168.81,1307.74 1172.78,1307.99 1176.75,1309.68 1180.73,1311.74 1184.7,1312.94 1188.67,1311.92 1192.65,1316.11 1196.62,1315.24 1200.59,1317.63 1204.57,1317.05 1208.54,1318.77 1212.51,1320.57 1216.49,1320.24 1220.46,1321.49 1224.43,1322.5 1228.41,1324.35 1232.38,1326.27 1236.35,1326.29 1240.33,1329.09 1244.3,1328.34 1248.27,1327.97 1252.25,1331.67 1256.22,1331.39 1260.19,1333.66 1264.17,1333.22 1268.14,1335.24 1272.11,1334.97 1276.09,1335.22 1280.06,1335.74 1284.03,1337.18 1288.01,1337 1291.98,1337.86 1295.95,1337.08 1299.93,1339.47 1303.9,1336.34 1307.87,1337.4 1311.85,1339.26 1315.82,1342.03 1319.79,1343.67 1323.77,1341.65 1327.74,1342.1 1331.71,1337.22 1335.69,1340.65 1339.66,1344.47 1343.63,1345.8 1347.61,1346.62 1351.58,1348 1355.55,1346.33 1359.53,1348.3 1363.5,1345.85 1367.47,1344.46 1371.45,1346.65 1375.42,1348.5 1379.39,1349.45 1383.37,1351.34 1387.34,1351.52 1391.31,1350.35 1395.29,1350.78 1399.26,1352.58 1403.24,1353.65 1407.21,1350.84 1411.18,1350.48 1415.16,1350.9 1419.13,1352.53 1423.1,1351.76 1427.08,1353.72 1431.05,1351.39 1435.02,1350.15 1439,1351.82 1442.97,1355.02 1446.94,1355.79 1450.92,1357.1 1454.89,1354.76 1458.86,1356.25 1462.84,1356.58 1466.81,1357.85 1470.78,1357.65 1474.76,1354.44 1478.73,1353.13 1482.7,1356.01 1486.68,1357.43 1490.65,1356.88 1494.62,1357.91 1498.6,1357.73 1502.57,1356.66 1506.54,1352.97 1510.52,1356.82 1514.49,1358.81 1518.46,1358.78 1522.44,1360.1 1526.41,1359.06 1530.38,1357.54 1534.36,1360.76 1538.33,1359.77 1542.3,1359.45 1546.28,1361.86 1550.25,1360.68 1554.22,1358.89 1558.2,1360.22 1562.17,1362.01 1566.14,1362.47 1570.12,1357.93 1574.09,1362.43 1578.06,1363.07 1582.04,1362.72 1586.01,1360.78 1589.98,1357.59 1593.96,1359.53 1597.93,1361.26 1601.9,1363.17 1605.88,1361.73 1609.85,1356.93 1613.82,1361.97 1617.8,1361.61 1621.77,1362.6 1625.74,1362.24 1629.72,1362.41 1633.69,1360.3 1637.66,1365.52 1641.64,1364.75 1645.61,1364.3 1649.59,1361.05 1653.56,1364.15 1657.53,1363.23 1661.51,1363.74 1665.48,1364.33 1669.45,1364.27 1673.43,1362.36 1677.4,1364.24 1681.37,1362.83 1685.35,1365.8 1689.32,1365.6 1693.29,1366.97 1697.27,1366.71 1701.24,1365.87 1705.21,1366.63 1709.19,1365.71 1713.16,1366.39 1717.13,1364.92 1721.11,1365.23 1725.08,1365.7 1729.05,1367.15 1733.03,1367.65 1737,1368.32 1740.97,1369.96 1744.95,1369.05 1748.92,1367.65 1752.89,1366.41 1756.87,1367.46 1760.84,1367.81 1764.81,1369.57 1768.79,1370.11 1772.76,1369.97 1776.73,1368.06 1780.71,1368.07 1784.68,1368.72 1788.65,1367.84 1792.63,1367.01 1796.6,1362.84 1800.57,1359.94 1804.55,1364.39 1808.52,1369.03 1812.49,1365.74 1816.47,1366.17 1820.44,1368.15 1824.41,1369.82 1828.39,1371.3 1832.36,1367.97 1836.33,1367.57 1840.31,1367.29 1844.28,1367.39 1848.25,1368.35 1852.23,1371.32 1856.2,1371.65 1860.17,1371.34 1864.15,1372.93 1868.12,1372.14 1872.09,1371.44 1876.07,1371.13 1880.04,1371.18 1884.02,1373.12 1887.99,1373.37 1891.96,1370.17 1895.94,1372.35 1899.91,1370.48 1903.88,1369.12 1907.86,1372.11 1911.83,1372.64 1915.8,1374.13 1919.78,1369.5 1923.75,1373.98 1927.72,1372.1 1931.7,1374.2 1935.67,1371.02 1939.64,1368.11 1943.62,1367.72 1947.59,1367.33 1951.56,1372.35 1955.54,1372.3 1959.51,1373.86 1963.48,1375.32 1967.46,1375.79 1971.43,1372.83 1975.4,1374.08 1979.38,1376.08 1983.35,1375.08 1987.32,1375.64 1991.3,1374.82 1995.27,1374.3 1999.24,1375.71 2003.22,1373.71 2007.19,1375.03 2011.16,1373.41 2015.14,1375.99 2019.11,1376.41 2023.08,1375.21 2027.06,1376.46 2031.03,1378.53 2035,1373.1 2038.98,1377.42 2042.95,1373.63 2046.92,1371.46 2050.9,1374.35 2054.87,1373.7 2058.84,1374.54 2062.82,1376.06 2066.79,1376.4 2070.76,1374.31 2074.74,1374.71 2078.71,1374.12 2082.68,1372.68 2086.66,1377.05 2090.63,1376.46 2094.6,1373.41 2098.58,1374.99 2102.55,1377 2106.52,1376.41 2110.5,1377.59 2114.47,1377.17 2118.45,1375.83 2122.42,1376.44 2126.39,1375.65 2130.37,1376.59 2134.34,1373.92 2138.31,1377.53 2142.29,1375.97 2146.26,1368.24 2150.23,1373.05 2154.21,1376.03 2158.18,1378.34 2162.15,1378.99 2166.13,1378.49 2170.1,1380.6 2174.07,1378.42 2178.05,1381.91 2182.02,1379.49 2185.99,1373.61 2189.97,1366.73 2193.94,1373 2197.91,1375.01 2201.89,1377.18 2205.86,1377.94 2209.83,1375.35 2213.81,1383.17 2217.78,1378.66 2221.75,1380.28 2225.73,1382.12 2229.7,1379.9 2233.67,1378.65 2237.65,1379.93 2241.62,1377.19 2245.59,1380.87 2249.57,1382.83 2253.54,1378.07 2257.51,1379.62 2261.49,1379.6 2265.46,1381.74 2269.43,1383.2 2273.41,1383.33 2277.38,1384.24 2281.35,1383.08 2285.33,1382.12 2289.3,1382.3 2293.27,1382.99 "/>
<polyline clip-path="url(#clip912)" style="stroke:#e26f46; stroke-linecap:round; stroke-linejoin:round; stroke-width:4; stroke-opacity:1; fill:none" points="310.553,86.1857 314.526,91.5156 318.5,96.8999 322.473,101.755 326.446,106.013 330.42,110.16 334.393,114.243 338.367,118.257 342.34,122.378 346.313,126.34 350.287,129.992 354.26,133.596 358.234,137.448 362.207,141.043 366.18,144.506 370.154,148.103 374.127,151.247 378.101,154.638 382.074,158.018 386.047,161.272 390.021,164.588 393.994,167.724 397.967,171.003 401.941,174.301 405.914,177.461 409.888,180.746 413.861,184.04 417.834,187.195 421.808,190.537 425.781,193.745 429.755,197.003 433.728,200.418 437.701,203.461 441.675,206.734 445.648,210.149 449.622,213.239 453.595,216.688 457.568,219.966 461.542,223.435 465.515,227.025 469.488,230.606 473.462,234.369 477.435,238.155 481.409,242.131 485.382,246.224 489.355,250.417 493.329,254.574 497.302,258.961 501.276,263.321 505.249,267.588 509.222,272.059 513.196,276.567 517.169,281.286 521.143,286.078 525.116,290.898 529.089,296.017 533.063,301.361 537.036,306.841 541.009,312.494 544.983,318.363 548.956,324.416 552.93,330.822 556.903,337.374 560.876,344.098 564.85,350.827 568.823,357.446 572.797,364.013 576.77,371.099 580.743,378.283 584.717,385.629 588.69,393.107 592.664,400.62 596.637,406.922 600.61,413.531 604.584,420.258 608.557,426.547 612.53,431.973 616.504,436.972 620.477,441.997 624.451,446.412 628.424,450.155 632.397,453.416 636.371,456.209 640.344,458.316 644.318,459.973 648.291,461.838 652.264,463.22 656.238,464.578 660.211,465.754 664.185,466.691 668.158,467.862 672.131,468.737 676.105,469.879 680.078,470.68 684.052,471.628 688.025,472.664 691.998,473.76 695.972,474.833 699.945,476.078 703.918,477.124 707.892,478.319 711.865,479.378 715.839,480.608 719.812,481.648 723.785,482.922 727.759,483.874 731.732,485.31 735.706,486.607 739.679,488.129 743.652,489.512 747.626,490.87 751.599,492.184 755.573,493.628 759.546,495.164 763.519,496.743 767.493,498.321 771.466,499.89 775.439,501.552 779.413,503.236 783.386,504.639 787.36,506.198 791.333,507.702 795.306,509.459 799.28,510.972 803.253,512.478 807.227,513.894 811.2,515.403 815.173,517.124 819.147,518.705 823.12,519.788 827.094,521.389 831.067,522.563 835.04,523.96 839.014,525.61 842.987,526.666 846.96,528.108 850.934,529.453 854.907,530.594 858.881,532.034 862.854,533.201 866.827,534.33 870.801,535.572 874.774,536.644 878.748,537.838 882.721,539.088 886.694,540.221 890.668,541.421 894.641,542.634 898.615,543.832 902.588,545.085 906.561,546.505 910.535,547.86 914.508,549.143 918.481,550.572 922.455,552.295 926.428,553.733 930.402,555.468 934.375,557.149 938.348,559.094 942.322,561.321 946.295,563.334 950.269,565.351 954.242,567.667 958.215,569.85 962.189,571.988 966.162,574.544 970.136,576.968 974.109,579.54 978.082,582.35 982.056,585.106 986.029,587.851 990.002,590.57 993.976,592.998 997.949,595.097 1001.92,596.509 1005.9,597.836 1009.87,598.911 1013.84,599.837 1017.82,601.012 1021.79,602.141 1025.76,603.41 1029.74,604.38 1033.71,605.222 1037.68,605.977 1041.66,606.901 1045.63,607.719 1049.6,608.753 1053.58,609.437 1057.55,610.273 1061.52,611.094 1065.5,611.92 1069.47,612.573 1073.44,613.361 1077.42,614.14 1081.39,614.858 1085.36,615.547 1089.34,616.307 1093.31,617.014 1097.28,617.733 1101.26,618.543 1105.23,619.359 1109.2,620.087 1113.18,620.706 1117.15,621.553 1121.12,622.319 1125.1,623.067 1129.07,623.881 1133.04,624.517 1137.02,625.384 1140.99,626.129 1144.96,626.937 1148.94,627.695 1152.91,628.496 1156.88,629.233 1160.86,629.928 1164.83,630.758 1168.81,631.69 1172.78,632.446 1176.75,633.281 1180.73,634.064 1184.7,634.869 1188.67,635.751 1192.65,636.609 1196.62,637.32 1200.59,637.998 1204.57,638.915 1208.54,639.867 1212.51,640.709 1216.49,641.608 1220.46,642.52 1224.43,643.436 1228.41,644.189 1232.38,645.111 1236.35,646.033 1240.33,646.946 1244.3,647.911 1248.27,648.796 1252.25,649.717 1256.22,650.557 1260.19,651.677 1264.17,652.561 1268.14,653.588 1272.11,654.497 1276.09,655.274 1280.06,656.305 1284.03,657.357 1288.01,658.508 1291.98,659.503 1295.95,660.494 1299.93,661.521 1303.9,662.599 1307.87,663.626 1311.85,664.64 1315.82,665.815 1319.79,666.814 1323.77,667.952 1327.74,669.021 1331.71,669.888 1335.69,670.937 1339.66,672.345 1343.63,673.584 1347.61,674.726 1351.58,675.839 1355.55,677.078 1359.53,678.172 1363.5,679.359 1367.47,680.646 1371.45,681.835 1375.42,683.07 1379.39,684.305 1383.37,685.547 1387.34,686.723 1391.31,688.141 1395.29,689.465 1399.26,690.647 1403.24,691.892 1407.21,693.217 1411.18,694.277 1415.16,695.574 1419.13,696.816 1423.1,698.04 1427.08,699.24 1431.05,700.549 1435.02,701.923 1439,703.281 1442.97,704.18 1446.94,705.62 1450.92,706.373 1454.89,707.484 1458.86,709.358 1462.84,710.654 1466.81,711.871 1470.78,713.177 1474.76,714.368 1478.73,715.529 1482.7,717.079 1486.68,718.246 1490.65,719.553 1494.62,721.082 1498.6,722.533 1502.57,723.857 1506.54,725.135 1510.52,726.722 1514.49,728.323 1518.46,729.732 1522.44,730.822 1526.41,732.485 1530.38,734.139 1534.36,735.467 1538.33,736.6 1542.3,738.329 1546.28,739.466 1550.25,741.034 1554.22,742.075 1558.2,743.603 1562.17,744.977 1566.14,746.378 1570.12,747.639 1574.09,749.056 1578.06,750.778 1582.04,752.108 1586.01,753.045 1589.98,754.014 1593.96,755.733 1597.93,757.126 1601.9,758.629 1605.88,760.103 1609.85,761.927 1613.82,763.369 1617.8,764.733 1621.77,766.07 1625.74,767.658 1629.72,769.157 1633.69,770.946 1637.66,772.327 1641.64,774.227 1645.61,775.797 1649.59,777.349 1653.56,778.926 1657.53,780.282 1661.51,782.426 1665.48,784.331 1669.45,786.338 1673.43,788.464 1677.4,790.184 1681.37,792.026 1685.35,794.022 1689.32,795.702 1693.29,797.495 1697.27,799.021 1701.24,800.771 1705.21,802.21 1709.19,804.058 1713.16,806.381 1717.13,808.366 1721.11,810.44 1725.08,811.964 1729.05,813.935 1733.03,815.185 1737,817.354 1740.97,819.963 1744.95,821.917 1748.92,823.755 1752.89,826.307 1756.87,828.459 1760.84,830.884 1764.81,833.075 1768.79,835.549 1772.76,837.822 1776.73,840.528 1780.71,842.993 1784.68,845.246 1788.65,848.178 1792.63,851.163 1796.6,854.058 1800.57,856.816 1804.55,859.854 1808.52,862.588 1812.49,866.273 1816.47,869.343 1820.44,872.782 1824.41,876.167 1828.39,879.867 1832.36,882.925 1836.33,887.073 1840.31,891.541 1844.28,895.619 1848.25,900.6 1852.23,905.53 1856.2,910.179 1860.17,915.495 1864.15,920.404 1868.12,925.153 1872.09,928.294 1876.07,934.759 1880.04,942.471 1884.02,948.08 1887.99,953.995 1891.96,960.825 1895.94,967.318 1899.91,973.068 1903.88,979.758 1907.86,986.543 1911.83,994.422 1915.8,1004.86 1919.78,1014.35 1923.75,1023.97 1927.72,1033.63 1931.7,1036.6 1935.67,1048.76 1939.64,1060.71 1943.62,1072.73 1947.59,1089.82 1951.56,1117.19 1955.54,1141.34 1959.51,1159.04 1963.48,1151.18 1967.46,1147.52 1971.43,1164.13 1975.4,1182.51 1979.38,1165.1 1983.35,1143.68 1987.32,1183.81 1991.3,1183.91 1995.27,1152.83 1999.24,1131.44 2003.22,1147.69 2007.19,1158.43 2011.16,1168.26 2015.14,1190.45 2019.11,1200.06 2023.08,1202.61 2027.06,1202.47 2031.03,1202.41 2035,1199.48 2038.98,1189.34 2042.95,1182.78 2046.92,1191.55 2050.9,1195.47 2054.87,1200.92 2058.84,1191.52 2062.82,1194.45 2066.79,1193.48 2070.76,1198.07 2074.74,1197.58 2078.71,1191.68 2082.68,1192.72 2086.66,1193.47 2090.63,1176.39 2094.6,1198.91 2098.58,1200.54 2102.55,1197.16 2106.52,1194.78 2110.5,1184.93 2114.47,1173.87 2118.45,1187.84 2122.42,1191.38 2126.39,1200.35 2130.37,1202.03 2134.34,1196.59 2138.31,1204.85 2142.29,1203.48 2146.26,1200.93 2150.23,1200.18 2154.21,1203.16 2158.18,1193.53 2162.15,1202.26 2166.13,1192.35 2170.1,1203.5 2174.07,1203.39 2178.05,1203.39 2182.02,1156.47 2185.99,1190.26 2189.97,1200.34 2193.94,1191.76 2197.91,1187.9 2201.89,1198.47 2205.86,1196.97 2209.83,1190.51 2213.81,1195.12 2217.78,1199.75 2221.75,1162.64 2225.73,1142.92 2229.7,1155.74 2233.67,1188.84 2237.65,1199.29 2241.62,1204.37 2245.59,1196.26 2249.57,1186 2253.54,1200.48 2257.51,1205.12 2261.49,1205.44 2265.46,1202.07 2269.43,1200.08 2273.41,1199.08 2277.38,1196.69 2281.35,1189.52 2285.33,1191.5 2289.3,1191.54 2293.27,1144.48 "/>
<path clip-path="url(#clip910)" d="M1784.69 248.629 L2282.7 248.629 L2282.7 93.1086 L1784.69 93.1086  Z" fill="#ffffff" fill-rule="evenodd" fill-opacity="1"/>
<polyline clip-path="url(#clip910)" style="stroke:#000000; stroke-linecap:round; stroke-linejoin:round; stroke-width:4; stroke-opacity:1; fill:none" points="1784.69,248.629 2282.7,248.629 2282.7,93.1086 1784.69,93.1086 1784.69,248.629 "/>
<polyline clip-path="url(#clip910)" style="stroke:#3da44d; stroke-linecap:round; stroke-linejoin:round; stroke-width:4; stroke-opacity:1; fill:none" points="1808.04,144.949 1948.15,144.949 "/>
<path clip-path="url(#clip910)" d="M1997.06 157.298 L1997.06 148.016 L1989.42 148.016 L1989.42 144.173 L2001.69 144.173 L2001.69 159.011 Q1998.98 160.932 1995.71 161.928 Q1992.45 162.9 1988.75 162.9 Q1980.65 162.9 1976.06 158.178 Q1971.5 153.432 1971.5 144.983 Q1971.5 136.511 1976.06 131.789 Q1980.65 127.044 1988.75 127.044 Q1992.13 127.044 1995.16 127.877 Q1998.21 128.71 2000.78 130.331 L2000.78 135.307 Q1998.19 133.108 1995.28 131.997 Q1992.36 130.886 1989.14 130.886 Q1982.8 130.886 1979.6 134.428 Q1976.43 137.969 1976.43 144.983 Q1976.43 151.974 1979.6 155.516 Q1982.8 159.057 1989.14 159.057 Q1991.62 159.057 1993.56 158.641 Q1995.51 158.201 1997.06 157.298 Z" fill="#000000" fill-rule="nonzero" fill-opacity="1" /><path clip-path="url(#clip910)" d="M2007.89 147.344 L2020.37 147.344 L2020.37 151.141 L2007.89 151.141 L2007.89 147.344 Z" fill="#000000" fill-rule="nonzero" fill-opacity="1" /><path clip-path="url(#clip910)" d="M2048.05 128.803 L2048.05 133.363 Q2045.39 132.09 2043.03 131.465 Q2040.67 130.84 2038.47 130.84 Q2034.65 130.84 2032.57 132.321 Q2030.51 133.803 2030.51 136.534 Q2030.51 138.826 2031.87 140.007 Q2033.26 141.164 2037.1 141.882 L2039.93 142.46 Q2045.16 143.456 2047.64 145.979 Q2050.14 148.479 2050.14 152.692 Q2050.14 157.715 2046.76 160.307 Q2043.4 162.9 2036.9 162.9 Q2034.44 162.9 2031.66 162.344 Q2028.91 161.789 2025.95 160.701 L2025.95 155.886 Q2028.79 157.483 2031.52 158.293 Q2034.26 159.104 2036.9 159.104 Q2040.9 159.104 2043.08 157.53 Q2045.25 155.956 2045.25 153.039 Q2045.25 150.493 2043.68 149.057 Q2042.13 147.622 2038.56 146.905 L2035.71 146.349 Q2030.48 145.307 2028.15 143.085 Q2025.81 140.863 2025.81 136.905 Q2025.81 132.321 2029.02 129.682 Q2032.27 127.044 2037.94 127.044 Q2040.37 127.044 2042.89 127.483 Q2045.41 127.923 2048.05 128.803 Z" fill="#000000" fill-rule="nonzero" fill-opacity="1" /><path clip-path="url(#clip910)" d="M2068.03 164.636 Q2066.22 169.266 2064.51 170.678 Q2062.8 172.09 2059.93 172.09 L2056.52 172.09 L2056.52 168.525 L2059.02 168.525 Q2060.78 168.525 2061.76 167.692 Q2062.73 166.858 2063.91 163.756 L2064.67 161.812 L2054.19 136.303 L2058.7 136.303 L2066.8 156.581 L2074.9 136.303 L2079.42 136.303 L2068.03 164.636 Z" fill="#000000" fill-rule="nonzero" fill-opacity="1" /><path clip-path="url(#clip910)" d="M2105.48 141.28 Q2107.08 138.409 2109.3 137.044 Q2111.52 135.678 2114.53 135.678 Q2118.58 135.678 2120.78 138.525 Q2122.98 141.349 2122.98 146.581 L2122.98 162.229 L2118.7 162.229 L2118.7 146.719 Q2118.7 142.993 2117.38 141.187 Q2116.06 139.382 2113.35 139.382 Q2110.04 139.382 2108.12 141.581 Q2106.2 143.78 2106.2 147.576 L2106.2 162.229 L2101.92 162.229 L2101.92 146.719 Q2101.92 142.969 2100.6 141.187 Q2099.28 139.382 2096.52 139.382 Q2093.26 139.382 2091.34 141.604 Q2089.42 143.803 2089.42 147.576 L2089.42 162.229 L2085.14 162.229 L2085.14 136.303 L2089.42 136.303 L2089.42 140.331 Q2090.88 137.946 2092.91 136.812 Q2094.95 135.678 2097.75 135.678 Q2100.58 135.678 2102.54 137.113 Q2104.53 138.548 2105.48 141.28 Z" fill="#000000" fill-rule="nonzero" fill-opacity="1" /><path clip-path="url(#clip910)" d="M2135.6 158.34 L2135.6 172.09 L2131.32 172.09 L2131.32 136.303 L2135.6 136.303 L2135.6 140.238 Q2136.94 137.923 2138.98 136.812 Q2141.04 135.678 2143.89 135.678 Q2148.61 135.678 2151.55 139.428 Q2154.51 143.178 2154.51 149.289 Q2154.51 155.4 2151.55 159.15 Q2148.61 162.9 2143.89 162.9 Q2141.04 162.9 2138.98 161.789 Q2136.94 160.655 2135.6 158.34 M2150.09 149.289 Q2150.09 144.59 2148.14 141.928 Q2146.22 139.243 2142.84 139.243 Q2139.46 139.243 2137.52 141.928 Q2135.6 144.59 2135.6 149.289 Q2135.6 153.988 2137.52 156.673 Q2139.46 159.335 2142.84 159.335 Q2146.22 159.335 2148.14 156.673 Q2150.09 153.988 2150.09 149.289 Z" fill="#000000" fill-rule="nonzero" fill-opacity="1" /><path clip-path="url(#clip910)" d="M2161.76 127.669 L2168.05 127.669 L2183.38 156.581 L2183.38 127.669 L2187.91 127.669 L2187.91 162.229 L2181.62 162.229 L2166.29 133.317 L2166.29 162.229 L2161.76 162.229 L2161.76 127.669 Z" fill="#000000" fill-rule="nonzero" fill-opacity="1" /><path clip-path="url(#clip910)" d="M2219.21 148.201 L2219.21 150.284 L2199.63 150.284 Q2199.9 154.682 2202.26 156.997 Q2204.65 159.289 2208.89 159.289 Q2211.34 159.289 2213.63 158.687 Q2215.95 158.085 2218.21 156.881 L2218.21 160.909 Q2215.92 161.881 2213.51 162.391 Q2211.11 162.9 2208.63 162.9 Q2202.43 162.9 2198.79 159.289 Q2195.18 155.678 2195.18 149.52 Q2195.18 143.155 2198.61 139.428 Q2202.06 135.678 2207.89 135.678 Q2213.12 135.678 2216.15 139.057 Q2219.21 142.414 2219.21 148.201 M2214.95 146.951 Q2214.9 143.456 2212.98 141.372 Q2211.08 139.289 2207.94 139.289 Q2204.37 139.289 2202.22 141.303 Q2200.09 143.317 2199.76 146.974 L2214.95 146.951 Z" fill="#000000" fill-rule="nonzero" fill-opacity="1" /><path clip-path="url(#clip910)" d="M2230.41 128.942 L2230.41 136.303 L2239.19 136.303 L2239.19 139.613 L2230.41 139.613 L2230.41 153.687 Q2230.41 156.858 2231.27 157.761 Q2232.15 158.664 2234.81 158.664 L2239.19 158.664 L2239.19 162.229 L2234.81 162.229 Q2229.88 162.229 2228.01 160.4 Q2226.13 158.548 2226.13 153.687 L2226.13 139.613 L2223.01 139.613 L2223.01 136.303 L2226.13 136.303 L2226.13 128.942 L2230.41 128.942 Z" fill="#000000" fill-rule="nonzero" fill-opacity="1" /><polyline clip-path="url(#clip910)" style="stroke:#e26f46; stroke-linecap:round; stroke-linejoin:round; stroke-width:4; stroke-opacity:1; fill:none" points="1808.04,196.789 1948.15,196.789 "/>
<path clip-path="url(#clip910)" d="M1971.5 179.509 L1976.18 179.509 L1976.18 210.133 L1993.01 210.133 L1993.01 214.069 L1971.5 214.069 L1971.5 179.509 Z" fill="#000000" fill-rule="nonzero" fill-opacity="1" /><path clip-path="url(#clip910)" d="M2010.55 184.115 L2004.21 201.314 L2016.92 201.314 L2010.55 184.115 M2007.91 179.509 L2013.21 179.509 L2026.39 214.069 L2021.52 214.069 L2018.38 205.203 L2002.8 205.203 L1999.65 214.069 L1994.72 214.069 L2007.91 179.509 Z" fill="#000000" fill-rule="nonzero" fill-opacity="1" /><path clip-path="url(#clip910)" d="M2028.05 199.184 L2040.53 199.184 L2040.53 202.981 L2028.05 202.981 L2028.05 199.184 Z" fill="#000000" fill-rule="nonzero" fill-opacity="1" /><path clip-path="url(#clip910)" d="M2068.21 180.643 L2068.21 185.203 Q2065.55 183.93 2063.19 183.305 Q2060.83 182.68 2058.63 182.68 Q2054.81 182.68 2052.73 184.161 Q2050.67 185.643 2050.67 188.374 Q2050.67 190.666 2052.03 191.847 Q2053.42 193.004 2057.27 193.722 L2060.09 194.3 Q2065.32 195.296 2067.8 197.819 Q2070.3 200.319 2070.3 204.532 Q2070.3 209.555 2066.92 212.147 Q2063.56 214.74 2057.06 214.74 Q2054.6 214.74 2051.83 214.184 Q2049.07 213.629 2046.11 212.541 L2046.11 207.726 Q2048.96 209.323 2051.69 210.133 Q2054.42 210.944 2057.06 210.944 Q2061.06 210.944 2063.24 209.37 Q2065.41 207.796 2065.41 204.879 Q2065.41 202.333 2063.84 200.897 Q2062.29 199.462 2058.72 198.745 L2055.88 198.189 Q2050.65 197.147 2048.31 194.925 Q2045.97 192.703 2045.97 188.745 Q2045.97 184.161 2049.19 181.522 Q2052.43 178.884 2058.1 178.884 Q2060.53 178.884 2063.05 179.323 Q2065.58 179.763 2068.21 180.643 Z" fill="#000000" fill-rule="nonzero" fill-opacity="1" /><path clip-path="url(#clip910)" d="M2088.19 216.476 Q2086.39 221.106 2084.67 222.518 Q2082.96 223.93 2080.09 223.93 L2076.69 223.93 L2076.69 220.365 L2079.19 220.365 Q2080.95 220.365 2081.92 219.532 Q2082.89 218.698 2084.07 215.596 L2084.83 213.652 L2074.35 188.143 L2078.86 188.143 L2086.96 208.421 L2095.07 188.143 L2099.58 188.143 L2088.19 216.476 Z" fill="#000000" fill-rule="nonzero" fill-opacity="1" /><path clip-path="url(#clip910)" d="M2125.64 193.12 Q2127.24 190.249 2129.46 188.884 Q2131.69 187.518 2134.7 187.518 Q2138.75 187.518 2140.95 190.365 Q2143.14 193.189 2143.14 198.421 L2143.14 214.069 L2138.86 214.069 L2138.86 198.559 Q2138.86 194.833 2137.54 193.027 Q2136.22 191.222 2133.52 191.222 Q2130.2 191.222 2128.28 193.421 Q2126.36 195.62 2126.36 199.416 L2126.36 214.069 L2122.08 214.069 L2122.08 198.559 Q2122.08 194.809 2120.76 193.027 Q2119.44 191.222 2116.69 191.222 Q2113.42 191.222 2111.5 193.444 Q2109.58 195.643 2109.58 199.416 L2109.58 214.069 L2105.3 214.069 L2105.3 188.143 L2109.58 188.143 L2109.58 192.171 Q2111.04 189.786 2113.08 188.652 Q2115.11 187.518 2117.91 187.518 Q2120.74 187.518 2122.7 188.953 Q2124.7 190.388 2125.64 193.12 Z" fill="#000000" fill-rule="nonzero" fill-opacity="1" /><path clip-path="url(#clip910)" d="M2155.76 210.18 L2155.76 223.93 L2151.48 223.93 L2151.48 188.143 L2155.76 188.143 L2155.76 192.078 Q2157.1 189.763 2159.14 188.652 Q2161.2 187.518 2164.05 187.518 Q2168.77 187.518 2171.71 191.268 Q2174.67 195.018 2174.67 201.129 Q2174.67 207.24 2171.71 210.99 Q2168.77 214.74 2164.05 214.74 Q2161.2 214.74 2159.14 213.629 Q2157.1 212.495 2155.76 210.18 M2170.25 201.129 Q2170.25 196.43 2168.31 193.768 Q2166.39 191.083 2163.01 191.083 Q2159.63 191.083 2157.68 193.768 Q2155.76 196.43 2155.76 201.129 Q2155.76 205.828 2157.68 208.513 Q2159.63 211.175 2163.01 211.175 Q2166.39 211.175 2168.31 208.513 Q2170.25 205.828 2170.25 201.129 Z" fill="#000000" fill-rule="nonzero" fill-opacity="1" /><path clip-path="url(#clip910)" d="M2181.92 179.509 L2188.21 179.509 L2203.54 208.421 L2203.54 179.509 L2208.07 179.509 L2208.07 214.069 L2201.78 214.069 L2186.45 185.157 L2186.45 214.069 L2181.92 214.069 L2181.92 179.509 Z" fill="#000000" fill-rule="nonzero" fill-opacity="1" /><path clip-path="url(#clip910)" d="M2239.37 200.041 L2239.37 202.124 L2219.79 202.124 Q2220.07 206.522 2222.43 208.837 Q2224.81 211.129 2229.05 211.129 Q2231.5 211.129 2233.79 210.527 Q2236.11 209.925 2238.38 208.721 L2238.38 212.749 Q2236.08 213.721 2233.68 214.231 Q2231.27 214.74 2228.79 214.74 Q2222.59 214.74 2218.95 211.129 Q2215.34 207.518 2215.34 201.36 Q2215.34 194.995 2218.77 191.268 Q2222.22 187.518 2228.05 187.518 Q2233.28 187.518 2236.32 190.897 Q2239.37 194.254 2239.37 200.041 M2235.11 198.791 Q2235.07 195.296 2233.14 193.212 Q2231.25 191.129 2228.1 191.129 Q2224.53 191.129 2222.38 193.143 Q2220.25 195.157 2219.93 198.814 L2235.11 198.791 Z" fill="#000000" fill-rule="nonzero" fill-opacity="1" /><path clip-path="url(#clip910)" d="M2250.57 180.782 L2250.57 188.143 L2259.35 188.143 L2259.35 191.453 L2250.57 191.453 L2250.57 205.527 Q2250.57 208.698 2251.43 209.601 Q2252.31 210.504 2254.97 210.504 L2259.35 210.504 L2259.35 214.069 L2254.97 214.069 Q2250.04 214.069 2248.17 212.24 Q2246.29 210.388 2246.29 205.527 L2246.29 191.453 L2243.17 191.453 L2243.17 188.143 L2246.29 188.143 L2246.29 180.782 L2250.57 180.782 Z" fill="#000000" fill-rule="nonzero" fill-opacity="1" /></svg>
