<?xml version="1.0" encoding="utf-8"?>
<svg xmlns="http://www.w3.org/2000/svg" xmlns:xlink="http://www.w3.org/1999/xlink" width="600" height="400" viewBox="0 0 2400 1600">
<defs>
  <clipPath id="clip660">
    <rect x="0" y="0" width="2400" height="1600"/>
  </clipPath>
</defs>
<path clip-path="url(#clip660)" d="M0 1600 L2400 1600 L2400 0 L0 0  Z" fill="#ffffff" fill-rule="evenodd" fill-opacity="1"/>
<defs>
  <clipPath id="clip661">
    <rect x="480" y="0" width="1681" height="1600"/>
  </clipPath>
</defs>
<path clip-path="url(#clip660)" d="M251.071 1423.18 L2352.76 1423.18 L2352.76 47.2441 L251.071 47.2441  Z" fill="#ffffff" fill-rule="evenodd" fill-opacity="1"/>
<defs>
  <clipPath id="clip662">
    <rect x="251" y="47" width="2103" height="1377"/>
  </clipPath>
</defs>
<polyline clip-path="url(#clip662)" style="stroke:#000000; stroke-linecap:round; stroke-linejoin:round; stroke-width:2; stroke-opacity:0.1; fill:none" points="308.568,1423.18 308.568,47.2441 "/>
<polyline clip-path="url(#clip662)" style="stroke:#000000; stroke-linecap:round; stroke-linejoin:round; stroke-width:2; stroke-opacity:0.1; fill:none" points="804.745,1423.18 804.745,47.2441 "/>
<polyline clip-path="url(#clip662)" style="stroke:#000000; stroke-linecap:round; stroke-linejoin:round; stroke-width:2; stroke-opacity:0.1; fill:none" points="1300.92,1423.18 1300.92,47.2441 "/>
<polyline clip-path="url(#clip662)" style="stroke:#000000; stroke-linecap:round; stroke-linejoin:round; stroke-width:2; stroke-opacity:0.1; fill:none" points="1797.1,1423.18 1797.1,47.2441 "/>
<polyline clip-path="url(#clip662)" style="stroke:#000000; stroke-linecap:round; stroke-linejoin:round; stroke-width:2; stroke-opacity:0.1; fill:none" points="2293.27,1423.18 2293.27,47.2441 "/>
<polyline clip-path="url(#clip660)" style="stroke:#000000; stroke-linecap:round; stroke-linejoin:round; stroke-width:4; stroke-opacity:1; fill:none" points="251.071,1423.18 2352.76,1423.18 "/>
<polyline clip-path="url(#clip660)" style="stroke:#000000; stroke-linecap:round; stroke-linejoin:round; stroke-width:4; stroke-opacity:1; fill:none" points="308.568,1423.18 308.568,1404.28 "/>
<polyline clip-path="url(#clip660)" style="stroke:#000000; stroke-linecap:round; stroke-linejoin:round; stroke-width:4; stroke-opacity:1; fill:none" points="804.745,1423.18 804.745,1404.28 "/>
<polyline clip-path="url(#clip660)" style="stroke:#000000; stroke-linecap:round; stroke-linejoin:round; stroke-width:4; stroke-opacity:1; fill:none" points="1300.92,1423.18 1300.92,1404.28 "/>
<polyline clip-path="url(#clip660)" style="stroke:#000000; stroke-linecap:round; stroke-linejoin:round; stroke-width:4; stroke-opacity:1; fill:none" points="1797.1,1423.18 1797.1,1404.28 "/>
<polyline clip-path="url(#clip660)" style="stroke:#000000; stroke-linecap:round; stroke-linejoin:round; stroke-width:4; stroke-opacity:1; fill:none" points="2293.27,1423.18 2293.27,1404.28 "/>
<path clip-path="url(#clip660)" d="M308.568 1454.1 Q304.957 1454.1 303.128 1457.66 Q301.323 1461.2 301.323 1468.33 Q301.323 1475.44 303.128 1479.01 Q304.957 1482.55 308.568 1482.55 Q312.202 1482.55 314.008 1479.01 Q315.837 1475.44 315.837 1468.33 Q315.837 1461.2 314.008 1457.66 Q312.202 1454.1 308.568 1454.1 M308.568 1450.39 Q314.378 1450.39 317.434 1455 Q320.513 1459.58 320.513 1468.33 Q320.513 1477.06 317.434 1481.67 Q314.378 1486.25 308.568 1486.25 Q302.758 1486.25 299.679 1481.67 Q296.624 1477.06 296.624 1468.33 Q296.624 1459.58 299.679 1455 Q302.758 1450.39 308.568 1450.39 Z" fill="#000000" fill-rule="nonzero" fill-opacity="1" /><path clip-path="url(#clip660)" d="M768.437 1481.64 L784.756 1481.64 L784.756 1485.58 L762.812 1485.58 L762.812 1481.64 Q765.474 1478.89 770.057 1474.26 Q774.664 1469.61 775.844 1468.27 Q778.09 1465.74 778.969 1464.01 Q779.872 1462.25 779.872 1460.56 Q779.872 1457.8 777.928 1456.07 Q776.006 1454.33 772.905 1454.33 Q770.706 1454.33 768.252 1455.09 Q765.821 1455.86 763.044 1457.41 L763.044 1452.69 Q765.868 1451.55 768.321 1450.97 Q770.775 1450.39 772.812 1450.39 Q778.182 1450.39 781.377 1453.08 Q784.571 1455.77 784.571 1460.26 Q784.571 1462.39 783.761 1464.31 Q782.974 1466.2 780.868 1468.8 Q780.289 1469.47 777.187 1472.69 Q774.085 1475.88 768.437 1481.64 Z" fill="#000000" fill-rule="nonzero" fill-opacity="1" /><path clip-path="url(#clip660)" d="M794.617 1451.02 L812.974 1451.02 L812.974 1454.96 L798.9 1454.96 L798.9 1463.43 Q799.918 1463.08 800.937 1462.92 Q801.955 1462.73 802.974 1462.73 Q808.761 1462.73 812.14 1465.9 Q815.52 1469.08 815.52 1474.49 Q815.52 1480.07 812.048 1483.17 Q808.576 1486.25 802.256 1486.25 Q800.08 1486.25 797.812 1485.88 Q795.567 1485.51 793.159 1484.77 L793.159 1480.07 Q795.242 1481.2 797.465 1481.76 Q799.687 1482.32 802.164 1482.32 Q806.168 1482.32 808.506 1480.21 Q810.844 1478.1 810.844 1474.49 Q810.844 1470.88 808.506 1468.77 Q806.168 1466.67 802.164 1466.67 Q800.289 1466.67 798.414 1467.08 Q796.562 1467.5 794.617 1468.38 L794.617 1451.02 Z" fill="#000000" fill-rule="nonzero" fill-opacity="1" /><path clip-path="url(#clip660)" d="M834.733 1454.1 Q831.122 1454.1 829.293 1457.66 Q827.488 1461.2 827.488 1468.33 Q827.488 1475.44 829.293 1479.01 Q831.122 1482.55 834.733 1482.55 Q838.367 1482.55 840.173 1479.01 Q842.001 1475.44 842.001 1468.33 Q842.001 1461.2 840.173 1457.66 Q838.367 1454.1 834.733 1454.1 M834.733 1450.39 Q840.543 1450.39 843.599 1455 Q846.677 1459.58 846.677 1468.33 Q846.677 1477.06 843.599 1481.67 Q840.543 1486.25 834.733 1486.25 Q828.923 1486.25 825.844 1481.67 Q822.789 1477.06 822.789 1468.33 Q822.789 1459.58 825.844 1455 Q828.923 1450.39 834.733 1450.39 Z" fill="#000000" fill-rule="nonzero" fill-opacity="1" /><path clip-path="url(#clip660)" d="M1260.54 1451.02 L1278.9 1451.02 L1278.9 1454.96 L1264.82 1454.96 L1264.82 1463.43 Q1265.84 1463.08 1266.86 1462.92 Q1267.88 1462.73 1268.9 1462.73 Q1274.68 1462.73 1278.06 1465.9 Q1281.44 1469.08 1281.44 1474.49 Q1281.44 1480.07 1277.97 1483.17 Q1274.5 1486.25 1268.18 1486.25 Q1266 1486.25 1263.73 1485.88 Q1261.49 1485.51 1259.08 1484.77 L1259.08 1480.07 Q1261.16 1481.2 1263.39 1481.76 Q1265.61 1482.32 1268.09 1482.32 Q1272.09 1482.32 1274.43 1480.21 Q1276.77 1478.1 1276.77 1474.49 Q1276.77 1470.88 1274.43 1468.77 Q1272.09 1466.67 1268.09 1466.67 Q1266.21 1466.67 1264.34 1467.08 Q1262.48 1467.5 1260.54 1468.38 L1260.54 1451.02 Z" fill="#000000" fill-rule="nonzero" fill-opacity="1" /><path clip-path="url(#clip660)" d="M1300.66 1454.1 Q1297.04 1454.1 1295.22 1457.66 Q1293.41 1461.2 1293.41 1468.33 Q1293.41 1475.44 1295.22 1479.01 Q1297.04 1482.55 1300.66 1482.55 Q1304.29 1482.55 1306.09 1479.01 Q1307.92 1475.44 1307.92 1468.33 Q1307.92 1461.2 1306.09 1457.66 Q1304.29 1454.1 1300.66 1454.1 M1300.66 1450.39 Q1306.47 1450.39 1309.52 1455 Q1312.6 1459.58 1312.6 1468.33 Q1312.6 1477.06 1309.52 1481.67 Q1306.47 1486.25 1300.66 1486.25 Q1294.84 1486.25 1291.77 1481.67 Q1288.71 1477.06 1288.71 1468.33 Q1288.71 1459.58 1291.77 1455 Q1294.84 1450.39 1300.66 1450.39 Z" fill="#000000" fill-rule="nonzero" fill-opacity="1" /><path clip-path="url(#clip660)" d="M1330.82 1454.1 Q1327.21 1454.1 1325.38 1457.66 Q1323.57 1461.2 1323.57 1468.33 Q1323.57 1475.44 1325.38 1479.01 Q1327.21 1482.55 1330.82 1482.55 Q1334.45 1482.55 1336.26 1479.01 Q1338.09 1475.44 1338.09 1468.33 Q1338.09 1461.2 1336.26 1457.66 Q1334.45 1454.1 1330.82 1454.1 M1330.82 1450.39 Q1336.63 1450.39 1339.68 1455 Q1342.76 1459.58 1342.76 1468.33 Q1342.76 1477.06 1339.68 1481.67 Q1336.63 1486.25 1330.82 1486.25 Q1325.01 1486.25 1321.93 1481.67 Q1318.87 1477.06 1318.87 1468.33 Q1318.87 1459.58 1321.93 1455 Q1325.01 1450.39 1330.82 1450.39 Z" fill="#000000" fill-rule="nonzero" fill-opacity="1" /><path clip-path="url(#clip660)" d="M1755.37 1451.02 L1777.6 1451.02 L1777.6 1453.01 L1765.05 1485.58 L1760.17 1485.58 L1771.97 1454.96 L1755.37 1454.96 L1755.37 1451.02 Z" fill="#000000" fill-rule="nonzero" fill-opacity="1" /><path clip-path="url(#clip660)" d="M1786.76 1451.02 L1805.12 1451.02 L1805.12 1454.96 L1791.04 1454.96 L1791.04 1463.43 Q1792.06 1463.08 1793.08 1462.92 Q1794.1 1462.73 1795.12 1462.73 Q1800.91 1462.73 1804.29 1465.9 Q1807.66 1469.08 1807.66 1474.49 Q1807.66 1480.07 1804.19 1483.17 Q1800.72 1486.25 1794.4 1486.25 Q1792.23 1486.25 1789.96 1485.88 Q1787.71 1485.51 1785.3 1484.77 L1785.3 1480.07 Q1787.39 1481.2 1789.61 1481.76 Q1791.83 1482.32 1794.31 1482.32 Q1798.31 1482.32 1800.65 1480.21 Q1802.99 1478.1 1802.99 1474.49 Q1802.99 1470.88 1800.65 1468.77 Q1798.31 1466.67 1794.31 1466.67 Q1792.43 1466.67 1790.56 1467.08 Q1788.71 1467.5 1786.76 1468.38 L1786.76 1451.02 Z" fill="#000000" fill-rule="nonzero" fill-opacity="1" /><path clip-path="url(#clip660)" d="M1826.88 1454.1 Q1823.27 1454.1 1821.44 1457.66 Q1819.63 1461.2 1819.63 1468.33 Q1819.63 1475.44 1821.44 1479.01 Q1823.27 1482.55 1826.88 1482.55 Q1830.51 1482.55 1832.32 1479.01 Q1834.15 1475.44 1834.15 1468.33 Q1834.15 1461.2 1832.32 1457.66 Q1830.51 1454.1 1826.88 1454.1 M1826.88 1450.39 Q1832.69 1450.39 1835.74 1455 Q1838.82 1459.58 1838.82 1468.33 Q1838.82 1477.06 1835.74 1481.67 Q1832.69 1486.25 1826.88 1486.25 Q1821.07 1486.25 1817.99 1481.67 Q1814.93 1477.06 1814.93 1468.33 Q1814.93 1459.58 1817.99 1455 Q1821.07 1450.39 1826.88 1450.39 Z" fill="#000000" fill-rule="nonzero" fill-opacity="1" /><path clip-path="url(#clip660)" d="M2237.8 1481.64 L2245.44 1481.64 L2245.44 1455.28 L2237.13 1456.95 L2237.13 1452.69 L2245.39 1451.02 L2250.07 1451.02 L2250.07 1481.64 L2257.71 1481.64 L2257.71 1485.58 L2237.8 1485.58 L2237.8 1481.64 Z" fill="#000000" fill-rule="nonzero" fill-opacity="1" /><path clip-path="url(#clip660)" d="M2277.15 1454.1 Q2273.54 1454.1 2271.71 1457.66 Q2269.91 1461.2 2269.91 1468.33 Q2269.91 1475.44 2271.71 1479.01 Q2273.54 1482.55 2277.15 1482.55 Q2280.79 1482.55 2282.59 1479.01 Q2284.42 1475.44 2284.42 1468.33 Q2284.42 1461.2 2282.59 1457.66 Q2280.79 1454.1 2277.15 1454.1 M2277.15 1450.39 Q2282.96 1450.39 2286.02 1455 Q2289.1 1459.58 2289.1 1468.33 Q2289.1 1477.06 2286.02 1481.67 Q2282.96 1486.25 2277.15 1486.25 Q2271.34 1486.25 2268.26 1481.67 Q2265.21 1477.06 2265.21 1468.33 Q2265.21 1459.58 2268.26 1455 Q2271.34 1450.39 2277.15 1450.39 Z" fill="#000000" fill-rule="nonzero" fill-opacity="1" /><path clip-path="url(#clip660)" d="M2307.31 1454.1 Q2303.7 1454.1 2301.87 1457.66 Q2300.07 1461.2 2300.07 1468.33 Q2300.07 1475.44 2301.87 1479.01 Q2303.7 1482.55 2307.31 1482.55 Q2310.95 1482.55 2312.75 1479.01 Q2314.58 1475.44 2314.58 1468.33 Q2314.58 1461.2 2312.75 1457.66 Q2310.95 1454.1 2307.31 1454.1 M2307.31 1450.39 Q2313.12 1450.39 2316.18 1455 Q2319.26 1459.58 2319.26 1468.33 Q2319.26 1477.06 2316.18 1481.67 Q2313.12 1486.25 2307.31 1486.25 Q2301.5 1486.25 2298.42 1481.67 Q2295.37 1477.06 2295.37 1468.33 Q2295.37 1459.58 2298.42 1455 Q2301.5 1450.39 2307.31 1450.39 Z" fill="#000000" fill-rule="nonzero" fill-opacity="1" /><path clip-path="url(#clip660)" d="M2337.48 1454.1 Q2333.86 1454.1 2332.04 1457.66 Q2330.23 1461.2 2330.23 1468.33 Q2330.23 1475.44 2332.04 1479.01 Q2333.86 1482.55 2337.48 1482.55 Q2341.11 1482.55 2342.92 1479.01 Q2344.74 1475.44 2344.74 1468.33 Q2344.74 1461.2 2342.92 1457.66 Q2341.11 1454.1 2337.48 1454.1 M2337.48 1450.39 Q2343.29 1450.39 2346.34 1455 Q2349.42 1459.58 2349.42 1468.33 Q2349.42 1477.06 2346.34 1481.67 Q2343.29 1486.25 2337.48 1486.25 Q2331.67 1486.25 2328.59 1481.67 Q2325.53 1477.06 2325.53 1468.33 Q2325.53 1459.58 2328.59 1455 Q2331.67 1450.39 2337.48 1450.39 Z" fill="#000000" fill-rule="nonzero" fill-opacity="1" /><path clip-path="url(#clip660)" d="M1208.08 1520.52 L1238.13 1520.52 L1238.13 1525.93 L1214.51 1525.93 L1214.51 1540 L1237.14 1540 L1237.14 1545.41 L1214.51 1545.41 L1214.51 1562.63 L1238.7 1562.63 L1238.7 1568.04 L1208.08 1568.04 L1208.08 1520.52 Z" fill="#000000" fill-rule="nonzero" fill-opacity="1" /><path clip-path="url(#clip660)" d="M1254.68 1562.7 L1254.68 1581.6 L1248.79 1581.6 L1248.79 1532.4 L1254.68 1532.4 L1254.68 1537.81 Q1256.53 1534.62 1259.33 1533.1 Q1262.16 1531.54 1266.07 1531.54 Q1272.57 1531.54 1276.61 1536.69 Q1280.68 1541.85 1280.68 1550.25 Q1280.68 1558.65 1276.61 1563.81 Q1272.57 1568.97 1266.07 1568.97 Q1262.16 1568.97 1259.33 1567.44 Q1256.53 1565.88 1254.68 1562.7 M1274.6 1550.25 Q1274.6 1543.79 1271.93 1540.13 Q1269.29 1536.44 1264.64 1536.44 Q1260 1536.44 1257.32 1540.13 Q1254.68 1543.79 1254.68 1550.25 Q1254.68 1556.71 1257.32 1560.4 Q1260 1564.07 1264.64 1564.07 Q1269.29 1564.07 1271.93 1560.4 Q1274.6 1556.71 1274.6 1550.25 Z" fill="#000000" fill-rule="nonzero" fill-opacity="1" /><path clip-path="url(#clip660)" d="M1304.21 1536.5 Q1299.49 1536.5 1296.76 1540.19 Q1294.02 1543.85 1294.02 1550.25 Q1294.02 1556.65 1296.73 1560.34 Q1299.46 1564 1304.21 1564 Q1308.88 1564 1311.62 1560.31 Q1314.36 1556.62 1314.36 1550.25 Q1314.36 1543.92 1311.62 1540.23 Q1308.88 1536.5 1304.21 1536.5 M1304.21 1531.54 Q1311.84 1531.54 1316.2 1536.5 Q1320.57 1541.47 1320.57 1550.25 Q1320.57 1559 1316.2 1564 Q1311.84 1568.97 1304.21 1568.97 Q1296.53 1568.97 1292.17 1564 Q1287.85 1559 1287.85 1550.25 Q1287.85 1541.47 1292.17 1536.5 Q1296.53 1531.54 1304.21 1531.54 Z" fill="#000000" fill-rule="nonzero" fill-opacity="1" /><path clip-path="url(#clip660)" d="M1355.93 1533.76 L1355.93 1539.24 Q1353.44 1537.87 1350.93 1537.2 Q1348.45 1536.5 1345.9 1536.5 Q1340.2 1536.5 1337.05 1540.13 Q1333.9 1543.73 1333.9 1550.25 Q1333.9 1556.78 1337.05 1560.4 Q1340.2 1564 1345.9 1564 Q1348.45 1564 1350.93 1563.33 Q1353.44 1562.63 1355.93 1561.26 L1355.93 1566.68 Q1353.48 1567.82 1350.83 1568.39 Q1348.22 1568.97 1345.26 1568.97 Q1337.21 1568.97 1332.47 1563.91 Q1327.73 1558.85 1327.73 1550.25 Q1327.73 1541.53 1332.5 1536.53 Q1337.31 1531.54 1345.65 1531.54 Q1348.35 1531.54 1350.93 1532.11 Q1353.51 1532.65 1355.93 1533.76 Z" fill="#000000" fill-rule="nonzero" fill-opacity="1" /><path clip-path="url(#clip660)" d="M1395.74 1546.53 L1395.74 1568.04 L1389.89 1568.04 L1389.89 1546.72 Q1389.89 1541.66 1387.91 1539.14 Q1385.94 1536.63 1381.99 1536.63 Q1377.25 1536.63 1374.51 1539.65 Q1371.78 1542.68 1371.78 1547.9 L1371.78 1568.04 L1365.89 1568.04 L1365.89 1518.52 L1371.78 1518.52 L1371.78 1537.93 Q1373.88 1534.72 1376.71 1533.13 Q1379.58 1531.54 1383.3 1531.54 Q1389.44 1531.54 1392.59 1535.36 Q1395.74 1539.14 1395.74 1546.53 Z" fill="#000000" fill-rule="nonzero" fill-opacity="1" /><polyline clip-path="url(#clip662)" style="stroke:#000000; stroke-linecap:round; stroke-linejoin:round; stroke-width:2; stroke-opacity:0.1; fill:none" points="251.071,1045.77 2352.76,1045.77 "/>
<polyline clip-path="url(#clip662)" style="stroke:#000000; stroke-linecap:round; stroke-linejoin:round; stroke-width:2; stroke-opacity:0.1; fill:none" points="251.071,414.109 2352.76,414.109 "/>
<polyline clip-path="url(#clip660)" style="stroke:#000000; stroke-linecap:round; stroke-linejoin:round; stroke-width:4; stroke-opacity:1; fill:none" points="251.071,1423.18 251.071,47.2441 "/>
<polyline clip-path="url(#clip660)" style="stroke:#000000; stroke-linecap:round; stroke-linejoin:round; stroke-width:4; stroke-opacity:1; fill:none" points="251.071,1045.77 269.969,1045.77 "/>
<polyline clip-path="url(#clip660)" style="stroke:#000000; stroke-linecap:round; stroke-linejoin:round; stroke-width:4; stroke-opacity:1; fill:none" points="251.071,414.109 269.969,414.109 "/>
<path clip-path="url(#clip660)" d="M114.931 1065.56 L122.57 1065.56 L122.57 1039.19 L114.26 1040.86 L114.26 1036.6 L122.524 1034.93 L127.2 1034.93 L127.2 1065.56 L134.839 1065.56 L134.839 1069.49 L114.931 1069.49 L114.931 1065.56 Z" fill="#000000" fill-rule="nonzero" fill-opacity="1" /><path clip-path="url(#clip660)" d="M154.283 1038.01 Q150.672 1038.01 148.843 1041.58 Q147.038 1045.12 147.038 1052.25 Q147.038 1059.35 148.843 1062.92 Q150.672 1066.46 154.283 1066.46 Q157.917 1066.46 159.723 1062.92 Q161.552 1059.35 161.552 1052.25 Q161.552 1045.12 159.723 1041.58 Q157.917 1038.01 154.283 1038.01 M154.283 1034.31 Q160.093 1034.31 163.149 1038.91 Q166.227 1043.5 166.227 1052.25 Q166.227 1060.97 163.149 1065.58 Q160.093 1070.16 154.283 1070.16 Q148.473 1070.16 145.394 1065.58 Q142.339 1060.97 142.339 1052.25 Q142.339 1043.5 145.394 1038.91 Q148.473 1034.31 154.283 1034.31 Z" fill="#000000" fill-rule="nonzero" fill-opacity="1" /><path clip-path="url(#clip660)" d="M166.227 1028.41 L190.339 1028.41 L190.339 1031.61 L166.227 1031.61 L166.227 1028.41 Z" fill="#000000" fill-rule="nonzero" fill-opacity="1" /><path clip-path="url(#clip660)" d="M201.812 1038.89 L215.071 1038.89 L215.071 1042.08 L197.241 1042.08 L197.241 1038.89 Q199.404 1036.65 203.128 1032.89 Q206.871 1029.11 207.83 1028.01 Q209.655 1025.96 210.369 1024.55 Q211.103 1023.12 211.103 1021.75 Q211.103 1019.51 209.523 1018.1 Q207.962 1016.69 205.442 1016.69 Q203.655 1016.69 201.661 1017.31 Q199.686 1017.93 197.43 1019.19 L197.43 1015.36 Q199.724 1014.44 201.718 1013.97 Q203.711 1013.5 205.366 1013.5 Q209.73 1013.5 212.325 1015.68 Q214.921 1017.86 214.921 1021.51 Q214.921 1023.24 214.263 1024.8 Q213.623 1026.34 211.912 1028.45 Q211.441 1028.99 208.921 1031.61 Q206.401 1034.2 201.812 1038.89 Z" fill="#000000" fill-rule="nonzero" fill-opacity="1" /><path clip-path="url(#clip660)" d="M144.366 433.902 L152.004 433.902 L152.004 407.536 L143.694 409.203 L143.694 404.944 L151.958 403.277 L156.634 403.277 L156.634 433.902 L164.273 433.902 L164.273 437.837 L144.366 437.837 L144.366 433.902 Z" fill="#000000" fill-rule="nonzero" fill-opacity="1" /><path clip-path="url(#clip660)" d="M183.717 406.356 Q180.106 406.356 178.277 409.92 Q176.472 413.462 176.472 420.592 Q176.472 427.698 178.277 431.263 Q180.106 434.804 183.717 434.804 Q187.351 434.804 189.157 431.263 Q190.986 427.698 190.986 420.592 Q190.986 413.462 189.157 409.92 Q187.351 406.356 183.717 406.356 M183.717 402.652 Q189.527 402.652 192.583 407.258 Q195.662 411.842 195.662 420.592 Q195.662 429.318 192.583 433.925 Q189.527 438.508 183.717 438.508 Q177.907 438.508 174.828 433.925 Q171.773 429.318 171.773 420.592 Q171.773 411.842 174.828 407.258 Q177.907 402.652 183.717 402.652 Z" fill="#000000" fill-rule="nonzero" fill-opacity="1" /><path clip-path="url(#clip660)" d="M205.366 384.848 Q202.432 384.848 200.947 387.744 Q199.48 390.622 199.48 396.415 Q199.48 402.189 200.947 405.085 Q202.432 407.963 205.366 407.963 Q208.319 407.963 209.786 405.085 Q211.272 402.189 211.272 396.415 Q211.272 390.622 209.786 387.744 Q208.319 384.848 205.366 384.848 M205.366 381.839 Q210.087 381.839 212.57 385.581 Q215.071 389.305 215.071 396.415 Q215.071 403.505 212.57 407.248 Q210.087 410.972 205.366 410.972 Q200.646 410.972 198.144 407.248 Q195.662 403.505 195.662 396.415 Q195.662 389.305 198.144 385.581 Q200.646 381.839 205.366 381.839 Z" fill="#000000" fill-rule="nonzero" fill-opacity="1" /><path clip-path="url(#clip660)" d="M16.4842 953.174 L16.4842 912.974 L21.895 912.974 L21.895 929.843 L64.0042 929.843 L64.0042 936.305 L21.895 936.305 L21.895 953.174 L16.4842 953.174 Z" fill="#000000" fill-rule="nonzero" fill-opacity="1" /><path clip-path="url(#clip660)" d="M33.8307 895.946 Q33.2578 896.933 33.0032 898.11 Q32.7167 899.256 32.7167 900.657 Q32.7167 905.622 35.9632 908.296 Q39.1779 910.937 45.2253 910.937 L64.0042 910.937 L64.0042 916.826 L28.3562 916.826 L28.3562 910.937 L33.8944 910.937 Q30.6479 909.091 29.0883 906.131 Q27.4968 903.171 27.4968 898.938 Q27.4968 898.333 27.5923 897.601 Q27.656 896.869 27.8151 895.978 L33.8307 895.946 Z" fill="#000000" fill-rule="nonzero" fill-opacity="1" /><path clip-path="url(#clip660)" d="M46.0847 873.602 Q46.0847 880.7 47.7079 883.437 Q49.3312 886.175 53.2461 886.175 Q56.3653 886.175 58.2114 884.138 Q60.0256 882.069 60.0256 878.536 Q60.0256 873.666 56.5881 870.738 Q53.1188 867.778 47.3897 867.778 L46.0847 867.778 L46.0847 873.602 M43.6657 861.921 L64.0042 861.921 L64.0042 867.778 L58.5933 867.778 Q61.8398 869.783 63.3994 872.775 Q64.9272 875.767 64.9272 880.095 Q64.9272 885.57 61.8716 888.816 Q58.7843 892.031 53.6281 892.031 Q47.6125 892.031 44.5569 888.021 Q41.5014 883.979 41.5014 875.99 L41.5014 867.778 L40.9285 867.778 Q36.8862 867.778 34.6901 870.451 Q32.4621 873.093 32.4621 877.899 Q32.4621 880.955 33.1941 883.851 Q33.9262 886.748 35.3903 889.421 L29.9795 889.421 Q28.7381 886.207 28.1334 883.183 Q27.4968 880.159 27.4968 877.295 Q27.4968 869.56 31.5072 865.741 Q35.5176 861.921 43.6657 861.921 Z" fill="#000000" fill-rule="nonzero" fill-opacity="1" /><path clip-path="url(#clip660)" d="M28.3562 849.858 L28.3562 844.002 L64.0042 844.002 L64.0042 849.858 L28.3562 849.858 M14.479 849.858 L14.479 844.002 L21.895 844.002 L21.895 849.858 L14.479 849.858 Z" fill="#000000" fill-rule="nonzero" fill-opacity="1" /><path clip-path="url(#clip660)" d="M42.4881 802.116 L64.0042 802.116 L64.0042 807.972 L42.679 807.972 Q37.6183 807.972 35.1038 809.945 Q32.5894 811.919 32.5894 815.865 Q32.5894 820.608 35.6131 823.345 Q38.6368 826.082 43.8567 826.082 L64.0042 826.082 L64.0042 831.971 L28.3562 831.971 L28.3562 826.082 L33.8944 826.082 Q30.6797 823.982 29.0883 821.149 Q27.4968 818.284 27.4968 814.561 Q27.4968 808.418 31.3163 805.267 Q35.1038 802.116 42.4881 802.116 Z" fill="#000000" fill-rule="nonzero" fill-opacity="1" /><path clip-path="url(#clip660)" d="M28.3562 790.434 L28.3562 784.578 L64.0042 784.578 L64.0042 790.434 L28.3562 790.434 M14.479 790.434 L14.479 784.578 L21.895 784.578 L21.895 790.434 L14.479 790.434 Z" fill="#000000" fill-rule="nonzero" fill-opacity="1" /><path clip-path="url(#clip660)" d="M42.4881 742.692 L64.0042 742.692 L64.0042 748.548 L42.679 748.548 Q37.6183 748.548 35.1038 750.521 Q32.5894 752.495 32.5894 756.442 Q32.5894 761.184 35.6131 763.921 Q38.6368 766.659 43.8567 766.659 L64.0042 766.659 L64.0042 772.547 L28.3562 772.547 L28.3562 766.659 L33.8944 766.659 Q30.6797 764.558 29.0883 761.725 Q27.4968 758.861 27.4968 755.137 Q27.4968 748.994 31.3163 745.843 Q35.1038 742.692 42.4881 742.692 Z" fill="#000000" fill-rule="nonzero" fill-opacity="1" /><path clip-path="url(#clip660)" d="M45.7664 707.553 Q39.4007 707.553 35.8996 710.195 Q32.3984 712.805 32.3984 717.547 Q32.3984 722.258 35.8996 724.9 Q39.4007 727.509 45.7664 727.509 Q52.1003 727.509 55.6014 724.9 Q59.1026 722.258 59.1026 717.547 Q59.1026 712.805 55.6014 710.195 Q52.1003 707.553 45.7664 707.553 M59.58 701.697 Q68.683 701.697 73.1071 705.739 Q77.5631 709.781 77.5631 718.12 Q77.5631 721.207 77.0857 723.945 Q76.6401 726.682 75.6852 729.26 L69.9879 729.26 Q71.3884 726.682 72.0568 724.167 Q72.7252 721.653 72.7252 719.043 Q72.7252 713.282 69.7015 710.418 Q66.7096 707.553 60.6303 707.553 L57.7339 707.553 Q60.885 709.367 62.4446 712.2 Q64.0042 715.033 64.0042 718.979 Q64.0042 725.536 59.0071 729.546 Q54.01 733.557 45.7664 733.557 Q37.491 733.557 32.4939 729.546 Q27.4968 725.536 27.4968 718.979 Q27.4968 715.033 29.0564 712.2 Q30.616 709.367 33.7671 707.553 L28.3562 707.553 L28.3562 701.697 L59.58 701.697 Z" fill="#000000" fill-rule="nonzero" fill-opacity="1" /><path clip-path="url(#clip660)" d="M44.7161 638.421 L47.5806 638.421 L47.5806 665.348 Q53.6281 664.966 56.8109 661.72 Q59.9619 658.442 59.9619 652.617 Q59.9619 649.243 59.1344 646.092 Q58.3069 642.909 56.6518 639.79 L62.1899 639.79 Q63.5267 642.941 64.227 646.251 Q64.9272 649.561 64.9272 652.967 Q64.9272 661.497 59.9619 666.494 Q54.9967 671.459 46.5303 671.459 Q37.7774 671.459 32.6531 666.749 Q27.4968 662.006 27.4968 653.986 Q27.4968 646.792 32.1438 642.623 Q36.7589 638.421 44.7161 638.421 M42.9973 644.278 Q38.1912 644.342 35.3266 646.983 Q32.4621 649.593 32.4621 653.922 Q32.4621 658.823 35.2312 661.784 Q38.0002 664.712 43.0292 665.157 L42.9973 644.278 Z" fill="#000000" fill-rule="nonzero" fill-opacity="1" /><path clip-path="url(#clip660)" d="M33.8307 608.152 Q33.2578 609.139 33.0032 610.317 Q32.7167 611.463 32.7167 612.863 Q32.7167 617.828 35.9632 620.502 Q39.1779 623.144 45.2253 623.144 L64.0042 623.144 L64.0042 629.032 L28.3562 629.032 L28.3562 623.144 L33.8944 623.144 Q30.6479 621.298 29.0883 618.338 Q27.4968 615.378 27.4968 611.144 Q27.4968 610.54 27.5923 609.808 Q27.656 609.075 27.8151 608.184 L33.8307 608.152 Z" fill="#000000" fill-rule="nonzero" fill-opacity="1" /><path clip-path="url(#clip660)" d="M33.8307 582.499 Q33.2578 583.485 33.0032 584.663 Q32.7167 585.809 32.7167 587.209 Q32.7167 592.175 35.9632 594.848 Q39.1779 597.49 45.2253 597.49 L64.0042 597.49 L64.0042 603.378 L28.3562 603.378 L28.3562 597.49 L33.8944 597.49 Q30.6479 595.644 29.0883 592.684 Q27.4968 589.724 27.4968 585.491 Q27.4968 584.886 27.5923 584.154 Q27.656 583.422 27.8151 582.53 L33.8307 582.499 Z" fill="#000000" fill-rule="nonzero" fill-opacity="1" /><path clip-path="url(#clip660)" d="M32.4621 563.974 Q32.4621 568.685 36.1542 571.422 Q39.8145 574.16 46.212 574.16 Q52.6095 574.16 56.3017 571.454 Q59.9619 568.717 59.9619 563.974 Q59.9619 559.296 56.2698 556.558 Q52.5777 553.821 46.212 553.821 Q39.8781 553.821 36.186 556.558 Q32.4621 559.296 32.4621 563.974 M27.4968 563.974 Q27.4968 556.336 32.4621 551.975 Q37.4273 547.615 46.212 547.615 Q54.9649 547.615 59.9619 551.975 Q64.9272 556.336 64.9272 563.974 Q64.9272 571.645 59.9619 576.006 Q54.9649 580.334 46.212 580.334 Q37.4273 580.334 32.4621 576.006 Q27.4968 571.645 27.4968 563.974 Z" fill="#000000" fill-rule="nonzero" fill-opacity="1" /><path clip-path="url(#clip660)" d="M33.8307 517.25 Q33.2578 518.237 33.0032 519.415 Q32.7167 520.56 32.7167 521.961 Q32.7167 526.926 35.9632 529.6 Q39.1779 532.241 45.2253 532.241 L64.0042 532.241 L64.0042 538.13 L28.3562 538.13 L28.3562 532.241 L33.8944 532.241 Q30.6479 530.395 29.0883 527.435 Q27.4968 524.475 27.4968 520.242 Q27.4968 519.637 27.5923 518.905 Q27.656 518.173 27.8151 517.282 L33.8307 517.25 Z" fill="#000000" fill-rule="nonzero" fill-opacity="1" /><polyline clip-path="url(#clip662)" style="stroke:#3da44d; stroke-linecap:round; stroke-linejoin:round; stroke-width:4; stroke-opacity:1; fill:none" points="310.553,486.972 312.538,497.998 314.522,510.394 316.507,522.316 318.492,534.566 320.476,548.019 322.461,560.869 324.446,574.079 326.431,590.141 328.415,605.468 330.4,623.417 332.385,642.383 334.369,662.031 336.354,685.82 338.339,712.981 340.323,747.452 342.308,791.358 344.293,852.793 346.278,951.292 348.262,995.057 350.247,996 352.232,1011.8 354.216,1015.53 356.201,1020.05 358.186,1022.24 360.171,1022.94 362.155,1023.3 364.14,1025.99 366.125,1026.08 368.109,1027.26 370.094,1026.81 372.079,1028.18 374.063,1029.66 376.048,1031.25 378.033,1030.97 380.018,1033.92 382.002,1032.48 383.987,1036.24 385.972,1037.12 387.956,1039.7 389.941,1042.94 391.926,1043.56 393.911,1044.49 395.895,1047.63 397.88,1049.45 399.865,1053.15 401.849,1056.05 403.834,1059.25 405.819,1061.34 407.803,1063.83 409.788,1066.97 411.773,1070.18 413.758,1075.93 415.742,1078.03 417.727,1080.36 419.712,1083.7 421.696,1088.34 423.681,1094.17 425.666,1097.94 427.651,1104.93 429.635,1113.74 431.62,1120.61 433.605,1129.76 435.589,1139.46 437.574,1153.52 439.559,1171.65 441.543,1196.66 443.528,1218.98 445.513,1247.33 447.498,1278.77 449.482,1296.45 451.467,1294.35 453.452,1279.92 455.436,1300.58 457.421,1319.23 459.406,1330.54 461.391,1332.75 463.375,1336.84 465.36,1340.83 467.345,1344.93 469.329,1327.34 471.314,1347.39 473.299,1349.29 475.283,1340.94 477.268,1348.1 479.253,1345.17 481.238,1351.09 483.222,1355.9 485.207,1348.81 487.192,1352.19 489.176,1351.58 491.161,1354.03 493.146,1356.03 495.131,1356.03 497.115,1356.66 499.1,1351.94 501.085,1361.54 503.069,1363.78 505.054,1361.28 507.039,1361.67 509.023,1365.18 511.008,1362.19 512.993,1358.56 514.978,1357.8 516.962,1360.11 518.947,1343.21 520.932,1357.93 522.916,1361.15 524.901,1364.05 526.886,1343.09 528.871,1345.98 530.855,1350.13 532.84,1358.95 534.825,1357.8 536.809,1362.46 538.794,1361.15 540.779,1360.11 542.764,1360.89 544.748,1363.65 546.733,1364.58 548.718,1364.85 550.702,1366.06 552.687,1364.85 554.672,1362.59 556.656,1358.95 558.641,1358.95 560.626,1362.46 562.611,1361.54 564.595,1356.78 566.58,1356.41 568.565,1343.67 570.549,1363.38 572.534,1367.28 574.519,1369.48 576.504,1362.98 578.488,1335.75 580.473,1353.91 582.458,1322.24 584.442,1359.59 586.427,1361.28 588.412,1362.19 590.396,1354.78 592.381,1364.85 594.366,1368.44 596.351,1369.2 598.335,1370.31 600.32,1366.53 602.305,1365.92 604.289,1366.19 606.274,1371.78 608.259,1371.15 610.244,1370.94 612.228,1365.32 614.213,1362.59 616.198,1358.95 618.182,1365.79 620.167,1367.83 622.152,1368.24 624.136,1348.22 626.121,1343.67 628.106,1357.54 630.091,1365.12 632.075,1339.26 634.06,1330.85 636.045,1315.82 638.029,1331.69 640.014,1336.18 641.999,1341.39 643.984,1354.03 645.968,1369.96 647.953,1349.41 649.938,1367.35 651.922,1368.58 653.907,1365.92 655.892,1355.9 657.876,1362.46 659.861,1368.72 661.846,1370.8 663.831,1373.06 665.815,1372.56 667.8,1367.28 669.785,1361.8 671.769,1370.59 673.754,1369.55 675.739,1366.06 677.724,1360.89 679.708,1349.77 681.693,1324.52 683.678,1318.56 685.662,1336.18 687.647,1336.29 689.632,1358.31 691.616,1355.4 693.601,1371.29 695.586,1365.79 697.571,1341.16 699.555,1364.71 701.54,1369.2 703.525,1372.84 705.509,1365.59 707.494,1364.45 709.479,1372.42 711.464,1364.98 713.448,1365.18 715.433,1368.58 717.418,1368.72 719.402,1360.63 721.387,1350.73 723.372,1371.29 725.356,1368.72 727.341,1362.85 729.326,1356.15 731.311,1306.14 733.295,1328.06 735.28,1351.34 737.265,1364.45 739.249,1372.07 741.234,1371.92 743.219,1349.17 745.204,1358.56 747.188,1366.74 749.173,1369.2 751.158,1369.06 753.142,1367.28 755.127,1360.63 757.112,1338.26 759.096,1325.12 761.081,1317.61 763.066,1352.19 765.051,1368.72 767.035,1370.03 769.02,1373.56 771.005,1373.2 772.989,1366.26 774.974,1363.25 776.959,1368.37 778.944,1373.7 780.928,1376.37 782.913,1376.15 784.898,1361.67 786.882,1343.55 788.867,1331.69 790.852,1325.02 792.836,1341.73 794.821,1341.05 796.806,1336.73 798.791,1364.45 800.775,1366.74 802.76,1367.01 804.745,1364.31 806.729,1363.91 808.714,1367.48 810.699,1358.05 812.684,1346.92 814.668,1319.14 816.653,1362.06 818.638,1364.58 820.622,1363.91 822.607,1370.45 824.592,1364.45 826.576,1368.44 828.561,1359.72 830.546,1367.62 832.531,1366.74 834.515,1367.01 836.5,1367.14 838.485,1357.67 840.469,1349.17 842.454,1328.68 844.439,1334.67 846.424,1342.52 848.408,1359.08 850.393,1361.28 852.378,1363.91 854.362,1364.85 856.347,1368.72 858.332,1365.45 860.316,1366.26 862.301,1370.03 864.286,1366.26 866.271,1331.27 868.255,1325.82 870.24,1328.78 872.225,1356.03 874.209,1362.19 876.194,1362.72 878.179,1365.79 880.164,1368.58 882.148,1370.17 884.133,1368.86 886.118,1366.19 888.102,1370.66 890.087,1371.78 892.072,1364.71 894.056,1369.2 896.041,1369.55 898.026,1371.43 900.011,1367.28 901.995,1361.54 903.98,1362.19 905.965,1344.82 907.949,1339.04 909.934,1330.64 911.919,1305.27 913.904,1337.38 915.888,1365.92 917.873,1365.65 919.858,1361.15 921.842,1363.25 923.827,1362.59 925.812,1366.87 927.796,1372.07 929.781,1370.31 931.766,1364.45 933.751,1366.06 935.735,1371.43 937.72,1371.29 939.705,1367.83 941.689,1370.31 943.674,1366.19 945.659,1372.07 947.644,1376.3 949.628,1350.13 951.613,1332.96 953.598,1361.54 955.582,1365.12 957.567,1369.48 959.552,1366.26 961.536,1356.41 963.521,1345.4 965.506,1321.95 967.491,1332.01 969.475,1327.96 971.46,1325.02 973.445,1328.68 975.429,1347.15 977.414,1361.15 979.399,1366.53 981.384,1370.59 983.368,1369.96 985.353,1366.26 987.338,1371.71 989.322,1373.41 991.307,1370.31 993.292,1368.24 995.276,1365.32 997.261,1372.21 999.246,1370.66 1001.23,1331.59 1003.22,1316 1005.2,1327.85 1007.18,1321.56 1009.17,1344.47 1011.15,1357.29 1013.14,1360.89 1015.12,1363.12 1017.11,1374.49 1019.09,1367.14 1021.08,1357.93 1023.06,1336.95 1025.05,1338.71 1027.03,1337.05 1029.02,1325.12 1031,1351.82 1032.99,1363.51 1034.97,1368.37 1036.96,1364.45 1038.94,1368.58 1040.92,1369.69 1042.91,1370.66 1044.89,1369.48 1046.88,1373.41 1048.86,1373.2 1050.85,1372.28 1052.83,1364.45 1054.82,1361.54 1056.8,1372.92 1058.79,1369.55 1060.77,1371.08 1062.76,1369.2 1064.74,1374.85 1066.73,1374.2 1068.71,1375.35 1070.7,1345.75 1072.68,1332.11 1074.66,1333.28 1076.65,1338.04 1078.63,1351.09 1080.62,1360.63 1082.6,1362.46 1084.59,1356.53 1086.57,1368.58 1088.56,1376 1090.54,1369.96 1092.53,1366.06 1094.51,1374.34 1096.5,1377.47 1098.48,1375.14 1100.47,1368.93 1102.45,1369.83 1104.44,1365.59 1106.42,1362.59 1108.4,1369.83 1110.39,1365.79 1112.37,1351.7 1114.36,1359.59 1116.34,1361.8 1118.33,1368.93 1120.31,1376.51 1122.3,1379.91 1124.28,1379.16 1126.27,1378.87 1128.25,1368.93 1130.24,1372.56 1132.22,1366.26 1134.21,1370.66 1136.19,1364.31 1138.18,1344.36 1140.16,1368.1 1142.14,1365.79 1144.13,1328.26 1146.11,1339.82 1148.1,1362.72 1150.08,1362.72 1152.07,1371.29 1154.05,1365.59 1156.04,1367.62 1158.02,1371.43 1160.01,1374.56 1161.99,1376.66 1163.98,1375.14 1165.96,1376.37 1167.95,1371.43 1169.93,1369.2 1171.92,1370.59 1173.9,1374.34 1175.88,1370.66 1177.87,1336.51 1179.85,1347.27 1181.84,1326.43 1183.82,1326.73 1185.81,1334.88 1187.79,1333.39 1189.78,1344.47 1191.76,1338.37 1193.75,1334.03 1195.73,1322.24 1197.72,1342.18 1199.7,1367.14 1201.69,1380.43 1203.67,1375.14 1205.66,1372.28 1207.64,1372.84 1209.62,1376.3 1211.61,1367.35 1213.59,1359.33 1215.58,1363.38 1217.56,1367.62 1219.55,1362.19 1221.53,1366.19 1223.52,1370.8 1225.5,1371.57 1227.49,1371.29 1229.47,1376 1231.46,1373.7 1233.44,1362.72 1235.43,1345.75 1237.41,1361.41 1239.4,1371.08 1241.38,1367.76 1243.36,1364.98 1245.35,1367.01 1247.33,1368.72 1249.32,1362.46 1251.3,1365.12 1253.29,1368.24 1255.27,1350.85 1257.26,1369.69 1259.24,1374.2 1261.23,1369.06 1263.21,1353.42 1265.2,1327.65 1267.18,1315.26 1269.17,1328.37 1271.15,1354.28 1273.14,1356.53 1275.12,1368.24 1277.1,1369.48 1279.09,1369.55 1281.07,1374.49 1283.06,1371.15 1285.04,1371.78 1287.03,1367.14 1289.01,1374.34 1291,1374.56 1292.98,1366.19 1294.97,1320.2 1296.95,1328.47 1298.94,1325.42 1300.92,1330.85 1302.91,1361.15 1304.89,1365.32 1306.88,1369.2 1308.86,1372.42 1310.84,1370.94 1312.83,1375.21 1314.81,1373.41 1316.8,1370.66 1318.78,1368.72 1320.77,1367.96 1322.75,1318.56 1324.74,1343.55 1326.72,1358.44 1328.71,1370.66 1330.69,1375.35 1332.68,1353.66 1334.66,1362.46 1336.65,1353.79 1338.63,1344.93 1340.62,1365.59 1342.6,1367.62 1344.58,1366.67 1346.57,1368.24 1348.55,1366.4 1350.54,1373.7 1352.52,1376.66 1354.51,1377.69 1356.49,1376.15 1358.48,1375.64 1360.46,1370.8 1362.45,1373.41 1364.43,1376 1366.42,1377.69 1368.4,1375.5 1370.39,1368.86 1372.37,1342.64 1374.36,1365.12 1376.34,1375.14 1378.32,1361.54 1380.31,1351.34 1382.29,1377.03 1384.28,1368.24 1386.26,1365.12 1388.25,1371.92 1390.23,1364.18 1392.22,1321.56 1394.2,1322.64 1396.19,1336.4 1398.17,1350.13 1400.16,1334.88 1402.14,1331.48 1404.13,1340.49 1406.11,1336.4 1408.1,1330.96 1410.08,1327.24 1412.06,1334.67 1414.05,1325.72 1416.03,1351.09 1418.02,1327.04 1420,1329.09 1421.99,1357.04 1423.97,1366.06 1425.96,1367.83 1427.94,1361.54 1429.93,1367.96 1431.91,1357.93 1433.9,1367.96 1435.88,1368.86 1437.87,1375.64 1439.85,1377.17 1441.84,1374.2 1443.82,1376.51 1445.8,1372.28 1447.79,1375.86 1449.77,1381.19 1451.76,1374.06 1453.74,1378.72 1455.73,1367.35 1457.71,1361.8 1459.7,1362.33 1461.68,1361.41 1463.67,1375.21 1465.65,1372.21 1467.64,1369.83 1469.62,1367.62 1471.61,1369.48 1473.59,1374.99 1475.58,1374.99 1477.56,1367.01 1479.54,1361.15 1481.53,1320.97 1483.51,1319.04 1485.5,1357.04 1487.48,1345.4 1489.47,1363.25 1491.45,1375.35 1493.44,1379.39 1495.42,1378.05 1497.41,1375.64 1499.39,1373.99 1501.38,1375.21 1503.36,1373.41 1505.35,1352.31 1507.33,1334.45 1509.32,1355.4 1511.3,1363.25 1513.28,1369.96 1515.27,1370.8 1517.25,1372.07 1519.24,1371.71 1521.22,1380.06 1523.21,1377.83 1525.19,1382.1 1527.18,1376.51 1529.16,1370.17 1531.15,1326.03 1533.13,1337.93 1535.12,1358.05 1537.1,1365.32 1539.09,1347.98 1541.07,1371.08 1543.06,1374.49 1545.04,1377.17 1547.02,1369.06 1549.01,1369.34 1550.99,1361.15 1552.98,1364.45 1554.96,1350.85 1556.95,1373.34 1558.93,1368.93 1560.92,1373.99 1562.9,1371.43 1564.89,1371.57 1566.87,1332.64 1568.86,1372.56 1570.84,1373.34 1572.83,1374.99 1574.81,1327.24 1576.8,1303.8 1578.78,1348.69 1580.76,1368.93 1582.75,1377.47 1584.73,1372.21 1586.72,1347.98 1588.7,1329.71 1590.69,1341.84 1592.67,1323.13 1594.66,1293.87 1596.64,1317.32 1598.63,1335.75 1600.61,1336.73 1602.6,1330.75 1604.58,1329.19 1606.57,1337.27 1608.55,1333.07 1610.54,1325.82 1612.52,1355.03 1614.5,1370.45 1616.49,1374.7 1618.47,1375.14 1620.46,1371.43 1622.44,1381.56 1624.43,1375.5 1626.41,1369.06 1628.4,1368.1 1630.38,1359.98 1632.37,1367.35 1634.35,1369.48 1636.34,1379.39 1638.32,1380.43 1640.31,1382.86 1642.29,1378.2 1644.28,1381.11 1646.26,1380.21 1648.24,1381.49 1650.23,1380.89 1652.21,1381.87 1654.2,1378.2 1656.18,1369.55 1658.17,1358.05 1660.15,1326.63 1662.14,1334.67 1664.12,1324.42 1666.11,1330.64 1668.09,1359.08 1670.08,1362.59 1672.06,1366.26 1674.05,1376.66 1676.03,1380.43 1678.02,1374.99 1680,1378.72 1681.98,1380.06 1683.97,1383.09 1685.95,1381.94 1687.94,1381.94 1689.92,1381.72 1691.91,1346.1 1693.89,1329.4 1695.88,1349.17 1697.86,1370.59 1699.85,1376.3 1701.83,1381.41 1703.82,1367.48 1705.8,1367.01 1707.79,1375.64 1709.77,1365.45 1711.76,1361.15 1713.74,1368.1 1715.72,1368.44 1717.71,1370.45 1719.69,1371.71 1721.68,1370.59 1723.66,1379.69 1725.65,1375.86 1727.63,1363.51 1729.62,1370.03 1731.6,1329.92 1733.59,1319.23 1735.57,1314.05 1737.56,1328.57 1739.54,1333.49 1741.53,1340.26 1743.51,1373.34 1745.5,1362.19 1747.48,1368.1 1749.46,1367.62 1751.45,1373.56 1753.43,1373.99 1755.42,1378.72 1757.4,1379.54 1759.39,1339.26 1761.37,1336.4 1763.36,1322.34 1765.34,1336.95 1767.33,1324.62 1769.31,1328.06 1771.3,1328.06 1773.28,1335.1 1775.27,1330.44 1777.25,1358.56 1779.24,1372.7 1781.22,1359.72 1783.2,1365.92 1785.19,1358.31 1787.17,1368.24 1789.16,1332.64 1791.14,1364.58 1793.13,1377.69 1795.11,1375.35 1797.1,1371.71 1799.08,1373.41 1801.07,1376.37 1803.05,1376.88 1805.04,1372.56 1807.02,1375.86 1809.01,1376 1810.99,1373.2 1812.98,1379.39 1814.96,1383.47 1816.94,1382.63 1818.93,1384.24 1820.91,1376.88 1822.9,1361.41 1824.88,1365.59 1826.87,1384.01 1828.85,1383.62 1830.84,1379.91 1832.82,1378.87 1834.81,1381.41 1836.79,1362.33 1838.78,1360.24 1840.76,1374.7 1842.75,1355.03 1844.73,1382.25 1846.72,1371.78 1848.7,1367.48 1850.68,1369.83 1852.67,1341.95 1854.65,1322.83 1856.64,1333.71 1858.62,1357.04 1860.61,1377.03 1862.59,1375.21 1864.58,1376.15 1866.56,1378.05 1868.55,1380.58 1870.53,1377.54 1872.52,1376.66 1874.5,1374.99 1876.49,1368.44 1878.47,1376.15 1880.46,1360.24 1882.44,1351.58 1884.42,1376 1886.41,1375.35 1888.39,1339.93 1890.38,1366.06 1892.36,1374.06 1894.35,1362.72 1896.33,1372.07 1898.32,1373.84 1900.3,1360.63 1902.29,1372.21 1904.27,1378.65 1906.26,1368.93 1908.24,1364.85 1910.23,1370.31 1912.21,1368.44 1914.2,1379.02 1916.18,1377.98 1918.16,1345.98 1920.15,1313.22 1922.13,1303.21 1924.12,1305.79 1926.1,1304.67 1928.09,1354.03 1930.07,1361.41 1932.06,1363.91 1934.04,1364.05 1936.03,1368.1 1938.01,1369.69 1940,1377.17 1941.98,1372.28 1943.97,1377.47 1945.95,1378.72 1947.94,1373.7 1949.92,1374.34 1951.9,1374.06 1953.89,1376.51 1955.87,1372.07 1957.86,1346.33 1959.84,1331.06 1961.83,1341.28 1963.81,1362.59 1965.8,1369.48 1967.78,1360.5 1969.77,1366.26 1971.75,1365.12 1973.74,1382.1 1975.72,1379.91 1977.71,1381.19 1979.69,1375.86 1981.68,1374.99 1983.66,1367.01 1985.64,1374.2 1987.63,1379.39 1989.61,1362.72 1991.6,1360.89 1993.58,1366.26 1995.57,1368.1 1997.55,1349.17 1999.54,1366.26 2001.52,1372.28 2003.51,1380.06 2005.49,1377.17 2007.48,1360.11 2009.46,1355.28 2011.45,1370.17 2013.43,1381.87 2015.42,1376.66 2017.4,1380.21 2019.38,1381.04 2021.37,1373.34 2023.35,1368.1 2025.34,1374.34 2027.32,1376.81 2029.31,1363.65 2031.29,1371.15 2033.28,1365.18 2035.26,1372.28 2037.25,1374.06 2039.23,1337.27 2041.22,1329.4 2043.2,1325.32 2045.19,1330.96 2047.17,1333.39 2049.16,1370.17 2051.14,1379.39 2053.12,1370.8 2055.11,1374.06 2057.09,1374.56 2059.08,1378.5 2061.06,1376.66 2063.05,1376.37 2065.03,1376.3 2067.02,1375.21 2069,1368.93 2070.99,1334.99 2072.97,1330.23 2074.96,1354.78 2076.94,1369.96 2078.93,1377.17 2080.91,1370.17 2082.9,1377.17 2084.88,1379.69 2086.86,1381.72 2088.85,1376.81 2090.83,1377.98 2092.82,1381.41 2094.8,1377.32 2096.79,1364.31 2098.77,1362.06 2100.76,1358.82 2102.74,1348.22 2104.73,1341.5 2106.71,1336.4 2108.7,1328.26 2110.68,1365.59 2112.67,1379.39 2114.65,1374.2 2116.64,1362.19 2118.62,1371.92 2120.6,1369.83 2122.59,1369.55 2124.57,1362.98 2126.56,1368.37 2128.54,1370.8 2130.53,1378.72 2132.51,1380.36 2134.5,1382.25 2136.48,1378.87 2138.47,1376.3 2140.45,1381.49 2142.44,1380.58 2144.42,1374.06 2146.41,1358.69 2148.39,1379.91 2150.38,1377.54 2152.36,1365.32 2154.34,1368.93 2156.33,1375.86 2158.31,1382.93 2160.3,1365.18 2162.28,1352.8 2164.27,1376.51 2166.25,1371.78 2168.24,1371.71 2170.22,1367.62 2172.21,1378.05 2174.19,1374.2 2176.18,1376.88 2178.16,1371.15 2180.15,1373.34 2182.13,1366.53 2184.12,1367.96 2186.1,1373.41 2188.08,1373.7 2190.07,1370.94 2192.05,1335.42 2194.04,1353.05 2196.02,1378.87 2198.01,1380.36 2199.99,1377.54 2201.98,1375.86 2203.96,1376 2205.95,1368.86 2207.93,1370.03 2209.92,1371.29 2211.9,1379.54 2213.89,1379.54 2215.87,1375.35 2217.86,1373.06 2219.84,1369.2 2221.82,1363.91 2223.81,1361.54 2225.79,1347.86 2227.78,1358.82 2229.76,1364.58 2231.75,1337.16 2233.73,1354.03 2235.72,1374.34 2237.7,1372.28 2239.69,1380.06 2241.67,1383.47 2243.66,1381.72 2245.64,1381.79 2247.63,1372.28 2249.61,1376.88 2251.6,1382.93 2253.58,1375.21 2255.56,1374.34 2257.55,1376 2259.53,1374.34 2261.52,1373.2 2263.5,1378.87 2265.49,1379.16 2267.47,1379.54 2269.46,1367.01 2271.44,1299.66 2273.43,1308.61 2275.41,1330.54 2277.4,1341.73 2279.38,1367.35 2281.37,1372.28 2283.35,1379.16 2285.34,1376.66 2287.32,1367.76 2289.3,1372.28 2291.29,1372.84 2293.27,1382.25 "/>
<polyline clip-path="url(#clip662)" style="stroke:#e26f46; stroke-linecap:round; stroke-linejoin:round; stroke-width:4; stroke-opacity:1; fill:none" points="310.553,86.1857 312.538,93.1283 314.522,99.2488 316.507,106.905 318.492,114.651 320.476,122.221 322.461,130.912 324.446,138.026 326.431,146.745 328.415,155.974 330.4,163.263 332.385,170.417 334.369,179.699 336.354,186.663 338.339,193.892 340.323,201.069 342.308,207.331 344.293,214.391 346.278,220.262 348.262,225.308 350.247,230.196 352.232,234.612 354.216,240.151 356.201,243.662 358.186,248.862 360.171,252.03 362.155,257.052 364.14,259.808 366.125,263.153 368.109,265.581 370.094,268.886 372.079,271.04 374.063,274.385 376.048,276.726 378.033,280.517 380.018,282.658 382.002,283.793 383.987,286.302 385.972,289.289 387.956,291.462 389.941,292.562 391.926,293.671 393.911,295.464 395.895,296.256 397.88,298.89 399.865,300.285 401.849,300.871 403.834,301.223 405.819,303.238 407.803,303.836 409.788,305.646 411.773,306.133 413.758,307.481 415.742,308.718 417.727,309.966 419.712,310.594 421.696,310.72 423.681,311.352 425.666,312.241 427.651,313.137 429.635,313.393 431.62,314.038 433.605,314.685 435.589,315.727 437.574,315.727 439.559,316.382 441.543,316.645 443.528,317.041 445.513,317.437 447.498,317.835 449.482,318.501 451.467,318.902 453.452,319.169 455.436,319.774 457.421,319.774 459.406,319.976 461.391,320.382 463.375,321.06 465.36,321.196 467.345,321.468 469.329,321.809 471.314,322.151 473.299,322.632 475.283,323.39 477.268,324.014 479.253,324.362 481.238,324.64 483.222,325.27 485.207,325.972 487.192,326.396 489.176,327.104 491.161,328.031 493.146,328.748 495.131,329.685 497.115,330.995 499.1,331.874 501.085,333.427 503.069,335.677 505.054,337.274 507.039,338.89 509.023,341.943 511.008,346.04 512.993,350.684 514.978,355.929 516.962,362.665 518.947,371.113 520.932,379.907 522.916,391.557 524.901,401.573 526.886,410.932 528.871,418.188 530.855,423.965 532.84,428.799 534.825,432.808 536.809,436.622 538.794,439.654 540.779,443.168 542.764,445.674 544.748,447.712 546.733,449.955 548.718,452.324 550.702,454.644 552.687,455.457 554.672,457.647 556.656,460.06 558.641,461.945 560.626,464.532 562.611,465.406 564.595,467.465 566.58,468.956 568.565,471.171 570.549,470.867 572.534,473.011 574.519,475.608 576.504,476.344 578.488,477.615 580.473,479.436 582.458,480.736 584.442,481.61 586.427,483.819 588.412,485.161 590.396,488.001 592.381,489.734 594.366,491.96 596.351,493.624 598.335,494.946 600.32,497.014 602.305,500.616 604.289,502.134 606.274,504.703 608.259,506.793 610.244,509.653 612.228,511.82 614.213,514.997 616.198,518.393 618.182,521.361 620.167,524.246 622.152,528.112 624.136,530.282 626.121,534.486 628.106,537.005 630.091,541.678 632.075,545.465 634.06,549.089 636.045,553.274 638.029,556.829 640.014,561.065 641.999,565.84 643.984,570.577 645.968,574.51 647.953,579.115 649.938,584.112 651.922,588.101 653.907,593.815 655.892,599.259 657.876,602.791 659.861,609.235 661.846,614.113 663.831,619.096 665.815,625.747 667.8,632.326 669.785,637.518 671.769,644.342 673.754,650.489 675.739,656.334 677.724,664.503 679.708,670.884 681.693,679.301 683.678,685.577 685.662,693.817 687.647,700.744 689.632,709.691 691.616,716.579 693.601,724.633 695.586,732.506 697.571,739.776 699.555,747.072 701.54,753.48 703.525,759.681 705.509,767.38 707.494,772.993 709.479,780.047 711.464,785.837 713.448,789.924 715.433,796.293 717.418,800.849 719.402,805.417 721.387,808.573 723.372,813.41 725.356,816.444 727.341,818.904 729.326,823.215 731.311,825.548 733.295,827.239 735.28,829.211 737.265,829.816 739.249,831.913 741.234,836.751 743.219,836.842 745.204,838.587 747.188,838.218 749.173,841.389 751.158,843.193 753.142,844.345 755.127,846.286 757.112,847.662 759.096,849.551 761.081,852.383 763.066,852.588 765.051,853.203 767.035,856.745 769.02,858.017 771.005,860.922 772.989,861.795 774.974,864.002 776.959,865.569 778.944,868.526 780.928,868.871 782.913,869.333 784.898,868.526 786.882,867.952 788.867,870.029 790.852,872.255 792.836,873.919 794.821,875.846 796.806,877.8 798.791,878.54 800.775,877.677 802.76,878.54 804.745,880.659 806.729,880.158 808.714,882.684 810.699,884.609 812.684,886.431 814.668,888.943 816.653,888.145 818.638,889.612 820.622,891.027 822.607,891.502 824.592,893.557 826.576,895.923 828.561,897.05 830.546,897.334 832.531,897.547 834.515,899.839 836.5,899.839 838.485,902.317 840.469,902.317 842.454,903.87 844.439,905.366 846.424,905.366 848.408,907.183 850.393,908.484 852.378,908.715 854.362,910.577 856.347,911.675 858.332,912.227 860.316,911.912 862.301,912.703 864.286,911.833 866.271,914.7 868.255,913.978 870.24,915.023 872.225,917.794 874.209,918.702 876.194,919.868 878.179,920.622 880.164,921.043 882.148,922.398 884.133,922.654 886.118,925.237 888.102,925.76 890.087,925.498 892.072,926.723 894.056,927.959 896.041,930.735 898.026,931.825 900.011,931.007 901.995,931.461 903.98,935.616 905.965,936.557 907.949,937.98 909.934,938.267 911.919,937.79 913.904,938.267 915.888,937.694 917.873,937.98 919.858,938.362 921.842,939.805 923.827,940.483 925.812,939.805 927.796,939.515 929.781,940.969 931.766,942.341 933.751,942.834 935.735,943.528 937.72,942.834 939.705,944.025 941.689,944.725 943.674,947.559 945.659,951.292 947.644,950.558 949.628,950.141 951.613,951.082 953.598,952.984 955.582,953.731 957.567,953.517 959.552,953.624 961.536,954.482 963.521,956.979 965.506,959.41 967.491,958.521 969.475,959.522 971.46,958.743 973.445,960.868 975.429,959.857 977.414,960.53 979.399,960.53 981.384,960.53 983.368,960.755 985.353,959.745 987.338,962.683 989.322,964.176 991.307,964.986 993.292,966.505 995.276,966.036 997.261,966.153 999.246,961.546 1001.23,961.432 1003.22,967.566 1005.2,970.074 1007.18,971.406 1009.17,969.113 1011.15,970.678 1013.14,970.436 1015.12,972.628 1017.11,972.016 1019.09,973.12 1021.08,972.506 1023.06,973.12 1025.05,972.628 1027.03,973.862 1029.02,973.614 1031,970.678 1032.99,969.712 1034.97,970.315 1036.96,973.12 1038.94,978.013 1040.92,979.425 1042.91,980.461 1044.89,980.852 1046.88,979.167 1048.86,980.201 1050.85,981.636 1052.83,981.636 1054.82,980.591 1056.8,981.505 1058.79,979.683 1060.77,981.899 1062.76,981.899 1064.74,982.293 1066.73,981.767 1068.71,981.767 1070.7,983.352 1072.68,983.617 1074.66,984.151 1076.65,984.82 1078.63,984.017 1080.62,984.82 1082.6,985.358 1084.59,986.372 1086.57,984.284 1088.56,986.848 1090.54,981.899 1092.53,987.189 1094.51,988.148 1096.5,985.898 1098.48,988.286 1100.47,989.253 1102.45,988.907 1104.44,990.157 1106.42,990.157 1108.4,990.506 1110.39,989.669 1112.37,988.08 1114.36,991.137 1116.34,990.157 1118.33,990.017 1120.31,992.408 1122.3,990.157 1124.28,994.84 1126.27,995.202 1128.25,994.264 1130.24,994.84 1132.22,994.192 1134.21,995.709 1136.19,994.913 1138.18,993.404 1140.16,994.913 1142.14,993.547 1144.13,995.855 1146.11,996.584 1148.1,997.244 1150.08,996.219 1152.07,997.17 1154.05,996 1156.04,994.552 1158.02,998.35 1160.01,999.093 1161.99,996.584 1163.98,997.391 1165.96,998.202 1167.95,1001.5 1169.93,1003.48 1171.92,1003.71 1173.9,1005.89 1175.88,1005.11 1177.87,1005.18 1179.85,1006.2 1181.84,1005.26 1183.82,1005.42 1185.81,1006.04 1187.79,1006.99 1189.78,1007.14 1191.76,1006.59 1193.75,1004.41 1195.73,1003.56 1197.72,1006.04 1199.7,1008.01 1201.69,1007.86 1203.67,1009.45 1205.66,1009.94 1207.64,1009.61 1209.62,1009.29 1211.61,1008.97 1213.59,1008.17 1215.58,1011.47 1217.56,1011.23 1219.55,1005.81 1221.53,998.35 1223.52,1007.54 1225.5,1012.05 1227.49,1010.42 1229.47,1013.44 1231.46,1012.95 1233.44,1015.61 1235.43,1014.69 1237.41,1013.28 1239.4,1016.2 1241.38,1018.5 1243.36,1019.44 1245.35,1017.39 1247.33,1022.24 1249.32,1020.57 1251.3,1023.12 1253.29,1022.94 1255.27,1024.91 1257.26,1024.37 1259.24,1024.55 1261.23,1023.74 1263.21,1023.3 1265.2,1025.27 1267.18,1022.15 1269.17,1025.63 1271.15,1027.81 1273.14,1027.17 1275.12,1026.99 1277.1,1021.36 1279.09,1031.07 1281.07,1031.16 1283.06,1028.09 1285.04,1031.63 1287.03,1034.2 1289.01,1036.92 1291,1035.56 1292.98,1035.36 1294.97,1034.98 1296.95,1037.12 1298.94,1040 1300.92,1039.9 1302.91,1039.6 1304.89,1038.7 1306.88,1039.5 1308.86,1035.46 1310.84,1032.96 1312.83,1032.48 1314.81,1038.11 1316.8,1043.04 1318.78,1043.45 1320.77,1045.32 1322.75,1045.01 1324.74,1044.69 1326.72,1044.9 1328.71,1044.69 1330.69,1039.5 1332.68,1047.74 1334.66,1044.28 1336.65,1049.45 1338.63,1050.85 1340.62,1051.51 1342.6,1053.48 1344.58,1052.05 1346.57,1052.6 1348.55,1051.07 1350.54,1051.18 1352.52,1052.38 1354.51,1049.23 1356.49,1054.26 1358.48,1055.83 1360.46,1056.28 1362.45,1055.83 1364.43,1056.28 1366.42,1058.56 1368.4,1056.73 1370.39,1056.85 1372.37,1056.51 1374.36,1058.44 1376.34,1058.67 1378.32,1055.94 1380.31,1059.13 1382.29,1058.79 1384.28,1056.28 1386.26,1062.52 1388.25,1064.91 1390.23,1062.99 1392.22,1059.02 1394.2,1063.23 1396.19,1044.9 1398.17,1041.51 1400.16,1062.88 1402.14,1069.56 1404.13,1070.68 1406.11,1071.56 1408.1,1069.68 1410.08,1070.68 1412.06,1071.44 1414.05,1070.93 1416.03,1072.2 1418.02,1071.82 1420,1072.83 1421.99,1072.83 1423.97,1072.07 1425.96,1070.06 1427.94,1068.19 1429.93,1072.2 1431.91,1070.68 1433.9,1073.09 1435.88,1069.81 1437.87,1075.93 1439.85,1074.24 1441.84,1065.75 1443.82,1073.86 1445.8,1077.5 1447.79,1074.37 1449.77,1078.16 1451.76,1075.8 1453.74,1078.43 1455.73,1079.22 1457.71,1076.32 1459.7,1082.13 1461.68,1081.65 1463.67,1080.1 1465.65,1080.23 1467.64,1082.4 1469.62,1081.04 1471.61,1067.46 1473.59,1082.88 1475.58,1083.64 1477.56,1065.39 1479.54,1068.07 1481.53,1085.58 1483.51,1087.34 1485.5,1087.69 1487.48,1088.76 1489.47,1087.98 1491.45,1088.34 1493.44,1088.48 1495.42,1088.62 1497.41,1089.48 1499.39,1089.27 1501.38,1088.12 1503.36,1089.34 1505.35,1088.48 1507.33,1087.98 1509.32,1088.76 1511.3,1083.15 1513.28,1085.09 1515.27,1089.48 1517.25,1085.72 1519.24,1075.28 1521.22,1091.58 1523.21,1096.04 1525.19,1097.56 1527.18,1095.81 1529.16,1097.71 1531.15,1099.02 1533.13,1097.86 1535.12,1097.25 1537.1,1098.09 1539.09,1096.95 1541.07,1087.2 1543.06,1076.06 1545.04,1072.45 1547.02,1078.43 1549.01,1100.26 1550.99,1103.17 1552.98,1102.61 1554.96,1101.98 1556.95,1102.69 1558.93,1101.98 1560.92,1102.85 1562.9,1102.93 1564.89,1100.96 1566.87,1101.19 1568.86,1102.77 1570.84,1103.25 1572.83,1101.12 1574.81,1103.89 1576.8,1104.37 1578.78,1102.37 1580.76,1100.96 1582.75,1098.79 1584.73,1103.01 1586.72,1081.65 1588.7,1103.33 1590.69,1084.26 1592.67,1102.69 1594.66,1103.41 1596.64,1106.96 1598.63,1105.33 1600.61,1098.79 1602.6,1105.98 1604.58,1105.66 1606.57,1104.37 1608.55,1108.93 1610.54,1106.55 1612.52,1105.82 1614.5,1107.37 1616.49,1107.78 1618.47,1099.33 1620.46,1076.97 1622.44,1092.61 1624.43,1109.1 1626.41,1109.02 1628.4,1106.14 1630.38,1108.44 1632.37,1108.44 1634.35,1109.6 1636.34,1107.78 1638.32,1108.44 1640.31,1109.1 1642.29,1110.69 1644.28,1109.51 1646.26,1109.6 1648.24,1107.78 1650.23,1099.56 1652.21,1096.42 1654.2,1078.69 1656.18,1078.82 1658.17,1089.99 1660.15,1109.02 1662.14,1111.11 1664.12,1113.91 1666.11,1114.52 1668.09,1114.52 1670.08,1112.29 1672.06,1113.06 1674.05,1113.14 1676.03,1113.23 1678.02,1114.6 1680,1113.23 1681.98,1113.74 1683.97,1114.43 1685.95,1110.02 1687.94,1111.87 1689.92,1099.56 1691.91,1101.82 1693.89,1101.59 1695.88,1081.92 1697.86,1082.4 1699.85,1097.86 1701.83,1112.97 1703.82,1115.65 1705.8,1116.43 1707.79,1116.61 1709.77,1117.84 1711.76,1118.37 1713.74,1117.4 1715.72,1116.52 1717.71,1118.37 1719.69,1115.91 1721.68,1116.87 1723.66,1117.75 1725.65,1117.84 1727.63,1117.22 1729.62,1115.73 1731.6,1117.93 1733.59,1113.14 1735.57,1112.63 1737.56,1112.72 1739.54,1115.65 1741.53,1108.93 1743.51,1108.11 1745.5,1121.15 1747.48,1120.88 1749.46,1119.17 1751.45,1120.16 1753.43,1120.43 1755.42,1121.52 1757.4,1119.08 1759.39,1119.89 1761.37,1121.7 1763.36,1123.9 1765.34,1122.61 1767.33,1123.35 1769.31,1121.34 1771.3,1121.61 1773.28,1120.97 1775.27,1096.72 1777.25,1112.63 1779.24,1108.35 1781.22,1109.02 1783.2,1118.46 1785.19,1119 1787.17,1107.78 1789.16,1091.15 1791.14,1102.3 1793.13,1115.04 1795.11,1123.44 1797.1,1124.64 1799.08,1125.76 1801.07,1125.3 1803.05,1125.58 1805.04,1126.8 1807.02,1125.76 1809.01,1126.05 1810.99,1126.8 1812.98,1124.92 1814.96,1118.02 1816.94,1099.79 1818.93,1093.5 1820.91,1102.93 1822.9,1089.77 1824.88,1126.14 1826.87,1128.41 1828.85,1126.05 1830.84,1125.67 1832.82,1126.52 1834.81,1126.14 1836.79,1127.75 1838.78,1128.03 1840.76,1128.13 1842.75,1128.61 1844.73,1126.99 1846.72,1128.13 1848.7,1127.56 1850.68,1121.15 1852.67,1119.89 1854.65,1121.15 1856.64,1124.55 1858.62,1124.92 1860.61,1123.81 1862.59,1124.46 1864.58,1125.48 1866.56,1114.52 1868.55,1115.3 1870.53,1130.34 1872.52,1131.8 1874.5,1129.95 1876.49,1131.51 1878.47,1132.49 1880.46,1132.39 1882.44,1134.17 1884.42,1126.8 1886.41,1103.01 1888.39,1078.82 1890.38,1093.79 1892.36,1115.3 1894.35,1133.28 1896.33,1131.8 1898.32,1134.37 1900.3,1132.98 1902.29,1134.37 1904.27,1135.58 1906.26,1136.18 1908.24,1135.58 1910.23,1135.07 1912.21,1136.18 1914.2,1136.18 1916.18,1136.08 1918.16,1134.87 1920.15,1134.57 1922.13,1136.08 1924.12,1139.46 1926.1,1139.46 1928.09,1138.63 1930.07,1137.6 1932.06,1134.57 1934.04,1138.73 1936.03,1137.2 1938.01,1136.28 1940,1135.07 1941.98,1102.85 1943.97,1097.79 1945.95,1083.36 1947.94,1132.19 1949.92,1135.78 1951.9,1136.79 1953.89,1137.81 1955.87,1140.91 1957.86,1138.32 1959.84,1136.18 1961.83,1137.81 1963.81,1136.79 1965.8,1139.98 1967.78,1143.24 1969.77,1138.63 1971.75,1142.39 1973.74,1141.86 1975.72,1142.28 1977.71,1112.89 1979.69,1112.72 1981.68,1119.44 1983.66,1095.81 1985.64,1116.61 1987.63,1134.27 1989.61,1145.06 1991.6,1142.18 1993.58,1141.65 1995.57,1143.34 1997.55,1142.28 1999.54,1134.17 2001.52,1137.6 2003.51,1133.77 2005.49,1139.46 2007.48,1126.89 2009.46,1094.61 2011.45,1098.94 2013.43,1123.16 2015.42,1099.71 2017.4,1117.05 2019.38,1139.98 2021.37,1144.84 2023.35,1148.12 2025.34,1147.79 2027.32,1147.9 2029.31,1146.58 2031.29,1148.67 2033.28,1146.14 2035.26,1146.25 2037.25,1147.35 2039.23,1138.63 2041.22,1101.35 2043.2,1097.03 2045.19,1111.27 2047.17,1108.11 2049.16,1122.25 2051.14,1106.79 2053.12,1079.09 2055.11,1141.97 2057.09,1147.57 2059.08,1148.89 2061.06,1146.04 2063.05,1146.36 2065.03,1144.09 2067.02,1145.17 2069,1146.91 2070.99,1146.8 2072.97,1147.79 2074.96,1144.52 2076.94,1147.24 2078.93,1146.8 2080.91,1150.23 2082.9,1147.57 2084.88,1147.02 2086.86,1150 2088.85,1147.79 2090.83,1147.13 2092.82,1147.13 2094.8,1149.11 2096.79,1148.67 2098.77,1146.36 2100.76,1147.79 2102.74,1146.47 2104.73,1130.15 2106.71,1142.81 2108.7,1136.69 2110.68,1113.83 2112.67,1103.65 2114.65,1105.98 2116.64,1123.72 2118.62,1134.07 2120.6,1143.66 2122.59,1147.35 2124.57,1152.83 2126.56,1149.45 2128.54,1149.89 2130.53,1149.78 2132.51,1149.45 2134.5,1147.79 2136.48,1149.34 2138.47,1147.13 2140.45,1149.22 2142.44,1148.89 2144.42,1149.78 2146.41,1147.24 2148.39,1147.57 2150.38,1128.7 2152.36,1132.29 2154.34,1122.61 2156.33,1148.12 2158.31,1149.67 2160.3,1150.57 2162.28,1153.86 2164.27,1152.03 2166.25,1148.34 2168.24,1152.94 2170.22,1151.58 2172.21,1151.69 2174.19,1150.57 2176.18,1149.89 2178.16,1149.11 2180.15,1150.12 2182.13,1151.13 2184.12,1152.94 2186.1,1132.39 2188.08,1109.6 2190.07,1113.83 2192.05,1109.18 2194.04,1110.85 2196.02,1091.15 2198.01,1125.48 2199.99,1149.78 2201.98,1154.9 2203.96,1151.69 2205.95,1151.92 2207.93,1153.52 2209.92,1155.95 2211.9,1149.34 2213.89,1151.02 2215.87,1150.57 2217.86,1153.4 2219.84,1153.52 2221.82,1154.67 2223.81,1154.55 2225.79,1151.47 2227.78,1150.45 2229.76,1146.25 2231.75,1122.06 2233.73,1156.07 2235.72,1155.95 2237.7,1158.07 2239.69,1157.36 2241.67,1157.48 2243.66,1157.36 2245.64,1158.66 2247.63,1157 2249.61,1157.12 2251.6,1156.53 2253.58,1155.25 2255.56,1158.31 2257.55,1158.9 2259.53,1156.53 2261.52,1146.8 2263.5,1115.91 2265.49,1097.64 2267.47,1113.4 2269.46,1114.26 2271.44,1103.73 2273.43,1149.56 2275.41,1158.66 2277.4,1160.95 2279.38,1159.02 2281.37,1160.58 2283.35,1161.92 2285.34,1161.31 2287.32,1160.95 2289.3,1161.43 2291.29,1162.65 2293.27,1162.04 "/>
<path clip-path="url(#clip660)" d="M1784.69 248.629 L2282.7 248.629 L2282.7 93.1086 L1784.69 93.1086  Z" fill="#ffffff" fill-rule="evenodd" fill-opacity="1"/>
<polyline clip-path="url(#clip660)" style="stroke:#000000; stroke-linecap:round; stroke-linejoin:round; stroke-width:4; stroke-opacity:1; fill:none" points="1784.69,248.629 2282.7,248.629 2282.7,93.1086 1784.69,93.1086 1784.69,248.629 "/>
<polyline clip-path="url(#clip660)" style="stroke:#3da44d; stroke-linecap:round; stroke-linejoin:round; stroke-width:4; stroke-opacity:1; fill:none" points="1808.04,144.949 1948.15,144.949 "/>
<path clip-path="url(#clip660)" d="M1997.06 157.298 L1997.06 148.016 L1989.42 148.016 L1989.42 144.173 L2001.69 144.173 L2001.69 159.011 Q1998.98 160.932 1995.71 161.928 Q1992.45 162.9 1988.75 162.9 Q1980.65 162.9 1976.06 158.178 Q1971.5 153.432 1971.5 144.983 Q1971.5 136.511 1976.06 131.789 Q1980.65 127.044 1988.75 127.044 Q1992.13 127.044 1995.16 127.877 Q1998.21 128.71 2000.78 130.331 L2000.78 135.307 Q1998.19 133.108 1995.28 131.997 Q1992.36 130.886 1989.14 130.886 Q1982.8 130.886 1979.6 134.428 Q1976.43 137.969 1976.43 144.983 Q1976.43 151.974 1979.6 155.516 Q1982.8 159.057 1989.14 159.057 Q1991.62 159.057 1993.56 158.641 Q1995.51 158.201 1997.06 157.298 Z" fill="#000000" fill-rule="nonzero" fill-opacity="1" /><path clip-path="url(#clip660)" d="M2007.89 147.344 L2020.37 147.344 L2020.37 151.141 L2007.89 151.141 L2007.89 147.344 Z" fill="#000000" fill-rule="nonzero" fill-opacity="1" /><path clip-path="url(#clip660)" d="M2048.05 128.803 L2048.05 133.363 Q2045.39 132.09 2043.03 131.465 Q2040.67 130.84 2038.47 130.84 Q2034.65 130.84 2032.57 132.321 Q2030.51 133.803 2030.51 136.534 Q2030.51 138.826 2031.87 140.007 Q2033.26 141.164 2037.1 141.882 L2039.93 142.46 Q2045.16 143.456 2047.64 145.979 Q2050.14 148.479 2050.14 152.692 Q2050.14 157.715 2046.76 160.307 Q2043.4 162.9 2036.9 162.9 Q2034.44 162.9 2031.66 162.344 Q2028.91 161.789 2025.95 160.701 L2025.95 155.886 Q2028.79 157.483 2031.52 158.293 Q2034.26 159.104 2036.9 159.104 Q2040.9 159.104 2043.08 157.53 Q2045.25 155.956 2045.25 153.039 Q2045.25 150.493 2043.68 149.057 Q2042.13 147.622 2038.56 146.905 L2035.71 146.349 Q2030.48 145.307 2028.15 143.085 Q2025.81 140.863 2025.81 136.905 Q2025.81 132.321 2029.02 129.682 Q2032.27 127.044 2037.94 127.044 Q2040.37 127.044 2042.89 127.483 Q2045.41 127.923 2048.05 128.803 Z" fill="#000000" fill-rule="nonzero" fill-opacity="1" /><path clip-path="url(#clip660)" d="M2068.03 164.636 Q2066.22 169.266 2064.51 170.678 Q2062.8 172.09 2059.93 172.09 L2056.52 172.09 L2056.52 168.525 L2059.02 168.525 Q2060.78 168.525 2061.76 167.692 Q2062.73 166.858 2063.91 163.756 L2064.67 161.812 L2054.19 136.303 L2058.7 136.303 L2066.8 156.581 L2074.9 136.303 L2079.42 136.303 L2068.03 164.636 Z" fill="#000000" fill-rule="nonzero" fill-opacity="1" /><path clip-path="url(#clip660)" d="M2105.48 141.28 Q2107.08 138.409 2109.3 137.044 Q2111.52 135.678 2114.53 135.678 Q2118.58 135.678 2120.78 138.525 Q2122.98 141.349 2122.98 146.581 L2122.98 162.229 L2118.7 162.229 L2118.7 146.719 Q2118.7 142.993 2117.38 141.187 Q2116.06 139.382 2113.35 139.382 Q2110.04 139.382 2108.12 141.581 Q2106.2 143.78 2106.2 147.576 L2106.2 162.229 L2101.92 162.229 L2101.92 146.719 Q2101.92 142.969 2100.6 141.187 Q2099.28 139.382 2096.52 139.382 Q2093.26 139.382 2091.34 141.604 Q2089.42 143.803 2089.42 147.576 L2089.42 162.229 L2085.14 162.229 L2085.14 136.303 L2089.42 136.303 L2089.42 140.331 Q2090.88 137.946 2092.91 136.812 Q2094.95 135.678 2097.75 135.678 Q2100.58 135.678 2102.54 137.113 Q2104.53 138.548 2105.48 141.28 Z" fill="#000000" fill-rule="nonzero" fill-opacity="1" /><path clip-path="url(#clip660)" d="M2135.6 158.34 L2135.6 172.09 L2131.32 172.09 L2131.32 136.303 L2135.6 136.303 L2135.6 140.238 Q2136.94 137.923 2138.98 136.812 Q2141.04 135.678 2143.89 135.678 Q2148.61 135.678 2151.55 139.428 Q2154.51 143.178 2154.51 149.289 Q2154.51 155.4 2151.55 159.15 Q2148.61 162.9 2143.89 162.9 Q2141.04 162.9 2138.98 161.789 Q2136.94 160.655 2135.6 158.34 M2150.09 149.289 Q2150.09 144.59 2148.14 141.928 Q2146.22 139.243 2142.84 139.243 Q2139.46 139.243 2137.52 141.928 Q2135.6 144.59 2135.6 149.289 Q2135.6 153.988 2137.52 156.673 Q2139.46 159.335 2142.84 159.335 Q2146.22 159.335 2148.14 156.673 Q2150.09 153.988 2150.09 149.289 Z" fill="#000000" fill-rule="nonzero" fill-opacity="1" /><path clip-path="url(#clip660)" d="M2161.76 127.669 L2168.05 127.669 L2183.38 156.581 L2183.38 127.669 L2187.91 127.669 L2187.91 162.229 L2181.62 162.229 L2166.29 133.317 L2166.29 162.229 L2161.76 162.229 L2161.76 127.669 Z" fill="#000000" fill-rule="nonzero" fill-opacity="1" /><path clip-path="url(#clip660)" d="M2219.21 148.201 L2219.21 150.284 L2199.63 150.284 Q2199.9 154.682 2202.26 156.997 Q2204.65 159.289 2208.89 159.289 Q2211.34 159.289 2213.63 158.687 Q2215.95 158.085 2218.21 156.881 L2218.21 160.909 Q2215.92 161.881 2213.51 162.391 Q2211.11 162.9 2208.63 162.9 Q2202.43 162.9 2198.79 159.289 Q2195.18 155.678 2195.18 149.52 Q2195.18 143.155 2198.61 139.428 Q2202.06 135.678 2207.89 135.678 Q2213.12 135.678 2216.15 139.057 Q2219.21 142.414 2219.21 148.201 M2214.95 146.951 Q2214.9 143.456 2212.98 141.372 Q2211.08 139.289 2207.94 139.289 Q2204.37 139.289 2202.22 141.303 Q2200.09 143.317 2199.76 146.974 L2214.95 146.951 Z" fill="#000000" fill-rule="nonzero" fill-opacity="1" /><path clip-path="url(#clip660)" d="M2230.41 128.942 L2230.41 136.303 L2239.19 136.303 L2239.19 139.613 L2230.41 139.613 L2230.41 153.687 Q2230.41 156.858 2231.27 157.761 Q2232.15 158.664 2234.81 158.664 L2239.19 158.664 L2239.19 162.229 L2234.81 162.229 Q2229.88 162.229 2228.01 160.4 Q2226.13 158.548 2226.13 153.687 L2226.13 139.613 L2223.01 139.613 L2223.01 136.303 L2226.13 136.303 L2226.13 128.942 L2230.41 128.942 Z" fill="#000000" fill-rule="nonzero" fill-opacity="1" /><polyline clip-path="url(#clip660)" style="stroke:#e26f46; stroke-linecap:round; stroke-linejoin:round; stroke-width:4; stroke-opacity:1; fill:none" points="1808.04,196.789 1948.15,196.789 "/>
<path clip-path="url(#clip660)" d="M1971.5 179.509 L1976.18 179.509 L1976.18 210.133 L1993.01 210.133 L1993.01 214.069 L1971.5 214.069 L1971.5 179.509 Z" fill="#000000" fill-rule="nonzero" fill-opacity="1" /><path clip-path="url(#clip660)" d="M2010.55 184.115 L2004.21 201.314 L2016.92 201.314 L2010.55 184.115 M2007.91 179.509 L2013.21 179.509 L2026.39 214.069 L2021.52 214.069 L2018.38 205.203 L2002.8 205.203 L1999.65 214.069 L1994.72 214.069 L2007.91 179.509 Z" fill="#000000" fill-rule="nonzero" fill-opacity="1" /><path clip-path="url(#clip660)" d="M2028.05 199.184 L2040.53 199.184 L2040.53 202.981 L2028.05 202.981 L2028.05 199.184 Z" fill="#000000" fill-rule="nonzero" fill-opacity="1" /><path clip-path="url(#clip660)" d="M2068.21 180.643 L2068.21 185.203 Q2065.55 183.93 2063.19 183.305 Q2060.83 182.68 2058.63 182.68 Q2054.81 182.68 2052.73 184.161 Q2050.67 185.643 2050.67 188.374 Q2050.67 190.666 2052.03 191.847 Q2053.42 193.004 2057.27 193.722 L2060.09 194.3 Q2065.32 195.296 2067.8 197.819 Q2070.3 200.319 2070.3 204.532 Q2070.3 209.555 2066.92 212.147 Q2063.56 214.74 2057.06 214.74 Q2054.6 214.74 2051.83 214.184 Q2049.07 213.629 2046.11 212.541 L2046.11 207.726 Q2048.96 209.323 2051.69 210.133 Q2054.42 210.944 2057.06 210.944 Q2061.06 210.944 2063.24 209.37 Q2065.41 207.796 2065.41 204.879 Q2065.41 202.333 2063.84 200.897 Q2062.29 199.462 2058.72 198.745 L2055.88 198.189 Q2050.65 197.147 2048.31 194.925 Q2045.97 192.703 2045.97 188.745 Q2045.97 184.161 2049.19 181.522 Q2052.43 178.884 2058.1 178.884 Q2060.53 178.884 2063.05 179.323 Q2065.58 179.763 2068.21 180.643 Z" fill="#000000" fill-rule="nonzero" fill-opacity="1" /><path clip-path="url(#clip660)" d="M2088.19 216.476 Q2086.39 221.106 2084.67 222.518 Q2082.96 223.93 2080.09 223.93 L2076.69 223.93 L2076.69 220.365 L2079.19 220.365 Q2080.95 220.365 2081.92 219.532 Q2082.89 218.698 2084.07 215.596 L2084.83 213.652 L2074.35 188.143 L2078.86 188.143 L2086.96 208.421 L2095.07 188.143 L2099.58 188.143 L2088.19 216.476 Z" fill="#000000" fill-rule="nonzero" fill-opacity="1" /><path clip-path="url(#clip660)" d="M2125.64 193.12 Q2127.24 190.249 2129.46 188.884 Q2131.69 187.518 2134.7 187.518 Q2138.75 187.518 2140.95 190.365 Q2143.14 193.189 2143.14 198.421 L2143.14 214.069 L2138.86 214.069 L2138.86 198.559 Q2138.86 194.833 2137.54 193.027 Q2136.22 191.222 2133.52 191.222 Q2130.2 191.222 2128.28 193.421 Q2126.36 195.62 2126.36 199.416 L2126.36 214.069 L2122.08 214.069 L2122.08 198.559 Q2122.08 194.809 2120.76 193.027 Q2119.44 191.222 2116.69 191.222 Q2113.42 191.222 2111.5 193.444 Q2109.58 195.643 2109.58 199.416 L2109.58 214.069 L2105.3 214.069 L2105.3 188.143 L2109.58 188.143 L2109.58 192.171 Q2111.04 189.786 2113.08 188.652 Q2115.11 187.518 2117.91 187.518 Q2120.74 187.518 2122.7 188.953 Q2124.7 190.388 2125.64 193.12 Z" fill="#000000" fill-rule="nonzero" fill-opacity="1" /><path clip-path="url(#clip660)" d="M2155.76 210.18 L2155.76 223.93 L2151.48 223.93 L2151.48 188.143 L2155.76 188.143 L2155.76 192.078 Q2157.1 189.763 2159.14 188.652 Q2161.2 187.518 2164.05 187.518 Q2168.77 187.518 2171.71 191.268 Q2174.67 195.018 2174.67 201.129 Q2174.67 207.24 2171.71 210.99 Q2168.77 214.74 2164.05 214.74 Q2161.2 214.74 2159.14 213.629 Q2157.1 212.495 2155.76 210.18 M2170.25 201.129 Q2170.25 196.43 2168.31 193.768 Q2166.39 191.083 2163.01 191.083 Q2159.63 191.083 2157.68 193.768 Q2155.76 196.43 2155.76 201.129 Q2155.76 205.828 2157.68 208.513 Q2159.63 211.175 2163.01 211.175 Q2166.39 211.175 2168.31 208.513 Q2170.25 205.828 2170.25 201.129 Z" fill="#000000" fill-rule="nonzero" fill-opacity="1" /><path clip-path="url(#clip660)" d="M2181.92 179.509 L2188.21 179.509 L2203.54 208.421 L2203.54 179.509 L2208.07 179.509 L2208.07 214.069 L2201.78 214.069 L2186.45 185.157 L2186.45 214.069 L2181.92 214.069 L2181.92 179.509 Z" fill="#000000" fill-rule="nonzero" fill-opacity="1" /><path clip-path="url(#clip660)" d="M2239.37 200.041 L2239.37 202.124 L2219.79 202.124 Q2220.07 206.522 2222.43 208.837 Q2224.81 211.129 2229.05 211.129 Q2231.5 211.129 2233.79 210.527 Q2236.11 209.925 2238.38 208.721 L2238.38 212.749 Q2236.08 213.721 2233.68 214.231 Q2231.27 214.74 2228.79 214.74 Q2222.59 214.74 2218.95 211.129 Q2215.34 207.518 2215.34 201.36 Q2215.34 194.995 2218.77 191.268 Q2222.22 187.518 2228.05 187.518 Q2233.28 187.518 2236.32 190.897 Q2239.37 194.254 2239.37 200.041 M2235.11 198.791 Q2235.07 195.296 2233.14 193.212 Q2231.25 191.129 2228.1 191.129 Q2224.53 191.129 2222.38 193.143 Q2220.25 195.157 2219.93 198.814 L2235.11 198.791 Z" fill="#000000" fill-rule="nonzero" fill-opacity="1" /><path clip-path="url(#clip660)" d="M2250.57 180.782 L2250.57 188.143 L2259.35 188.143 L2259.35 191.453 L2250.57 191.453 L2250.57 205.527 Q2250.57 208.698 2251.43 209.601 Q2252.31 210.504 2254.97 210.504 L2259.35 210.504 L2259.35 214.069 L2254.97 214.069 Q2250.04 214.069 2248.17 212.24 Q2246.29 210.388 2246.29 205.527 L2246.29 191.453 L2243.17 191.453 L2243.17 188.143 L2246.29 188.143 L2246.29 180.782 L2250.57 180.782 Z" fill="#000000" fill-rule="nonzero" fill-opacity="1" /></svg>
