<?xml version="1.0" encoding="utf-8"?>
<svg xmlns="http://www.w3.org/2000/svg" xmlns:xlink="http://www.w3.org/1999/xlink" width="600" height="400" viewBox="0 0 2400 1600">
<defs>
  <clipPath id="clip390">
    <rect x="0" y="0" width="2400" height="1600"/>
  </clipPath>
</defs>
<path clip-path="url(#clip390)" d="M0 1600 L2400 1600 L2400 0 L0 0  Z" fill="#ffffff" fill-rule="evenodd" fill-opacity="1"/>
<defs>
  <clipPath id="clip391">
    <rect x="480" y="0" width="1681" height="1600"/>
  </clipPath>
</defs>
<path clip-path="url(#clip390)" d="M149.191 1486.45 L2352.76 1486.45 L2352.76 47.2441 L149.191 47.2441  Z" fill="#ffffff" fill-rule="evenodd" fill-opacity="1"/>
<defs>
  <clipPath id="clip392">
    <rect x="149" y="47" width="2205" height="1440"/>
  </clipPath>
</defs>
<polyline clip-path="url(#clip392)" style="stroke:#000000; stroke-linecap:round; stroke-linejoin:round; stroke-width:2; stroke-opacity:0.1; fill:none" points="526.633,1486.45 526.633,47.2441 "/>
<polyline clip-path="url(#clip392)" style="stroke:#000000; stroke-linecap:round; stroke-linejoin:round; stroke-width:2; stroke-opacity:0.1; fill:none" points="1100.72,1486.45 1100.72,47.2441 "/>
<polyline clip-path="url(#clip392)" style="stroke:#000000; stroke-linecap:round; stroke-linejoin:round; stroke-width:2; stroke-opacity:0.1; fill:none" points="1674.81,1486.45 1674.81,47.2441 "/>
<polyline clip-path="url(#clip392)" style="stroke:#000000; stroke-linecap:round; stroke-linejoin:round; stroke-width:2; stroke-opacity:0.1; fill:none" points="2248.9,1486.45 2248.9,47.2441 "/>
<polyline clip-path="url(#clip390)" style="stroke:#000000; stroke-linecap:round; stroke-linejoin:round; stroke-width:4; stroke-opacity:1; fill:none" points="149.191,1486.45 2352.76,1486.45 "/>
<polyline clip-path="url(#clip390)" style="stroke:#000000; stroke-linecap:round; stroke-linejoin:round; stroke-width:4; stroke-opacity:1; fill:none" points="526.633,1486.45 526.633,1467.55 "/>
<polyline clip-path="url(#clip390)" style="stroke:#000000; stroke-linecap:round; stroke-linejoin:round; stroke-width:4; stroke-opacity:1; fill:none" points="1100.72,1486.45 1100.72,1467.55 "/>
<polyline clip-path="url(#clip390)" style="stroke:#000000; stroke-linecap:round; stroke-linejoin:round; stroke-width:4; stroke-opacity:1; fill:none" points="1674.81,1486.45 1674.81,1467.55 "/>
<polyline clip-path="url(#clip390)" style="stroke:#000000; stroke-linecap:round; stroke-linejoin:round; stroke-width:4; stroke-opacity:1; fill:none" points="2248.9,1486.45 2248.9,1467.55 "/>
<path clip-path="url(#clip390)" d="M496.575 1532.02 L526.251 1532.02 L526.251 1535.95 L496.575 1535.95 L496.575 1532.02 Z" fill="#000000" fill-rule="nonzero" fill-opacity="1" /><path clip-path="url(#clip390)" d="M540.371 1544.91 L556.691 1544.91 L556.691 1548.85 L534.746 1548.85 L534.746 1544.91 Q537.408 1542.16 541.992 1537.53 Q546.598 1532.88 547.779 1531.53 Q550.024 1529.01 550.904 1527.27 Q551.806 1525.51 551.806 1523.82 Q551.806 1521.07 549.862 1519.33 Q547.941 1517.6 544.839 1517.6 Q542.64 1517.6 540.186 1518.36 Q537.755 1519.13 534.978 1520.68 L534.978 1515.95 Q537.802 1514.82 540.255 1514.24 Q542.709 1513.66 544.746 1513.66 Q550.117 1513.66 553.311 1516.35 Q556.505 1519.03 556.505 1523.52 Q556.505 1525.65 555.695 1527.57 Q554.908 1529.47 552.802 1532.07 Q552.223 1532.74 549.121 1535.95 Q546.019 1539.15 540.371 1544.91 Z" fill="#000000" fill-rule="nonzero" fill-opacity="1" /><path clip-path="url(#clip390)" d="M1100.72 1517.37 Q1097.11 1517.37 1095.28 1520.93 Q1093.48 1524.47 1093.48 1531.6 Q1093.48 1538.71 1095.28 1542.27 Q1097.11 1545.82 1100.72 1545.82 Q1104.36 1545.82 1106.16 1542.27 Q1107.99 1538.71 1107.99 1531.6 Q1107.99 1524.47 1106.16 1520.93 Q1104.36 1517.37 1100.72 1517.37 M1100.72 1513.66 Q1106.53 1513.66 1109.59 1518.27 Q1112.67 1522.85 1112.67 1531.6 Q1112.67 1540.33 1109.59 1544.94 Q1106.53 1549.52 1100.72 1549.52 Q1094.91 1549.52 1091.83 1544.94 Q1088.78 1540.33 1088.78 1531.6 Q1088.78 1522.85 1091.83 1518.27 Q1094.91 1513.66 1100.72 1513.66 Z" fill="#000000" fill-rule="nonzero" fill-opacity="1" /><path clip-path="url(#clip390)" d="M1669.47 1544.91 L1685.79 1544.91 L1685.79 1548.85 L1663.84 1548.85 L1663.84 1544.91 Q1666.5 1542.16 1671.09 1537.53 Q1675.69 1532.88 1676.87 1531.53 Q1679.12 1529.01 1680 1527.27 Q1680.9 1525.51 1680.9 1523.82 Q1680.9 1521.07 1678.96 1519.33 Q1677.04 1517.6 1673.93 1517.6 Q1671.73 1517.6 1669.28 1518.36 Q1666.85 1519.13 1664.07 1520.68 L1664.07 1515.95 Q1666.9 1514.82 1669.35 1514.24 Q1671.8 1513.66 1673.84 1513.66 Q1679.21 1513.66 1682.41 1516.35 Q1685.6 1519.03 1685.6 1523.52 Q1685.6 1525.65 1684.79 1527.57 Q1684 1529.47 1681.9 1532.07 Q1681.32 1532.74 1678.22 1535.95 Q1675.11 1539.15 1669.47 1544.91 Z" fill="#000000" fill-rule="nonzero" fill-opacity="1" /><path clip-path="url(#clip390)" d="M2251.91 1518.36 L2240.11 1536.81 L2251.91 1536.81 L2251.91 1518.36 M2250.69 1514.29 L2256.57 1514.29 L2256.57 1536.81 L2261.5 1536.81 L2261.5 1540.7 L2256.57 1540.7 L2256.57 1548.85 L2251.91 1548.85 L2251.91 1540.7 L2236.31 1540.7 L2236.31 1536.19 L2250.69 1514.29 Z" fill="#000000" fill-rule="nonzero" fill-opacity="1" /><polyline clip-path="url(#clip392)" style="stroke:#000000; stroke-linecap:round; stroke-linejoin:round; stroke-width:2; stroke-opacity:0.1; fill:none" points="149.191,1346.82 2352.76,1346.82 "/>
<polyline clip-path="url(#clip392)" style="stroke:#000000; stroke-linecap:round; stroke-linejoin:round; stroke-width:2; stroke-opacity:0.1; fill:none" points="149.191,1137.59 2352.76,1137.59 "/>
<polyline clip-path="url(#clip392)" style="stroke:#000000; stroke-linecap:round; stroke-linejoin:round; stroke-width:2; stroke-opacity:0.1; fill:none" points="149.191,928.365 2352.76,928.365 "/>
<polyline clip-path="url(#clip392)" style="stroke:#000000; stroke-linecap:round; stroke-linejoin:round; stroke-width:2; stroke-opacity:0.1; fill:none" points="149.191,719.136 2352.76,719.136 "/>
<polyline clip-path="url(#clip392)" style="stroke:#000000; stroke-linecap:round; stroke-linejoin:round; stroke-width:2; stroke-opacity:0.1; fill:none" points="149.191,509.907 2352.76,509.907 "/>
<polyline clip-path="url(#clip392)" style="stroke:#000000; stroke-linecap:round; stroke-linejoin:round; stroke-width:2; stroke-opacity:0.1; fill:none" points="149.191,300.679 2352.76,300.679 "/>
<polyline clip-path="url(#clip392)" style="stroke:#000000; stroke-linecap:round; stroke-linejoin:round; stroke-width:2; stroke-opacity:0.1; fill:none" points="149.191,91.4498 2352.76,91.4498 "/>
<polyline clip-path="url(#clip390)" style="stroke:#000000; stroke-linecap:round; stroke-linejoin:round; stroke-width:4; stroke-opacity:1; fill:none" points="149.191,1486.45 149.191,47.2441 "/>
<polyline clip-path="url(#clip390)" style="stroke:#000000; stroke-linecap:round; stroke-linejoin:round; stroke-width:4; stroke-opacity:1; fill:none" points="149.191,1346.82 168.089,1346.82 "/>
<polyline clip-path="url(#clip390)" style="stroke:#000000; stroke-linecap:round; stroke-linejoin:round; stroke-width:4; stroke-opacity:1; fill:none" points="149.191,1137.59 168.089,1137.59 "/>
<polyline clip-path="url(#clip390)" style="stroke:#000000; stroke-linecap:round; stroke-linejoin:round; stroke-width:4; stroke-opacity:1; fill:none" points="149.191,928.365 168.089,928.365 "/>
<polyline clip-path="url(#clip390)" style="stroke:#000000; stroke-linecap:round; stroke-linejoin:round; stroke-width:4; stroke-opacity:1; fill:none" points="149.191,719.136 168.089,719.136 "/>
<polyline clip-path="url(#clip390)" style="stroke:#000000; stroke-linecap:round; stroke-linejoin:round; stroke-width:4; stroke-opacity:1; fill:none" points="149.191,509.907 168.089,509.907 "/>
<polyline clip-path="url(#clip390)" style="stroke:#000000; stroke-linecap:round; stroke-linejoin:round; stroke-width:4; stroke-opacity:1; fill:none" points="149.191,300.679 168.089,300.679 "/>
<polyline clip-path="url(#clip390)" style="stroke:#000000; stroke-linecap:round; stroke-linejoin:round; stroke-width:4; stroke-opacity:1; fill:none" points="149.191,91.4498 168.089,91.4498 "/>
<path clip-path="url(#clip390)" d="M52.4736 1347.27 L82.1494 1347.27 L82.1494 1351.21 L52.4736 1351.21 L52.4736 1347.27 Z" fill="#000000" fill-rule="nonzero" fill-opacity="1" /><path clip-path="url(#clip390)" d="M92.2882 1329.54 L110.645 1329.54 L110.645 1333.48 L96.5706 1333.48 L96.5706 1341.95 Q97.5891 1341.6 98.6076 1341.44 Q99.6261 1341.26 100.645 1341.26 Q106.432 1341.26 109.811 1344.43 Q113.191 1347.6 113.191 1353.01 Q113.191 1358.59 109.719 1361.7 Q106.246 1364.77 99.927 1364.77 Q97.7511 1364.77 95.4826 1364.4 Q93.2373 1364.03 90.8299 1363.29 L90.8299 1358.59 Q92.9132 1359.73 95.1354 1360.28 Q97.3576 1360.84 99.8345 1360.84 Q103.839 1360.84 106.177 1358.73 Q108.515 1356.63 108.515 1353.01 Q108.515 1349.4 106.177 1347.3 Q103.839 1345.19 99.8345 1345.19 Q97.9595 1345.19 96.0845 1345.61 Q94.2326 1346.02 92.2882 1346.9 L92.2882 1329.54 Z" fill="#000000" fill-rule="nonzero" fill-opacity="1" /><path clip-path="url(#clip390)" d="M50.9921 1138.05 L80.6679 1138.05 L80.6679 1141.98 L50.9921 1141.98 L50.9921 1138.05 Z" fill="#000000" fill-rule="nonzero" fill-opacity="1" /><path clip-path="url(#clip390)" d="M103.608 1124.39 L91.8021 1142.84 L103.608 1142.84 L103.608 1124.39 M102.381 1120.31 L108.26 1120.31 L108.26 1142.84 L113.191 1142.84 L113.191 1146.73 L108.26 1146.73 L108.26 1154.87 L103.608 1154.87 L103.608 1146.73 L88.0058 1146.73 L88.0058 1142.21 L102.381 1120.31 Z" fill="#000000" fill-rule="nonzero" fill-opacity="1" /><path clip-path="url(#clip390)" d="M52.1264 928.816 L81.8021 928.816 L81.8021 932.751 L52.1264 932.751 L52.1264 928.816 Z" fill="#000000" fill-rule="nonzero" fill-opacity="1" /><path clip-path="url(#clip390)" d="M106.061 927.011 Q109.418 927.728 111.293 929.997 Q113.191 932.265 113.191 935.599 Q113.191 940.714 109.672 943.515 Q106.154 946.316 99.6724 946.316 Q97.4965 946.316 95.1817 945.876 Q92.89 945.46 90.4364 944.603 L90.4364 940.089 Q92.3808 941.224 94.6956 941.802 Q97.0104 942.381 99.5335 942.381 Q103.932 942.381 106.223 940.645 Q108.538 938.909 108.538 935.599 Q108.538 932.543 106.385 930.83 Q104.256 929.094 100.436 929.094 L96.4085 929.094 L96.4085 925.251 L100.621 925.251 Q104.071 925.251 105.899 923.886 Q107.728 922.497 107.728 919.904 Q107.728 917.242 105.83 915.83 Q103.955 914.395 100.436 914.395 Q98.515 914.395 96.316 914.812 Q94.1169 915.228 91.478 916.108 L91.478 911.941 Q94.14 911.201 96.4548 910.83 Q98.7928 910.46 100.853 910.46 Q106.177 910.46 109.279 912.89 Q112.381 915.298 112.381 919.418 Q112.381 922.289 110.737 924.279 Q109.094 926.247 106.061 927.011 Z" fill="#000000" fill-rule="nonzero" fill-opacity="1" /><path clip-path="url(#clip390)" d="M53.0754 719.587 L82.7512 719.587 L82.7512 723.523 L53.0754 723.523 L53.0754 719.587 Z" fill="#000000" fill-rule="nonzero" fill-opacity="1" /><path clip-path="url(#clip390)" d="M96.8715 732.481 L113.191 732.481 L113.191 736.416 L91.2465 736.416 L91.2465 732.481 Q93.9086 729.726 98.4919 725.097 Q103.098 720.444 104.279 719.101 Q106.524 716.578 107.404 714.842 Q108.307 713.083 108.307 711.393 Q108.307 708.638 106.362 706.902 Q104.441 705.166 101.339 705.166 Q99.14 705.166 96.6863 705.93 Q94.2558 706.694 91.478 708.245 L91.478 703.523 Q94.3021 702.389 96.7558 701.81 Q99.2095 701.231 101.246 701.231 Q106.617 701.231 109.811 703.916 Q113.006 706.601 113.006 711.092 Q113.006 713.222 112.196 715.143 Q111.408 717.041 109.302 719.634 Q108.723 720.305 105.621 723.523 Q102.52 726.717 96.8715 732.481 Z" fill="#000000" fill-rule="nonzero" fill-opacity="1" /><path clip-path="url(#clip390)" d="M52.7051 510.359 L82.3808 510.359 L82.3808 514.294 L52.7051 514.294 L52.7051 510.359 Z" fill="#000000" fill-rule="nonzero" fill-opacity="1" /><path clip-path="url(#clip390)" d="M93.2836 523.252 L100.922 523.252 L100.922 496.887 L92.6123 498.553 L92.6123 494.294 L100.876 492.627 L105.552 492.627 L105.552 523.252 L113.191 523.252 L113.191 527.187 L93.2836 527.187 L93.2836 523.252 Z" fill="#000000" fill-rule="nonzero" fill-opacity="1" /><path clip-path="url(#clip390)" d="M101.246 286.477 Q97.6354 286.477 95.8067 290.042 Q94.0012 293.584 94.0012 300.713 Q94.0012 307.82 95.8067 311.385 Q97.6354 314.926 101.246 314.926 Q104.881 314.926 106.686 311.385 Q108.515 307.82 108.515 300.713 Q108.515 293.584 106.686 290.042 Q104.881 286.477 101.246 286.477 M101.246 282.774 Q107.057 282.774 110.112 287.38 Q113.191 291.963 113.191 300.713 Q113.191 309.44 110.112 314.047 Q107.057 318.63 101.246 318.63 Q95.4363 318.63 92.3576 314.047 Q89.3021 309.44 89.3021 300.713 Q89.3021 291.963 92.3576 287.38 Q95.4363 282.774 101.246 282.774 Z" fill="#000000" fill-rule="nonzero" fill-opacity="1" /><path clip-path="url(#clip390)" d="M93.2836 104.795 L100.922 104.795 L100.922 78.429 L92.6123 80.0957 L92.6123 75.8365 L100.876 74.1698 L105.552 74.1698 L105.552 104.795 L113.191 104.795 L113.191 108.73 L93.2836 108.73 L93.2836 104.795 Z" fill="#000000" fill-rule="nonzero" fill-opacity="1" /><polyline clip-path="url(#clip392)" style="stroke:#009af9; stroke-linecap:round; stroke-linejoin:round; stroke-width:4; stroke-opacity:1; fill:none" points="1100.72,91.4498 1129.35,92.4714 1157.7,95.6385 1185.52,100.747 1212.43,107.694 1238.29,116.582 1262.89,127.002 1285.87,138.853 1307.18,152.032 1326.52,166.335 1343.9,181.659 1359.18,197.648 1372.21,214.351 1382.86,231.566 1391.13,249.112 1397.02,266.965 1400.38,284.984 1401.22,303.091 1399.82,321.175 1395.62,339.168 1389.17,356.97 1380.2,374.44 1368.99,391.501 1355.39,408.051 1339.55,423.887 1321.61,438.904 1301.71,452.901 1279.85,465.773 1256.44,477.318 1231.56,487.329 1205.35,495.707 1178.16,502.245 1150.2,506.74 1121.75,509.397 1093.08,509.805 1064.49,508.273 1036.29,504.595 1008.71,498.976 982.009,491.416 956.5,482.221 932.252,471.392 909.687,459.133 888.943,445.545 870.022,431.038 853.203,415.509 838.626,399.316 826.152,382.46 816.201,365.143 808.632,347.495 803.306,329.591 800.503,311.546 800.503,293.444 802.465,275.368 807.231,257.438 814.379,239.739 824.05,222.32 835.963,205.412 850.119,189.015 866.518,173.384 885.019,158.571 905.342,144.881 927.627,132.315 951.454,121.179 976.753,111.678 1003.24,103.811 1030.68,97.7839 1058.78,93.6974 1087.33,91.6541 1116,91.7563 1144.52,93.9017 1172.62,98.0904 1199.96,104.22 1226.38,112.189 1251.53,121.894 1275.36,133.132 1297.51,145.8 1317.69,159.592 1336.05,174.406 1352.31,190.037 1366.32,206.485 1378.1,223.444 1387.49,240.862 1394.5,258.613 1398.98,276.555 1401.22,294.632 1400.66,312.74 1397.86,330.791 1392.53,348.669 1384.68,366.318 1374.45,383.583 1361.98,400.389 1347.12,416.531 1330.16,431.957 1311.24,446.464 1290.22,459.95 1267.65,472.107 1243.33,482.834 1217.76,492.029 1190.99,499.385 1163.34,504.901 1135.08,508.375 1106.48,509.907 1077.82,509.192 1049.39,506.536 1021.46,501.837 994.343,495.196 968.203,486.716 943.465,476.602 920.059,464.956 898.474,452.083 878.572,437.985 860.771,422.865 845.214,406.928 831.758,390.377 820.546,373.316 811.716,355.795 805.549,337.993 801.624,319.987 800.223,301.901 801.344,283.796 804.708,265.79 810.875,247.963 819.284,230.391 830.077,213.227 843.252,196.575 858.529,180.638 876.049,165.415 895.671,151.113 916.975,138.036 940.101,126.287 964.769,115.867 990.769,107.183 1017.75,100.338 1045.61,95.332 1073.97,92.3693 1102.61,91.4498 1131.23,92.6758 1159.55,95.8428 1187.27,101.155 1214.18,108.307 1239.97,117.195 1264.43,127.717 1287.27,139.67 1308.44,152.952 1327.78,167.357 1345.02,182.681 1360.16,198.771 1372.91,215.475 1383.42,232.689 1391.69,250.287 1397.3,268.14 1400.38,286.184 1401.22,304.28 1399.54,322.363 1395.34,340.343 1388.61,358.094 1379.5,375.564 1368.15,392.625 1354.41,409.073 1338.43,424.908 1320.35,439.824 1300.31,453.82 1278.44,466.59 1254.9,478.033 1229.88,487.942 1203.6,496.115 1176.34,502.552 1148.34,507.047 1119.85,509.397 1091.2,509.805 1062.64,508.068 1034.43,504.288 1006.89,498.465 980.257,490.905 954.818,481.506 930.711,470.575 908.285,458.213 887.682,444.626 868.901,430.016 852.222,414.488 837.645,398.193 825.451,381.336 815.64,364.019 808.072,346.345 803.026,328.416 800.503,310.358 800.503,292.25 802.746,274.193 807.791,256.263 814.939,238.564 824.751,221.196 836.804,204.288 851.1,187.993 867.639,172.362 886.28,157.651 906.884,144.063 929.169,131.6 953.136,120.566 978.505,111.065 1004.99,103.301 "/>
<polyline clip-path="url(#clip392)" style="stroke:#e26f46; stroke-linecap:round; stroke-linejoin:round; stroke-width:4; stroke-opacity:1; fill:none" points="1100.72,91.4498 1200.38,90.6325 1301.57,96.7623 1403.19,109.839 1506.34,131.906 1605.86,158.468 1702.28,191.16 1795.35,231.208 1883.93,276.977 1964.66,326.832 2037.54,380.774 2103.7,439.62 2162.57,503.369 2211.34,570.388 2247.78,635.772 2272.45,701.156 2289.27,769.809 2290.39,833.558 2280.3,895.673 2260.12,955.336 2229.84,1012.55 2187.79,1064.85 2138.46,1116.34 2083.52,1167.02 2029.13,1220.96 1976.44,1282.26 1916.45,1341.1 1839.64,1385.24 1747.7,1413.84 1647.62,1433.46 1541.66,1443.26 1432.62,1445.72 1319.93,1439.18 1208.93,1427.74 1096.03,1405.67 986.284,1379.51 877.03,1341.92 771.35,1297.78 671.837,1245.48 578.492,1186.63 495.237,1125.33 418.43,1055.86 356.2,988.845 305.182,918.557 264.816,846.635 235.663,771.443 217.723,696.252 212.677,622.695 221.647,552.407 243.512,485.388 277.711,423.274 325.365,366.063 381.989,312.938 450.947,267.169 529.156,227.122 615.494,193.612 707.718,166.233 802.746,142.735 895.25,119.647 989.227,103.198 1085.96,94.4125 1186.15,93.9017 1286.85,99.0098 1387.77,110.248 1488.96,130.272 1589.6,158.468 1686.59,191.978 1780.21,232.025 1867.11,276.16 1948.96,326.015 2022.97,379.957 2089.68,439.62 2146.31,500.1 2193.96,563.849 2229.84,625.964 2256.75,692.983 2272.45,758.366 2276.94,823.75 2270.21,886.683 2251.15,945.528 2221.43,1001.1 2181.63,1054.23 2133.41,1104.08 2080.15,1153.94 2026.89,1207.06 1974.75,1267.54 1918.13,1328.02 1844.13,1374.61 1754.42,1404.85 1656.31,1425.28 1553.44,1438.36 1446.07,1443.26 1335.49,1439.99 1221.68,1426.92 1108.36,1405.67 994.973,1374.61 886.981,1340.28 781.722,1296.15 684.732,1248.75 591.386,1193.17 507.011,1131.87 432.446,1069.76 365.731,999.47 313.592,931.634 270.983,859.712 239.027,786.155 221.087,715.867 214.92,645.579 223.329,578.561 239.588,509.09 269.862,445.341 310.228,383.226 364.049,327.649 428.522,277.794 502.526,234.477 588.303,200.968 679.686,172.771 774.434,148.661 867.919,125.368 960.915,106.366 1057.55,96.1493 1156.37,92.6758 1256.86,96.1493 1357.91,106.161 1459.25,123.324 1558.76,146.209 1656.87,176.449 1752.74,214.045 1843.56,258.179 1928.78,308.034 2005.59,361.976 2074.55,420.004 2135.09,480.485 2187.79,545.869 2227.04,609.618 2255.63,675.002 2274.69,742.021 2280.3,806.587 2276.94,871.154 2260.12,931.634 2234.33,990.48 2197.89,1045.24 2150.23,1095.09 2097.53,1145.77 2042.59,1197.26 1991.01,1257.74 1935.51,1319.03 1865.43,1368.89 1777.97,1402.4 1680.98,1424.47 1577.54,1438.36 1470.46,1444.9 1359.18,1441.63 1246.63,1431 1134.57,1413.02 1023.22,1387.69 913.471,1353.36 806.95,1311.68 701.551,1257.74 611.289,1207.88 524.951,1149.04 447.023,1085.29 380.307,1019.9 322.562,949.615 276.59,878.51 241.27,804.953 221.087,733.848 211.556,661.925 213.798,590.003 228.936,522.167 255.285,455.966 296.212,395.485 348.351,339.909 410.021,288.419 483.464,245.102 564.476,206.689 653.897,175.632 748.644,150.295 843.252,126.798 936.177,105.446 1032.54,92.9822 1131.7,87.9763 1233.03,90.2239 1334.65,98.3969 1437.95,115.56 1540.26,139.67 1639.77,169.911 1737.04,208.324 1826.75,249.189 1913.08,298.227 1991.57,351.351 2060.53,406.928 2122.2,467.408 2174.9,531.157 2218.63,596.541 2248.9,660.291 2267.97,724.04 2279.18,790.241 2276.94,853.173 2266.84,917.74 "/>
<polyline clip-path="url(#clip392)" style="stroke:#3da44d; stroke-linecap:round; stroke-linejoin:round; stroke-width:4; stroke-opacity:1; fill:none" points="1100.72,91.4498 1128.93,92.4714 1156.89,95.5363 1184.4,100.644 1211.1,107.694 1236.82,116.48 1261.35,126.798 1284.47,138.649 1305.92,151.828 1325.54,166.028 1343.34,181.251 1359.04,197.188 1372.49,213.84 1383.56,231.055 1392.25,248.678 1398.42,266.633 1402.06,284.767 1402.91,302.988 1401.22,321.213 1397.02,339.296 1390.29,357.174 1381.04,374.746 1369.27,391.859 1355.25,408.358 1339.13,424.193 1320.77,439.109 1300.59,453.003 1278.58,465.773 1255.04,477.215 1230.16,487.125 1204.16,495.298 1177.18,501.734 1149.57,506.332 1121.5,508.784 1093.25,509.192 1065.07,507.558 1037.23,503.88 1009.97,498.261 983.48,490.803 958.042,481.608 933.794,470.881 911.088,458.724 890.065,445.341 870.863,430.731 853.623,415.305 838.486,399.112 825.732,382.306 815.36,364.939 807.511,347.188 802.185,329.182 799.382,311.003 799.101,292.774 801.624,274.589 806.67,256.544 814.098,238.768 824.05,221.298 836.384,204.39 850.96,188.096 867.779,172.465 886.561,157.753 907.304,144.166 929.729,131.702 953.556,120.668 978.785,111.269 1005.06,103.505 1032.19,97.5796 1059.9,93.5952 1088,91.6541 1116.25,91.7563 1144.38,93.9017 1172.13,98.0904 1199.25,104.22 1225.46,112.189 1250.55,121.894 1274.38,133.03 1296.67,145.494 1317.27,159.286 1335.91,174.099 1352.45,189.73 1366.88,206.127 1378.94,223.086 1388.61,240.556 1395.9,258.358 1400.66,276.415 1402.63,294.597 1402.06,312.823 1398.98,330.995 1393.37,348.976 1385.11,366.676 1374.59,383.941 1361.7,400.747 1346.56,416.837 1329.32,432.162 1310.12,446.567 1288.96,459.95 1266.11,472.005 1241.93,482.63 1216.49,491.722 1190,499.078 1162.67,504.493 1134.76,507.966 1106.57,509.397 1078.32,508.784 1050.23,506.025 1022.58,501.326 995.674,494.685 969.675,486.206 944.867,476.092 921.46,464.547 899.595,451.675 879.553,437.678 861.332,422.661 845.354,406.825 831.478,390.275 819.985,373.112 810.875,355.54 804.428,337.636 800.503,319.54 799.101,301.323 800.503,283.107 804.428,264.998 810.595,247.094 819.284,229.471 830.497,212.308 844.092,195.758 859.79,179.82 877.731,164.802 897.493,150.602 919.077,137.627 942.344,125.981 966.942,115.764 992.661,107.183 1019.43,100.44 1046.9,95.5363 1074.83,92.5736 1103,91.7563 1131.17,92.9822 1159.1,96.2514 1186.5,101.564 1213.13,108.715 1238.71,117.603 1263.03,128.024 1286.01,139.977 1307.46,153.156 1326.94,167.459 1344.46,182.681 1359.88,198.72 1373.05,215.424 1383.84,232.638 1392.25,250.287 1397.86,268.216 1400.94,286.338 1401.5,304.519 1399.54,322.682 1395.06,340.701 1388.05,358.503 1378.66,375.921 1366.88,392.931 1352.73,409.277 1336.33,425.01 1317.97,439.824 1297.65,453.616 1275.64,466.284 1252.09,477.522 1227.22,487.227 1201.15,495.298 1174.24,501.53 1146.66,505.821 1118.66,508.171 1090.5,508.375 1062.42,506.536 1034.71,502.654 1007.59,496.831 981.308,489.168 956.079,479.872 932.112,469.042 909.687,456.783 888.803,443.297 869.882,428.688 852.922,413.262 838.206,397.018 825.732,380.212 815.64,362.844 808.072,345.119 802.746,327.139 800.223,308.998 800.223,290.807 802.746,272.661 807.791,254.654 815.36,236.929 825.592,219.613 838.066,202.756 852.922,186.563 869.882,171.034 888.803,156.425 909.547,142.94 931.972,130.68 956.079,119.851 981.308,110.554 1007.66,102.994 "/>
<path clip-path="url(#clip390)" d="M222.643 1438.47 L742.928 1438.47 L742.928 1231.11 L222.643 1231.11  Z" fill="#ffffff" fill-rule="evenodd" fill-opacity="1"/>
<polyline clip-path="url(#clip390)" style="stroke:#000000; stroke-linecap:round; stroke-linejoin:round; stroke-width:4; stroke-opacity:1; fill:none" points="222.643,1438.47 742.928,1438.47 742.928,1231.11 222.643,1231.11 222.643,1438.47 "/>
<polyline clip-path="url(#clip390)" style="stroke:#009af9; stroke-linecap:round; stroke-linejoin:round; stroke-width:4; stroke-opacity:1; fill:none" points="247.127,1282.95 394.031,1282.95 "/>
<path clip-path="url(#clip390)" d="M425.923 1266.95 L425.923 1274.31 L434.696 1274.31 L434.696 1277.62 L425.923 1277.62 L425.923 1291.69 Q425.923 1294.86 426.779 1295.77 Q427.659 1296.67 430.321 1296.67 L434.696 1296.67 L434.696 1300.23 L430.321 1300.23 Q425.39 1300.23 423.515 1298.41 Q421.64 1296.55 421.64 1291.69 L421.64 1277.62 L418.515 1277.62 L418.515 1274.31 L421.64 1274.31 L421.64 1266.95 L425.923 1266.95 Z" fill="#000000" fill-rule="nonzero" fill-opacity="1" /><path clip-path="url(#clip390)" d="M455.321 1278.29 Q454.603 1277.87 453.747 1277.69 Q452.913 1277.48 451.895 1277.48 Q448.284 1277.48 446.339 1279.84 Q444.418 1282.18 444.418 1286.58 L444.418 1300.23 L440.136 1300.23 L440.136 1274.31 L444.418 1274.31 L444.418 1278.34 Q445.761 1275.98 447.913 1274.84 Q450.066 1273.68 453.145 1273.68 Q453.585 1273.68 454.117 1273.75 Q454.65 1273.8 455.298 1273.92 L455.321 1278.29 Z" fill="#000000" fill-rule="nonzero" fill-opacity="1" /><path clip-path="url(#clip390)" d="M471.571 1287.2 Q466.409 1287.2 464.418 1288.38 Q462.427 1289.56 462.427 1292.41 Q462.427 1294.68 463.909 1296.02 Q465.413 1297.34 467.983 1297.34 Q471.524 1297.34 473.654 1294.84 Q475.807 1292.32 475.807 1288.15 L475.807 1287.2 L471.571 1287.2 M480.066 1285.44 L480.066 1300.23 L475.807 1300.23 L475.807 1296.3 Q474.349 1298.66 472.173 1299.79 Q469.997 1300.91 466.849 1300.91 Q462.867 1300.91 460.506 1298.68 Q458.168 1296.44 458.168 1292.69 Q458.168 1288.31 461.085 1286.09 Q464.024 1283.87 469.835 1283.87 L475.807 1283.87 L475.807 1283.45 Q475.807 1280.51 473.862 1278.92 Q471.941 1277.29 468.446 1277.29 Q466.224 1277.29 464.117 1277.83 Q462.011 1278.36 460.066 1279.42 L460.066 1275.49 Q462.404 1274.59 464.603 1274.15 Q466.802 1273.68 468.886 1273.68 Q474.511 1273.68 477.288 1276.6 Q480.066 1279.52 480.066 1285.44 Z" fill="#000000" fill-rule="nonzero" fill-opacity="1" /><path clip-path="url(#clip390)" d="M488.839 1274.31 L493.098 1274.31 L493.098 1300.23 L488.839 1300.23 L488.839 1274.31 M488.839 1264.22 L493.098 1264.22 L493.098 1269.61 L488.839 1269.61 L488.839 1264.22 Z" fill="#000000" fill-rule="nonzero" fill-opacity="1" /><path clip-path="url(#clip390)" d="M523.561 1284.59 L523.561 1300.23 L519.302 1300.23 L519.302 1284.73 Q519.302 1281.04 517.867 1279.22 Q516.432 1277.39 513.561 1277.39 Q510.112 1277.39 508.121 1279.59 Q506.131 1281.79 506.131 1285.58 L506.131 1300.23 L501.848 1300.23 L501.848 1274.31 L506.131 1274.31 L506.131 1278.34 Q507.659 1276 509.719 1274.84 Q511.802 1273.68 514.51 1273.68 Q518.978 1273.68 521.27 1276.46 Q523.561 1279.22 523.561 1284.59 Z" fill="#000000" fill-rule="nonzero" fill-opacity="1" /><path clip-path="url(#clip390)" d="M532.057 1274.31 L536.316 1274.31 L536.316 1300.23 L532.057 1300.23 L532.057 1274.31 M532.057 1264.22 L536.316 1264.22 L536.316 1269.61 L532.057 1269.61 L532.057 1264.22 Z" fill="#000000" fill-rule="nonzero" fill-opacity="1" /><path clip-path="url(#clip390)" d="M566.779 1284.59 L566.779 1300.23 L562.519 1300.23 L562.519 1284.73 Q562.519 1281.04 561.084 1279.22 Q559.649 1277.39 556.779 1277.39 Q553.33 1277.39 551.339 1279.59 Q549.348 1281.79 549.348 1285.58 L549.348 1300.23 L545.066 1300.23 L545.066 1274.31 L549.348 1274.31 L549.348 1278.34 Q550.876 1276 552.936 1274.84 Q555.019 1273.68 557.728 1273.68 Q562.195 1273.68 564.487 1276.46 Q566.779 1279.22 566.779 1284.59 Z" fill="#000000" fill-rule="nonzero" fill-opacity="1" /><path clip-path="url(#clip390)" d="M592.334 1286.97 Q592.334 1282.34 590.413 1279.79 Q588.515 1277.25 585.066 1277.25 Q581.64 1277.25 579.718 1279.79 Q577.82 1282.34 577.82 1286.97 Q577.82 1291.58 579.718 1294.12 Q581.64 1296.67 585.066 1296.67 Q588.515 1296.67 590.413 1294.12 Q592.334 1291.58 592.334 1286.97 M596.593 1297.02 Q596.593 1303.64 593.653 1306.85 Q590.714 1310.1 584.649 1310.1 Q582.403 1310.1 580.413 1309.75 Q578.422 1309.42 576.547 1308.73 L576.547 1304.59 Q578.422 1305.6 580.251 1306.09 Q582.079 1306.58 583.978 1306.58 Q588.167 1306.58 590.251 1304.38 Q592.334 1302.2 592.334 1297.78 L592.334 1295.67 Q591.015 1297.97 588.954 1299.1 Q586.894 1300.23 584.024 1300.23 Q579.255 1300.23 576.339 1296.6 Q573.422 1292.97 573.422 1286.97 Q573.422 1280.95 576.339 1277.32 Q579.255 1273.68 584.024 1273.68 Q586.894 1273.68 588.954 1274.82 Q591.015 1275.95 592.334 1278.24 L592.334 1274.31 L596.593 1274.31 L596.593 1297.02 Z" fill="#000000" fill-rule="nonzero" fill-opacity="1" /><path clip-path="url(#clip390)" d="M637.496 1278.24 L637.496 1264.22 L641.755 1264.22 L641.755 1300.23 L637.496 1300.23 L637.496 1296.35 Q636.153 1298.66 634.093 1299.79 Q632.056 1300.91 629.186 1300.91 Q624.487 1300.91 621.524 1297.16 Q618.584 1293.41 618.584 1287.29 Q618.584 1281.18 621.524 1277.43 Q624.487 1273.68 629.186 1273.68 Q632.056 1273.68 634.093 1274.82 Q636.153 1275.93 637.496 1278.24 M622.982 1287.29 Q622.982 1291.99 624.903 1294.68 Q626.848 1297.34 630.227 1297.34 Q633.607 1297.34 635.551 1294.68 Q637.496 1291.99 637.496 1287.29 Q637.496 1282.6 635.551 1279.93 Q633.607 1277.25 630.227 1277.25 Q626.848 1277.25 624.903 1279.93 Q622.982 1282.6 622.982 1287.29 Z" fill="#000000" fill-rule="nonzero" fill-opacity="1" /><path clip-path="url(#clip390)" d="M662.31 1287.2 Q657.148 1287.2 655.158 1288.38 Q653.167 1289.56 653.167 1292.41 Q653.167 1294.68 654.648 1296.02 Q656.153 1297.34 658.723 1297.34 Q662.264 1297.34 664.394 1294.84 Q666.547 1292.32 666.547 1288.15 L666.547 1287.2 L662.31 1287.2 M670.806 1285.44 L670.806 1300.23 L666.547 1300.23 L666.547 1296.3 Q665.088 1298.66 662.912 1299.79 Q660.736 1300.91 657.588 1300.91 Q653.607 1300.91 651.246 1298.68 Q648.908 1296.44 648.908 1292.69 Q648.908 1288.31 651.824 1286.09 Q654.764 1283.87 660.574 1283.87 L666.547 1283.87 L666.547 1283.45 Q666.547 1280.51 664.602 1278.92 Q662.681 1277.29 659.185 1277.29 Q656.963 1277.29 654.857 1277.83 Q652.75 1278.36 650.806 1279.42 L650.806 1275.49 Q653.144 1274.59 655.343 1274.15 Q657.542 1273.68 659.625 1273.68 Q665.25 1273.68 668.028 1276.6 Q670.806 1279.52 670.806 1285.44 Z" fill="#000000" fill-rule="nonzero" fill-opacity="1" /><path clip-path="url(#clip390)" d="M683.792 1266.95 L683.792 1274.31 L692.565 1274.31 L692.565 1277.62 L683.792 1277.62 L683.792 1291.69 Q683.792 1294.86 684.648 1295.77 Q685.528 1296.67 688.19 1296.67 L692.565 1296.67 L692.565 1300.23 L688.19 1300.23 Q683.259 1300.23 681.384 1298.41 Q679.509 1296.55 679.509 1291.69 L679.509 1277.62 L676.384 1277.62 L676.384 1274.31 L679.509 1274.31 L679.509 1266.95 L683.792 1266.95 Z" fill="#000000" fill-rule="nonzero" fill-opacity="1" /><path clip-path="url(#clip390)" d="M709.949 1287.2 Q704.787 1287.2 702.796 1288.38 Q700.806 1289.56 700.806 1292.41 Q700.806 1294.68 702.287 1296.02 Q703.792 1297.34 706.361 1297.34 Q709.903 1297.34 712.032 1294.84 Q714.185 1292.32 714.185 1288.15 L714.185 1287.2 L709.949 1287.2 M718.444 1285.44 L718.444 1300.23 L714.185 1300.23 L714.185 1296.3 Q712.727 1298.66 710.551 1299.79 Q708.375 1300.91 705.227 1300.91 Q701.245 1300.91 698.884 1298.68 Q696.546 1296.44 696.546 1292.69 Q696.546 1288.31 699.463 1286.09 Q702.403 1283.87 708.213 1283.87 L714.185 1283.87 L714.185 1283.45 Q714.185 1280.51 712.241 1278.92 Q710.319 1277.29 706.824 1277.29 Q704.602 1277.29 702.495 1277.83 Q700.389 1278.36 698.445 1279.42 L698.445 1275.49 Q700.782 1274.59 702.982 1274.15 Q705.181 1273.68 707.264 1273.68 Q712.889 1273.68 715.667 1276.6 Q718.444 1279.52 718.444 1285.44 Z" fill="#000000" fill-rule="nonzero" fill-opacity="1" /><polyline clip-path="url(#clip390)" style="stroke:#e26f46; stroke-linecap:round; stroke-linejoin:round; stroke-width:4; stroke-opacity:1; fill:none" points="247.127,1334.79 394.031,1334.79 "/>
<path clip-path="url(#clip390)" d="M418.515 1317.51 L423.191 1317.51 L423.191 1348.14 L440.02 1348.14 L440.02 1352.07 L418.515 1352.07 L418.515 1317.51 Z" fill="#000000" fill-rule="nonzero" fill-opacity="1" /><path clip-path="url(#clip390)" d="M457.566 1322.12 L451.224 1339.32 L463.932 1339.32 L457.566 1322.12 M454.927 1317.51 L460.228 1317.51 L473.399 1352.07 L468.538 1352.07 L465.39 1343.21 L449.812 1343.21 L446.663 1352.07 L441.733 1352.07 L454.927 1317.51 Z" fill="#000000" fill-rule="nonzero" fill-opacity="1" /><path clip-path="url(#clip390)" d="M514.233 1318.65 L514.233 1323.21 Q511.571 1321.94 509.209 1321.31 Q506.848 1320.69 504.649 1320.69 Q500.83 1320.69 498.747 1322.17 Q496.686 1323.65 496.686 1326.38 Q496.686 1328.67 498.052 1329.85 Q499.441 1331.01 503.284 1331.73 L506.108 1332.31 Q511.339 1333.3 513.816 1335.82 Q516.316 1338.32 516.316 1342.54 Q516.316 1347.56 512.936 1350.15 Q509.58 1352.75 503.075 1352.75 Q500.622 1352.75 497.844 1352.19 Q495.089 1351.63 492.126 1350.55 L492.126 1345.73 Q494.973 1347.33 497.705 1348.14 Q500.436 1348.95 503.075 1348.95 Q507.08 1348.95 509.256 1347.38 Q511.432 1345.8 511.432 1342.88 Q511.432 1340.34 509.858 1338.9 Q508.307 1337.47 504.742 1336.75 L501.895 1336.19 Q496.663 1335.15 494.325 1332.93 Q491.987 1330.71 491.987 1326.75 Q491.987 1322.17 495.205 1319.53 Q498.446 1316.89 504.117 1316.89 Q506.547 1316.89 509.071 1317.33 Q511.594 1317.77 514.233 1318.65 Z" fill="#000000" fill-rule="nonzero" fill-opacity="1" /><path clip-path="url(#clip390)" d="M534.209 1354.48 Q532.404 1359.11 530.691 1360.52 Q528.978 1361.94 526.107 1361.94 L522.705 1361.94 L522.705 1358.37 L525.205 1358.37 Q526.964 1358.37 527.936 1357.54 Q528.908 1356.7 530.089 1353.6 L530.853 1351.66 L520.367 1326.15 L524.881 1326.15 L532.982 1346.43 L541.084 1326.15 L545.598 1326.15 L534.209 1354.48 Z" fill="#000000" fill-rule="nonzero" fill-opacity="1" /><path clip-path="url(#clip390)" d="M571.663 1331.13 Q573.26 1328.26 575.482 1326.89 Q577.704 1325.52 580.714 1325.52 Q584.765 1325.52 586.964 1328.37 Q589.163 1331.19 589.163 1336.43 L589.163 1352.07 L584.88 1352.07 L584.88 1336.57 Q584.88 1332.84 583.561 1331.03 Q582.241 1329.23 579.533 1329.23 Q576.223 1329.23 574.302 1331.43 Q572.38 1333.63 572.38 1337.42 L572.38 1352.07 L568.098 1352.07 L568.098 1336.57 Q568.098 1332.82 566.779 1331.03 Q565.459 1329.23 562.705 1329.23 Q559.441 1329.23 557.519 1331.45 Q555.598 1333.65 555.598 1337.42 L555.598 1352.07 L551.316 1352.07 L551.316 1326.15 L555.598 1326.15 L555.598 1330.18 Q557.056 1327.79 559.093 1326.66 Q561.13 1325.52 563.931 1325.52 Q566.755 1325.52 568.723 1326.96 Q570.714 1328.39 571.663 1331.13 Z" fill="#000000" fill-rule="nonzero" fill-opacity="1" /><path clip-path="url(#clip390)" d="M601.778 1348.19 L601.778 1361.94 L597.496 1361.94 L597.496 1326.15 L601.778 1326.15 L601.778 1330.08 Q603.121 1327.77 605.158 1326.66 Q607.218 1325.52 610.065 1325.52 Q614.788 1325.52 617.727 1329.27 Q620.69 1333.02 620.69 1339.13 Q620.69 1345.25 617.727 1349 Q614.788 1352.75 610.065 1352.75 Q607.218 1352.75 605.158 1351.63 Q603.121 1350.5 601.778 1348.19 M616.269 1339.13 Q616.269 1334.44 614.325 1331.77 Q612.403 1329.09 609.024 1329.09 Q605.644 1329.09 603.7 1331.77 Q601.778 1334.44 601.778 1339.13 Q601.778 1343.83 603.7 1346.52 Q605.644 1349.18 609.024 1349.18 Q612.403 1349.18 614.325 1346.52 Q616.269 1343.83 616.269 1339.13 Z" fill="#000000" fill-rule="nonzero" fill-opacity="1" /><path clip-path="url(#clip390)" d="M649.301 1336.43 L649.301 1352.07 L645.042 1352.07 L645.042 1336.57 Q645.042 1332.88 643.607 1331.06 Q642.172 1329.23 639.301 1329.23 Q635.852 1329.23 633.862 1331.43 Q631.871 1333.63 631.871 1337.42 L631.871 1352.07 L627.588 1352.07 L627.588 1326.15 L631.871 1326.15 L631.871 1330.18 Q633.399 1327.84 635.459 1326.68 Q637.542 1325.52 640.25 1325.52 Q644.718 1325.52 647.01 1328.3 Q649.301 1331.06 649.301 1336.43 Z" fill="#000000" fill-rule="nonzero" fill-opacity="1" /><path clip-path="url(#clip390)" d="M679.972 1338.05 L679.972 1340.13 L660.389 1340.13 Q660.667 1344.53 663.028 1346.84 Q665.412 1349.13 669.648 1349.13 Q672.102 1349.13 674.394 1348.53 Q676.709 1347.93 678.977 1346.73 L678.977 1350.75 Q676.685 1351.73 674.278 1352.24 Q671.871 1352.75 669.394 1352.75 Q663.19 1352.75 659.556 1349.13 Q655.945 1345.52 655.945 1339.37 Q655.945 1333 659.371 1329.27 Q662.82 1325.52 668.653 1325.52 Q673.884 1325.52 676.917 1328.9 Q679.972 1332.26 679.972 1338.05 M675.713 1336.8 Q675.667 1333.3 673.746 1331.22 Q671.847 1329.13 668.699 1329.13 Q665.135 1329.13 662.982 1331.15 Q660.852 1333.16 660.528 1336.82 L675.713 1336.8 Z" fill="#000000" fill-rule="nonzero" fill-opacity="1" /><path clip-path="url(#clip390)" d="M691.176 1318.79 L691.176 1326.15 L699.949 1326.15 L699.949 1329.46 L691.176 1329.46 L691.176 1343.53 Q691.176 1346.7 692.033 1347.61 Q692.912 1348.51 695.574 1348.51 L699.949 1348.51 L699.949 1352.07 L695.574 1352.07 Q690.644 1352.07 688.769 1350.25 Q686.894 1348.39 686.894 1343.53 L686.894 1329.46 L683.769 1329.46 L683.769 1326.15 L686.894 1326.15 L686.894 1318.79 L691.176 1318.79 Z" fill="#000000" fill-rule="nonzero" fill-opacity="1" /><polyline clip-path="url(#clip390)" style="stroke:#3da44d; stroke-linecap:round; stroke-linejoin:round; stroke-width:4; stroke-opacity:1; fill:none" points="247.127,1386.63 394.031,1386.63 "/>
<path clip-path="url(#clip390)" d="M444.071 1398.98 L444.071 1389.7 L436.432 1389.7 L436.432 1385.86 L448.701 1385.86 L448.701 1400.7 Q445.992 1402.62 442.728 1403.61 Q439.464 1404.59 435.761 1404.59 Q427.659 1404.59 423.076 1399.86 Q418.515 1395.12 418.515 1386.67 Q418.515 1378.2 423.076 1373.47 Q427.659 1368.73 435.761 1368.73 Q439.14 1368.73 442.173 1369.56 Q445.228 1370.4 447.798 1372.02 L447.798 1376.99 Q445.205 1374.79 442.289 1373.68 Q439.372 1372.57 436.154 1372.57 Q429.812 1372.57 426.617 1376.11 Q423.446 1379.66 423.446 1386.67 Q423.446 1393.66 426.617 1397.2 Q429.812 1400.74 436.154 1400.74 Q438.631 1400.74 440.576 1400.33 Q442.52 1399.89 444.071 1398.98 Z" fill="#000000" fill-rule="nonzero" fill-opacity="1" /><path clip-path="url(#clip390)" d="M493.029 1370.49 L493.029 1375.05 Q490.367 1373.78 488.006 1373.15 Q485.645 1372.53 483.446 1372.53 Q479.626 1372.53 477.543 1374.01 Q475.483 1375.49 475.483 1378.22 Q475.483 1380.51 476.849 1381.69 Q478.237 1382.85 482.08 1383.57 L484.904 1384.15 Q490.135 1385.14 492.612 1387.66 Q495.112 1390.16 495.112 1394.38 Q495.112 1399.4 491.733 1401.99 Q488.376 1404.59 481.872 1404.59 Q479.418 1404.59 476.64 1404.03 Q473.886 1403.47 470.923 1402.39 L470.923 1397.57 Q473.77 1399.17 476.501 1399.98 Q479.233 1400.79 481.872 1400.79 Q485.876 1400.79 488.052 1399.22 Q490.228 1397.64 490.228 1394.72 Q490.228 1392.18 488.654 1390.74 Q487.103 1389.31 483.538 1388.59 L480.691 1388.03 Q475.46 1386.99 473.122 1384.77 Q470.784 1382.55 470.784 1378.59 Q470.784 1374.01 474.001 1371.37 Q477.242 1368.73 482.913 1368.73 Q485.344 1368.73 487.867 1369.17 Q490.39 1369.61 493.029 1370.49 Z" fill="#000000" fill-rule="nonzero" fill-opacity="1" /><path clip-path="url(#clip390)" d="M513.006 1406.32 Q511.2 1410.95 509.487 1412.36 Q507.774 1413.78 504.904 1413.78 L501.501 1413.78 L501.501 1410.21 L504.001 1410.21 Q505.76 1410.21 506.733 1409.38 Q507.705 1408.54 508.885 1405.44 L509.649 1403.5 L499.163 1377.99 L503.677 1377.99 L511.779 1398.27 L519.881 1377.99 L524.395 1377.99 L513.006 1406.32 Z" fill="#000000" fill-rule="nonzero" fill-opacity="1" /><path clip-path="url(#clip390)" d="M550.459 1382.97 Q552.056 1380.1 554.279 1378.73 Q556.501 1377.36 559.51 1377.36 Q563.561 1377.36 565.76 1380.21 Q567.959 1383.03 567.959 1388.27 L567.959 1403.91 L563.677 1403.91 L563.677 1388.41 Q563.677 1384.68 562.357 1382.87 Q561.038 1381.07 558.33 1381.07 Q555.019 1381.07 553.098 1383.27 Q551.177 1385.47 551.177 1389.26 L551.177 1403.91 L546.894 1403.91 L546.894 1388.41 Q546.894 1384.66 545.575 1382.87 Q544.256 1381.07 541.501 1381.07 Q538.237 1381.07 536.316 1383.29 Q534.394 1385.49 534.394 1389.26 L534.394 1403.91 L530.112 1403.91 L530.112 1377.99 L534.394 1377.99 L534.394 1382.02 Q535.853 1379.63 537.89 1378.5 Q539.927 1377.36 542.728 1377.36 Q545.552 1377.36 547.519 1378.8 Q549.51 1380.23 550.459 1382.97 Z" fill="#000000" fill-rule="nonzero" fill-opacity="1" /><path clip-path="url(#clip390)" d="M580.575 1400.03 L580.575 1413.78 L576.292 1413.78 L576.292 1377.99 L580.575 1377.99 L580.575 1381.92 Q581.917 1379.61 583.954 1378.5 Q586.015 1377.36 588.862 1377.36 Q593.584 1377.36 596.524 1381.11 Q599.487 1384.86 599.487 1390.97 Q599.487 1397.09 596.524 1400.84 Q593.584 1404.59 588.862 1404.59 Q586.015 1404.59 583.954 1403.47 Q581.917 1402.34 580.575 1400.03 M595.065 1390.97 Q595.065 1386.28 593.121 1383.61 Q591.2 1380.93 587.82 1380.93 Q584.441 1380.93 582.496 1383.61 Q580.575 1386.28 580.575 1390.97 Q580.575 1395.67 582.496 1398.36 Q584.441 1401.02 587.82 1401.02 Q591.2 1401.02 593.121 1398.36 Q595.065 1395.67 595.065 1390.97 Z" fill="#000000" fill-rule="nonzero" fill-opacity="1" /><path clip-path="url(#clip390)" d="M628.098 1388.27 L628.098 1403.91 L623.838 1403.91 L623.838 1388.41 Q623.838 1384.72 622.403 1382.9 Q620.968 1381.07 618.098 1381.07 Q614.649 1381.07 612.658 1383.27 Q610.667 1385.47 610.667 1389.26 L610.667 1403.91 L606.385 1403.91 L606.385 1377.99 L610.667 1377.99 L610.667 1382.02 Q612.195 1379.68 614.255 1378.52 Q616.338 1377.36 619.047 1377.36 Q623.514 1377.36 625.806 1380.14 Q628.098 1382.9 628.098 1388.27 Z" fill="#000000" fill-rule="nonzero" fill-opacity="1" /><path clip-path="url(#clip390)" d="M658.769 1389.89 L658.769 1391.97 L639.186 1391.97 Q639.463 1396.37 641.824 1398.68 Q644.209 1400.97 648.445 1400.97 Q650.898 1400.97 653.19 1400.37 Q655.505 1399.77 657.773 1398.57 L657.773 1402.59 Q655.482 1403.57 653.074 1404.08 Q650.667 1404.59 648.19 1404.59 Q641.987 1404.59 638.352 1400.97 Q634.741 1397.36 634.741 1391.21 Q634.741 1384.84 638.167 1381.11 Q641.616 1377.36 647.449 1377.36 Q652.681 1377.36 655.713 1380.74 Q658.769 1384.1 658.769 1389.89 M654.51 1388.64 Q654.463 1385.14 652.542 1383.06 Q650.644 1380.97 647.496 1380.97 Q643.931 1380.97 641.778 1382.99 Q639.649 1385 639.324 1388.66 L654.51 1388.64 Z" fill="#000000" fill-rule="nonzero" fill-opacity="1" /><path clip-path="url(#clip390)" d="M669.972 1370.63 L669.972 1377.99 L678.746 1377.99 L678.746 1381.3 L669.972 1381.3 L669.972 1395.37 Q669.972 1398.54 670.829 1399.45 Q671.709 1400.35 674.371 1400.35 L678.746 1400.35 L678.746 1403.91 L674.371 1403.91 Q669.44 1403.91 667.565 1402.09 Q665.69 1400.23 665.69 1395.37 L665.69 1381.3 L662.565 1381.3 L662.565 1377.99 L665.69 1377.99 L665.69 1370.63 L669.972 1370.63 Z" fill="#000000" fill-rule="nonzero" fill-opacity="1" /></svg>
