<?xml version="1.0" encoding="utf-8"?>
<svg xmlns="http://www.w3.org/2000/svg" xmlns:xlink="http://www.w3.org/1999/xlink" width="600" height="400" viewBox="0 0 2400 1600">
<defs>
  <clipPath id="clip920">
    <rect x="0" y="0" width="2400" height="1600"/>
  </clipPath>
</defs>
<path clip-path="url(#clip920)" d="M0 1600 L2400 1600 L2400 0 L0 0  Z" fill="#ffffff" fill-rule="evenodd" fill-opacity="1"/>
<defs>
  <clipPath id="clip921">
    <rect x="480" y="0" width="1681" height="1600"/>
  </clipPath>
</defs>
<path clip-path="url(#clip920)" d="M193.936 1486.45 L2352.76 1486.45 L2352.76 47.2441 L193.936 47.2441  Z" fill="#ffffff" fill-rule="evenodd" fill-opacity="1"/>
<defs>
  <clipPath id="clip922">
    <rect x="193" y="47" width="2160" height="1440"/>
  </clipPath>
</defs>
<polyline clip-path="url(#clip922)" style="stroke:#000000; stroke-linecap:round; stroke-linejoin:round; stroke-width:2; stroke-opacity:0.1; fill:none" points="383.627,1486.45 383.627,47.2441 "/>
<polyline clip-path="url(#clip922)" style="stroke:#000000; stroke-linecap:round; stroke-linejoin:round; stroke-width:2; stroke-opacity:0.1; fill:none" points="828.486,1486.45 828.486,47.2441 "/>
<polyline clip-path="url(#clip922)" style="stroke:#000000; stroke-linecap:round; stroke-linejoin:round; stroke-width:2; stroke-opacity:0.1; fill:none" points="1273.35,1486.45 1273.35,47.2441 "/>
<polyline clip-path="url(#clip922)" style="stroke:#000000; stroke-linecap:round; stroke-linejoin:round; stroke-width:2; stroke-opacity:0.1; fill:none" points="1718.21,1486.45 1718.21,47.2441 "/>
<polyline clip-path="url(#clip922)" style="stroke:#000000; stroke-linecap:round; stroke-linejoin:round; stroke-width:2; stroke-opacity:0.1; fill:none" points="2163.07,1486.45 2163.07,47.2441 "/>
<polyline clip-path="url(#clip920)" style="stroke:#000000; stroke-linecap:round; stroke-linejoin:round; stroke-width:4; stroke-opacity:1; fill:none" points="193.936,1486.45 2352.76,1486.45 "/>
<polyline clip-path="url(#clip920)" style="stroke:#000000; stroke-linecap:round; stroke-linejoin:round; stroke-width:4; stroke-opacity:1; fill:none" points="383.627,1486.45 383.627,1467.55 "/>
<polyline clip-path="url(#clip920)" style="stroke:#000000; stroke-linecap:round; stroke-linejoin:round; stroke-width:4; stroke-opacity:1; fill:none" points="828.486,1486.45 828.486,1467.55 "/>
<polyline clip-path="url(#clip920)" style="stroke:#000000; stroke-linecap:round; stroke-linejoin:round; stroke-width:4; stroke-opacity:1; fill:none" points="1273.35,1486.45 1273.35,1467.55 "/>
<polyline clip-path="url(#clip920)" style="stroke:#000000; stroke-linecap:round; stroke-linejoin:round; stroke-width:4; stroke-opacity:1; fill:none" points="1718.21,1486.45 1718.21,1467.55 "/>
<polyline clip-path="url(#clip920)" style="stroke:#000000; stroke-linecap:round; stroke-linejoin:round; stroke-width:4; stroke-opacity:1; fill:none" points="2163.07,1486.45 2163.07,1467.55 "/>
<path clip-path="url(#clip920)" d="M330.155 1532.02 L359.831 1532.02 L359.831 1535.95 L330.155 1535.95 L330.155 1532.02 Z" fill="#000000" fill-rule="nonzero" fill-opacity="1" /><path clip-path="url(#clip920)" d="M370.733 1544.91 L378.372 1544.91 L378.372 1518.55 L370.062 1520.21 L370.062 1515.95 L378.326 1514.29 L383.002 1514.29 L383.002 1544.91 L390.641 1544.91 L390.641 1548.85 L370.733 1548.85 L370.733 1544.91 Z" fill="#000000" fill-rule="nonzero" fill-opacity="1" /><path clip-path="url(#clip920)" d="M400.085 1542.97 L404.969 1542.97 L404.969 1548.85 L400.085 1548.85 L400.085 1542.97 Z" fill="#000000" fill-rule="nonzero" fill-opacity="1" /><path clip-path="url(#clip920)" d="M425.154 1517.37 Q421.543 1517.37 419.715 1520.93 Q417.909 1524.47 417.909 1531.6 Q417.909 1538.71 419.715 1542.27 Q421.543 1545.82 425.154 1545.82 Q428.789 1545.82 430.594 1542.27 Q432.423 1538.71 432.423 1531.6 Q432.423 1524.47 430.594 1520.93 Q428.789 1517.37 425.154 1517.37 M425.154 1513.66 Q430.965 1513.66 434.02 1518.27 Q437.099 1522.85 437.099 1531.6 Q437.099 1540.33 434.02 1544.94 Q430.965 1549.52 425.154 1549.52 Q419.344 1549.52 416.266 1544.94 Q413.21 1540.33 413.21 1531.6 Q413.21 1522.85 416.266 1518.27 Q419.344 1513.66 425.154 1513.66 Z" fill="#000000" fill-rule="nonzero" fill-opacity="1" /><path clip-path="url(#clip920)" d="M775.512 1532.02 L805.188 1532.02 L805.188 1535.95 L775.512 1535.95 L775.512 1532.02 Z" fill="#000000" fill-rule="nonzero" fill-opacity="1" /><path clip-path="url(#clip920)" d="M825.28 1517.37 Q821.669 1517.37 819.841 1520.93 Q818.035 1524.47 818.035 1531.6 Q818.035 1538.71 819.841 1542.27 Q821.669 1545.82 825.28 1545.82 Q828.915 1545.82 830.72 1542.27 Q832.549 1538.71 832.549 1531.6 Q832.549 1524.47 830.72 1520.93 Q828.915 1517.37 825.28 1517.37 M825.28 1513.66 Q831.091 1513.66 834.146 1518.27 Q837.225 1522.85 837.225 1531.6 Q837.225 1540.33 834.146 1544.94 Q831.091 1549.52 825.28 1549.52 Q819.47 1549.52 816.392 1544.94 Q813.336 1540.33 813.336 1531.6 Q813.336 1522.85 816.392 1518.27 Q819.47 1513.66 825.28 1513.66 Z" fill="#000000" fill-rule="nonzero" fill-opacity="1" /><path clip-path="url(#clip920)" d="M845.442 1542.97 L850.327 1542.97 L850.327 1548.85 L845.442 1548.85 L845.442 1542.97 Z" fill="#000000" fill-rule="nonzero" fill-opacity="1" /><path clip-path="url(#clip920)" d="M860.558 1514.29 L878.914 1514.29 L878.914 1518.22 L864.84 1518.22 L864.84 1526.7 Q865.859 1526.35 866.877 1526.19 Q867.896 1526 868.914 1526 Q874.701 1526 878.081 1529.17 Q881.461 1532.34 881.461 1537.76 Q881.461 1543.34 877.988 1546.44 Q874.516 1549.52 868.197 1549.52 Q866.021 1549.52 863.752 1549.15 Q861.507 1548.78 859.1 1548.04 L859.1 1543.34 Q861.183 1544.47 863.405 1545.03 Q865.627 1545.58 868.104 1545.58 Q872.109 1545.58 874.447 1543.48 Q876.785 1541.37 876.785 1537.76 Q876.785 1534.15 874.447 1532.04 Q872.109 1529.94 868.104 1529.94 Q866.229 1529.94 864.354 1530.35 Q862.502 1530.77 860.558 1531.65 L860.558 1514.29 Z" fill="#000000" fill-rule="nonzero" fill-opacity="1" /><path clip-path="url(#clip920)" d="M1250.73 1517.37 Q1247.12 1517.37 1245.29 1520.93 Q1243.49 1524.47 1243.49 1531.6 Q1243.49 1538.71 1245.29 1542.27 Q1247.12 1545.82 1250.73 1545.82 Q1254.36 1545.82 1256.17 1542.27 Q1258 1538.71 1258 1531.6 Q1258 1524.47 1256.17 1520.93 Q1254.36 1517.37 1250.73 1517.37 M1250.73 1513.66 Q1256.54 1513.66 1259.6 1518.27 Q1262.67 1522.85 1262.67 1531.6 Q1262.67 1540.33 1259.6 1544.94 Q1256.54 1549.52 1250.73 1549.52 Q1244.92 1549.52 1241.84 1544.94 Q1238.79 1540.33 1238.79 1531.6 Q1238.79 1522.85 1241.84 1518.27 Q1244.92 1513.66 1250.73 1513.66 Z" fill="#000000" fill-rule="nonzero" fill-opacity="1" /><path clip-path="url(#clip920)" d="M1270.89 1542.97 L1275.78 1542.97 L1275.78 1548.85 L1270.89 1548.85 L1270.89 1542.97 Z" fill="#000000" fill-rule="nonzero" fill-opacity="1" /><path clip-path="url(#clip920)" d="M1295.96 1517.37 Q1292.35 1517.37 1290.52 1520.93 Q1288.72 1524.47 1288.72 1531.6 Q1288.72 1538.71 1290.52 1542.27 Q1292.35 1545.82 1295.96 1545.82 Q1299.6 1545.82 1301.4 1542.27 Q1303.23 1538.71 1303.23 1531.6 Q1303.23 1524.47 1301.4 1520.93 Q1299.6 1517.37 1295.96 1517.37 M1295.96 1513.66 Q1301.77 1513.66 1304.83 1518.27 Q1307.91 1522.85 1307.91 1531.6 Q1307.91 1540.33 1304.83 1544.94 Q1301.77 1549.52 1295.96 1549.52 Q1290.15 1549.52 1287.07 1544.94 Q1284.02 1540.33 1284.02 1531.6 Q1284.02 1522.85 1287.07 1518.27 Q1290.15 1513.66 1295.96 1513.66 Z" fill="#000000" fill-rule="nonzero" fill-opacity="1" /><path clip-path="url(#clip920)" d="M1696.09 1517.37 Q1692.48 1517.37 1690.65 1520.93 Q1688.84 1524.47 1688.84 1531.6 Q1688.84 1538.71 1690.65 1542.27 Q1692.48 1545.82 1696.09 1545.82 Q1699.72 1545.82 1701.53 1542.27 Q1703.36 1538.71 1703.36 1531.6 Q1703.36 1524.47 1701.53 1520.93 Q1699.72 1517.37 1696.09 1517.37 M1696.09 1513.66 Q1701.9 1513.66 1704.95 1518.27 Q1708.03 1522.85 1708.03 1531.6 Q1708.03 1540.33 1704.95 1544.94 Q1701.9 1549.52 1696.09 1549.52 Q1690.28 1549.52 1687.2 1544.94 Q1684.14 1540.33 1684.14 1531.6 Q1684.14 1522.85 1687.2 1518.27 Q1690.28 1513.66 1696.09 1513.66 Z" fill="#000000" fill-rule="nonzero" fill-opacity="1" /><path clip-path="url(#clip920)" d="M1716.25 1542.97 L1721.13 1542.97 L1721.13 1548.85 L1716.25 1548.85 L1716.25 1542.97 Z" fill="#000000" fill-rule="nonzero" fill-opacity="1" /><path clip-path="url(#clip920)" d="M1731.37 1514.29 L1749.72 1514.29 L1749.72 1518.22 L1735.65 1518.22 L1735.65 1526.7 Q1736.67 1526.35 1737.68 1526.19 Q1738.7 1526 1739.72 1526 Q1745.51 1526 1748.89 1529.17 Q1752.27 1532.34 1752.27 1537.76 Q1752.27 1543.34 1748.8 1546.44 Q1745.32 1549.52 1739 1549.52 Q1736.83 1549.52 1734.56 1549.15 Q1732.31 1548.78 1729.91 1548.04 L1729.91 1543.34 Q1731.99 1544.47 1734.21 1545.03 Q1736.43 1545.58 1738.91 1545.58 Q1742.92 1545.58 1745.25 1543.48 Q1747.59 1541.37 1747.59 1537.76 Q1747.59 1534.15 1745.25 1532.04 Q1742.92 1529.94 1738.91 1529.94 Q1737.04 1529.94 1735.16 1530.35 Q1733.31 1530.77 1731.37 1531.65 L1731.37 1514.29 Z" fill="#000000" fill-rule="nonzero" fill-opacity="1" /><path clip-path="url(#clip920)" d="M2130.22 1544.91 L2137.86 1544.91 L2137.86 1518.55 L2129.55 1520.21 L2129.55 1515.95 L2137.81 1514.29 L2142.49 1514.29 L2142.49 1544.91 L2150.13 1544.91 L2150.13 1548.85 L2130.22 1548.85 L2130.22 1544.91 Z" fill="#000000" fill-rule="nonzero" fill-opacity="1" /><path clip-path="url(#clip920)" d="M2159.57 1542.97 L2164.45 1542.97 L2164.45 1548.85 L2159.57 1548.85 L2159.57 1542.97 Z" fill="#000000" fill-rule="nonzero" fill-opacity="1" /><path clip-path="url(#clip920)" d="M2184.64 1517.37 Q2181.03 1517.37 2179.2 1520.93 Q2177.39 1524.47 2177.39 1531.6 Q2177.39 1538.71 2179.2 1542.27 Q2181.03 1545.82 2184.64 1545.82 Q2188.27 1545.82 2190.08 1542.27 Q2191.91 1538.71 2191.91 1531.6 Q2191.91 1524.47 2190.08 1520.93 Q2188.27 1517.37 2184.64 1517.37 M2184.64 1513.66 Q2190.45 1513.66 2193.5 1518.27 Q2196.58 1522.85 2196.58 1531.6 Q2196.58 1540.33 2193.5 1544.94 Q2190.45 1549.52 2184.64 1549.52 Q2178.83 1549.52 2175.75 1544.94 Q2172.69 1540.33 2172.69 1531.6 Q2172.69 1522.85 2175.75 1518.27 Q2178.83 1513.66 2184.64 1513.66 Z" fill="#000000" fill-rule="nonzero" fill-opacity="1" /><polyline clip-path="url(#clip922)" style="stroke:#000000; stroke-linecap:round; stroke-linejoin:round; stroke-width:2; stroke-opacity:0.1; fill:none" points="193.936,1443.07 2352.76,1443.07 "/>
<polyline clip-path="url(#clip922)" style="stroke:#000000; stroke-linecap:round; stroke-linejoin:round; stroke-width:2; stroke-opacity:0.1; fill:none" points="193.936,1104.3 2352.76,1104.3 "/>
<polyline clip-path="url(#clip922)" style="stroke:#000000; stroke-linecap:round; stroke-linejoin:round; stroke-width:2; stroke-opacity:0.1; fill:none" points="193.936,765.523 2352.76,765.523 "/>
<polyline clip-path="url(#clip922)" style="stroke:#000000; stroke-linecap:round; stroke-linejoin:round; stroke-width:2; stroke-opacity:0.1; fill:none" points="193.936,426.749 2352.76,426.749 "/>
<polyline clip-path="url(#clip922)" style="stroke:#000000; stroke-linecap:round; stroke-linejoin:round; stroke-width:2; stroke-opacity:0.1; fill:none" points="193.936,87.9763 2352.76,87.9763 "/>
<polyline clip-path="url(#clip920)" style="stroke:#000000; stroke-linecap:round; stroke-linejoin:round; stroke-width:4; stroke-opacity:1; fill:none" points="193.936,1486.45 193.936,47.2441 "/>
<polyline clip-path="url(#clip920)" style="stroke:#000000; stroke-linecap:round; stroke-linejoin:round; stroke-width:4; stroke-opacity:1; fill:none" points="193.936,1443.07 212.834,1443.07 "/>
<polyline clip-path="url(#clip920)" style="stroke:#000000; stroke-linecap:round; stroke-linejoin:round; stroke-width:4; stroke-opacity:1; fill:none" points="193.936,1104.3 212.834,1104.3 "/>
<polyline clip-path="url(#clip920)" style="stroke:#000000; stroke-linecap:round; stroke-linejoin:round; stroke-width:4; stroke-opacity:1; fill:none" points="193.936,765.523 212.834,765.523 "/>
<polyline clip-path="url(#clip920)" style="stroke:#000000; stroke-linecap:round; stroke-linejoin:round; stroke-width:4; stroke-opacity:1; fill:none" points="193.936,426.749 212.834,426.749 "/>
<polyline clip-path="url(#clip920)" style="stroke:#000000; stroke-linecap:round; stroke-linejoin:round; stroke-width:4; stroke-opacity:1; fill:none" points="193.936,87.9763 212.834,87.9763 "/>
<path clip-path="url(#clip920)" d="M50.9921 1443.52 L80.6679 1443.52 L80.6679 1447.46 L50.9921 1447.46 L50.9921 1443.52 Z" fill="#000000" fill-rule="nonzero" fill-opacity="1" /><path clip-path="url(#clip920)" d="M91.5706 1456.41 L99.2095 1456.41 L99.2095 1430.05 L90.8993 1431.71 L90.8993 1427.46 L99.1632 1425.79 L103.839 1425.79 L103.839 1456.41 L111.478 1456.41 L111.478 1460.35 L91.5706 1460.35 L91.5706 1456.41 Z" fill="#000000" fill-rule="nonzero" fill-opacity="1" /><path clip-path="url(#clip920)" d="M120.922 1454.47 L125.807 1454.47 L125.807 1460.35 L120.922 1460.35 L120.922 1454.47 Z" fill="#000000" fill-rule="nonzero" fill-opacity="1" /><path clip-path="url(#clip920)" d="M145.992 1428.87 Q142.381 1428.87 140.552 1432.43 Q138.746 1435.97 138.746 1443.1 Q138.746 1450.21 140.552 1453.77 Q142.381 1457.32 145.992 1457.32 Q149.626 1457.32 151.431 1453.77 Q153.26 1450.21 153.26 1443.1 Q153.26 1435.97 151.431 1432.43 Q149.626 1428.87 145.992 1428.87 M145.992 1425.16 Q151.802 1425.16 154.857 1429.77 Q157.936 1434.35 157.936 1443.1 Q157.936 1451.83 154.857 1456.44 Q151.802 1461.02 145.992 1461.02 Q140.181 1461.02 137.103 1456.44 Q134.047 1451.83 134.047 1443.1 Q134.047 1434.35 137.103 1429.77 Q140.181 1425.16 145.992 1425.16 Z" fill="#000000" fill-rule="nonzero" fill-opacity="1" /><path clip-path="url(#clip920)" d="M51.9875 1104.75 L81.6633 1104.75 L81.6633 1108.68 L51.9875 1108.68 L51.9875 1104.75 Z" fill="#000000" fill-rule="nonzero" fill-opacity="1" /><path clip-path="url(#clip920)" d="M101.756 1090.09 Q98.1447 1090.09 96.316 1093.66 Q94.5104 1097.2 94.5104 1104.33 Q94.5104 1111.44 96.316 1115 Q98.1447 1118.54 101.756 1118.54 Q105.39 1118.54 107.196 1115 Q109.024 1111.44 109.024 1104.33 Q109.024 1097.2 107.196 1093.66 Q105.39 1090.09 101.756 1090.09 M101.756 1086.39 Q107.566 1086.39 110.621 1091 Q113.7 1095.58 113.7 1104.33 Q113.7 1113.06 110.621 1117.66 Q107.566 1122.25 101.756 1122.25 Q95.9456 1122.25 92.8669 1117.66 Q89.8114 1113.06 89.8114 1104.33 Q89.8114 1095.58 92.8669 1091 Q95.9456 1086.39 101.756 1086.39 Z" fill="#000000" fill-rule="nonzero" fill-opacity="1" /><path clip-path="url(#clip920)" d="M121.918 1115.7 L126.802 1115.7 L126.802 1121.58 L121.918 1121.58 L121.918 1115.7 Z" fill="#000000" fill-rule="nonzero" fill-opacity="1" /><path clip-path="url(#clip920)" d="M137.033 1087.02 L155.39 1087.02 L155.39 1090.95 L141.316 1090.95 L141.316 1099.42 Q142.334 1099.08 143.353 1098.91 Q144.371 1098.73 145.39 1098.73 Q151.177 1098.73 154.556 1101.9 Q157.936 1105.07 157.936 1110.49 Q157.936 1116.07 154.464 1119.17 Q150.992 1122.25 144.672 1122.25 Q142.496 1122.25 140.228 1121.88 Q137.982 1121.51 135.575 1120.77 L135.575 1116.07 Q137.658 1117.2 139.881 1117.76 Q142.103 1118.31 144.58 1118.31 Q148.584 1118.31 150.922 1116.21 Q153.26 1114.1 153.26 1110.49 Q153.26 1106.88 150.922 1104.77 Q148.584 1102.66 144.58 1102.66 Q142.705 1102.66 140.83 1103.08 Q138.978 1103.5 137.033 1104.38 L137.033 1087.02 Z" fill="#000000" fill-rule="nonzero" fill-opacity="1" /><path clip-path="url(#clip920)" d="M100.76 751.321 Q97.1493 751.321 95.3206 754.886 Q93.515 758.428 93.515 765.557 Q93.515 772.664 95.3206 776.229 Q97.1493 779.77 100.76 779.77 Q104.395 779.77 106.2 776.229 Q108.029 772.664 108.029 765.557 Q108.029 758.428 106.2 754.886 Q104.395 751.321 100.76 751.321 M100.76 747.618 Q106.571 747.618 109.626 752.224 Q112.705 756.807 112.705 765.557 Q112.705 774.284 109.626 778.891 Q106.571 783.474 100.76 783.474 Q94.9502 783.474 91.8715 778.891 Q88.816 774.284 88.816 765.557 Q88.816 756.807 91.8715 752.224 Q94.9502 747.618 100.76 747.618 Z" fill="#000000" fill-rule="nonzero" fill-opacity="1" /><path clip-path="url(#clip920)" d="M120.922 776.923 L125.807 776.923 L125.807 782.803 L120.922 782.803 L120.922 776.923 Z" fill="#000000" fill-rule="nonzero" fill-opacity="1" /><path clip-path="url(#clip920)" d="M145.992 751.321 Q142.381 751.321 140.552 754.886 Q138.746 758.428 138.746 765.557 Q138.746 772.664 140.552 776.229 Q142.381 779.77 145.992 779.77 Q149.626 779.77 151.431 776.229 Q153.26 772.664 153.26 765.557 Q153.26 758.428 151.431 754.886 Q149.626 751.321 145.992 751.321 M145.992 747.618 Q151.802 747.618 154.857 752.224 Q157.936 756.807 157.936 765.557 Q157.936 774.284 154.857 778.891 Q151.802 783.474 145.992 783.474 Q140.181 783.474 137.103 778.891 Q134.047 774.284 134.047 765.557 Q134.047 756.807 137.103 752.224 Q140.181 747.618 145.992 747.618 Z" fill="#000000" fill-rule="nonzero" fill-opacity="1" /><path clip-path="url(#clip920)" d="M101.756 412.548 Q98.1447 412.548 96.316 416.113 Q94.5104 419.655 94.5104 426.784 Q94.5104 433.891 96.316 437.455 Q98.1447 440.997 101.756 440.997 Q105.39 440.997 107.196 437.455 Q109.024 433.891 109.024 426.784 Q109.024 419.655 107.196 416.113 Q105.39 412.548 101.756 412.548 M101.756 408.844 Q107.566 408.844 110.621 413.451 Q113.7 418.034 113.7 426.784 Q113.7 435.511 110.621 440.117 Q107.566 444.701 101.756 444.701 Q95.9456 444.701 92.8669 440.117 Q89.8114 435.511 89.8114 426.784 Q89.8114 418.034 92.8669 413.451 Q95.9456 408.844 101.756 408.844 Z" fill="#000000" fill-rule="nonzero" fill-opacity="1" /><path clip-path="url(#clip920)" d="M121.918 438.15 L126.802 438.15 L126.802 444.029 L121.918 444.029 L121.918 438.15 Z" fill="#000000" fill-rule="nonzero" fill-opacity="1" /><path clip-path="url(#clip920)" d="M137.033 409.469 L155.39 409.469 L155.39 413.405 L141.316 413.405 L141.316 421.877 Q142.334 421.53 143.353 421.368 Q144.371 421.182 145.39 421.182 Q151.177 421.182 154.556 424.354 Q157.936 427.525 157.936 432.942 Q157.936 438.52 154.464 441.622 Q150.992 444.701 144.672 444.701 Q142.496 444.701 140.228 444.33 Q137.982 443.96 135.575 443.219 L135.575 438.52 Q137.658 439.654 139.881 440.21 Q142.103 440.766 144.58 440.766 Q148.584 440.766 150.922 438.659 Q153.26 436.553 153.26 432.942 Q153.26 429.33 150.922 427.224 Q148.584 425.118 144.58 425.118 Q142.705 425.118 140.83 425.534 Q138.978 425.951 137.033 426.83 L137.033 409.469 Z" fill="#000000" fill-rule="nonzero" fill-opacity="1" /><path clip-path="url(#clip920)" d="M91.5706 101.321 L99.2095 101.321 L99.2095 74.9555 L90.8993 76.6222 L90.8993 72.3629 L99.1632 70.6963 L103.839 70.6963 L103.839 101.321 L111.478 101.321 L111.478 105.256 L91.5706 105.256 L91.5706 101.321 Z" fill="#000000" fill-rule="nonzero" fill-opacity="1" /><path clip-path="url(#clip920)" d="M120.922 99.3767 L125.807 99.3767 L125.807 105.256 L120.922 105.256 L120.922 99.3767 Z" fill="#000000" fill-rule="nonzero" fill-opacity="1" /><path clip-path="url(#clip920)" d="M145.992 73.775 Q142.381 73.775 140.552 77.3398 Q138.746 80.8814 138.746 88.011 Q138.746 95.1174 140.552 98.6822 Q142.381 102.224 145.992 102.224 Q149.626 102.224 151.431 98.6822 Q153.26 95.1174 153.26 88.011 Q153.26 80.8814 151.431 77.3398 Q149.626 73.775 145.992 73.775 M145.992 70.0713 Q151.802 70.0713 154.857 74.6777 Q157.936 79.261 157.936 88.011 Q157.936 96.7378 154.857 101.344 Q151.802 105.928 145.992 105.928 Q140.181 105.928 137.103 101.344 Q134.047 96.7378 134.047 88.011 Q134.047 79.261 137.103 74.6777 Q140.181 70.0713 145.992 70.0713 Z" fill="#000000" fill-rule="nonzero" fill-opacity="1" /><polyline clip-path="url(#clip922)" style="stroke:#009af9; stroke-linecap:round; stroke-linejoin:round; stroke-width:4; stroke-opacity:1; fill:none" points="1273.35,87.9763 1362.08,91.2846 1449.94,101.54 1536.18,118.082 1619.59,140.579 1699.74,169.361 1775.99,203.106 1847.23,241.483 1913.27,284.16 1973.22,330.477 2027.09,380.102 2074.44,431.877 2114.84,485.969 2147.86,541.714 2173.49,598.535 2191.74,656.348 2202.16,714.698 2204.77,773.333 2200.43,831.896 2187.39,890.164 2167.41,947.812 2139.61,1004.38 2104.85,1059.63 2062.71,1113.23 2013.62,1164.51 1958.01,1213.14 1896.32,1258.46 1828.55,1300.15 1756,1337.53 1678.89,1369.95 1597.65,1397.08 1513.37,1418.26 1426.7,1432.81 1338.51,1441.41 1249.67,1442.74 1161.04,1437.78 1073.62,1425.87 988.141,1407.67 905.381,1383.19 826.314,1353.41 751.157,1318.34 681.214,1278.64 616.917,1234.64 558.269,1187.67 506.137,1137.38 460.956,1084.94 422.291,1030.35 391.447,974.278 367.987,917.127 351.479,859.148 342.79,800.715 342.79,742.096 348.872,683.559 363.643,625.498 385.799,568.181 415.775,511.774 452.702,457.021 496.579,403.922 547.408,353.304 604.753,305.334 667.746,261.002 736.821,220.31 810.675,184.249 889.09,153.481 971.198,128.007 1056.24,108.488 1143.34,95.2546 1231.83,88.6379 1320.7,88.9688 1409.11,95.9163 1496.21,109.48 1580.92,129.33 1662.82,155.135 1740.8,186.565 1814.65,222.956 1883.29,263.98 1945.85,308.642 2002.76,356.613 2053.15,407.23 2096.6,460.494 2133.09,515.413 2162.2,571.82 2183.92,629.302 2197.82,687.405 2204.77,745.941 2203.03,804.582 2194.34,863.036 2177.84,920.932 2153.51,978.083 2121.79,1033.99 2083.13,1088.42 2037.08,1140.69 1984.51,1190.64 1925.86,1237.62 1860.7,1281.29 1790.76,1320.66 1715.38,1355.4 1636.1,1385.17 1553.12,1408.99 1467.43,1426.86 1379.84,1438.11 1291.18,1443.07 1202.37,1440.75 1114.23,1432.15 1027.67,1416.93 943.611,1395.43 862.589,1367.97 785.912,1335.22 713.362,1297.5 646.459,1255.82 584.769,1210.16 529.596,1161.2 481.374,1109.59 439.669,1055.99 404.914,1000.75 377.545,944.007 358.43,886.359 346.266,828.05 341.921,769.482 345.397,710.852 355.823,652.543 374.938,594.813 401.004,537.909 434.456,482.329 475.292,428.404 522.645,376.794 576.95,327.5 637.77,281.183 703.804,238.836 775.486,200.79 851.946,167.045 932.533,138.925 1016.16,116.759 1102.51,100.548 1190.42,90.9538 1279.19,87.9763 1367.89,91.9463 1455.7,102.202 1541.61,119.405 1625.02,142.564 1704.96,171.346 1780.76,205.422 1851.58,244.13 1917.18,287.138 1977.13,333.785 2030.56,383.41 2077.48,435.517 2117.02,489.608 2149.6,545.353 2175.23,602.339 2192.61,660.152 2202.16,718.586 2204.77,777.185 2199.56,835.742 2186.52,893.969 2165.67,951.451 2137.43,1008.02 2102.24,1063.27 2059.67,1116.54 2010.14,1167.82 1954.1,1216.12 1891.98,1261.44 1824.21,1302.8 1751.22,1339.85 1673.68,1371.94 1592.22,1398.41 1507.72,1419.25 1420.94,1433.81 1332.65,1441.41 1243.83,1442.74 1155.29,1437.11 1067.86,1424.87 982.493,1406.02 899.951,1381.53 821.101,1351.1 746.379,1315.7 676.869,1275.67 613.008,1231.67 554.794,1184.36 503.096,1134.07 457.915,1081.3 420.119,1026.72 389.709,970.639 366.25,913.405 350.61,855.344 342.79,796.869 342.79,738.229 349.741,679.754 365.381,621.693 387.537,564.376 417.947,508.134 455.308,453.382 499.621,400.614 550.884,349.996 608.663,302.356 672.525,258.355 741.6,217.994 815.888,182.264 894.52,151.496 976.628,126.353 "/>
<polyline clip-path="url(#clip922)" style="stroke:#e26f46; stroke-linecap:round; stroke-linejoin:round; stroke-width:4; stroke-opacity:1; fill:none" points="1273.35,87.9763 1361.1,89.6304 1445.38,94.2621 1527.05,103.525 1603.52,117.751 1678.24,136.278 1749.48,160.098 1816.82,189.873 1881.12,224.28 1942.37,263.98 2000.59,308.973 2057.06,357.605 2109.2,411.862 2156.55,470.419 2200.43,532.451 2236.92,598.617 2265.59,668.919 2285.58,741.703 2291.66,818.125 2282.97,896.533 2260.38,974.609 2223.02,1050.04 2172.62,1122.82 2109.2,1188.99 2033.6,1249.2 1946.72,1300.81 1856.36,1343.16 1760.78,1376.9 1662.6,1402.05 1567.02,1419.25 1470.58,1431.16 1375,1438.44 1284.64,1441.08 1196.89,1440.42 1111.74,1435.79 1030.93,1427.19 950.997,1414.29 876.274,1396.09 804.158,1372.93 735.518,1344.48 670.353,1310.74 608.663,1271.04 550.015,1226.7 493.973,1177.74 441.841,1124.15 393.184,1066.25 349.741,1004.38 312.38,938.879 282.838,869.404 261.986,797.283 255.035,720.86 260.248,643.445 279.363,567.023 314.118,490.931 362.774,417.486 427.07,348.011 501.793,287.8 582.597,235.528 673.828,192.52 769.404,157.451 866.717,130.985 964.03,112.458 1060.47,99.8863 1152.57,93.2696 1242.94,89.9613 1332.43,89.9613 1418.45,93.9313 1500.12,101.54 1580.06,112.789 1655.65,129.661 1727.33,152.489 1796.4,179.948 1860.7,213.362 1922.39,251.408 1981.91,294.416 2037.95,342.387 2090.95,394.659 2140.04,451.397 2183.92,512.27 2222.15,577.444 2252.56,645.761 2274.28,717.883 2284.71,792.651 2284.71,868.412 2268.2,945.496 2237.79,1022.25 2192.61,1095.69 2133.52,1164.51 2063.15,1226.7 1981.47,1282.28 1895.45,1326.62 1805.09,1363.01 1707.78,1392.78 1610.47,1413.29 1514.02,1427.19 1418.45,1436.45 1326.35,1440.42 1238.59,1440.42 1150.84,1437.78 1067.42,1430.83 988.358,1419.58 913.635,1403.37 841.519,1382.53 772.01,1356.39 706.845,1324.63 644.721,1287.58 586.073,1245.56 529.596,1199.58 475.727,1149.29 425.332,1094.37 378.414,1035.81 336.708,973.286 301.953,906.623 275.887,836.321 261.986,762.214 260.248,686.123 271.543,610.031 298.478,533.278 338.446,458.509 394.488,387.711 461.825,322.868 538.285,265.965 625.172,217.663 718.14,177.301 816.322,145.541 914.504,122.383 1010.95,107.165 1105.65,97.2396 1196.89,91.9463 1283.77,91.9463 1369.79,93.9313 1452.33,100.217 1532.27,110.142 1608.73,124.368 1682.58,142.895 1752.96,167.045 1820.73,196.159 1885.03,230.565 1944.98,271.258 2004.06,315.59 2058.8,365.214 2110.93,419.14 2158.72,477.036 2202.16,538.736 2237.79,604.903 2266.46,675.205 2284.71,748.319 2289.92,823.749 2282.97,900.833 2260.38,977.918 2223.89,1052.69 2173.49,1124.81 2110.06,1190.97 2035.34,1249.86 1951.93,1300.81 1858.96,1345.14 1763.39,1378.23 1666.07,1404.03 1568.76,1421.9 1474.05,1433.14 1379.35,1439.76 1287.25,1443.07 1199.49,1441.41 1114.34,1437.11 1032.67,1428.18 954.472,1414.95 880.618,1397.08 809.371,1373.92 741.6,1345.47 677.304,1311.73 615.18,1273.02 556.097,1229.35 500.924,1180.39 448.792,1127.45 399.701,1070.22 355.823,1008.69 317.593,943.345 287.183,874.367 265.461,801.914 255.904,726.484 261.117,649.069 279.363,570.993 314.118,494.239 361.905,421.456 424.029,353.304 498.317,291.77 579.991,240.16 668.615,195.828 765.928,160.098 863.241,132.308 960.554,113.12 1057,100.548 1149.97,93.9313 1242.07,89.9613 1330.69,89.9613 1415.84,93.6004 1499.25,100.879 1578.32,113.12 1653.91,129.992 1726.46,151.827 "/>
<polyline clip-path="url(#clip922)" style="stroke:#3da44d; stroke-linecap:round; stroke-linejoin:round; stroke-width:4; stroke-opacity:1; fill:none" points="1273.35,87.9763 1360.29,89.9613 1446.68,98.8938 1531.4,113.781 1614.38,134.955 1694.09,162.083 1769.47,194.505 1840.72,231.558 1905.88,272.581 1966.27,316.913 2020.57,364.884 2068.36,416.163 2108.76,469.096 2142.65,524.014 2169.15,579.925 2188.26,636.829 2200.43,694.063 2204.77,751.628 2201.3,809.523 2190.87,867.75 2173.49,925.315 2148.29,981.888 2116.15,1037.47 2076.61,1091.39 2030.13,1143.33 1977.13,1192.63 1918.04,1239.28 1853.31,1282.28 1782.94,1320.99 1708.21,1355.07 1629.58,1384.18 1547.69,1407.67 1463.63,1425.53 1377.61,1437.11 1290.72,1442.41 1203.78,1441.08 1117.82,1433.81 1032.67,1419.91 950.128,1400.39 870.192,1374.59 794.166,1343.16 722.485,1306.43 655.582,1265.74 594.761,1220.75 539.588,1172.78 490.932,1121.5 449.226,1068.57 414.472,1013.98 387.102,958.398 367.118,901.495 354.085,844.261 348.003,786.365 350.61,729.131 360.167,671.235 377.545,614.332 401.873,557.759 433.152,502.179 471.382,447.923 516.563,395.32 568.261,345.364 626.041,298.055 689.902,254.716 758.977,215.016 832.831,180.279 910.811,150.504 991.833,125.691 1075.68,107.165 1161.7,94.9238 1248.09,88.6379 1335.52,88.9688 1422.25,96.2471 1507.51,109.811 1590.92,129 1671.07,154.143 1747.75,185.241 1820.3,221.633 1887.63,261.995 1949.32,305.665 2004.93,352.643 2054.02,402.929 2096.6,454.209 2132.65,508.796 2161.33,564.376 2183.05,620.618 2196.95,677.852 2203.03,735.748 2202.16,793.643 2194.34,851.539 2178.7,909.104 2155.68,965.677 2125.27,1021.26 2087.91,1075.51 2043.6,1128.45 1992.77,1179.06 1935.42,1226.37 1872.43,1270.37 1804.22,1310.74 1731.24,1346.47 1653.91,1377.56 1573.1,1403.04 1489.26,1422.56 1403.89,1436.12 1317.17,1443.73 1229.36,1444.39 1142.15,1438.11 1056.35,1425.87 972.284,1406.68 891.479,1382.2 814.585,1352.42 742.034,1317.35 673.828,1277.65 611.27,1234.64 553.925,1187.67 503.53,1138.04 459.653,1085.77 423.16,1031.51 393.184,975.933 370.594,919.029 355.823,862.126 348.872,804.561 348.872,746.996 355.823,689.431 370.594,631.866 392.316,574.632 421.423,518.39 457.915,463.803 501.358,410.539 551.318,359.59 607.794,311.62 670.353,267.288 738.124,226.265 810.24,189.873 887.135,158.113 967.505,131.646 1050.92,111.135 1136.28,97.2396 1223.11,89.2996 1310.38,87.9763 1397.27,92.6079 1483.18,104.187 1567.02,122.052 1648.26,145.541 1726.03,174.655 1799.44,209.061 1868.08,247.438 1931.08,290.115 1989.29,336.763 2040.55,385.726 2085.74,437.336 2123.53,490.931 2154.81,545.519 2177.84,601.429 2194.34,658.664 2203.9,716.229 2205.64,773.793 2199.56,831.689 2187.39,889.585 2166.54,946.819 2138.74,1003.06 2103.55,1057.98 2061.41,1111.24 2012.75,1162.19 1957.58,1210.82 1896.32,1256.15 1829.42,1298.16 1757.74,1335.55 1681.28,1368.63 1601.34,1395.76 1518.37,1417.26 1433,1433.14 1346.22,1442.41 1258.79,1445.72 1171.36,1442.41 1084.69,1432.48 1000.09,1415.94 917.98,1393.44 839.13,1364.99 763.756,1330.92 693.812,1292.21 628.647,1249.86 569.13,1203.55 516.129,1154.58 469.645,1102.64 430.546,1048.72 398.398,993.798 373.2,937.887 355.823,880.983 346.266,822.757 343.659,765.192 348.003,707.296 360.167,649.4 379.283,591.835 406.217,534.932 440.103,480.014 480.94,426.419 528.728,374.809 583.032,325.515 643.418,279.198 709.886,236.851 781.133,198.475 "/>
<path clip-path="url(#clip920)" d="M1764.98 1438.47 L2280.8 1438.47 L2280.8 1231.11 L1764.98 1231.11  Z" fill="#ffffff" fill-rule="evenodd" fill-opacity="1"/>
<polyline clip-path="url(#clip920)" style="stroke:#000000; stroke-linecap:round; stroke-linejoin:round; stroke-width:4; stroke-opacity:1; fill:none" points="1764.98,1438.47 2280.8,1438.47 2280.8,1231.11 1764.98,1231.11 1764.98,1438.47 "/>
<polyline clip-path="url(#clip920)" style="stroke:#009af9; stroke-linecap:round; stroke-linejoin:round; stroke-width:4; stroke-opacity:1; fill:none" points="1788.97,1282.95 1932.89,1282.95 "/>
<path clip-path="url(#clip920)" d="M1964.29 1266.95 L1964.29 1274.31 L1973.06 1274.31 L1973.06 1277.62 L1964.29 1277.62 L1964.29 1291.69 Q1964.29 1294.86 1965.14 1295.77 Q1966.02 1296.67 1968.68 1296.67 L1973.06 1296.67 L1973.06 1300.23 L1968.68 1300.23 Q1963.75 1300.23 1961.88 1298.41 Q1960 1296.55 1960 1291.69 L1960 1277.62 L1956.88 1277.62 L1956.88 1274.31 L1960 1274.31 L1960 1266.95 L1964.29 1266.95 Z" fill="#000000" fill-rule="nonzero" fill-opacity="1" /><path clip-path="url(#clip920)" d="M1993.68 1278.29 Q1992.97 1277.87 1992.11 1277.69 Q1991.28 1277.48 1990.26 1277.48 Q1986.65 1277.48 1984.7 1279.84 Q1982.78 1282.18 1982.78 1286.58 L1982.78 1300.23 L1978.5 1300.23 L1978.5 1274.31 L1982.78 1274.31 L1982.78 1278.34 Q1984.12 1275.98 1986.28 1274.84 Q1988.43 1273.68 1991.51 1273.68 Q1991.95 1273.68 1992.48 1273.75 Q1993.01 1273.8 1993.66 1273.92 L1993.68 1278.29 Z" fill="#000000" fill-rule="nonzero" fill-opacity="1" /><path clip-path="url(#clip920)" d="M2009.93 1287.2 Q2004.77 1287.2 2002.78 1288.38 Q2000.79 1289.56 2000.79 1292.41 Q2000.79 1294.68 2002.27 1296.02 Q2003.78 1297.34 2006.35 1297.34 Q2009.89 1297.34 2012.02 1294.84 Q2014.17 1292.32 2014.17 1288.15 L2014.17 1287.2 L2009.93 1287.2 M2018.43 1285.44 L2018.43 1300.23 L2014.17 1300.23 L2014.17 1296.3 Q2012.71 1298.66 2010.54 1299.79 Q2008.36 1300.91 2005.21 1300.91 Q2001.23 1300.91 1998.87 1298.68 Q1996.53 1296.44 1996.53 1292.69 Q1996.53 1288.31 1999.45 1286.09 Q2002.39 1283.87 2008.2 1283.87 L2014.17 1283.87 L2014.17 1283.45 Q2014.17 1280.51 2012.23 1278.92 Q2010.31 1277.29 2006.81 1277.29 Q2004.59 1277.29 2002.48 1277.83 Q2000.37 1278.36 1998.43 1279.42 L1998.43 1275.49 Q2000.77 1274.59 2002.97 1274.15 Q2005.17 1273.68 2007.25 1273.68 Q2012.87 1273.68 2015.65 1276.6 Q2018.43 1279.52 2018.43 1285.44 Z" fill="#000000" fill-rule="nonzero" fill-opacity="1" /><path clip-path="url(#clip920)" d="M2027.2 1274.31 L2031.46 1274.31 L2031.46 1300.23 L2027.2 1300.23 L2027.2 1274.31 M2027.2 1264.22 L2031.46 1264.22 L2031.46 1269.61 L2027.2 1269.61 L2027.2 1264.22 Z" fill="#000000" fill-rule="nonzero" fill-opacity="1" /><path clip-path="url(#clip920)" d="M2061.93 1284.59 L2061.93 1300.23 L2057.67 1300.23 L2057.67 1284.73 Q2057.67 1281.04 2056.23 1279.22 Q2054.8 1277.39 2051.93 1277.39 Q2048.48 1277.39 2046.49 1279.59 Q2044.49 1281.79 2044.49 1285.58 L2044.49 1300.23 L2040.21 1300.23 L2040.21 1274.31 L2044.49 1274.31 L2044.49 1278.34 Q2046.02 1276 2048.08 1274.84 Q2050.17 1273.68 2052.87 1273.68 Q2057.34 1273.68 2059.63 1276.46 Q2061.93 1279.22 2061.93 1284.59 Z" fill="#000000" fill-rule="nonzero" fill-opacity="1" /><path clip-path="url(#clip920)" d="M2070.42 1274.31 L2074.68 1274.31 L2074.68 1300.23 L2070.42 1300.23 L2070.42 1274.31 M2070.42 1264.22 L2074.68 1264.22 L2074.68 1269.61 L2070.42 1269.61 L2070.42 1264.22 Z" fill="#000000" fill-rule="nonzero" fill-opacity="1" /><path clip-path="url(#clip920)" d="M2105.14 1284.59 L2105.14 1300.23 L2100.88 1300.23 L2100.88 1284.73 Q2100.88 1281.04 2099.45 1279.22 Q2098.01 1277.39 2095.14 1277.39 Q2091.69 1277.39 2089.7 1279.59 Q2087.71 1281.79 2087.71 1285.58 L2087.71 1300.23 L2083.43 1300.23 L2083.43 1274.31 L2087.71 1274.31 L2087.71 1278.34 Q2089.24 1276 2091.3 1274.84 Q2093.38 1273.68 2096.09 1273.68 Q2100.56 1273.68 2102.85 1276.46 Q2105.14 1279.22 2105.14 1284.59 Z" fill="#000000" fill-rule="nonzero" fill-opacity="1" /><path clip-path="url(#clip920)" d="M2130.7 1286.97 Q2130.7 1282.34 2128.78 1279.79 Q2126.88 1277.25 2123.43 1277.25 Q2120 1277.25 2118.08 1279.79 Q2116.18 1282.34 2116.18 1286.97 Q2116.18 1291.58 2118.08 1294.12 Q2120 1296.67 2123.43 1296.67 Q2126.88 1296.67 2128.78 1294.12 Q2130.7 1291.58 2130.7 1286.97 M2134.96 1297.02 Q2134.96 1303.64 2132.02 1306.85 Q2129.08 1310.1 2123.01 1310.1 Q2120.77 1310.1 2118.78 1309.75 Q2116.79 1309.42 2114.91 1308.73 L2114.91 1304.59 Q2116.79 1305.6 2118.61 1306.09 Q2120.44 1306.58 2122.34 1306.58 Q2126.53 1306.58 2128.61 1304.38 Q2130.7 1302.2 2130.7 1297.78 L2130.7 1295.67 Q2129.38 1297.97 2127.32 1299.1 Q2125.26 1300.23 2122.39 1300.23 Q2117.62 1300.23 2114.7 1296.6 Q2111.79 1292.97 2111.79 1286.97 Q2111.79 1280.95 2114.7 1277.32 Q2117.62 1273.68 2122.39 1273.68 Q2125.26 1273.68 2127.32 1274.82 Q2129.38 1275.95 2130.7 1278.24 L2130.7 1274.31 L2134.96 1274.31 L2134.96 1297.02 Z" fill="#000000" fill-rule="nonzero" fill-opacity="1" /><path clip-path="url(#clip920)" d="M2175.86 1278.24 L2175.86 1264.22 L2180.12 1264.22 L2180.12 1300.23 L2175.86 1300.23 L2175.86 1296.35 Q2174.52 1298.66 2172.46 1299.79 Q2170.42 1300.91 2167.55 1300.91 Q2162.85 1300.91 2159.89 1297.16 Q2156.95 1293.41 2156.95 1287.29 Q2156.95 1281.18 2159.89 1277.43 Q2162.85 1273.68 2167.55 1273.68 Q2170.42 1273.68 2172.46 1274.82 Q2174.52 1275.93 2175.86 1278.24 M2161.35 1287.29 Q2161.35 1291.99 2163.27 1294.68 Q2165.21 1297.34 2168.59 1297.34 Q2171.97 1297.34 2173.92 1294.68 Q2175.86 1291.99 2175.86 1287.29 Q2175.86 1282.6 2173.92 1279.93 Q2171.97 1277.25 2168.59 1277.25 Q2165.21 1277.25 2163.27 1279.93 Q2161.35 1282.6 2161.35 1287.29 Z" fill="#000000" fill-rule="nonzero" fill-opacity="1" /><path clip-path="url(#clip920)" d="M2200.67 1287.2 Q2195.51 1287.2 2193.52 1288.38 Q2191.53 1289.56 2191.53 1292.41 Q2191.53 1294.68 2193.01 1296.02 Q2194.52 1297.34 2197.09 1297.34 Q2200.63 1297.34 2202.76 1294.84 Q2204.91 1292.32 2204.91 1288.15 L2204.91 1287.2 L2200.67 1287.2 M2209.17 1285.44 L2209.17 1300.23 L2204.91 1300.23 L2204.91 1296.3 Q2203.45 1298.66 2201.28 1299.79 Q2199.1 1300.91 2195.95 1300.91 Q2191.97 1300.91 2189.61 1298.68 Q2187.27 1296.44 2187.27 1292.69 Q2187.27 1288.31 2190.19 1286.09 Q2193.13 1283.87 2198.94 1283.87 L2204.91 1283.87 L2204.91 1283.45 Q2204.91 1280.51 2202.97 1278.92 Q2201.04 1277.29 2197.55 1277.29 Q2195.33 1277.29 2193.22 1277.83 Q2191.11 1278.36 2189.17 1279.42 L2189.17 1275.49 Q2191.51 1274.59 2193.71 1274.15 Q2195.91 1273.68 2197.99 1273.68 Q2203.61 1273.68 2206.39 1276.6 Q2209.17 1279.52 2209.17 1285.44 Z" fill="#000000" fill-rule="nonzero" fill-opacity="1" /><path clip-path="url(#clip920)" d="M2222.16 1266.95 L2222.16 1274.31 L2230.93 1274.31 L2230.93 1277.62 L2222.16 1277.62 L2222.16 1291.69 Q2222.16 1294.86 2223.01 1295.77 Q2223.89 1296.67 2226.55 1296.67 L2230.93 1296.67 L2230.93 1300.23 L2226.55 1300.23 Q2221.62 1300.23 2219.75 1298.41 Q2217.87 1296.55 2217.87 1291.69 L2217.87 1277.62 L2214.75 1277.62 L2214.75 1274.31 L2217.87 1274.31 L2217.87 1266.95 L2222.16 1266.95 Z" fill="#000000" fill-rule="nonzero" fill-opacity="1" /><path clip-path="url(#clip920)" d="M2248.31 1287.2 Q2243.15 1287.2 2241.16 1288.38 Q2239.17 1289.56 2239.17 1292.41 Q2239.17 1294.68 2240.65 1296.02 Q2242.16 1297.34 2244.73 1297.34 Q2248.27 1297.34 2250.4 1294.84 Q2252.55 1292.32 2252.55 1288.15 L2252.55 1287.2 L2248.31 1287.2 M2256.81 1285.44 L2256.81 1300.23 L2252.55 1300.23 L2252.55 1296.3 Q2251.09 1298.66 2248.91 1299.79 Q2246.74 1300.91 2243.59 1300.91 Q2239.61 1300.91 2237.25 1298.68 Q2234.91 1296.44 2234.91 1292.69 Q2234.91 1288.31 2237.83 1286.09 Q2240.77 1283.87 2246.58 1283.87 L2252.55 1283.87 L2252.55 1283.45 Q2252.55 1280.51 2250.6 1278.92 Q2248.68 1277.29 2245.19 1277.29 Q2242.97 1277.29 2240.86 1277.83 Q2238.75 1278.36 2236.81 1279.42 L2236.81 1275.49 Q2239.15 1274.59 2241.35 1274.15 Q2243.54 1273.68 2245.63 1273.68 Q2251.25 1273.68 2254.03 1276.6 Q2256.81 1279.52 2256.81 1285.44 Z" fill="#000000" fill-rule="nonzero" fill-opacity="1" /><polyline clip-path="url(#clip920)" style="stroke:#e26f46; stroke-linecap:round; stroke-linejoin:round; stroke-width:4; stroke-opacity:1; fill:none" points="1788.97,1334.79 1932.89,1334.79 "/>
<path clip-path="url(#clip920)" d="M1956.88 1317.51 L1961.56 1317.51 L1961.56 1348.14 L1978.38 1348.14 L1978.38 1352.07 L1956.88 1352.07 L1956.88 1317.51 Z" fill="#000000" fill-rule="nonzero" fill-opacity="1" /><path clip-path="url(#clip920)" d="M1995.93 1322.12 L1989.59 1339.32 L2002.3 1339.32 L1995.93 1322.12 M1993.29 1317.51 L1998.59 1317.51 L2011.76 1352.07 L2006.9 1352.07 L2003.75 1343.21 L1988.18 1343.21 L1985.03 1352.07 L1980.1 1352.07 L1993.29 1317.51 Z" fill="#000000" fill-rule="nonzero" fill-opacity="1" /><path clip-path="url(#clip920)" d="M2052.6 1318.65 L2052.6 1323.21 Q2049.93 1321.94 2047.57 1321.31 Q2045.21 1320.69 2043.01 1320.69 Q2039.19 1320.69 2037.11 1322.17 Q2035.05 1323.65 2035.05 1326.38 Q2035.05 1328.67 2036.42 1329.85 Q2037.8 1331.01 2041.65 1331.73 L2044.47 1332.31 Q2049.7 1333.3 2052.18 1335.82 Q2054.68 1338.32 2054.68 1342.54 Q2054.68 1347.56 2051.3 1350.15 Q2047.94 1352.75 2041.44 1352.75 Q2038.99 1352.75 2036.21 1352.19 Q2033.45 1351.63 2030.49 1350.55 L2030.49 1345.73 Q2033.34 1347.33 2036.07 1348.14 Q2038.8 1348.95 2041.44 1348.95 Q2045.44 1348.95 2047.62 1347.38 Q2049.8 1345.8 2049.8 1342.88 Q2049.8 1340.34 2048.22 1338.9 Q2046.67 1337.47 2043.11 1336.75 L2040.26 1336.19 Q2035.03 1335.15 2032.69 1332.93 Q2030.35 1330.71 2030.35 1326.75 Q2030.35 1322.17 2033.57 1319.53 Q2036.81 1316.89 2042.48 1316.89 Q2044.91 1316.89 2047.43 1317.33 Q2049.96 1317.77 2052.6 1318.65 Z" fill="#000000" fill-rule="nonzero" fill-opacity="1" /><path clip-path="url(#clip920)" d="M2072.57 1354.48 Q2070.77 1359.11 2069.05 1360.52 Q2067.34 1361.94 2064.47 1361.94 L2061.07 1361.94 L2061.07 1358.37 L2063.57 1358.37 Q2065.33 1358.37 2066.3 1357.54 Q2067.27 1356.7 2068.45 1353.6 L2069.22 1351.66 L2058.73 1326.15 L2063.24 1326.15 L2071.35 1346.43 L2079.45 1326.15 L2083.96 1326.15 L2072.57 1354.48 Z" fill="#000000" fill-rule="nonzero" fill-opacity="1" /><path clip-path="url(#clip920)" d="M2110.03 1331.13 Q2111.62 1328.26 2113.85 1326.89 Q2116.07 1325.52 2119.08 1325.52 Q2123.13 1325.52 2125.33 1328.37 Q2127.53 1331.19 2127.53 1336.43 L2127.53 1352.07 L2123.24 1352.07 L2123.24 1336.57 Q2123.24 1332.84 2121.92 1331.03 Q2120.61 1329.23 2117.9 1329.23 Q2114.59 1329.23 2112.67 1331.43 Q2110.74 1333.63 2110.74 1337.42 L2110.74 1352.07 L2106.46 1352.07 L2106.46 1336.57 Q2106.46 1332.82 2105.14 1331.03 Q2103.82 1329.23 2101.07 1329.23 Q2097.8 1329.23 2095.88 1331.45 Q2093.96 1333.65 2093.96 1337.42 L2093.96 1352.07 L2089.68 1352.07 L2089.68 1326.15 L2093.96 1326.15 L2093.96 1330.18 Q2095.42 1327.79 2097.46 1326.66 Q2099.49 1325.52 2102.3 1325.52 Q2105.12 1325.52 2107.09 1326.96 Q2109.08 1328.39 2110.03 1331.13 Z" fill="#000000" fill-rule="nonzero" fill-opacity="1" /><path clip-path="url(#clip920)" d="M2140.14 1348.19 L2140.14 1361.94 L2135.86 1361.94 L2135.86 1326.15 L2140.14 1326.15 L2140.14 1330.08 Q2141.48 1327.77 2143.52 1326.66 Q2145.58 1325.52 2148.43 1325.52 Q2153.15 1325.52 2156.09 1329.27 Q2159.05 1333.02 2159.05 1339.13 Q2159.05 1345.25 2156.09 1349 Q2153.15 1352.75 2148.43 1352.75 Q2145.58 1352.75 2143.52 1351.63 Q2141.48 1350.5 2140.14 1348.19 M2154.63 1339.13 Q2154.63 1334.44 2152.69 1331.77 Q2150.77 1329.09 2147.39 1329.09 Q2144.01 1329.09 2142.06 1331.77 Q2140.14 1334.44 2140.14 1339.13 Q2140.14 1343.83 2142.06 1346.52 Q2144.01 1349.18 2147.39 1349.18 Q2150.77 1349.18 2152.69 1346.52 Q2154.63 1343.83 2154.63 1339.13 Z" fill="#000000" fill-rule="nonzero" fill-opacity="1" /><path clip-path="url(#clip920)" d="M2187.67 1336.43 L2187.67 1352.07 L2183.41 1352.07 L2183.41 1336.57 Q2183.41 1332.88 2181.97 1331.06 Q2180.54 1329.23 2177.67 1329.23 Q2174.22 1329.23 2172.23 1331.43 Q2170.23 1333.63 2170.23 1337.42 L2170.23 1352.07 L2165.95 1352.07 L2165.95 1326.15 L2170.23 1326.15 L2170.23 1330.18 Q2171.76 1327.84 2173.82 1326.68 Q2175.91 1325.52 2178.61 1325.52 Q2183.08 1325.52 2185.37 1328.3 Q2187.67 1331.06 2187.67 1336.43 Z" fill="#000000" fill-rule="nonzero" fill-opacity="1" /><path clip-path="url(#clip920)" d="M2218.34 1338.05 L2218.34 1340.13 L2198.75 1340.13 Q2199.03 1344.53 2201.39 1346.84 Q2203.78 1349.13 2208.01 1349.13 Q2210.47 1349.13 2212.76 1348.53 Q2215.07 1347.93 2217.34 1346.73 L2217.34 1350.75 Q2215.05 1351.73 2212.64 1352.24 Q2210.23 1352.75 2207.76 1352.75 Q2201.55 1352.75 2197.92 1349.13 Q2194.31 1345.52 2194.31 1339.37 Q2194.31 1333 2197.73 1329.27 Q2201.18 1325.52 2207.02 1325.52 Q2212.25 1325.52 2215.28 1328.9 Q2218.34 1332.26 2218.34 1338.05 M2214.08 1336.8 Q2214.03 1333.3 2212.11 1331.22 Q2210.21 1329.13 2207.06 1329.13 Q2203.5 1329.13 2201.35 1331.15 Q2199.22 1333.16 2198.89 1336.82 L2214.08 1336.8 Z" fill="#000000" fill-rule="nonzero" fill-opacity="1" /><path clip-path="url(#clip920)" d="M2229.54 1318.79 L2229.54 1326.15 L2238.31 1326.15 L2238.31 1329.46 L2229.54 1329.46 L2229.54 1343.53 Q2229.54 1346.7 2230.4 1347.61 Q2231.28 1348.51 2233.94 1348.51 L2238.31 1348.51 L2238.31 1352.07 L2233.94 1352.07 Q2229.01 1352.07 2227.13 1350.25 Q2225.26 1348.39 2225.26 1343.53 L2225.26 1329.46 L2222.13 1329.46 L2222.13 1326.15 L2225.26 1326.15 L2225.26 1318.79 L2229.54 1318.79 Z" fill="#000000" fill-rule="nonzero" fill-opacity="1" /><polyline clip-path="url(#clip920)" style="stroke:#3da44d; stroke-linecap:round; stroke-linejoin:round; stroke-width:4; stroke-opacity:1; fill:none" points="1788.97,1386.63 1932.89,1386.63 "/>
<path clip-path="url(#clip920)" d="M1982.43 1398.98 L1982.43 1389.7 L1974.8 1389.7 L1974.8 1385.86 L1987.06 1385.86 L1987.06 1400.7 Q1984.36 1402.62 1981.09 1403.61 Q1977.83 1404.59 1974.12 1404.59 Q1966.02 1404.59 1961.44 1399.86 Q1956.88 1395.12 1956.88 1386.67 Q1956.88 1378.2 1961.44 1373.47 Q1966.02 1368.73 1974.12 1368.73 Q1977.5 1368.73 1980.54 1369.56 Q1983.59 1370.4 1986.16 1372.02 L1986.16 1376.99 Q1983.57 1374.79 1980.65 1373.68 Q1977.74 1372.57 1974.52 1372.57 Q1968.18 1372.57 1964.98 1376.11 Q1961.81 1379.66 1961.81 1386.67 Q1961.81 1393.66 1964.98 1397.2 Q1968.18 1400.74 1974.52 1400.74 Q1977 1400.74 1978.94 1400.33 Q1980.88 1399.89 1982.43 1398.98 Z" fill="#000000" fill-rule="nonzero" fill-opacity="1" /><path clip-path="url(#clip920)" d="M2031.39 1370.49 L2031.39 1375.05 Q2028.73 1373.78 2026.37 1373.15 Q2024.01 1372.53 2021.81 1372.53 Q2017.99 1372.53 2015.91 1374.01 Q2013.85 1375.49 2013.85 1378.22 Q2013.85 1380.51 2015.21 1381.69 Q2016.6 1382.85 2020.44 1383.57 L2023.27 1384.15 Q2028.5 1385.14 2030.98 1387.66 Q2033.48 1390.16 2033.48 1394.38 Q2033.48 1399.4 2030.1 1401.99 Q2026.74 1404.59 2020.24 1404.59 Q2017.78 1404.59 2015 1404.03 Q2012.25 1403.47 2009.29 1402.39 L2009.29 1397.57 Q2012.13 1399.17 2014.87 1399.98 Q2017.6 1400.79 2020.24 1400.79 Q2024.24 1400.79 2026.42 1399.22 Q2028.59 1397.64 2028.59 1394.72 Q2028.59 1392.18 2027.02 1390.74 Q2025.47 1389.31 2021.9 1388.59 L2019.05 1388.03 Q2013.82 1386.99 2011.49 1384.77 Q2009.15 1382.55 2009.15 1378.59 Q2009.15 1374.01 2012.37 1371.37 Q2015.61 1368.73 2021.28 1368.73 Q2023.71 1368.73 2026.23 1369.17 Q2028.75 1369.61 2031.39 1370.49 Z" fill="#000000" fill-rule="nonzero" fill-opacity="1" /><path clip-path="url(#clip920)" d="M2051.37 1406.32 Q2049.56 1410.95 2047.85 1412.36 Q2046.14 1413.78 2043.27 1413.78 L2039.87 1413.78 L2039.87 1410.21 L2042.37 1410.21 Q2044.12 1410.21 2045.1 1409.38 Q2046.07 1408.54 2047.25 1405.44 L2048.01 1403.5 L2037.53 1377.99 L2042.04 1377.99 L2050.14 1398.27 L2058.24 1377.99 L2062.76 1377.99 L2051.37 1406.32 Z" fill="#000000" fill-rule="nonzero" fill-opacity="1" /><path clip-path="url(#clip920)" d="M2088.82 1382.97 Q2090.42 1380.1 2092.64 1378.73 Q2094.86 1377.36 2097.87 1377.36 Q2101.92 1377.36 2104.12 1380.21 Q2106.32 1383.03 2106.32 1388.27 L2106.32 1403.91 L2102.04 1403.91 L2102.04 1388.41 Q2102.04 1384.68 2100.72 1382.87 Q2099.4 1381.07 2096.69 1381.07 Q2093.38 1381.07 2091.46 1383.27 Q2089.54 1385.47 2089.54 1389.26 L2089.54 1403.91 L2085.26 1403.91 L2085.26 1388.41 Q2085.26 1384.66 2083.94 1382.87 Q2082.62 1381.07 2079.86 1381.07 Q2076.6 1381.07 2074.68 1383.29 Q2072.76 1385.49 2072.76 1389.26 L2072.76 1403.91 L2068.48 1403.91 L2068.48 1377.99 L2072.76 1377.99 L2072.76 1382.02 Q2074.22 1379.63 2076.25 1378.5 Q2078.29 1377.36 2081.09 1377.36 Q2083.92 1377.36 2085.88 1378.8 Q2087.87 1380.23 2088.82 1382.97 Z" fill="#000000" fill-rule="nonzero" fill-opacity="1" /><path clip-path="url(#clip920)" d="M2118.94 1400.03 L2118.94 1413.78 L2114.66 1413.78 L2114.66 1377.99 L2118.94 1377.99 L2118.94 1381.92 Q2120.28 1379.61 2122.32 1378.5 Q2124.38 1377.36 2127.23 1377.36 Q2131.95 1377.36 2134.89 1381.11 Q2137.85 1384.86 2137.85 1390.97 Q2137.85 1397.09 2134.89 1400.84 Q2131.95 1404.59 2127.23 1404.59 Q2124.38 1404.59 2122.32 1403.47 Q2120.28 1402.34 2118.94 1400.03 M2133.43 1390.97 Q2133.43 1386.28 2131.48 1383.61 Q2129.56 1380.93 2126.18 1380.93 Q2122.8 1380.93 2120.86 1383.61 Q2118.94 1386.28 2118.94 1390.97 Q2118.94 1395.67 2120.86 1398.36 Q2122.8 1401.02 2126.18 1401.02 Q2129.56 1401.02 2131.48 1398.36 Q2133.43 1395.67 2133.43 1390.97 Z" fill="#000000" fill-rule="nonzero" fill-opacity="1" /><path clip-path="url(#clip920)" d="M2166.46 1388.27 L2166.46 1403.91 L2162.2 1403.91 L2162.2 1388.41 Q2162.2 1384.72 2160.77 1382.9 Q2159.33 1381.07 2156.46 1381.07 Q2153.01 1381.07 2151.02 1383.27 Q2149.03 1385.47 2149.03 1389.26 L2149.03 1403.91 L2144.75 1403.91 L2144.75 1377.99 L2149.03 1377.99 L2149.03 1382.02 Q2150.56 1379.68 2152.62 1378.52 Q2154.7 1377.36 2157.41 1377.36 Q2161.88 1377.36 2164.17 1380.14 Q2166.46 1382.9 2166.46 1388.27 Z" fill="#000000" fill-rule="nonzero" fill-opacity="1" /><path clip-path="url(#clip920)" d="M2197.13 1389.89 L2197.13 1391.97 L2177.55 1391.97 Q2177.83 1396.37 2180.19 1398.68 Q2182.57 1400.97 2186.81 1400.97 Q2189.26 1400.97 2191.55 1400.37 Q2193.87 1399.77 2196.14 1398.57 L2196.14 1402.59 Q2193.85 1403.57 2191.44 1404.08 Q2189.03 1404.59 2186.55 1404.59 Q2180.35 1404.59 2176.72 1400.97 Q2173.11 1397.36 2173.11 1391.21 Q2173.11 1384.84 2176.53 1381.11 Q2179.98 1377.36 2185.81 1377.36 Q2191.04 1377.36 2194.08 1380.74 Q2197.13 1384.1 2197.13 1389.89 M2192.87 1388.64 Q2192.83 1385.14 2190.91 1383.06 Q2189.01 1380.97 2185.86 1380.97 Q2182.29 1380.97 2180.14 1382.99 Q2178.01 1385 2177.69 1388.66 L2192.87 1388.64 Z" fill="#000000" fill-rule="nonzero" fill-opacity="1" /><path clip-path="url(#clip920)" d="M2208.34 1370.63 L2208.34 1377.99 L2217.11 1377.99 L2217.11 1381.3 L2208.34 1381.3 L2208.34 1395.37 Q2208.34 1398.54 2209.19 1399.45 Q2210.07 1400.35 2212.73 1400.35 L2217.11 1400.35 L2217.11 1403.91 L2212.73 1403.91 Q2207.8 1403.91 2205.93 1402.09 Q2204.05 1400.23 2204.05 1395.37 L2204.05 1381.3 L2200.93 1381.3 L2200.93 1377.99 L2204.05 1377.99 L2204.05 1370.63 L2208.34 1370.63 Z" fill="#000000" fill-rule="nonzero" fill-opacity="1" /></svg>
