<?xml version="1.0" encoding="utf-8"?>
<svg xmlns="http://www.w3.org/2000/svg" xmlns:xlink="http://www.w3.org/1999/xlink" width="600" height="400" viewBox="0 0 2400 1600">
<defs>
  <clipPath id="clip510">
    <rect x="0" y="0" width="2400" height="1600"/>
  </clipPath>
</defs>
<path clip-path="url(#clip510)" d="M0 1600 L2400 1600 L2400 0 L0 0  Z" fill="#ffffff" fill-rule="evenodd" fill-opacity="1"/>
<defs>
  <clipPath id="clip511">
    <rect x="480" y="0" width="1681" height="1600"/>
  </clipPath>
</defs>
<path clip-path="url(#clip510)" d="M251.071 1423.18 L2352.76 1423.18 L2352.76 47.2441 L251.071 47.2441  Z" fill="#ffffff" fill-rule="evenodd" fill-opacity="1"/>
<defs>
  <clipPath id="clip512">
    <rect x="251" y="47" width="2103" height="1377"/>
  </clipPath>
</defs>
<polyline clip-path="url(#clip512)" style="stroke:#000000; stroke-linecap:round; stroke-linejoin:round; stroke-width:2; stroke-opacity:0.1; fill:none" points="308.568,1423.18 308.568,47.2441 "/>
<polyline clip-path="url(#clip512)" style="stroke:#000000; stroke-linecap:round; stroke-linejoin:round; stroke-width:2; stroke-opacity:0.1; fill:none" points="804.745,1423.18 804.745,47.2441 "/>
<polyline clip-path="url(#clip512)" style="stroke:#000000; stroke-linecap:round; stroke-linejoin:round; stroke-width:2; stroke-opacity:0.1; fill:none" points="1300.92,1423.18 1300.92,47.2441 "/>
<polyline clip-path="url(#clip512)" style="stroke:#000000; stroke-linecap:round; stroke-linejoin:round; stroke-width:2; stroke-opacity:0.1; fill:none" points="1797.1,1423.18 1797.1,47.2441 "/>
<polyline clip-path="url(#clip512)" style="stroke:#000000; stroke-linecap:round; stroke-linejoin:round; stroke-width:2; stroke-opacity:0.1; fill:none" points="2293.27,1423.18 2293.27,47.2441 "/>
<polyline clip-path="url(#clip510)" style="stroke:#000000; stroke-linecap:round; stroke-linejoin:round; stroke-width:4; stroke-opacity:1; fill:none" points="251.071,1423.18 2352.76,1423.18 "/>
<polyline clip-path="url(#clip510)" style="stroke:#000000; stroke-linecap:round; stroke-linejoin:round; stroke-width:4; stroke-opacity:1; fill:none" points="308.568,1423.18 308.568,1404.28 "/>
<polyline clip-path="url(#clip510)" style="stroke:#000000; stroke-linecap:round; stroke-linejoin:round; stroke-width:4; stroke-opacity:1; fill:none" points="804.745,1423.18 804.745,1404.28 "/>
<polyline clip-path="url(#clip510)" style="stroke:#000000; stroke-linecap:round; stroke-linejoin:round; stroke-width:4; stroke-opacity:1; fill:none" points="1300.92,1423.18 1300.92,1404.28 "/>
<polyline clip-path="url(#clip510)" style="stroke:#000000; stroke-linecap:round; stroke-linejoin:round; stroke-width:4; stroke-opacity:1; fill:none" points="1797.1,1423.18 1797.1,1404.28 "/>
<polyline clip-path="url(#clip510)" style="stroke:#000000; stroke-linecap:round; stroke-linejoin:round; stroke-width:4; stroke-opacity:1; fill:none" points="2293.27,1423.18 2293.27,1404.28 "/>
<path clip-path="url(#clip510)" d="M308.568 1454.1 Q304.957 1454.1 303.128 1457.66 Q301.323 1461.2 301.323 1468.33 Q301.323 1475.44 303.128 1479.01 Q304.957 1482.55 308.568 1482.55 Q312.202 1482.55 314.008 1479.01 Q315.837 1475.44 315.837 1468.33 Q315.837 1461.2 314.008 1457.66 Q312.202 1454.1 308.568 1454.1 M308.568 1450.39 Q314.378 1450.39 317.434 1455 Q320.513 1459.58 320.513 1468.33 Q320.513 1477.06 317.434 1481.67 Q314.378 1486.25 308.568 1486.25 Q302.758 1486.25 299.679 1481.67 Q296.624 1477.06 296.624 1468.33 Q296.624 1459.58 299.679 1455 Q302.758 1450.39 308.568 1450.39 Z" fill="#000000" fill-rule="nonzero" fill-opacity="1" /><path clip-path="url(#clip510)" d="M768.437 1481.64 L784.756 1481.64 L784.756 1485.58 L762.812 1485.58 L762.812 1481.64 Q765.474 1478.89 770.057 1474.26 Q774.664 1469.61 775.844 1468.27 Q778.09 1465.74 778.969 1464.01 Q779.872 1462.25 779.872 1460.56 Q779.872 1457.8 777.928 1456.07 Q776.006 1454.33 772.905 1454.33 Q770.706 1454.33 768.252 1455.09 Q765.821 1455.86 763.044 1457.41 L763.044 1452.69 Q765.868 1451.55 768.321 1450.97 Q770.775 1450.39 772.812 1450.39 Q778.182 1450.39 781.377 1453.08 Q784.571 1455.77 784.571 1460.26 Q784.571 1462.39 783.761 1464.31 Q782.974 1466.2 780.868 1468.8 Q780.289 1469.47 777.187 1472.69 Q774.085 1475.88 768.437 1481.64 Z" fill="#000000" fill-rule="nonzero" fill-opacity="1" /><path clip-path="url(#clip510)" d="M794.617 1451.02 L812.974 1451.02 L812.974 1454.96 L798.9 1454.96 L798.9 1463.43 Q799.918 1463.08 800.937 1462.92 Q801.955 1462.73 802.974 1462.73 Q808.761 1462.73 812.14 1465.9 Q815.52 1469.08 815.52 1474.49 Q815.52 1480.07 812.048 1483.17 Q808.576 1486.25 802.256 1486.25 Q800.08 1486.25 797.812 1485.88 Q795.567 1485.51 793.159 1484.77 L793.159 1480.07 Q795.242 1481.2 797.465 1481.76 Q799.687 1482.32 802.164 1482.32 Q806.168 1482.32 808.506 1480.21 Q810.844 1478.1 810.844 1474.49 Q810.844 1470.88 808.506 1468.77 Q806.168 1466.67 802.164 1466.67 Q800.289 1466.67 798.414 1467.08 Q796.562 1467.5 794.617 1468.38 L794.617 1451.02 Z" fill="#000000" fill-rule="nonzero" fill-opacity="1" /><path clip-path="url(#clip510)" d="M834.733 1454.1 Q831.122 1454.1 829.293 1457.66 Q827.488 1461.2 827.488 1468.33 Q827.488 1475.44 829.293 1479.01 Q831.122 1482.55 834.733 1482.55 Q838.367 1482.55 840.173 1479.01 Q842.001 1475.44 842.001 1468.33 Q842.001 1461.2 840.173 1457.66 Q838.367 1454.1 834.733 1454.1 M834.733 1450.39 Q840.543 1450.39 843.599 1455 Q846.677 1459.58 846.677 1468.33 Q846.677 1477.06 843.599 1481.67 Q840.543 1486.25 834.733 1486.25 Q828.923 1486.25 825.844 1481.67 Q822.789 1477.06 822.789 1468.33 Q822.789 1459.58 825.844 1455 Q828.923 1450.39 834.733 1450.39 Z" fill="#000000" fill-rule="nonzero" fill-opacity="1" /><path clip-path="url(#clip510)" d="M1260.54 1451.02 L1278.9 1451.02 L1278.9 1454.96 L1264.82 1454.96 L1264.82 1463.43 Q1265.84 1463.08 1266.86 1462.92 Q1267.88 1462.73 1268.9 1462.73 Q1274.68 1462.73 1278.06 1465.9 Q1281.44 1469.08 1281.44 1474.49 Q1281.44 1480.07 1277.97 1483.17 Q1274.5 1486.25 1268.18 1486.25 Q1266 1486.25 1263.73 1485.88 Q1261.49 1485.51 1259.08 1484.77 L1259.08 1480.07 Q1261.16 1481.2 1263.39 1481.76 Q1265.61 1482.32 1268.09 1482.32 Q1272.09 1482.32 1274.43 1480.21 Q1276.77 1478.1 1276.77 1474.49 Q1276.77 1470.88 1274.43 1468.77 Q1272.09 1466.67 1268.09 1466.67 Q1266.21 1466.67 1264.34 1467.08 Q1262.48 1467.5 1260.54 1468.38 L1260.54 1451.02 Z" fill="#000000" fill-rule="nonzero" fill-opacity="1" /><path clip-path="url(#clip510)" d="M1300.66 1454.1 Q1297.04 1454.1 1295.22 1457.66 Q1293.41 1461.2 1293.41 1468.33 Q1293.41 1475.44 1295.22 1479.01 Q1297.04 1482.55 1300.66 1482.55 Q1304.29 1482.55 1306.09 1479.01 Q1307.92 1475.44 1307.92 1468.33 Q1307.92 1461.2 1306.09 1457.66 Q1304.29 1454.1 1300.66 1454.1 M1300.66 1450.39 Q1306.47 1450.39 1309.52 1455 Q1312.6 1459.58 1312.6 1468.33 Q1312.6 1477.06 1309.52 1481.67 Q1306.47 1486.25 1300.66 1486.25 Q1294.84 1486.25 1291.77 1481.67 Q1288.71 1477.06 1288.71 1468.33 Q1288.71 1459.58 1291.77 1455 Q1294.84 1450.39 1300.66 1450.39 Z" fill="#000000" fill-rule="nonzero" fill-opacity="1" /><path clip-path="url(#clip510)" d="M1330.82 1454.1 Q1327.21 1454.1 1325.38 1457.66 Q1323.57 1461.2 1323.57 1468.33 Q1323.57 1475.44 1325.38 1479.01 Q1327.21 1482.55 1330.82 1482.55 Q1334.45 1482.55 1336.26 1479.01 Q1338.09 1475.44 1338.09 1468.33 Q1338.09 1461.2 1336.26 1457.66 Q1334.45 1454.1 1330.82 1454.1 M1330.82 1450.39 Q1336.63 1450.39 1339.68 1455 Q1342.76 1459.58 1342.76 1468.33 Q1342.76 1477.06 1339.68 1481.67 Q1336.63 1486.25 1330.82 1486.25 Q1325.01 1486.25 1321.93 1481.67 Q1318.87 1477.06 1318.87 1468.33 Q1318.87 1459.58 1321.93 1455 Q1325.01 1450.39 1330.82 1450.39 Z" fill="#000000" fill-rule="nonzero" fill-opacity="1" /><path clip-path="url(#clip510)" d="M1755.37 1451.02 L1777.6 1451.02 L1777.6 1453.01 L1765.05 1485.58 L1760.17 1485.58 L1771.97 1454.96 L1755.37 1454.96 L1755.37 1451.02 Z" fill="#000000" fill-rule="nonzero" fill-opacity="1" /><path clip-path="url(#clip510)" d="M1786.76 1451.02 L1805.12 1451.02 L1805.12 1454.96 L1791.04 1454.96 L1791.04 1463.43 Q1792.06 1463.08 1793.08 1462.92 Q1794.1 1462.73 1795.12 1462.73 Q1800.91 1462.73 1804.29 1465.9 Q1807.66 1469.08 1807.66 1474.49 Q1807.66 1480.07 1804.19 1483.17 Q1800.72 1486.25 1794.4 1486.25 Q1792.23 1486.25 1789.96 1485.88 Q1787.71 1485.51 1785.3 1484.77 L1785.3 1480.07 Q1787.39 1481.2 1789.61 1481.76 Q1791.83 1482.32 1794.31 1482.32 Q1798.31 1482.32 1800.65 1480.21 Q1802.99 1478.1 1802.99 1474.49 Q1802.99 1470.88 1800.65 1468.77 Q1798.31 1466.67 1794.31 1466.67 Q1792.43 1466.67 1790.56 1467.08 Q1788.71 1467.5 1786.76 1468.38 L1786.76 1451.02 Z" fill="#000000" fill-rule="nonzero" fill-opacity="1" /><path clip-path="url(#clip510)" d="M1826.88 1454.1 Q1823.27 1454.1 1821.44 1457.66 Q1819.63 1461.2 1819.63 1468.33 Q1819.63 1475.44 1821.44 1479.01 Q1823.27 1482.55 1826.88 1482.55 Q1830.51 1482.55 1832.32 1479.01 Q1834.15 1475.44 1834.15 1468.33 Q1834.15 1461.2 1832.32 1457.66 Q1830.51 1454.1 1826.88 1454.1 M1826.88 1450.39 Q1832.69 1450.39 1835.74 1455 Q1838.82 1459.58 1838.82 1468.33 Q1838.82 1477.06 1835.74 1481.67 Q1832.69 1486.25 1826.88 1486.25 Q1821.07 1486.25 1817.99 1481.67 Q1814.93 1477.06 1814.93 1468.33 Q1814.93 1459.58 1817.99 1455 Q1821.07 1450.39 1826.88 1450.39 Z" fill="#000000" fill-rule="nonzero" fill-opacity="1" /><path clip-path="url(#clip510)" d="M2237.8 1481.64 L2245.44 1481.64 L2245.44 1455.28 L2237.13 1456.95 L2237.13 1452.69 L2245.39 1451.02 L2250.07 1451.02 L2250.07 1481.64 L2257.71 1481.64 L2257.71 1485.58 L2237.8 1485.58 L2237.8 1481.64 Z" fill="#000000" fill-rule="nonzero" fill-opacity="1" /><path clip-path="url(#clip510)" d="M2277.15 1454.1 Q2273.54 1454.1 2271.71 1457.66 Q2269.91 1461.2 2269.91 1468.33 Q2269.91 1475.44 2271.71 1479.01 Q2273.54 1482.55 2277.15 1482.55 Q2280.79 1482.55 2282.59 1479.01 Q2284.42 1475.44 2284.42 1468.33 Q2284.42 1461.2 2282.59 1457.66 Q2280.79 1454.1 2277.15 1454.1 M2277.15 1450.39 Q2282.96 1450.39 2286.02 1455 Q2289.1 1459.58 2289.1 1468.33 Q2289.1 1477.06 2286.02 1481.67 Q2282.96 1486.25 2277.15 1486.25 Q2271.34 1486.25 2268.26 1481.67 Q2265.21 1477.06 2265.21 1468.33 Q2265.21 1459.58 2268.26 1455 Q2271.34 1450.39 2277.15 1450.39 Z" fill="#000000" fill-rule="nonzero" fill-opacity="1" /><path clip-path="url(#clip510)" d="M2307.31 1454.1 Q2303.7 1454.1 2301.87 1457.66 Q2300.07 1461.2 2300.07 1468.33 Q2300.07 1475.44 2301.87 1479.01 Q2303.7 1482.55 2307.31 1482.55 Q2310.95 1482.55 2312.75 1479.01 Q2314.58 1475.44 2314.58 1468.33 Q2314.58 1461.2 2312.75 1457.66 Q2310.95 1454.1 2307.31 1454.1 M2307.31 1450.39 Q2313.12 1450.39 2316.18 1455 Q2319.26 1459.58 2319.26 1468.33 Q2319.26 1477.06 2316.18 1481.67 Q2313.12 1486.25 2307.31 1486.25 Q2301.5 1486.25 2298.42 1481.67 Q2295.37 1477.06 2295.37 1468.33 Q2295.37 1459.58 2298.42 1455 Q2301.5 1450.39 2307.31 1450.39 Z" fill="#000000" fill-rule="nonzero" fill-opacity="1" /><path clip-path="url(#clip510)" d="M2337.48 1454.1 Q2333.86 1454.1 2332.04 1457.66 Q2330.23 1461.2 2330.23 1468.33 Q2330.23 1475.44 2332.04 1479.01 Q2333.86 1482.55 2337.48 1482.55 Q2341.11 1482.55 2342.92 1479.01 Q2344.74 1475.44 2344.74 1468.33 Q2344.74 1461.2 2342.92 1457.66 Q2341.11 1454.1 2337.48 1454.1 M2337.48 1450.39 Q2343.29 1450.39 2346.34 1455 Q2349.42 1459.58 2349.42 1468.33 Q2349.42 1477.06 2346.34 1481.67 Q2343.29 1486.25 2337.48 1486.25 Q2331.67 1486.25 2328.59 1481.67 Q2325.53 1477.06 2325.53 1468.33 Q2325.53 1459.58 2328.59 1455 Q2331.67 1450.39 2337.48 1450.39 Z" fill="#000000" fill-rule="nonzero" fill-opacity="1" /><path clip-path="url(#clip510)" d="M1208.08 1520.52 L1238.13 1520.52 L1238.13 1525.93 L1214.51 1525.93 L1214.51 1540 L1237.14 1540 L1237.14 1545.41 L1214.51 1545.41 L1214.51 1562.63 L1238.7 1562.63 L1238.7 1568.04 L1208.08 1568.04 L1208.08 1520.52 Z" fill="#000000" fill-rule="nonzero" fill-opacity="1" /><path clip-path="url(#clip510)" d="M1254.68 1562.7 L1254.68 1581.6 L1248.79 1581.6 L1248.79 1532.4 L1254.68 1532.4 L1254.68 1537.81 Q1256.53 1534.62 1259.33 1533.1 Q1262.16 1531.54 1266.07 1531.54 Q1272.57 1531.54 1276.61 1536.69 Q1280.68 1541.85 1280.68 1550.25 Q1280.68 1558.65 1276.61 1563.81 Q1272.57 1568.97 1266.07 1568.97 Q1262.16 1568.97 1259.33 1567.44 Q1256.53 1565.88 1254.68 1562.7 M1274.6 1550.25 Q1274.6 1543.79 1271.93 1540.13 Q1269.29 1536.44 1264.64 1536.44 Q1260 1536.44 1257.32 1540.13 Q1254.68 1543.79 1254.68 1550.25 Q1254.68 1556.71 1257.32 1560.4 Q1260 1564.07 1264.64 1564.07 Q1269.29 1564.07 1271.93 1560.4 Q1274.6 1556.71 1274.6 1550.25 Z" fill="#000000" fill-rule="nonzero" fill-opacity="1" /><path clip-path="url(#clip510)" d="M1304.21 1536.5 Q1299.49 1536.5 1296.76 1540.19 Q1294.02 1543.85 1294.02 1550.25 Q1294.02 1556.65 1296.73 1560.34 Q1299.46 1564 1304.21 1564 Q1308.88 1564 1311.62 1560.31 Q1314.36 1556.62 1314.36 1550.25 Q1314.36 1543.92 1311.62 1540.23 Q1308.88 1536.5 1304.21 1536.5 M1304.21 1531.54 Q1311.84 1531.54 1316.2 1536.5 Q1320.57 1541.47 1320.57 1550.25 Q1320.57 1559 1316.2 1564 Q1311.84 1568.97 1304.21 1568.97 Q1296.53 1568.97 1292.17 1564 Q1287.85 1559 1287.85 1550.25 Q1287.85 1541.47 1292.17 1536.5 Q1296.53 1531.54 1304.21 1531.54 Z" fill="#000000" fill-rule="nonzero" fill-opacity="1" /><path clip-path="url(#clip510)" d="M1355.93 1533.76 L1355.93 1539.24 Q1353.44 1537.87 1350.93 1537.2 Q1348.45 1536.5 1345.9 1536.5 Q1340.2 1536.5 1337.05 1540.13 Q1333.9 1543.73 1333.9 1550.25 Q1333.9 1556.78 1337.05 1560.4 Q1340.2 1564 1345.9 1564 Q1348.45 1564 1350.93 1563.33 Q1353.44 1562.63 1355.93 1561.26 L1355.93 1566.68 Q1353.48 1567.82 1350.83 1568.39 Q1348.22 1568.97 1345.26 1568.97 Q1337.21 1568.97 1332.47 1563.91 Q1327.73 1558.85 1327.73 1550.25 Q1327.73 1541.53 1332.5 1536.53 Q1337.31 1531.54 1345.65 1531.54 Q1348.35 1531.54 1350.93 1532.11 Q1353.51 1532.65 1355.93 1533.76 Z" fill="#000000" fill-rule="nonzero" fill-opacity="1" /><path clip-path="url(#clip510)" d="M1395.74 1546.53 L1395.74 1568.04 L1389.89 1568.04 L1389.89 1546.72 Q1389.89 1541.66 1387.91 1539.14 Q1385.94 1536.63 1381.99 1536.63 Q1377.25 1536.63 1374.51 1539.65 Q1371.78 1542.68 1371.78 1547.9 L1371.78 1568.04 L1365.89 1568.04 L1365.89 1518.52 L1371.78 1518.52 L1371.78 1537.93 Q1373.88 1534.72 1376.71 1533.13 Q1379.58 1531.54 1383.3 1531.54 Q1389.44 1531.54 1392.59 1535.36 Q1395.74 1539.14 1395.74 1546.53 Z" fill="#000000" fill-rule="nonzero" fill-opacity="1" /><polyline clip-path="url(#clip512)" style="stroke:#000000; stroke-linecap:round; stroke-linejoin:round; stroke-width:2; stroke-opacity:0.1; fill:none" points="251.071,1017.18 2352.76,1017.18 "/>
<polyline clip-path="url(#clip512)" style="stroke:#000000; stroke-linecap:round; stroke-linejoin:round; stroke-width:2; stroke-opacity:0.1; fill:none" points="251.071,355.177 2352.76,355.177 "/>
<polyline clip-path="url(#clip510)" style="stroke:#000000; stroke-linecap:round; stroke-linejoin:round; stroke-width:4; stroke-opacity:1; fill:none" points="251.071,1423.18 251.071,47.2441 "/>
<polyline clip-path="url(#clip510)" style="stroke:#000000; stroke-linecap:round; stroke-linejoin:round; stroke-width:4; stroke-opacity:1; fill:none" points="251.071,1017.18 269.969,1017.18 "/>
<polyline clip-path="url(#clip510)" style="stroke:#000000; stroke-linecap:round; stroke-linejoin:round; stroke-width:4; stroke-opacity:1; fill:none" points="251.071,355.177 269.969,355.177 "/>
<path clip-path="url(#clip510)" d="M114.931 1036.98 L122.57 1036.98 L122.57 1010.61 L114.26 1012.28 L114.26 1008.02 L122.524 1006.35 L127.2 1006.35 L127.2 1036.98 L134.839 1036.98 L134.839 1040.91 L114.931 1040.91 L114.931 1036.98 Z" fill="#000000" fill-rule="nonzero" fill-opacity="1" /><path clip-path="url(#clip510)" d="M154.283 1009.43 Q150.672 1009.43 148.843 1013 Q147.038 1016.54 147.038 1023.67 Q147.038 1030.77 148.843 1034.34 Q150.672 1037.88 154.283 1037.88 Q157.917 1037.88 159.723 1034.34 Q161.552 1030.77 161.552 1023.67 Q161.552 1016.54 159.723 1013 Q157.917 1009.43 154.283 1009.43 M154.283 1005.73 Q160.093 1005.73 163.149 1010.33 Q166.227 1014.92 166.227 1023.67 Q166.227 1032.39 163.149 1037 Q160.093 1041.58 154.283 1041.58 Q148.473 1041.58 145.394 1037 Q142.339 1032.39 142.339 1023.67 Q142.339 1014.92 145.394 1010.33 Q148.473 1005.73 154.283 1005.73 Z" fill="#000000" fill-rule="nonzero" fill-opacity="1" /><path clip-path="url(#clip510)" d="M166.227 999.829 L190.339 999.829 L190.339 1003.03 L166.227 1003.03 L166.227 999.829 Z" fill="#000000" fill-rule="nonzero" fill-opacity="1" /><path clip-path="url(#clip510)" d="M201.812 1010.3 L215.071 1010.3 L215.071 1013.5 L197.241 1013.5 L197.241 1010.3 Q199.404 1008.07 203.128 1004.3 Q206.871 1000.52 207.83 999.434 Q209.655 997.384 210.369 995.973 Q211.103 994.544 211.103 993.171 Q211.103 990.933 209.523 989.522 Q207.962 988.111 205.442 988.111 Q203.655 988.111 201.661 988.732 Q199.686 989.353 197.43 990.613 L197.43 986.776 Q199.724 985.855 201.718 985.384 Q203.711 984.914 205.366 984.914 Q209.73 984.914 212.325 987.096 Q214.921 989.278 214.921 992.926 Q214.921 994.657 214.263 996.218 Q213.623 997.76 211.912 999.866 Q211.441 1000.41 208.921 1003.03 Q206.401 1005.62 201.812 1010.3 Z" fill="#000000" fill-rule="nonzero" fill-opacity="1" /><path clip-path="url(#clip510)" d="M144.366 374.969 L152.004 374.969 L152.004 348.604 L143.694 350.27 L143.694 346.011 L151.958 344.344 L156.634 344.344 L156.634 374.969 L164.273 374.969 L164.273 378.904 L144.366 378.904 L144.366 374.969 Z" fill="#000000" fill-rule="nonzero" fill-opacity="1" /><path clip-path="url(#clip510)" d="M183.717 347.423 Q180.106 347.423 178.277 350.988 Q176.472 354.53 176.472 361.659 Q176.472 368.766 178.277 372.33 Q180.106 375.872 183.717 375.872 Q187.351 375.872 189.157 372.33 Q190.986 368.766 190.986 361.659 Q190.986 354.53 189.157 350.988 Q187.351 347.423 183.717 347.423 M183.717 343.719 Q189.527 343.719 192.583 348.326 Q195.662 352.909 195.662 361.659 Q195.662 370.386 192.583 374.992 Q189.527 379.576 183.717 379.576 Q177.907 379.576 174.828 374.992 Q171.773 370.386 171.773 361.659 Q171.773 352.909 174.828 348.326 Q177.907 343.719 183.717 343.719 Z" fill="#000000" fill-rule="nonzero" fill-opacity="1" /><path clip-path="url(#clip510)" d="M205.366 325.915 Q202.432 325.915 200.947 328.812 Q199.48 331.689 199.48 337.482 Q199.48 343.256 200.947 346.153 Q202.432 349.03 205.366 349.03 Q208.319 349.03 209.786 346.153 Q211.272 343.256 211.272 337.482 Q211.272 331.689 209.786 328.812 Q208.319 325.915 205.366 325.915 M205.366 322.906 Q210.087 322.906 212.57 326.649 Q215.071 330.373 215.071 337.482 Q215.071 344.573 212.57 348.315 Q210.087 352.039 205.366 352.039 Q200.646 352.039 198.144 348.315 Q195.662 344.573 195.662 337.482 Q195.662 330.373 198.144 326.649 Q200.646 322.906 205.366 322.906 Z" fill="#000000" fill-rule="nonzero" fill-opacity="1" /><path clip-path="url(#clip510)" d="M16.4842 953.174 L16.4842 912.974 L21.895 912.974 L21.895 929.843 L64.0042 929.843 L64.0042 936.305 L21.895 936.305 L21.895 953.174 L16.4842 953.174 Z" fill="#000000" fill-rule="nonzero" fill-opacity="1" /><path clip-path="url(#clip510)" d="M33.8307 895.946 Q33.2578 896.933 33.0032 898.11 Q32.7167 899.256 32.7167 900.657 Q32.7167 905.622 35.9632 908.296 Q39.1779 910.937 45.2253 910.937 L64.0042 910.937 L64.0042 916.826 L28.3562 916.826 L28.3562 910.937 L33.8944 910.937 Q30.6479 909.091 29.0883 906.131 Q27.4968 903.171 27.4968 898.938 Q27.4968 898.333 27.5923 897.601 Q27.656 896.869 27.8151 895.978 L33.8307 895.946 Z" fill="#000000" fill-rule="nonzero" fill-opacity="1" /><path clip-path="url(#clip510)" d="M46.0847 873.602 Q46.0847 880.7 47.7079 883.437 Q49.3312 886.175 53.2461 886.175 Q56.3653 886.175 58.2114 884.138 Q60.0256 882.069 60.0256 878.536 Q60.0256 873.666 56.5881 870.738 Q53.1188 867.778 47.3897 867.778 L46.0847 867.778 L46.0847 873.602 M43.6657 861.921 L64.0042 861.921 L64.0042 867.778 L58.5933 867.778 Q61.8398 869.783 63.3994 872.775 Q64.9272 875.767 64.9272 880.095 Q64.9272 885.57 61.8716 888.816 Q58.7843 892.031 53.6281 892.031 Q47.6125 892.031 44.5569 888.021 Q41.5014 883.979 41.5014 875.99 L41.5014 867.778 L40.9285 867.778 Q36.8862 867.778 34.6901 870.451 Q32.4621 873.093 32.4621 877.899 Q32.4621 880.955 33.1941 883.851 Q33.9262 886.748 35.3903 889.421 L29.9795 889.421 Q28.7381 886.207 28.1334 883.183 Q27.4968 880.159 27.4968 877.295 Q27.4968 869.56 31.5072 865.741 Q35.5176 861.921 43.6657 861.921 Z" fill="#000000" fill-rule="nonzero" fill-opacity="1" /><path clip-path="url(#clip510)" d="M28.3562 849.858 L28.3562 844.002 L64.0042 844.002 L64.0042 849.858 L28.3562 849.858 M14.479 849.858 L14.479 844.002 L21.895 844.002 L21.895 849.858 L14.479 849.858 Z" fill="#000000" fill-rule="nonzero" fill-opacity="1" /><path clip-path="url(#clip510)" d="M42.4881 802.116 L64.0042 802.116 L64.0042 807.972 L42.679 807.972 Q37.6183 807.972 35.1038 809.945 Q32.5894 811.919 32.5894 815.865 Q32.5894 820.608 35.6131 823.345 Q38.6368 826.082 43.8567 826.082 L64.0042 826.082 L64.0042 831.971 L28.3562 831.971 L28.3562 826.082 L33.8944 826.082 Q30.6797 823.982 29.0883 821.149 Q27.4968 818.284 27.4968 814.561 Q27.4968 808.418 31.3163 805.267 Q35.1038 802.116 42.4881 802.116 Z" fill="#000000" fill-rule="nonzero" fill-opacity="1" /><path clip-path="url(#clip510)" d="M28.3562 790.434 L28.3562 784.578 L64.0042 784.578 L64.0042 790.434 L28.3562 790.434 M14.479 790.434 L14.479 784.578 L21.895 784.578 L21.895 790.434 L14.479 790.434 Z" fill="#000000" fill-rule="nonzero" fill-opacity="1" /><path clip-path="url(#clip510)" d="M42.4881 742.692 L64.0042 742.692 L64.0042 748.548 L42.679 748.548 Q37.6183 748.548 35.1038 750.521 Q32.5894 752.495 32.5894 756.442 Q32.5894 761.184 35.6131 763.921 Q38.6368 766.659 43.8567 766.659 L64.0042 766.659 L64.0042 772.547 L28.3562 772.547 L28.3562 766.659 L33.8944 766.659 Q30.6797 764.558 29.0883 761.725 Q27.4968 758.861 27.4968 755.137 Q27.4968 748.994 31.3163 745.843 Q35.1038 742.692 42.4881 742.692 Z" fill="#000000" fill-rule="nonzero" fill-opacity="1" /><path clip-path="url(#clip510)" d="M45.7664 707.553 Q39.4007 707.553 35.8996 710.195 Q32.3984 712.805 32.3984 717.547 Q32.3984 722.258 35.8996 724.9 Q39.4007 727.509 45.7664 727.509 Q52.1003 727.509 55.6014 724.9 Q59.1026 722.258 59.1026 717.547 Q59.1026 712.805 55.6014 710.195 Q52.1003 707.553 45.7664 707.553 M59.58 701.697 Q68.683 701.697 73.1071 705.739 Q77.5631 709.781 77.5631 718.12 Q77.5631 721.207 77.0857 723.945 Q76.6401 726.682 75.6852 729.26 L69.9879 729.26 Q71.3884 726.682 72.0568 724.167 Q72.7252 721.653 72.7252 719.043 Q72.7252 713.282 69.7015 710.418 Q66.7096 707.553 60.6303 707.553 L57.7339 707.553 Q60.885 709.367 62.4446 712.2 Q64.0042 715.033 64.0042 718.979 Q64.0042 725.536 59.0071 729.546 Q54.01 733.557 45.7664 733.557 Q37.491 733.557 32.4939 729.546 Q27.4968 725.536 27.4968 718.979 Q27.4968 715.033 29.0564 712.2 Q30.616 709.367 33.7671 707.553 L28.3562 707.553 L28.3562 701.697 L59.58 701.697 Z" fill="#000000" fill-rule="nonzero" fill-opacity="1" /><path clip-path="url(#clip510)" d="M44.7161 638.421 L47.5806 638.421 L47.5806 665.348 Q53.6281 664.966 56.8109 661.72 Q59.9619 658.442 59.9619 652.617 Q59.9619 649.243 59.1344 646.092 Q58.3069 642.909 56.6518 639.79 L62.1899 639.79 Q63.5267 642.941 64.227 646.251 Q64.9272 649.561 64.9272 652.967 Q64.9272 661.497 59.9619 666.494 Q54.9967 671.459 46.5303 671.459 Q37.7774 671.459 32.6531 666.749 Q27.4968 662.006 27.4968 653.986 Q27.4968 646.792 32.1438 642.623 Q36.7589 638.421 44.7161 638.421 M42.9973 644.278 Q38.1912 644.342 35.3266 646.983 Q32.4621 649.593 32.4621 653.922 Q32.4621 658.823 35.2312 661.784 Q38.0002 664.712 43.0292 665.157 L42.9973 644.278 Z" fill="#000000" fill-rule="nonzero" fill-opacity="1" /><path clip-path="url(#clip510)" d="M33.8307 608.152 Q33.2578 609.139 33.0032 610.317 Q32.7167 611.463 32.7167 612.863 Q32.7167 617.828 35.9632 620.502 Q39.1779 623.144 45.2253 623.144 L64.0042 623.144 L64.0042 629.032 L28.3562 629.032 L28.3562 623.144 L33.8944 623.144 Q30.6479 621.298 29.0883 618.338 Q27.4968 615.378 27.4968 611.144 Q27.4968 610.54 27.5923 609.808 Q27.656 609.075 27.8151 608.184 L33.8307 608.152 Z" fill="#000000" fill-rule="nonzero" fill-opacity="1" /><path clip-path="url(#clip510)" d="M33.8307 582.499 Q33.2578 583.485 33.0032 584.663 Q32.7167 585.809 32.7167 587.209 Q32.7167 592.175 35.9632 594.848 Q39.1779 597.49 45.2253 597.49 L64.0042 597.49 L64.0042 603.378 L28.3562 603.378 L28.3562 597.49 L33.8944 597.49 Q30.6479 595.644 29.0883 592.684 Q27.4968 589.724 27.4968 585.491 Q27.4968 584.886 27.5923 584.154 Q27.656 583.422 27.8151 582.53 L33.8307 582.499 Z" fill="#000000" fill-rule="nonzero" fill-opacity="1" /><path clip-path="url(#clip510)" d="M32.4621 563.974 Q32.4621 568.685 36.1542 571.422 Q39.8145 574.16 46.212 574.16 Q52.6095 574.16 56.3017 571.454 Q59.9619 568.717 59.9619 563.974 Q59.9619 559.296 56.2698 556.558 Q52.5777 553.821 46.212 553.821 Q39.8781 553.821 36.186 556.558 Q32.4621 559.296 32.4621 563.974 M27.4968 563.974 Q27.4968 556.336 32.4621 551.975 Q37.4273 547.615 46.212 547.615 Q54.9649 547.615 59.9619 551.975 Q64.9272 556.336 64.9272 563.974 Q64.9272 571.645 59.9619 576.006 Q54.9649 580.334 46.212 580.334 Q37.4273 580.334 32.4621 576.006 Q27.4968 571.645 27.4968 563.974 Z" fill="#000000" fill-rule="nonzero" fill-opacity="1" /><path clip-path="url(#clip510)" d="M33.8307 517.25 Q33.2578 518.237 33.0032 519.415 Q32.7167 520.56 32.7167 521.961 Q32.7167 526.926 35.9632 529.6 Q39.1779 532.241 45.2253 532.241 L64.0042 532.241 L64.0042 538.13 L28.3562 538.13 L28.3562 532.241 L33.8944 532.241 Q30.6479 530.395 29.0883 527.435 Q27.4968 524.475 27.4968 520.242 Q27.4968 519.637 27.5923 518.905 Q27.656 518.173 27.8151 517.282 L33.8307 517.25 Z" fill="#000000" fill-rule="nonzero" fill-opacity="1" /><polyline clip-path="url(#clip512)" style="stroke:#3da44d; stroke-linecap:round; stroke-linejoin:round; stroke-width:4; stroke-opacity:1; fill:none" points="310.553,426.151 312.538,439.393 314.522,453.979 316.507,469.825 318.492,487.283 320.476,507.361 322.461,530.468 324.446,556.868 326.431,589.32 328.415,632.385 330.4,688.338 332.385,719.439 334.369,774.717 336.354,842.965 338.339,971.905 340.323,1046.49 342.308,1070.27 344.293,1091.61 346.278,1111.42 348.262,1114.94 350.247,1117.57 352.232,1120.01 354.216,1122.73 356.201,1123.07 358.186,1123.19 360.171,1126.2 362.155,1128.2 364.14,1128.08 366.125,1131.93 368.109,1133.4 370.094,1136.89 372.079,1139.69 374.063,1144.79 376.048,1150.36 378.033,1152.81 380.018,1160.7 382.002,1167.01 383.987,1172.07 385.972,1178.5 387.956,1181.39 389.941,1186.73 391.926,1194.51 393.911,1200.47 395.895,1206.69 397.88,1214.15 399.865,1215.67 401.849,1220.1 403.834,1224.56 405.819,1224.09 407.803,1227.37 409.788,1225.96 411.773,1230.12 413.758,1236.03 415.742,1237.54 417.727,1241.27 419.712,1242.19 421.696,1242.06 423.681,1242.06 425.666,1241.27 427.651,1238.95 429.635,1242.71 431.62,1246.72 433.605,1250.84 435.589,1251.68 437.574,1248.63 439.559,1249.87 441.543,1258.34 443.528,1259.23 445.513,1259.15 447.498,1263.27 449.482,1259 451.467,1260.19 453.452,1257.39 455.436,1251.54 457.421,1252.73 459.406,1258.56 461.391,1261.76 463.375,1265.03 465.36,1268.92 467.345,1273.17 469.329,1276.05 471.314,1274.56 473.299,1272.93 475.283,1271.71 477.268,1272.36 479.253,1265.95 481.238,1263.12 483.222,1273.74 485.207,1282.67 487.192,1284.24 489.176,1284.42 491.161,1285.39 493.146,1282.93 495.131,1281.03 497.115,1282.5 499.1,1281.46 501.085,1288.53 503.069,1288.89 505.054,1287.89 507.039,1285.48 509.023,1286.82 511.008,1289.98 512.993,1294.63 514.978,1299.04 516.962,1298.07 518.947,1297.68 520.932,1295.29 522.916,1292.19 524.901,1297.49 526.886,1296.24 528.871,1290.44 530.855,1289.43 532.84,1289.16 534.825,1301.3 536.809,1292.47 538.794,1293.87 540.779,1303.99 542.764,1301.49 544.748,1303.29 546.733,1305.92 548.718,1305.72 550.702,1305.62 552.687,1303.89 554.672,1302.99 556.656,1304.7 558.641,1306.54 560.626,1306.33 562.611,1304.9 564.595,1305.62 566.58,1295.67 568.565,1297.01 570.549,1302.49 572.534,1304.4 574.519,1305.62 576.504,1306.74 578.488,1307.15 580.473,1311.55 582.458,1311.33 584.442,1318.4 586.427,1318.18 588.412,1320.87 590.396,1316.52 592.381,1319.52 594.366,1315.1 596.351,1316.74 598.335,1312.29 600.32,1319.41 602.305,1318.29 604.289,1321.1 606.274,1315.1 608.259,1311.76 610.244,1312.19 612.228,1304.19 614.213,1311.12 616.198,1306.54 618.182,1317.96 620.167,1323.04 622.152,1324.9 624.136,1321.33 626.121,1322.36 628.106,1304.8 630.091,1322.7 632.075,1319.07 634.06,1316.85 636.045,1321.78 638.029,1321.56 640.014,1328.56 641.999,1324.9 643.984,1313.15 645.968,1322.01 647.953,1324.78 649.938,1325.83 651.922,1324.43 653.907,1327.37 655.892,1329.88 657.876,1331.09 659.861,1329.88 661.846,1324.08 663.831,1326.78 665.815,1324.55 667.8,1322.01 669.785,1302.19 671.769,1299.82 673.754,1309.86 675.739,1313.58 677.724,1326.78 679.708,1332.19 681.693,1327.49 683.678,1333.8 685.662,1335.17 687.647,1336.17 689.632,1331.21 691.616,1332.19 693.601,1318.18 695.586,1329.04 697.571,1311.76 699.555,1302.39 701.54,1316.41 703.525,1333.92 705.509,1337.57 707.494,1337.69 709.479,1332.81 711.464,1330.24 713.448,1335.79 715.433,1333.55 717.418,1334.17 719.402,1326.42 721.387,1336.55 723.372,1331.46 725.356,1322.01 727.341,1324.67 729.326,1325.48 731.311,1329.64 733.295,1324.55 735.28,1334.67 737.265,1330.24 739.249,1332.44 741.234,1334.67 743.219,1335.42 745.204,1340.52 747.188,1322.36 749.173,1321.33 751.158,1320.87 753.142,1331.7 755.127,1330.73 757.112,1339.62 759.096,1342.36 761.081,1344.48 763.066,1338.97 765.051,1340.13 767.035,1344.74 769.02,1341.96 771.005,1342.36 772.989,1343.28 774.974,1348.13 776.959,1339.75 778.944,1335.29 780.928,1329.4 782.913,1329.52 784.898,1329.88 786.882,1337.95 788.867,1338.46 790.852,1329.16 792.836,1339.75 794.821,1341.83 796.806,1341.31 798.791,1340.39 800.775,1345.01 802.76,1342.75 804.745,1339.36 806.729,1334.92 808.714,1344.08 810.699,1342.36 812.684,1341.57 814.668,1343.55 816.653,1343.55 818.638,1344.74 820.622,1347.72 822.607,1340.78 824.592,1344.48 826.576,1344.34 828.561,1327.37 830.546,1313.69 832.531,1319.41 834.515,1319.63 836.5,1308.39 838.485,1318.07 840.469,1332.56 842.454,1331.09 844.439,1338.59 846.424,1346.77 848.408,1342.36 850.393,1346.63 852.378,1347.72 854.362,1349.09 856.347,1352.09 858.332,1350.76 860.316,1351.74 862.301,1348.4 864.286,1341.31 866.271,1351.04 868.255,1349.78 870.24,1347.04 872.225,1351.6 874.209,1352.58 876.194,1350.9 878.179,1350.34 880.164,1355.87 882.148,1353.72 884.133,1342.22 886.118,1349.23 888.102,1345.95 890.087,1338.46 892.072,1339.36 894.056,1341.31 896.041,1347.58 898.026,1346.36 900.011,1349.51 901.995,1333.55 903.98,1344.34 905.965,1346.22 907.949,1345.55 909.934,1339.88 911.919,1334.42 913.904,1337.18 915.888,1343.15 917.873,1337.18 919.858,1338.2 921.842,1345.95 923.827,1348.68 925.812,1343.15 927.796,1351.6 929.781,1354.86 931.766,1353.22 933.751,1348.54 935.735,1354.72 937.72,1349.92 939.705,1350.06 941.689,1348.96 943.674,1347.31 945.659,1354.51 947.644,1341.05 949.628,1347.58 951.613,1338.59 953.598,1341.57 955.582,1352.23 957.567,1357.33 959.552,1356.31 961.536,1341.96 963.521,1335.67 965.506,1348.68 967.491,1345.01 969.475,1343.55 971.46,1334.17 973.445,1343.41 975.429,1319.07 977.414,1311.23 979.399,1315.53 981.384,1346.63 983.368,1357.62 985.353,1361.7 987.338,1345.28 989.322,1354.65 991.307,1346.9 993.292,1340.65 995.276,1351.6 997.261,1360.5 999.246,1349.78 1001.23,1360.58 1003.22,1361.18 1005.2,1358.65 1007.18,1355.37 1009.17,1340.26 1011.15,1324.55 1013.14,1318.85 1015.12,1348.68 1017.11,1349.23 1019.09,1361.03 1021.08,1360.35 1023.06,1356.96 1025.05,1356.67 1027.03,1353.72 1029.02,1352.73 1031,1347.58 1032.99,1355.8 1034.97,1353.51 1036.96,1350.9 1038.94,1351.04 1040.92,1353.08 1042.91,1353.01 1044.89,1344.21 1046.88,1309.96 1048.86,1313.47 1050.85,1345.42 1052.83,1350.06 1054.82,1348.82 1056.8,1342.22 1058.79,1347.72 1060.77,1355.15 1062.76,1358.79 1064.74,1352.09 1066.73,1353.51 1068.71,1340.52 1070.7,1347.72 1072.68,1350.34 1074.66,1352.87 1076.65,1359.02 1078.63,1356.67 1080.62,1319.86 1082.6,1351.74 1084.59,1353.36 1086.57,1356.31 1088.56,1353.51 1090.54,1362.38 1092.53,1358.21 1094.51,1356.45 1096.5,1356.45 1098.48,1357.62 1100.47,1349.51 1102.45,1290.53 1104.44,1296.62 1106.42,1313.15 1108.4,1337.18 1110.39,1351.18 1112.37,1357.03 1114.36,1358.21 1116.34,1358.87 1118.33,1357.98 1120.31,1352.87 1122.3,1351.04 1124.28,1351.18 1126.27,1348.13 1128.25,1356.31 1130.24,1355.37 1132.22,1349.65 1134.21,1357.98 1136.19,1354.65 1138.18,1357.47 1140.16,1361.78 1142.14,1361.78 1144.13,1358.5 1146.11,1359.83 1148.1,1351.18 1150.08,1338.97 1152.07,1350.48 1154.05,1343.55 1156.04,1348.27 1158.02,1355.01 1160.01,1355.66 1161.99,1362.91 1163.98,1364.82 1165.96,1338.84 1167.95,1361.25 1169.93,1365.9 1171.92,1364.21 1173.9,1363.67 1175.88,1361.4 1177.87,1362.99 1179.85,1361.7 1181.84,1357.47 1183.82,1339.36 1185.81,1337.57 1187.79,1356.02 1189.78,1343.81 1191.76,1338.97 1193.75,1340.65 1195.73,1326.07 1197.72,1333.18 1199.7,1344.08 1201.69,1351.04 1203.67,1355.01 1205.66,1363.67 1207.64,1365.9 1209.62,1365.05 1211.61,1368.56 1213.59,1366.06 1215.58,1362.76 1217.56,1364.67 1219.55,1359.16 1221.53,1361.18 1223.52,1350.9 1225.5,1336.55 1227.49,1345.28 1229.47,1360.58 1231.46,1364.21 1233.44,1363.6 1235.43,1355.66 1237.41,1360.73 1239.4,1358.79 1241.38,1354.86 1243.36,1357.69 1245.35,1356.82 1247.33,1353.22 1249.32,1357.18 1251.3,1357.69 1253.29,1360.2 1255.27,1354.72 1257.26,1356.16 1259.24,1356.82 1261.23,1355.37 1263.21,1351.46 1265.2,1352.09 1267.18,1353.36 1269.17,1357.98 1271.15,1358.79 1273.14,1351.6 1275.12,1360.88 1277.1,1364.36 1279.09,1365.44 1281.07,1370.55 1283.06,1364.36 1285.04,1369.28 1287.03,1368.25 1289.01,1366.14 1291,1364.82 1292.98,1362.46 1294.97,1350.06 1296.95,1337.44 1298.94,1344.08 1300.92,1351.95 1302.91,1364.21 1304.89,1362.99 1306.88,1358.13 1308.86,1364.82 1310.84,1365.36 1312.83,1338.97 1314.81,1318.74 1316.8,1330.61 1318.78,1357.33 1320.77,1359.83 1322.75,1365.9 1324.74,1369.67 1326.72,1371.36 1328.71,1371.03 1330.69,1368.72 1332.68,1368.25 1334.66,1365.59 1336.65,1371.76 1338.63,1368.96 1340.62,1369.67 1342.6,1359.53 1344.58,1351.95 1346.57,1337.18 1348.55,1341.57 1350.54,1349.37 1352.52,1351.88 1354.51,1362.23 1356.49,1363.29 1358.48,1366.84 1360.46,1360.05 1362.45,1356.45 1364.43,1324.78 1366.42,1333.3 1368.4,1356.82 1370.39,1367.54 1372.37,1366.99 1374.36,1358.13 1376.34,1359.39 1378.32,1357.98 1380.31,1366.29 1382.29,1369.91 1384.28,1365.36 1386.26,1368.56 1388.25,1367.38 1390.23,1357.98 1392.22,1359.02 1394.2,1352.73 1396.19,1357.33 1398.17,1359.98 1400.16,1352.37 1402.14,1353.72 1404.13,1363.44 1406.11,1362.76 1408.1,1368.96 1410.08,1362.08 1412.06,1353.72 1414.05,1360.5 1416.03,1365.05 1418.02,1362.23 1420,1366.45 1421.99,1371.92 1423.97,1366.06 1425.96,1353.86 1427.94,1333.18 1429.93,1349.09 1431.91,1334.92 1433.9,1365.05 1435.88,1367.15 1437.87,1365.9 1439.85,1363.67 1441.84,1368.41 1443.82,1369.28 1445.8,1370.31 1447.79,1371.2 1449.77,1370.07 1451.76,1369.83 1453.74,1359.98 1455.73,1361.25 1457.71,1362.23 1459.7,1357.03 1461.68,1340.01 1463.67,1327.13 1465.65,1354.86 1467.64,1355.15 1469.62,1362.76 1471.61,1358.21 1473.59,1366.29 1475.58,1365.75 1477.56,1356.96 1479.54,1332.19 1481.53,1341.31 1483.51,1344.21 1485.5,1362.08 1487.48,1359.02 1489.47,1361.78 1491.45,1368.56 1493.44,1367.38 1495.42,1375.03 1497.41,1372.57 1499.39,1369.12 1501.38,1369.83 1503.36,1354.72 1505.35,1366.84 1507.33,1367.15 1509.32,1368.56 1511.3,1354.72 1513.28,1361.18 1515.27,1363.67 1517.25,1359.02 1519.24,1356.52 1521.22,1366.68 1523.21,1371.92 1525.19,1375.11 1527.18,1369.52 1529.16,1374.37 1531.15,1368.25 1533.13,1366.29 1535.12,1332.07 1537.1,1354.15 1539.09,1349.92 1541.07,1328.92 1543.06,1348.68 1545.04,1355.01 1547.02,1340.91 1549.01,1334.67 1550.99,1337.31 1552.98,1356.16 1554.96,1371.92 1556.95,1358.79 1558.93,1361.78 1560.92,1367.38 1562.9,1363.67 1564.89,1372.89 1566.87,1367.31 1568.86,1364.36 1570.84,1363.83 1572.83,1364.9 1574.81,1367.31 1576.8,1366.29 1578.78,1370.15 1580.76,1366.99 1582.75,1367.38 1584.73,1362.38 1586.72,1367.31 1588.7,1367.7 1590.69,1366.45 1592.67,1364.36 1594.66,1370.71 1596.64,1353.58 1598.63,1341.31 1600.61,1349.78 1602.6,1325.13 1604.58,1324.67 1606.57,1365.36 1608.55,1369.83 1610.54,1369.83 1612.52,1373.47 1614.5,1369.36 1616.49,1372.24 1618.47,1364.67 1620.46,1370.07 1622.44,1368.64 1624.43,1373.55 1626.41,1366.06 1628.4,1357.62 1630.38,1364.9 1632.37,1353.72 1634.35,1368.41 1636.34,1369.91 1638.32,1360.05 1640.31,1359.16 1642.29,1363.14 1644.28,1352.09 1646.26,1335.54 1648.24,1361.25 1650.23,1363.14 1652.21,1373.22 1654.2,1371.2 1656.18,1361.03 1658.17,1357.33 1660.15,1361.93 1662.14,1353.51 1664.12,1351.32 1666.11,1356.67 1668.09,1350.34 1670.08,1354.86 1672.06,1367.86 1674.05,1363.98 1676.03,1368.41 1678.02,1372 1680,1370.39 1681.98,1367.31 1683.97,1362.23 1685.95,1367.7 1687.94,1373.71 1689.92,1369.6 1691.91,1368.09 1693.89,1365.9 1695.88,1368.41 1697.86,1360.88 1699.85,1361.4 1701.83,1370.95 1703.82,1365.59 1705.8,1371.92 1707.79,1364.9 1709.77,1369.04 1711.76,1370.71 1713.74,1361.55 1715.72,1360.73 1717.71,1357.69 1719.69,1373.55 1721.68,1367.86 1723.66,1366.84 1725.65,1365.59 1727.63,1361.7 1729.62,1368.72 1731.6,1365.21 1733.59,1357.18 1735.57,1361.18 1737.56,1371.76 1739.54,1375.03 1741.53,1374.37 1743.51,1376.69 1745.5,1375.44 1747.48,1379.99 1749.46,1359.83 1751.45,1322.93 1753.43,1334.17 1755.42,1362.46 1757.4,1365.9 1759.39,1354.15 1761.37,1354.36 1763.36,1362.76 1765.34,1361.4 1767.33,1355.8 1769.31,1367.15 1771.3,1374.29 1773.28,1373.71 1775.27,1373.71 1777.25,1368.41 1779.24,1368.8 1781.22,1372.41 1783.2,1371.92 1785.19,1373.71 1787.17,1372.65 1789.16,1371.11 1791.14,1371.36 1793.13,1365.05 1795.11,1361.93 1797.1,1364.52 1799.08,1355.87 1801.07,1362.08 1803.05,1365.44 1805.04,1371.6 1807.02,1370.87 1809.01,1363.29 1810.99,1366.6 1812.98,1367.54 1814.96,1366.68 1816.94,1368.41 1818.93,1358.35 1820.91,1362.46 1822.9,1354 1824.88,1360.2 1826.87,1358.79 1828.85,1347.45 1830.84,1362.99 1832.82,1368.56 1834.81,1364.36 1836.79,1369.44 1838.78,1373.06 1840.76,1375.69 1842.75,1378.03 1844.73,1373.14 1846.72,1375.44 1848.7,1376.52 1850.68,1371.76 1852.67,1357.69 1854.65,1337.82 1856.64,1363.6 1858.62,1367.86 1860.61,1378.45 1862.59,1373.96 1864.58,1375.27 1866.56,1359.16 1868.55,1351.74 1870.53,1357.03 1872.52,1365.36 1874.5,1367.31 1876.49,1353.01 1878.47,1365.05 1880.46,1362.76 1882.44,1363.67 1884.42,1369.52 1886.41,1364.52 1888.39,1370.07 1890.38,1366.14 1892.36,1361.4 1894.35,1368.56 1896.33,1366.84 1898.32,1346.09 1900.3,1354.72 1902.29,1360.88 1904.27,1357.18 1906.26,1365.05 1908.24,1376.44 1910.23,1376.94 1912.21,1382.23 1914.2,1374.37 1916.18,1362.23 1918.16,1369.36 1920.15,1366.6 1922.13,1351.88 1924.12,1349.92 1926.1,1349.09 1928.09,1377.53 1930.07,1374.7 1932.06,1376.1 1934.04,1371.36 1936.03,1339.23 1938.01,1353.22 1940,1323.62 1941.98,1311.23 1943.97,1320.65 1945.95,1315.31 1947.94,1318.51 1949.92,1329.04 1951.9,1325.6 1953.89,1328.92 1955.87,1342.88 1957.86,1359.39 1959.84,1374.94 1961.83,1378.62 1963.81,1369.75 1965.8,1379.13 1967.78,1377.44 1969.77,1380.41 1971.75,1374.78 1973.74,1371.84 1975.72,1360.73 1977.71,1373.14 1979.69,1369.2 1981.68,1378.88 1983.66,1372.49 1985.64,1372.81 1987.63,1374.04 1989.61,1372.41 1991.6,1372.49 1993.58,1375.11 1995.57,1378.96 1997.55,1380.67 1999.54,1379.05 2001.52,1380.33 2003.51,1379.73 2005.49,1371.76 2007.48,1339.62 2009.46,1355.51 2011.45,1341.31 2013.43,1347.45 2015.42,1353.72 2017.4,1375.69 2019.38,1376.02 2021.37,1359.39 2023.35,1359.02 2025.34,1369.36 2027.32,1369.04 2029.31,1374.29 2031.29,1374.45 2033.28,1368.96 2035.26,1361.78 2037.25,1369.52 2039.23,1330.12 2041.22,1327.13 2043.2,1334.67 2045.19,1347.17 2047.17,1356.16 2049.16,1364.52 2051.14,1369.28 2053.12,1377.7 2055.11,1375.94 2057.09,1372.57 2059.08,1362.91 2061.06,1366.6 2063.05,1375.77 2065.03,1367.86 2067.02,1377.7 2069,1374.37 2070.99,1377.27 2072.97,1379.81 2074.96,1378.88 2076.94,1369.52 2078.93,1372.41 2080.91,1369.52 2082.9,1366.29 2084.88,1367.7 2086.86,1374.86 2088.85,1376.27 2090.83,1375.03 2092.82,1373.14 2094.8,1373.06 2096.79,1353.08 2098.77,1335.17 2100.76,1334.29 2102.74,1329.28 2104.73,1333.55 2106.71,1344.48 2108.7,1366.29 2110.68,1375.11 2112.67,1376.35 2114.65,1376.61 2116.64,1380.41 2118.62,1363.83 2120.6,1368.41 2122.59,1367.7 2124.57,1372 2126.56,1370.47 2128.54,1368.56 2130.53,1373.06 2132.51,1370.55 2134.5,1369.99 2136.48,1372 2138.47,1370.15 2140.45,1373.71 2142.44,1370.63 2144.42,1375.52 2146.41,1369.67 2148.39,1333.92 2150.38,1321.9 2152.36,1337.44 2154.34,1358.35 2156.33,1366.06 2158.31,1369.99 2160.3,1369.83 2162.28,1374.78 2164.27,1374.7 2166.25,1380.24 2168.24,1366.29 2170.22,1377.95 2172.21,1374.78 2174.19,1378.88 2176.18,1370.71 2178.16,1359.31 2180.15,1373.47 2182.13,1370.79 2184.12,1378.2 2186.1,1377.78 2188.08,1369.2 2190.07,1372.57 2192.05,1380.16 2194.04,1378.71 2196.02,1378.79 2198.01,1375.61 2199.99,1372.65 2201.98,1375.03 2203.96,1378.79 2205.95,1381.1 2207.93,1379.99 2209.92,1382.4 2211.9,1376.02 2213.89,1372.81 2215.87,1376.61 2217.86,1375.94 2219.84,1380.84 2221.82,1379.9 2223.81,1383.54 2225.79,1377.7 2227.78,1372.16 2229.76,1366.84 2231.75,1367.38 2233.73,1352.73 2235.72,1360.58 2237.7,1360.58 2239.69,1341.57 2241.67,1356.96 2243.66,1375.52 2245.64,1379.39 2247.63,1377.19 2249.61,1379.81 2251.6,1375.19 2253.58,1370.71 2255.56,1364.21 2257.55,1377.02 2259.53,1380.67 2261.52,1377.02 2263.5,1378.37 2265.49,1377.95 2267.47,1379.56 2269.46,1346.36 2271.44,1340.65 2273.43,1345.55 2275.41,1363.83 2277.4,1375.94 2279.38,1376.35 2281.37,1381.45 2283.35,1381.19 2285.34,1384.24 2287.32,1378.45 2289.3,1372.89 2291.29,1368.09 2293.27,1364.67 "/>
<polyline clip-path="url(#clip512)" style="stroke:#e26f46; stroke-linecap:round; stroke-linejoin:round; stroke-width:4; stroke-opacity:1; fill:none" points="310.553,86.1857 312.538,92.4579 314.522,99.7745 316.507,105.69 318.492,112.067 320.476,118.198 322.461,124.603 324.446,130.128 326.431,137.348 328.415,144.041 330.4,150.249 332.385,157.658 334.369,163.829 336.354,170.199 338.339,176.458 340.323,183.343 342.308,190.216 344.293,197.248 346.278,203.757 348.262,209.348 350.247,216.23 352.232,223.233 354.216,229.068 356.201,234.907 358.186,240.867 360.171,245.767 362.155,250.432 364.14,254.416 366.125,258.585 368.109,262.805 370.094,266.393 372.079,269.841 374.063,274.41 376.048,277.893 378.033,282.645 380.018,286.337 382.002,290.663 383.987,294.938 385.972,299.154 387.956,303.89 389.941,308.584 391.926,313.646 393.911,318.349 395.895,323.099 397.88,327.547 399.865,332.977 401.849,338.12 403.834,343.843 405.819,349.533 407.803,354.616 409.788,361.27 411.773,367.252 413.758,372.777 415.742,379.268 417.727,385.718 419.712,392.381 421.696,398.606 423.681,405.411 425.666,412.45 427.651,419.961 429.635,427.305 431.62,435.045 433.605,442.709 435.589,451.489 437.574,459.891 439.559,468.429 441.543,477.26 443.528,486.493 445.513,495.614 447.498,504.556 449.482,515.477 451.467,525.678 453.452,536.659 455.436,549.358 457.421,563.589 459.406,577.89 461.391,593.957 463.375,611.108 465.36,630.586 467.345,650.499 469.329,676.872 471.314,705.437 473.299,740.607 475.283,782.218 477.268,817.651 479.253,831.79 481.238,842.054 483.222,844.145 485.207,844.937 487.192,847.205 489.176,846.534 491.161,847.205 493.146,848.692 495.131,848.692 497.115,848.692 499.1,850.469 501.085,852.129 503.069,851.435 505.054,854.869 507.039,854.515 509.023,856.438 511.008,856.653 512.993,857.662 514.978,857.085 516.962,860.805 518.947,860.142 520.932,861.769 522.916,860.953 524.901,864.777 526.886,866.151 528.871,866.305 530.855,870.908 532.84,869.724 534.825,870.67 536.809,871.703 538.794,874.196 540.779,875.664 542.764,878.897 544.748,879.232 546.733,880.159 548.718,881.519 550.702,882.891 552.687,886.38 554.672,888.157 556.656,889.324 558.641,891.962 560.626,894.369 562.611,895.399 564.595,897.865 566.58,899.307 568.565,900.179 570.549,899.21 572.534,901.644 574.519,904.821 576.504,909.722 578.488,910.66 580.473,910.347 582.458,910.974 584.442,915.876 586.427,917.841 588.412,918.502 590.396,921.515 592.381,922.193 594.366,925.516 596.351,926.797 598.335,928.799 600.32,931.674 602.305,935.227 604.289,935.848 606.274,938.489 608.259,941.566 610.244,941.307 612.228,940.404 614.213,944.977 616.198,947.386 618.182,946.31 620.167,951.355 622.152,953.381 624.136,957.232 626.121,956.439 628.106,961.263 630.091,962.457 632.075,964.191 634.06,964.723 636.045,966.794 638.029,971.345 640.014,973.191 641.999,973.92 643.984,976.706 645.968,980.14 647.953,981.161 649.938,982.792 651.922,985.406 653.907,990.052 655.892,989.961 657.876,990.598 659.861,994.104 661.846,994.291 663.831,993.266 665.815,998.37 667.8,1003.36 669.785,1006.08 671.769,1011.25 673.754,1008.85 675.739,1007.61 677.724,1011.77 679.708,1016.83 681.693,1019.81 683.678,1021.04 685.662,1024.23 687.647,1023.77 689.632,1028.2 691.616,1030.71 693.601,1029.51 695.586,1031.68 697.571,1039.66 699.555,1042.9 701.54,1038.26 703.525,1039.66 705.509,1048.93 707.494,1053.66 709.479,1052.53 711.464,1052.81 713.448,1053.45 715.433,1051 717.418,1059.87 719.402,1064.67 721.387,1070.27 723.372,1069.95 725.356,1075.85 727.341,1077.1 729.326,1076.35 731.311,1076.51 733.295,1077.43 735.28,1081.23 737.265,1090.24 739.249,1091.71 741.234,1092.17 743.219,1091.52 745.204,1096.67 747.188,1100.34 749.173,1104.81 751.158,1097.34 753.142,1102.91 755.127,1102.41 757.112,1105.62 759.096,1117.24 761.081,1114.73 763.066,1115.38 765.051,1123.42 767.035,1127.26 769.02,1127.26 771.005,1130.11 772.989,1126.55 774.974,1136.13 776.959,1141.24 778.944,1144.79 780.928,1145.46 782.913,1142.68 784.898,1134.02 786.882,1131.69 788.867,1136.38 790.852,1115.49 792.836,1145.19 794.821,1161.89 796.806,1158.92 798.791,1169.44 800.775,1154.58 802.76,1168.02 804.745,1173.77 806.729,1177.99 808.714,1154.08 810.699,1164.39 812.684,1164.69 814.668,1173.53 816.653,1177.07 818.638,1188.88 820.622,1188.07 822.607,1169.28 824.592,1189.88 826.576,1195.74 828.561,1190.8 830.546,1191.81 832.531,1164.39 834.515,1174.26 836.5,1173.69 838.485,1188.61 840.469,1183.29 842.454,1189.52 844.439,1192.09 846.424,1193.2 848.408,1200.08 850.393,1199.69 852.378,1205.77 854.362,1205.46 856.347,1208.96 858.332,1204.65 860.316,1165.08 862.301,1192.36 864.286,1193.3 866.271,1168.57 868.255,1174.84 870.24,1208.13 872.225,1205.46 874.209,1204.96 876.194,1209.8 878.179,1215.02 880.164,1222.37 882.148,1214.26 884.133,1207.51 886.118,1207.51 888.102,1208.13 890.087,1212.76 892.072,1217.98 894.056,1218.54 896.041,1186.01 898.026,1189.43 900.011,1197.85 901.995,1206.08 903.98,1163.7 905.965,1153.3 907.949,1167.4 909.934,1221.91 911.919,1225.02 913.904,1220.22 915.888,1217.65 917.873,1222.94 919.858,1210.22 921.842,1214.8 923.827,1217.43 925.812,1216.88 927.796,1215.89 929.781,1219.21 931.766,1222.14 933.751,1233.66 935.735,1230.24 937.72,1228.92 939.705,1230.24 941.689,1233.91 943.674,1227.13 945.659,1229.76 947.644,1225.84 949.628,1220.67 951.613,1218.31 953.598,1232.55 955.582,1227.73 957.567,1234.53 959.552,1230.96 961.536,1226.54 963.521,1218.65 965.506,1226.78 967.491,1222.14 969.475,1228.68 971.46,1228.92 973.445,1219.88 975.429,1232.43 977.414,1229.76 979.399,1231.94 981.384,1234.4 983.368,1230 985.353,1231.21 987.338,1219.77 989.322,1225.61 991.307,1230.48 993.292,1235.52 995.276,1237.03 997.261,1216.88 999.246,1221.12 1001.23,1236.53 1003.22,1216.33 1005.2,1199.4 1007.18,1190.43 1009.17,1198.43 1011.15,1179.42 1013.14,1183.64 1015.12,1168.1 1017.11,1198.72 1019.09,1177.49 1021.08,1199.88 1023.06,1192.74 1025.05,1166.31 1027.03,1166.85 1029.02,1180.02 1031,1209.17 1032.99,1223.06 1034.97,1225.61 1036.96,1233.04 1038.94,1230.24 1040.92,1230.6 1042.91,1234.15 1044.89,1231.09 1046.88,1232.55 1048.86,1228.68 1050.85,1227.73 1052.83,1226.78 1054.82,1233.04 1056.8,1231.21 1058.79,1230.6 1060.77,1231.57 1062.76,1233.66 1064.74,1230.24 1066.73,1232.55 1068.71,1236.15 1070.7,1233.66 1072.68,1235.65 1074.66,1230.48 1076.65,1230 1078.63,1205.16 1080.62,1221.01 1082.6,1180.96 1084.59,1194.33 1086.57,1222.94 1088.56,1230.12 1090.54,1221.46 1092.53,1227.73 1094.51,1232.55 1096.5,1235.52 1098.48,1233.53 1100.47,1232.8 1102.45,1231.82 1104.44,1235.9 1106.42,1233.29 1108.4,1232.18 1110.39,1231.45 1112.37,1204.55 1114.36,1231.57 1116.34,1234.15 1118.33,1232.3 1120.31,1236.53 1122.3,1235.27 1124.28,1211.8 1126.27,1210.74 1128.25,1235.77 1130.24,1231.45 1132.22,1226.19 1134.21,1221.69 1136.19,1219.99 1138.18,1216.44 1140.16,1208.96 1142.14,1221.35 1144.13,1222.94 1146.11,1217.65 1148.1,1219.88 1150.08,1222.83 1152.07,1218.54 1154.05,1219.65 1156.04,1213.62 1158.02,1220.89 1160.01,1219.43 1161.99,1219.09 1163.98,1216.66 1165.96,1219.54 1167.95,1217.54 1169.93,1217.54 1171.92,1179.59 1173.9,1223.29 1175.88,1233.16 1177.87,1231.33 1179.85,1235.27 1181.84,1218.31 1183.82,1202.55 1185.81,1228.68 1187.79,1232.55 1189.78,1232.18 1191.76,1229.52 1193.75,1228.32 1195.73,1224.44 1197.72,1224.09 1199.7,1231.82 1201.69,1227.96 1203.67,1230.24 1205.66,1227.84 1207.64,1232.43 1209.62,1230.6 1211.61,1232.43 1213.59,1226.43 1215.58,1225.61 1217.56,1230.6 1219.55,1227.84 1221.53,1232.43 1223.52,1229.52 1225.5,1163.86 1227.49,1162.42 1229.47,1189.34 1231.46,1194.04 1233.44,1193.39 1235.43,1203.45 1237.41,1218.31 1239.4,1222.14 1241.38,1225.37 1243.36,1228.08 1245.35,1225.84 1247.33,1230.6 1249.32,1227.13 1251.3,1224.67 1253.29,1226.54 1255.27,1222.6 1257.26,1218.87 1259.24,1221.12 1261.23,1230.24 1263.21,1230.48 1265.2,1230.36 1267.18,1225.49 1269.17,1225.96 1271.15,1228.92 1273.14,1227.84 1275.12,1228.32 1277.1,1223.86 1279.09,1229.04 1281.07,1228.56 1283.06,1229.16 1285.04,1221.01 1287.03,1219.43 1289.01,1222.94 1291,1225.14 1292.98,1228.8 1294.97,1229.4 1296.95,1227.25 1298.94,1213.51 1300.92,1070.11 1302.91,1098.2 1304.89,1175 1306.88,1193.86 1308.86,1196.22 1310.84,1214.15 1312.83,1228.68 1314.81,1231.45 1316.8,1231.69 1318.78,1231.21 1320.77,1233.41 1322.75,1232.8 1324.74,1229.64 1326.72,1230.36 1328.71,1226.19 1330.69,1230.24 1332.68,1224.79 1334.66,1225.96 1336.65,1230.72 1338.63,1230 1340.62,1228.92 1342.6,1228.68 1344.58,1230.72 1346.57,1227.37 1348.55,1232.8 1350.54,1228.44 1352.52,1232.8 1354.51,1229.64 1356.49,1230 1358.48,1232.43 1360.46,1231.57 1362.45,1222.94 1364.43,1196.22 1366.42,1179.76 1368.4,1202.05 1370.39,1176.74 1372.37,1196.22 1374.36,1178.66 1376.34,1197.56 1378.32,1207.41 1380.31,1219.65 1382.29,1224.09 1384.28,1225.14 1386.26,1221.12 1388.25,1221.57 1390.23,1234.03 1392.22,1231.57 1394.2,1222.14 1396.19,1217.1 1398.17,1227.49 1400.16,1234.53 1402.14,1230.6 1404.13,1232.67 1406.11,1229.28 1408.1,1229.64 1410.08,1233.04 1412.06,1227.37 1414.05,1231.57 1416.03,1227.73 1418.02,1226.78 1420,1209.9 1421.99,1207.41 1423.97,1160.4 1425.96,1197.08 1427.94,1179.09 1429.93,1183.9 1431.91,1171.27 1433.9,1192.09 1435.88,1193.86 1437.87,1215.78 1439.85,1221.57 1441.84,1227.73 1443.82,1223.52 1445.8,1224.67 1447.79,1227.02 1449.77,1227.49 1451.76,1229.28 1453.74,1226.54 1455.73,1228.44 1457.71,1232.55 1459.7,1226.66 1461.68,1227.13 1463.67,1226.9 1465.65,1229.28 1467.64,1220.33 1469.62,1220.44 1471.61,1226.43 1473.59,1229.16 1475.58,1233.41 1477.56,1233.29 1479.54,1231.69 1481.53,1223.98 1483.51,1219.32 1485.5,1215.89 1487.48,1224.56 1489.47,1233.29 1491.45,1230.36 1493.44,1229.28 1495.42,1229.76 1497.41,1230.24 1499.39,1231.82 1501.38,1225.26 1503.36,1223.06 1505.35,1225.96 1507.33,1183.64 1509.32,1210.64 1511.3,1221.46 1513.28,1228.68 1515.27,1230.12 1517.25,1231.57 1519.24,1229.4 1521.22,1229.16 1523.21,1231.57 1525.19,1219.99 1527.18,1194.33 1529.16,1193.95 1531.15,1223.86 1533.13,1236.15 1535.12,1233.78 1537.1,1239.59 1539.09,1237.67 1541.07,1244.44 1543.06,1240.36 1545.04,1235.52 1547.02,1234.03 1549.01,1227.61 1550.99,1236.78 1552.98,1211.59 1554.96,1226.54 1556.95,1233.41 1558.93,1229.52 1560.92,1233.04 1562.9,1232.8 1564.89,1236.78 1566.87,1238.05 1568.86,1235.65 1570.84,1234.28 1572.83,1238.18 1574.81,1234.65 1576.8,1236.4 1578.78,1231.33 1580.76,1213.83 1582.75,1200.18 1584.73,1191.72 1586.72,1226.66 1588.7,1230.96 1590.69,1234.53 1592.67,1237.92 1594.66,1234.9 1596.64,1233.53 1598.63,1231.57 1600.61,1228.68 1602.6,1215.78 1604.58,1225.84 1606.57,1216.77 1608.55,1182.77 1610.54,1204.75 1612.52,1220.78 1614.5,1225.96 1616.49,1226.43 1618.47,1227.37 1620.46,1233.53 1622.44,1233.16 1624.43,1234.53 1626.41,1235.52 1628.4,1230.84 1630.38,1231.09 1632.37,1236.66 1634.35,1234.28 1636.34,1233.16 1638.32,1228.56 1640.31,1231.21 1642.29,1204.15 1644.28,1202.25 1646.26,1226.78 1648.24,1230.12 1650.23,1230.84 1652.21,1201.46 1654.2,1193.11 1656.18,1215.24 1658.17,1196.7 1660.15,1223.86 1662.14,1226.31 1664.12,1234.65 1666.11,1226.66 1668.09,1233.04 1670.08,1230.48 1672.06,1234.28 1674.05,1236.78 1676.03,1231.09 1678.02,1231.33 1680,1231.57 1681.98,1231.82 1683.97,1227.49 1685.95,1227.96 1687.94,1230 1689.92,1233.04 1691.91,1233.53 1693.89,1231.57 1695.88,1226.07 1697.86,1230.6 1699.85,1228.2 1701.83,1233.53 1703.82,1235.27 1705.8,1222.14 1707.79,1174.51 1709.77,1204.15 1711.76,1204.65 1713.74,1190.7 1715.72,1218.09 1717.71,1216.77 1719.69,1176.07 1721.68,1210.74 1723.66,1203.35 1725.65,1223.63 1727.63,1222.26 1729.62,1223.98 1731.6,1230.84 1733.59,1222.26 1735.57,1228.08 1737.56,1225.14 1739.54,1224.56 1741.53,1223.98 1743.51,1222.03 1745.5,1212.54 1747.48,1220.1 1749.46,1196.03 1751.45,1198.62 1753.43,1197.17 1755.42,1214.8 1757.4,1200.47 1759.39,1214.69 1761.37,1215.67 1763.36,1218.31 1765.34,1220.44 1767.33,1216.77 1769.31,1227.84 1771.3,1228.32 1773.28,1230.6 1775.27,1232.06 1777.25,1233.66 1779.24,1234.4 1781.22,1229.28 1783.2,1235.02 1785.19,1234.65 1787.17,1231.57 1789.16,1230.72 1791.14,1233.78 1793.13,1232.3 1795.11,1228.92 1797.1,1235.65 1799.08,1233.53 1801.07,1230.96 1803.05,1230.6 1805.04,1232.8 1807.02,1229.64 1809.01,1230.84 1810.99,1234.53 1812.98,1230.72 1814.96,1220.89 1816.94,1195.36 1818.93,1210.85 1820.91,1187.8 1822.9,1218.43 1824.88,1226.66 1826.87,1226.19 1828.85,1225.37 1830.84,1224.91 1832.82,1226.78 1834.81,1220.33 1836.79,1218.65 1838.78,1222.14 1840.76,1222.83 1842.75,1224.79 1844.73,1225.02 1846.72,1224.21 1848.7,1227.96 1850.68,1224.56 1852.67,1224.91 1854.65,1230.36 1856.64,1225.26 1858.62,1232.55 1860.61,1236.53 1862.59,1235.77 1864.58,1232.92 1866.56,1230 1868.55,1231.09 1870.53,1218.65 1872.52,1199.4 1874.5,1208.96 1876.49,1197.94 1878.47,1196.89 1880.46,1185.31 1882.44,1215.67 1884.42,1222.14 1886.41,1231.57 1888.39,1221.23 1890.38,1221.57 1892.36,1220.78 1894.35,1225.84 1896.33,1231.45 1898.32,1229.28 1900.3,1232.43 1902.29,1231.21 1904.27,1232.8 1906.26,1234.03 1908.24,1228.92 1910.23,1230.72 1912.21,1230.6 1914.2,1225.02 1916.18,1231.69 1918.16,1228.32 1920.15,1229.16 1922.13,1233.41 1924.12,1233.16 1926.1,1230.48 1928.09,1232.55 1930.07,1229.76 1932.06,1189.88 1934.04,1179.17 1936.03,1206.59 1938.01,1222.26 1940,1225.26 1941.98,1224.21 1943.97,1202.95 1945.95,1183.38 1947.94,1192.74 1949.92,1218.2 1951.9,1229.88 1953.89,1234.4 1955.87,1227.25 1957.86,1231.82 1959.84,1232.3 1961.83,1230.36 1963.81,1227.84 1965.8,1228.68 1967.78,1230.36 1969.77,1225.84 1971.75,1233.29 1973.74,1234.53 1975.72,1225.84 1977.71,1227.61 1979.69,1224.56 1981.68,1230 1983.66,1233.66 1985.64,1229.4 1987.63,1235.77 1989.61,1231.33 1991.6,1229.4 1993.58,1231.57 1995.57,1232.3 1997.55,1232.67 1999.54,1203.75 2001.52,1150.36 2003.51,1165.62 2005.49,1191.72 2007.48,1215.02 2009.46,1224.21 2011.45,1227.84 2013.43,1226.78 2015.42,1235.02 2017.4,1234.77 2019.38,1232.92 2021.37,1235.65 2023.35,1240.1 2025.34,1228.44 2027.32,1236.4 2029.31,1236.4 2031.29,1232.67 2033.28,1236.78 2035.26,1238.18 2037.25,1233.66 2039.23,1227.13 2041.22,1185.48 2043.2,1198.62 2045.19,1224.91 2047.17,1226.66 2049.16,1232.3 2051.14,1227.49 2053.12,1224.67 2055.11,1226.66 2057.09,1227.73 2059.08,1234.53 2061.06,1232.92 2063.05,1234.53 2065.03,1232.18 2067.02,1232.55 2069,1233.53 2070.99,1233.66 2072.97,1235.52 2074.96,1232.18 2076.94,1231.82 2078.93,1233.66 2080.91,1231.45 2082.9,1199.98 2084.88,1191.72 2086.86,1215.56 2088.85,1228.08 2090.83,1214.37 2092.82,1186.99 2094.8,1201.36 2096.79,1210.53 2098.77,1217.54 2100.76,1223.06 2102.74,1216.44 2104.73,1223.98 2106.71,1227.02 2108.7,1224.21 2110.68,1225.96 2112.67,1223.52 2114.65,1221.12 2116.64,1221.23 2118.62,1222.83 2120.6,1220.33 2122.59,1218.31 2124.57,1171.51 2126.56,1193.3 2128.54,1201.46 2130.53,1202.25 2132.51,1191.35 2134.5,1194.14 2136.48,1199.4 2138.47,1213.51 2140.45,1221.57 2142.44,1226.54 2144.42,1227.73 2146.41,1223.06 2148.39,1227.13 2150.38,1223.29 2152.36,1230.12 2154.34,1224.09 2156.33,1225.37 2158.31,1221.23 2160.3,1221.35 2162.28,1225.84 2164.27,1227.13 2166.25,1209.06 2168.24,1219.43 2170.22,1220.1 2172.21,1230 2174.19,1232.06 2176.18,1231.21 2178.16,1230.84 2180.15,1234.03 2182.13,1231.21 2184.12,1234.9 2186.1,1232.55 2188.08,1227.96 2190.07,1229.88 2192.05,1230.6 2194.04,1226.78 2196.02,1189.15 2198.01,1192.83 2199.99,1190.06 2201.98,1200.08 2203.96,1196.31 2205.95,1196.89 2207.93,1199.3 2209.92,1218.31 2211.9,1221.23 2213.89,1222.6 2215.87,1225.14 2217.86,1233.41 2219.84,1232.3 2221.82,1232.8 2223.81,1228.56 2225.79,1231.33 2227.78,1229.52 2229.76,1229.52 2231.75,1229.4 2233.73,1228.68 2235.72,1233.29 2237.7,1230.48 2239.69,1232.55 2241.67,1227.73 2243.66,1229.64 2245.64,1229.28 2247.63,1233.29 2249.61,1228.8 2251.6,1227.37 2253.58,1219.65 2255.56,1220.89 2257.55,1206.28 2259.53,1212.65 2261.52,1198.04 2263.5,1227.61 2265.49,1230.6 2267.47,1233.53 2269.46,1228.32 2271.44,1233.91 2273.43,1230.24 2275.41,1228.56 2277.4,1228.56 2279.38,1233.41 2281.37,1230.72 2283.35,1229.28 2285.34,1224.91 2287.32,1217.32 2289.3,1217.65 2291.29,1189.79 2293.27,1225.02 "/>
<path clip-path="url(#clip510)" d="M1784.69 248.629 L2282.7 248.629 L2282.7 93.1086 L1784.69 93.1086  Z" fill="#ffffff" fill-rule="evenodd" fill-opacity="1"/>
<polyline clip-path="url(#clip510)" style="stroke:#000000; stroke-linecap:round; stroke-linejoin:round; stroke-width:4; stroke-opacity:1; fill:none" points="1784.69,248.629 2282.7,248.629 2282.7,93.1086 1784.69,93.1086 1784.69,248.629 "/>
<polyline clip-path="url(#clip510)" style="stroke:#3da44d; stroke-linecap:round; stroke-linejoin:round; stroke-width:4; stroke-opacity:1; fill:none" points="1808.04,144.949 1948.15,144.949 "/>
<path clip-path="url(#clip510)" d="M1997.06 157.298 L1997.06 148.016 L1989.42 148.016 L1989.42 144.173 L2001.69 144.173 L2001.69 159.011 Q1998.98 160.932 1995.71 161.928 Q1992.45 162.9 1988.75 162.9 Q1980.65 162.9 1976.06 158.178 Q1971.5 153.432 1971.5 144.983 Q1971.5 136.511 1976.06 131.789 Q1980.65 127.044 1988.75 127.044 Q1992.13 127.044 1995.16 127.877 Q1998.21 128.71 2000.78 130.331 L2000.78 135.307 Q1998.19 133.108 1995.28 131.997 Q1992.36 130.886 1989.14 130.886 Q1982.8 130.886 1979.6 134.428 Q1976.43 137.969 1976.43 144.983 Q1976.43 151.974 1979.6 155.516 Q1982.8 159.057 1989.14 159.057 Q1991.62 159.057 1993.56 158.641 Q1995.51 158.201 1997.06 157.298 Z" fill="#000000" fill-rule="nonzero" fill-opacity="1" /><path clip-path="url(#clip510)" d="M2007.89 147.344 L2020.37 147.344 L2020.37 151.141 L2007.89 151.141 L2007.89 147.344 Z" fill="#000000" fill-rule="nonzero" fill-opacity="1" /><path clip-path="url(#clip510)" d="M2048.05 128.803 L2048.05 133.363 Q2045.39 132.09 2043.03 131.465 Q2040.67 130.84 2038.47 130.84 Q2034.65 130.84 2032.57 132.321 Q2030.51 133.803 2030.51 136.534 Q2030.51 138.826 2031.87 140.007 Q2033.26 141.164 2037.1 141.882 L2039.93 142.46 Q2045.16 143.456 2047.64 145.979 Q2050.14 148.479 2050.14 152.692 Q2050.14 157.715 2046.76 160.307 Q2043.4 162.9 2036.9 162.9 Q2034.44 162.9 2031.66 162.344 Q2028.91 161.789 2025.95 160.701 L2025.95 155.886 Q2028.79 157.483 2031.52 158.293 Q2034.26 159.104 2036.9 159.104 Q2040.9 159.104 2043.08 157.53 Q2045.25 155.956 2045.25 153.039 Q2045.25 150.493 2043.68 149.057 Q2042.13 147.622 2038.56 146.905 L2035.71 146.349 Q2030.48 145.307 2028.15 143.085 Q2025.81 140.863 2025.81 136.905 Q2025.81 132.321 2029.02 129.682 Q2032.27 127.044 2037.94 127.044 Q2040.37 127.044 2042.89 127.483 Q2045.41 127.923 2048.05 128.803 Z" fill="#000000" fill-rule="nonzero" fill-opacity="1" /><path clip-path="url(#clip510)" d="M2068.03 164.636 Q2066.22 169.266 2064.51 170.678 Q2062.8 172.09 2059.93 172.09 L2056.52 172.09 L2056.52 168.525 L2059.02 168.525 Q2060.78 168.525 2061.76 167.692 Q2062.73 166.858 2063.91 163.756 L2064.67 161.812 L2054.19 136.303 L2058.7 136.303 L2066.8 156.581 L2074.9 136.303 L2079.42 136.303 L2068.03 164.636 Z" fill="#000000" fill-rule="nonzero" fill-opacity="1" /><path clip-path="url(#clip510)" d="M2105.48 141.28 Q2107.08 138.409 2109.3 137.044 Q2111.52 135.678 2114.53 135.678 Q2118.58 135.678 2120.78 138.525 Q2122.98 141.349 2122.98 146.581 L2122.98 162.229 L2118.7 162.229 L2118.7 146.719 Q2118.7 142.993 2117.38 141.187 Q2116.06 139.382 2113.35 139.382 Q2110.04 139.382 2108.12 141.581 Q2106.2 143.78 2106.2 147.576 L2106.2 162.229 L2101.92 162.229 L2101.92 146.719 Q2101.92 142.969 2100.6 141.187 Q2099.28 139.382 2096.52 139.382 Q2093.26 139.382 2091.34 141.604 Q2089.42 143.803 2089.42 147.576 L2089.42 162.229 L2085.14 162.229 L2085.14 136.303 L2089.42 136.303 L2089.42 140.331 Q2090.88 137.946 2092.91 136.812 Q2094.95 135.678 2097.75 135.678 Q2100.58 135.678 2102.54 137.113 Q2104.53 138.548 2105.48 141.28 Z" fill="#000000" fill-rule="nonzero" fill-opacity="1" /><path clip-path="url(#clip510)" d="M2135.6 158.34 L2135.6 172.09 L2131.32 172.09 L2131.32 136.303 L2135.6 136.303 L2135.6 140.238 Q2136.94 137.923 2138.98 136.812 Q2141.04 135.678 2143.89 135.678 Q2148.61 135.678 2151.55 139.428 Q2154.51 143.178 2154.51 149.289 Q2154.51 155.4 2151.55 159.15 Q2148.61 162.9 2143.89 162.9 Q2141.04 162.9 2138.98 161.789 Q2136.94 160.655 2135.6 158.34 M2150.09 149.289 Q2150.09 144.59 2148.14 141.928 Q2146.22 139.243 2142.84 139.243 Q2139.46 139.243 2137.52 141.928 Q2135.6 144.59 2135.6 149.289 Q2135.6 153.988 2137.52 156.673 Q2139.46 159.335 2142.84 159.335 Q2146.22 159.335 2148.14 156.673 Q2150.09 153.988 2150.09 149.289 Z" fill="#000000" fill-rule="nonzero" fill-opacity="1" /><path clip-path="url(#clip510)" d="M2161.76 127.669 L2168.05 127.669 L2183.38 156.581 L2183.38 127.669 L2187.91 127.669 L2187.91 162.229 L2181.62 162.229 L2166.29 133.317 L2166.29 162.229 L2161.76 162.229 L2161.76 127.669 Z" fill="#000000" fill-rule="nonzero" fill-opacity="1" /><path clip-path="url(#clip510)" d="M2219.21 148.201 L2219.21 150.284 L2199.63 150.284 Q2199.9 154.682 2202.26 156.997 Q2204.65 159.289 2208.89 159.289 Q2211.34 159.289 2213.63 158.687 Q2215.95 158.085 2218.21 156.881 L2218.21 160.909 Q2215.92 161.881 2213.51 162.391 Q2211.11 162.9 2208.63 162.9 Q2202.43 162.9 2198.79 159.289 Q2195.18 155.678 2195.18 149.52 Q2195.18 143.155 2198.61 139.428 Q2202.06 135.678 2207.89 135.678 Q2213.12 135.678 2216.15 139.057 Q2219.21 142.414 2219.21 148.201 M2214.95 146.951 Q2214.9 143.456 2212.98 141.372 Q2211.08 139.289 2207.94 139.289 Q2204.37 139.289 2202.22 141.303 Q2200.09 143.317 2199.76 146.974 L2214.95 146.951 Z" fill="#000000" fill-rule="nonzero" fill-opacity="1" /><path clip-path="url(#clip510)" d="M2230.41 128.942 L2230.41 136.303 L2239.19 136.303 L2239.19 139.613 L2230.41 139.613 L2230.41 153.687 Q2230.41 156.858 2231.27 157.761 Q2232.15 158.664 2234.81 158.664 L2239.19 158.664 L2239.19 162.229 L2234.81 162.229 Q2229.88 162.229 2228.01 160.4 Q2226.13 158.548 2226.13 153.687 L2226.13 139.613 L2223.01 139.613 L2223.01 136.303 L2226.13 136.303 L2226.13 128.942 L2230.41 128.942 Z" fill="#000000" fill-rule="nonzero" fill-opacity="1" /><polyline clip-path="url(#clip510)" style="stroke:#e26f46; stroke-linecap:round; stroke-linejoin:round; stroke-width:4; stroke-opacity:1; fill:none" points="1808.04,196.789 1948.15,196.789 "/>
<path clip-path="url(#clip510)" d="M1971.5 179.509 L1976.18 179.509 L1976.18 210.133 L1993.01 210.133 L1993.01 214.069 L1971.5 214.069 L1971.5 179.509 Z" fill="#000000" fill-rule="nonzero" fill-opacity="1" /><path clip-path="url(#clip510)" d="M2010.55 184.115 L2004.21 201.314 L2016.92 201.314 L2010.55 184.115 M2007.91 179.509 L2013.21 179.509 L2026.39 214.069 L2021.52 214.069 L2018.38 205.203 L2002.8 205.203 L1999.65 214.069 L1994.72 214.069 L2007.91 179.509 Z" fill="#000000" fill-rule="nonzero" fill-opacity="1" /><path clip-path="url(#clip510)" d="M2028.05 199.184 L2040.53 199.184 L2040.53 202.981 L2028.05 202.981 L2028.05 199.184 Z" fill="#000000" fill-rule="nonzero" fill-opacity="1" /><path clip-path="url(#clip510)" d="M2068.21 180.643 L2068.21 185.203 Q2065.55 183.93 2063.19 183.305 Q2060.83 182.68 2058.63 182.68 Q2054.81 182.68 2052.73 184.161 Q2050.67 185.643 2050.67 188.374 Q2050.67 190.666 2052.03 191.847 Q2053.42 193.004 2057.27 193.722 L2060.09 194.3 Q2065.32 195.296 2067.8 197.819 Q2070.3 200.319 2070.3 204.532 Q2070.3 209.555 2066.92 212.147 Q2063.56 214.74 2057.06 214.74 Q2054.6 214.74 2051.83 214.184 Q2049.07 213.629 2046.11 212.541 L2046.11 207.726 Q2048.96 209.323 2051.69 210.133 Q2054.42 210.944 2057.06 210.944 Q2061.06 210.944 2063.24 209.37 Q2065.41 207.796 2065.41 204.879 Q2065.41 202.333 2063.84 200.897 Q2062.29 199.462 2058.72 198.745 L2055.88 198.189 Q2050.65 197.147 2048.31 194.925 Q2045.97 192.703 2045.97 188.745 Q2045.97 184.161 2049.19 181.522 Q2052.43 178.884 2058.1 178.884 Q2060.53 178.884 2063.05 179.323 Q2065.58 179.763 2068.21 180.643 Z" fill="#000000" fill-rule="nonzero" fill-opacity="1" /><path clip-path="url(#clip510)" d="M2088.19 216.476 Q2086.39 221.106 2084.67 222.518 Q2082.96 223.93 2080.09 223.93 L2076.69 223.93 L2076.69 220.365 L2079.19 220.365 Q2080.95 220.365 2081.92 219.532 Q2082.89 218.698 2084.07 215.596 L2084.83 213.652 L2074.35 188.143 L2078.86 188.143 L2086.96 208.421 L2095.07 188.143 L2099.58 188.143 L2088.19 216.476 Z" fill="#000000" fill-rule="nonzero" fill-opacity="1" /><path clip-path="url(#clip510)" d="M2125.64 193.12 Q2127.24 190.249 2129.46 188.884 Q2131.69 187.518 2134.7 187.518 Q2138.75 187.518 2140.95 190.365 Q2143.14 193.189 2143.14 198.421 L2143.14 214.069 L2138.86 214.069 L2138.86 198.559 Q2138.86 194.833 2137.54 193.027 Q2136.22 191.222 2133.52 191.222 Q2130.2 191.222 2128.28 193.421 Q2126.36 195.62 2126.36 199.416 L2126.36 214.069 L2122.08 214.069 L2122.08 198.559 Q2122.08 194.809 2120.76 193.027 Q2119.44 191.222 2116.69 191.222 Q2113.42 191.222 2111.5 193.444 Q2109.58 195.643 2109.58 199.416 L2109.58 214.069 L2105.3 214.069 L2105.3 188.143 L2109.58 188.143 L2109.58 192.171 Q2111.04 189.786 2113.08 188.652 Q2115.11 187.518 2117.91 187.518 Q2120.74 187.518 2122.7 188.953 Q2124.7 190.388 2125.64 193.12 Z" fill="#000000" fill-rule="nonzero" fill-opacity="1" /><path clip-path="url(#clip510)" d="M2155.76 210.18 L2155.76 223.93 L2151.48 223.93 L2151.48 188.143 L2155.76 188.143 L2155.76 192.078 Q2157.1 189.763 2159.14 188.652 Q2161.2 187.518 2164.05 187.518 Q2168.77 187.518 2171.71 191.268 Q2174.67 195.018 2174.67 201.129 Q2174.67 207.24 2171.71 210.99 Q2168.77 214.74 2164.05 214.74 Q2161.2 214.74 2159.14 213.629 Q2157.1 212.495 2155.76 210.18 M2170.25 201.129 Q2170.25 196.43 2168.31 193.768 Q2166.39 191.083 2163.01 191.083 Q2159.63 191.083 2157.68 193.768 Q2155.76 196.43 2155.76 201.129 Q2155.76 205.828 2157.68 208.513 Q2159.63 211.175 2163.01 211.175 Q2166.39 211.175 2168.31 208.513 Q2170.25 205.828 2170.25 201.129 Z" fill="#000000" fill-rule="nonzero" fill-opacity="1" /><path clip-path="url(#clip510)" d="M2181.92 179.509 L2188.21 179.509 L2203.54 208.421 L2203.54 179.509 L2208.07 179.509 L2208.07 214.069 L2201.78 214.069 L2186.45 185.157 L2186.45 214.069 L2181.92 214.069 L2181.92 179.509 Z" fill="#000000" fill-rule="nonzero" fill-opacity="1" /><path clip-path="url(#clip510)" d="M2239.37 200.041 L2239.37 202.124 L2219.79 202.124 Q2220.07 206.522 2222.43 208.837 Q2224.81 211.129 2229.05 211.129 Q2231.5 211.129 2233.79 210.527 Q2236.11 209.925 2238.38 208.721 L2238.38 212.749 Q2236.08 213.721 2233.68 214.231 Q2231.27 214.74 2228.79 214.74 Q2222.59 214.74 2218.95 211.129 Q2215.34 207.518 2215.34 201.36 Q2215.34 194.995 2218.77 191.268 Q2222.22 187.518 2228.05 187.518 Q2233.28 187.518 2236.32 190.897 Q2239.37 194.254 2239.37 200.041 M2235.11 198.791 Q2235.07 195.296 2233.14 193.212 Q2231.25 191.129 2228.1 191.129 Q2224.53 191.129 2222.38 193.143 Q2220.25 195.157 2219.93 198.814 L2235.11 198.791 Z" fill="#000000" fill-rule="nonzero" fill-opacity="1" /><path clip-path="url(#clip510)" d="M2250.57 180.782 L2250.57 188.143 L2259.35 188.143 L2259.35 191.453 L2250.57 191.453 L2250.57 205.527 Q2250.57 208.698 2251.43 209.601 Q2252.31 210.504 2254.97 210.504 L2259.35 210.504 L2259.35 214.069 L2254.97 214.069 Q2250.04 214.069 2248.17 212.24 Q2246.29 210.388 2246.29 205.527 L2246.29 191.453 L2243.17 191.453 L2243.17 188.143 L2246.29 188.143 L2246.29 180.782 L2250.57 180.782 Z" fill="#000000" fill-rule="nonzero" fill-opacity="1" /></svg>
