<?xml version="1.0" encoding="utf-8"?>
<svg xmlns="http://www.w3.org/2000/svg" xmlns:xlink="http://www.w3.org/1999/xlink" width="600" height="400" viewBox="0 0 2400 1600">
<defs>
  <clipPath id="clip390">
    <rect x="0" y="0" width="2400" height="1600"/>
  </clipPath>
</defs>
<path clip-path="url(#clip390)" d="M0 1600 L2400 1600 L2400 0 L0 0  Z" fill="#ffffff" fill-rule="evenodd" fill-opacity="1"/>
<defs>
  <clipPath id="clip391">
    <rect x="480" y="0" width="1681" height="1600"/>
  </clipPath>
</defs>
<path clip-path="url(#clip390)" d="M251.372 1423.18 L2352.76 1423.18 L2352.76 47.2441 L251.372 47.2441  Z" fill="#ffffff" fill-rule="evenodd" fill-opacity="1"/>
<defs>
  <clipPath id="clip392">
    <rect x="251" y="47" width="2102" height="1377"/>
  </clipPath>
</defs>
<polyline clip-path="url(#clip392)" style="stroke:#000000; stroke-linecap:round; stroke-linejoin:round; stroke-width:2; stroke-opacity:0.1; fill:none" points="304.215,1423.18 304.215,47.2441 "/>
<polyline clip-path="url(#clip392)" style="stroke:#000000; stroke-linecap:round; stroke-linejoin:round; stroke-width:2; stroke-opacity:0.1; fill:none" points="967.238,1423.18 967.238,47.2441 "/>
<polyline clip-path="url(#clip392)" style="stroke:#000000; stroke-linecap:round; stroke-linejoin:round; stroke-width:2; stroke-opacity:0.1; fill:none" points="1630.26,1423.18 1630.26,47.2441 "/>
<polyline clip-path="url(#clip392)" style="stroke:#000000; stroke-linecap:round; stroke-linejoin:round; stroke-width:2; stroke-opacity:0.1; fill:none" points="2293.28,1423.18 2293.28,47.2441 "/>
<polyline clip-path="url(#clip390)" style="stroke:#000000; stroke-linecap:round; stroke-linejoin:round; stroke-width:4; stroke-opacity:1; fill:none" points="251.372,1423.18 2352.76,1423.18 "/>
<polyline clip-path="url(#clip390)" style="stroke:#000000; stroke-linecap:round; stroke-linejoin:round; stroke-width:4; stroke-opacity:1; fill:none" points="304.215,1423.18 304.215,1404.28 "/>
<polyline clip-path="url(#clip390)" style="stroke:#000000; stroke-linecap:round; stroke-linejoin:round; stroke-width:4; stroke-opacity:1; fill:none" points="967.238,1423.18 967.238,1404.28 "/>
<polyline clip-path="url(#clip390)" style="stroke:#000000; stroke-linecap:round; stroke-linejoin:round; stroke-width:4; stroke-opacity:1; fill:none" points="1630.26,1423.18 1630.26,1404.28 "/>
<polyline clip-path="url(#clip390)" style="stroke:#000000; stroke-linecap:round; stroke-linejoin:round; stroke-width:4; stroke-opacity:1; fill:none" points="2293.28,1423.18 2293.28,1404.28 "/>
<path clip-path="url(#clip390)" d="M304.215 1454.1 Q300.604 1454.1 298.775 1457.66 Q296.97 1461.2 296.97 1468.33 Q296.97 1475.44 298.775 1479.01 Q300.604 1482.55 304.215 1482.55 Q307.849 1482.55 309.655 1479.01 Q311.484 1475.44 311.484 1468.33 Q311.484 1461.2 309.655 1457.66 Q307.849 1454.1 304.215 1454.1 M304.215 1450.39 Q310.025 1450.39 313.081 1455 Q316.159 1459.58 316.159 1468.33 Q316.159 1477.06 313.081 1481.67 Q310.025 1486.25 304.215 1486.25 Q298.405 1486.25 295.326 1481.67 Q292.271 1477.06 292.271 1468.33 Q292.271 1459.58 295.326 1455 Q298.405 1450.39 304.215 1450.39 Z" fill="#000000" fill-rule="nonzero" fill-opacity="1" /><path clip-path="url(#clip390)" d="M926.844 1481.64 L934.483 1481.64 L934.483 1455.28 L926.173 1456.95 L926.173 1452.69 L934.437 1451.02 L939.113 1451.02 L939.113 1481.64 L946.752 1481.64 L946.752 1485.58 L926.844 1485.58 L926.844 1481.64 Z" fill="#000000" fill-rule="nonzero" fill-opacity="1" /><path clip-path="url(#clip390)" d="M966.196 1454.1 Q962.585 1454.1 960.756 1457.66 Q958.951 1461.2 958.951 1468.33 Q958.951 1475.44 960.756 1479.01 Q962.585 1482.55 966.196 1482.55 Q969.83 1482.55 971.636 1479.01 Q973.464 1475.44 973.464 1468.33 Q973.464 1461.2 971.636 1457.66 Q969.83 1454.1 966.196 1454.1 M966.196 1450.39 Q972.006 1450.39 975.062 1455 Q978.14 1459.58 978.14 1468.33 Q978.14 1477.06 975.062 1481.67 Q972.006 1486.25 966.196 1486.25 Q960.386 1486.25 957.307 1481.67 Q954.252 1477.06 954.252 1468.33 Q954.252 1459.58 957.307 1455 Q960.386 1450.39 966.196 1450.39 Z" fill="#000000" fill-rule="nonzero" fill-opacity="1" /><path clip-path="url(#clip390)" d="M996.358 1454.1 Q992.747 1454.1 990.918 1457.66 Q989.113 1461.2 989.113 1468.33 Q989.113 1475.44 990.918 1479.01 Q992.747 1482.55 996.358 1482.55 Q999.992 1482.55 1001.8 1479.01 Q1003.63 1475.44 1003.63 1468.33 Q1003.63 1461.2 1001.8 1457.66 Q999.992 1454.1 996.358 1454.1 M996.358 1450.39 Q1002.17 1450.39 1005.22 1455 Q1008.3 1459.58 1008.3 1468.33 Q1008.3 1477.06 1005.22 1481.67 Q1002.17 1486.25 996.358 1486.25 Q990.548 1486.25 987.469 1481.67 Q984.413 1477.06 984.413 1468.33 Q984.413 1459.58 987.469 1455 Q990.548 1450.39 996.358 1450.39 Z" fill="#000000" fill-rule="nonzero" fill-opacity="1" /><path clip-path="url(#clip390)" d="M1593.95 1481.64 L1610.27 1481.64 L1610.27 1485.58 L1588.33 1485.58 L1588.33 1481.64 Q1590.99 1478.89 1595.57 1474.26 Q1600.18 1469.61 1601.36 1468.27 Q1603.61 1465.74 1604.48 1464.01 Q1605.39 1462.25 1605.39 1460.56 Q1605.39 1457.8 1603.44 1456.07 Q1601.52 1454.33 1598.42 1454.33 Q1596.22 1454.33 1593.77 1455.09 Q1591.34 1455.86 1588.56 1457.41 L1588.56 1452.69 Q1591.38 1451.55 1593.84 1450.97 Q1596.29 1450.39 1598.33 1450.39 Q1603.7 1450.39 1606.89 1453.08 Q1610.09 1455.77 1610.09 1460.26 Q1610.09 1462.39 1609.28 1464.31 Q1608.49 1466.2 1606.38 1468.8 Q1605.8 1469.47 1602.7 1472.69 Q1599.6 1475.88 1593.95 1481.64 Z" fill="#000000" fill-rule="nonzero" fill-opacity="1" /><path clip-path="url(#clip390)" d="M1630.09 1454.1 Q1626.48 1454.1 1624.65 1457.66 Q1622.84 1461.2 1622.84 1468.33 Q1622.84 1475.44 1624.65 1479.01 Q1626.48 1482.55 1630.09 1482.55 Q1633.72 1482.55 1635.53 1479.01 Q1637.36 1475.44 1637.36 1468.33 Q1637.36 1461.2 1635.53 1457.66 Q1633.72 1454.1 1630.09 1454.1 M1630.09 1450.39 Q1635.9 1450.39 1638.95 1455 Q1642.03 1459.58 1642.03 1468.33 Q1642.03 1477.06 1638.95 1481.67 Q1635.9 1486.25 1630.09 1486.25 Q1624.28 1486.25 1621.2 1481.67 Q1618.14 1477.06 1618.14 1468.33 Q1618.14 1459.58 1621.2 1455 Q1624.28 1450.39 1630.09 1450.39 Z" fill="#000000" fill-rule="nonzero" fill-opacity="1" /><path clip-path="url(#clip390)" d="M1660.25 1454.1 Q1656.64 1454.1 1654.81 1457.66 Q1653 1461.2 1653 1468.33 Q1653 1475.44 1654.81 1479.01 Q1656.64 1482.55 1660.25 1482.55 Q1663.88 1482.55 1665.69 1479.01 Q1667.52 1475.44 1667.52 1468.33 Q1667.52 1461.2 1665.69 1457.66 Q1663.88 1454.1 1660.25 1454.1 M1660.25 1450.39 Q1666.06 1450.39 1669.11 1455 Q1672.19 1459.58 1672.19 1468.33 Q1672.19 1477.06 1669.11 1481.67 Q1666.06 1486.25 1660.25 1486.25 Q1654.44 1486.25 1651.36 1481.67 Q1648.3 1477.06 1648.3 1468.33 Q1648.3 1459.58 1651.36 1455 Q1654.44 1450.39 1660.25 1450.39 Z" fill="#000000" fill-rule="nonzero" fill-opacity="1" /><path clip-path="url(#clip390)" d="M2267.04 1466.95 Q2270.4 1467.66 2272.28 1469.93 Q2274.17 1472.2 2274.17 1475.53 Q2274.17 1480.65 2270.66 1483.45 Q2267.14 1486.25 2260.66 1486.25 Q2258.48 1486.25 2256.16 1485.81 Q2253.87 1485.39 2251.42 1484.54 L2251.42 1480.02 Q2253.36 1481.16 2255.68 1481.74 Q2257.99 1482.32 2260.52 1482.32 Q2264.91 1482.32 2267.21 1480.58 Q2269.52 1478.84 2269.52 1475.53 Q2269.52 1472.48 2267.37 1470.77 Q2265.24 1469.03 2261.42 1469.03 L2257.39 1469.03 L2257.39 1465.19 L2261.6 1465.19 Q2265.05 1465.19 2266.88 1463.82 Q2268.71 1462.43 2268.71 1459.84 Q2268.71 1457.18 2266.81 1455.77 Q2264.94 1454.33 2261.42 1454.33 Q2259.5 1454.33 2257.3 1454.75 Q2255.1 1455.16 2252.46 1456.04 L2252.46 1451.88 Q2255.12 1451.14 2257.44 1450.77 Q2259.78 1450.39 2261.84 1450.39 Q2267.16 1450.39 2270.26 1452.83 Q2273.36 1455.23 2273.36 1459.35 Q2273.36 1462.22 2271.72 1464.21 Q2270.08 1466.18 2267.04 1466.95 Z" fill="#000000" fill-rule="nonzero" fill-opacity="1" /><path clip-path="url(#clip390)" d="M2293.04 1454.1 Q2289.43 1454.1 2287.6 1457.66 Q2285.79 1461.2 2285.79 1468.33 Q2285.79 1475.44 2287.6 1479.01 Q2289.43 1482.55 2293.04 1482.55 Q2296.67 1482.55 2298.48 1479.01 Q2300.31 1475.44 2300.31 1468.33 Q2300.31 1461.2 2298.48 1457.66 Q2296.67 1454.1 2293.04 1454.1 M2293.04 1450.39 Q2298.85 1450.39 2301.91 1455 Q2304.98 1459.58 2304.98 1468.33 Q2304.98 1477.06 2301.91 1481.67 Q2298.85 1486.25 2293.04 1486.25 Q2287.23 1486.25 2284.15 1481.67 Q2281.1 1477.06 2281.1 1468.33 Q2281.1 1459.58 2284.15 1455 Q2287.23 1450.39 2293.04 1450.39 Z" fill="#000000" fill-rule="nonzero" fill-opacity="1" /><path clip-path="url(#clip390)" d="M2323.2 1454.1 Q2319.59 1454.1 2317.76 1457.66 Q2315.96 1461.2 2315.96 1468.33 Q2315.96 1475.44 2317.76 1479.01 Q2319.59 1482.55 2323.2 1482.55 Q2326.84 1482.55 2328.64 1479.01 Q2330.47 1475.44 2330.47 1468.33 Q2330.47 1461.2 2328.64 1457.66 Q2326.84 1454.1 2323.2 1454.1 M2323.2 1450.39 Q2329.01 1450.39 2332.07 1455 Q2335.15 1459.58 2335.15 1468.33 Q2335.15 1477.06 2332.07 1481.67 Q2329.01 1486.25 2323.2 1486.25 Q2317.39 1486.25 2314.31 1481.67 Q2311.26 1477.06 2311.26 1468.33 Q2311.26 1459.58 2314.31 1455 Q2317.39 1450.39 2323.2 1450.39 Z" fill="#000000" fill-rule="nonzero" fill-opacity="1" /><path clip-path="url(#clip390)" d="M1208.23 1520.52 L1238.28 1520.52 L1238.28 1525.93 L1214.66 1525.93 L1214.66 1540 L1237.29 1540 L1237.29 1545.41 L1214.66 1545.41 L1214.66 1562.63 L1238.85 1562.63 L1238.85 1568.04 L1208.23 1568.04 L1208.23 1520.52 Z" fill="#000000" fill-rule="nonzero" fill-opacity="1" /><path clip-path="url(#clip390)" d="M1254.83 1562.7 L1254.83 1581.6 L1248.94 1581.6 L1248.94 1532.4 L1254.83 1532.4 L1254.83 1537.81 Q1256.68 1534.62 1259.48 1533.1 Q1262.31 1531.54 1266.23 1531.54 Q1272.72 1531.54 1276.76 1536.69 Q1280.83 1541.85 1280.83 1550.25 Q1280.83 1558.65 1276.76 1563.81 Q1272.72 1568.97 1266.23 1568.97 Q1262.31 1568.97 1259.48 1567.44 Q1256.68 1565.88 1254.83 1562.7 M1274.76 1550.25 Q1274.76 1543.79 1272.08 1540.13 Q1269.44 1536.44 1264.79 1536.44 Q1260.15 1536.44 1257.47 1540.13 Q1254.83 1543.79 1254.83 1550.25 Q1254.83 1556.71 1257.47 1560.4 Q1260.15 1564.07 1264.79 1564.07 Q1269.44 1564.07 1272.08 1560.4 Q1274.76 1556.71 1274.76 1550.25 Z" fill="#000000" fill-rule="nonzero" fill-opacity="1" /><path clip-path="url(#clip390)" d="M1304.36 1536.5 Q1299.65 1536.5 1296.91 1540.19 Q1294.17 1543.85 1294.17 1550.25 Q1294.17 1556.65 1296.88 1560.34 Q1299.61 1564 1304.36 1564 Q1309.03 1564 1311.77 1560.31 Q1314.51 1556.62 1314.51 1550.25 Q1314.51 1543.92 1311.77 1540.23 Q1309.03 1536.5 1304.36 1536.5 M1304.36 1531.54 Q1311.99 1531.54 1316.36 1536.5 Q1320.72 1541.47 1320.72 1550.25 Q1320.72 1559 1316.36 1564 Q1311.99 1568.97 1304.36 1568.97 Q1296.69 1568.97 1292.32 1564 Q1288 1559 1288 1550.25 Q1288 1541.47 1292.32 1536.5 Q1296.69 1531.54 1304.36 1531.54 Z" fill="#000000" fill-rule="nonzero" fill-opacity="1" /><path clip-path="url(#clip390)" d="M1356.08 1533.76 L1356.08 1539.24 Q1353.59 1537.87 1351.08 1537.2 Q1348.6 1536.5 1346.05 1536.5 Q1340.35 1536.5 1337.2 1540.13 Q1334.05 1543.73 1334.05 1550.25 Q1334.05 1556.78 1337.2 1560.4 Q1340.35 1564 1346.05 1564 Q1348.6 1564 1351.08 1563.33 Q1353.59 1562.63 1356.08 1561.26 L1356.08 1566.68 Q1353.63 1567.82 1350.98 1568.39 Q1348.37 1568.97 1345.41 1568.97 Q1337.36 1568.97 1332.62 1563.91 Q1327.88 1558.85 1327.88 1550.25 Q1327.88 1541.53 1332.65 1536.53 Q1337.46 1531.54 1345.8 1531.54 Q1348.5 1531.54 1351.08 1532.11 Q1353.66 1532.65 1356.08 1533.76 Z" fill="#000000" fill-rule="nonzero" fill-opacity="1" /><path clip-path="url(#clip390)" d="M1395.89 1546.53 L1395.89 1568.04 L1390.04 1568.04 L1390.04 1546.72 Q1390.04 1541.66 1388.06 1539.14 Q1386.09 1536.63 1382.14 1536.63 Q1377.4 1536.63 1374.66 1539.65 Q1371.93 1542.68 1371.93 1547.9 L1371.93 1568.04 L1366.04 1568.04 L1366.04 1518.52 L1371.93 1518.52 L1371.93 1537.93 Q1374.03 1534.72 1376.86 1533.13 Q1379.73 1531.54 1383.45 1531.54 Q1389.59 1531.54 1392.74 1535.36 Q1395.89 1539.14 1395.89 1546.53 Z" fill="#000000" fill-rule="nonzero" fill-opacity="1" /><polyline clip-path="url(#clip392)" style="stroke:#000000; stroke-linecap:round; stroke-linejoin:round; stroke-width:2; stroke-opacity:0.1; fill:none" points="251.372,1241.74 2352.76,1241.74 "/>
<polyline clip-path="url(#clip392)" style="stroke:#000000; stroke-linecap:round; stroke-linejoin:round; stroke-width:2; stroke-opacity:0.1; fill:none" points="251.372,815.583 2352.76,815.583 "/>
<polyline clip-path="url(#clip392)" style="stroke:#000000; stroke-linecap:round; stroke-linejoin:round; stroke-width:2; stroke-opacity:0.1; fill:none" points="251.372,389.43 2352.76,389.43 "/>
<polyline clip-path="url(#clip390)" style="stroke:#000000; stroke-linecap:round; stroke-linejoin:round; stroke-width:4; stroke-opacity:1; fill:none" points="251.372,1423.18 251.372,47.2441 "/>
<polyline clip-path="url(#clip390)" style="stroke:#000000; stroke-linecap:round; stroke-linejoin:round; stroke-width:4; stroke-opacity:1; fill:none" points="251.372,1241.74 270.27,1241.74 "/>
<polyline clip-path="url(#clip390)" style="stroke:#000000; stroke-linecap:round; stroke-linejoin:round; stroke-width:4; stroke-opacity:1; fill:none" points="251.372,815.583 270.27,815.583 "/>
<polyline clip-path="url(#clip390)" style="stroke:#000000; stroke-linecap:round; stroke-linejoin:round; stroke-width:4; stroke-opacity:1; fill:none" points="251.372,389.43 270.27,389.43 "/>
<path clip-path="url(#clip390)" d="M115.232 1261.53 L122.871 1261.53 L122.871 1235.16 L114.561 1236.83 L114.561 1232.57 L122.825 1230.9 L127.501 1230.9 L127.501 1261.53 L135.14 1261.53 L135.14 1265.46 L115.232 1265.46 L115.232 1261.53 Z" fill="#000000" fill-rule="nonzero" fill-opacity="1" /><path clip-path="url(#clip390)" d="M154.584 1233.98 Q150.973 1233.98 149.144 1237.55 Q147.339 1241.09 147.339 1248.22 Q147.339 1255.33 149.144 1258.89 Q150.973 1262.43 154.584 1262.43 Q158.218 1262.43 160.024 1258.89 Q161.852 1255.33 161.852 1248.22 Q161.852 1241.09 160.024 1237.55 Q158.218 1233.98 154.584 1233.98 M154.584 1230.28 Q160.394 1230.28 163.45 1234.89 Q166.528 1239.47 166.528 1248.22 Q166.528 1256.95 163.45 1261.55 Q160.394 1266.14 154.584 1266.14 Q148.774 1266.14 145.695 1261.55 Q142.64 1256.95 142.64 1248.22 Q142.64 1239.47 145.695 1234.89 Q148.774 1230.28 154.584 1230.28 Z" fill="#000000" fill-rule="nonzero" fill-opacity="1" /><path clip-path="url(#clip390)" d="M166.528 1224.38 L190.64 1224.38 L190.64 1227.58 L166.528 1227.58 L166.528 1224.38 Z" fill="#000000" fill-rule="nonzero" fill-opacity="1" /><path clip-path="url(#clip390)" d="M202.113 1234.86 L215.372 1234.86 L215.372 1238.05 L197.542 1238.05 L197.542 1234.86 Q199.705 1232.62 203.429 1228.86 Q207.172 1225.08 208.131 1223.99 Q209.956 1221.94 210.67 1220.52 Q211.404 1219.1 211.404 1217.72 Q211.404 1215.48 209.824 1214.07 Q208.263 1212.66 205.743 1212.66 Q203.956 1212.66 201.962 1213.28 Q199.987 1213.9 197.73 1215.16 L197.73 1211.33 Q200.025 1210.41 202.019 1209.94 Q204.012 1209.47 205.667 1209.47 Q210.031 1209.47 212.626 1211.65 Q215.222 1213.83 215.222 1217.48 Q215.222 1219.21 214.563 1220.77 Q213.924 1222.31 212.212 1224.42 Q211.742 1224.96 209.222 1227.58 Q206.702 1230.17 202.113 1234.86 Z" fill="#000000" fill-rule="nonzero" fill-opacity="1" /><path clip-path="url(#clip390)" d="M114.931 835.376 L122.57 835.376 L122.57 809.01 L114.26 810.677 L114.26 806.417 L122.524 804.751 L127.2 804.751 L127.2 835.376 L134.839 835.376 L134.839 839.311 L114.931 839.311 L114.931 835.376 Z" fill="#000000" fill-rule="nonzero" fill-opacity="1" /><path clip-path="url(#clip390)" d="M154.283 807.829 Q150.672 807.829 148.843 811.394 Q147.038 814.936 147.038 822.065 Q147.038 829.172 148.843 832.737 Q150.672 836.278 154.283 836.278 Q157.917 836.278 159.723 832.737 Q161.552 829.172 161.552 822.065 Q161.552 814.936 159.723 811.394 Q157.917 807.829 154.283 807.829 M154.283 804.126 Q160.093 804.126 163.149 808.732 Q166.227 813.316 166.227 822.065 Q166.227 830.792 163.149 835.399 Q160.093 839.982 154.283 839.982 Q148.473 839.982 145.394 835.399 Q142.339 830.792 142.339 822.065 Q142.339 813.316 145.394 808.732 Q148.473 804.126 154.283 804.126 Z" fill="#000000" fill-rule="nonzero" fill-opacity="1" /><path clip-path="url(#clip390)" d="M166.227 798.227 L190.339 798.227 L190.339 801.424 L166.227 801.424 L166.227 798.227 Z" fill="#000000" fill-rule="nonzero" fill-opacity="1" /><path clip-path="url(#clip390)" d="M199.197 808.703 L205.404 808.703 L205.404 787.281 L198.652 788.635 L198.652 785.174 L205.366 783.82 L209.166 783.82 L209.166 808.703 L215.372 808.703 L215.372 811.9 L199.197 811.9 L199.197 808.703 Z" fill="#000000" fill-rule="nonzero" fill-opacity="1" /><path clip-path="url(#clip390)" d="M144.667 409.222 L152.305 409.222 L152.305 382.857 L143.995 384.523 L143.995 380.264 L152.259 378.598 L156.935 378.598 L156.935 409.222 L164.574 409.222 L164.574 413.158 L144.667 413.158 L144.667 409.222 Z" fill="#000000" fill-rule="nonzero" fill-opacity="1" /><path clip-path="url(#clip390)" d="M184.018 381.676 Q180.407 381.676 178.578 385.241 Q176.773 388.783 176.773 395.912 Q176.773 403.019 178.578 406.583 Q180.407 410.125 184.018 410.125 Q187.652 410.125 189.458 406.583 Q191.287 403.019 191.287 395.912 Q191.287 388.783 189.458 385.241 Q187.652 381.676 184.018 381.676 M184.018 377.973 Q189.828 377.973 192.884 382.579 Q195.963 387.162 195.963 395.912 Q195.963 404.639 192.884 409.245 Q189.828 413.829 184.018 413.829 Q178.208 413.829 175.129 409.245 Q172.074 404.639 172.074 395.912 Q172.074 387.162 175.129 382.579 Q178.208 377.973 184.018 377.973 Z" fill="#000000" fill-rule="nonzero" fill-opacity="1" /><path clip-path="url(#clip390)" d="M205.667 360.169 Q202.733 360.169 201.248 363.065 Q199.781 365.943 199.781 371.735 Q199.781 377.509 201.248 380.406 Q202.733 383.283 205.667 383.283 Q208.62 383.283 210.087 380.406 Q211.573 377.509 211.573 371.735 Q211.573 365.943 210.087 363.065 Q208.62 360.169 205.667 360.169 M205.667 357.159 Q210.388 357.159 212.871 360.902 Q215.372 364.626 215.372 371.735 Q215.372 378.826 212.871 382.569 Q210.388 386.293 205.667 386.293 Q200.947 386.293 198.445 382.569 Q195.963 378.826 195.963 371.735 Q195.963 364.626 198.445 360.902 Q200.947 357.159 205.667 357.159 Z" fill="#000000" fill-rule="nonzero" fill-opacity="1" /><path clip-path="url(#clip390)" d="M16.4842 953.174 L16.4842 912.974 L21.895 912.974 L21.895 929.843 L64.0042 929.843 L64.0042 936.305 L21.895 936.305 L21.895 953.174 L16.4842 953.174 Z" fill="#000000" fill-rule="nonzero" fill-opacity="1" /><path clip-path="url(#clip390)" d="M33.8307 895.946 Q33.2578 896.933 33.0032 898.11 Q32.7167 899.256 32.7167 900.657 Q32.7167 905.622 35.9632 908.296 Q39.1779 910.937 45.2253 910.937 L64.0042 910.937 L64.0042 916.826 L28.3562 916.826 L28.3562 910.937 L33.8944 910.937 Q30.6479 909.091 29.0883 906.131 Q27.4968 903.171 27.4968 898.938 Q27.4968 898.333 27.5923 897.601 Q27.656 896.869 27.8151 895.978 L33.8307 895.946 Z" fill="#000000" fill-rule="nonzero" fill-opacity="1" /><path clip-path="url(#clip390)" d="M46.0847 873.602 Q46.0847 880.7 47.7079 883.437 Q49.3312 886.175 53.2461 886.175 Q56.3653 886.175 58.2114 884.138 Q60.0256 882.069 60.0256 878.536 Q60.0256 873.666 56.5881 870.738 Q53.1188 867.778 47.3897 867.778 L46.0847 867.778 L46.0847 873.602 M43.6657 861.921 L64.0042 861.921 L64.0042 867.778 L58.5933 867.778 Q61.8398 869.783 63.3994 872.775 Q64.9272 875.767 64.9272 880.095 Q64.9272 885.57 61.8716 888.816 Q58.7843 892.031 53.6281 892.031 Q47.6125 892.031 44.5569 888.021 Q41.5014 883.979 41.5014 875.99 L41.5014 867.778 L40.9285 867.778 Q36.8862 867.778 34.6901 870.451 Q32.4621 873.093 32.4621 877.899 Q32.4621 880.955 33.1941 883.851 Q33.9262 886.748 35.3903 889.421 L29.9795 889.421 Q28.7381 886.207 28.1334 883.183 Q27.4968 880.159 27.4968 877.295 Q27.4968 869.56 31.5072 865.741 Q35.5176 861.921 43.6657 861.921 Z" fill="#000000" fill-rule="nonzero" fill-opacity="1" /><path clip-path="url(#clip390)" d="M28.3562 849.858 L28.3562 844.002 L64.0042 844.002 L64.0042 849.858 L28.3562 849.858 M14.479 849.858 L14.479 844.002 L21.895 844.002 L21.895 849.858 L14.479 849.858 Z" fill="#000000" fill-rule="nonzero" fill-opacity="1" /><path clip-path="url(#clip390)" d="M42.4881 802.116 L64.0042 802.116 L64.0042 807.972 L42.679 807.972 Q37.6183 807.972 35.1038 809.945 Q32.5894 811.919 32.5894 815.865 Q32.5894 820.608 35.6131 823.345 Q38.6368 826.082 43.8567 826.082 L64.0042 826.082 L64.0042 831.971 L28.3562 831.971 L28.3562 826.082 L33.8944 826.082 Q30.6797 823.982 29.0883 821.149 Q27.4968 818.284 27.4968 814.561 Q27.4968 808.418 31.3163 805.267 Q35.1038 802.116 42.4881 802.116 Z" fill="#000000" fill-rule="nonzero" fill-opacity="1" /><path clip-path="url(#clip390)" d="M28.3562 790.434 L28.3562 784.578 L64.0042 784.578 L64.0042 790.434 L28.3562 790.434 M14.479 790.434 L14.479 784.578 L21.895 784.578 L21.895 790.434 L14.479 790.434 Z" fill="#000000" fill-rule="nonzero" fill-opacity="1" /><path clip-path="url(#clip390)" d="M42.4881 742.692 L64.0042 742.692 L64.0042 748.548 L42.679 748.548 Q37.6183 748.548 35.1038 750.521 Q32.5894 752.495 32.5894 756.442 Q32.5894 761.184 35.6131 763.921 Q38.6368 766.659 43.8567 766.659 L64.0042 766.659 L64.0042 772.547 L28.3562 772.547 L28.3562 766.659 L33.8944 766.659 Q30.6797 764.558 29.0883 761.725 Q27.4968 758.861 27.4968 755.137 Q27.4968 748.994 31.3163 745.843 Q35.1038 742.692 42.4881 742.692 Z" fill="#000000" fill-rule="nonzero" fill-opacity="1" /><path clip-path="url(#clip390)" d="M45.7664 707.553 Q39.4007 707.553 35.8996 710.195 Q32.3984 712.805 32.3984 717.547 Q32.3984 722.258 35.8996 724.9 Q39.4007 727.509 45.7664 727.509 Q52.1003 727.509 55.6014 724.9 Q59.1026 722.258 59.1026 717.547 Q59.1026 712.805 55.6014 710.195 Q52.1003 707.553 45.7664 707.553 M59.58 701.697 Q68.683 701.697 73.1071 705.739 Q77.5631 709.781 77.5631 718.12 Q77.5631 721.207 77.0857 723.945 Q76.6401 726.682 75.6852 729.26 L69.9879 729.26 Q71.3884 726.682 72.0568 724.167 Q72.7252 721.653 72.7252 719.043 Q72.7252 713.282 69.7015 710.418 Q66.7096 707.553 60.6303 707.553 L57.7339 707.553 Q60.885 709.367 62.4446 712.2 Q64.0042 715.033 64.0042 718.979 Q64.0042 725.536 59.0071 729.546 Q54.01 733.557 45.7664 733.557 Q37.491 733.557 32.4939 729.546 Q27.4968 725.536 27.4968 718.979 Q27.4968 715.033 29.0564 712.2 Q30.616 709.367 33.7671 707.553 L28.3562 707.553 L28.3562 701.697 L59.58 701.697 Z" fill="#000000" fill-rule="nonzero" fill-opacity="1" /><path clip-path="url(#clip390)" d="M44.7161 638.421 L47.5806 638.421 L47.5806 665.348 Q53.6281 664.966 56.8109 661.72 Q59.9619 658.442 59.9619 652.617 Q59.9619 649.243 59.1344 646.092 Q58.3069 642.909 56.6518 639.79 L62.1899 639.79 Q63.5267 642.941 64.227 646.251 Q64.9272 649.561 64.9272 652.967 Q64.9272 661.497 59.9619 666.494 Q54.9967 671.459 46.5303 671.459 Q37.7774 671.459 32.6531 666.749 Q27.4968 662.006 27.4968 653.986 Q27.4968 646.792 32.1438 642.623 Q36.7589 638.421 44.7161 638.421 M42.9973 644.278 Q38.1912 644.342 35.3266 646.983 Q32.4621 649.593 32.4621 653.922 Q32.4621 658.823 35.2312 661.784 Q38.0002 664.712 43.0292 665.157 L42.9973 644.278 Z" fill="#000000" fill-rule="nonzero" fill-opacity="1" /><path clip-path="url(#clip390)" d="M33.8307 608.152 Q33.2578 609.139 33.0032 610.317 Q32.7167 611.463 32.7167 612.863 Q32.7167 617.828 35.9632 620.502 Q39.1779 623.144 45.2253 623.144 L64.0042 623.144 L64.0042 629.032 L28.3562 629.032 L28.3562 623.144 L33.8944 623.144 Q30.6479 621.298 29.0883 618.338 Q27.4968 615.378 27.4968 611.144 Q27.4968 610.54 27.5923 609.808 Q27.656 609.075 27.8151 608.184 L33.8307 608.152 Z" fill="#000000" fill-rule="nonzero" fill-opacity="1" /><path clip-path="url(#clip390)" d="M33.8307 582.499 Q33.2578 583.485 33.0032 584.663 Q32.7167 585.809 32.7167 587.209 Q32.7167 592.175 35.9632 594.848 Q39.1779 597.49 45.2253 597.49 L64.0042 597.49 L64.0042 603.378 L28.3562 603.378 L28.3562 597.49 L33.8944 597.49 Q30.6479 595.644 29.0883 592.684 Q27.4968 589.724 27.4968 585.491 Q27.4968 584.886 27.5923 584.154 Q27.656 583.422 27.8151 582.53 L33.8307 582.499 Z" fill="#000000" fill-rule="nonzero" fill-opacity="1" /><path clip-path="url(#clip390)" d="M32.4621 563.974 Q32.4621 568.685 36.1542 571.422 Q39.8145 574.16 46.212 574.16 Q52.6095 574.16 56.3017 571.454 Q59.9619 568.717 59.9619 563.974 Q59.9619 559.296 56.2698 556.558 Q52.5777 553.821 46.212 553.821 Q39.8781 553.821 36.186 556.558 Q32.4621 559.296 32.4621 563.974 M27.4968 563.974 Q27.4968 556.336 32.4621 551.975 Q37.4273 547.615 46.212 547.615 Q54.9649 547.615 59.9619 551.975 Q64.9272 556.336 64.9272 563.974 Q64.9272 571.645 59.9619 576.006 Q54.9649 580.334 46.212 580.334 Q37.4273 580.334 32.4621 576.006 Q27.4968 571.645 27.4968 563.974 Z" fill="#000000" fill-rule="nonzero" fill-opacity="1" /><path clip-path="url(#clip390)" d="M33.8307 517.25 Q33.2578 518.237 33.0032 519.415 Q32.7167 520.56 32.7167 521.961 Q32.7167 526.926 35.9632 529.6 Q39.1779 532.241 45.2253 532.241 L64.0042 532.241 L64.0042 538.13 L28.3562 538.13 L28.3562 532.241 L33.8944 532.241 Q30.6479 530.395 29.0883 527.435 Q27.4968 524.475 27.4968 520.242 Q27.4968 519.637 27.5923 518.905 Q27.656 518.173 27.8151 517.282 L33.8307 517.25 Z" fill="#000000" fill-rule="nonzero" fill-opacity="1" /><polyline clip-path="url(#clip392)" style="stroke:#3da44d; stroke-linecap:round; stroke-linejoin:round; stroke-width:4; stroke-opacity:1; fill:none" points="310.845,249.078 317.476,255.054 324.106,261.042 330.736,267.245 337.366,273.552 343.996,279.858 350.627,286.304 357.257,292.898 363.887,299.453 370.517,306.3 377.148,313.329 383.778,320.076 390.408,327.384 397.038,334.725 403.668,342.293 410.299,349.898 416.929,357.813 423.559,366.052 430.189,374.38 436.82,383.157 443.45,392.064 450.08,401.204 456.71,410.374 463.34,418.9 469.971,424.484 476.601,427.857 483.231,431.094 489.861,434.355 496.492,437.767 503.122,441.027 509.752,444.438 516.382,447.807 523.013,451.184 529.643,454.572 536.273,458.079 542.903,461.575 549.533,465.076 556.164,468.636 562.794,472.164 569.424,475.694 576.054,479.367 582.685,483.04 589.315,486.621 595.945,490.396 602.575,494.136 609.205,497.882 615.836,501.624 622.466,505.475 629.096,509.403 635.726,513.275 642.357,517.255 648.987,521.165 655.617,525.172 662.247,529.11 668.877,533.286 675.508,537.297 682.138,541.576 688.768,545.626 695.398,549.947 702.029,554.157 708.659,558.472 715.289,562.907 721.919,567.239 728.55,571.85 735.18,576.413 741.81,581.062 748.44,585.687 755.07,590.366 761.701,595.236 768.331,600.1 774.961,605.148 781.591,610.15 788.222,615.256 794.852,620.284 801.482,625.474 808.112,630.814 814.742,635.62 821.373,640.62 828.003,645.811 834.633,650.806 841.263,655.52 847.894,660.515 854.524,665.315 861.154,670.242 867.784,675.078 874.414,680.117 881.045,685.196 887.675,690.181 894.305,695.486 900.935,700.6 907.566,705.467 914.196,711.154 920.826,716.538 927.456,722.217 934.087,727.36 940.717,732.437 947.347,737.621 953.977,742.871 960.607,748.493 967.238,754.123 973.868,759.538 980.498,764.216 987.128,768.713 993.759,773.63 1000.39,778.471 1007.02,783.172 1013.65,787.837 1020.28,792.964 1026.91,797.834 1033.54,802.636 1040.17,807.187 1046.8,811.65 1053.43,816.361 1060.06,821.485 1066.69,826.141 1073.32,830.873 1079.95,836.115 1086.58,841.819 1093.21,847.532 1099.84,853.053 1106.47,858.427 1113.1,863.419 1119.73,868.095 1126.36,872.647 1132.99,877.821 1139.62,882.741 1146.25,887.938 1152.88,893.165 1159.51,898.672 1166.14,903.871 1172.77,909.507 1179.4,915.149 1186.04,920.848 1192.67,926.953 1199.3,932.327 1205.93,937.662 1212.56,943.244 1219.19,948.841 1225.82,955.505 1232.45,961.455 1239.08,968.316 1245.71,976.13 1252.34,983.878 1258.97,993.034 1265.6,1003.17 1272.23,1014.76 1278.86,1030.14 1285.49,1045.97 1292.12,1065.18 1298.75,1089.64 1305.38,1122.62 1312.01,1161.45 1318.64,1211.04 1325.27,1285.14 1331.9,1348.73 1338.53,1343.84 1345.16,1353.7 1351.79,1354.41 1358.42,1352.94 1365.05,1359.59 1371.68,1359.23 1378.31,1360.39 1384.94,1353.67 1391.57,1359.08 1398.2,1369.5 1404.83,1377.91 1411.46,1375.54 1418.09,1374.75 1424.72,1374.67 1431.35,1376.6 1437.98,1376.64 1444.61,1374.48 1451.24,1376.86 1457.87,1378.95 1464.5,1378.33 1471.13,1378.81 1477.77,1379.24 1484.4,1378.85 1491.03,1378.68 1497.66,1378.06 1504.29,1376.22 1510.92,1377.29 1517.55,1377.46 1524.18,1377.86 1530.81,1371.02 1537.44,1377.87 1544.07,1379.76 1550.7,1380.9 1557.33,1379.63 1563.96,1380.55 1570.59,1379.87 1577.22,1381.11 1583.85,1381.02 1590.48,1380.04 1597.11,1380.04 1603.74,1379.09 1610.37,1374.9 1617,1375.47 1623.63,1376.39 1630.26,1380.37 1636.89,1374.77 1643.52,1380.23 1650.15,1381.18 1656.78,1382.96 1663.41,1382.62 1670.04,1384 1676.67,1383.93 1683.3,1383.62 1689.93,1383.27 1696.56,1383.06 1703.19,1380.2 1709.82,1383.52 1716.45,1383.92 1723.08,1383.76 1729.71,1381.96 1736.34,1382.72 1742.97,1381.36 1749.6,1382.4 1756.23,1383.05 1762.86,1383.57 1769.49,1382.62 1776.13,1383.95 1782.76,1382.76 1789.39,1383.06 1796.02,1383.27 1802.65,1382.11 1809.28,1380.24 1815.91,1383.29 1822.54,1382.51 1829.17,1382.78 1835.8,1379.86 1842.43,1379.25 1849.06,1383.3 1855.69,1382.53 1862.32,1380.63 1868.95,1381.01 1875.58,1380.99 1882.21,1381.79 1888.84,1383.54 1895.47,1382.9 1902.1,1383.82 1908.73,1383.32 1915.36,1381.25 1921.99,1382.27 1928.62,1380.73 1935.25,1383.17 1941.88,1383.76 1948.51,1381.75 1955.14,1383.44 1961.77,1383.16 1968.4,1382.81 1975.03,1383.73 1981.66,1383.85 1988.29,1382.15 1994.92,1380.8 2001.55,1381.09 2008.18,1382.67 2014.81,1380.61 2021.44,1381.28 2028.07,1377.79 2034.7,1382 2041.33,1382.28 2047.96,1383.35 2054.59,1383.65 2061.22,1381.2 2067.86,1383.51 2074.49,1383.16 2081.12,1382.11 2087.75,1382.7 2094.38,1382.61 2101.01,1382.52 2107.64,1380.45 2114.27,1381.34 2120.9,1381.01 2127.53,1383.15 2134.16,1381.5 2140.79,1381.78 2147.42,1383.33 2154.05,1381.19 2160.68,1380.93 2167.31,1380.37 2173.94,1381.48 2180.57,1382.57 2187.2,1380.31 2193.83,1383.07 2200.46,1382.23 2207.09,1381.9 2213.72,1382.8 2220.35,1382.2 2226.98,1383.27 2233.61,1382.39 2240.24,1382.8 2246.87,1381.07 2253.5,1380.78 2260.13,1382.55 2266.76,1383.99 2273.39,1384.1 2280.02,1384.24 2286.65,1381.91 2293.28,1380.67 "/>
<polyline clip-path="url(#clip392)" style="stroke:#e26f46; stroke-linecap:round; stroke-linejoin:round; stroke-width:4; stroke-opacity:1; fill:none" points="310.845,86.1857 317.476,100.474 324.106,113.933 330.736,126.068 337.366,137.39 343.996,147.614 350.627,156.498 357.257,163.34 363.887,169.673 370.517,175.414 377.148,180.784 383.778,185.775 390.408,190.517 397.038,194.688 403.668,198.635 410.299,202.134 416.929,205.467 423.559,208.472 430.189,211.463 436.82,214.339 443.45,216.94 450.08,219.222 456.71,221.261 463.34,223.212 469.971,225.168 476.601,226.754 483.231,228.247 489.861,230.317 496.492,231.466 503.122,232.966 509.752,234.371 516.382,235.924 523.013,237.183 529.643,238.555 536.273,239.96 542.903,241.534 549.533,242.828 556.164,244.011 562.794,245.48 569.424,246.766 576.054,248.065 582.685,249.263 589.315,250.499 595.945,251.758 602.575,253.238 609.205,254.308 615.836,255.697 622.466,256.855 629.096,258.037 635.726,259.196 642.357,260.423 648.987,261.883 655.617,263.131 662.247,264.428 668.877,265.652 675.508,266.985 682.138,268.758 688.768,270.471 695.398,272.31 702.029,274.134 708.659,276.258 715.289,278.573 721.919,280.83 728.55,283.395 735.18,286 741.81,288.939 748.44,292.102 755.07,295.514 761.701,299.535 768.331,303.956 774.961,309.277 781.591,315.902 788.222,323.594 794.852,332.961 801.482,344.565 808.112,358.746 814.742,375.734 821.373,396.18 828.003,420.94 834.633,449.929 841.263,478.462 847.894,500.17 854.524,518.623 861.154,538.578 867.784,557.768 874.414,576.086 881.045,594.456 887.675,613.507 894.305,632.689 900.935,650.27 907.566,667.636 914.196,685.272 920.826,704.977 927.456,724.655 934.087,747.457 940.717,772.481 947.347,799.32 953.977,825.394 960.607,848.11 967.238,864.785 973.868,875.864 980.498,884.239 987.128,890.915 993.759,896.578 1000.39,902.27 1007.02,907.88 1013.65,913.381 1020.28,918.4 1026.91,924.323 1033.54,929.642 1040.17,934.969 1046.8,940.86 1053.43,946.885 1060.06,952.813 1066.69,958.082 1073.32,964.236 1079.95,969.709 1086.58,976.323 1093.21,983.155 1099.84,989.103 1106.47,995.96 1113.1,1002.34 1119.73,1008.67 1126.36,1015.13 1132.99,1022.24 1139.62,1028.45 1146.25,1034.11 1152.88,1041.61 1159.51,1049.17 1166.14,1054.42 1172.77,1061.05 1179.4,1065.16 1186.04,1073.24 1192.67,1078.04 1199.3,1085.93 1205.93,1091.39 1212.56,1095.05 1219.19,1098.45 1225.82,1101.79 1232.45,1106.81 1239.08,1109.45 1245.71,1110.16 1252.34,1114.01 1258.97,1117.12 1265.6,1119.37 1272.23,1120.77 1278.86,1119.96 1285.49,1125.19 1292.12,1126.56 1298.75,1128.91 1305.38,1129.2 1312.01,1130.95 1318.64,1131.75 1325.27,1131.41 1331.9,1133.96 1338.53,1134.47 1345.16,1136.75 1351.79,1138.03 1358.42,1142 1365.05,1143.14 1371.68,1143.28 1378.31,1144 1384.94,1144.23 1391.57,1146.68 1398.2,1147.29 1404.83,1149.1 1411.46,1151.59 1418.09,1151.62 1424.72,1154.71 1431.35,1154.46 1437.98,1154.4 1444.61,1155.54 1451.24,1156.57 1457.87,1158.68 1464.5,1159.77 1471.13,1159.11 1477.77,1159.94 1484.4,1161.09 1491.03,1161.24 1497.66,1164.54 1504.29,1164.8 1510.92,1166.73 1517.55,1167.23 1524.18,1167.95 1530.81,1169.55 1537.44,1170.73 1544.07,1172.3 1550.7,1173.43 1557.33,1172.84 1563.96,1174.15 1570.59,1177.44 1577.22,1179.07 1583.85,1179.33 1590.48,1179.33 1597.11,1178.96 1603.74,1180.04 1610.37,1182.55 1617,1182.93 1623.63,1182.14 1630.26,1179.3 1636.89,1186.57 1643.52,1186.4 1650.15,1185.39 1656.78,1184.91 1663.41,1184.38 1670.04,1182.01 1676.67,1186.71 1683.3,1190.61 1689.93,1193.39 1696.56,1194.25 1703.19,1194.93 1709.82,1195.2 1716.45,1194.45 1723.08,1195.59 1729.71,1194.92 1736.34,1197.71 1742.97,1196.08 1749.6,1196.42 1756.23,1199.08 1762.86,1199.43 1769.49,1201 1776.13,1200.26 1782.76,1201.96 1789.39,1200.54 1796.02,1201.33 1802.65,1202.25 1809.28,1201.16 1815.91,1203.53 1822.54,1204.9 1829.17,1204.65 1835.8,1205.26 1842.43,1205.08 1849.06,1203.73 1855.69,1207 1862.32,1209.51 1868.95,1211.36 1875.58,1208.79 1882.21,1210.07 1888.84,1209.73 1895.47,1212.51 1902.1,1213.14 1908.73,1213.17 1915.36,1212.55 1921.99,1214.81 1928.62,1214.64 1935.25,1216.5 1941.88,1215.9 1948.51,1216.62 1955.14,1214.02 1961.77,1216.35 1968.4,1216.3 1975.03,1220.21 1981.66,1221.82 1988.29,1220.72 1994.92,1222.26 2001.55,1219.36 2008.18,1216.74 2014.81,1218.2 2021.44,1222.52 2028.07,1224.31 2034.7,1225.78 2041.33,1224.29 2047.96,1223.69 2054.59,1223.8 2061.22,1227.38 2067.86,1229.01 2074.49,1228.6 2081.12,1230.3 2087.75,1230.41 2094.38,1228.21 2101.01,1230.16 2107.64,1231.66 2114.27,1230.54 2120.9,1231.58 2127.53,1231.94 2134.16,1231.81 2140.79,1230.16 2147.42,1230.82 2154.05,1234.44 2160.68,1229.45 2167.31,1233.46 2173.94,1234.82 2180.57,1237.64 2187.2,1237.66 2193.83,1238.82 2200.46,1238.9 2207.09,1238.62 2213.72,1238.61 2220.35,1238.32 2226.98,1235.54 2233.61,1232.47 2240.24,1237.74 2246.87,1235.7 2253.5,1237.05 2260.13,1235.59 2266.76,1235.3 2273.39,1240.37 2280.02,1242.87 2286.65,1242.96 2293.28,1239.92 "/>
<path clip-path="url(#clip390)" d="M1784.73 248.629 L2282.71 248.629 L2282.71 93.1086 L1784.73 93.1086  Z" fill="#ffffff" fill-rule="evenodd" fill-opacity="1"/>
<polyline clip-path="url(#clip390)" style="stroke:#000000; stroke-linecap:round; stroke-linejoin:round; stroke-width:4; stroke-opacity:1; fill:none" points="1784.73,248.629 2282.71,248.629 2282.71,93.1086 1784.73,93.1086 1784.73,248.629 "/>
<polyline clip-path="url(#clip390)" style="stroke:#3da44d; stroke-linecap:round; stroke-linejoin:round; stroke-width:4; stroke-opacity:1; fill:none" points="1808.07,144.949 1948.17,144.949 "/>
<path clip-path="url(#clip390)" d="M1997.07 157.298 L1997.07 148.016 L1989.43 148.016 L1989.43 144.173 L2001.7 144.173 L2001.7 159.011 Q1998.99 160.932 1995.73 161.928 Q1992.46 162.9 1988.76 162.9 Q1980.66 162.9 1976.08 158.178 Q1971.52 153.432 1971.52 144.983 Q1971.52 136.511 1976.08 131.789 Q1980.66 127.044 1988.76 127.044 Q1992.14 127.044 1995.17 127.877 Q1998.23 128.71 2000.8 130.331 L2000.8 135.307 Q1998.21 133.108 1995.29 131.997 Q1992.37 130.886 1989.15 130.886 Q1982.81 130.886 1979.62 134.428 Q1976.45 137.969 1976.45 144.983 Q1976.45 151.974 1979.62 155.516 Q1982.81 159.057 1989.15 159.057 Q1991.63 159.057 1993.58 158.641 Q1995.52 158.201 1997.07 157.298 Z" fill="#000000" fill-rule="nonzero" fill-opacity="1" /><path clip-path="url(#clip390)" d="M2007.9 147.344 L2020.38 147.344 L2020.38 151.141 L2007.9 151.141 L2007.9 147.344 Z" fill="#000000" fill-rule="nonzero" fill-opacity="1" /><path clip-path="url(#clip390)" d="M2048.07 128.803 L2048.07 133.363 Q2045.4 132.09 2043.04 131.465 Q2040.68 130.84 2038.48 130.84 Q2034.66 130.84 2032.58 132.321 Q2030.52 133.803 2030.52 136.534 Q2030.52 138.826 2031.89 140.007 Q2033.27 141.164 2037.12 141.882 L2039.94 142.46 Q2045.17 143.456 2047.65 145.979 Q2050.15 148.479 2050.15 152.692 Q2050.15 157.715 2046.77 160.307 Q2043.41 162.9 2036.91 162.9 Q2034.45 162.9 2031.68 162.344 Q2028.92 161.789 2025.96 160.701 L2025.96 155.886 Q2028.81 157.483 2031.54 158.293 Q2034.27 159.104 2036.91 159.104 Q2040.91 159.104 2043.09 157.53 Q2045.26 155.956 2045.26 153.039 Q2045.26 150.493 2043.69 149.057 Q2042.14 147.622 2038.58 146.905 L2035.73 146.349 Q2030.5 145.307 2028.16 143.085 Q2025.82 140.863 2025.82 136.905 Q2025.82 132.321 2029.04 129.682 Q2032.28 127.044 2037.95 127.044 Q2040.38 127.044 2042.9 127.483 Q2045.43 127.923 2048.07 128.803 Z" fill="#000000" fill-rule="nonzero" fill-opacity="1" /><path clip-path="url(#clip390)" d="M2068.04 164.636 Q2066.24 169.266 2064.52 170.678 Q2062.81 172.09 2059.94 172.09 L2056.54 172.09 L2056.54 168.525 L2059.04 168.525 Q2060.8 168.525 2061.77 167.692 Q2062.74 166.858 2063.92 163.756 L2064.69 161.812 L2054.2 136.303 L2058.71 136.303 L2066.82 156.581 L2074.92 136.303 L2079.43 136.303 L2068.04 164.636 Z" fill="#000000" fill-rule="nonzero" fill-opacity="1" /><path clip-path="url(#clip390)" d="M2105.5 141.28 Q2107.09 138.409 2109.32 137.044 Q2111.54 135.678 2114.55 135.678 Q2118.6 135.678 2120.8 138.525 Q2123 141.349 2123 146.581 L2123 162.229 L2118.71 162.229 L2118.71 146.719 Q2118.71 142.993 2117.39 141.187 Q2116.07 139.382 2113.37 139.382 Q2110.06 139.382 2108.14 141.581 Q2106.21 143.78 2106.21 147.576 L2106.21 162.229 L2101.93 162.229 L2101.93 146.719 Q2101.93 142.969 2100.61 141.187 Q2099.29 139.382 2096.54 139.382 Q2093.27 139.382 2091.35 141.604 Q2089.43 143.803 2089.43 147.576 L2089.43 162.229 L2085.15 162.229 L2085.15 136.303 L2089.43 136.303 L2089.43 140.331 Q2090.89 137.946 2092.93 136.812 Q2094.96 135.678 2097.76 135.678 Q2100.59 135.678 2102.56 137.113 Q2104.55 138.548 2105.5 141.28 Z" fill="#000000" fill-rule="nonzero" fill-opacity="1" /><path clip-path="url(#clip390)" d="M2135.61 158.34 L2135.61 172.09 L2131.33 172.09 L2131.33 136.303 L2135.61 136.303 L2135.61 140.238 Q2136.95 137.923 2138.99 136.812 Q2141.05 135.678 2143.9 135.678 Q2148.62 135.678 2151.56 139.428 Q2154.52 143.178 2154.52 149.289 Q2154.52 155.4 2151.56 159.15 Q2148.62 162.9 2143.9 162.9 Q2141.05 162.9 2138.99 161.789 Q2136.95 160.655 2135.61 158.34 M2150.1 149.289 Q2150.1 144.59 2148.16 141.928 Q2146.24 139.243 2142.86 139.243 Q2139.48 139.243 2137.53 141.928 Q2135.61 144.59 2135.61 149.289 Q2135.61 153.988 2137.53 156.673 Q2139.48 159.335 2142.86 159.335 Q2146.24 159.335 2148.16 156.673 Q2150.1 153.988 2150.1 149.289 Z" fill="#000000" fill-rule="nonzero" fill-opacity="1" /><path clip-path="url(#clip390)" d="M2161.77 127.669 L2168.07 127.669 L2183.39 156.581 L2183.39 127.669 L2187.93 127.669 L2187.93 162.229 L2181.63 162.229 L2166.31 133.317 L2166.31 162.229 L2161.77 162.229 L2161.77 127.669 Z" fill="#000000" fill-rule="nonzero" fill-opacity="1" /><path clip-path="url(#clip390)" d="M2219.22 148.201 L2219.22 150.284 L2199.64 150.284 Q2199.92 154.682 2202.28 156.997 Q2204.66 159.289 2208.9 159.289 Q2211.35 159.289 2213.64 158.687 Q2215.96 158.085 2218.23 156.881 L2218.23 160.909 Q2215.94 161.881 2213.53 162.391 Q2211.12 162.9 2208.64 162.9 Q2202.44 162.9 2198.81 159.289 Q2195.19 155.678 2195.19 149.52 Q2195.19 143.155 2198.62 139.428 Q2202.07 135.678 2207.9 135.678 Q2213.13 135.678 2216.17 139.057 Q2219.22 142.414 2219.22 148.201 M2214.96 146.951 Q2214.92 143.456 2213 141.372 Q2211.1 139.289 2207.95 139.289 Q2204.38 139.289 2202.23 141.303 Q2200.1 143.317 2199.78 146.974 L2214.96 146.951 Z" fill="#000000" fill-rule="nonzero" fill-opacity="1" /><path clip-path="url(#clip390)" d="M2230.43 128.942 L2230.43 136.303 L2239.2 136.303 L2239.2 139.613 L2230.43 139.613 L2230.43 153.687 Q2230.43 156.858 2231.28 157.761 Q2232.16 158.664 2234.82 158.664 L2239.2 158.664 L2239.2 162.229 L2234.82 162.229 Q2229.89 162.229 2228.02 160.4 Q2226.14 158.548 2226.14 153.687 L2226.14 139.613 L2223.02 139.613 L2223.02 136.303 L2226.14 136.303 L2226.14 128.942 L2230.43 128.942 Z" fill="#000000" fill-rule="nonzero" fill-opacity="1" /><polyline clip-path="url(#clip390)" style="stroke:#e26f46; stroke-linecap:round; stroke-linejoin:round; stroke-width:4; stroke-opacity:1; fill:none" points="1808.07,196.789 1948.17,196.789 "/>
<path clip-path="url(#clip390)" d="M1971.52 179.509 L1976.19 179.509 L1976.19 210.133 L1993.02 210.133 L1993.02 214.069 L1971.52 214.069 L1971.52 179.509 Z" fill="#000000" fill-rule="nonzero" fill-opacity="1" /><path clip-path="url(#clip390)" d="M2010.57 184.115 L2004.22 201.314 L2016.93 201.314 L2010.57 184.115 M2007.93 179.509 L2013.23 179.509 L2026.4 214.069 L2021.54 214.069 L2018.39 205.203 L2002.81 205.203 L1999.66 214.069 L1994.73 214.069 L2007.93 179.509 Z" fill="#000000" fill-rule="nonzero" fill-opacity="1" /><path clip-path="url(#clip390)" d="M2028.07 199.184 L2040.54 199.184 L2040.54 202.981 L2028.07 202.981 L2028.07 199.184 Z" fill="#000000" fill-rule="nonzero" fill-opacity="1" /><path clip-path="url(#clip390)" d="M2068.23 180.643 L2068.23 185.203 Q2065.57 183.93 2063.2 183.305 Q2060.84 182.68 2058.64 182.68 Q2054.83 182.68 2052.74 184.161 Q2050.68 185.643 2050.68 188.374 Q2050.68 190.666 2052.05 191.847 Q2053.44 193.004 2057.28 193.722 L2060.1 194.3 Q2065.33 195.296 2067.81 197.819 Q2070.31 200.319 2070.31 204.532 Q2070.31 209.555 2066.93 212.147 Q2063.58 214.74 2057.07 214.74 Q2054.62 214.74 2051.84 214.184 Q2049.08 213.629 2046.12 212.541 L2046.12 207.726 Q2048.97 209.323 2051.7 210.133 Q2054.43 210.944 2057.07 210.944 Q2061.08 210.944 2063.25 209.37 Q2065.43 207.796 2065.43 204.879 Q2065.43 202.333 2063.85 200.897 Q2062.3 199.462 2058.74 198.745 L2055.89 198.189 Q2050.66 197.147 2048.32 194.925 Q2045.98 192.703 2045.98 188.745 Q2045.98 184.161 2049.2 181.522 Q2052.44 178.884 2058.11 178.884 Q2060.54 178.884 2063.07 179.323 Q2065.59 179.763 2068.23 180.643 Z" fill="#000000" fill-rule="nonzero" fill-opacity="1" /><path clip-path="url(#clip390)" d="M2088.2 216.476 Q2086.4 221.106 2084.69 222.518 Q2082.97 223.93 2080.1 223.93 L2076.7 223.93 L2076.7 220.365 L2079.2 220.365 Q2080.96 220.365 2081.93 219.532 Q2082.9 218.698 2084.08 215.596 L2084.85 213.652 L2074.36 188.143 L2078.88 188.143 L2086.98 208.421 L2095.08 188.143 L2099.59 188.143 L2088.2 216.476 Z" fill="#000000" fill-rule="nonzero" fill-opacity="1" /><path clip-path="url(#clip390)" d="M2125.66 193.12 Q2127.26 190.249 2129.48 188.884 Q2131.7 187.518 2134.71 187.518 Q2138.76 187.518 2140.96 190.365 Q2143.16 193.189 2143.16 198.421 L2143.16 214.069 L2138.88 214.069 L2138.88 198.559 Q2138.88 194.833 2137.56 193.027 Q2136.24 191.222 2133.53 191.222 Q2130.22 191.222 2128.3 193.421 Q2126.38 195.62 2126.38 199.416 L2126.38 214.069 L2122.09 214.069 L2122.09 198.559 Q2122.09 194.809 2120.77 193.027 Q2119.45 191.222 2116.7 191.222 Q2113.44 191.222 2111.51 193.444 Q2109.59 195.643 2109.59 199.416 L2109.59 214.069 L2105.31 214.069 L2105.31 188.143 L2109.59 188.143 L2109.59 192.171 Q2111.05 189.786 2113.09 188.652 Q2115.13 187.518 2117.93 187.518 Q2120.75 187.518 2122.72 188.953 Q2124.71 190.388 2125.66 193.12 Z" fill="#000000" fill-rule="nonzero" fill-opacity="1" /><path clip-path="url(#clip390)" d="M2155.77 210.18 L2155.77 223.93 L2151.49 223.93 L2151.49 188.143 L2155.77 188.143 L2155.77 192.078 Q2157.12 189.763 2159.15 188.652 Q2161.21 187.518 2164.06 187.518 Q2168.78 187.518 2171.72 191.268 Q2174.69 195.018 2174.69 201.129 Q2174.69 207.24 2171.72 210.99 Q2168.78 214.74 2164.06 214.74 Q2161.21 214.74 2159.15 213.629 Q2157.12 212.495 2155.77 210.18 M2170.26 201.129 Q2170.26 196.43 2168.32 193.768 Q2166.4 191.083 2163.02 191.083 Q2159.64 191.083 2157.69 193.768 Q2155.77 196.43 2155.77 201.129 Q2155.77 205.828 2157.69 208.513 Q2159.64 211.175 2163.02 211.175 Q2166.4 211.175 2168.32 208.513 Q2170.26 205.828 2170.26 201.129 Z" fill="#000000" fill-rule="nonzero" fill-opacity="1" /><path clip-path="url(#clip390)" d="M2181.93 179.509 L2188.23 179.509 L2203.55 208.421 L2203.55 179.509 L2208.09 179.509 L2208.09 214.069 L2201.79 214.069 L2186.47 185.157 L2186.47 214.069 L2181.93 214.069 L2181.93 179.509 Z" fill="#000000" fill-rule="nonzero" fill-opacity="1" /><path clip-path="url(#clip390)" d="M2239.38 200.041 L2239.38 202.124 L2219.8 202.124 Q2220.08 206.522 2222.44 208.837 Q2224.82 211.129 2229.06 211.129 Q2231.51 211.129 2233.81 210.527 Q2236.12 209.925 2238.39 208.721 L2238.39 212.749 Q2236.1 213.721 2233.69 214.231 Q2231.28 214.74 2228.81 214.74 Q2222.6 214.74 2218.97 211.129 Q2215.36 207.518 2215.36 201.36 Q2215.36 194.995 2218.78 191.268 Q2222.23 187.518 2228.06 187.518 Q2233.3 187.518 2236.33 190.897 Q2239.38 194.254 2239.38 200.041 M2235.13 198.791 Q2235.08 195.296 2233.16 193.212 Q2231.26 191.129 2228.11 191.129 Q2224.55 191.129 2222.39 193.143 Q2220.26 195.157 2219.94 198.814 L2235.13 198.791 Z" fill="#000000" fill-rule="nonzero" fill-opacity="1" /><path clip-path="url(#clip390)" d="M2250.59 180.782 L2250.59 188.143 L2259.36 188.143 L2259.36 191.453 L2250.59 191.453 L2250.59 205.527 Q2250.59 208.698 2251.44 209.601 Q2252.32 210.504 2254.99 210.504 L2259.36 210.504 L2259.36 214.069 L2254.99 214.069 Q2250.06 214.069 2248.18 212.24 Q2246.31 210.388 2246.31 205.527 L2246.31 191.453 L2243.18 191.453 L2243.18 188.143 L2246.31 188.143 L2246.31 180.782 L2250.59 180.782 Z" fill="#000000" fill-rule="nonzero" fill-opacity="1" /></svg>
