<?xml version="1.0" encoding="utf-8"?>
<svg xmlns="http://www.w3.org/2000/svg" xmlns:xlink="http://www.w3.org/1999/xlink" width="600" height="400" viewBox="0 0 2400 1600">
<defs>
  <clipPath id="clip570">
    <rect x="0" y="0" width="2400" height="1600"/>
  </clipPath>
</defs>
<path clip-path="url(#clip570)" d="M0 1600 L2400 1600 L2400 0 L0 0  Z" fill="#ffffff" fill-rule="evenodd" fill-opacity="1"/>
<defs>
  <clipPath id="clip571">
    <rect x="480" y="0" width="1681" height="1600"/>
  </clipPath>
</defs>
<path clip-path="url(#clip570)" d="M193.936 1486.45 L2352.76 1486.45 L2352.76 47.2441 L193.936 47.2441  Z" fill="#ffffff" fill-rule="evenodd" fill-opacity="1"/>
<defs>
  <clipPath id="clip572">
    <rect x="193" y="47" width="2160" height="1440"/>
  </clipPath>
</defs>
<polyline clip-path="url(#clip572)" style="stroke:#000000; stroke-linecap:round; stroke-linejoin:round; stroke-width:2; stroke-opacity:0.1; fill:none" points="439.96,1486.45 439.96,47.2441 "/>
<polyline clip-path="url(#clip572)" style="stroke:#000000; stroke-linecap:round; stroke-linejoin:round; stroke-width:2; stroke-opacity:0.1; fill:none" points="857.06,1486.45 857.06,47.2441 "/>
<polyline clip-path="url(#clip572)" style="stroke:#000000; stroke-linecap:round; stroke-linejoin:round; stroke-width:2; stroke-opacity:0.1; fill:none" points="1274.16,1486.45 1274.16,47.2441 "/>
<polyline clip-path="url(#clip572)" style="stroke:#000000; stroke-linecap:round; stroke-linejoin:round; stroke-width:2; stroke-opacity:0.1; fill:none" points="1691.26,1486.45 1691.26,47.2441 "/>
<polyline clip-path="url(#clip572)" style="stroke:#000000; stroke-linecap:round; stroke-linejoin:round; stroke-width:2; stroke-opacity:0.1; fill:none" points="2108.36,1486.45 2108.36,47.2441 "/>
<polyline clip-path="url(#clip570)" style="stroke:#000000; stroke-linecap:round; stroke-linejoin:round; stroke-width:4; stroke-opacity:1; fill:none" points="193.936,1486.45 2352.76,1486.45 "/>
<polyline clip-path="url(#clip570)" style="stroke:#000000; stroke-linecap:round; stroke-linejoin:round; stroke-width:4; stroke-opacity:1; fill:none" points="439.96,1486.45 439.96,1467.55 "/>
<polyline clip-path="url(#clip570)" style="stroke:#000000; stroke-linecap:round; stroke-linejoin:round; stroke-width:4; stroke-opacity:1; fill:none" points="857.06,1486.45 857.06,1467.55 "/>
<polyline clip-path="url(#clip570)" style="stroke:#000000; stroke-linecap:round; stroke-linejoin:round; stroke-width:4; stroke-opacity:1; fill:none" points="1274.16,1486.45 1274.16,1467.55 "/>
<polyline clip-path="url(#clip570)" style="stroke:#000000; stroke-linecap:round; stroke-linejoin:round; stroke-width:4; stroke-opacity:1; fill:none" points="1691.26,1486.45 1691.26,1467.55 "/>
<polyline clip-path="url(#clip570)" style="stroke:#000000; stroke-linecap:round; stroke-linejoin:round; stroke-width:4; stroke-opacity:1; fill:none" points="2108.36,1486.45 2108.36,1467.55 "/>
<path clip-path="url(#clip570)" d="M386.488 1532.02 L416.164 1532.02 L416.164 1535.95 L386.488 1535.95 L386.488 1532.02 Z" fill="#000000" fill-rule="nonzero" fill-opacity="1" /><path clip-path="url(#clip570)" d="M427.067 1544.91 L434.705 1544.91 L434.705 1518.55 L426.395 1520.21 L426.395 1515.95 L434.659 1514.29 L439.335 1514.29 L439.335 1544.91 L446.974 1544.91 L446.974 1548.85 L427.067 1548.85 L427.067 1544.91 Z" fill="#000000" fill-rule="nonzero" fill-opacity="1" /><path clip-path="url(#clip570)" d="M456.418 1542.97 L461.302 1542.97 L461.302 1548.85 L456.418 1548.85 L456.418 1542.97 Z" fill="#000000" fill-rule="nonzero" fill-opacity="1" /><path clip-path="url(#clip570)" d="M481.488 1517.37 Q477.876 1517.37 476.048 1520.93 Q474.242 1524.47 474.242 1531.6 Q474.242 1538.71 476.048 1542.27 Q477.876 1545.82 481.488 1545.82 Q485.122 1545.82 486.927 1542.27 Q488.756 1538.71 488.756 1531.6 Q488.756 1524.47 486.927 1520.93 Q485.122 1517.37 481.488 1517.37 M481.488 1513.66 Q487.298 1513.66 490.353 1518.27 Q493.432 1522.85 493.432 1531.6 Q493.432 1540.33 490.353 1544.94 Q487.298 1549.52 481.488 1549.52 Q475.677 1549.52 472.599 1544.94 Q469.543 1540.33 469.543 1531.6 Q469.543 1522.85 472.599 1518.27 Q475.677 1513.66 481.488 1513.66 Z" fill="#000000" fill-rule="nonzero" fill-opacity="1" /><path clip-path="url(#clip570)" d="M804.086 1532.02 L833.762 1532.02 L833.762 1535.95 L804.086 1535.95 L804.086 1532.02 Z" fill="#000000" fill-rule="nonzero" fill-opacity="1" /><path clip-path="url(#clip570)" d="M853.854 1517.37 Q850.243 1517.37 848.415 1520.93 Q846.609 1524.47 846.609 1531.6 Q846.609 1538.71 848.415 1542.27 Q850.243 1545.82 853.854 1545.82 Q857.489 1545.82 859.294 1542.27 Q861.123 1538.71 861.123 1531.6 Q861.123 1524.47 859.294 1520.93 Q857.489 1517.37 853.854 1517.37 M853.854 1513.66 Q859.664 1513.66 862.72 1518.27 Q865.799 1522.85 865.799 1531.6 Q865.799 1540.33 862.72 1544.94 Q859.664 1549.52 853.854 1549.52 Q848.044 1549.52 844.965 1544.94 Q841.91 1540.33 841.91 1531.6 Q841.91 1522.85 844.965 1518.27 Q848.044 1513.66 853.854 1513.66 Z" fill="#000000" fill-rule="nonzero" fill-opacity="1" /><path clip-path="url(#clip570)" d="M874.016 1542.97 L878.9 1542.97 L878.9 1548.85 L874.016 1548.85 L874.016 1542.97 Z" fill="#000000" fill-rule="nonzero" fill-opacity="1" /><path clip-path="url(#clip570)" d="M889.132 1514.29 L907.488 1514.29 L907.488 1518.22 L893.414 1518.22 L893.414 1526.7 Q894.433 1526.35 895.451 1526.19 Q896.47 1526 897.488 1526 Q903.275 1526 906.655 1529.17 Q910.035 1532.34 910.035 1537.76 Q910.035 1543.34 906.562 1546.44 Q903.09 1549.52 896.771 1549.52 Q894.595 1549.52 892.326 1549.15 Q890.081 1548.78 887.674 1548.04 L887.674 1543.34 Q889.757 1544.47 891.979 1545.03 Q894.201 1545.58 896.678 1545.58 Q900.683 1545.58 903.021 1543.48 Q905.359 1541.37 905.359 1537.76 Q905.359 1534.15 903.021 1532.04 Q900.683 1529.94 896.678 1529.94 Q894.803 1529.94 892.928 1530.35 Q891.076 1530.77 889.132 1531.65 L889.132 1514.29 Z" fill="#000000" fill-rule="nonzero" fill-opacity="1" /><path clip-path="url(#clip570)" d="M1251.54 1517.37 Q1247.93 1517.37 1246.11 1520.93 Q1244.3 1524.47 1244.3 1531.6 Q1244.3 1538.71 1246.11 1542.27 Q1247.93 1545.82 1251.54 1545.82 Q1255.18 1545.82 1256.98 1542.27 Q1258.81 1538.71 1258.81 1531.6 Q1258.81 1524.47 1256.98 1520.93 Q1255.18 1517.37 1251.54 1517.37 M1251.54 1513.66 Q1257.36 1513.66 1260.41 1518.27 Q1263.49 1522.85 1263.49 1531.6 Q1263.49 1540.33 1260.41 1544.94 Q1257.36 1549.52 1251.54 1549.52 Q1245.73 1549.52 1242.66 1544.94 Q1239.6 1540.33 1239.6 1531.6 Q1239.6 1522.85 1242.66 1518.27 Q1245.73 1513.66 1251.54 1513.66 Z" fill="#000000" fill-rule="nonzero" fill-opacity="1" /><path clip-path="url(#clip570)" d="M1271.71 1542.97 L1276.59 1542.97 L1276.59 1548.85 L1271.71 1548.85 L1271.71 1542.97 Z" fill="#000000" fill-rule="nonzero" fill-opacity="1" /><path clip-path="url(#clip570)" d="M1296.78 1517.37 Q1293.17 1517.37 1291.34 1520.93 Q1289.53 1524.47 1289.53 1531.6 Q1289.53 1538.71 1291.34 1542.27 Q1293.17 1545.82 1296.78 1545.82 Q1300.41 1545.82 1302.22 1542.27 Q1304.04 1538.71 1304.04 1531.6 Q1304.04 1524.47 1302.22 1520.93 Q1300.41 1517.37 1296.78 1517.37 M1296.78 1513.66 Q1302.59 1513.66 1305.64 1518.27 Q1308.72 1522.85 1308.72 1531.6 Q1308.72 1540.33 1305.64 1544.94 Q1302.59 1549.52 1296.78 1549.52 Q1290.97 1549.52 1287.89 1544.94 Q1284.83 1540.33 1284.83 1531.6 Q1284.83 1522.85 1287.89 1518.27 Q1290.97 1513.66 1296.78 1513.66 Z" fill="#000000" fill-rule="nonzero" fill-opacity="1" /><path clip-path="url(#clip570)" d="M1669.14 1517.37 Q1665.53 1517.37 1663.7 1520.93 Q1661.9 1524.47 1661.9 1531.6 Q1661.9 1538.71 1663.7 1542.27 Q1665.53 1545.82 1669.14 1545.82 Q1672.78 1545.82 1674.58 1542.27 Q1676.41 1538.71 1676.41 1531.6 Q1676.41 1524.47 1674.58 1520.93 Q1672.78 1517.37 1669.14 1517.37 M1669.14 1513.66 Q1674.95 1513.66 1678.01 1518.27 Q1681.09 1522.85 1681.09 1531.6 Q1681.09 1540.33 1678.01 1544.94 Q1674.95 1549.52 1669.14 1549.52 Q1663.33 1549.52 1660.25 1544.94 Q1657.2 1540.33 1657.2 1531.6 Q1657.2 1522.85 1660.25 1518.27 Q1663.33 1513.66 1669.14 1513.66 Z" fill="#000000" fill-rule="nonzero" fill-opacity="1" /><path clip-path="url(#clip570)" d="M1689.3 1542.97 L1694.19 1542.97 L1694.19 1548.85 L1689.3 1548.85 L1689.3 1542.97 Z" fill="#000000" fill-rule="nonzero" fill-opacity="1" /><path clip-path="url(#clip570)" d="M1704.42 1514.29 L1722.78 1514.29 L1722.78 1518.22 L1708.7 1518.22 L1708.7 1526.7 Q1709.72 1526.35 1710.74 1526.19 Q1711.76 1526 1712.78 1526 Q1718.56 1526 1721.94 1529.17 Q1725.32 1532.34 1725.32 1537.76 Q1725.32 1543.34 1721.85 1546.44 Q1718.38 1549.52 1712.06 1549.52 Q1709.88 1549.52 1707.61 1549.15 Q1705.37 1548.78 1702.96 1548.04 L1702.96 1543.34 Q1705.05 1544.47 1707.27 1545.03 Q1709.49 1545.58 1711.97 1545.58 Q1715.97 1545.58 1718.31 1543.48 Q1720.65 1541.37 1720.65 1537.76 Q1720.65 1534.15 1718.31 1532.04 Q1715.97 1529.94 1711.97 1529.94 Q1710.09 1529.94 1708.22 1530.35 Q1706.36 1530.77 1704.42 1531.65 L1704.42 1514.29 Z" fill="#000000" fill-rule="nonzero" fill-opacity="1" /><path clip-path="url(#clip570)" d="M2075.51 1544.91 L2083.15 1544.91 L2083.15 1518.55 L2074.84 1520.21 L2074.84 1515.95 L2083.11 1514.29 L2087.78 1514.29 L2087.78 1544.91 L2095.42 1544.91 L2095.42 1548.85 L2075.51 1548.85 L2075.51 1544.91 Z" fill="#000000" fill-rule="nonzero" fill-opacity="1" /><path clip-path="url(#clip570)" d="M2104.87 1542.97 L2109.75 1542.97 L2109.75 1548.85 L2104.87 1548.85 L2104.87 1542.97 Z" fill="#000000" fill-rule="nonzero" fill-opacity="1" /><path clip-path="url(#clip570)" d="M2129.94 1517.37 Q2126.32 1517.37 2124.5 1520.93 Q2122.69 1524.47 2122.69 1531.6 Q2122.69 1538.71 2124.5 1542.27 Q2126.32 1545.82 2129.94 1545.82 Q2133.57 1545.82 2135.37 1542.27 Q2137.2 1538.71 2137.2 1531.6 Q2137.2 1524.47 2135.37 1520.93 Q2133.57 1517.37 2129.94 1517.37 M2129.94 1513.66 Q2135.75 1513.66 2138.8 1518.27 Q2141.88 1522.85 2141.88 1531.6 Q2141.88 1540.33 2138.8 1544.94 Q2135.75 1549.52 2129.94 1549.52 Q2124.13 1549.52 2121.05 1544.94 Q2117.99 1540.33 2117.99 1531.6 Q2117.99 1522.85 2121.05 1518.27 Q2124.13 1513.66 2129.94 1513.66 Z" fill="#000000" fill-rule="nonzero" fill-opacity="1" /><polyline clip-path="url(#clip572)" style="stroke:#000000; stroke-linecap:round; stroke-linejoin:round; stroke-width:2; stroke-opacity:0.1; fill:none" points="193.936,1433.93 2352.76,1433.93 "/>
<polyline clip-path="url(#clip572)" style="stroke:#000000; stroke-linecap:round; stroke-linejoin:round; stroke-width:2; stroke-opacity:0.1; fill:none" points="193.936,1098.75 2352.76,1098.75 "/>
<polyline clip-path="url(#clip572)" style="stroke:#000000; stroke-linecap:round; stroke-linejoin:round; stroke-width:2; stroke-opacity:0.1; fill:none" points="193.936,763.573 2352.76,763.573 "/>
<polyline clip-path="url(#clip572)" style="stroke:#000000; stroke-linecap:round; stroke-linejoin:round; stroke-width:2; stroke-opacity:0.1; fill:none" points="193.936,428.393 2352.76,428.393 "/>
<polyline clip-path="url(#clip572)" style="stroke:#000000; stroke-linecap:round; stroke-linejoin:round; stroke-width:2; stroke-opacity:0.1; fill:none" points="193.936,93.2135 2352.76,93.2135 "/>
<polyline clip-path="url(#clip570)" style="stroke:#000000; stroke-linecap:round; stroke-linejoin:round; stroke-width:4; stroke-opacity:1; fill:none" points="193.936,1486.45 193.936,47.2441 "/>
<polyline clip-path="url(#clip570)" style="stroke:#000000; stroke-linecap:round; stroke-linejoin:round; stroke-width:4; stroke-opacity:1; fill:none" points="193.936,1433.93 212.834,1433.93 "/>
<polyline clip-path="url(#clip570)" style="stroke:#000000; stroke-linecap:round; stroke-linejoin:round; stroke-width:4; stroke-opacity:1; fill:none" points="193.936,1098.75 212.834,1098.75 "/>
<polyline clip-path="url(#clip570)" style="stroke:#000000; stroke-linecap:round; stroke-linejoin:round; stroke-width:4; stroke-opacity:1; fill:none" points="193.936,763.573 212.834,763.573 "/>
<polyline clip-path="url(#clip570)" style="stroke:#000000; stroke-linecap:round; stroke-linejoin:round; stroke-width:4; stroke-opacity:1; fill:none" points="193.936,428.393 212.834,428.393 "/>
<polyline clip-path="url(#clip570)" style="stroke:#000000; stroke-linecap:round; stroke-linejoin:round; stroke-width:4; stroke-opacity:1; fill:none" points="193.936,93.2135 212.834,93.2135 "/>
<path clip-path="url(#clip570)" d="M50.9921 1434.38 L80.6679 1434.38 L80.6679 1438.32 L50.9921 1438.32 L50.9921 1434.38 Z" fill="#000000" fill-rule="nonzero" fill-opacity="1" /><path clip-path="url(#clip570)" d="M91.5706 1447.28 L99.2095 1447.28 L99.2095 1420.91 L90.8993 1422.58 L90.8993 1418.32 L99.1632 1416.65 L103.839 1416.65 L103.839 1447.28 L111.478 1447.28 L111.478 1451.21 L91.5706 1451.21 L91.5706 1447.28 Z" fill="#000000" fill-rule="nonzero" fill-opacity="1" /><path clip-path="url(#clip570)" d="M120.922 1445.33 L125.807 1445.33 L125.807 1451.21 L120.922 1451.21 L120.922 1445.33 Z" fill="#000000" fill-rule="nonzero" fill-opacity="1" /><path clip-path="url(#clip570)" d="M145.992 1419.73 Q142.381 1419.73 140.552 1423.3 Q138.746 1426.84 138.746 1433.97 Q138.746 1441.07 140.552 1444.64 Q142.381 1448.18 145.992 1448.18 Q149.626 1448.18 151.431 1444.64 Q153.26 1441.07 153.26 1433.97 Q153.26 1426.84 151.431 1423.3 Q149.626 1419.73 145.992 1419.73 M145.992 1416.03 Q151.802 1416.03 154.857 1420.63 Q157.936 1425.22 157.936 1433.97 Q157.936 1442.69 154.857 1447.3 Q151.802 1451.88 145.992 1451.88 Q140.181 1451.88 137.103 1447.3 Q134.047 1442.69 134.047 1433.97 Q134.047 1425.22 137.103 1420.63 Q140.181 1416.03 145.992 1416.03 Z" fill="#000000" fill-rule="nonzero" fill-opacity="1" /><path clip-path="url(#clip570)" d="M51.9875 1099.2 L81.6633 1099.2 L81.6633 1103.14 L51.9875 1103.14 L51.9875 1099.2 Z" fill="#000000" fill-rule="nonzero" fill-opacity="1" /><path clip-path="url(#clip570)" d="M101.756 1084.55 Q98.1447 1084.55 96.316 1088.12 Q94.5104 1091.66 94.5104 1098.79 Q94.5104 1105.89 96.316 1109.46 Q98.1447 1113 101.756 1113 Q105.39 1113 107.196 1109.46 Q109.024 1105.89 109.024 1098.79 Q109.024 1091.66 107.196 1088.12 Q105.39 1084.55 101.756 1084.55 M101.756 1080.85 Q107.566 1080.85 110.621 1085.45 Q113.7 1090.04 113.7 1098.79 Q113.7 1107.51 110.621 1112.12 Q107.566 1116.7 101.756 1116.7 Q95.9456 1116.7 92.8669 1112.12 Q89.8114 1107.51 89.8114 1098.79 Q89.8114 1090.04 92.8669 1085.45 Q95.9456 1080.85 101.756 1080.85 Z" fill="#000000" fill-rule="nonzero" fill-opacity="1" /><path clip-path="url(#clip570)" d="M121.918 1110.15 L126.802 1110.15 L126.802 1116.03 L121.918 1116.03 L121.918 1110.15 Z" fill="#000000" fill-rule="nonzero" fill-opacity="1" /><path clip-path="url(#clip570)" d="M137.033 1081.47 L155.39 1081.47 L155.39 1085.41 L141.316 1085.41 L141.316 1093.88 Q142.334 1093.53 143.353 1093.37 Q144.371 1093.19 145.39 1093.19 Q151.177 1093.19 154.556 1096.36 Q157.936 1099.53 157.936 1104.94 Q157.936 1110.52 154.464 1113.62 Q150.992 1116.7 144.672 1116.7 Q142.496 1116.7 140.228 1116.33 Q137.982 1115.96 135.575 1115.22 L135.575 1110.52 Q137.658 1111.66 139.881 1112.21 Q142.103 1112.77 144.58 1112.77 Q148.584 1112.77 150.922 1110.66 Q153.26 1108.56 153.26 1104.94 Q153.26 1101.33 150.922 1099.23 Q148.584 1097.12 144.58 1097.12 Q142.705 1097.12 140.83 1097.54 Q138.978 1097.95 137.033 1098.83 L137.033 1081.47 Z" fill="#000000" fill-rule="nonzero" fill-opacity="1" /><path clip-path="url(#clip570)" d="M100.76 749.371 Q97.1493 749.371 95.3206 752.936 Q93.515 756.478 93.515 763.607 Q93.515 770.714 95.3206 774.279 Q97.1493 777.82 100.76 777.82 Q104.395 777.82 106.2 774.279 Q108.029 770.714 108.029 763.607 Q108.029 756.478 106.2 752.936 Q104.395 749.371 100.76 749.371 M100.76 745.668 Q106.571 745.668 109.626 750.274 Q112.705 754.858 112.705 763.607 Q112.705 772.334 109.626 776.941 Q106.571 781.524 100.76 781.524 Q94.9502 781.524 91.8715 776.941 Q88.816 772.334 88.816 763.607 Q88.816 754.858 91.8715 750.274 Q94.9502 745.668 100.76 745.668 Z" fill="#000000" fill-rule="nonzero" fill-opacity="1" /><path clip-path="url(#clip570)" d="M120.922 774.973 L125.807 774.973 L125.807 780.853 L120.922 780.853 L120.922 774.973 Z" fill="#000000" fill-rule="nonzero" fill-opacity="1" /><path clip-path="url(#clip570)" d="M145.992 749.371 Q142.381 749.371 140.552 752.936 Q138.746 756.478 138.746 763.607 Q138.746 770.714 140.552 774.279 Q142.381 777.82 145.992 777.82 Q149.626 777.82 151.431 774.279 Q153.26 770.714 153.26 763.607 Q153.26 756.478 151.431 752.936 Q149.626 749.371 145.992 749.371 M145.992 745.668 Q151.802 745.668 154.857 750.274 Q157.936 754.858 157.936 763.607 Q157.936 772.334 154.857 776.941 Q151.802 781.524 145.992 781.524 Q140.181 781.524 137.103 776.941 Q134.047 772.334 134.047 763.607 Q134.047 754.858 137.103 750.274 Q140.181 745.668 145.992 745.668 Z" fill="#000000" fill-rule="nonzero" fill-opacity="1" /><path clip-path="url(#clip570)" d="M101.756 414.192 Q98.1447 414.192 96.316 417.757 Q94.5104 421.298 94.5104 428.428 Q94.5104 435.534 96.316 439.099 Q98.1447 442.641 101.756 442.641 Q105.39 442.641 107.196 439.099 Q109.024 435.534 109.024 428.428 Q109.024 421.298 107.196 417.757 Q105.39 414.192 101.756 414.192 M101.756 410.488 Q107.566 410.488 110.621 415.095 Q113.7 419.678 113.7 428.428 Q113.7 437.155 110.621 441.761 Q107.566 446.344 101.756 446.344 Q95.9456 446.344 92.8669 441.761 Q89.8114 437.155 89.8114 428.428 Q89.8114 419.678 92.8669 415.095 Q95.9456 410.488 101.756 410.488 Z" fill="#000000" fill-rule="nonzero" fill-opacity="1" /><path clip-path="url(#clip570)" d="M121.918 439.794 L126.802 439.794 L126.802 445.673 L121.918 445.673 L121.918 439.794 Z" fill="#000000" fill-rule="nonzero" fill-opacity="1" /><path clip-path="url(#clip570)" d="M137.033 411.113 L155.39 411.113 L155.39 415.048 L141.316 415.048 L141.316 423.52 Q142.334 423.173 143.353 423.011 Q144.371 422.826 145.39 422.826 Q151.177 422.826 154.556 425.997 Q157.936 429.169 157.936 434.585 Q157.936 440.164 154.464 443.266 Q150.992 446.344 144.672 446.344 Q142.496 446.344 140.228 445.974 Q137.982 445.604 135.575 444.863 L135.575 440.164 Q137.658 441.298 139.881 441.854 Q142.103 442.409 144.58 442.409 Q148.584 442.409 150.922 440.303 Q153.26 438.196 153.26 434.585 Q153.26 430.974 150.922 428.868 Q148.584 426.761 144.58 426.761 Q142.705 426.761 140.83 427.178 Q138.978 427.594 137.033 428.474 L137.033 411.113 Z" fill="#000000" fill-rule="nonzero" fill-opacity="1" /><path clip-path="url(#clip570)" d="M91.5706 106.558 L99.2095 106.558 L99.2095 80.1927 L90.8993 81.8594 L90.8993 77.6001 L99.1632 75.9335 L103.839 75.9335 L103.839 106.558 L111.478 106.558 L111.478 110.493 L91.5706 110.493 L91.5706 106.558 Z" fill="#000000" fill-rule="nonzero" fill-opacity="1" /><path clip-path="url(#clip570)" d="M120.922 104.614 L125.807 104.614 L125.807 110.493 L120.922 110.493 L120.922 104.614 Z" fill="#000000" fill-rule="nonzero" fill-opacity="1" /><path clip-path="url(#clip570)" d="M145.992 79.0121 Q142.381 79.0121 140.552 82.5769 Q138.746 86.1186 138.746 93.2482 Q138.746 100.355 140.552 103.919 Q142.381 107.461 145.992 107.461 Q149.626 107.461 151.431 103.919 Q153.26 100.355 153.26 93.2482 Q153.26 86.1186 151.431 82.5769 Q149.626 79.0121 145.992 79.0121 M145.992 75.3085 Q151.802 75.3085 154.857 79.9149 Q157.936 84.4982 157.936 93.2482 Q157.936 101.975 154.857 106.581 Q151.802 111.165 145.992 111.165 Q140.181 111.165 137.103 106.581 Q134.047 101.975 134.047 93.2482 Q134.047 84.4982 137.103 79.9149 Q140.181 75.3085 145.992 75.3085 Z" fill="#000000" fill-rule="nonzero" fill-opacity="1" /><polyline clip-path="url(#clip572)" style="stroke:#009af9; stroke-linecap:round; stroke-linejoin:round; stroke-width:4; stroke-opacity:1; fill:none" points="1274.16,93.2135 1357.36,96.4867 1439.74,106.634 1520.59,123 1598.8,145.258 1673.95,173.735 1745.44,207.122 1812.24,245.092 1874.15,287.317 1930.36,333.142 1980.87,382.24 2025.27,433.467 2063.15,486.984 2094.1,542.138 2118.14,598.356 2135.24,655.556 2145.02,713.288 2147.46,771.301 2143.39,829.242 2131.17,886.892 2112.43,943.928 2086.37,999.901 2053.78,1054.56 2014.27,1107.59 1968.24,1158.33 1916.1,1206.44 1858.26,1251.29 1794.72,1292.53 1726.7,1329.52 1654.4,1361.59 1578.23,1388.43 1499.21,1409.38 1417.95,1423.78 1335.26,1432.3 1251.96,1433.6 1168.87,1428.69 1086.89,1416.91 1006.75,1398.91 929.157,1374.69 855.024,1345.23 784.557,1310.53 718.977,1271.25 658.693,1227.72 603.704,1181.24 554.826,1131.48 512.464,1079.6 476.212,1025.6 447.292,970.114 425.296,913.569 409.818,856.205 401.671,798.392 401.671,740.394 407.374,682.478 421.223,625.033 441.997,568.324 470.102,512.515 504.725,458.343 545.864,405.808 593.521,355.727 647.288,308.265 706.35,264.404 771.115,224.143 840.36,188.465 913.882,158.024 990.866,132.82 1070.6,113.508 1152.27,100.415 1235.24,93.8681 1318.56,94.1954 1401.45,101.069 1483.12,114.49 1562.55,134.129 1639.33,159.66 1712.44,190.756 1781.69,226.762 1846.04,267.35 1904.7,311.538 1958.06,359 2005.31,409.081 2046.04,461.78 2080.26,516.116 2107.55,571.925 2127.91,628.797 2140.95,686.283 2147.46,744.199 2145.84,802.217 2137.69,860.051 2122.21,917.333 2099.4,973.878 2069.67,1029.2 2033.41,1083.04 1990.24,1134.76 1940.95,1184.18 1885.96,1230.66 1824.86,1273.87 1759.28,1312.82 1688.61,1347.19 1614.28,1376.65 1536.48,1400.22 1456.13,1417.89 1374.01,1429.02 1290.89,1433.93 1207.61,1431.64 1124.98,1423.13 1043.82,1408.07 965.001,1386.8 889.035,1359.63 817.142,1327.22 749.119,1289.91 686.391,1248.67 628.551,1203.5 576.821,1155.05 531.608,1103.99 492.505,1050.96 459.919,996.3 434.257,940.164 416.335,883.128 404.93,825.437 400.857,767.49 404.115,709.482 413.891,651.792 431.814,594.674 456.253,538.374 487.617,483.384 525.905,430.03 570.304,378.967 621.219,330.196 678.245,284.371 740.158,242.473 807.367,204.831 879.056,171.444 954.615,143.621 1033.02,121.691 1113.98,105.652 1196.41,96.1594 1279.64,93.2135 1362.8,97.1413 1445.14,107.288 1525.68,124.309 1603.89,147.222 1678.84,175.699 1749.92,209.413 1816.31,247.71 1877.82,290.262 1934.03,336.415 1984.13,385.514 2028.12,437.067 2065.18,490.585 2095.73,545.739 2119.77,602.12 2136.06,659.32 2145.02,717.134 2147.46,775.111 2142.58,833.047 2130.36,890.656 2110.81,947.529 2084.33,1003.5 2051.34,1058.16 2011.42,1110.86 1964.98,1161.6 1912.44,1209.39 1854.19,1254.23 1790.65,1295.15 1722.22,1331.81 1649.51,1363.56 1573.14,1389.74 1493.91,1410.36 1412.55,1424.77 1329.76,1432.3 1246.49,1433.6 1163.47,1428.04 1081.5,1415.93 1001.46,1397.27 924.065,1373.05 850.136,1342.94 780.076,1307.91 714.904,1268.31 655.027,1224.77 600.446,1177.96 551.974,1128.21 509.612,1076 474.175,1021.99 445.663,966.514 423.667,909.887 409.003,852.441 401.671,794.587 401.671,736.569 408.189,678.714 422.852,621.269 443.626,564.56 472.139,508.915 507.169,454.743 548.716,402.535 596.78,352.454 650.954,305.319 710.831,261.785 775.595,221.852 845.248,186.501 918.974,156.06 995.958,131.183 "/>
<polyline clip-path="url(#clip572)" style="stroke:#e26f46; stroke-linecap:round; stroke-linejoin:round; stroke-width:4; stroke-opacity:1; fill:none" points="1274.16,93.2135 1322.22,89.2856 1367.03,90.5949 1411.02,95.832 1450.94,106.634 1490.04,121.691 1526.7,141.657 1561.73,162.933 1595.13,187.483 1630.98,214.323 1666.82,241.491 1706.33,269.314 1749.92,298.118 1797.57,327.905 1850.52,359.982 1910.81,394.351 1979.24,434.449 2053.78,482.402 2130.36,540.829 2202.86,613.086 2260.7,698.681 2289.21,795.487 2281.88,895.975 2235.45,991.881 2159.68,1076.49 2064.37,1147.52 1960.91,1205.13 1857.45,1252.27 1761.32,1290.24 1671.71,1322.64 1589.43,1351.77 1517.74,1376.32 1450.12,1397.93 1387.4,1416.58 1329.56,1430.99 1274.98,1441.13 1222.84,1445.72 1175.59,1445.06 1131.6,1439.17 1089.24,1428.69 1050.95,1412.33 1015.1,1393.02 979.258,1369.78 943.413,1344.25 907.976,1316.1 870.095,1287.95 828.955,1257.83 784.964,1227.72 734.863,1195.97 679.467,1162.58 615.924,1124.61 545.05,1081.73 466.843,1029.2 388.637,964.877 319.392,886.892 271.328,795.814 255.035,696.308 277.03,595.165 335.685,502.696 422.038,422.501 523.054,357.364 627.329,304.992 727.531,262.767 822.03,227.744 907.569,197.302 984.146,171.444 1055.02,148.204 1118.56,129.219 1177.22,112.526 1230.98,99.7599 1283.94,91.2495 1332.82,87.9763 1378.44,89.9402 1421.61,95.832 1462.34,107.616 1498.19,124.309 1535.66,143.621 1571.51,166.534 1607.76,191.738 1642.79,219.56 1679.45,247.056 1719.77,275.86 1763.36,304.665 1812.64,335.433 1869.67,368.166 1932.8,404.498 2003.68,447.378 2079.85,499.095 2156.43,562.76 2224.86,639.517 2274.55,729.531 2291.66,828.219 2270.48,928.871 2212.64,1021.99 2127.91,1101.7 2029.75,1166.84 1926.69,1219.53 1825.68,1261.76 1731.99,1296.78 1644.83,1326.9 1568.25,1352.76 1495.75,1375.01 1431.39,1394 1371.1,1411.02 1316.52,1422.15 1265.2,1430.33 1217.95,1433.6 1171.51,1431.97 1131.6,1425.42 1093.31,1414.29 1055.83,1399.24 1021.62,1380.25 987.404,1358.97 952.782,1334.75 918.974,1309.55 884.351,1283.36 846.877,1255.87 807.367,1228.05 762.561,1199.24 710.423,1169.45 652.583,1136.39 585.782,1098.1 512.871,1052.93 435.887,996.955 362.568,928.871 302.284,847.531 264.81,754.08 264.81,654.738 300.655,558.341 369.9,471.273 461.141,397.952 564.601,337.724 666.432,290.262 764.19,251.638 852.172,219.888 934.452,192.393 1008.59,168.171 1074.57,147.549 1136.48,129.874 1193.51,115.471 1246.46,104.342 1296.97,97.796 1344.22,95.832 1387.4,99.1053 1428.13,106.634 1464.79,118.417 1502.26,134.456 1537.29,153.768 1569.88,175.699 1602.87,200.248 1635.46,226.107 1671.3,252.293 1710.41,279.788 1752.36,307.938 1800.83,336.742 1855.41,368.166 1917.73,403.189 1986.98,443.45 2062.74,492.221 2140.95,552.94 2212.64,626.751 2264.77,713.901 2289.21,810.38 2277.81,910.541 2225.67,1005.47 2144.21,1087.95 2045.63,1156.36 1941.36,1211.35 1839.53,1255.54 1743.4,1291.55 1657.05,1321.99 1578.02,1349.16 1506.34,1372.4 1440.35,1391.71 1381.69,1408.07 1324.67,1420.84 1273.35,1429.35 1223.65,1432.62 1179.66,1431.31 1135.67,1425.75 1096.57,1415.27 1059.91,1399.89 1024.06,1381.23 989.848,1359.3 955.226,1335.41 923.454,1310.2 888.424,1284.67 851.358,1257.5 811.033,1230.34 765.82,1201.86 715.311,1171.75 656.249,1138.36 591.485,1101.37 517.759,1056.04 441.997,1001.7 368.271,934.763 305.543,853.75 268.069,760.463 264.81,661.939 298.211,565.869 "/>
<polyline clip-path="url(#clip572)" style="stroke:#3da44d; stroke-linecap:round; stroke-linejoin:round; stroke-width:4; stroke-opacity:1; fill:none" points="1274.16,93.2135 1357.66,96.814 1440.35,107.288 1521.61,123.982 1600.22,146.895 1675.58,175.372 1747.47,208.759 1814.27,246.728 1876.59,288.626 1933.21,334.124 1984.13,382.24 2028.53,432.648 2066.81,485.184 2098.18,539.683 2122.21,595.819 2138.5,653.019 2148.28,710.464 2150.72,768.442 2145.84,826.46 2134.43,884.355 2115.69,941.146 2090.03,997.282 2057.45,1051.95 2018.34,1104.64 1973.13,1155.05 1921.81,1202.84 1864.78,1248.01 1802.46,1289.58 1734.84,1327.22 1663.16,1359.63 1587.6,1387.12 1509.39,1408.73 1428.33,1424.11 1346.05,1433.28 1262.55,1435.24 1178.85,1430.66 1095.96,1419.2 1015.1,1401.53 936.692,1377.96 861.337,1348.83 790.259,1314.79 723.458,1276.49 661.952,1233.94 605.741,1188.11 555.233,1139.34 511.649,1088.28 474.99,1035.25 444.033,980.261 421.223,924.207 404.93,867.253 395.969,809.644 394.34,751.544 400.042,693.362 413.077,635.916 432.628,578.962 459.512,523.317 493.32,469.309 533.645,417.264 580.08,366.856 632.217,319.722 690.465,275.533 753.6,234.617 821.623,197.63 893.72,165.552 969.482,138.711 1048.1,117.435 1129.56,102.706 1212.45,94.8501 1295.95,93.8681 1379.25,99.4326 1461.33,111.544 1541.98,129.874 1619.98,154.096 1694.52,183.555 1764.99,218.251 1830.97,257.203 1891.66,300.082 1947.06,345.58 1996.75,394.679 2039.12,446.232 2075.37,499.422 2104.7,554.413 2126.28,610.549 2140.95,667.749 2149.09,725.603 2149.09,783.703 2142.58,841.558 2128.73,899.248 2108.36,956.039 2080.66,1011.52 2046.45,1065.69 2005.72,1118.06 1958.47,1167.82 1905.51,1214.95 1846.86,1258.81 1783.32,1298.75 1714.89,1334.43 1642.38,1365.52 1566.62,1391.38 1487.8,1411.35 1406.95,1425.09 1324.47,1432.62 1241.37,1433.28 1158.07,1426.73 1075.79,1413.97 995.551,1394.33 917.752,1369.12 843.619,1338.68 773.151,1303.33 707.165,1263.72 646.881,1221.17 592.707,1174.69 544.235,1125.59 501.873,1073.88 466.843,1020.52 438.331,964.877 416.335,908.332 402.486,850.723 395.154,793.114 395.969,735.341 404.115,677.65 419.594,619.959 441.589,563.578 470.509,508.26 506.354,454.579 548.308,402.862 596.373,353.436 650.139,306.956 709.609,263.422 773.966,223.488 843.211,188.137 916.53,157.696 993.31,132.82 1073.15,113.508 1155.02,100.742 1237.91,94.8501 1321.41,95.832 1404.5,103.36 1485.77,117.435 1566.01,137.73 1642.59,163.588 1715.7,195.011 1784.95,231.344 1849.3,271.278 1908.36,314.812 1961.32,361.619 2008.16,410.718 2048.89,462.762 2083.11,516.607 2109.99,571.925 2130.36,628.061 2143.39,685.424 2149.09,743.279 2147.46,801.031 2139.32,859.397 2123.02,916.924 2100.21,973.224 2070.48,1028.05 2034.23,1081.57 1991.87,1133.12 1943.39,1182.55 1888.41,1228.7 1828.12,1271.58 1762.95,1310.2 1692.89,1344.57 1619.37,1374.03 1542.38,1397.93 1462.55,1415.93 1380.47,1427.39 1297.79,1432.62 1214.69,1430.66 1132,1422.48 1050.95,1407.75 971.518,1386.47 895.349,1359.96 822.438,1328.21 753.6,1291.87 689.243,1251.61 630.588,1207.42 577.636,1160.29 531.201,1110.54 490.468,1058.16 457.068,1004.16 430.184,948.511 410.633,892.129 398.413,834.848 393.525,777.075 395.969,719.139 405.745,661.284 422.852,604.248 446.885,548.03 477.841,493.367 515.315,440.177 558.899,389.114 609,340.343 664.803,294.518 725.902,251.638 791.888,212.687 862.356,178.318 936.896,149.186 "/>
<path clip-path="url(#clip570)" d="M265.897 1438.47 L781.708 1438.47 L781.708 1231.11 L265.897 1231.11  Z" fill="#ffffff" fill-rule="evenodd" fill-opacity="1"/>
<polyline clip-path="url(#clip570)" style="stroke:#000000; stroke-linecap:round; stroke-linejoin:round; stroke-width:4; stroke-opacity:1; fill:none" points="265.897,1438.47 781.708,1438.47 781.708,1231.11 265.897,1231.11 265.897,1438.47 "/>
<polyline clip-path="url(#clip570)" style="stroke:#009af9; stroke-linecap:round; stroke-linejoin:round; stroke-width:4; stroke-opacity:1; fill:none" points="289.884,1282.95 433.805,1282.95 "/>
<path clip-path="url(#clip570)" d="M465.199 1266.95 L465.199 1274.31 L473.972 1274.31 L473.972 1277.62 L465.199 1277.62 L465.199 1291.69 Q465.199 1294.86 466.056 1295.77 Q466.935 1296.67 469.597 1296.67 L473.972 1296.67 L473.972 1300.23 L469.597 1300.23 Q464.667 1300.23 462.792 1298.41 Q460.917 1296.55 460.917 1291.69 L460.917 1277.62 L457.792 1277.62 L457.792 1274.31 L460.917 1274.31 L460.917 1266.95 L465.199 1266.95 Z" fill="#000000" fill-rule="nonzero" fill-opacity="1" /><path clip-path="url(#clip570)" d="M494.597 1278.29 Q493.88 1277.87 493.023 1277.69 Q492.19 1277.48 491.171 1277.48 Q487.56 1277.48 485.616 1279.84 Q483.694 1282.18 483.694 1286.58 L483.694 1300.23 L479.412 1300.23 L479.412 1274.31 L483.694 1274.31 L483.694 1278.34 Q485.037 1275.98 487.19 1274.84 Q489.343 1273.68 492.421 1273.68 Q492.861 1273.68 493.393 1273.75 Q493.926 1273.8 494.574 1273.92 L494.597 1278.29 Z" fill="#000000" fill-rule="nonzero" fill-opacity="1" /><path clip-path="url(#clip570)" d="M510.847 1287.2 Q505.685 1287.2 503.694 1288.38 Q501.704 1289.56 501.704 1292.41 Q501.704 1294.68 503.185 1296.02 Q504.69 1297.34 507.259 1297.34 Q510.801 1297.34 512.93 1294.84 Q515.083 1292.32 515.083 1288.15 L515.083 1287.2 L510.847 1287.2 M519.342 1285.44 L519.342 1300.23 L515.083 1300.23 L515.083 1296.3 Q513.625 1298.66 511.449 1299.79 Q509.273 1300.91 506.125 1300.91 Q502.143 1300.91 499.782 1298.68 Q497.444 1296.44 497.444 1292.69 Q497.444 1288.31 500.361 1286.09 Q503.301 1283.87 509.111 1283.87 L515.083 1283.87 L515.083 1283.45 Q515.083 1280.51 513.139 1278.92 Q511.217 1277.29 507.722 1277.29 Q505.5 1277.29 503.393 1277.83 Q501.287 1278.36 499.342 1279.42 L499.342 1275.49 Q501.68 1274.59 503.879 1274.15 Q506.079 1273.68 508.162 1273.68 Q513.787 1273.68 516.565 1276.6 Q519.342 1279.52 519.342 1285.44 Z" fill="#000000" fill-rule="nonzero" fill-opacity="1" /><path clip-path="url(#clip570)" d="M528.115 1274.31 L532.375 1274.31 L532.375 1300.23 L528.115 1300.23 L528.115 1274.31 M528.115 1264.22 L532.375 1264.22 L532.375 1269.61 L528.115 1269.61 L528.115 1264.22 Z" fill="#000000" fill-rule="nonzero" fill-opacity="1" /><path clip-path="url(#clip570)" d="M562.837 1284.59 L562.837 1300.23 L558.578 1300.23 L558.578 1284.73 Q558.578 1281.04 557.143 1279.22 Q555.708 1277.39 552.838 1277.39 Q549.388 1277.39 547.398 1279.59 Q545.407 1281.79 545.407 1285.58 L545.407 1300.23 L541.125 1300.23 L541.125 1274.31 L545.407 1274.31 L545.407 1278.34 Q546.935 1276 548.995 1274.84 Q551.078 1273.68 553.787 1273.68 Q558.254 1273.68 560.546 1276.46 Q562.837 1279.22 562.837 1284.59 Z" fill="#000000" fill-rule="nonzero" fill-opacity="1" /><path clip-path="url(#clip570)" d="M571.333 1274.31 L575.592 1274.31 L575.592 1300.23 L571.333 1300.23 L571.333 1274.31 M571.333 1264.22 L575.592 1264.22 L575.592 1269.61 L571.333 1269.61 L571.333 1264.22 Z" fill="#000000" fill-rule="nonzero" fill-opacity="1" /><path clip-path="url(#clip570)" d="M606.055 1284.59 L606.055 1300.23 L601.796 1300.23 L601.796 1284.73 Q601.796 1281.04 600.36 1279.22 Q598.925 1277.39 596.055 1277.39 Q592.606 1277.39 590.615 1279.59 Q588.624 1281.79 588.624 1285.58 L588.624 1300.23 L584.342 1300.23 L584.342 1274.31 L588.624 1274.31 L588.624 1278.34 Q590.152 1276 592.212 1274.84 Q594.296 1273.68 597.004 1273.68 Q601.472 1273.68 603.763 1276.46 Q606.055 1279.22 606.055 1284.59 Z" fill="#000000" fill-rule="nonzero" fill-opacity="1" /><path clip-path="url(#clip570)" d="M631.61 1286.97 Q631.61 1282.34 629.689 1279.79 Q627.791 1277.25 624.342 1277.25 Q620.916 1277.25 618.995 1279.79 Q617.096 1282.34 617.096 1286.97 Q617.096 1291.58 618.995 1294.12 Q620.916 1296.67 624.342 1296.67 Q627.791 1296.67 629.689 1294.12 Q631.61 1291.58 631.61 1286.97 M635.87 1297.02 Q635.87 1303.64 632.93 1306.85 Q629.99 1310.1 623.925 1310.1 Q621.68 1310.1 619.689 1309.75 Q617.698 1309.42 615.823 1308.73 L615.823 1304.59 Q617.698 1305.6 619.527 1306.09 Q621.356 1306.58 623.254 1306.58 Q627.444 1306.58 629.527 1304.38 Q631.61 1302.2 631.61 1297.78 L631.61 1295.67 Q630.291 1297.97 628.231 1299.1 Q626.17 1300.23 623.3 1300.23 Q618.532 1300.23 615.615 1296.6 Q612.698 1292.97 612.698 1286.97 Q612.698 1280.95 615.615 1277.32 Q618.532 1273.68 623.3 1273.68 Q626.17 1273.68 628.231 1274.82 Q630.291 1275.95 631.61 1278.24 L631.61 1274.31 L635.87 1274.31 L635.87 1297.02 Z" fill="#000000" fill-rule="nonzero" fill-opacity="1" /><path clip-path="url(#clip570)" d="M676.772 1278.24 L676.772 1264.22 L681.031 1264.22 L681.031 1300.23 L676.772 1300.23 L676.772 1296.35 Q675.429 1298.66 673.369 1299.79 Q671.332 1300.91 668.462 1300.91 Q663.763 1300.91 660.8 1297.16 Q657.86 1293.41 657.86 1287.29 Q657.86 1281.18 660.8 1277.43 Q663.763 1273.68 668.462 1273.68 Q671.332 1273.68 673.369 1274.82 Q675.429 1275.93 676.772 1278.24 M662.258 1287.29 Q662.258 1291.99 664.18 1294.68 Q666.124 1297.34 669.504 1297.34 Q672.883 1297.34 674.828 1294.68 Q676.772 1291.99 676.772 1287.29 Q676.772 1282.6 674.828 1279.93 Q672.883 1277.25 669.504 1277.25 Q666.124 1277.25 664.18 1279.93 Q662.258 1282.6 662.258 1287.29 Z" fill="#000000" fill-rule="nonzero" fill-opacity="1" /><path clip-path="url(#clip570)" d="M701.587 1287.2 Q696.425 1287.2 694.434 1288.38 Q692.443 1289.56 692.443 1292.41 Q692.443 1294.68 693.925 1296.02 Q695.429 1297.34 697.999 1297.34 Q701.54 1297.34 703.67 1294.84 Q705.823 1292.32 705.823 1288.15 L705.823 1287.2 L701.587 1287.2 M710.082 1285.44 L710.082 1300.23 L705.823 1300.23 L705.823 1296.3 Q704.365 1298.66 702.189 1299.79 Q700.013 1300.91 696.865 1300.91 Q692.883 1300.91 690.522 1298.68 Q688.184 1296.44 688.184 1292.69 Q688.184 1288.31 691.101 1286.09 Q694.04 1283.87 699.851 1283.87 L705.823 1283.87 L705.823 1283.45 Q705.823 1280.51 703.878 1278.92 Q701.957 1277.29 698.462 1277.29 Q696.24 1277.29 694.133 1277.83 Q692.027 1278.36 690.082 1279.42 L690.082 1275.49 Q692.42 1274.59 694.619 1274.15 Q696.818 1273.68 698.902 1273.68 Q704.527 1273.68 707.304 1276.6 Q710.082 1279.52 710.082 1285.44 Z" fill="#000000" fill-rule="nonzero" fill-opacity="1" /><path clip-path="url(#clip570)" d="M723.068 1266.95 L723.068 1274.31 L731.841 1274.31 L731.841 1277.62 L723.068 1277.62 L723.068 1291.69 Q723.068 1294.86 723.925 1295.77 Q724.804 1296.67 727.466 1296.67 L731.841 1296.67 L731.841 1300.23 L727.466 1300.23 Q722.536 1300.23 720.661 1298.41 Q718.786 1296.55 718.786 1291.69 L718.786 1277.62 L715.661 1277.62 L715.661 1274.31 L718.786 1274.31 L718.786 1266.95 L723.068 1266.95 Z" fill="#000000" fill-rule="nonzero" fill-opacity="1" /><path clip-path="url(#clip570)" d="M749.225 1287.2 Q744.063 1287.2 742.073 1288.38 Q740.082 1289.56 740.082 1292.41 Q740.082 1294.68 741.563 1296.02 Q743.068 1297.34 745.637 1297.34 Q749.179 1297.34 751.309 1294.84 Q753.461 1292.32 753.461 1288.15 L753.461 1287.2 L749.225 1287.2 M757.721 1285.44 L757.721 1300.23 L753.461 1300.23 L753.461 1296.3 Q752.003 1298.66 749.827 1299.79 Q747.651 1300.91 744.503 1300.91 Q740.522 1300.91 738.161 1298.68 Q735.823 1296.44 735.823 1292.69 Q735.823 1288.31 738.739 1286.09 Q741.679 1283.87 747.489 1283.87 L753.461 1283.87 L753.461 1283.45 Q753.461 1280.51 751.517 1278.92 Q749.596 1277.29 746.1 1277.29 Q743.878 1277.29 741.772 1277.83 Q739.665 1278.36 737.721 1279.42 L737.721 1275.49 Q740.059 1274.59 742.258 1274.15 Q744.457 1273.68 746.54 1273.68 Q752.165 1273.68 754.943 1276.6 Q757.721 1279.52 757.721 1285.44 Z" fill="#000000" fill-rule="nonzero" fill-opacity="1" /><polyline clip-path="url(#clip570)" style="stroke:#e26f46; stroke-linecap:round; stroke-linejoin:round; stroke-width:4; stroke-opacity:1; fill:none" points="289.884,1334.79 433.805,1334.79 "/>
<path clip-path="url(#clip570)" d="M457.792 1317.51 L462.468 1317.51 L462.468 1348.14 L479.296 1348.14 L479.296 1352.07 L457.792 1352.07 L457.792 1317.51 Z" fill="#000000" fill-rule="nonzero" fill-opacity="1" /><path clip-path="url(#clip570)" d="M496.842 1322.12 L490.5 1339.32 L503.208 1339.32 L496.842 1322.12 M494.204 1317.51 L499.505 1317.51 L512.676 1352.07 L507.815 1352.07 L504.667 1343.21 L489.088 1343.21 L485.94 1352.07 L481.009 1352.07 L494.204 1317.51 Z" fill="#000000" fill-rule="nonzero" fill-opacity="1" /><path clip-path="url(#clip570)" d="M553.509 1318.65 L553.509 1323.21 Q550.847 1321.94 548.486 1321.31 Q546.125 1320.69 543.926 1320.69 Q540.106 1320.69 538.023 1322.17 Q535.963 1323.65 535.963 1326.38 Q535.963 1328.67 537.328 1329.85 Q538.717 1331.01 542.56 1331.73 L545.384 1332.31 Q550.615 1333.3 553.092 1335.82 Q555.592 1338.32 555.592 1342.54 Q555.592 1347.56 552.213 1350.15 Q548.856 1352.75 542.351 1352.75 Q539.898 1352.75 537.12 1352.19 Q534.365 1351.63 531.402 1350.55 L531.402 1345.73 Q534.25 1347.33 536.981 1348.14 Q539.713 1348.95 542.351 1348.95 Q546.356 1348.95 548.532 1347.38 Q550.708 1345.8 550.708 1342.88 Q550.708 1340.34 549.134 1338.9 Q547.583 1337.47 544.018 1336.75 L541.171 1336.19 Q535.939 1335.15 533.602 1332.93 Q531.264 1330.71 531.264 1326.75 Q531.264 1322.17 534.481 1319.53 Q537.722 1316.89 543.393 1316.89 Q545.824 1316.89 548.347 1317.33 Q550.87 1317.77 553.509 1318.65 Z" fill="#000000" fill-rule="nonzero" fill-opacity="1" /><path clip-path="url(#clip570)" d="M573.486 1354.48 Q571.68 1359.11 569.967 1360.52 Q568.254 1361.94 565.384 1361.94 L561.981 1361.94 L561.981 1358.37 L564.481 1358.37 Q566.24 1358.37 567.212 1357.54 Q568.185 1356.7 569.365 1353.6 L570.129 1351.66 L559.643 1326.15 L564.157 1326.15 L572.259 1346.43 L580.361 1326.15 L584.874 1326.15 L573.486 1354.48 Z" fill="#000000" fill-rule="nonzero" fill-opacity="1" /><path clip-path="url(#clip570)" d="M610.939 1331.13 Q612.536 1328.26 614.759 1326.89 Q616.981 1325.52 619.99 1325.52 Q624.041 1325.52 626.24 1328.37 Q628.439 1331.19 628.439 1336.43 L628.439 1352.07 L624.157 1352.07 L624.157 1336.57 Q624.157 1332.84 622.837 1331.03 Q621.518 1329.23 618.809 1329.23 Q615.499 1329.23 613.578 1331.43 Q611.657 1333.63 611.657 1337.42 L611.657 1352.07 L607.374 1352.07 L607.374 1336.57 Q607.374 1332.82 606.055 1331.03 Q604.735 1329.23 601.981 1329.23 Q598.717 1329.23 596.796 1331.45 Q594.874 1333.65 594.874 1337.42 L594.874 1352.07 L590.592 1352.07 L590.592 1326.15 L594.874 1326.15 L594.874 1330.18 Q596.333 1327.79 598.37 1326.66 Q600.407 1325.52 603.208 1325.52 Q606.032 1325.52 607.999 1326.96 Q609.99 1328.39 610.939 1331.13 Z" fill="#000000" fill-rule="nonzero" fill-opacity="1" /><path clip-path="url(#clip570)" d="M641.055 1348.19 L641.055 1361.94 L636.772 1361.94 L636.772 1326.15 L641.055 1326.15 L641.055 1330.08 Q642.397 1327.77 644.434 1326.66 Q646.494 1325.52 649.342 1325.52 Q654.064 1325.52 657.004 1329.27 Q659.967 1333.02 659.967 1339.13 Q659.967 1345.25 657.004 1349 Q654.064 1352.75 649.342 1352.75 Q646.494 1352.75 644.434 1351.63 Q642.397 1350.5 641.055 1348.19 M655.545 1339.13 Q655.545 1334.44 653.601 1331.77 Q651.68 1329.09 648.3 1329.09 Q644.92 1329.09 642.976 1331.77 Q641.055 1334.44 641.055 1339.13 Q641.055 1343.83 642.976 1346.52 Q644.92 1349.18 648.3 1349.18 Q651.68 1349.18 653.601 1346.52 Q655.545 1343.83 655.545 1339.13 Z" fill="#000000" fill-rule="nonzero" fill-opacity="1" /><path clip-path="url(#clip570)" d="M688.578 1336.43 L688.578 1352.07 L684.318 1352.07 L684.318 1336.57 Q684.318 1332.88 682.883 1331.06 Q681.448 1329.23 678.578 1329.23 Q675.129 1329.23 673.138 1331.43 Q671.147 1333.63 671.147 1337.42 L671.147 1352.07 L666.865 1352.07 L666.865 1326.15 L671.147 1326.15 L671.147 1330.18 Q672.675 1327.84 674.735 1326.68 Q676.818 1325.52 679.527 1325.52 Q683.994 1325.52 686.286 1328.3 Q688.578 1331.06 688.578 1336.43 Z" fill="#000000" fill-rule="nonzero" fill-opacity="1" /><path clip-path="url(#clip570)" d="M719.249 1338.05 L719.249 1340.13 L699.665 1340.13 Q699.943 1344.53 702.304 1346.84 Q704.689 1349.13 708.925 1349.13 Q711.378 1349.13 713.67 1348.53 Q715.985 1347.93 718.253 1346.73 L718.253 1350.75 Q715.962 1351.73 713.554 1352.24 Q711.147 1352.75 708.67 1352.75 Q702.466 1352.75 698.832 1349.13 Q695.221 1345.52 695.221 1339.37 Q695.221 1333 698.647 1329.27 Q702.096 1325.52 707.929 1325.52 Q713.161 1325.52 716.193 1328.9 Q719.249 1332.26 719.249 1338.05 M714.989 1336.8 Q714.943 1333.3 713.022 1331.22 Q711.124 1329.13 707.976 1329.13 Q704.411 1329.13 702.258 1331.15 Q700.128 1333.16 699.804 1336.82 L714.989 1336.8 Z" fill="#000000" fill-rule="nonzero" fill-opacity="1" /><path clip-path="url(#clip570)" d="M730.452 1318.79 L730.452 1326.15 L739.225 1326.15 L739.225 1329.46 L730.452 1329.46 L730.452 1343.53 Q730.452 1346.7 731.309 1347.61 Q732.188 1348.51 734.85 1348.51 L739.225 1348.51 L739.225 1352.07 L734.85 1352.07 Q729.92 1352.07 728.045 1350.25 Q726.17 1348.39 726.17 1343.53 L726.17 1329.46 L723.045 1329.46 L723.045 1326.15 L726.17 1326.15 L726.17 1318.79 L730.452 1318.79 Z" fill="#000000" fill-rule="nonzero" fill-opacity="1" /><polyline clip-path="url(#clip570)" style="stroke:#3da44d; stroke-linecap:round; stroke-linejoin:round; stroke-width:4; stroke-opacity:1; fill:none" points="289.884,1386.63 433.805,1386.63 "/>
<path clip-path="url(#clip570)" d="M483.347 1398.98 L483.347 1389.7 L475.708 1389.7 L475.708 1385.86 L487.977 1385.86 L487.977 1400.7 Q485.268 1402.62 482.005 1403.61 Q478.741 1404.59 475.037 1404.59 Q466.935 1404.59 462.352 1399.86 Q457.792 1395.12 457.792 1386.67 Q457.792 1378.2 462.352 1373.47 Q466.935 1368.73 475.037 1368.73 Q478.417 1368.73 481.449 1369.56 Q484.505 1370.4 487.074 1372.02 L487.074 1376.99 Q484.481 1374.79 481.565 1373.68 Q478.648 1372.57 475.431 1372.57 Q469.088 1372.57 465.894 1376.11 Q462.722 1379.66 462.722 1386.67 Q462.722 1393.66 465.894 1397.2 Q469.088 1400.74 475.431 1400.74 Q477.907 1400.74 479.852 1400.33 Q481.796 1399.89 483.347 1398.98 Z" fill="#000000" fill-rule="nonzero" fill-opacity="1" /><path clip-path="url(#clip570)" d="M532.305 1370.49 L532.305 1375.05 Q529.643 1373.78 527.282 1373.15 Q524.921 1372.53 522.722 1372.53 Q518.903 1372.53 516.819 1374.01 Q514.759 1375.49 514.759 1378.22 Q514.759 1380.51 516.125 1381.69 Q517.514 1382.85 521.356 1383.57 L524.18 1384.15 Q529.412 1385.14 531.889 1387.66 Q534.389 1390.16 534.389 1394.38 Q534.389 1399.4 531.009 1401.99 Q527.653 1404.59 521.148 1404.59 Q518.694 1404.59 515.916 1404.03 Q513.162 1403.47 510.199 1402.39 L510.199 1397.57 Q513.046 1399.17 515.778 1399.98 Q518.509 1400.79 521.148 1400.79 Q525.153 1400.79 527.328 1399.22 Q529.504 1397.64 529.504 1394.72 Q529.504 1392.18 527.93 1390.74 Q526.379 1389.31 522.815 1388.59 L519.967 1388.03 Q514.736 1386.99 512.398 1384.77 Q510.06 1382.55 510.06 1378.59 Q510.06 1374.01 513.278 1371.37 Q516.518 1368.73 522.19 1368.73 Q524.62 1368.73 527.143 1369.17 Q529.666 1369.61 532.305 1370.49 Z" fill="#000000" fill-rule="nonzero" fill-opacity="1" /><path clip-path="url(#clip570)" d="M552.282 1406.32 Q550.476 1410.95 548.763 1412.36 Q547.051 1413.78 544.18 1413.78 L540.777 1413.78 L540.777 1410.21 L543.277 1410.21 Q545.037 1410.21 546.009 1409.38 Q546.981 1408.54 548.162 1405.44 L548.926 1403.5 L538.439 1377.99 L542.953 1377.99 L551.055 1398.27 L559.157 1377.99 L563.671 1377.99 L552.282 1406.32 Z" fill="#000000" fill-rule="nonzero" fill-opacity="1" /><path clip-path="url(#clip570)" d="M589.736 1382.97 Q591.333 1380.1 593.555 1378.73 Q595.777 1377.36 598.786 1377.36 Q602.837 1377.36 605.036 1380.21 Q607.235 1383.03 607.235 1388.27 L607.235 1403.91 L602.953 1403.91 L602.953 1388.41 Q602.953 1384.68 601.634 1382.87 Q600.314 1381.07 597.606 1381.07 Q594.296 1381.07 592.374 1383.27 Q590.453 1385.47 590.453 1389.26 L590.453 1403.91 L586.171 1403.91 L586.171 1388.41 Q586.171 1384.66 584.851 1382.87 Q583.532 1381.07 580.777 1381.07 Q577.513 1381.07 575.592 1383.29 Q573.671 1385.49 573.671 1389.26 L573.671 1403.91 L569.388 1403.91 L569.388 1377.99 L573.671 1377.99 L573.671 1382.02 Q575.129 1379.63 577.166 1378.5 Q579.203 1377.36 582.004 1377.36 Q584.828 1377.36 586.796 1378.8 Q588.786 1380.23 589.736 1382.97 Z" fill="#000000" fill-rule="nonzero" fill-opacity="1" /><path clip-path="url(#clip570)" d="M619.851 1400.03 L619.851 1413.78 L615.569 1413.78 L615.569 1377.99 L619.851 1377.99 L619.851 1381.92 Q621.194 1379.61 623.231 1378.5 Q625.291 1377.36 628.138 1377.36 Q632.86 1377.36 635.8 1381.11 Q638.763 1384.86 638.763 1390.97 Q638.763 1397.09 635.8 1400.84 Q632.86 1404.59 628.138 1404.59 Q625.291 1404.59 623.231 1403.47 Q621.194 1402.34 619.851 1400.03 M634.342 1390.97 Q634.342 1386.28 632.397 1383.61 Q630.476 1380.93 627.096 1380.93 Q623.717 1380.93 621.772 1383.61 Q619.851 1386.28 619.851 1390.97 Q619.851 1395.67 621.772 1398.36 Q623.717 1401.02 627.096 1401.02 Q630.476 1401.02 632.397 1398.36 Q634.342 1395.67 634.342 1390.97 Z" fill="#000000" fill-rule="nonzero" fill-opacity="1" /><path clip-path="url(#clip570)" d="M667.374 1388.27 L667.374 1403.91 L663.115 1403.91 L663.115 1388.41 Q663.115 1384.72 661.68 1382.9 Q660.244 1381.07 657.374 1381.07 Q653.925 1381.07 651.934 1383.27 Q649.944 1385.47 649.944 1389.26 L649.944 1403.91 L645.661 1403.91 L645.661 1377.99 L649.944 1377.99 L649.944 1382.02 Q651.471 1379.68 653.531 1378.52 Q655.615 1377.36 658.323 1377.36 Q662.791 1377.36 665.082 1380.14 Q667.374 1382.9 667.374 1388.27 Z" fill="#000000" fill-rule="nonzero" fill-opacity="1" /><path clip-path="url(#clip570)" d="M698.045 1389.89 L698.045 1391.97 L678.462 1391.97 Q678.74 1396.37 681.101 1398.68 Q683.485 1400.97 687.721 1400.97 Q690.175 1400.97 692.466 1400.37 Q694.781 1399.77 697.05 1398.57 L697.05 1402.59 Q694.758 1403.57 692.351 1404.08 Q689.943 1404.59 687.466 1404.59 Q681.263 1404.59 677.629 1400.97 Q674.017 1397.36 674.017 1391.21 Q674.017 1384.84 677.443 1381.11 Q680.892 1377.36 686.726 1377.36 Q691.957 1377.36 694.99 1380.74 Q698.045 1384.1 698.045 1389.89 M693.786 1388.64 Q693.74 1385.14 691.818 1383.06 Q689.92 1380.97 686.772 1380.97 Q683.207 1380.97 681.054 1382.99 Q678.925 1385 678.601 1388.66 L693.786 1388.64 Z" fill="#000000" fill-rule="nonzero" fill-opacity="1" /><path clip-path="url(#clip570)" d="M709.249 1370.63 L709.249 1377.99 L718.022 1377.99 L718.022 1381.3 L709.249 1381.3 L709.249 1395.37 Q709.249 1398.54 710.105 1399.45 Q710.985 1400.35 713.647 1400.35 L718.022 1400.35 L718.022 1403.91 L713.647 1403.91 Q708.716 1403.91 706.841 1402.09 Q704.966 1400.23 704.966 1395.37 L704.966 1381.3 L701.841 1381.3 L701.841 1377.99 L704.966 1377.99 L704.966 1370.63 L709.249 1370.63 Z" fill="#000000" fill-rule="nonzero" fill-opacity="1" /></svg>
