<?xml version="1.0" encoding="utf-8"?>
<svg xmlns="http://www.w3.org/2000/svg" xmlns:xlink="http://www.w3.org/1999/xlink" width="600" height="400" viewBox="0 0 2400 1600">
<defs>
  <clipPath id="clip140">
    <rect x="0" y="0" width="2400" height="1600"/>
  </clipPath>
</defs>
<path clip-path="url(#clip140)" d="M0 1600 L2400 1600 L2400 0 L0 0  Z" fill="#ffffff" fill-rule="evenodd" fill-opacity="1"/>
<defs>
  <clipPath id="clip141">
    <rect x="480" y="0" width="1681" height="1600"/>
  </clipPath>
</defs>
<path clip-path="url(#clip140)" d="M193.936 1486.45 L2352.76 1486.45 L2352.76 47.2441 L193.936 47.2441  Z" fill="#ffffff" fill-rule="evenodd" fill-opacity="1"/>
<defs>
  <clipPath id="clip142">
    <rect x="193" y="47" width="2160" height="1440"/>
  </clipPath>
</defs>
<polyline clip-path="url(#clip142)" style="stroke:#000000; stroke-linecap:round; stroke-linejoin:round; stroke-width:2; stroke-opacity:0.1; fill:none" points="306.797,1486.45 306.797,47.2441 "/>
<polyline clip-path="url(#clip142)" style="stroke:#000000; stroke-linecap:round; stroke-linejoin:round; stroke-width:2; stroke-opacity:0.1; fill:none" points="788.66,1486.45 788.66,47.2441 "/>
<polyline clip-path="url(#clip142)" style="stroke:#000000; stroke-linecap:round; stroke-linejoin:round; stroke-width:2; stroke-opacity:0.1; fill:none" points="1270.52,1486.45 1270.52,47.2441 "/>
<polyline clip-path="url(#clip142)" style="stroke:#000000; stroke-linecap:round; stroke-linejoin:round; stroke-width:2; stroke-opacity:0.1; fill:none" points="1752.39,1486.45 1752.39,47.2441 "/>
<polyline clip-path="url(#clip142)" style="stroke:#000000; stroke-linecap:round; stroke-linejoin:round; stroke-width:2; stroke-opacity:0.1; fill:none" points="2234.25,1486.45 2234.25,47.2441 "/>
<polyline clip-path="url(#clip140)" style="stroke:#000000; stroke-linecap:round; stroke-linejoin:round; stroke-width:4; stroke-opacity:1; fill:none" points="193.936,1486.45 2352.76,1486.45 "/>
<polyline clip-path="url(#clip140)" style="stroke:#000000; stroke-linecap:round; stroke-linejoin:round; stroke-width:4; stroke-opacity:1; fill:none" points="306.797,1486.45 306.797,1467.55 "/>
<polyline clip-path="url(#clip140)" style="stroke:#000000; stroke-linecap:round; stroke-linejoin:round; stroke-width:4; stroke-opacity:1; fill:none" points="788.66,1486.45 788.66,1467.55 "/>
<polyline clip-path="url(#clip140)" style="stroke:#000000; stroke-linecap:round; stroke-linejoin:round; stroke-width:4; stroke-opacity:1; fill:none" points="1270.52,1486.45 1270.52,1467.55 "/>
<polyline clip-path="url(#clip140)" style="stroke:#000000; stroke-linecap:round; stroke-linejoin:round; stroke-width:4; stroke-opacity:1; fill:none" points="1752.39,1486.45 1752.39,1467.55 "/>
<polyline clip-path="url(#clip140)" style="stroke:#000000; stroke-linecap:round; stroke-linejoin:round; stroke-width:4; stroke-opacity:1; fill:none" points="2234.25,1486.45 2234.25,1467.55 "/>
<path clip-path="url(#clip140)" d="M253.325 1532.02 L283.001 1532.02 L283.001 1535.95 L253.325 1535.95 L253.325 1532.02 Z" fill="#000000" fill-rule="nonzero" fill-opacity="1" /><path clip-path="url(#clip140)" d="M293.904 1544.91 L301.543 1544.91 L301.543 1518.55 L293.233 1520.21 L293.233 1515.95 L301.496 1514.29 L306.172 1514.29 L306.172 1544.91 L313.811 1544.91 L313.811 1548.85 L293.904 1548.85 L293.904 1544.91 Z" fill="#000000" fill-rule="nonzero" fill-opacity="1" /><path clip-path="url(#clip140)" d="M323.256 1542.97 L328.14 1542.97 L328.14 1548.85 L323.256 1548.85 L323.256 1542.97 Z" fill="#000000" fill-rule="nonzero" fill-opacity="1" /><path clip-path="url(#clip140)" d="M348.325 1517.37 Q344.714 1517.37 342.885 1520.93 Q341.079 1524.47 341.079 1531.6 Q341.079 1538.71 342.885 1542.27 Q344.714 1545.82 348.325 1545.82 Q351.959 1545.82 353.765 1542.27 Q355.593 1538.71 355.593 1531.6 Q355.593 1524.47 353.765 1520.93 Q351.959 1517.37 348.325 1517.37 M348.325 1513.66 Q354.135 1513.66 357.191 1518.27 Q360.269 1522.85 360.269 1531.6 Q360.269 1540.33 357.191 1544.94 Q354.135 1549.52 348.325 1549.52 Q342.515 1549.52 339.436 1544.94 Q336.38 1540.33 336.38 1531.6 Q336.38 1522.85 339.436 1518.27 Q342.515 1513.66 348.325 1513.66 Z" fill="#000000" fill-rule="nonzero" fill-opacity="1" /><path clip-path="url(#clip140)" d="M735.686 1532.02 L765.361 1532.02 L765.361 1535.95 L735.686 1535.95 L735.686 1532.02 Z" fill="#000000" fill-rule="nonzero" fill-opacity="1" /><path clip-path="url(#clip140)" d="M785.454 1517.37 Q781.843 1517.37 780.014 1520.93 Q778.209 1524.47 778.209 1531.6 Q778.209 1538.71 780.014 1542.27 Q781.843 1545.82 785.454 1545.82 Q789.088 1545.82 790.894 1542.27 Q792.722 1538.71 792.722 1531.6 Q792.722 1524.47 790.894 1520.93 Q789.088 1517.37 785.454 1517.37 M785.454 1513.66 Q791.264 1513.66 794.32 1518.27 Q797.398 1522.85 797.398 1531.6 Q797.398 1540.33 794.32 1544.94 Q791.264 1549.52 785.454 1549.52 Q779.644 1549.52 776.565 1544.94 Q773.51 1540.33 773.51 1531.6 Q773.51 1522.85 776.565 1518.27 Q779.644 1513.66 785.454 1513.66 Z" fill="#000000" fill-rule="nonzero" fill-opacity="1" /><path clip-path="url(#clip140)" d="M805.616 1542.97 L810.5 1542.97 L810.5 1548.85 L805.616 1548.85 L805.616 1542.97 Z" fill="#000000" fill-rule="nonzero" fill-opacity="1" /><path clip-path="url(#clip140)" d="M820.731 1514.29 L839.088 1514.29 L839.088 1518.22 L825.014 1518.22 L825.014 1526.7 Q826.032 1526.35 827.051 1526.19 Q828.069 1526 829.088 1526 Q834.875 1526 838.255 1529.17 Q841.634 1532.34 841.634 1537.76 Q841.634 1543.34 838.162 1546.44 Q834.69 1549.52 828.37 1549.52 Q826.194 1549.52 823.926 1549.15 Q821.681 1548.78 819.273 1548.04 L819.273 1543.34 Q821.356 1544.47 823.579 1545.03 Q825.801 1545.58 828.278 1545.58 Q832.282 1545.58 834.62 1543.48 Q836.958 1541.37 836.958 1537.76 Q836.958 1534.15 834.62 1532.04 Q832.282 1529.94 828.278 1529.94 Q826.403 1529.94 824.528 1530.35 Q822.676 1530.77 820.731 1531.65 L820.731 1514.29 Z" fill="#000000" fill-rule="nonzero" fill-opacity="1" /><path clip-path="url(#clip140)" d="M1247.91 1517.37 Q1244.3 1517.37 1242.47 1520.93 Q1240.66 1524.47 1240.66 1531.6 Q1240.66 1538.71 1242.47 1542.27 Q1244.3 1545.82 1247.91 1545.82 Q1251.54 1545.82 1253.35 1542.27 Q1255.18 1538.71 1255.18 1531.6 Q1255.18 1524.47 1253.35 1520.93 Q1251.54 1517.37 1247.91 1517.37 M1247.91 1513.66 Q1253.72 1513.66 1256.77 1518.27 Q1259.85 1522.85 1259.85 1531.6 Q1259.85 1540.33 1256.77 1544.94 Q1253.72 1549.52 1247.91 1549.52 Q1242.1 1549.52 1239.02 1544.94 Q1235.96 1540.33 1235.96 1531.6 Q1235.96 1522.85 1239.02 1518.27 Q1242.1 1513.66 1247.91 1513.66 Z" fill="#000000" fill-rule="nonzero" fill-opacity="1" /><path clip-path="url(#clip140)" d="M1268.07 1542.97 L1272.95 1542.97 L1272.95 1548.85 L1268.07 1548.85 L1268.07 1542.97 Z" fill="#000000" fill-rule="nonzero" fill-opacity="1" /><path clip-path="url(#clip140)" d="M1293.14 1517.37 Q1289.53 1517.37 1287.7 1520.93 Q1285.89 1524.47 1285.89 1531.6 Q1285.89 1538.71 1287.7 1542.27 Q1289.53 1545.82 1293.14 1545.82 Q1296.77 1545.82 1298.58 1542.27 Q1300.41 1538.71 1300.41 1531.6 Q1300.41 1524.47 1298.58 1520.93 Q1296.77 1517.37 1293.14 1517.37 M1293.14 1513.66 Q1298.95 1513.66 1302 1518.27 Q1305.08 1522.85 1305.08 1531.6 Q1305.08 1540.33 1302 1544.94 Q1298.95 1549.52 1293.14 1549.52 Q1287.33 1549.52 1284.25 1544.94 Q1281.19 1540.33 1281.19 1531.6 Q1281.19 1522.85 1284.25 1518.27 Q1287.33 1513.66 1293.14 1513.66 Z" fill="#000000" fill-rule="nonzero" fill-opacity="1" /><path clip-path="url(#clip140)" d="M1730.27 1517.37 Q1726.66 1517.37 1724.83 1520.93 Q1723.02 1524.47 1723.02 1531.6 Q1723.02 1538.71 1724.83 1542.27 Q1726.66 1545.82 1730.27 1545.82 Q1733.9 1545.82 1735.71 1542.27 Q1737.54 1538.71 1737.54 1531.6 Q1737.54 1524.47 1735.71 1520.93 Q1733.9 1517.37 1730.27 1517.37 M1730.27 1513.66 Q1736.08 1513.66 1739.13 1518.27 Q1742.21 1522.85 1742.21 1531.6 Q1742.21 1540.33 1739.13 1544.94 Q1736.08 1549.52 1730.27 1549.52 Q1724.46 1549.52 1721.38 1544.94 Q1718.32 1540.33 1718.32 1531.6 Q1718.32 1522.85 1721.38 1518.27 Q1724.46 1513.66 1730.27 1513.66 Z" fill="#000000" fill-rule="nonzero" fill-opacity="1" /><path clip-path="url(#clip140)" d="M1750.43 1542.97 L1755.31 1542.97 L1755.31 1548.85 L1750.43 1548.85 L1750.43 1542.97 Z" fill="#000000" fill-rule="nonzero" fill-opacity="1" /><path clip-path="url(#clip140)" d="M1765.54 1514.29 L1783.9 1514.29 L1783.9 1518.22 L1769.83 1518.22 L1769.83 1526.7 Q1770.85 1526.35 1771.86 1526.19 Q1772.88 1526 1773.9 1526 Q1779.69 1526 1783.07 1529.17 Q1786.45 1532.34 1786.45 1537.76 Q1786.45 1543.34 1782.98 1546.44 Q1779.5 1549.52 1773.18 1549.52 Q1771.01 1549.52 1768.74 1549.15 Q1766.49 1548.78 1764.09 1548.04 L1764.09 1543.34 Q1766.17 1544.47 1768.39 1545.03 Q1770.61 1545.58 1773.09 1545.58 Q1777.1 1545.58 1779.43 1543.48 Q1781.77 1541.37 1781.77 1537.76 Q1781.77 1534.15 1779.43 1532.04 Q1777.1 1529.94 1773.09 1529.94 Q1771.22 1529.94 1769.34 1530.35 Q1767.49 1530.77 1765.54 1531.65 L1765.54 1514.29 Z" fill="#000000" fill-rule="nonzero" fill-opacity="1" /><path clip-path="url(#clip140)" d="M2201.4 1544.91 L2209.04 1544.91 L2209.04 1518.55 L2200.73 1520.21 L2200.73 1515.95 L2208.99 1514.29 L2213.67 1514.29 L2213.67 1544.91 L2221.31 1544.91 L2221.31 1548.85 L2201.4 1548.85 L2201.4 1544.91 Z" fill="#000000" fill-rule="nonzero" fill-opacity="1" /><path clip-path="url(#clip140)" d="M2230.75 1542.97 L2235.64 1542.97 L2235.64 1548.85 L2230.75 1548.85 L2230.75 1542.97 Z" fill="#000000" fill-rule="nonzero" fill-opacity="1" /><path clip-path="url(#clip140)" d="M2255.82 1517.37 Q2252.21 1517.37 2250.38 1520.93 Q2248.58 1524.47 2248.58 1531.6 Q2248.58 1538.71 2250.38 1542.27 Q2252.21 1545.82 2255.82 1545.82 Q2259.46 1545.82 2261.26 1542.27 Q2263.09 1538.71 2263.09 1531.6 Q2263.09 1524.47 2261.26 1520.93 Q2259.46 1517.37 2255.82 1517.37 M2255.82 1513.66 Q2261.63 1513.66 2264.69 1518.27 Q2267.77 1522.85 2267.77 1531.6 Q2267.77 1540.33 2264.69 1544.94 Q2261.63 1549.52 2255.82 1549.52 Q2250.01 1549.52 2246.93 1544.94 Q2243.88 1540.33 2243.88 1531.6 Q2243.88 1522.85 2246.93 1518.27 Q2250.01 1513.66 2255.82 1513.66 Z" fill="#000000" fill-rule="nonzero" fill-opacity="1" /><polyline clip-path="url(#clip142)" style="stroke:#000000; stroke-linecap:round; stroke-linejoin:round; stroke-width:2; stroke-opacity:0.1; fill:none" points="193.936,1430.17 2352.76,1430.17 "/>
<polyline clip-path="url(#clip142)" style="stroke:#000000; stroke-linecap:round; stroke-linejoin:round; stroke-width:2; stroke-opacity:0.1; fill:none" points="193.936,1098.51 2352.76,1098.51 "/>
<polyline clip-path="url(#clip142)" style="stroke:#000000; stroke-linecap:round; stroke-linejoin:round; stroke-width:2; stroke-opacity:0.1; fill:none" points="193.936,766.846 2352.76,766.846 "/>
<polyline clip-path="url(#clip142)" style="stroke:#000000; stroke-linecap:round; stroke-linejoin:round; stroke-width:2; stroke-opacity:0.1; fill:none" points="193.936,435.184 2352.76,435.184 "/>
<polyline clip-path="url(#clip142)" style="stroke:#000000; stroke-linecap:round; stroke-linejoin:round; stroke-width:2; stroke-opacity:0.1; fill:none" points="193.936,103.523 2352.76,103.523 "/>
<polyline clip-path="url(#clip140)" style="stroke:#000000; stroke-linecap:round; stroke-linejoin:round; stroke-width:4; stroke-opacity:1; fill:none" points="193.936,1486.45 193.936,47.2441 "/>
<polyline clip-path="url(#clip140)" style="stroke:#000000; stroke-linecap:round; stroke-linejoin:round; stroke-width:4; stroke-opacity:1; fill:none" points="193.936,1430.17 212.834,1430.17 "/>
<polyline clip-path="url(#clip140)" style="stroke:#000000; stroke-linecap:round; stroke-linejoin:round; stroke-width:4; stroke-opacity:1; fill:none" points="193.936,1098.51 212.834,1098.51 "/>
<polyline clip-path="url(#clip140)" style="stroke:#000000; stroke-linecap:round; stroke-linejoin:round; stroke-width:4; stroke-opacity:1; fill:none" points="193.936,766.846 212.834,766.846 "/>
<polyline clip-path="url(#clip140)" style="stroke:#000000; stroke-linecap:round; stroke-linejoin:round; stroke-width:4; stroke-opacity:1; fill:none" points="193.936,435.184 212.834,435.184 "/>
<polyline clip-path="url(#clip140)" style="stroke:#000000; stroke-linecap:round; stroke-linejoin:round; stroke-width:4; stroke-opacity:1; fill:none" points="193.936,103.523 212.834,103.523 "/>
<path clip-path="url(#clip140)" d="M50.9921 1430.62 L80.6679 1430.62 L80.6679 1434.56 L50.9921 1434.56 L50.9921 1430.62 Z" fill="#000000" fill-rule="nonzero" fill-opacity="1" /><path clip-path="url(#clip140)" d="M91.5706 1443.51 L99.2095 1443.51 L99.2095 1417.15 L90.8993 1418.81 L90.8993 1414.56 L99.1632 1412.89 L103.839 1412.89 L103.839 1443.51 L111.478 1443.51 L111.478 1447.45 L91.5706 1447.45 L91.5706 1443.51 Z" fill="#000000" fill-rule="nonzero" fill-opacity="1" /><path clip-path="url(#clip140)" d="M120.922 1441.57 L125.807 1441.57 L125.807 1447.45 L120.922 1447.45 L120.922 1441.57 Z" fill="#000000" fill-rule="nonzero" fill-opacity="1" /><path clip-path="url(#clip140)" d="M145.992 1415.97 Q142.381 1415.97 140.552 1419.53 Q138.746 1423.07 138.746 1430.2 Q138.746 1437.31 140.552 1440.88 Q142.381 1444.42 145.992 1444.42 Q149.626 1444.42 151.431 1440.88 Q153.26 1437.31 153.26 1430.2 Q153.26 1423.07 151.431 1419.53 Q149.626 1415.97 145.992 1415.97 M145.992 1412.26 Q151.802 1412.26 154.857 1416.87 Q157.936 1421.45 157.936 1430.2 Q157.936 1438.93 154.857 1443.54 Q151.802 1448.12 145.992 1448.12 Q140.181 1448.12 137.103 1443.54 Q134.047 1438.93 134.047 1430.2 Q134.047 1421.45 137.103 1416.87 Q140.181 1412.26 145.992 1412.26 Z" fill="#000000" fill-rule="nonzero" fill-opacity="1" /><path clip-path="url(#clip140)" d="M51.9875 1098.96 L81.6633 1098.96 L81.6633 1102.89 L51.9875 1102.89 L51.9875 1098.96 Z" fill="#000000" fill-rule="nonzero" fill-opacity="1" /><path clip-path="url(#clip140)" d="M101.756 1084.31 Q98.1447 1084.31 96.316 1087.87 Q94.5104 1091.41 94.5104 1098.54 Q94.5104 1105.65 96.316 1109.21 Q98.1447 1112.76 101.756 1112.76 Q105.39 1112.76 107.196 1109.21 Q109.024 1105.65 109.024 1098.54 Q109.024 1091.41 107.196 1087.87 Q105.39 1084.31 101.756 1084.31 M101.756 1080.6 Q107.566 1080.6 110.621 1085.21 Q113.7 1089.79 113.7 1098.54 Q113.7 1107.27 110.621 1111.88 Q107.566 1116.46 101.756 1116.46 Q95.9456 1116.46 92.8669 1111.88 Q89.8114 1107.27 89.8114 1098.54 Q89.8114 1089.79 92.8669 1085.21 Q95.9456 1080.6 101.756 1080.6 Z" fill="#000000" fill-rule="nonzero" fill-opacity="1" /><path clip-path="url(#clip140)" d="M121.918 1109.91 L126.802 1109.91 L126.802 1115.79 L121.918 1115.79 L121.918 1109.91 Z" fill="#000000" fill-rule="nonzero" fill-opacity="1" /><path clip-path="url(#clip140)" d="M137.033 1081.23 L155.39 1081.23 L155.39 1085.16 L141.316 1085.16 L141.316 1093.63 Q142.334 1093.29 143.353 1093.13 Q144.371 1092.94 145.39 1092.94 Q151.177 1092.94 154.556 1096.11 Q157.936 1099.28 157.936 1104.7 Q157.936 1110.28 154.464 1113.38 Q150.992 1116.46 144.672 1116.46 Q142.496 1116.46 140.228 1116.09 Q137.982 1115.72 135.575 1114.98 L135.575 1110.28 Q137.658 1111.41 139.881 1111.97 Q142.103 1112.52 144.58 1112.52 Q148.584 1112.52 150.922 1110.42 Q153.26 1108.31 153.26 1104.7 Q153.26 1101.09 150.922 1098.98 Q148.584 1096.88 144.58 1096.88 Q142.705 1096.88 140.83 1097.29 Q138.978 1097.71 137.033 1098.59 L137.033 1081.23 Z" fill="#000000" fill-rule="nonzero" fill-opacity="1" /><path clip-path="url(#clip140)" d="M100.76 752.645 Q97.1493 752.645 95.3206 756.209 Q93.515 759.751 93.515 766.881 Q93.515 773.987 95.3206 777.552 Q97.1493 781.094 100.76 781.094 Q104.395 781.094 106.2 777.552 Q108.029 773.987 108.029 766.881 Q108.029 759.751 106.2 756.209 Q104.395 752.645 100.76 752.645 M100.76 748.941 Q106.571 748.941 109.626 753.547 Q112.705 758.131 112.705 766.881 Q112.705 775.608 109.626 780.214 Q106.571 784.797 100.76 784.797 Q94.9502 784.797 91.8715 780.214 Q88.816 775.608 88.816 766.881 Q88.816 758.131 91.8715 753.547 Q94.9502 748.941 100.76 748.941 Z" fill="#000000" fill-rule="nonzero" fill-opacity="1" /><path clip-path="url(#clip140)" d="M120.922 778.246 L125.807 778.246 L125.807 784.126 L120.922 784.126 L120.922 778.246 Z" fill="#000000" fill-rule="nonzero" fill-opacity="1" /><path clip-path="url(#clip140)" d="M145.992 752.645 Q142.381 752.645 140.552 756.209 Q138.746 759.751 138.746 766.881 Q138.746 773.987 140.552 777.552 Q142.381 781.094 145.992 781.094 Q149.626 781.094 151.431 777.552 Q153.26 773.987 153.26 766.881 Q153.26 759.751 151.431 756.209 Q149.626 752.645 145.992 752.645 M145.992 748.941 Q151.802 748.941 154.857 753.547 Q157.936 758.131 157.936 766.881 Q157.936 775.608 154.857 780.214 Q151.802 784.797 145.992 784.797 Q140.181 784.797 137.103 780.214 Q134.047 775.608 134.047 766.881 Q134.047 758.131 137.103 753.547 Q140.181 748.941 145.992 748.941 Z" fill="#000000" fill-rule="nonzero" fill-opacity="1" /><path clip-path="url(#clip140)" d="M101.756 420.983 Q98.1447 420.983 96.316 424.548 Q94.5104 428.09 94.5104 435.219 Q94.5104 442.326 96.316 445.89 Q98.1447 449.432 101.756 449.432 Q105.39 449.432 107.196 445.89 Q109.024 442.326 109.024 435.219 Q109.024 428.09 107.196 424.548 Q105.39 420.983 101.756 420.983 M101.756 417.279 Q107.566 417.279 110.621 421.886 Q113.7 426.469 113.7 435.219 Q113.7 443.946 110.621 448.552 Q107.566 453.136 101.756 453.136 Q95.9456 453.136 92.8669 448.552 Q89.8114 443.946 89.8114 435.219 Q89.8114 426.469 92.8669 421.886 Q95.9456 417.279 101.756 417.279 Z" fill="#000000" fill-rule="nonzero" fill-opacity="1" /><path clip-path="url(#clip140)" d="M121.918 446.585 L126.802 446.585 L126.802 452.464 L121.918 452.464 L121.918 446.585 Z" fill="#000000" fill-rule="nonzero" fill-opacity="1" /><path clip-path="url(#clip140)" d="M137.033 417.904 L155.39 417.904 L155.39 421.84 L141.316 421.84 L141.316 430.312 Q142.334 429.965 143.353 429.803 Q144.371 429.617 145.39 429.617 Q151.177 429.617 154.556 432.789 Q157.936 435.96 157.936 441.377 Q157.936 446.955 154.464 450.057 Q150.992 453.136 144.672 453.136 Q142.496 453.136 140.228 452.765 Q137.982 452.395 135.575 451.654 L135.575 446.955 Q137.658 448.089 139.881 448.645 Q142.103 449.201 144.58 449.201 Q148.584 449.201 150.922 447.094 Q153.26 444.988 153.26 441.377 Q153.26 437.765 150.922 435.659 Q148.584 433.553 144.58 433.553 Q142.705 433.553 140.83 433.969 Q138.978 434.386 137.033 435.265 L137.033 417.904 Z" fill="#000000" fill-rule="nonzero" fill-opacity="1" /><path clip-path="url(#clip140)" d="M91.5706 116.868 L99.2095 116.868 L99.2095 90.5021 L90.8993 92.1688 L90.8993 87.9096 L99.1632 86.2429 L103.839 86.2429 L103.839 116.868 L111.478 116.868 L111.478 120.803 L91.5706 120.803 L91.5706 116.868 Z" fill="#000000" fill-rule="nonzero" fill-opacity="1" /><path clip-path="url(#clip140)" d="M120.922 114.923 L125.807 114.923 L125.807 120.803 L120.922 120.803 L120.922 114.923 Z" fill="#000000" fill-rule="nonzero" fill-opacity="1" /><path clip-path="url(#clip140)" d="M145.992 89.3216 Q142.381 89.3216 140.552 92.8864 Q138.746 96.428 138.746 103.558 Q138.746 110.664 140.552 114.229 Q142.381 117.771 145.992 117.771 Q149.626 117.771 151.431 114.229 Q153.26 110.664 153.26 103.558 Q153.26 96.428 151.431 92.8864 Q149.626 89.3216 145.992 89.3216 M145.992 85.6179 Q151.802 85.6179 154.857 90.2244 Q157.936 94.8077 157.936 103.558 Q157.936 112.284 154.857 116.891 Q151.802 121.474 145.992 121.474 Q140.181 121.474 137.103 116.891 Q134.047 112.284 134.047 103.558 Q134.047 94.8077 137.103 90.2244 Q140.181 85.6179 145.992 85.6179 Z" fill="#000000" fill-rule="nonzero" fill-opacity="1" /><polyline clip-path="url(#clip142)" style="stroke:#009af9; stroke-linecap:round; stroke-linejoin:round; stroke-width:4; stroke-opacity:1; fill:none" points="1270.52,103.523 1366.64,106.762 1461.81,116.802 1555.22,132.997 1645.57,155.021 1732.39,183.199 1814.97,216.236 1892.14,253.807 1963.67,295.589 2028.61,340.933 2086.96,389.516 2138.25,440.205 2182.01,493.16 2217.78,547.736 2245.54,603.363 2265.31,659.963 2276.6,717.089 2279.42,774.493 2274.72,831.826 2260.6,888.871 2238.95,945.308 2208.84,1000.69 2171.19,1054.78 2125.55,1107.25 2072.37,1157.46 2012.14,1205.07 1945.32,1249.44 1871.91,1290.25 1793.32,1326.85 1709.8,1358.59 1621.8,1385.15 1530.51,1405.88 1436.63,1420.13 1341.11,1428.55 1244.88,1429.85 1148.88,1424.99 1054.18,1413.33 961.594,1395.51 871.951,1371.55 786.307,1342.4 704.899,1308.06 629.137,1269.2 559.493,1226.12 495.966,1180.13 439.498,1130.9 390.559,1079.56 348.678,1026.12 315.268,971.219 289.857,915.268 271.975,858.506 262.564,801.3 262.564,743.911 269.152,686.603 285.151,629.76 309.15,573.647 341.619,518.424 381.618,464.82 429.145,412.836 484.202,363.281 546.317,316.317 614.549,272.916 689.37,233.078 769.367,197.774 854.304,167.653 943.242,142.713 1035.36,123.604 1129.7,110.648 1225.55,104.171 1321.81,104.495 1417.58,111.296 1511.92,124.576 1603.69,144.009 1692.39,169.272 1776.85,200.042 1856.85,235.669 1931.2,275.831 1998.96,319.556 2060.61,366.52 2115.19,416.075 2162.25,468.221 2201.78,521.986 2233.31,577.209 2256.84,633.485 2271.89,690.368 2279.42,747.676 2277.54,805.085 2268.13,862.312 2250.25,918.992 2223.9,974.944 2189.54,1029.68 2147.66,1082.96 2097.78,1134.14 2040.84,1183.04 1977.32,1229.03 1906.73,1271.79 1830.97,1310.33 1749.33,1344.34 1663.45,1373.49 1573.57,1396.81 1480.75,1414.3 1385.87,1425.31 1289.85,1430.17 1193.64,1427.9 1098.18,1419.48 1004.42,1404.58 913.361,1383.53 825.6,1356.65 742.544,1324.58 663.959,1287.66 591.491,1246.85 524.671,1202.15 464.908,1154.22 412.675,1103.69 367.501,1051.22 329.855,997.131 300.209,941.584 279.504,885.146 266.328,828.061 261.623,770.723 265.387,713.323 276.681,656.238 297.386,599.72 325.62,544.011 361.854,489.598 406.087,436.804 457.379,386.277 516.2,338.018 582.08,292.674 653.607,251.216 731.25,213.969 814.071,180.932 901.361,153.402 991.946,131.701 1085.47,115.831 1180.7,106.438 1276.85,103.523 1372.93,107.41 1468.04,117.45 1561.1,134.292 1651.45,156.964 1738.03,185.143 1820.15,218.503 1896.85,256.398 1967.91,298.504 2032.84,344.172 2090.72,392.755 2141.55,443.767 2184.37,496.723 2219.66,551.298 2247.42,607.088 2266.25,663.688 2276.6,720.894 2279.42,778.263 2273.78,835.591 2259.66,892.596 2237.07,948.871 2206.48,1004.26 2168.37,1058.35 2122.25,1110.49 2068.61,1160.69 2007.9,1207.98 1940.61,1252.35 1867.2,1292.84 1788.15,1329.12 1704.15,1360.53 1615.92,1386.44 1524.39,1406.85 1430.4,1421.1 1334.76,1428.55 1238.55,1429.85 1142.65,1424.34 1047.94,1412.36 955.477,1393.89 866.068,1369.93 780.66,1340.13 699.722,1305.47 624.431,1266.28 555.258,1223.2 492.201,1176.89 436.204,1127.66 387.265,1076 346.325,1022.56 313.385,967.657 287.975,911.624 271.034,854.782 262.564,797.534 262.564,740.125 270.093,682.878 287.033,626.036 311.032,569.922 343.972,514.861 384.441,461.257 432.439,409.597 487.966,360.042 550.552,313.402 619.726,270.325 694.546,230.811 775.013,195.831 860.186,165.709 949.124,141.094 "/>
<polyline clip-path="url(#clip142)" style="stroke:#e26f46; stroke-linecap:round; stroke-linejoin:round; stroke-width:4; stroke-opacity:1; fill:none" points="1270.52,103.523 1368.4,100.932 1464.4,107.086 1558.51,122.308 1648.86,144.981 1738.27,178.341 1819.21,217.532 1892.61,261.904 1957.55,309.84 2019.67,362.957 2069.08,417.371 2113.31,473.079 2151.9,530.408 2182.49,588.06 2205.07,644.416 2218.25,698.182 2223.9,751.623 2221.54,803.607 2211.19,854.134 2194.72,904.175 2171.66,953.082 2142.02,1001.18 2106.25,1049.28 2062.96,1096.4 2012.14,1142.23 1954.26,1187.25 1890.73,1230.65 1821.09,1272.11 1744.86,1310.98 1662.98,1346.93 1575.45,1378.02 1481.34,1401.99 1386.28,1421.42 1290.29,1434.06 1191.47,1437.94 1093.59,1432.76 998.534,1419.8 904.42,1396.16 820.659,1368.63 737.838,1331.06 663.489,1288.63 595.727,1241.34 533.612,1189.2 477.614,1134.46 432.439,1079.4 393.382,1022.72 360.442,965.389 336.914,909.681 324.679,856.239 315.268,801.826 313.385,748.708 321.855,698.182 335.031,647.817 354.795,598.1 382.088,549.517 416.44,501.582 458.791,454.942 507.73,409.273 562.316,363.929 623.961,319.556 691.723,277.127 765.131,236.641 846.54,200.042 932.654,167.653 1023,139.475 1119,117.774 1216.88,103.523 1313.81,95.7496 1412.63,98.3407 1507.69,108.057 1603.69,128.786 1692.15,155.345 1778.74,191.944 1856.85,234.05 1930.26,281.985 1996.14,334.131 2052.14,389.192 2102.02,446.197 2141.08,502.877 2174.49,560.205 2198.96,616.238 2219.19,672.918 2230.48,727.656 2231.89,780.935 2225.78,832.109 2211.66,881.34 2192.84,931.381 2166.02,979.964 2132.6,1027.74 2092.14,1074.7 2045.55,1121.5 1991.43,1166.85 1931.2,1211.22 1864.85,1253.97 1789.09,1294.14 1710.03,1332.35 1623.45,1365.72 1533.1,1394.54 1438.99,1417.54 1342.05,1433.41 1244.17,1441.83 1145.35,1441.83 1045.59,1431.46 952.418,1414.3 863.951,1388.71 775.484,1353.08 696.428,1313.89 621.137,1266.93 556.199,1217.7 500.201,1165.23 452.203,1110.82 408.44,1054.78 371.265,998.102 341.619,941.422 321.385,885.389 306.797,830.328 303.033,777.534 303.974,725.712 313.385,674.538 328.443,624.173 353.854,575.914 385.382,528.788 423.028,481.662 467.732,435.184 518.553,389.192 576.904,344.496 640.901,300.771 710.545,258.665 787.719,219.475 869.598,183.847 956.182,151.782 1052.18,126.195 1147.23,105.142 1244.17,91.8629 1343.93,87.9763 1443.69,92.5107 1541.57,105.142 1632.86,126.519 1723.21,156.317 1808.85,194.536 1886.03,237.289 1956.61,285.872 2019.67,338.018 2073.31,391.783 2119.9,447.816 2158.49,504.82 2189.07,561.177 2216.37,618.829 2232.84,673.566 2243.66,728.303 2245.54,780.611 2238.95,831.786 2224.84,881.017 2204.13,929.762 2176.84,977.697 2143.9,1025.96 2104.37,1072.6 2056.84,1118.59 2002.73,1163.93 1943.44,1208.63 1876.62,1251.38 1803.21,1292.19 1724.62,1330.41 1638.51,1363.45 1549.1,1393.25 1455.93,1417.54 1359.93,1435.35 1261.11,1445.07 1161.35,1445.72 1062.53,1437.94 966.535,1420.78 876.186,1397.46 786.778,1362.48 703.957,1321.67 629.608,1275.35 561.846,1224.82 499.26,1170.09 446.086,1114.05 404.676,1058.35 370.795,1002.64 342.561,946.604 324.679,892.515 311.503,837.778 305.856,785.308 306.797,732.838 315.268,682.149 329.385,631.947 351.031,582.23 380.206,533.808 416.44,486.521 460.203,440.205 510.083,394.375 566.551,349.03 629.137,304.981 699.252,262.552 774.543,222.714 855.481,185.791 943.948,153.726 1038.06,127.491 1133.12,106.114 "/>
<polyline clip-path="url(#clip142)" style="stroke:#3da44d; stroke-linecap:round; stroke-linejoin:round; stroke-width:4; stroke-opacity:1; fill:none" points="1270.52,103.523 1366.05,107.086 1460.99,117.126 1554.75,133.968 1646.04,155.993 1733.56,183.523 1817.79,216.236 1897.32,253.807 1971.67,295.265 2038.96,340.609 2099.67,388.868 2152.37,439.719 2197.07,492.675 2233.31,547.574 2261.54,604.092 2280.36,660.773 2290.72,718.101 2291.66,775.915 2285.07,833.567 2269.07,891.381 2245.54,948.223 2214.01,1004.42 2174.49,1058.99 2127.9,1111.46 2073.78,1161.99 2013.08,1209.93 1946.26,1253.97 1874.26,1294.78 1796.62,1331.38 1713.8,1363.12 1626.98,1389.36 1537.34,1410.09 1445.1,1424.66 1350.17,1432.76 1254.17,1434.7 1158.76,1429.2 1063.47,1417.21 969.829,1399.4 879.009,1375.43 791.954,1346.28 708.663,1311.95 630.549,1273.41 558.552,1230.98 492.672,1184.99 433.851,1136.4 383.5,1085.23 340.678,1032.11 305.856,977.211 280.445,920.531 263.505,863.365 255.035,805.713 255.976,747.737 264.446,690.246 282.328,632.756 308.209,576.076 341.619,520.691 383.029,467.249 431.027,415.427 486.555,365.872 548.199,319.232 615.961,275.831 688.899,235.993 767.484,200.689 850.775,170.244 937.83,144.981 1027.71,125.547 1120.65,112.268 1215.23,105.466 1310.29,105.466 1405.58,111.944 1499.57,124.252 1591.92,143.037 1681.8,167.653 1767.91,197.127 1850.26,231.783 1927.44,270.649 1998.02,314.05 2062.49,360.69 2120.37,410.245 2169.78,462.229 2211.19,515.995 2244.6,571.217 2268.13,627.736 2283.19,685.388 2289.77,743.04 2286.95,801.178 2276.6,859.316 2257.78,916.482 2230.95,973.001 2195.66,1028.22 2152.84,1081.67 2102.49,1132.84 2045.55,1182.07 1982.02,1228.06 1912.38,1270.82 1837.56,1309.68 1758.03,1344.01 1674.04,1373.49 1586.27,1397.46 1495.69,1415.27 1403.22,1426.93 1308.4,1432.11 1212.76,1430.17 1117.47,1422.07 1023.47,1407.82 931.713,1387.42 843.246,1361.5 758.543,1330.41 677.606,1294.14 602.315,1253.97 534.082,1209.93 471.496,1163.29 415.969,1113.73 368.912,1062.07 329.855,1008.3 299.268,953.082 276.681,896.725 263.505,839.397 258.799,781.583 263.505,724.093 275.74,666.441 296.445,609.274 325.149,553.404 361.854,498.343 406.087,445.711 457.379,394.698 515.259,346.439 579.257,301.095 648.43,258.989 723.721,220.77 803.953,187.41 888.421,158.908 976.417,135.912 1067.71,119.07 1160.88,108.705 1255.35,104.495 1350.75,106.762 1445.22,115.507 1539.22,131.053 1630.51,152.106 1718.97,179.313 1804.15,211.054 1884.14,247.977 1958.49,288.787 2027.2,333.484 2088.37,381.419 2142.02,431.946 2188.13,484.739 2225.78,539.153 2254.95,595.185 2275.66,652.351 2287.89,709.68 2290.72,767.332 2285.07,824.984 2270.95,882.96 2248.36,939.964 2217.78,995.997 2179.19,1050.41 2133.08,1103.04 2080.37,1153.57 2020.14,1201.5 1954.26,1246.2 1882.73,1287.33 1806.03,1324.26 1724.62,1356.32 1638.98,1383.53 1550.04,1405.23 1458.04,1420.45 1363.93,1429.52 1268.64,1432.11 1173.11,1427.9 1078.18,1417.21 984.652,1400.05 894.067,1377.38 806.542,1349.2 722.78,1315.51 644.666,1277.94 572.198,1236.16 505.848,1191.14 446.086,1142.88 394.794,1092.35 351.501,1039.56 315.268,984.985 287.975,929.114 269.152,871.786 258.799,814.296 257.858,756.32 265.387,698.829 281.387,641.339 305.856,584.497 338.325,529.112 378.324,474.861 425.851,422.553 479.967,372.674 540.67,325.386 607.961,281.338 679.958,240.852 758.073,204.9 840.422,173.483 927.007,147.572 "/>
<path clip-path="url(#clip140)" d="M1764.98 1438.47 L2280.8 1438.47 L2280.8 1231.11 L1764.98 1231.11  Z" fill="#ffffff" fill-rule="evenodd" fill-opacity="1"/>
<polyline clip-path="url(#clip140)" style="stroke:#000000; stroke-linecap:round; stroke-linejoin:round; stroke-width:4; stroke-opacity:1; fill:none" points="1764.98,1438.47 2280.8,1438.47 2280.8,1231.11 1764.98,1231.11 1764.98,1438.47 "/>
<polyline clip-path="url(#clip140)" style="stroke:#009af9; stroke-linecap:round; stroke-linejoin:round; stroke-width:4; stroke-opacity:1; fill:none" points="1788.97,1282.95 1932.89,1282.95 "/>
<path clip-path="url(#clip140)" d="M1964.29 1266.95 L1964.29 1274.31 L1973.06 1274.31 L1973.06 1277.62 L1964.29 1277.62 L1964.29 1291.69 Q1964.29 1294.86 1965.14 1295.77 Q1966.02 1296.67 1968.68 1296.67 L1973.06 1296.67 L1973.06 1300.23 L1968.68 1300.23 Q1963.75 1300.23 1961.88 1298.41 Q1960 1296.55 1960 1291.69 L1960 1277.62 L1956.88 1277.62 L1956.88 1274.31 L1960 1274.31 L1960 1266.95 L1964.29 1266.95 Z" fill="#000000" fill-rule="nonzero" fill-opacity="1" /><path clip-path="url(#clip140)" d="M1993.68 1278.29 Q1992.97 1277.87 1992.11 1277.69 Q1991.28 1277.48 1990.26 1277.48 Q1986.65 1277.48 1984.7 1279.84 Q1982.78 1282.18 1982.78 1286.58 L1982.78 1300.23 L1978.5 1300.23 L1978.5 1274.31 L1982.78 1274.31 L1982.78 1278.34 Q1984.12 1275.98 1986.28 1274.84 Q1988.43 1273.68 1991.51 1273.68 Q1991.95 1273.68 1992.48 1273.75 Q1993.01 1273.8 1993.66 1273.92 L1993.68 1278.29 Z" fill="#000000" fill-rule="nonzero" fill-opacity="1" /><path clip-path="url(#clip140)" d="M2009.93 1287.2 Q2004.77 1287.2 2002.78 1288.38 Q2000.79 1289.56 2000.79 1292.41 Q2000.79 1294.68 2002.27 1296.02 Q2003.78 1297.34 2006.35 1297.34 Q2009.89 1297.34 2012.02 1294.84 Q2014.17 1292.32 2014.17 1288.15 L2014.17 1287.2 L2009.93 1287.2 M2018.43 1285.44 L2018.43 1300.23 L2014.17 1300.23 L2014.17 1296.3 Q2012.71 1298.66 2010.54 1299.79 Q2008.36 1300.91 2005.21 1300.91 Q2001.23 1300.91 1998.87 1298.68 Q1996.53 1296.44 1996.53 1292.69 Q1996.53 1288.31 1999.45 1286.09 Q2002.39 1283.87 2008.2 1283.87 L2014.17 1283.87 L2014.17 1283.45 Q2014.17 1280.51 2012.23 1278.92 Q2010.31 1277.29 2006.81 1277.29 Q2004.59 1277.29 2002.48 1277.83 Q2000.37 1278.36 1998.43 1279.42 L1998.43 1275.49 Q2000.77 1274.59 2002.97 1274.15 Q2005.17 1273.68 2007.25 1273.68 Q2012.87 1273.68 2015.65 1276.6 Q2018.43 1279.52 2018.43 1285.44 Z" fill="#000000" fill-rule="nonzero" fill-opacity="1" /><path clip-path="url(#clip140)" d="M2027.2 1274.31 L2031.46 1274.31 L2031.46 1300.23 L2027.2 1300.23 L2027.2 1274.31 M2027.2 1264.22 L2031.46 1264.22 L2031.46 1269.61 L2027.2 1269.61 L2027.2 1264.22 Z" fill="#000000" fill-rule="nonzero" fill-opacity="1" /><path clip-path="url(#clip140)" d="M2061.93 1284.59 L2061.93 1300.23 L2057.67 1300.23 L2057.67 1284.73 Q2057.67 1281.04 2056.23 1279.22 Q2054.8 1277.39 2051.93 1277.39 Q2048.48 1277.39 2046.49 1279.59 Q2044.49 1281.79 2044.49 1285.58 L2044.49 1300.23 L2040.21 1300.23 L2040.21 1274.31 L2044.49 1274.31 L2044.49 1278.34 Q2046.02 1276 2048.08 1274.84 Q2050.17 1273.68 2052.87 1273.68 Q2057.34 1273.68 2059.63 1276.46 Q2061.93 1279.22 2061.93 1284.59 Z" fill="#000000" fill-rule="nonzero" fill-opacity="1" /><path clip-path="url(#clip140)" d="M2070.42 1274.31 L2074.68 1274.31 L2074.68 1300.23 L2070.42 1300.23 L2070.42 1274.31 M2070.42 1264.22 L2074.68 1264.22 L2074.68 1269.61 L2070.42 1269.61 L2070.42 1264.22 Z" fill="#000000" fill-rule="nonzero" fill-opacity="1" /><path clip-path="url(#clip140)" d="M2105.14 1284.59 L2105.14 1300.23 L2100.88 1300.23 L2100.88 1284.73 Q2100.88 1281.04 2099.45 1279.22 Q2098.01 1277.39 2095.14 1277.39 Q2091.69 1277.39 2089.7 1279.59 Q2087.71 1281.79 2087.71 1285.58 L2087.71 1300.23 L2083.43 1300.23 L2083.43 1274.31 L2087.71 1274.31 L2087.71 1278.34 Q2089.24 1276 2091.3 1274.84 Q2093.38 1273.68 2096.09 1273.68 Q2100.56 1273.68 2102.85 1276.46 Q2105.14 1279.22 2105.14 1284.59 Z" fill="#000000" fill-rule="nonzero" fill-opacity="1" /><path clip-path="url(#clip140)" d="M2130.7 1286.97 Q2130.7 1282.34 2128.78 1279.79 Q2126.88 1277.25 2123.43 1277.25 Q2120 1277.25 2118.08 1279.79 Q2116.18 1282.34 2116.18 1286.97 Q2116.18 1291.58 2118.08 1294.12 Q2120 1296.67 2123.43 1296.67 Q2126.88 1296.67 2128.78 1294.12 Q2130.7 1291.58 2130.7 1286.97 M2134.96 1297.02 Q2134.96 1303.64 2132.02 1306.85 Q2129.08 1310.1 2123.01 1310.1 Q2120.77 1310.1 2118.78 1309.75 Q2116.79 1309.42 2114.91 1308.73 L2114.91 1304.59 Q2116.79 1305.6 2118.61 1306.09 Q2120.44 1306.58 2122.34 1306.58 Q2126.53 1306.58 2128.61 1304.38 Q2130.7 1302.2 2130.7 1297.78 L2130.7 1295.67 Q2129.38 1297.97 2127.32 1299.1 Q2125.26 1300.23 2122.39 1300.23 Q2117.62 1300.23 2114.7 1296.6 Q2111.79 1292.97 2111.79 1286.97 Q2111.79 1280.95 2114.7 1277.32 Q2117.62 1273.68 2122.39 1273.68 Q2125.26 1273.68 2127.32 1274.82 Q2129.38 1275.95 2130.7 1278.24 L2130.7 1274.31 L2134.96 1274.31 L2134.96 1297.02 Z" fill="#000000" fill-rule="nonzero" fill-opacity="1" /><path clip-path="url(#clip140)" d="M2175.86 1278.24 L2175.86 1264.22 L2180.12 1264.22 L2180.12 1300.23 L2175.86 1300.23 L2175.86 1296.35 Q2174.52 1298.66 2172.46 1299.79 Q2170.42 1300.91 2167.55 1300.91 Q2162.85 1300.91 2159.89 1297.16 Q2156.95 1293.41 2156.95 1287.29 Q2156.95 1281.18 2159.89 1277.43 Q2162.85 1273.68 2167.55 1273.68 Q2170.42 1273.68 2172.46 1274.82 Q2174.52 1275.93 2175.86 1278.24 M2161.35 1287.29 Q2161.35 1291.99 2163.27 1294.68 Q2165.21 1297.34 2168.59 1297.34 Q2171.97 1297.34 2173.92 1294.68 Q2175.86 1291.99 2175.86 1287.29 Q2175.86 1282.6 2173.92 1279.93 Q2171.97 1277.25 2168.59 1277.25 Q2165.21 1277.25 2163.27 1279.93 Q2161.35 1282.6 2161.35 1287.29 Z" fill="#000000" fill-rule="nonzero" fill-opacity="1" /><path clip-path="url(#clip140)" d="M2200.67 1287.2 Q2195.51 1287.2 2193.52 1288.38 Q2191.53 1289.56 2191.53 1292.41 Q2191.53 1294.68 2193.01 1296.02 Q2194.52 1297.34 2197.09 1297.34 Q2200.63 1297.34 2202.76 1294.84 Q2204.91 1292.32 2204.91 1288.15 L2204.91 1287.2 L2200.67 1287.2 M2209.17 1285.44 L2209.17 1300.23 L2204.91 1300.23 L2204.91 1296.3 Q2203.45 1298.66 2201.28 1299.79 Q2199.1 1300.91 2195.95 1300.91 Q2191.97 1300.91 2189.61 1298.68 Q2187.27 1296.44 2187.27 1292.69 Q2187.27 1288.31 2190.19 1286.09 Q2193.13 1283.87 2198.94 1283.87 L2204.91 1283.87 L2204.91 1283.45 Q2204.91 1280.51 2202.97 1278.92 Q2201.04 1277.29 2197.55 1277.29 Q2195.33 1277.29 2193.22 1277.83 Q2191.11 1278.36 2189.17 1279.42 L2189.17 1275.49 Q2191.51 1274.59 2193.71 1274.15 Q2195.91 1273.68 2197.99 1273.68 Q2203.61 1273.68 2206.39 1276.6 Q2209.17 1279.52 2209.17 1285.44 Z" fill="#000000" fill-rule="nonzero" fill-opacity="1" /><path clip-path="url(#clip140)" d="M2222.16 1266.95 L2222.16 1274.31 L2230.93 1274.31 L2230.93 1277.62 L2222.16 1277.62 L2222.16 1291.69 Q2222.16 1294.86 2223.01 1295.77 Q2223.89 1296.67 2226.55 1296.67 L2230.93 1296.67 L2230.93 1300.23 L2226.55 1300.23 Q2221.62 1300.23 2219.75 1298.41 Q2217.87 1296.55 2217.87 1291.69 L2217.87 1277.62 L2214.75 1277.62 L2214.75 1274.31 L2217.87 1274.31 L2217.87 1266.95 L2222.16 1266.95 Z" fill="#000000" fill-rule="nonzero" fill-opacity="1" /><path clip-path="url(#clip140)" d="M2248.31 1287.2 Q2243.15 1287.2 2241.16 1288.38 Q2239.17 1289.56 2239.17 1292.41 Q2239.17 1294.68 2240.65 1296.02 Q2242.16 1297.34 2244.73 1297.34 Q2248.27 1297.34 2250.4 1294.84 Q2252.55 1292.32 2252.55 1288.15 L2252.55 1287.2 L2248.31 1287.2 M2256.81 1285.44 L2256.81 1300.23 L2252.55 1300.23 L2252.55 1296.3 Q2251.09 1298.66 2248.91 1299.79 Q2246.74 1300.91 2243.59 1300.91 Q2239.61 1300.91 2237.25 1298.68 Q2234.91 1296.44 2234.91 1292.69 Q2234.91 1288.31 2237.83 1286.09 Q2240.77 1283.87 2246.58 1283.87 L2252.55 1283.87 L2252.55 1283.45 Q2252.55 1280.51 2250.6 1278.92 Q2248.68 1277.29 2245.19 1277.29 Q2242.97 1277.29 2240.86 1277.83 Q2238.75 1278.36 2236.81 1279.42 L2236.81 1275.49 Q2239.15 1274.59 2241.35 1274.15 Q2243.54 1273.68 2245.63 1273.68 Q2251.25 1273.68 2254.03 1276.6 Q2256.81 1279.52 2256.81 1285.44 Z" fill="#000000" fill-rule="nonzero" fill-opacity="1" /><polyline clip-path="url(#clip140)" style="stroke:#e26f46; stroke-linecap:round; stroke-linejoin:round; stroke-width:4; stroke-opacity:1; fill:none" points="1788.97,1334.79 1932.89,1334.79 "/>
<path clip-path="url(#clip140)" d="M1956.88 1317.51 L1961.56 1317.51 L1961.56 1348.14 L1978.38 1348.14 L1978.38 1352.07 L1956.88 1352.07 L1956.88 1317.51 Z" fill="#000000" fill-rule="nonzero" fill-opacity="1" /><path clip-path="url(#clip140)" d="M1995.93 1322.12 L1989.59 1339.32 L2002.3 1339.32 L1995.93 1322.12 M1993.29 1317.51 L1998.59 1317.51 L2011.76 1352.07 L2006.9 1352.07 L2003.75 1343.21 L1988.18 1343.21 L1985.03 1352.07 L1980.1 1352.07 L1993.29 1317.51 Z" fill="#000000" fill-rule="nonzero" fill-opacity="1" /><path clip-path="url(#clip140)" d="M2052.6 1318.65 L2052.6 1323.21 Q2049.93 1321.94 2047.57 1321.31 Q2045.21 1320.69 2043.01 1320.69 Q2039.19 1320.69 2037.11 1322.17 Q2035.05 1323.65 2035.05 1326.38 Q2035.05 1328.67 2036.42 1329.85 Q2037.8 1331.01 2041.65 1331.73 L2044.47 1332.31 Q2049.7 1333.3 2052.18 1335.82 Q2054.68 1338.32 2054.68 1342.54 Q2054.68 1347.56 2051.3 1350.15 Q2047.94 1352.75 2041.44 1352.75 Q2038.99 1352.75 2036.21 1352.19 Q2033.45 1351.63 2030.49 1350.55 L2030.49 1345.73 Q2033.34 1347.33 2036.07 1348.14 Q2038.8 1348.95 2041.44 1348.95 Q2045.44 1348.95 2047.62 1347.38 Q2049.8 1345.8 2049.8 1342.88 Q2049.8 1340.34 2048.22 1338.9 Q2046.67 1337.47 2043.11 1336.75 L2040.26 1336.19 Q2035.03 1335.15 2032.69 1332.93 Q2030.35 1330.71 2030.35 1326.75 Q2030.35 1322.17 2033.57 1319.53 Q2036.81 1316.89 2042.48 1316.89 Q2044.91 1316.89 2047.43 1317.33 Q2049.96 1317.77 2052.6 1318.65 Z" fill="#000000" fill-rule="nonzero" fill-opacity="1" /><path clip-path="url(#clip140)" d="M2072.57 1354.48 Q2070.77 1359.11 2069.05 1360.52 Q2067.34 1361.94 2064.47 1361.94 L2061.07 1361.94 L2061.07 1358.37 L2063.57 1358.37 Q2065.33 1358.37 2066.3 1357.54 Q2067.27 1356.7 2068.45 1353.6 L2069.22 1351.66 L2058.73 1326.15 L2063.24 1326.15 L2071.35 1346.43 L2079.45 1326.15 L2083.96 1326.15 L2072.57 1354.48 Z" fill="#000000" fill-rule="nonzero" fill-opacity="1" /><path clip-path="url(#clip140)" d="M2110.03 1331.13 Q2111.62 1328.26 2113.85 1326.89 Q2116.07 1325.52 2119.08 1325.52 Q2123.13 1325.52 2125.33 1328.37 Q2127.53 1331.19 2127.53 1336.43 L2127.53 1352.07 L2123.24 1352.07 L2123.24 1336.57 Q2123.24 1332.84 2121.92 1331.03 Q2120.61 1329.23 2117.9 1329.23 Q2114.59 1329.23 2112.67 1331.43 Q2110.74 1333.63 2110.74 1337.42 L2110.74 1352.07 L2106.46 1352.07 L2106.46 1336.57 Q2106.46 1332.82 2105.14 1331.03 Q2103.82 1329.23 2101.07 1329.23 Q2097.8 1329.23 2095.88 1331.45 Q2093.96 1333.65 2093.96 1337.42 L2093.96 1352.07 L2089.68 1352.07 L2089.68 1326.15 L2093.96 1326.15 L2093.96 1330.18 Q2095.42 1327.79 2097.46 1326.66 Q2099.49 1325.52 2102.3 1325.52 Q2105.12 1325.52 2107.09 1326.96 Q2109.08 1328.39 2110.03 1331.13 Z" fill="#000000" fill-rule="nonzero" fill-opacity="1" /><path clip-path="url(#clip140)" d="M2140.14 1348.19 L2140.14 1361.94 L2135.86 1361.94 L2135.86 1326.15 L2140.14 1326.15 L2140.14 1330.08 Q2141.48 1327.77 2143.52 1326.66 Q2145.58 1325.52 2148.43 1325.52 Q2153.15 1325.52 2156.09 1329.27 Q2159.05 1333.02 2159.05 1339.13 Q2159.05 1345.25 2156.09 1349 Q2153.15 1352.75 2148.43 1352.75 Q2145.58 1352.75 2143.52 1351.63 Q2141.48 1350.5 2140.14 1348.19 M2154.63 1339.13 Q2154.63 1334.44 2152.69 1331.77 Q2150.77 1329.09 2147.39 1329.09 Q2144.01 1329.09 2142.06 1331.77 Q2140.14 1334.44 2140.14 1339.13 Q2140.14 1343.83 2142.06 1346.52 Q2144.01 1349.18 2147.39 1349.18 Q2150.77 1349.18 2152.69 1346.52 Q2154.63 1343.83 2154.63 1339.13 Z" fill="#000000" fill-rule="nonzero" fill-opacity="1" /><path clip-path="url(#clip140)" d="M2187.67 1336.43 L2187.67 1352.07 L2183.41 1352.07 L2183.41 1336.57 Q2183.41 1332.88 2181.97 1331.06 Q2180.54 1329.23 2177.67 1329.23 Q2174.22 1329.23 2172.23 1331.43 Q2170.23 1333.63 2170.23 1337.42 L2170.23 1352.07 L2165.95 1352.07 L2165.95 1326.15 L2170.23 1326.15 L2170.23 1330.18 Q2171.76 1327.84 2173.82 1326.68 Q2175.91 1325.52 2178.61 1325.52 Q2183.08 1325.52 2185.37 1328.3 Q2187.67 1331.06 2187.67 1336.43 Z" fill="#000000" fill-rule="nonzero" fill-opacity="1" /><path clip-path="url(#clip140)" d="M2218.34 1338.05 L2218.34 1340.13 L2198.75 1340.13 Q2199.03 1344.53 2201.39 1346.84 Q2203.78 1349.13 2208.01 1349.13 Q2210.47 1349.13 2212.76 1348.53 Q2215.07 1347.93 2217.34 1346.73 L2217.34 1350.75 Q2215.05 1351.73 2212.64 1352.24 Q2210.23 1352.75 2207.76 1352.75 Q2201.55 1352.75 2197.92 1349.13 Q2194.31 1345.52 2194.31 1339.37 Q2194.31 1333 2197.73 1329.27 Q2201.18 1325.52 2207.02 1325.52 Q2212.25 1325.52 2215.28 1328.9 Q2218.34 1332.26 2218.34 1338.05 M2214.08 1336.8 Q2214.03 1333.3 2212.11 1331.22 Q2210.21 1329.13 2207.06 1329.13 Q2203.5 1329.13 2201.35 1331.15 Q2199.22 1333.16 2198.89 1336.82 L2214.08 1336.8 Z" fill="#000000" fill-rule="nonzero" fill-opacity="1" /><path clip-path="url(#clip140)" d="M2229.54 1318.79 L2229.54 1326.15 L2238.31 1326.15 L2238.31 1329.46 L2229.54 1329.46 L2229.54 1343.53 Q2229.54 1346.7 2230.4 1347.61 Q2231.28 1348.51 2233.94 1348.51 L2238.31 1348.51 L2238.31 1352.07 L2233.94 1352.07 Q2229.01 1352.07 2227.13 1350.25 Q2225.26 1348.39 2225.26 1343.53 L2225.26 1329.46 L2222.13 1329.46 L2222.13 1326.15 L2225.26 1326.15 L2225.26 1318.79 L2229.54 1318.79 Z" fill="#000000" fill-rule="nonzero" fill-opacity="1" /><polyline clip-path="url(#clip140)" style="stroke:#3da44d; stroke-linecap:round; stroke-linejoin:round; stroke-width:4; stroke-opacity:1; fill:none" points="1788.97,1386.63 1932.89,1386.63 "/>
<path clip-path="url(#clip140)" d="M1982.43 1398.98 L1982.43 1389.7 L1974.8 1389.7 L1974.8 1385.86 L1987.06 1385.86 L1987.06 1400.7 Q1984.36 1402.62 1981.09 1403.61 Q1977.83 1404.59 1974.12 1404.59 Q1966.02 1404.59 1961.44 1399.86 Q1956.88 1395.12 1956.88 1386.67 Q1956.88 1378.2 1961.44 1373.47 Q1966.02 1368.73 1974.12 1368.73 Q1977.5 1368.73 1980.54 1369.56 Q1983.59 1370.4 1986.16 1372.02 L1986.16 1376.99 Q1983.57 1374.79 1980.65 1373.68 Q1977.74 1372.57 1974.52 1372.57 Q1968.18 1372.57 1964.98 1376.11 Q1961.81 1379.66 1961.81 1386.67 Q1961.81 1393.66 1964.98 1397.2 Q1968.18 1400.74 1974.52 1400.74 Q1977 1400.74 1978.94 1400.33 Q1980.88 1399.89 1982.43 1398.98 Z" fill="#000000" fill-rule="nonzero" fill-opacity="1" /><path clip-path="url(#clip140)" d="M2031.39 1370.49 L2031.39 1375.05 Q2028.73 1373.78 2026.37 1373.15 Q2024.01 1372.53 2021.81 1372.53 Q2017.99 1372.53 2015.91 1374.01 Q2013.85 1375.49 2013.85 1378.22 Q2013.85 1380.51 2015.21 1381.69 Q2016.6 1382.85 2020.44 1383.57 L2023.27 1384.15 Q2028.5 1385.14 2030.98 1387.66 Q2033.48 1390.16 2033.48 1394.38 Q2033.48 1399.4 2030.1 1401.99 Q2026.74 1404.59 2020.24 1404.59 Q2017.78 1404.59 2015 1404.03 Q2012.25 1403.47 2009.29 1402.39 L2009.29 1397.57 Q2012.13 1399.17 2014.87 1399.98 Q2017.6 1400.79 2020.24 1400.79 Q2024.24 1400.79 2026.42 1399.22 Q2028.59 1397.64 2028.59 1394.72 Q2028.59 1392.18 2027.02 1390.74 Q2025.47 1389.31 2021.9 1388.59 L2019.05 1388.03 Q2013.82 1386.99 2011.49 1384.77 Q2009.15 1382.55 2009.15 1378.59 Q2009.15 1374.01 2012.37 1371.37 Q2015.61 1368.73 2021.28 1368.73 Q2023.71 1368.73 2026.23 1369.17 Q2028.75 1369.61 2031.39 1370.49 Z" fill="#000000" fill-rule="nonzero" fill-opacity="1" /><path clip-path="url(#clip140)" d="M2051.37 1406.32 Q2049.56 1410.95 2047.85 1412.36 Q2046.14 1413.78 2043.27 1413.78 L2039.87 1413.78 L2039.87 1410.21 L2042.37 1410.21 Q2044.12 1410.21 2045.1 1409.38 Q2046.07 1408.54 2047.25 1405.44 L2048.01 1403.5 L2037.53 1377.99 L2042.04 1377.99 L2050.14 1398.27 L2058.24 1377.99 L2062.76 1377.99 L2051.37 1406.32 Z" fill="#000000" fill-rule="nonzero" fill-opacity="1" /><path clip-path="url(#clip140)" d="M2088.82 1382.97 Q2090.42 1380.1 2092.64 1378.73 Q2094.86 1377.36 2097.87 1377.36 Q2101.92 1377.36 2104.12 1380.21 Q2106.32 1383.03 2106.32 1388.27 L2106.32 1403.91 L2102.04 1403.91 L2102.04 1388.41 Q2102.04 1384.68 2100.72 1382.87 Q2099.4 1381.07 2096.69 1381.07 Q2093.38 1381.07 2091.46 1383.27 Q2089.54 1385.47 2089.54 1389.26 L2089.54 1403.91 L2085.26 1403.91 L2085.26 1388.41 Q2085.26 1384.66 2083.94 1382.87 Q2082.62 1381.07 2079.86 1381.07 Q2076.6 1381.07 2074.68 1383.29 Q2072.76 1385.49 2072.76 1389.26 L2072.76 1403.91 L2068.48 1403.91 L2068.48 1377.99 L2072.76 1377.99 L2072.76 1382.02 Q2074.22 1379.63 2076.25 1378.5 Q2078.29 1377.36 2081.09 1377.36 Q2083.92 1377.36 2085.88 1378.8 Q2087.87 1380.23 2088.82 1382.97 Z" fill="#000000" fill-rule="nonzero" fill-opacity="1" /><path clip-path="url(#clip140)" d="M2118.94 1400.03 L2118.94 1413.78 L2114.66 1413.78 L2114.66 1377.99 L2118.94 1377.99 L2118.94 1381.92 Q2120.28 1379.61 2122.32 1378.5 Q2124.38 1377.36 2127.23 1377.36 Q2131.95 1377.36 2134.89 1381.11 Q2137.85 1384.86 2137.85 1390.97 Q2137.85 1397.09 2134.89 1400.84 Q2131.95 1404.59 2127.23 1404.59 Q2124.38 1404.59 2122.32 1403.47 Q2120.28 1402.34 2118.94 1400.03 M2133.43 1390.97 Q2133.43 1386.28 2131.48 1383.61 Q2129.56 1380.93 2126.18 1380.93 Q2122.8 1380.93 2120.86 1383.61 Q2118.94 1386.28 2118.94 1390.97 Q2118.94 1395.67 2120.86 1398.36 Q2122.8 1401.02 2126.18 1401.02 Q2129.56 1401.02 2131.48 1398.36 Q2133.43 1395.67 2133.43 1390.97 Z" fill="#000000" fill-rule="nonzero" fill-opacity="1" /><path clip-path="url(#clip140)" d="M2166.46 1388.27 L2166.46 1403.91 L2162.2 1403.91 L2162.2 1388.41 Q2162.2 1384.72 2160.77 1382.9 Q2159.33 1381.07 2156.46 1381.07 Q2153.01 1381.07 2151.02 1383.27 Q2149.03 1385.47 2149.03 1389.26 L2149.03 1403.91 L2144.75 1403.91 L2144.75 1377.99 L2149.03 1377.99 L2149.03 1382.02 Q2150.56 1379.68 2152.62 1378.52 Q2154.7 1377.36 2157.41 1377.36 Q2161.88 1377.36 2164.17 1380.14 Q2166.46 1382.9 2166.46 1388.27 Z" fill="#000000" fill-rule="nonzero" fill-opacity="1" /><path clip-path="url(#clip140)" d="M2197.13 1389.89 L2197.13 1391.97 L2177.55 1391.97 Q2177.83 1396.37 2180.19 1398.68 Q2182.57 1400.97 2186.81 1400.97 Q2189.26 1400.97 2191.55 1400.37 Q2193.87 1399.77 2196.14 1398.57 L2196.14 1402.59 Q2193.85 1403.57 2191.44 1404.08 Q2189.03 1404.59 2186.55 1404.59 Q2180.35 1404.59 2176.72 1400.97 Q2173.11 1397.36 2173.11 1391.21 Q2173.11 1384.84 2176.53 1381.11 Q2179.98 1377.36 2185.81 1377.36 Q2191.04 1377.36 2194.08 1380.74 Q2197.13 1384.1 2197.13 1389.89 M2192.87 1388.64 Q2192.83 1385.14 2190.91 1383.06 Q2189.01 1380.97 2185.86 1380.97 Q2182.29 1380.97 2180.14 1382.99 Q2178.01 1385 2177.69 1388.66 L2192.87 1388.64 Z" fill="#000000" fill-rule="nonzero" fill-opacity="1" /><path clip-path="url(#clip140)" d="M2208.34 1370.63 L2208.34 1377.99 L2217.11 1377.99 L2217.11 1381.3 L2208.34 1381.3 L2208.34 1395.37 Q2208.34 1398.54 2209.19 1399.45 Q2210.07 1400.35 2212.73 1400.35 L2217.11 1400.35 L2217.11 1403.91 L2212.73 1403.91 Q2207.8 1403.91 2205.93 1402.09 Q2204.05 1400.23 2204.05 1395.37 L2204.05 1381.3 L2200.93 1381.3 L2200.93 1377.99 L2204.05 1377.99 L2204.05 1370.63 L2208.34 1370.63 Z" fill="#000000" fill-rule="nonzero" fill-opacity="1" /></svg>
