<?xml version="1.0" encoding="utf-8"?>
<svg xmlns="http://www.w3.org/2000/svg" xmlns:xlink="http://www.w3.org/1999/xlink" width="600" height="400" viewBox="0 0 2400 1600">
<defs>
  <clipPath id="clip080">
    <rect x="0" y="0" width="2400" height="1600"/>
  </clipPath>
</defs>
<path clip-path="url(#clip080)" d="M0 1600 L2400 1600 L2400 0 L0 0  Z" fill="#ffffff" fill-rule="evenodd" fill-opacity="1"/>
<defs>
  <clipPath id="clip081">
    <rect x="480" y="0" width="1681" height="1600"/>
  </clipPath>
</defs>
<path clip-path="url(#clip080)" d="M193.936 1486.45 L2352.76 1486.45 L2352.76 47.2441 L193.936 47.2441  Z" fill="#ffffff" fill-rule="evenodd" fill-opacity="1"/>
<defs>
  <clipPath id="clip082">
    <rect x="193" y="47" width="2160" height="1440"/>
  </clipPath>
</defs>
<polyline clip-path="url(#clip082)" style="stroke:#000000; stroke-linecap:round; stroke-linejoin:round; stroke-width:2; stroke-opacity:0.1; fill:none" points="353.001,1486.45 353.001,47.2441 "/>
<polyline clip-path="url(#clip082)" style="stroke:#000000; stroke-linecap:round; stroke-linejoin:round; stroke-width:2; stroke-opacity:0.1; fill:none" points="813.174,1486.45 813.174,47.2441 "/>
<polyline clip-path="url(#clip082)" style="stroke:#000000; stroke-linecap:round; stroke-linejoin:round; stroke-width:2; stroke-opacity:0.1; fill:none" points="1273.35,1486.45 1273.35,47.2441 "/>
<polyline clip-path="url(#clip082)" style="stroke:#000000; stroke-linecap:round; stroke-linejoin:round; stroke-width:2; stroke-opacity:0.1; fill:none" points="1733.52,1486.45 1733.52,47.2441 "/>
<polyline clip-path="url(#clip082)" style="stroke:#000000; stroke-linecap:round; stroke-linejoin:round; stroke-width:2; stroke-opacity:0.1; fill:none" points="2193.69,1486.45 2193.69,47.2441 "/>
<polyline clip-path="url(#clip080)" style="stroke:#000000; stroke-linecap:round; stroke-linejoin:round; stroke-width:4; stroke-opacity:1; fill:none" points="193.936,1486.45 2352.76,1486.45 "/>
<polyline clip-path="url(#clip080)" style="stroke:#000000; stroke-linecap:round; stroke-linejoin:round; stroke-width:4; stroke-opacity:1; fill:none" points="353.001,1486.45 353.001,1467.55 "/>
<polyline clip-path="url(#clip080)" style="stroke:#000000; stroke-linecap:round; stroke-linejoin:round; stroke-width:4; stroke-opacity:1; fill:none" points="813.174,1486.45 813.174,1467.55 "/>
<polyline clip-path="url(#clip080)" style="stroke:#000000; stroke-linecap:round; stroke-linejoin:round; stroke-width:4; stroke-opacity:1; fill:none" points="1273.35,1486.45 1273.35,1467.55 "/>
<polyline clip-path="url(#clip080)" style="stroke:#000000; stroke-linecap:round; stroke-linejoin:round; stroke-width:4; stroke-opacity:1; fill:none" points="1733.52,1486.45 1733.52,1467.55 "/>
<polyline clip-path="url(#clip080)" style="stroke:#000000; stroke-linecap:round; stroke-linejoin:round; stroke-width:4; stroke-opacity:1; fill:none" points="2193.69,1486.45 2193.69,1467.55 "/>
<path clip-path="url(#clip080)" d="M299.529 1532.02 L329.205 1532.02 L329.205 1535.95 L299.529 1535.95 L299.529 1532.02 Z" fill="#000000" fill-rule="nonzero" fill-opacity="1" /><path clip-path="url(#clip080)" d="M340.108 1544.91 L347.746 1544.91 L347.746 1518.55 L339.436 1520.21 L339.436 1515.95 L347.7 1514.29 L352.376 1514.29 L352.376 1544.91 L360.015 1544.91 L360.015 1548.85 L340.108 1548.85 L340.108 1544.91 Z" fill="#000000" fill-rule="nonzero" fill-opacity="1" /><path clip-path="url(#clip080)" d="M369.459 1542.97 L374.344 1542.97 L374.344 1548.85 L369.459 1548.85 L369.459 1542.97 Z" fill="#000000" fill-rule="nonzero" fill-opacity="1" /><path clip-path="url(#clip080)" d="M394.529 1517.37 Q390.918 1517.37 389.089 1520.93 Q387.283 1524.47 387.283 1531.6 Q387.283 1538.71 389.089 1542.27 Q390.918 1545.82 394.529 1545.82 Q398.163 1545.82 399.968 1542.27 Q401.797 1538.71 401.797 1531.6 Q401.797 1524.47 399.968 1520.93 Q398.163 1517.37 394.529 1517.37 M394.529 1513.66 Q400.339 1513.66 403.394 1518.27 Q406.473 1522.85 406.473 1531.6 Q406.473 1540.33 403.394 1544.94 Q400.339 1549.52 394.529 1549.52 Q388.718 1549.52 385.64 1544.94 Q382.584 1540.33 382.584 1531.6 Q382.584 1522.85 385.64 1518.27 Q388.718 1513.66 394.529 1513.66 Z" fill="#000000" fill-rule="nonzero" fill-opacity="1" /><path clip-path="url(#clip080)" d="M760.199 1532.02 L789.875 1532.02 L789.875 1535.95 L760.199 1535.95 L760.199 1532.02 Z" fill="#000000" fill-rule="nonzero" fill-opacity="1" /><path clip-path="url(#clip080)" d="M809.968 1517.37 Q806.356 1517.37 804.528 1520.93 Q802.722 1524.47 802.722 1531.6 Q802.722 1538.71 804.528 1542.27 Q806.356 1545.82 809.968 1545.82 Q813.602 1545.82 815.407 1542.27 Q817.236 1538.71 817.236 1531.6 Q817.236 1524.47 815.407 1520.93 Q813.602 1517.37 809.968 1517.37 M809.968 1513.66 Q815.778 1513.66 818.833 1518.27 Q821.912 1522.85 821.912 1531.6 Q821.912 1540.33 818.833 1544.94 Q815.778 1549.52 809.968 1549.52 Q804.157 1549.52 801.079 1544.94 Q798.023 1540.33 798.023 1531.6 Q798.023 1522.85 801.079 1518.27 Q804.157 1513.66 809.968 1513.66 Z" fill="#000000" fill-rule="nonzero" fill-opacity="1" /><path clip-path="url(#clip080)" d="M830.129 1542.97 L835.014 1542.97 L835.014 1548.85 L830.129 1548.85 L830.129 1542.97 Z" fill="#000000" fill-rule="nonzero" fill-opacity="1" /><path clip-path="url(#clip080)" d="M845.245 1514.29 L863.601 1514.29 L863.601 1518.22 L849.527 1518.22 L849.527 1526.7 Q850.546 1526.35 851.565 1526.19 Q852.583 1526 853.602 1526 Q859.389 1526 862.768 1529.17 Q866.148 1532.34 866.148 1537.76 Q866.148 1543.34 862.676 1546.44 Q859.203 1549.52 852.884 1549.52 Q850.708 1549.52 848.44 1549.15 Q846.194 1548.78 843.787 1548.04 L843.787 1543.34 Q845.87 1544.47 848.092 1545.03 Q850.315 1545.58 852.791 1545.58 Q856.796 1545.58 859.134 1543.48 Q861.472 1541.37 861.472 1537.76 Q861.472 1534.15 859.134 1532.04 Q856.796 1529.94 852.791 1529.94 Q850.916 1529.94 849.041 1530.35 Q847.19 1530.77 845.245 1531.65 L845.245 1514.29 Z" fill="#000000" fill-rule="nonzero" fill-opacity="1" /><path clip-path="url(#clip080)" d="M1250.73 1517.37 Q1247.12 1517.37 1245.29 1520.93 Q1243.49 1524.47 1243.49 1531.6 Q1243.49 1538.71 1245.29 1542.27 Q1247.12 1545.82 1250.73 1545.82 Q1254.36 1545.82 1256.17 1542.27 Q1258 1538.71 1258 1531.6 Q1258 1524.47 1256.17 1520.93 Q1254.36 1517.37 1250.73 1517.37 M1250.73 1513.66 Q1256.54 1513.66 1259.6 1518.27 Q1262.67 1522.85 1262.67 1531.6 Q1262.67 1540.33 1259.6 1544.94 Q1256.54 1549.52 1250.73 1549.52 Q1244.92 1549.52 1241.84 1544.94 Q1238.79 1540.33 1238.79 1531.6 Q1238.79 1522.85 1241.84 1518.27 Q1244.92 1513.66 1250.73 1513.66 Z" fill="#000000" fill-rule="nonzero" fill-opacity="1" /><path clip-path="url(#clip080)" d="M1270.89 1542.97 L1275.78 1542.97 L1275.78 1548.85 L1270.89 1548.85 L1270.89 1542.97 Z" fill="#000000" fill-rule="nonzero" fill-opacity="1" /><path clip-path="url(#clip080)" d="M1295.96 1517.37 Q1292.35 1517.37 1290.52 1520.93 Q1288.72 1524.47 1288.72 1531.6 Q1288.72 1538.71 1290.52 1542.27 Q1292.35 1545.82 1295.96 1545.82 Q1299.6 1545.82 1301.4 1542.27 Q1303.23 1538.71 1303.23 1531.6 Q1303.23 1524.47 1301.4 1520.93 Q1299.6 1517.37 1295.96 1517.37 M1295.96 1513.66 Q1301.77 1513.66 1304.83 1518.27 Q1307.91 1522.85 1307.91 1531.6 Q1307.91 1540.33 1304.83 1544.94 Q1301.77 1549.52 1295.96 1549.52 Q1290.15 1549.52 1287.07 1544.94 Q1284.02 1540.33 1284.02 1531.6 Q1284.02 1522.85 1287.07 1518.27 Q1290.15 1513.66 1295.96 1513.66 Z" fill="#000000" fill-rule="nonzero" fill-opacity="1" /><path clip-path="url(#clip080)" d="M1711.4 1517.37 Q1707.79 1517.37 1705.96 1520.93 Q1704.16 1524.47 1704.16 1531.6 Q1704.16 1538.71 1705.96 1542.27 Q1707.79 1545.82 1711.4 1545.82 Q1715.03 1545.82 1716.84 1542.27 Q1718.67 1538.71 1718.67 1531.6 Q1718.67 1524.47 1716.84 1520.93 Q1715.03 1517.37 1711.4 1517.37 M1711.4 1513.66 Q1717.21 1513.66 1720.27 1518.27 Q1723.34 1522.85 1723.34 1531.6 Q1723.34 1540.33 1720.27 1544.94 Q1717.21 1549.52 1711.4 1549.52 Q1705.59 1549.52 1702.51 1544.94 Q1699.46 1540.33 1699.46 1531.6 Q1699.46 1522.85 1702.51 1518.27 Q1705.59 1513.66 1711.4 1513.66 Z" fill="#000000" fill-rule="nonzero" fill-opacity="1" /><path clip-path="url(#clip080)" d="M1731.56 1542.97 L1736.45 1542.97 L1736.45 1548.85 L1731.56 1548.85 L1731.56 1542.97 Z" fill="#000000" fill-rule="nonzero" fill-opacity="1" /><path clip-path="url(#clip080)" d="M1746.68 1514.29 L1765.03 1514.29 L1765.03 1518.22 L1750.96 1518.22 L1750.96 1526.7 Q1751.98 1526.35 1753 1526.19 Q1754.02 1526 1755.03 1526 Q1760.82 1526 1764.2 1529.17 Q1767.58 1532.34 1767.58 1537.76 Q1767.58 1543.34 1764.11 1546.44 Q1760.64 1549.52 1754.32 1549.52 Q1752.14 1549.52 1749.87 1549.15 Q1747.63 1548.78 1745.22 1548.04 L1745.22 1543.34 Q1747.3 1544.47 1749.53 1545.03 Q1751.75 1545.58 1754.22 1545.58 Q1758.23 1545.58 1760.57 1543.48 Q1762.9 1541.37 1762.9 1537.76 Q1762.9 1534.15 1760.57 1532.04 Q1758.23 1529.94 1754.22 1529.94 Q1752.35 1529.94 1750.47 1530.35 Q1748.62 1530.77 1746.68 1531.65 L1746.68 1514.29 Z" fill="#000000" fill-rule="nonzero" fill-opacity="1" /><path clip-path="url(#clip080)" d="M2160.84 1544.91 L2168.48 1544.91 L2168.48 1518.55 L2160.17 1520.21 L2160.17 1515.95 L2168.44 1514.29 L2173.11 1514.29 L2173.11 1544.91 L2180.75 1544.91 L2180.75 1548.85 L2160.84 1548.85 L2160.84 1544.91 Z" fill="#000000" fill-rule="nonzero" fill-opacity="1" /><path clip-path="url(#clip080)" d="M2190.2 1542.97 L2195.08 1542.97 L2195.08 1548.85 L2190.2 1548.85 L2190.2 1542.97 Z" fill="#000000" fill-rule="nonzero" fill-opacity="1" /><path clip-path="url(#clip080)" d="M2215.26 1517.37 Q2211.65 1517.37 2209.83 1520.93 Q2208.02 1524.47 2208.02 1531.6 Q2208.02 1538.71 2209.83 1542.27 Q2211.65 1545.82 2215.26 1545.82 Q2218.9 1545.82 2220.7 1542.27 Q2222.53 1538.71 2222.53 1531.6 Q2222.53 1524.47 2220.7 1520.93 Q2218.9 1517.37 2215.26 1517.37 M2215.26 1513.66 Q2221.07 1513.66 2224.13 1518.27 Q2227.21 1522.85 2227.21 1531.6 Q2227.21 1540.33 2224.13 1544.94 Q2221.07 1549.52 2215.26 1549.52 Q2209.45 1549.52 2206.38 1544.94 Q2203.32 1540.33 2203.32 1531.6 Q2203.32 1522.85 2206.38 1518.27 Q2209.45 1513.66 2215.26 1513.66 Z" fill="#000000" fill-rule="nonzero" fill-opacity="1" /><polyline clip-path="url(#clip082)" style="stroke:#000000; stroke-linecap:round; stroke-linejoin:round; stroke-width:2; stroke-opacity:0.1; fill:none" points="193.936,1443.74 2352.76,1443.74 "/>
<polyline clip-path="url(#clip082)" style="stroke:#000000; stroke-linecap:round; stroke-linejoin:round; stroke-width:2; stroke-opacity:0.1; fill:none" points="193.936,1106.61 2352.76,1106.61 "/>
<polyline clip-path="url(#clip082)" style="stroke:#000000; stroke-linecap:round; stroke-linejoin:round; stroke-width:2; stroke-opacity:0.1; fill:none" points="193.936,769.48 2352.76,769.48 "/>
<polyline clip-path="url(#clip082)" style="stroke:#000000; stroke-linecap:round; stroke-linejoin:round; stroke-width:2; stroke-opacity:0.1; fill:none" points="193.936,432.35 2352.76,432.35 "/>
<polyline clip-path="url(#clip082)" style="stroke:#000000; stroke-linecap:round; stroke-linejoin:round; stroke-width:2; stroke-opacity:0.1; fill:none" points="193.936,95.2193 2352.76,95.2193 "/>
<polyline clip-path="url(#clip080)" style="stroke:#000000; stroke-linecap:round; stroke-linejoin:round; stroke-width:4; stroke-opacity:1; fill:none" points="193.936,1486.45 193.936,47.2441 "/>
<polyline clip-path="url(#clip080)" style="stroke:#000000; stroke-linecap:round; stroke-linejoin:round; stroke-width:4; stroke-opacity:1; fill:none" points="193.936,1443.74 212.834,1443.74 "/>
<polyline clip-path="url(#clip080)" style="stroke:#000000; stroke-linecap:round; stroke-linejoin:round; stroke-width:4; stroke-opacity:1; fill:none" points="193.936,1106.61 212.834,1106.61 "/>
<polyline clip-path="url(#clip080)" style="stroke:#000000; stroke-linecap:round; stroke-linejoin:round; stroke-width:4; stroke-opacity:1; fill:none" points="193.936,769.48 212.834,769.48 "/>
<polyline clip-path="url(#clip080)" style="stroke:#000000; stroke-linecap:round; stroke-linejoin:round; stroke-width:4; stroke-opacity:1; fill:none" points="193.936,432.35 212.834,432.35 "/>
<polyline clip-path="url(#clip080)" style="stroke:#000000; stroke-linecap:round; stroke-linejoin:round; stroke-width:4; stroke-opacity:1; fill:none" points="193.936,95.2193 212.834,95.2193 "/>
<path clip-path="url(#clip080)" d="M50.9921 1444.19 L80.6679 1444.19 L80.6679 1448.13 L50.9921 1448.13 L50.9921 1444.19 Z" fill="#000000" fill-rule="nonzero" fill-opacity="1" /><path clip-path="url(#clip080)" d="M91.5706 1457.09 L99.2095 1457.09 L99.2095 1430.72 L90.8993 1432.39 L90.8993 1428.13 L99.1632 1426.46 L103.839 1426.46 L103.839 1457.09 L111.478 1457.09 L111.478 1461.02 L91.5706 1461.02 L91.5706 1457.09 Z" fill="#000000" fill-rule="nonzero" fill-opacity="1" /><path clip-path="url(#clip080)" d="M120.922 1455.14 L125.807 1455.14 L125.807 1461.02 L120.922 1461.02 L120.922 1455.14 Z" fill="#000000" fill-rule="nonzero" fill-opacity="1" /><path clip-path="url(#clip080)" d="M145.992 1429.54 Q142.381 1429.54 140.552 1433.1 Q138.746 1436.65 138.746 1443.78 Q138.746 1450.88 140.552 1454.45 Q142.381 1457.99 145.992 1457.99 Q149.626 1457.99 151.431 1454.45 Q153.26 1450.88 153.26 1443.78 Q153.26 1436.65 151.431 1433.1 Q149.626 1429.54 145.992 1429.54 M145.992 1425.84 Q151.802 1425.84 154.857 1430.44 Q157.936 1435.03 157.936 1443.78 Q157.936 1452.5 154.857 1457.11 Q151.802 1461.69 145.992 1461.69 Q140.181 1461.69 137.103 1457.11 Q134.047 1452.5 134.047 1443.78 Q134.047 1435.03 137.103 1430.44 Q140.181 1425.84 145.992 1425.84 Z" fill="#000000" fill-rule="nonzero" fill-opacity="1" /><path clip-path="url(#clip080)" d="M51.9875 1107.06 L81.6633 1107.06 L81.6633 1111 L51.9875 1111 L51.9875 1107.06 Z" fill="#000000" fill-rule="nonzero" fill-opacity="1" /><path clip-path="url(#clip080)" d="M101.756 1092.41 Q98.1447 1092.41 96.316 1095.97 Q94.5104 1099.52 94.5104 1106.64 Q94.5104 1113.75 96.316 1117.32 Q98.1447 1120.86 101.756 1120.86 Q105.39 1120.86 107.196 1117.32 Q109.024 1113.75 109.024 1106.64 Q109.024 1099.52 107.196 1095.97 Q105.39 1092.41 101.756 1092.41 M101.756 1088.71 Q107.566 1088.71 110.621 1093.31 Q113.7 1097.89 113.7 1106.64 Q113.7 1115.37 110.621 1119.98 Q107.566 1124.56 101.756 1124.56 Q95.9456 1124.56 92.8669 1119.98 Q89.8114 1115.37 89.8114 1106.64 Q89.8114 1097.89 92.8669 1093.31 Q95.9456 1088.71 101.756 1088.71 Z" fill="#000000" fill-rule="nonzero" fill-opacity="1" /><path clip-path="url(#clip080)" d="M121.918 1118.01 L126.802 1118.01 L126.802 1123.89 L121.918 1123.89 L121.918 1118.01 Z" fill="#000000" fill-rule="nonzero" fill-opacity="1" /><path clip-path="url(#clip080)" d="M137.033 1089.33 L155.39 1089.33 L155.39 1093.27 L141.316 1093.27 L141.316 1101.74 Q142.334 1101.39 143.353 1101.23 Q144.371 1101.04 145.39 1101.04 Q151.177 1101.04 154.556 1104.21 Q157.936 1107.39 157.936 1112.8 Q157.936 1118.38 154.464 1121.48 Q150.992 1124.56 144.672 1124.56 Q142.496 1124.56 140.228 1124.19 Q137.982 1123.82 135.575 1123.08 L135.575 1118.38 Q137.658 1119.52 139.881 1120.07 Q142.103 1120.63 144.58 1120.63 Q148.584 1120.63 150.922 1118.52 Q153.26 1116.41 153.26 1112.8 Q153.26 1109.19 150.922 1107.08 Q148.584 1104.98 144.58 1104.98 Q142.705 1104.98 140.83 1105.39 Q138.978 1105.81 137.033 1106.69 L137.033 1089.33 Z" fill="#000000" fill-rule="nonzero" fill-opacity="1" /><path clip-path="url(#clip080)" d="M100.76 755.279 Q97.1493 755.279 95.3206 758.843 Q93.515 762.385 93.515 769.515 Q93.515 776.621 95.3206 780.186 Q97.1493 783.727 100.76 783.727 Q104.395 783.727 106.2 780.186 Q108.029 776.621 108.029 769.515 Q108.029 762.385 106.2 758.843 Q104.395 755.279 100.76 755.279 M100.76 751.575 Q106.571 751.575 109.626 756.181 Q112.705 760.765 112.705 769.515 Q112.705 778.241 109.626 782.848 Q106.571 787.431 100.76 787.431 Q94.9502 787.431 91.8715 782.848 Q88.816 778.241 88.816 769.515 Q88.816 760.765 91.8715 756.181 Q94.9502 751.575 100.76 751.575 Z" fill="#000000" fill-rule="nonzero" fill-opacity="1" /><path clip-path="url(#clip080)" d="M120.922 780.88 L125.807 780.88 L125.807 786.76 L120.922 786.76 L120.922 780.88 Z" fill="#000000" fill-rule="nonzero" fill-opacity="1" /><path clip-path="url(#clip080)" d="M145.992 755.279 Q142.381 755.279 140.552 758.843 Q138.746 762.385 138.746 769.515 Q138.746 776.621 140.552 780.186 Q142.381 783.727 145.992 783.727 Q149.626 783.727 151.431 780.186 Q153.26 776.621 153.26 769.515 Q153.26 762.385 151.431 758.843 Q149.626 755.279 145.992 755.279 M145.992 751.575 Q151.802 751.575 154.857 756.181 Q157.936 760.765 157.936 769.515 Q157.936 778.241 154.857 782.848 Q151.802 787.431 145.992 787.431 Q140.181 787.431 137.103 782.848 Q134.047 778.241 134.047 769.515 Q134.047 760.765 137.103 756.181 Q140.181 751.575 145.992 751.575 Z" fill="#000000" fill-rule="nonzero" fill-opacity="1" /><path clip-path="url(#clip080)" d="M101.756 418.148 Q98.1447 418.148 96.316 421.713 Q94.5104 425.255 94.5104 432.384 Q94.5104 439.491 96.316 443.056 Q98.1447 446.597 101.756 446.597 Q105.39 446.597 107.196 443.056 Q109.024 439.491 109.024 432.384 Q109.024 425.255 107.196 421.713 Q105.39 418.148 101.756 418.148 M101.756 414.445 Q107.566 414.445 110.621 419.051 Q113.7 423.634 113.7 432.384 Q113.7 441.111 110.621 445.718 Q107.566 450.301 101.756 450.301 Q95.9456 450.301 92.8669 445.718 Q89.8114 441.111 89.8114 432.384 Q89.8114 423.634 92.8669 419.051 Q95.9456 414.445 101.756 414.445 Z" fill="#000000" fill-rule="nonzero" fill-opacity="1" /><path clip-path="url(#clip080)" d="M121.918 443.75 L126.802 443.75 L126.802 449.63 L121.918 449.63 L121.918 443.75 Z" fill="#000000" fill-rule="nonzero" fill-opacity="1" /><path clip-path="url(#clip080)" d="M137.033 415.07 L155.39 415.07 L155.39 419.005 L141.316 419.005 L141.316 427.477 Q142.334 427.13 143.353 426.968 Q144.371 426.782 145.39 426.782 Q151.177 426.782 154.556 429.954 Q157.936 433.125 157.936 438.542 Q157.936 444.12 154.464 447.222 Q150.992 450.301 144.672 450.301 Q142.496 450.301 140.228 449.93 Q137.982 449.56 135.575 448.819 L135.575 444.12 Q137.658 445.255 139.881 445.81 Q142.103 446.366 144.58 446.366 Q148.584 446.366 150.922 444.259 Q153.26 442.153 153.26 438.542 Q153.26 434.931 150.922 432.824 Q148.584 430.718 144.58 430.718 Q142.705 430.718 140.83 431.134 Q138.978 431.551 137.033 432.431 L137.033 415.07 Z" fill="#000000" fill-rule="nonzero" fill-opacity="1" /><path clip-path="url(#clip080)" d="M91.5706 108.564 L99.2095 108.564 L99.2095 82.1985 L90.8993 83.8652 L90.8993 79.606 L99.1632 77.9393 L103.839 77.9393 L103.839 108.564 L111.478 108.564 L111.478 112.499 L91.5706 112.499 L91.5706 108.564 Z" fill="#000000" fill-rule="nonzero" fill-opacity="1" /><path clip-path="url(#clip080)" d="M120.922 106.62 L125.807 106.62 L125.807 112.499 L120.922 112.499 L120.922 106.62 Z" fill="#000000" fill-rule="nonzero" fill-opacity="1" /><path clip-path="url(#clip080)" d="M145.992 81.018 Q142.381 81.018 140.552 84.5828 Q138.746 88.1244 138.746 95.254 Q138.746 102.36 140.552 105.925 Q142.381 109.467 145.992 109.467 Q149.626 109.467 151.431 105.925 Q153.26 102.36 153.26 95.254 Q153.26 88.1244 151.431 84.5828 Q149.626 81.018 145.992 81.018 M145.992 77.3143 Q151.802 77.3143 154.857 81.9208 Q157.936 86.5041 157.936 95.254 Q157.936 103.981 154.857 108.587 Q151.802 113.171 145.992 113.171 Q140.181 113.171 137.103 108.587 Q134.047 103.981 134.047 95.254 Q134.047 86.5041 137.103 81.9208 Q140.181 77.3143 145.992 77.3143 Z" fill="#000000" fill-rule="nonzero" fill-opacity="1" /><polyline clip-path="url(#clip082)" style="stroke:#009af9; stroke-linecap:round; stroke-linejoin:round; stroke-width:4; stroke-opacity:1; fill:none" points="1273.35,95.2193 1365.13,98.5116 1456.02,108.718 1545.23,125.179 1631.51,147.567 1714.42,176.21 1793.29,209.791 1866.99,247.981 1935.29,290.452 1997.31,336.544 2053.03,385.928 2102.02,437.453 2143.81,491.282 2177.96,546.757 2204.48,603.302 2223.35,660.834 2234.14,718.902 2236.83,777.253 2232.34,835.531 2218.86,893.517 2198.18,950.885 2169.42,1007.18 2133.47,1062.16 2089.88,1115.5 2039.1,1166.53 1981.58,1214.93 1917.77,1260.03 1847.66,1301.51 1772.62,1338.72 1692.85,1370.98 1608.81,1397.98 1521.63,1419.05 1431.98,1433.53 1340.75,1442.09 1248.85,1443.41 1157.18,1438.47 1066.74,1426.62 978.323,1408.51 892.715,1384.15 810.927,1354.52 733.183,1319.62 660.831,1280.11 594.322,1236.33 533.655,1189.58 479.728,1139.53 432.992,1087.35 392.997,1033.03 361.09,977.223 336.823,920.349 319.746,862.652 310.759,804.502 310.759,746.166 317.05,687.913 332.329,630.134 355.248,573.095 386.256,516.961 424.454,462.474 469.842,409.633 522.42,359.261 581.739,311.523 646.9,267.406 718.353,226.911 794.749,191.025 875.863,160.407 960.797,135.056 1048.76,115.631 1138.87,102.462 1230.4,95.8778 1322.33,96.207 1413.78,103.121 1503.88,116.619 1591.51,136.373 1676.22,162.053 1756.89,193.329 1833.28,229.545 1904.29,270.369 1969,314.815 2027.87,362.553 2080,412.925 2124.93,465.931 2162.68,520.583 2192.79,576.716 2215.26,633.92 2229.64,691.741 2236.83,749.994 2235.03,808.349 2226.05,866.52 2208.97,924.135 2183.8,981.009 2151,1036.65 2111,1090.81 2063.37,1142.83 2008.99,1192.54 1948.33,1239.29 1880.92,1282.75 1808.57,1321.93 1730.6,1356.49 1648.58,1386.13 1562.75,1409.83 1474.11,1427.61 1383.5,1438.8 1291.8,1443.74 1199.93,1441.44 1108.76,1432.88 1019.22,1417.73 932.261,1396.33 848.45,1369.01 769.134,1336.41 694.086,1298.88 624.88,1257.4 561.067,1211.96 503.995,1163.24 454.113,1111.88 410.972,1058.54 375.021,1003.56 346.71,947.099 326.937,889.731 314.354,831.704 309.86,773.42 313.455,715.075 324.24,657.048 344.013,599.598 370.977,542.97 405.579,487.66 447.822,433.996 496.805,382.636 552.978,333.581 615.893,287.489 684.199,245.348 758.348,207.486 837.44,173.905 920.802,145.921 1007.31,123.862 1096.62,107.73 1187.57,98.1824 1279.39,95.2193 1371.14,99.1701 1461.98,109.376 1550.84,126.496 1637.12,149.542 1719.81,178.185 1798.23,212.096 1871.48,250.615 1939.34,293.415 2001.35,339.836 2056.63,389.221 2105.16,441.074 2146.06,494.903 2179.76,550.378 2206.27,607.088 2224.25,664.62 2234.14,722.77 2236.83,781.085 2231.44,839.359 2217.96,897.303 2196.39,954.506 2167.18,1010.8 2130.78,1065.79 2086.74,1118.79 2035.51,1169.82 1977.54,1217.89 1913.27,1262.99 1843.17,1304.15 1767.67,1341.02 1687.46,1372.96 1603.2,1399.29 1515.79,1420.04 1426.03,1434.52 1334.69,1442.09 1242.82,1443.41 1151.22,1437.81 1060.79,1425.63 972.481,1406.87 887.098,1382.5 805.534,1352.21 728.239,1316.99 656.337,1277.15 590.277,1233.36 530.06,1186.28 476.583,1136.24 429.846,1083.73 390.75,1029.41 359.292,973.602 335.026,916.645 318.848,858.865 310.759,800.674 310.759,742.318 317.949,684.127 334.127,626.348 357.046,569.309 388.503,513.34 427.15,458.852 472.987,406.34 526.015,355.968 585.784,308.56 651.844,264.772 723.296,224.606 800.141,189.05 881.48,158.431 966.415,133.41 "/>
<polyline clip-path="url(#clip082)" style="stroke:#e26f46; stroke-linecap:round; stroke-linejoin:round; stroke-width:4; stroke-opacity:1; fill:none" points="1273.35,95.2193 1352.44,96.5362 1433.33,104.108 1514.22,117.936 1598.7,137.361 1684.09,161.065 1769.47,191.354 1853.95,227.569 1937.54,269.711 2017.08,318.436 2089.88,373.747 2155.04,434.654 2208.07,500.665 2249.41,568.979 2278.18,639.105 2291.66,709.231 2291.66,777.34 2279.97,842.98 2254.81,906.768 2220.65,965.7 2179.31,1020.52 2129.88,1072.7 2071.91,1122.41 2012.14,1168.18 1949.67,1210.98 1884.96,1250.81 1814.86,1289.66 1741.61,1325.22 1669.71,1356.49 1600.5,1381.85 1525.9,1404.23 1452.2,1421.68 1380.3,1432.22 1303.01,1439.13 1223.91,1439.79 1144.82,1434.52 1063.03,1423.99 978.548,1408.51 894.063,1386.13 809.578,1357.81 724.195,1323.9 639.261,1284.39 558.82,1237.64 483.773,1185.3 415.466,1127.02 357.495,1063.32 311.657,995.495 278.403,926.522 259.529,856.396 255.035,786.641 263.124,719.643 281.099,656.966 313.455,595.647 355.697,538.032 404.231,484.203 459.955,433.008 517.926,387.245 579.043,343.458 644.204,302.304 712.061,264.772 780.818,229.545 849.124,198.926 920.128,170.942 990.232,147.567 1062.13,128.471 1139.43,112.668 1211.33,105.096 1287.73,102.133 1365.92,105.096 1448.61,112.668 1527.7,127.484 1610.39,146.25 1694.87,170.942 1778.46,201.231 1861.14,237.117 1942.48,279.587 2019.78,327.984 2091.23,382.636 2154.14,442.226 2206.27,506.755 2245.82,573.589 2273.68,642.398 2288.06,710.836 2288.06,778.986 2272.78,845.491 2244.92,908.414 2208.97,967.182 2165.83,1022 2113.7,1074.67 2058.43,1122.41 1999.11,1167.52 1934.39,1210.32 1868.78,1249.82 1800.03,1286.7 1730.82,1320.28 1662.52,1349.58 1592.41,1375.59 1520.51,1397.98 1445.91,1415.43 1372.21,1427.28 1296.71,1433.2 1219.42,1433.2 1142.12,1427.28 1063.03,1416.09 980.346,1400.61 899.456,1378.55 815.87,1351.89 732.284,1319.29 649.147,1281.1 569.156,1236.66 494.109,1184.97 426.701,1128.34 367.381,1066.28 320.645,999.446 287.391,931.378 266.719,861.993 259.529,793.76 263.124,728.409 281.998,664.291 313.455,602.972 353.001,545.11 401.984,490.623 456.81,439.428 514.78,392.184 575.448,348.396 641.508,307.243 704.871,269.711 772.729,234.154 841.036,201.889 909.342,174.893 978.548,151.188 1048.65,131.434 1122.35,115.961 1199.65,105.096 1276.94,100.158 1354.24,101.804 1437.82,107.73 1519.61,121.228 1603.2,139.994 1687.68,164.687 1772.17,194.976 1854.85,231.52 1937.99,273.003 2016.63,321.729 2088.98,377.039 2152.35,437.946 2206.27,502.475 2247.62,570.461 2274.58,640.669 2288.06,710.466 2288.06,778.986 2272.78,845.491 2244.92,908.414 2208.97,967.182 2165.83,1022 2113.7,1074.67 2058.43,1122.41 1999.11,1167.52 1934.39,1210.32 1868.78,1249.82 1800.03,1286.7 1730.82,1320.28 1662.52,1349.58 1592.41,1375.59 1520.51,1397.98 1445.91,1415.43 1372.21,1427.28 1296.71,1433.2 1219.42,1433.2 1142.12,1427.28 1063.03,1416.09 980.346,1400.61 899.456,1378.55 815.87,1351.89 732.284,1319.29 649.147,1281.1 569.156,1236.66 494.109,1184.97 426.701,1128.34 367.381,1066.28 320.645,999.446 287.391,931.378 266.719,861.993 259.529,793.76 263.124,728.409 281.998,664.291 313.455,602.972 353.001,545.11 401.984,490.623 456.81,439.428 514.78,392.184 575.448,348.396 641.508,307.243 704.871,269.711 772.729,234.154 841.036,201.889 909.342,174.893 978.548,151.188 1048.65,131.434 1122.35,115.961 "/>
<polyline clip-path="url(#clip082)" style="stroke:#3da44d; stroke-linecap:round; stroke-linejoin:round; stroke-width:4; stroke-opacity:1; fill:none" points="1273.35,95.2193 1362.32,101.804 1450.4,114.644 1537.59,133.41 1622.97,158.102 1704.76,188.062 1783.85,222.96 1858.45,262.468 1928.55,305.926 1994.16,353.005 2051.68,403.048 2101.12,455.396 2142.91,509.718 2177.06,565.523 2201.78,622.397 2218.86,680.012 2229.64,738.038 2232.34,796.147 2229.64,854.174 2218.86,911.789 2200.88,968.663 2175.27,1024.3 2141.56,1078.46 2101.12,1130.64 2051.68,1180.69 1993.26,1227.77 1929.45,1271.22 1860.25,1310.73 1786.55,1345.96 1708.35,1376.25 1626.56,1401.27 1542.08,1420.37 1454.9,1433.53 1366.82,1440.45 1277.84,1440.78 1188.86,1434.52 1100.78,1422.01 1013.6,1403.57 927.318,1379.21 844.631,1349.25 765.538,1314.35 690.041,1274.85 619.937,1231.39 555.225,1184.64 497.704,1134.92 448.271,1082.74 404.681,1028.58 370.078,972.779 344.013,915.904 326.038,858.289 315.253,800.18 311.657,741.948 314.354,683.88 324.24,626.183 340.418,569.144 364.685,513.175 397.041,458.688 438.385,406.011 487.817,355.639 544.44,308.23 608.253,264.114 678.357,223.948 752.956,188.391 832.947,157.773 915.634,132.422 1001.02,112.998 1088.2,99.8285 1176.28,92.5855 1266.16,91.927 1355.13,97.8531 1444.11,110.035 1531.29,128.471 1617.58,152.834 1700.26,182.465 1779.36,217.034 1855.75,256.212 1926.75,299.67 1992.37,346.421 2051.68,396.464 2102.02,448.811 2144.71,503.134 2179.31,559.103 2205.37,616.142 2223.35,673.921 2234.14,732.154 2237.73,790.509 2235.03,848.742 2226.05,906.604 2209.87,963.725 2185.6,1019.86 2152.8,1074.51 2112.35,1127.35 2064.27,1177.72 2005.85,1225.13 1942.93,1269.25 1873.73,1309.41 1799.13,1345.3 1720.94,1376.25 1639.15,1401.93 1555.56,1422.01 1468.38,1436.17 1381.2,1443.74 1292.22,1445.06 1202.34,1439.79 1114.26,1428.27 1026.18,1410.49 939.901,1386.78 856.315,1357.81 776.324,1323.57 699.029,1284.72 627.127,1241.92 561.517,1195.5 502.198,1146.12 450.069,1094.1 405.579,1039.94 369.179,984.137 342.216,927.18 322.443,869.401 309.86,811.045 304.467,752.483 306.265,694.045 314.354,635.978 329.633,578.527 353.45,522.064 385.357,466.919 424.454,413.584 471.639,362.553 528.262,314.486 591.176,269.711 660.382,228.557 734.081,191.683 814.072,159.748 896.76,133.41 982.143,112.668 1070.22,98.1824 1159.2,89.9516 1249.08,87.9763 1339.86,92.5855 1429.73,103.779 1516.91,121.228 1603.2,144.604 1686.78,173.576 1768.57,207.816 1846.76,246.665 1918.67,289.464 1984.28,335.886 2044.49,385.599 2096.62,437.617 2140.66,491.775 2175.27,547.415 2202.68,604.289 2222.45,661.987 2235.03,720.219 2240.43,778.657 2238.63,837.013 2230.54,895.081 2215.26,952.531 2192.34,1008.99 2160.89,1063.97 2120.89,1117.15 2072.36,1168.18 2017.53,1216.24 1956.41,1261.35 1889.01,1302.5 1815.31,1339.37 1737.11,1371.31 1655.33,1398.31 1570.84,1419.38 1483.66,1434.52 1395.58,1443.41 1306.6,1445.72 1217.62,1441.76 1128.64,1431.23 1041.46,1414.77 954.281,1392.05 870.695,1363.74 789.805,1330.49 712.511,1292.3 640.609,1250.15 574.1,1204.39 513.882,1155.34 460.854,1103.81 415.915,1050.15 379.964,994.837 351.204,938.21 329.633,880.759 316.151,822.691 308.961,764.336 308.961,705.98 315.253,647.83 328.734,590.379 351.204,533.752 380.863,478.442 419.51,425.107 466.247,373.747 520.173,325.021 582.189,279.587 648.698,237.775 723.296,200.243 800.591,167.65 "/>
<path clip-path="url(#clip080)" d="M1764.98 302.578 L2280.8 302.578 L2280.8 95.2176 L1764.98 95.2176  Z" fill="#ffffff" fill-rule="evenodd" fill-opacity="1"/>
<polyline clip-path="url(#clip080)" style="stroke:#000000; stroke-linecap:round; stroke-linejoin:round; stroke-width:4; stroke-opacity:1; fill:none" points="1764.98,302.578 2280.8,302.578 2280.8,95.2176 1764.98,95.2176 1764.98,302.578 "/>
<polyline clip-path="url(#clip080)" style="stroke:#009af9; stroke-linecap:round; stroke-linejoin:round; stroke-width:4; stroke-opacity:1; fill:none" points="1788.97,147.058 1932.89,147.058 "/>
<path clip-path="url(#clip080)" d="M1964.29 131.051 L1964.29 138.412 L1973.06 138.412 L1973.06 141.722 L1964.29 141.722 L1964.29 155.796 Q1964.29 158.967 1965.14 159.87 Q1966.02 160.773 1968.68 160.773 L1973.06 160.773 L1973.06 164.338 L1968.68 164.338 Q1963.75 164.338 1961.88 162.509 Q1960 160.657 1960 155.796 L1960 141.722 L1956.88 141.722 L1956.88 138.412 L1960 138.412 L1960 131.051 L1964.29 131.051 Z" fill="#000000" fill-rule="nonzero" fill-opacity="1" /><path clip-path="url(#clip080)" d="M1993.68 142.393 Q1992.97 141.977 1992.11 141.791 Q1991.28 141.583 1990.26 141.583 Q1986.65 141.583 1984.7 143.944 Q1982.78 146.282 1982.78 150.68 L1982.78 164.338 L1978.5 164.338 L1978.5 138.412 L1982.78 138.412 L1982.78 142.44 Q1984.12 140.078 1986.28 138.944 Q1988.43 137.787 1991.51 137.787 Q1991.95 137.787 1992.48 137.856 Q1993.01 137.903 1993.66 138.018 L1993.68 142.393 Z" fill="#000000" fill-rule="nonzero" fill-opacity="1" /><path clip-path="url(#clip080)" d="M2009.93 151.305 Q2004.77 151.305 2002.78 152.486 Q2000.79 153.666 2000.79 156.514 Q2000.79 158.782 2002.27 160.125 Q2003.78 161.444 2006.35 161.444 Q2009.89 161.444 2012.02 158.944 Q2014.17 156.421 2014.17 152.254 L2014.17 151.305 L2009.93 151.305 M2018.43 149.546 L2018.43 164.338 L2014.17 164.338 L2014.17 160.402 Q2012.71 162.763 2010.54 163.898 Q2008.36 165.009 2005.21 165.009 Q2001.23 165.009 1998.87 162.787 Q1996.53 160.541 1996.53 156.791 Q1996.53 152.416 1999.45 150.194 Q2002.39 147.972 2008.2 147.972 L2014.17 147.972 L2014.17 147.555 Q2014.17 144.615 2012.23 143.018 Q2010.31 141.398 2006.81 141.398 Q2004.59 141.398 2002.48 141.93 Q2000.37 142.463 1998.43 143.527 L1998.43 139.592 Q2000.77 138.69 2002.97 138.25 Q2005.17 137.787 2007.25 137.787 Q2012.87 137.787 2015.65 140.703 Q2018.43 143.62 2018.43 149.546 Z" fill="#000000" fill-rule="nonzero" fill-opacity="1" /><path clip-path="url(#clip080)" d="M2027.2 138.412 L2031.46 138.412 L2031.46 164.338 L2027.2 164.338 L2027.2 138.412 M2027.2 128.319 L2031.46 128.319 L2031.46 133.713 L2027.2 133.713 L2027.2 128.319 Z" fill="#000000" fill-rule="nonzero" fill-opacity="1" /><path clip-path="url(#clip080)" d="M2061.93 148.689 L2061.93 164.338 L2057.67 164.338 L2057.67 148.828 Q2057.67 145.148 2056.23 143.319 Q2054.8 141.49 2051.93 141.49 Q2048.48 141.49 2046.49 143.69 Q2044.49 145.889 2044.49 149.685 L2044.49 164.338 L2040.21 164.338 L2040.21 138.412 L2044.49 138.412 L2044.49 142.44 Q2046.02 140.102 2048.08 138.944 Q2050.17 137.787 2052.87 137.787 Q2057.34 137.787 2059.63 140.565 Q2061.93 143.319 2061.93 148.689 Z" fill="#000000" fill-rule="nonzero" fill-opacity="1" /><path clip-path="url(#clip080)" d="M2070.42 138.412 L2074.68 138.412 L2074.68 164.338 L2070.42 164.338 L2070.42 138.412 M2070.42 128.319 L2074.68 128.319 L2074.68 133.713 L2070.42 133.713 L2070.42 128.319 Z" fill="#000000" fill-rule="nonzero" fill-opacity="1" /><path clip-path="url(#clip080)" d="M2105.14 148.689 L2105.14 164.338 L2100.88 164.338 L2100.88 148.828 Q2100.88 145.148 2099.45 143.319 Q2098.01 141.49 2095.14 141.49 Q2091.69 141.49 2089.7 143.69 Q2087.71 145.889 2087.71 149.685 L2087.71 164.338 L2083.43 164.338 L2083.43 138.412 L2087.71 138.412 L2087.71 142.44 Q2089.24 140.102 2091.3 138.944 Q2093.38 137.787 2096.09 137.787 Q2100.56 137.787 2102.85 140.565 Q2105.14 143.319 2105.14 148.689 Z" fill="#000000" fill-rule="nonzero" fill-opacity="1" /><path clip-path="url(#clip080)" d="M2130.7 151.074 Q2130.7 146.444 2128.78 143.898 Q2126.88 141.352 2123.43 141.352 Q2120 141.352 2118.08 143.898 Q2116.18 146.444 2116.18 151.074 Q2116.18 155.68 2118.08 158.226 Q2120 160.773 2123.43 160.773 Q2126.88 160.773 2128.78 158.226 Q2130.7 155.68 2130.7 151.074 M2134.96 161.12 Q2134.96 167.74 2132.02 170.958 Q2129.08 174.199 2123.01 174.199 Q2120.77 174.199 2118.78 173.851 Q2116.79 173.527 2114.91 172.833 L2114.91 168.689 Q2116.79 169.708 2118.61 170.194 Q2120.44 170.68 2122.34 170.68 Q2126.53 170.68 2128.61 168.481 Q2130.7 166.305 2130.7 161.884 L2130.7 159.777 Q2129.38 162.069 2127.32 163.203 Q2125.26 164.338 2122.39 164.338 Q2117.62 164.338 2114.7 160.703 Q2111.79 157.069 2111.79 151.074 Q2111.79 145.055 2114.7 141.421 Q2117.62 137.787 2122.39 137.787 Q2125.26 137.787 2127.32 138.921 Q2129.38 140.055 2130.7 142.347 L2130.7 138.412 L2134.96 138.412 L2134.96 161.12 Z" fill="#000000" fill-rule="nonzero" fill-opacity="1" /><path clip-path="url(#clip080)" d="M2175.86 142.347 L2175.86 128.319 L2180.12 128.319 L2180.12 164.338 L2175.86 164.338 L2175.86 160.449 Q2174.52 162.763 2172.46 163.898 Q2170.42 165.009 2167.55 165.009 Q2162.85 165.009 2159.89 161.259 Q2156.95 157.509 2156.95 151.398 Q2156.95 145.287 2159.89 141.537 Q2162.85 137.787 2167.55 137.787 Q2170.42 137.787 2172.46 138.921 Q2174.52 140.032 2175.86 142.347 M2161.35 151.398 Q2161.35 156.097 2163.27 158.782 Q2165.21 161.444 2168.59 161.444 Q2171.97 161.444 2173.92 158.782 Q2175.86 156.097 2175.86 151.398 Q2175.86 146.699 2173.92 144.037 Q2171.97 141.352 2168.59 141.352 Q2165.21 141.352 2163.27 144.037 Q2161.35 146.699 2161.35 151.398 Z" fill="#000000" fill-rule="nonzero" fill-opacity="1" /><path clip-path="url(#clip080)" d="M2200.67 151.305 Q2195.51 151.305 2193.52 152.486 Q2191.53 153.666 2191.53 156.514 Q2191.53 158.782 2193.01 160.125 Q2194.52 161.444 2197.09 161.444 Q2200.63 161.444 2202.76 158.944 Q2204.91 156.421 2204.91 152.254 L2204.91 151.305 L2200.67 151.305 M2209.17 149.546 L2209.17 164.338 L2204.91 164.338 L2204.91 160.402 Q2203.45 162.763 2201.28 163.898 Q2199.1 165.009 2195.95 165.009 Q2191.97 165.009 2189.61 162.787 Q2187.27 160.541 2187.27 156.791 Q2187.27 152.416 2190.19 150.194 Q2193.13 147.972 2198.94 147.972 L2204.91 147.972 L2204.91 147.555 Q2204.91 144.615 2202.97 143.018 Q2201.04 141.398 2197.55 141.398 Q2195.33 141.398 2193.22 141.93 Q2191.11 142.463 2189.17 143.527 L2189.17 139.592 Q2191.51 138.69 2193.71 138.25 Q2195.91 137.787 2197.99 137.787 Q2203.61 137.787 2206.39 140.703 Q2209.17 143.62 2209.17 149.546 Z" fill="#000000" fill-rule="nonzero" fill-opacity="1" /><path clip-path="url(#clip080)" d="M2222.16 131.051 L2222.16 138.412 L2230.93 138.412 L2230.93 141.722 L2222.16 141.722 L2222.16 155.796 Q2222.16 158.967 2223.01 159.87 Q2223.89 160.773 2226.55 160.773 L2230.93 160.773 L2230.93 164.338 L2226.55 164.338 Q2221.62 164.338 2219.75 162.509 Q2217.87 160.657 2217.87 155.796 L2217.87 141.722 L2214.75 141.722 L2214.75 138.412 L2217.87 138.412 L2217.87 131.051 L2222.16 131.051 Z" fill="#000000" fill-rule="nonzero" fill-opacity="1" /><path clip-path="url(#clip080)" d="M2248.31 151.305 Q2243.15 151.305 2241.16 152.486 Q2239.17 153.666 2239.17 156.514 Q2239.17 158.782 2240.65 160.125 Q2242.16 161.444 2244.73 161.444 Q2248.27 161.444 2250.4 158.944 Q2252.55 156.421 2252.55 152.254 L2252.55 151.305 L2248.31 151.305 M2256.81 149.546 L2256.81 164.338 L2252.55 164.338 L2252.55 160.402 Q2251.09 162.763 2248.91 163.898 Q2246.74 165.009 2243.59 165.009 Q2239.61 165.009 2237.25 162.787 Q2234.91 160.541 2234.91 156.791 Q2234.91 152.416 2237.83 150.194 Q2240.77 147.972 2246.58 147.972 L2252.55 147.972 L2252.55 147.555 Q2252.55 144.615 2250.6 143.018 Q2248.68 141.398 2245.19 141.398 Q2242.97 141.398 2240.86 141.93 Q2238.75 142.463 2236.81 143.527 L2236.81 139.592 Q2239.15 138.69 2241.35 138.25 Q2243.54 137.787 2245.63 137.787 Q2251.25 137.787 2254.03 140.703 Q2256.81 143.62 2256.81 149.546 Z" fill="#000000" fill-rule="nonzero" fill-opacity="1" /><polyline clip-path="url(#clip080)" style="stroke:#e26f46; stroke-linecap:round; stroke-linejoin:round; stroke-width:4; stroke-opacity:1; fill:none" points="1788.97,198.898 1932.89,198.898 "/>
<path clip-path="url(#clip080)" d="M1956.88 181.618 L1961.56 181.618 L1961.56 212.242 L1978.38 212.242 L1978.38 216.178 L1956.88 216.178 L1956.88 181.618 Z" fill="#000000" fill-rule="nonzero" fill-opacity="1" /><path clip-path="url(#clip080)" d="M1995.93 186.224 L1989.59 203.423 L2002.3 203.423 L1995.93 186.224 M1993.29 181.618 L1998.59 181.618 L2011.76 216.178 L2006.9 216.178 L2003.75 207.312 L1988.18 207.312 L1985.03 216.178 L1980.1 216.178 L1993.29 181.618 Z" fill="#000000" fill-rule="nonzero" fill-opacity="1" /><path clip-path="url(#clip080)" d="M2052.6 182.752 L2052.6 187.312 Q2049.93 186.039 2047.57 185.414 Q2045.21 184.789 2043.01 184.789 Q2039.19 184.789 2037.11 186.27 Q2035.05 187.752 2035.05 190.483 Q2035.05 192.775 2036.42 193.955 Q2037.8 195.113 2041.65 195.83 L2044.47 196.409 Q2049.7 197.405 2052.18 199.928 Q2054.68 202.428 2054.68 206.641 Q2054.68 211.664 2051.3 214.256 Q2047.94 216.849 2041.44 216.849 Q2038.99 216.849 2036.21 216.293 Q2033.45 215.738 2030.49 214.65 L2030.49 209.835 Q2033.34 211.432 2036.07 212.242 Q2038.8 213.053 2041.44 213.053 Q2045.44 213.053 2047.62 211.479 Q2049.8 209.904 2049.8 206.988 Q2049.8 204.442 2048.22 203.006 Q2046.67 201.571 2043.11 200.854 L2040.26 200.298 Q2035.03 199.256 2032.69 197.034 Q2030.35 194.812 2030.35 190.854 Q2030.35 186.27 2033.57 183.631 Q2036.81 180.993 2042.48 180.993 Q2044.91 180.993 2047.43 181.432 Q2049.96 181.872 2052.6 182.752 Z" fill="#000000" fill-rule="nonzero" fill-opacity="1" /><path clip-path="url(#clip080)" d="M2072.57 218.585 Q2070.77 223.215 2069.05 224.627 Q2067.34 226.039 2064.47 226.039 L2061.07 226.039 L2061.07 222.474 L2063.57 222.474 Q2065.33 222.474 2066.3 221.64 Q2067.27 220.807 2068.45 217.705 L2069.22 215.761 L2058.73 190.252 L2063.24 190.252 L2071.35 210.529 L2079.45 190.252 L2083.96 190.252 L2072.57 218.585 Z" fill="#000000" fill-rule="nonzero" fill-opacity="1" /><path clip-path="url(#clip080)" d="M2110.03 195.229 Q2111.62 192.358 2113.85 190.993 Q2116.07 189.627 2119.08 189.627 Q2123.13 189.627 2125.33 192.474 Q2127.53 195.298 2127.53 200.529 L2127.53 216.178 L2123.24 216.178 L2123.24 200.668 Q2123.24 196.942 2121.92 195.136 Q2120.61 193.33 2117.9 193.33 Q2114.59 193.33 2112.67 195.53 Q2110.74 197.729 2110.74 201.525 L2110.74 216.178 L2106.46 216.178 L2106.46 200.668 Q2106.46 196.918 2105.14 195.136 Q2103.82 193.33 2101.07 193.33 Q2097.8 193.33 2095.88 195.553 Q2093.96 197.752 2093.96 201.525 L2093.96 216.178 L2089.68 216.178 L2089.68 190.252 L2093.96 190.252 L2093.96 194.28 Q2095.42 191.895 2097.46 190.761 Q2099.49 189.627 2102.3 189.627 Q2105.12 189.627 2107.09 191.062 Q2109.08 192.497 2110.03 195.229 Z" fill="#000000" fill-rule="nonzero" fill-opacity="1" /><path clip-path="url(#clip080)" d="M2140.14 212.289 L2140.14 226.039 L2135.86 226.039 L2135.86 190.252 L2140.14 190.252 L2140.14 194.187 Q2141.48 191.872 2143.52 190.761 Q2145.58 189.627 2148.43 189.627 Q2153.15 189.627 2156.09 193.377 Q2159.05 197.127 2159.05 203.238 Q2159.05 209.349 2156.09 213.099 Q2153.15 216.849 2148.43 216.849 Q2145.58 216.849 2143.52 215.738 Q2141.48 214.603 2140.14 212.289 M2154.63 203.238 Q2154.63 198.539 2152.69 195.877 Q2150.77 193.192 2147.39 193.192 Q2144.01 193.192 2142.06 195.877 Q2140.14 198.539 2140.14 203.238 Q2140.14 207.937 2142.06 210.622 Q2144.01 213.284 2147.39 213.284 Q2150.77 213.284 2152.69 210.622 Q2154.63 207.937 2154.63 203.238 Z" fill="#000000" fill-rule="nonzero" fill-opacity="1" /><path clip-path="url(#clip080)" d="M2187.67 200.529 L2187.67 216.178 L2183.41 216.178 L2183.41 200.668 Q2183.41 196.988 2181.97 195.159 Q2180.54 193.33 2177.67 193.33 Q2174.22 193.33 2172.23 195.53 Q2170.23 197.729 2170.23 201.525 L2170.23 216.178 L2165.95 216.178 L2165.95 190.252 L2170.23 190.252 L2170.23 194.28 Q2171.76 191.942 2173.82 190.784 Q2175.91 189.627 2178.61 189.627 Q2183.08 189.627 2185.37 192.405 Q2187.67 195.159 2187.67 200.529 Z" fill="#000000" fill-rule="nonzero" fill-opacity="1" /><path clip-path="url(#clip080)" d="M2218.34 202.15 L2218.34 204.233 L2198.75 204.233 Q2199.03 208.631 2201.39 210.946 Q2203.78 213.238 2208.01 213.238 Q2210.47 213.238 2212.76 212.636 Q2215.07 212.034 2217.34 210.83 L2217.34 214.858 Q2215.05 215.83 2212.64 216.34 Q2210.23 216.849 2207.76 216.849 Q2201.55 216.849 2197.92 213.238 Q2194.31 209.627 2194.31 203.469 Q2194.31 197.104 2197.73 193.377 Q2201.18 189.627 2207.02 189.627 Q2212.25 189.627 2215.28 193.006 Q2218.34 196.363 2218.34 202.15 M2214.08 200.9 Q2214.03 197.405 2212.11 195.321 Q2210.21 193.238 2207.06 193.238 Q2203.5 193.238 2201.35 195.252 Q2199.22 197.266 2198.89 200.923 L2214.08 200.9 Z" fill="#000000" fill-rule="nonzero" fill-opacity="1" /><path clip-path="url(#clip080)" d="M2229.54 182.891 L2229.54 190.252 L2238.31 190.252 L2238.31 193.562 L2229.54 193.562 L2229.54 207.636 Q2229.54 210.807 2230.4 211.71 Q2231.28 212.613 2233.94 212.613 L2238.31 212.613 L2238.31 216.178 L2233.94 216.178 Q2229.01 216.178 2227.13 214.349 Q2225.26 212.497 2225.26 207.636 L2225.26 193.562 L2222.13 193.562 L2222.13 190.252 L2225.26 190.252 L2225.26 182.891 L2229.54 182.891 Z" fill="#000000" fill-rule="nonzero" fill-opacity="1" /><polyline clip-path="url(#clip080)" style="stroke:#3da44d; stroke-linecap:round; stroke-linejoin:round; stroke-width:4; stroke-opacity:1; fill:none" points="1788.97,250.738 1932.89,250.738 "/>
<path clip-path="url(#clip080)" d="M1982.43 263.087 L1982.43 253.805 L1974.8 253.805 L1974.8 249.962 L1987.06 249.962 L1987.06 264.8 Q1984.36 266.721 1981.09 267.717 Q1977.83 268.689 1974.12 268.689 Q1966.02 268.689 1961.44 263.967 Q1956.88 259.221 1956.88 250.772 Q1956.88 242.3 1961.44 237.578 Q1966.02 232.833 1974.12 232.833 Q1977.5 232.833 1980.54 233.666 Q1983.59 234.499 1986.16 236.12 L1986.16 241.096 Q1983.57 238.897 1980.65 237.786 Q1977.74 236.675 1974.52 236.675 Q1968.18 236.675 1964.98 240.217 Q1961.81 243.758 1961.81 250.772 Q1961.81 257.763 1964.98 261.305 Q1968.18 264.846 1974.52 264.846 Q1977 264.846 1978.94 264.43 Q1980.88 263.99 1982.43 263.087 Z" fill="#000000" fill-rule="nonzero" fill-opacity="1" /><path clip-path="url(#clip080)" d="M2031.39 234.592 L2031.39 239.152 Q2028.73 237.879 2026.37 237.254 Q2024.01 236.629 2021.81 236.629 Q2017.99 236.629 2015.91 238.11 Q2013.85 239.592 2013.85 242.323 Q2013.85 244.615 2015.21 245.795 Q2016.6 246.953 2020.44 247.67 L2023.27 248.249 Q2028.5 249.245 2030.98 251.768 Q2033.48 254.268 2033.48 258.481 Q2033.48 263.504 2030.1 266.096 Q2026.74 268.689 2020.24 268.689 Q2017.78 268.689 2015 268.133 Q2012.25 267.578 2009.29 266.49 L2009.29 261.675 Q2012.13 263.272 2014.87 264.082 Q2017.6 264.893 2020.24 264.893 Q2024.24 264.893 2026.42 263.319 Q2028.59 261.744 2028.59 258.828 Q2028.59 256.282 2027.02 254.846 Q2025.47 253.411 2021.9 252.694 L2019.05 252.138 Q2013.82 251.096 2011.49 248.874 Q2009.15 246.652 2009.15 242.694 Q2009.15 238.11 2012.37 235.471 Q2015.61 232.833 2021.28 232.833 Q2023.71 232.833 2026.23 233.272 Q2028.75 233.712 2031.39 234.592 Z" fill="#000000" fill-rule="nonzero" fill-opacity="1" /><path clip-path="url(#clip080)" d="M2051.37 270.425 Q2049.56 275.055 2047.85 276.467 Q2046.14 277.879 2043.27 277.879 L2039.87 277.879 L2039.87 274.314 L2042.37 274.314 Q2044.12 274.314 2045.1 273.48 Q2046.07 272.647 2047.25 269.545 L2048.01 267.601 L2037.53 242.092 L2042.04 242.092 L2050.14 262.369 L2058.24 242.092 L2062.76 242.092 L2051.37 270.425 Z" fill="#000000" fill-rule="nonzero" fill-opacity="1" /><path clip-path="url(#clip080)" d="M2088.82 247.069 Q2090.42 244.198 2092.64 242.833 Q2094.86 241.467 2097.87 241.467 Q2101.92 241.467 2104.12 244.314 Q2106.32 247.138 2106.32 252.369 L2106.32 268.018 L2102.04 268.018 L2102.04 252.508 Q2102.04 248.782 2100.72 246.976 Q2099.4 245.17 2096.69 245.17 Q2093.38 245.17 2091.46 247.37 Q2089.54 249.569 2089.54 253.365 L2089.54 268.018 L2085.26 268.018 L2085.26 252.508 Q2085.26 248.758 2083.94 246.976 Q2082.62 245.17 2079.86 245.17 Q2076.6 245.17 2074.68 247.393 Q2072.76 249.592 2072.76 253.365 L2072.76 268.018 L2068.48 268.018 L2068.48 242.092 L2072.76 242.092 L2072.76 246.12 Q2074.22 243.735 2076.25 242.601 Q2078.29 241.467 2081.09 241.467 Q2083.92 241.467 2085.88 242.902 Q2087.87 244.337 2088.82 247.069 Z" fill="#000000" fill-rule="nonzero" fill-opacity="1" /><path clip-path="url(#clip080)" d="M2118.94 264.129 L2118.94 277.879 L2114.66 277.879 L2114.66 242.092 L2118.94 242.092 L2118.94 246.027 Q2120.28 243.712 2122.32 242.601 Q2124.38 241.467 2127.23 241.467 Q2131.95 241.467 2134.89 245.217 Q2137.85 248.967 2137.85 255.078 Q2137.85 261.189 2134.89 264.939 Q2131.95 268.689 2127.23 268.689 Q2124.38 268.689 2122.32 267.578 Q2120.28 266.443 2118.94 264.129 M2133.43 255.078 Q2133.43 250.379 2131.48 247.717 Q2129.56 245.032 2126.18 245.032 Q2122.8 245.032 2120.86 247.717 Q2118.94 250.379 2118.94 255.078 Q2118.94 259.777 2120.86 262.462 Q2122.8 265.124 2126.18 265.124 Q2129.56 265.124 2131.48 262.462 Q2133.43 259.777 2133.43 255.078 Z" fill="#000000" fill-rule="nonzero" fill-opacity="1" /><path clip-path="url(#clip080)" d="M2166.46 252.369 L2166.46 268.018 L2162.2 268.018 L2162.2 252.508 Q2162.2 248.828 2160.77 246.999 Q2159.33 245.17 2156.46 245.17 Q2153.01 245.17 2151.02 247.37 Q2149.03 249.569 2149.03 253.365 L2149.03 268.018 L2144.75 268.018 L2144.75 242.092 L2149.03 242.092 L2149.03 246.12 Q2150.56 243.782 2152.62 242.624 Q2154.7 241.467 2157.41 241.467 Q2161.88 241.467 2164.17 244.245 Q2166.46 246.999 2166.46 252.369 Z" fill="#000000" fill-rule="nonzero" fill-opacity="1" /><path clip-path="url(#clip080)" d="M2197.13 253.99 L2197.13 256.073 L2177.55 256.073 Q2177.83 260.471 2180.19 262.786 Q2182.57 265.078 2186.81 265.078 Q2189.26 265.078 2191.55 264.476 Q2193.87 263.874 2196.14 262.67 L2196.14 266.698 Q2193.85 267.67 2191.44 268.18 Q2189.03 268.689 2186.55 268.689 Q2180.35 268.689 2176.72 265.078 Q2173.11 261.467 2173.11 255.309 Q2173.11 248.944 2176.53 245.217 Q2179.98 241.467 2185.81 241.467 Q2191.04 241.467 2194.08 244.846 Q2197.13 248.203 2197.13 253.99 M2192.87 252.74 Q2192.83 249.245 2190.91 247.161 Q2189.01 245.078 2185.86 245.078 Q2182.29 245.078 2180.14 247.092 Q2178.01 249.106 2177.69 252.763 L2192.87 252.74 Z" fill="#000000" fill-rule="nonzero" fill-opacity="1" /><path clip-path="url(#clip080)" d="M2208.34 234.731 L2208.34 242.092 L2217.11 242.092 L2217.11 245.402 L2208.34 245.402 L2208.34 259.476 Q2208.34 262.647 2209.19 263.55 Q2210.07 264.453 2212.73 264.453 L2217.11 264.453 L2217.11 268.018 L2212.73 268.018 Q2207.8 268.018 2205.93 266.189 Q2204.05 264.337 2204.05 259.476 L2204.05 245.402 L2200.93 245.402 L2200.93 242.092 L2204.05 242.092 L2204.05 234.731 L2208.34 234.731 Z" fill="#000000" fill-rule="nonzero" fill-opacity="1" /></svg>
