<?xml version="1.0" encoding="utf-8"?>
<svg xmlns="http://www.w3.org/2000/svg" xmlns:xlink="http://www.w3.org/1999/xlink" width="600" height="400" viewBox="0 0 2400 1600">
<defs>
  <clipPath id="clip020">
    <rect x="0" y="0" width="2400" height="1600"/>
  </clipPath>
</defs>
<path clip-path="url(#clip020)" d="M0 1600 L2400 1600 L2400 0 L0 0  Z" fill="#ffffff" fill-rule="evenodd" fill-opacity="1"/>
<defs>
  <clipPath id="clip021">
    <rect x="480" y="0" width="1681" height="1600"/>
  </clipPath>
</defs>
<path clip-path="url(#clip020)" d="M193.936 1486.45 L2352.76 1486.45 L2352.76 47.2441 L193.936 47.2441  Z" fill="#ffffff" fill-rule="evenodd" fill-opacity="1"/>
<defs>
  <clipPath id="clip022">
    <rect x="193" y="47" width="2160" height="1440"/>
  </clipPath>
</defs>
<polyline clip-path="url(#clip022)" style="stroke:#000000; stroke-linecap:round; stroke-linejoin:round; stroke-width:2; stroke-opacity:0.1; fill:none" points="482.703,1486.45 482.703,47.2441 "/>
<polyline clip-path="url(#clip022)" style="stroke:#000000; stroke-linecap:round; stroke-linejoin:round; stroke-width:2; stroke-opacity:0.1; fill:none" points="879.186,1486.45 879.186,47.2441 "/>
<polyline clip-path="url(#clip022)" style="stroke:#000000; stroke-linecap:round; stroke-linejoin:round; stroke-width:2; stroke-opacity:0.1; fill:none" points="1275.67,1486.45 1275.67,47.2441 "/>
<polyline clip-path="url(#clip022)" style="stroke:#000000; stroke-linecap:round; stroke-linejoin:round; stroke-width:2; stroke-opacity:0.1; fill:none" points="1672.15,1486.45 1672.15,47.2441 "/>
<polyline clip-path="url(#clip022)" style="stroke:#000000; stroke-linecap:round; stroke-linejoin:round; stroke-width:2; stroke-opacity:0.1; fill:none" points="2068.64,1486.45 2068.64,47.2441 "/>
<polyline clip-path="url(#clip020)" style="stroke:#000000; stroke-linecap:round; stroke-linejoin:round; stroke-width:4; stroke-opacity:1; fill:none" points="193.936,1486.45 2352.76,1486.45 "/>
<polyline clip-path="url(#clip020)" style="stroke:#000000; stroke-linecap:round; stroke-linejoin:round; stroke-width:4; stroke-opacity:1; fill:none" points="482.703,1486.45 482.703,1467.55 "/>
<polyline clip-path="url(#clip020)" style="stroke:#000000; stroke-linecap:round; stroke-linejoin:round; stroke-width:4; stroke-opacity:1; fill:none" points="879.186,1486.45 879.186,1467.55 "/>
<polyline clip-path="url(#clip020)" style="stroke:#000000; stroke-linecap:round; stroke-linejoin:round; stroke-width:4; stroke-opacity:1; fill:none" points="1275.67,1486.45 1275.67,1467.55 "/>
<polyline clip-path="url(#clip020)" style="stroke:#000000; stroke-linecap:round; stroke-linejoin:round; stroke-width:4; stroke-opacity:1; fill:none" points="1672.15,1486.45 1672.15,1467.55 "/>
<polyline clip-path="url(#clip020)" style="stroke:#000000; stroke-linecap:round; stroke-linejoin:round; stroke-width:4; stroke-opacity:1; fill:none" points="2068.64,1486.45 2068.64,1467.55 "/>
<path clip-path="url(#clip020)" d="M429.231 1532.02 L458.907 1532.02 L458.907 1535.95 L429.231 1535.95 L429.231 1532.02 Z" fill="#000000" fill-rule="nonzero" fill-opacity="1" /><path clip-path="url(#clip020)" d="M469.809 1544.91 L477.448 1544.91 L477.448 1518.55 L469.138 1520.21 L469.138 1515.95 L477.402 1514.29 L482.078 1514.29 L482.078 1544.91 L489.717 1544.91 L489.717 1548.85 L469.809 1548.85 L469.809 1544.91 Z" fill="#000000" fill-rule="nonzero" fill-opacity="1" /><path clip-path="url(#clip020)" d="M499.161 1542.97 L504.045 1542.97 L504.045 1548.85 L499.161 1548.85 L499.161 1542.97 Z" fill="#000000" fill-rule="nonzero" fill-opacity="1" /><path clip-path="url(#clip020)" d="M524.23 1517.37 Q520.619 1517.37 518.791 1520.93 Q516.985 1524.47 516.985 1531.6 Q516.985 1538.71 518.791 1542.27 Q520.619 1545.82 524.23 1545.82 Q527.865 1545.82 529.67 1542.27 Q531.499 1538.71 531.499 1531.6 Q531.499 1524.47 529.67 1520.93 Q527.865 1517.37 524.23 1517.37 M524.23 1513.66 Q530.04 1513.66 533.096 1518.27 Q536.175 1522.85 536.175 1531.6 Q536.175 1540.33 533.096 1544.94 Q530.04 1549.52 524.23 1549.52 Q518.42 1549.52 515.341 1544.94 Q512.286 1540.33 512.286 1531.6 Q512.286 1522.85 515.341 1518.27 Q518.42 1513.66 524.23 1513.66 Z" fill="#000000" fill-rule="nonzero" fill-opacity="1" /><path clip-path="url(#clip020)" d="M826.212 1532.02 L855.887 1532.02 L855.887 1535.95 L826.212 1535.95 L826.212 1532.02 Z" fill="#000000" fill-rule="nonzero" fill-opacity="1" /><path clip-path="url(#clip020)" d="M875.98 1517.37 Q872.369 1517.37 870.54 1520.93 Q868.735 1524.47 868.735 1531.6 Q868.735 1538.71 870.54 1542.27 Q872.369 1545.82 875.98 1545.82 Q879.614 1545.82 881.42 1542.27 Q883.248 1538.71 883.248 1531.6 Q883.248 1524.47 881.42 1520.93 Q879.614 1517.37 875.98 1517.37 M875.98 1513.66 Q881.79 1513.66 884.846 1518.27 Q887.924 1522.85 887.924 1531.6 Q887.924 1540.33 884.846 1544.94 Q881.79 1549.52 875.98 1549.52 Q870.17 1549.52 867.091 1544.94 Q864.036 1540.33 864.036 1531.6 Q864.036 1522.85 867.091 1518.27 Q870.17 1513.66 875.98 1513.66 Z" fill="#000000" fill-rule="nonzero" fill-opacity="1" /><path clip-path="url(#clip020)" d="M896.142 1542.97 L901.026 1542.97 L901.026 1548.85 L896.142 1548.85 L896.142 1542.97 Z" fill="#000000" fill-rule="nonzero" fill-opacity="1" /><path clip-path="url(#clip020)" d="M911.258 1514.29 L929.614 1514.29 L929.614 1518.22 L915.54 1518.22 L915.54 1526.7 Q916.558 1526.35 917.577 1526.19 Q918.595 1526 919.614 1526 Q925.401 1526 928.781 1529.17 Q932.16 1532.34 932.16 1537.76 Q932.16 1543.34 928.688 1546.44 Q925.216 1549.52 918.896 1549.52 Q916.72 1549.52 914.452 1549.15 Q912.207 1548.78 909.799 1548.04 L909.799 1543.34 Q911.883 1544.47 914.105 1545.03 Q916.327 1545.58 918.804 1545.58 Q922.808 1545.58 925.146 1543.48 Q927.484 1541.37 927.484 1537.76 Q927.484 1534.15 925.146 1532.04 Q922.808 1529.94 918.804 1529.94 Q916.929 1529.94 915.054 1530.35 Q913.202 1530.77 911.258 1531.65 L911.258 1514.29 Z" fill="#000000" fill-rule="nonzero" fill-opacity="1" /><path clip-path="url(#clip020)" d="M1253.05 1517.37 Q1249.44 1517.37 1247.61 1520.93 Q1245.81 1524.47 1245.81 1531.6 Q1245.81 1538.71 1247.61 1542.27 Q1249.44 1545.82 1253.05 1545.82 Q1256.69 1545.82 1258.49 1542.27 Q1260.32 1538.71 1260.32 1531.6 Q1260.32 1524.47 1258.49 1520.93 Q1256.69 1517.37 1253.05 1517.37 M1253.05 1513.66 Q1258.86 1513.66 1261.92 1518.27 Q1265 1522.85 1265 1531.6 Q1265 1540.33 1261.92 1544.94 Q1258.86 1549.52 1253.05 1549.52 Q1247.24 1549.52 1244.16 1544.94 Q1241.11 1540.33 1241.11 1531.6 Q1241.11 1522.85 1244.16 1518.27 Q1247.24 1513.66 1253.05 1513.66 Z" fill="#000000" fill-rule="nonzero" fill-opacity="1" /><path clip-path="url(#clip020)" d="M1273.22 1542.97 L1278.1 1542.97 L1278.1 1548.85 L1273.22 1548.85 L1273.22 1542.97 Z" fill="#000000" fill-rule="nonzero" fill-opacity="1" /><path clip-path="url(#clip020)" d="M1298.28 1517.37 Q1294.67 1517.37 1292.84 1520.93 Q1291.04 1524.47 1291.04 1531.6 Q1291.04 1538.71 1292.84 1542.27 Q1294.67 1545.82 1298.28 1545.82 Q1301.92 1545.82 1303.72 1542.27 Q1305.55 1538.71 1305.55 1531.6 Q1305.55 1524.47 1303.72 1520.93 Q1301.92 1517.37 1298.28 1517.37 M1298.28 1513.66 Q1304.09 1513.66 1307.15 1518.27 Q1310.23 1522.85 1310.23 1531.6 Q1310.23 1540.33 1307.15 1544.94 Q1304.09 1549.52 1298.28 1549.52 Q1292.47 1549.52 1289.4 1544.94 Q1286.34 1540.33 1286.34 1531.6 Q1286.34 1522.85 1289.4 1518.27 Q1292.47 1513.66 1298.28 1513.66 Z" fill="#000000" fill-rule="nonzero" fill-opacity="1" /><path clip-path="url(#clip020)" d="M1650.03 1517.37 Q1646.42 1517.37 1644.59 1520.93 Q1642.79 1524.47 1642.79 1531.6 Q1642.79 1538.71 1644.59 1542.27 Q1646.42 1545.82 1650.03 1545.82 Q1653.67 1545.82 1655.47 1542.27 Q1657.3 1538.71 1657.3 1531.6 Q1657.3 1524.47 1655.47 1520.93 Q1653.67 1517.37 1650.03 1517.37 M1650.03 1513.66 Q1655.84 1513.66 1658.9 1518.27 Q1661.98 1522.85 1661.98 1531.6 Q1661.98 1540.33 1658.9 1544.94 Q1655.84 1549.52 1650.03 1549.52 Q1644.22 1549.52 1641.15 1544.94 Q1638.09 1540.33 1638.09 1531.6 Q1638.09 1522.85 1641.15 1518.27 Q1644.22 1513.66 1650.03 1513.66 Z" fill="#000000" fill-rule="nonzero" fill-opacity="1" /><path clip-path="url(#clip020)" d="M1670.2 1542.97 L1675.08 1542.97 L1675.08 1548.85 L1670.2 1548.85 L1670.2 1542.97 Z" fill="#000000" fill-rule="nonzero" fill-opacity="1" /><path clip-path="url(#clip020)" d="M1685.31 1514.29 L1703.67 1514.29 L1703.67 1518.22 L1689.59 1518.22 L1689.59 1526.7 Q1690.61 1526.35 1691.63 1526.19 Q1692.65 1526 1693.67 1526 Q1699.46 1526 1702.83 1529.17 Q1706.21 1532.34 1706.21 1537.76 Q1706.21 1543.34 1702.74 1546.44 Q1699.27 1549.52 1692.95 1549.52 Q1690.77 1549.52 1688.51 1549.15 Q1686.26 1548.78 1683.85 1548.04 L1683.85 1543.34 Q1685.94 1544.47 1688.16 1545.03 Q1690.38 1545.58 1692.86 1545.58 Q1696.86 1545.58 1699.2 1543.48 Q1701.54 1541.37 1701.54 1537.76 Q1701.54 1534.15 1699.2 1532.04 Q1696.86 1529.94 1692.86 1529.94 Q1690.98 1529.94 1689.11 1530.35 Q1687.26 1530.77 1685.31 1531.65 L1685.31 1514.29 Z" fill="#000000" fill-rule="nonzero" fill-opacity="1" /><path clip-path="url(#clip020)" d="M2035.79 1544.91 L2043.43 1544.91 L2043.43 1518.55 L2035.12 1520.21 L2035.12 1515.95 L2043.38 1514.29 L2048.06 1514.29 L2048.06 1544.91 L2055.7 1544.91 L2055.7 1548.85 L2035.79 1548.85 L2035.79 1544.91 Z" fill="#000000" fill-rule="nonzero" fill-opacity="1" /><path clip-path="url(#clip020)" d="M2065.14 1542.97 L2070.02 1542.97 L2070.02 1548.85 L2065.14 1548.85 L2065.14 1542.97 Z" fill="#000000" fill-rule="nonzero" fill-opacity="1" /><path clip-path="url(#clip020)" d="M2090.21 1517.37 Q2086.6 1517.37 2084.77 1520.93 Q2082.96 1524.47 2082.96 1531.6 Q2082.96 1538.71 2084.77 1542.27 Q2086.6 1545.82 2090.21 1545.82 Q2093.84 1545.82 2095.65 1542.27 Q2097.48 1538.71 2097.48 1531.6 Q2097.48 1524.47 2095.65 1520.93 Q2093.84 1517.37 2090.21 1517.37 M2090.21 1513.66 Q2096.02 1513.66 2099.08 1518.27 Q2102.15 1522.85 2102.15 1531.6 Q2102.15 1540.33 2099.08 1544.94 Q2096.02 1549.52 2090.21 1549.52 Q2084.4 1549.52 2081.32 1544.94 Q2078.27 1540.33 2078.27 1531.6 Q2078.27 1522.85 2081.32 1518.27 Q2084.4 1513.66 2090.21 1513.66 Z" fill="#000000" fill-rule="nonzero" fill-opacity="1" /><polyline clip-path="url(#clip022)" style="stroke:#000000; stroke-linecap:round; stroke-linejoin:round; stroke-width:2; stroke-opacity:0.1; fill:none" points="193.936,1401.72 2352.76,1401.72 "/>
<polyline clip-path="url(#clip022)" style="stroke:#000000; stroke-linecap:round; stroke-linejoin:round; stroke-width:2; stroke-opacity:0.1; fill:none" points="193.936,1088.87 2352.76,1088.87 "/>
<polyline clip-path="url(#clip022)" style="stroke:#000000; stroke-linecap:round; stroke-linejoin:round; stroke-width:2; stroke-opacity:0.1; fill:none" points="193.936,776.012 2352.76,776.012 "/>
<polyline clip-path="url(#clip022)" style="stroke:#000000; stroke-linecap:round; stroke-linejoin:round; stroke-width:2; stroke-opacity:0.1; fill:none" points="193.936,463.157 2352.76,463.157 "/>
<polyline clip-path="url(#clip022)" style="stroke:#000000; stroke-linecap:round; stroke-linejoin:round; stroke-width:2; stroke-opacity:0.1; fill:none" points="193.936,150.303 2352.76,150.303 "/>
<polyline clip-path="url(#clip020)" style="stroke:#000000; stroke-linecap:round; stroke-linejoin:round; stroke-width:4; stroke-opacity:1; fill:none" points="193.936,1486.45 193.936,47.2441 "/>
<polyline clip-path="url(#clip020)" style="stroke:#000000; stroke-linecap:round; stroke-linejoin:round; stroke-width:4; stroke-opacity:1; fill:none" points="193.936,1401.72 212.834,1401.72 "/>
<polyline clip-path="url(#clip020)" style="stroke:#000000; stroke-linecap:round; stroke-linejoin:round; stroke-width:4; stroke-opacity:1; fill:none" points="193.936,1088.87 212.834,1088.87 "/>
<polyline clip-path="url(#clip020)" style="stroke:#000000; stroke-linecap:round; stroke-linejoin:round; stroke-width:4; stroke-opacity:1; fill:none" points="193.936,776.012 212.834,776.012 "/>
<polyline clip-path="url(#clip020)" style="stroke:#000000; stroke-linecap:round; stroke-linejoin:round; stroke-width:4; stroke-opacity:1; fill:none" points="193.936,463.157 212.834,463.157 "/>
<polyline clip-path="url(#clip020)" style="stroke:#000000; stroke-linecap:round; stroke-linejoin:round; stroke-width:4; stroke-opacity:1; fill:none" points="193.936,150.303 212.834,150.303 "/>
<path clip-path="url(#clip020)" d="M50.9921 1402.17 L80.6679 1402.17 L80.6679 1406.11 L50.9921 1406.11 L50.9921 1402.17 Z" fill="#000000" fill-rule="nonzero" fill-opacity="1" /><path clip-path="url(#clip020)" d="M91.5706 1415.07 L99.2095 1415.07 L99.2095 1388.7 L90.8993 1390.37 L90.8993 1386.11 L99.1632 1384.44 L103.839 1384.44 L103.839 1415.07 L111.478 1415.07 L111.478 1419 L91.5706 1419 L91.5706 1415.07 Z" fill="#000000" fill-rule="nonzero" fill-opacity="1" /><path clip-path="url(#clip020)" d="M120.922 1413.12 L125.807 1413.12 L125.807 1419 L120.922 1419 L120.922 1413.12 Z" fill="#000000" fill-rule="nonzero" fill-opacity="1" /><path clip-path="url(#clip020)" d="M145.992 1387.52 Q142.381 1387.52 140.552 1391.08 Q138.746 1394.63 138.746 1401.76 Q138.746 1408.86 140.552 1412.43 Q142.381 1415.97 145.992 1415.97 Q149.626 1415.97 151.431 1412.43 Q153.26 1408.86 153.26 1401.76 Q153.26 1394.63 151.431 1391.08 Q149.626 1387.52 145.992 1387.52 M145.992 1383.82 Q151.802 1383.82 154.857 1388.42 Q157.936 1393.01 157.936 1401.76 Q157.936 1410.48 154.857 1415.09 Q151.802 1419.67 145.992 1419.67 Q140.181 1419.67 137.103 1415.09 Q134.047 1410.48 134.047 1401.76 Q134.047 1393.01 137.103 1388.42 Q140.181 1383.82 145.992 1383.82 Z" fill="#000000" fill-rule="nonzero" fill-opacity="1" /><path clip-path="url(#clip020)" d="M51.9875 1089.32 L81.6633 1089.32 L81.6633 1093.25 L51.9875 1093.25 L51.9875 1089.32 Z" fill="#000000" fill-rule="nonzero" fill-opacity="1" /><path clip-path="url(#clip020)" d="M101.756 1074.66 Q98.1447 1074.66 96.316 1078.23 Q94.5104 1081.77 94.5104 1088.9 Q94.5104 1096.01 96.316 1099.57 Q98.1447 1103.11 101.756 1103.11 Q105.39 1103.11 107.196 1099.57 Q109.024 1096.01 109.024 1088.9 Q109.024 1081.77 107.196 1078.23 Q105.39 1074.66 101.756 1074.66 M101.756 1070.96 Q107.566 1070.96 110.621 1075.57 Q113.7 1080.15 113.7 1088.9 Q113.7 1097.63 110.621 1102.23 Q107.566 1106.82 101.756 1106.82 Q95.9456 1106.82 92.8669 1102.23 Q89.8114 1097.63 89.8114 1088.9 Q89.8114 1080.15 92.8669 1075.57 Q95.9456 1070.96 101.756 1070.96 Z" fill="#000000" fill-rule="nonzero" fill-opacity="1" /><path clip-path="url(#clip020)" d="M121.918 1100.27 L126.802 1100.27 L126.802 1106.15 L121.918 1106.15 L121.918 1100.27 Z" fill="#000000" fill-rule="nonzero" fill-opacity="1" /><path clip-path="url(#clip020)" d="M137.033 1071.59 L155.39 1071.59 L155.39 1075.52 L141.316 1075.52 L141.316 1083.99 Q142.334 1083.65 143.353 1083.48 Q144.371 1083.3 145.39 1083.3 Q151.177 1083.3 154.556 1086.47 Q157.936 1089.64 157.936 1095.06 Q157.936 1100.64 154.464 1103.74 Q150.992 1106.82 144.672 1106.82 Q142.496 1106.82 140.228 1106.45 Q137.982 1106.08 135.575 1105.34 L135.575 1100.64 Q137.658 1101.77 139.881 1102.33 Q142.103 1102.88 144.58 1102.88 Q148.584 1102.88 150.922 1100.78 Q153.26 1098.67 153.26 1095.06 Q153.26 1091.45 150.922 1089.34 Q148.584 1087.23 144.58 1087.23 Q142.705 1087.23 140.83 1087.65 Q138.978 1088.07 137.033 1088.95 L137.033 1071.59 Z" fill="#000000" fill-rule="nonzero" fill-opacity="1" /><path clip-path="url(#clip020)" d="M100.76 761.81 Q97.1493 761.81 95.3206 765.375 Q93.515 768.917 93.515 776.046 Q93.515 783.153 95.3206 786.718 Q97.1493 790.259 100.76 790.259 Q104.395 790.259 106.2 786.718 Q108.029 783.153 108.029 776.046 Q108.029 768.917 106.2 765.375 Q104.395 761.81 100.76 761.81 M100.76 758.107 Q106.571 758.107 109.626 762.713 Q112.705 767.296 112.705 776.046 Q112.705 784.773 109.626 789.38 Q106.571 793.963 100.76 793.963 Q94.9502 793.963 91.8715 789.38 Q88.816 784.773 88.816 776.046 Q88.816 767.296 91.8715 762.713 Q94.9502 758.107 100.76 758.107 Z" fill="#000000" fill-rule="nonzero" fill-opacity="1" /><path clip-path="url(#clip020)" d="M120.922 787.412 L125.807 787.412 L125.807 793.292 L120.922 793.292 L120.922 787.412 Z" fill="#000000" fill-rule="nonzero" fill-opacity="1" /><path clip-path="url(#clip020)" d="M145.992 761.81 Q142.381 761.81 140.552 765.375 Q138.746 768.917 138.746 776.046 Q138.746 783.153 140.552 786.718 Q142.381 790.259 145.992 790.259 Q149.626 790.259 151.431 786.718 Q153.26 783.153 153.26 776.046 Q153.26 768.917 151.431 765.375 Q149.626 761.81 145.992 761.81 M145.992 758.107 Q151.802 758.107 154.857 762.713 Q157.936 767.296 157.936 776.046 Q157.936 784.773 154.857 789.38 Q151.802 793.963 145.992 793.963 Q140.181 793.963 137.103 789.38 Q134.047 784.773 134.047 776.046 Q134.047 767.296 137.103 762.713 Q140.181 758.107 145.992 758.107 Z" fill="#000000" fill-rule="nonzero" fill-opacity="1" /><path clip-path="url(#clip020)" d="M101.756 448.956 Q98.1447 448.956 96.316 452.521 Q94.5104 456.062 94.5104 463.192 Q94.5104 470.298 96.316 473.863 Q98.1447 477.405 101.756 477.405 Q105.39 477.405 107.196 473.863 Q109.024 470.298 109.024 463.192 Q109.024 456.062 107.196 452.521 Q105.39 448.956 101.756 448.956 M101.756 445.252 Q107.566 445.252 110.621 449.859 Q113.7 454.442 113.7 463.192 Q113.7 471.919 110.621 476.525 Q107.566 481.108 101.756 481.108 Q95.9456 481.108 92.8669 476.525 Q89.8114 471.919 89.8114 463.192 Q89.8114 454.442 92.8669 449.859 Q95.9456 445.252 101.756 445.252 Z" fill="#000000" fill-rule="nonzero" fill-opacity="1" /><path clip-path="url(#clip020)" d="M121.918 474.558 L126.802 474.558 L126.802 480.437 L121.918 480.437 L121.918 474.558 Z" fill="#000000" fill-rule="nonzero" fill-opacity="1" /><path clip-path="url(#clip020)" d="M137.033 445.877 L155.39 445.877 L155.39 449.812 L141.316 449.812 L141.316 458.285 Q142.334 457.937 143.353 457.775 Q144.371 457.59 145.39 457.59 Q151.177 457.59 154.556 460.761 Q157.936 463.933 157.936 469.349 Q157.936 474.928 154.464 478.03 Q150.992 481.108 144.672 481.108 Q142.496 481.108 140.228 480.738 Q137.982 480.368 135.575 479.627 L135.575 474.928 Q137.658 476.062 139.881 476.618 Q142.103 477.173 144.58 477.173 Q148.584 477.173 150.922 475.067 Q153.26 472.96 153.26 469.349 Q153.26 465.738 150.922 463.632 Q148.584 461.525 144.58 461.525 Q142.705 461.525 140.83 461.942 Q138.978 462.359 137.033 463.238 L137.033 445.877 Z" fill="#000000" fill-rule="nonzero" fill-opacity="1" /><path clip-path="url(#clip020)" d="M91.5706 163.648 L99.2095 163.648 L99.2095 137.282 L90.8993 138.949 L90.8993 134.689 L99.1632 133.023 L103.839 133.023 L103.839 163.648 L111.478 163.648 L111.478 167.583 L91.5706 167.583 L91.5706 163.648 Z" fill="#000000" fill-rule="nonzero" fill-opacity="1" /><path clip-path="url(#clip020)" d="M120.922 161.703 L125.807 161.703 L125.807 167.583 L120.922 167.583 L120.922 161.703 Z" fill="#000000" fill-rule="nonzero" fill-opacity="1" /><path clip-path="url(#clip020)" d="M145.992 136.101 Q142.381 136.101 140.552 139.666 Q138.746 143.208 138.746 150.337 Q138.746 157.444 140.552 161.009 Q142.381 164.55 145.992 164.55 Q149.626 164.55 151.431 161.009 Q153.26 157.444 153.26 150.337 Q153.26 143.208 151.431 139.666 Q149.626 136.101 145.992 136.101 M145.992 132.398 Q151.802 132.398 154.857 137.004 Q157.936 141.588 157.936 150.337 Q157.936 159.064 154.857 163.671 Q151.802 168.254 145.992 168.254 Q140.181 168.254 137.103 163.671 Q134.047 159.064 134.047 150.337 Q134.047 141.588 137.103 137.004 Q140.181 132.398 145.992 132.398 Z" fill="#000000" fill-rule="nonzero" fill-opacity="1" /><polyline clip-path="url(#clip022)" style="stroke:#009af9; stroke-linecap:round; stroke-linejoin:round; stroke-width:4; stroke-opacity:1; fill:none" points="1275.67,150.303 1354.75,153.358 1433.06,162.829 1509.92,178.105 1584.26,198.881 1655.7,225.461 1723.65,256.624 1787.15,292.065 1846,331.477 1899.43,374.25 1947.44,420.079 1989.65,467.893 2025.66,517.846 2055.08,569.326 2077.93,621.799 2094.19,675.189 2103.48,729.076 2105.81,783.225 2101.93,837.307 2090.32,891.117 2072.51,944.354 2047.73,996.598 2016.75,1047.62 1979.19,1097.12 1935.44,1144.47 1885.88,1189.38 1830.9,1231.24 1770.5,1269.74 1705.84,1304.26 1637.11,1334.2 1564.71,1359.25 1489.59,1378.81 1412.35,1392.25 1333.75,1400.19 1254.57,1401.42 1175.58,1396.83 1097.66,1385.83 1021.48,1369.03 947.719,1346.42 877.25,1318.92 810.266,1286.54 747.928,1249.88 690.624,1209.24 638.353,1165.86 591.89,1119.42 551.623,1070.99 517.163,1020.58 489.672,968.796 468.764,916.017 454.051,862.474 446.307,808.512 446.307,754.377 451.727,700.319 464.892,646.699 484.639,593.768 511.355,541.676 544.266,491.112 583.372,442.076 628.674,395.331 679.783,351.031 735.925,310.091 797.489,272.512 863.311,239.21 933.199,210.796 1006.38,187.271 1082.17,169.245 1159.8,157.024 1238.67,150.914 1317.87,151.219 1396.67,157.635 1474.3,170.162 1549.8,188.493 1622.79,212.324 1692.29,241.348 1758.11,274.956 1819.28,312.84 1875.04,354.086 1925.76,398.387 1970.68,445.131 2009.4,494.32 2041.92,545.037 2067.86,597.129 2087.22,650.213 2099.61,703.87 2105.81,757.929 2104.26,812.082 2096.51,866.064 2081.8,919.531 2060.12,972.309 2031.85,1023.94 1997.39,1074.2 1956.35,1122.47 1909.5,1168.61 1857.23,1211.99 1799.15,1252.32 1736.81,1288.68 1669.64,1320.76 1598.97,1348.25 1525.02,1370.25 1448.65,1386.75 1370.58,1397.14 1291.57,1401.72 1212.41,1399.58 1133.86,1391.64 1056.71,1377.58 981.791,1357.73 909.58,1332.37 841.241,1302.12 776.58,1267.29 716.953,1228.8 661.972,1186.63 612.799,1141.42 569.821,1093.75 532.65,1044.26 501.675,993.238 477.282,940.841 460.246,887.604 449.404,833.755 445.532,779.668 448.63,725.524 457.923,671.676 474.959,618.362 498.19,565.813 528.004,514.485 564.4,464.685 606.604,417.023 655.003,371.501 709.209,328.728 768.062,289.621 831.949,254.486 900.094,223.322 971.918,197.353 1046.45,176.883 1123.41,161.913 1201.76,153.052 1280.87,150.303 1359.93,153.969 1438.19,163.44 1514.76,179.327 1589.1,200.714 1660.34,227.294 1727.91,258.763 1791.02,294.509 1849.49,334.227 1902.92,377.306 1950.54,423.134 1992.36,471.254 2027.59,521.206 2056.63,572.687 2079.48,625.313 2094.96,678.703 2103.48,732.666 2105.81,786.781 2101.16,840.859 2089.54,894.631 2070.96,947.715 2045.79,999.959 2014.43,1050.98 1976.48,1100.17 1932.34,1147.53 1882.4,1192.13 1827.03,1233.99 1766.63,1272.18 1701.58,1306.4 1632.47,1336.03 1559.87,1360.48 1484.56,1379.72 1407.22,1393.17 1328.52,1400.19 1249.36,1401.42 1170.45,1396.22 1092.53,1384.92 1016.44,1367.5 942.879,1344.89 872.604,1316.79 806.007,1284.09 744.056,1247.13 687.139,1206.49 635.256,1162.8 589.18,1116.36 548.912,1067.63 515.227,1017.22 488.123,965.435 467.215,912.58 453.276,858.961 446.307,804.96 446.307,750.806 452.502,696.805 466.441,643.186 486.187,590.254 513.291,538.316 546.589,487.752 586.083,439.021 631.771,392.276 683.267,348.281 740.184,307.647 801.748,270.373 867.957,237.376 938.039,208.963 1011.22,185.743 "/>
<polyline clip-path="url(#clip022)" style="stroke:#e26f46; stroke-linecap:round; stroke-linejoin:round; stroke-width:4; stroke-opacity:1; fill:none" points="1275.67,150.303 1310.13,146.636 1338.01,142.97 1356.98,140.526 1380.21,140.526 1407.31,147.859 1418.16,149.081 1439.45,155.191 1451.84,157.635 1465.39,164.968 1473.91,172.3 1484.36,179.633 1490.56,184.521 1503.72,191.854 1514.18,199.186 1521.54,206.519 1533.54,215.073 1545.54,221.184 1557.54,228.516 1570.71,235.849 1581.16,243.181 1605.17,255.402 1616.01,259.069 1633.82,266.401 1658.21,276.178 1687.25,284.732 1726.75,296.953 1764.69,307.952 1816.19,327.505 1881.24,353.169 1965.26,394.72 2067.86,460.713 2177.82,560.924 2262.23,699.02 2286.24,860.336 2223.51,1014.32 2101.16,1134.69 1947.83,1219.63 1807.67,1274.01 1690.74,1308.54 1590.84,1336.34 1511.86,1354.67 1457.26,1368.72 1400.73,1383.39 1353.49,1396.83 1315.55,1405.39 1271.8,1413.94 1232.69,1420.05 1212.17,1428.61 1180.81,1432.27 1161.84,1434.72 1146.35,1440.83 1121.57,1438.38 1106.08,1438.38 1081.69,1432.27 1065.04,1428.61 1042.19,1420.05 1031.74,1415.16 1013.54,1405.39 998.828,1393.17 979.855,1379.72 960.109,1367.5 938.039,1351.61 915.969,1335.73 887.317,1317.4 863.698,1302.73 839.692,1290.51 800.586,1270.96 752.187,1248.96 699.529,1225.74 620.155,1185.41 527.617,1129.19 413.783,1041.2 308.467,912.885 255.035,751.57 288.333,585.366 399.07,447.576 550.848,349.198 697.981,285.343 825.754,243.487 931.457,212.935 1020.51,191.854 1092.92,173.522 1145.96,159.468 1198.62,146.636 1242.76,134.416 1283.41,124.639 1315.16,112.418 1337.62,100.197 1369.37,92.8646 1400.34,87.9763 1428.22,87.9763 1463.07,94.0867 1490.95,105.086 1505.66,113.64 1525.02,123.417 1544.77,134.416 1560.64,149.081 1578.45,164.968 1592.78,179.633 1604.78,190.632 1620.66,205.297 1640.02,218.74 1667.12,233.405 1701.58,252.958 1734.49,268.845 1776.69,288.399 1823.16,310.396 1890.91,343.393 1982.29,393.498 2080.25,463.157 2194.09,571.923 2278.49,718.574 2291.66,887.222 2214.22,1041.2 2076.38,1159.75 1923.05,1238.88 1782.5,1290.82 1670.6,1325.34 1571.48,1348.56 1494.43,1367.5 1435.58,1385.22 1381.37,1395.61 1335.68,1405.39 1295.03,1413.94 1263.28,1426.16 1233.08,1435.94 1205.2,1440.83 1171.13,1442.05 1143.25,1443.27 1125.44,1445.72 1107.63,1444.49 1092.14,1443.27 1076.65,1440.83 1064.26,1438.38 1049.16,1433.49 1032.51,1424.94 1014.7,1411.5 996.892,1399.28 979.081,1388.28 964.755,1372.39 938.039,1354.06 929.521,1341.84 914.42,1330.84 891.963,1317.4 866.796,1302.73 836.595,1289.29 791.294,1268.51 745.992,1250.18 687.527,1223.3 612.412,1184.19 522.971,1127.97 410.685,1037.54 311.565,911.663 259.681,752.792 293.754,591.476 403.716,455.519 550.074,359.891 697.981,297.259 821.495,256.624 931.844,230.044 1014.7,212.018 1086.72,200.408 1142.09,196.131 1189.33,191.854 1224.17,191.243 1250.11,186.965 1269.09,184.521 1296.96,184.521 1314,184.521 1334.13,183.299 1348.07,183.299 1357.37,183.299 1367.82,185.743 1381.76,189.41 1398.41,194.298 1410.41,199.186 1416.61,201.63 1419.32,204.075 1431.71,207.741 1446.81,212.629 1454.16,218.74 1461.52,224.85 1471.97,232.183 1474.69,235.849 1482.43,240.737 1482.04,243.181 1491.33,246.848 1504.89,252.958 1506.05,255.402 1516.89,259.069 1522.7,262.735 1525.41,266.401 1531.6,267.623 1540.89,271.289 1557.54,276.178 1566.45,278.622 1575.74,278.622 1588.13,279.844 1597.42,279.844 "/>
<polyline clip-path="url(#clip022)" style="stroke:#3da44d; stroke-linecap:round; stroke-linejoin:round; stroke-width:4; stroke-opacity:1; fill:none" points="1275.67,150.303 1355.62,154.58 1434.42,165.273 1511.86,181.772 1587.16,204.075 1658.99,231.572 1726.75,263.651 1790.63,300.314 1849.49,340.643 1902.92,384.027 1950.54,430.161 1992.36,478.739 2027.21,529.608 2056.25,582.158 2077.15,635.624 2091.09,689.931 2098.06,744.543 2098.06,799.46 2091.09,854.531 2077.15,909.372 2055.86,963.297 2028.37,1016.15 1994.68,1067.79 1954.8,1117.59 1908.34,1164.94 1856.07,1209.24 1798.38,1250.79 1735.65,1288.07 1668.67,1320.76 1597.81,1348.87 1523.47,1371.17 1447,1387.67 1368.5,1398.05 1288.93,1401.72 1209.56,1399.28 1130.28,1390.11 1052.45,1375.45 976.564,1354.67 903.192,1328.4 833.497,1297.54 768.449,1261.79 708.048,1222.68 652.679,1179.91 603.506,1134.08 560.141,1085.66 524.132,1035.4 494.706,983.614 471.861,930.758 456.374,876.376 447.856,821.687 446.307,766.464 451.727,711.165 464.118,656.705 483.09,602.781 509.032,549.773 541.943,497.528 581.049,447.27 626.35,399.609 677.072,354.391 732.828,312.535 793.617,274.039 859.439,240.126 928.94,210.796 1002.31,186.965 1078.01,168.94 1156.22,157.024 1235.69,151.525 1315.55,152.747 1394.92,160.385 1473.23,174.133 1549.03,193.381 1622.59,218.129 1692.67,248.07 1758.88,282.288 1820.06,320.173 1876.2,362.335 1926.92,406.941 1972.22,454.603 2011.33,504.097 2043.08,555.119 2068.64,607.822 2086.45,661.746 2097.29,716.282 2101.16,771.276 2098.06,826.308 2087.99,881.111 2070.96,935.8 2046.95,989.724 2016.36,1042.12 1979.19,1092.84 1935.44,1141.42 1886.27,1187.86 1831.67,1231.24 1771.27,1270.65 1706.23,1306.09 1637.5,1336.95 1564.9,1362.31 1489.01,1382.17 1410.9,1395.92 1331.33,1402.94 1251.57,1404.16 1171.61,1398.36 1092.33,1386.44 1014.7,1368.42 939.588,1344.89 867.957,1316.17 800.199,1282.87 736.7,1245.29 677.847,1204.05 625.189,1159.14 578.726,1112.09 538.071,1062.9 504.385,1011.57 478.056,958.714 457.923,904.789 445.532,850.253 440.112,795.107 442.435,739.96 451.727,684.508 467.215,629.819 490.059,575.437 519.486,522.887 555.107,471.712 596.924,422.217 644.936,375.778 698.755,332.088 757.608,291.454 821.107,254.791 888.866,222.711 960.883,195.826 1035.61,174.439 1112.76,159.163 1191.65,150.303 1271.89,147.859 1351.95,151.83 1431.13,161.913 1509.15,178.411 1584.65,200.714 1657.25,227.905 1726.36,260.291 1790.63,296.953 1850.26,337.282 1904.47,380.972 1952.48,427.717 1994.68,476.6 2029.92,527.011 2058.18,579.561 2079.48,633.027 2094.19,687.563 2101.16,742.404 2101.16,797.551 2094.19,852.927 2080.25,907.539 2059.73,962.227 2032.24,1015.54 1998.55,1067.33 1958.29,1117.59 1911.82,1165.25 1859.55,1209.85 1802.25,1251.4 1739.52,1289.29 1672.93,1322.59 1602.07,1350.39 1527.92,1373 1450.87,1389.81 1372.56,1400.5 1292.51,1404.78 1212.07,1402.94 1132.7,1394.08 1054.58,1379.42 978.113,1358.64 904.353,1332.06 834.272,1301.2 768.837,1266.07 708.048,1226.96 652.292,1184.19 602.345,1138.36 558.592,1089.78 521.422,1039.83 491.221,987.738 467.99,934.425 451.727,879.889 442.435,825.124 440.886,769.825 446.307,714.334 457.923,659.302 476.508,605.225 502.449,551.3 534.973,499.362 573.693,449.103 618.219,400.831 669.329,355.613 725.084,313.451 786.26,274.956 851.695,240.737 921.583,210.796 994.956,186.049 1070.85,167.717 1148.86,155.497 1228.14,149.692 "/>
<path clip-path="url(#clip020)" d="M265.897 302.578 L781.708 302.578 L781.708 95.2176 L265.897 95.2176  Z" fill="#ffffff" fill-rule="evenodd" fill-opacity="1"/>
<polyline clip-path="url(#clip020)" style="stroke:#000000; stroke-linecap:round; stroke-linejoin:round; stroke-width:4; stroke-opacity:1; fill:none" points="265.897,302.578 781.708,302.578 781.708,95.2176 265.897,95.2176 265.897,302.578 "/>
<polyline clip-path="url(#clip020)" style="stroke:#009af9; stroke-linecap:round; stroke-linejoin:round; stroke-width:4; stroke-opacity:1; fill:none" points="289.884,147.058 433.805,147.058 "/>
<path clip-path="url(#clip020)" d="M465.199 131.051 L465.199 138.412 L473.972 138.412 L473.972 141.722 L465.199 141.722 L465.199 155.796 Q465.199 158.967 466.056 159.87 Q466.935 160.773 469.597 160.773 L473.972 160.773 L473.972 164.338 L469.597 164.338 Q464.667 164.338 462.792 162.509 Q460.917 160.657 460.917 155.796 L460.917 141.722 L457.792 141.722 L457.792 138.412 L460.917 138.412 L460.917 131.051 L465.199 131.051 Z" fill="#000000" fill-rule="nonzero" fill-opacity="1" /><path clip-path="url(#clip020)" d="M494.597 142.393 Q493.88 141.977 493.023 141.791 Q492.19 141.583 491.171 141.583 Q487.56 141.583 485.616 143.944 Q483.694 146.282 483.694 150.68 L483.694 164.338 L479.412 164.338 L479.412 138.412 L483.694 138.412 L483.694 142.44 Q485.037 140.078 487.19 138.944 Q489.343 137.787 492.421 137.787 Q492.861 137.787 493.393 137.856 Q493.926 137.903 494.574 138.018 L494.597 142.393 Z" fill="#000000" fill-rule="nonzero" fill-opacity="1" /><path clip-path="url(#clip020)" d="M510.847 151.305 Q505.685 151.305 503.694 152.486 Q501.704 153.666 501.704 156.514 Q501.704 158.782 503.185 160.125 Q504.69 161.444 507.259 161.444 Q510.801 161.444 512.93 158.944 Q515.083 156.421 515.083 152.254 L515.083 151.305 L510.847 151.305 M519.342 149.546 L519.342 164.338 L515.083 164.338 L515.083 160.402 Q513.625 162.763 511.449 163.898 Q509.273 165.009 506.125 165.009 Q502.143 165.009 499.782 162.787 Q497.444 160.541 497.444 156.791 Q497.444 152.416 500.361 150.194 Q503.301 147.972 509.111 147.972 L515.083 147.972 L515.083 147.555 Q515.083 144.615 513.139 143.018 Q511.217 141.398 507.722 141.398 Q505.5 141.398 503.393 141.93 Q501.287 142.463 499.342 143.527 L499.342 139.592 Q501.68 138.69 503.879 138.25 Q506.079 137.787 508.162 137.787 Q513.787 137.787 516.565 140.703 Q519.342 143.62 519.342 149.546 Z" fill="#000000" fill-rule="nonzero" fill-opacity="1" /><path clip-path="url(#clip020)" d="M528.115 138.412 L532.375 138.412 L532.375 164.338 L528.115 164.338 L528.115 138.412 M528.115 128.319 L532.375 128.319 L532.375 133.713 L528.115 133.713 L528.115 128.319 Z" fill="#000000" fill-rule="nonzero" fill-opacity="1" /><path clip-path="url(#clip020)" d="M562.837 148.689 L562.837 164.338 L558.578 164.338 L558.578 148.828 Q558.578 145.148 557.143 143.319 Q555.708 141.49 552.838 141.49 Q549.388 141.49 547.398 143.69 Q545.407 145.889 545.407 149.685 L545.407 164.338 L541.125 164.338 L541.125 138.412 L545.407 138.412 L545.407 142.44 Q546.935 140.102 548.995 138.944 Q551.078 137.787 553.787 137.787 Q558.254 137.787 560.546 140.565 Q562.837 143.319 562.837 148.689 Z" fill="#000000" fill-rule="nonzero" fill-opacity="1" /><path clip-path="url(#clip020)" d="M571.333 138.412 L575.592 138.412 L575.592 164.338 L571.333 164.338 L571.333 138.412 M571.333 128.319 L575.592 128.319 L575.592 133.713 L571.333 133.713 L571.333 128.319 Z" fill="#000000" fill-rule="nonzero" fill-opacity="1" /><path clip-path="url(#clip020)" d="M606.055 148.689 L606.055 164.338 L601.796 164.338 L601.796 148.828 Q601.796 145.148 600.36 143.319 Q598.925 141.49 596.055 141.49 Q592.606 141.49 590.615 143.69 Q588.624 145.889 588.624 149.685 L588.624 164.338 L584.342 164.338 L584.342 138.412 L588.624 138.412 L588.624 142.44 Q590.152 140.102 592.212 138.944 Q594.296 137.787 597.004 137.787 Q601.472 137.787 603.763 140.565 Q606.055 143.319 606.055 148.689 Z" fill="#000000" fill-rule="nonzero" fill-opacity="1" /><path clip-path="url(#clip020)" d="M631.61 151.074 Q631.61 146.444 629.689 143.898 Q627.791 141.352 624.342 141.352 Q620.916 141.352 618.995 143.898 Q617.096 146.444 617.096 151.074 Q617.096 155.68 618.995 158.226 Q620.916 160.773 624.342 160.773 Q627.791 160.773 629.689 158.226 Q631.61 155.68 631.61 151.074 M635.87 161.12 Q635.87 167.74 632.93 170.958 Q629.99 174.199 623.925 174.199 Q621.68 174.199 619.689 173.851 Q617.698 173.527 615.823 172.833 L615.823 168.689 Q617.698 169.708 619.527 170.194 Q621.356 170.68 623.254 170.68 Q627.444 170.68 629.527 168.481 Q631.61 166.305 631.61 161.884 L631.61 159.777 Q630.291 162.069 628.231 163.203 Q626.17 164.338 623.3 164.338 Q618.532 164.338 615.615 160.703 Q612.698 157.069 612.698 151.074 Q612.698 145.055 615.615 141.421 Q618.532 137.787 623.3 137.787 Q626.17 137.787 628.231 138.921 Q630.291 140.055 631.61 142.347 L631.61 138.412 L635.87 138.412 L635.87 161.12 Z" fill="#000000" fill-rule="nonzero" fill-opacity="1" /><path clip-path="url(#clip020)" d="M676.772 142.347 L676.772 128.319 L681.031 128.319 L681.031 164.338 L676.772 164.338 L676.772 160.449 Q675.429 162.763 673.369 163.898 Q671.332 165.009 668.462 165.009 Q663.763 165.009 660.8 161.259 Q657.86 157.509 657.86 151.398 Q657.86 145.287 660.8 141.537 Q663.763 137.787 668.462 137.787 Q671.332 137.787 673.369 138.921 Q675.429 140.032 676.772 142.347 M662.258 151.398 Q662.258 156.097 664.18 158.782 Q666.124 161.444 669.504 161.444 Q672.883 161.444 674.828 158.782 Q676.772 156.097 676.772 151.398 Q676.772 146.699 674.828 144.037 Q672.883 141.352 669.504 141.352 Q666.124 141.352 664.18 144.037 Q662.258 146.699 662.258 151.398 Z" fill="#000000" fill-rule="nonzero" fill-opacity="1" /><path clip-path="url(#clip020)" d="M701.587 151.305 Q696.425 151.305 694.434 152.486 Q692.443 153.666 692.443 156.514 Q692.443 158.782 693.925 160.125 Q695.429 161.444 697.999 161.444 Q701.54 161.444 703.67 158.944 Q705.823 156.421 705.823 152.254 L705.823 151.305 L701.587 151.305 M710.082 149.546 L710.082 164.338 L705.823 164.338 L705.823 160.402 Q704.365 162.763 702.189 163.898 Q700.013 165.009 696.865 165.009 Q692.883 165.009 690.522 162.787 Q688.184 160.541 688.184 156.791 Q688.184 152.416 691.101 150.194 Q694.04 147.972 699.851 147.972 L705.823 147.972 L705.823 147.555 Q705.823 144.615 703.878 143.018 Q701.957 141.398 698.462 141.398 Q696.24 141.398 694.133 141.93 Q692.027 142.463 690.082 143.527 L690.082 139.592 Q692.42 138.69 694.619 138.25 Q696.818 137.787 698.902 137.787 Q704.527 137.787 707.304 140.703 Q710.082 143.62 710.082 149.546 Z" fill="#000000" fill-rule="nonzero" fill-opacity="1" /><path clip-path="url(#clip020)" d="M723.068 131.051 L723.068 138.412 L731.841 138.412 L731.841 141.722 L723.068 141.722 L723.068 155.796 Q723.068 158.967 723.925 159.87 Q724.804 160.773 727.466 160.773 L731.841 160.773 L731.841 164.338 L727.466 164.338 Q722.536 164.338 720.661 162.509 Q718.786 160.657 718.786 155.796 L718.786 141.722 L715.661 141.722 L715.661 138.412 L718.786 138.412 L718.786 131.051 L723.068 131.051 Z" fill="#000000" fill-rule="nonzero" fill-opacity="1" /><path clip-path="url(#clip020)" d="M749.225 151.305 Q744.063 151.305 742.073 152.486 Q740.082 153.666 740.082 156.514 Q740.082 158.782 741.563 160.125 Q743.068 161.444 745.637 161.444 Q749.179 161.444 751.309 158.944 Q753.461 156.421 753.461 152.254 L753.461 151.305 L749.225 151.305 M757.721 149.546 L757.721 164.338 L753.461 164.338 L753.461 160.402 Q752.003 162.763 749.827 163.898 Q747.651 165.009 744.503 165.009 Q740.522 165.009 738.161 162.787 Q735.823 160.541 735.823 156.791 Q735.823 152.416 738.739 150.194 Q741.679 147.972 747.489 147.972 L753.461 147.972 L753.461 147.555 Q753.461 144.615 751.517 143.018 Q749.596 141.398 746.1 141.398 Q743.878 141.398 741.772 141.93 Q739.665 142.463 737.721 143.527 L737.721 139.592 Q740.059 138.69 742.258 138.25 Q744.457 137.787 746.54 137.787 Q752.165 137.787 754.943 140.703 Q757.721 143.62 757.721 149.546 Z" fill="#000000" fill-rule="nonzero" fill-opacity="1" /><polyline clip-path="url(#clip020)" style="stroke:#e26f46; stroke-linecap:round; stroke-linejoin:round; stroke-width:4; stroke-opacity:1; fill:none" points="289.884,198.898 433.805,198.898 "/>
<path clip-path="url(#clip020)" d="M457.792 181.618 L462.468 181.618 L462.468 212.242 L479.296 212.242 L479.296 216.178 L457.792 216.178 L457.792 181.618 Z" fill="#000000" fill-rule="nonzero" fill-opacity="1" /><path clip-path="url(#clip020)" d="M496.842 186.224 L490.5 203.423 L503.208 203.423 L496.842 186.224 M494.204 181.618 L499.505 181.618 L512.676 216.178 L507.815 216.178 L504.667 207.312 L489.088 207.312 L485.94 216.178 L481.009 216.178 L494.204 181.618 Z" fill="#000000" fill-rule="nonzero" fill-opacity="1" /><path clip-path="url(#clip020)" d="M553.509 182.752 L553.509 187.312 Q550.847 186.039 548.486 185.414 Q546.125 184.789 543.926 184.789 Q540.106 184.789 538.023 186.27 Q535.963 187.752 535.963 190.483 Q535.963 192.775 537.328 193.955 Q538.717 195.113 542.56 195.83 L545.384 196.409 Q550.615 197.405 553.092 199.928 Q555.592 202.428 555.592 206.641 Q555.592 211.664 552.213 214.256 Q548.856 216.849 542.351 216.849 Q539.898 216.849 537.12 216.293 Q534.365 215.738 531.402 214.65 L531.402 209.835 Q534.25 211.432 536.981 212.242 Q539.713 213.053 542.351 213.053 Q546.356 213.053 548.532 211.479 Q550.708 209.904 550.708 206.988 Q550.708 204.442 549.134 203.006 Q547.583 201.571 544.018 200.854 L541.171 200.298 Q535.939 199.256 533.602 197.034 Q531.264 194.812 531.264 190.854 Q531.264 186.27 534.481 183.631 Q537.722 180.993 543.393 180.993 Q545.824 180.993 548.347 181.432 Q550.87 181.872 553.509 182.752 Z" fill="#000000" fill-rule="nonzero" fill-opacity="1" /><path clip-path="url(#clip020)" d="M573.486 218.585 Q571.68 223.215 569.967 224.627 Q568.254 226.039 565.384 226.039 L561.981 226.039 L561.981 222.474 L564.481 222.474 Q566.24 222.474 567.212 221.64 Q568.185 220.807 569.365 217.705 L570.129 215.761 L559.643 190.252 L564.157 190.252 L572.259 210.529 L580.361 190.252 L584.874 190.252 L573.486 218.585 Z" fill="#000000" fill-rule="nonzero" fill-opacity="1" /><path clip-path="url(#clip020)" d="M610.939 195.229 Q612.536 192.358 614.759 190.993 Q616.981 189.627 619.99 189.627 Q624.041 189.627 626.24 192.474 Q628.439 195.298 628.439 200.529 L628.439 216.178 L624.157 216.178 L624.157 200.668 Q624.157 196.942 622.837 195.136 Q621.518 193.33 618.809 193.33 Q615.499 193.33 613.578 195.53 Q611.657 197.729 611.657 201.525 L611.657 216.178 L607.374 216.178 L607.374 200.668 Q607.374 196.918 606.055 195.136 Q604.735 193.33 601.981 193.33 Q598.717 193.33 596.796 195.553 Q594.874 197.752 594.874 201.525 L594.874 216.178 L590.592 216.178 L590.592 190.252 L594.874 190.252 L594.874 194.28 Q596.333 191.895 598.37 190.761 Q600.407 189.627 603.208 189.627 Q606.032 189.627 607.999 191.062 Q609.99 192.497 610.939 195.229 Z" fill="#000000" fill-rule="nonzero" fill-opacity="1" /><path clip-path="url(#clip020)" d="M641.055 212.289 L641.055 226.039 L636.772 226.039 L636.772 190.252 L641.055 190.252 L641.055 194.187 Q642.397 191.872 644.434 190.761 Q646.494 189.627 649.342 189.627 Q654.064 189.627 657.004 193.377 Q659.967 197.127 659.967 203.238 Q659.967 209.349 657.004 213.099 Q654.064 216.849 649.342 216.849 Q646.494 216.849 644.434 215.738 Q642.397 214.603 641.055 212.289 M655.545 203.238 Q655.545 198.539 653.601 195.877 Q651.68 193.192 648.3 193.192 Q644.92 193.192 642.976 195.877 Q641.055 198.539 641.055 203.238 Q641.055 207.937 642.976 210.622 Q644.92 213.284 648.3 213.284 Q651.68 213.284 653.601 210.622 Q655.545 207.937 655.545 203.238 Z" fill="#000000" fill-rule="nonzero" fill-opacity="1" /><path clip-path="url(#clip020)" d="M688.578 200.529 L688.578 216.178 L684.318 216.178 L684.318 200.668 Q684.318 196.988 682.883 195.159 Q681.448 193.33 678.578 193.33 Q675.129 193.33 673.138 195.53 Q671.147 197.729 671.147 201.525 L671.147 216.178 L666.865 216.178 L666.865 190.252 L671.147 190.252 L671.147 194.28 Q672.675 191.942 674.735 190.784 Q676.818 189.627 679.527 189.627 Q683.994 189.627 686.286 192.405 Q688.578 195.159 688.578 200.529 Z" fill="#000000" fill-rule="nonzero" fill-opacity="1" /><path clip-path="url(#clip020)" d="M719.249 202.15 L719.249 204.233 L699.665 204.233 Q699.943 208.631 702.304 210.946 Q704.689 213.238 708.925 213.238 Q711.378 213.238 713.67 212.636 Q715.985 212.034 718.253 210.83 L718.253 214.858 Q715.962 215.83 713.554 216.34 Q711.147 216.849 708.67 216.849 Q702.466 216.849 698.832 213.238 Q695.221 209.627 695.221 203.469 Q695.221 197.104 698.647 193.377 Q702.096 189.627 707.929 189.627 Q713.161 189.627 716.193 193.006 Q719.249 196.363 719.249 202.15 M714.989 200.9 Q714.943 197.405 713.022 195.321 Q711.124 193.238 707.976 193.238 Q704.411 193.238 702.258 195.252 Q700.128 197.266 699.804 200.923 L714.989 200.9 Z" fill="#000000" fill-rule="nonzero" fill-opacity="1" /><path clip-path="url(#clip020)" d="M730.452 182.891 L730.452 190.252 L739.225 190.252 L739.225 193.562 L730.452 193.562 L730.452 207.636 Q730.452 210.807 731.309 211.71 Q732.188 212.613 734.85 212.613 L739.225 212.613 L739.225 216.178 L734.85 216.178 Q729.92 216.178 728.045 214.349 Q726.17 212.497 726.17 207.636 L726.17 193.562 L723.045 193.562 L723.045 190.252 L726.17 190.252 L726.17 182.891 L730.452 182.891 Z" fill="#000000" fill-rule="nonzero" fill-opacity="1" /><polyline clip-path="url(#clip020)" style="stroke:#3da44d; stroke-linecap:round; stroke-linejoin:round; stroke-width:4; stroke-opacity:1; fill:none" points="289.884,250.738 433.805,250.738 "/>
<path clip-path="url(#clip020)" d="M483.347 263.087 L483.347 253.805 L475.708 253.805 L475.708 249.962 L487.977 249.962 L487.977 264.8 Q485.268 266.721 482.005 267.717 Q478.741 268.689 475.037 268.689 Q466.935 268.689 462.352 263.967 Q457.792 259.221 457.792 250.772 Q457.792 242.3 462.352 237.578 Q466.935 232.833 475.037 232.833 Q478.417 232.833 481.449 233.666 Q484.505 234.499 487.074 236.12 L487.074 241.096 Q484.481 238.897 481.565 237.786 Q478.648 236.675 475.431 236.675 Q469.088 236.675 465.894 240.217 Q462.722 243.758 462.722 250.772 Q462.722 257.763 465.894 261.305 Q469.088 264.846 475.431 264.846 Q477.907 264.846 479.852 264.43 Q481.796 263.99 483.347 263.087 Z" fill="#000000" fill-rule="nonzero" fill-opacity="1" /><path clip-path="url(#clip020)" d="M532.305 234.592 L532.305 239.152 Q529.643 237.879 527.282 237.254 Q524.921 236.629 522.722 236.629 Q518.903 236.629 516.819 238.11 Q514.759 239.592 514.759 242.323 Q514.759 244.615 516.125 245.795 Q517.514 246.953 521.356 247.67 L524.18 248.249 Q529.412 249.245 531.889 251.768 Q534.389 254.268 534.389 258.481 Q534.389 263.504 531.009 266.096 Q527.653 268.689 521.148 268.689 Q518.694 268.689 515.916 268.133 Q513.162 267.578 510.199 266.49 L510.199 261.675 Q513.046 263.272 515.778 264.082 Q518.509 264.893 521.148 264.893 Q525.153 264.893 527.328 263.319 Q529.504 261.744 529.504 258.828 Q529.504 256.282 527.93 254.846 Q526.379 253.411 522.815 252.694 L519.967 252.138 Q514.736 251.096 512.398 248.874 Q510.06 246.652 510.06 242.694 Q510.06 238.11 513.278 235.471 Q516.518 232.833 522.19 232.833 Q524.62 232.833 527.143 233.272 Q529.666 233.712 532.305 234.592 Z" fill="#000000" fill-rule="nonzero" fill-opacity="1" /><path clip-path="url(#clip020)" d="M552.282 270.425 Q550.476 275.055 548.763 276.467 Q547.051 277.879 544.18 277.879 L540.777 277.879 L540.777 274.314 L543.277 274.314 Q545.037 274.314 546.009 273.48 Q546.981 272.647 548.162 269.545 L548.926 267.601 L538.439 242.092 L542.953 242.092 L551.055 262.369 L559.157 242.092 L563.671 242.092 L552.282 270.425 Z" fill="#000000" fill-rule="nonzero" fill-opacity="1" /><path clip-path="url(#clip020)" d="M589.736 247.069 Q591.333 244.198 593.555 242.833 Q595.777 241.467 598.786 241.467 Q602.837 241.467 605.036 244.314 Q607.235 247.138 607.235 252.369 L607.235 268.018 L602.953 268.018 L602.953 252.508 Q602.953 248.782 601.634 246.976 Q600.314 245.17 597.606 245.17 Q594.296 245.17 592.374 247.37 Q590.453 249.569 590.453 253.365 L590.453 268.018 L586.171 268.018 L586.171 252.508 Q586.171 248.758 584.851 246.976 Q583.532 245.17 580.777 245.17 Q577.513 245.17 575.592 247.393 Q573.671 249.592 573.671 253.365 L573.671 268.018 L569.388 268.018 L569.388 242.092 L573.671 242.092 L573.671 246.12 Q575.129 243.735 577.166 242.601 Q579.203 241.467 582.004 241.467 Q584.828 241.467 586.796 242.902 Q588.786 244.337 589.736 247.069 Z" fill="#000000" fill-rule="nonzero" fill-opacity="1" /><path clip-path="url(#clip020)" d="M619.851 264.129 L619.851 277.879 L615.569 277.879 L615.569 242.092 L619.851 242.092 L619.851 246.027 Q621.194 243.712 623.231 242.601 Q625.291 241.467 628.138 241.467 Q632.86 241.467 635.8 245.217 Q638.763 248.967 638.763 255.078 Q638.763 261.189 635.8 264.939 Q632.86 268.689 628.138 268.689 Q625.291 268.689 623.231 267.578 Q621.194 266.443 619.851 264.129 M634.342 255.078 Q634.342 250.379 632.397 247.717 Q630.476 245.032 627.096 245.032 Q623.717 245.032 621.772 247.717 Q619.851 250.379 619.851 255.078 Q619.851 259.777 621.772 262.462 Q623.717 265.124 627.096 265.124 Q630.476 265.124 632.397 262.462 Q634.342 259.777 634.342 255.078 Z" fill="#000000" fill-rule="nonzero" fill-opacity="1" /><path clip-path="url(#clip020)" d="M667.374 252.369 L667.374 268.018 L663.115 268.018 L663.115 252.508 Q663.115 248.828 661.68 246.999 Q660.244 245.17 657.374 245.17 Q653.925 245.17 651.934 247.37 Q649.944 249.569 649.944 253.365 L649.944 268.018 L645.661 268.018 L645.661 242.092 L649.944 242.092 L649.944 246.12 Q651.471 243.782 653.531 242.624 Q655.615 241.467 658.323 241.467 Q662.791 241.467 665.082 244.245 Q667.374 246.999 667.374 252.369 Z" fill="#000000" fill-rule="nonzero" fill-opacity="1" /><path clip-path="url(#clip020)" d="M698.045 253.99 L698.045 256.073 L678.462 256.073 Q678.74 260.471 681.101 262.786 Q683.485 265.078 687.721 265.078 Q690.175 265.078 692.466 264.476 Q694.781 263.874 697.05 262.67 L697.05 266.698 Q694.758 267.67 692.351 268.18 Q689.943 268.689 687.466 268.689 Q681.263 268.689 677.629 265.078 Q674.017 261.467 674.017 255.309 Q674.017 248.944 677.443 245.217 Q680.892 241.467 686.726 241.467 Q691.957 241.467 694.99 244.846 Q698.045 248.203 698.045 253.99 M693.786 252.74 Q693.74 249.245 691.818 247.161 Q689.92 245.078 686.772 245.078 Q683.207 245.078 681.054 247.092 Q678.925 249.106 678.601 252.763 L693.786 252.74 Z" fill="#000000" fill-rule="nonzero" fill-opacity="1" /><path clip-path="url(#clip020)" d="M709.249 234.731 L709.249 242.092 L718.022 242.092 L718.022 245.402 L709.249 245.402 L709.249 259.476 Q709.249 262.647 710.105 263.55 Q710.985 264.453 713.647 264.453 L718.022 264.453 L718.022 268.018 L713.647 268.018 Q708.716 268.018 706.841 266.189 Q704.966 264.337 704.966 259.476 L704.966 245.402 L701.841 245.402 L701.841 242.092 L704.966 242.092 L704.966 234.731 L709.249 234.731 Z" fill="#000000" fill-rule="nonzero" fill-opacity="1" /></svg>
