<?xml version="1.0" encoding="utf-8"?>
<svg xmlns="http://www.w3.org/2000/svg" xmlns:xlink="http://www.w3.org/1999/xlink" width="600" height="400" viewBox="0 0 2400 1600">
<defs>
  <clipPath id="clip060">
    <rect x="0" y="0" width="2400" height="1600"/>
  </clipPath>
</defs>
<path clip-path="url(#clip060)" d="M0 1600 L2400 1600 L2400 0 L0 0  Z" fill="#ffffff" fill-rule="evenodd" fill-opacity="1"/>
<defs>
  <clipPath id="clip061">
    <rect x="480" y="0" width="1681" height="1600"/>
  </clipPath>
</defs>
<path clip-path="url(#clip060)" d="M251.071 1423.18 L2352.76 1423.18 L2352.76 47.2441 L251.071 47.2441  Z" fill="#ffffff" fill-rule="evenodd" fill-opacity="1"/>
<defs>
  <clipPath id="clip062">
    <rect x="251" y="47" width="2103" height="1377"/>
  </clipPath>
</defs>
<polyline clip-path="url(#clip062)" style="stroke:#000000; stroke-linecap:round; stroke-linejoin:round; stroke-width:2; stroke-opacity:0.1; fill:none" points="308.568,1423.18 308.568,47.2441 "/>
<polyline clip-path="url(#clip062)" style="stroke:#000000; stroke-linecap:round; stroke-linejoin:round; stroke-width:2; stroke-opacity:0.1; fill:none" points="804.745,1423.18 804.745,47.2441 "/>
<polyline clip-path="url(#clip062)" style="stroke:#000000; stroke-linecap:round; stroke-linejoin:round; stroke-width:2; stroke-opacity:0.1; fill:none" points="1300.92,1423.18 1300.92,47.2441 "/>
<polyline clip-path="url(#clip062)" style="stroke:#000000; stroke-linecap:round; stroke-linejoin:round; stroke-width:2; stroke-opacity:0.1; fill:none" points="1797.1,1423.18 1797.1,47.2441 "/>
<polyline clip-path="url(#clip062)" style="stroke:#000000; stroke-linecap:round; stroke-linejoin:round; stroke-width:2; stroke-opacity:0.1; fill:none" points="2293.27,1423.18 2293.27,47.2441 "/>
<polyline clip-path="url(#clip060)" style="stroke:#000000; stroke-linecap:round; stroke-linejoin:round; stroke-width:4; stroke-opacity:1; fill:none" points="251.071,1423.18 2352.76,1423.18 "/>
<polyline clip-path="url(#clip060)" style="stroke:#000000; stroke-linecap:round; stroke-linejoin:round; stroke-width:4; stroke-opacity:1; fill:none" points="308.568,1423.18 308.568,1404.28 "/>
<polyline clip-path="url(#clip060)" style="stroke:#000000; stroke-linecap:round; stroke-linejoin:round; stroke-width:4; stroke-opacity:1; fill:none" points="804.745,1423.18 804.745,1404.28 "/>
<polyline clip-path="url(#clip060)" style="stroke:#000000; stroke-linecap:round; stroke-linejoin:round; stroke-width:4; stroke-opacity:1; fill:none" points="1300.92,1423.18 1300.92,1404.28 "/>
<polyline clip-path="url(#clip060)" style="stroke:#000000; stroke-linecap:round; stroke-linejoin:round; stroke-width:4; stroke-opacity:1; fill:none" points="1797.1,1423.18 1797.1,1404.28 "/>
<polyline clip-path="url(#clip060)" style="stroke:#000000; stroke-linecap:round; stroke-linejoin:round; stroke-width:4; stroke-opacity:1; fill:none" points="2293.27,1423.18 2293.27,1404.28 "/>
<path clip-path="url(#clip060)" d="M308.568 1454.1 Q304.957 1454.1 303.128 1457.66 Q301.323 1461.2 301.323 1468.33 Q301.323 1475.44 303.128 1479.01 Q304.957 1482.55 308.568 1482.55 Q312.202 1482.55 314.008 1479.01 Q315.837 1475.44 315.837 1468.33 Q315.837 1461.2 314.008 1457.66 Q312.202 1454.1 308.568 1454.1 M308.568 1450.39 Q314.378 1450.39 317.434 1455 Q320.513 1459.58 320.513 1468.33 Q320.513 1477.06 317.434 1481.67 Q314.378 1486.25 308.568 1486.25 Q302.758 1486.25 299.679 1481.67 Q296.624 1477.06 296.624 1468.33 Q296.624 1459.58 299.679 1455 Q302.758 1450.39 308.568 1450.39 Z" fill="#000000" fill-rule="nonzero" fill-opacity="1" /><path clip-path="url(#clip060)" d="M768.437 1481.64 L784.756 1481.64 L784.756 1485.58 L762.812 1485.58 L762.812 1481.64 Q765.474 1478.89 770.057 1474.26 Q774.664 1469.61 775.844 1468.27 Q778.09 1465.74 778.969 1464.01 Q779.872 1462.25 779.872 1460.56 Q779.872 1457.8 777.928 1456.07 Q776.006 1454.33 772.905 1454.33 Q770.706 1454.33 768.252 1455.09 Q765.821 1455.86 763.044 1457.41 L763.044 1452.69 Q765.868 1451.55 768.321 1450.97 Q770.775 1450.39 772.812 1450.39 Q778.182 1450.39 781.377 1453.08 Q784.571 1455.77 784.571 1460.26 Q784.571 1462.39 783.761 1464.31 Q782.974 1466.2 780.868 1468.8 Q780.289 1469.47 777.187 1472.69 Q774.085 1475.88 768.437 1481.64 Z" fill="#000000" fill-rule="nonzero" fill-opacity="1" /><path clip-path="url(#clip060)" d="M794.617 1451.02 L812.974 1451.02 L812.974 1454.96 L798.9 1454.96 L798.9 1463.43 Q799.918 1463.08 800.937 1462.92 Q801.955 1462.73 802.974 1462.73 Q808.761 1462.73 812.14 1465.9 Q815.52 1469.08 815.52 1474.49 Q815.52 1480.07 812.048 1483.17 Q808.576 1486.25 802.256 1486.25 Q800.08 1486.25 797.812 1485.88 Q795.567 1485.51 793.159 1484.77 L793.159 1480.07 Q795.242 1481.2 797.465 1481.76 Q799.687 1482.32 802.164 1482.32 Q806.168 1482.32 808.506 1480.21 Q810.844 1478.1 810.844 1474.49 Q810.844 1470.88 808.506 1468.77 Q806.168 1466.67 802.164 1466.67 Q800.289 1466.67 798.414 1467.08 Q796.562 1467.5 794.617 1468.38 L794.617 1451.02 Z" fill="#000000" fill-rule="nonzero" fill-opacity="1" /><path clip-path="url(#clip060)" d="M834.733 1454.1 Q831.122 1454.1 829.293 1457.66 Q827.488 1461.2 827.488 1468.33 Q827.488 1475.44 829.293 1479.01 Q831.122 1482.55 834.733 1482.55 Q838.367 1482.55 840.173 1479.01 Q842.001 1475.44 842.001 1468.33 Q842.001 1461.2 840.173 1457.66 Q838.367 1454.1 834.733 1454.1 M834.733 1450.39 Q840.543 1450.39 843.599 1455 Q846.677 1459.58 846.677 1468.33 Q846.677 1477.06 843.599 1481.67 Q840.543 1486.25 834.733 1486.25 Q828.923 1486.25 825.844 1481.67 Q822.789 1477.06 822.789 1468.33 Q822.789 1459.58 825.844 1455 Q828.923 1450.39 834.733 1450.39 Z" fill="#000000" fill-rule="nonzero" fill-opacity="1" /><path clip-path="url(#clip060)" d="M1260.54 1451.02 L1278.9 1451.02 L1278.9 1454.96 L1264.82 1454.96 L1264.82 1463.43 Q1265.84 1463.08 1266.86 1462.92 Q1267.88 1462.73 1268.9 1462.73 Q1274.68 1462.73 1278.06 1465.9 Q1281.44 1469.08 1281.44 1474.49 Q1281.44 1480.07 1277.97 1483.17 Q1274.5 1486.25 1268.18 1486.25 Q1266 1486.25 1263.73 1485.88 Q1261.49 1485.51 1259.08 1484.77 L1259.08 1480.07 Q1261.16 1481.2 1263.39 1481.76 Q1265.61 1482.32 1268.09 1482.32 Q1272.09 1482.32 1274.43 1480.21 Q1276.77 1478.1 1276.77 1474.49 Q1276.77 1470.88 1274.43 1468.77 Q1272.09 1466.67 1268.09 1466.67 Q1266.21 1466.67 1264.34 1467.08 Q1262.48 1467.5 1260.54 1468.38 L1260.54 1451.02 Z" fill="#000000" fill-rule="nonzero" fill-opacity="1" /><path clip-path="url(#clip060)" d="M1300.66 1454.1 Q1297.04 1454.1 1295.22 1457.66 Q1293.41 1461.2 1293.41 1468.33 Q1293.41 1475.44 1295.22 1479.01 Q1297.04 1482.55 1300.66 1482.55 Q1304.29 1482.55 1306.09 1479.01 Q1307.92 1475.44 1307.92 1468.33 Q1307.92 1461.2 1306.09 1457.66 Q1304.29 1454.1 1300.66 1454.1 M1300.66 1450.39 Q1306.47 1450.39 1309.52 1455 Q1312.6 1459.58 1312.6 1468.33 Q1312.6 1477.06 1309.52 1481.67 Q1306.47 1486.25 1300.66 1486.25 Q1294.84 1486.25 1291.77 1481.67 Q1288.71 1477.06 1288.71 1468.33 Q1288.71 1459.58 1291.77 1455 Q1294.84 1450.39 1300.66 1450.39 Z" fill="#000000" fill-rule="nonzero" fill-opacity="1" /><path clip-path="url(#clip060)" d="M1330.82 1454.1 Q1327.21 1454.1 1325.38 1457.66 Q1323.57 1461.2 1323.57 1468.33 Q1323.57 1475.44 1325.38 1479.01 Q1327.21 1482.55 1330.82 1482.55 Q1334.45 1482.55 1336.26 1479.01 Q1338.09 1475.44 1338.09 1468.33 Q1338.09 1461.2 1336.26 1457.66 Q1334.45 1454.1 1330.82 1454.1 M1330.82 1450.39 Q1336.63 1450.39 1339.68 1455 Q1342.76 1459.58 1342.76 1468.33 Q1342.76 1477.06 1339.68 1481.67 Q1336.63 1486.25 1330.82 1486.25 Q1325.01 1486.25 1321.93 1481.67 Q1318.87 1477.06 1318.87 1468.33 Q1318.87 1459.58 1321.93 1455 Q1325.01 1450.39 1330.82 1450.39 Z" fill="#000000" fill-rule="nonzero" fill-opacity="1" /><path clip-path="url(#clip060)" d="M1755.37 1451.02 L1777.6 1451.02 L1777.6 1453.01 L1765.05 1485.58 L1760.17 1485.58 L1771.97 1454.96 L1755.37 1454.96 L1755.37 1451.02 Z" fill="#000000" fill-rule="nonzero" fill-opacity="1" /><path clip-path="url(#clip060)" d="M1786.76 1451.02 L1805.12 1451.02 L1805.12 1454.96 L1791.04 1454.96 L1791.04 1463.43 Q1792.06 1463.08 1793.08 1462.92 Q1794.1 1462.73 1795.12 1462.73 Q1800.91 1462.73 1804.29 1465.9 Q1807.66 1469.08 1807.66 1474.49 Q1807.66 1480.07 1804.19 1483.17 Q1800.72 1486.25 1794.4 1486.25 Q1792.23 1486.25 1789.96 1485.88 Q1787.71 1485.51 1785.3 1484.77 L1785.3 1480.07 Q1787.39 1481.2 1789.61 1481.76 Q1791.83 1482.32 1794.31 1482.32 Q1798.31 1482.32 1800.65 1480.21 Q1802.99 1478.1 1802.99 1474.49 Q1802.99 1470.88 1800.65 1468.77 Q1798.31 1466.67 1794.31 1466.67 Q1792.43 1466.67 1790.56 1467.08 Q1788.71 1467.5 1786.76 1468.38 L1786.76 1451.02 Z" fill="#000000" fill-rule="nonzero" fill-opacity="1" /><path clip-path="url(#clip060)" d="M1826.88 1454.1 Q1823.27 1454.1 1821.44 1457.66 Q1819.63 1461.2 1819.63 1468.33 Q1819.63 1475.44 1821.44 1479.01 Q1823.27 1482.55 1826.88 1482.55 Q1830.51 1482.55 1832.32 1479.01 Q1834.15 1475.44 1834.15 1468.33 Q1834.15 1461.2 1832.32 1457.66 Q1830.51 1454.1 1826.88 1454.1 M1826.88 1450.39 Q1832.69 1450.39 1835.74 1455 Q1838.82 1459.58 1838.82 1468.33 Q1838.82 1477.06 1835.74 1481.67 Q1832.69 1486.25 1826.88 1486.25 Q1821.07 1486.25 1817.99 1481.67 Q1814.93 1477.06 1814.93 1468.33 Q1814.93 1459.58 1817.99 1455 Q1821.07 1450.39 1826.88 1450.39 Z" fill="#000000" fill-rule="nonzero" fill-opacity="1" /><path clip-path="url(#clip060)" d="M2237.8 1481.64 L2245.44 1481.64 L2245.44 1455.28 L2237.13 1456.95 L2237.13 1452.69 L2245.39 1451.02 L2250.07 1451.02 L2250.07 1481.64 L2257.71 1481.64 L2257.71 1485.58 L2237.8 1485.58 L2237.8 1481.64 Z" fill="#000000" fill-rule="nonzero" fill-opacity="1" /><path clip-path="url(#clip060)" d="M2277.15 1454.1 Q2273.54 1454.1 2271.71 1457.66 Q2269.91 1461.2 2269.91 1468.33 Q2269.91 1475.44 2271.71 1479.01 Q2273.54 1482.55 2277.15 1482.55 Q2280.79 1482.55 2282.59 1479.01 Q2284.42 1475.44 2284.42 1468.33 Q2284.42 1461.2 2282.59 1457.66 Q2280.79 1454.1 2277.15 1454.1 M2277.15 1450.39 Q2282.96 1450.39 2286.02 1455 Q2289.1 1459.58 2289.1 1468.33 Q2289.1 1477.06 2286.02 1481.67 Q2282.96 1486.25 2277.15 1486.25 Q2271.34 1486.25 2268.26 1481.67 Q2265.21 1477.06 2265.21 1468.33 Q2265.21 1459.58 2268.26 1455 Q2271.34 1450.39 2277.15 1450.39 Z" fill="#000000" fill-rule="nonzero" fill-opacity="1" /><path clip-path="url(#clip060)" d="M2307.31 1454.1 Q2303.7 1454.1 2301.87 1457.66 Q2300.07 1461.2 2300.07 1468.33 Q2300.07 1475.44 2301.87 1479.01 Q2303.7 1482.55 2307.31 1482.55 Q2310.95 1482.55 2312.75 1479.01 Q2314.58 1475.44 2314.58 1468.33 Q2314.58 1461.2 2312.75 1457.66 Q2310.95 1454.1 2307.31 1454.1 M2307.31 1450.39 Q2313.12 1450.39 2316.18 1455 Q2319.26 1459.58 2319.26 1468.33 Q2319.26 1477.06 2316.18 1481.67 Q2313.12 1486.25 2307.31 1486.25 Q2301.5 1486.25 2298.42 1481.67 Q2295.37 1477.06 2295.37 1468.33 Q2295.37 1459.58 2298.42 1455 Q2301.5 1450.39 2307.31 1450.39 Z" fill="#000000" fill-rule="nonzero" fill-opacity="1" /><path clip-path="url(#clip060)" d="M2337.48 1454.1 Q2333.86 1454.1 2332.04 1457.66 Q2330.23 1461.2 2330.23 1468.33 Q2330.23 1475.44 2332.04 1479.01 Q2333.86 1482.55 2337.48 1482.55 Q2341.11 1482.55 2342.92 1479.01 Q2344.74 1475.44 2344.74 1468.33 Q2344.74 1461.2 2342.92 1457.66 Q2341.11 1454.1 2337.48 1454.1 M2337.48 1450.39 Q2343.29 1450.39 2346.34 1455 Q2349.42 1459.58 2349.42 1468.33 Q2349.42 1477.06 2346.34 1481.67 Q2343.29 1486.25 2337.48 1486.25 Q2331.67 1486.25 2328.59 1481.67 Q2325.53 1477.06 2325.53 1468.33 Q2325.53 1459.58 2328.59 1455 Q2331.67 1450.39 2337.48 1450.39 Z" fill="#000000" fill-rule="nonzero" fill-opacity="1" /><path clip-path="url(#clip060)" d="M1208.08 1520.52 L1238.13 1520.52 L1238.13 1525.93 L1214.51 1525.93 L1214.51 1540 L1237.14 1540 L1237.14 1545.41 L1214.51 1545.41 L1214.51 1562.63 L1238.7 1562.63 L1238.7 1568.04 L1208.08 1568.04 L1208.08 1520.52 Z" fill="#000000" fill-rule="nonzero" fill-opacity="1" /><path clip-path="url(#clip060)" d="M1254.68 1562.7 L1254.68 1581.6 L1248.79 1581.6 L1248.79 1532.4 L1254.68 1532.4 L1254.68 1537.81 Q1256.53 1534.62 1259.33 1533.1 Q1262.16 1531.54 1266.07 1531.54 Q1272.57 1531.54 1276.61 1536.69 Q1280.68 1541.85 1280.68 1550.25 Q1280.68 1558.65 1276.61 1563.81 Q1272.57 1568.97 1266.07 1568.97 Q1262.16 1568.97 1259.33 1567.44 Q1256.53 1565.88 1254.68 1562.7 M1274.6 1550.25 Q1274.6 1543.79 1271.93 1540.13 Q1269.29 1536.44 1264.64 1536.44 Q1260 1536.44 1257.32 1540.13 Q1254.68 1543.79 1254.68 1550.25 Q1254.68 1556.71 1257.32 1560.4 Q1260 1564.07 1264.64 1564.07 Q1269.29 1564.07 1271.93 1560.4 Q1274.6 1556.71 1274.6 1550.25 Z" fill="#000000" fill-rule="nonzero" fill-opacity="1" /><path clip-path="url(#clip060)" d="M1304.21 1536.5 Q1299.49 1536.5 1296.76 1540.19 Q1294.02 1543.85 1294.02 1550.25 Q1294.02 1556.65 1296.73 1560.34 Q1299.46 1564 1304.21 1564 Q1308.88 1564 1311.62 1560.31 Q1314.36 1556.62 1314.36 1550.25 Q1314.36 1543.92 1311.62 1540.23 Q1308.88 1536.5 1304.21 1536.5 M1304.21 1531.54 Q1311.84 1531.54 1316.2 1536.5 Q1320.57 1541.47 1320.57 1550.25 Q1320.57 1559 1316.2 1564 Q1311.84 1568.97 1304.21 1568.97 Q1296.53 1568.97 1292.17 1564 Q1287.85 1559 1287.85 1550.25 Q1287.85 1541.47 1292.17 1536.5 Q1296.53 1531.54 1304.21 1531.54 Z" fill="#000000" fill-rule="nonzero" fill-opacity="1" /><path clip-path="url(#clip060)" d="M1355.93 1533.76 L1355.93 1539.24 Q1353.44 1537.87 1350.93 1537.2 Q1348.45 1536.5 1345.9 1536.5 Q1340.2 1536.5 1337.05 1540.13 Q1333.9 1543.73 1333.9 1550.25 Q1333.9 1556.78 1337.05 1560.4 Q1340.2 1564 1345.9 1564 Q1348.45 1564 1350.93 1563.33 Q1353.44 1562.63 1355.93 1561.26 L1355.93 1566.68 Q1353.48 1567.82 1350.83 1568.39 Q1348.22 1568.97 1345.26 1568.97 Q1337.21 1568.97 1332.47 1563.91 Q1327.73 1558.85 1327.73 1550.25 Q1327.73 1541.53 1332.5 1536.53 Q1337.31 1531.54 1345.65 1531.54 Q1348.35 1531.54 1350.93 1532.11 Q1353.51 1532.65 1355.93 1533.76 Z" fill="#000000" fill-rule="nonzero" fill-opacity="1" /><path clip-path="url(#clip060)" d="M1395.74 1546.53 L1395.74 1568.04 L1389.89 1568.04 L1389.89 1546.72 Q1389.89 1541.66 1387.91 1539.14 Q1385.94 1536.63 1381.99 1536.63 Q1377.25 1536.63 1374.51 1539.65 Q1371.78 1542.68 1371.78 1547.9 L1371.78 1568.04 L1365.89 1568.04 L1365.89 1518.52 L1371.78 1518.52 L1371.78 1537.93 Q1373.88 1534.72 1376.71 1533.13 Q1379.58 1531.54 1383.3 1531.54 Q1389.44 1531.54 1392.59 1535.36 Q1395.74 1539.14 1395.74 1546.53 Z" fill="#000000" fill-rule="nonzero" fill-opacity="1" /><polyline clip-path="url(#clip062)" style="stroke:#000000; stroke-linecap:round; stroke-linejoin:round; stroke-width:2; stroke-opacity:0.1; fill:none" points="251.071,1080.11 2352.76,1080.11 "/>
<polyline clip-path="url(#clip062)" style="stroke:#000000; stroke-linecap:round; stroke-linejoin:round; stroke-width:2; stroke-opacity:0.1; fill:none" points="251.071,529.884 2352.76,529.884 "/>
<polyline clip-path="url(#clip060)" style="stroke:#000000; stroke-linecap:round; stroke-linejoin:round; stroke-width:4; stroke-opacity:1; fill:none" points="251.071,1423.18 251.071,47.2441 "/>
<polyline clip-path="url(#clip060)" style="stroke:#000000; stroke-linecap:round; stroke-linejoin:round; stroke-width:4; stroke-opacity:1; fill:none" points="251.071,1080.11 269.969,1080.11 "/>
<polyline clip-path="url(#clip060)" style="stroke:#000000; stroke-linecap:round; stroke-linejoin:round; stroke-width:4; stroke-opacity:1; fill:none" points="251.071,529.884 269.969,529.884 "/>
<path clip-path="url(#clip060)" d="M114.931 1099.9 L122.57 1099.9 L122.57 1073.54 L114.26 1075.2 L114.26 1070.94 L122.524 1069.28 L127.2 1069.28 L127.2 1099.9 L134.839 1099.9 L134.839 1103.84 L114.931 1103.84 L114.931 1099.9 Z" fill="#000000" fill-rule="nonzero" fill-opacity="1" /><path clip-path="url(#clip060)" d="M154.283 1072.36 Q150.672 1072.36 148.843 1075.92 Q147.038 1079.46 147.038 1086.59 Q147.038 1093.7 148.843 1097.26 Q150.672 1100.81 154.283 1100.81 Q157.917 1100.81 159.723 1097.26 Q161.552 1093.7 161.552 1086.59 Q161.552 1079.46 159.723 1075.92 Q157.917 1072.36 154.283 1072.36 M154.283 1068.65 Q160.093 1068.65 163.149 1073.26 Q166.227 1077.84 166.227 1086.59 Q166.227 1095.32 163.149 1099.93 Q160.093 1104.51 154.283 1104.51 Q148.473 1104.51 145.394 1099.93 Q142.339 1095.32 142.339 1086.59 Q142.339 1077.84 145.394 1073.26 Q148.473 1068.65 154.283 1068.65 Z" fill="#000000" fill-rule="nonzero" fill-opacity="1" /><path clip-path="url(#clip060)" d="M166.227 1062.75 L190.339 1062.75 L190.339 1065.95 L166.227 1065.95 L166.227 1062.75 Z" fill="#000000" fill-rule="nonzero" fill-opacity="1" /><path clip-path="url(#clip060)" d="M201.812 1073.23 L215.071 1073.23 L215.071 1076.43 L197.241 1076.43 L197.241 1073.23 Q199.404 1070.99 203.128 1067.23 Q206.871 1063.45 207.83 1062.36 Q209.655 1060.31 210.369 1058.9 Q211.103 1057.47 211.103 1056.1 Q211.103 1053.86 209.523 1052.45 Q207.962 1051.04 205.442 1051.04 Q203.655 1051.04 201.661 1051.66 Q199.686 1052.28 197.43 1053.54 L197.43 1049.7 Q199.724 1048.78 201.718 1048.31 Q203.711 1047.84 205.366 1047.84 Q209.73 1047.84 212.325 1050.02 Q214.921 1052.2 214.921 1055.85 Q214.921 1057.58 214.263 1059.14 Q213.623 1060.69 211.912 1062.79 Q211.441 1063.34 208.921 1065.95 Q206.401 1068.55 201.812 1073.23 Z" fill="#000000" fill-rule="nonzero" fill-opacity="1" /><path clip-path="url(#clip060)" d="M144.366 549.676 L152.004 549.676 L152.004 523.311 L143.694 524.977 L143.694 520.718 L151.958 519.052 L156.634 519.052 L156.634 549.676 L164.273 549.676 L164.273 553.612 L144.366 553.612 L144.366 549.676 Z" fill="#000000" fill-rule="nonzero" fill-opacity="1" /><path clip-path="url(#clip060)" d="M183.717 522.13 Q180.106 522.13 178.277 525.695 Q176.472 529.237 176.472 536.366 Q176.472 543.473 178.277 547.037 Q180.106 550.579 183.717 550.579 Q187.351 550.579 189.157 547.037 Q190.986 543.473 190.986 536.366 Q190.986 529.237 189.157 525.695 Q187.351 522.13 183.717 522.13 M183.717 518.427 Q189.527 518.427 192.583 523.033 Q195.662 527.616 195.662 536.366 Q195.662 545.093 192.583 549.699 Q189.527 554.283 183.717 554.283 Q177.907 554.283 174.828 549.699 Q171.773 545.093 171.773 536.366 Q171.773 527.616 174.828 523.033 Q177.907 518.427 183.717 518.427 Z" fill="#000000" fill-rule="nonzero" fill-opacity="1" /><path clip-path="url(#clip060)" d="M205.366 500.623 Q202.432 500.623 200.947 503.519 Q199.48 506.397 199.48 512.189 Q199.48 517.963 200.947 520.86 Q202.432 523.737 205.366 523.737 Q208.319 523.737 209.786 520.86 Q211.272 517.963 211.272 512.189 Q211.272 506.397 209.786 503.519 Q208.319 500.623 205.366 500.623 M205.366 497.613 Q210.087 497.613 212.57 501.356 Q215.071 505.08 215.071 512.189 Q215.071 519.28 212.57 523.023 Q210.087 526.747 205.366 526.747 Q200.646 526.747 198.144 523.023 Q195.662 519.28 195.662 512.189 Q195.662 505.08 198.144 501.356 Q200.646 497.613 205.366 497.613 Z" fill="#000000" fill-rule="nonzero" fill-opacity="1" /><path clip-path="url(#clip060)" d="M16.4842 953.174 L16.4842 912.974 L21.895 912.974 L21.895 929.843 L64.0042 929.843 L64.0042 936.305 L21.895 936.305 L21.895 953.174 L16.4842 953.174 Z" fill="#000000" fill-rule="nonzero" fill-opacity="1" /><path clip-path="url(#clip060)" d="M33.8307 895.946 Q33.2578 896.933 33.0032 898.11 Q32.7167 899.256 32.7167 900.657 Q32.7167 905.622 35.9632 908.296 Q39.1779 910.937 45.2253 910.937 L64.0042 910.937 L64.0042 916.826 L28.3562 916.826 L28.3562 910.937 L33.8944 910.937 Q30.6479 909.091 29.0883 906.131 Q27.4968 903.171 27.4968 898.938 Q27.4968 898.333 27.5923 897.601 Q27.656 896.869 27.8151 895.978 L33.8307 895.946 Z" fill="#000000" fill-rule="nonzero" fill-opacity="1" /><path clip-path="url(#clip060)" d="M46.0847 873.602 Q46.0847 880.7 47.7079 883.437 Q49.3312 886.175 53.2461 886.175 Q56.3653 886.175 58.2114 884.138 Q60.0256 882.069 60.0256 878.536 Q60.0256 873.666 56.5881 870.738 Q53.1188 867.778 47.3897 867.778 L46.0847 867.778 L46.0847 873.602 M43.6657 861.921 L64.0042 861.921 L64.0042 867.778 L58.5933 867.778 Q61.8398 869.783 63.3994 872.775 Q64.9272 875.767 64.9272 880.095 Q64.9272 885.57 61.8716 888.816 Q58.7843 892.031 53.6281 892.031 Q47.6125 892.031 44.5569 888.021 Q41.5014 883.979 41.5014 875.99 L41.5014 867.778 L40.9285 867.778 Q36.8862 867.778 34.6901 870.451 Q32.4621 873.093 32.4621 877.899 Q32.4621 880.955 33.1941 883.851 Q33.9262 886.748 35.3903 889.421 L29.9795 889.421 Q28.7381 886.207 28.1334 883.183 Q27.4968 880.159 27.4968 877.295 Q27.4968 869.56 31.5072 865.741 Q35.5176 861.921 43.6657 861.921 Z" fill="#000000" fill-rule="nonzero" fill-opacity="1" /><path clip-path="url(#clip060)" d="M28.3562 849.858 L28.3562 844.002 L64.0042 844.002 L64.0042 849.858 L28.3562 849.858 M14.479 849.858 L14.479 844.002 L21.895 844.002 L21.895 849.858 L14.479 849.858 Z" fill="#000000" fill-rule="nonzero" fill-opacity="1" /><path clip-path="url(#clip060)" d="M42.4881 802.116 L64.0042 802.116 L64.0042 807.972 L42.679 807.972 Q37.6183 807.972 35.1038 809.945 Q32.5894 811.919 32.5894 815.865 Q32.5894 820.608 35.6131 823.345 Q38.6368 826.082 43.8567 826.082 L64.0042 826.082 L64.0042 831.971 L28.3562 831.971 L28.3562 826.082 L33.8944 826.082 Q30.6797 823.982 29.0883 821.149 Q27.4968 818.284 27.4968 814.561 Q27.4968 808.418 31.3163 805.267 Q35.1038 802.116 42.4881 802.116 Z" fill="#000000" fill-rule="nonzero" fill-opacity="1" /><path clip-path="url(#clip060)" d="M28.3562 790.434 L28.3562 784.578 L64.0042 784.578 L64.0042 790.434 L28.3562 790.434 M14.479 790.434 L14.479 784.578 L21.895 784.578 L21.895 790.434 L14.479 790.434 Z" fill="#000000" fill-rule="nonzero" fill-opacity="1" /><path clip-path="url(#clip060)" d="M42.4881 742.692 L64.0042 742.692 L64.0042 748.548 L42.679 748.548 Q37.6183 748.548 35.1038 750.521 Q32.5894 752.495 32.5894 756.442 Q32.5894 761.184 35.6131 763.921 Q38.6368 766.659 43.8567 766.659 L64.0042 766.659 L64.0042 772.547 L28.3562 772.547 L28.3562 766.659 L33.8944 766.659 Q30.6797 764.558 29.0883 761.725 Q27.4968 758.861 27.4968 755.137 Q27.4968 748.994 31.3163 745.843 Q35.1038 742.692 42.4881 742.692 Z" fill="#000000" fill-rule="nonzero" fill-opacity="1" /><path clip-path="url(#clip060)" d="M45.7664 707.553 Q39.4007 707.553 35.8996 710.195 Q32.3984 712.805 32.3984 717.547 Q32.3984 722.258 35.8996 724.9 Q39.4007 727.509 45.7664 727.509 Q52.1003 727.509 55.6014 724.9 Q59.1026 722.258 59.1026 717.547 Q59.1026 712.805 55.6014 710.195 Q52.1003 707.553 45.7664 707.553 M59.58 701.697 Q68.683 701.697 73.1071 705.739 Q77.5631 709.781 77.5631 718.12 Q77.5631 721.207 77.0857 723.945 Q76.6401 726.682 75.6852 729.26 L69.9879 729.26 Q71.3884 726.682 72.0568 724.167 Q72.7252 721.653 72.7252 719.043 Q72.7252 713.282 69.7015 710.418 Q66.7096 707.553 60.6303 707.553 L57.7339 707.553 Q60.885 709.367 62.4446 712.2 Q64.0042 715.033 64.0042 718.979 Q64.0042 725.536 59.0071 729.546 Q54.01 733.557 45.7664 733.557 Q37.491 733.557 32.4939 729.546 Q27.4968 725.536 27.4968 718.979 Q27.4968 715.033 29.0564 712.2 Q30.616 709.367 33.7671 707.553 L28.3562 707.553 L28.3562 701.697 L59.58 701.697 Z" fill="#000000" fill-rule="nonzero" fill-opacity="1" /><path clip-path="url(#clip060)" d="M44.7161 638.421 L47.5806 638.421 L47.5806 665.348 Q53.6281 664.966 56.8109 661.72 Q59.9619 658.442 59.9619 652.617 Q59.9619 649.243 59.1344 646.092 Q58.3069 642.909 56.6518 639.79 L62.1899 639.79 Q63.5267 642.941 64.227 646.251 Q64.9272 649.561 64.9272 652.967 Q64.9272 661.497 59.9619 666.494 Q54.9967 671.459 46.5303 671.459 Q37.7774 671.459 32.6531 666.749 Q27.4968 662.006 27.4968 653.986 Q27.4968 646.792 32.1438 642.623 Q36.7589 638.421 44.7161 638.421 M42.9973 644.278 Q38.1912 644.342 35.3266 646.983 Q32.4621 649.593 32.4621 653.922 Q32.4621 658.823 35.2312 661.784 Q38.0002 664.712 43.0292 665.157 L42.9973 644.278 Z" fill="#000000" fill-rule="nonzero" fill-opacity="1" /><path clip-path="url(#clip060)" d="M33.8307 608.152 Q33.2578 609.139 33.0032 610.317 Q32.7167 611.463 32.7167 612.863 Q32.7167 617.828 35.9632 620.502 Q39.1779 623.144 45.2253 623.144 L64.0042 623.144 L64.0042 629.032 L28.3562 629.032 L28.3562 623.144 L33.8944 623.144 Q30.6479 621.298 29.0883 618.338 Q27.4968 615.378 27.4968 611.144 Q27.4968 610.54 27.5923 609.808 Q27.656 609.075 27.8151 608.184 L33.8307 608.152 Z" fill="#000000" fill-rule="nonzero" fill-opacity="1" /><path clip-path="url(#clip060)" d="M33.8307 582.499 Q33.2578 583.485 33.0032 584.663 Q32.7167 585.809 32.7167 587.209 Q32.7167 592.175 35.9632 594.848 Q39.1779 597.49 45.2253 597.49 L64.0042 597.49 L64.0042 603.378 L28.3562 603.378 L28.3562 597.49 L33.8944 597.49 Q30.6479 595.644 29.0883 592.684 Q27.4968 589.724 27.4968 585.491 Q27.4968 584.886 27.5923 584.154 Q27.656 583.422 27.8151 582.53 L33.8307 582.499 Z" fill="#000000" fill-rule="nonzero" fill-opacity="1" /><path clip-path="url(#clip060)" d="M32.4621 563.974 Q32.4621 568.685 36.1542 571.422 Q39.8145 574.16 46.212 574.16 Q52.6095 574.16 56.3017 571.454 Q59.9619 568.717 59.9619 563.974 Q59.9619 559.296 56.2698 556.558 Q52.5777 553.821 46.212 553.821 Q39.8781 553.821 36.186 556.558 Q32.4621 559.296 32.4621 563.974 M27.4968 563.974 Q27.4968 556.336 32.4621 551.975 Q37.4273 547.615 46.212 547.615 Q54.9649 547.615 59.9619 551.975 Q64.9272 556.336 64.9272 563.974 Q64.9272 571.645 59.9619 576.006 Q54.9649 580.334 46.212 580.334 Q37.4273 580.334 32.4621 576.006 Q27.4968 571.645 27.4968 563.974 Z" fill="#000000" fill-rule="nonzero" fill-opacity="1" /><path clip-path="url(#clip060)" d="M33.8307 517.25 Q33.2578 518.237 33.0032 519.415 Q32.7167 520.56 32.7167 521.961 Q32.7167 526.926 35.9632 529.6 Q39.1779 532.241 45.2253 532.241 L64.0042 532.241 L64.0042 538.13 L28.3562 538.13 L28.3562 532.241 L33.8944 532.241 Q30.6479 530.395 29.0883 527.435 Q27.4968 524.475 27.4968 520.242 Q27.4968 519.637 27.5923 518.905 Q27.656 518.173 27.8151 517.282 L33.8307 517.25 Z" fill="#000000" fill-rule="nonzero" fill-opacity="1" /><polyline clip-path="url(#clip062)" style="stroke:#3da44d; stroke-linecap:round; stroke-linejoin:round; stroke-width:4; stroke-opacity:1; fill:none" points="310.553,627.792 312.538,640.197 314.522,653.629 316.507,669.231 318.492,687.182 320.476,707.023 322.461,730.75 324.446,759.485 326.431,796.783 328.415,849.068 330.4,937.498 332.385,1012.61 334.369,1019 336.354,1037.65 338.339,1043.68 340.323,1049.11 342.308,1050.74 344.293,1051.74 346.278,1052.97 348.262,1052.24 350.247,1053.33 352.232,1054.21 354.216,1054.58 356.201,1054.21 358.186,1055.39 360.171,1055.98 362.155,1056.88 364.14,1056.73 366.125,1057.86 368.109,1058.24 370.094,1057.79 372.079,1057.86 374.063,1058.39 376.048,1058.39 378.033,1059.77 380.018,1059.54 382.002,1060.31 383.987,1060.08 385.972,1060.23 387.956,1059.77 389.941,1060.85 391.926,1059.69 393.911,1059.85 395.895,1061.16 397.88,1062.73 399.865,1062.57 401.849,1063.6 403.834,1066.81 405.819,1068.54 407.803,1072.15 409.788,1072.32 411.773,1074.04 413.758,1076.94 415.742,1078.01 417.727,1079.36 419.712,1082.39 421.696,1084.26 423.681,1084.07 425.666,1091.76 427.651,1094.81 429.635,1097.63 431.62,1099.43 433.605,1101.05 435.589,1106.5 437.574,1108.68 439.559,1111.07 441.543,1118.57 443.528,1123.18 445.513,1127.98 447.498,1129.63 449.482,1134.41 451.467,1139.77 453.452,1144.99 455.436,1150.37 457.421,1154.8 459.406,1156.95 461.391,1162.45 463.375,1165.48 465.36,1173.47 467.345,1180.44 469.329,1186.39 471.314,1187.4 473.299,1188.18 475.283,1193.07 477.268,1200.88 479.253,1211.35 481.238,1210.8 483.222,1219.19 485.207,1224.18 487.192,1227.5 489.176,1232.45 491.161,1236.85 493.146,1240.72 495.131,1236.26 497.115,1245.26 499.1,1234.92 501.085,1242.39 503.069,1262.84 505.054,1273.39 507.039,1273.39 509.023,1277.36 511.008,1284.39 512.993,1288.62 514.978,1288.49 516.962,1293.76 518.947,1296.16 520.932,1293.82 522.916,1280.67 524.901,1276.59 526.886,1311.26 528.871,1327.99 530.855,1335.87 532.84,1336.16 534.825,1341.93 536.809,1321.72 538.794,1306.39 540.779,1292.27 542.764,1298.2 544.748,1305.03 546.733,1307.91 548.718,1297.63 550.702,1295.06 552.687,1304.66 554.672,1306.77 556.656,1310.24 558.641,1312.77 560.626,1310.71 562.611,1312.77 564.595,1336.35 566.58,1358.76 568.565,1365.09 570.549,1357.48 572.534,1356.67 574.519,1359.82 576.504,1365.21 578.488,1357.24 580.473,1360.06 582.458,1361.97 584.442,1356.32 586.427,1358.35 588.412,1360.35 590.396,1361.97 592.381,1359.52 594.366,1354.49 596.351,1353.03 598.335,1360.77 600.32,1348.64 602.305,1357.01 604.289,1358.17 606.274,1360.35 608.259,1358.99 610.244,1351.7 612.228,1354.83 614.213,1363.06 616.198,1365.21 618.182,1362.39 620.167,1359.29 622.152,1362.09 624.136,1302.52 626.121,1305.94 628.106,1308.14 630.091,1290.8 632.075,1296.3 634.06,1292.2 636.045,1298.13 638.029,1305.56 640.014,1307 641.999,1303.25 643.984,1306.46 645.968,1311.81 647.953,1322.93 649.938,1351.25 651.922,1356.78 653.907,1361.31 655.892,1361.61 657.876,1360.35 659.861,1361.61 661.846,1362.15 663.831,1367.78 665.815,1367.08 667.8,1363.06 669.785,1350.38 671.769,1357.59 673.754,1356.9 675.739,1360.35 677.724,1357.13 679.708,1359.7 681.693,1360.06 683.678,1362.58 685.662,1360.77 687.647,1363.24 689.632,1345.45 691.616,1322.58 693.601,1355.63 695.586,1357.36 697.571,1358.88 699.555,1365.52 701.54,1362.15 703.525,1361.13 705.509,1362.51 707.494,1313.41 709.479,1307.76 711.464,1310.47 713.448,1319.33 715.433,1360.65 717.418,1363.06 719.402,1366.33 721.387,1364.1 723.372,1364.1 725.356,1371.44 727.341,1370.85 729.326,1366.89 731.311,1366.45 733.295,1360.06 735.28,1364.78 737.265,1366.52 739.249,1355.75 741.234,1361.01 743.219,1348.64 745.204,1338.71 747.188,1334.61 749.173,1341.12 751.158,1334.9 753.142,1347.14 755.127,1356.55 757.112,1358.47 759.096,1367.9 761.081,1369.11 763.066,1322.41 765.051,1324.59 767.035,1306.09 769.02,1322.15 771.005,1316.09 772.989,1302.52 774.974,1306.84 776.959,1310 778.944,1304.21 780.928,1300.05 782.913,1293.42 784.898,1309.77 786.882,1310.94 788.867,1313.73 790.852,1313.97 792.836,1312.69 794.821,1360.59 796.806,1362.15 798.791,1366.89 800.775,1364.9 802.76,1366.08 804.745,1367.46 806.729,1363.12 808.714,1363.06 810.699,1365.09 812.684,1361.73 814.668,1357.48 816.653,1362.94 818.638,1366.08 820.622,1367.08 822.607,1369.95 824.592,1364.35 826.576,1364.9 828.561,1364.65 830.546,1366.45 832.531,1364.47 834.515,1369.82 836.5,1366.08 838.485,1361.19 840.469,1348.53 842.454,1362.39 844.439,1362.39 846.424,1370.98 848.408,1367.52 850.393,1364.78 852.378,1370.72 854.362,1369.24 856.347,1366.33 858.332,1338.71 860.316,1278.91 862.301,1292.54 864.286,1319.92 866.271,1313.73 868.255,1327.81 870.24,1342.95 872.225,1363.55 874.209,1363.24 876.194,1369.5 878.179,1370.27 880.164,1368.79 882.148,1367.52 884.133,1361.31 886.118,1365.21 888.102,1307.53 890.087,1308.68 892.072,1314.13 894.056,1312.21 896.041,1310.71 898.026,1312.92 900.011,1311.57 901.995,1316.41 903.98,1314.62 905.965,1317.16 907.949,1314.54 909.934,1311.81 911.919,1312.92 913.904,1316.91 915.888,1309.69 917.873,1313.81 919.858,1303.84 921.842,1289.47 923.827,1298.06 925.812,1312.21 927.796,1313.08 929.781,1312.21 931.766,1310.08 933.751,1311.97 935.735,1311.73 937.72,1309.53 939.705,1300.84 941.689,1282.83 943.674,1295.75 945.659,1303.25 947.644,1347.56 949.628,1361.31 951.613,1364.47 953.598,1363.92 955.582,1368.92 957.567,1369.11 959.552,1368.54 961.536,1368.35 963.521,1364.04 965.506,1367.33 967.491,1364.35 969.475,1371.64 971.46,1363.37 973.445,1325.74 975.429,1335.19 977.414,1329.54 979.399,1343.78 981.384,1355.86 983.368,1360.65 985.353,1357.59 987.338,1368.22 989.322,1366.02 991.307,1362.27 993.292,1360.59 995.276,1367.78 997.261,1369.37 999.246,1361.01 1001.23,1364.47 1003.22,1368.67 1005.2,1373.08 1007.18,1373.21 1009.17,1365.33 1011.15,1347.35 1013.14,1344.09 1015.12,1354.38 1017.11,1361.85 1019.09,1367.65 1021.08,1368.03 1023.06,1353.93 1025.05,1293.14 1027.03,1307.99 1029.02,1307.61 1031,1310.86 1032.99,1312.69 1034.97,1311.41 1036.96,1322.06 1038.94,1317.91 1040.92,1352.58 1042.91,1356.67 1044.89,1358.35 1046.88,1361.19 1048.86,1344.71 1050.85,1339.91 1052.83,1353.03 1054.82,1362.39 1056.8,1365.21 1058.79,1363.12 1060.77,1362.15 1062.76,1364.1 1064.74,1363.24 1066.73,1365.77 1068.71,1364.1 1070.7,1368.22 1072.68,1371.77 1074.66,1361.85 1076.65,1367.33 1078.63,1371.9 1080.62,1373.21 1082.6,1367.9 1084.59,1368.92 1086.57,1369.56 1088.56,1367.9 1090.54,1370.59 1092.53,1352.81 1094.51,1363.24 1096.5,1372.49 1098.48,1371.44 1100.47,1373.61 1102.45,1372.03 1104.44,1375.56 1106.42,1368.54 1108.4,1370.14 1110.39,1363.12 1112.37,1367.33 1114.36,1372.36 1116.34,1368.35 1118.33,1366.45 1120.31,1371.64 1122.3,1370.59 1124.28,1354.27 1126.27,1368.09 1128.25,1300.05 1130.24,1315.35 1132.22,1317.82 1134.21,1317.74 1136.19,1305.63 1138.18,1311.57 1140.16,1311.65 1142.14,1306.84 1144.13,1302.08 1146.11,1310.24 1148.1,1313 1150.08,1315.02 1152.07,1314.45 1154.05,1311.49 1156.04,1316 1158.02,1314.7 1160.01,1310.24 1161.99,1349.5 1163.98,1362.7 1165.96,1367.78 1167.95,1360.65 1169.93,1362.51 1171.92,1367.78 1173.9,1368.03 1175.88,1372.69 1177.87,1372.82 1179.85,1373.21 1181.84,1369.95 1183.82,1369.11 1185.81,1363.37 1187.79,1365.02 1189.78,1367.08 1191.76,1366.64 1193.75,1371.9 1195.73,1372.36 1197.72,1370.4 1199.7,1365.09 1201.69,1371.64 1203.67,1371.64 1205.66,1371.9 1207.64,1363.06 1209.62,1350.92 1211.61,1361.19 1213.59,1367.02 1215.58,1374.81 1217.56,1372.88 1219.55,1368.03 1221.53,1368.47 1223.52,1364.9 1225.5,1364.65 1227.49,1373.41 1229.47,1365.21 1231.46,1344.82 1233.44,1334.23 1235.43,1332.24 1237.41,1282.95 1239.4,1287.71 1241.38,1298.06 1243.36,1291.53 1245.35,1287.58 1247.33,1296.23 1249.32,1313.25 1251.3,1318.99 1253.29,1309.92 1255.27,1316.74 1257.26,1316.83 1259.24,1310 1261.23,1333.94 1263.21,1355.4 1265.2,1357.36 1267.18,1359.64 1269.17,1372.82 1271.15,1378.56 1273.14,1377.05 1275.12,1377.46 1277.1,1378.63 1279.09,1375.62 1281.07,1373.48 1283.06,1378.91 1285.04,1380.45 1287.03,1375.08 1289.01,1364.47 1291,1360.65 1292.98,1370.98 1294.97,1374.15 1296.95,1363.12 1298.94,1372.36 1300.92,1369.5 1302.91,1372.03 1304.89,1373.08 1306.88,1372.36 1308.86,1372.69 1310.84,1368.92 1312.83,1371.77 1314.81,1374.81 1316.8,1371.44 1318.78,1373.02 1320.77,1371.77 1322.75,1368.54 1324.74,1366.02 1326.72,1310.16 1328.71,1312.77 1330.69,1316.91 1332.68,1317.66 1334.66,1309.61 1336.65,1312.69 1338.63,1294.16 1340.62,1309.3 1342.6,1310.55 1344.58,1313.25 1346.57,1314.29 1348.55,1316 1350.54,1335.48 1352.52,1315.68 1354.51,1309.3 1356.49,1332.43 1358.48,1318.74 1360.46,1315.02 1362.45,1317.24 1364.43,1318.16 1366.42,1318.99 1368.4,1317.57 1370.39,1306.84 1372.37,1297.98 1374.36,1299.76 1376.34,1307.68 1378.32,1318.32 1380.31,1316.5 1382.29,1312.45 1384.28,1314.37 1386.26,1309.38 1388.25,1323.98 1390.23,1321.29 1392.22,1307.38 1394.2,1311.18 1396.19,1308.84 1398.17,1318.57 1400.16,1315.27 1402.14,1312.61 1404.13,1310.47 1406.11,1314.21 1408.1,1318.07 1410.08,1305.56 1412.06,1279.46 1414.05,1301.35 1416.03,1303.84 1418.02,1348.75 1420,1361.01 1421.99,1333.28 1423.97,1333.47 1425.96,1363.92 1427.94,1343.98 1429.93,1340.61 1431.91,1330.84 1433.9,1326.19 1435.88,1360.65 1437.87,1375.56 1439.85,1378.22 1441.84,1379.19 1443.82,1381.44 1445.8,1378.63 1447.79,1378.56 1449.77,1377.53 1451.76,1372.22 1453.74,1376.71 1455.73,1375.89 1457.71,1374.41 1459.7,1371.64 1461.68,1377.19 1463.67,1376.44 1465.65,1377.87 1467.64,1376.98 1469.62,1376.98 1471.61,1373.61 1473.59,1374.15 1475.58,1371.77 1477.56,1372.95 1479.54,1373.15 1481.53,1365.09 1483.51,1369.56 1485.5,1370.14 1487.48,1380.1 1489.47,1371.44 1491.45,1371.57 1493.44,1370.14 1495.42,1367.78 1497.41,1375.69 1499.39,1284.08 1501.38,1284.27 1503.36,1308.14 1505.35,1297 1507.33,1292.27 1509.32,1299.55 1511.3,1315.68 1513.28,1343.88 1515.27,1354.83 1517.25,1360.59 1519.24,1367.21 1521.22,1368.03 1523.21,1376.98 1525.19,1375.08 1527.18,1375.89 1529.16,1375.42 1531.15,1379.47 1533.13,1380.52 1535.12,1380.1 1537.1,1376.71 1539.09,1378.7 1541.07,1376.23 1543.06,1375.29 1545.04,1372.69 1547.02,1367.21 1549.01,1362.27 1550.99,1370.08 1552.98,1377.94 1554.96,1374.28 1556.95,1371.18 1558.93,1359.23 1560.92,1341.32 1562.9,1362.09 1564.89,1340.81 1566.87,1318.24 1568.86,1299.76 1570.84,1336.25 1572.83,1336.35 1574.81,1303.77 1576.8,1323.54 1578.78,1323.98 1580.76,1313.73 1582.75,1307.84 1584.73,1310.71 1586.72,1317.82 1588.7,1314.45 1590.69,1311.97 1592.67,1314.29 1594.66,1318.16 1596.64,1319.42 1598.63,1307.61 1600.61,1312.61 1602.6,1368.92 1604.58,1374.55 1606.57,1376.91 1608.55,1374.88 1610.54,1377.74 1612.52,1382.79 1614.5,1384.02 1616.49,1373.55 1618.47,1371.31 1620.46,1365.33 1622.44,1340.11 1624.43,1340.71 1626.41,1344.61 1628.4,1359.23 1630.38,1370.53 1632.37,1372.42 1634.35,1368.03 1636.34,1372.95 1638.32,1376.23 1640.31,1378.01 1642.29,1381.16 1644.28,1374.08 1646.26,1373.41 1648.24,1374.01 1650.23,1370.27 1652.21,1368.09 1654.2,1373.21 1656.18,1373.35 1658.17,1376.57 1660.15,1378.08 1662.14,1380.52 1664.12,1371.44 1666.11,1370.08 1668.09,1371.57 1670.08,1376.44 1672.06,1373.35 1674.05,1321.46 1676.03,1315.84 1678.02,1318.57 1680,1309.22 1681.98,1302.22 1683.97,1301.93 1685.95,1302.81 1687.94,1295.4 1689.92,1298.91 1691.91,1289.54 1693.89,1288.36 1695.88,1291.06 1697.86,1293.08 1699.85,1295.26 1701.83,1311.34 1703.82,1313.57 1705.8,1329.91 1707.79,1313.08 1709.77,1308.22 1711.76,1312.61 1713.74,1307.15 1715.72,1313.73 1717.71,1317.66 1719.69,1317.41 1721.68,1313.97 1723.66,1316.41 1725.65,1312.45 1727.63,1318.32 1729.62,1313.73 1731.6,1308.91 1733.59,1309.46 1735.57,1302.08 1737.56,1295.82 1739.54,1289.74 1741.53,1290.73 1743.51,1288.17 1745.5,1314.7 1747.48,1306.24 1749.46,1313.08 1751.45,1308.45 1753.43,1313.25 1755.42,1319.08 1757.4,1312.29 1759.39,1305.56 1761.37,1308.37 1763.36,1312.84 1765.34,1317.91 1767.33,1321.37 1769.31,1311.49 1771.3,1310.31 1773.28,1312.45 1775.27,1313.89 1777.25,1320.01 1779.24,1319.42 1781.22,1313.97 1783.2,1310.94 1785.19,1313.89 1787.17,1318.99 1789.16,1323.63 1791.14,1312.05 1793.13,1304.44 1795.11,1311.49 1797.1,1310.31 1799.08,1318.16 1801.07,1317.66 1803.05,1310.31 1805.04,1309.07 1807.02,1312.45 1809.01,1323.8 1810.99,1320.77 1812.98,1311.18 1814.96,1305.03 1816.94,1307.53 1818.93,1295.89 1820.91,1294.64 1822.9,1300.12 1824.88,1303.1 1826.87,1309.69 1828.85,1316.09 1830.84,1321.89 1832.82,1328.99 1834.81,1300.84 1836.79,1306.39 1838.78,1308.53 1840.76,1305.03 1842.75,1315.02 1844.73,1313.08 1846.72,1308.07 1848.7,1312.21 1850.68,1307.76 1852.67,1314.78 1854.65,1321.46 1856.64,1310.71 1858.62,1311.26 1860.61,1316.74 1862.59,1318.57 1864.58,1323.19 1866.56,1316.33 1868.55,1310.86 1870.53,1306.92 1872.52,1307.53 1874.5,1321.72 1876.49,1325.21 1878.47,1315.02 1880.46,1313.17 1882.44,1309.92 1884.42,1300.84 1886.41,1298.91 1888.39,1308.07 1890.38,1301.13 1892.36,1353.25 1894.35,1363.67 1896.33,1363.55 1898.32,1364.22 1900.3,1367.52 1902.29,1373.48 1904.27,1371.44 1906.26,1376.44 1908.24,1373.68 1910.23,1375.02 1912.21,1372.42 1914.2,1374.41 1916.18,1374.15 1918.16,1370.59 1920.15,1378.77 1922.13,1370.72 1924.12,1368.47 1926.1,1373.95 1928.09,1363.49 1930.07,1373.35 1932.06,1365.46 1934.04,1363.79 1936.03,1375.08 1938.01,1375.29 1940,1376.16 1941.98,1375.15 1943.97,1375.22 1945.95,1365.09 1947.94,1366.02 1949.92,1371.9 1951.9,1368.54 1953.89,1345.34 1955.87,1354.27 1957.86,1370.14 1959.84,1367.46 1961.83,1365.33 1963.81,1360.35 1965.8,1372.03 1967.78,1354.49 1969.77,1315.35 1971.75,1316.41 1973.74,1320.01 1975.72,1327.27 1977.71,1323.45 1979.69,1311.57 1981.68,1316.91 1983.66,1316.83 1985.64,1315.51 1987.63,1317.07 1989.61,1316.25 1991.6,1320.09 1993.58,1319.75 1995.57,1322.24 1997.55,1314.05 1999.54,1308.22 2001.52,1319.08 2003.51,1311.73 2005.49,1310.55 2007.48,1316.25 2009.46,1318.41 2011.45,1306.92 2013.43,1316.41 2015.42,1318.99 2017.4,1313.89 2019.38,1299.83 2021.37,1294.3 2023.35,1310.16 2025.34,1306.31 2027.32,1295.26 2029.31,1321.12 2031.29,1317.24 2033.28,1315.1 2035.26,1315.68 2037.25,1315.68 2039.23,1321.2 2041.22,1322.5 2043.2,1306.77 2045.19,1316.25 2047.17,1312.77 2049.16,1339.31 2051.14,1307.91 2053.12,1315.68 2055.11,1336.35 2057.09,1318.83 2059.08,1312.69 2061.06,1314.62 2063.05,1310.63 2065.03,1313 2067.02,1309.46 2069,1327.63 2070.99,1314.78 2072.97,1311.1 2074.96,1285.4 2076.94,1297.49 2078.93,1322.41 2080.91,1322.76 2082.9,1313.73 2084.88,1310.39 2086.86,1310.78 2088.85,1315.51 2090.83,1321.98 2092.82,1307.76 2094.8,1301.64 2096.79,1290.86 2098.77,1318.24 2100.76,1287.71 2102.74,1308.07 2104.73,1303.03 2106.71,1315.19 2108.7,1311.73 2110.68,1310.63 2112.67,1308.84 2114.65,1311.81 2116.64,1315.92 2118.62,1317.07 2120.6,1315.1 2122.59,1314.21 2124.57,1313.25 2126.56,1316.25 2128.54,1325.12 2130.53,1325.66 2132.51,1313.08 2134.5,1310 2136.48,1306.24 2138.47,1315.02 2140.45,1323.02 2142.44,1311.02 2144.42,1315.1 2146.41,1309.61 2148.39,1296.37 2150.38,1302 2152.36,1321.55 2154.34,1307.91 2156.33,1307.3 2158.31,1303.84 2160.3,1320.69 2162.28,1319.58 2164.27,1307.76 2166.25,1299.83 2168.24,1290.93 2170.22,1287 2172.21,1300.41 2174.19,1297.63 2176.18,1279.76 2178.16,1297.56 2180.15,1314.86 2182.13,1324.42 2184.12,1310.78 2186.1,1304.81 2188.08,1314.7 2190.07,1345.97 2192.05,1367.78 2194.04,1372.22 2196.02,1377.19 2198.01,1377.39 2199.99,1375.49 2201.98,1378.15 2203.96,1378.5 2205.95,1373.61 2207.93,1377.53 2209.92,1377.39 2211.9,1378.63 2213.89,1369.56 2215.87,1370.27 2217.86,1370.53 2219.84,1368.54 2221.82,1366.77 2223.81,1370.27 2225.79,1378.08 2227.78,1374.28 2229.76,1377.87 2231.75,1379.61 2233.73,1378.43 2235.72,1381.44 2237.7,1382.72 2239.69,1378.63 2241.67,1364.04 2243.66,1376.98 2245.64,1371.44 2247.63,1364.78 2249.61,1371.57 2251.6,1372.75 2253.58,1377.87 2255.56,1375.89 2257.55,1371.44 2259.53,1365.21 2261.52,1310.94 2263.5,1297 2265.49,1289.54 2267.47,1336.64 2269.46,1347.35 2271.44,1360.77 2273.43,1366.02 2275.41,1378.36 2277.4,1374.15 2279.38,1375.89 2281.37,1384.24 2283.35,1381.16 2285.34,1383.66 2287.32,1378.01 2289.3,1380.45 2291.29,1381.23 2293.27,1375.56 "/>
<polyline clip-path="url(#clip062)" style="stroke:#e26f46; stroke-linecap:round; stroke-linejoin:round; stroke-width:4; stroke-opacity:1; fill:none" points="310.553,86.1857 312.538,91.8741 314.522,96.5487 316.507,101.828 318.492,104.877 320.476,109.214 322.461,111.669 324.446,115.797 326.431,118.93 328.415,122.64 330.4,126.278 332.385,130.557 334.369,134.517 336.354,138.895 338.339,144.251 340.323,148.011 342.308,152.606 344.293,157.549 346.278,162.533 348.262,168.186 350.247,173.551 352.232,178.476 354.216,182.485 356.201,187.908 358.186,191.811 360.171,196.533 362.155,201.867 364.14,207.2 366.125,211.151 368.109,216.858 370.094,221.288 372.079,226.037 374.063,231.441 376.048,236.219 378.033,241.28 380.018,246.739 382.002,251.547 383.987,256.937 385.972,261.985 387.956,267.048 389.941,272.012 391.926,277.304 393.911,283.195 395.895,288.584 397.88,293.516 399.865,298.189 401.849,302.703 403.834,307.613 405.819,312.657 407.803,317.686 409.788,323.681 411.773,330.696 413.758,338.808 415.742,346.5 417.727,355.587 419.712,365.304 421.696,376.333 423.681,388.057 425.666,400.82 427.651,414.576 429.635,429.217 431.62,445.444 433.605,457.039 435.589,463.824 437.574,467.921 439.559,471.517 441.543,472.235 443.528,473.03 445.513,472.596 447.498,473.976 449.482,473.393 451.467,473.32 453.452,474.93 455.436,475.299 457.421,474.709 459.406,476.561 461.391,476.561 463.375,477.085 465.36,477.913 467.345,477.612 469.329,478.595 471.314,478.595 473.299,479.51 475.283,479.28 477.268,480.586 479.253,480.973 481.238,481.517 483.222,482.376 485.207,482.454 487.192,483.005 489.176,483.479 491.161,483.796 493.146,484.671 495.131,485.876 497.115,486.119 499.1,486.524 501.085,487.502 503.069,488.819 505.054,488.984 507.039,489.899 509.023,490.066 511.008,492.005 512.993,492.772 514.978,493.544 516.962,494.756 518.947,495.453 520.932,496.95 522.916,497.66 524.901,498.734 526.886,499.456 528.871,500.637 530.855,501.554 532.84,504.16 534.825,505.199 536.809,506.248 538.794,507.596 540.779,508.763 542.764,510.14 544.748,511.833 546.733,512.135 548.718,513.959 550.702,515.19 552.687,516.123 554.672,518.539 556.656,518.857 558.641,521.113 560.626,522.093 562.611,523.191 564.595,524.411 566.58,526.774 568.565,527.23 570.549,529.186 572.534,530.41 574.519,532.181 576.504,533.136 578.488,534.523 580.473,536.049 582.458,537.844 584.442,539.161 586.427,540.876 588.412,541.968 590.396,542.94 592.381,544.512 594.366,546.239 596.351,547.382 598.335,547.72 600.32,549.838 602.305,551.574 604.289,552.346 606.274,553.692 608.259,555.775 610.244,556.866 612.228,557.895 614.213,558.857 616.198,560.731 618.182,562.327 620.167,563.79 622.152,565.35 624.136,565.901 626.121,567.489 628.106,569.341 630.091,571.058 632.075,571.719 634.06,574.144 636.045,574.907 638.029,576.362 640.014,577.747 641.999,579.501 643.984,581.282 645.968,582.092 647.953,583.729 649.938,584.925 651.922,586.695 653.907,588.302 655.892,590.219 657.876,590.801 659.861,592.169 661.846,593.353 663.831,595.759 665.815,596.776 667.8,597.905 669.785,599.357 671.769,601.568 673.754,602.315 675.739,604.147 677.724,605.238 679.708,607.339 681.693,607.899 683.678,610.047 685.662,611.309 687.647,613.227 689.632,614.287 691.616,614.88 693.601,617.038 695.586,618.867 697.571,620.164 699.555,622.104 701.54,623.119 703.525,624.721 705.509,626.279 707.494,627.33 709.479,630.402 711.464,631.012 713.448,632.38 715.433,634.392 717.418,635.728 719.402,636.652 721.387,638.955 723.372,639.465 725.356,641.378 727.341,643.548 729.326,644.915 731.311,647.229 733.295,648.718 735.28,650.146 737.265,651.189 739.249,653.546 741.234,656.456 743.219,658.065 745.204,660.826 747.188,663.028 749.173,664.099 751.158,666.638 753.142,670.077 755.127,672.17 757.112,674.986 759.096,677.067 761.081,679.389 763.066,683.75 765.051,686.748 767.035,688.715 769.02,692.295 771.005,696.221 772.989,699.192 774.974,702.795 776.959,708.055 778.944,711.207 780.928,715.266 782.913,719.683 784.898,724.79 786.882,729.58 788.867,734.733 790.852,741.053 792.836,746.917 794.821,752.8 796.806,759.187 798.791,765.829 800.775,772.418 802.76,781.889 804.745,789.072 806.729,798.428 808.714,809.107 810.699,820.088 812.684,830.454 814.668,843.605 816.653,858.728 818.638,876.575 820.622,893.75 822.607,916.287 824.592,942.003 826.576,973.018 828.561,992.445 830.546,993.235 832.531,1000.78 834.515,1003.82 836.5,1007.34 838.485,1009.64 840.469,1009.14 842.454,1013.03 844.439,1017.26 846.424,1018.45 848.408,1023.91 850.393,1024.02 852.378,1026.79 854.362,1029.5 856.347,1033.38 858.332,1037.52 860.316,1039.45 862.301,1040.76 864.286,1043.75 866.271,1044.35 868.255,1044.08 870.24,1046.6 872.225,1052.32 874.209,1057.86 876.194,1055.02 878.179,1054.8 880.164,1054.14 882.148,1059.85 884.133,1070.63 886.118,1066.98 888.102,1061.71 890.087,1056.06 892.072,1070.12 894.056,1074.48 896.041,1075.79 898.026,1080.27 900.011,1084.26 901.995,1092.56 903.98,1093.37 905.965,1095.22 907.949,1097.41 909.934,1098.58 911.919,1100.94 913.904,1104.47 915.888,1104.8 917.873,1108.44 919.858,1109.02 921.842,1111.72 923.827,1114.24 925.812,1107.29 927.796,1116.63 929.781,1121.11 931.766,1128.05 933.751,1117.19 935.735,1116.88 937.72,1118.32 939.705,1130.46 941.689,1142.51 943.674,1140.83 945.659,1123.71 947.644,1130.04 949.628,1129.49 951.613,1125.96 953.598,1143.82 955.582,1141.74 957.567,1128.87 959.552,1130.18 961.536,1129.15 963.521,1137.62 965.506,1132.92 967.491,1133.13 969.475,1156.86 971.46,1165.2 973.445,1166.42 975.429,1165.95 977.414,1168.88 979.399,1170.81 981.384,1174.47 983.368,1174.37 985.353,1172.48 987.338,1173.97 989.322,1176.29 991.307,1173.87 993.292,1175.89 995.276,1177.94 997.261,1178.14 999.246,1177.94 1001.23,1179.6 1003.22,1180.13 1005.2,1180.02 1007.18,1176.4 1009.17,1180.55 1011.15,1171.69 1013.14,1141.21 1015.12,1168.6 1017.11,1181.18 1019.09,1184.19 1021.08,1183.54 1023.06,1185.62 1025.05,1186.5 1027.03,1187.51 1029.02,1187.17 1031,1186.62 1032.99,1188.97 1034.97,1186.39 1036.96,1186.84 1038.94,1186.95 1040.92,1135.5 1042.91,1168.31 1044.89,1121.82 1046.88,1148.66 1048.86,1150.29 1050.85,1160.38 1052.83,1184.52 1054.82,1186.73 1056.8,1184.74 1058.79,1187.96 1060.77,1189.54 1062.76,1185.07 1064.74,1185.18 1066.73,1183.65 1068.71,1186.39 1070.7,1185.73 1072.68,1187.4 1074.66,1186.95 1076.65,1187.06 1078.63,1187.96 1080.62,1188.52 1082.6,1189.54 1084.59,1189.88 1086.57,1190.34 1088.56,1189.54 1090.54,1190.92 1092.53,1190.46 1094.51,1190.11 1096.5,1187.96 1098.48,1189.65 1100.47,1187.96 1102.45,1185.62 1104.44,1141.44 1106.42,1157.29 1108.4,1119.32 1110.39,1125.83 1112.37,1140 1114.36,1169.94 1116.34,1190 1118.33,1188.18 1120.31,1188.07 1122.3,1188.97 1124.28,1188.75 1126.27,1189.2 1128.25,1188.29 1130.24,1187.4 1132.22,1189.2 1134.21,1188.41 1136.19,1188.75 1138.18,1186.39 1140.16,1187.4 1142.14,1184.96 1144.13,1190.11 1146.11,1187.51 1148.1,1185.51 1150.08,1185.4 1152.07,1187.84 1154.05,1184.19 1156.04,1125.89 1158.02,1172.98 1160.01,1188.86 1161.99,1186.95 1163.98,1188.07 1165.96,1189.31 1167.95,1188.18 1169.93,1188.29 1171.92,1187.06 1173.9,1183.54 1175.88,1188.18 1177.87,1191.03 1179.85,1189.2 1181.84,1188.86 1183.82,1188.52 1185.81,1161.72 1187.79,1173.77 1189.78,1187.28 1191.76,1187.96 1193.75,1187.84 1195.73,1188.52 1197.72,1189.43 1199.7,1187.51 1201.69,1188.41 1203.67,1188.52 1205.66,1186.95 1207.64,1185.84 1209.62,1187.28 1211.61,1188.52 1213.59,1153.36 1215.58,1132.07 1217.56,1150.53 1219.55,1143.9 1221.53,1150.29 1223.52,1137.25 1225.5,1137.17 1227.49,1125.69 1229.47,1165.3 1231.46,1179.08 1233.44,1182.36 1235.43,1180.76 1237.41,1182.46 1239.4,1181.93 1241.38,1181.72 1243.36,1178.97 1245.35,1178.66 1247.33,1183.22 1249.32,1183.22 1251.3,1183.43 1253.29,1183.54 1255.27,1185.18 1257.26,1183.65 1259.24,1185.51 1261.23,1187.62 1263.21,1185.62 1265.2,1187.4 1267.18,1185.95 1269.17,1186.17 1271.15,1185.29 1273.14,1114.91 1275.12,1135.5 1277.1,1156.95 1279.09,1151.85 1281.07,1136.3 1283.06,1143.36 1285.04,1139.55 1287.03,1180.65 1289.01,1183.33 1291,1183.98 1292.98,1185.18 1294.97,1186.95 1296.95,1188.07 1298.94,1186.39 1300.92,1186.17 1302.91,1186.17 1304.89,1186.39 1306.88,1185.95 1308.86,1187.73 1310.84,1186.5 1312.83,1187.4 1314.81,1188.18 1316.8,1187.17 1318.78,1184.3 1320.77,1184.85 1322.75,1188.29 1324.74,1185.4 1326.72,1187.96 1328.71,1184.96 1330.69,1187.17 1332.68,1185.62 1334.66,1186.17 1336.65,1186.28 1338.63,1185.73 1340.62,1161.72 1342.6,1133.56 1344.58,1143.36 1346.57,1126.9 1348.55,1137.84 1350.54,1143.59 1352.52,1142.2 1354.51,1150.78 1356.49,1156.95 1358.48,1182.04 1360.46,1181.29 1362.45,1181.72 1364.43,1186.73 1366.42,1187.4 1368.4,1187.73 1370.39,1183.87 1372.37,1188.97 1374.36,1187.73 1376.34,1188.97 1378.32,1186.73 1380.31,1188.29 1382.29,1187.51 1384.28,1187.4 1386.26,1189.77 1388.25,1186.73 1390.23,1187.4 1392.22,1189.2 1394.2,1189.2 1396.19,1185.62 1398.17,1186.17 1400.16,1186.84 1402.14,1184.74 1404.13,1185.95 1406.11,1185.95 1408.1,1184.52 1410.08,1187.73 1412.06,1187.4 1414.05,1186.95 1416.03,1186.73 1418.02,1187.4 1420,1186.84 1421.99,1187.73 1423.97,1185.4 1425.96,1186.06 1427.94,1135.64 1429.93,1133.48 1431.91,1133.7 1433.9,1137.84 1435.88,1174.87 1437.87,1187.51 1439.85,1188.07 1441.84,1185.95 1443.82,1186.39 1445.8,1188.07 1447.79,1186.39 1449.77,1185.29 1451.76,1185.07 1453.74,1185.29 1455.73,1184.41 1457.71,1181.61 1459.7,1183.22 1461.68,1185.18 1463.67,1185.62 1465.65,1186.95 1467.64,1186.73 1469.62,1184.52 1471.61,1186.95 1473.59,1187.06 1475.58,1187.06 1477.56,1184.74 1479.54,1181.93 1481.53,1183.11 1483.51,1186.73 1485.5,1186.06 1487.48,1183.87 1489.47,1185.62 1491.45,1184.3 1493.44,1183.54 1495.42,1183.33 1497.41,1183.22 1499.39,1185.07 1501.38,1183 1503.36,1186.73 1505.35,1185.62 1507.33,1147.93 1509.32,1172.28 1511.3,1183 1513.28,1185.51 1515.27,1186.5 1517.25,1182.68 1519.24,1184.52 1521.22,1184.63 1523.21,1185.51 1525.19,1185.29 1527.18,1185.29 1529.16,1184.74 1531.15,1187.17 1533.13,1184.63 1535.12,1185.73 1537.1,1184.96 1539.09,1181.72 1541.07,1185.73 1543.06,1186.28 1545.04,1182.46 1547.02,1186.28 1549.01,1187.4 1550.99,1188.29 1552.98,1182.68 1554.96,1185.62 1556.95,1184.41 1558.93,1184.74 1560.92,1181.61 1562.9,1182.36 1564.89,1186.39 1566.87,1184.96 1568.86,1183 1570.84,1184.09 1572.83,1185.29 1574.81,1185.84 1576.8,1183.43 1578.78,1184.74 1580.76,1186.5 1582.75,1180.23 1584.73,1157.47 1586.72,1184.52 1588.7,1184.41 1590.69,1186.5 1592.67,1184.74 1594.66,1185.73 1596.64,1184.09 1598.63,1184.74 1600.61,1186.39 1602.6,1183.65 1604.58,1185.4 1606.57,1183.33 1608.55,1183.87 1610.54,1186.95 1612.52,1184.09 1614.5,1186.39 1616.49,1185.4 1618.47,1184.19 1620.46,1184.74 1622.44,1184.96 1624.43,1147.93 1626.41,1142.05 1628.4,1136.51 1630.38,1145.31 1632.37,1153.02 1634.35,1169.27 1636.34,1185.62 1638.32,1187.4 1640.31,1189.88 1642.29,1189.09 1644.28,1186.95 1646.26,1187.62 1648.24,1183.33 1650.23,1186.17 1652.21,1185.84 1654.2,1185.84 1656.18,1189.88 1658.17,1189.43 1660.15,1187.84 1662.14,1190.11 1664.12,1186.5 1666.11,1186.28 1668.09,1187.51 1670.08,1185.95 1672.06,1187.17 1674.05,1188.07 1676.03,1185.84 1678.02,1183.22 1680,1184.63 1681.98,1183.65 1683.97,1146.18 1685.95,1122.27 1687.94,1146.57 1689.92,1146.57 1691.91,1135.28 1693.89,1149.39 1695.88,1184.74 1697.86,1181.72 1699.85,1184.74 1701.83,1185.62 1703.82,1190.34 1705.8,1189.54 1707.79,1190.11 1709.77,1187.4 1711.76,1190.34 1713.74,1187.84 1715.72,1189.77 1717.71,1189.2 1719.69,1189.2 1721.68,1189.09 1723.66,1190.69 1725.65,1190.11 1727.63,1189.2 1729.62,1191.26 1731.6,1190 1733.59,1186.5 1735.57,1190.34 1737.56,1193.77 1739.54,1191.26 1741.53,1189.2 1743.51,1191.26 1745.5,1192.42 1747.48,1190.69 1749.46,1189.2 1751.45,1192.07 1753.43,1192.66 1755.42,1193.89 1757.4,1192.31 1759.39,1193.77 1761.37,1194.07 1763.36,1195.68 1765.34,1193.77 1767.33,1192.95 1769.31,1191.49 1771.3,1193.07 1773.28,1192.19 1775.27,1183.98 1777.25,1138.65 1779.24,1151.77 1781.22,1144.99 1783.2,1144.76 1785.19,1143.43 1787.17,1149.47 1789.16,1138.5 1791.14,1139.77 1793.13,1140.45 1795.11,1151.36 1797.1,1131.44 1799.08,1144.99 1801.07,1180.34 1803.05,1183.87 1805.04,1187.84 1807.02,1190.46 1809.01,1191.61 1810.99,1189.65 1812.98,1187.73 1814.96,1190.57 1816.94,1188.63 1818.93,1188.86 1820.91,1189.88 1822.9,1188.86 1824.88,1189.43 1826.87,1191.49 1828.85,1191.38 1830.84,1190.34 1832.82,1189.65 1834.81,1190 1836.79,1191.84 1838.78,1188.63 1840.76,1189.31 1842.75,1191.15 1844.73,1188.18 1846.72,1191.03 1848.7,1189.65 1850.68,1194.19 1852.67,1191.61 1854.65,1188.07 1856.64,1189.43 1858.62,1189.2 1860.61,1189.43 1862.59,1192.54 1864.58,1190.92 1866.56,1190.69 1868.55,1190.11 1870.53,1186.73 1872.52,1190.8 1874.5,1186.73 1876.49,1187.4 1878.47,1189.2 1880.46,1191.15 1882.44,1190.23 1884.42,1190.34 1886.41,1186.62 1888.39,1154.12 1890.38,1187.28 1892.36,1191.03 1894.35,1189.09 1896.33,1187.4 1898.32,1188.97 1900.3,1186.5 1902.29,1152.86 1904.27,1133.56 1906.26,1124.76 1908.24,1148.09 1910.23,1164.92 1912.21,1180.44 1914.2,1185.73 1916.18,1187.28 1918.16,1184.63 1920.15,1184.09 1922.13,1185.07 1924.12,1186.84 1926.1,1186.39 1928.09,1186.06 1930.07,1186.84 1932.06,1186.39 1934.04,1190.11 1936.03,1189.2 1938.01,1187.84 1940,1190.11 1941.98,1187.28 1943.97,1187.51 1945.95,1192.07 1947.94,1192.19 1949.92,1192.66 1951.9,1192.07 1953.89,1190.69 1955.87,1189.31 1957.86,1191.03 1959.84,1193.6 1961.83,1190 1963.81,1193.6 1965.8,1193.65 1967.78,1192.66 1969.77,1193.89 1971.75,1192.83 1973.74,1191.84 1975.72,1190.8 1977.71,1189.2 1979.69,1192.31 1981.68,1193.48 1983.66,1191.26 1985.64,1191.03 1987.63,1166.51 1989.61,1163.45 1991.6,1187.96 1993.58,1192.95 1995.57,1190.69 1997.55,1190.11 1999.54,1191.84 2001.52,1190.23 2003.51,1191.38 2005.49,1192.31 2007.48,1189.88 2009.46,1193.89 2011.45,1193.24 2013.43,1191.38 2015.42,1193.6 2017.4,1192.95 2019.38,1192.83 2021.37,1191.03 2023.35,1193.89 2025.34,1193.48 2027.32,1179.29 2029.31,1139.62 2031.29,1128.26 2033.28,1159.4 2035.26,1180.55 2037.25,1181.29 2039.23,1183.43 2041.22,1182.36 2043.2,1183.87 2045.19,1185.07 2047.17,1189.2 2049.16,1190.69 2051.14,1186.95 2053.12,1190.57 2055.11,1187.96 2057.09,1187.51 2059.08,1188.29 2061.06,1186.62 2063.05,1188.29 2065.03,1187.51 2067.02,1187.84 2069,1187.28 2070.99,1186.84 2072.97,1186.28 2074.96,1158.78 2076.94,1135.42 2078.93,1135.42 2080.91,1138.65 2082.9,1152.27 2084.88,1154.37 2086.86,1144.68 2088.85,1144.91 2090.83,1183.65 2092.82,1186.28 2094.8,1186.06 2096.79,1187.73 2098.77,1187.62 2100.76,1191.03 2102.74,1190.69 2104.73,1191.84 2106.71,1191.15 2108.7,1191.26 2110.68,1192.19 2112.67,1189.31 2114.65,1189.88 2116.64,1187.73 2118.62,1185.18 2120.6,1189.65 2122.59,1189.31 2124.57,1188.18 2126.56,1190 2128.54,1191.03 2130.53,1190.46 2132.51,1191.03 2134.5,1192.31 2136.48,1193.12 2138.47,1191.84 2140.45,1191.96 2142.44,1190.92 2144.42,1189.88 2146.41,1190.57 2148.39,1191.49 2150.38,1193.12 2152.36,1191.15 2154.34,1185.95 2156.33,1192.31 2158.31,1189.54 2160.3,1191.96 2162.28,1189.65 2164.27,1192.42 2166.25,1157.82 2168.24,1134.56 2170.22,1138.21 2172.21,1175.28 2174.19,1161.99 2176.18,1136.73 2178.16,1145.86 2180.15,1146.33 2182.13,1144.29 2184.12,1138.8 2186.1,1144.29 2188.08,1138.5 2190.07,1135.57 2192.05,1140.38 2194.04,1137.03 2196.02,1150.7 2198.01,1161 2199.99,1174.27 2201.98,1180.23 2203.96,1185.62 2205.95,1187.28 2207.93,1183.43 2209.92,1182.46 2211.9,1184.41 2213.89,1183.98 2215.87,1184.09 2217.86,1186.17 2219.84,1186.62 2221.82,1179.81 2223.81,1185.62 2225.79,1184.96 2227.78,1183.33 2229.76,1183 2231.75,1183 2233.73,1187.62 2235.72,1188.75 2237.7,1188.18 2239.69,1188.41 2241.67,1185.95 2243.66,1189.09 2245.64,1190.8 2247.63,1189.88 2249.61,1186.95 2251.6,1186.17 2253.58,1190 2255.56,1186.73 2257.55,1187.17 2259.53,1187.84 2261.52,1191.84 2263.5,1190.8 2265.49,1189.43 2267.47,1164.55 2269.46,1160.29 2271.44,1141.74 2273.43,1139.55 2275.41,1139.62 2277.4,1136.3 2279.38,1132.84 2281.37,1139.77 2283.35,1141.21 2285.34,1153.28 2287.32,1146.26 2289.3,1148.42 2291.29,1137.03 2293.27,1131.51 "/>
<path clip-path="url(#clip060)" d="M1784.69 248.629 L2282.7 248.629 L2282.7 93.1086 L1784.69 93.1086  Z" fill="#ffffff" fill-rule="evenodd" fill-opacity="1"/>
<polyline clip-path="url(#clip060)" style="stroke:#000000; stroke-linecap:round; stroke-linejoin:round; stroke-width:4; stroke-opacity:1; fill:none" points="1784.69,248.629 2282.7,248.629 2282.7,93.1086 1784.69,93.1086 1784.69,248.629 "/>
<polyline clip-path="url(#clip060)" style="stroke:#3da44d; stroke-linecap:round; stroke-linejoin:round; stroke-width:4; stroke-opacity:1; fill:none" points="1808.04,144.949 1948.15,144.949 "/>
<path clip-path="url(#clip060)" d="M1997.06 157.298 L1997.06 148.016 L1989.42 148.016 L1989.42 144.173 L2001.69 144.173 L2001.69 159.011 Q1998.98 160.932 1995.71 161.928 Q1992.45 162.9 1988.75 162.9 Q1980.65 162.9 1976.06 158.178 Q1971.5 153.432 1971.5 144.983 Q1971.5 136.511 1976.06 131.789 Q1980.65 127.044 1988.75 127.044 Q1992.13 127.044 1995.16 127.877 Q1998.21 128.71 2000.78 130.331 L2000.78 135.307 Q1998.19 133.108 1995.28 131.997 Q1992.36 130.886 1989.14 130.886 Q1982.8 130.886 1979.6 134.428 Q1976.43 137.969 1976.43 144.983 Q1976.43 151.974 1979.6 155.516 Q1982.8 159.057 1989.14 159.057 Q1991.62 159.057 1993.56 158.641 Q1995.51 158.201 1997.06 157.298 Z" fill="#000000" fill-rule="nonzero" fill-opacity="1" /><path clip-path="url(#clip060)" d="M2007.89 147.344 L2020.37 147.344 L2020.37 151.141 L2007.89 151.141 L2007.89 147.344 Z" fill="#000000" fill-rule="nonzero" fill-opacity="1" /><path clip-path="url(#clip060)" d="M2048.05 128.803 L2048.05 133.363 Q2045.39 132.09 2043.03 131.465 Q2040.67 130.84 2038.47 130.84 Q2034.65 130.84 2032.57 132.321 Q2030.51 133.803 2030.51 136.534 Q2030.51 138.826 2031.87 140.007 Q2033.26 141.164 2037.1 141.882 L2039.93 142.46 Q2045.16 143.456 2047.64 145.979 Q2050.14 148.479 2050.14 152.692 Q2050.14 157.715 2046.76 160.307 Q2043.4 162.9 2036.9 162.9 Q2034.44 162.9 2031.66 162.344 Q2028.91 161.789 2025.95 160.701 L2025.95 155.886 Q2028.79 157.483 2031.52 158.293 Q2034.26 159.104 2036.9 159.104 Q2040.9 159.104 2043.08 157.53 Q2045.25 155.956 2045.25 153.039 Q2045.25 150.493 2043.68 149.057 Q2042.13 147.622 2038.56 146.905 L2035.71 146.349 Q2030.48 145.307 2028.15 143.085 Q2025.81 140.863 2025.81 136.905 Q2025.81 132.321 2029.02 129.682 Q2032.27 127.044 2037.94 127.044 Q2040.37 127.044 2042.89 127.483 Q2045.41 127.923 2048.05 128.803 Z" fill="#000000" fill-rule="nonzero" fill-opacity="1" /><path clip-path="url(#clip060)" d="M2068.03 164.636 Q2066.22 169.266 2064.51 170.678 Q2062.8 172.09 2059.93 172.09 L2056.52 172.09 L2056.52 168.525 L2059.02 168.525 Q2060.78 168.525 2061.76 167.692 Q2062.73 166.858 2063.91 163.756 L2064.67 161.812 L2054.19 136.303 L2058.7 136.303 L2066.8 156.581 L2074.9 136.303 L2079.42 136.303 L2068.03 164.636 Z" fill="#000000" fill-rule="nonzero" fill-opacity="1" /><path clip-path="url(#clip060)" d="M2105.48 141.28 Q2107.08 138.409 2109.3 137.044 Q2111.52 135.678 2114.53 135.678 Q2118.58 135.678 2120.78 138.525 Q2122.98 141.349 2122.98 146.581 L2122.98 162.229 L2118.7 162.229 L2118.7 146.719 Q2118.7 142.993 2117.38 141.187 Q2116.06 139.382 2113.35 139.382 Q2110.04 139.382 2108.12 141.581 Q2106.2 143.78 2106.2 147.576 L2106.2 162.229 L2101.92 162.229 L2101.92 146.719 Q2101.92 142.969 2100.6 141.187 Q2099.28 139.382 2096.52 139.382 Q2093.26 139.382 2091.34 141.604 Q2089.42 143.803 2089.42 147.576 L2089.42 162.229 L2085.14 162.229 L2085.14 136.303 L2089.42 136.303 L2089.42 140.331 Q2090.88 137.946 2092.91 136.812 Q2094.95 135.678 2097.75 135.678 Q2100.58 135.678 2102.54 137.113 Q2104.53 138.548 2105.48 141.28 Z" fill="#000000" fill-rule="nonzero" fill-opacity="1" /><path clip-path="url(#clip060)" d="M2135.6 158.34 L2135.6 172.09 L2131.32 172.09 L2131.32 136.303 L2135.6 136.303 L2135.6 140.238 Q2136.94 137.923 2138.98 136.812 Q2141.04 135.678 2143.89 135.678 Q2148.61 135.678 2151.55 139.428 Q2154.51 143.178 2154.51 149.289 Q2154.51 155.4 2151.55 159.15 Q2148.61 162.9 2143.89 162.9 Q2141.04 162.9 2138.98 161.789 Q2136.94 160.655 2135.6 158.34 M2150.09 149.289 Q2150.09 144.59 2148.14 141.928 Q2146.22 139.243 2142.84 139.243 Q2139.46 139.243 2137.52 141.928 Q2135.6 144.59 2135.6 149.289 Q2135.6 153.988 2137.52 156.673 Q2139.46 159.335 2142.84 159.335 Q2146.22 159.335 2148.14 156.673 Q2150.09 153.988 2150.09 149.289 Z" fill="#000000" fill-rule="nonzero" fill-opacity="1" /><path clip-path="url(#clip060)" d="M2161.76 127.669 L2168.05 127.669 L2183.38 156.581 L2183.38 127.669 L2187.91 127.669 L2187.91 162.229 L2181.62 162.229 L2166.29 133.317 L2166.29 162.229 L2161.76 162.229 L2161.76 127.669 Z" fill="#000000" fill-rule="nonzero" fill-opacity="1" /><path clip-path="url(#clip060)" d="M2219.21 148.201 L2219.21 150.284 L2199.63 150.284 Q2199.9 154.682 2202.26 156.997 Q2204.65 159.289 2208.89 159.289 Q2211.34 159.289 2213.63 158.687 Q2215.95 158.085 2218.21 156.881 L2218.21 160.909 Q2215.92 161.881 2213.51 162.391 Q2211.11 162.9 2208.63 162.9 Q2202.43 162.9 2198.79 159.289 Q2195.18 155.678 2195.18 149.52 Q2195.18 143.155 2198.61 139.428 Q2202.06 135.678 2207.89 135.678 Q2213.12 135.678 2216.15 139.057 Q2219.21 142.414 2219.21 148.201 M2214.95 146.951 Q2214.9 143.456 2212.98 141.372 Q2211.08 139.289 2207.94 139.289 Q2204.37 139.289 2202.22 141.303 Q2200.09 143.317 2199.76 146.974 L2214.95 146.951 Z" fill="#000000" fill-rule="nonzero" fill-opacity="1" /><path clip-path="url(#clip060)" d="M2230.41 128.942 L2230.41 136.303 L2239.19 136.303 L2239.19 139.613 L2230.41 139.613 L2230.41 153.687 Q2230.41 156.858 2231.27 157.761 Q2232.15 158.664 2234.81 158.664 L2239.19 158.664 L2239.19 162.229 L2234.81 162.229 Q2229.88 162.229 2228.01 160.4 Q2226.13 158.548 2226.13 153.687 L2226.13 139.613 L2223.01 139.613 L2223.01 136.303 L2226.13 136.303 L2226.13 128.942 L2230.41 128.942 Z" fill="#000000" fill-rule="nonzero" fill-opacity="1" /><polyline clip-path="url(#clip060)" style="stroke:#e26f46; stroke-linecap:round; stroke-linejoin:round; stroke-width:4; stroke-opacity:1; fill:none" points="1808.04,196.789 1948.15,196.789 "/>
<path clip-path="url(#clip060)" d="M1971.5 179.509 L1976.18 179.509 L1976.18 210.133 L1993.01 210.133 L1993.01 214.069 L1971.5 214.069 L1971.5 179.509 Z" fill="#000000" fill-rule="nonzero" fill-opacity="1" /><path clip-path="url(#clip060)" d="M2010.55 184.115 L2004.21 201.314 L2016.92 201.314 L2010.55 184.115 M2007.91 179.509 L2013.21 179.509 L2026.39 214.069 L2021.52 214.069 L2018.38 205.203 L2002.8 205.203 L1999.65 214.069 L1994.72 214.069 L2007.91 179.509 Z" fill="#000000" fill-rule="nonzero" fill-opacity="1" /><path clip-path="url(#clip060)" d="M2028.05 199.184 L2040.53 199.184 L2040.53 202.981 L2028.05 202.981 L2028.05 199.184 Z" fill="#000000" fill-rule="nonzero" fill-opacity="1" /><path clip-path="url(#clip060)" d="M2068.21 180.643 L2068.21 185.203 Q2065.55 183.93 2063.19 183.305 Q2060.83 182.68 2058.63 182.68 Q2054.81 182.68 2052.73 184.161 Q2050.67 185.643 2050.67 188.374 Q2050.67 190.666 2052.03 191.847 Q2053.42 193.004 2057.27 193.722 L2060.09 194.3 Q2065.32 195.296 2067.8 197.819 Q2070.3 200.319 2070.3 204.532 Q2070.3 209.555 2066.92 212.147 Q2063.56 214.74 2057.06 214.74 Q2054.6 214.74 2051.83 214.184 Q2049.07 213.629 2046.11 212.541 L2046.11 207.726 Q2048.96 209.323 2051.69 210.133 Q2054.42 210.944 2057.06 210.944 Q2061.06 210.944 2063.24 209.37 Q2065.41 207.796 2065.41 204.879 Q2065.41 202.333 2063.84 200.897 Q2062.29 199.462 2058.72 198.745 L2055.88 198.189 Q2050.65 197.147 2048.31 194.925 Q2045.97 192.703 2045.97 188.745 Q2045.97 184.161 2049.19 181.522 Q2052.43 178.884 2058.1 178.884 Q2060.53 178.884 2063.05 179.323 Q2065.58 179.763 2068.21 180.643 Z" fill="#000000" fill-rule="nonzero" fill-opacity="1" /><path clip-path="url(#clip060)" d="M2088.19 216.476 Q2086.39 221.106 2084.67 222.518 Q2082.96 223.93 2080.09 223.93 L2076.69 223.93 L2076.69 220.365 L2079.19 220.365 Q2080.95 220.365 2081.92 219.532 Q2082.89 218.698 2084.07 215.596 L2084.83 213.652 L2074.35 188.143 L2078.86 188.143 L2086.96 208.421 L2095.07 188.143 L2099.58 188.143 L2088.19 216.476 Z" fill="#000000" fill-rule="nonzero" fill-opacity="1" /><path clip-path="url(#clip060)" d="M2125.64 193.12 Q2127.24 190.249 2129.46 188.884 Q2131.69 187.518 2134.7 187.518 Q2138.75 187.518 2140.95 190.365 Q2143.14 193.189 2143.14 198.421 L2143.14 214.069 L2138.86 214.069 L2138.86 198.559 Q2138.86 194.833 2137.54 193.027 Q2136.22 191.222 2133.52 191.222 Q2130.2 191.222 2128.28 193.421 Q2126.36 195.62 2126.36 199.416 L2126.36 214.069 L2122.08 214.069 L2122.08 198.559 Q2122.08 194.809 2120.76 193.027 Q2119.44 191.222 2116.69 191.222 Q2113.42 191.222 2111.5 193.444 Q2109.58 195.643 2109.58 199.416 L2109.58 214.069 L2105.3 214.069 L2105.3 188.143 L2109.58 188.143 L2109.58 192.171 Q2111.04 189.786 2113.08 188.652 Q2115.11 187.518 2117.91 187.518 Q2120.74 187.518 2122.7 188.953 Q2124.7 190.388 2125.64 193.12 Z" fill="#000000" fill-rule="nonzero" fill-opacity="1" /><path clip-path="url(#clip060)" d="M2155.76 210.18 L2155.76 223.93 L2151.48 223.93 L2151.48 188.143 L2155.76 188.143 L2155.76 192.078 Q2157.1 189.763 2159.14 188.652 Q2161.2 187.518 2164.05 187.518 Q2168.77 187.518 2171.71 191.268 Q2174.67 195.018 2174.67 201.129 Q2174.67 207.24 2171.71 210.99 Q2168.77 214.74 2164.05 214.74 Q2161.2 214.74 2159.14 213.629 Q2157.1 212.495 2155.76 210.18 M2170.25 201.129 Q2170.25 196.43 2168.31 193.768 Q2166.39 191.083 2163.01 191.083 Q2159.63 191.083 2157.68 193.768 Q2155.76 196.43 2155.76 201.129 Q2155.76 205.828 2157.68 208.513 Q2159.63 211.175 2163.01 211.175 Q2166.39 211.175 2168.31 208.513 Q2170.25 205.828 2170.25 201.129 Z" fill="#000000" fill-rule="nonzero" fill-opacity="1" /><path clip-path="url(#clip060)" d="M2181.92 179.509 L2188.21 179.509 L2203.54 208.421 L2203.54 179.509 L2208.07 179.509 L2208.07 214.069 L2201.78 214.069 L2186.45 185.157 L2186.45 214.069 L2181.92 214.069 L2181.92 179.509 Z" fill="#000000" fill-rule="nonzero" fill-opacity="1" /><path clip-path="url(#clip060)" d="M2239.37 200.041 L2239.37 202.124 L2219.79 202.124 Q2220.07 206.522 2222.43 208.837 Q2224.81 211.129 2229.05 211.129 Q2231.5 211.129 2233.79 210.527 Q2236.11 209.925 2238.38 208.721 L2238.38 212.749 Q2236.08 213.721 2233.68 214.231 Q2231.27 214.74 2228.79 214.74 Q2222.59 214.74 2218.95 211.129 Q2215.34 207.518 2215.34 201.36 Q2215.34 194.995 2218.77 191.268 Q2222.22 187.518 2228.05 187.518 Q2233.28 187.518 2236.32 190.897 Q2239.37 194.254 2239.37 200.041 M2235.11 198.791 Q2235.07 195.296 2233.14 193.212 Q2231.25 191.129 2228.1 191.129 Q2224.53 191.129 2222.38 193.143 Q2220.25 195.157 2219.93 198.814 L2235.11 198.791 Z" fill="#000000" fill-rule="nonzero" fill-opacity="1" /><path clip-path="url(#clip060)" d="M2250.57 180.782 L2250.57 188.143 L2259.35 188.143 L2259.35 191.453 L2250.57 191.453 L2250.57 205.527 Q2250.57 208.698 2251.43 209.601 Q2252.31 210.504 2254.97 210.504 L2259.35 210.504 L2259.35 214.069 L2254.97 214.069 Q2250.04 214.069 2248.17 212.24 Q2246.29 210.388 2246.29 205.527 L2246.29 191.453 L2243.17 191.453 L2243.17 188.143 L2246.29 188.143 L2246.29 180.782 L2250.57 180.782 Z" fill="#000000" fill-rule="nonzero" fill-opacity="1" /></svg>
