<?xml version="1.0" encoding="utf-8"?>
<svg xmlns="http://www.w3.org/2000/svg" xmlns:xlink="http://www.w3.org/1999/xlink" width="600" height="400" viewBox="0 0 2400 1600">
<defs>
  <clipPath id="clip010">
    <rect x="0" y="0" width="2400" height="1600"/>
  </clipPath>
</defs>
<path clip-path="url(#clip010)" d="M0 1600 L2400 1600 L2400 0 L0 0  Z" fill="#ffffff" fill-rule="evenodd" fill-opacity="1"/>
<defs>
  <clipPath id="clip011">
    <rect x="480" y="0" width="1681" height="1600"/>
  </clipPath>
</defs>
<path clip-path="url(#clip010)" d="M193.936 1486.45 L2352.76 1486.45 L2352.76 47.2441 L193.936 47.2441  Z" fill="#ffffff" fill-rule="evenodd" fill-opacity="1"/>
<defs>
  <clipPath id="clip012">
    <rect x="193" y="47" width="2160" height="1440"/>
  </clipPath>
</defs>
<polyline clip-path="url(#clip012)" style="stroke:#000000; stroke-linecap:round; stroke-linejoin:round; stroke-width:2; stroke-opacity:0.1; fill:none" points="307.959,1486.45 307.959,47.2441 "/>
<polyline clip-path="url(#clip012)" style="stroke:#000000; stroke-linecap:round; stroke-linejoin:round; stroke-width:2; stroke-opacity:0.1; fill:none" points="791.834,1486.45 791.834,47.2441 "/>
<polyline clip-path="url(#clip012)" style="stroke:#000000; stroke-linecap:round; stroke-linejoin:round; stroke-width:2; stroke-opacity:0.1; fill:none" points="1275.71,1486.45 1275.71,47.2441 "/>
<polyline clip-path="url(#clip012)" style="stroke:#000000; stroke-linecap:round; stroke-linejoin:round; stroke-width:2; stroke-opacity:0.1; fill:none" points="1759.58,1486.45 1759.58,47.2441 "/>
<polyline clip-path="url(#clip012)" style="stroke:#000000; stroke-linecap:round; stroke-linejoin:round; stroke-width:2; stroke-opacity:0.1; fill:none" points="2243.46,1486.45 2243.46,47.2441 "/>
<polyline clip-path="url(#clip010)" style="stroke:#000000; stroke-linecap:round; stroke-linejoin:round; stroke-width:4; stroke-opacity:1; fill:none" points="193.936,1486.45 2352.76,1486.45 "/>
<polyline clip-path="url(#clip010)" style="stroke:#000000; stroke-linecap:round; stroke-linejoin:round; stroke-width:4; stroke-opacity:1; fill:none" points="307.959,1486.45 307.959,1467.55 "/>
<polyline clip-path="url(#clip010)" style="stroke:#000000; stroke-linecap:round; stroke-linejoin:round; stroke-width:4; stroke-opacity:1; fill:none" points="791.834,1486.45 791.834,1467.55 "/>
<polyline clip-path="url(#clip010)" style="stroke:#000000; stroke-linecap:round; stroke-linejoin:round; stroke-width:4; stroke-opacity:1; fill:none" points="1275.71,1486.45 1275.71,1467.55 "/>
<polyline clip-path="url(#clip010)" style="stroke:#000000; stroke-linecap:round; stroke-linejoin:round; stroke-width:4; stroke-opacity:1; fill:none" points="1759.58,1486.45 1759.58,1467.55 "/>
<polyline clip-path="url(#clip010)" style="stroke:#000000; stroke-linecap:round; stroke-linejoin:round; stroke-width:4; stroke-opacity:1; fill:none" points="2243.46,1486.45 2243.46,1467.55 "/>
<path clip-path="url(#clip010)" d="M254.487 1532.02 L284.162 1532.02 L284.162 1535.95 L254.487 1535.95 L254.487 1532.02 Z" fill="#000000" fill-rule="nonzero" fill-opacity="1" /><path clip-path="url(#clip010)" d="M295.065 1544.91 L302.704 1544.91 L302.704 1518.55 L294.394 1520.21 L294.394 1515.95 L302.658 1514.29 L307.334 1514.29 L307.334 1544.91 L314.972 1544.91 L314.972 1548.85 L295.065 1548.85 L295.065 1544.91 Z" fill="#000000" fill-rule="nonzero" fill-opacity="1" /><path clip-path="url(#clip010)" d="M324.417 1542.97 L329.301 1542.97 L329.301 1548.85 L324.417 1548.85 L324.417 1542.97 Z" fill="#000000" fill-rule="nonzero" fill-opacity="1" /><path clip-path="url(#clip010)" d="M349.486 1517.37 Q345.875 1517.37 344.046 1520.93 Q342.241 1524.47 342.241 1531.6 Q342.241 1538.71 344.046 1542.27 Q345.875 1545.82 349.486 1545.82 Q353.12 1545.82 354.926 1542.27 Q356.755 1538.71 356.755 1531.6 Q356.755 1524.47 354.926 1520.93 Q353.12 1517.37 349.486 1517.37 M349.486 1513.66 Q355.296 1513.66 358.352 1518.27 Q361.43 1522.85 361.43 1531.6 Q361.43 1540.33 358.352 1544.94 Q355.296 1549.52 349.486 1549.52 Q343.676 1549.52 340.597 1544.94 Q337.542 1540.33 337.542 1531.6 Q337.542 1522.85 340.597 1518.27 Q343.676 1513.66 349.486 1513.66 Z" fill="#000000" fill-rule="nonzero" fill-opacity="1" /><path clip-path="url(#clip010)" d="M738.859 1532.02 L768.535 1532.02 L768.535 1535.95 L738.859 1535.95 L738.859 1532.02 Z" fill="#000000" fill-rule="nonzero" fill-opacity="1" /><path clip-path="url(#clip010)" d="M788.628 1517.37 Q785.016 1517.37 783.188 1520.93 Q781.382 1524.47 781.382 1531.6 Q781.382 1538.71 783.188 1542.27 Q785.016 1545.82 788.628 1545.82 Q792.262 1545.82 794.067 1542.27 Q795.896 1538.71 795.896 1531.6 Q795.896 1524.47 794.067 1520.93 Q792.262 1517.37 788.628 1517.37 M788.628 1513.66 Q794.438 1513.66 797.493 1518.27 Q800.572 1522.85 800.572 1531.6 Q800.572 1540.33 797.493 1544.94 Q794.438 1549.52 788.628 1549.52 Q782.817 1549.52 779.739 1544.94 Q776.683 1540.33 776.683 1531.6 Q776.683 1522.85 779.739 1518.27 Q782.817 1513.66 788.628 1513.66 Z" fill="#000000" fill-rule="nonzero" fill-opacity="1" /><path clip-path="url(#clip010)" d="M808.789 1542.97 L813.674 1542.97 L813.674 1548.85 L808.789 1548.85 L808.789 1542.97 Z" fill="#000000" fill-rule="nonzero" fill-opacity="1" /><path clip-path="url(#clip010)" d="M823.905 1514.29 L842.262 1514.29 L842.262 1518.22 L828.188 1518.22 L828.188 1526.7 Q829.206 1526.35 830.225 1526.19 Q831.243 1526 832.262 1526 Q838.049 1526 841.428 1529.17 Q844.808 1532.34 844.808 1537.76 Q844.808 1543.34 841.336 1546.44 Q837.863 1549.52 831.544 1549.52 Q829.368 1549.52 827.1 1549.15 Q824.854 1548.78 822.447 1548.04 L822.447 1543.34 Q824.53 1544.47 826.752 1545.03 Q828.975 1545.58 831.451 1545.58 Q835.456 1545.58 837.794 1543.48 Q840.132 1541.37 840.132 1537.76 Q840.132 1534.15 837.794 1532.04 Q835.456 1529.94 831.451 1529.94 Q829.576 1529.94 827.701 1530.35 Q825.85 1530.77 823.905 1531.65 L823.905 1514.29 Z" fill="#000000" fill-rule="nonzero" fill-opacity="1" /><path clip-path="url(#clip010)" d="M1253.09 1517.37 Q1249.48 1517.37 1247.65 1520.93 Q1245.85 1524.47 1245.85 1531.6 Q1245.85 1538.71 1247.65 1542.27 Q1249.48 1545.82 1253.09 1545.82 Q1256.73 1545.82 1258.53 1542.27 Q1260.36 1538.71 1260.36 1531.6 Q1260.36 1524.47 1258.53 1520.93 Q1256.73 1517.37 1253.09 1517.37 M1253.09 1513.66 Q1258.9 1513.66 1261.96 1518.27 Q1265.04 1522.85 1265.04 1531.6 Q1265.04 1540.33 1261.96 1544.94 Q1258.9 1549.52 1253.09 1549.52 Q1247.28 1549.52 1244.2 1544.94 Q1241.15 1540.33 1241.15 1531.6 Q1241.15 1522.85 1244.2 1518.27 Q1247.28 1513.66 1253.09 1513.66 Z" fill="#000000" fill-rule="nonzero" fill-opacity="1" /><path clip-path="url(#clip010)" d="M1273.25 1542.97 L1278.14 1542.97 L1278.14 1548.85 L1273.25 1548.85 L1273.25 1542.97 Z" fill="#000000" fill-rule="nonzero" fill-opacity="1" /><path clip-path="url(#clip010)" d="M1298.32 1517.37 Q1294.71 1517.37 1292.88 1520.93 Q1291.08 1524.47 1291.08 1531.6 Q1291.08 1538.71 1292.88 1542.27 Q1294.71 1545.82 1298.32 1545.82 Q1301.96 1545.82 1303.76 1542.27 Q1305.59 1538.71 1305.59 1531.6 Q1305.59 1524.47 1303.76 1520.93 Q1301.96 1517.37 1298.32 1517.37 M1298.32 1513.66 Q1304.13 1513.66 1307.19 1518.27 Q1310.27 1522.85 1310.27 1531.6 Q1310.27 1540.33 1307.19 1544.94 Q1304.13 1549.52 1298.32 1549.52 Q1292.51 1549.52 1289.44 1544.94 Q1286.38 1540.33 1286.38 1531.6 Q1286.38 1522.85 1289.44 1518.27 Q1292.51 1513.66 1298.32 1513.66 Z" fill="#000000" fill-rule="nonzero" fill-opacity="1" /><path clip-path="url(#clip010)" d="M1737.47 1517.37 Q1733.85 1517.37 1732.03 1520.93 Q1730.22 1524.47 1730.22 1531.6 Q1730.22 1538.71 1732.03 1542.27 Q1733.85 1545.82 1737.47 1545.82 Q1741.1 1545.82 1742.91 1542.27 Q1744.73 1538.71 1744.73 1531.6 Q1744.73 1524.47 1742.91 1520.93 Q1741.1 1517.37 1737.47 1517.37 M1737.47 1513.66 Q1743.28 1513.66 1746.33 1518.27 Q1749.41 1522.85 1749.41 1531.6 Q1749.41 1540.33 1746.33 1544.94 Q1743.28 1549.52 1737.47 1549.52 Q1731.66 1549.52 1728.58 1544.94 Q1725.52 1540.33 1725.52 1531.6 Q1725.52 1522.85 1728.58 1518.27 Q1731.66 1513.66 1737.47 1513.66 Z" fill="#000000" fill-rule="nonzero" fill-opacity="1" /><path clip-path="url(#clip010)" d="M1757.63 1542.97 L1762.51 1542.97 L1762.51 1548.85 L1757.63 1548.85 L1757.63 1542.97 Z" fill="#000000" fill-rule="nonzero" fill-opacity="1" /><path clip-path="url(#clip010)" d="M1772.74 1514.29 L1791.1 1514.29 L1791.1 1518.22 L1777.03 1518.22 L1777.03 1526.7 Q1778.04 1526.35 1779.06 1526.19 Q1780.08 1526 1781.1 1526 Q1786.89 1526 1790.27 1529.17 Q1793.65 1532.34 1793.65 1537.76 Q1793.65 1543.34 1790.17 1546.44 Q1786.7 1549.52 1780.38 1549.52 Q1778.21 1549.52 1775.94 1549.15 Q1773.69 1548.78 1771.29 1548.04 L1771.29 1543.34 Q1773.37 1544.47 1775.59 1545.03 Q1777.81 1545.58 1780.29 1545.58 Q1784.29 1545.58 1786.63 1543.48 Q1788.97 1541.37 1788.97 1537.76 Q1788.97 1534.15 1786.63 1532.04 Q1784.29 1529.94 1780.29 1529.94 Q1778.41 1529.94 1776.54 1530.35 Q1774.69 1530.77 1772.74 1531.65 L1772.74 1514.29 Z" fill="#000000" fill-rule="nonzero" fill-opacity="1" /><path clip-path="url(#clip010)" d="M2210.61 1544.91 L2218.25 1544.91 L2218.25 1518.55 L2209.94 1520.21 L2209.94 1515.95 L2218.2 1514.29 L2222.88 1514.29 L2222.88 1544.91 L2230.52 1544.91 L2230.52 1548.85 L2210.61 1548.85 L2210.61 1544.91 Z" fill="#000000" fill-rule="nonzero" fill-opacity="1" /><path clip-path="url(#clip010)" d="M2239.96 1542.97 L2244.85 1542.97 L2244.85 1548.85 L2239.96 1548.85 L2239.96 1542.97 Z" fill="#000000" fill-rule="nonzero" fill-opacity="1" /><path clip-path="url(#clip010)" d="M2265.03 1517.37 Q2261.42 1517.37 2259.59 1520.93 Q2257.79 1524.47 2257.79 1531.6 Q2257.79 1538.71 2259.59 1542.27 Q2261.42 1545.82 2265.03 1545.82 Q2268.67 1545.82 2270.47 1542.27 Q2272.3 1538.71 2272.3 1531.6 Q2272.3 1524.47 2270.47 1520.93 Q2268.67 1517.37 2265.03 1517.37 M2265.03 1513.66 Q2270.84 1513.66 2273.9 1518.27 Q2276.98 1522.85 2276.98 1531.6 Q2276.98 1540.33 2273.9 1544.94 Q2270.84 1549.52 2265.03 1549.52 Q2259.22 1549.52 2256.14 1544.94 Q2253.09 1540.33 2253.09 1531.6 Q2253.09 1522.85 2256.14 1518.27 Q2259.22 1513.66 2265.03 1513.66 Z" fill="#000000" fill-rule="nonzero" fill-opacity="1" /><polyline clip-path="url(#clip012)" style="stroke:#000000; stroke-linecap:round; stroke-linejoin:round; stroke-width:2; stroke-opacity:0.1; fill:none" points="193.936,1442.41 2352.76,1442.41 "/>
<polyline clip-path="url(#clip012)" style="stroke:#000000; stroke-linecap:round; stroke-linejoin:round; stroke-width:2; stroke-opacity:0.1; fill:none" points="193.936,1104.13 2352.76,1104.13 "/>
<polyline clip-path="url(#clip012)" style="stroke:#000000; stroke-linecap:round; stroke-linejoin:round; stroke-width:2; stroke-opacity:0.1; fill:none" points="193.936,765.855 2352.76,765.855 "/>
<polyline clip-path="url(#clip012)" style="stroke:#000000; stroke-linecap:round; stroke-linejoin:round; stroke-width:2; stroke-opacity:0.1; fill:none" points="193.936,427.576 2352.76,427.576 "/>
<polyline clip-path="url(#clip012)" style="stroke:#000000; stroke-linecap:round; stroke-linejoin:round; stroke-width:2; stroke-opacity:0.1; fill:none" points="193.936,89.2977 2352.76,89.2977 "/>
<polyline clip-path="url(#clip010)" style="stroke:#000000; stroke-linecap:round; stroke-linejoin:round; stroke-width:4; stroke-opacity:1; fill:none" points="193.936,1486.45 193.936,47.2441 "/>
<polyline clip-path="url(#clip010)" style="stroke:#000000; stroke-linecap:round; stroke-linejoin:round; stroke-width:4; stroke-opacity:1; fill:none" points="193.936,1442.41 212.834,1442.41 "/>
<polyline clip-path="url(#clip010)" style="stroke:#000000; stroke-linecap:round; stroke-linejoin:round; stroke-width:4; stroke-opacity:1; fill:none" points="193.936,1104.13 212.834,1104.13 "/>
<polyline clip-path="url(#clip010)" style="stroke:#000000; stroke-linecap:round; stroke-linejoin:round; stroke-width:4; stroke-opacity:1; fill:none" points="193.936,765.855 212.834,765.855 "/>
<polyline clip-path="url(#clip010)" style="stroke:#000000; stroke-linecap:round; stroke-linejoin:round; stroke-width:4; stroke-opacity:1; fill:none" points="193.936,427.576 212.834,427.576 "/>
<polyline clip-path="url(#clip010)" style="stroke:#000000; stroke-linecap:round; stroke-linejoin:round; stroke-width:4; stroke-opacity:1; fill:none" points="193.936,89.2977 212.834,89.2977 "/>
<path clip-path="url(#clip010)" d="M50.9921 1442.86 L80.6679 1442.86 L80.6679 1446.8 L50.9921 1446.8 L50.9921 1442.86 Z" fill="#000000" fill-rule="nonzero" fill-opacity="1" /><path clip-path="url(#clip010)" d="M91.5706 1455.76 L99.2095 1455.76 L99.2095 1429.39 L90.8993 1431.06 L90.8993 1426.8 L99.1632 1425.13 L103.839 1425.13 L103.839 1455.76 L111.478 1455.76 L111.478 1459.69 L91.5706 1459.69 L91.5706 1455.76 Z" fill="#000000" fill-rule="nonzero" fill-opacity="1" /><path clip-path="url(#clip010)" d="M120.922 1453.81 L125.807 1453.81 L125.807 1459.69 L120.922 1459.69 L120.922 1453.81 Z" fill="#000000" fill-rule="nonzero" fill-opacity="1" /><path clip-path="url(#clip010)" d="M145.992 1428.21 Q142.381 1428.21 140.552 1431.78 Q138.746 1435.32 138.746 1442.45 Q138.746 1449.55 140.552 1453.12 Q142.381 1456.66 145.992 1456.66 Q149.626 1456.66 151.431 1453.12 Q153.26 1449.55 153.26 1442.45 Q153.26 1435.32 151.431 1431.78 Q149.626 1428.21 145.992 1428.21 M145.992 1424.51 Q151.802 1424.51 154.857 1429.11 Q157.936 1433.7 157.936 1442.45 Q157.936 1451.17 154.857 1455.78 Q151.802 1460.36 145.992 1460.36 Q140.181 1460.36 137.103 1455.78 Q134.047 1451.17 134.047 1442.45 Q134.047 1433.7 137.103 1429.11 Q140.181 1424.51 145.992 1424.51 Z" fill="#000000" fill-rule="nonzero" fill-opacity="1" /><path clip-path="url(#clip010)" d="M51.9875 1104.58 L81.6633 1104.58 L81.6633 1108.52 L51.9875 1108.52 L51.9875 1104.58 Z" fill="#000000" fill-rule="nonzero" fill-opacity="1" /><path clip-path="url(#clip010)" d="M101.756 1089.93 Q98.1447 1089.93 96.316 1093.5 Q94.5104 1097.04 94.5104 1104.17 Q94.5104 1111.27 96.316 1114.84 Q98.1447 1118.38 101.756 1118.38 Q105.39 1118.38 107.196 1114.84 Q109.024 1111.27 109.024 1104.17 Q109.024 1097.04 107.196 1093.5 Q105.39 1089.93 101.756 1089.93 M101.756 1086.23 Q107.566 1086.23 110.621 1090.84 Q113.7 1095.42 113.7 1104.17 Q113.7 1112.9 110.621 1117.5 Q107.566 1122.08 101.756 1122.08 Q95.9456 1122.08 92.8669 1117.5 Q89.8114 1112.9 89.8114 1104.17 Q89.8114 1095.42 92.8669 1090.84 Q95.9456 1086.23 101.756 1086.23 Z" fill="#000000" fill-rule="nonzero" fill-opacity="1" /><path clip-path="url(#clip010)" d="M121.918 1115.53 L126.802 1115.53 L126.802 1121.41 L121.918 1121.41 L121.918 1115.53 Z" fill="#000000" fill-rule="nonzero" fill-opacity="1" /><path clip-path="url(#clip010)" d="M137.033 1086.85 L155.39 1086.85 L155.39 1090.79 L141.316 1090.79 L141.316 1099.26 Q142.334 1098.91 143.353 1098.75 Q144.371 1098.57 145.39 1098.57 Q151.177 1098.57 154.556 1101.74 Q157.936 1104.91 157.936 1110.33 Q157.936 1115.9 154.464 1119.01 Q150.992 1122.08 144.672 1122.08 Q142.496 1122.08 140.228 1121.71 Q137.982 1121.34 135.575 1120.6 L135.575 1115.9 Q137.658 1117.04 139.881 1117.59 Q142.103 1118.15 144.58 1118.15 Q148.584 1118.15 150.922 1116.04 Q153.26 1113.94 153.26 1110.33 Q153.26 1106.71 150.922 1104.61 Q148.584 1102.5 144.58 1102.5 Q142.705 1102.5 140.83 1102.92 Q138.978 1103.33 137.033 1104.21 L137.033 1086.85 Z" fill="#000000" fill-rule="nonzero" fill-opacity="1" /><path clip-path="url(#clip010)" d="M100.76 751.654 Q97.1493 751.654 95.3206 755.218 Q93.515 758.76 93.515 765.89 Q93.515 772.996 95.3206 776.561 Q97.1493 780.103 100.76 780.103 Q104.395 780.103 106.2 776.561 Q108.029 772.996 108.029 765.89 Q108.029 758.76 106.2 755.218 Q104.395 751.654 100.76 751.654 M100.76 747.95 Q106.571 747.95 109.626 752.556 Q112.705 757.14 112.705 765.89 Q112.705 774.616 109.626 779.223 Q106.571 783.806 100.76 783.806 Q94.9502 783.806 91.8715 779.223 Q88.816 774.616 88.816 765.89 Q88.816 757.14 91.8715 752.556 Q94.9502 747.95 100.76 747.95 Z" fill="#000000" fill-rule="nonzero" fill-opacity="1" /><path clip-path="url(#clip010)" d="M120.922 777.255 L125.807 777.255 L125.807 783.135 L120.922 783.135 L120.922 777.255 Z" fill="#000000" fill-rule="nonzero" fill-opacity="1" /><path clip-path="url(#clip010)" d="M145.992 751.654 Q142.381 751.654 140.552 755.218 Q138.746 758.76 138.746 765.89 Q138.746 772.996 140.552 776.561 Q142.381 780.103 145.992 780.103 Q149.626 780.103 151.431 776.561 Q153.26 772.996 153.26 765.89 Q153.26 758.76 151.431 755.218 Q149.626 751.654 145.992 751.654 M145.992 747.95 Q151.802 747.95 154.857 752.556 Q157.936 757.14 157.936 765.89 Q157.936 774.616 154.857 779.223 Q151.802 783.806 145.992 783.806 Q140.181 783.806 137.103 779.223 Q134.047 774.616 134.047 765.89 Q134.047 757.14 137.103 752.556 Q140.181 747.95 145.992 747.95 Z" fill="#000000" fill-rule="nonzero" fill-opacity="1" /><path clip-path="url(#clip010)" d="M101.756 413.375 Q98.1447 413.375 96.316 416.94 Q94.5104 420.481 94.5104 427.611 Q94.5104 434.717 96.316 438.282 Q98.1447 441.824 101.756 441.824 Q105.39 441.824 107.196 438.282 Q109.024 434.717 109.024 427.611 Q109.024 420.481 107.196 416.94 Q105.39 413.375 101.756 413.375 M101.756 409.671 Q107.566 409.671 110.621 414.278 Q113.7 418.861 113.7 427.611 Q113.7 436.338 110.621 440.944 Q107.566 445.528 101.756 445.528 Q95.9456 445.528 92.8669 440.944 Q89.8114 436.338 89.8114 427.611 Q89.8114 418.861 92.8669 414.278 Q95.9456 409.671 101.756 409.671 Z" fill="#000000" fill-rule="nonzero" fill-opacity="1" /><path clip-path="url(#clip010)" d="M121.918 438.977 L126.802 438.977 L126.802 444.856 L121.918 444.856 L121.918 438.977 Z" fill="#000000" fill-rule="nonzero" fill-opacity="1" /><path clip-path="url(#clip010)" d="M137.033 410.296 L155.39 410.296 L155.39 414.231 L141.316 414.231 L141.316 422.704 Q142.334 422.356 143.353 422.194 Q144.371 422.009 145.39 422.009 Q151.177 422.009 154.556 425.18 Q157.936 428.352 157.936 433.768 Q157.936 439.347 154.464 442.449 Q150.992 445.528 144.672 445.528 Q142.496 445.528 140.228 445.157 Q137.982 444.787 135.575 444.046 L135.575 439.347 Q137.658 440.481 139.881 441.037 Q142.103 441.592 144.58 441.592 Q148.584 441.592 150.922 439.486 Q153.26 437.379 153.26 433.768 Q153.26 430.157 150.922 428.051 Q148.584 425.944 144.58 425.944 Q142.705 425.944 140.83 426.361 Q138.978 426.778 137.033 427.657 L137.033 410.296 Z" fill="#000000" fill-rule="nonzero" fill-opacity="1" /><path clip-path="url(#clip010)" d="M91.5706 102.643 L99.2095 102.643 L99.2095 76.2769 L90.8993 77.9436 L90.8993 73.6843 L99.1632 72.0177 L103.839 72.0177 L103.839 102.643 L111.478 102.643 L111.478 106.578 L91.5706 106.578 L91.5706 102.643 Z" fill="#000000" fill-rule="nonzero" fill-opacity="1" /><path clip-path="url(#clip010)" d="M120.922 100.698 L125.807 100.698 L125.807 106.578 L120.922 106.578 L120.922 100.698 Z" fill="#000000" fill-rule="nonzero" fill-opacity="1" /><path clip-path="url(#clip010)" d="M145.992 75.0964 Q142.381 75.0964 140.552 78.6612 Q138.746 82.2028 138.746 89.3324 Q138.746 96.4388 140.552 100.004 Q142.381 103.545 145.992 103.545 Q149.626 103.545 151.431 100.004 Q153.26 96.4388 153.26 89.3324 Q153.26 82.2028 151.431 78.6612 Q149.626 75.0964 145.992 75.0964 M145.992 71.3927 Q151.802 71.3927 154.857 75.9991 Q157.936 80.5824 157.936 89.3324 Q157.936 98.0592 154.857 102.666 Q151.802 107.249 145.992 107.249 Q140.181 107.249 137.103 102.666 Q134.047 98.0592 134.047 89.3324 Q134.047 80.5824 137.103 75.9991 Q140.181 71.3927 145.992 71.3927 Z" fill="#000000" fill-rule="nonzero" fill-opacity="1" /><polyline clip-path="url(#clip012)" style="stroke:#009af9; stroke-linecap:round; stroke-linejoin:round; stroke-width:4; stroke-opacity:1; fill:none" points="1275.71,89.2977 1372.22,92.6012 1467.79,102.842 1561.59,119.36 1652.32,141.823 1739.5,170.564 1822.43,204.26 1899.93,242.58 1971.75,285.195 2036.96,331.444 2095.56,380.997 2147.06,432.697 2191.01,486.709 2226.92,542.373 2254.8,599.111 2274.65,656.839 2285.99,715.105 2288.82,773.654 2284.1,832.131 2269.92,890.314 2248.18,947.878 2217.94,1004.37 2180.14,1059.54 2134.3,1113.05 2080.91,1164.26 2020.42,1212.82 1953.32,1258.08 1879.61,1299.7 1800.69,1337.03 1716.82,1369.4 1628.46,1396.49 1536.78,1417.64 1442.51,1432.17 1346.59,1440.76 1249.96,1442.08 1153.56,1437.13 1058.46,1425.23 965.49,1407.06 875.472,1382.62 789.471,1352.89 707.722,1317.87 631.644,1278.23 561.709,1234.29 497.917,1187.38 441.213,1137.17 392.07,1084.81 350.014,1030.3 316.464,974.306 290.947,917.238 272.991,859.344 263.54,800.996 263.54,742.462 270.156,684.011 286.222,626.034 310.321,568.801 342.926,512.476 383.091,457.803 430.817,404.782 486.104,354.239 548.478,306.338 616.996,262.071 692.129,221.438 772.46,185.43 857.752,154.707 947.061,129.27 1039.56,109.779 1134.3,96.5654 1230.55,89.9584 1327.21,90.2887 1423.38,97.2261 1518.12,110.77 1610.26,130.591 1699.34,156.359 1784.16,187.742 1864.49,224.081 1939.15,265.044 2007.19,309.641 2069.09,357.542 2123.91,408.086 2171.16,461.272 2210.85,516.11 2242.51,572.435 2266.14,629.833 2281.26,687.851 2288.82,746.302 2286.93,804.857 2277.48,863.226 2259.52,921.037 2233.06,978.105 2198.57,1033.93 2156.51,1088.28 2106.42,1140.47 2049.25,1190.35 1985.46,1237.26 1914.57,1280.87 1838.5,1320.18 1756.51,1354.87 1670.27,1384.6 1580.02,1408.39 1486.81,1426.23 1391.54,1437.46 1295.11,1442.41 1198.51,1440.1 1102.64,1431.51 1008.49,1416.31 917.055,1394.84 828.928,1367.42 745.525,1334.72 666.612,1297.06 593.842,1255.43 526.742,1209.85 466.73,1160.95 414.279,1109.42 368.915,1055.9 331.113,1000.73 301.343,944.079 280.552,886.515 267.321,828.291 262.595,769.809 266.375,711.265 277.716,653.04 298.508,595.394 326.86,538.574 363.245,483.075 407.663,429.228 459.169,377.693 518.236,328.471 584.391,282.222 656.216,239.937 734.184,201.947 817.35,168.251 905.006,140.172 995.968,118.038 1089.88,101.851 1185.51,92.2708 1282.06,89.2977 1378.54,93.2619 1474.05,103.503 1567.5,120.681 1658.23,143.805 1745.17,172.546 1827.63,206.572 1904.65,245.223 1976,288.169 2041.21,334.748 2099.34,384.3 2150.37,436.331 2193.37,490.343 2228.81,546.007 2256.69,602.91 2275.59,660.638 2285.99,718.986 2288.82,777.5 2283.15,835.972 2268.98,894.113 2246.29,951.512 2215.58,1008 2177.3,1063.17 2131,1116.36 2077.13,1167.56 2016.17,1215.79 1948.6,1261.05 1874.88,1302.34 1795.5,1339.34 1711.15,1371.39 1622.55,1397.81 1530.64,1418.63 1436.25,1433.16 1340.21,1440.76 1243.61,1442.08 1147.3,1436.47 1052.2,1424.24 959.347,1405.41 869.565,1380.97 783.8,1350.57 702.525,1315.23 626.919,1275.25 557.457,1231.32 494.137,1184.08 437.905,1133.87 388.762,1081.17 347.651,1026.67 314.574,970.672 289.057,913.521 272.046,855.545 263.54,797.156 263.54,738.601 271.101,680.212 288.112,622.235 312.211,565.002 345.289,508.842 385.927,454.169 434.125,401.479 489.884,350.935 552.731,303.365 622.194,259.428 697.327,219.125 778.13,183.447 863.659,152.725 952.968,127.618 "/>
<polyline clip-path="url(#clip012)" style="stroke:#e26f46; stroke-linecap:round; stroke-linejoin:round; stroke-width:4; stroke-opacity:1; fill:none" points="1275.71,89.2977 1374,94.5833 1473.23,113.083 1568.68,140.832 1654.68,175.189 1736.9,217.474 1814.4,266.365 1883.39,317.9 1946.23,373.399 1996.32,427.576 2038.85,481.754 2075.24,537.253 2102.64,591.43 2126.27,646.929 2141.39,701.767 2147.06,754.623 2143.75,807.479 2136.19,862.978 2120.6,918.807 2096.03,974.306 2062.48,1030.47 2021.37,1087.62 1971.75,1144.11 1914.1,1199.6 1848.42,1252.79 1774.7,1302.34 1692.48,1346.61 1604.59,1384.27 1513.87,1414.66 1419.36,1435.81 1318.24,1445.05 1216.17,1442.41 1118.83,1429.2 1025.27,1406.73 935.484,1375.02 851.373,1336.7 772.932,1291.77 700.162,1240.24 640.623,1190.02 585.336,1137.17 538.083,1082.99 497.445,1027.49 463.895,971.993 439.323,917.816 422.312,863.639 411.444,809.461 409.081,755.284 411.916,699.785 425.147,645.607 445.939,591.76 473.345,535.601 508.786,478.12 552.259,420.639 604.71,363.819 665.194,308.981 735.129,256.785 813.57,209.545 897.209,167.26 987.463,132.904 1080.08,106.476 1178.37,90.6191 1281.38,87.9763 1376.83,93.2619 1475.12,111.761 1569.62,140.832 1658.46,177.832 1738.79,220.116 1809.2,265.044 1874.41,315.257 1937.26,370.756 1992.07,426.255 2036.96,481.754 2070.98,535.931 2102.64,592.751 2121.54,646.929 2135.72,701.106 2141.86,755.944 2138.56,809.461 2128.16,863.639 2111.15,918.807 2086.58,974.967 2053.5,1031.46 2012.86,1088.94 1963.72,1145.76 1906.07,1201.26 1840.39,1254.77 1766.67,1304.33 1684.45,1347.93 1595.14,1384.93 1500.63,1412.68 1401.4,1430.52 1305.95,1439.77 1208.61,1437.13 1111.27,1423.91 1014.87,1398.81 927.923,1367.09 845.702,1328.77 770.097,1283.84 697.327,1232.31 636.37,1180.77 580.611,1125.28 535.247,1071.1 493.192,1014.28 462.005,958.779 438.378,904.602 423.257,851.746 415.696,797.569 416.169,744.052 421.367,689.214 434.125,632.724 456.334,577.555 485.631,521.065 523.434,464.41 568.797,406.434 623.611,350.274 685.986,295.767 757.811,244.893 835.307,198.313 920.835,158.011 1013.45,126.297 1106.54,102.512 1204.83,89.2977 1304.06,87.9763 1402.35,97.2261 1495.91,115.726 1587.58,144.797 1675.47,183.117 1755.8,226.723 1829.05,275.615 1894.26,327.15 1954.74,381.327 2005.3,436.826 2045.94,491.004 2079.02,545.181 2106.42,600.68 2128.63,656.179 2138.56,709.695 2143.75,763.873 2140.45,817.39 2131.47,872.888 2114.46,929.378 2088.47,985.207 2054.92,1042.03 2012.39,1098.68 1960.88,1155.01 1900.87,1210.18 1833.3,1263.03 1757.22,1311.59 1675.47,1355.2 1586.64,1391.54 1492.13,1418.63 1394.79,1437.13 1295.56,1443.73 1196.32,1439.77 1100.87,1425.23 1006.36,1400.13 916.583,1365.77 837.197,1326.13 763.482,1281.2 694.019,1230.99 632.117,1178.13 578.248,1123.95 532.885,1069.78 495.082,1015.6 462.005,960.101 442.158,907.245 424.202,853.067 413.806,797.569 414.279,744.713 420.894,690.535 433.18,634.706 454.917,578.877 484.214,522.056 522.017,465.567 567.852,408.416 622.666,352.917 686.931,299.4 757.339,248.196 836.252,202.277 921.78,162.635 1013.92,131.583 1109.38,109.119 1203.88,94.5833 1302.17,91.9405 1401.4,102.512 1496.85,122.333 1586.64,151.404 1673.58,189.724 1752.02,233.33 1823.85,280.901 1890,332.435 1947.65,386.613 1995.85,440.79 2036.49,494.968 2070.98,550.467 2096.5,604.644 2117.76,661.464 2127.69,714.981 2131,769.819 2127.22,824.657 "/>
<polyline clip-path="url(#clip012)" style="stroke:#3da44d; stroke-linecap:round; stroke-linejoin:round; stroke-width:4; stroke-opacity:1; fill:none" points="1275.71,89.2977 1371.69,92.6012 1466.85,102.842 1559.7,119.36 1649.96,142.154 1736.43,170.564 1818.65,204.26 1895.67,242.58 1967.5,285.195 2032.71,331.114 2091.3,380.006 2143.28,431.541 2187.7,485.057 2224.56,540.226 2252.91,596.881 2273.7,654.609 2286.93,712.751 2291.66,771.471 2287.88,829.86 2275.59,888.085 2254.8,945.896 2225.03,1002.72 2187.7,1057.88 2142.34,1111.73 2088.94,1163.6 2027.98,1212.49 1959.94,1258.41 1885.75,1300.36 1806.36,1338.02 1722.25,1370.73 1633.42,1398.15 1541.51,1419.95 1447.47,1434.81 1351.96,1443.73 1255.51,1445.72 1159.64,1441.09 1065.31,1429.86 972.814,1412.35 883.033,1388.57 797.031,1359.16 715.756,1324.81 639.205,1285.83 568.325,1242.88 504.06,1196.3 446.884,1147.08 396.322,1095.05 353.322,1041.2 317.409,985.868 290.002,928.965 270.156,871.237 258.815,812.93 255.035,754.293 260.705,695.573 274.881,637.349 297.563,579.537 328.277,522.882 367.025,467.714 414.279,414.362 469.093,363.158 530.995,314.597 599.985,269.669 674.645,228.375 754.976,191.706 840.032,159.993 929.105,133.895 1021.49,113.744 1115.76,99.8689 1211.44,92.6012 1307.37,91.9405 1403.06,97.8868 1497.21,110.44 1589,129.27 1677.6,153.716 1762.42,183.778 1842.75,218.795 1917.88,258.437 1987.35,301.713 2050.19,348.623 2106.42,398.175 2155.57,450.37 2197.15,504.548 2231.17,560.047 2257.63,616.95 2276.54,674.761 2285.99,733.15 2287.88,791.374 2281.26,849.929 2266.14,908.071 2242.51,965.386 2210.38,1021.88 2170.22,1076.88 2121.54,1129.9 2065.31,1180.44 2001.99,1228.35 1932.06,1272.61 1856.45,1313.25 1775.18,1349.25 1689.41,1379.98 1599.63,1405.08 1506.9,1424.24 1412.51,1437.13 1317,1443.07 1220.89,1443.07 1125.32,1436.14 1031.41,1422.59 939.973,1402.77 851.845,1377.33 767.734,1346.28 688.349,1310.27 614.161,1269.97 546.116,1225.7 484.214,1178.13 429.4,1127.59 381.674,1075.06 341.508,1020.22 308.904,964.23 284.332,907.327 267.321,849.516 259.76,791.127 259.76,732.572 268.266,674.431 285.277,616.619 310.794,559.386 344.344,503.392 386.399,448.884 436.488,396.193 494.137,346.31 558.402,299.4 629.282,256.125 705.832,216.483 788.053,181.465 874.291,151.734 964.309,127.618 1057.16,109.449 1152.14,97.5564 1247.65,92.9315 1343.28,94.5833 1438.61,102.842 1531.82,117.708 1622.08,138.52 1709.5,165.278 1792.66,196.992 1871.1,233.991 1943.87,275.285 2010.5,320.212 2070.98,368.113 2124.38,418.987 2170.69,472.008 2209.44,526.681 2240.15,582.511 2262.36,639.909 2277.48,697.968 2284.1,756.192 2283.15,814.582 2272.76,872.806 2254.8,930.369 2227.39,987.52 2192.43,1043.02 2148.95,1097.03 2097.45,1149.06 2038.38,1198.61 1972.7,1245.19 1900.4,1288.47 1821.96,1327.12 1738.79,1361.15 1651.14,1389.56 1560.65,1412.35 1467.08,1428.87 1371.93,1438.78 1275.94,1442.41 1180.2,1439.11 1085.75,1429.53 993.133,1413.34 903.115,1391.21 816.405,1363.13 734.184,1330.09 656.689,1292.43 584.864,1250.15 519.181,1204.56 460.115,1155.67 408.136,1104.13 363.718,1050.78 326.86,995.614 297.563,939.289 276.771,881.808 263.54,823.584 258.815,765.112 262.595,706.887 274.881,648.581 295.673,590.769 324.97,533.949 362.3,478.781 407.663,424.934 461.06,373.399 521.544,324.507 589.116,278.919 662.359,236.964 741.745,199.304 825.856,166.6 914.22,139.511 "/>
<path clip-path="url(#clip010)" d="M265.897 302.578 L781.708 302.578 L781.708 95.2176 L265.897 95.2176  Z" fill="#ffffff" fill-rule="evenodd" fill-opacity="1"/>
<polyline clip-path="url(#clip010)" style="stroke:#000000; stroke-linecap:round; stroke-linejoin:round; stroke-width:4; stroke-opacity:1; fill:none" points="265.897,302.578 781.708,302.578 781.708,95.2176 265.897,95.2176 265.897,302.578 "/>
<polyline clip-path="url(#clip010)" style="stroke:#009af9; stroke-linecap:round; stroke-linejoin:round; stroke-width:4; stroke-opacity:1; fill:none" points="289.884,147.058 433.805,147.058 "/>
<path clip-path="url(#clip010)" d="M465.199 131.051 L465.199 138.412 L473.972 138.412 L473.972 141.722 L465.199 141.722 L465.199 155.796 Q465.199 158.967 466.056 159.87 Q466.935 160.773 469.597 160.773 L473.972 160.773 L473.972 164.338 L469.597 164.338 Q464.667 164.338 462.792 162.509 Q460.917 160.657 460.917 155.796 L460.917 141.722 L457.792 141.722 L457.792 138.412 L460.917 138.412 L460.917 131.051 L465.199 131.051 Z" fill="#000000" fill-rule="nonzero" fill-opacity="1" /><path clip-path="url(#clip010)" d="M494.597 142.393 Q493.88 141.977 493.023 141.791 Q492.19 141.583 491.171 141.583 Q487.56 141.583 485.616 143.944 Q483.694 146.282 483.694 150.68 L483.694 164.338 L479.412 164.338 L479.412 138.412 L483.694 138.412 L483.694 142.44 Q485.037 140.078 487.19 138.944 Q489.343 137.787 492.421 137.787 Q492.861 137.787 493.393 137.856 Q493.926 137.903 494.574 138.018 L494.597 142.393 Z" fill="#000000" fill-rule="nonzero" fill-opacity="1" /><path clip-path="url(#clip010)" d="M510.847 151.305 Q505.685 151.305 503.694 152.486 Q501.704 153.666 501.704 156.514 Q501.704 158.782 503.185 160.125 Q504.69 161.444 507.259 161.444 Q510.801 161.444 512.93 158.944 Q515.083 156.421 515.083 152.254 L515.083 151.305 L510.847 151.305 M519.342 149.546 L519.342 164.338 L515.083 164.338 L515.083 160.402 Q513.625 162.763 511.449 163.898 Q509.273 165.009 506.125 165.009 Q502.143 165.009 499.782 162.787 Q497.444 160.541 497.444 156.791 Q497.444 152.416 500.361 150.194 Q503.301 147.972 509.111 147.972 L515.083 147.972 L515.083 147.555 Q515.083 144.615 513.139 143.018 Q511.217 141.398 507.722 141.398 Q505.5 141.398 503.393 141.93 Q501.287 142.463 499.342 143.527 L499.342 139.592 Q501.68 138.69 503.879 138.25 Q506.079 137.787 508.162 137.787 Q513.787 137.787 516.565 140.703 Q519.342 143.62 519.342 149.546 Z" fill="#000000" fill-rule="nonzero" fill-opacity="1" /><path clip-path="url(#clip010)" d="M528.115 138.412 L532.375 138.412 L532.375 164.338 L528.115 164.338 L528.115 138.412 M528.115 128.319 L532.375 128.319 L532.375 133.713 L528.115 133.713 L528.115 128.319 Z" fill="#000000" fill-rule="nonzero" fill-opacity="1" /><path clip-path="url(#clip010)" d="M562.837 148.689 L562.837 164.338 L558.578 164.338 L558.578 148.828 Q558.578 145.148 557.143 143.319 Q555.708 141.49 552.838 141.49 Q549.388 141.49 547.398 143.69 Q545.407 145.889 545.407 149.685 L545.407 164.338 L541.125 164.338 L541.125 138.412 L545.407 138.412 L545.407 142.44 Q546.935 140.102 548.995 138.944 Q551.078 137.787 553.787 137.787 Q558.254 137.787 560.546 140.565 Q562.837 143.319 562.837 148.689 Z" fill="#000000" fill-rule="nonzero" fill-opacity="1" /><path clip-path="url(#clip010)" d="M571.333 138.412 L575.592 138.412 L575.592 164.338 L571.333 164.338 L571.333 138.412 M571.333 128.319 L575.592 128.319 L575.592 133.713 L571.333 133.713 L571.333 128.319 Z" fill="#000000" fill-rule="nonzero" fill-opacity="1" /><path clip-path="url(#clip010)" d="M606.055 148.689 L606.055 164.338 L601.796 164.338 L601.796 148.828 Q601.796 145.148 600.36 143.319 Q598.925 141.49 596.055 141.49 Q592.606 141.49 590.615 143.69 Q588.624 145.889 588.624 149.685 L588.624 164.338 L584.342 164.338 L584.342 138.412 L588.624 138.412 L588.624 142.44 Q590.152 140.102 592.212 138.944 Q594.296 137.787 597.004 137.787 Q601.472 137.787 603.763 140.565 Q606.055 143.319 606.055 148.689 Z" fill="#000000" fill-rule="nonzero" fill-opacity="1" /><path clip-path="url(#clip010)" d="M631.61 151.074 Q631.61 146.444 629.689 143.898 Q627.791 141.352 624.342 141.352 Q620.916 141.352 618.995 143.898 Q617.096 146.444 617.096 151.074 Q617.096 155.68 618.995 158.226 Q620.916 160.773 624.342 160.773 Q627.791 160.773 629.689 158.226 Q631.61 155.68 631.61 151.074 M635.87 161.12 Q635.87 167.74 632.93 170.958 Q629.99 174.199 623.925 174.199 Q621.68 174.199 619.689 173.851 Q617.698 173.527 615.823 172.833 L615.823 168.689 Q617.698 169.708 619.527 170.194 Q621.356 170.68 623.254 170.68 Q627.444 170.68 629.527 168.481 Q631.61 166.305 631.61 161.884 L631.61 159.777 Q630.291 162.069 628.231 163.203 Q626.17 164.338 623.3 164.338 Q618.532 164.338 615.615 160.703 Q612.698 157.069 612.698 151.074 Q612.698 145.055 615.615 141.421 Q618.532 137.787 623.3 137.787 Q626.17 137.787 628.231 138.921 Q630.291 140.055 631.61 142.347 L631.61 138.412 L635.87 138.412 L635.87 161.12 Z" fill="#000000" fill-rule="nonzero" fill-opacity="1" /><path clip-path="url(#clip010)" d="M676.772 142.347 L676.772 128.319 L681.031 128.319 L681.031 164.338 L676.772 164.338 L676.772 160.449 Q675.429 162.763 673.369 163.898 Q671.332 165.009 668.462 165.009 Q663.763 165.009 660.8 161.259 Q657.86 157.509 657.86 151.398 Q657.86 145.287 660.8 141.537 Q663.763 137.787 668.462 137.787 Q671.332 137.787 673.369 138.921 Q675.429 140.032 676.772 142.347 M662.258 151.398 Q662.258 156.097 664.18 158.782 Q666.124 161.444 669.504 161.444 Q672.883 161.444 674.828 158.782 Q676.772 156.097 676.772 151.398 Q676.772 146.699 674.828 144.037 Q672.883 141.352 669.504 141.352 Q666.124 141.352 664.18 144.037 Q662.258 146.699 662.258 151.398 Z" fill="#000000" fill-rule="nonzero" fill-opacity="1" /><path clip-path="url(#clip010)" d="M701.587 151.305 Q696.425 151.305 694.434 152.486 Q692.443 153.666 692.443 156.514 Q692.443 158.782 693.925 160.125 Q695.429 161.444 697.999 161.444 Q701.54 161.444 703.67 158.944 Q705.823 156.421 705.823 152.254 L705.823 151.305 L701.587 151.305 M710.082 149.546 L710.082 164.338 L705.823 164.338 L705.823 160.402 Q704.365 162.763 702.189 163.898 Q700.013 165.009 696.865 165.009 Q692.883 165.009 690.522 162.787 Q688.184 160.541 688.184 156.791 Q688.184 152.416 691.101 150.194 Q694.04 147.972 699.851 147.972 L705.823 147.972 L705.823 147.555 Q705.823 144.615 703.878 143.018 Q701.957 141.398 698.462 141.398 Q696.24 141.398 694.133 141.93 Q692.027 142.463 690.082 143.527 L690.082 139.592 Q692.42 138.69 694.619 138.25 Q696.818 137.787 698.902 137.787 Q704.527 137.787 707.304 140.703 Q710.082 143.62 710.082 149.546 Z" fill="#000000" fill-rule="nonzero" fill-opacity="1" /><path clip-path="url(#clip010)" d="M723.068 131.051 L723.068 138.412 L731.841 138.412 L731.841 141.722 L723.068 141.722 L723.068 155.796 Q723.068 158.967 723.925 159.87 Q724.804 160.773 727.466 160.773 L731.841 160.773 L731.841 164.338 L727.466 164.338 Q722.536 164.338 720.661 162.509 Q718.786 160.657 718.786 155.796 L718.786 141.722 L715.661 141.722 L715.661 138.412 L718.786 138.412 L718.786 131.051 L723.068 131.051 Z" fill="#000000" fill-rule="nonzero" fill-opacity="1" /><path clip-path="url(#clip010)" d="M749.225 151.305 Q744.063 151.305 742.073 152.486 Q740.082 153.666 740.082 156.514 Q740.082 158.782 741.563 160.125 Q743.068 161.444 745.637 161.444 Q749.179 161.444 751.309 158.944 Q753.461 156.421 753.461 152.254 L753.461 151.305 L749.225 151.305 M757.721 149.546 L757.721 164.338 L753.461 164.338 L753.461 160.402 Q752.003 162.763 749.827 163.898 Q747.651 165.009 744.503 165.009 Q740.522 165.009 738.161 162.787 Q735.823 160.541 735.823 156.791 Q735.823 152.416 738.739 150.194 Q741.679 147.972 747.489 147.972 L753.461 147.972 L753.461 147.555 Q753.461 144.615 751.517 143.018 Q749.596 141.398 746.1 141.398 Q743.878 141.398 741.772 141.93 Q739.665 142.463 737.721 143.527 L737.721 139.592 Q740.059 138.69 742.258 138.25 Q744.457 137.787 746.54 137.787 Q752.165 137.787 754.943 140.703 Q757.721 143.62 757.721 149.546 Z" fill="#000000" fill-rule="nonzero" fill-opacity="1" /><polyline clip-path="url(#clip010)" style="stroke:#e26f46; stroke-linecap:round; stroke-linejoin:round; stroke-width:4; stroke-opacity:1; fill:none" points="289.884,198.898 433.805,198.898 "/>
<path clip-path="url(#clip010)" d="M457.792 181.618 L462.468 181.618 L462.468 212.242 L479.296 212.242 L479.296 216.178 L457.792 216.178 L457.792 181.618 Z" fill="#000000" fill-rule="nonzero" fill-opacity="1" /><path clip-path="url(#clip010)" d="M496.842 186.224 L490.5 203.423 L503.208 203.423 L496.842 186.224 M494.204 181.618 L499.505 181.618 L512.676 216.178 L507.815 216.178 L504.667 207.312 L489.088 207.312 L485.94 216.178 L481.009 216.178 L494.204 181.618 Z" fill="#000000" fill-rule="nonzero" fill-opacity="1" /><path clip-path="url(#clip010)" d="M553.509 182.752 L553.509 187.312 Q550.847 186.039 548.486 185.414 Q546.125 184.789 543.926 184.789 Q540.106 184.789 538.023 186.27 Q535.963 187.752 535.963 190.483 Q535.963 192.775 537.328 193.955 Q538.717 195.113 542.56 195.83 L545.384 196.409 Q550.615 197.405 553.092 199.928 Q555.592 202.428 555.592 206.641 Q555.592 211.664 552.213 214.256 Q548.856 216.849 542.351 216.849 Q539.898 216.849 537.12 216.293 Q534.365 215.738 531.402 214.65 L531.402 209.835 Q534.25 211.432 536.981 212.242 Q539.713 213.053 542.351 213.053 Q546.356 213.053 548.532 211.479 Q550.708 209.904 550.708 206.988 Q550.708 204.442 549.134 203.006 Q547.583 201.571 544.018 200.854 L541.171 200.298 Q535.939 199.256 533.602 197.034 Q531.264 194.812 531.264 190.854 Q531.264 186.27 534.481 183.631 Q537.722 180.993 543.393 180.993 Q545.824 180.993 548.347 181.432 Q550.87 181.872 553.509 182.752 Z" fill="#000000" fill-rule="nonzero" fill-opacity="1" /><path clip-path="url(#clip010)" d="M573.486 218.585 Q571.68 223.215 569.967 224.627 Q568.254 226.039 565.384 226.039 L561.981 226.039 L561.981 222.474 L564.481 222.474 Q566.24 222.474 567.212 221.64 Q568.185 220.807 569.365 217.705 L570.129 215.761 L559.643 190.252 L564.157 190.252 L572.259 210.529 L580.361 190.252 L584.874 190.252 L573.486 218.585 Z" fill="#000000" fill-rule="nonzero" fill-opacity="1" /><path clip-path="url(#clip010)" d="M610.939 195.229 Q612.536 192.358 614.759 190.993 Q616.981 189.627 619.99 189.627 Q624.041 189.627 626.24 192.474 Q628.439 195.298 628.439 200.529 L628.439 216.178 L624.157 216.178 L624.157 200.668 Q624.157 196.942 622.837 195.136 Q621.518 193.33 618.809 193.33 Q615.499 193.33 613.578 195.53 Q611.657 197.729 611.657 201.525 L611.657 216.178 L607.374 216.178 L607.374 200.668 Q607.374 196.918 606.055 195.136 Q604.735 193.33 601.981 193.33 Q598.717 193.33 596.796 195.553 Q594.874 197.752 594.874 201.525 L594.874 216.178 L590.592 216.178 L590.592 190.252 L594.874 190.252 L594.874 194.28 Q596.333 191.895 598.37 190.761 Q600.407 189.627 603.208 189.627 Q606.032 189.627 607.999 191.062 Q609.99 192.497 610.939 195.229 Z" fill="#000000" fill-rule="nonzero" fill-opacity="1" /><path clip-path="url(#clip010)" d="M641.055 212.289 L641.055 226.039 L636.772 226.039 L636.772 190.252 L641.055 190.252 L641.055 194.187 Q642.397 191.872 644.434 190.761 Q646.494 189.627 649.342 189.627 Q654.064 189.627 657.004 193.377 Q659.967 197.127 659.967 203.238 Q659.967 209.349 657.004 213.099 Q654.064 216.849 649.342 216.849 Q646.494 216.849 644.434 215.738 Q642.397 214.603 641.055 212.289 M655.545 203.238 Q655.545 198.539 653.601 195.877 Q651.68 193.192 648.3 193.192 Q644.92 193.192 642.976 195.877 Q641.055 198.539 641.055 203.238 Q641.055 207.937 642.976 210.622 Q644.92 213.284 648.3 213.284 Q651.68 213.284 653.601 210.622 Q655.545 207.937 655.545 203.238 Z" fill="#000000" fill-rule="nonzero" fill-opacity="1" /><path clip-path="url(#clip010)" d="M688.578 200.529 L688.578 216.178 L684.318 216.178 L684.318 200.668 Q684.318 196.988 682.883 195.159 Q681.448 193.33 678.578 193.33 Q675.129 193.33 673.138 195.53 Q671.147 197.729 671.147 201.525 L671.147 216.178 L666.865 216.178 L666.865 190.252 L671.147 190.252 L671.147 194.28 Q672.675 191.942 674.735 190.784 Q676.818 189.627 679.527 189.627 Q683.994 189.627 686.286 192.405 Q688.578 195.159 688.578 200.529 Z" fill="#000000" fill-rule="nonzero" fill-opacity="1" /><path clip-path="url(#clip010)" d="M719.249 202.15 L719.249 204.233 L699.665 204.233 Q699.943 208.631 702.304 210.946 Q704.689 213.238 708.925 213.238 Q711.378 213.238 713.67 212.636 Q715.985 212.034 718.253 210.83 L718.253 214.858 Q715.962 215.83 713.554 216.34 Q711.147 216.849 708.67 216.849 Q702.466 216.849 698.832 213.238 Q695.221 209.627 695.221 203.469 Q695.221 197.104 698.647 193.377 Q702.096 189.627 707.929 189.627 Q713.161 189.627 716.193 193.006 Q719.249 196.363 719.249 202.15 M714.989 200.9 Q714.943 197.405 713.022 195.321 Q711.124 193.238 707.976 193.238 Q704.411 193.238 702.258 195.252 Q700.128 197.266 699.804 200.923 L714.989 200.9 Z" fill="#000000" fill-rule="nonzero" fill-opacity="1" /><path clip-path="url(#clip010)" d="M730.452 182.891 L730.452 190.252 L739.225 190.252 L739.225 193.562 L730.452 193.562 L730.452 207.636 Q730.452 210.807 731.309 211.71 Q732.188 212.613 734.85 212.613 L739.225 212.613 L739.225 216.178 L734.85 216.178 Q729.92 216.178 728.045 214.349 Q726.17 212.497 726.17 207.636 L726.17 193.562 L723.045 193.562 L723.045 190.252 L726.17 190.252 L726.17 182.891 L730.452 182.891 Z" fill="#000000" fill-rule="nonzero" fill-opacity="1" /><polyline clip-path="url(#clip010)" style="stroke:#3da44d; stroke-linecap:round; stroke-linejoin:round; stroke-width:4; stroke-opacity:1; fill:none" points="289.884,250.738 433.805,250.738 "/>
<path clip-path="url(#clip010)" d="M483.347 263.087 L483.347 253.805 L475.708 253.805 L475.708 249.962 L487.977 249.962 L487.977 264.8 Q485.268 266.721 482.005 267.717 Q478.741 268.689 475.037 268.689 Q466.935 268.689 462.352 263.967 Q457.792 259.221 457.792 250.772 Q457.792 242.3 462.352 237.578 Q466.935 232.833 475.037 232.833 Q478.417 232.833 481.449 233.666 Q484.505 234.499 487.074 236.12 L487.074 241.096 Q484.481 238.897 481.565 237.786 Q478.648 236.675 475.431 236.675 Q469.088 236.675 465.894 240.217 Q462.722 243.758 462.722 250.772 Q462.722 257.763 465.894 261.305 Q469.088 264.846 475.431 264.846 Q477.907 264.846 479.852 264.43 Q481.796 263.99 483.347 263.087 Z" fill="#000000" fill-rule="nonzero" fill-opacity="1" /><path clip-path="url(#clip010)" d="M532.305 234.592 L532.305 239.152 Q529.643 237.879 527.282 237.254 Q524.921 236.629 522.722 236.629 Q518.903 236.629 516.819 238.11 Q514.759 239.592 514.759 242.323 Q514.759 244.615 516.125 245.795 Q517.514 246.953 521.356 247.67 L524.18 248.249 Q529.412 249.245 531.889 251.768 Q534.389 254.268 534.389 258.481 Q534.389 263.504 531.009 266.096 Q527.653 268.689 521.148 268.689 Q518.694 268.689 515.916 268.133 Q513.162 267.578 510.199 266.49 L510.199 261.675 Q513.046 263.272 515.778 264.082 Q518.509 264.893 521.148 264.893 Q525.153 264.893 527.328 263.319 Q529.504 261.744 529.504 258.828 Q529.504 256.282 527.93 254.846 Q526.379 253.411 522.815 252.694 L519.967 252.138 Q514.736 251.096 512.398 248.874 Q510.06 246.652 510.06 242.694 Q510.06 238.11 513.278 235.471 Q516.518 232.833 522.19 232.833 Q524.62 232.833 527.143 233.272 Q529.666 233.712 532.305 234.592 Z" fill="#000000" fill-rule="nonzero" fill-opacity="1" /><path clip-path="url(#clip010)" d="M552.282 270.425 Q550.476 275.055 548.763 276.467 Q547.051 277.879 544.18 277.879 L540.777 277.879 L540.777 274.314 L543.277 274.314 Q545.037 274.314 546.009 273.48 Q546.981 272.647 548.162 269.545 L548.926 267.601 L538.439 242.092 L542.953 242.092 L551.055 262.369 L559.157 242.092 L563.671 242.092 L552.282 270.425 Z" fill="#000000" fill-rule="nonzero" fill-opacity="1" /><path clip-path="url(#clip010)" d="M589.736 247.069 Q591.333 244.198 593.555 242.833 Q595.777 241.467 598.786 241.467 Q602.837 241.467 605.036 244.314 Q607.235 247.138 607.235 252.369 L607.235 268.018 L602.953 268.018 L602.953 252.508 Q602.953 248.782 601.634 246.976 Q600.314 245.17 597.606 245.17 Q594.296 245.17 592.374 247.37 Q590.453 249.569 590.453 253.365 L590.453 268.018 L586.171 268.018 L586.171 252.508 Q586.171 248.758 584.851 246.976 Q583.532 245.17 580.777 245.17 Q577.513 245.17 575.592 247.393 Q573.671 249.592 573.671 253.365 L573.671 268.018 L569.388 268.018 L569.388 242.092 L573.671 242.092 L573.671 246.12 Q575.129 243.735 577.166 242.601 Q579.203 241.467 582.004 241.467 Q584.828 241.467 586.796 242.902 Q588.786 244.337 589.736 247.069 Z" fill="#000000" fill-rule="nonzero" fill-opacity="1" /><path clip-path="url(#clip010)" d="M619.851 264.129 L619.851 277.879 L615.569 277.879 L615.569 242.092 L619.851 242.092 L619.851 246.027 Q621.194 243.712 623.231 242.601 Q625.291 241.467 628.138 241.467 Q632.86 241.467 635.8 245.217 Q638.763 248.967 638.763 255.078 Q638.763 261.189 635.8 264.939 Q632.86 268.689 628.138 268.689 Q625.291 268.689 623.231 267.578 Q621.194 266.443 619.851 264.129 M634.342 255.078 Q634.342 250.379 632.397 247.717 Q630.476 245.032 627.096 245.032 Q623.717 245.032 621.772 247.717 Q619.851 250.379 619.851 255.078 Q619.851 259.777 621.772 262.462 Q623.717 265.124 627.096 265.124 Q630.476 265.124 632.397 262.462 Q634.342 259.777 634.342 255.078 Z" fill="#000000" fill-rule="nonzero" fill-opacity="1" /><path clip-path="url(#clip010)" d="M667.374 252.369 L667.374 268.018 L663.115 268.018 L663.115 252.508 Q663.115 248.828 661.68 246.999 Q660.244 245.17 657.374 245.17 Q653.925 245.17 651.934 247.37 Q649.944 249.569 649.944 253.365 L649.944 268.018 L645.661 268.018 L645.661 242.092 L649.944 242.092 L649.944 246.12 Q651.471 243.782 653.531 242.624 Q655.615 241.467 658.323 241.467 Q662.791 241.467 665.082 244.245 Q667.374 246.999 667.374 252.369 Z" fill="#000000" fill-rule="nonzero" fill-opacity="1" /><path clip-path="url(#clip010)" d="M698.045 253.99 L698.045 256.073 L678.462 256.073 Q678.74 260.471 681.101 262.786 Q683.485 265.078 687.721 265.078 Q690.175 265.078 692.466 264.476 Q694.781 263.874 697.05 262.67 L697.05 266.698 Q694.758 267.67 692.351 268.18 Q689.943 268.689 687.466 268.689 Q681.263 268.689 677.629 265.078 Q674.017 261.467 674.017 255.309 Q674.017 248.944 677.443 245.217 Q680.892 241.467 686.726 241.467 Q691.957 241.467 694.99 244.846 Q698.045 248.203 698.045 253.99 M693.786 252.74 Q693.74 249.245 691.818 247.161 Q689.92 245.078 686.772 245.078 Q683.207 245.078 681.054 247.092 Q678.925 249.106 678.601 252.763 L693.786 252.74 Z" fill="#000000" fill-rule="nonzero" fill-opacity="1" /><path clip-path="url(#clip010)" d="M709.249 234.731 L709.249 242.092 L718.022 242.092 L718.022 245.402 L709.249 245.402 L709.249 259.476 Q709.249 262.647 710.105 263.55 Q710.985 264.453 713.647 264.453 L718.022 264.453 L718.022 268.018 L713.647 268.018 Q708.716 268.018 706.841 266.189 Q704.966 264.337 704.966 259.476 L704.966 245.402 L701.841 245.402 L701.841 242.092 L704.966 242.092 L704.966 234.731 L709.249 234.731 Z" fill="#000000" fill-rule="nonzero" fill-opacity="1" /></svg>
