<?xml version="1.0" encoding="utf-8"?>
<svg xmlns="http://www.w3.org/2000/svg" xmlns:xlink="http://www.w3.org/1999/xlink" width="600" height="400" viewBox="0 0 2400 1600">
<defs>
  <clipPath id="clip120">
    <rect x="0" y="0" width="2400" height="1600"/>
  </clipPath>
</defs>
<path clip-path="url(#clip120)" d="M0 1600 L2400 1600 L2400 0 L0 0  Z" fill="#ffffff" fill-rule="evenodd" fill-opacity="1"/>
<defs>
  <clipPath id="clip121">
    <rect x="480" y="0" width="1681" height="1600"/>
  </clipPath>
</defs>
<path clip-path="url(#clip120)" d="M193.936 1486.45 L2352.76 1486.45 L2352.76 47.2441 L193.936 47.2441  Z" fill="#ffffff" fill-rule="evenodd" fill-opacity="1"/>
<defs>
  <clipPath id="clip122">
    <rect x="193" y="47" width="2160" height="1440"/>
  </clipPath>
</defs>
<polyline clip-path="url(#clip122)" style="stroke:#000000; stroke-linecap:round; stroke-linejoin:round; stroke-width:2; stroke-opacity:0.1; fill:none" points="301.559,1486.45 301.559,47.2441 "/>
<polyline clip-path="url(#clip122)" style="stroke:#000000; stroke-linecap:round; stroke-linejoin:round; stroke-width:2; stroke-opacity:0.1; fill:none" points="787.69,1486.45 787.69,47.2441 "/>
<polyline clip-path="url(#clip122)" style="stroke:#000000; stroke-linecap:round; stroke-linejoin:round; stroke-width:2; stroke-opacity:0.1; fill:none" points="1273.82,1486.45 1273.82,47.2441 "/>
<polyline clip-path="url(#clip122)" style="stroke:#000000; stroke-linecap:round; stroke-linejoin:round; stroke-width:2; stroke-opacity:0.1; fill:none" points="1759.95,1486.45 1759.95,47.2441 "/>
<polyline clip-path="url(#clip122)" style="stroke:#000000; stroke-linecap:round; stroke-linejoin:round; stroke-width:2; stroke-opacity:0.1; fill:none" points="2246.08,1486.45 2246.08,47.2441 "/>
<polyline clip-path="url(#clip120)" style="stroke:#000000; stroke-linecap:round; stroke-linejoin:round; stroke-width:4; stroke-opacity:1; fill:none" points="193.936,1486.45 2352.76,1486.45 "/>
<polyline clip-path="url(#clip120)" style="stroke:#000000; stroke-linecap:round; stroke-linejoin:round; stroke-width:4; stroke-opacity:1; fill:none" points="301.559,1486.45 301.559,1467.55 "/>
<polyline clip-path="url(#clip120)" style="stroke:#000000; stroke-linecap:round; stroke-linejoin:round; stroke-width:4; stroke-opacity:1; fill:none" points="787.69,1486.45 787.69,1467.55 "/>
<polyline clip-path="url(#clip120)" style="stroke:#000000; stroke-linecap:round; stroke-linejoin:round; stroke-width:4; stroke-opacity:1; fill:none" points="1273.82,1486.45 1273.82,1467.55 "/>
<polyline clip-path="url(#clip120)" style="stroke:#000000; stroke-linecap:round; stroke-linejoin:round; stroke-width:4; stroke-opacity:1; fill:none" points="1759.95,1486.45 1759.95,1467.55 "/>
<polyline clip-path="url(#clip120)" style="stroke:#000000; stroke-linecap:round; stroke-linejoin:round; stroke-width:4; stroke-opacity:1; fill:none" points="2246.08,1486.45 2246.08,1467.55 "/>
<path clip-path="url(#clip120)" d="M248.087 1532.02 L277.763 1532.02 L277.763 1535.95 L248.087 1535.95 L248.087 1532.02 Z" fill="#000000" fill-rule="nonzero" fill-opacity="1" /><path clip-path="url(#clip120)" d="M288.665 1544.91 L296.304 1544.91 L296.304 1518.55 L287.994 1520.21 L287.994 1515.95 L296.258 1514.29 L300.934 1514.29 L300.934 1544.91 L308.573 1544.91 L308.573 1548.85 L288.665 1548.85 L288.665 1544.91 Z" fill="#000000" fill-rule="nonzero" fill-opacity="1" /><path clip-path="url(#clip120)" d="M318.017 1542.97 L322.901 1542.97 L322.901 1548.85 L318.017 1548.85 L318.017 1542.97 Z" fill="#000000" fill-rule="nonzero" fill-opacity="1" /><path clip-path="url(#clip120)" d="M343.086 1517.37 Q339.475 1517.37 337.647 1520.93 Q335.841 1524.47 335.841 1531.6 Q335.841 1538.71 337.647 1542.27 Q339.475 1545.82 343.086 1545.82 Q346.721 1545.82 348.526 1542.27 Q350.355 1538.71 350.355 1531.6 Q350.355 1524.47 348.526 1520.93 Q346.721 1517.37 343.086 1517.37 M343.086 1513.66 Q348.897 1513.66 351.952 1518.27 Q355.031 1522.85 355.031 1531.6 Q355.031 1540.33 351.952 1544.94 Q348.897 1549.52 343.086 1549.52 Q337.276 1549.52 334.198 1544.94 Q331.142 1540.33 331.142 1531.6 Q331.142 1522.85 334.198 1518.27 Q337.276 1513.66 343.086 1513.66 Z" fill="#000000" fill-rule="nonzero" fill-opacity="1" /><path clip-path="url(#clip120)" d="M734.716 1532.02 L764.391 1532.02 L764.391 1535.95 L734.716 1535.95 L734.716 1532.02 Z" fill="#000000" fill-rule="nonzero" fill-opacity="1" /><path clip-path="url(#clip120)" d="M784.484 1517.37 Q780.873 1517.37 779.044 1520.93 Q777.238 1524.47 777.238 1531.6 Q777.238 1538.71 779.044 1542.27 Q780.873 1545.82 784.484 1545.82 Q788.118 1545.82 789.924 1542.27 Q791.752 1538.71 791.752 1531.6 Q791.752 1524.47 789.924 1520.93 Q788.118 1517.37 784.484 1517.37 M784.484 1513.66 Q790.294 1513.66 793.349 1518.27 Q796.428 1522.85 796.428 1531.6 Q796.428 1540.33 793.349 1544.94 Q790.294 1549.52 784.484 1549.52 Q778.674 1549.52 775.595 1544.94 Q772.539 1540.33 772.539 1531.6 Q772.539 1522.85 775.595 1518.27 Q778.674 1513.66 784.484 1513.66 Z" fill="#000000" fill-rule="nonzero" fill-opacity="1" /><path clip-path="url(#clip120)" d="M804.646 1542.97 L809.53 1542.97 L809.53 1548.85 L804.646 1548.85 L804.646 1542.97 Z" fill="#000000" fill-rule="nonzero" fill-opacity="1" /><path clip-path="url(#clip120)" d="M819.761 1514.29 L838.118 1514.29 L838.118 1518.22 L824.044 1518.22 L824.044 1526.7 Q825.062 1526.35 826.081 1526.19 Q827.099 1526 828.118 1526 Q833.905 1526 837.284 1529.17 Q840.664 1532.34 840.664 1537.76 Q840.664 1543.34 837.192 1546.44 Q833.72 1549.52 827.4 1549.52 Q825.224 1549.52 822.956 1549.15 Q820.71 1548.78 818.303 1548.04 L818.303 1543.34 Q820.386 1544.47 822.609 1545.03 Q824.831 1545.58 827.308 1545.58 Q831.312 1545.58 833.65 1543.48 Q835.988 1541.37 835.988 1537.76 Q835.988 1534.15 833.65 1532.04 Q831.312 1529.94 827.308 1529.94 Q825.433 1529.94 823.558 1530.35 Q821.706 1530.77 819.761 1531.65 L819.761 1514.29 Z" fill="#000000" fill-rule="nonzero" fill-opacity="1" /><path clip-path="url(#clip120)" d="M1251.21 1517.37 Q1247.59 1517.37 1245.77 1520.93 Q1243.96 1524.47 1243.96 1531.6 Q1243.96 1538.71 1245.77 1542.27 Q1247.59 1545.82 1251.21 1545.82 Q1254.84 1545.82 1256.64 1542.27 Q1258.47 1538.71 1258.47 1531.6 Q1258.47 1524.47 1256.64 1520.93 Q1254.84 1517.37 1251.21 1517.37 M1251.21 1513.66 Q1257.02 1513.66 1260.07 1518.27 Q1263.15 1522.85 1263.15 1531.6 Q1263.15 1540.33 1260.07 1544.94 Q1257.02 1549.52 1251.21 1549.52 Q1245.39 1549.52 1242.32 1544.94 Q1239.26 1540.33 1239.26 1531.6 Q1239.26 1522.85 1242.32 1518.27 Q1245.39 1513.66 1251.21 1513.66 Z" fill="#000000" fill-rule="nonzero" fill-opacity="1" /><path clip-path="url(#clip120)" d="M1271.37 1542.97 L1276.25 1542.97 L1276.25 1548.85 L1271.37 1548.85 L1271.37 1542.97 Z" fill="#000000" fill-rule="nonzero" fill-opacity="1" /><path clip-path="url(#clip120)" d="M1296.44 1517.37 Q1292.83 1517.37 1291 1520.93 Q1289.19 1524.47 1289.19 1531.6 Q1289.19 1538.71 1291 1542.27 Q1292.83 1545.82 1296.44 1545.82 Q1300.07 1545.82 1301.88 1542.27 Q1303.7 1538.71 1303.7 1531.6 Q1303.7 1524.47 1301.88 1520.93 Q1300.07 1517.37 1296.44 1517.37 M1296.44 1513.66 Q1302.25 1513.66 1305.3 1518.27 Q1308.38 1522.85 1308.38 1531.6 Q1308.38 1540.33 1305.3 1544.94 Q1302.25 1549.52 1296.44 1549.52 Q1290.63 1549.52 1287.55 1544.94 Q1284.49 1540.33 1284.49 1531.6 Q1284.49 1522.85 1287.55 1518.27 Q1290.63 1513.66 1296.44 1513.66 Z" fill="#000000" fill-rule="nonzero" fill-opacity="1" /><path clip-path="url(#clip120)" d="M1737.83 1517.37 Q1734.22 1517.37 1732.39 1520.93 Q1730.59 1524.47 1730.59 1531.6 Q1730.59 1538.71 1732.39 1542.27 Q1734.22 1545.82 1737.83 1545.82 Q1741.47 1545.82 1743.27 1542.27 Q1745.1 1538.71 1745.1 1531.6 Q1745.1 1524.47 1743.27 1520.93 Q1741.47 1517.37 1737.83 1517.37 M1737.83 1513.66 Q1743.64 1513.66 1746.7 1518.27 Q1749.78 1522.85 1749.78 1531.6 Q1749.78 1540.33 1746.7 1544.94 Q1743.64 1549.52 1737.83 1549.52 Q1732.02 1549.52 1728.94 1544.94 Q1725.89 1540.33 1725.89 1531.6 Q1725.89 1522.85 1728.94 1518.27 Q1732.02 1513.66 1737.83 1513.66 Z" fill="#000000" fill-rule="nonzero" fill-opacity="1" /><path clip-path="url(#clip120)" d="M1758 1542.97 L1762.88 1542.97 L1762.88 1548.85 L1758 1548.85 L1758 1542.97 Z" fill="#000000" fill-rule="nonzero" fill-opacity="1" /><path clip-path="url(#clip120)" d="M1773.11 1514.29 L1791.47 1514.29 L1791.47 1518.22 L1777.39 1518.22 L1777.39 1526.7 Q1778.41 1526.35 1779.43 1526.19 Q1780.45 1526 1781.47 1526 Q1787.25 1526 1790.63 1529.17 Q1794.01 1532.34 1794.01 1537.76 Q1794.01 1543.34 1790.54 1546.44 Q1787.07 1549.52 1780.75 1549.52 Q1778.57 1549.52 1776.31 1549.15 Q1774.06 1548.78 1771.65 1548.04 L1771.65 1543.34 Q1773.74 1544.47 1775.96 1545.03 Q1778.18 1545.58 1780.66 1545.58 Q1784.66 1545.58 1787 1543.48 Q1789.34 1541.37 1789.34 1537.76 Q1789.34 1534.15 1787 1532.04 Q1784.66 1529.94 1780.66 1529.94 Q1778.78 1529.94 1776.91 1530.35 Q1775.06 1530.77 1773.11 1531.65 L1773.11 1514.29 Z" fill="#000000" fill-rule="nonzero" fill-opacity="1" /><path clip-path="url(#clip120)" d="M2213.24 1544.91 L2220.87 1544.91 L2220.87 1518.55 L2212.56 1520.21 L2212.56 1515.95 L2220.83 1514.29 L2225.5 1514.29 L2225.5 1544.91 L2233.14 1544.91 L2233.14 1548.85 L2213.24 1548.85 L2213.24 1544.91 Z" fill="#000000" fill-rule="nonzero" fill-opacity="1" /><path clip-path="url(#clip120)" d="M2242.59 1542.97 L2247.47 1542.97 L2247.47 1548.85 L2242.59 1548.85 L2242.59 1542.97 Z" fill="#000000" fill-rule="nonzero" fill-opacity="1" /><path clip-path="url(#clip120)" d="M2267.66 1517.37 Q2264.05 1517.37 2262.22 1520.93 Q2260.41 1524.47 2260.41 1531.6 Q2260.41 1538.71 2262.22 1542.27 Q2264.05 1545.82 2267.66 1545.82 Q2271.29 1545.82 2273.1 1542.27 Q2274.92 1538.71 2274.92 1531.6 Q2274.92 1524.47 2273.1 1520.93 Q2271.29 1517.37 2267.66 1517.37 M2267.66 1513.66 Q2273.47 1513.66 2276.52 1518.27 Q2279.6 1522.85 2279.6 1531.6 Q2279.6 1540.33 2276.52 1544.94 Q2273.47 1549.52 2267.66 1549.52 Q2261.85 1549.52 2258.77 1544.94 Q2255.71 1540.33 2255.71 1531.6 Q2255.71 1522.85 2258.77 1518.27 Q2261.85 1513.66 2267.66 1513.66 Z" fill="#000000" fill-rule="nonzero" fill-opacity="1" /><polyline clip-path="url(#clip122)" style="stroke:#000000; stroke-linecap:round; stroke-linejoin:round; stroke-width:2; stroke-opacity:0.1; fill:none" points="193.936,1445.72 2352.76,1445.72 "/>
<polyline clip-path="url(#clip122)" style="stroke:#000000; stroke-linecap:round; stroke-linejoin:round; stroke-width:2; stroke-opacity:0.1; fill:none" points="193.936,1106.61 2352.76,1106.61 "/>
<polyline clip-path="url(#clip122)" style="stroke:#000000; stroke-linecap:round; stroke-linejoin:round; stroke-width:2; stroke-opacity:0.1; fill:none" points="193.936,767.508 2352.76,767.508 "/>
<polyline clip-path="url(#clip122)" style="stroke:#000000; stroke-linecap:round; stroke-linejoin:round; stroke-width:2; stroke-opacity:0.1; fill:none" points="193.936,428.405 2352.76,428.405 "/>
<polyline clip-path="url(#clip122)" style="stroke:#000000; stroke-linecap:round; stroke-linejoin:round; stroke-width:2; stroke-opacity:0.1; fill:none" points="193.936,89.3009 2352.76,89.3009 "/>
<polyline clip-path="url(#clip120)" style="stroke:#000000; stroke-linecap:round; stroke-linejoin:round; stroke-width:4; stroke-opacity:1; fill:none" points="193.936,1486.45 193.936,47.2441 "/>
<polyline clip-path="url(#clip120)" style="stroke:#000000; stroke-linecap:round; stroke-linejoin:round; stroke-width:4; stroke-opacity:1; fill:none" points="193.936,1445.72 212.834,1445.72 "/>
<polyline clip-path="url(#clip120)" style="stroke:#000000; stroke-linecap:round; stroke-linejoin:round; stroke-width:4; stroke-opacity:1; fill:none" points="193.936,1106.61 212.834,1106.61 "/>
<polyline clip-path="url(#clip120)" style="stroke:#000000; stroke-linecap:round; stroke-linejoin:round; stroke-width:4; stroke-opacity:1; fill:none" points="193.936,767.508 212.834,767.508 "/>
<polyline clip-path="url(#clip120)" style="stroke:#000000; stroke-linecap:round; stroke-linejoin:round; stroke-width:4; stroke-opacity:1; fill:none" points="193.936,428.405 212.834,428.405 "/>
<polyline clip-path="url(#clip120)" style="stroke:#000000; stroke-linecap:round; stroke-linejoin:round; stroke-width:4; stroke-opacity:1; fill:none" points="193.936,89.3009 212.834,89.3009 "/>
<path clip-path="url(#clip120)" d="M50.9921 1446.17 L80.6679 1446.17 L80.6679 1450.1 L50.9921 1450.1 L50.9921 1446.17 Z" fill="#000000" fill-rule="nonzero" fill-opacity="1" /><path clip-path="url(#clip120)" d="M91.5706 1459.06 L99.2095 1459.06 L99.2095 1432.69 L90.8993 1434.36 L90.8993 1430.1 L99.1632 1428.44 L103.839 1428.44 L103.839 1459.06 L111.478 1459.06 L111.478 1463 L91.5706 1463 L91.5706 1459.06 Z" fill="#000000" fill-rule="nonzero" fill-opacity="1" /><path clip-path="url(#clip120)" d="M120.922 1457.12 L125.807 1457.12 L125.807 1463 L120.922 1463 L120.922 1457.12 Z" fill="#000000" fill-rule="nonzero" fill-opacity="1" /><path clip-path="url(#clip120)" d="M145.992 1431.51 Q142.381 1431.51 140.552 1435.08 Q138.746 1438.62 138.746 1445.75 Q138.746 1452.86 140.552 1456.42 Q142.381 1459.96 145.992 1459.96 Q149.626 1459.96 151.431 1456.42 Q153.26 1452.86 153.26 1445.75 Q153.26 1438.62 151.431 1435.08 Q149.626 1431.51 145.992 1431.51 M145.992 1427.81 Q151.802 1427.81 154.857 1432.42 Q157.936 1437 157.936 1445.75 Q157.936 1454.48 154.857 1459.08 Q151.802 1463.67 145.992 1463.67 Q140.181 1463.67 137.103 1459.08 Q134.047 1454.48 134.047 1445.75 Q134.047 1437 137.103 1432.42 Q140.181 1427.81 145.992 1427.81 Z" fill="#000000" fill-rule="nonzero" fill-opacity="1" /><path clip-path="url(#clip120)" d="M51.9875 1107.06 L81.6633 1107.06 L81.6633 1111 L51.9875 1111 L51.9875 1107.06 Z" fill="#000000" fill-rule="nonzero" fill-opacity="1" /><path clip-path="url(#clip120)" d="M101.756 1092.41 Q98.1447 1092.41 96.316 1095.98 Q94.5104 1099.52 94.5104 1106.65 Q94.5104 1113.75 96.316 1117.32 Q98.1447 1120.86 101.756 1120.86 Q105.39 1120.86 107.196 1117.32 Q109.024 1113.75 109.024 1106.65 Q109.024 1099.52 107.196 1095.98 Q105.39 1092.41 101.756 1092.41 M101.756 1088.71 Q107.566 1088.71 110.621 1093.31 Q113.7 1097.9 113.7 1106.65 Q113.7 1115.37 110.621 1119.98 Q107.566 1124.56 101.756 1124.56 Q95.9456 1124.56 92.8669 1119.98 Q89.8114 1115.37 89.8114 1106.65 Q89.8114 1097.9 92.8669 1093.31 Q95.9456 1088.71 101.756 1088.71 Z" fill="#000000" fill-rule="nonzero" fill-opacity="1" /><path clip-path="url(#clip120)" d="M121.918 1118.01 L126.802 1118.01 L126.802 1123.89 L121.918 1123.89 L121.918 1118.01 Z" fill="#000000" fill-rule="nonzero" fill-opacity="1" /><path clip-path="url(#clip120)" d="M137.033 1089.33 L155.39 1089.33 L155.39 1093.27 L141.316 1093.27 L141.316 1101.74 Q142.334 1101.39 143.353 1101.23 Q144.371 1101.04 145.39 1101.04 Q151.177 1101.04 154.556 1104.22 Q157.936 1107.39 157.936 1112.8 Q157.936 1118.38 154.464 1121.48 Q150.992 1124.56 144.672 1124.56 Q142.496 1124.56 140.228 1124.19 Q137.982 1123.82 135.575 1123.08 L135.575 1118.38 Q137.658 1119.52 139.881 1120.07 Q142.103 1120.63 144.58 1120.63 Q148.584 1120.63 150.922 1118.52 Q153.26 1116.42 153.26 1112.8 Q153.26 1109.19 150.922 1107.09 Q148.584 1104.98 144.58 1104.98 Q142.705 1104.98 140.83 1105.4 Q138.978 1105.81 137.033 1106.69 L137.033 1089.33 Z" fill="#000000" fill-rule="nonzero" fill-opacity="1" /><path clip-path="url(#clip120)" d="M100.76 753.307 Q97.1493 753.307 95.3206 756.872 Q93.515 760.413 93.515 767.543 Q93.515 774.649 95.3206 778.214 Q97.1493 781.756 100.76 781.756 Q104.395 781.756 106.2 778.214 Q108.029 774.649 108.029 767.543 Q108.029 760.413 106.2 756.872 Q104.395 753.307 100.76 753.307 M100.76 749.603 Q106.571 749.603 109.626 754.21 Q112.705 758.793 112.705 767.543 Q112.705 776.27 109.626 780.876 Q106.571 785.46 100.76 785.46 Q94.9502 785.46 91.8715 780.876 Q88.816 776.27 88.816 767.543 Q88.816 758.793 91.8715 754.21 Q94.9502 749.603 100.76 749.603 Z" fill="#000000" fill-rule="nonzero" fill-opacity="1" /><path clip-path="url(#clip120)" d="M120.922 778.909 L125.807 778.909 L125.807 784.788 L120.922 784.788 L120.922 778.909 Z" fill="#000000" fill-rule="nonzero" fill-opacity="1" /><path clip-path="url(#clip120)" d="M145.992 753.307 Q142.381 753.307 140.552 756.872 Q138.746 760.413 138.746 767.543 Q138.746 774.649 140.552 778.214 Q142.381 781.756 145.992 781.756 Q149.626 781.756 151.431 778.214 Q153.26 774.649 153.26 767.543 Q153.26 760.413 151.431 756.872 Q149.626 753.307 145.992 753.307 M145.992 749.603 Q151.802 749.603 154.857 754.21 Q157.936 758.793 157.936 767.543 Q157.936 776.27 154.857 780.876 Q151.802 785.46 145.992 785.46 Q140.181 785.46 137.103 780.876 Q134.047 776.27 134.047 767.543 Q134.047 758.793 137.103 754.21 Q140.181 749.603 145.992 749.603 Z" fill="#000000" fill-rule="nonzero" fill-opacity="1" /><path clip-path="url(#clip120)" d="M101.756 414.203 Q98.1447 414.203 96.316 417.768 Q94.5104 421.31 94.5104 428.439 Q94.5104 435.546 96.316 439.111 Q98.1447 442.652 101.756 442.652 Q105.39 442.652 107.196 439.111 Q109.024 435.546 109.024 428.439 Q109.024 421.31 107.196 417.768 Q105.39 414.203 101.756 414.203 M101.756 410.5 Q107.566 410.5 110.621 415.106 Q113.7 419.689 113.7 428.439 Q113.7 437.166 110.621 441.773 Q107.566 446.356 101.756 446.356 Q95.9456 446.356 92.8669 441.773 Q89.8114 437.166 89.8114 428.439 Q89.8114 419.689 92.8669 415.106 Q95.9456 410.5 101.756 410.5 Z" fill="#000000" fill-rule="nonzero" fill-opacity="1" /><path clip-path="url(#clip120)" d="M121.918 439.805 L126.802 439.805 L126.802 445.685 L121.918 445.685 L121.918 439.805 Z" fill="#000000" fill-rule="nonzero" fill-opacity="1" /><path clip-path="url(#clip120)" d="M137.033 411.125 L155.39 411.125 L155.39 415.06 L141.316 415.06 L141.316 423.532 Q142.334 423.185 143.353 423.023 Q144.371 422.837 145.39 422.837 Q151.177 422.837 154.556 426.009 Q157.936 429.18 157.936 434.597 Q157.936 440.175 154.464 443.277 Q150.992 446.356 144.672 446.356 Q142.496 446.356 140.228 445.986 Q137.982 445.615 135.575 444.874 L135.575 440.175 Q137.658 441.31 139.881 441.865 Q142.103 442.421 144.58 442.421 Q148.584 442.421 150.922 440.314 Q153.26 438.208 153.26 434.597 Q153.26 430.986 150.922 428.879 Q148.584 426.773 144.58 426.773 Q142.705 426.773 140.83 427.189 Q138.978 427.606 137.033 428.486 L137.033 411.125 Z" fill="#000000" fill-rule="nonzero" fill-opacity="1" /><path clip-path="url(#clip120)" d="M91.5706 102.646 L99.2095 102.646 L99.2095 76.2801 L90.8993 77.9468 L90.8993 73.6876 L99.1632 72.0209 L103.839 72.0209 L103.839 102.646 L111.478 102.646 L111.478 106.581 L91.5706 106.581 L91.5706 102.646 Z" fill="#000000" fill-rule="nonzero" fill-opacity="1" /><path clip-path="url(#clip120)" d="M120.922 100.701 L125.807 100.701 L125.807 106.581 L120.922 106.581 L120.922 100.701 Z" fill="#000000" fill-rule="nonzero" fill-opacity="1" /><path clip-path="url(#clip120)" d="M145.992 75.0996 Q142.381 75.0996 140.552 78.6644 Q138.746 82.206 138.746 89.3356 Q138.746 96.4421 140.552 100.007 Q142.381 103.549 145.992 103.549 Q149.626 103.549 151.431 100.007 Q153.26 96.4421 153.26 89.3356 Q153.26 82.206 151.431 78.6644 Q149.626 75.0996 145.992 75.0996 M145.992 71.3959 Q151.802 71.3959 154.857 76.0024 Q157.936 80.5857 157.936 89.3356 Q157.936 98.0624 154.857 102.669 Q151.802 107.252 145.992 107.252 Q140.181 107.252 137.103 102.669 Q134.047 98.0624 134.047 89.3356 Q134.047 80.5857 137.103 76.0024 Q140.181 71.3959 145.992 71.3959 Z" fill="#000000" fill-rule="nonzero" fill-opacity="1" /><polyline clip-path="url(#clip122)" style="stroke:#009af9; stroke-linecap:round; stroke-linejoin:round; stroke-width:4; stroke-opacity:1; fill:none" points="1273.82,89.3009 1370.79,92.6125 1466.8,102.878 1561.04,119.436 1652.19,141.955 1739.78,170.765 1823.09,204.543 1900.95,242.957 1973.11,285.676 2038.62,332.038 2097.49,381.712 2149.24,433.538 2193.39,487.682 2229.47,543.481 2257.48,600.357 2277.42,658.227 2288.81,716.634 2291.66,775.327 2286.91,833.946 2272.67,892.271 2250.83,949.975 2220.45,1006.6 2182.47,1061.91 2136.42,1115.55 2082.77,1166.88 2022.01,1215.56 1954.59,1260.93 1880.53,1302.66 1801.25,1340.08 1716.99,1372.53 1628.21,1399.69 1536.11,1420.88 1441.4,1435.45 1345.03,1444.06 1247.95,1445.38 1151.1,1440.42 1055.56,1428.5 962.156,1410.28 871.718,1385.78 785.316,1355.97 703.187,1320.87 626.754,1281.13 556.493,1237.09 492.403,1190.06 435.435,1139.73 386.062,1087.24 343.811,1032.6 310.104,976.468 284.468,919.261 266.428,861.225 256.934,802.735 256.934,744.058 263.58,685.464 279.721,627.347 303.933,569.974 336.689,513.512 377.042,458.705 424.991,405.555 480.535,354.888 543.2,306.87 612.037,262.495 687.52,221.763 768.226,185.667 853.916,154.87 943.641,129.371 1036.57,109.833 1131.76,96.5863 1228.45,89.9632 1325.57,90.2944 1422.18,97.2486 1517.36,110.826 1609.93,130.695 1699.42,156.526 1784.64,187.985 1865.34,224.413 1940.35,265.476 2008.71,310.182 2070.9,358.2 2125.97,408.866 2173.45,462.183 2213.33,517.154 2245.13,573.616 2268.87,631.155 2284.06,689.314 2291.66,747.908 2289.76,806.605 2280.26,865.117 2262.22,923.069 2235.64,980.276 2200.98,1036.24 2158.73,1090.72 2108.41,1143.04 2050.97,1193.04 1986.88,1240.07 1915.67,1283.78 1839.23,1323.19 1756.87,1357.96 1670.23,1387.76 1579.55,1411.61 1485.91,1429.49 1390.19,1440.75 1293.31,1445.72 1196.26,1443.4 1099.95,1434.79 1005.36,1419.55 913.495,1398.03 824.957,1370.54 741.166,1337.76 661.884,1300.01 588.775,1258.28 521.362,1212.58 461.071,1163.57 408.375,1111.91 362.8,1058.26 324.821,1002.96 294.913,946.167 274.024,888.463 260.732,830.097 255.984,771.472 259.782,712.785 271.176,654.419 292.064,596.632 320.548,539.673 357.103,484.039 401.728,430.06 453.475,378.4 512.817,329.058 579.28,282.696 651.44,240.308 729.772,202.225 813.326,168.447 901.389,140.299 992.776,118.111 1087.13,101.885 1183.21,92.2813 1280.2,89.3009 1377.14,93.2748 1473.09,103.541 1566.97,120.761 1658.12,143.942 1745.47,172.752 1828.31,206.861 1905.7,245.607 1977.38,288.657 2042.89,335.35 2101.29,385.023 2152.56,437.18 2195.76,491.324 2231.37,547.124 2259.38,604.166 2278.36,662.035 2288.81,720.526 2291.66,779.182 2285.96,837.796 2271.72,896.08 2248.93,953.618 2218.07,1010.25 2179.62,1065.55 2133.1,1118.86 2078.97,1170.19 2017.73,1218.54 1949.85,1263.91 1875.79,1305.31 1796.03,1342.4 1711.29,1374.52 1622.28,1401.01 1529.94,1421.87 1435.11,1436.44 1338.62,1444.06 1241.57,1445.38 1144.81,1439.75 1049.27,1427.5 955.984,1408.63 865.784,1384.12 779.619,1353.65 697.964,1318.22 622.007,1278.15 552.22,1234.11 488.605,1186.75 432.112,1136.42 382.739,1083.6 341.437,1028.96 308.205,972.825 282.569,915.535 265.479,857.417 256.934,798.885 256.934,740.188 264.529,681.656 281.62,623.538 305.832,566.165 339.063,509.869 379.891,455.063 428.314,402.243 484.333,351.576 547.473,303.89 617.259,259.846 692.742,219.445 773.922,183.68 859.85,152.883 949.575,127.715 "/>
<polyline clip-path="url(#clip122)" style="stroke:#e26f46; stroke-linecap:round; stroke-linejoin:round; stroke-width:4; stroke-opacity:1; fill:none" points="1273.82,89.3009 1364.5,93.2748 1462.29,100.229 1553.44,115.131 1644.83,134.669 1722.68,160.499 1797.93,191.297 1871.99,226.068 1942.25,264.482 2006.34,307.864 2063.78,354.888 2115.05,404.893 2160.16,457.215 2197.18,512.518 2229.47,568.815 2253.68,627.429 2270.77,687.037 2276.47,748.301 2276.47,808.24 2268.87,867.517 2255.58,926.132 2231.84,984.747 2204.31,1040.38 2170.6,1094.36 2122.65,1147.01 2070.9,1195.36 2007.76,1241.06 1937.5,1284.11 1862.02,1321.86 1784.16,1354.98 1703.22,1383.13 1621.33,1405.65 1530.89,1423.53 1440.45,1435.12 1349.54,1442.07 1254.59,1443.73 1161.78,1439.09 1070.63,1429.16 984.706,1413.26 899.728,1392.4 818.073,1366.57 737.368,1336.1 660.46,1301.33 591.149,1261.59 526.584,1217.88 470.565,1170.19 420.243,1119.86 375.618,1066.21 338.588,1010.58 308.205,953.287 286.367,894.672 272.125,835.064 265.479,775.125 267.378,714.192 275.923,654.253 289.216,595.638 315.801,536.693 346.659,480.727 387.486,426.087 436.384,374.757 485.282,327.733 549.846,281.371 615.835,240.308 692.742,202.887 776.771,170.103 858.426,143.279 949.813,120.43 1035.74,104.534 1129.5,92.6125 1219.94,87.9763 1309.43,88.6386 1406.27,93.2748 1495.29,104.865 1583.35,121.092 1667.38,143.279 1751.88,170.103 1830.21,201.232 1905.22,237.328 1972.16,278.06 2034.35,323.097 2090.84,371.115 2140.22,422.444 2184.37,476.422 2220.92,532.388 2249.88,591.002 2272.67,650.279 2284.06,711.543 2290.71,772.144 2287.86,833.739 2275.52,895.003 2255.58,954.28 2226.62,1012.56 2187.22,1069.85 2147.34,1122.84 2096.07,1173.17 2030.55,1221.85 1957.92,1266.89 1892.4,1305.31 1814.07,1340.74 1735.98,1370.54 1655.51,1395.71 1559.85,1417.9 1471.07,1431.81 1384.43,1440.09 1289.25,1444.39 1201.19,1441.74 1109.56,1434.13 1022.92,1420.55 934.858,1402.33 854.39,1378.16 773.922,1350.01 697.49,1317.23 625.33,1279.48 561.715,1237.42 503.797,1191.39 449.677,1142.71 403.627,1090.72 363.275,1036.74 329.094,980.773 302.508,923.483 284.468,864.206 273.075,804.267 270.226,744.327 274.974,684.388 287.317,625.111 308.205,566.497 338.114,509.207 373.244,453.904 420.243,400.587 468.666,351.576 525.635,305.215 595.421,261.171 671.854,221.763 750.66,187.985 834.689,158.181 914.682,135.332 1002.51,116.456 1090.33,103.872 1179.11,96.2552 1271.45,93.2748 1365.92,95.924 1465.14,103.541 1553.68,118.774 1636.05,138.974 1725.53,162.818 1804.1,193.284 1879.59,227.724 1949.85,267.463 2012.51,311.507 2069.48,358.531 2120.75,408.866 2164.43,461.851 2203.36,516.823 2234.21,574.113 2258.43,632.728 2275.52,692.667 2283.11,753.6 2282.16,814.201 2273.62,874.141 2256.53,933.749 2230.42,992.694 2194.34,1048.99 2153.51,1103.96 2109.83,1153.97 2053.34,1201.32 1991.62,1246.69 1920.41,1288.42 1848.25,1324.51 1769.92,1356.97 1683.52,1385.11 1593.79,1407.3 1506.2,1423.53 1418.85,1433.79 1327.47,1439.75 1235.84,1439.09 1139.47,1434.79 1051.17,1423.2 961.444,1407.3 879.551,1384.78 804.543,1357.3 726.923,1326.17 658.561,1290.07 593.048,1250 529.433,1206.62 474.363,1159.6 426.415,1109.26 385.587,1055.95 348.558,1001.3 319.599,945.008 295.862,888.049 282.569,828.11 276.873,768.833 278.772,708.894 288.266,650.279 303.933,591.996 329.568,534.043 359.477,479.734 398.88,426.087 445.879,375.42 497.151,329.058 "/>
<polyline clip-path="url(#clip122)" style="stroke:#3da44d; stroke-linecap:round; stroke-linejoin:round; stroke-width:4; stroke-opacity:1; fill:none" points="1273.82,89.3009 1370.19,92.6125 1465.61,102.878 1559.14,119.767 1650.29,142.948 1737.16,171.428 1820.72,204.874 1899.52,242.957 1972.63,285.345 2038.15,331.045 2097.01,380.056 2148.29,431.716 2191.96,485.695 2228.04,541.329 2255.58,598.37 2274.57,656.405 2285.96,714.979 2287.86,773.883 2282.16,832.58 2268.87,890.781 2247.03,948.651 2216.65,1005.11 2179.14,1060.08 2133.1,1113.24 2079.45,1164.23 2019.63,1212.58 1952.69,1257.62 1879.59,1299.01 1800.78,1336.43 1716.28,1368.89 1627.5,1396.04 1535.88,1417.57 1441.88,1432.47 1345.98,1440.75 1249.61,1442.4 1154.19,1437.11 1059,1425.52 965.479,1407.3 875.279,1382.8 788.165,1352.66 705.56,1317.56 628.653,1278.15 556.968,1235.1 491.929,1188.08 434.011,1138.07 384.163,1085.91 342.386,1031.61 308.205,975.474 282.569,918.184 265.479,859.901 256.934,800.914 256.934,741.74 265.479,682.981 282.569,624.946 307.256,567.821 339.538,511.69 379.416,457.215 426.89,404.893 481.959,354.557 544.624,307.202 612.987,263.158 687.046,222.757 767.276,186.661 852.254,155.201 941.03,129.371 1033.6,109.501 1128.08,95.924 1224.45,88.6386 1320.82,88.6386 1416.72,95.5929 1511.66,109.17 1604.71,129.371 1694.44,155.201 1780.84,186.33 1862.49,222.426 1938.45,262.827 2007.76,307.202 2070.43,354.888 2125.5,405.224 2173.92,457.877 2213.8,512.849 2245.61,569.477 2268.87,627.098 2284.06,685.423 2290.71,744.245 2288.81,802.942 2279.31,861.722 2261.27,919.592 2235.16,976.799 2200.51,1032.6 2158.73,1086.91 2109.36,1138.73 2052.39,1188.41 1987.83,1235.1 1917.56,1278.48 1842.08,1317.89 1760.9,1352.66 1674.97,1382.8 1584.77,1407.3 1492.67,1425.85 1397.25,1438.1 1300.88,1443.07 1204.98,1441.41 1109.09,1433.13 1014.38,1418.23 921.803,1397.04 832.552,1369.88 747.337,1337.1 668.056,1299.68 593.522,1258.28 525.635,1213.24 463.919,1164.9 409.799,1113.57 363.749,1059.92 326.245,1004.62 296.812,947.988 275.923,890.202 262.63,831.711 257.883,772.765 261.681,713.737 274.024,655.578 294.913,598.039 322.922,541.66 359.477,486.191 403.627,432.71 454.424,381.049 512.342,332.369 576.906,286.339 648.117,243.62 725.024,205.205 807.154,171.428 893.556,142.617 984.231,119.436 1077.75,102.547 1172.7,92.2813 1269.07,88.6386 1365.44,91.619 1461.82,101.223 1556.29,117.78 1648.15,140.63 1735.98,169.109 1820.72,202.556 1899.52,240.639 1972.63,283.027 2039.1,329.058 2097.96,378.069 2150.19,429.729 2194.34,483.708 2230.42,539.507 2258.43,596.797 2277.42,654.584 2288.81,713.075 2291.66,772.269 2285.96,831.09 2272.67,889.539 2250.83,947.16 2220.92,1003.62 2183.42,1058.76 2137.37,1111.91 2084.67,1162.91 2024.38,1211.26 1956.97,1256.29 1883.86,1298.02 1804.58,1335.44 1721.02,1368.23 1634.15,1396.04 1542.52,1417.9 1448.52,1433.46 1353.58,1442.4 1257.68,1444.72 1161.31,1439.75 1065.65,1428.5 971.888,1410.61 881.213,1386.44 793.149,1356.63 710.308,1321.86 632.925,1282.46 560.765,1239.41 495.252,1192.71 436.859,1143.04 386.062,1090.72 343.336,1036.41 308.68,980.442 282.569,923.152 264.529,865.034 255.035,806.295 255.035,747.391 262.63,688.528 278.772,630.41 302.983,573.12 334.316,516.823 373.719,462.017 420.718,409.198 475.313,358.862 537.029,311.175 605.391,266.469 679.45,225.737 759.206,189.31 843.709,157.519 932.01,131.027 "/>
<path clip-path="url(#clip120)" d="M265.897 302.578 L781.708 302.578 L781.708 95.2176 L265.897 95.2176  Z" fill="#ffffff" fill-rule="evenodd" fill-opacity="1"/>
<polyline clip-path="url(#clip120)" style="stroke:#000000; stroke-linecap:round; stroke-linejoin:round; stroke-width:4; stroke-opacity:1; fill:none" points="265.897,302.578 781.708,302.578 781.708,95.2176 265.897,95.2176 265.897,302.578 "/>
<polyline clip-path="url(#clip120)" style="stroke:#009af9; stroke-linecap:round; stroke-linejoin:round; stroke-width:4; stroke-opacity:1; fill:none" points="289.884,147.058 433.805,147.058 "/>
<path clip-path="url(#clip120)" d="M465.199 131.051 L465.199 138.412 L473.972 138.412 L473.972 141.722 L465.199 141.722 L465.199 155.796 Q465.199 158.967 466.056 159.87 Q466.935 160.773 469.597 160.773 L473.972 160.773 L473.972 164.338 L469.597 164.338 Q464.667 164.338 462.792 162.509 Q460.917 160.657 460.917 155.796 L460.917 141.722 L457.792 141.722 L457.792 138.412 L460.917 138.412 L460.917 131.051 L465.199 131.051 Z" fill="#000000" fill-rule="nonzero" fill-opacity="1" /><path clip-path="url(#clip120)" d="M494.597 142.393 Q493.88 141.977 493.023 141.791 Q492.19 141.583 491.171 141.583 Q487.56 141.583 485.616 143.944 Q483.694 146.282 483.694 150.68 L483.694 164.338 L479.412 164.338 L479.412 138.412 L483.694 138.412 L483.694 142.44 Q485.037 140.078 487.19 138.944 Q489.343 137.787 492.421 137.787 Q492.861 137.787 493.393 137.856 Q493.926 137.903 494.574 138.018 L494.597 142.393 Z" fill="#000000" fill-rule="nonzero" fill-opacity="1" /><path clip-path="url(#clip120)" d="M510.847 151.305 Q505.685 151.305 503.694 152.486 Q501.704 153.666 501.704 156.514 Q501.704 158.782 503.185 160.125 Q504.69 161.444 507.259 161.444 Q510.801 161.444 512.93 158.944 Q515.083 156.421 515.083 152.254 L515.083 151.305 L510.847 151.305 M519.342 149.546 L519.342 164.338 L515.083 164.338 L515.083 160.402 Q513.625 162.763 511.449 163.898 Q509.273 165.009 506.125 165.009 Q502.143 165.009 499.782 162.787 Q497.444 160.541 497.444 156.791 Q497.444 152.416 500.361 150.194 Q503.301 147.972 509.111 147.972 L515.083 147.972 L515.083 147.555 Q515.083 144.615 513.139 143.018 Q511.217 141.398 507.722 141.398 Q505.5 141.398 503.393 141.93 Q501.287 142.463 499.342 143.527 L499.342 139.592 Q501.68 138.69 503.879 138.25 Q506.079 137.787 508.162 137.787 Q513.787 137.787 516.565 140.703 Q519.342 143.62 519.342 149.546 Z" fill="#000000" fill-rule="nonzero" fill-opacity="1" /><path clip-path="url(#clip120)" d="M528.115 138.412 L532.375 138.412 L532.375 164.338 L528.115 164.338 L528.115 138.412 M528.115 128.319 L532.375 128.319 L532.375 133.713 L528.115 133.713 L528.115 128.319 Z" fill="#000000" fill-rule="nonzero" fill-opacity="1" /><path clip-path="url(#clip120)" d="M562.837 148.689 L562.837 164.338 L558.578 164.338 L558.578 148.828 Q558.578 145.148 557.143 143.319 Q555.708 141.49 552.838 141.49 Q549.388 141.49 547.398 143.69 Q545.407 145.889 545.407 149.685 L545.407 164.338 L541.125 164.338 L541.125 138.412 L545.407 138.412 L545.407 142.44 Q546.935 140.102 548.995 138.944 Q551.078 137.787 553.787 137.787 Q558.254 137.787 560.546 140.565 Q562.837 143.319 562.837 148.689 Z" fill="#000000" fill-rule="nonzero" fill-opacity="1" /><path clip-path="url(#clip120)" d="M571.333 138.412 L575.592 138.412 L575.592 164.338 L571.333 164.338 L571.333 138.412 M571.333 128.319 L575.592 128.319 L575.592 133.713 L571.333 133.713 L571.333 128.319 Z" fill="#000000" fill-rule="nonzero" fill-opacity="1" /><path clip-path="url(#clip120)" d="M606.055 148.689 L606.055 164.338 L601.796 164.338 L601.796 148.828 Q601.796 145.148 600.36 143.319 Q598.925 141.49 596.055 141.49 Q592.606 141.49 590.615 143.69 Q588.624 145.889 588.624 149.685 L588.624 164.338 L584.342 164.338 L584.342 138.412 L588.624 138.412 L588.624 142.44 Q590.152 140.102 592.212 138.944 Q594.296 137.787 597.004 137.787 Q601.472 137.787 603.763 140.565 Q606.055 143.319 606.055 148.689 Z" fill="#000000" fill-rule="nonzero" fill-opacity="1" /><path clip-path="url(#clip120)" d="M631.61 151.074 Q631.61 146.444 629.689 143.898 Q627.791 141.352 624.342 141.352 Q620.916 141.352 618.995 143.898 Q617.096 146.444 617.096 151.074 Q617.096 155.68 618.995 158.226 Q620.916 160.773 624.342 160.773 Q627.791 160.773 629.689 158.226 Q631.61 155.68 631.61 151.074 M635.87 161.12 Q635.87 167.74 632.93 170.958 Q629.99 174.199 623.925 174.199 Q621.68 174.199 619.689 173.851 Q617.698 173.527 615.823 172.833 L615.823 168.689 Q617.698 169.708 619.527 170.194 Q621.356 170.68 623.254 170.68 Q627.444 170.68 629.527 168.481 Q631.61 166.305 631.61 161.884 L631.61 159.777 Q630.291 162.069 628.231 163.203 Q626.17 164.338 623.3 164.338 Q618.532 164.338 615.615 160.703 Q612.698 157.069 612.698 151.074 Q612.698 145.055 615.615 141.421 Q618.532 137.787 623.3 137.787 Q626.17 137.787 628.231 138.921 Q630.291 140.055 631.61 142.347 L631.61 138.412 L635.87 138.412 L635.87 161.12 Z" fill="#000000" fill-rule="nonzero" fill-opacity="1" /><path clip-path="url(#clip120)" d="M676.772 142.347 L676.772 128.319 L681.031 128.319 L681.031 164.338 L676.772 164.338 L676.772 160.449 Q675.429 162.763 673.369 163.898 Q671.332 165.009 668.462 165.009 Q663.763 165.009 660.8 161.259 Q657.86 157.509 657.86 151.398 Q657.86 145.287 660.8 141.537 Q663.763 137.787 668.462 137.787 Q671.332 137.787 673.369 138.921 Q675.429 140.032 676.772 142.347 M662.258 151.398 Q662.258 156.097 664.18 158.782 Q666.124 161.444 669.504 161.444 Q672.883 161.444 674.828 158.782 Q676.772 156.097 676.772 151.398 Q676.772 146.699 674.828 144.037 Q672.883 141.352 669.504 141.352 Q666.124 141.352 664.18 144.037 Q662.258 146.699 662.258 151.398 Z" fill="#000000" fill-rule="nonzero" fill-opacity="1" /><path clip-path="url(#clip120)" d="M701.587 151.305 Q696.425 151.305 694.434 152.486 Q692.443 153.666 692.443 156.514 Q692.443 158.782 693.925 160.125 Q695.429 161.444 697.999 161.444 Q701.54 161.444 703.67 158.944 Q705.823 156.421 705.823 152.254 L705.823 151.305 L701.587 151.305 M710.082 149.546 L710.082 164.338 L705.823 164.338 L705.823 160.402 Q704.365 162.763 702.189 163.898 Q700.013 165.009 696.865 165.009 Q692.883 165.009 690.522 162.787 Q688.184 160.541 688.184 156.791 Q688.184 152.416 691.101 150.194 Q694.04 147.972 699.851 147.972 L705.823 147.972 L705.823 147.555 Q705.823 144.615 703.878 143.018 Q701.957 141.398 698.462 141.398 Q696.24 141.398 694.133 141.93 Q692.027 142.463 690.082 143.527 L690.082 139.592 Q692.42 138.69 694.619 138.25 Q696.818 137.787 698.902 137.787 Q704.527 137.787 707.304 140.703 Q710.082 143.62 710.082 149.546 Z" fill="#000000" fill-rule="nonzero" fill-opacity="1" /><path clip-path="url(#clip120)" d="M723.068 131.051 L723.068 138.412 L731.841 138.412 L731.841 141.722 L723.068 141.722 L723.068 155.796 Q723.068 158.967 723.925 159.87 Q724.804 160.773 727.466 160.773 L731.841 160.773 L731.841 164.338 L727.466 164.338 Q722.536 164.338 720.661 162.509 Q718.786 160.657 718.786 155.796 L718.786 141.722 L715.661 141.722 L715.661 138.412 L718.786 138.412 L718.786 131.051 L723.068 131.051 Z" fill="#000000" fill-rule="nonzero" fill-opacity="1" /><path clip-path="url(#clip120)" d="M749.225 151.305 Q744.063 151.305 742.073 152.486 Q740.082 153.666 740.082 156.514 Q740.082 158.782 741.563 160.125 Q743.068 161.444 745.637 161.444 Q749.179 161.444 751.309 158.944 Q753.461 156.421 753.461 152.254 L753.461 151.305 L749.225 151.305 M757.721 149.546 L757.721 164.338 L753.461 164.338 L753.461 160.402 Q752.003 162.763 749.827 163.898 Q747.651 165.009 744.503 165.009 Q740.522 165.009 738.161 162.787 Q735.823 160.541 735.823 156.791 Q735.823 152.416 738.739 150.194 Q741.679 147.972 747.489 147.972 L753.461 147.972 L753.461 147.555 Q753.461 144.615 751.517 143.018 Q749.596 141.398 746.1 141.398 Q743.878 141.398 741.772 141.93 Q739.665 142.463 737.721 143.527 L737.721 139.592 Q740.059 138.69 742.258 138.25 Q744.457 137.787 746.54 137.787 Q752.165 137.787 754.943 140.703 Q757.721 143.62 757.721 149.546 Z" fill="#000000" fill-rule="nonzero" fill-opacity="1" /><polyline clip-path="url(#clip120)" style="stroke:#e26f46; stroke-linecap:round; stroke-linejoin:round; stroke-width:4; stroke-opacity:1; fill:none" points="289.884,198.898 433.805,198.898 "/>
<path clip-path="url(#clip120)" d="M457.792 181.618 L462.468 181.618 L462.468 212.242 L479.296 212.242 L479.296 216.178 L457.792 216.178 L457.792 181.618 Z" fill="#000000" fill-rule="nonzero" fill-opacity="1" /><path clip-path="url(#clip120)" d="M496.842 186.224 L490.5 203.423 L503.208 203.423 L496.842 186.224 M494.204 181.618 L499.505 181.618 L512.676 216.178 L507.815 216.178 L504.667 207.312 L489.088 207.312 L485.94 216.178 L481.009 216.178 L494.204 181.618 Z" fill="#000000" fill-rule="nonzero" fill-opacity="1" /><path clip-path="url(#clip120)" d="M553.509 182.752 L553.509 187.312 Q550.847 186.039 548.486 185.414 Q546.125 184.789 543.926 184.789 Q540.106 184.789 538.023 186.27 Q535.963 187.752 535.963 190.483 Q535.963 192.775 537.328 193.955 Q538.717 195.113 542.56 195.83 L545.384 196.409 Q550.615 197.405 553.092 199.928 Q555.592 202.428 555.592 206.641 Q555.592 211.664 552.213 214.256 Q548.856 216.849 542.351 216.849 Q539.898 216.849 537.12 216.293 Q534.365 215.738 531.402 214.65 L531.402 209.835 Q534.25 211.432 536.981 212.242 Q539.713 213.053 542.351 213.053 Q546.356 213.053 548.532 211.479 Q550.708 209.904 550.708 206.988 Q550.708 204.442 549.134 203.006 Q547.583 201.571 544.018 200.854 L541.171 200.298 Q535.939 199.256 533.602 197.034 Q531.264 194.812 531.264 190.854 Q531.264 186.27 534.481 183.631 Q537.722 180.993 543.393 180.993 Q545.824 180.993 548.347 181.432 Q550.87 181.872 553.509 182.752 Z" fill="#000000" fill-rule="nonzero" fill-opacity="1" /><path clip-path="url(#clip120)" d="M573.486 218.585 Q571.68 223.215 569.967 224.627 Q568.254 226.039 565.384 226.039 L561.981 226.039 L561.981 222.474 L564.481 222.474 Q566.24 222.474 567.212 221.64 Q568.185 220.807 569.365 217.705 L570.129 215.761 L559.643 190.252 L564.157 190.252 L572.259 210.529 L580.361 190.252 L584.874 190.252 L573.486 218.585 Z" fill="#000000" fill-rule="nonzero" fill-opacity="1" /><path clip-path="url(#clip120)" d="M610.939 195.229 Q612.536 192.358 614.759 190.993 Q616.981 189.627 619.99 189.627 Q624.041 189.627 626.24 192.474 Q628.439 195.298 628.439 200.529 L628.439 216.178 L624.157 216.178 L624.157 200.668 Q624.157 196.942 622.837 195.136 Q621.518 193.33 618.809 193.33 Q615.499 193.33 613.578 195.53 Q611.657 197.729 611.657 201.525 L611.657 216.178 L607.374 216.178 L607.374 200.668 Q607.374 196.918 606.055 195.136 Q604.735 193.33 601.981 193.33 Q598.717 193.33 596.796 195.553 Q594.874 197.752 594.874 201.525 L594.874 216.178 L590.592 216.178 L590.592 190.252 L594.874 190.252 L594.874 194.28 Q596.333 191.895 598.37 190.761 Q600.407 189.627 603.208 189.627 Q606.032 189.627 607.999 191.062 Q609.99 192.497 610.939 195.229 Z" fill="#000000" fill-rule="nonzero" fill-opacity="1" /><path clip-path="url(#clip120)" d="M641.055 212.289 L641.055 226.039 L636.772 226.039 L636.772 190.252 L641.055 190.252 L641.055 194.187 Q642.397 191.872 644.434 190.761 Q646.494 189.627 649.342 189.627 Q654.064 189.627 657.004 193.377 Q659.967 197.127 659.967 203.238 Q659.967 209.349 657.004 213.099 Q654.064 216.849 649.342 216.849 Q646.494 216.849 644.434 215.738 Q642.397 214.603 641.055 212.289 M655.545 203.238 Q655.545 198.539 653.601 195.877 Q651.68 193.192 648.3 193.192 Q644.92 193.192 642.976 195.877 Q641.055 198.539 641.055 203.238 Q641.055 207.937 642.976 210.622 Q644.92 213.284 648.3 213.284 Q651.68 213.284 653.601 210.622 Q655.545 207.937 655.545 203.238 Z" fill="#000000" fill-rule="nonzero" fill-opacity="1" /><path clip-path="url(#clip120)" d="M688.578 200.529 L688.578 216.178 L684.318 216.178 L684.318 200.668 Q684.318 196.988 682.883 195.159 Q681.448 193.33 678.578 193.33 Q675.129 193.33 673.138 195.53 Q671.147 197.729 671.147 201.525 L671.147 216.178 L666.865 216.178 L666.865 190.252 L671.147 190.252 L671.147 194.28 Q672.675 191.942 674.735 190.784 Q676.818 189.627 679.527 189.627 Q683.994 189.627 686.286 192.405 Q688.578 195.159 688.578 200.529 Z" fill="#000000" fill-rule="nonzero" fill-opacity="1" /><path clip-path="url(#clip120)" d="M719.249 202.15 L719.249 204.233 L699.665 204.233 Q699.943 208.631 702.304 210.946 Q704.689 213.238 708.925 213.238 Q711.378 213.238 713.67 212.636 Q715.985 212.034 718.253 210.83 L718.253 214.858 Q715.962 215.83 713.554 216.34 Q711.147 216.849 708.67 216.849 Q702.466 216.849 698.832 213.238 Q695.221 209.627 695.221 203.469 Q695.221 197.104 698.647 193.377 Q702.096 189.627 707.929 189.627 Q713.161 189.627 716.193 193.006 Q719.249 196.363 719.249 202.15 M714.989 200.9 Q714.943 197.405 713.022 195.321 Q711.124 193.238 707.976 193.238 Q704.411 193.238 702.258 195.252 Q700.128 197.266 699.804 200.923 L714.989 200.9 Z" fill="#000000" fill-rule="nonzero" fill-opacity="1" /><path clip-path="url(#clip120)" d="M730.452 182.891 L730.452 190.252 L739.225 190.252 L739.225 193.562 L730.452 193.562 L730.452 207.636 Q730.452 210.807 731.309 211.71 Q732.188 212.613 734.85 212.613 L739.225 212.613 L739.225 216.178 L734.85 216.178 Q729.92 216.178 728.045 214.349 Q726.17 212.497 726.17 207.636 L726.17 193.562 L723.045 193.562 L723.045 190.252 L726.17 190.252 L726.17 182.891 L730.452 182.891 Z" fill="#000000" fill-rule="nonzero" fill-opacity="1" /><polyline clip-path="url(#clip120)" style="stroke:#3da44d; stroke-linecap:round; stroke-linejoin:round; stroke-width:4; stroke-opacity:1; fill:none" points="289.884,250.738 433.805,250.738 "/>
<path clip-path="url(#clip120)" d="M483.347 263.087 L483.347 253.805 L475.708 253.805 L475.708 249.962 L487.977 249.962 L487.977 264.8 Q485.268 266.721 482.005 267.717 Q478.741 268.689 475.037 268.689 Q466.935 268.689 462.352 263.967 Q457.792 259.221 457.792 250.772 Q457.792 242.3 462.352 237.578 Q466.935 232.833 475.037 232.833 Q478.417 232.833 481.449 233.666 Q484.505 234.499 487.074 236.12 L487.074 241.096 Q484.481 238.897 481.565 237.786 Q478.648 236.675 475.431 236.675 Q469.088 236.675 465.894 240.217 Q462.722 243.758 462.722 250.772 Q462.722 257.763 465.894 261.305 Q469.088 264.846 475.431 264.846 Q477.907 264.846 479.852 264.43 Q481.796 263.99 483.347 263.087 Z" fill="#000000" fill-rule="nonzero" fill-opacity="1" /><path clip-path="url(#clip120)" d="M532.305 234.592 L532.305 239.152 Q529.643 237.879 527.282 237.254 Q524.921 236.629 522.722 236.629 Q518.903 236.629 516.819 238.11 Q514.759 239.592 514.759 242.323 Q514.759 244.615 516.125 245.795 Q517.514 246.953 521.356 247.67 L524.18 248.249 Q529.412 249.245 531.889 251.768 Q534.389 254.268 534.389 258.481 Q534.389 263.504 531.009 266.096 Q527.653 268.689 521.148 268.689 Q518.694 268.689 515.916 268.133 Q513.162 267.578 510.199 266.49 L510.199 261.675 Q513.046 263.272 515.778 264.082 Q518.509 264.893 521.148 264.893 Q525.153 264.893 527.328 263.319 Q529.504 261.744 529.504 258.828 Q529.504 256.282 527.93 254.846 Q526.379 253.411 522.815 252.694 L519.967 252.138 Q514.736 251.096 512.398 248.874 Q510.06 246.652 510.06 242.694 Q510.06 238.11 513.278 235.471 Q516.518 232.833 522.19 232.833 Q524.62 232.833 527.143 233.272 Q529.666 233.712 532.305 234.592 Z" fill="#000000" fill-rule="nonzero" fill-opacity="1" /><path clip-path="url(#clip120)" d="M552.282 270.425 Q550.476 275.055 548.763 276.467 Q547.051 277.879 544.18 277.879 L540.777 277.879 L540.777 274.314 L543.277 274.314 Q545.037 274.314 546.009 273.48 Q546.981 272.647 548.162 269.545 L548.926 267.601 L538.439 242.092 L542.953 242.092 L551.055 262.369 L559.157 242.092 L563.671 242.092 L552.282 270.425 Z" fill="#000000" fill-rule="nonzero" fill-opacity="1" /><path clip-path="url(#clip120)" d="M589.736 247.069 Q591.333 244.198 593.555 242.833 Q595.777 241.467 598.786 241.467 Q602.837 241.467 605.036 244.314 Q607.235 247.138 607.235 252.369 L607.235 268.018 L602.953 268.018 L602.953 252.508 Q602.953 248.782 601.634 246.976 Q600.314 245.17 597.606 245.17 Q594.296 245.17 592.374 247.37 Q590.453 249.569 590.453 253.365 L590.453 268.018 L586.171 268.018 L586.171 252.508 Q586.171 248.758 584.851 246.976 Q583.532 245.17 580.777 245.17 Q577.513 245.17 575.592 247.393 Q573.671 249.592 573.671 253.365 L573.671 268.018 L569.388 268.018 L569.388 242.092 L573.671 242.092 L573.671 246.12 Q575.129 243.735 577.166 242.601 Q579.203 241.467 582.004 241.467 Q584.828 241.467 586.796 242.902 Q588.786 244.337 589.736 247.069 Z" fill="#000000" fill-rule="nonzero" fill-opacity="1" /><path clip-path="url(#clip120)" d="M619.851 264.129 L619.851 277.879 L615.569 277.879 L615.569 242.092 L619.851 242.092 L619.851 246.027 Q621.194 243.712 623.231 242.601 Q625.291 241.467 628.138 241.467 Q632.86 241.467 635.8 245.217 Q638.763 248.967 638.763 255.078 Q638.763 261.189 635.8 264.939 Q632.86 268.689 628.138 268.689 Q625.291 268.689 623.231 267.578 Q621.194 266.443 619.851 264.129 M634.342 255.078 Q634.342 250.379 632.397 247.717 Q630.476 245.032 627.096 245.032 Q623.717 245.032 621.772 247.717 Q619.851 250.379 619.851 255.078 Q619.851 259.777 621.772 262.462 Q623.717 265.124 627.096 265.124 Q630.476 265.124 632.397 262.462 Q634.342 259.777 634.342 255.078 Z" fill="#000000" fill-rule="nonzero" fill-opacity="1" /><path clip-path="url(#clip120)" d="M667.374 252.369 L667.374 268.018 L663.115 268.018 L663.115 252.508 Q663.115 248.828 661.68 246.999 Q660.244 245.17 657.374 245.17 Q653.925 245.17 651.934 247.37 Q649.944 249.569 649.944 253.365 L649.944 268.018 L645.661 268.018 L645.661 242.092 L649.944 242.092 L649.944 246.12 Q651.471 243.782 653.531 242.624 Q655.615 241.467 658.323 241.467 Q662.791 241.467 665.082 244.245 Q667.374 246.999 667.374 252.369 Z" fill="#000000" fill-rule="nonzero" fill-opacity="1" /><path clip-path="url(#clip120)" d="M698.045 253.99 L698.045 256.073 L678.462 256.073 Q678.74 260.471 681.101 262.786 Q683.485 265.078 687.721 265.078 Q690.175 265.078 692.466 264.476 Q694.781 263.874 697.05 262.67 L697.05 266.698 Q694.758 267.67 692.351 268.18 Q689.943 268.689 687.466 268.689 Q681.263 268.689 677.629 265.078 Q674.017 261.467 674.017 255.309 Q674.017 248.944 677.443 245.217 Q680.892 241.467 686.726 241.467 Q691.957 241.467 694.99 244.846 Q698.045 248.203 698.045 253.99 M693.786 252.74 Q693.74 249.245 691.818 247.161 Q689.92 245.078 686.772 245.078 Q683.207 245.078 681.054 247.092 Q678.925 249.106 678.601 252.763 L693.786 252.74 Z" fill="#000000" fill-rule="nonzero" fill-opacity="1" /><path clip-path="url(#clip120)" d="M709.249 234.731 L709.249 242.092 L718.022 242.092 L718.022 245.402 L709.249 245.402 L709.249 259.476 Q709.249 262.647 710.105 263.55 Q710.985 264.453 713.647 264.453 L718.022 264.453 L718.022 268.018 L713.647 268.018 Q708.716 268.018 706.841 266.189 Q704.966 264.337 704.966 259.476 L704.966 245.402 L701.841 245.402 L701.841 242.092 L704.966 242.092 L704.966 234.731 L709.249 234.731 Z" fill="#000000" fill-rule="nonzero" fill-opacity="1" /></svg>
