<?xml version="1.0" encoding="utf-8"?>
<svg xmlns="http://www.w3.org/2000/svg" xmlns:xlink="http://www.w3.org/1999/xlink" width="600" height="400" viewBox="0 0 2400 1600">
<defs>
  <clipPath id="clip140">
    <rect x="0" y="0" width="2400" height="1600"/>
  </clipPath>
</defs>
<path clip-path="url(#clip140)" d="M0 1600 L2400 1600 L2400 0 L0 0  Z" fill="#ffffff" fill-rule="evenodd" fill-opacity="1"/>
<defs>
  <clipPath id="clip141">
    <rect x="480" y="0" width="1681" height="1600"/>
  </clipPath>
</defs>
<path clip-path="url(#clip140)" d="M193.936 1486.45 L2352.76 1486.45 L2352.76 47.2441 L193.936 47.2441  Z" fill="#ffffff" fill-rule="evenodd" fill-opacity="1"/>
<defs>
  <clipPath id="clip142">
    <rect x="193" y="47" width="2160" height="1440"/>
  </clipPath>
</defs>
<polyline clip-path="url(#clip142)" style="stroke:#000000; stroke-linecap:round; stroke-linejoin:round; stroke-width:2; stroke-opacity:0.1; fill:none" points="350.685,1486.45 350.685,47.2441 "/>
<polyline clip-path="url(#clip142)" style="stroke:#000000; stroke-linecap:round; stroke-linejoin:round; stroke-width:2; stroke-opacity:0.1; fill:none" points="812.692,1486.45 812.692,47.2441 "/>
<polyline clip-path="url(#clip142)" style="stroke:#000000; stroke-linecap:round; stroke-linejoin:round; stroke-width:2; stroke-opacity:0.1; fill:none" points="1274.7,1486.45 1274.7,47.2441 "/>
<polyline clip-path="url(#clip142)" style="stroke:#000000; stroke-linecap:round; stroke-linejoin:round; stroke-width:2; stroke-opacity:0.1; fill:none" points="1736.71,1486.45 1736.71,47.2441 "/>
<polyline clip-path="url(#clip142)" style="stroke:#000000; stroke-linecap:round; stroke-linejoin:round; stroke-width:2; stroke-opacity:0.1; fill:none" points="2198.71,1486.45 2198.71,47.2441 "/>
<polyline clip-path="url(#clip140)" style="stroke:#000000; stroke-linecap:round; stroke-linejoin:round; stroke-width:4; stroke-opacity:1; fill:none" points="193.936,1486.45 2352.76,1486.45 "/>
<polyline clip-path="url(#clip140)" style="stroke:#000000; stroke-linecap:round; stroke-linejoin:round; stroke-width:4; stroke-opacity:1; fill:none" points="350.685,1486.45 350.685,1467.55 "/>
<polyline clip-path="url(#clip140)" style="stroke:#000000; stroke-linecap:round; stroke-linejoin:round; stroke-width:4; stroke-opacity:1; fill:none" points="812.692,1486.45 812.692,1467.55 "/>
<polyline clip-path="url(#clip140)" style="stroke:#000000; stroke-linecap:round; stroke-linejoin:round; stroke-width:4; stroke-opacity:1; fill:none" points="1274.7,1486.45 1274.7,1467.55 "/>
<polyline clip-path="url(#clip140)" style="stroke:#000000; stroke-linecap:round; stroke-linejoin:round; stroke-width:4; stroke-opacity:1; fill:none" points="1736.71,1486.45 1736.71,1467.55 "/>
<polyline clip-path="url(#clip140)" style="stroke:#000000; stroke-linecap:round; stroke-linejoin:round; stroke-width:4; stroke-opacity:1; fill:none" points="2198.71,1486.45 2198.71,1467.55 "/>
<path clip-path="url(#clip140)" d="M297.213 1532.02 L326.888 1532.02 L326.888 1535.95 L297.213 1535.95 L297.213 1532.02 Z" fill="#000000" fill-rule="nonzero" fill-opacity="1" /><path clip-path="url(#clip140)" d="M337.791 1544.91 L345.43 1544.91 L345.43 1518.55 L337.12 1520.21 L337.12 1515.95 L345.384 1514.29 L350.06 1514.29 L350.06 1544.91 L357.698 1544.91 L357.698 1548.85 L337.791 1548.85 L337.791 1544.91 Z" fill="#000000" fill-rule="nonzero" fill-opacity="1" /><path clip-path="url(#clip140)" d="M367.143 1542.97 L372.027 1542.97 L372.027 1548.85 L367.143 1548.85 L367.143 1542.97 Z" fill="#000000" fill-rule="nonzero" fill-opacity="1" /><path clip-path="url(#clip140)" d="M392.212 1517.37 Q388.601 1517.37 386.772 1520.93 Q384.967 1524.47 384.967 1531.6 Q384.967 1538.71 386.772 1542.27 Q388.601 1545.82 392.212 1545.82 Q395.846 1545.82 397.652 1542.27 Q399.481 1538.71 399.481 1531.6 Q399.481 1524.47 397.652 1520.93 Q395.846 1517.37 392.212 1517.37 M392.212 1513.66 Q398.022 1513.66 401.078 1518.27 Q404.157 1522.85 404.157 1531.6 Q404.157 1540.33 401.078 1544.94 Q398.022 1549.52 392.212 1549.52 Q386.402 1549.52 383.323 1544.94 Q380.268 1540.33 380.268 1531.6 Q380.268 1522.85 383.323 1518.27 Q386.402 1513.66 392.212 1513.66 Z" fill="#000000" fill-rule="nonzero" fill-opacity="1" /><path clip-path="url(#clip140)" d="M759.718 1532.02 L789.394 1532.02 L789.394 1535.95 L759.718 1535.95 L759.718 1532.02 Z" fill="#000000" fill-rule="nonzero" fill-opacity="1" /><path clip-path="url(#clip140)" d="M809.486 1517.37 Q805.875 1517.37 804.046 1520.93 Q802.241 1524.47 802.241 1531.6 Q802.241 1538.71 804.046 1542.27 Q805.875 1545.82 809.486 1545.82 Q813.12 1545.82 814.926 1542.27 Q816.755 1538.71 816.755 1531.6 Q816.755 1524.47 814.926 1520.93 Q813.12 1517.37 809.486 1517.37 M809.486 1513.66 Q815.296 1513.66 818.352 1518.27 Q821.43 1522.85 821.43 1531.6 Q821.43 1540.33 818.352 1544.94 Q815.296 1549.52 809.486 1549.52 Q803.676 1549.52 800.597 1544.94 Q797.542 1540.33 797.542 1531.6 Q797.542 1522.85 800.597 1518.27 Q803.676 1513.66 809.486 1513.66 Z" fill="#000000" fill-rule="nonzero" fill-opacity="1" /><path clip-path="url(#clip140)" d="M829.648 1542.97 L834.532 1542.97 L834.532 1548.85 L829.648 1548.85 L829.648 1542.97 Z" fill="#000000" fill-rule="nonzero" fill-opacity="1" /><path clip-path="url(#clip140)" d="M844.764 1514.29 L863.12 1514.29 L863.12 1518.22 L849.046 1518.22 L849.046 1526.7 Q850.065 1526.35 851.083 1526.19 Q852.102 1526 853.12 1526 Q858.907 1526 862.287 1529.17 Q865.666 1532.34 865.666 1537.76 Q865.666 1543.34 862.194 1546.44 Q858.722 1549.52 852.403 1549.52 Q850.227 1549.52 847.958 1549.15 Q845.713 1548.78 843.305 1548.04 L843.305 1543.34 Q845.389 1544.47 847.611 1545.03 Q849.833 1545.58 852.31 1545.58 Q856.315 1545.58 858.652 1543.48 Q860.99 1541.37 860.99 1537.76 Q860.99 1534.15 858.652 1532.04 Q856.315 1529.94 852.31 1529.94 Q850.435 1529.94 848.56 1530.35 Q846.708 1530.77 844.764 1531.65 L844.764 1514.29 Z" fill="#000000" fill-rule="nonzero" fill-opacity="1" /><path clip-path="url(#clip140)" d="M1252.08 1517.37 Q1248.47 1517.37 1246.64 1520.93 Q1244.84 1524.47 1244.84 1531.6 Q1244.84 1538.71 1246.64 1542.27 Q1248.47 1545.82 1252.08 1545.82 Q1255.72 1545.82 1257.52 1542.27 Q1259.35 1538.71 1259.35 1531.6 Q1259.35 1524.47 1257.52 1520.93 Q1255.72 1517.37 1252.08 1517.37 M1252.08 1513.66 Q1257.89 1513.66 1260.95 1518.27 Q1264.03 1522.85 1264.03 1531.6 Q1264.03 1540.33 1260.95 1544.94 Q1257.89 1549.52 1252.08 1549.52 Q1246.27 1549.52 1243.2 1544.94 Q1240.14 1540.33 1240.14 1531.6 Q1240.14 1522.85 1243.2 1518.27 Q1246.27 1513.66 1252.08 1513.66 Z" fill="#000000" fill-rule="nonzero" fill-opacity="1" /><path clip-path="url(#clip140)" d="M1272.25 1542.97 L1277.13 1542.97 L1277.13 1548.85 L1272.25 1548.85 L1272.25 1542.97 Z" fill="#000000" fill-rule="nonzero" fill-opacity="1" /><path clip-path="url(#clip140)" d="M1297.32 1517.37 Q1293.7 1517.37 1291.88 1520.93 Q1290.07 1524.47 1290.07 1531.6 Q1290.07 1538.71 1291.88 1542.27 Q1293.7 1545.82 1297.32 1545.82 Q1300.95 1545.82 1302.75 1542.27 Q1304.58 1538.71 1304.58 1531.6 Q1304.58 1524.47 1302.75 1520.93 Q1300.95 1517.37 1297.32 1517.37 M1297.32 1513.66 Q1303.13 1513.66 1306.18 1518.27 Q1309.26 1522.85 1309.26 1531.6 Q1309.26 1540.33 1306.18 1544.94 Q1303.13 1549.52 1297.32 1549.52 Q1291.5 1549.52 1288.43 1544.94 Q1285.37 1540.33 1285.37 1531.6 Q1285.37 1522.85 1288.43 1518.27 Q1291.5 1513.66 1297.32 1513.66 Z" fill="#000000" fill-rule="nonzero" fill-opacity="1" /><path clip-path="url(#clip140)" d="M1714.59 1517.37 Q1710.98 1517.37 1709.15 1520.93 Q1707.34 1524.47 1707.34 1531.6 Q1707.34 1538.71 1709.15 1542.27 Q1710.98 1545.82 1714.59 1545.82 Q1718.22 1545.82 1720.03 1542.27 Q1721.86 1538.71 1721.86 1531.6 Q1721.86 1524.47 1720.03 1520.93 Q1718.22 1517.37 1714.59 1517.37 M1714.59 1513.66 Q1720.4 1513.66 1723.45 1518.27 Q1726.53 1522.85 1726.53 1531.6 Q1726.53 1540.33 1723.45 1544.94 Q1720.4 1549.52 1714.59 1549.52 Q1708.78 1549.52 1705.7 1544.94 Q1702.64 1540.33 1702.64 1531.6 Q1702.64 1522.85 1705.7 1518.27 Q1708.78 1513.66 1714.59 1513.66 Z" fill="#000000" fill-rule="nonzero" fill-opacity="1" /><path clip-path="url(#clip140)" d="M1734.75 1542.97 L1739.64 1542.97 L1739.64 1548.85 L1734.75 1548.85 L1734.75 1542.97 Z" fill="#000000" fill-rule="nonzero" fill-opacity="1" /><path clip-path="url(#clip140)" d="M1749.87 1514.29 L1768.22 1514.29 L1768.22 1518.22 L1754.15 1518.22 L1754.15 1526.7 Q1755.17 1526.35 1756.19 1526.19 Q1757.2 1526 1758.22 1526 Q1764.01 1526 1767.39 1529.17 Q1770.77 1532.34 1770.77 1537.76 Q1770.77 1543.34 1767.3 1546.44 Q1763.82 1549.52 1757.51 1549.52 Q1755.33 1549.52 1753.06 1549.15 Q1750.82 1548.78 1748.41 1548.04 L1748.41 1543.34 Q1750.49 1544.47 1752.71 1545.03 Q1754.94 1545.58 1757.41 1545.58 Q1761.42 1545.58 1763.76 1543.48 Q1766.09 1541.37 1766.09 1537.76 Q1766.09 1534.15 1763.76 1532.04 Q1761.42 1529.94 1757.41 1529.94 Q1755.54 1529.94 1753.66 1530.35 Q1751.81 1530.77 1749.87 1531.65 L1749.87 1514.29 Z" fill="#000000" fill-rule="nonzero" fill-opacity="1" /><path clip-path="url(#clip140)" d="M2165.87 1544.91 L2173.51 1544.91 L2173.51 1518.55 L2165.2 1520.21 L2165.2 1515.95 L2173.46 1514.29 L2178.14 1514.29 L2178.14 1544.91 L2185.77 1544.91 L2185.77 1548.85 L2165.87 1548.85 L2165.87 1544.91 Z" fill="#000000" fill-rule="nonzero" fill-opacity="1" /><path clip-path="url(#clip140)" d="M2195.22 1542.97 L2200.1 1542.97 L2200.1 1548.85 L2195.22 1548.85 L2195.22 1542.97 Z" fill="#000000" fill-rule="nonzero" fill-opacity="1" /><path clip-path="url(#clip140)" d="M2220.29 1517.37 Q2216.68 1517.37 2214.85 1520.93 Q2213.04 1524.47 2213.04 1531.6 Q2213.04 1538.71 2214.85 1542.27 Q2216.68 1545.82 2220.29 1545.82 Q2223.92 1545.82 2225.73 1542.27 Q2227.56 1538.71 2227.56 1531.6 Q2227.56 1524.47 2225.73 1520.93 Q2223.92 1517.37 2220.29 1517.37 M2220.29 1513.66 Q2226.1 1513.66 2229.15 1518.27 Q2232.23 1522.85 2232.23 1531.6 Q2232.23 1540.33 2229.15 1544.94 Q2226.1 1549.52 2220.29 1549.52 Q2214.48 1549.52 2211.4 1544.94 Q2208.34 1540.33 2208.34 1531.6 Q2208.34 1522.85 2211.4 1518.27 Q2214.48 1513.66 2220.29 1513.66 Z" fill="#000000" fill-rule="nonzero" fill-opacity="1" /><polyline clip-path="url(#clip142)" style="stroke:#000000; stroke-linecap:round; stroke-linejoin:round; stroke-width:2; stroke-opacity:0.1; fill:none" points="193.936,1434.7 2352.76,1434.7 "/>
<polyline clip-path="url(#clip142)" style="stroke:#000000; stroke-linecap:round; stroke-linejoin:round; stroke-width:2; stroke-opacity:0.1; fill:none" points="193.936,1103.04 2352.76,1103.04 "/>
<polyline clip-path="url(#clip142)" style="stroke:#000000; stroke-linecap:round; stroke-linejoin:round; stroke-width:2; stroke-opacity:0.1; fill:none" points="193.936,771.38 2352.76,771.38 "/>
<polyline clip-path="url(#clip142)" style="stroke:#000000; stroke-linecap:round; stroke-linejoin:round; stroke-width:2; stroke-opacity:0.1; fill:none" points="193.936,439.719 2352.76,439.719 "/>
<polyline clip-path="url(#clip142)" style="stroke:#000000; stroke-linecap:round; stroke-linejoin:round; stroke-width:2; stroke-opacity:0.1; fill:none" points="193.936,108.057 2352.76,108.057 "/>
<polyline clip-path="url(#clip140)" style="stroke:#000000; stroke-linecap:round; stroke-linejoin:round; stroke-width:4; stroke-opacity:1; fill:none" points="193.936,1486.45 193.936,47.2441 "/>
<polyline clip-path="url(#clip140)" style="stroke:#000000; stroke-linecap:round; stroke-linejoin:round; stroke-width:4; stroke-opacity:1; fill:none" points="193.936,1434.7 212.834,1434.7 "/>
<polyline clip-path="url(#clip140)" style="stroke:#000000; stroke-linecap:round; stroke-linejoin:round; stroke-width:4; stroke-opacity:1; fill:none" points="193.936,1103.04 212.834,1103.04 "/>
<polyline clip-path="url(#clip140)" style="stroke:#000000; stroke-linecap:round; stroke-linejoin:round; stroke-width:4; stroke-opacity:1; fill:none" points="193.936,771.38 212.834,771.38 "/>
<polyline clip-path="url(#clip140)" style="stroke:#000000; stroke-linecap:round; stroke-linejoin:round; stroke-width:4; stroke-opacity:1; fill:none" points="193.936,439.719 212.834,439.719 "/>
<polyline clip-path="url(#clip140)" style="stroke:#000000; stroke-linecap:round; stroke-linejoin:round; stroke-width:4; stroke-opacity:1; fill:none" points="193.936,108.057 212.834,108.057 "/>
<path clip-path="url(#clip140)" d="M50.9921 1435.15 L80.6679 1435.15 L80.6679 1439.09 L50.9921 1439.09 L50.9921 1435.15 Z" fill="#000000" fill-rule="nonzero" fill-opacity="1" /><path clip-path="url(#clip140)" d="M91.5706 1448.05 L99.2095 1448.05 L99.2095 1421.68 L90.8993 1423.35 L90.8993 1419.09 L99.1632 1417.42 L103.839 1417.42 L103.839 1448.05 L111.478 1448.05 L111.478 1451.98 L91.5706 1451.98 L91.5706 1448.05 Z" fill="#000000" fill-rule="nonzero" fill-opacity="1" /><path clip-path="url(#clip140)" d="M120.922 1446.1 L125.807 1446.1 L125.807 1451.98 L120.922 1451.98 L120.922 1446.1 Z" fill="#000000" fill-rule="nonzero" fill-opacity="1" /><path clip-path="url(#clip140)" d="M145.992 1420.5 Q142.381 1420.5 140.552 1424.07 Q138.746 1427.61 138.746 1434.74 Q138.746 1441.84 140.552 1445.41 Q142.381 1448.95 145.992 1448.95 Q149.626 1448.95 151.431 1445.41 Q153.26 1441.84 153.26 1434.74 Q153.26 1427.61 151.431 1424.07 Q149.626 1420.5 145.992 1420.5 M145.992 1416.8 Q151.802 1416.8 154.857 1421.4 Q157.936 1425.99 157.936 1434.74 Q157.936 1443.47 154.857 1448.07 Q151.802 1452.65 145.992 1452.65 Q140.181 1452.65 137.103 1448.07 Q134.047 1443.47 134.047 1434.74 Q134.047 1425.99 137.103 1421.4 Q140.181 1416.8 145.992 1416.8 Z" fill="#000000" fill-rule="nonzero" fill-opacity="1" /><path clip-path="url(#clip140)" d="M51.9875 1103.49 L81.6633 1103.49 L81.6633 1107.43 L51.9875 1107.43 L51.9875 1103.49 Z" fill="#000000" fill-rule="nonzero" fill-opacity="1" /><path clip-path="url(#clip140)" d="M101.756 1088.84 Q98.1447 1088.84 96.316 1092.41 Q94.5104 1095.95 94.5104 1103.08 Q94.5104 1110.18 96.316 1113.75 Q98.1447 1117.29 101.756 1117.29 Q105.39 1117.29 107.196 1113.75 Q109.024 1110.18 109.024 1103.08 Q109.024 1095.95 107.196 1092.41 Q105.39 1088.84 101.756 1088.84 M101.756 1085.14 Q107.566 1085.14 110.621 1089.74 Q113.7 1094.33 113.7 1103.08 Q113.7 1111.8 110.621 1116.41 Q107.566 1120.99 101.756 1120.99 Q95.9456 1120.99 92.8669 1116.41 Q89.8114 1111.8 89.8114 1103.08 Q89.8114 1094.33 92.8669 1089.74 Q95.9456 1085.14 101.756 1085.14 Z" fill="#000000" fill-rule="nonzero" fill-opacity="1" /><path clip-path="url(#clip140)" d="M121.918 1114.44 L126.802 1114.44 L126.802 1120.32 L121.918 1120.32 L121.918 1114.44 Z" fill="#000000" fill-rule="nonzero" fill-opacity="1" /><path clip-path="url(#clip140)" d="M137.033 1085.76 L155.39 1085.76 L155.39 1089.7 L141.316 1089.7 L141.316 1098.17 Q142.334 1097.82 143.353 1097.66 Q144.371 1097.47 145.39 1097.47 Q151.177 1097.47 154.556 1100.65 Q157.936 1103.82 157.936 1109.23 Q157.936 1114.81 154.464 1117.91 Q150.992 1120.99 144.672 1120.99 Q142.496 1120.99 140.228 1120.62 Q137.982 1120.25 135.575 1119.51 L135.575 1114.81 Q137.658 1115.95 139.881 1116.5 Q142.103 1117.06 144.58 1117.06 Q148.584 1117.06 150.922 1114.95 Q153.26 1112.85 153.26 1109.23 Q153.26 1105.62 150.922 1103.52 Q148.584 1101.41 144.58 1101.41 Q142.705 1101.41 140.83 1101.83 Q138.978 1102.24 137.033 1103.12 L137.033 1085.76 Z" fill="#000000" fill-rule="nonzero" fill-opacity="1" /><path clip-path="url(#clip140)" d="M100.76 757.179 Q97.1493 757.179 95.3206 760.744 Q93.515 764.286 93.515 771.415 Q93.515 778.522 95.3206 782.086 Q97.1493 785.628 100.76 785.628 Q104.395 785.628 106.2 782.086 Q108.029 778.522 108.029 771.415 Q108.029 764.286 106.2 760.744 Q104.395 757.179 100.76 757.179 M100.76 753.475 Q106.571 753.475 109.626 758.082 Q112.705 762.665 112.705 771.415 Q112.705 780.142 109.626 784.748 Q106.571 789.332 100.76 789.332 Q94.9502 789.332 91.8715 784.748 Q88.816 780.142 88.816 771.415 Q88.816 762.665 91.8715 758.082 Q94.9502 753.475 100.76 753.475 Z" fill="#000000" fill-rule="nonzero" fill-opacity="1" /><path clip-path="url(#clip140)" d="M120.922 782.781 L125.807 782.781 L125.807 788.66 L120.922 788.66 L120.922 782.781 Z" fill="#000000" fill-rule="nonzero" fill-opacity="1" /><path clip-path="url(#clip140)" d="M145.992 757.179 Q142.381 757.179 140.552 760.744 Q138.746 764.286 138.746 771.415 Q138.746 778.522 140.552 782.086 Q142.381 785.628 145.992 785.628 Q149.626 785.628 151.431 782.086 Q153.26 778.522 153.26 771.415 Q153.26 764.286 151.431 760.744 Q149.626 757.179 145.992 757.179 M145.992 753.475 Q151.802 753.475 154.857 758.082 Q157.936 762.665 157.936 771.415 Q157.936 780.142 154.857 784.748 Q151.802 789.332 145.992 789.332 Q140.181 789.332 137.103 784.748 Q134.047 780.142 134.047 771.415 Q134.047 762.665 137.103 758.082 Q140.181 753.475 145.992 753.475 Z" fill="#000000" fill-rule="nonzero" fill-opacity="1" /><path clip-path="url(#clip140)" d="M101.756 425.518 Q98.1447 425.518 96.316 429.082 Q94.5104 432.624 94.5104 439.754 Q94.5104 446.86 96.316 450.425 Q98.1447 453.966 101.756 453.966 Q105.39 453.966 107.196 450.425 Q109.024 446.86 109.024 439.754 Q109.024 432.624 107.196 429.082 Q105.39 425.518 101.756 425.518 M101.756 421.814 Q107.566 421.814 110.621 426.42 Q113.7 431.004 113.7 439.754 Q113.7 448.48 110.621 453.087 Q107.566 457.67 101.756 457.67 Q95.9456 457.67 92.8669 453.087 Q89.8114 448.48 89.8114 439.754 Q89.8114 431.004 92.8669 426.42 Q95.9456 421.814 101.756 421.814 Z" fill="#000000" fill-rule="nonzero" fill-opacity="1" /><path clip-path="url(#clip140)" d="M121.918 451.119 L126.802 451.119 L126.802 456.999 L121.918 456.999 L121.918 451.119 Z" fill="#000000" fill-rule="nonzero" fill-opacity="1" /><path clip-path="url(#clip140)" d="M137.033 422.439 L155.39 422.439 L155.39 426.374 L141.316 426.374 L141.316 434.846 Q142.334 434.499 143.353 434.337 Q144.371 434.152 145.39 434.152 Q151.177 434.152 154.556 437.323 Q157.936 440.494 157.936 445.911 Q157.936 451.49 154.464 454.591 Q150.992 457.67 144.672 457.67 Q142.496 457.67 140.228 457.3 Q137.982 456.929 135.575 456.189 L135.575 451.49 Q137.658 452.624 139.881 453.179 Q142.103 453.735 144.58 453.735 Q148.584 453.735 150.922 451.629 Q153.26 449.522 153.26 445.911 Q153.26 442.3 150.922 440.193 Q148.584 438.087 144.58 438.087 Q142.705 438.087 140.83 438.504 Q138.978 438.92 137.033 439.8 L137.033 422.439 Z" fill="#000000" fill-rule="nonzero" fill-opacity="1" /><path clip-path="url(#clip140)" d="M91.5706 121.402 L99.2095 121.402 L99.2095 95.0366 L90.8993 96.7032 L90.8993 92.444 L99.1632 90.7773 L103.839 90.7773 L103.839 121.402 L111.478 121.402 L111.478 125.337 L91.5706 125.337 L91.5706 121.402 Z" fill="#000000" fill-rule="nonzero" fill-opacity="1" /><path clip-path="url(#clip140)" d="M120.922 119.458 L125.807 119.458 L125.807 125.337 L120.922 125.337 L120.922 119.458 Z" fill="#000000" fill-rule="nonzero" fill-opacity="1" /><path clip-path="url(#clip140)" d="M145.992 93.856 Q142.381 93.856 140.552 97.4208 Q138.746 100.962 138.746 108.092 Q138.746 115.199 140.552 118.763 Q142.381 122.305 145.992 122.305 Q149.626 122.305 151.431 118.763 Q153.26 115.199 153.26 108.092 Q153.26 100.962 151.431 97.4208 Q149.626 93.856 145.992 93.856 M145.992 90.1523 Q151.802 90.1523 154.857 94.7588 Q157.936 99.3421 157.936 108.092 Q157.936 116.819 154.857 121.425 Q151.802 126.009 145.992 126.009 Q140.181 126.009 137.103 121.425 Q134.047 116.819 134.047 108.092 Q134.047 99.3421 137.103 94.7588 Q140.181 90.1523 145.992 90.1523 Z" fill="#000000" fill-rule="nonzero" fill-opacity="1" /><polyline clip-path="url(#clip142)" style="stroke:#009af9; stroke-linecap:round; stroke-linejoin:round; stroke-width:4; stroke-opacity:1; fill:none" points="1274.7,108.057 1366.85,111.296 1458.1,121.337 1547.66,137.531 1634.29,159.556 1717.53,187.734 1796.71,220.77 1870.71,258.341 1939.29,300.123 2001.55,345.467 2057.5,394.051 2106.67,444.739 2148.63,497.695 2182.92,552.27 2209.54,607.898 2228.49,664.497 2239.32,721.623 2242.03,779.027 2237.52,836.36 2223.98,893.405 2203.23,949.843 2174.35,1005.23 2138.26,1059.32 2094.49,1111.79 2043.51,1161.99 1985.76,1209.6 1921.69,1253.97 1851.31,1294.78 1775.96,1331.38 1695.88,1363.12 1611.5,1389.68 1523.98,1410.41 1433.97,1424.66 1342.38,1433.08 1250.11,1434.38 1158.07,1429.52 1067.27,1417.86 978.5,1400.05 892.551,1376.08 810.436,1346.93 732.382,1312.6 659.742,1273.73 592.968,1230.65 532.059,1184.66 477.917,1135.43 430.995,1084.09 390.84,1030.65 358.806,975.754 334.442,919.802 317.297,863.041 308.274,805.834 308.274,748.445 314.59,691.137 329.93,634.295 352.941,578.181 384.072,522.958 422.422,469.355 467.991,417.371 520.779,367.816 580.335,320.852 645.756,277.451 717.493,237.613 794.194,202.309 875.632,172.187 960.904,147.248 1049.22,128.138 1139.68,115.183 1231.58,108.705 1323.88,109.029 1415.69,115.831 1506.15,129.11 1594.13,148.543 1679.18,173.807 1760.17,204.576 1836.87,240.204 1908.15,280.366 1973.12,324.091 2032.23,371.055 2084.57,420.609 2129.68,472.755 2167.58,526.521 2197.81,581.744 2220.37,638.019 2234.81,694.902 2242.03,752.21 2240.22,809.619 2231.2,866.846 2214.05,923.527 2188.79,979.479 2155.85,1034.22 2115.7,1087.5 2067.87,1138.67 2013.28,1187.58 1952.37,1233.57 1884.69,1276.32 1812.05,1314.86 1733.77,1348.87 1651.43,1378.02 1565.26,1401.34 1476.26,1418.83 1385.29,1429.85 1293.23,1434.7 1200.99,1432.44 1109.46,1424.02 1019.56,1409.12 932.255,1388.06 848.11,1361.18 768.477,1329.12 693.13,1292.19 623.648,1251.38 559.581,1206.69 502.281,1158.75 452.2,1108.22 408.887,1055.75 372.792,1001.66 344.368,946.118 324.516,889.681 311.883,832.595 307.371,775.257 310.981,717.858 321.809,660.773 341.661,604.254 368.732,548.545 403.473,494.132 445.883,441.338 495.062,390.812 551.459,342.552 614.624,297.208 683.204,255.75 757.648,218.503 837.056,185.467 920.749,157.936 1007.6,136.236 1097.27,120.365 1188.58,110.972 1280.77,108.057 1372.89,111.944 1464.08,121.985 1553.3,138.827 1639.93,161.499 1722.95,189.677 1801.68,223.038 1875.22,260.933 1943.35,303.038 2005.61,348.706 2061.1,397.29 2109.83,448.302 2150.89,501.258 2184.73,555.833 2211.35,611.623 2229.39,668.222 2239.32,725.429 2242.03,782.797 2236.61,840.126 2223.08,897.13 2201.42,953.406 2172.09,1008.79 2135.55,1062.88 2091.33,1115.03 2039.9,1165.23 1981.7,1212.52 1917.18,1256.89 1846.79,1297.37 1771,1333.65 1690.46,1365.07 1605.86,1390.98 1518.11,1411.38 1427.99,1425.63 1336.29,1433.08 1244.05,1434.38 1152.09,1428.87 1061.29,1416.89 972.635,1398.43 886.911,1374.46 805.022,1344.66 727.419,1310.01 655.231,1270.82 588.907,1227.74 528.449,1181.42 474.759,1132.19 427.836,1080.53 388.584,1027.09 357.001,972.191 332.637,916.158 316.395,859.316 308.274,802.069 308.274,744.66 315.493,687.412 331.735,630.57 354.745,574.456 386.328,519.395 425.129,465.792 471.149,414.132 524.389,364.577 584.395,317.937 650.719,274.86 722.456,235.345 799.608,200.365 881.271,170.244 966.544,145.628 "/>
<polyline clip-path="url(#clip142)" style="stroke:#e26f46; stroke-linecap:round; stroke-linejoin:round; stroke-width:4; stroke-opacity:1; fill:none" points="1274.7,108.057 1630.23,88.6241 2080.51,135.264 2262.78,270.001 2201.42,398.261 2009.67,495.752 1780.47,571.865 1583.98,625.712 1440.51,651.461 1334.71,647.331 1247.4,611.056 1162.36,537.857 1082.5,428.059 1039.18,302.39 1059.94,196.803 1178.15,126.519 1451.56,91.2152 1893.72,102.875 2221.27,204.252 2249.25,345.467 2103.52,455.104 1878.38,539.315 1661.81,604.416 1495.55,642.23 1375.76,649.922 1282.82,626.845 1196.42,568.464 1111.82,471.46 1051.82,347.735 1046.4,231.783 1127.62,148.219 1336.06,100.284 1729.49,91.8629 2148.18,158.908 2267.29,300.123 2167.13,421.581 1960.49,513.242 1732.65,585.469 1548.57,633.647 1415.02,653.08 1315.53,642.149 1229.36,598.424 1144.76,517.128 1071.67,400.852 1039.18,277.127 1075.28,179.313 1217.85,116.155 1529.16,87.9763 1987.56,115.183 2245.64,234.698 2223.98,372.026 2052.53,474.699 1824.24,554.537 1617.6,612.432 1461.94,641.663 1347.56,639.558 1253.49,603.93 1165.51,530.246 1087.91,419.638 1048.21,295.265 1077.08,190.973 1213.34,122.632 1511.12,91.2152 1963.2,114.211 2235.71,228.22 2222.18,365.225 2056.14,470.002 1827.39,550.974 1620.3,608.87 1463.29,637.372 1347.79,633.971 1252.59,596.481 1163.26,520.205 1086.56,407.978 1050.01,284.9 1087.91,183.847 1233.19,119.393 1545.41,89.9196 1995.68,119.717 2239.32,239.232 2214.05,373.646 2041.25,475.509 1812.96,553.404 1608.12,608.87 1452.69,634.538 1337.19,627.169 1240.86,584.011 1150.17,500.934 1079.79,384.01 1058.13,262.876 1117.69,169.272 1292.75,111.944 1647.37,93.1585 2082.31,142.066 2255.56,273.888 2182.47,401.176 1987.11,496.723 1758.81,570.408 1565.94,619.882 1422.69,639.072 1315.53,625.226 1222.81,575.428 1136.19,486.197 1068.06,366.52 1058.13,247.329 1129.42,158.26 1332.45,106.114 1714.15,94.454 2128.33,156.964 2252.86,294.941 2159.01,415.751 1956.88,506.44 1729.94,578.019 1543.83,623.121 1405.99,636.724 1300.19,617.048 1207.02,559.881 1123.1,463.363 1066.25,340.933 1070.77,226.6 1167.32,145.628 1408.25,100.932 1825.14,102.875 2177.06,188.382 2235.71,326.034 2105.32,438.423 1886.05,524.092 1668.58,586.44 1494.65,619.558 1364.71,618.505 1259.81,579.962 1165.97,501.258 1093.33,386.925 1072.57,266.115 1137.54,171.216 1327.94,113.887 1694.3,98.3407 2105.77,155.021 2240.22,288.139 2152.69,410.569 1949.21,504.173 1722.72,573.809 1536.38,616.562 1398.32,626.278 1289.14,600.044 1193.49,534.456 1110.47,430.002 1067.16,306.925 1097.84,200.689 1235,130.082 1535.48,97.6929 1969.52,121.985 2221.27,234.374 2202.32,367.168 2032.68,469.193 1805.74,547.25 1600.45,600.205 1443.44,621.501 1325.01,607.088 1224.62,553.404 1134.83,459.638 1075.28,338.99 1085.2,225.629 1188.07,144.981 1438.93,101.58 1862.13,107.41 2196.01,199.394 2231.2,338.342 2089.08,447.168 1868,531.865 1651.43,593.242 1483.82,625.55 1358.39,623.849 1256.65,585.469 1164.61,506.764 1090.17,393.079 1064.45,272.269 1121.3,176.398 1296.36,115.831 1650.98,95.7496 2077.8,144.657 2244.73,275.508 2173.45,400.528 1977.64,495.59 1749.79,567.331 1557.81,614.619 1415.02,629.193 1304.7,609.112 1209.28,550.489 1123.1,452.674 1067.16,330.245 1077.99,217.532 1185.37,140.122 1442.54,98.9885 1871.16,106.762 2196.01,200.365 2224.88,338.99 2078.25,448.95 1857.62,529.76 1642.86,589.679 "/>
<polyline clip-path="url(#clip142)" style="stroke:#3da44d; stroke-linecap:round; stroke-linejoin:round; stroke-width:4; stroke-opacity:1; fill:none" points="1274.7,108.057 1360.87,111.296 1446.15,120.689 1530.74,136.236 1614.21,157.612 1695.88,184.171 1775.51,215.912 1852.21,252.511 1925.3,293.321 1993.88,337.694 2057.04,385.306 2114.34,436.156 2164.42,489.274 2206.84,544.335 2241.13,601.015 2266.39,658.829 2281.73,717.574 2287.15,776.846 2282.63,836.118 2267.29,895.025 2242.93,953.244 2208.64,1010.41 2165.78,1065.96 2114.8,1119.56 2056.14,1170.41 1991.62,1218.35 1921.69,1262.72 1847.7,1303.53 1770.09,1339.48 1689.56,1370.9 1606.77,1396.81 1522.4,1417.21 1437.12,1431.46 1351.4,1439.89 1265.45,1442.48 1179.73,1438.59 1094.45,1428.87 1009.86,1412.68 926.615,1390.98 845.403,1364.1 766.672,1332.03 690.874,1295.43 617.783,1254.62 549.655,1209.93 486.038,1161.99 429.19,1111.14 379.109,1057.86 337.149,1002.64 303.762,945.794 279.398,887.737 264.058,828.952 259.546,769.68 264.961,710.408 280.301,651.542 305.567,593.404 340.759,536.4 384.072,481.015 435.506,427.735 494.16,376.885 559.129,328.949 629.513,284.9 703.958,244.414 782.012,208.787 862.773,177.693 945.79,152.106 1030.39,132.025 1116.11,118.098 1202.29,110.001 1288.46,108.057 1374.64,112.268 1460.13,122.956 1544.73,139.151 1628.42,161.175 1709.86,188.706 1789.04,221.418 1865.29,258.665 1937.03,299.799 2004.71,344.82 2066.97,393.079 2122.92,444.415 2172.09,497.695 2213.15,553.08 2245.64,610.003 2269.1,668.06 2283.54,726.927 2287.15,786.198 2280.83,845.389 2264.59,904.337 2238.42,962.474 2203.23,1019.48 2158.56,1074.7 2106.22,1127.98 2047.12,1178.83 1981.7,1226.44 1910.86,1270.49 1835.97,1310.33 1757.91,1345.96 1676.7,1376.4 1593.91,1401.67 1509.09,1421.1 1423.81,1434.7 1337.64,1442.48 1251.46,1443.77 1165.29,1439.24 1079.79,1428.23 995.194,1411.38 912.177,1389.04 830.965,1360.86 752.234,1327.82 677.338,1290.25 605.15,1248.79 537.924,1203.45 476.112,1155.19 420.166,1104.01 370.537,1050.25 329.028,994.539 296.543,937.373 273.082,879.154 259.546,820.126 256.839,760.733 264.058,701.421 281.203,642.473 308.274,584.335 344.368,527.331 389.035,472.108 441.823,418.99 501.378,368.463 567.251,321.176 638.086,277.127 713.433,237.289 792.389,201.985 873.601,171.863 957.069,146.924 1042.12,127.815 1128.29,114.535 1214.92,107.41 1301.32,106.114 1387.72,111.296 1473.22,122.632 1558.27,140.122 1641.73,163.118 1722.95,191.297 1801.68,224.657 1877.02,262.552 1948.76,304.334 2015.54,350.002 2077.8,398.909 2132.84,450.407 2181.57,504.335 2222.18,560.205 2254.66,617.534 2277.22,675.995 2288.95,735.024 2291.66,794.457 2283.54,853.81 2265.49,912.758 2237.52,970.896 2200.52,1027.74 2154.95,1082.96 2101.26,1136.08 2040.8,1186.28 1974.48,1233.25 1903.19,1276.97 1827.85,1316.48 1749.34,1351.46 1667.9,1381.26 1584.66,1405.88 1499.84,1424.99 1414.11,1437.94 1327.94,1445.07 1241.76,1445.72 1156.04,1439.89 1070.77,1428.23 986.17,1410.74 902.928,1387.74 821.716,1359.24 743.662,1325.88 668.315,1287.98 596.126,1245.88 529.352,1200.21 467.991,1151.3 412.045,1099.8 364.22,1045.71 323.614,989.843 292.031,932.515 269.472,874.134 256.839,814.984 255.035,755.55 263.156,696.198 281.203,637.291 309.176,579.153 346.173,522.31 391.742,467.087 445.432,414.132 505.439,363.929 572.214,316.965 643.5,273.24 718.847,233.726 797.352,198.746 879.467,168.948 "/>
<path clip-path="url(#clip140)" d="M265.897 302.578 L781.708 302.578 L781.708 95.2176 L265.897 95.2176  Z" fill="#ffffff" fill-rule="evenodd" fill-opacity="1"/>
<polyline clip-path="url(#clip140)" style="stroke:#000000; stroke-linecap:round; stroke-linejoin:round; stroke-width:4; stroke-opacity:1; fill:none" points="265.897,302.578 781.708,302.578 781.708,95.2176 265.897,95.2176 265.897,302.578 "/>
<polyline clip-path="url(#clip140)" style="stroke:#009af9; stroke-linecap:round; stroke-linejoin:round; stroke-width:4; stroke-opacity:1; fill:none" points="289.884,147.058 433.805,147.058 "/>
<path clip-path="url(#clip140)" d="M465.199 131.051 L465.199 138.412 L473.972 138.412 L473.972 141.722 L465.199 141.722 L465.199 155.796 Q465.199 158.967 466.056 159.87 Q466.935 160.773 469.597 160.773 L473.972 160.773 L473.972 164.338 L469.597 164.338 Q464.667 164.338 462.792 162.509 Q460.917 160.657 460.917 155.796 L460.917 141.722 L457.792 141.722 L457.792 138.412 L460.917 138.412 L460.917 131.051 L465.199 131.051 Z" fill="#000000" fill-rule="nonzero" fill-opacity="1" /><path clip-path="url(#clip140)" d="M494.597 142.393 Q493.88 141.977 493.023 141.791 Q492.19 141.583 491.171 141.583 Q487.56 141.583 485.616 143.944 Q483.694 146.282 483.694 150.68 L483.694 164.338 L479.412 164.338 L479.412 138.412 L483.694 138.412 L483.694 142.44 Q485.037 140.078 487.19 138.944 Q489.343 137.787 492.421 137.787 Q492.861 137.787 493.393 137.856 Q493.926 137.903 494.574 138.018 L494.597 142.393 Z" fill="#000000" fill-rule="nonzero" fill-opacity="1" /><path clip-path="url(#clip140)" d="M510.847 151.305 Q505.685 151.305 503.694 152.486 Q501.704 153.666 501.704 156.514 Q501.704 158.782 503.185 160.125 Q504.69 161.444 507.259 161.444 Q510.801 161.444 512.93 158.944 Q515.083 156.421 515.083 152.254 L515.083 151.305 L510.847 151.305 M519.342 149.546 L519.342 164.338 L515.083 164.338 L515.083 160.402 Q513.625 162.763 511.449 163.898 Q509.273 165.009 506.125 165.009 Q502.143 165.009 499.782 162.787 Q497.444 160.541 497.444 156.791 Q497.444 152.416 500.361 150.194 Q503.301 147.972 509.111 147.972 L515.083 147.972 L515.083 147.555 Q515.083 144.615 513.139 143.018 Q511.217 141.398 507.722 141.398 Q505.5 141.398 503.393 141.93 Q501.287 142.463 499.342 143.527 L499.342 139.592 Q501.68 138.69 503.879 138.25 Q506.079 137.787 508.162 137.787 Q513.787 137.787 516.565 140.703 Q519.342 143.62 519.342 149.546 Z" fill="#000000" fill-rule="nonzero" fill-opacity="1" /><path clip-path="url(#clip140)" d="M528.115 138.412 L532.375 138.412 L532.375 164.338 L528.115 164.338 L528.115 138.412 M528.115 128.319 L532.375 128.319 L532.375 133.713 L528.115 133.713 L528.115 128.319 Z" fill="#000000" fill-rule="nonzero" fill-opacity="1" /><path clip-path="url(#clip140)" d="M562.837 148.689 L562.837 164.338 L558.578 164.338 L558.578 148.828 Q558.578 145.148 557.143 143.319 Q555.708 141.49 552.838 141.49 Q549.388 141.49 547.398 143.69 Q545.407 145.889 545.407 149.685 L545.407 164.338 L541.125 164.338 L541.125 138.412 L545.407 138.412 L545.407 142.44 Q546.935 140.102 548.995 138.944 Q551.078 137.787 553.787 137.787 Q558.254 137.787 560.546 140.565 Q562.837 143.319 562.837 148.689 Z" fill="#000000" fill-rule="nonzero" fill-opacity="1" /><path clip-path="url(#clip140)" d="M571.333 138.412 L575.592 138.412 L575.592 164.338 L571.333 164.338 L571.333 138.412 M571.333 128.319 L575.592 128.319 L575.592 133.713 L571.333 133.713 L571.333 128.319 Z" fill="#000000" fill-rule="nonzero" fill-opacity="1" /><path clip-path="url(#clip140)" d="M606.055 148.689 L606.055 164.338 L601.796 164.338 L601.796 148.828 Q601.796 145.148 600.36 143.319 Q598.925 141.49 596.055 141.49 Q592.606 141.49 590.615 143.69 Q588.624 145.889 588.624 149.685 L588.624 164.338 L584.342 164.338 L584.342 138.412 L588.624 138.412 L588.624 142.44 Q590.152 140.102 592.212 138.944 Q594.296 137.787 597.004 137.787 Q601.472 137.787 603.763 140.565 Q606.055 143.319 606.055 148.689 Z" fill="#000000" fill-rule="nonzero" fill-opacity="1" /><path clip-path="url(#clip140)" d="M631.61 151.074 Q631.61 146.444 629.689 143.898 Q627.791 141.352 624.342 141.352 Q620.916 141.352 618.995 143.898 Q617.096 146.444 617.096 151.074 Q617.096 155.68 618.995 158.226 Q620.916 160.773 624.342 160.773 Q627.791 160.773 629.689 158.226 Q631.61 155.68 631.61 151.074 M635.87 161.12 Q635.87 167.74 632.93 170.958 Q629.99 174.199 623.925 174.199 Q621.68 174.199 619.689 173.851 Q617.698 173.527 615.823 172.833 L615.823 168.689 Q617.698 169.708 619.527 170.194 Q621.356 170.68 623.254 170.68 Q627.444 170.68 629.527 168.481 Q631.61 166.305 631.61 161.884 L631.61 159.777 Q630.291 162.069 628.231 163.203 Q626.17 164.338 623.3 164.338 Q618.532 164.338 615.615 160.703 Q612.698 157.069 612.698 151.074 Q612.698 145.055 615.615 141.421 Q618.532 137.787 623.3 137.787 Q626.17 137.787 628.231 138.921 Q630.291 140.055 631.61 142.347 L631.61 138.412 L635.87 138.412 L635.87 161.12 Z" fill="#000000" fill-rule="nonzero" fill-opacity="1" /><path clip-path="url(#clip140)" d="M676.772 142.347 L676.772 128.319 L681.031 128.319 L681.031 164.338 L676.772 164.338 L676.772 160.449 Q675.429 162.763 673.369 163.898 Q671.332 165.009 668.462 165.009 Q663.763 165.009 660.8 161.259 Q657.86 157.509 657.86 151.398 Q657.86 145.287 660.8 141.537 Q663.763 137.787 668.462 137.787 Q671.332 137.787 673.369 138.921 Q675.429 140.032 676.772 142.347 M662.258 151.398 Q662.258 156.097 664.18 158.782 Q666.124 161.444 669.504 161.444 Q672.883 161.444 674.828 158.782 Q676.772 156.097 676.772 151.398 Q676.772 146.699 674.828 144.037 Q672.883 141.352 669.504 141.352 Q666.124 141.352 664.18 144.037 Q662.258 146.699 662.258 151.398 Z" fill="#000000" fill-rule="nonzero" fill-opacity="1" /><path clip-path="url(#clip140)" d="M701.587 151.305 Q696.425 151.305 694.434 152.486 Q692.443 153.666 692.443 156.514 Q692.443 158.782 693.925 160.125 Q695.429 161.444 697.999 161.444 Q701.54 161.444 703.67 158.944 Q705.823 156.421 705.823 152.254 L705.823 151.305 L701.587 151.305 M710.082 149.546 L710.082 164.338 L705.823 164.338 L705.823 160.402 Q704.365 162.763 702.189 163.898 Q700.013 165.009 696.865 165.009 Q692.883 165.009 690.522 162.787 Q688.184 160.541 688.184 156.791 Q688.184 152.416 691.101 150.194 Q694.04 147.972 699.851 147.972 L705.823 147.972 L705.823 147.555 Q705.823 144.615 703.878 143.018 Q701.957 141.398 698.462 141.398 Q696.24 141.398 694.133 141.93 Q692.027 142.463 690.082 143.527 L690.082 139.592 Q692.42 138.69 694.619 138.25 Q696.818 137.787 698.902 137.787 Q704.527 137.787 707.304 140.703 Q710.082 143.62 710.082 149.546 Z" fill="#000000" fill-rule="nonzero" fill-opacity="1" /><path clip-path="url(#clip140)" d="M723.068 131.051 L723.068 138.412 L731.841 138.412 L731.841 141.722 L723.068 141.722 L723.068 155.796 Q723.068 158.967 723.925 159.87 Q724.804 160.773 727.466 160.773 L731.841 160.773 L731.841 164.338 L727.466 164.338 Q722.536 164.338 720.661 162.509 Q718.786 160.657 718.786 155.796 L718.786 141.722 L715.661 141.722 L715.661 138.412 L718.786 138.412 L718.786 131.051 L723.068 131.051 Z" fill="#000000" fill-rule="nonzero" fill-opacity="1" /><path clip-path="url(#clip140)" d="M749.225 151.305 Q744.063 151.305 742.073 152.486 Q740.082 153.666 740.082 156.514 Q740.082 158.782 741.563 160.125 Q743.068 161.444 745.637 161.444 Q749.179 161.444 751.309 158.944 Q753.461 156.421 753.461 152.254 L753.461 151.305 L749.225 151.305 M757.721 149.546 L757.721 164.338 L753.461 164.338 L753.461 160.402 Q752.003 162.763 749.827 163.898 Q747.651 165.009 744.503 165.009 Q740.522 165.009 738.161 162.787 Q735.823 160.541 735.823 156.791 Q735.823 152.416 738.739 150.194 Q741.679 147.972 747.489 147.972 L753.461 147.972 L753.461 147.555 Q753.461 144.615 751.517 143.018 Q749.596 141.398 746.1 141.398 Q743.878 141.398 741.772 141.93 Q739.665 142.463 737.721 143.527 L737.721 139.592 Q740.059 138.69 742.258 138.25 Q744.457 137.787 746.54 137.787 Q752.165 137.787 754.943 140.703 Q757.721 143.62 757.721 149.546 Z" fill="#000000" fill-rule="nonzero" fill-opacity="1" /><polyline clip-path="url(#clip140)" style="stroke:#e26f46; stroke-linecap:round; stroke-linejoin:round; stroke-width:4; stroke-opacity:1; fill:none" points="289.884,198.898 433.805,198.898 "/>
<path clip-path="url(#clip140)" d="M457.792 181.618 L462.468 181.618 L462.468 212.242 L479.296 212.242 L479.296 216.178 L457.792 216.178 L457.792 181.618 Z" fill="#000000" fill-rule="nonzero" fill-opacity="1" /><path clip-path="url(#clip140)" d="M496.842 186.224 L490.5 203.423 L503.208 203.423 L496.842 186.224 M494.204 181.618 L499.505 181.618 L512.676 216.178 L507.815 216.178 L504.667 207.312 L489.088 207.312 L485.94 216.178 L481.009 216.178 L494.204 181.618 Z" fill="#000000" fill-rule="nonzero" fill-opacity="1" /><path clip-path="url(#clip140)" d="M553.509 182.752 L553.509 187.312 Q550.847 186.039 548.486 185.414 Q546.125 184.789 543.926 184.789 Q540.106 184.789 538.023 186.27 Q535.963 187.752 535.963 190.483 Q535.963 192.775 537.328 193.955 Q538.717 195.113 542.56 195.83 L545.384 196.409 Q550.615 197.405 553.092 199.928 Q555.592 202.428 555.592 206.641 Q555.592 211.664 552.213 214.256 Q548.856 216.849 542.351 216.849 Q539.898 216.849 537.12 216.293 Q534.365 215.738 531.402 214.65 L531.402 209.835 Q534.25 211.432 536.981 212.242 Q539.713 213.053 542.351 213.053 Q546.356 213.053 548.532 211.479 Q550.708 209.904 550.708 206.988 Q550.708 204.442 549.134 203.006 Q547.583 201.571 544.018 200.854 L541.171 200.298 Q535.939 199.256 533.602 197.034 Q531.264 194.812 531.264 190.854 Q531.264 186.27 534.481 183.631 Q537.722 180.993 543.393 180.993 Q545.824 180.993 548.347 181.432 Q550.87 181.872 553.509 182.752 Z" fill="#000000" fill-rule="nonzero" fill-opacity="1" /><path clip-path="url(#clip140)" d="M573.486 218.585 Q571.68 223.215 569.967 224.627 Q568.254 226.039 565.384 226.039 L561.981 226.039 L561.981 222.474 L564.481 222.474 Q566.24 222.474 567.212 221.64 Q568.185 220.807 569.365 217.705 L570.129 215.761 L559.643 190.252 L564.157 190.252 L572.259 210.529 L580.361 190.252 L584.874 190.252 L573.486 218.585 Z" fill="#000000" fill-rule="nonzero" fill-opacity="1" /><path clip-path="url(#clip140)" d="M610.939 195.229 Q612.536 192.358 614.759 190.993 Q616.981 189.627 619.99 189.627 Q624.041 189.627 626.24 192.474 Q628.439 195.298 628.439 200.529 L628.439 216.178 L624.157 216.178 L624.157 200.668 Q624.157 196.942 622.837 195.136 Q621.518 193.33 618.809 193.33 Q615.499 193.33 613.578 195.53 Q611.657 197.729 611.657 201.525 L611.657 216.178 L607.374 216.178 L607.374 200.668 Q607.374 196.918 606.055 195.136 Q604.735 193.33 601.981 193.33 Q598.717 193.33 596.796 195.553 Q594.874 197.752 594.874 201.525 L594.874 216.178 L590.592 216.178 L590.592 190.252 L594.874 190.252 L594.874 194.28 Q596.333 191.895 598.37 190.761 Q600.407 189.627 603.208 189.627 Q606.032 189.627 607.999 191.062 Q609.99 192.497 610.939 195.229 Z" fill="#000000" fill-rule="nonzero" fill-opacity="1" /><path clip-path="url(#clip140)" d="M641.055 212.289 L641.055 226.039 L636.772 226.039 L636.772 190.252 L641.055 190.252 L641.055 194.187 Q642.397 191.872 644.434 190.761 Q646.494 189.627 649.342 189.627 Q654.064 189.627 657.004 193.377 Q659.967 197.127 659.967 203.238 Q659.967 209.349 657.004 213.099 Q654.064 216.849 649.342 216.849 Q646.494 216.849 644.434 215.738 Q642.397 214.603 641.055 212.289 M655.545 203.238 Q655.545 198.539 653.601 195.877 Q651.68 193.192 648.3 193.192 Q644.92 193.192 642.976 195.877 Q641.055 198.539 641.055 203.238 Q641.055 207.937 642.976 210.622 Q644.92 213.284 648.3 213.284 Q651.68 213.284 653.601 210.622 Q655.545 207.937 655.545 203.238 Z" fill="#000000" fill-rule="nonzero" fill-opacity="1" /><path clip-path="url(#clip140)" d="M688.578 200.529 L688.578 216.178 L684.318 216.178 L684.318 200.668 Q684.318 196.988 682.883 195.159 Q681.448 193.33 678.578 193.33 Q675.129 193.33 673.138 195.53 Q671.147 197.729 671.147 201.525 L671.147 216.178 L666.865 216.178 L666.865 190.252 L671.147 190.252 L671.147 194.28 Q672.675 191.942 674.735 190.784 Q676.818 189.627 679.527 189.627 Q683.994 189.627 686.286 192.405 Q688.578 195.159 688.578 200.529 Z" fill="#000000" fill-rule="nonzero" fill-opacity="1" /><path clip-path="url(#clip140)" d="M719.249 202.15 L719.249 204.233 L699.665 204.233 Q699.943 208.631 702.304 210.946 Q704.689 213.238 708.925 213.238 Q711.378 213.238 713.67 212.636 Q715.985 212.034 718.253 210.83 L718.253 214.858 Q715.962 215.83 713.554 216.34 Q711.147 216.849 708.67 216.849 Q702.466 216.849 698.832 213.238 Q695.221 209.627 695.221 203.469 Q695.221 197.104 698.647 193.377 Q702.096 189.627 707.929 189.627 Q713.161 189.627 716.193 193.006 Q719.249 196.363 719.249 202.15 M714.989 200.9 Q714.943 197.405 713.022 195.321 Q711.124 193.238 707.976 193.238 Q704.411 193.238 702.258 195.252 Q700.128 197.266 699.804 200.923 L714.989 200.9 Z" fill="#000000" fill-rule="nonzero" fill-opacity="1" /><path clip-path="url(#clip140)" d="M730.452 182.891 L730.452 190.252 L739.225 190.252 L739.225 193.562 L730.452 193.562 L730.452 207.636 Q730.452 210.807 731.309 211.71 Q732.188 212.613 734.85 212.613 L739.225 212.613 L739.225 216.178 L734.85 216.178 Q729.92 216.178 728.045 214.349 Q726.17 212.497 726.17 207.636 L726.17 193.562 L723.045 193.562 L723.045 190.252 L726.17 190.252 L726.17 182.891 L730.452 182.891 Z" fill="#000000" fill-rule="nonzero" fill-opacity="1" /><polyline clip-path="url(#clip140)" style="stroke:#3da44d; stroke-linecap:round; stroke-linejoin:round; stroke-width:4; stroke-opacity:1; fill:none" points="289.884,250.738 433.805,250.738 "/>
<path clip-path="url(#clip140)" d="M483.347 263.087 L483.347 253.805 L475.708 253.805 L475.708 249.962 L487.977 249.962 L487.977 264.8 Q485.268 266.721 482.005 267.717 Q478.741 268.689 475.037 268.689 Q466.935 268.689 462.352 263.967 Q457.792 259.221 457.792 250.772 Q457.792 242.3 462.352 237.578 Q466.935 232.833 475.037 232.833 Q478.417 232.833 481.449 233.666 Q484.505 234.499 487.074 236.12 L487.074 241.096 Q484.481 238.897 481.565 237.786 Q478.648 236.675 475.431 236.675 Q469.088 236.675 465.894 240.217 Q462.722 243.758 462.722 250.772 Q462.722 257.763 465.894 261.305 Q469.088 264.846 475.431 264.846 Q477.907 264.846 479.852 264.43 Q481.796 263.99 483.347 263.087 Z" fill="#000000" fill-rule="nonzero" fill-opacity="1" /><path clip-path="url(#clip140)" d="M532.305 234.592 L532.305 239.152 Q529.643 237.879 527.282 237.254 Q524.921 236.629 522.722 236.629 Q518.903 236.629 516.819 238.11 Q514.759 239.592 514.759 242.323 Q514.759 244.615 516.125 245.795 Q517.514 246.953 521.356 247.67 L524.18 248.249 Q529.412 249.245 531.889 251.768 Q534.389 254.268 534.389 258.481 Q534.389 263.504 531.009 266.096 Q527.653 268.689 521.148 268.689 Q518.694 268.689 515.916 268.133 Q513.162 267.578 510.199 266.49 L510.199 261.675 Q513.046 263.272 515.778 264.082 Q518.509 264.893 521.148 264.893 Q525.153 264.893 527.328 263.319 Q529.504 261.744 529.504 258.828 Q529.504 256.282 527.93 254.846 Q526.379 253.411 522.815 252.694 L519.967 252.138 Q514.736 251.096 512.398 248.874 Q510.06 246.652 510.06 242.694 Q510.06 238.11 513.278 235.471 Q516.518 232.833 522.19 232.833 Q524.62 232.833 527.143 233.272 Q529.666 233.712 532.305 234.592 Z" fill="#000000" fill-rule="nonzero" fill-opacity="1" /><path clip-path="url(#clip140)" d="M552.282 270.425 Q550.476 275.055 548.763 276.467 Q547.051 277.879 544.18 277.879 L540.777 277.879 L540.777 274.314 L543.277 274.314 Q545.037 274.314 546.009 273.48 Q546.981 272.647 548.162 269.545 L548.926 267.601 L538.439 242.092 L542.953 242.092 L551.055 262.369 L559.157 242.092 L563.671 242.092 L552.282 270.425 Z" fill="#000000" fill-rule="nonzero" fill-opacity="1" /><path clip-path="url(#clip140)" d="M589.736 247.069 Q591.333 244.198 593.555 242.833 Q595.777 241.467 598.786 241.467 Q602.837 241.467 605.036 244.314 Q607.235 247.138 607.235 252.369 L607.235 268.018 L602.953 268.018 L602.953 252.508 Q602.953 248.782 601.634 246.976 Q600.314 245.17 597.606 245.17 Q594.296 245.17 592.374 247.37 Q590.453 249.569 590.453 253.365 L590.453 268.018 L586.171 268.018 L586.171 252.508 Q586.171 248.758 584.851 246.976 Q583.532 245.17 580.777 245.17 Q577.513 245.17 575.592 247.393 Q573.671 249.592 573.671 253.365 L573.671 268.018 L569.388 268.018 L569.388 242.092 L573.671 242.092 L573.671 246.12 Q575.129 243.735 577.166 242.601 Q579.203 241.467 582.004 241.467 Q584.828 241.467 586.796 242.902 Q588.786 244.337 589.736 247.069 Z" fill="#000000" fill-rule="nonzero" fill-opacity="1" /><path clip-path="url(#clip140)" d="M619.851 264.129 L619.851 277.879 L615.569 277.879 L615.569 242.092 L619.851 242.092 L619.851 246.027 Q621.194 243.712 623.231 242.601 Q625.291 241.467 628.138 241.467 Q632.86 241.467 635.8 245.217 Q638.763 248.967 638.763 255.078 Q638.763 261.189 635.8 264.939 Q632.86 268.689 628.138 268.689 Q625.291 268.689 623.231 267.578 Q621.194 266.443 619.851 264.129 M634.342 255.078 Q634.342 250.379 632.397 247.717 Q630.476 245.032 627.096 245.032 Q623.717 245.032 621.772 247.717 Q619.851 250.379 619.851 255.078 Q619.851 259.777 621.772 262.462 Q623.717 265.124 627.096 265.124 Q630.476 265.124 632.397 262.462 Q634.342 259.777 634.342 255.078 Z" fill="#000000" fill-rule="nonzero" fill-opacity="1" /><path clip-path="url(#clip140)" d="M667.374 252.369 L667.374 268.018 L663.115 268.018 L663.115 252.508 Q663.115 248.828 661.68 246.999 Q660.244 245.17 657.374 245.17 Q653.925 245.17 651.934 247.37 Q649.944 249.569 649.944 253.365 L649.944 268.018 L645.661 268.018 L645.661 242.092 L649.944 242.092 L649.944 246.12 Q651.471 243.782 653.531 242.624 Q655.615 241.467 658.323 241.467 Q662.791 241.467 665.082 244.245 Q667.374 246.999 667.374 252.369 Z" fill="#000000" fill-rule="nonzero" fill-opacity="1" /><path clip-path="url(#clip140)" d="M698.045 253.99 L698.045 256.073 L678.462 256.073 Q678.74 260.471 681.101 262.786 Q683.485 265.078 687.721 265.078 Q690.175 265.078 692.466 264.476 Q694.781 263.874 697.05 262.67 L697.05 266.698 Q694.758 267.67 692.351 268.18 Q689.943 268.689 687.466 268.689 Q681.263 268.689 677.629 265.078 Q674.017 261.467 674.017 255.309 Q674.017 248.944 677.443 245.217 Q680.892 241.467 686.726 241.467 Q691.957 241.467 694.99 244.846 Q698.045 248.203 698.045 253.99 M693.786 252.74 Q693.74 249.245 691.818 247.161 Q689.92 245.078 686.772 245.078 Q683.207 245.078 681.054 247.092 Q678.925 249.106 678.601 252.763 L693.786 252.74 Z" fill="#000000" fill-rule="nonzero" fill-opacity="1" /><path clip-path="url(#clip140)" d="M709.249 234.731 L709.249 242.092 L718.022 242.092 L718.022 245.402 L709.249 245.402 L709.249 259.476 Q709.249 262.647 710.105 263.55 Q710.985 264.453 713.647 264.453 L718.022 264.453 L718.022 268.018 L713.647 268.018 Q708.716 268.018 706.841 266.189 Q704.966 264.337 704.966 259.476 L704.966 245.402 L701.841 245.402 L701.841 242.092 L704.966 242.092 L704.966 234.731 L709.249 234.731 Z" fill="#000000" fill-rule="nonzero" fill-opacity="1" /></svg>
