<?xml version="1.0" encoding="utf-8"?>
<svg xmlns="http://www.w3.org/2000/svg" xmlns:xlink="http://www.w3.org/1999/xlink" width="600" height="400" viewBox="0 0 2400 1600">
<defs>
  <clipPath id="clip800">
    <rect x="0" y="0" width="2400" height="1600"/>
  </clipPath>
</defs>
<path clip-path="url(#clip800)" d="M0 1600 L2400 1600 L2400 0 L0 0  Z" fill="#ffffff" fill-rule="evenodd" fill-opacity="1"/>
<defs>
  <clipPath id="clip801">
    <rect x="480" y="0" width="1681" height="1600"/>
  </clipPath>
</defs>
<path clip-path="url(#clip800)" d="M193.936 1486.45 L2352.76 1486.45 L2352.76 47.2441 L193.936 47.2441  Z" fill="#ffffff" fill-rule="evenodd" fill-opacity="1"/>
<defs>
  <clipPath id="clip802">
    <rect x="193" y="47" width="2160" height="1440"/>
  </clipPath>
</defs>
<polyline clip-path="url(#clip802)" style="stroke:#000000; stroke-linecap:round; stroke-linejoin:round; stroke-width:2; stroke-opacity:0.1; fill:none" points="300.631,1486.45 300.631,47.2441 "/>
<polyline clip-path="url(#clip802)" style="stroke:#000000; stroke-linecap:round; stroke-linejoin:round; stroke-width:2; stroke-opacity:0.1; fill:none" points="786.988,1486.45 786.988,47.2441 "/>
<polyline clip-path="url(#clip802)" style="stroke:#000000; stroke-linecap:round; stroke-linejoin:round; stroke-width:2; stroke-opacity:0.1; fill:none" points="1273.35,1486.45 1273.35,47.2441 "/>
<polyline clip-path="url(#clip802)" style="stroke:#000000; stroke-linecap:round; stroke-linejoin:round; stroke-width:2; stroke-opacity:0.1; fill:none" points="1759.7,1486.45 1759.7,47.2441 "/>
<polyline clip-path="url(#clip802)" style="stroke:#000000; stroke-linecap:round; stroke-linejoin:round; stroke-width:2; stroke-opacity:0.1; fill:none" points="2246.06,1486.45 2246.06,47.2441 "/>
<polyline clip-path="url(#clip800)" style="stroke:#000000; stroke-linecap:round; stroke-linejoin:round; stroke-width:4; stroke-opacity:1; fill:none" points="193.936,1486.45 2352.76,1486.45 "/>
<polyline clip-path="url(#clip800)" style="stroke:#000000; stroke-linecap:round; stroke-linejoin:round; stroke-width:4; stroke-opacity:1; fill:none" points="300.631,1486.45 300.631,1467.55 "/>
<polyline clip-path="url(#clip800)" style="stroke:#000000; stroke-linecap:round; stroke-linejoin:round; stroke-width:4; stroke-opacity:1; fill:none" points="786.988,1486.45 786.988,1467.55 "/>
<polyline clip-path="url(#clip800)" style="stroke:#000000; stroke-linecap:round; stroke-linejoin:round; stroke-width:4; stroke-opacity:1; fill:none" points="1273.35,1486.45 1273.35,1467.55 "/>
<polyline clip-path="url(#clip800)" style="stroke:#000000; stroke-linecap:round; stroke-linejoin:round; stroke-width:4; stroke-opacity:1; fill:none" points="1759.7,1486.45 1759.7,1467.55 "/>
<polyline clip-path="url(#clip800)" style="stroke:#000000; stroke-linecap:round; stroke-linejoin:round; stroke-width:4; stroke-opacity:1; fill:none" points="2246.06,1486.45 2246.06,1467.55 "/>
<path clip-path="url(#clip800)" d="M247.159 1532.02 L276.835 1532.02 L276.835 1535.95 L247.159 1535.95 L247.159 1532.02 Z" fill="#000000" fill-rule="nonzero" fill-opacity="1" /><path clip-path="url(#clip800)" d="M287.737 1544.91 L295.376 1544.91 L295.376 1518.55 L287.066 1520.21 L287.066 1515.95 L295.33 1514.29 L300.006 1514.29 L300.006 1544.91 L307.645 1544.91 L307.645 1548.85 L287.737 1548.85 L287.737 1544.91 Z" fill="#000000" fill-rule="nonzero" fill-opacity="1" /><path clip-path="url(#clip800)" d="M317.089 1542.97 L321.973 1542.97 L321.973 1548.85 L317.089 1548.85 L317.089 1542.97 Z" fill="#000000" fill-rule="nonzero" fill-opacity="1" /><path clip-path="url(#clip800)" d="M342.158 1517.37 Q338.547 1517.37 336.718 1520.93 Q334.913 1524.47 334.913 1531.6 Q334.913 1538.71 336.718 1542.27 Q338.547 1545.82 342.158 1545.82 Q345.792 1545.82 347.598 1542.27 Q349.427 1538.71 349.427 1531.6 Q349.427 1524.47 347.598 1520.93 Q345.792 1517.37 342.158 1517.37 M342.158 1513.66 Q347.968 1513.66 351.024 1518.27 Q354.103 1522.85 354.103 1531.6 Q354.103 1540.33 351.024 1544.94 Q347.968 1549.52 342.158 1549.52 Q336.348 1549.52 333.269 1544.94 Q330.214 1540.33 330.214 1531.6 Q330.214 1522.85 333.269 1518.27 Q336.348 1513.66 342.158 1513.66 Z" fill="#000000" fill-rule="nonzero" fill-opacity="1" /><path clip-path="url(#clip800)" d="M734.014 1532.02 L763.69 1532.02 L763.69 1535.95 L734.014 1535.95 L734.014 1532.02 Z" fill="#000000" fill-rule="nonzero" fill-opacity="1" /><path clip-path="url(#clip800)" d="M783.782 1517.37 Q780.171 1517.37 778.343 1520.93 Q776.537 1524.47 776.537 1531.6 Q776.537 1538.71 778.343 1542.27 Q780.171 1545.82 783.782 1545.82 Q787.417 1545.82 789.222 1542.27 Q791.051 1538.71 791.051 1531.6 Q791.051 1524.47 789.222 1520.93 Q787.417 1517.37 783.782 1517.37 M783.782 1513.66 Q789.592 1513.66 792.648 1518.27 Q795.727 1522.85 795.727 1531.6 Q795.727 1540.33 792.648 1544.94 Q789.592 1549.52 783.782 1549.52 Q777.972 1549.52 774.893 1544.94 Q771.838 1540.33 771.838 1531.6 Q771.838 1522.85 774.893 1518.27 Q777.972 1513.66 783.782 1513.66 Z" fill="#000000" fill-rule="nonzero" fill-opacity="1" /><path clip-path="url(#clip800)" d="M803.944 1542.97 L808.828 1542.97 L808.828 1548.85 L803.944 1548.85 L803.944 1542.97 Z" fill="#000000" fill-rule="nonzero" fill-opacity="1" /><path clip-path="url(#clip800)" d="M819.06 1514.29 L837.416 1514.29 L837.416 1518.22 L823.342 1518.22 L823.342 1526.7 Q824.361 1526.35 825.379 1526.19 Q826.398 1526 827.416 1526 Q833.203 1526 836.583 1529.17 Q839.963 1532.34 839.963 1537.76 Q839.963 1543.34 836.49 1546.44 Q833.018 1549.52 826.699 1549.52 Q824.523 1549.52 822.254 1549.15 Q820.009 1548.78 817.602 1548.04 L817.602 1543.34 Q819.685 1544.47 821.907 1545.03 Q824.129 1545.58 826.606 1545.58 Q830.611 1545.58 832.949 1543.48 Q835.287 1541.37 835.287 1537.76 Q835.287 1534.15 832.949 1532.04 Q830.611 1529.94 826.606 1529.94 Q824.731 1529.94 822.856 1530.35 Q821.004 1530.77 819.06 1531.65 L819.06 1514.29 Z" fill="#000000" fill-rule="nonzero" fill-opacity="1" /><path clip-path="url(#clip800)" d="M1250.73 1517.37 Q1247.12 1517.37 1245.29 1520.93 Q1243.49 1524.47 1243.49 1531.6 Q1243.49 1538.71 1245.29 1542.27 Q1247.12 1545.82 1250.73 1545.82 Q1254.36 1545.82 1256.17 1542.27 Q1258 1538.71 1258 1531.6 Q1258 1524.47 1256.17 1520.93 Q1254.36 1517.37 1250.73 1517.37 M1250.73 1513.66 Q1256.54 1513.66 1259.6 1518.27 Q1262.67 1522.85 1262.67 1531.6 Q1262.67 1540.33 1259.6 1544.94 Q1256.54 1549.52 1250.73 1549.52 Q1244.92 1549.52 1241.84 1544.94 Q1238.79 1540.33 1238.79 1531.6 Q1238.79 1522.85 1241.84 1518.27 Q1244.92 1513.66 1250.73 1513.66 Z" fill="#000000" fill-rule="nonzero" fill-opacity="1" /><path clip-path="url(#clip800)" d="M1270.89 1542.97 L1275.78 1542.97 L1275.78 1548.85 L1270.89 1548.85 L1270.89 1542.97 Z" fill="#000000" fill-rule="nonzero" fill-opacity="1" /><path clip-path="url(#clip800)" d="M1295.96 1517.37 Q1292.35 1517.37 1290.52 1520.93 Q1288.72 1524.47 1288.72 1531.6 Q1288.72 1538.71 1290.52 1542.27 Q1292.35 1545.82 1295.96 1545.82 Q1299.6 1545.82 1301.4 1542.27 Q1303.23 1538.71 1303.23 1531.6 Q1303.23 1524.47 1301.4 1520.93 Q1299.6 1517.37 1295.96 1517.37 M1295.96 1513.66 Q1301.77 1513.66 1304.83 1518.27 Q1307.91 1522.85 1307.91 1531.6 Q1307.91 1540.33 1304.83 1544.94 Q1301.77 1549.52 1295.96 1549.52 Q1290.15 1549.52 1287.07 1544.94 Q1284.02 1540.33 1284.02 1531.6 Q1284.02 1522.85 1287.07 1518.27 Q1290.15 1513.66 1295.96 1513.66 Z" fill="#000000" fill-rule="nonzero" fill-opacity="1" /><path clip-path="url(#clip800)" d="M1737.59 1517.37 Q1733.97 1517.37 1732.15 1520.93 Q1730.34 1524.47 1730.34 1531.6 Q1730.34 1538.71 1732.15 1542.27 Q1733.97 1545.82 1737.59 1545.82 Q1741.22 1545.82 1743.03 1542.27 Q1744.85 1538.71 1744.85 1531.6 Q1744.85 1524.47 1743.03 1520.93 Q1741.22 1517.37 1737.59 1517.37 M1737.59 1513.66 Q1743.4 1513.66 1746.45 1518.27 Q1749.53 1522.85 1749.53 1531.6 Q1749.53 1540.33 1746.45 1544.94 Q1743.4 1549.52 1737.59 1549.52 Q1731.78 1549.52 1728.7 1544.94 Q1725.64 1540.33 1725.64 1531.6 Q1725.64 1522.85 1728.7 1518.27 Q1731.78 1513.66 1737.59 1513.66 Z" fill="#000000" fill-rule="nonzero" fill-opacity="1" /><path clip-path="url(#clip800)" d="M1757.75 1542.97 L1762.63 1542.97 L1762.63 1548.85 L1757.75 1548.85 L1757.75 1542.97 Z" fill="#000000" fill-rule="nonzero" fill-opacity="1" /><path clip-path="url(#clip800)" d="M1772.86 1514.29 L1791.22 1514.29 L1791.22 1518.22 L1777.15 1518.22 L1777.15 1526.7 Q1778.16 1526.35 1779.18 1526.19 Q1780.2 1526 1781.22 1526 Q1787.01 1526 1790.39 1529.17 Q1793.77 1532.34 1793.77 1537.76 Q1793.77 1543.34 1790.29 1546.44 Q1786.82 1549.52 1780.5 1549.52 Q1778.33 1549.52 1776.06 1549.15 Q1773.81 1548.78 1771.4 1548.04 L1771.4 1543.34 Q1773.49 1544.47 1775.71 1545.03 Q1777.93 1545.58 1780.41 1545.58 Q1784.41 1545.58 1786.75 1543.48 Q1789.09 1541.37 1789.09 1537.76 Q1789.09 1534.15 1786.75 1532.04 Q1784.41 1529.94 1780.41 1529.94 Q1778.53 1529.94 1776.66 1530.35 Q1774.81 1530.77 1772.86 1531.65 L1772.86 1514.29 Z" fill="#000000" fill-rule="nonzero" fill-opacity="1" /><path clip-path="url(#clip800)" d="M2213.21 1544.91 L2220.85 1544.91 L2220.85 1518.55 L2212.54 1520.21 L2212.54 1515.95 L2220.81 1514.29 L2225.48 1514.29 L2225.48 1544.91 L2233.12 1544.91 L2233.12 1548.85 L2213.21 1548.85 L2213.21 1544.91 Z" fill="#000000" fill-rule="nonzero" fill-opacity="1" /><path clip-path="url(#clip800)" d="M2242.57 1542.97 L2247.45 1542.97 L2247.45 1548.85 L2242.57 1548.85 L2242.57 1542.97 Z" fill="#000000" fill-rule="nonzero" fill-opacity="1" /><path clip-path="url(#clip800)" d="M2267.64 1517.37 Q2264.02 1517.37 2262.2 1520.93 Q2260.39 1524.47 2260.39 1531.6 Q2260.39 1538.71 2262.2 1542.27 Q2264.02 1545.82 2267.64 1545.82 Q2271.27 1545.82 2273.07 1542.27 Q2274.9 1538.71 2274.9 1531.6 Q2274.9 1524.47 2273.07 1520.93 Q2271.27 1517.37 2267.64 1517.37 M2267.64 1513.66 Q2273.45 1513.66 2276.5 1518.27 Q2279.58 1522.85 2279.58 1531.6 Q2279.58 1540.33 2276.5 1544.94 Q2273.45 1549.52 2267.64 1549.52 Q2261.83 1549.52 2258.75 1544.94 Q2255.69 1540.33 2255.69 1531.6 Q2255.69 1522.85 2258.75 1518.27 Q2261.83 1513.66 2267.64 1513.66 Z" fill="#000000" fill-rule="nonzero" fill-opacity="1" /><polyline clip-path="url(#clip802)" style="stroke:#000000; stroke-linecap:round; stroke-linejoin:round; stroke-width:2; stroke-opacity:0.1; fill:none" points="193.936,1443.07 2352.76,1443.07 "/>
<polyline clip-path="url(#clip802)" style="stroke:#000000; stroke-linecap:round; stroke-linejoin:round; stroke-width:2; stroke-opacity:0.1; fill:none" points="193.936,1104.3 2352.76,1104.3 "/>
<polyline clip-path="url(#clip802)" style="stroke:#000000; stroke-linecap:round; stroke-linejoin:round; stroke-width:2; stroke-opacity:0.1; fill:none" points="193.936,765.523 2352.76,765.523 "/>
<polyline clip-path="url(#clip802)" style="stroke:#000000; stroke-linecap:round; stroke-linejoin:round; stroke-width:2; stroke-opacity:0.1; fill:none" points="193.936,426.749 2352.76,426.749 "/>
<polyline clip-path="url(#clip802)" style="stroke:#000000; stroke-linecap:round; stroke-linejoin:round; stroke-width:2; stroke-opacity:0.1; fill:none" points="193.936,87.9763 2352.76,87.9763 "/>
<polyline clip-path="url(#clip800)" style="stroke:#000000; stroke-linecap:round; stroke-linejoin:round; stroke-width:4; stroke-opacity:1; fill:none" points="193.936,1486.45 193.936,47.2441 "/>
<polyline clip-path="url(#clip800)" style="stroke:#000000; stroke-linecap:round; stroke-linejoin:round; stroke-width:4; stroke-opacity:1; fill:none" points="193.936,1443.07 212.834,1443.07 "/>
<polyline clip-path="url(#clip800)" style="stroke:#000000; stroke-linecap:round; stroke-linejoin:round; stroke-width:4; stroke-opacity:1; fill:none" points="193.936,1104.3 212.834,1104.3 "/>
<polyline clip-path="url(#clip800)" style="stroke:#000000; stroke-linecap:round; stroke-linejoin:round; stroke-width:4; stroke-opacity:1; fill:none" points="193.936,765.523 212.834,765.523 "/>
<polyline clip-path="url(#clip800)" style="stroke:#000000; stroke-linecap:round; stroke-linejoin:round; stroke-width:4; stroke-opacity:1; fill:none" points="193.936,426.749 212.834,426.749 "/>
<polyline clip-path="url(#clip800)" style="stroke:#000000; stroke-linecap:round; stroke-linejoin:round; stroke-width:4; stroke-opacity:1; fill:none" points="193.936,87.9763 212.834,87.9763 "/>
<path clip-path="url(#clip800)" d="M50.9921 1443.52 L80.6679 1443.52 L80.6679 1447.46 L50.9921 1447.46 L50.9921 1443.52 Z" fill="#000000" fill-rule="nonzero" fill-opacity="1" /><path clip-path="url(#clip800)" d="M91.5706 1456.41 L99.2095 1456.41 L99.2095 1430.05 L90.8993 1431.71 L90.8993 1427.46 L99.1632 1425.79 L103.839 1425.79 L103.839 1456.41 L111.478 1456.41 L111.478 1460.35 L91.5706 1460.35 L91.5706 1456.41 Z" fill="#000000" fill-rule="nonzero" fill-opacity="1" /><path clip-path="url(#clip800)" d="M120.922 1454.47 L125.807 1454.47 L125.807 1460.35 L120.922 1460.35 L120.922 1454.47 Z" fill="#000000" fill-rule="nonzero" fill-opacity="1" /><path clip-path="url(#clip800)" d="M145.992 1428.87 Q142.381 1428.87 140.552 1432.43 Q138.746 1435.97 138.746 1443.1 Q138.746 1450.21 140.552 1453.77 Q142.381 1457.32 145.992 1457.32 Q149.626 1457.32 151.431 1453.77 Q153.26 1450.21 153.26 1443.1 Q153.26 1435.97 151.431 1432.43 Q149.626 1428.87 145.992 1428.87 M145.992 1425.16 Q151.802 1425.16 154.857 1429.77 Q157.936 1434.35 157.936 1443.1 Q157.936 1451.83 154.857 1456.44 Q151.802 1461.02 145.992 1461.02 Q140.181 1461.02 137.103 1456.44 Q134.047 1451.83 134.047 1443.1 Q134.047 1434.35 137.103 1429.77 Q140.181 1425.16 145.992 1425.16 Z" fill="#000000" fill-rule="nonzero" fill-opacity="1" /><path clip-path="url(#clip800)" d="M51.9875 1104.75 L81.6633 1104.75 L81.6633 1108.68 L51.9875 1108.68 L51.9875 1104.75 Z" fill="#000000" fill-rule="nonzero" fill-opacity="1" /><path clip-path="url(#clip800)" d="M101.756 1090.09 Q98.1447 1090.09 96.316 1093.66 Q94.5104 1097.2 94.5104 1104.33 Q94.5104 1111.44 96.316 1115 Q98.1447 1118.54 101.756 1118.54 Q105.39 1118.54 107.196 1115 Q109.024 1111.44 109.024 1104.33 Q109.024 1097.2 107.196 1093.66 Q105.39 1090.09 101.756 1090.09 M101.756 1086.39 Q107.566 1086.39 110.621 1091 Q113.7 1095.58 113.7 1104.33 Q113.7 1113.06 110.621 1117.66 Q107.566 1122.25 101.756 1122.25 Q95.9456 1122.25 92.8669 1117.66 Q89.8114 1113.06 89.8114 1104.33 Q89.8114 1095.58 92.8669 1091 Q95.9456 1086.39 101.756 1086.39 Z" fill="#000000" fill-rule="nonzero" fill-opacity="1" /><path clip-path="url(#clip800)" d="M121.918 1115.7 L126.802 1115.7 L126.802 1121.58 L121.918 1121.58 L121.918 1115.7 Z" fill="#000000" fill-rule="nonzero" fill-opacity="1" /><path clip-path="url(#clip800)" d="M137.033 1087.02 L155.39 1087.02 L155.39 1090.95 L141.316 1090.95 L141.316 1099.42 Q142.334 1099.08 143.353 1098.91 Q144.371 1098.73 145.39 1098.73 Q151.177 1098.73 154.556 1101.9 Q157.936 1105.07 157.936 1110.49 Q157.936 1116.07 154.464 1119.17 Q150.992 1122.25 144.672 1122.25 Q142.496 1122.25 140.228 1121.88 Q137.982 1121.51 135.575 1120.77 L135.575 1116.07 Q137.658 1117.2 139.881 1117.76 Q142.103 1118.31 144.58 1118.31 Q148.584 1118.31 150.922 1116.21 Q153.26 1114.1 153.26 1110.49 Q153.26 1106.88 150.922 1104.77 Q148.584 1102.66 144.58 1102.66 Q142.705 1102.66 140.83 1103.08 Q138.978 1103.5 137.033 1104.38 L137.033 1087.02 Z" fill="#000000" fill-rule="nonzero" fill-opacity="1" /><path clip-path="url(#clip800)" d="M100.76 751.321 Q97.1493 751.321 95.3206 754.886 Q93.515 758.428 93.515 765.557 Q93.515 772.664 95.3206 776.229 Q97.1493 779.77 100.76 779.77 Q104.395 779.77 106.2 776.229 Q108.029 772.664 108.029 765.557 Q108.029 758.428 106.2 754.886 Q104.395 751.321 100.76 751.321 M100.76 747.618 Q106.571 747.618 109.626 752.224 Q112.705 756.807 112.705 765.557 Q112.705 774.284 109.626 778.891 Q106.571 783.474 100.76 783.474 Q94.9502 783.474 91.8715 778.891 Q88.816 774.284 88.816 765.557 Q88.816 756.807 91.8715 752.224 Q94.9502 747.618 100.76 747.618 Z" fill="#000000" fill-rule="nonzero" fill-opacity="1" /><path clip-path="url(#clip800)" d="M120.922 776.923 L125.807 776.923 L125.807 782.803 L120.922 782.803 L120.922 776.923 Z" fill="#000000" fill-rule="nonzero" fill-opacity="1" /><path clip-path="url(#clip800)" d="M145.992 751.321 Q142.381 751.321 140.552 754.886 Q138.746 758.428 138.746 765.557 Q138.746 772.664 140.552 776.229 Q142.381 779.77 145.992 779.77 Q149.626 779.77 151.431 776.229 Q153.26 772.664 153.26 765.557 Q153.26 758.428 151.431 754.886 Q149.626 751.321 145.992 751.321 M145.992 747.618 Q151.802 747.618 154.857 752.224 Q157.936 756.807 157.936 765.557 Q157.936 774.284 154.857 778.891 Q151.802 783.474 145.992 783.474 Q140.181 783.474 137.103 778.891 Q134.047 774.284 134.047 765.557 Q134.047 756.807 137.103 752.224 Q140.181 747.618 145.992 747.618 Z" fill="#000000" fill-rule="nonzero" fill-opacity="1" /><path clip-path="url(#clip800)" d="M101.756 412.548 Q98.1447 412.548 96.316 416.113 Q94.5104 419.655 94.5104 426.784 Q94.5104 433.891 96.316 437.455 Q98.1447 440.997 101.756 440.997 Q105.39 440.997 107.196 437.455 Q109.024 433.891 109.024 426.784 Q109.024 419.655 107.196 416.113 Q105.39 412.548 101.756 412.548 M101.756 408.844 Q107.566 408.844 110.621 413.451 Q113.7 418.034 113.7 426.784 Q113.7 435.511 110.621 440.117 Q107.566 444.701 101.756 444.701 Q95.9456 444.701 92.8669 440.117 Q89.8114 435.511 89.8114 426.784 Q89.8114 418.034 92.8669 413.451 Q95.9456 408.844 101.756 408.844 Z" fill="#000000" fill-rule="nonzero" fill-opacity="1" /><path clip-path="url(#clip800)" d="M121.918 438.15 L126.802 438.15 L126.802 444.029 L121.918 444.029 L121.918 438.15 Z" fill="#000000" fill-rule="nonzero" fill-opacity="1" /><path clip-path="url(#clip800)" d="M137.033 409.469 L155.39 409.469 L155.39 413.405 L141.316 413.405 L141.316 421.877 Q142.334 421.53 143.353 421.368 Q144.371 421.182 145.39 421.182 Q151.177 421.182 154.556 424.354 Q157.936 427.525 157.936 432.942 Q157.936 438.52 154.464 441.622 Q150.992 444.701 144.672 444.701 Q142.496 444.701 140.228 444.33 Q137.982 443.96 135.575 443.219 L135.575 438.52 Q137.658 439.654 139.881 440.21 Q142.103 440.766 144.58 440.766 Q148.584 440.766 150.922 438.659 Q153.26 436.553 153.26 432.942 Q153.26 429.33 150.922 427.224 Q148.584 425.118 144.58 425.118 Q142.705 425.118 140.83 425.534 Q138.978 425.951 137.033 426.83 L137.033 409.469 Z" fill="#000000" fill-rule="nonzero" fill-opacity="1" /><path clip-path="url(#clip800)" d="M91.5706 101.321 L99.2095 101.321 L99.2095 74.9555 L90.8993 76.6222 L90.8993 72.3629 L99.1632 70.6963 L103.839 70.6963 L103.839 101.321 L111.478 101.321 L111.478 105.256 L91.5706 105.256 L91.5706 101.321 Z" fill="#000000" fill-rule="nonzero" fill-opacity="1" /><path clip-path="url(#clip800)" d="M120.922 99.3767 L125.807 99.3767 L125.807 105.256 L120.922 105.256 L120.922 99.3767 Z" fill="#000000" fill-rule="nonzero" fill-opacity="1" /><path clip-path="url(#clip800)" d="M145.992 73.775 Q142.381 73.775 140.552 77.3398 Q138.746 80.8814 138.746 88.011 Q138.746 95.1174 140.552 98.6822 Q142.381 102.224 145.992 102.224 Q149.626 102.224 151.431 98.6822 Q153.26 95.1174 153.26 88.011 Q153.26 80.8814 151.431 77.3398 Q149.626 73.775 145.992 73.775 M145.992 70.0713 Q151.802 70.0713 154.857 74.6777 Q157.936 79.261 157.936 88.011 Q157.936 96.7378 154.857 101.344 Q151.802 105.928 145.992 105.928 Q140.181 105.928 137.103 101.344 Q134.047 96.7378 134.047 88.011 Q134.047 79.261 137.103 74.6777 Q140.181 70.0713 145.992 70.0713 Z" fill="#000000" fill-rule="nonzero" fill-opacity="1" /><polyline clip-path="url(#clip802)" style="stroke:#009af9; stroke-linecap:round; stroke-linejoin:round; stroke-width:4; stroke-opacity:1; fill:none" points="1273.35,87.9763 1370.36,91.2846 1466.42,101.54 1560.7,118.082 1651.89,140.579 1739.52,169.361 1822.87,203.106 1900.77,241.483 1972.96,284.16 2038.5,330.477 2097.4,380.102 2149.17,431.877 2193.34,485.969 2229.44,541.714 2257.46,598.535 2277.41,656.348 2288.81,714.698 2291.66,773.333 2286.91,831.896 2272.66,890.164 2250.81,947.812 2220.41,1004.38 2182.42,1059.63 2136.35,1113.23 2082.68,1164.51 2021.88,1213.14 1954.44,1258.46 1880.34,1300.15 1801.02,1337.53 1716.72,1369.95 1627.9,1397.08 1535.76,1418.26 1441.01,1432.81 1344.59,1441.41 1247.46,1442.74 1150.57,1437.78 1054.98,1425.87 961.536,1407.67 871.056,1383.19 784.614,1353.41 702.446,1318.34 625.977,1278.64 555.683,1234.64 491.564,1187.67 434.569,1137.38 385.173,1084.94 342.902,1030.35 309.18,974.278 283.532,917.127 265.484,859.148 255.985,800.715 255.985,742.096 262.634,683.559 278.783,625.498 303.005,568.181 335.778,511.774 376.149,457.021 424.12,403.922 479.69,353.304 542.385,305.334 611.254,261.002 686.772,220.31 767.515,184.249 853.245,153.481 943.012,128.007 1035.99,108.488 1131.21,95.2546 1227.96,88.6379 1325.12,88.9688 1421.77,95.9163 1517,109.48 1609.62,129.33 1699.15,155.135 1784.4,186.565 1865.14,222.956 1940.19,263.98 2008.58,308.642 2070.8,356.613 2125.9,407.23 2173.39,460.494 2213.29,515.413 2245.11,571.82 2268.86,629.302 2284.06,687.405 2291.66,745.941 2289.76,804.582 2280.26,863.036 2262.21,920.932 2235.61,978.083 2200.94,1033.99 2158.67,1088.42 2108.32,1140.69 2050.85,1190.64 1986.73,1237.62 1915.49,1281.29 1839.02,1320.66 1756.62,1355.4 1669.94,1385.17 1579.22,1408.99 1485.53,1426.86 1389.77,1438.11 1292.85,1443.07 1195.75,1440.75 1099.39,1432.15 1004.76,1416.93 912.852,1395.43 824.273,1367.97 740.442,1335.22 661.124,1297.5 587.981,1255.82 520.537,1210.16 460.217,1161.2 407.496,1109.59 361.9,1055.99 323.904,1000.75 293.981,944.007 273.083,886.359 259.784,828.05 255.035,769.482 258.834,710.852 270.233,652.543 291.132,594.813 319.629,537.909 356.201,482.329 400.847,428.404 452.617,376.794 511.987,327.5 578.481,281.183 650.675,238.836 729.043,200.79 812.636,167.045 900.741,138.925 992.17,116.759 1086.57,100.548 1182.69,90.9538 1279.73,87.9763 1376.71,91.9463 1472.71,102.202 1566.63,119.405 1657.82,142.564 1745.22,171.346 1828.1,205.422 1905.52,244.13 1977.23,287.138 2042.78,333.785 2101.2,383.41 2152.49,435.517 2195.72,489.608 2231.34,545.353 2259.36,602.339 2278.36,660.152 2288.81,718.586 2291.66,777.185 2285.96,835.742 2271.71,893.969 2248.91,951.451 2218.04,1008.02 2179.57,1063.27 2133.02,1116.54 2078.88,1167.82 2017.61,1216.12 1949.69,1261.44 1875.59,1302.8 1795.8,1339.85 1711.02,1371.94 1621.97,1398.41 1529.59,1419.25 1434.71,1433.81 1338.18,1441.41 1241.08,1442.74 1144.28,1437.11 1048.69,1424.87 955.361,1406.02 865.119,1381.53 778.914,1351.1 697.221,1315.7 621.228,1275.67 551.409,1231.67 487.764,1184.36 431.244,1134.07 381.849,1081.3 340.527,1026.72 307.28,970.639 281.632,913.405 264.534,855.344 255.985,796.869 255.985,738.229 263.584,679.754 280.682,621.693 304.905,564.376 338.152,508.134 378.999,453.382 427.445,400.614 483.49,349.996 546.659,302.356 616.478,258.355 691.997,217.994 773.215,182.264 859.182,151.496 948.949,126.353 "/>
<polyline clip-path="url(#clip802)" style="stroke:#e26f46; stroke-linecap:round; stroke-linejoin:round; stroke-width:4; stroke-opacity:1; fill:none" points="1273.35,87.9763 1383.06,97.2396 1495.98,114.774 1610.57,140.579 1725.51,173.993 1833.8,214.355 1934.49,260.34 2020.93,309.965 2095.02,363.229 2152.49,417.486 2191.92,472.404 2215.66,525.999 2222.31,577.609 2213.76,627.234 2193.34,674.213 2162.94,718.544 2126.85,760.891 2086.95,801.914 2046.58,841.614 2007.16,881.314 1970.59,921.014 1936.86,960.714 1907.89,1001.74 1882.72,1044.08 1861.34,1087.75 1840.92,1132.42 1821.45,1177.74 1799.6,1222.07 1773.95,1265.08 1741.66,1306.77 1701.52,1344.15 1651.65,1377.23 1591.57,1404.03 1519.37,1425.2 1433.41,1437.78 1339.6,1442.74 1234.4,1438.44 1122.19,1426.2 1007.37,1405.35 891.954,1376.9 780.814,1340.84 676.798,1298.49 583.231,1251.85 499.163,1201.56 432.669,1148.63 380.899,1094.37 347.652,1040.78 330.078,987.843 329.128,936.894 342.427,888.593 366.175,842.276 398.472,798.606 435.994,756.921 475.89,716.559 516.262,676.859 555.209,637.159 590.83,596.798 621.703,555.774 648.775,514.089 672.998,471.743 695.321,428.073 713.845,383.079 732.843,338.086 756.591,294.085 784.139,251.408 818.811,211.377 862.269,174.655 915.94,143.225 981.009,117.751 1056.29,99.8863 1145.58,89.9613 1243.42,87.9763 1349.81,94.5929 1461.19,110.142 1575.89,133.631 1688.7,164.73 1798.65,202.445 1901.72,246.776 1991.48,295.409 2068.43,347.349 2129.7,400.944 2174.34,454.539 2202.37,508.134 2214.24,560.406 2210.91,610.031 2194.77,657.009 2168.17,701.341 2133.97,743.688 2095.5,784.711 2055.6,824.411 2016.18,864.111 1978.66,903.149 1944.46,942.849 1915.02,983.211 1887.94,1024.9 1865.14,1067.9 1845.2,1111.57 1825.25,1155.91 1804.35,1200.24 1779.65,1244.24 1749.49,1285.59 1713.16,1324.63 1666.61,1360.03 1610.33,1389.47 1541.94,1412.63 1464.28,1428.51 1376.17,1436.45 1276.43,1437.44 1171.23,1429.17 1058.78,1411.97 947.049,1387.16 833.772,1355.07 727.144,1316.03 629.777,1272.03 540.96,1223.73 465.916,1171.79 407.971,1118.19 367.125,1064.6 342.902,1012.32 334.353,960.714 341.477,911.089 360.001,864.111 388.498,819.779 424.12,777.433 463.067,737.071 502.963,698.033 542.385,658.994 578.956,619.956 612.204,580.918 641.651,540.556 666.349,499.533 688.672,456.524 709.095,412.524 728.093,368.854 748.517,324.191 773.689,280.852 804.087,239.167 841.609,200.46 889.104,165.722 945.387,137.601 1012.59,115.766 1093.57,100.548 1183.58,93.6004 1283.8,94.5929 1392.09,104.518 1502.63,122.714 1613.42,148.519 1725.03,181.602 1830.95,221.302 1928.31,265.634 2014.28,314.928 2085.53,366.538 2141.57,419.471 2179.57,473.066 2201.89,525.338 2207.59,575.624 2199.99,623.926 2180.52,669.581 2151.54,713.251 2116.4,754.274 2077.45,794.636 2037.55,833.674 1998.13,872.713 1962.04,911.751 1929.26,950.789 1901.24,991.151 1876.07,1032.17 1854.22,1074.85 1833.8,1118.85 1814.32,1163.18 1794.85,1207.18 1770.15,1250.19 1741.66,1291.88 1705.08,1330.59 1657.59,1365.32 1601.3,1393.44 1534.1,1415.28 1453.12,1430.5 1363.11,1437.44 1262.9,1436.45 1154.61,1426.53 1044.06,1408.33 933.276,1382.53 821.66,1349.44 715.745,1309.74 618.378,1265.41 532.411,1216.12 461.167,1164.51 405.122,1111.57 367.125,1057.98 344.802,1005.71 339.102,955.421 346.702,907.119 366.175,861.464 395.147,817.794 430.294,776.771 469.241,736.409 509.138,697.371 548.559,658.333 584.656,619.294 "/>
<polyline clip-path="url(#clip802)" style="stroke:#3da44d; stroke-linecap:round; stroke-linejoin:round; stroke-width:4; stroke-opacity:1; fill:none" points="1273.35,87.9763 1368.63,90.9538 1463.21,100.548 1556.18,116.428 1646.66,138.263 1733.82,166.053 1816.7,199.467 1895.07,237.513 1967.26,279.86 2033.28,326.176 2092.65,375.47 2144.9,426.749 2189.54,480.51 2226.11,535.924 2254.61,592.166 2274.56,650.062 2285.96,707.627 2288.81,765.688 2284.06,823.749 2271.71,881.728 2250.81,939.045 2221.84,995.783 2184.79,1051.03 2140.15,1104.63 2088.37,1155.91 2029.48,1204.87 1964.41,1250.52 1893.17,1292.21 1816.7,1330.25 1735.01,1363.67 1649.04,1391.79 1559.51,1414.29 1467.84,1430.83 1373.98,1441.08 1278.99,1445.05 1183.64,1442.08 1089.06,1432.48 996.208,1416.6 905.728,1394.77 818.811,1366.98 735.693,1333.89 657.325,1296.18 585.131,1254.16 518.637,1208.18 458.792,1158.88 406.546,1106.94 361.9,1053.02 325.804,997.768 297.781,941.195 276.883,883.63 264.534,825.9 260.734,767.342 265.484,709.033 278.783,651.054 300.631,593.82 330.078,537.413 367.125,481.999 412.246,428.404 464.016,376.463 522.911,327.5 588.931,281.845 660.649,239.829 738.068,202.114 819.998,168.7 905.728,140.91 995.258,118.744 1087.4,102.533 1181.26,92.6079 1276.14,88.9688 1371.19,91.6154 1465.94,101.21 1558.8,117.09 1649.28,139.255 1736.43,167.376 1819.07,200.46 1897.44,238.836 1970.11,281.183 2036.13,326.838 2095.5,375.801 2147.27,427.907 2191.92,481.833 2228.49,537.248 2257.46,593.82 2277.41,651.22 2288.81,709.281 2291.66,767.342 2286.91,825.9 2273.61,884.374 2251.76,941.857 2222.31,998.429 2184.79,1053.68 2139.67,1107.27 2087.43,1158.88 2028.06,1207.52 1962.51,1253.5 1890.79,1295.52 1813.85,1333.23 1731.92,1366.32 1645.71,1394.44 1555.95,1416.6 1463.57,1432.81 1369.23,1442.41 1274.18,1445.72 1178.89,1442.74 1084.07,1433.14 990.983,1417.26 900.503,1394.77 813.586,1366.98 730.943,1333.23 652.575,1294.86 580.381,1252.51 514.362,1206.19 454.992,1157.23 403.222,1104.96 359.051,1050.7 322.479,994.955 294.931,938.879 274.983,881.48 263.584,823.088 260.734,764.696 266.434,706.469 280.682,648.408 303.005,590.843 332.453,534.105 370.45,479.021 415.571,425.426 468.291,373.816 527.661,325.184 593.205,279.86 665.399,238.175 742.817,200.79 824.985,168.038 910.953,140.248 1000.24,118.413 1092.39,102.533 1186.31,92.9388 1281.18,89.6304 1376.12,92.6079 1470.57,102.202 1563.55,118.744 1653.79,140.91 1740.47,169.361 1822.87,203.437 1900.29,241.814 1972.49,284.491 2038.5,331.47 2096.92,380.433 2148.69,432.539 2192.39,486.299 2228.01,541.879 2255.56,598.452 2275.51,656.182 2286.91,714.244 2289.76,772.47 2284.06,830.531 2269.81,888.593 2247.01,945.827 2216.61,1002.4 2178.62,1057.65 2133.02,1110.91 2079.83,1161.86 2019.98,1210.49 1953.96,1255.49 1882.24,1296.84 1805.3,1333.89 1723.37,1366.32 1637.64,1393.44 1548.11,1414.95 1456.09,1430.83 1362.16,1440.09 1267.17,1442.74 1172.18,1439.1 1077.9,1429.17 985.521,1412.63 895.754,1389.8 809.311,1361.35 727.144,1327.28 649.725,1288.57 578.007,1246.22 512.462,1199.58 454.042,1150.28 402.747,1098.18 359.526,1044.08 324.379,988.504 297.781,931.932 278.783,874.532 268.334,816.14 266.434,758.079 273.083,699.687 287.332,641.708 310.13,584.722 341.002,528.481 379.474,473.397 425.545,420.133 478.74,369.184 539.06,320.883 605.554,275.89 677.748,234.535 755.166,197.482 837.334,165.391 "/>
<path clip-path="url(#clip800)" d="M265.897 302.578 L781.708 302.578 L781.708 95.2176 L265.897 95.2176  Z" fill="#ffffff" fill-rule="evenodd" fill-opacity="1"/>
<polyline clip-path="url(#clip800)" style="stroke:#000000; stroke-linecap:round; stroke-linejoin:round; stroke-width:4; stroke-opacity:1; fill:none" points="265.897,302.578 781.708,302.578 781.708,95.2176 265.897,95.2176 265.897,302.578 "/>
<polyline clip-path="url(#clip800)" style="stroke:#009af9; stroke-linecap:round; stroke-linejoin:round; stroke-width:4; stroke-opacity:1; fill:none" points="289.884,147.058 433.805,147.058 "/>
<path clip-path="url(#clip800)" d="M465.199 131.051 L465.199 138.412 L473.972 138.412 L473.972 141.722 L465.199 141.722 L465.199 155.796 Q465.199 158.967 466.056 159.87 Q466.935 160.773 469.597 160.773 L473.972 160.773 L473.972 164.338 L469.597 164.338 Q464.667 164.338 462.792 162.509 Q460.917 160.657 460.917 155.796 L460.917 141.722 L457.792 141.722 L457.792 138.412 L460.917 138.412 L460.917 131.051 L465.199 131.051 Z" fill="#000000" fill-rule="nonzero" fill-opacity="1" /><path clip-path="url(#clip800)" d="M494.597 142.393 Q493.88 141.977 493.023 141.791 Q492.19 141.583 491.171 141.583 Q487.56 141.583 485.616 143.944 Q483.694 146.282 483.694 150.68 L483.694 164.338 L479.412 164.338 L479.412 138.412 L483.694 138.412 L483.694 142.44 Q485.037 140.078 487.19 138.944 Q489.343 137.787 492.421 137.787 Q492.861 137.787 493.393 137.856 Q493.926 137.903 494.574 138.018 L494.597 142.393 Z" fill="#000000" fill-rule="nonzero" fill-opacity="1" /><path clip-path="url(#clip800)" d="M510.847 151.305 Q505.685 151.305 503.694 152.486 Q501.704 153.666 501.704 156.514 Q501.704 158.782 503.185 160.125 Q504.69 161.444 507.259 161.444 Q510.801 161.444 512.93 158.944 Q515.083 156.421 515.083 152.254 L515.083 151.305 L510.847 151.305 M519.342 149.546 L519.342 164.338 L515.083 164.338 L515.083 160.402 Q513.625 162.763 511.449 163.898 Q509.273 165.009 506.125 165.009 Q502.143 165.009 499.782 162.787 Q497.444 160.541 497.444 156.791 Q497.444 152.416 500.361 150.194 Q503.301 147.972 509.111 147.972 L515.083 147.972 L515.083 147.555 Q515.083 144.615 513.139 143.018 Q511.217 141.398 507.722 141.398 Q505.5 141.398 503.393 141.93 Q501.287 142.463 499.342 143.527 L499.342 139.592 Q501.68 138.69 503.879 138.25 Q506.079 137.787 508.162 137.787 Q513.787 137.787 516.565 140.703 Q519.342 143.62 519.342 149.546 Z" fill="#000000" fill-rule="nonzero" fill-opacity="1" /><path clip-path="url(#clip800)" d="M528.115 138.412 L532.375 138.412 L532.375 164.338 L528.115 164.338 L528.115 138.412 M528.115 128.319 L532.375 128.319 L532.375 133.713 L528.115 133.713 L528.115 128.319 Z" fill="#000000" fill-rule="nonzero" fill-opacity="1" /><path clip-path="url(#clip800)" d="M562.837 148.689 L562.837 164.338 L558.578 164.338 L558.578 148.828 Q558.578 145.148 557.143 143.319 Q555.708 141.49 552.838 141.49 Q549.388 141.49 547.398 143.69 Q545.407 145.889 545.407 149.685 L545.407 164.338 L541.125 164.338 L541.125 138.412 L545.407 138.412 L545.407 142.44 Q546.935 140.102 548.995 138.944 Q551.078 137.787 553.787 137.787 Q558.254 137.787 560.546 140.565 Q562.837 143.319 562.837 148.689 Z" fill="#000000" fill-rule="nonzero" fill-opacity="1" /><path clip-path="url(#clip800)" d="M571.333 138.412 L575.592 138.412 L575.592 164.338 L571.333 164.338 L571.333 138.412 M571.333 128.319 L575.592 128.319 L575.592 133.713 L571.333 133.713 L571.333 128.319 Z" fill="#000000" fill-rule="nonzero" fill-opacity="1" /><path clip-path="url(#clip800)" d="M606.055 148.689 L606.055 164.338 L601.796 164.338 L601.796 148.828 Q601.796 145.148 600.36 143.319 Q598.925 141.49 596.055 141.49 Q592.606 141.49 590.615 143.69 Q588.624 145.889 588.624 149.685 L588.624 164.338 L584.342 164.338 L584.342 138.412 L588.624 138.412 L588.624 142.44 Q590.152 140.102 592.212 138.944 Q594.296 137.787 597.004 137.787 Q601.472 137.787 603.763 140.565 Q606.055 143.319 606.055 148.689 Z" fill="#000000" fill-rule="nonzero" fill-opacity="1" /><path clip-path="url(#clip800)" d="M631.61 151.074 Q631.61 146.444 629.689 143.898 Q627.791 141.352 624.342 141.352 Q620.916 141.352 618.995 143.898 Q617.096 146.444 617.096 151.074 Q617.096 155.68 618.995 158.226 Q620.916 160.773 624.342 160.773 Q627.791 160.773 629.689 158.226 Q631.61 155.68 631.61 151.074 M635.87 161.12 Q635.87 167.74 632.93 170.958 Q629.99 174.199 623.925 174.199 Q621.68 174.199 619.689 173.851 Q617.698 173.527 615.823 172.833 L615.823 168.689 Q617.698 169.708 619.527 170.194 Q621.356 170.68 623.254 170.68 Q627.444 170.68 629.527 168.481 Q631.61 166.305 631.61 161.884 L631.61 159.777 Q630.291 162.069 628.231 163.203 Q626.17 164.338 623.3 164.338 Q618.532 164.338 615.615 160.703 Q612.698 157.069 612.698 151.074 Q612.698 145.055 615.615 141.421 Q618.532 137.787 623.3 137.787 Q626.17 137.787 628.231 138.921 Q630.291 140.055 631.61 142.347 L631.61 138.412 L635.87 138.412 L635.87 161.12 Z" fill="#000000" fill-rule="nonzero" fill-opacity="1" /><path clip-path="url(#clip800)" d="M676.772 142.347 L676.772 128.319 L681.031 128.319 L681.031 164.338 L676.772 164.338 L676.772 160.449 Q675.429 162.763 673.369 163.898 Q671.332 165.009 668.462 165.009 Q663.763 165.009 660.8 161.259 Q657.86 157.509 657.86 151.398 Q657.86 145.287 660.8 141.537 Q663.763 137.787 668.462 137.787 Q671.332 137.787 673.369 138.921 Q675.429 140.032 676.772 142.347 M662.258 151.398 Q662.258 156.097 664.18 158.782 Q666.124 161.444 669.504 161.444 Q672.883 161.444 674.828 158.782 Q676.772 156.097 676.772 151.398 Q676.772 146.699 674.828 144.037 Q672.883 141.352 669.504 141.352 Q666.124 141.352 664.18 144.037 Q662.258 146.699 662.258 151.398 Z" fill="#000000" fill-rule="nonzero" fill-opacity="1" /><path clip-path="url(#clip800)" d="M701.587 151.305 Q696.425 151.305 694.434 152.486 Q692.443 153.666 692.443 156.514 Q692.443 158.782 693.925 160.125 Q695.429 161.444 697.999 161.444 Q701.54 161.444 703.67 158.944 Q705.823 156.421 705.823 152.254 L705.823 151.305 L701.587 151.305 M710.082 149.546 L710.082 164.338 L705.823 164.338 L705.823 160.402 Q704.365 162.763 702.189 163.898 Q700.013 165.009 696.865 165.009 Q692.883 165.009 690.522 162.787 Q688.184 160.541 688.184 156.791 Q688.184 152.416 691.101 150.194 Q694.04 147.972 699.851 147.972 L705.823 147.972 L705.823 147.555 Q705.823 144.615 703.878 143.018 Q701.957 141.398 698.462 141.398 Q696.24 141.398 694.133 141.93 Q692.027 142.463 690.082 143.527 L690.082 139.592 Q692.42 138.69 694.619 138.25 Q696.818 137.787 698.902 137.787 Q704.527 137.787 707.304 140.703 Q710.082 143.62 710.082 149.546 Z" fill="#000000" fill-rule="nonzero" fill-opacity="1" /><path clip-path="url(#clip800)" d="M723.068 131.051 L723.068 138.412 L731.841 138.412 L731.841 141.722 L723.068 141.722 L723.068 155.796 Q723.068 158.967 723.925 159.87 Q724.804 160.773 727.466 160.773 L731.841 160.773 L731.841 164.338 L727.466 164.338 Q722.536 164.338 720.661 162.509 Q718.786 160.657 718.786 155.796 L718.786 141.722 L715.661 141.722 L715.661 138.412 L718.786 138.412 L718.786 131.051 L723.068 131.051 Z" fill="#000000" fill-rule="nonzero" fill-opacity="1" /><path clip-path="url(#clip800)" d="M749.225 151.305 Q744.063 151.305 742.073 152.486 Q740.082 153.666 740.082 156.514 Q740.082 158.782 741.563 160.125 Q743.068 161.444 745.637 161.444 Q749.179 161.444 751.309 158.944 Q753.461 156.421 753.461 152.254 L753.461 151.305 L749.225 151.305 M757.721 149.546 L757.721 164.338 L753.461 164.338 L753.461 160.402 Q752.003 162.763 749.827 163.898 Q747.651 165.009 744.503 165.009 Q740.522 165.009 738.161 162.787 Q735.823 160.541 735.823 156.791 Q735.823 152.416 738.739 150.194 Q741.679 147.972 747.489 147.972 L753.461 147.972 L753.461 147.555 Q753.461 144.615 751.517 143.018 Q749.596 141.398 746.1 141.398 Q743.878 141.398 741.772 141.93 Q739.665 142.463 737.721 143.527 L737.721 139.592 Q740.059 138.69 742.258 138.25 Q744.457 137.787 746.54 137.787 Q752.165 137.787 754.943 140.703 Q757.721 143.62 757.721 149.546 Z" fill="#000000" fill-rule="nonzero" fill-opacity="1" /><polyline clip-path="url(#clip800)" style="stroke:#e26f46; stroke-linecap:round; stroke-linejoin:round; stroke-width:4; stroke-opacity:1; fill:none" points="289.884,198.898 433.805,198.898 "/>
<path clip-path="url(#clip800)" d="M457.792 181.618 L462.468 181.618 L462.468 212.242 L479.296 212.242 L479.296 216.178 L457.792 216.178 L457.792 181.618 Z" fill="#000000" fill-rule="nonzero" fill-opacity="1" /><path clip-path="url(#clip800)" d="M496.842 186.224 L490.5 203.423 L503.208 203.423 L496.842 186.224 M494.204 181.618 L499.505 181.618 L512.676 216.178 L507.815 216.178 L504.667 207.312 L489.088 207.312 L485.94 216.178 L481.009 216.178 L494.204 181.618 Z" fill="#000000" fill-rule="nonzero" fill-opacity="1" /><path clip-path="url(#clip800)" d="M553.509 182.752 L553.509 187.312 Q550.847 186.039 548.486 185.414 Q546.125 184.789 543.926 184.789 Q540.106 184.789 538.023 186.27 Q535.963 187.752 535.963 190.483 Q535.963 192.775 537.328 193.955 Q538.717 195.113 542.56 195.83 L545.384 196.409 Q550.615 197.405 553.092 199.928 Q555.592 202.428 555.592 206.641 Q555.592 211.664 552.213 214.256 Q548.856 216.849 542.351 216.849 Q539.898 216.849 537.12 216.293 Q534.365 215.738 531.402 214.65 L531.402 209.835 Q534.25 211.432 536.981 212.242 Q539.713 213.053 542.351 213.053 Q546.356 213.053 548.532 211.479 Q550.708 209.904 550.708 206.988 Q550.708 204.442 549.134 203.006 Q547.583 201.571 544.018 200.854 L541.171 200.298 Q535.939 199.256 533.602 197.034 Q531.264 194.812 531.264 190.854 Q531.264 186.27 534.481 183.631 Q537.722 180.993 543.393 180.993 Q545.824 180.993 548.347 181.432 Q550.87 181.872 553.509 182.752 Z" fill="#000000" fill-rule="nonzero" fill-opacity="1" /><path clip-path="url(#clip800)" d="M573.486 218.585 Q571.68 223.215 569.967 224.627 Q568.254 226.039 565.384 226.039 L561.981 226.039 L561.981 222.474 L564.481 222.474 Q566.24 222.474 567.212 221.64 Q568.185 220.807 569.365 217.705 L570.129 215.761 L559.643 190.252 L564.157 190.252 L572.259 210.529 L580.361 190.252 L584.874 190.252 L573.486 218.585 Z" fill="#000000" fill-rule="nonzero" fill-opacity="1" /><path clip-path="url(#clip800)" d="M610.939 195.229 Q612.536 192.358 614.759 190.993 Q616.981 189.627 619.99 189.627 Q624.041 189.627 626.24 192.474 Q628.439 195.298 628.439 200.529 L628.439 216.178 L624.157 216.178 L624.157 200.668 Q624.157 196.942 622.837 195.136 Q621.518 193.33 618.809 193.33 Q615.499 193.33 613.578 195.53 Q611.657 197.729 611.657 201.525 L611.657 216.178 L607.374 216.178 L607.374 200.668 Q607.374 196.918 606.055 195.136 Q604.735 193.33 601.981 193.33 Q598.717 193.33 596.796 195.553 Q594.874 197.752 594.874 201.525 L594.874 216.178 L590.592 216.178 L590.592 190.252 L594.874 190.252 L594.874 194.28 Q596.333 191.895 598.37 190.761 Q600.407 189.627 603.208 189.627 Q606.032 189.627 607.999 191.062 Q609.99 192.497 610.939 195.229 Z" fill="#000000" fill-rule="nonzero" fill-opacity="1" /><path clip-path="url(#clip800)" d="M641.055 212.289 L641.055 226.039 L636.772 226.039 L636.772 190.252 L641.055 190.252 L641.055 194.187 Q642.397 191.872 644.434 190.761 Q646.494 189.627 649.342 189.627 Q654.064 189.627 657.004 193.377 Q659.967 197.127 659.967 203.238 Q659.967 209.349 657.004 213.099 Q654.064 216.849 649.342 216.849 Q646.494 216.849 644.434 215.738 Q642.397 214.603 641.055 212.289 M655.545 203.238 Q655.545 198.539 653.601 195.877 Q651.68 193.192 648.3 193.192 Q644.92 193.192 642.976 195.877 Q641.055 198.539 641.055 203.238 Q641.055 207.937 642.976 210.622 Q644.92 213.284 648.3 213.284 Q651.68 213.284 653.601 210.622 Q655.545 207.937 655.545 203.238 Z" fill="#000000" fill-rule="nonzero" fill-opacity="1" /><path clip-path="url(#clip800)" d="M688.578 200.529 L688.578 216.178 L684.318 216.178 L684.318 200.668 Q684.318 196.988 682.883 195.159 Q681.448 193.33 678.578 193.33 Q675.129 193.33 673.138 195.53 Q671.147 197.729 671.147 201.525 L671.147 216.178 L666.865 216.178 L666.865 190.252 L671.147 190.252 L671.147 194.28 Q672.675 191.942 674.735 190.784 Q676.818 189.627 679.527 189.627 Q683.994 189.627 686.286 192.405 Q688.578 195.159 688.578 200.529 Z" fill="#000000" fill-rule="nonzero" fill-opacity="1" /><path clip-path="url(#clip800)" d="M719.249 202.15 L719.249 204.233 L699.665 204.233 Q699.943 208.631 702.304 210.946 Q704.689 213.238 708.925 213.238 Q711.378 213.238 713.67 212.636 Q715.985 212.034 718.253 210.83 L718.253 214.858 Q715.962 215.83 713.554 216.34 Q711.147 216.849 708.67 216.849 Q702.466 216.849 698.832 213.238 Q695.221 209.627 695.221 203.469 Q695.221 197.104 698.647 193.377 Q702.096 189.627 707.929 189.627 Q713.161 189.627 716.193 193.006 Q719.249 196.363 719.249 202.15 M714.989 200.9 Q714.943 197.405 713.022 195.321 Q711.124 193.238 707.976 193.238 Q704.411 193.238 702.258 195.252 Q700.128 197.266 699.804 200.923 L714.989 200.9 Z" fill="#000000" fill-rule="nonzero" fill-opacity="1" /><path clip-path="url(#clip800)" d="M730.452 182.891 L730.452 190.252 L739.225 190.252 L739.225 193.562 L730.452 193.562 L730.452 207.636 Q730.452 210.807 731.309 211.71 Q732.188 212.613 734.85 212.613 L739.225 212.613 L739.225 216.178 L734.85 216.178 Q729.92 216.178 728.045 214.349 Q726.17 212.497 726.17 207.636 L726.17 193.562 L723.045 193.562 L723.045 190.252 L726.17 190.252 L726.17 182.891 L730.452 182.891 Z" fill="#000000" fill-rule="nonzero" fill-opacity="1" /><polyline clip-path="url(#clip800)" style="stroke:#3da44d; stroke-linecap:round; stroke-linejoin:round; stroke-width:4; stroke-opacity:1; fill:none" points="289.884,250.738 433.805,250.738 "/>
<path clip-path="url(#clip800)" d="M483.347 263.087 L483.347 253.805 L475.708 253.805 L475.708 249.962 L487.977 249.962 L487.977 264.8 Q485.268 266.721 482.005 267.717 Q478.741 268.689 475.037 268.689 Q466.935 268.689 462.352 263.967 Q457.792 259.221 457.792 250.772 Q457.792 242.3 462.352 237.578 Q466.935 232.833 475.037 232.833 Q478.417 232.833 481.449 233.666 Q484.505 234.499 487.074 236.12 L487.074 241.096 Q484.481 238.897 481.565 237.786 Q478.648 236.675 475.431 236.675 Q469.088 236.675 465.894 240.217 Q462.722 243.758 462.722 250.772 Q462.722 257.763 465.894 261.305 Q469.088 264.846 475.431 264.846 Q477.907 264.846 479.852 264.43 Q481.796 263.99 483.347 263.087 Z" fill="#000000" fill-rule="nonzero" fill-opacity="1" /><path clip-path="url(#clip800)" d="M532.305 234.592 L532.305 239.152 Q529.643 237.879 527.282 237.254 Q524.921 236.629 522.722 236.629 Q518.903 236.629 516.819 238.11 Q514.759 239.592 514.759 242.323 Q514.759 244.615 516.125 245.795 Q517.514 246.953 521.356 247.67 L524.18 248.249 Q529.412 249.245 531.889 251.768 Q534.389 254.268 534.389 258.481 Q534.389 263.504 531.009 266.096 Q527.653 268.689 521.148 268.689 Q518.694 268.689 515.916 268.133 Q513.162 267.578 510.199 266.49 L510.199 261.675 Q513.046 263.272 515.778 264.082 Q518.509 264.893 521.148 264.893 Q525.153 264.893 527.328 263.319 Q529.504 261.744 529.504 258.828 Q529.504 256.282 527.93 254.846 Q526.379 253.411 522.815 252.694 L519.967 252.138 Q514.736 251.096 512.398 248.874 Q510.06 246.652 510.06 242.694 Q510.06 238.11 513.278 235.471 Q516.518 232.833 522.19 232.833 Q524.62 232.833 527.143 233.272 Q529.666 233.712 532.305 234.592 Z" fill="#000000" fill-rule="nonzero" fill-opacity="1" /><path clip-path="url(#clip800)" d="M552.282 270.425 Q550.476 275.055 548.763 276.467 Q547.051 277.879 544.18 277.879 L540.777 277.879 L540.777 274.314 L543.277 274.314 Q545.037 274.314 546.009 273.48 Q546.981 272.647 548.162 269.545 L548.926 267.601 L538.439 242.092 L542.953 242.092 L551.055 262.369 L559.157 242.092 L563.671 242.092 L552.282 270.425 Z" fill="#000000" fill-rule="nonzero" fill-opacity="1" /><path clip-path="url(#clip800)" d="M589.736 247.069 Q591.333 244.198 593.555 242.833 Q595.777 241.467 598.786 241.467 Q602.837 241.467 605.036 244.314 Q607.235 247.138 607.235 252.369 L607.235 268.018 L602.953 268.018 L602.953 252.508 Q602.953 248.782 601.634 246.976 Q600.314 245.17 597.606 245.17 Q594.296 245.17 592.374 247.37 Q590.453 249.569 590.453 253.365 L590.453 268.018 L586.171 268.018 L586.171 252.508 Q586.171 248.758 584.851 246.976 Q583.532 245.17 580.777 245.17 Q577.513 245.17 575.592 247.393 Q573.671 249.592 573.671 253.365 L573.671 268.018 L569.388 268.018 L569.388 242.092 L573.671 242.092 L573.671 246.12 Q575.129 243.735 577.166 242.601 Q579.203 241.467 582.004 241.467 Q584.828 241.467 586.796 242.902 Q588.786 244.337 589.736 247.069 Z" fill="#000000" fill-rule="nonzero" fill-opacity="1" /><path clip-path="url(#clip800)" d="M619.851 264.129 L619.851 277.879 L615.569 277.879 L615.569 242.092 L619.851 242.092 L619.851 246.027 Q621.194 243.712 623.231 242.601 Q625.291 241.467 628.138 241.467 Q632.86 241.467 635.8 245.217 Q638.763 248.967 638.763 255.078 Q638.763 261.189 635.8 264.939 Q632.86 268.689 628.138 268.689 Q625.291 268.689 623.231 267.578 Q621.194 266.443 619.851 264.129 M634.342 255.078 Q634.342 250.379 632.397 247.717 Q630.476 245.032 627.096 245.032 Q623.717 245.032 621.772 247.717 Q619.851 250.379 619.851 255.078 Q619.851 259.777 621.772 262.462 Q623.717 265.124 627.096 265.124 Q630.476 265.124 632.397 262.462 Q634.342 259.777 634.342 255.078 Z" fill="#000000" fill-rule="nonzero" fill-opacity="1" /><path clip-path="url(#clip800)" d="M667.374 252.369 L667.374 268.018 L663.115 268.018 L663.115 252.508 Q663.115 248.828 661.68 246.999 Q660.244 245.17 657.374 245.17 Q653.925 245.17 651.934 247.37 Q649.944 249.569 649.944 253.365 L649.944 268.018 L645.661 268.018 L645.661 242.092 L649.944 242.092 L649.944 246.12 Q651.471 243.782 653.531 242.624 Q655.615 241.467 658.323 241.467 Q662.791 241.467 665.082 244.245 Q667.374 246.999 667.374 252.369 Z" fill="#000000" fill-rule="nonzero" fill-opacity="1" /><path clip-path="url(#clip800)" d="M698.045 253.99 L698.045 256.073 L678.462 256.073 Q678.74 260.471 681.101 262.786 Q683.485 265.078 687.721 265.078 Q690.175 265.078 692.466 264.476 Q694.781 263.874 697.05 262.67 L697.05 266.698 Q694.758 267.67 692.351 268.18 Q689.943 268.689 687.466 268.689 Q681.263 268.689 677.629 265.078 Q674.017 261.467 674.017 255.309 Q674.017 248.944 677.443 245.217 Q680.892 241.467 686.726 241.467 Q691.957 241.467 694.99 244.846 Q698.045 248.203 698.045 253.99 M693.786 252.74 Q693.74 249.245 691.818 247.161 Q689.92 245.078 686.772 245.078 Q683.207 245.078 681.054 247.092 Q678.925 249.106 678.601 252.763 L693.786 252.74 Z" fill="#000000" fill-rule="nonzero" fill-opacity="1" /><path clip-path="url(#clip800)" d="M709.249 234.731 L709.249 242.092 L718.022 242.092 L718.022 245.402 L709.249 245.402 L709.249 259.476 Q709.249 262.647 710.105 263.55 Q710.985 264.453 713.647 264.453 L718.022 264.453 L718.022 268.018 L713.647 268.018 Q708.716 268.018 706.841 266.189 Q704.966 264.337 704.966 259.476 L704.966 245.402 L701.841 245.402 L701.841 242.092 L704.966 242.092 L704.966 234.731 L709.249 234.731 Z" fill="#000000" fill-rule="nonzero" fill-opacity="1" /></svg>
