<?xml version="1.0" encoding="utf-8"?>
<svg xmlns="http://www.w3.org/2000/svg" xmlns:xlink="http://www.w3.org/1999/xlink" width="600" height="400" viewBox="0 0 2400 1600">
<defs>
  <clipPath id="clip750">
    <rect x="0" y="0" width="2400" height="1600"/>
  </clipPath>
</defs>
<path clip-path="url(#clip750)" d="M0 1600 L2400 1600 L2400 0 L0 0  Z" fill="#ffffff" fill-rule="evenodd" fill-opacity="1"/>
<defs>
  <clipPath id="clip751">
    <rect x="480" y="0" width="1681" height="1600"/>
  </clipPath>
</defs>
<path clip-path="url(#clip750)" d="M251.071 1423.18 L2352.76 1423.18 L2352.76 47.2441 L251.071 47.2441  Z" fill="#ffffff" fill-rule="evenodd" fill-opacity="1"/>
<defs>
  <clipPath id="clip752">
    <rect x="251" y="47" width="2103" height="1377"/>
  </clipPath>
</defs>
<polyline clip-path="url(#clip752)" style="stroke:#000000; stroke-linecap:round; stroke-linejoin:round; stroke-width:2; stroke-opacity:0.1; fill:none" points="308.568,1423.18 308.568,47.2441 "/>
<polyline clip-path="url(#clip752)" style="stroke:#000000; stroke-linecap:round; stroke-linejoin:round; stroke-width:2; stroke-opacity:0.1; fill:none" points="804.745,1423.18 804.745,47.2441 "/>
<polyline clip-path="url(#clip752)" style="stroke:#000000; stroke-linecap:round; stroke-linejoin:round; stroke-width:2; stroke-opacity:0.1; fill:none" points="1300.92,1423.18 1300.92,47.2441 "/>
<polyline clip-path="url(#clip752)" style="stroke:#000000; stroke-linecap:round; stroke-linejoin:round; stroke-width:2; stroke-opacity:0.1; fill:none" points="1797.1,1423.18 1797.1,47.2441 "/>
<polyline clip-path="url(#clip752)" style="stroke:#000000; stroke-linecap:round; stroke-linejoin:round; stroke-width:2; stroke-opacity:0.1; fill:none" points="2293.27,1423.18 2293.27,47.2441 "/>
<polyline clip-path="url(#clip750)" style="stroke:#000000; stroke-linecap:round; stroke-linejoin:round; stroke-width:4; stroke-opacity:1; fill:none" points="251.071,1423.18 2352.76,1423.18 "/>
<polyline clip-path="url(#clip750)" style="stroke:#000000; stroke-linecap:round; stroke-linejoin:round; stroke-width:4; stroke-opacity:1; fill:none" points="308.568,1423.18 308.568,1404.28 "/>
<polyline clip-path="url(#clip750)" style="stroke:#000000; stroke-linecap:round; stroke-linejoin:round; stroke-width:4; stroke-opacity:1; fill:none" points="804.745,1423.18 804.745,1404.28 "/>
<polyline clip-path="url(#clip750)" style="stroke:#000000; stroke-linecap:round; stroke-linejoin:round; stroke-width:4; stroke-opacity:1; fill:none" points="1300.92,1423.18 1300.92,1404.28 "/>
<polyline clip-path="url(#clip750)" style="stroke:#000000; stroke-linecap:round; stroke-linejoin:round; stroke-width:4; stroke-opacity:1; fill:none" points="1797.1,1423.18 1797.1,1404.28 "/>
<polyline clip-path="url(#clip750)" style="stroke:#000000; stroke-linecap:round; stroke-linejoin:round; stroke-width:4; stroke-opacity:1; fill:none" points="2293.27,1423.18 2293.27,1404.28 "/>
<path clip-path="url(#clip750)" d="M308.568 1454.1 Q304.957 1454.1 303.128 1457.66 Q301.323 1461.2 301.323 1468.33 Q301.323 1475.44 303.128 1479.01 Q304.957 1482.55 308.568 1482.55 Q312.202 1482.55 314.008 1479.01 Q315.837 1475.44 315.837 1468.33 Q315.837 1461.2 314.008 1457.66 Q312.202 1454.1 308.568 1454.1 M308.568 1450.39 Q314.378 1450.39 317.434 1455 Q320.513 1459.58 320.513 1468.33 Q320.513 1477.06 317.434 1481.67 Q314.378 1486.25 308.568 1486.25 Q302.758 1486.25 299.679 1481.67 Q296.624 1477.06 296.624 1468.33 Q296.624 1459.58 299.679 1455 Q302.758 1450.39 308.568 1450.39 Z" fill="#000000" fill-rule="nonzero" fill-opacity="1" /><path clip-path="url(#clip750)" d="M768.437 1481.64 L784.756 1481.64 L784.756 1485.58 L762.812 1485.58 L762.812 1481.64 Q765.474 1478.89 770.057 1474.26 Q774.664 1469.61 775.844 1468.27 Q778.09 1465.74 778.969 1464.01 Q779.872 1462.25 779.872 1460.56 Q779.872 1457.8 777.928 1456.07 Q776.006 1454.33 772.905 1454.33 Q770.706 1454.33 768.252 1455.09 Q765.821 1455.86 763.044 1457.41 L763.044 1452.69 Q765.868 1451.55 768.321 1450.97 Q770.775 1450.39 772.812 1450.39 Q778.182 1450.39 781.377 1453.08 Q784.571 1455.77 784.571 1460.26 Q784.571 1462.39 783.761 1464.31 Q782.974 1466.2 780.868 1468.8 Q780.289 1469.47 777.187 1472.69 Q774.085 1475.88 768.437 1481.64 Z" fill="#000000" fill-rule="nonzero" fill-opacity="1" /><path clip-path="url(#clip750)" d="M794.617 1451.02 L812.974 1451.02 L812.974 1454.96 L798.9 1454.96 L798.9 1463.43 Q799.918 1463.08 800.937 1462.92 Q801.955 1462.73 802.974 1462.73 Q808.761 1462.73 812.14 1465.9 Q815.52 1469.08 815.52 1474.49 Q815.52 1480.07 812.048 1483.17 Q808.576 1486.25 802.256 1486.25 Q800.08 1486.25 797.812 1485.88 Q795.567 1485.51 793.159 1484.77 L793.159 1480.07 Q795.242 1481.2 797.465 1481.76 Q799.687 1482.32 802.164 1482.32 Q806.168 1482.32 808.506 1480.21 Q810.844 1478.1 810.844 1474.49 Q810.844 1470.88 808.506 1468.77 Q806.168 1466.67 802.164 1466.67 Q800.289 1466.67 798.414 1467.08 Q796.562 1467.5 794.617 1468.38 L794.617 1451.02 Z" fill="#000000" fill-rule="nonzero" fill-opacity="1" /><path clip-path="url(#clip750)" d="M834.733 1454.1 Q831.122 1454.1 829.293 1457.66 Q827.488 1461.2 827.488 1468.33 Q827.488 1475.44 829.293 1479.01 Q831.122 1482.55 834.733 1482.55 Q838.367 1482.55 840.173 1479.01 Q842.001 1475.44 842.001 1468.33 Q842.001 1461.2 840.173 1457.66 Q838.367 1454.1 834.733 1454.1 M834.733 1450.39 Q840.543 1450.39 843.599 1455 Q846.677 1459.58 846.677 1468.33 Q846.677 1477.06 843.599 1481.67 Q840.543 1486.25 834.733 1486.25 Q828.923 1486.25 825.844 1481.67 Q822.789 1477.06 822.789 1468.33 Q822.789 1459.58 825.844 1455 Q828.923 1450.39 834.733 1450.39 Z" fill="#000000" fill-rule="nonzero" fill-opacity="1" /><path clip-path="url(#clip750)" d="M1260.54 1451.02 L1278.9 1451.02 L1278.9 1454.96 L1264.82 1454.96 L1264.82 1463.43 Q1265.84 1463.08 1266.86 1462.92 Q1267.88 1462.73 1268.9 1462.73 Q1274.68 1462.73 1278.06 1465.9 Q1281.44 1469.08 1281.44 1474.49 Q1281.44 1480.07 1277.97 1483.17 Q1274.5 1486.25 1268.18 1486.25 Q1266 1486.25 1263.73 1485.88 Q1261.49 1485.51 1259.08 1484.77 L1259.08 1480.07 Q1261.16 1481.2 1263.39 1481.76 Q1265.61 1482.32 1268.09 1482.32 Q1272.09 1482.32 1274.43 1480.21 Q1276.77 1478.1 1276.77 1474.49 Q1276.77 1470.88 1274.43 1468.77 Q1272.09 1466.67 1268.09 1466.67 Q1266.21 1466.67 1264.34 1467.08 Q1262.48 1467.5 1260.54 1468.38 L1260.54 1451.02 Z" fill="#000000" fill-rule="nonzero" fill-opacity="1" /><path clip-path="url(#clip750)" d="M1300.66 1454.1 Q1297.04 1454.1 1295.22 1457.66 Q1293.41 1461.2 1293.41 1468.33 Q1293.41 1475.44 1295.22 1479.01 Q1297.04 1482.55 1300.66 1482.55 Q1304.29 1482.55 1306.09 1479.01 Q1307.92 1475.44 1307.92 1468.33 Q1307.92 1461.2 1306.09 1457.66 Q1304.29 1454.1 1300.66 1454.1 M1300.66 1450.39 Q1306.47 1450.39 1309.52 1455 Q1312.6 1459.58 1312.6 1468.33 Q1312.6 1477.06 1309.52 1481.67 Q1306.47 1486.25 1300.66 1486.25 Q1294.84 1486.25 1291.77 1481.67 Q1288.71 1477.06 1288.71 1468.33 Q1288.71 1459.58 1291.77 1455 Q1294.84 1450.39 1300.66 1450.39 Z" fill="#000000" fill-rule="nonzero" fill-opacity="1" /><path clip-path="url(#clip750)" d="M1330.82 1454.1 Q1327.21 1454.1 1325.38 1457.66 Q1323.57 1461.2 1323.57 1468.33 Q1323.57 1475.44 1325.38 1479.01 Q1327.21 1482.55 1330.82 1482.55 Q1334.45 1482.55 1336.26 1479.01 Q1338.09 1475.44 1338.09 1468.33 Q1338.09 1461.2 1336.26 1457.66 Q1334.45 1454.1 1330.82 1454.1 M1330.82 1450.39 Q1336.63 1450.39 1339.68 1455 Q1342.76 1459.58 1342.76 1468.33 Q1342.76 1477.06 1339.68 1481.67 Q1336.63 1486.25 1330.82 1486.25 Q1325.01 1486.25 1321.93 1481.67 Q1318.87 1477.06 1318.87 1468.33 Q1318.87 1459.58 1321.93 1455 Q1325.01 1450.39 1330.82 1450.39 Z" fill="#000000" fill-rule="nonzero" fill-opacity="1" /><path clip-path="url(#clip750)" d="M1755.37 1451.02 L1777.6 1451.02 L1777.6 1453.01 L1765.05 1485.58 L1760.17 1485.58 L1771.97 1454.96 L1755.37 1454.96 L1755.37 1451.02 Z" fill="#000000" fill-rule="nonzero" fill-opacity="1" /><path clip-path="url(#clip750)" d="M1786.76 1451.02 L1805.12 1451.02 L1805.12 1454.96 L1791.04 1454.96 L1791.04 1463.43 Q1792.06 1463.08 1793.08 1462.92 Q1794.1 1462.73 1795.12 1462.73 Q1800.91 1462.73 1804.29 1465.9 Q1807.66 1469.08 1807.66 1474.49 Q1807.66 1480.07 1804.19 1483.17 Q1800.72 1486.25 1794.4 1486.25 Q1792.23 1486.25 1789.96 1485.88 Q1787.71 1485.51 1785.3 1484.77 L1785.3 1480.07 Q1787.39 1481.2 1789.61 1481.76 Q1791.83 1482.32 1794.31 1482.32 Q1798.31 1482.32 1800.65 1480.21 Q1802.99 1478.1 1802.99 1474.49 Q1802.99 1470.88 1800.65 1468.77 Q1798.31 1466.67 1794.31 1466.67 Q1792.43 1466.67 1790.56 1467.08 Q1788.71 1467.5 1786.76 1468.38 L1786.76 1451.02 Z" fill="#000000" fill-rule="nonzero" fill-opacity="1" /><path clip-path="url(#clip750)" d="M1826.88 1454.1 Q1823.27 1454.1 1821.44 1457.66 Q1819.63 1461.2 1819.63 1468.33 Q1819.63 1475.44 1821.44 1479.01 Q1823.27 1482.55 1826.88 1482.55 Q1830.51 1482.55 1832.32 1479.01 Q1834.15 1475.44 1834.15 1468.33 Q1834.15 1461.2 1832.32 1457.66 Q1830.51 1454.1 1826.88 1454.1 M1826.88 1450.39 Q1832.69 1450.39 1835.74 1455 Q1838.82 1459.58 1838.82 1468.33 Q1838.82 1477.06 1835.74 1481.67 Q1832.69 1486.25 1826.88 1486.25 Q1821.07 1486.25 1817.99 1481.67 Q1814.93 1477.06 1814.93 1468.33 Q1814.93 1459.58 1817.99 1455 Q1821.07 1450.39 1826.88 1450.39 Z" fill="#000000" fill-rule="nonzero" fill-opacity="1" /><path clip-path="url(#clip750)" d="M2237.8 1481.64 L2245.44 1481.64 L2245.44 1455.28 L2237.13 1456.95 L2237.13 1452.69 L2245.39 1451.02 L2250.07 1451.02 L2250.07 1481.64 L2257.71 1481.64 L2257.71 1485.58 L2237.8 1485.58 L2237.8 1481.64 Z" fill="#000000" fill-rule="nonzero" fill-opacity="1" /><path clip-path="url(#clip750)" d="M2277.15 1454.1 Q2273.54 1454.1 2271.71 1457.66 Q2269.91 1461.2 2269.91 1468.33 Q2269.91 1475.44 2271.71 1479.01 Q2273.54 1482.55 2277.15 1482.55 Q2280.79 1482.55 2282.59 1479.01 Q2284.42 1475.44 2284.42 1468.33 Q2284.42 1461.2 2282.59 1457.66 Q2280.79 1454.1 2277.15 1454.1 M2277.15 1450.39 Q2282.96 1450.39 2286.02 1455 Q2289.1 1459.58 2289.1 1468.33 Q2289.1 1477.06 2286.02 1481.67 Q2282.96 1486.25 2277.15 1486.25 Q2271.34 1486.25 2268.26 1481.67 Q2265.21 1477.06 2265.21 1468.33 Q2265.21 1459.58 2268.26 1455 Q2271.34 1450.39 2277.15 1450.39 Z" fill="#000000" fill-rule="nonzero" fill-opacity="1" /><path clip-path="url(#clip750)" d="M2307.31 1454.1 Q2303.7 1454.1 2301.87 1457.66 Q2300.07 1461.2 2300.07 1468.33 Q2300.07 1475.44 2301.87 1479.01 Q2303.7 1482.55 2307.31 1482.55 Q2310.95 1482.55 2312.75 1479.01 Q2314.58 1475.44 2314.58 1468.33 Q2314.58 1461.2 2312.75 1457.66 Q2310.95 1454.1 2307.31 1454.1 M2307.31 1450.39 Q2313.12 1450.39 2316.18 1455 Q2319.26 1459.58 2319.26 1468.33 Q2319.26 1477.06 2316.18 1481.67 Q2313.12 1486.25 2307.31 1486.25 Q2301.5 1486.25 2298.42 1481.67 Q2295.37 1477.06 2295.37 1468.33 Q2295.37 1459.58 2298.42 1455 Q2301.5 1450.39 2307.31 1450.39 Z" fill="#000000" fill-rule="nonzero" fill-opacity="1" /><path clip-path="url(#clip750)" d="M2337.48 1454.1 Q2333.86 1454.1 2332.04 1457.66 Q2330.23 1461.2 2330.23 1468.33 Q2330.23 1475.44 2332.04 1479.01 Q2333.86 1482.55 2337.48 1482.55 Q2341.11 1482.55 2342.92 1479.01 Q2344.74 1475.44 2344.74 1468.33 Q2344.74 1461.2 2342.92 1457.66 Q2341.11 1454.1 2337.48 1454.1 M2337.48 1450.39 Q2343.29 1450.39 2346.34 1455 Q2349.42 1459.58 2349.42 1468.33 Q2349.42 1477.06 2346.34 1481.67 Q2343.29 1486.25 2337.48 1486.25 Q2331.67 1486.25 2328.59 1481.67 Q2325.53 1477.06 2325.53 1468.33 Q2325.53 1459.58 2328.59 1455 Q2331.67 1450.39 2337.48 1450.39 Z" fill="#000000" fill-rule="nonzero" fill-opacity="1" /><path clip-path="url(#clip750)" d="M1208.08 1520.52 L1238.13 1520.52 L1238.13 1525.93 L1214.51 1525.93 L1214.51 1540 L1237.14 1540 L1237.14 1545.41 L1214.51 1545.41 L1214.51 1562.63 L1238.7 1562.63 L1238.7 1568.04 L1208.08 1568.04 L1208.08 1520.52 Z" fill="#000000" fill-rule="nonzero" fill-opacity="1" /><path clip-path="url(#clip750)" d="M1254.68 1562.7 L1254.68 1581.6 L1248.79 1581.6 L1248.79 1532.4 L1254.68 1532.4 L1254.68 1537.81 Q1256.53 1534.62 1259.33 1533.1 Q1262.16 1531.54 1266.07 1531.54 Q1272.57 1531.54 1276.61 1536.69 Q1280.68 1541.85 1280.68 1550.25 Q1280.68 1558.65 1276.61 1563.81 Q1272.57 1568.97 1266.07 1568.97 Q1262.16 1568.97 1259.33 1567.44 Q1256.53 1565.88 1254.68 1562.7 M1274.6 1550.25 Q1274.6 1543.79 1271.93 1540.13 Q1269.29 1536.44 1264.64 1536.44 Q1260 1536.44 1257.32 1540.13 Q1254.68 1543.79 1254.68 1550.25 Q1254.68 1556.71 1257.32 1560.4 Q1260 1564.07 1264.64 1564.07 Q1269.29 1564.07 1271.93 1560.4 Q1274.6 1556.71 1274.6 1550.25 Z" fill="#000000" fill-rule="nonzero" fill-opacity="1" /><path clip-path="url(#clip750)" d="M1304.21 1536.5 Q1299.49 1536.5 1296.76 1540.19 Q1294.02 1543.85 1294.02 1550.25 Q1294.02 1556.65 1296.73 1560.34 Q1299.46 1564 1304.21 1564 Q1308.88 1564 1311.62 1560.31 Q1314.36 1556.62 1314.36 1550.25 Q1314.36 1543.92 1311.62 1540.23 Q1308.88 1536.5 1304.21 1536.5 M1304.21 1531.54 Q1311.84 1531.54 1316.2 1536.5 Q1320.57 1541.47 1320.57 1550.25 Q1320.57 1559 1316.2 1564 Q1311.84 1568.97 1304.21 1568.97 Q1296.53 1568.97 1292.17 1564 Q1287.85 1559 1287.85 1550.25 Q1287.85 1541.47 1292.17 1536.5 Q1296.53 1531.54 1304.21 1531.54 Z" fill="#000000" fill-rule="nonzero" fill-opacity="1" /><path clip-path="url(#clip750)" d="M1355.93 1533.76 L1355.93 1539.24 Q1353.44 1537.87 1350.93 1537.2 Q1348.45 1536.5 1345.9 1536.5 Q1340.2 1536.5 1337.05 1540.13 Q1333.9 1543.73 1333.9 1550.25 Q1333.9 1556.78 1337.05 1560.4 Q1340.2 1564 1345.9 1564 Q1348.45 1564 1350.93 1563.33 Q1353.44 1562.63 1355.93 1561.26 L1355.93 1566.68 Q1353.48 1567.82 1350.83 1568.39 Q1348.22 1568.97 1345.26 1568.97 Q1337.21 1568.97 1332.47 1563.91 Q1327.73 1558.85 1327.73 1550.25 Q1327.73 1541.53 1332.5 1536.53 Q1337.31 1531.54 1345.65 1531.54 Q1348.35 1531.54 1350.93 1532.11 Q1353.51 1532.65 1355.93 1533.76 Z" fill="#000000" fill-rule="nonzero" fill-opacity="1" /><path clip-path="url(#clip750)" d="M1395.74 1546.53 L1395.74 1568.04 L1389.89 1568.04 L1389.89 1546.72 Q1389.89 1541.66 1387.91 1539.14 Q1385.94 1536.63 1381.99 1536.63 Q1377.25 1536.63 1374.51 1539.65 Q1371.78 1542.68 1371.78 1547.9 L1371.78 1568.04 L1365.89 1568.04 L1365.89 1518.52 L1371.78 1518.52 L1371.78 1537.93 Q1373.88 1534.72 1376.71 1533.13 Q1379.58 1531.54 1383.3 1531.54 Q1389.44 1531.54 1392.59 1535.36 Q1395.74 1539.14 1395.74 1546.53 Z" fill="#000000" fill-rule="nonzero" fill-opacity="1" /><polyline clip-path="url(#clip752)" style="stroke:#000000; stroke-linecap:round; stroke-linejoin:round; stroke-width:2; stroke-opacity:0.1; fill:none" points="251.071,1022.38 2352.76,1022.38 "/>
<polyline clip-path="url(#clip752)" style="stroke:#000000; stroke-linecap:round; stroke-linejoin:round; stroke-width:2; stroke-opacity:0.1; fill:none" points="251.071,455.341 2352.76,455.341 "/>
<polyline clip-path="url(#clip750)" style="stroke:#000000; stroke-linecap:round; stroke-linejoin:round; stroke-width:4; stroke-opacity:1; fill:none" points="251.071,1423.18 251.071,47.2441 "/>
<polyline clip-path="url(#clip750)" style="stroke:#000000; stroke-linecap:round; stroke-linejoin:round; stroke-width:4; stroke-opacity:1; fill:none" points="251.071,1022.38 269.969,1022.38 "/>
<polyline clip-path="url(#clip750)" style="stroke:#000000; stroke-linecap:round; stroke-linejoin:round; stroke-width:4; stroke-opacity:1; fill:none" points="251.071,455.341 269.969,455.341 "/>
<path clip-path="url(#clip750)" d="M114.931 1042.17 L122.57 1042.17 L122.57 1015.81 L114.26 1017.47 L114.26 1013.21 L122.524 1011.55 L127.2 1011.55 L127.2 1042.17 L134.839 1042.17 L134.839 1046.11 L114.931 1046.11 L114.931 1042.17 Z" fill="#000000" fill-rule="nonzero" fill-opacity="1" /><path clip-path="url(#clip750)" d="M154.283 1014.63 Q150.672 1014.63 148.843 1018.19 Q147.038 1021.73 147.038 1028.86 Q147.038 1035.97 148.843 1039.53 Q150.672 1043.08 154.283 1043.08 Q157.917 1043.08 159.723 1039.53 Q161.552 1035.97 161.552 1028.86 Q161.552 1021.73 159.723 1018.19 Q157.917 1014.63 154.283 1014.63 M154.283 1010.92 Q160.093 1010.92 163.149 1015.53 Q166.227 1020.11 166.227 1028.86 Q166.227 1037.59 163.149 1042.2 Q160.093 1046.78 154.283 1046.78 Q148.473 1046.78 145.394 1042.2 Q142.339 1037.59 142.339 1028.86 Q142.339 1020.11 145.394 1015.53 Q148.473 1010.92 154.283 1010.92 Z" fill="#000000" fill-rule="nonzero" fill-opacity="1" /><path clip-path="url(#clip750)" d="M166.227 1005.02 L190.339 1005.02 L190.339 1008.22 L166.227 1008.22 L166.227 1005.02 Z" fill="#000000" fill-rule="nonzero" fill-opacity="1" /><path clip-path="url(#clip750)" d="M201.812 1015.5 L215.071 1015.5 L215.071 1018.7 L197.241 1018.7 L197.241 1015.5 Q199.404 1013.26 203.128 1009.5 Q206.871 1005.72 207.83 1004.63 Q209.655 1002.58 210.369 1001.17 Q211.103 999.739 211.103 998.366 Q211.103 996.128 209.523 994.718 Q207.962 993.307 205.442 993.307 Q203.655 993.307 201.661 993.928 Q199.686 994.548 197.43 995.808 L197.43 991.972 Q199.724 991.05 201.718 990.58 Q203.711 990.11 205.366 990.11 Q209.73 990.11 212.325 992.291 Q214.921 994.473 214.921 998.122 Q214.921 999.852 214.263 1001.41 Q213.623 1002.96 211.912 1005.06 Q211.441 1005.61 208.921 1008.22 Q206.401 1010.82 201.812 1015.5 Z" fill="#000000" fill-rule="nonzero" fill-opacity="1" /><path clip-path="url(#clip750)" d="M144.366 475.134 L152.004 475.134 L152.004 448.768 L143.694 450.435 L143.694 446.176 L151.958 444.509 L156.634 444.509 L156.634 475.134 L164.273 475.134 L164.273 479.069 L144.366 479.069 L144.366 475.134 Z" fill="#000000" fill-rule="nonzero" fill-opacity="1" /><path clip-path="url(#clip750)" d="M183.717 447.588 Q180.106 447.588 178.277 451.152 Q176.472 454.694 176.472 461.824 Q176.472 468.93 178.277 472.495 Q180.106 476.037 183.717 476.037 Q187.351 476.037 189.157 472.495 Q190.986 468.93 190.986 461.824 Q190.986 454.694 189.157 451.152 Q187.351 447.588 183.717 447.588 M183.717 443.884 Q189.527 443.884 192.583 448.49 Q195.662 453.074 195.662 461.824 Q195.662 470.55 192.583 475.157 Q189.527 479.74 183.717 479.74 Q177.907 479.74 174.828 475.157 Q171.773 470.55 171.773 461.824 Q171.773 453.074 174.828 448.49 Q177.907 443.884 183.717 443.884 Z" fill="#000000" fill-rule="nonzero" fill-opacity="1" /><path clip-path="url(#clip750)" d="M205.366 426.08 Q202.432 426.08 200.947 428.976 Q199.48 431.854 199.48 437.647 Q199.48 443.421 200.947 446.317 Q202.432 449.195 205.366 449.195 Q208.319 449.195 209.786 446.317 Q211.272 443.421 211.272 437.647 Q211.272 431.854 209.786 428.976 Q208.319 426.08 205.366 426.08 M205.366 423.071 Q210.087 423.071 212.57 426.813 Q215.071 430.537 215.071 437.647 Q215.071 444.737 212.57 448.48 Q210.087 452.204 205.366 452.204 Q200.646 452.204 198.144 448.48 Q195.662 444.737 195.662 437.647 Q195.662 430.537 198.144 426.813 Q200.646 423.071 205.366 423.071 Z" fill="#000000" fill-rule="nonzero" fill-opacity="1" /><path clip-path="url(#clip750)" d="M16.4842 953.174 L16.4842 912.974 L21.895 912.974 L21.895 929.843 L64.0042 929.843 L64.0042 936.305 L21.895 936.305 L21.895 953.174 L16.4842 953.174 Z" fill="#000000" fill-rule="nonzero" fill-opacity="1" /><path clip-path="url(#clip750)" d="M33.8307 895.946 Q33.2578 896.933 33.0032 898.11 Q32.7167 899.256 32.7167 900.657 Q32.7167 905.622 35.9632 908.296 Q39.1779 910.937 45.2253 910.937 L64.0042 910.937 L64.0042 916.826 L28.3562 916.826 L28.3562 910.937 L33.8944 910.937 Q30.6479 909.091 29.0883 906.131 Q27.4968 903.171 27.4968 898.938 Q27.4968 898.333 27.5923 897.601 Q27.656 896.869 27.8151 895.978 L33.8307 895.946 Z" fill="#000000" fill-rule="nonzero" fill-opacity="1" /><path clip-path="url(#clip750)" d="M46.0847 873.602 Q46.0847 880.7 47.7079 883.437 Q49.3312 886.175 53.2461 886.175 Q56.3653 886.175 58.2114 884.138 Q60.0256 882.069 60.0256 878.536 Q60.0256 873.666 56.5881 870.738 Q53.1188 867.778 47.3897 867.778 L46.0847 867.778 L46.0847 873.602 M43.6657 861.921 L64.0042 861.921 L64.0042 867.778 L58.5933 867.778 Q61.8398 869.783 63.3994 872.775 Q64.9272 875.767 64.9272 880.095 Q64.9272 885.57 61.8716 888.816 Q58.7843 892.031 53.6281 892.031 Q47.6125 892.031 44.5569 888.021 Q41.5014 883.979 41.5014 875.99 L41.5014 867.778 L40.9285 867.778 Q36.8862 867.778 34.6901 870.451 Q32.4621 873.093 32.4621 877.899 Q32.4621 880.955 33.1941 883.851 Q33.9262 886.748 35.3903 889.421 L29.9795 889.421 Q28.7381 886.207 28.1334 883.183 Q27.4968 880.159 27.4968 877.295 Q27.4968 869.56 31.5072 865.741 Q35.5176 861.921 43.6657 861.921 Z" fill="#000000" fill-rule="nonzero" fill-opacity="1" /><path clip-path="url(#clip750)" d="M28.3562 849.858 L28.3562 844.002 L64.0042 844.002 L64.0042 849.858 L28.3562 849.858 M14.479 849.858 L14.479 844.002 L21.895 844.002 L21.895 849.858 L14.479 849.858 Z" fill="#000000" fill-rule="nonzero" fill-opacity="1" /><path clip-path="url(#clip750)" d="M42.4881 802.116 L64.0042 802.116 L64.0042 807.972 L42.679 807.972 Q37.6183 807.972 35.1038 809.945 Q32.5894 811.919 32.5894 815.865 Q32.5894 820.608 35.6131 823.345 Q38.6368 826.082 43.8567 826.082 L64.0042 826.082 L64.0042 831.971 L28.3562 831.971 L28.3562 826.082 L33.8944 826.082 Q30.6797 823.982 29.0883 821.149 Q27.4968 818.284 27.4968 814.561 Q27.4968 808.418 31.3163 805.267 Q35.1038 802.116 42.4881 802.116 Z" fill="#000000" fill-rule="nonzero" fill-opacity="1" /><path clip-path="url(#clip750)" d="M28.3562 790.434 L28.3562 784.578 L64.0042 784.578 L64.0042 790.434 L28.3562 790.434 M14.479 790.434 L14.479 784.578 L21.895 784.578 L21.895 790.434 L14.479 790.434 Z" fill="#000000" fill-rule="nonzero" fill-opacity="1" /><path clip-path="url(#clip750)" d="M42.4881 742.692 L64.0042 742.692 L64.0042 748.548 L42.679 748.548 Q37.6183 748.548 35.1038 750.521 Q32.5894 752.495 32.5894 756.442 Q32.5894 761.184 35.6131 763.921 Q38.6368 766.659 43.8567 766.659 L64.0042 766.659 L64.0042 772.547 L28.3562 772.547 L28.3562 766.659 L33.8944 766.659 Q30.6797 764.558 29.0883 761.725 Q27.4968 758.861 27.4968 755.137 Q27.4968 748.994 31.3163 745.843 Q35.1038 742.692 42.4881 742.692 Z" fill="#000000" fill-rule="nonzero" fill-opacity="1" /><path clip-path="url(#clip750)" d="M45.7664 707.553 Q39.4007 707.553 35.8996 710.195 Q32.3984 712.805 32.3984 717.547 Q32.3984 722.258 35.8996 724.9 Q39.4007 727.509 45.7664 727.509 Q52.1003 727.509 55.6014 724.9 Q59.1026 722.258 59.1026 717.547 Q59.1026 712.805 55.6014 710.195 Q52.1003 707.553 45.7664 707.553 M59.58 701.697 Q68.683 701.697 73.1071 705.739 Q77.5631 709.781 77.5631 718.12 Q77.5631 721.207 77.0857 723.945 Q76.6401 726.682 75.6852 729.26 L69.9879 729.26 Q71.3884 726.682 72.0568 724.167 Q72.7252 721.653 72.7252 719.043 Q72.7252 713.282 69.7015 710.418 Q66.7096 707.553 60.6303 707.553 L57.7339 707.553 Q60.885 709.367 62.4446 712.2 Q64.0042 715.033 64.0042 718.979 Q64.0042 725.536 59.0071 729.546 Q54.01 733.557 45.7664 733.557 Q37.491 733.557 32.4939 729.546 Q27.4968 725.536 27.4968 718.979 Q27.4968 715.033 29.0564 712.2 Q30.616 709.367 33.7671 707.553 L28.3562 707.553 L28.3562 701.697 L59.58 701.697 Z" fill="#000000" fill-rule="nonzero" fill-opacity="1" /><path clip-path="url(#clip750)" d="M44.7161 638.421 L47.5806 638.421 L47.5806 665.348 Q53.6281 664.966 56.8109 661.72 Q59.9619 658.442 59.9619 652.617 Q59.9619 649.243 59.1344 646.092 Q58.3069 642.909 56.6518 639.79 L62.1899 639.79 Q63.5267 642.941 64.227 646.251 Q64.9272 649.561 64.9272 652.967 Q64.9272 661.497 59.9619 666.494 Q54.9967 671.459 46.5303 671.459 Q37.7774 671.459 32.6531 666.749 Q27.4968 662.006 27.4968 653.986 Q27.4968 646.792 32.1438 642.623 Q36.7589 638.421 44.7161 638.421 M42.9973 644.278 Q38.1912 644.342 35.3266 646.983 Q32.4621 649.593 32.4621 653.922 Q32.4621 658.823 35.2312 661.784 Q38.0002 664.712 43.0292 665.157 L42.9973 644.278 Z" fill="#000000" fill-rule="nonzero" fill-opacity="1" /><path clip-path="url(#clip750)" d="M33.8307 608.152 Q33.2578 609.139 33.0032 610.317 Q32.7167 611.463 32.7167 612.863 Q32.7167 617.828 35.9632 620.502 Q39.1779 623.144 45.2253 623.144 L64.0042 623.144 L64.0042 629.032 L28.3562 629.032 L28.3562 623.144 L33.8944 623.144 Q30.6479 621.298 29.0883 618.338 Q27.4968 615.378 27.4968 611.144 Q27.4968 610.54 27.5923 609.808 Q27.656 609.075 27.8151 608.184 L33.8307 608.152 Z" fill="#000000" fill-rule="nonzero" fill-opacity="1" /><path clip-path="url(#clip750)" d="M33.8307 582.499 Q33.2578 583.485 33.0032 584.663 Q32.7167 585.809 32.7167 587.209 Q32.7167 592.175 35.9632 594.848 Q39.1779 597.49 45.2253 597.49 L64.0042 597.49 L64.0042 603.378 L28.3562 603.378 L28.3562 597.49 L33.8944 597.49 Q30.6479 595.644 29.0883 592.684 Q27.4968 589.724 27.4968 585.491 Q27.4968 584.886 27.5923 584.154 Q27.656 583.422 27.8151 582.53 L33.8307 582.499 Z" fill="#000000" fill-rule="nonzero" fill-opacity="1" /><path clip-path="url(#clip750)" d="M32.4621 563.974 Q32.4621 568.685 36.1542 571.422 Q39.8145 574.16 46.212 574.16 Q52.6095 574.16 56.3017 571.454 Q59.9619 568.717 59.9619 563.974 Q59.9619 559.296 56.2698 556.558 Q52.5777 553.821 46.212 553.821 Q39.8781 553.821 36.186 556.558 Q32.4621 559.296 32.4621 563.974 M27.4968 563.974 Q27.4968 556.336 32.4621 551.975 Q37.4273 547.615 46.212 547.615 Q54.9649 547.615 59.9619 551.975 Q64.9272 556.336 64.9272 563.974 Q64.9272 571.645 59.9619 576.006 Q54.9649 580.334 46.212 580.334 Q37.4273 580.334 32.4621 576.006 Q27.4968 571.645 27.4968 563.974 Z" fill="#000000" fill-rule="nonzero" fill-opacity="1" /><path clip-path="url(#clip750)" d="M33.8307 517.25 Q33.2578 518.237 33.0032 519.415 Q32.7167 520.56 32.7167 521.961 Q32.7167 526.926 35.9632 529.6 Q39.1779 532.241 45.2253 532.241 L64.0042 532.241 L64.0042 538.13 L28.3562 538.13 L28.3562 532.241 L33.8944 532.241 Q30.6479 530.395 29.0883 527.435 Q27.4968 524.475 27.4968 520.242 Q27.4968 519.637 27.5923 518.905 Q27.656 518.173 27.8151 517.282 L33.8307 517.25 Z" fill="#000000" fill-rule="nonzero" fill-opacity="1" /><polyline clip-path="url(#clip752)" style="stroke:#3da44d; stroke-linecap:round; stroke-linejoin:round; stroke-width:4; stroke-opacity:1; fill:none" points="310.553,506.749 312.538,516.825 314.522,527.26 316.507,537.954 318.492,551.294 320.476,563.403 322.461,577.32 324.446,587.439 326.431,596.274 328.415,605.384 330.4,614.893 332.385,625.917 334.369,636.642 336.354,647.171 338.339,659.63 340.323,672.611 342.308,688.615 344.293,704.26 346.278,725.918 348.262,749.073 350.247,773.963 352.232,806.749 354.216,845.7 356.201,902.219 358.186,977.771 360.171,1001.89 362.155,1000.78 364.14,1013.48 366.125,1014.27 368.109,1016.4 370.094,1017.56 372.079,1019.66 374.063,1021.51 376.048,1024.53 378.033,1025.88 380.018,1027.73 382.002,1031.21 383.987,1033.14 385.972,1035.42 387.956,1039.56 389.941,1041.19 391.926,1044.86 393.911,1047.6 395.895,1050.39 397.88,1053.98 399.865,1056 401.849,1058.56 403.834,1062.47 405.819,1063.71 407.803,1065.96 409.788,1067.58 411.773,1068.74 413.758,1070.39 415.742,1071.3 417.727,1070.88 419.712,1073.13 421.696,1074.91 423.681,1076 425.666,1075.13 427.651,1076.65 429.635,1078.64 431.62,1078.64 433.605,1078.05 435.589,1081.42 437.574,1084.72 439.559,1085.35 441.543,1086.53 443.528,1087 445.513,1082.87 447.498,1085.03 449.482,1086.61 451.467,1094.11 453.452,1097.44 455.436,1099 457.421,1099.26 459.406,1100.76 461.391,1102.1 463.375,1104.09 465.36,1103.55 467.345,1106.77 469.329,1108.74 471.314,1109.5 473.299,1110.17 475.283,1112.69 477.268,1113.27 479.253,1113.67 481.238,1115.86 483.222,1118.19 485.207,1110.84 487.192,1114.96 489.176,1115.86 491.161,1117.47 493.146,1115.76 495.131,1123.94 497.115,1127.09 499.1,1129.31 501.085,1130.66 503.069,1130.66 505.054,1132.6 507.039,1136.57 509.023,1137.64 511.008,1139.33 512.993,1138.97 514.978,1140.06 516.962,1143.34 518.947,1145.18 520.932,1146.97 522.916,1147.68 524.901,1147.1 526.886,1149.91 528.871,1151.04 530.855,1151.65 532.84,1153 534.825,1154.29 536.809,1156.02 538.794,1153 540.779,1156.64 542.764,1144.8 544.748,1155.05 546.733,1149.65 548.718,1150.84 550.702,1151.45 552.687,1155.39 554.672,1151.78 556.656,1156.51 558.641,1153 560.626,1151.92 562.611,1156.37 564.595,1156.44 566.58,1169.29 568.565,1173.47 570.549,1173.07 572.534,1175 574.519,1175.16 576.504,1177.7 578.488,1179.96 580.473,1178.87 582.458,1178.79 584.442,1176.47 586.427,1182.44 588.412,1184.52 590.396,1185.93 592.381,1183.48 594.366,1184.79 596.351,1187.63 598.335,1187.45 600.32,1188.89 602.305,1189.53 604.289,1188.89 606.274,1191.09 608.259,1192.58 610.244,1192.58 612.228,1193.71 614.213,1193.43 616.198,1196.09 618.182,1187.18 620.167,1195.42 622.152,1195.8 624.136,1175.16 626.121,1181.15 628.106,1179.37 630.091,1183.22 632.075,1183.22 634.06,1190.54 636.045,1186.29 638.029,1187.27 640.014,1188.08 641.999,1188.17 643.984,1187.45 645.968,1194.37 647.953,1190.08 649.938,1184.7 651.922,1191.37 653.907,1189.99 655.892,1195.04 657.876,1193.33 659.861,1192.58 661.846,1193.14 663.831,1194.37 665.815,1193.33 667.8,1194.66 669.785,1195.52 671.769,1198.52 673.754,1193.61 675.739,1213.54 677.724,1219.22 679.708,1222.04 681.693,1222.04 683.678,1224.98 685.662,1227.13 687.647,1228.07 689.632,1227.69 691.616,1228.13 693.601,1228.69 695.586,1231.16 697.571,1232.9 699.555,1231.68 701.54,1230.52 703.525,1232.13 705.509,1233.03 707.494,1231.16 709.479,1232.19 711.464,1236.53 713.448,1236.06 715.433,1233.36 717.418,1236.79 719.402,1239.71 721.387,1241.37 723.372,1241.99 725.356,1244.46 727.341,1239.91 729.326,1238.55 731.311,1228.69 733.295,1225.66 735.28,1220.85 737.265,1222.99 739.249,1225.17 741.234,1222.39 743.219,1224.2 745.204,1227.51 747.188,1226.52 749.173,1232.19 751.158,1248.15 753.142,1251.05 755.127,1251.81 757.112,1252.19 759.096,1251.51 761.081,1253.48 763.066,1253.25 765.051,1254.25 767.035,1255.11 769.02,1254.02 771.005,1255.81 772.989,1258.02 774.974,1259.14 776.959,1259.86 778.944,1259.94 780.928,1258.1 782.913,1261.9 784.898,1259.86 786.882,1262.8 788.867,1259.86 790.852,1262.14 792.836,1262.72 794.821,1265.99 796.806,1265.65 798.791,1266.59 800.775,1264.64 802.76,1270.93 804.745,1267.96 806.729,1247.06 808.714,1254.8 810.699,1239.5 812.684,1245.54 814.668,1245.39 816.653,1243.75 818.638,1247.79 820.622,1240.19 822.607,1242.06 824.592,1245.39 826.576,1251.43 828.561,1260.59 830.546,1270.75 832.531,1277.18 834.515,1281.54 836.5,1284.56 838.485,1280.96 840.469,1282.12 842.454,1281.54 844.439,1284.07 846.424,1282.7 848.408,1287.76 850.393,1286.35 852.378,1285.95 854.362,1289.5 856.347,1287.15 858.332,1282.21 860.316,1280.39 862.301,1280.58 864.286,1286.15 866.271,1285.85 868.255,1281.54 870.24,1262.47 872.225,1259.06 874.209,1290.94 876.194,1294 878.179,1292.2 880.164,1296.37 882.148,1293.15 884.133,1293.57 886.118,1297.57 888.102,1299.56 890.087,1299.33 892.072,1298.23 894.056,1293.89 896.041,1296.04 898.026,1295.07 900.011,1298.23 901.995,1299.56 903.98,1299.22 905.965,1299.56 907.949,1305.5 909.934,1301.36 911.919,1304.1 913.904,1302.15 915.888,1306.91 917.873,1305.03 919.858,1304.68 921.842,1289.39 923.827,1305.38 925.812,1301.13 927.796,1301.47 929.781,1299.78 931.766,1313.48 933.751,1313.73 935.735,1313.85 937.72,1313.41 939.705,1306.32 941.689,1312.61 943.674,1312.05 945.659,1313.98 947.644,1320.48 949.628,1322.48 951.613,1322.01 953.598,1320.21 955.582,1318.97 957.567,1319.29 959.552,1321.41 961.536,1317.8 963.521,1317.93 965.506,1310.21 967.491,1317.02 969.475,1281.83 971.46,1277.84 973.445,1281.73 975.429,1285.55 977.414,1287.46 979.399,1316.9 981.384,1327.41 983.368,1328.32 985.353,1328.75 987.338,1325.67 989.322,1323.96 991.307,1324.51 993.292,1326.92 995.276,1332.55 997.261,1331.82 999.246,1333.72 1001.23,1332.26 1003.22,1334.61 1005.2,1335.43 1007.18,1333.43 1009.17,1333.14 1011.15,1312.61 1013.14,1307.39 1015.12,1331.17 1017.11,1331.61 1019.09,1334.46 1021.08,1337.31 1023.06,1335.43 1025.05,1327.9 1027.03,1325.54 1029.02,1336.93 1031,1335.2 1032.99,1337.53 1034.97,1343.2 1036.96,1344.08 1038.94,1343.92 1040.92,1340.07 1042.91,1338.22 1044.89,1344.81 1046.88,1344.81 1048.86,1342.02 1050.85,1346.18 1052.83,1345.45 1054.82,1303.06 1056.8,1294.64 1058.79,1306.32 1060.77,1344.64 1062.76,1339.83 1064.74,1351.59 1066.73,1355.31 1068.71,1353.57 1070.7,1356.72 1072.68,1356.81 1074.66,1359.68 1076.65,1354.43 1078.63,1353.13 1080.62,1353.48 1082.6,1359.86 1084.59,1361.14 1086.57,1355.13 1088.56,1337.91 1090.54,1337.84 1092.53,1315.74 1094.51,1306.44 1096.5,1309.36 1098.48,1311.06 1100.47,1316.45 1102.45,1296.58 1104.44,1310.33 1106.42,1307.39 1108.4,1309.91 1110.39,1306.44 1112.37,1307.27 1114.36,1304.22 1116.34,1305.26 1118.33,1307.03 1120.31,1300.57 1122.3,1304.57 1124.28,1295.5 1126.27,1301.92 1128.25,1299.45 1130.24,1310.21 1132.22,1308.22 1134.21,1333.43 1136.19,1346.92 1138.18,1356.1 1140.16,1364.78 1142.14,1366.88 1144.13,1364.4 1146.11,1365.45 1148.1,1367.56 1150.08,1362.25 1152.07,1361.24 1154.05,1362.16 1156.04,1367.27 1158.02,1366.98 1160.01,1368.34 1161.99,1374.33 1163.98,1369.61 1165.96,1362.53 1167.95,1364.97 1169.93,1368.05 1171.92,1371.1 1173.9,1375.46 1175.88,1376.19 1177.87,1369.42 1179.85,1371 1181.84,1368.63 1183.82,1336.25 1185.81,1361.51 1187.79,1308.7 1189.78,1311.62 1191.76,1364.22 1193.75,1372.1 1195.73,1376.71 1197.72,1358.51 1199.7,1365.64 1201.69,1363.28 1203.67,1322.81 1205.66,1320.48 1207.64,1320.68 1209.62,1316.77 1211.61,1311.86 1213.59,1319.1 1215.58,1320.94 1217.56,1361.42 1219.55,1365.26 1221.53,1368.83 1223.52,1373.92 1225.5,1365.35 1227.49,1365.54 1229.47,1369.61 1231.46,1366.5 1233.44,1357.16 1235.43,1367.46 1237.41,1371.4 1239.4,1375.88 1241.38,1369.32 1243.36,1369.22 1245.35,1372.1 1247.33,1377.23 1249.32,1376.92 1251.3,1377.44 1253.29,1376.81 1255.27,1370.5 1257.26,1360.87 1259.24,1371.7 1261.23,1350.49 1263.21,1339.52 1265.2,1361.42 1267.18,1361.7 1269.17,1370.2 1271.15,1366.88 1273.14,1371 1275.12,1365.83 1277.1,1374.74 1279.09,1375.05 1281.07,1367.37 1283.06,1370.11 1285.04,1377.97 1287.03,1369.91 1289.01,1373.31 1291,1369.22 1292.98,1372.81 1294.97,1368.44 1296.95,1366.6 1298.94,1365.26 1300.92,1365.07 1302.91,1365.07 1304.89,1341.55 1306.88,1311.49 1308.86,1327.55 1310.84,1304.91 1312.83,1304.22 1314.81,1314.98 1316.8,1316.9 1318.78,1318.12 1320.77,1336.93 1322.75,1358.42 1324.74,1356.01 1326.72,1364.78 1328.71,1366.5 1330.69,1371.9 1332.68,1373.92 1334.66,1367.37 1336.65,1360.78 1338.63,1372.7 1340.62,1372.91 1342.6,1375.88 1344.58,1379.03 1346.57,1372.5 1348.55,1360.14 1350.54,1365.64 1352.52,1363.37 1354.51,1366.31 1356.49,1365.54 1358.48,1371.3 1360.46,1370.7 1362.45,1369.91 1364.43,1364.97 1366.42,1362.72 1368.4,1366.31 1370.39,1367.17 1372.37,1365.73 1374.36,1369.51 1376.34,1371 1378.32,1370.3 1380.31,1375.15 1382.29,1378.71 1384.28,1378.92 1386.26,1368.73 1388.25,1368.44 1390.23,1370.7 1392.22,1372.1 1394.2,1374.02 1396.19,1375.15 1398.17,1374.13 1400.16,1375.57 1402.14,1346.83 1404.13,1328.96 1406.11,1362.62 1408.1,1376.81 1410.08,1378.28 1412.06,1372 1414.05,1369.32 1416.03,1370.4 1418.02,1377.34 1420,1379.34 1421.99,1373.72 1423.97,1383.8 1425.96,1379.67 1427.94,1377.44 1429.93,1372.1 1431.91,1341.7 1433.9,1343.05 1435.88,1372.3 1437.87,1375.88 1439.85,1372.4 1441.84,1376.5 1443.82,1371.9 1445.8,1371 1447.79,1374.02 1449.77,1375.46 1451.76,1375.67 1453.74,1374.54 1455.73,1375.36 1457.71,1380.31 1459.7,1383.57 1461.68,1383.57 1463.67,1381.71 1465.65,1379.56 1467.64,1375.77 1469.62,1380.85 1471.61,1379.88 1473.59,1374.13 1475.58,1367.37 1477.56,1370.2 1479.54,1374.54 1481.53,1340.84 1483.51,1315.43 1485.5,1321.74 1487.48,1309.66 1489.47,1319.29 1491.45,1310.21 1493.44,1320.02 1495.42,1316.77 1497.41,1321.87 1499.39,1319.62 1501.38,1348.82 1503.36,1364.69 1505.35,1365.07 1507.33,1369.81 1509.32,1376.19 1511.3,1370.3 1513.28,1371.1 1515.27,1374.23 1517.25,1376.29 1519.24,1384.24 1521.22,1382.37 1523.21,1382.69 1525.19,1382.8 1527.18,1381.71 1529.16,1376.4 1531.15,1372.1 1533.13,1378.39 1535.12,1370.2 1537.1,1376.71 1539.09,1376.08 1541.07,1371.8 1543.06,1365.45 1545.04,1365.16 1547.02,1369.91 1549.01,1362.25 1550.99,1350.49 1552.98,1372.2 1554.96,1376.4 1556.95,1371.5 1558.93,1380.95 1560.92,1378.92 1562.9,1377.55 1564.89,1372 1566.87,1362.53 1568.86,1367.75 1570.84,1371 1572.83,1375.77 1574.81,1373.31 1576.8,1377.76 1578.78,1378.07 1580.76,1376.08 1582.75,1375.57 1584.73,1378.5 1586.72,1377.86 1588.7,1367.37 1590.69,1362.62 1592.67,1354 1594.66,1338.3 1596.64,1368.83 1598.63,1344.89 1600.61,1349.23 1602.6,1370.7 1604.58,1377.23 1606.57,1376.08 1608.55,1350.41 1610.54,1322.01 1612.52,1324.58 1614.5,1334.91 1616.49,1365.07 1618.47,1377.23 1620.46,1374.54 1622.44,1379.24 1624.43,1373.41 1626.41,1379.24 1628.4,1379.24 1630.38,1369.71 1632.37,1376.92 1634.35,1375.77 1636.34,1381.17 1638.32,1380.95 1640.31,1372.6 1642.29,1354.17 1644.28,1373.72 1646.26,1383.24 1648.24,1380.95 1650.23,1383.35 1652.21,1379.34 1654.2,1374.33 1656.18,1378.18 1658.17,1381.82 1660.15,1375.98 1662.14,1374.02 1664.12,1377.55 1666.11,1371.9 1668.09,1373.01 1670.08,1369.32 1672.06,1341.31 1674.05,1367.75 1676.03,1367.75 1678.02,1374.02 1680,1364.78 1681.98,1370.8 1683.97,1373.11 1685.95,1374.33 1687.94,1370.2 1689.92,1363.46 1691.91,1370.4 1693.89,1375.05 1695.88,1377.97 1697.86,1380.52 1699.85,1377.55 1701.83,1382.59 1703.82,1381.39 1705.8,1377.97 1707.79,1365.83 1709.77,1342.65 1711.76,1338.68 1713.74,1364.31 1715.72,1374.33 1717.71,1374.43 1719.69,1371.3 1721.68,1373.52 1723.66,1371.4 1725.65,1370.3 1727.63,1377.34 1729.62,1367.85 1731.6,1378.28 1733.59,1371 1735.57,1363 1737.56,1365.64 1739.54,1356.01 1741.53,1343.76 1743.51,1363.84 1745.5,1357.97 1747.48,1364.31 1749.46,1372.91 1751.45,1380.85 1753.43,1379.77 1755.42,1375.88 1757.4,1378.92 1759.39,1378.71 1761.37,1380.2 1763.36,1377.23 1765.34,1373.31 1767.33,1371.5 1769.31,1372 1771.3,1376.19 1773.28,1380.42 1775.27,1379.45 1777.25,1375.05 1779.24,1375.67 1781.22,1368.63 1783.2,1379.13 1785.19,1381.6 1787.17,1375.98 1789.16,1375.46 1791.14,1375.67 1793.13,1374.64 1795.11,1361.42 1797.1,1351.08 1799.08,1362.53 1801.07,1374.23 1803.05,1373.41 1805.04,1376.5 1807.02,1375.67 1809.01,1377.34 1810.99,1373.11 1812.98,1375.36 1814.96,1379.34 1816.94,1377.34 1818.93,1377.55 1820.91,1377.65 1822.9,1373.82 1824.88,1373.11 1826.87,1343.76 1828.85,1344.81 1830.84,1370.7 1832.82,1377.55 1834.81,1373.92 1836.79,1376.71 1838.78,1378.71 1840.76,1378.39 1842.75,1377.86 1844.73,1378.5 1846.72,1376.71 1848.7,1376.81 1850.68,1372.2 1852.67,1372.5 1854.65,1376.6 1856.64,1373.21 1858.62,1374.95 1860.61,1375.05 1862.59,1359.05 1864.58,1362.81 1866.56,1361.05 1868.55,1321.67 1870.53,1316.32 1872.52,1363.75 1874.5,1371.8 1876.49,1372.3 1878.47,1371.3 1880.46,1373.82 1882.44,1377.23 1884.42,1370.2 1886.41,1379.34 1888.39,1379.67 1890.38,1377.34 1892.36,1373.82 1894.35,1370.6 1896.33,1376.4 1898.32,1379.77 1900.3,1374.23 1902.29,1373.92 1904.27,1379.34 1906.26,1378.92 1908.24,1316.51 1910.23,1315.17 1912.21,1317.35 1914.2,1327.34 1916.18,1360.87 1918.16,1371.2 1920.15,1373.82 1922.13,1372.1 1924.12,1366.31 1926.1,1368.14 1928.09,1360.5 1930.07,1369.71 1932.06,1367.08 1934.04,1375.36 1936.03,1374.74 1938.01,1369.81 1940,1374.13 1941.98,1383.91 1943.97,1378.28 1945.95,1369.91 1947.94,1378.07 1949.92,1379.24 1951.9,1381.71 1953.89,1378.39 1955.87,1374.54 1957.86,1375.98 1959.84,1377.02 1961.83,1377.02 1963.81,1382.69 1965.8,1373.41 1967.78,1380.42 1969.77,1379.24 1971.75,1373.92 1973.74,1372.4 1975.72,1371 1977.71,1383.57 1979.69,1381.82 1981.68,1373.41 1983.66,1371.6 1985.64,1370.8 1987.63,1370.7 1989.61,1371.4 1991.6,1337.53 1993.58,1311 1995.57,1317.8 1997.55,1323.35 1999.54,1329.46 2001.52,1368.83 2003.51,1378.5 2005.49,1381.82 2007.48,1377.44 2009.46,1377.97 2011.45,1373.41 2013.43,1373.41 2015.42,1377.23 2017.4,1366.31 2019.38,1371.1 2021.37,1362.62 2023.35,1370.7 2025.34,1375.15 2027.32,1369.81 2029.31,1364.78 2031.29,1371.1 2033.28,1371.5 2035.26,1376.29 2037.25,1372.4 2039.23,1367.37 2041.22,1369.61 2043.2,1371 2045.19,1369.91 2047.17,1373.31 2049.16,1373.41 2051.14,1373.52 2053.12,1370.11 2055.11,1372.7 2057.09,1376.81 2059.08,1374.95 2061.06,1376.71 2063.05,1375.88 2065.03,1370.2 2067.02,1369.12 2069,1373.01 2070.99,1366.69 2072.97,1372.2 2074.96,1375.88 2076.94,1376.19 2078.93,1381.82 2080.91,1376.19 2082.9,1373.92 2084.88,1374.23 2086.86,1374.33 2088.85,1371.6 2090.83,1324.78 2092.82,1343.68 2094.8,1373.01 2096.79,1372.81 2098.77,1380.31 2100.76,1380.52 2102.74,1366.79 2104.73,1373.31 2106.71,1377.65 2108.7,1380.52 2110.68,1370.7 2112.67,1325.26 2114.65,1375.05 2116.64,1373.52 2118.62,1372.1 2120.6,1369.02 2122.59,1372.4 2124.57,1376.81 2126.56,1375.36 2128.54,1379.56 2130.53,1378.07 2132.51,1379.13 2134.5,1376.92 2136.48,1363.84 2138.47,1373.52 2140.45,1376.5 2142.44,1377.44 2144.42,1374.23 2146.41,1365.07 2148.39,1320.02 2150.38,1316.06 2152.36,1325.26 2154.34,1319.56 2156.33,1323.35 2158.31,1317.54 2160.3,1313.6 2162.28,1313.41 2164.27,1313.41 2166.25,1318.38 2168.24,1307.74 2170.22,1350.49 2172.21,1371.6 2174.19,1369.91 2176.18,1375.67 2178.16,1370.5 2180.15,1376.4 2182.13,1378.71 2184.12,1376.5 2186.1,1375.88 2188.08,1378.92 2190.07,1376.71 2192.05,1375.26 2194.04,1369.12 2196.02,1365.54 2198.01,1369.61 2199.99,1372.7 2201.98,1380.52 2203.96,1375.77 2205.95,1368.14 2207.93,1373.62 2209.92,1377.97 2211.9,1377.13 2213.89,1368.44 2215.87,1356.63 2217.86,1352.53 2219.84,1370.3 2221.82,1367.85 2223.81,1378.07 2225.79,1380.09 2227.78,1379.03 2229.76,1344.32 2231.75,1326.99 2233.73,1320.61 2235.72,1326.78 2237.7,1308.58 2239.69,1311.19 2241.67,1311.86 2243.66,1319.56 2245.64,1318.51 2247.63,1315.43 2249.61,1358.96 2251.6,1372.4 2253.58,1370.7 2255.56,1379.24 2257.55,1378.81 2259.53,1375.26 2261.52,1375.46 2263.5,1366.4 2265.49,1366.31 2267.47,1369.81 2269.46,1375.57 2271.44,1379.34 2273.43,1376.5 2275.41,1380.95 2277.4,1375.88 2279.38,1379.13 2281.37,1374.43 2283.35,1375.98 2285.34,1365.45 2287.32,1364.97 2289.3,1367.46 2291.29,1369.71 2293.27,1374.02 "/>
<polyline clip-path="url(#clip752)" style="stroke:#e26f46; stroke-linecap:round; stroke-linejoin:round; stroke-width:4; stroke-opacity:1; fill:none" points="310.553,86.1857 312.538,94.8317 314.522,103.909 316.507,112.872 318.492,122.218 320.476,132.331 322.461,141.606 324.446,150.257 326.431,154.864 328.415,161.052 330.4,165.998 332.385,172.014 334.369,177.733 336.354,183.413 338.339,189.812 340.323,196.21 342.308,202.095 344.293,209.314 346.278,217.191 348.262,226.353 350.247,237.313 352.232,246.576 354.216,260.682 356.201,273.173 358.186,287.998 360.171,301.915 362.155,304.078 364.14,306.28 366.125,306.855 368.109,309.034 370.094,308.814 372.079,310.657 374.063,311.701 376.048,313.588 378.033,314.428 380.018,315.969 382.002,317.923 383.987,320.229 385.972,321.844 387.956,324.309 389.941,325.392 391.926,327.503 393.911,329.304 395.895,331.132 397.88,333.077 399.865,334.962 401.849,337.061 403.834,339.196 405.819,340.893 407.803,343.58 409.788,346.03 411.773,348.227 413.758,350.464 415.742,352.221 417.727,353.792 419.712,357.213 421.696,358.52 423.681,361.514 425.666,363.551 427.651,365.739 429.635,368.559 431.62,370.536 433.605,371.933 435.589,375.464 437.574,377.237 439.559,379.879 441.543,382.447 443.528,385.069 445.513,387.887 447.498,390.415 449.482,392.78 451.467,396.005 453.452,397.951 455.436,400.082 457.421,402.172 459.406,405.496 461.391,408.008 463.375,411.496 465.36,413.363 467.345,416.305 469.329,419.229 471.314,421.218 473.299,424.076 475.283,426.907 477.268,429.707 479.253,433.273 481.238,435.402 483.222,438.3 485.207,440.839 487.192,443.104 489.176,446.638 491.161,448.899 493.146,450.971 495.131,454.264 497.115,456.428 499.1,459.251 501.085,461.127 503.069,463.867 505.054,466.669 507.039,468.662 509.023,471.646 511.008,474.633 512.993,476.904 514.978,479.73 516.962,482.247 518.947,484.741 520.932,487.286 522.916,489.965 524.901,492.378 526.886,494.013 528.871,496.507 530.855,499.139 532.84,501.916 534.825,504.667 536.809,507.389 538.794,509.518 540.779,510.832 542.764,513.889 544.748,516.528 546.733,517.92 548.718,521.571 550.702,523.229 552.687,526.08 554.672,528.017 556.656,531.427 558.641,534.133 560.626,536.9 562.611,540.449 564.595,542.934 566.58,545.595 568.565,549.343 570.549,552.083 572.534,555.087 574.519,558.583 576.504,561.538 578.488,565.224 580.473,568.647 582.458,571.085 584.442,575.712 586.427,579.196 588.412,583.802 590.396,587.703 592.381,591.641 594.366,595.897 596.351,600.013 598.335,605.181 600.32,609.415 602.305,613.909 604.289,620.052 606.274,625.437 608.259,631.822 610.244,638.89 612.228,646.105 614.213,653.693 616.198,663.073 618.182,673.316 620.167,682.095 622.152,693.925 624.136,706.089 626.121,720.362 628.106,737.026 630.091,753.056 632.075,771.882 634.06,795.179 636.045,820.027 638.029,843.307 640.014,856.056 641.999,858.118 643.984,863.375 645.968,862.346 647.953,865.88 649.938,868.759 651.922,871.929 653.907,869.952 655.892,871.487 657.876,865.88 659.861,872.484 661.846,872.484 663.831,874.956 665.815,875.525 667.8,878.759 669.785,881.601 671.769,880.884 673.754,883.471 675.739,885.001 677.724,884.878 679.708,885.866 681.693,887.74 683.678,887.3 685.662,887.677 687.647,890.735 689.632,892.554 691.616,888.878 693.601,892.554 695.586,891.771 697.571,895.268 699.555,898.179 701.54,898.867 703.525,901.091 705.509,903.286 707.494,902.503 709.479,904.795 711.464,904.578 713.448,904.002 715.433,901.795 717.418,907.87 719.402,910.492 721.387,912.323 723.372,913.87 725.356,911.939 727.341,913.948 729.326,922.243 731.311,914.416 733.295,917.744 735.28,923.583 737.265,926.394 739.249,926.739 741.234,927.781 743.219,929.801 745.204,931.406 747.188,934.772 749.173,934.404 751.158,936.818 753.142,938.613 755.127,939.377 757.112,940.725 759.096,943.465 761.081,946.37 763.066,945.361 765.051,945.059 767.035,950.073 769.02,953.247 771.005,957.167 772.989,956.835 774.974,959.964 776.959,961.903 778.944,965.757 780.928,966.113 782.913,969.49 784.898,974.481 786.882,974.608 788.867,976.729 790.852,974.927 792.836,970.472 794.821,964.929 796.806,966.113 798.791,978.624 800.775,977.314 802.76,975.632 804.745,991.159 806.729,996.523 808.714,992.405 810.699,997.748 812.684,998.365 814.668,1002.61 816.653,1001.02 818.638,1001.26 820.622,1004.38 822.607,1006.35 824.592,1008.26 826.576,1009.44 828.561,1011.66 830.546,1018.11 832.531,1019.66 834.515,1020.86 836.5,1025.4 838.485,1022.92 840.469,1013.65 842.454,1006.1 844.439,1004.22 846.424,1020.12 848.408,1006.26 850.393,1010.46 852.378,1014 854.362,1007.92 856.347,1033.56 858.332,1043.51 860.316,1045.99 862.301,1044.41 864.286,1043.74 866.271,1048.52 868.255,1043.29 870.24,1047.02 872.225,1052.54 874.209,1045.77 876.194,1051.82 878.179,1061.04 880.164,1058.69 882.148,1054.72 884.133,1059 886.118,1062.01 888.102,1066.1 890.087,1072.14 892.072,1067.31 894.056,1071.93 896.041,1073.2 898.026,1064.9 900.011,1072.56 901.995,1075.42 903.98,1072.07 905.965,1080.43 907.949,1075.78 909.934,1075.64 911.919,1080.89 913.904,1091.12 915.888,1090.55 917.873,1087.24 919.858,1090.46 921.842,1092.11 923.827,1085.97 925.812,1093.86 927.796,1091.45 929.781,1093.02 931.766,1074.27 933.751,1022.35 935.735,1047.6 937.72,1050.87 939.705,1051.46 941.689,1044.3 943.674,1087.48 945.659,1095.38 947.644,1093.11 949.628,1099.26 951.613,1101.48 953.598,1102.91 955.582,1099.53 957.567,1101.83 959.552,1093.77 961.536,1089.81 963.521,1095.38 965.506,1101.92 967.491,1103.18 969.475,1065.63 971.46,1043.74 973.445,1031.92 975.429,1034.38 977.414,1044.86 979.399,1029.01 981.384,1029.31 983.368,1035.11 985.353,1032.94 987.338,1029.81 989.322,1068.81 991.307,1094.36 993.292,1104.64 995.276,1103.36 997.261,1106.21 999.246,1105.01 1001.23,1109.31 1003.22,1106.95 1005.2,1110.26 1007.18,1106.02 1009.17,1101.56 1011.15,1103.73 1013.14,1108.08 1015.12,1111.81 1017.11,1109.12 1019.09,1103.73 1021.08,1101.21 1023.06,1050.16 1025.05,1050.51 1027.03,1037.32 1029.02,1038.49 1031,1092.11 1032.99,1105.01 1034.97,1110.46 1036.96,1111.13 1038.94,1109.79 1040.92,1111.61 1042.91,1113.37 1044.89,1110.84 1046.88,1112.69 1048.86,1110.26 1050.85,1105.38 1052.83,1102.64 1054.82,1054.29 1056.8,1049.57 1058.79,1056.25 1060.77,1031.72 1062.76,1041.74 1064.74,1104.37 1066.73,1105.28 1068.71,1111.03 1070.7,1112.1 1072.68,1111.71 1074.66,1113.86 1076.65,1111.91 1078.63,1104.09 1080.62,1099.79 1082.6,1106.21 1084.59,1103.55 1086.57,1099.7 1088.56,1108.27 1090.54,1109.4 1092.53,1114.96 1094.51,1112.98 1096.5,1114.96 1098.48,1111.03 1100.47,1113.08 1102.45,1102.55 1104.44,1112 1106.42,1115.25 1108.4,1113.96 1110.39,1108.74 1112.37,1109.59 1114.36,1109.21 1116.34,1109.4 1118.33,1106.21 1120.31,1076.51 1122.3,1082.87 1124.28,1085.74 1126.27,1076.29 1128.25,1107.51 1130.24,1114.56 1132.22,1115.06 1134.21,1076.14 1136.19,1049.45 1138.18,1062.08 1140.16,1101.92 1142.14,1102.1 1144.13,1106.77 1146.11,1113.18 1148.1,1110.65 1150.08,1100.5 1152.07,1096.49 1154.05,1116.66 1156.04,1114.66 1158.02,1116.76 1160.01,1114.56 1161.99,1113.67 1163.98,1113.86 1165.96,1115.15 1167.95,1115.65 1169.93,1113.37 1171.92,1108.17 1173.9,1113.27 1175.88,1112.59 1177.87,1110.17 1179.85,1104.27 1181.84,1103.36 1183.82,1102.1 1185.81,1103.73 1187.79,1108.46 1189.78,1072.28 1191.76,1051.22 1193.75,1045.31 1195.73,1043.07 1197.72,1027.34 1199.7,1039.35 1201.69,1037.42 1203.67,1032.74 1205.66,1035.42 1207.64,1031.52 1209.62,1067.58 1211.61,1104.55 1213.59,1102.19 1215.58,1107.14 1217.56,1112.98 1219.55,1098.83 1221.53,1103.73 1223.52,1106.95 1225.5,1114.96 1227.49,1113.37 1229.47,1117.07 1231.46,1119.32 1233.44,1113.86 1235.43,1118.49 1237.41,1114.56 1239.4,1115.35 1241.38,1114.96 1243.36,1114.16 1245.35,1114.16 1247.33,1044.63 1249.32,1060.47 1251.3,1065.63 1253.29,1055.94 1255.27,1061.43 1257.26,1105.1 1259.24,1103.36 1261.23,1098.65 1263.21,1111.52 1265.2,1116.76 1267.18,1114.76 1269.17,1116.36 1271.15,1116.56 1273.14,1115.35 1275.12,1117.47 1277.1,1115.65 1279.09,1117.88 1281.07,1114.66 1283.06,1109.5 1285.04,1111.13 1287.03,1113.67 1289.01,1112.2 1291,1116.06 1292.98,1114.26 1294.97,1116.56 1296.95,1115.76 1298.94,1117.98 1300.92,1115.25 1302.91,1115.86 1304.89,1113.77 1306.88,1106.77 1308.86,1044.07 1310.84,1111.13 1312.83,1114.86 1314.81,1114.26 1316.8,1111.32 1318.78,1115.76 1320.77,1114.56 1322.75,1115.45 1324.74,1113.86 1326.72,1105.93 1328.71,1111.32 1330.69,1111.81 1332.68,1107.98 1334.66,1113.96 1336.65,1112.39 1338.63,1113.37 1340.62,1112.2 1342.6,1108.83 1344.58,1114.66 1346.57,1111.91 1348.55,1114.16 1350.54,1114.86 1352.52,1112.1 1354.51,1107.23 1356.49,1107.51 1358.48,1110.46 1360.46,1115.86 1362.45,1116.06 1364.43,1113.86 1366.42,1113.67 1368.4,1115.35 1370.39,1113.37 1372.37,1114.96 1374.36,1112.59 1376.34,1112.98 1378.32,1025.78 1380.31,1049.45 1382.29,1045.99 1384.28,1042.96 1386.26,1102.73 1388.25,1100.14 1390.23,1105.28 1392.22,1111.81 1394.2,1112.59 1396.19,1113.96 1398.17,1113.86 1400.16,1110.17 1402.14,1110.26 1404.13,1110.17 1406.11,1111.52 1408.1,1102.55 1410.08,1103 1412.06,1115.15 1414.05,1115.96 1416.03,1118.08 1418.02,1115.76 1420,1114.06 1421.99,1112.59 1423.97,1114.46 1425.96,1113.77 1427.94,1107.98 1429.93,1114.46 1431.91,1102.73 1433.9,1107.05 1435.88,1114.26 1437.87,1114.46 1439.85,1106.49 1441.84,1099.53 1443.82,1111.03 1445.8,1104.82 1447.79,1049.34 1449.77,1038.38 1451.76,1053.02 1453.74,1088.76 1455.73,1110.26 1457.71,1107.51 1459.7,1116.06 1461.68,1117.17 1463.67,1116.56 1465.65,1118.08 1467.64,1116.46 1469.62,1115.65 1471.61,1109.31 1473.59,1118.19 1475.58,1118.8 1477.56,1119.42 1479.54,1113.77 1481.53,1107.33 1483.51,1114.16 1485.5,1113.96 1487.48,1114.16 1489.47,1115.35 1491.45,1114.96 1493.44,1110.36 1495.42,1072.84 1497.41,1109.79 1499.39,1112.98 1501.38,1107.98 1503.36,1113.86 1505.35,1112.88 1507.33,1113.57 1509.32,1114.06 1511.3,1102.64 1513.28,1111.42 1515.27,1114.36 1517.25,1114.36 1519.24,1115.35 1521.22,1112.69 1523.21,1113.57 1525.19,1111.13 1527.18,1110.74 1529.16,1108.17 1531.15,1108.74 1533.13,1112.78 1535.12,1111.13 1537.1,1111.52 1539.09,1110.07 1541.07,1112.29 1543.06,1047.48 1545.04,1070.81 1547.02,1095.63 1549.01,1102.55 1550.99,1115.86 1552.98,1113.37 1554.96,1116.56 1556.95,1116.06 1558.93,1108.83 1560.92,1112.39 1562.9,1112.98 1564.89,1113.37 1566.87,1114.66 1568.86,1110.26 1570.84,1114.06 1572.83,1110.74 1574.81,1085.5 1576.8,1037 1578.78,1055.02 1580.76,1043.29 1582.75,1048.87 1584.73,1039.56 1586.72,1094.45 1588.7,1096.83 1590.69,1103.55 1592.67,1112.78 1594.66,1114.96 1596.64,1115.55 1598.63,1114.86 1600.61,1110.84 1602.6,1098.04 1604.58,1104.27 1606.57,1109.59 1608.55,1111.52 1610.54,1112.1 1612.52,1112.88 1614.5,1118.49 1616.49,1117.27 1618.47,1113.18 1620.46,1115.45 1622.44,1118.9 1624.43,1113.27 1626.41,1111.91 1628.4,1111.81 1630.38,1115.76 1632.37,1113.86 1634.35,1110.84 1636.34,1103.73 1638.32,1113.37 1640.31,1105.84 1642.29,1104.92 1644.28,1095.72 1646.26,1112 1648.24,1105.38 1650.23,1110.84 1652.21,1116.66 1654.2,1117.68 1656.18,1117.57 1658.17,1112.49 1660.15,1106.49 1662.14,1107.7 1664.12,1073.2 1666.11,1046.33 1668.09,1058.37 1670.08,1060.98 1672.06,1099.61 1674.05,1109.12 1676.03,1112.78 1678.02,1116.86 1680,1118.19 1681.98,1120.14 1683.97,1119.83 1685.95,1117.47 1687.94,1119.73 1689.92,1122.35 1691.91,1120.66 1693.89,1109.5 1695.88,1119.63 1697.86,1119.52 1699.85,1099.88 1701.83,1058.94 1703.82,1055.94 1705.8,1057.12 1707.79,1109.5 1709.77,1112.98 1711.76,1121.29 1713.74,1122.35 1715.72,1110.17 1717.71,1106.21 1719.69,1104 1721.68,1115.15 1723.66,1119.01 1725.65,1116.36 1727.63,1115.76 1729.62,1117.17 1731.6,1114.76 1733.59,1111.23 1735.57,1119.83 1737.56,1116.36 1739.54,1070.46 1741.53,1105.19 1743.51,1103.46 1745.5,1104.73 1747.48,1115.86 1749.46,1120.98 1751.45,1119.63 1753.43,1112.69 1755.42,1101.39 1757.4,1113.37 1759.39,1114.76 1761.37,1114.96 1763.36,1120.66 1765.34,1117.17 1767.33,1116.86 1769.31,1117.57 1771.3,1109.4 1773.28,1042.51 1775.27,1058.94 1777.25,1045.54 1779.24,1097.18 1781.22,1116.86 1783.2,1113.37 1785.19,1116.86 1787.17,1114.36 1789.16,1117.47 1791.14,1105.75 1793.13,1110.74 1795.11,1107.05 1797.1,1111.61 1799.08,1113.18 1801.07,1110.26 1803.05,1115.76 1805.04,1114.86 1807.02,1114.96 1809.01,1112 1810.99,1113.18 1812.98,1114.86 1814.96,1116.26 1816.94,1106.77 1818.93,1108.64 1820.91,1106.21 1822.9,1113.57 1824.88,1066.3 1826.87,1037 1828.85,1050.63 1830.84,1046.68 1832.82,1051.82 1834.81,1044.41 1836.79,1045.31 1838.78,1054.59 1840.76,1053.02 1842.75,1044.41 1844.73,1054.29 1846.72,1052.18 1848.7,1032.43 1850.68,1070.53 1852.67,1093.86 1854.65,1109.02 1856.64,1110.74 1858.62,1113.18 1860.61,1116.46 1862.59,1113.77 1864.58,1111.23 1866.56,1114.86 1868.55,1115.76 1870.53,1111.13 1872.52,1116.26 1874.5,1112.88 1876.49,1116.96 1878.47,1107.33 1880.46,1104.37 1882.44,1098.56 1884.42,1110.74 1886.41,1106.49 1888.39,1102.91 1890.38,1103.91 1892.36,1111.32 1894.35,1114.56 1896.33,1114.56 1898.32,1115.86 1900.3,1103 1902.29,1114.16 1904.27,1115.55 1906.26,1112.39 1908.24,1110.07 1910.23,1111.42 1912.21,1108.93 1914.2,1116.86 1916.18,1111.13 1918.16,1112.2 1920.15,1115.15 1922.13,1112.2 1924.12,1097.78 1926.1,1065.83 1928.09,1057.68 1930.07,1053.32 1932.06,1049.92 1934.04,1056.13 1936.03,1103.18 1938.01,1090.38 1940,1108.27 1941.98,1108.64 1943.97,1098.39 1945.95,1106.12 1947.94,1111.71 1949.92,1111.52 1951.9,1115.15 1953.89,1119.63 1955.87,1110.55 1957.86,1103 1959.84,1099.26 1961.83,1105.84 1963.81,1106.67 1965.8,1106.67 1967.78,1107.7 1969.77,1096.57 1971.75,1098.56 1973.74,1113.96 1975.72,1113.37 1977.71,1119.83 1979.69,1112.59 1981.68,1115.06 1983.66,1118.7 1985.64,1118.6 1987.63,1116.66 1989.61,1109.5 1991.6,1110.36 1993.58,1109.79 1995.57,1093.77 1997.55,1071.37 1999.54,1050.63 2001.52,1062.66 2003.51,1056 2005.49,1043.96 2007.48,1033.14 2009.46,1033.66 2011.45,1044.86 2013.43,1037.53 2015.42,1043.63 2017.4,1038.7 2019.38,1054.29 2021.37,1097.78 2023.35,1095.29 2025.34,1106.49 2027.32,1114.66 2029.31,1116.56 2031.29,1121.29 2033.28,1123.84 2035.26,1124.05 2037.25,1121.92 2039.23,1119.42 2041.22,1116.66 2043.2,1100.5 2045.19,1099.09 2047.17,1100.85 2049.16,1107.98 2051.14,1114.56 2053.12,1121.5 2055.11,1124.59 2057.09,1121.61 2059.08,1123.09 2061.06,1120.35 2063.05,1119.63 2065.03,1117.88 2067.02,1117.88 2069,1118.7 2070.99,1120.25 2072.97,1118.19 2074.96,1115.35 2076.94,1117.37 2078.93,1117.47 2080.91,1118.49 2082.9,1115.76 2084.88,1069.15 2086.86,1080.89 2088.85,1114.96 2090.83,1114.76 2092.82,1115.35 2094.8,1113.08 2096.79,1112 2098.77,1114.16 2100.76,1120.04 2102.74,1118.39 2104.73,1114.86 2106.71,1117.88 2108.7,1114.46 2110.68,1076.14 2112.67,1070.67 2114.65,1057 2116.64,1059.38 2118.62,1068.33 2120.6,1106.49 2122.59,1109.79 2124.57,1108.08 2126.56,1110.26 2128.54,1113.47 2130.53,1110.26 2132.51,1114.36 2134.5,1110.65 2136.48,1110.94 2138.47,1112.29 2140.45,1107.05 2142.44,1101.12 2144.42,1098.48 2146.41,1097.18 2148.39,1051.46 2150.38,1045.2 2152.36,1067.85 2154.34,1104.64 2156.33,1102.37 2158.31,1112 2160.3,1114.16 2162.28,1112.29 2164.27,1111.03 2166.25,1114.56 2168.24,1117.37 2170.22,1116.76 2172.21,1110.07 2174.19,1105.38 2176.18,1105.19 2178.16,1113.77 2180.15,1116.06 2182.13,1116.56 2184.12,1111.32 2186.1,1105.65 2188.08,1106.49 2190.07,1112.59 2192.05,1108.55 2194.04,1101.74 2196.02,1071.58 2198.01,1052.42 2199.99,1048.41 2201.98,1063.12 2203.96,1048.41 2205.95,1098.04 2207.93,1109.12 2209.92,1117.37 2211.9,1117.27 2213.89,1118.29 2215.87,1119.11 2217.86,1116.86 2219.84,1119.32 2221.82,1112 2223.81,1115.45 2225.79,1113.27 2227.78,1112.29 2229.76,1113.57 2231.75,1117.88 2233.73,1049.69 2235.72,1066.9 2237.7,1063.25 2239.69,1010.12 2241.67,1014.18 2243.66,1043.96 2245.64,1038.49 2247.63,1040 2249.61,1097.95 2251.6,1104.27 2253.58,1108.55 2255.56,1118.49 2257.55,1115.55 2259.53,1117.37 2261.52,1116.96 2263.5,1115.06 2265.49,1112 2267.47,1118.39 2269.46,1118.39 2271.44,1116.56 2273.43,1118.9 2275.41,1077.46 2277.4,1076.29 2279.38,1104.27 2281.37,1105.75 2283.35,1111.03 2285.34,1108.55 2287.32,1112.88 2289.3,1112.29 2291.29,1113.96 2293.27,1113.08 "/>
<path clip-path="url(#clip750)" d="M1784.69 248.629 L2282.7 248.629 L2282.7 93.1086 L1784.69 93.1086  Z" fill="#ffffff" fill-rule="evenodd" fill-opacity="1"/>
<polyline clip-path="url(#clip750)" style="stroke:#000000; stroke-linecap:round; stroke-linejoin:round; stroke-width:4; stroke-opacity:1; fill:none" points="1784.69,248.629 2282.7,248.629 2282.7,93.1086 1784.69,93.1086 1784.69,248.629 "/>
<polyline clip-path="url(#clip750)" style="stroke:#3da44d; stroke-linecap:round; stroke-linejoin:round; stroke-width:4; stroke-opacity:1; fill:none" points="1808.04,144.949 1948.15,144.949 "/>
<path clip-path="url(#clip750)" d="M1997.06 157.298 L1997.06 148.016 L1989.42 148.016 L1989.42 144.173 L2001.69 144.173 L2001.69 159.011 Q1998.98 160.932 1995.71 161.928 Q1992.45 162.9 1988.75 162.9 Q1980.65 162.9 1976.06 158.178 Q1971.5 153.432 1971.5 144.983 Q1971.5 136.511 1976.06 131.789 Q1980.65 127.044 1988.75 127.044 Q1992.13 127.044 1995.16 127.877 Q1998.21 128.71 2000.78 130.331 L2000.78 135.307 Q1998.19 133.108 1995.28 131.997 Q1992.36 130.886 1989.14 130.886 Q1982.8 130.886 1979.6 134.428 Q1976.43 137.969 1976.43 144.983 Q1976.43 151.974 1979.6 155.516 Q1982.8 159.057 1989.14 159.057 Q1991.62 159.057 1993.56 158.641 Q1995.51 158.201 1997.06 157.298 Z" fill="#000000" fill-rule="nonzero" fill-opacity="1" /><path clip-path="url(#clip750)" d="M2007.89 147.344 L2020.37 147.344 L2020.37 151.141 L2007.89 151.141 L2007.89 147.344 Z" fill="#000000" fill-rule="nonzero" fill-opacity="1" /><path clip-path="url(#clip750)" d="M2048.05 128.803 L2048.05 133.363 Q2045.39 132.09 2043.03 131.465 Q2040.67 130.84 2038.47 130.84 Q2034.65 130.84 2032.57 132.321 Q2030.51 133.803 2030.51 136.534 Q2030.51 138.826 2031.87 140.007 Q2033.26 141.164 2037.1 141.882 L2039.93 142.46 Q2045.16 143.456 2047.64 145.979 Q2050.14 148.479 2050.14 152.692 Q2050.14 157.715 2046.76 160.307 Q2043.4 162.9 2036.9 162.9 Q2034.44 162.9 2031.66 162.344 Q2028.91 161.789 2025.95 160.701 L2025.95 155.886 Q2028.79 157.483 2031.52 158.293 Q2034.26 159.104 2036.9 159.104 Q2040.9 159.104 2043.08 157.53 Q2045.25 155.956 2045.25 153.039 Q2045.25 150.493 2043.68 149.057 Q2042.13 147.622 2038.56 146.905 L2035.71 146.349 Q2030.48 145.307 2028.15 143.085 Q2025.81 140.863 2025.81 136.905 Q2025.81 132.321 2029.02 129.682 Q2032.27 127.044 2037.94 127.044 Q2040.37 127.044 2042.89 127.483 Q2045.41 127.923 2048.05 128.803 Z" fill="#000000" fill-rule="nonzero" fill-opacity="1" /><path clip-path="url(#clip750)" d="M2068.03 164.636 Q2066.22 169.266 2064.51 170.678 Q2062.8 172.09 2059.93 172.09 L2056.52 172.09 L2056.52 168.525 L2059.02 168.525 Q2060.78 168.525 2061.76 167.692 Q2062.73 166.858 2063.91 163.756 L2064.67 161.812 L2054.19 136.303 L2058.7 136.303 L2066.8 156.581 L2074.9 136.303 L2079.42 136.303 L2068.03 164.636 Z" fill="#000000" fill-rule="nonzero" fill-opacity="1" /><path clip-path="url(#clip750)" d="M2105.48 141.28 Q2107.08 138.409 2109.3 137.044 Q2111.52 135.678 2114.53 135.678 Q2118.58 135.678 2120.78 138.525 Q2122.98 141.349 2122.98 146.581 L2122.98 162.229 L2118.7 162.229 L2118.7 146.719 Q2118.7 142.993 2117.38 141.187 Q2116.06 139.382 2113.35 139.382 Q2110.04 139.382 2108.12 141.581 Q2106.2 143.78 2106.2 147.576 L2106.2 162.229 L2101.92 162.229 L2101.92 146.719 Q2101.92 142.969 2100.6 141.187 Q2099.28 139.382 2096.52 139.382 Q2093.26 139.382 2091.34 141.604 Q2089.42 143.803 2089.42 147.576 L2089.42 162.229 L2085.14 162.229 L2085.14 136.303 L2089.42 136.303 L2089.42 140.331 Q2090.88 137.946 2092.91 136.812 Q2094.95 135.678 2097.75 135.678 Q2100.58 135.678 2102.54 137.113 Q2104.53 138.548 2105.48 141.28 Z" fill="#000000" fill-rule="nonzero" fill-opacity="1" /><path clip-path="url(#clip750)" d="M2135.6 158.34 L2135.6 172.09 L2131.32 172.09 L2131.32 136.303 L2135.6 136.303 L2135.6 140.238 Q2136.94 137.923 2138.98 136.812 Q2141.04 135.678 2143.89 135.678 Q2148.61 135.678 2151.55 139.428 Q2154.51 143.178 2154.51 149.289 Q2154.51 155.4 2151.55 159.15 Q2148.61 162.9 2143.89 162.9 Q2141.04 162.9 2138.98 161.789 Q2136.94 160.655 2135.6 158.34 M2150.09 149.289 Q2150.09 144.59 2148.14 141.928 Q2146.22 139.243 2142.84 139.243 Q2139.46 139.243 2137.52 141.928 Q2135.6 144.59 2135.6 149.289 Q2135.6 153.988 2137.52 156.673 Q2139.46 159.335 2142.84 159.335 Q2146.22 159.335 2148.14 156.673 Q2150.09 153.988 2150.09 149.289 Z" fill="#000000" fill-rule="nonzero" fill-opacity="1" /><path clip-path="url(#clip750)" d="M2161.76 127.669 L2168.05 127.669 L2183.38 156.581 L2183.38 127.669 L2187.91 127.669 L2187.91 162.229 L2181.62 162.229 L2166.29 133.317 L2166.29 162.229 L2161.76 162.229 L2161.76 127.669 Z" fill="#000000" fill-rule="nonzero" fill-opacity="1" /><path clip-path="url(#clip750)" d="M2219.21 148.201 L2219.21 150.284 L2199.63 150.284 Q2199.9 154.682 2202.26 156.997 Q2204.65 159.289 2208.89 159.289 Q2211.34 159.289 2213.63 158.687 Q2215.95 158.085 2218.21 156.881 L2218.21 160.909 Q2215.92 161.881 2213.51 162.391 Q2211.11 162.9 2208.63 162.9 Q2202.43 162.9 2198.79 159.289 Q2195.18 155.678 2195.18 149.52 Q2195.18 143.155 2198.61 139.428 Q2202.06 135.678 2207.89 135.678 Q2213.12 135.678 2216.15 139.057 Q2219.21 142.414 2219.21 148.201 M2214.95 146.951 Q2214.9 143.456 2212.98 141.372 Q2211.08 139.289 2207.94 139.289 Q2204.37 139.289 2202.22 141.303 Q2200.09 143.317 2199.76 146.974 L2214.95 146.951 Z" fill="#000000" fill-rule="nonzero" fill-opacity="1" /><path clip-path="url(#clip750)" d="M2230.41 128.942 L2230.41 136.303 L2239.19 136.303 L2239.19 139.613 L2230.41 139.613 L2230.41 153.687 Q2230.41 156.858 2231.27 157.761 Q2232.15 158.664 2234.81 158.664 L2239.19 158.664 L2239.19 162.229 L2234.81 162.229 Q2229.88 162.229 2228.01 160.4 Q2226.13 158.548 2226.13 153.687 L2226.13 139.613 L2223.01 139.613 L2223.01 136.303 L2226.13 136.303 L2226.13 128.942 L2230.41 128.942 Z" fill="#000000" fill-rule="nonzero" fill-opacity="1" /><polyline clip-path="url(#clip750)" style="stroke:#e26f46; stroke-linecap:round; stroke-linejoin:round; stroke-width:4; stroke-opacity:1; fill:none" points="1808.04,196.789 1948.15,196.789 "/>
<path clip-path="url(#clip750)" d="M1971.5 179.509 L1976.18 179.509 L1976.18 210.133 L1993.01 210.133 L1993.01 214.069 L1971.5 214.069 L1971.5 179.509 Z" fill="#000000" fill-rule="nonzero" fill-opacity="1" /><path clip-path="url(#clip750)" d="M2010.55 184.115 L2004.21 201.314 L2016.92 201.314 L2010.55 184.115 M2007.91 179.509 L2013.21 179.509 L2026.39 214.069 L2021.52 214.069 L2018.38 205.203 L2002.8 205.203 L1999.65 214.069 L1994.72 214.069 L2007.91 179.509 Z" fill="#000000" fill-rule="nonzero" fill-opacity="1" /><path clip-path="url(#clip750)" d="M2028.05 199.184 L2040.53 199.184 L2040.53 202.981 L2028.05 202.981 L2028.05 199.184 Z" fill="#000000" fill-rule="nonzero" fill-opacity="1" /><path clip-path="url(#clip750)" d="M2068.21 180.643 L2068.21 185.203 Q2065.55 183.93 2063.19 183.305 Q2060.83 182.68 2058.63 182.68 Q2054.81 182.68 2052.73 184.161 Q2050.67 185.643 2050.67 188.374 Q2050.67 190.666 2052.03 191.847 Q2053.42 193.004 2057.27 193.722 L2060.09 194.3 Q2065.32 195.296 2067.8 197.819 Q2070.3 200.319 2070.3 204.532 Q2070.3 209.555 2066.92 212.147 Q2063.56 214.74 2057.06 214.74 Q2054.6 214.74 2051.83 214.184 Q2049.07 213.629 2046.11 212.541 L2046.11 207.726 Q2048.96 209.323 2051.69 210.133 Q2054.42 210.944 2057.06 210.944 Q2061.06 210.944 2063.24 209.37 Q2065.41 207.796 2065.41 204.879 Q2065.41 202.333 2063.84 200.897 Q2062.29 199.462 2058.72 198.745 L2055.88 198.189 Q2050.65 197.147 2048.31 194.925 Q2045.97 192.703 2045.97 188.745 Q2045.97 184.161 2049.19 181.522 Q2052.43 178.884 2058.1 178.884 Q2060.53 178.884 2063.05 179.323 Q2065.58 179.763 2068.21 180.643 Z" fill="#000000" fill-rule="nonzero" fill-opacity="1" /><path clip-path="url(#clip750)" d="M2088.19 216.476 Q2086.39 221.106 2084.67 222.518 Q2082.96 223.93 2080.09 223.93 L2076.69 223.93 L2076.69 220.365 L2079.19 220.365 Q2080.95 220.365 2081.92 219.532 Q2082.89 218.698 2084.07 215.596 L2084.83 213.652 L2074.35 188.143 L2078.86 188.143 L2086.96 208.421 L2095.07 188.143 L2099.58 188.143 L2088.19 216.476 Z" fill="#000000" fill-rule="nonzero" fill-opacity="1" /><path clip-path="url(#clip750)" d="M2125.64 193.12 Q2127.24 190.249 2129.46 188.884 Q2131.69 187.518 2134.7 187.518 Q2138.75 187.518 2140.95 190.365 Q2143.14 193.189 2143.14 198.421 L2143.14 214.069 L2138.86 214.069 L2138.86 198.559 Q2138.86 194.833 2137.54 193.027 Q2136.22 191.222 2133.52 191.222 Q2130.2 191.222 2128.28 193.421 Q2126.36 195.62 2126.36 199.416 L2126.36 214.069 L2122.08 214.069 L2122.08 198.559 Q2122.08 194.809 2120.76 193.027 Q2119.44 191.222 2116.69 191.222 Q2113.42 191.222 2111.5 193.444 Q2109.58 195.643 2109.58 199.416 L2109.58 214.069 L2105.3 214.069 L2105.3 188.143 L2109.58 188.143 L2109.58 192.171 Q2111.04 189.786 2113.08 188.652 Q2115.11 187.518 2117.91 187.518 Q2120.74 187.518 2122.7 188.953 Q2124.7 190.388 2125.64 193.12 Z" fill="#000000" fill-rule="nonzero" fill-opacity="1" /><path clip-path="url(#clip750)" d="M2155.76 210.18 L2155.76 223.93 L2151.48 223.93 L2151.48 188.143 L2155.76 188.143 L2155.76 192.078 Q2157.1 189.763 2159.14 188.652 Q2161.2 187.518 2164.05 187.518 Q2168.77 187.518 2171.71 191.268 Q2174.67 195.018 2174.67 201.129 Q2174.67 207.24 2171.71 210.99 Q2168.77 214.74 2164.05 214.74 Q2161.2 214.74 2159.14 213.629 Q2157.1 212.495 2155.76 210.18 M2170.25 201.129 Q2170.25 196.43 2168.31 193.768 Q2166.39 191.083 2163.01 191.083 Q2159.63 191.083 2157.68 193.768 Q2155.76 196.43 2155.76 201.129 Q2155.76 205.828 2157.68 208.513 Q2159.63 211.175 2163.01 211.175 Q2166.39 211.175 2168.31 208.513 Q2170.25 205.828 2170.25 201.129 Z" fill="#000000" fill-rule="nonzero" fill-opacity="1" /><path clip-path="url(#clip750)" d="M2181.92 179.509 L2188.21 179.509 L2203.54 208.421 L2203.54 179.509 L2208.07 179.509 L2208.07 214.069 L2201.78 214.069 L2186.45 185.157 L2186.45 214.069 L2181.92 214.069 L2181.92 179.509 Z" fill="#000000" fill-rule="nonzero" fill-opacity="1" /><path clip-path="url(#clip750)" d="M2239.37 200.041 L2239.37 202.124 L2219.79 202.124 Q2220.07 206.522 2222.43 208.837 Q2224.81 211.129 2229.05 211.129 Q2231.5 211.129 2233.79 210.527 Q2236.11 209.925 2238.38 208.721 L2238.38 212.749 Q2236.08 213.721 2233.68 214.231 Q2231.27 214.74 2228.79 214.74 Q2222.59 214.74 2218.95 211.129 Q2215.34 207.518 2215.34 201.36 Q2215.34 194.995 2218.77 191.268 Q2222.22 187.518 2228.05 187.518 Q2233.28 187.518 2236.32 190.897 Q2239.37 194.254 2239.37 200.041 M2235.11 198.791 Q2235.07 195.296 2233.14 193.212 Q2231.25 191.129 2228.1 191.129 Q2224.53 191.129 2222.38 193.143 Q2220.25 195.157 2219.93 198.814 L2235.11 198.791 Z" fill="#000000" fill-rule="nonzero" fill-opacity="1" /><path clip-path="url(#clip750)" d="M2250.57 180.782 L2250.57 188.143 L2259.35 188.143 L2259.35 191.453 L2250.57 191.453 L2250.57 205.527 Q2250.57 208.698 2251.43 209.601 Q2252.31 210.504 2254.97 210.504 L2259.35 210.504 L2259.35 214.069 L2254.97 214.069 Q2250.04 214.069 2248.17 212.24 Q2246.29 210.388 2246.29 205.527 L2246.29 191.453 L2243.17 191.453 L2243.17 188.143 L2246.29 188.143 L2246.29 180.782 L2250.57 180.782 Z" fill="#000000" fill-rule="nonzero" fill-opacity="1" /></svg>
