<?xml version="1.0" encoding="utf-8"?>
<svg xmlns="http://www.w3.org/2000/svg" xmlns:xlink="http://www.w3.org/1999/xlink" width="600" height="400" viewBox="0 0 2400 1600">
<defs>
  <clipPath id="clip970">
    <rect x="0" y="0" width="2400" height="1600"/>
  </clipPath>
</defs>
<path clip-path="url(#clip970)" d="M0 1600 L2400 1600 L2400 0 L0 0  Z" fill="#ffffff" fill-rule="evenodd" fill-opacity="1"/>
<defs>
  <clipPath id="clip971">
    <rect x="480" y="0" width="1681" height="1600"/>
  </clipPath>
</defs>
<path clip-path="url(#clip970)" d="M193.936 1486.45 L2352.76 1486.45 L2352.76 47.2441 L193.936 47.2441  Z" fill="#ffffff" fill-rule="evenodd" fill-opacity="1"/>
<defs>
  <clipPath id="clip972">
    <rect x="193" y="47" width="2160" height="1440"/>
  </clipPath>
</defs>
<polyline clip-path="url(#clip972)" style="stroke:#000000; stroke-linecap:round; stroke-linejoin:round; stroke-width:2; stroke-opacity:0.1; fill:none" points="306.773,1486.45 306.773,47.2441 "/>
<polyline clip-path="url(#clip972)" style="stroke:#000000; stroke-linecap:round; stroke-linejoin:round; stroke-width:2; stroke-opacity:0.1; fill:none" points="788.413,1486.45 788.413,47.2441 "/>
<polyline clip-path="url(#clip972)" style="stroke:#000000; stroke-linecap:round; stroke-linejoin:round; stroke-width:2; stroke-opacity:0.1; fill:none" points="1270.05,1486.45 1270.05,47.2441 "/>
<polyline clip-path="url(#clip972)" style="stroke:#000000; stroke-linecap:round; stroke-linejoin:round; stroke-width:2; stroke-opacity:0.1; fill:none" points="1751.69,1486.45 1751.69,47.2441 "/>
<polyline clip-path="url(#clip972)" style="stroke:#000000; stroke-linecap:round; stroke-linejoin:round; stroke-width:2; stroke-opacity:0.1; fill:none" points="2233.33,1486.45 2233.33,47.2441 "/>
<polyline clip-path="url(#clip970)" style="stroke:#000000; stroke-linecap:round; stroke-linejoin:round; stroke-width:4; stroke-opacity:1; fill:none" points="193.936,1486.45 2352.76,1486.45 "/>
<polyline clip-path="url(#clip970)" style="stroke:#000000; stroke-linecap:round; stroke-linejoin:round; stroke-width:4; stroke-opacity:1; fill:none" points="306.773,1486.45 306.773,1467.55 "/>
<polyline clip-path="url(#clip970)" style="stroke:#000000; stroke-linecap:round; stroke-linejoin:round; stroke-width:4; stroke-opacity:1; fill:none" points="788.413,1486.45 788.413,1467.55 "/>
<polyline clip-path="url(#clip970)" style="stroke:#000000; stroke-linecap:round; stroke-linejoin:round; stroke-width:4; stroke-opacity:1; fill:none" points="1270.05,1486.45 1270.05,1467.55 "/>
<polyline clip-path="url(#clip970)" style="stroke:#000000; stroke-linecap:round; stroke-linejoin:round; stroke-width:4; stroke-opacity:1; fill:none" points="1751.69,1486.45 1751.69,1467.55 "/>
<polyline clip-path="url(#clip970)" style="stroke:#000000; stroke-linecap:round; stroke-linejoin:round; stroke-width:4; stroke-opacity:1; fill:none" points="2233.33,1486.45 2233.33,1467.55 "/>
<path clip-path="url(#clip970)" d="M253.301 1532.02 L282.977 1532.02 L282.977 1535.95 L253.301 1535.95 L253.301 1532.02 Z" fill="#000000" fill-rule="nonzero" fill-opacity="1" /><path clip-path="url(#clip970)" d="M293.88 1544.91 L301.519 1544.91 L301.519 1518.55 L293.209 1520.21 L293.209 1515.95 L301.472 1514.29 L306.148 1514.29 L306.148 1544.91 L313.787 1544.91 L313.787 1548.85 L293.88 1548.85 L293.88 1544.91 Z" fill="#000000" fill-rule="nonzero" fill-opacity="1" /><path clip-path="url(#clip970)" d="M323.232 1542.97 L328.116 1542.97 L328.116 1548.85 L323.232 1548.85 L323.232 1542.97 Z" fill="#000000" fill-rule="nonzero" fill-opacity="1" /><path clip-path="url(#clip970)" d="M348.301 1517.37 Q344.69 1517.37 342.861 1520.93 Q341.056 1524.47 341.056 1531.6 Q341.056 1538.71 342.861 1542.27 Q344.69 1545.82 348.301 1545.82 Q351.935 1545.82 353.741 1542.27 Q355.569 1538.71 355.569 1531.6 Q355.569 1524.47 353.741 1520.93 Q351.935 1517.37 348.301 1517.37 M348.301 1513.66 Q354.111 1513.66 357.167 1518.27 Q360.245 1522.85 360.245 1531.6 Q360.245 1540.33 357.167 1544.94 Q354.111 1549.52 348.301 1549.52 Q342.491 1549.52 339.412 1544.94 Q336.357 1540.33 336.357 1531.6 Q336.357 1522.85 339.412 1518.27 Q342.491 1513.66 348.301 1513.66 Z" fill="#000000" fill-rule="nonzero" fill-opacity="1" /><path clip-path="url(#clip970)" d="M735.439 1532.02 L765.115 1532.02 L765.115 1535.95 L735.439 1535.95 L735.439 1532.02 Z" fill="#000000" fill-rule="nonzero" fill-opacity="1" /><path clip-path="url(#clip970)" d="M785.207 1517.37 Q781.596 1517.37 779.768 1520.93 Q777.962 1524.47 777.962 1531.6 Q777.962 1538.71 779.768 1542.27 Q781.596 1545.82 785.207 1545.82 Q788.842 1545.82 790.647 1542.27 Q792.476 1538.71 792.476 1531.6 Q792.476 1524.47 790.647 1520.93 Q788.842 1517.37 785.207 1517.37 M785.207 1513.66 Q791.018 1513.66 794.073 1518.27 Q797.152 1522.85 797.152 1531.6 Q797.152 1540.33 794.073 1544.94 Q791.018 1549.52 785.207 1549.52 Q779.397 1549.52 776.319 1544.94 Q773.263 1540.33 773.263 1531.6 Q773.263 1522.85 776.319 1518.27 Q779.397 1513.66 785.207 1513.66 Z" fill="#000000" fill-rule="nonzero" fill-opacity="1" /><path clip-path="url(#clip970)" d="M805.369 1542.97 L810.254 1542.97 L810.254 1548.85 L805.369 1548.85 L805.369 1542.97 Z" fill="#000000" fill-rule="nonzero" fill-opacity="1" /><path clip-path="url(#clip970)" d="M820.485 1514.29 L838.841 1514.29 L838.841 1518.22 L824.767 1518.22 L824.767 1526.7 Q825.786 1526.35 826.804 1526.19 Q827.823 1526 828.841 1526 Q834.628 1526 838.008 1529.17 Q841.388 1532.34 841.388 1537.76 Q841.388 1543.34 837.915 1546.44 Q834.443 1549.52 828.124 1549.52 Q825.948 1549.52 823.679 1549.15 Q821.434 1548.78 819.027 1548.04 L819.027 1543.34 Q821.11 1544.47 823.332 1545.03 Q825.554 1545.58 828.031 1545.58 Q832.036 1545.58 834.374 1543.48 Q836.712 1541.37 836.712 1537.76 Q836.712 1534.15 834.374 1532.04 Q832.036 1529.94 828.031 1529.94 Q826.156 1529.94 824.281 1530.35 Q822.429 1530.77 820.485 1531.65 L820.485 1514.29 Z" fill="#000000" fill-rule="nonzero" fill-opacity="1" /><path clip-path="url(#clip970)" d="M1247.44 1517.37 Q1243.83 1517.37 1242 1520.93 Q1240.19 1524.47 1240.19 1531.6 Q1240.19 1538.71 1242 1542.27 Q1243.83 1545.82 1247.44 1545.82 Q1251.07 1545.82 1252.88 1542.27 Q1254.71 1538.71 1254.71 1531.6 Q1254.71 1524.47 1252.88 1520.93 Q1251.07 1517.37 1247.44 1517.37 M1247.44 1513.66 Q1253.25 1513.66 1256.3 1518.27 Q1259.38 1522.85 1259.38 1531.6 Q1259.38 1540.33 1256.3 1544.94 Q1253.25 1549.52 1247.44 1549.52 Q1241.63 1549.52 1238.55 1544.94 Q1235.49 1540.33 1235.49 1531.6 Q1235.49 1522.85 1238.55 1518.27 Q1241.63 1513.66 1247.44 1513.66 Z" fill="#000000" fill-rule="nonzero" fill-opacity="1" /><path clip-path="url(#clip970)" d="M1267.6 1542.97 L1272.48 1542.97 L1272.48 1548.85 L1267.6 1548.85 L1267.6 1542.97 Z" fill="#000000" fill-rule="nonzero" fill-opacity="1" /><path clip-path="url(#clip970)" d="M1292.67 1517.37 Q1289.06 1517.37 1287.23 1520.93 Q1285.42 1524.47 1285.42 1531.6 Q1285.42 1538.71 1287.23 1542.27 Q1289.06 1545.82 1292.67 1545.82 Q1296.3 1545.82 1298.11 1542.27 Q1299.94 1538.71 1299.94 1531.6 Q1299.94 1524.47 1298.11 1520.93 Q1296.3 1517.37 1292.67 1517.37 M1292.67 1513.66 Q1298.48 1513.66 1301.53 1518.27 Q1304.61 1522.85 1304.61 1531.6 Q1304.61 1540.33 1301.53 1544.94 Q1298.48 1549.52 1292.67 1549.52 Q1286.86 1549.52 1283.78 1544.94 Q1280.72 1540.33 1280.72 1531.6 Q1280.72 1522.85 1283.78 1518.27 Q1286.86 1513.66 1292.67 1513.66 Z" fill="#000000" fill-rule="nonzero" fill-opacity="1" /><path clip-path="url(#clip970)" d="M1729.58 1517.37 Q1725.96 1517.37 1724.14 1520.93 Q1722.33 1524.47 1722.33 1531.6 Q1722.33 1538.71 1724.14 1542.27 Q1725.96 1545.82 1729.58 1545.82 Q1733.21 1545.82 1735.02 1542.27 Q1736.84 1538.71 1736.84 1531.6 Q1736.84 1524.47 1735.02 1520.93 Q1733.21 1517.37 1729.58 1517.37 M1729.58 1513.66 Q1735.39 1513.66 1738.44 1518.27 Q1741.52 1522.85 1741.52 1531.6 Q1741.52 1540.33 1738.44 1544.94 Q1735.39 1549.52 1729.58 1549.52 Q1723.77 1549.52 1720.69 1544.94 Q1717.63 1540.33 1717.63 1531.6 Q1717.63 1522.85 1720.69 1518.27 Q1723.77 1513.66 1729.58 1513.66 Z" fill="#000000" fill-rule="nonzero" fill-opacity="1" /><path clip-path="url(#clip970)" d="M1749.74 1542.97 L1754.62 1542.97 L1754.62 1548.85 L1749.74 1548.85 L1749.74 1542.97 Z" fill="#000000" fill-rule="nonzero" fill-opacity="1" /><path clip-path="url(#clip970)" d="M1764.85 1514.29 L1783.21 1514.29 L1783.21 1518.22 L1769.14 1518.22 L1769.14 1526.7 Q1770.15 1526.35 1771.17 1526.19 Q1772.19 1526 1773.21 1526 Q1779 1526 1782.38 1529.17 Q1785.76 1532.34 1785.76 1537.76 Q1785.76 1543.34 1782.28 1546.44 Q1778.81 1549.52 1772.49 1549.52 Q1770.32 1549.52 1768.05 1549.15 Q1765.8 1548.78 1763.39 1548.04 L1763.39 1543.34 Q1765.48 1544.47 1767.7 1545.03 Q1769.92 1545.58 1772.4 1545.58 Q1776.4 1545.58 1778.74 1543.48 Q1781.08 1541.37 1781.08 1537.76 Q1781.08 1534.15 1778.74 1532.04 Q1776.4 1529.94 1772.4 1529.94 Q1770.52 1529.94 1768.65 1530.35 Q1766.8 1530.77 1764.85 1531.65 L1764.85 1514.29 Z" fill="#000000" fill-rule="nonzero" fill-opacity="1" /><path clip-path="url(#clip970)" d="M2200.49 1544.91 L2208.13 1544.91 L2208.13 1518.55 L2199.82 1520.21 L2199.82 1515.95 L2208.08 1514.29 L2212.76 1514.29 L2212.76 1544.91 L2220.39 1544.91 L2220.39 1548.85 L2200.49 1548.85 L2200.49 1544.91 Z" fill="#000000" fill-rule="nonzero" fill-opacity="1" /><path clip-path="url(#clip970)" d="M2229.84 1542.97 L2234.72 1542.97 L2234.72 1548.85 L2229.84 1548.85 L2229.84 1542.97 Z" fill="#000000" fill-rule="nonzero" fill-opacity="1" /><path clip-path="url(#clip970)" d="M2254.91 1517.37 Q2251.3 1517.37 2249.47 1520.93 Q2247.66 1524.47 2247.66 1531.6 Q2247.66 1538.71 2249.47 1542.27 Q2251.3 1545.82 2254.91 1545.82 Q2258.54 1545.82 2260.35 1542.27 Q2262.18 1538.71 2262.18 1531.6 Q2262.18 1524.47 2260.35 1520.93 Q2258.54 1517.37 2254.91 1517.37 M2254.91 1513.66 Q2260.72 1513.66 2263.77 1518.27 Q2266.85 1522.85 2266.85 1531.6 Q2266.85 1540.33 2263.77 1544.94 Q2260.72 1549.52 2254.91 1549.52 Q2249.1 1549.52 2246.02 1544.94 Q2242.96 1540.33 2242.96 1531.6 Q2242.96 1522.85 2246.02 1518.27 Q2249.1 1513.66 2254.91 1513.66 Z" fill="#000000" fill-rule="nonzero" fill-opacity="1" /><polyline clip-path="url(#clip972)" style="stroke:#000000; stroke-linecap:round; stroke-linejoin:round; stroke-width:2; stroke-opacity:0.1; fill:none" points="193.936,1445.72 2352.76,1445.72 "/>
<polyline clip-path="url(#clip972)" style="stroke:#000000; stroke-linecap:round; stroke-linejoin:round; stroke-width:2; stroke-opacity:0.1; fill:none" points="193.936,1106.45 2352.76,1106.45 "/>
<polyline clip-path="url(#clip972)" style="stroke:#000000; stroke-linecap:round; stroke-linejoin:round; stroke-width:2; stroke-opacity:0.1; fill:none" points="193.936,767.177 2352.76,767.177 "/>
<polyline clip-path="url(#clip972)" style="stroke:#000000; stroke-linecap:round; stroke-linejoin:round; stroke-width:2; stroke-opacity:0.1; fill:none" points="193.936,427.908 2352.76,427.908 "/>
<polyline clip-path="url(#clip972)" style="stroke:#000000; stroke-linecap:round; stroke-linejoin:round; stroke-width:2; stroke-opacity:0.1; fill:none" points="193.936,88.6389 2352.76,88.6389 "/>
<polyline clip-path="url(#clip970)" style="stroke:#000000; stroke-linecap:round; stroke-linejoin:round; stroke-width:4; stroke-opacity:1; fill:none" points="193.936,1486.45 193.936,47.2441 "/>
<polyline clip-path="url(#clip970)" style="stroke:#000000; stroke-linecap:round; stroke-linejoin:round; stroke-width:4; stroke-opacity:1; fill:none" points="193.936,1445.72 212.834,1445.72 "/>
<polyline clip-path="url(#clip970)" style="stroke:#000000; stroke-linecap:round; stroke-linejoin:round; stroke-width:4; stroke-opacity:1; fill:none" points="193.936,1106.45 212.834,1106.45 "/>
<polyline clip-path="url(#clip970)" style="stroke:#000000; stroke-linecap:round; stroke-linejoin:round; stroke-width:4; stroke-opacity:1; fill:none" points="193.936,767.177 212.834,767.177 "/>
<polyline clip-path="url(#clip970)" style="stroke:#000000; stroke-linecap:round; stroke-linejoin:round; stroke-width:4; stroke-opacity:1; fill:none" points="193.936,427.908 212.834,427.908 "/>
<polyline clip-path="url(#clip970)" style="stroke:#000000; stroke-linecap:round; stroke-linejoin:round; stroke-width:4; stroke-opacity:1; fill:none" points="193.936,88.6389 212.834,88.6389 "/>
<path clip-path="url(#clip970)" d="M50.9921 1446.17 L80.6679 1446.17 L80.6679 1450.1 L50.9921 1450.1 L50.9921 1446.17 Z" fill="#000000" fill-rule="nonzero" fill-opacity="1" /><path clip-path="url(#clip970)" d="M91.5706 1459.06 L99.2095 1459.06 L99.2095 1432.69 L90.8993 1434.36 L90.8993 1430.1 L99.1632 1428.44 L103.839 1428.44 L103.839 1459.06 L111.478 1459.06 L111.478 1463 L91.5706 1463 L91.5706 1459.06 Z" fill="#000000" fill-rule="nonzero" fill-opacity="1" /><path clip-path="url(#clip970)" d="M120.922 1457.12 L125.807 1457.12 L125.807 1463 L120.922 1463 L120.922 1457.12 Z" fill="#000000" fill-rule="nonzero" fill-opacity="1" /><path clip-path="url(#clip970)" d="M145.992 1431.51 Q142.381 1431.51 140.552 1435.08 Q138.746 1438.62 138.746 1445.75 Q138.746 1452.86 140.552 1456.42 Q142.381 1459.96 145.992 1459.96 Q149.626 1459.96 151.431 1456.42 Q153.26 1452.86 153.26 1445.75 Q153.26 1438.62 151.431 1435.08 Q149.626 1431.51 145.992 1431.51 M145.992 1427.81 Q151.802 1427.81 154.857 1432.42 Q157.936 1437 157.936 1445.75 Q157.936 1454.48 154.857 1459.08 Q151.802 1463.67 145.992 1463.67 Q140.181 1463.67 137.103 1459.08 Q134.047 1454.48 134.047 1445.75 Q134.047 1437 137.103 1432.42 Q140.181 1427.81 145.992 1427.81 Z" fill="#000000" fill-rule="nonzero" fill-opacity="1" /><path clip-path="url(#clip970)" d="M51.9875 1106.9 L81.6633 1106.9 L81.6633 1110.83 L51.9875 1110.83 L51.9875 1106.9 Z" fill="#000000" fill-rule="nonzero" fill-opacity="1" /><path clip-path="url(#clip970)" d="M101.756 1092.25 Q98.1447 1092.25 96.316 1095.81 Q94.5104 1099.35 94.5104 1106.48 Q94.5104 1113.59 96.316 1117.15 Q98.1447 1120.69 101.756 1120.69 Q105.39 1120.69 107.196 1117.15 Q109.024 1113.59 109.024 1106.48 Q109.024 1099.35 107.196 1095.81 Q105.39 1092.25 101.756 1092.25 M101.756 1088.54 Q107.566 1088.54 110.621 1093.15 Q113.7 1097.73 113.7 1106.48 Q113.7 1115.21 110.621 1119.81 Q107.566 1124.4 101.756 1124.4 Q95.9456 1124.4 92.8669 1119.81 Q89.8114 1115.21 89.8114 1106.48 Q89.8114 1097.73 92.8669 1093.15 Q95.9456 1088.54 101.756 1088.54 Z" fill="#000000" fill-rule="nonzero" fill-opacity="1" /><path clip-path="url(#clip970)" d="M121.918 1117.85 L126.802 1117.85 L126.802 1123.73 L121.918 1123.73 L121.918 1117.85 Z" fill="#000000" fill-rule="nonzero" fill-opacity="1" /><path clip-path="url(#clip970)" d="M137.033 1089.17 L155.39 1089.17 L155.39 1093.1 L141.316 1093.1 L141.316 1101.57 Q142.334 1101.23 143.353 1101.06 Q144.371 1100.88 145.39 1100.88 Q151.177 1100.88 154.556 1104.05 Q157.936 1107.22 157.936 1112.64 Q157.936 1118.22 154.464 1121.32 Q150.992 1124.4 144.672 1124.4 Q142.496 1124.4 140.228 1124.03 Q137.982 1123.66 135.575 1122.92 L135.575 1118.22 Q137.658 1119.35 139.881 1119.91 Q142.103 1120.46 144.58 1120.46 Q148.584 1120.46 150.922 1118.36 Q153.26 1116.25 153.26 1112.64 Q153.26 1109.03 150.922 1106.92 Q148.584 1104.81 144.58 1104.81 Q142.705 1104.81 140.83 1105.23 Q138.978 1105.65 137.033 1106.53 L137.033 1089.17 Z" fill="#000000" fill-rule="nonzero" fill-opacity="1" /><path clip-path="url(#clip970)" d="M100.76 752.976 Q97.1493 752.976 95.3206 756.541 Q93.515 760.082 93.515 767.212 Q93.515 774.318 95.3206 777.883 Q97.1493 781.425 100.76 781.425 Q104.395 781.425 106.2 777.883 Q108.029 774.318 108.029 767.212 Q108.029 760.082 106.2 756.541 Q104.395 752.976 100.76 752.976 M100.76 749.272 Q106.571 749.272 109.626 753.879 Q112.705 758.462 112.705 767.212 Q112.705 775.939 109.626 780.545 Q106.571 785.129 100.76 785.129 Q94.9502 785.129 91.8715 780.545 Q88.816 775.939 88.816 767.212 Q88.816 758.462 91.8715 753.879 Q94.9502 749.272 100.76 749.272 Z" fill="#000000" fill-rule="nonzero" fill-opacity="1" /><path clip-path="url(#clip970)" d="M120.922 778.578 L125.807 778.578 L125.807 784.457 L120.922 784.457 L120.922 778.578 Z" fill="#000000" fill-rule="nonzero" fill-opacity="1" /><path clip-path="url(#clip970)" d="M145.992 752.976 Q142.381 752.976 140.552 756.541 Q138.746 760.082 138.746 767.212 Q138.746 774.318 140.552 777.883 Q142.381 781.425 145.992 781.425 Q149.626 781.425 151.431 777.883 Q153.26 774.318 153.26 767.212 Q153.26 760.082 151.431 756.541 Q149.626 752.976 145.992 752.976 M145.992 749.272 Q151.802 749.272 154.857 753.879 Q157.936 758.462 157.936 767.212 Q157.936 775.939 154.857 780.545 Q151.802 785.129 145.992 785.129 Q140.181 785.129 137.103 780.545 Q134.047 775.939 134.047 767.212 Q134.047 758.462 137.103 753.879 Q140.181 749.272 145.992 749.272 Z" fill="#000000" fill-rule="nonzero" fill-opacity="1" /><path clip-path="url(#clip970)" d="M101.756 413.707 Q98.1447 413.707 96.316 417.272 Q94.5104 420.813 94.5104 427.943 Q94.5104 435.049 96.316 438.614 Q98.1447 442.156 101.756 442.156 Q105.39 442.156 107.196 438.614 Q109.024 435.049 109.024 427.943 Q109.024 420.813 107.196 417.272 Q105.39 413.707 101.756 413.707 M101.756 410.003 Q107.566 410.003 110.621 414.61 Q113.7 419.193 113.7 427.943 Q113.7 436.67 110.621 441.276 Q107.566 445.859 101.756 445.859 Q95.9456 445.859 92.8669 441.276 Q89.8114 436.67 89.8114 427.943 Q89.8114 419.193 92.8669 414.61 Q95.9456 410.003 101.756 410.003 Z" fill="#000000" fill-rule="nonzero" fill-opacity="1" /><path clip-path="url(#clip970)" d="M121.918 439.309 L126.802 439.309 L126.802 445.188 L121.918 445.188 L121.918 439.309 Z" fill="#000000" fill-rule="nonzero" fill-opacity="1" /><path clip-path="url(#clip970)" d="M137.033 410.628 L155.39 410.628 L155.39 414.563 L141.316 414.563 L141.316 423.035 Q142.334 422.688 143.353 422.526 Q144.371 422.341 145.39 422.341 Q151.177 422.341 154.556 425.512 Q157.936 428.684 157.936 434.1 Q157.936 439.679 154.464 442.781 Q150.992 445.859 144.672 445.859 Q142.496 445.859 140.228 445.489 Q137.982 445.119 135.575 444.378 L135.575 439.679 Q137.658 440.813 139.881 441.369 Q142.103 441.924 144.58 441.924 Q148.584 441.924 150.922 439.818 Q153.26 437.711 153.26 434.1 Q153.26 430.489 150.922 428.383 Q148.584 426.276 144.58 426.276 Q142.705 426.276 140.83 426.693 Q138.978 427.11 137.033 427.989 L137.033 410.628 Z" fill="#000000" fill-rule="nonzero" fill-opacity="1" /><path clip-path="url(#clip970)" d="M91.5706 101.984 L99.2095 101.984 L99.2095 75.6181 L90.8993 77.2848 L90.8993 73.0256 L99.1632 71.3589 L103.839 71.3589 L103.839 101.984 L111.478 101.984 L111.478 105.919 L91.5706 105.919 L91.5706 101.984 Z" fill="#000000" fill-rule="nonzero" fill-opacity="1" /><path clip-path="url(#clip970)" d="M120.922 100.039 L125.807 100.039 L125.807 105.919 L120.922 105.919 L120.922 100.039 Z" fill="#000000" fill-rule="nonzero" fill-opacity="1" /><path clip-path="url(#clip970)" d="M145.992 74.4376 Q142.381 74.4376 140.552 78.0024 Q138.746 81.544 138.746 88.6736 Q138.746 95.7801 140.552 99.3449 Q142.381 102.887 145.992 102.887 Q149.626 102.887 151.431 99.3449 Q153.26 95.7801 153.26 88.6736 Q153.26 81.544 151.431 78.0024 Q149.626 74.4376 145.992 74.4376 M145.992 70.7339 Q151.802 70.7339 154.857 75.3404 Q157.936 79.9237 157.936 88.6736 Q157.936 97.4004 154.857 102.007 Q151.802 106.59 145.992 106.59 Q140.181 106.59 137.103 102.007 Q134.047 97.4004 134.047 88.6736 Q134.047 79.9237 137.103 75.3404 Q140.181 70.7339 145.992 70.7339 Z" fill="#000000" fill-rule="nonzero" fill-opacity="1" /><polyline clip-path="url(#clip972)" style="stroke:#009af9; stroke-linecap:round; stroke-linejoin:round; stroke-width:4; stroke-opacity:1; fill:none" points="1270.05,88.6389 1366.12,91.9521 1461.25,102.223 1554.62,118.789 1644.92,141.318 1731.7,170.143 1814.25,203.937 1891.39,242.37 1962.88,285.11 2027.79,331.495 2086.11,381.192 2137.38,433.044 2181.12,487.214 2216.87,543.041 2244.62,599.945 2264.38,657.843 2275.67,716.279 2278.49,775 2273.78,833.648 2259.67,892.001 2238.04,949.733 2207.93,1006.39 2170.31,1061.72 2124.68,1115.39 2071.53,1166.75 2011.33,1215.45 1944.54,1260.84 1871.16,1302.59 1792.61,1340.03 1709.13,1372.49 1621.17,1399.66 1529.92,1420.87 1436.09,1435.44 1340.61,1444.06 1244.42,1445.38 1148.47,1440.41 1053.81,1428.49 961.268,1410.26 871.666,1385.75 786.062,1355.93 704.691,1320.81 628.964,1281.05 559.352,1236.99 495.855,1189.94 439.413,1139.58 390.496,1087.06 348.635,1032.4 315.24,976.239 289.841,919.004 271.967,860.94 262.56,802.421 262.56,743.716 269.145,685.093 285.137,626.947 309.125,569.546 341.579,513.057 381.559,458.224 429.065,405.047 484.096,354.356 546.182,306.315 614.383,261.918 689.169,221.166 769.129,185.052 854.027,154.24 942.924,128.728 1035,109.181 1129.3,95.9279 1225.11,89.3015 1321.32,89.6329 1417.04,96.5905 1511.34,110.175 1603.06,130.054 1691.72,155.896 1776.15,187.372 1856.11,223.816 1930.43,264.9 1998.16,309.628 2059.77,357.669 2114.33,408.36 2161.37,461.702 2200.88,516.701 2232.39,573.191 2255.91,630.757 2270.96,688.945 2278.49,747.567 2276.61,806.293 2267.2,864.833 2249.33,922.814 2222.99,980.049 2188.65,1036.04 2146.79,1090.54 2096.93,1142.89 2040.02,1192.92 1976.52,1239.97 1905.97,1283.7 1830.24,1323.13 1748.64,1357.92 1662.8,1387.74 1572.96,1411.59 1480.18,1429.48 1385.35,1440.75 1289.37,1445.72 1193.21,1443.4 1097.79,1434.78 1004.07,1419.54 913.057,1398.01 825.336,1370.51 742.319,1337.71 663.77,1299.94 591.336,1258.19 524.546,1212.47 464.812,1163.43 412.602,1111.75 367.449,1058.07 329.821,1002.74 300.188,945.923 279.493,888.191 266.323,829.796 261.62,771.143 265.382,712.427 276.671,654.032 297.366,596.217 325.587,539.231 361.804,483.569 406.018,429.565 457.286,377.879 516.08,328.513 581.929,282.128 653.423,239.72 731.031,201.618 813.812,167.824 901.063,139.662 991.605,117.464 1085.09,101.229 1180.28,91.6208 1276.38,88.6389 1372.41,92.6147 1467.48,102.886 1560.5,120.114 1650.8,143.306 1737.35,172.131 1819.42,206.257 1896.09,245.021 1967.11,288.092 2032.02,334.808 2089.88,384.506 2140.67,436.688 2183.48,490.858 2218.75,546.685 2246.5,603.755 2265.32,661.653 2275.67,720.172 2278.49,778.856 2272.84,837.499 2258.73,895.811 2236.16,953.378 2205.58,1010.03 2167.48,1065.36 2121.39,1118.71 2067.77,1170.06 2007.09,1218.43 1939.83,1263.82 1866.46,1305.24 1787.44,1342.34 1703.48,1374.48 1615.29,1400.99 1523.81,1421.86 1429.86,1436.44 1334.26,1444.06 1238.1,1445.38 1142.24,1439.75 1047.58,1427.49 955.153,1408.61 865.786,1384.09 780.417,1353.61 699.517,1318.16 624.261,1278.07 555.119,1234 492.092,1186.63 436.12,1136.27 387.203,1083.42 346.283,1028.75 313.358,972.594 287.959,915.276 271.027,857.13 262.56,798.57 262.56,739.844 270.086,681.283 287.019,623.137 311.007,565.736 343.931,509.412 384.381,454.579 432.357,401.734 487.859,351.042 550.415,303.333 619.557,259.267 694.343,218.847 774.773,183.064 859.907,152.252 948.803,127.072 "/>
<polyline clip-path="url(#clip972)" style="stroke:#e26f46; stroke-linecap:round; stroke-linejoin:round; stroke-width:4; stroke-opacity:1; fill:none" points="1270.05,88.6389 1367.59,92.946 1464.9,103.88 1560.97,122.102 1654.1,144.963 1742.76,173.456 1827.42,206.588 1906.91,245.683 1980.75,288.755 2049.43,337.79 2107.75,386.825 2160.9,442.486 2206.05,500.798 2240.86,559.11 2270.02,624.048 2285.07,683.685 2291.66,745.973 2288.84,806.935 2280.37,871.874 2262.5,935.487 2234.27,996.449 2196.65,1054.76 2150.55,1109.76 2098.34,1163.43 2037.67,1213.13 1972.29,1260.84 1899.85,1303.58 1822.25,1341.68 1739.23,1374.48 1651.74,1401.32 1559.79,1421.2 1465.72,1435.44 1368.47,1442.4 1269.69,1442.4 1172.87,1438.43 1076.97,1428.49 980.787,1409.6 888.128,1386.74 802.524,1362.22 716.45,1327.1 636.96,1288.01 563.115,1244.27 494.444,1195.24 436.12,1146.2 382.97,1090.54 341.579,1036.21 306.773,977.895 277.612,914.282 262.56,854.645 255.035,792.357 257.857,732.72 264.442,666.457 284.196,606.82 311.477,547.182 347.224,488.871 390.966,432.547 442.235,378.21 500.088,327.188 565.937,280.803 636.96,237.732 713.628,199.299 794.998,165.505 881.543,138.337 972.086,117.132 1065.92,102.554 1162.11,94.6026 1259.87,92.946 1356.42,96.5905 1453.26,107.855 1546.39,121.771 1638.1,142.312 1727.94,170.806 1812.84,204.6 1894.68,244.358 1970.41,288.755 2039.08,336.464 2096.46,384.174 2149.14,437.185 2194.76,494.172 2230.98,552.484 2259.67,614.771 2278.49,678.384 2286.01,739.347 2283.19,800.309 2275.67,865.247 2259.67,928.86 2231.45,988.497 2195.71,1048.13 2151.96,1105.78 2099.75,1158.79 2041.43,1210.48 1975.58,1258.19 1903.62,1301.92 1826.01,1340.36 1743.23,1373.49 1655.74,1400.66 1564.49,1421.86 1469.95,1436.44 1372.71,1443.4 1273.99,1444.06 1177.69,1441.08 1080.38,1430.48 986.196,1414.9 892.126,1390.72 804.641,1364.21 719.742,1330.42 639.782,1291.32 563.115,1244.27 494.444,1195.24 436.12,1146.2 382.97,1090.54 341.579,1036.21 306.773,977.895 277.612,914.282 262.56,854.645 255.035,792.357 257.857,732.72 264.442,666.457 284.196,606.82 311.477,547.182 347.224,488.871 390.966,432.547 442.235,378.21 500.088,327.188 565.937,280.803 636.96,237.732 713.628,199.299 794.998,165.505 881.543,138.337 972.086,117.132 1065.92,102.554 1162.11,94.6026 1259.87,92.946 1356.42,96.5905 1453.26,107.855 1546.39,121.771 1638.1,142.312 1727.94,170.806 1812.84,204.6 1894.68,244.358 1970.41,288.755 2039.08,336.464 2096.46,384.174 2149.14,437.185 2194.76,494.172 2230.98,552.484 2259.67,614.771 2278.49,678.384 2286.01,739.347 2283.19,800.309 2275.67,865.247 2259.67,928.86 2231.45,988.497 2195.71,1048.13 2151.96,1105.78 2099.75,1158.79 2041.43,1210.48 1975.58,1258.19 1903.62,1301.92 1826.01,1340.36 1743.23,1373.49 1655.74,1400.66 1564.49,1421.86 1469.95,1436.44 1372.71,1443.4 1273.99,1444.06 1177.69,1441.08 1080.38,1430.48 986.196,1414.9 892.126,1390.72 804.641,1364.21 719.742,1330.42 639.782,1291.32 563.115,1244.27 494.444,1195.24 436.12,1146.2 382.97,1090.54 341.579,1036.21 306.773,977.895 277.612,914.282 262.56,854.645 255.035,792.357 257.857,732.72 264.442,666.457 284.196,606.82 311.477,547.182 347.224,488.871 390.966,432.547 442.235,378.21 500.088,327.188 565.937,280.803 636.96,237.732 713.628,199.299 794.998,165.505 881.543,138.337 972.086,117.132 1065.92,102.554 1162.11,94.6026 1259.87,92.946 1356.42,96.5905 "/>
<polyline clip-path="url(#clip972)" style="stroke:#3da44d; stroke-linecap:round; stroke-linejoin:round; stroke-width:4; stroke-opacity:1; fill:none" points="1270.05,88.6389 1364.83,91.9521 1458.78,101.892 1551.09,118.457 1640.69,141.318 1727,169.812 1809.08,203.606 1886.68,242.039 1958.65,284.448 2024.5,330.501 2083.76,379.867 2135.5,431.718 2179.71,485.723 2215.93,541.55 2244.62,598.785 2265.32,656.931 2276.61,715.657 2280.37,774.725 2274.72,833.689 2260.61,892.333 2238.04,950.23 2206.99,1007.05 2168.43,1062.38 2121.86,1115.72 2067.77,1167.08 2006.62,1215.45 1938.89,1260.51 1865.52,1301.92 1786.5,1339.03 1703.25,1371.17 1615.76,1398.01 1525.22,1418.88 1432.44,1433.46 1338.14,1441.41 1243.21,1442.73 1148.59,1437.43 1054.99,1425.51 963.384,1407.28 874.488,1382.77 789.354,1352.62 708.454,1317.5 632.727,1278.07 562.645,1234.67 498.677,1187.62 441.294,1137.59 391.437,1085.08 349.105,1030.57 314.769,974.416 287.959,916.933 270.086,858.538 261.62,799.667 260.679,740.63 269.145,681.697 285.137,623.22 310.536,565.736 343.461,509.412 384.852,454.579 433.298,401.734 489.27,351.374 552.297,303.664 621.439,259.599 696.225,219.509 776.184,183.727 860.612,152.915 948.803,127.734 1039.82,108.518 1132.95,95.5966 1227.4,89.3015 1322.26,89.6329 1416.69,96.5905 1509.82,110.175 1600.71,130.054 1688.67,156.228 1772.86,187.703 1852.35,224.148 1926.66,264.9 1995.34,309.628 2057.42,357.669 2112.45,408.36 2160.43,461.371 2200.41,516.37 2232.86,572.86 2256.85,630.592 2271.9,689.069 2279.43,748.013 2277.55,807.06 2267.2,865.91 2248.38,924.222 2221.57,981.54 2185.83,1037.53 2142.56,1091.87 2091.76,1144.22 2033.9,1193.91 1969,1240.63 1897.97,1283.7 1821.78,1322.8 1740.41,1357.25 1654.8,1386.74 1565.67,1410.26 1473.83,1427.49 1380,1438.43 1285.25,1442.73 1190.39,1440.41 1096.14,1431.47 1003.6,1416.23 913.292,1394.36 826.277,1366.86 743.26,1334.06 665.181,1296.29 592.277,1254.55 525.487,1208.82 465.282,1160.12 412.132,1108.77 366.508,1055.09 328.41,999.597 298.307,942.776 276.671,884.712 263.501,826.028 258.797,766.999 263.501,707.996 275.73,649.311 297.366,591.248 326.528,534.261 364.156,478.6 409.31,424.926 462.46,373.241 522.194,324.206 588.514,278.484 660.478,236.407 738.556,198.636 820.868,165.505 907.412,137.674 997.485,115.807 1089.91,99.9037 1183.98,90.6268 1278.9,87.9763 1373.77,91.9521 1467.72,102.554 1559.79,119.451 1649.39,142.975 1735.47,172.131 1817.54,206.257 1894.21,245.021 1965.7,288.092 2030.61,334.477 2088.94,383.843 2140.2,435.86 2183.95,490.03 2220.16,546.023 2248.38,603.424 2267.2,661.735 2278.49,720.544 2280.37,779.612 2274.72,838.576 2259.67,897.219 2237.1,955.034 2205.58,1011.86 2166.07,1067.19 2118.57,1120.69 2063.54,1171.72 2001.92,1220.09 1933.72,1265.15 1859.87,1306.23 1780.86,1343.01 1696.9,1374.81 1609.18,1401.32 1518.4,1421.53 1425.27,1435.78 1330.73,1443.4 1235.54,1444.39 1140.59,1438.76 1046.87,1426.5 955.153,1407.95 866.021,1383.1 780.888,1352.62 699.987,1317.16 624.261,1277.08 554.178,1233.01 490.681,1185.63 434.239,1135.27 384.852,1082.43 342.99,1027.59 308.655,971.269 283.256,913.537 265.382,854.976 256.916,795.94 255.975,736.737 264.442,677.639 282.315,618.996 307.714,561.263 341.579,504.774 382.97,449.775 432.357,396.764 489.27,346.404 552.297,299.026 621.909,254.96 697.165,214.871 777.595,179.089 862.494,148.276 951.155,123.427 "/>
<path clip-path="url(#clip970)" d="M1764.98 302.578 L2280.8 302.578 L2280.8 95.2176 L1764.98 95.2176  Z" fill="#ffffff" fill-rule="evenodd" fill-opacity="1"/>
<polyline clip-path="url(#clip970)" style="stroke:#000000; stroke-linecap:round; stroke-linejoin:round; stroke-width:4; stroke-opacity:1; fill:none" points="1764.98,302.578 2280.8,302.578 2280.8,95.2176 1764.98,95.2176 1764.98,302.578 "/>
<polyline clip-path="url(#clip970)" style="stroke:#009af9; stroke-linecap:round; stroke-linejoin:round; stroke-width:4; stroke-opacity:1; fill:none" points="1788.97,147.058 1932.89,147.058 "/>
<path clip-path="url(#clip970)" d="M1964.29 131.051 L1964.29 138.412 L1973.06 138.412 L1973.06 141.722 L1964.29 141.722 L1964.29 155.796 Q1964.29 158.967 1965.14 159.87 Q1966.02 160.773 1968.68 160.773 L1973.06 160.773 L1973.06 164.338 L1968.68 164.338 Q1963.75 164.338 1961.88 162.509 Q1960 160.657 1960 155.796 L1960 141.722 L1956.88 141.722 L1956.88 138.412 L1960 138.412 L1960 131.051 L1964.29 131.051 Z" fill="#000000" fill-rule="nonzero" fill-opacity="1" /><path clip-path="url(#clip970)" d="M1993.68 142.393 Q1992.97 141.977 1992.11 141.791 Q1991.28 141.583 1990.26 141.583 Q1986.65 141.583 1984.7 143.944 Q1982.78 146.282 1982.78 150.68 L1982.78 164.338 L1978.5 164.338 L1978.5 138.412 L1982.78 138.412 L1982.78 142.44 Q1984.12 140.078 1986.28 138.944 Q1988.43 137.787 1991.51 137.787 Q1991.95 137.787 1992.48 137.856 Q1993.01 137.903 1993.66 138.018 L1993.68 142.393 Z" fill="#000000" fill-rule="nonzero" fill-opacity="1" /><path clip-path="url(#clip970)" d="M2009.93 151.305 Q2004.77 151.305 2002.78 152.486 Q2000.79 153.666 2000.79 156.514 Q2000.79 158.782 2002.27 160.125 Q2003.78 161.444 2006.35 161.444 Q2009.89 161.444 2012.02 158.944 Q2014.17 156.421 2014.17 152.254 L2014.17 151.305 L2009.93 151.305 M2018.43 149.546 L2018.43 164.338 L2014.17 164.338 L2014.17 160.402 Q2012.71 162.763 2010.54 163.898 Q2008.36 165.009 2005.21 165.009 Q2001.23 165.009 1998.87 162.787 Q1996.53 160.541 1996.53 156.791 Q1996.53 152.416 1999.45 150.194 Q2002.39 147.972 2008.2 147.972 L2014.17 147.972 L2014.17 147.555 Q2014.17 144.615 2012.23 143.018 Q2010.31 141.398 2006.81 141.398 Q2004.59 141.398 2002.48 141.93 Q2000.37 142.463 1998.43 143.527 L1998.43 139.592 Q2000.77 138.69 2002.97 138.25 Q2005.17 137.787 2007.25 137.787 Q2012.87 137.787 2015.65 140.703 Q2018.43 143.62 2018.43 149.546 Z" fill="#000000" fill-rule="nonzero" fill-opacity="1" /><path clip-path="url(#clip970)" d="M2027.2 138.412 L2031.46 138.412 L2031.46 164.338 L2027.2 164.338 L2027.2 138.412 M2027.2 128.319 L2031.46 128.319 L2031.46 133.713 L2027.2 133.713 L2027.2 128.319 Z" fill="#000000" fill-rule="nonzero" fill-opacity="1" /><path clip-path="url(#clip970)" d="M2061.93 148.689 L2061.93 164.338 L2057.67 164.338 L2057.67 148.828 Q2057.67 145.148 2056.23 143.319 Q2054.8 141.49 2051.93 141.49 Q2048.48 141.49 2046.49 143.69 Q2044.49 145.889 2044.49 149.685 L2044.49 164.338 L2040.21 164.338 L2040.21 138.412 L2044.49 138.412 L2044.49 142.44 Q2046.02 140.102 2048.08 138.944 Q2050.17 137.787 2052.87 137.787 Q2057.34 137.787 2059.63 140.565 Q2061.93 143.319 2061.93 148.689 Z" fill="#000000" fill-rule="nonzero" fill-opacity="1" /><path clip-path="url(#clip970)" d="M2070.42 138.412 L2074.68 138.412 L2074.68 164.338 L2070.42 164.338 L2070.42 138.412 M2070.42 128.319 L2074.68 128.319 L2074.68 133.713 L2070.42 133.713 L2070.42 128.319 Z" fill="#000000" fill-rule="nonzero" fill-opacity="1" /><path clip-path="url(#clip970)" d="M2105.14 148.689 L2105.14 164.338 L2100.88 164.338 L2100.88 148.828 Q2100.88 145.148 2099.45 143.319 Q2098.01 141.49 2095.14 141.49 Q2091.69 141.49 2089.7 143.69 Q2087.71 145.889 2087.71 149.685 L2087.71 164.338 L2083.43 164.338 L2083.43 138.412 L2087.71 138.412 L2087.71 142.44 Q2089.24 140.102 2091.3 138.944 Q2093.38 137.787 2096.09 137.787 Q2100.56 137.787 2102.85 140.565 Q2105.14 143.319 2105.14 148.689 Z" fill="#000000" fill-rule="nonzero" fill-opacity="1" /><path clip-path="url(#clip970)" d="M2130.7 151.074 Q2130.7 146.444 2128.78 143.898 Q2126.88 141.352 2123.43 141.352 Q2120 141.352 2118.08 143.898 Q2116.18 146.444 2116.18 151.074 Q2116.18 155.68 2118.08 158.226 Q2120 160.773 2123.43 160.773 Q2126.88 160.773 2128.78 158.226 Q2130.7 155.68 2130.7 151.074 M2134.96 161.12 Q2134.96 167.74 2132.02 170.958 Q2129.08 174.199 2123.01 174.199 Q2120.77 174.199 2118.78 173.851 Q2116.79 173.527 2114.91 172.833 L2114.91 168.689 Q2116.79 169.708 2118.61 170.194 Q2120.44 170.68 2122.34 170.68 Q2126.53 170.68 2128.61 168.481 Q2130.7 166.305 2130.7 161.884 L2130.7 159.777 Q2129.38 162.069 2127.32 163.203 Q2125.26 164.338 2122.39 164.338 Q2117.62 164.338 2114.7 160.703 Q2111.79 157.069 2111.79 151.074 Q2111.79 145.055 2114.7 141.421 Q2117.62 137.787 2122.39 137.787 Q2125.26 137.787 2127.32 138.921 Q2129.38 140.055 2130.7 142.347 L2130.7 138.412 L2134.96 138.412 L2134.96 161.12 Z" fill="#000000" fill-rule="nonzero" fill-opacity="1" /><path clip-path="url(#clip970)" d="M2175.86 142.347 L2175.86 128.319 L2180.12 128.319 L2180.12 164.338 L2175.86 164.338 L2175.86 160.449 Q2174.52 162.763 2172.46 163.898 Q2170.42 165.009 2167.55 165.009 Q2162.85 165.009 2159.89 161.259 Q2156.95 157.509 2156.95 151.398 Q2156.95 145.287 2159.89 141.537 Q2162.85 137.787 2167.55 137.787 Q2170.42 137.787 2172.46 138.921 Q2174.52 140.032 2175.86 142.347 M2161.35 151.398 Q2161.35 156.097 2163.27 158.782 Q2165.21 161.444 2168.59 161.444 Q2171.97 161.444 2173.92 158.782 Q2175.86 156.097 2175.86 151.398 Q2175.86 146.699 2173.92 144.037 Q2171.97 141.352 2168.59 141.352 Q2165.21 141.352 2163.27 144.037 Q2161.35 146.699 2161.35 151.398 Z" fill="#000000" fill-rule="nonzero" fill-opacity="1" /><path clip-path="url(#clip970)" d="M2200.67 151.305 Q2195.51 151.305 2193.52 152.486 Q2191.53 153.666 2191.53 156.514 Q2191.53 158.782 2193.01 160.125 Q2194.52 161.444 2197.09 161.444 Q2200.63 161.444 2202.76 158.944 Q2204.91 156.421 2204.91 152.254 L2204.91 151.305 L2200.67 151.305 M2209.17 149.546 L2209.17 164.338 L2204.91 164.338 L2204.91 160.402 Q2203.45 162.763 2201.28 163.898 Q2199.1 165.009 2195.95 165.009 Q2191.97 165.009 2189.61 162.787 Q2187.27 160.541 2187.27 156.791 Q2187.27 152.416 2190.19 150.194 Q2193.13 147.972 2198.94 147.972 L2204.91 147.972 L2204.91 147.555 Q2204.91 144.615 2202.97 143.018 Q2201.04 141.398 2197.55 141.398 Q2195.33 141.398 2193.22 141.93 Q2191.11 142.463 2189.17 143.527 L2189.17 139.592 Q2191.51 138.69 2193.71 138.25 Q2195.91 137.787 2197.99 137.787 Q2203.61 137.787 2206.39 140.703 Q2209.17 143.62 2209.17 149.546 Z" fill="#000000" fill-rule="nonzero" fill-opacity="1" /><path clip-path="url(#clip970)" d="M2222.16 131.051 L2222.16 138.412 L2230.93 138.412 L2230.93 141.722 L2222.16 141.722 L2222.16 155.796 Q2222.16 158.967 2223.01 159.87 Q2223.89 160.773 2226.55 160.773 L2230.93 160.773 L2230.93 164.338 L2226.55 164.338 Q2221.62 164.338 2219.75 162.509 Q2217.87 160.657 2217.87 155.796 L2217.87 141.722 L2214.75 141.722 L2214.75 138.412 L2217.87 138.412 L2217.87 131.051 L2222.16 131.051 Z" fill="#000000" fill-rule="nonzero" fill-opacity="1" /><path clip-path="url(#clip970)" d="M2248.31 151.305 Q2243.15 151.305 2241.16 152.486 Q2239.17 153.666 2239.17 156.514 Q2239.17 158.782 2240.65 160.125 Q2242.16 161.444 2244.73 161.444 Q2248.27 161.444 2250.4 158.944 Q2252.55 156.421 2252.55 152.254 L2252.55 151.305 L2248.31 151.305 M2256.81 149.546 L2256.81 164.338 L2252.55 164.338 L2252.55 160.402 Q2251.09 162.763 2248.91 163.898 Q2246.74 165.009 2243.59 165.009 Q2239.61 165.009 2237.25 162.787 Q2234.91 160.541 2234.91 156.791 Q2234.91 152.416 2237.83 150.194 Q2240.77 147.972 2246.58 147.972 L2252.55 147.972 L2252.55 147.555 Q2252.55 144.615 2250.6 143.018 Q2248.68 141.398 2245.19 141.398 Q2242.97 141.398 2240.86 141.93 Q2238.75 142.463 2236.81 143.527 L2236.81 139.592 Q2239.15 138.69 2241.35 138.25 Q2243.54 137.787 2245.63 137.787 Q2251.25 137.787 2254.03 140.703 Q2256.81 143.62 2256.81 149.546 Z" fill="#000000" fill-rule="nonzero" fill-opacity="1" /><polyline clip-path="url(#clip970)" style="stroke:#e26f46; stroke-linecap:round; stroke-linejoin:round; stroke-width:4; stroke-opacity:1; fill:none" points="1788.97,198.898 1932.89,198.898 "/>
<path clip-path="url(#clip970)" d="M1956.88 181.618 L1961.56 181.618 L1961.56 212.242 L1978.38 212.242 L1978.38 216.178 L1956.88 216.178 L1956.88 181.618 Z" fill="#000000" fill-rule="nonzero" fill-opacity="1" /><path clip-path="url(#clip970)" d="M1995.93 186.224 L1989.59 203.423 L2002.3 203.423 L1995.93 186.224 M1993.29 181.618 L1998.59 181.618 L2011.76 216.178 L2006.9 216.178 L2003.75 207.312 L1988.18 207.312 L1985.03 216.178 L1980.1 216.178 L1993.29 181.618 Z" fill="#000000" fill-rule="nonzero" fill-opacity="1" /><path clip-path="url(#clip970)" d="M2052.6 182.752 L2052.6 187.312 Q2049.93 186.039 2047.57 185.414 Q2045.21 184.789 2043.01 184.789 Q2039.19 184.789 2037.11 186.27 Q2035.05 187.752 2035.05 190.483 Q2035.05 192.775 2036.42 193.955 Q2037.8 195.113 2041.65 195.83 L2044.47 196.409 Q2049.7 197.405 2052.18 199.928 Q2054.68 202.428 2054.68 206.641 Q2054.68 211.664 2051.3 214.256 Q2047.94 216.849 2041.44 216.849 Q2038.99 216.849 2036.21 216.293 Q2033.45 215.738 2030.49 214.65 L2030.49 209.835 Q2033.34 211.432 2036.07 212.242 Q2038.8 213.053 2041.44 213.053 Q2045.44 213.053 2047.62 211.479 Q2049.8 209.904 2049.8 206.988 Q2049.8 204.442 2048.22 203.006 Q2046.67 201.571 2043.11 200.854 L2040.26 200.298 Q2035.03 199.256 2032.69 197.034 Q2030.35 194.812 2030.35 190.854 Q2030.35 186.27 2033.57 183.631 Q2036.81 180.993 2042.48 180.993 Q2044.91 180.993 2047.43 181.432 Q2049.96 181.872 2052.6 182.752 Z" fill="#000000" fill-rule="nonzero" fill-opacity="1" /><path clip-path="url(#clip970)" d="M2072.57 218.585 Q2070.77 223.215 2069.05 224.627 Q2067.34 226.039 2064.47 226.039 L2061.07 226.039 L2061.07 222.474 L2063.57 222.474 Q2065.33 222.474 2066.3 221.64 Q2067.27 220.807 2068.45 217.705 L2069.22 215.761 L2058.73 190.252 L2063.24 190.252 L2071.35 210.529 L2079.45 190.252 L2083.96 190.252 L2072.57 218.585 Z" fill="#000000" fill-rule="nonzero" fill-opacity="1" /><path clip-path="url(#clip970)" d="M2110.03 195.229 Q2111.62 192.358 2113.85 190.993 Q2116.07 189.627 2119.08 189.627 Q2123.13 189.627 2125.33 192.474 Q2127.53 195.298 2127.53 200.529 L2127.53 216.178 L2123.24 216.178 L2123.24 200.668 Q2123.24 196.942 2121.92 195.136 Q2120.61 193.33 2117.9 193.33 Q2114.59 193.33 2112.67 195.53 Q2110.74 197.729 2110.74 201.525 L2110.74 216.178 L2106.46 216.178 L2106.46 200.668 Q2106.46 196.918 2105.14 195.136 Q2103.82 193.33 2101.07 193.33 Q2097.8 193.33 2095.88 195.553 Q2093.96 197.752 2093.96 201.525 L2093.96 216.178 L2089.68 216.178 L2089.68 190.252 L2093.96 190.252 L2093.96 194.28 Q2095.42 191.895 2097.46 190.761 Q2099.49 189.627 2102.3 189.627 Q2105.12 189.627 2107.09 191.062 Q2109.08 192.497 2110.03 195.229 Z" fill="#000000" fill-rule="nonzero" fill-opacity="1" /><path clip-path="url(#clip970)" d="M2140.14 212.289 L2140.14 226.039 L2135.86 226.039 L2135.86 190.252 L2140.14 190.252 L2140.14 194.187 Q2141.48 191.872 2143.52 190.761 Q2145.58 189.627 2148.43 189.627 Q2153.15 189.627 2156.09 193.377 Q2159.05 197.127 2159.05 203.238 Q2159.05 209.349 2156.09 213.099 Q2153.15 216.849 2148.43 216.849 Q2145.58 216.849 2143.52 215.738 Q2141.48 214.603 2140.14 212.289 M2154.63 203.238 Q2154.63 198.539 2152.69 195.877 Q2150.77 193.192 2147.39 193.192 Q2144.01 193.192 2142.06 195.877 Q2140.14 198.539 2140.14 203.238 Q2140.14 207.937 2142.06 210.622 Q2144.01 213.284 2147.39 213.284 Q2150.77 213.284 2152.69 210.622 Q2154.63 207.937 2154.63 203.238 Z" fill="#000000" fill-rule="nonzero" fill-opacity="1" /><path clip-path="url(#clip970)" d="M2187.67 200.529 L2187.67 216.178 L2183.41 216.178 L2183.41 200.668 Q2183.41 196.988 2181.97 195.159 Q2180.54 193.33 2177.67 193.33 Q2174.22 193.33 2172.23 195.53 Q2170.23 197.729 2170.23 201.525 L2170.23 216.178 L2165.95 216.178 L2165.95 190.252 L2170.23 190.252 L2170.23 194.28 Q2171.76 191.942 2173.82 190.784 Q2175.91 189.627 2178.61 189.627 Q2183.08 189.627 2185.37 192.405 Q2187.67 195.159 2187.67 200.529 Z" fill="#000000" fill-rule="nonzero" fill-opacity="1" /><path clip-path="url(#clip970)" d="M2218.34 202.15 L2218.34 204.233 L2198.75 204.233 Q2199.03 208.631 2201.39 210.946 Q2203.78 213.238 2208.01 213.238 Q2210.47 213.238 2212.76 212.636 Q2215.07 212.034 2217.34 210.83 L2217.34 214.858 Q2215.05 215.83 2212.64 216.34 Q2210.23 216.849 2207.76 216.849 Q2201.55 216.849 2197.92 213.238 Q2194.31 209.627 2194.31 203.469 Q2194.31 197.104 2197.73 193.377 Q2201.18 189.627 2207.02 189.627 Q2212.25 189.627 2215.28 193.006 Q2218.34 196.363 2218.34 202.15 M2214.08 200.9 Q2214.03 197.405 2212.11 195.321 Q2210.21 193.238 2207.06 193.238 Q2203.5 193.238 2201.35 195.252 Q2199.22 197.266 2198.89 200.923 L2214.08 200.9 Z" fill="#000000" fill-rule="nonzero" fill-opacity="1" /><path clip-path="url(#clip970)" d="M2229.54 182.891 L2229.54 190.252 L2238.31 190.252 L2238.31 193.562 L2229.54 193.562 L2229.54 207.636 Q2229.54 210.807 2230.4 211.71 Q2231.28 212.613 2233.94 212.613 L2238.31 212.613 L2238.31 216.178 L2233.94 216.178 Q2229.01 216.178 2227.13 214.349 Q2225.26 212.497 2225.26 207.636 L2225.26 193.562 L2222.13 193.562 L2222.13 190.252 L2225.26 190.252 L2225.26 182.891 L2229.54 182.891 Z" fill="#000000" fill-rule="nonzero" fill-opacity="1" /><polyline clip-path="url(#clip970)" style="stroke:#3da44d; stroke-linecap:round; stroke-linejoin:round; stroke-width:4; stroke-opacity:1; fill:none" points="1788.97,250.738 1932.89,250.738 "/>
<path clip-path="url(#clip970)" d="M1982.43 263.087 L1982.43 253.805 L1974.8 253.805 L1974.8 249.962 L1987.06 249.962 L1987.06 264.8 Q1984.36 266.721 1981.09 267.717 Q1977.83 268.689 1974.12 268.689 Q1966.02 268.689 1961.44 263.967 Q1956.88 259.221 1956.88 250.772 Q1956.88 242.3 1961.44 237.578 Q1966.02 232.833 1974.12 232.833 Q1977.5 232.833 1980.54 233.666 Q1983.59 234.499 1986.16 236.12 L1986.16 241.096 Q1983.57 238.897 1980.65 237.786 Q1977.74 236.675 1974.52 236.675 Q1968.18 236.675 1964.98 240.217 Q1961.81 243.758 1961.81 250.772 Q1961.81 257.763 1964.98 261.305 Q1968.18 264.846 1974.52 264.846 Q1977 264.846 1978.94 264.43 Q1980.88 263.99 1982.43 263.087 Z" fill="#000000" fill-rule="nonzero" fill-opacity="1" /><path clip-path="url(#clip970)" d="M2031.39 234.592 L2031.39 239.152 Q2028.73 237.879 2026.37 237.254 Q2024.01 236.629 2021.81 236.629 Q2017.99 236.629 2015.91 238.11 Q2013.85 239.592 2013.85 242.323 Q2013.85 244.615 2015.21 245.795 Q2016.6 246.953 2020.44 247.67 L2023.27 248.249 Q2028.5 249.245 2030.98 251.768 Q2033.48 254.268 2033.48 258.481 Q2033.48 263.504 2030.1 266.096 Q2026.74 268.689 2020.24 268.689 Q2017.78 268.689 2015 268.133 Q2012.25 267.578 2009.29 266.49 L2009.29 261.675 Q2012.13 263.272 2014.87 264.082 Q2017.6 264.893 2020.24 264.893 Q2024.24 264.893 2026.42 263.319 Q2028.59 261.744 2028.59 258.828 Q2028.59 256.282 2027.02 254.846 Q2025.47 253.411 2021.9 252.694 L2019.05 252.138 Q2013.82 251.096 2011.49 248.874 Q2009.15 246.652 2009.15 242.694 Q2009.15 238.11 2012.37 235.471 Q2015.61 232.833 2021.28 232.833 Q2023.71 232.833 2026.23 233.272 Q2028.75 233.712 2031.39 234.592 Z" fill="#000000" fill-rule="nonzero" fill-opacity="1" /><path clip-path="url(#clip970)" d="M2051.37 270.425 Q2049.56 275.055 2047.85 276.467 Q2046.14 277.879 2043.27 277.879 L2039.87 277.879 L2039.87 274.314 L2042.37 274.314 Q2044.12 274.314 2045.1 273.48 Q2046.07 272.647 2047.25 269.545 L2048.01 267.601 L2037.53 242.092 L2042.04 242.092 L2050.14 262.369 L2058.24 242.092 L2062.76 242.092 L2051.37 270.425 Z" fill="#000000" fill-rule="nonzero" fill-opacity="1" /><path clip-path="url(#clip970)" d="M2088.82 247.069 Q2090.42 244.198 2092.64 242.833 Q2094.86 241.467 2097.87 241.467 Q2101.92 241.467 2104.12 244.314 Q2106.32 247.138 2106.32 252.369 L2106.32 268.018 L2102.04 268.018 L2102.04 252.508 Q2102.04 248.782 2100.72 246.976 Q2099.4 245.17 2096.69 245.17 Q2093.38 245.17 2091.46 247.37 Q2089.54 249.569 2089.54 253.365 L2089.54 268.018 L2085.26 268.018 L2085.26 252.508 Q2085.26 248.758 2083.94 246.976 Q2082.62 245.17 2079.86 245.17 Q2076.6 245.17 2074.68 247.393 Q2072.76 249.592 2072.76 253.365 L2072.76 268.018 L2068.48 268.018 L2068.48 242.092 L2072.76 242.092 L2072.76 246.12 Q2074.22 243.735 2076.25 242.601 Q2078.29 241.467 2081.09 241.467 Q2083.92 241.467 2085.88 242.902 Q2087.87 244.337 2088.82 247.069 Z" fill="#000000" fill-rule="nonzero" fill-opacity="1" /><path clip-path="url(#clip970)" d="M2118.94 264.129 L2118.94 277.879 L2114.66 277.879 L2114.66 242.092 L2118.94 242.092 L2118.94 246.027 Q2120.28 243.712 2122.32 242.601 Q2124.38 241.467 2127.23 241.467 Q2131.95 241.467 2134.89 245.217 Q2137.85 248.967 2137.85 255.078 Q2137.85 261.189 2134.89 264.939 Q2131.95 268.689 2127.23 268.689 Q2124.38 268.689 2122.32 267.578 Q2120.28 266.443 2118.94 264.129 M2133.43 255.078 Q2133.43 250.379 2131.48 247.717 Q2129.56 245.032 2126.18 245.032 Q2122.8 245.032 2120.86 247.717 Q2118.94 250.379 2118.94 255.078 Q2118.94 259.777 2120.86 262.462 Q2122.8 265.124 2126.18 265.124 Q2129.56 265.124 2131.48 262.462 Q2133.43 259.777 2133.43 255.078 Z" fill="#000000" fill-rule="nonzero" fill-opacity="1" /><path clip-path="url(#clip970)" d="M2166.46 252.369 L2166.46 268.018 L2162.2 268.018 L2162.2 252.508 Q2162.2 248.828 2160.77 246.999 Q2159.33 245.17 2156.46 245.17 Q2153.01 245.17 2151.02 247.37 Q2149.03 249.569 2149.03 253.365 L2149.03 268.018 L2144.75 268.018 L2144.75 242.092 L2149.03 242.092 L2149.03 246.12 Q2150.56 243.782 2152.62 242.624 Q2154.7 241.467 2157.41 241.467 Q2161.88 241.467 2164.17 244.245 Q2166.46 246.999 2166.46 252.369 Z" fill="#000000" fill-rule="nonzero" fill-opacity="1" /><path clip-path="url(#clip970)" d="M2197.13 253.99 L2197.13 256.073 L2177.55 256.073 Q2177.83 260.471 2180.19 262.786 Q2182.57 265.078 2186.81 265.078 Q2189.26 265.078 2191.55 264.476 Q2193.87 263.874 2196.14 262.67 L2196.14 266.698 Q2193.85 267.67 2191.44 268.18 Q2189.03 268.689 2186.55 268.689 Q2180.35 268.689 2176.72 265.078 Q2173.11 261.467 2173.11 255.309 Q2173.11 248.944 2176.53 245.217 Q2179.98 241.467 2185.81 241.467 Q2191.04 241.467 2194.08 244.846 Q2197.13 248.203 2197.13 253.99 M2192.87 252.74 Q2192.83 249.245 2190.91 247.161 Q2189.01 245.078 2185.86 245.078 Q2182.29 245.078 2180.14 247.092 Q2178.01 249.106 2177.69 252.763 L2192.87 252.74 Z" fill="#000000" fill-rule="nonzero" fill-opacity="1" /><path clip-path="url(#clip970)" d="M2208.34 234.731 L2208.34 242.092 L2217.11 242.092 L2217.11 245.402 L2208.34 245.402 L2208.34 259.476 Q2208.34 262.647 2209.19 263.55 Q2210.07 264.453 2212.73 264.453 L2217.11 264.453 L2217.11 268.018 L2212.73 268.018 Q2207.8 268.018 2205.93 266.189 Q2204.05 264.337 2204.05 259.476 L2204.05 245.402 L2200.93 245.402 L2200.93 242.092 L2204.05 242.092 L2204.05 234.731 L2208.34 234.731 Z" fill="#000000" fill-rule="nonzero" fill-opacity="1" /></svg>
